<?xml version="1.0" encoding="UTF-8" standalone="no"?>
<!DOCTYPE svg PUBLIC "-//W3C//DTD SVG 1.1//EN"
 "http://www.w3.org/Graphics/SVG/1.1/DTD/svg11.dtd">
<!-- Generated by graphviz version 2.38.0 (20140413.2041)
 -->
<!-- Title: D:/GIT/fhradiov2/settings Pages: 1 -->
<svg width="90pt" height="188pt"
 viewBox="0.00 0.00 90.00 188.00" xmlns="http://www.w3.org/2000/svg" xmlns:xlink="http://www.w3.org/1999/xlink">
<g id="graph0" class="graph" transform="scale(1 1) rotate(0) translate(4 184)">
<title>D:/GIT/fhradiov2/settings</title>
<polygon fill="white" stroke="none" points="-4,4 -4,-184 86,-184 86,4 -4,4"/>
<!-- dir_0c8fd76a6ec5a01c144012824d36fa80 -->
<g id="node1" class="node"><title>dir_0c8fd76a6ec5a01c144012824d36fa80</title>
<g id="a_node1"><a xlink:href="dir_0c8fd76a6ec5a01c144012824d36fa80.html" target="_top" xlink:title="settings">
<polygon fill="#eeeeff" stroke="black" points="82,-180 28,-180 28,-144 82,-144 82,-180"/>
<text text-anchor="middle" x="55" y="-159.5" font-family="Helvetica,sans-Serif" font-size="10.00">settings</text>
</a>
</g>
</g>
<!-- dir_6719ab1f1f7655efc2fa43f7eb574fd1 -->
<g id="node2" class="node"><title>dir_6719ab1f1f7655efc2fa43f7eb574fd1</title>
<g id="a_node2"><a xlink:href="dir_6719ab1f1f7655efc2fa43f7eb574fd1.html" target="_top" xlink:title="libs">
<polygon fill="white" stroke="red" points="54,-36 0,-36 0,-0 54,-0 54,-36"/>
<text text-anchor="middle" x="27" y="-15.5" font-family="Helvetica,sans-Serif" font-size="10.00">libs</text>
</a>
</g>
</g>
<!-- dir_0c8fd76a6ec5a01c144012824d36fa80&#45;&gt;dir_6719ab1f1f7655efc2fa43f7eb574fd1 -->
<g id="edge3" class="edge"><title>dir_0c8fd76a6ec5a01c144012824d36fa80&#45;&gt;dir_6719ab1f1f7655efc2fa43f7eb574fd1</title>
<path fill="none" stroke="black" d="M39.3901,-143.774C31.6271,-134.03 23.0541,-121.184 19,-108 12.7868,-87.7951 15.4541,-63.8851 19.3085,-45.9382"/>
<polygon fill="black" stroke="black" points="22.7313,-46.6736 21.657,-36.1334 15.9239,-45.043 22.7313,-46.6736"/>
<g id="a_edge3&#45;headlabel"><a xlink:href="dir_000013_000003.html" target="_top" xlink:title="1">
<text text-anchor="middle" x="24.6552" y="-48.3307" font-family="Helvetica,sans-Serif" font-size="10.00">1</text>
</a>
</g>
</g>
<!-- dir_1284b95147afa48b330f502c8bbc0529 -->
<g id="node3" class="node"><title>dir_1284b95147afa48b330f502c8bbc0529</title>
<g id="a_node3"><a xlink:href="dir_1284b95147afa48b330f502c8bbc0529.html" target="_top" xlink:title="driver">
<polygon fill="white" stroke="red" points="82,-108 28,-108 28,-72 82,-72 82,-108"/>
<text text-anchor="middle" x="55" y="-87.5" font-family="Helvetica,sans-Serif" font-size="10.00">driver</text>
</a>
</g>
</g>
<!-- dir_0c8fd76a6ec5a01c144012824d36fa80&#45;&gt;dir_1284b95147afa48b330f502c8bbc0529 -->
<g id="edge4" class="edge"><title>dir_0c8fd76a6ec5a01c144012824d36fa80&#45;&gt;dir_1284b95147afa48b330f502c8bbc0529</title>
<path fill="none" stroke="black" d="M49.0843,-143.697C48.2886,-135.983 48.0621,-126.712 48.4047,-118.112"/>
<polygon fill="black" stroke="black" points="51.8984,-118.324 49.105,-108.104 44.9154,-117.836 51.8984,-118.324"/>
<g id="a_edge4&#45;headlabel"><a xlink:href="dir_000013_000000.html" target="_top" xlink:title="1">
<text text-anchor="middle" x="54.4799" y="-119.608" font-family="Helvetica,sans-Serif" font-size="10.00">1</text>
</a>
</g>
</g>
<!-- dir_1284b95147afa48b330f502c8bbc0529&#45;&gt;dir_0c8fd76a6ec5a01c144012824d36fa80 -->
<g id="edge2" class="edge"><title>dir_1284b95147afa48b330f502c8bbc0529&#45;&gt;dir_0c8fd76a6ec5a01c144012824d36fa80</title>
<path fill="none" stroke="black" d="M60.895,-108.104C61.7005,-115.791 61.9369,-125.054 61.604,-133.665"/>
<polygon fill="black" stroke="black" points="58.1085,-133.48 60.9157,-143.697 65.0921,-133.96 58.1085,-133.48"/>
<g id="a_edge2&#45;headlabel"><a xlink:href="dir_000000_000013.html" target="_top" xlink:title="9">
<text text-anchor="middle" x="55.5219" y="-127.2" font-family="Helvetica,sans-Serif" font-size="10.00">9</text>
</a>
</g>
</g>
<!-- dir_1284b95147afa48b330f502c8bbc0529&#45;&gt;dir_6719ab1f1f7655efc2fa43f7eb574fd1 -->
<g id="edge1" class="edge"><title>dir_1284b95147afa48b330f502c8bbc0529&#45;&gt;dir_6719ab1f1f7655efc2fa43f7eb574fd1</title>
<path fill="none" stroke="black" d="M48.0786,-71.6966C44.9253,-63.8132 41.1217,-54.3042 37.6186,-45.5464"/>
<polygon fill="black" stroke="black" points="40.8054,-44.0892 33.8417,-36.1043 34.306,-46.689 40.8054,-44.0892"/>
<g id="a_edge1&#45;headlabel"><a xlink:href="dir_000000_000003.html" target="_top" xlink:title="1">
<text text-anchor="middle" x="44.7765" y="-43.8723" font-family="Helvetica,sans-Serif" font-size="10.00">1</text>
</a>
</g>
</g>
</g>
</svg>
