<?xml version="1.0" encoding="UTF-8" standalone="no"?>
<!DOCTYPE svg PUBLIC "-//W3C//DTD SVG 1.1//EN"
 "http://www.w3.org/Graphics/SVG/1.1/DTD/svg11.dtd">
<!-- Generated by graphviz version 2.38.0 (20140413.2041)
 -->
<!-- Title: D:/GIT/fhradiov2/driver Pages: 1 -->
<svg width="222pt" height="165pt"
 viewBox="0.00 0.00 222.00 165.35" xmlns="http://www.w3.org/2000/svg" xmlns:xlink="http://www.w3.org/1999/xlink">
<g id="graph0" class="graph" transform="scale(1 1) rotate(0) translate(4 161.349)">
<title>D:/GIT/fhradiov2/driver</title>
<polygon fill="white" stroke="none" points="-4,4 -4,-161.349 218,-161.349 218,4 -4,4"/>
<g id="clust1" class="cluster"><title>clusterdir_1284b95147afa48b330f502c8bbc0529</title>
<g id="a_clust1"><a xlink:href="dir_1284b95147afa48b330f502c8bbc0529.html" target="_top">
<polygon fill="#eeeeff" stroke="black" points="8,-8 8,-132 150,-132 150,-8 8,-8"/>
</a>
</g>
</g>
<!-- dir_1284b95147afa48b330f502c8bbc0529 -->
<g id="node1" class="node"><title>dir_1284b95147afa48b330f502c8bbc0529</title>
<text text-anchor="middle" x="115" y="-103.5" font-family="Helvetica,sans-Serif" font-size="10.00">driver</text>
</g>
<!-- dir_503d9bcc45879383b08c0a7ee967393c -->
<g id="node2" class="node"><title>dir_503d9bcc45879383b08c0a7ee967393c</title>
<g id="a_node2"><a xlink:href="dir_503d9bcc45879383b08c0a7ee967393c.html" target="_top" xlink:title="include">
<polygon fill="white" stroke="black" points="142,-52 88,-52 88,-16 142,-16 142,-52"/>
<text text-anchor="middle" x="115" y="-31.5" font-family="Helvetica,sans-Serif" font-size="10.00">include</text>
</a>
</g>
</g>
<!-- dir_1284b95147afa48b330f502c8bbc0529&#45;&gt;dir_503d9bcc45879383b08c0a7ee967393c -->
<g id="edge1" class="edge"><title>dir_1284b95147afa48b330f502c8bbc0529&#45;&gt;dir_503d9bcc45879383b08c0a7ee967393c</title>
<path fill="none" stroke="black" d="M115,-87.6966C115,-79.9827 115,-70.7125 115,-62.1124"/>
<polygon fill="black" stroke="black" points="118.5,-62.1043 115,-52.1043 111.5,-62.1044 118.5,-62.1043"/>
<g id="a_edge1&#45;headlabel"><a xlink:href="dir_000000_000001.html" target="_top" xlink:title="2">
<text text-anchor="middle" x="121.339" y="-63.199" font-family="Helvetica,sans-Serif" font-size="10.00">2</text>
</a>
</g>
</g>
<!-- dir_6719ab1f1f7655efc2fa43f7eb574fd1 -->
<g id="node4" class="node"><title>dir_6719ab1f1f7655efc2fa43f7eb574fd1</title>
<g id="a_node4"><a xlink:href="dir_6719ab1f1f7655efc2fa43f7eb574fd1.html" target="_top" xlink:title="libs">
<polygon fill="white" stroke="red" points="214,-52 160,-52 160,-16 214,-16 214,-52"/>
<text text-anchor="middle" x="187" y="-31.5" font-family="Helvetica,sans-Serif" font-size="10.00">libs</text>
</a>
</g>
</g>
<!-- dir_1284b95147afa48b330f502c8bbc0529&#45;&gt;dir_6719ab1f1f7655efc2fa43f7eb574fd1 -->
<g id="edge2" class="edge"><title>dir_1284b95147afa48b330f502c8bbc0529&#45;&gt;dir_6719ab1f1f7655efc2fa43f7eb574fd1</title>
<path fill="none" stroke="black" d="M132.798,-87.6966C141.604,-79.135 152.382,-68.6562 162.001,-59.3045"/>
<polygon fill="black" stroke="black" points="164.677,-61.5846 169.407,-52.1043 159.797,-56.5657 164.677,-61.5846"/>
<g id="a_edge2&#45;headlabel"><a xlink:href="dir_000000_000003.html" target="_top" xlink:title="1">
<text text-anchor="middle" x="164.079" y="-63.6261" font-family="Helvetica,sans-Serif" font-size="10.00">1</text>
</a>
</g>
</g>
<!-- dir_0c8fd76a6ec5a01c144012824d36fa80 -->
<g id="node5" class="node"><title>dir_0c8fd76a6ec5a01c144012824d36fa80</title>
<g id="a_node5"><a xlink:href="dir_0c8fd76a6ec5a01c144012824d36fa80.html" target="_top" xlink:title="settings">
<polygon fill="none" stroke="black" points="214,-124 160,-124 160,-88 214,-88 214,-124"/>
<text text-anchor="middle" x="187" y="-103.5" font-family="Helvetica,sans-Serif" font-size="10.00">settings</text>
</a>
</g>
</g>
<!-- dir_1284b95147afa48b330f502c8bbc0529&#45;&gt;dir_0c8fd76a6ec5a01c144012824d36fa80 -->
<g id="edge3" class="edge"><title>dir_1284b95147afa48b330f502c8bbc0529&#45;&gt;dir_0c8fd76a6ec5a01c144012824d36fa80</title>
<path fill="none" stroke="black" d="M142.281,-106C144.738,-106 147.194,-106 149.651,-106"/>
<polygon fill="black" stroke="black" points="149.75,-109.5 159.75,-106 149.749,-102.5 149.75,-109.5"/>
<g id="a_edge3&#45;headlabel"><a xlink:href="dir_000000_000013.html" target="_top" xlink:title="9">
<text text-anchor="middle" x="146.155" y="-109.839" font-family="Helvetica,sans-Serif" font-size="10.00">9</text>
</a>
</g>
</g>
<!-- dir_a73e662009d191b54bc30e34ae038220 -->
<g id="node3" class="node"><title>dir_a73e662009d191b54bc30e34ae038220</title>
<g id="a_node3"><a xlink:href="dir_a73e662009d191b54bc30e34ae038220.html" target="_top" xlink:title="src">
<polygon fill="white" stroke="black" points="70,-124 16,-124 16,-88 70,-88 70,-124"/>
<text text-anchor="middle" x="43" y="-103.5" font-family="Helvetica,sans-Serif" font-size="10.00">src</text>
</a>
</g>
</g>
<!-- dir_a73e662009d191b54bc30e34ae038220&#45;&gt;dir_503d9bcc45879383b08c0a7ee967393c -->
<g id="edge4" class="edge"><title>dir_a73e662009d191b54bc30e34ae038220&#45;&gt;dir_503d9bcc45879383b08c0a7ee967393c</title>
<path fill="none" stroke="black" d="M60.7978,-87.6966C69.604,-79.135 80.3821,-68.6562 90.0011,-59.3045"/>
<polygon fill="black" stroke="black" points="92.6768,-61.5846 97.407,-52.1043 87.7972,-56.5657 92.6768,-61.5846"/>
<g id="a_edge4&#45;headlabel"><a xlink:href="dir_000002_000001.html" target="_top" xlink:title="1">
<text text-anchor="middle" x="92.0787" y="-63.6261" font-family="Helvetica,sans-Serif" font-size="10.00">1</text>
</a>
</g>
</g>
<!-- dir_a73e662009d191b54bc30e34ae038220&#45;&gt;dir_0c8fd76a6ec5a01c144012824d36fa80 -->
<g id="edge5" class="edge"><title>dir_a73e662009d191b54bc30e34ae038220&#45;&gt;dir_0c8fd76a6ec5a01c144012824d36fa80</title>
<path fill="none" stroke="black" d="M55.7866,-124.04C63.7989,-133.721 75.0489,-144.721 88,-150 111.459,-159.563 121.709,-159.966 145,-150 154.126,-146.095 162.213,-139.125 168.794,-131.868"/>
<polygon fill="black" stroke="black" points="171.622,-133.94 175.32,-124.012 166.238,-129.467 171.622,-133.94"/>
<g id="a_edge5&#45;headlabel"><a xlink:href="dir_000002_000013.html" target="_top" xlink:title="2">
<text text-anchor="middle" x="171.509" y="-136.019" font-family="Helvetica,sans-Serif" font-size="10.00">2</text>
</a>
</g>
</g>
<!-- dir_0c8fd76a6ec5a01c144012824d36fa80&#45;&gt;dir_1284b95147afa48b330f502c8bbc0529 -->
<g id="edge8" class="edge"><title>dir_0c8fd76a6ec5a01c144012824d36fa80&#45;&gt;dir_1284b95147afa48b330f502c8bbc0529</title>
<path fill="none" stroke="black" d="M159.75,-106C157.293,-106 154.837,-106 152.38,-106"/>
<polygon fill="black" stroke="black" points="152.281,-102.5 142.281,-106 152.281,-109.5 152.281,-102.5"/>
<g id="a_edge8&#45;headlabel"><a xlink:href="dir_000013_000000.html" target="_top" xlink:title="1">
<text text-anchor="middle" x="155.876" y="-97.1607" font-family="Helvetica,sans-Serif" font-size="10.00">1</text>
</a>
</g>
</g>
<!-- dir_0c8fd76a6ec5a01c144012824d36fa80&#45;&gt;dir_503d9bcc45879383b08c0a7ee967393c -->
<g id="edge6" class="edge"><title>dir_0c8fd76a6ec5a01c144012824d36fa80&#45;&gt;dir_503d9bcc45879383b08c0a7ee967393c</title>
<path fill="none" stroke="black" d="M169.202,-87.6966C160.396,-79.135 149.618,-68.6562 139.999,-59.3045"/>
<polygon fill="black" stroke="black" points="142.203,-56.5657 132.593,-52.1043 137.323,-61.5846 142.203,-56.5657"/>
<g id="a_edge6&#45;headlabel"><a xlink:href="dir_000013_000001.html" target="_top" xlink:title="1">
<text text-anchor="middle" x="146.759" y="-54.5356" font-family="Helvetica,sans-Serif" font-size="10.00">1</text>
</a>
</g>
</g>
<!-- dir_0c8fd76a6ec5a01c144012824d36fa80&#45;&gt;dir_6719ab1f1f7655efc2fa43f7eb574fd1 -->
<g id="edge7" class="edge"><title>dir_0c8fd76a6ec5a01c144012824d36fa80&#45;&gt;dir_6719ab1f1f7655efc2fa43f7eb574fd1</title>
<path fill="none" stroke="black" d="M187,-87.6966C187,-79.9827 187,-70.7125 187,-62.1124"/>
<polygon fill="black" stroke="black" points="190.5,-62.1043 187,-52.1043 183.5,-62.1044 190.5,-62.1043"/>
<g id="a_edge7&#45;headlabel"><a xlink:href="dir_000013_000003.html" target="_top" xlink:title="1">
<text text-anchor="middle" x="193.339" y="-63.199" font-family="Helvetica,sans-Serif" font-size="10.00">1</text>
</a>
</g>
</g>
</g>
</svg>
