<?xml version="1.0" encoding="UTF-8" standalone="no"?>
<!DOCTYPE svg PUBLIC "-//W3C//DTD SVG 1.1//EN"
 "http://www.w3.org/Graphics/SVG/1.1/DTD/svg11.dtd">
<!-- Generated by graphviz version 2.38.0 (20140413.2041)
 -->
<!-- Title: encoder_2_update Pages: 1 -->
<svg width="262pt" height="28pt"
 viewBox="0.00 0.00 262.00 28.00" xmlns="http://www.w3.org/2000/svg" xmlns:xlink="http://www.w3.org/1999/xlink">
<g id="graph0" class="graph" transform="scale(1 1) rotate(0) translate(4 24)">
<title>encoder_2_update</title>
<polygon fill="white" stroke="none" points="-4,4 -4,-24 258,-24 258,4 -4,4"/>
<!-- Node1 -->
<g id="node1" class="node"><title>Node1</title>
<polygon fill="#bfbfbf" stroke="black" points="0,-0.5 0,-19.5 96,-19.5 96,-0.5 0,-0.5"/>
<text text-anchor="middle" x="48" y="-7.5" font-family="Helvetica,sans-Serif" font-size="10.00">encoder_2_update</text>
</g>
<!-- Node2 -->
<g id="node2" class="node"><title>Node2</title>
<g id="a_node2"><a xlink:href="handler_8c.html#a4f639cde11f5cab70d795fd2f75c9d22" target="_top" xlink:title="Handler for menu, RDS, time, the encoders and rsq. ">
<polygon fill="white" stroke="black" points="132,-0.5 132,-19.5 180,-19.5 180,-0.5 132,-0.5"/>
<text text-anchor="middle" x="156" y="-7.5" font-family="Helvetica,sans-Serif" font-size="10.00">handler</text>
</a>
</g>
</g>
<!-- Node1&#45;&gt;Node2 -->
<g id="edge1" class="edge"><title>Node1&#45;&gt;Node2</title>
<path fill="none" stroke="midnightblue" d="M106.312,-10C115.334,-10 124.188,-10 131.82,-10"/>
<polygon fill="midnightblue" stroke="midnightblue" points="106.11,-6.5001 96.1104,-10 106.11,-13.5001 106.11,-6.5001"/>
</g>
<!-- Node3 -->
<g id="node3" class="node"><title>Node3</title>
<g id="a_node3"><a xlink:href="main_8c.html#a840291bc02cba5474a4cb46a9b9566fe" target="_top" xlink:title="Main function. ">
<polygon fill="white" stroke="black" points="216,-0.5 216,-19.5 254,-19.5 254,-0.5 216,-0.5"/>
<text text-anchor="middle" x="235" y="-7.5" font-family="Helvetica,sans-Serif" font-size="10.00">main</text>
</a>
</g>
</g>
<!-- Node2&#45;&gt;Node3 -->
<g id="edge2" class="edge"><title>Node2&#45;&gt;Node3</title>
<path fill="none" stroke="midnightblue" d="M190.352,-10C198.996,-10 207.993,-10 215.557,-10"/>
<polygon fill="midnightblue" stroke="midnightblue" points="190.103,-6.5001 180.103,-10 190.103,-13.5001 190.103,-6.5001"/>
</g>
</g>
</svg>
