<?xml version="1.0" encoding="UTF-8" standalone="no"?>
<!DOCTYPE svg PUBLIC "-//W3C//DTD SVG 1.1//EN"
 "http://www.w3.org/Graphics/SVG/1.1/DTD/svg11.dtd">
<!-- Generated by graphviz version 2.38.0 (20140413.2041)
 -->
<!-- Title: ext_interrupt_enable Pages: 1 -->
<svg width="541pt" height="256pt"
 viewBox="0.00 0.00 541.00 256.00" xmlns="http://www.w3.org/2000/svg" xmlns:xlink="http://www.w3.org/1999/xlink">
<g id="graph0" class="graph" transform="scale(1 1) rotate(0) translate(4 252)">
<title>ext_interrupt_enable</title>
<polygon fill="white" stroke="none" points="-4,4 -4,-252 537,-252 537,4 -4,4"/>
<!-- Node1 -->
<g id="node1" class="node"><title>Node1</title>
<polygon fill="#bfbfbf" stroke="black" points="0,-95.5 0,-114.5 104,-114.5 104,-95.5 0,-95.5"/>
<text text-anchor="middle" x="52" y="-102.5" font-family="Helvetica,sans-Serif" font-size="10.00">ext_interrupt_enable</text>
</g>
<!-- Node2 -->
<g id="node2" class="node"><title>Node2</title>
<g id="a_node2"><a xlink:href="si4735_8c.html#a876518b974a7128391e2ff86a597218f" target="_top" xlink:title="SI4735_INIT">
<polygon fill="white" stroke="black" points="147.5,-76.5 147.5,-95.5 215.5,-95.5 215.5,-76.5 147.5,-76.5"/>
<text text-anchor="middle" x="181.5" y="-83.5" font-family="Helvetica,sans-Serif" font-size="10.00">SI4735_INIT</text>
</a>
</g>
</g>
<!-- Node1&#45;&gt;Node2 -->
<g id="edge1" class="edge"><title>Node1&#45;&gt;Node2</title>
<path fill="none" stroke="midnightblue" d="M114.117,-95.8924C125.563,-94.1867 137.122,-92.4642 147.316,-90.9451"/>
<polygon fill="midnightblue" stroke="midnightblue" points="113.499,-92.4457 104.124,-97.3815 114.531,-99.3692 113.499,-92.4457"/>
</g>
<!-- Node6 -->
<g id="node6" class="node"><title>Node6</title>
<g id="a_node6"><a xlink:href="radio_8c.html#ae11dbe9ea82d3ae65b6e80a4e6e995f8" target="_top" xlink:title="Set the volume. ">
<polygon fill="white" stroke="black" points="145,-152.5 145,-171.5 218,-171.5 218,-152.5 145,-152.5"/>
<text text-anchor="middle" x="181.5" y="-159.5" font-family="Helvetica,sans-Serif" font-size="10.00">radio_volume</text>
</a>
</g>
</g>
<!-- Node1&#45;&gt;Node6 -->
<g id="edge5" class="edge"><title>Node1&#45;&gt;Node6</title>
<path fill="none" stroke="midnightblue" d="M83.7731,-118.757C107.069,-129.172 138.472,-143.211 159.09,-152.428"/>
<polygon fill="midnightblue" stroke="midnightblue" points="84.8984,-115.427 74.3406,-114.541 82.0414,-121.817 84.8984,-115.427"/>
</g>
<!-- Node9 -->
<g id="node9" class="node"><title>Node9</title>
<g id="a_node9"><a xlink:href="radio_8c.html#a6d652e9d0f1c54bfe9ec73fe2605b706" target="_top" xlink:title="Tune the frequency. ">
<polygon fill="white" stroke="black" points="140,-114.5 140,-133.5 223,-133.5 223,-114.5 140,-114.5"/>
<text text-anchor="middle" x="181.5" y="-121.5" font-family="Helvetica,sans-Serif" font-size="10.00">radio_tune_freq</text>
</a>
</g>
</g>
<!-- Node1&#45;&gt;Node9 -->
<g id="edge10" class="edge"><title>Node1&#45;&gt;Node9</title>
<path fill="none" stroke="midnightblue" d="M114.285,-114.133C122.998,-115.431 131.772,-116.739 139.956,-117.958"/>
<polygon fill="midnightblue" stroke="midnightblue" points="114.531,-110.631 104.124,-112.619 113.499,-117.554 114.531,-110.631"/>
</g>
<!-- Node13 -->
<g id="node13" class="node"><title>Node13</title>
<g id="a_node13"><a xlink:href="radio_8c.html#aee6321b512830d482a2fc164cf11f9e9" target="_top" xlink:title="Seeking all radio channels. ">
<polygon fill="white" stroke="black" points="143,-38.5 143,-57.5 220,-57.5 220,-38.5 143,-38.5"/>
<text text-anchor="middle" x="181.5" y="-45.5" font-family="Helvetica,sans-Serif" font-size="10.00">radio_seeking</text>
</a>
</g>
</g>
<!-- Node1&#45;&gt;Node13 -->
<g id="edge17" class="edge"><title>Node1&#45;&gt;Node13</title>
<path fill="none" stroke="midnightblue" d="M83.7731,-91.2426C107.069,-80.8281 138.472,-66.7892 159.09,-57.5716"/>
<polygon fill="midnightblue" stroke="midnightblue" points="82.0414,-88.1829 74.3406,-95.4595 84.8984,-94.5734 82.0414,-88.1829"/>
</g>
<!-- Node3 -->
<g id="node3" class="node"><title>Node3</title>
<g id="a_node3"><a xlink:href="radio_8c.html#a3a1de7e31aabba6e408a633c130e618a" target="_top" xlink:title="Initiales the radio. ">
<polygon fill="white" stroke="black" points="287.5,-76.5 287.5,-95.5 343.5,-95.5 343.5,-76.5 287.5,-76.5"/>
<text text-anchor="middle" x="315.5" y="-83.5" font-family="Helvetica,sans-Serif" font-size="10.00">radio_init</text>
</a>
</g>
</g>
<!-- Node2&#45;&gt;Node3 -->
<g id="edge2" class="edge"><title>Node2&#45;&gt;Node3</title>
<path fill="none" stroke="midnightblue" d="M226.059,-86C246.308,-86 269.757,-86 287.419,-86"/>
<polygon fill="midnightblue" stroke="midnightblue" points="225.809,-82.5001 215.809,-86 225.809,-89.5001 225.809,-82.5001"/>
</g>
<!-- Node5 -->
<g id="node5" class="node"><title>Node5</title>
<g id="a_node5"><a xlink:href="radio_8c.html#a5d08cbff96aee4274e785b49a98f14cd" target="_top" xlink:title="Turn radio to standby. ">
<polygon fill="white" stroke="black" points="274,-152.5 274,-171.5 357,-171.5 357,-152.5 274,-152.5"/>
<text text-anchor="middle" x="315.5" y="-159.5" font-family="Helvetica,sans-Serif" font-size="10.00">radio_stand_by</text>
</a>
</g>
</g>
<!-- Node2&#45;&gt;Node5 -->
<g id="edge4" class="edge"><title>Node2&#45;&gt;Node5</title>
<path fill="none" stroke="midnightblue" d="M215.938,-100.431C218.392,-101.867 220.775,-103.393 223,-105 241.859,-118.622 239.428,-130.424 259,-143 264.912,-146.799 271.669,-149.93 278.386,-152.478"/>
<polygon fill="midnightblue" stroke="midnightblue" points="217.364,-97.2263 206.889,-95.6387 214.088,-103.412 217.364,-97.2263"/>
</g>
<!-- Node4 -->
<g id="node4" class="node"><title>Node4</title>
<g id="a_node4"><a xlink:href="main_8c.html#a840291bc02cba5474a4cb46a9b9566fe" target="_top" xlink:title="Main function. ">
<polygon fill="white" stroke="black" points="451.5,-76.5 451.5,-95.5 489.5,-95.5 489.5,-76.5 451.5,-76.5"/>
<text text-anchor="middle" x="470.5" y="-83.5" font-family="Helvetica,sans-Serif" font-size="10.00">main</text>
</a>
</g>
</g>
<!-- Node3&#45;&gt;Node4 -->
<g id="edge3" class="edge"><title>Node3&#45;&gt;Node4</title>
<path fill="none" stroke="midnightblue" d="M353.509,-86C384.497,-86 427.396,-86 451.389,-86"/>
<polygon fill="midnightblue" stroke="midnightblue" points="353.501,-82.5001 343.501,-86 353.501,-89.5001 353.501,-82.5001"/>
</g>
<!-- Node6&#45;&gt;Node3 -->
<g id="edge6" class="edge"><title>Node6&#45;&gt;Node3</title>
<path fill="none" stroke="midnightblue" d="M215.938,-147.569C218.392,-146.133 220.775,-144.607 223,-143 241.859,-129.378 239.428,-117.576 259,-105 267.568,-99.4945 277.911,-95.391 287.335,-92.4343"/>
<polygon fill="midnightblue" stroke="midnightblue" points="214.088,-144.588 206.889,-152.361 217.364,-150.774 214.088,-144.588"/>
</g>
<!-- Node6&#45;&gt;Node5 -->
<g id="edge8" class="edge"><title>Node6&#45;&gt;Node5</title>
<path fill="none" stroke="midnightblue" d="M228.592,-162C243.249,-162 259.352,-162 273.616,-162"/>
<polygon fill="midnightblue" stroke="midnightblue" points="228.221,-158.5 218.221,-162 228.221,-165.5 228.221,-158.5"/>
</g>
<!-- Node7 -->
<g id="node7" class="node"><title>Node7</title>
<g id="a_node7"><a xlink:href="radio_8c.html#a841443a7db6e1c9caef95f3b7af5761f" target="_top" xlink:title="Radio main. ">
<polygon fill="white" stroke="black" points="283.5,-190.5 283.5,-209.5 347.5,-209.5 347.5,-190.5 283.5,-190.5"/>
<text text-anchor="middle" x="315.5" y="-197.5" font-family="Helvetica,sans-Serif" font-size="10.00">radio_main</text>
</a>
</g>
</g>
<!-- Node6&#45;&gt;Node7 -->
<g id="edge7" class="edge"><title>Node6&#45;&gt;Node7</title>
<path fill="none" stroke="midnightblue" d="M225.664,-174.426C244.53,-179.857 266.235,-186.106 283.468,-191.067"/>
<polygon fill="midnightblue" stroke="midnightblue" points="226.387,-170.992 215.809,-171.589 224.451,-177.719 226.387,-170.992"/>
</g>
<!-- Node8 -->
<g id="node8" class="node"><title>Node8</title>
<g id="a_node8"><a xlink:href="radio__settings_8c.html#aba6a09ed7091ec65d2cbf4cd9a9a75f4" target="_top" xlink:title="Sets the volume. ">
<polygon fill="white" stroke="black" points="259,-228.5 259,-247.5 372,-247.5 372,-228.5 259,-228.5"/>
<text text-anchor="middle" x="315.5" y="-235.5" font-family="Helvetica,sans-Serif" font-size="10.00">radio_settings_volume</text>
</a>
</g>
</g>
<!-- Node6&#45;&gt;Node8 -->
<g id="edge9" class="edge"><title>Node6&#45;&gt;Node8</title>
<path fill="none" stroke="midnightblue" d="M201.053,-178.423C215.898,-190.897 237.689,-207.767 259,-219 265.937,-222.657 273.722,-225.833 281.218,-228.486"/>
<polygon fill="midnightblue" stroke="midnightblue" points="203.04,-175.516 193.171,-171.662 198.483,-180.829 203.04,-175.516"/>
</g>
<!-- Node9&#45;&gt;Node3 -->
<g id="edge11" class="edge"><title>Node9&#45;&gt;Node3</title>
<path fill="none" stroke="midnightblue" d="M225.503,-111.62C245.878,-105.755 269.595,-98.9273 287.419,-93.7959"/>
<polygon fill="midnightblue" stroke="midnightblue" points="224.451,-108.281 215.809,-114.411 226.387,-115.008 224.451,-108.281"/>
</g>
<!-- Node9&#45;&gt;Node5 -->
<g id="edge13" class="edge"><title>Node9&#45;&gt;Node5</title>
<path fill="none" stroke="midnightblue" d="M225.541,-136.391C243.618,-141.594 264.319,-147.554 281.201,-152.414"/>
<polygon fill="midnightblue" stroke="midnightblue" points="226.387,-132.992 215.809,-133.589 224.451,-139.719 226.387,-132.992"/>
</g>
<!-- Node9&#45;&gt;Node7 -->
<g id="edge12" class="edge"><title>Node9&#45;&gt;Node7</title>
<path fill="none" stroke="midnightblue" d="M215.938,-138.431C218.392,-139.867 220.775,-141.393 223,-143 241.859,-156.622 239.428,-168.424 259,-181 266.369,-185.735 275.05,-189.433 283.33,-192.256"/>
<polygon fill="midnightblue" stroke="midnightblue" points="217.364,-135.226 206.889,-133.639 214.088,-141.412 217.364,-135.226"/>
</g>
<!-- Node10 -->
<g id="node10" class="node"><title>Node10</title>
<g id="a_node10"><a xlink:href="station__list_8h.html#a14396edaefab23c83e16fea65cc5db9d" target="_top" xlink:title="Handler to select the current station. ">
<polygon fill="white" stroke="black" points="265,-114.5 265,-133.5 366,-133.5 366,-114.5 265,-114.5"/>
<text text-anchor="middle" x="315.5" y="-121.5" font-family="Helvetica,sans-Serif" font-size="10.00">station_list_handler</text>
</a>
</g>
</g>
<!-- Node9&#45;&gt;Node10 -->
<g id="edge14" class="edge"><title>Node9&#45;&gt;Node10</title>
<path fill="none" stroke="midnightblue" d="M233.324,-124C243.683,-124 254.57,-124 264.886,-124"/>
<polygon fill="midnightblue" stroke="midnightblue" points="233.181,-120.5 223.181,-124 233.181,-127.5 233.181,-120.5"/>
</g>
<!-- Node11 -->
<g id="node11" class="node"><title>Node11</title>
<g id="a_node11"><a xlink:href="radio__settings_8c.html#ab424f802ddd3a0570afec524d4f2091b" target="_top" xlink:title="Sets the frequency. ">
<polygon fill="white" stroke="black" points="408,-114.5 408,-133.5 533,-133.5 533,-114.5 408,-114.5"/>
<text text-anchor="middle" x="470.5" y="-121.5" font-family="Helvetica,sans-Serif" font-size="10.00">radio_settings_frequency</text>
</a>
</g>
</g>
<!-- Node10&#45;&gt;Node11 -->
<g id="edge15" class="edge"><title>Node10&#45;&gt;Node11</title>
<path fill="none" stroke="midnightblue" d="M376.323,-124C386.643,-124 397.389,-124 407.758,-124"/>
<polygon fill="midnightblue" stroke="midnightblue" points="376.175,-120.5 366.175,-124 376.175,-127.5 376.175,-120.5"/>
</g>
<!-- Node12 -->
<g id="node12" class="node"><title>Node12</title>
<g id="a_node12"><a xlink:href="radio__settings_8c.html#a90d48a01d9b0ad794fb9416a2ce8f85e" target="_top" xlink:title="Seeks the next station/all available. ">
<polygon fill="white" stroke="black" points="414.5,-38.5 414.5,-57.5 526.5,-57.5 526.5,-38.5 414.5,-38.5"/>
<text text-anchor="middle" x="470.5" y="-45.5" font-family="Helvetica,sans-Serif" font-size="10.00">radio_settings_station</text>
</a>
</g>
</g>
<!-- Node10&#45;&gt;Node12 -->
<g id="edge16" class="edge"><title>Node10&#45;&gt;Node12</title>
<path fill="none" stroke="midnightblue" d="M361.995,-110.502C365.48,-108.848 368.859,-107.018 372,-105 391.572,-92.4237 388.24,-79.2794 408,-67 414.17,-63.1661 421.171,-60.0541 428.184,-57.5448"/>
<polygon fill="midnightblue" stroke="midnightblue" points="360.455,-107.353 352.614,-114.478 363.187,-113.798 360.455,-107.353"/>
</g>
<!-- Node13&#45;&gt;Node3 -->
<g id="edge18" class="edge"><title>Node13&#45;&gt;Node3</title>
<path fill="none" stroke="midnightblue" d="M225.503,-60.3795C245.878,-66.2451 269.595,-73.0727 287.419,-78.2041"/>
<polygon fill="midnightblue" stroke="midnightblue" points="226.387,-56.9921 215.809,-57.589 224.451,-63.7189 226.387,-56.9921"/>
</g>
<!-- Node13&#45;&gt;Node12 -->
<g id="edge21" class="edge"><title>Node13&#45;&gt;Node12</title>
<path fill="none" stroke="midnightblue" d="M230.054,-48C280.719,-48 360.832,-48 414.259,-48"/>
<polygon fill="midnightblue" stroke="midnightblue" points="230.02,-44.5001 220.02,-48 230.02,-51.5001 230.02,-44.5001"/>
</g>
<!-- Node14 -->
<g id="node14" class="node"><title>Node14</title>
<g id="a_node14"><a xlink:href="radio_8c.html#ac96da2886aec92b299b27b500761564c" target="_top" xlink:title="Auto Search for radio stations. ">
<polygon fill="white" stroke="black" points="267.5,-0.5 267.5,-19.5 363.5,-19.5 363.5,-0.5 267.5,-0.5"/>
<text text-anchor="middle" x="315.5" y="-7.5" font-family="Helvetica,sans-Serif" font-size="10.00">radio_auto_search</text>
</a>
</g>
</g>
<!-- Node13&#45;&gt;Node14 -->
<g id="edge19" class="edge"><title>Node13&#45;&gt;Node14</title>
<path fill="none" stroke="midnightblue" d="M225.541,-35.6094C243.618,-30.4055 264.319,-24.4459 281.201,-19.5859"/>
<polygon fill="midnightblue" stroke="midnightblue" points="224.451,-32.2811 215.809,-38.411 226.387,-39.0079 224.451,-32.2811"/>
</g>
<!-- Node14&#45;&gt;Node12 -->
<g id="edge20" class="edge"><title>Node14&#45;&gt;Node12</title>
<path fill="none" stroke="midnightblue" d="M364.977,-22.04C386.352,-27.3488 411.113,-33.4988 431.169,-38.4799"/>
<polygon fill="midnightblue" stroke="midnightblue" points="365.657,-18.6027 355.108,-19.589 363.97,-25.3963 365.657,-18.6027"/>
</g>
</g>
</svg>
