<?xml version="1.0" encoding="UTF-8" standalone="no"?>
<!DOCTYPE svg PUBLIC "-//W3C//DTD SVG 1.1//EN"
 "http://www.w3.org/Graphics/SVG/1.1/DTD/svg11.dtd">
<!-- Generated by graphviz version 2.38.0 (20140413.2041)
 -->
<!-- Title: lcd_write_string Pages: 1 -->
<svg width="746pt" height="474pt"
 viewBox="0.00 0.00 746.00 474.10" xmlns="http://www.w3.org/2000/svg" xmlns:xlink="http://www.w3.org/1999/xlink">
<g id="graph0" class="graph" transform="scale(1 1) rotate(0) translate(4 470.096)">
<title>lcd_write_string</title>
<polygon fill="white" stroke="none" points="-4,4 -4,-470.096 742,-470.096 742,4 -4,4"/>
<!-- Node1 -->
<g id="node1" class="node"><title>Node1</title>
<polygon fill="#bfbfbf" stroke="black" points="0,-228.5 0,-247.5 84,-247.5 84,-228.5 0,-228.5"/>
<text text-anchor="middle" x="42" y="-235.5" font-family="Helvetica,sans-Serif" font-size="10.00">lcd_write_string</text>
</g>
<!-- Node2 -->
<g id="node2" class="node"><title>Node2</title>
<g id="a_node2"><a xlink:href="lcd_8c.html#acd63fb85d212730fa4fcbcbeeccd231e" target="_top" xlink:title="lcd_create_view">
<polygon fill="white" stroke="black" points="120,-228.5 120,-247.5 205,-247.5 205,-228.5 120,-228.5"/>
<text text-anchor="middle" x="162.5" y="-235.5" font-family="Helvetica,sans-Serif" font-size="10.00">lcd_create_view</text>
</a>
</g>
</g>
<!-- Node1&#45;&gt;Node2 -->
<g id="edge1" class="edge"><title>Node1&#45;&gt;Node2</title>
<path fill="none" stroke="midnightblue" d="M94.2887,-238C102.76,-238 111.452,-238 119.656,-238"/>
<polygon fill="midnightblue" stroke="midnightblue" points="94.113,-234.5 84.113,-238 94.1129,-241.5 94.113,-234.5"/>
</g>
<!-- Node3 -->
<g id="node3" class="node"><title>Node3</title>
<g id="a_node3"><a xlink:href="lcd_8c.html#a312eed1baec275e185dc00b760de1356" target="_top" xlink:title="lcd_init">
<polygon fill="white" stroke="black" points="274,-418.5 274,-437.5 321,-437.5 321,-418.5 274,-418.5"/>
<text text-anchor="middle" x="297.5" y="-425.5" font-family="Helvetica,sans-Serif" font-size="10.00">lcd_init</text>
</a>
</g>
</g>
<!-- Node2&#45;&gt;Node3 -->
<g id="edge2" class="edge"><title>Node2&#45;&gt;Node3</title>
<path fill="none" stroke="midnightblue" d="M167.111,-257.713C174.591,-293.025 195.07,-367.268 241,-409 250.045,-417.219 262.805,-421.907 273.81,-424.569"/>
<polygon fill="midnightblue" stroke="midnightblue" points="170.505,-256.833 165.124,-247.707 163.639,-258.197 170.505,-256.833"/>
</g>
<!-- Node4 -->
<g id="node4" class="node"><title>Node4</title>
<g id="a_node4"><a xlink:href="radio_8c.html#a3a1de7e31aabba6e408a633c130e618a" target="_top" xlink:title="Initiales the radio. ">
<polygon fill="white" stroke="black" points="417,-418.5 417,-437.5 473,-437.5 473,-418.5 417,-418.5"/>
<text text-anchor="middle" x="445" y="-425.5" font-family="Helvetica,sans-Serif" font-size="10.00">radio_init</text>
</a>
</g>
</g>
<!-- Node2&#45;&gt;Node4 -->
<g id="edge17" class="edge"><title>Node2&#45;&gt;Node4</title>
<path fill="none" stroke="midnightblue" d="M163.907,-257.799C165.995,-300.919 177.72,-402.975 241,-447 297.515,-486.319 385.334,-454.924 424.267,-437.57"/>
<polygon fill="midnightblue" stroke="midnightblue" points="167.402,-257.604 163.548,-247.735 160.407,-257.853 167.402,-257.604"/>
</g>
<!-- Node6 -->
<g id="node6" class="node"><title>Node6</title>
<g id="a_node6"><a xlink:href="menu_8c.html#a5ca9d2cf65ffedfb30889ee21a6f7f3d" target="_top" xlink:title="Display the current menu. ">
<polygon fill="white" stroke="black" points="259,-380.5 259,-399.5 336,-399.5 336,-380.5 259,-380.5"/>
<text text-anchor="middle" x="297.5" y="-387.5" font-family="Helvetica,sans-Serif" font-size="10.00">menu_display</text>
</a>
</g>
</g>
<!-- Node2&#45;&gt;Node6 -->
<g id="edge5" class="edge"><title>Node2&#45;&gt;Node6</title>
<path fill="none" stroke="midnightblue" d="M170.766,-257.381C181.972,-284.914 205.915,-335.398 241,-366 247.962,-372.072 256.696,-376.806 265.16,-380.404"/>
<polygon fill="midnightblue" stroke="midnightblue" points="173.89,-255.761 166.98,-247.73 167.373,-258.318 173.89,-255.761"/>
</g>
<!-- Node9 -->
<g id="node9" class="node"><title>Node9</title>
<g id="a_node9"><a xlink:href="menu_8c.html#a5621c1bf312de029f43808bf02dc52e3" target="_top" xlink:title="Scroll through the settings. ">
<polygon fill="white" stroke="black" points="390.5,-304.5 390.5,-323.5 499.5,-323.5 499.5,-304.5 390.5,-304.5"/>
<text text-anchor="middle" x="445" y="-311.5" font-family="Helvetica,sans-Serif" font-size="10.00">menu_scroll_settings</text>
</a>
</g>
</g>
<!-- Node2&#45;&gt;Node9 -->
<g id="edge9" class="edge"><title>Node2&#45;&gt;Node9</title>
<path fill="none" stroke="midnightblue" d="M172.275,-256.711C184.181,-279.604 207.836,-317.255 241,-333 300.796,-361.389 381.551,-338.165 420.74,-323.584"/>
<polygon fill="midnightblue" stroke="midnightblue" points="175.351,-255.036 167.769,-247.636 169.082,-258.149 175.351,-255.036"/>
</g>
<!-- Node13 -->
<g id="node13" class="node"><title>Node13</title>
<g id="a_node13"><a xlink:href="menu_8c.html#a503ed2007daa6f20b2f748eedbcb8494" target="_top" xlink:title="Scroll to given position. ">
<polygon fill="white" stroke="black" points="263,-304.5 263,-323.5 332,-323.5 332,-304.5 263,-304.5"/>
<text text-anchor="middle" x="297.5" y="-311.5" font-family="Helvetica,sans-Serif" font-size="10.00">menu_scroll</text>
</a>
</g>
</g>
<!-- Node2&#45;&gt;Node13 -->
<g id="edge13" class="edge"><title>Node2&#45;&gt;Node13</title>
<path fill="none" stroke="midnightblue" d="M182.332,-254.407C197.39,-266.873 219.474,-283.739 241,-295 247.949,-298.635 255.738,-301.802 263.234,-304.454"/>
<polygon fill="midnightblue" stroke="midnightblue" points="184.232,-251.431 174.334,-247.652 179.715,-256.779 184.232,-251.431"/>
</g>
<!-- Node14 -->
<g id="node14" class="node"><title>Node14</title>
<g id="a_node14"><a xlink:href="radio__display_8c.html#a43baede098c7b21694b3fda71685fa06" target="_top" xlink:title="Handler for the display. ">
<polygon fill="white" stroke="black" points="390,-190.5 390,-209.5 500,-209.5 500,-190.5 390,-190.5"/>
<text text-anchor="middle" x="445" y="-197.5" font-family="Helvetica,sans-Serif" font-size="10.00">radio_display_handler</text>
</a>
</g>
</g>
<!-- Node2&#45;&gt;Node14 -->
<g id="edge29" class="edge"><title>Node2&#45;&gt;Node14</title>
<path fill="none" stroke="midnightblue" d="M172.275,-219.289C184.181,-196.396 207.836,-158.745 241,-143 286.369,-121.461 305.765,-129.011 354,-143 385.974,-152.273 417.479,-176.686 433.367,-190.364"/>
<polygon fill="midnightblue" stroke="midnightblue" points="169.082,-217.851 167.769,-228.364 175.351,-220.964 169.082,-217.851"/>
</g>
<!-- Node16 -->
<g id="node16" class="node"><title>Node16</title>
<g id="a_node16"><a xlink:href="radio_8c.html#ac96da2886aec92b299b27b500761564c" target="_top" xlink:title="Auto Search for radio stations. ">
<polygon fill="white" stroke="black" points="397,-38.5 397,-57.5 493,-57.5 493,-38.5 397,-38.5"/>
<text text-anchor="middle" x="445" y="-45.5" font-family="Helvetica,sans-Serif" font-size="10.00">radio_auto_search</text>
</a>
</g>
</g>
<!-- Node2&#45;&gt;Node16 -->
<g id="edge18" class="edge"><title>Node2&#45;&gt;Node16</title>
<path fill="none" stroke="midnightblue" d="M166.043,-218.164C171.903,-181.452 190.008,-103.35 241,-67 286.253,-34.7417 352.351,-34.904 396.707,-39.8539"/>
<polygon fill="midnightblue" stroke="midnightblue" points="162.568,-217.737 164.595,-228.137 169.496,-218.743 162.568,-217.737"/>
</g>
<!-- Node18 -->
<g id="node18" class="node"><title>Node18</title>
<g id="a_node18"><a xlink:href="radio_8c.html#a5d08cbff96aee4274e785b49a98f14cd" target="_top" xlink:title="Turn radio to standby. ">
<polygon fill="white" stroke="black" points="256,-190.5 256,-209.5 339,-209.5 339,-190.5 256,-190.5"/>
<text text-anchor="middle" x="297.5" y="-197.5" font-family="Helvetica,sans-Serif" font-size="10.00">radio_stand_by</text>
</a>
</g>
</g>
<!-- Node2&#45;&gt;Node18 -->
<g id="edge20" class="edge"><title>Node2&#45;&gt;Node18</title>
<path fill="none" stroke="midnightblue" d="M206.867,-225.609C225.081,-220.406 245.939,-214.446 262.949,-209.586"/>
<polygon fill="midnightblue" stroke="midnightblue" points="205.715,-222.298 197.062,-228.411 207.638,-229.029 205.715,-222.298"/>
</g>
<!-- Node19 -->
<g id="node19" class="node"><title>Node19</title>
<g id="a_node19"><a xlink:href="radio__display_8c.html#ac056d01b161ce2b8c286190f619c94f8" target="_top" xlink:title="Updates the speaker symbol according to the current audio state. ">
<polygon fill="white" stroke="black" points="241,-76.5 241,-95.5 354,-95.5 354,-76.5 241,-76.5"/>
<text text-anchor="middle" x="297.5" y="-83.5" font-family="Helvetica,sans-Serif" font-size="10.00">radio_display_speaker</text>
</a>
</g>
</g>
<!-- Node2&#45;&gt;Node19 -->
<g id="edge21" class="edge"><title>Node2&#45;&gt;Node19</title>
<path fill="none" stroke="midnightblue" d="M170.766,-218.619C181.972,-191.086 205.915,-140.602 241,-110 247.962,-103.928 256.696,-99.1941 265.16,-95.5965"/>
<polygon fill="midnightblue" stroke="midnightblue" points="167.373,-217.682 166.98,-228.27 173.89,-220.239 167.373,-217.682"/>
</g>
<!-- Node20 -->
<g id="node20" class="node"><title>Node20</title>
<g id="a_node20"><a xlink:href="radio__display_8c.html#af1021ae1d01d874fb72c3ce3d1b29ad9" target="_top" xlink:title="Displays the RDS data. ">
<polygon fill="white" stroke="black" points="251.5,-266.5 251.5,-285.5 343.5,-285.5 343.5,-266.5 251.5,-266.5"/>
<text text-anchor="middle" x="297.5" y="-273.5" font-family="Helvetica,sans-Serif" font-size="10.00">radio_display_rds</text>
</a>
</g>
</g>
<!-- Node2&#45;&gt;Node20 -->
<g id="edge23" class="edge"><title>Node2&#45;&gt;Node20</title>
<path fill="none" stroke="midnightblue" d="M206.867,-250.391C225.081,-255.594 245.939,-261.554 262.949,-266.414"/>
<polygon fill="midnightblue" stroke="midnightblue" points="207.638,-246.971 197.062,-247.589 205.715,-253.702 207.638,-246.971"/>
</g>
<!-- Node21 -->
<g id="node21" class="node"><title>Node21</title>
<g id="a_node21"><a xlink:href="radio__display_8c.html#ab985392609874befae589a4e4ad57c86" target="_top" xlink:title="Display the PTY/PI states. ">
<polygon fill="white" stroke="black" points="247.5,-228.5 247.5,-247.5 347.5,-247.5 347.5,-228.5 247.5,-228.5"/>
<text text-anchor="middle" x="297.5" y="-235.5" font-family="Helvetica,sans-Serif" font-size="10.00">radio_display_pipty</text>
</a>
</g>
</g>
<!-- Node2&#45;&gt;Node21 -->
<g id="edge25" class="edge"><title>Node2&#45;&gt;Node21</title>
<path fill="none" stroke="midnightblue" d="M215.525,-238C226.045,-238 237.072,-238 247.483,-238"/>
<polygon fill="midnightblue" stroke="midnightblue" points="215.217,-234.5 205.217,-238 215.217,-241.5 215.217,-234.5"/>
</g>
<!-- Node22 -->
<g id="node22" class="node"><title>Node22</title>
<g id="a_node22"><a xlink:href="radio__display_8c.html#aa113a6affc99d406e8c73fc800648cb3" target="_top" xlink:title="Display the RSQ. ">
<polygon fill="white" stroke="black" points="251.5,-152.5 251.5,-171.5 343.5,-171.5 343.5,-152.5 251.5,-152.5"/>
<text text-anchor="middle" x="297.5" y="-159.5" font-family="Helvetica,sans-Serif" font-size="10.00">radio_display_rsq</text>
</a>
</g>
</g>
<!-- Node2&#45;&gt;Node22 -->
<g id="edge27" class="edge"><title>Node2&#45;&gt;Node22</title>
<path fill="none" stroke="midnightblue" d="M182.332,-221.593C197.39,-209.127 219.474,-192.261 241,-181 247.949,-177.365 255.738,-174.198 263.234,-171.546"/>
<polygon fill="midnightblue" stroke="midnightblue" points="179.715,-219.221 174.334,-228.348 184.232,-224.569 179.715,-219.221"/>
</g>
<!-- Node23 -->
<g id="node23" class="node"><title>Node23</title>
<g id="a_node23"><a xlink:href="station__list_8h.html#a9797d901a4c549c775a7067eebf0a5c2" target="_top" xlink:title="In here there are functions declared to display the avaiable station lists and also to add/remove sta...">
<polygon fill="white" stroke="black" points="247.5,-0.5 247.5,-19.5 347.5,-19.5 347.5,-0.5 247.5,-0.5"/>
<text text-anchor="middle" x="297.5" y="-7.5" font-family="Helvetica,sans-Serif" font-size="10.00">station_list_display</text>
</a>
</g>
</g>
<!-- Node2&#45;&gt;Node23 -->
<g id="edge30" class="edge"><title>Node2&#45;&gt;Node23</title>
<path fill="none" stroke="midnightblue" d="M165.891,-217.986C171.669,-177.992 189.901,-87.4566 241,-34 246.948,-27.7775 254.78,-23.0788 262.679,-19.5663"/>
<polygon fill="midnightblue" stroke="midnightblue" points="162.4,-217.687 164.55,-228.061 169.339,-218.611 162.4,-217.687"/>
</g>
<!-- Node3&#45;&gt;Node4 -->
<g id="edge3" class="edge"><title>Node3&#45;&gt;Node4</title>
<path fill="none" stroke="midnightblue" d="M331.308,-428C357.155,-428 392.751,-428 416.974,-428"/>
<polygon fill="midnightblue" stroke="midnightblue" points="331.234,-424.5 321.234,-428 331.234,-431.5 331.234,-424.5"/>
</g>
<!-- Node5 -->
<g id="node5" class="node"><title>Node5</title>
<g id="a_node5"><a xlink:href="main_8c.html#a840291bc02cba5474a4cb46a9b9566fe" target="_top" xlink:title="Main function. ">
<polygon fill="white" stroke="black" points="700,-399.5 700,-418.5 738,-418.5 738,-399.5 700,-399.5"/>
<text text-anchor="middle" x="719" y="-406.5" font-family="Helvetica,sans-Serif" font-size="10.00">main</text>
</a>
</g>
</g>
<!-- Node4&#45;&gt;Node5 -->
<g id="edge4" class="edge"><title>Node4&#45;&gt;Node5</title>
<path fill="none" stroke="midnightblue" d="M483.124,-425.407C542.33,-421.271 655.938,-413.335 699.956,-410.26"/>
<polygon fill="midnightblue" stroke="midnightblue" points="482.807,-421.92 473.075,-426.109 483.294,-428.903 482.807,-421.92"/>
</g>
<!-- Node7 -->
<g id="node7" class="node"><title>Node7</title>
<g id="a_node7"><a xlink:href="menu_8c.html#aaf2a075d3159f7eeab42012941a3437f" target="_top" xlink:title="Handler of the menu, entry to the sub menus and the parent lvl of the menus. ">
<polygon fill="white" stroke="black" points="406.5,-380.5 406.5,-399.5 483.5,-399.5 483.5,-380.5 406.5,-380.5"/>
<text text-anchor="middle" x="445" y="-387.5" font-family="Helvetica,sans-Serif" font-size="10.00">menu_handler</text>
</a>
</g>
</g>
<!-- Node6&#45;&gt;Node7 -->
<g id="edge6" class="edge"><title>Node6&#45;&gt;Node7</title>
<path fill="none" stroke="midnightblue" d="M346.535,-390C365.979,-390 388.096,-390 406.341,-390"/>
<polygon fill="midnightblue" stroke="midnightblue" points="346.349,-386.5 336.349,-390 346.349,-393.5 346.349,-386.5"/>
</g>
<!-- Node8 -->
<g id="node8" class="node"><title>Node8</title>
<g id="a_node8"><a xlink:href="handler_8c.html#a4f639cde11f5cab70d795fd2f75c9d22" target="_top" xlink:title="Handler for menu, RDS, time, the encoders and rsq. ">
<polygon fill="white" stroke="black" points="576,-380.5 576,-399.5 624,-399.5 624,-380.5 576,-380.5"/>
<text text-anchor="middle" x="600" y="-387.5" font-family="Helvetica,sans-Serif" font-size="10.00">handler</text>
</a>
</g>
</g>
<!-- Node7&#45;&gt;Node8 -->
<g id="edge7" class="edge"><title>Node7&#45;&gt;Node8</title>
<path fill="none" stroke="midnightblue" d="M493.972,-390C521.276,-390 554.238,-390 575.864,-390"/>
<polygon fill="midnightblue" stroke="midnightblue" points="493.82,-386.5 483.82,-390 493.82,-393.5 493.82,-386.5"/>
</g>
<!-- Node8&#45;&gt;Node5 -->
<g id="edge8" class="edge"><title>Node8&#45;&gt;Node5</title>
<path fill="none" stroke="midnightblue" d="M634.082,-395.372C655.436,-398.84 682.4,-403.219 699.913,-406.063"/>
<polygon fill="midnightblue" stroke="midnightblue" points="634.547,-391.902 624.115,-393.754 633.425,-398.812 634.547,-391.902"/>
</g>
<!-- Node10 -->
<g id="node10" class="node"><title>Node10</title>
<g id="a_node10"><a xlink:href="radio__settings_8c.html#a2d04f2363bf944b4700b71e0f96ee16f" target="_top" xlink:title="Sets the brightness. ">
<polygon fill="white" stroke="black" points="536,-266.5 536,-285.5 664,-285.5 664,-266.5 536,-266.5"/>
<text text-anchor="middle" x="600" y="-273.5" font-family="Helvetica,sans-Serif" font-size="10.00">radio_settings_brightness</text>
</a>
</g>
</g>
<!-- Node9&#45;&gt;Node10 -->
<g id="edge10" class="edge"><title>Node9&#45;&gt;Node10</title>
<path fill="none" stroke="midnightblue" d="M494.477,-301.96C515.852,-296.651 540.613,-290.501 560.669,-285.52"/>
<polygon fill="midnightblue" stroke="midnightblue" points="493.47,-298.604 484.608,-304.411 495.157,-305.397 493.47,-298.604"/>
</g>
<!-- Node11 -->
<g id="node11" class="node"><title>Node11</title>
<g id="a_node11"><a xlink:href="radio__settings_8c.html#ab8b2e0dbe3fd9644146e798c3e2a3116" target="_top" xlink:title="Sets the contrast. ">
<polygon fill="white" stroke="black" points="541,-342.5 541,-361.5 659,-361.5 659,-342.5 541,-342.5"/>
<text text-anchor="middle" x="600" y="-349.5" font-family="Helvetica,sans-Serif" font-size="10.00">radio_settings_contrast</text>
</a>
</g>
</g>
<!-- Node9&#45;&gt;Node11 -->
<g id="edge11" class="edge"><title>Node9&#45;&gt;Node11</title>
<path fill="none" stroke="midnightblue" d="M494.477,-326.04C515.852,-331.349 540.613,-337.499 560.669,-342.48"/>
<polygon fill="midnightblue" stroke="midnightblue" points="495.157,-322.603 484.608,-323.589 493.47,-329.396 495.157,-322.603"/>
</g>
<!-- Node12 -->
<g id="node12" class="node"><title>Node12</title>
<g id="a_node12"><a xlink:href="radio__settings_8c.html#aba6a09ed7091ec65d2cbf4cd9a9a75f4" target="_top" xlink:title="Sets the volume. ">
<polygon fill="white" stroke="black" points="543.5,-304.5 543.5,-323.5 656.5,-323.5 656.5,-304.5 543.5,-304.5"/>
<text text-anchor="middle" x="600" y="-311.5" font-family="Helvetica,sans-Serif" font-size="10.00">radio_settings_volume</text>
</a>
</g>
</g>
<!-- Node9&#45;&gt;Node12 -->
<g id="edge12" class="edge"><title>Node9&#45;&gt;Node12</title>
<path fill="none" stroke="midnightblue" d="M509.673,-314C520.885,-314 532.475,-314 543.442,-314"/>
<polygon fill="midnightblue" stroke="midnightblue" points="509.512,-310.5 499.512,-314 509.512,-317.5 509.512,-310.5"/>
</g>
<!-- Node13&#45;&gt;Node9 -->
<g id="edge14" class="edge"><title>Node13&#45;&gt;Node9</title>
<path fill="none" stroke="midnightblue" d="M342.374,-314C357.521,-314 374.662,-314 390.493,-314"/>
<polygon fill="midnightblue" stroke="midnightblue" points="342.246,-310.5 332.246,-314 342.246,-317.5 342.246,-310.5"/>
</g>
<!-- Node13&#45;&gt;Node14 -->
<g id="edge15" class="edge"><title>Node13&#45;&gt;Node14</title>
<path fill="none" stroke="midnightblue" d="M341.74,-301.541C346.02,-299.624 350.186,-297.451 354,-295 391.271,-271.051 423.981,-228.466 437.454,-209.532"/>
<polygon fill="midnightblue" stroke="midnightblue" points="340.256,-298.366 332.281,-305.34 342.865,-304.861 340.256,-298.366"/>
</g>
<!-- Node15 -->
<g id="node15" class="node"><title>Node15</title>
<g id="a_node15"><a xlink:href="radio_8c.html#a841443a7db6e1c9caef95f3b7af5761f" target="_top" xlink:title="Radio main. ">
<polygon fill="white" stroke="black" points="568,-190.5 568,-209.5 632,-209.5 632,-190.5 568,-190.5"/>
<text text-anchor="middle" x="600" y="-197.5" font-family="Helvetica,sans-Serif" font-size="10.00">radio_main</text>
</a>
</g>
</g>
<!-- Node14&#45;&gt;Node15 -->
<g id="edge16" class="edge"><title>Node14&#45;&gt;Node15</title>
<path fill="none" stroke="midnightblue" d="M510.629,-200C530.488,-200 551.441,-200 567.958,-200"/>
<polygon fill="midnightblue" stroke="midnightblue" points="510.373,-196.5 500.373,-200 510.373,-203.5 510.373,-196.5"/>
</g>
<!-- Node17 -->
<g id="node17" class="node"><title>Node17</title>
<g id="a_node17"><a xlink:href="radio__settings_8c.html#a90d48a01d9b0ad794fb9416a2ce8f85e" target="_top" xlink:title="Seeks the next station/all available. ">
<polygon fill="white" stroke="black" points="544,-38.5 544,-57.5 656,-57.5 656,-38.5 544,-38.5"/>
<text text-anchor="middle" x="600" y="-45.5" font-family="Helvetica,sans-Serif" font-size="10.00">radio_settings_station</text>
</a>
</g>
</g>
<!-- Node16&#45;&gt;Node17 -->
<g id="edge19" class="edge"><title>Node16&#45;&gt;Node17</title>
<path fill="none" stroke="midnightblue" d="M503.167,-48C516.515,-48 530.703,-48 543.957,-48"/>
<polygon fill="midnightblue" stroke="midnightblue" points="503.154,-44.5001 493.153,-48 503.153,-51.5001 503.154,-44.5001"/>
</g>
<!-- Node19&#45;&gt;Node14 -->
<g id="edge22" class="edge"><title>Node19&#45;&gt;Node14</title>
<path fill="none" stroke="midnightblue" d="M335.411,-99.624C341.835,-102.642 348.283,-106.116 354,-110 389.093,-133.843 422.172,-172.546 436.517,-190.408"/>
<polygon fill="midnightblue" stroke="midnightblue" points="336.666,-96.3527 326.103,-95.5346 333.85,-102.761 336.666,-96.3527"/>
</g>
<!-- Node20&#45;&gt;Node14 -->
<g id="edge24" class="edge"><title>Node20&#45;&gt;Node14</title>
<path fill="none" stroke="midnightblue" d="M340.297,-262.883C344.984,-261.062 349.638,-259.092 354,-257 383.017,-243.083 414.167,-221.752 431.145,-209.515"/>
<polygon fill="midnightblue" stroke="midnightblue" points="338.891,-259.67 330.711,-266.403 341.304,-266.241 338.891,-259.67"/>
</g>
<!-- Node21&#45;&gt;Node14 -->
<g id="edge26" class="edge"><title>Node21&#45;&gt;Node14</title>
<path fill="none" stroke="midnightblue" d="M345.153,-225.816C365.353,-220.54 388.648,-214.456 407.548,-209.52"/>
<polygon fill="midnightblue" stroke="midnightblue" points="344.007,-222.498 335.216,-228.411 345.776,-229.27 344.007,-222.498"/>
</g>
<!-- Node22&#45;&gt;Node14 -->
<g id="edge28" class="edge"><title>Node22&#45;&gt;Node14</title>
<path fill="none" stroke="midnightblue" d="M345.153,-174.184C365.353,-179.46 388.648,-185.544 407.548,-190.48"/>
<polygon fill="midnightblue" stroke="midnightblue" points="345.776,-170.73 335.216,-171.589 344.007,-177.502 345.776,-170.73"/>
</g>
<!-- Node24 -->
<g id="node24" class="node"><title>Node24</title>
<g id="a_node24"><a xlink:href="station__list_8h.html#a14396edaefab23c83e16fea65cc5db9d" target="_top" xlink:title="Handler to select the current station. ">
<polygon fill="white" stroke="black" points="394.5,-0.5 394.5,-19.5 495.5,-19.5 495.5,-0.5 394.5,-0.5"/>
<text text-anchor="middle" x="445" y="-7.5" font-family="Helvetica,sans-Serif" font-size="10.00">station_list_handler</text>
</a>
</g>
</g>
<!-- Node23&#45;&gt;Node24 -->
<g id="edge31" class="edge"><title>Node23&#45;&gt;Node24</title>
<path fill="none" stroke="midnightblue" d="M357.79,-10C369.912,-10 382.551,-10 394.296,-10"/>
<polygon fill="midnightblue" stroke="midnightblue" points="357.76,-6.5001 347.76,-10 357.76,-13.5001 357.76,-6.5001"/>
</g>
<!-- Node24&#45;&gt;Node17 -->
<g id="edge33" class="edge"><title>Node24&#45;&gt;Node17</title>
<path fill="none" stroke="midnightblue" d="M494.477,-22.04C515.852,-27.3488 540.613,-33.4988 560.669,-38.4799"/>
<polygon fill="midnightblue" stroke="midnightblue" points="495.157,-18.6027 484.608,-19.589 493.47,-25.3963 495.157,-18.6027"/>
</g>
<!-- Node25 -->
<g id="node25" class="node"><title>Node25</title>
<g id="a_node25"><a xlink:href="radio__settings_8c.html#ab424f802ddd3a0570afec524d4f2091b" target="_top" xlink:title="Sets the frequency. ">
<polygon fill="white" stroke="black" points="537.5,-0.5 537.5,-19.5 662.5,-19.5 662.5,-0.5 537.5,-0.5"/>
<text text-anchor="middle" x="600" y="-7.5" font-family="Helvetica,sans-Serif" font-size="10.00">radio_settings_frequency</text>
</a>
</g>
</g>
<!-- Node24&#45;&gt;Node25 -->
<g id="edge32" class="edge"><title>Node24&#45;&gt;Node25</title>
<path fill="none" stroke="midnightblue" d="M505.823,-10C516.143,-10 526.889,-10 537.258,-10"/>
<polygon fill="midnightblue" stroke="midnightblue" points="505.675,-6.5001 495.675,-10 505.675,-13.5001 505.675,-6.5001"/>
</g>
</g>
</svg>
