<?xml version="1.0" encoding="UTF-8" standalone="no"?>
<!DOCTYPE svg PUBLIC "-//W3C//DTD SVG 1.1//EN"
 "http://www.w3.org/Graphics/SVG/1.1/DTD/svg11.dtd">
<!-- Generated by graphviz version 2.38.0 (20140413.2041)
 -->
<!-- Title: lcd_init Pages: 1 -->
<!--zoomable 260 -->
<svg id="main" version="1.1" xmlns="http://www.w3.org/2000/svg" xmlns:xlink="http://www.w3.org/1999/xlink" xml:space="preserve" onload="init(evt)">
<style type="text/css"><![CDATA[
.edge:hover path { stroke: red; }
.edge:hover polygon { stroke: red; fill: red; }
]]></style>
<script type="text/javascript"><![CDATA[
var edges = document.getElementsByTagName('g');
if (edges && edges.length) {
  for (var i=0;i<edges.length;i++) {
    if (edges[i].id.substr(0,4)=='edge') {
      edges[i].setAttribute('class','edge');
    }
  }
}
]]></script>
        <defs>
                <circle id="rim" cx="0" cy="0" r="7"/>
                <circle id="rim2" cx="0" cy="0" r="3.5"/>
                <g id="zoomPlus">
                        <use xlink:href="#rim" fill="#404040">
                                <set attributeName="fill" to="#808080" begin="zoomplus.mouseover" end="zoomplus.mouseout"/>
                        </use>
                        <path d="M-4,0h8M0,-4v8" fill="none" stroke="white" stroke-width="1.5" pointer-events="none"/>
                </g>
                <g id="zoomMin">
                        <use xlink:href="#rim" fill="#404040">
                                <set attributeName="fill" to="#808080" begin="zoomminus.mouseover" end="zoomminus.mouseout"/>
                        </use>
                        <path d="M-4,0h8" fill="none" stroke="white" stroke-width="1.5" pointer-events="none"/>
                </g>
                <g id="dirArrow">
                        <path fill="none" stroke="white" stroke-width="1.5" d="M0,-3.0v7 M-2.5,-0.5L0,-3.0L2.5,-0.5"/>
                </g>
               <g id="resetDef">
                       <use xlink:href="#rim2" fill="#404040">
                               <set attributeName="fill" to="#808080" begin="reset.mouseover" end="reset.mouseout"/>
                       </use>
               </g>
        </defs>

<script type="text/javascript">
var viewWidth = 779;
var viewHeight = 260;
var sectionId = 'dynsection-12';
</script>
<script xlink:href="svgpan.js"/>
<svg id="graph" class="graph">
<g id="viewport">
<title>lcd_init</title>
<polygon fill="white" stroke="none" points="-4,4 -4,-255.77 775,-255.77 775,4 -4,4"/>
<!-- Node1 -->
<g id="node1" class="node"><title>Node1</title>
<polygon fill="#bfbfbf" stroke="black" points="0,-147.27 0,-166.27 47,-166.27 47,-147.27 0,-147.27"/>
<text text-anchor="middle" x="23.5" y="-154.27" font-family="Helvetica,sans-Serif" font-size="10.00">lcd_init</text>
</g>
<!-- Node2 -->
<g id="node2" class="node"><title>Node2</title>
<g id="a_node2"><a xlink:href="timer_8c.html#a276d5cb665b9f8b2c79e53e2f2c5b4f0" target="_top" xlink:title="_delay_ms">
<polygon fill="white" stroke="black" points="480,-128.27 480,-147.27 544,-147.27 544,-128.27 480,-128.27"/>
<text text-anchor="middle" x="512" y="-135.27" font-family="Helvetica,sans-Serif" font-size="10.00">_delay_ms</text>
</a>
</g>
</g>
<!-- Node1&#45;&gt;Node2 -->
<g id="edge1" class="edge"><title>Node1&#45;&gt;Node2</title>
<path fill="none" stroke="midnightblue" d="M47.1522,-165.964C57.8338,-169.82 70.8708,-173.849 83,-175.77 239.937,-200.616 284.311,-188.509 440,-156.77 449.744,-154.783 460.134,-152.246 469.875,-149.677"/>
<polygon fill="midnightblue" stroke="midnightblue" points="470.998,-152.999 479.737,-147.009 469.17,-146.242 470.998,-152.999"/>
</g>
<!-- Node3 -->
<g id="node3" class="node"><title>Node3</title>
<g id="a_node3"><a xlink:href="timer_8c.html#a3c56af3315c2461dec5ced585a5f84db" target="_top" xlink:title="_delay_ten_us">
<polygon fill="white" stroke="black" points="691,-109.27 691,-128.27 771,-128.27 771,-109.27 691,-109.27"/>
<text text-anchor="middle" x="731" y="-116.27" font-family="Helvetica,sans-Serif" font-size="10.00">_delay_ten_us</text>
</a>
</g>
</g>
<!-- Node1&#45;&gt;Node3 -->
<g id="edge6" class="edge"><title>Node1&#45;&gt;Node3</title>
<path fill="none" stroke="midnightblue" d="M36.4078,-166.285C47.798,-174.992 65.7473,-187.712 83,-195.77 162.958,-233.115 185.251,-251.77 273.5,-251.77 273.5,-251.77 273.5,-251.77 513,-251.77 600.541,-251.77 682.551,-172.114 715.162,-136.093"/>
<polygon fill="midnightblue" stroke="midnightblue" points="718.022,-138.142 722.03,-128.335 712.781,-133.503 718.022,-138.142"/>
</g>
<!-- Node4 -->
<g id="node4" class="node"><title>Node4</title>
<g id="a_node4"><a xlink:href="i2c_8h.html#a6691e5911f539e1e8178c6e983e8079a" target="_top" xlink:title="Transmits I2C commands with a variable length to a I2C slave. ">
<polygon fill="white" stroke="black" points="476,-90.2698 476,-109.27 548,-109.27 548,-90.2698 476,-90.2698"/>
<text text-anchor="middle" x="512" y="-97.2698" font-family="Helvetica,sans-Serif" font-size="10.00">i2c_write_var</text>
</a>
</g>
</g>
<!-- Node1&#45;&gt;Node4 -->
<g id="edge3" class="edge"><title>Node1&#45;&gt;Node4</title>
<path fill="none" stroke="midnightblue" d="M27.2841,-147.26C33.5893,-127.579 50.9604,-82.4933 83,-61.7698 216.416,24.5246 290.111,9.95289 440,-42.7698 462.437,-50.662 483.027,-68.9685 496.19,-82.7204"/>
<polygon fill="midnightblue" stroke="midnightblue" points="493.697,-85.1806 503.04,-90.1778 498.853,-80.4453 493.697,-85.1806"/>
</g>
<!-- Node6 -->
<g id="node6" class="node"><title>Node6</title>
<g id="a_node6"><a xlink:href="lcd_8c.html#a250728451a22259562d3f01a12bbd77b" target="_top" xlink:title="lcd_command">
<polygon fill="white" stroke="black" points="359.5,-128.27 359.5,-147.27 436.5,-147.27 436.5,-128.27 359.5,-128.27"/>
<text text-anchor="middle" x="398" y="-135.27" font-family="Helvetica,sans-Serif" font-size="10.00">lcd_command</text>
</a>
</g>
</g>
<!-- Node1&#45;&gt;Node6 -->
<g id="edge7" class="edge"><title>Node1&#45;&gt;Node6</title>
<path fill="none" stroke="midnightblue" d="M47.2266,-158.63C96.9246,-162.29 218.909,-169.058 320,-156.77 331.84,-155.331 344.484,-152.69 356.032,-149.826"/>
<polygon fill="midnightblue" stroke="midnightblue" points="357.051,-153.177 365.85,-147.275 355.291,-146.402 357.051,-153.177"/>
</g>
<!-- Node7 -->
<g id="node7" class="node"><title>Node7</title>
<g id="a_node7"><a xlink:href="lcd_8c.html#a6b9abf6cd27026b67144523ffbef4916" target="_top" xlink:title="lcd_generatebargraph">
<polygon fill="white" stroke="black" points="83,-71.2698 83,-90.2698 193,-90.2698 193,-71.2698 83,-71.2698"/>
<text text-anchor="middle" x="138" y="-78.2698" font-family="Helvetica,sans-Serif" font-size="10.00">lcd_generatebargraph</text>
</a>
</g>
</g>
<!-- Node1&#45;&gt;Node7 -->
<g id="edge10" class="edge"><title>Node1&#45;&gt;Node7</title>
<path fill="none" stroke="midnightblue" d="M38.7482,-147.144C57.8522,-134.239 91.9732,-111.188 114.549,-95.9364"/>
<polygon fill="midnightblue" stroke="midnightblue" points="116.54,-98.8152 122.867,-90.3171 112.622,-93.0148 116.54,-98.8152"/>
</g>
<!-- Node10 -->
<g id="node10" class="node"><title>Node10</title>
<g id="a_node10"><a xlink:href="lcd_8c.html#acd63fb85d212730fa4fcbcbeeccd231e" target="_top" xlink:title="lcd_create_view">
<polygon fill="white" stroke="black" points="95.5,-128.27 95.5,-147.27 180.5,-147.27 180.5,-128.27 95.5,-128.27"/>
<text text-anchor="middle" x="138" y="-135.27" font-family="Helvetica,sans-Serif" font-size="10.00">lcd_create_view</text>
</a>
</g>
</g>
<!-- Node1&#45;&gt;Node10 -->
<g id="edge16" class="edge"><title>Node1&#45;&gt;Node10</title>
<path fill="none" stroke="midnightblue" d="M47.2661,-152.925C58.215,-151.076 71.825,-148.777 85.1089,-146.534"/>
<polygon fill="midnightblue" stroke="midnightblue" points="85.8766,-149.954 95.1541,-144.837 84.7109,-143.051 85.8766,-149.954"/>
</g>
<!-- Node2&#45;&gt;Node3 -->
<g id="edge2" class="edge"><title>Node2&#45;&gt;Node3</title>
<path fill="none" stroke="midnightblue" d="M544.091,-135.048C579.818,-131.919 638.912,-126.745 680.879,-123.071"/>
<polygon fill="midnightblue" stroke="midnightblue" points="681.231,-126.553 690.887,-122.194 680.62,-119.58 681.231,-126.553"/>
</g>
<!-- Node5 -->
<g id="node5" class="node"><title>Node5</title>
<g id="a_node5"><a xlink:href="i2c_8c.html#ae0625b97d3437bcaca4ac4b96dd01978" target="_top" xlink:title="Transmits I2C command array to a I2C slave. ">
<polygon fill="white" stroke="black" points="584,-90.2698 584,-109.27 655,-109.27 655,-90.2698 584,-90.2698"/>
<text text-anchor="middle" x="619.5" y="-97.2698" font-family="Helvetica,sans-Serif" font-size="10.00">i2c_write_arr</text>
</a>
</g>
</g>
<!-- Node4&#45;&gt;Node5 -->
<g id="edge4" class="edge"><title>Node4&#45;&gt;Node5</title>
<path fill="none" stroke="midnightblue" d="M548.13,-99.7698C556.312,-99.7698 565.133,-99.7698 573.671,-99.7698"/>
<polygon fill="midnightblue" stroke="midnightblue" points="573.882,-103.27 583.882,-99.7698 573.882,-96.2699 573.882,-103.27"/>
</g>
<!-- Node5&#45;&gt;Node3 -->
<g id="edge5" class="edge"><title>Node5&#45;&gt;Node3</title>
<path fill="none" stroke="midnightblue" d="M655.146,-105.781C663.253,-107.188 672.042,-108.713 680.651,-110.207"/>
<polygon fill="midnightblue" stroke="midnightblue" points="680.172,-113.676 690.623,-111.937 681.368,-106.779 680.172,-113.676"/>
</g>
<!-- Node6&#45;&gt;Node2 -->
<g id="edge9" class="edge"><title>Node6&#45;&gt;Node2</title>
<path fill="none" stroke="midnightblue" d="M436.606,-137.77C447.201,-137.77 458.784,-137.77 469.588,-137.77"/>
<polygon fill="midnightblue" stroke="midnightblue" points="469.651,-141.27 479.65,-137.77 469.65,-134.27 469.651,-141.27"/>
</g>
<!-- Node6&#45;&gt;Node4 -->
<g id="edge8" class="edge"><title>Node6&#45;&gt;Node4</title>
<path fill="none" stroke="midnightblue" d="M427.262,-128.181C441.19,-123.455 458.18,-117.691 473.207,-112.592"/>
<polygon fill="midnightblue" stroke="midnightblue" points="474.401,-115.883 482.747,-109.356 472.152,-109.254 474.401,-115.883"/>
</g>
<!-- Node8 -->
<g id="node8" class="node"><title>Node8</title>
<g id="a_node8"><a xlink:href="lcd_8c.html#ac5d817278ad99ea7420d6240c7e6cba6" target="_top" xlink:title="lcd_generatechar">
<polygon fill="white" stroke="black" points="229,-52.2698 229,-71.2698 320,-71.2698 320,-52.2698 229,-52.2698"/>
<text text-anchor="middle" x="274.5" y="-59.2698" font-family="Helvetica,sans-Serif" font-size="10.00">lcd_generatechar</text>
</a>
</g>
</g>
<!-- Node7&#45;&gt;Node8 -->
<g id="edge11" class="edge"><title>Node7&#45;&gt;Node8</title>
<path fill="none" stroke="midnightblue" d="M193.319,-73.0965C201.716,-71.9103 210.392,-70.6847 218.797,-69.4973"/>
<polygon fill="midnightblue" stroke="midnightblue" points="219.466,-72.9376 228.878,-68.0732 218.487,-66.0064 219.466,-72.9376"/>
</g>
<!-- Node8&#45;&gt;Node6 -->
<g id="edge12" class="edge"><title>Node8&#45;&gt;Node6</title>
<path fill="none" stroke="midnightblue" d="M287.581,-71.3846C302.935,-83.3503 330.513,-104.006 356,-118.77 359.01,-120.514 362.208,-122.223 365.438,-123.858"/>
<polygon fill="midnightblue" stroke="midnightblue" points="363.969,-127.036 374.496,-128.236 367.015,-120.733 363.969,-127.036"/>
</g>
<!-- Node9 -->
<g id="node9" class="node"><title>Node9</title>
<g id="a_node9"><a xlink:href="lcd_8c.html#a1a22a2c5cd6e0e4e06977a2f78a7ab08" target="_top" xlink:title="lcd_write_char">
<polygon fill="white" stroke="black" points="358.5,-52.2698 358.5,-71.2698 437.5,-71.2698 437.5,-52.2698 358.5,-52.2698"/>
<text text-anchor="middle" x="398" y="-59.2698" font-family="Helvetica,sans-Serif" font-size="10.00">lcd_write_char</text>
</a>
</g>
</g>
<!-- Node8&#45;&gt;Node9 -->
<g id="edge13" class="edge"><title>Node8&#45;&gt;Node9</title>
<path fill="none" stroke="midnightblue" d="M320.052,-61.7698C329.205,-61.7698 338.887,-61.7698 348.181,-61.7698"/>
<polygon fill="midnightblue" stroke="midnightblue" points="348.46,-65.2699 358.46,-61.7698 348.46,-58.2699 348.46,-65.2699"/>
</g>
<!-- Node9&#45;&gt;Node3 -->
<g id="edge14" class="edge"><title>Node9&#45;&gt;Node3</title>
<path fill="none" stroke="midnightblue" d="M437.538,-59.9788C488.351,-58.6613 580.08,-59.9121 655,-80.7698 673.341,-85.8759 692.461,-95.6431 706.806,-103.996"/>
<polygon fill="midnightblue" stroke="midnightblue" points="705.114,-107.063 715.487,-109.218 708.722,-101.064 705.114,-107.063"/>
</g>
<!-- Node9&#45;&gt;Node4 -->
<g id="edge15" class="edge"><title>Node9&#45;&gt;Node4</title>
<path fill="none" stroke="midnightblue" d="M427.262,-71.3588C441.19,-76.0842 458.18,-81.8486 473.207,-86.9472"/>
<polygon fill="midnightblue" stroke="midnightblue" points="472.152,-90.2852 482.747,-90.1838 474.401,-83.6564 472.152,-90.2852"/>
</g>
<!-- Node11 -->
<g id="node11" class="node"><title>Node11</title>
<g id="a_node11"><a xlink:href="lcd_8c.html#a2a4df97ebc5b396233aa31765228ef42" target="_top" xlink:title="lcd_set_courser">
<polygon fill="white" stroke="black" points="231.5,-128.27 231.5,-147.27 317.5,-147.27 317.5,-128.27 231.5,-128.27"/>
<text text-anchor="middle" x="274.5" y="-135.27" font-family="Helvetica,sans-Serif" font-size="10.00">lcd_set_courser</text>
</a>
</g>
</g>
<!-- Node10&#45;&gt;Node11 -->
<g id="edge17" class="edge"><title>Node10&#45;&gt;Node11</title>
<path fill="none" stroke="midnightblue" d="M180.819,-137.77C193.601,-137.77 207.82,-137.77 221.207,-137.77"/>
<polygon fill="midnightblue" stroke="midnightblue" points="221.243,-141.27 231.243,-137.77 221.243,-134.27 221.243,-141.27"/>
</g>
<!-- Node12 -->
<g id="node12" class="node"><title>Node12</title>
<g id="a_node12"><a xlink:href="lcd_8c.html#aa6e1aa2ef9b677e16d8198df683429ec" target="_top" xlink:title="lcd_write_string">
<polygon fill="white" stroke="black" points="356,-90.2698 356,-109.27 440,-109.27 440,-90.2698 356,-90.2698"/>
<text text-anchor="middle" x="398" y="-97.2698" font-family="Helvetica,sans-Serif" font-size="10.00">lcd_write_string</text>
</a>
</g>
</g>
<!-- Node10&#45;&gt;Node12 -->
<g id="edge19" class="edge"><title>Node10&#45;&gt;Node12</title>
<path fill="none" stroke="midnightblue" d="M180.066,-128.238C195.366,-124.915 212.92,-121.37 229,-118.77 267.996,-112.463 312.419,-107.537 345.787,-104.282"/>
<polygon fill="midnightblue" stroke="midnightblue" points="346.149,-107.763 355.77,-103.326 345.482,-100.795 346.149,-107.763"/>
</g>
<!-- Node11&#45;&gt;Node6 -->
<g id="edge18" class="edge"><title>Node11&#45;&gt;Node6</title>
<path fill="none" stroke="midnightblue" d="M317.654,-137.77C327.832,-137.77 338.781,-137.77 349.197,-137.77"/>
<polygon fill="midnightblue" stroke="midnightblue" points="349.387,-141.27 359.387,-137.77 349.387,-134.27 349.387,-141.27"/>
</g>
<!-- Node12&#45;&gt;Node4 -->
<g id="edge20" class="edge"><title>Node12&#45;&gt;Node4</title>
<path fill="none" stroke="midnightblue" d="M440.069,-99.7698C448.413,-99.7698 457.234,-99.7698 465.715,-99.7698"/>
<polygon fill="midnightblue" stroke="midnightblue" points="465.836,-103.27 475.836,-99.7698 465.836,-96.2699 465.836,-103.27"/>
</g>
</g>
</svg>
        <g id="navigator" transform="translate(0 0)" fill="#404254">
                <rect fill="#f2f5e9" fill-opacity="0.5" stroke="#606060" stroke-width=".5" x="0" y="0" width="60" height="60"/>
                <use id="zoomplus" xlink:href="#zoomPlus" x="17" y="9" onmousedown="handleZoom(evt,'in')"/>
                <use id="zoomminus" xlink:href="#zoomMin" x="42" y="9" onmousedown="handleZoom(evt,'out')"/>
                <use id="reset" xlink:href="#resetDef" x="30" y="36" onmousedown="handleReset()"/>
                <g id="arrowUp" xlink:href="#dirArrow" transform="translate(30 24)" onmousedown="handlePan(0,-1)">
                  <use xlink:href="#rim" fill="#404040">
                        <set attributeName="fill" to="#808080" begin="arrowUp.mouseover" end="arrowUp.mouseout"/>
                  </use>
                  <path fill="none" stroke="white" stroke-width="1.5" d="M0,-3.0v7 M-2.5,-0.5L0,-3.0L2.5,-0.5"/>
                </g>
                <g id="arrowRight" xlink:href="#dirArrow" transform="rotate(90) translate(36 -43)" onmousedown="handlePan(1,0)">
                  <use xlink:href="#rim" fill="#404040">
                        <set attributeName="fill" to="#808080" begin="arrowRight.mouseover" end="arrowRight.mouseout"/>
                  </use>
                  <path fill="none" stroke="white" stroke-width="1.5" d="M0,-3.0v7 M-2.5,-0.5L0,-3.0L2.5,-0.5"/>
                </g>
                <g id="arrowDown" xlink:href="#dirArrow" transform="rotate(180) translate(-30 -48)" onmousedown="handlePan(0,1)">
                  <use xlink:href="#rim" fill="#404040">
                        <set attributeName="fill" to="#808080" begin="arrowDown.mouseover" end="arrowDown.mouseout"/>
                  </use>
                  <path fill="none" stroke="white" stroke-width="1.5" d="M0,-3.0v7 M-2.5,-0.5L0,-3.0L2.5,-0.5"/>
                </g>
                <g id="arrowLeft" xlink:href="#dirArrow" transform="rotate(270) translate(-36 17)" onmousedown="handlePan(-1,0)">
                  <use xlink:href="#rim" fill="#404040">
                        <set attributeName="fill" to="#808080" begin="arrowLeft.mouseover" end="arrowLeft.mouseout"/>
                  </use>
                  <path fill="none" stroke="white" stroke-width="1.5" d="M0,-3.0v7 M-2.5,-0.5L0,-3.0L2.5,-0.5"/>
                </g>
        </g>
        <svg viewBox="0 0 15 15" width="100%" height="30px" preserveAspectRatio="xMaxYMin meet">
         <g id="arrow_out" transform="scale(0.3 0.3)">
          <a xlink:href="lcd_8h_a312eed1baec275e185dc00b760de1356_cgraph_org.svg" target="_base">
           <rect id="button" ry="5" rx="5" y="6" x="6" height="38" width="38"
                fill="#f2f5e9" fill-opacity="0.5" stroke="#606060" stroke-width="1.0"/>
           <path id="arrow"
             d="M 11.500037,31.436501 C 11.940474,20.09759 22.043105,11.32322 32.158766,21.979434 L 37.068811,17.246167 C 37.068811,17.246167 37.088388,32 37.088388,32 L 22.160133,31.978069 C 22.160133,31.978069 26.997745,27.140456 26.997745,27.140456 C 18.528582,18.264221 13.291696,25.230495 11.500037,31.436501 z"
             style="fill:#404040;"/>
          </a>
         </g>
        </svg>
</svg>
