<?xml version="1.0" encoding="UTF-8" standalone="no"?>
<!DOCTYPE svg PUBLIC "-//W3C//DTD SVG 1.1//EN"
 "http://www.w3.org/Graphics/SVG/1.1/DTD/svg11.dtd">
<!-- Generated by graphviz version 2.38.0 (20140413.2041)
 -->
<!-- Title: lcd_contrast Pages: 1 -->
<svg width="522pt" height="66pt"
 viewBox="0.00 0.00 522.00 66.00" xmlns="http://www.w3.org/2000/svg" xmlns:xlink="http://www.w3.org/1999/xlink">
<g id="graph0" class="graph" transform="scale(1 1) rotate(0) translate(4 62)">
<title>lcd_contrast</title>
<polygon fill="white" stroke="none" points="-4,4 -4,-62 518,-62 518,4 -4,4"/>
<!-- Node1 -->
<g id="node1" class="node"><title>Node1</title>
<polygon fill="#bfbfbf" stroke="black" points="0,-19.5 0,-38.5 70,-38.5 70,-19.5 0,-19.5"/>
<text text-anchor="middle" x="35" y="-26.5" font-family="Helvetica,sans-Serif" font-size="10.00">lcd_contrast</text>
</g>
<!-- Node2 -->
<g id="node2" class="node"><title>Node2</title>
<g id="a_node2"><a xlink:href="lcd_8c.html#a250728451a22259562d3f01a12bbd77b" target="_top" xlink:title="lcd_command">
<polygon fill="white" stroke="black" points="106,-19.5 106,-38.5 183,-38.5 183,-19.5 106,-19.5"/>
<text text-anchor="middle" x="144.5" y="-26.5" font-family="Helvetica,sans-Serif" font-size="10.00">lcd_command</text>
</a>
</g>
</g>
<!-- Node1&#45;&gt;Node2 -->
<g id="edge1" class="edge"><title>Node1&#45;&gt;Node2</title>
<path fill="none" stroke="midnightblue" d="M70.0137,-29C78.2371,-29 87.1762,-29 95.8966,-29"/>
<polygon fill="midnightblue" stroke="midnightblue" points="95.9772,-32.5001 105.977,-29 95.9772,-25.5001 95.9772,-32.5001"/>
</g>
<!-- Node3 -->
<g id="node3" class="node"><title>Node3</title>
<g id="a_node3"><a xlink:href="i2c_8h.html#a6691e5911f539e1e8178c6e983e8079a" target="_top" xlink:title="Transmits I2C commands with a variable length to a I2C slave. ">
<polygon fill="white" stroke="black" points="219,-38.5 219,-57.5 291,-57.5 291,-38.5 219,-38.5"/>
<text text-anchor="middle" x="255" y="-45.5" font-family="Helvetica,sans-Serif" font-size="10.00">i2c_write_var</text>
</a>
</g>
</g>
<!-- Node2&#45;&gt;Node3 -->
<g id="edge2" class="edge"><title>Node2&#45;&gt;Node3</title>
<path fill="none" stroke="midnightblue" d="M183.144,-35.592C191.502,-37.0556 200.442,-38.6213 209.06,-40.1303"/>
<polygon fill="midnightblue" stroke="midnightblue" points="208.519,-43.5888 218.973,-41.8663 209.727,-36.6938 208.519,-43.5888"/>
</g>
<!-- Node6 -->
<g id="node6" class="node"><title>Node6</title>
<g id="a_node6"><a xlink:href="timer_8c.html#a276d5cb665b9f8b2c79e53e2f2c5b4f0" target="_top" xlink:title="_delay_ms">
<polygon fill="white" stroke="black" points="330.5,-0.5 330.5,-19.5 394.5,-19.5 394.5,-0.5 330.5,-0.5"/>
<text text-anchor="middle" x="362.5" y="-7.5" font-family="Helvetica,sans-Serif" font-size="10.00">_delay_ms</text>
</a>
</g>
</g>
<!-- Node2&#45;&gt;Node6 -->
<g id="edge5" class="edge"><title>Node2&#45;&gt;Node6</title>
<path fill="none" stroke="midnightblue" d="M183.124,-25.6905C221.404,-22.3233 280.575,-17.1184 320.147,-13.6375"/>
<polygon fill="midnightblue" stroke="midnightblue" points="320.603,-17.111 330.258,-12.7482 319.989,-10.138 320.603,-17.111"/>
</g>
<!-- Node4 -->
<g id="node4" class="node"><title>Node4</title>
<g id="a_node4"><a xlink:href="i2c_8c.html#ae0625b97d3437bcaca4ac4b96dd01978" target="_top" xlink:title="Transmits I2C command array to a I2C slave. ">
<polygon fill="white" stroke="black" points="327,-38.5 327,-57.5 398,-57.5 398,-38.5 327,-38.5"/>
<text text-anchor="middle" x="362.5" y="-45.5" font-family="Helvetica,sans-Serif" font-size="10.00">i2c_write_arr</text>
</a>
</g>
</g>
<!-- Node3&#45;&gt;Node4 -->
<g id="edge3" class="edge"><title>Node3&#45;&gt;Node4</title>
<path fill="none" stroke="midnightblue" d="M291.13,-48C299.312,-48 308.133,-48 316.671,-48"/>
<polygon fill="midnightblue" stroke="midnightblue" points="316.882,-51.5001 326.882,-48 316.882,-44.5001 316.882,-51.5001"/>
</g>
<!-- Node5 -->
<g id="node5" class="node"><title>Node5</title>
<g id="a_node5"><a xlink:href="timer_8c.html#a3c56af3315c2461dec5ced585a5f84db" target="_top" xlink:title="_delay_ten_us">
<polygon fill="white" stroke="black" points="434,-19.5 434,-38.5 514,-38.5 514,-19.5 434,-19.5"/>
<text text-anchor="middle" x="474" y="-26.5" font-family="Helvetica,sans-Serif" font-size="10.00">_delay_ten_us</text>
</a>
</g>
</g>
<!-- Node4&#45;&gt;Node5 -->
<g id="edge4" class="edge"><title>Node4&#45;&gt;Node5</title>
<path fill="none" stroke="midnightblue" d="M398.146,-41.9883C406.253,-40.5817 415.042,-39.0567 423.651,-37.5629"/>
<polygon fill="midnightblue" stroke="midnightblue" points="424.368,-40.9908 433.623,-35.8326 423.172,-34.0938 424.368,-40.9908"/>
</g>
<!-- Node6&#45;&gt;Node5 -->
<g id="edge6" class="edge"><title>Node6&#45;&gt;Node5</title>
<path fill="none" stroke="midnightblue" d="M394.585,-15.3938C403.595,-16.9572 413.664,-18.7043 423.505,-20.4118"/>
<polygon fill="midnightblue" stroke="midnightblue" points="423.172,-23.9062 433.623,-22.1674 424.368,-17.0092 423.172,-23.9062"/>
</g>
</g>
</svg>
