<?xml version="1.0" encoding="UTF-8" standalone="no"?>
<!DOCTYPE svg PUBLIC "-//W3C//DTD SVG 1.1//EN"
 "http://www.w3.org/Graphics/SVG/1.1/DTD/svg11.dtd">
<!-- Generated by graphviz version 2.38.0 (20140413.2041)
 -->
<!-- Title: menu_scroll_settings Pages: 1 -->
<!--zoomable 85 -->
<svg id="main" version="1.1" xmlns="http://www.w3.org/2000/svg" xmlns:xlink="http://www.w3.org/1999/xlink" xml:space="preserve" onload="init(evt)">
<style type="text/css"><![CDATA[
.edge:hover path { stroke: red; }
.edge:hover polygon { stroke: red; fill: red; }
]]></style>
<script type="text/javascript"><![CDATA[
var edges = document.getElementsByTagName('g');
if (edges && edges.length) {
  for (var i=0;i<edges.length;i++) {
    if (edges[i].id.substr(0,4)=='edge') {
      edges[i].setAttribute('class','edge');
    }
  }
}
]]></script>
        <defs>
                <circle id="rim" cx="0" cy="0" r="7"/>
                <circle id="rim2" cx="0" cy="0" r="3.5"/>
                <g id="zoomPlus">
                        <use xlink:href="#rim" fill="#404040">
                                <set attributeName="fill" to="#808080" begin="zoomplus.mouseover" end="zoomplus.mouseout"/>
                        </use>
                        <path d="M-4,0h8M0,-4v8" fill="none" stroke="white" stroke-width="1.5" pointer-events="none"/>
                </g>
                <g id="zoomMin">
                        <use xlink:href="#rim" fill="#404040">
                                <set attributeName="fill" to="#808080" begin="zoomminus.mouseover" end="zoomminus.mouseout"/>
                        </use>
                        <path d="M-4,0h8" fill="none" stroke="white" stroke-width="1.5" pointer-events="none"/>
                </g>
                <g id="dirArrow">
                        <path fill="none" stroke="white" stroke-width="1.5" d="M0,-3.0v7 M-2.5,-0.5L0,-3.0L2.5,-0.5"/>
                </g>
               <g id="resetDef">
                       <use xlink:href="#rim2" fill="#404040">
                               <set attributeName="fill" to="#808080" begin="reset.mouseover" end="reset.mouseout"/>
                       </use>
               </g>
        </defs>

<script type="text/javascript">
var viewWidth = 944;
var viewHeight = 85;
var sectionId = 'dynsection-6';
</script>
<script xlink:href="svgpan.js"/>
<svg id="graph" class="graph">
<g id="viewport">
<title>menu_scroll_settings</title>
<polygon fill="white" stroke="none" points="-4,4 -4,-81 940,-81 940,4 -4,4"/>
<!-- Node1 -->
<g id="node1" class="node"><title>Node1</title>
<polygon fill="#bfbfbf" stroke="black" points="0,-38.5 0,-57.5 109,-57.5 109,-38.5 0,-38.5"/>
<text text-anchor="middle" x="54.5" y="-45.5" font-family="Helvetica,sans-Serif" font-size="10.00">menu_scroll_settings</text>
</g>
<!-- Node2 -->
<g id="node2" class="node"><title>Node2</title>
<g id="a_node2"><a xlink:href="lcd_8h.html#acd63fb85d212730fa4fcbcbeeccd231e" target="_top" xlink:title="lcd_create_view">
<polygon fill="white" stroke="black" points="278,-38.5 278,-57.5 363,-57.5 363,-38.5 278,-38.5"/>
<text text-anchor="middle" x="320.5" y="-45.5" font-family="Helvetica,sans-Serif" font-size="10.00">lcd_create_view</text>
</a>
</g>
</g>
<!-- Node1&#45;&gt;Node2 -->
<g id="edge1" class="edge"><title>Node1&#45;&gt;Node2</title>
<path fill="none" stroke="midnightblue" d="M91.802,-57.5089C107.964,-61.2737 127.307,-65.1426 145,-67 187.876,-71.5009 199.2,-72.1699 242,-67 253.914,-65.5609 266.639,-62.9202 278.261,-60.0559"/>
<polygon fill="midnightblue" stroke="midnightblue" points="279.335,-63.3935 288.144,-57.5058 277.586,-56.6155 279.335,-63.3935"/>
</g>
<!-- Node10 -->
<g id="node10" class="node"><title>Node10</title>
<g id="a_node10"><a xlink:href="string_8c.html#a82b1b882cf97ff40344f87bd1473e9d0" target="_top" xlink:title="string_int_to_array">
<polygon fill="white" stroke="black" points="145,-38.5 145,-57.5 242,-57.5 242,-38.5 145,-38.5"/>
<text text-anchor="middle" x="193.5" y="-45.5" font-family="Helvetica,sans-Serif" font-size="10.00">string_int_to_array</text>
</a>
</g>
</g>
<!-- Node1&#45;&gt;Node10 -->
<g id="edge11" class="edge"><title>Node1&#45;&gt;Node10</title>
<path fill="none" stroke="midnightblue" d="M109.253,-48C117.567,-48 126.185,-48 134.585,-48"/>
<polygon fill="midnightblue" stroke="midnightblue" points="134.689,-51.5001 144.689,-48 134.689,-44.5001 134.689,-51.5001"/>
</g>
<!-- Node11 -->
<g id="node11" class="node"><title>Node11</title>
<g id="a_node11"><a xlink:href="menu_8c.html#a503ed2007daa6f20b2f748eedbcb8494" target="_top" xlink:title="Scroll to given position. ">
<polygon fill="white" stroke="black" points="159,-0.5 159,-19.5 228,-19.5 228,-0.5 159,-0.5"/>
<text text-anchor="middle" x="193.5" y="-7.5" font-family="Helvetica,sans-Serif" font-size="10.00">menu_scroll</text>
</a>
</g>
</g>
<!-- Node1&#45;&gt;Node11 -->
<g id="edge12" class="edge"><title>Node1&#45;&gt;Node11</title>
<path fill="none" stroke="midnightblue" d="M90.0709,-38.411C108.026,-33.4307 130.143,-27.2962 149.224,-22.0036"/>
<polygon fill="midnightblue" stroke="midnightblue" points="150.187,-25.3688 158.887,-19.3232 148.316,-18.6234 150.187,-25.3688"/>
</g>
<!-- Node3 -->
<g id="node3" class="node"><title>Node3</title>
<g id="a_node3"><a xlink:href="lcd_8c.html#a2a4df97ebc5b396233aa31765228ef42" target="_top" xlink:title="lcd_set_courser">
<polygon fill="white" stroke="black" points="399,-57.5 399,-76.5 485,-76.5 485,-57.5 399,-57.5"/>
<text text-anchor="middle" x="442" y="-64.5" font-family="Helvetica,sans-Serif" font-size="10.00">lcd_set_courser</text>
</a>
</g>
</g>
<!-- Node2&#45;&gt;Node3 -->
<g id="edge2" class="edge"><title>Node2&#45;&gt;Node3</title>
<path fill="none" stroke="midnightblue" d="M363.295,-54.6453C371.43,-55.9386 380.054,-57.3098 388.483,-58.65"/>
<polygon fill="midnightblue" stroke="midnightblue" points="388.196,-62.1483 398.622,-60.262 389.295,-55.2351 388.196,-62.1483"/>
</g>
<!-- Node9 -->
<g id="node9" class="node"><title>Node9</title>
<g id="a_node9"><a xlink:href="lcd_8c.html#aa6e1aa2ef9b677e16d8198df683429ec" target="_top" xlink:title="lcd_write_string">
<polygon fill="white" stroke="black" points="521,-19.5 521,-38.5 605,-38.5 605,-19.5 521,-19.5"/>
<text text-anchor="middle" x="563" y="-26.5" font-family="Helvetica,sans-Serif" font-size="10.00">lcd_write_string</text>
</a>
</g>
</g>
<!-- Node2&#45;&gt;Node9 -->
<g id="edge9" class="edge"><title>Node2&#45;&gt;Node9</title>
<path fill="none" stroke="midnightblue" d="M363.117,-44.7121C404.066,-41.4771 466.678,-36.5307 510.687,-33.0538"/>
<polygon fill="midnightblue" stroke="midnightblue" points="511.199,-36.5244 520.892,-32.2476 510.647,-29.5461 511.199,-36.5244"/>
</g>
<!-- Node4 -->
<g id="node4" class="node"><title>Node4</title>
<g id="a_node4"><a xlink:href="lcd_8c.html#a250728451a22259562d3f01a12bbd77b" target="_top" xlink:title="lcd_command">
<polygon fill="white" stroke="black" points="524.5,-57.5 524.5,-76.5 601.5,-76.5 601.5,-57.5 524.5,-57.5"/>
<text text-anchor="middle" x="563" y="-64.5" font-family="Helvetica,sans-Serif" font-size="10.00">lcd_command</text>
</a>
</g>
</g>
<!-- Node3&#45;&gt;Node4 -->
<g id="edge3" class="edge"><title>Node3&#45;&gt;Node4</title>
<path fill="none" stroke="midnightblue" d="M485.29,-67C494.611,-67 504.549,-67 514.075,-67"/>
<polygon fill="midnightblue" stroke="midnightblue" points="514.202,-70.5001 524.202,-67 514.202,-63.5001 514.202,-70.5001"/>
</g>
<!-- Node5 -->
<g id="node5" class="node"><title>Node5</title>
<g id="a_node5"><a xlink:href="i2c_8h.html#a6691e5911f539e1e8178c6e983e8079a" target="_top" xlink:title="Transmits I2C commands with a variable length to a I2C slave. ">
<polygon fill="white" stroke="black" points="641,-19.5 641,-38.5 713,-38.5 713,-19.5 641,-19.5"/>
<text text-anchor="middle" x="677" y="-26.5" font-family="Helvetica,sans-Serif" font-size="10.00">i2c_write_var</text>
</a>
</g>
</g>
<!-- Node4&#45;&gt;Node5 -->
<g id="edge4" class="edge"><title>Node4&#45;&gt;Node5</title>
<path fill="none" stroke="midnightblue" d="M592.262,-57.411C606.19,-52.6856 623.18,-46.9211 638.207,-41.8226"/>
<polygon fill="midnightblue" stroke="midnightblue" points="639.401,-45.1134 647.747,-38.5859 637.152,-38.4845 639.401,-45.1134"/>
</g>
<!-- Node8 -->
<g id="node8" class="node"><title>Node8</title>
<g id="a_node8"><a xlink:href="timer_8c.html#a276d5cb665b9f8b2c79e53e2f2c5b4f0" target="_top" xlink:title="_delay_ms">
<polygon fill="white" stroke="black" points="752.5,-57.5 752.5,-76.5 816.5,-76.5 816.5,-57.5 752.5,-57.5"/>
<text text-anchor="middle" x="784.5" y="-64.5" font-family="Helvetica,sans-Serif" font-size="10.00">_delay_ms</text>
</a>
</g>
</g>
<!-- Node4&#45;&gt;Node8 -->
<g id="edge7" class="edge"><title>Node4&#45;&gt;Node8</title>
<path fill="none" stroke="midnightblue" d="M601.733,-67C640.861,-67 701.853,-67 742.237,-67"/>
<polygon fill="midnightblue" stroke="midnightblue" points="742.287,-70.5001 752.287,-67 742.287,-63.5001 742.287,-70.5001"/>
</g>
<!-- Node6 -->
<g id="node6" class="node"><title>Node6</title>
<g id="a_node6"><a xlink:href="i2c_8c.html#ae0625b97d3437bcaca4ac4b96dd01978" target="_top" xlink:title="Transmits I2C command array to a I2C slave. ">
<polygon fill="white" stroke="black" points="749,-19.5 749,-38.5 820,-38.5 820,-19.5 749,-19.5"/>
<text text-anchor="middle" x="784.5" y="-26.5" font-family="Helvetica,sans-Serif" font-size="10.00">i2c_write_arr</text>
</a>
</g>
</g>
<!-- Node5&#45;&gt;Node6 -->
<g id="edge5" class="edge"><title>Node5&#45;&gt;Node6</title>
<path fill="none" stroke="midnightblue" d="M713.13,-29C721.312,-29 730.133,-29 738.671,-29"/>
<polygon fill="midnightblue" stroke="midnightblue" points="738.882,-32.5001 748.882,-29 738.882,-25.5001 738.882,-32.5001"/>
</g>
<!-- Node7 -->
<g id="node7" class="node"><title>Node7</title>
<g id="a_node7"><a xlink:href="timer_8c.html#a3c56af3315c2461dec5ced585a5f84db" target="_top" xlink:title="_delay_ten_us">
<polygon fill="white" stroke="black" points="856,-38.5 856,-57.5 936,-57.5 936,-38.5 856,-38.5"/>
<text text-anchor="middle" x="896" y="-45.5" font-family="Helvetica,sans-Serif" font-size="10.00">_delay_ten_us</text>
</a>
</g>
</g>
<!-- Node6&#45;&gt;Node7 -->
<g id="edge6" class="edge"><title>Node6&#45;&gt;Node7</title>
<path fill="none" stroke="midnightblue" d="M820.146,-35.0117C828.253,-36.4183 837.042,-37.9433 845.651,-39.4371"/>
<polygon fill="midnightblue" stroke="midnightblue" points="845.172,-42.9062 855.623,-41.1674 846.368,-36.0092 845.172,-42.9062"/>
</g>
<!-- Node8&#45;&gt;Node7 -->
<g id="edge8" class="edge"><title>Node8&#45;&gt;Node7</title>
<path fill="none" stroke="midnightblue" d="M816.585,-61.6062C825.595,-60.0428 835.664,-58.2957 845.505,-56.5882"/>
<polygon fill="midnightblue" stroke="midnightblue" points="846.368,-59.9908 855.623,-54.8326 845.172,-53.0938 846.368,-59.9908"/>
</g>
<!-- Node9&#45;&gt;Node5 -->
<g id="edge10" class="edge"><title>Node9&#45;&gt;Node5</title>
<path fill="none" stroke="midnightblue" d="M605.069,-29C613.413,-29 622.234,-29 630.715,-29"/>
<polygon fill="midnightblue" stroke="midnightblue" points="630.836,-32.5001 640.836,-29 630.836,-25.5001 630.836,-32.5001"/>
</g>
<!-- Node11&#45;&gt;Node2 -->
<g id="edge13" class="edge"><title>Node11&#45;&gt;Node2</title>
<path fill="none" stroke="midnightblue" d="M226.043,-19.589C241.883,-24.4044 261.273,-30.2988 278.276,-35.468"/>
<polygon fill="midnightblue" stroke="midnightblue" points="277.382,-38.8541 287.967,-38.4141 279.418,-32.1567 277.382,-38.8541"/>
</g>
</g>
</svg>
        <g id="navigator" transform="translate(0 0)" fill="#404254">
                <rect fill="#f2f5e9" fill-opacity="0.5" stroke="#606060" stroke-width=".5" x="0" y="0" width="60" height="60"/>
                <use id="zoomplus" xlink:href="#zoomPlus" x="17" y="9" onmousedown="handleZoom(evt,'in')"/>
                <use id="zoomminus" xlink:href="#zoomMin" x="42" y="9" onmousedown="handleZoom(evt,'out')"/>
                <use id="reset" xlink:href="#resetDef" x="30" y="36" onmousedown="handleReset()"/>
                <g id="arrowUp" xlink:href="#dirArrow" transform="translate(30 24)" onmousedown="handlePan(0,-1)">
                  <use xlink:href="#rim" fill="#404040">
                        <set attributeName="fill" to="#808080" begin="arrowUp.mouseover" end="arrowUp.mouseout"/>
                  </use>
                  <path fill="none" stroke="white" stroke-width="1.5" d="M0,-3.0v7 M-2.5,-0.5L0,-3.0L2.5,-0.5"/>
                </g>
                <g id="arrowRight" xlink:href="#dirArrow" transform="rotate(90) translate(36 -43)" onmousedown="handlePan(1,0)">
                  <use xlink:href="#rim" fill="#404040">
                        <set attributeName="fill" to="#808080" begin="arrowRight.mouseover" end="arrowRight.mouseout"/>
                  </use>
                  <path fill="none" stroke="white" stroke-width="1.5" d="M0,-3.0v7 M-2.5,-0.5L0,-3.0L2.5,-0.5"/>
                </g>
                <g id="arrowDown" xlink:href="#dirArrow" transform="rotate(180) translate(-30 -48)" onmousedown="handlePan(0,1)">
                  <use xlink:href="#rim" fill="#404040">
                        <set attributeName="fill" to="#808080" begin="arrowDown.mouseover" end="arrowDown.mouseout"/>
                  </use>
                  <path fill="none" stroke="white" stroke-width="1.5" d="M0,-3.0v7 M-2.5,-0.5L0,-3.0L2.5,-0.5"/>
                </g>
                <g id="arrowLeft" xlink:href="#dirArrow" transform="rotate(270) translate(-36 17)" onmousedown="handlePan(-1,0)">
                  <use xlink:href="#rim" fill="#404040">
                        <set attributeName="fill" to="#808080" begin="arrowLeft.mouseover" end="arrowLeft.mouseout"/>
                  </use>
                  <path fill="none" stroke="white" stroke-width="1.5" d="M0,-3.0v7 M-2.5,-0.5L0,-3.0L2.5,-0.5"/>
                </g>
        </g>
        <svg viewBox="0 0 15 15" width="100%" height="30px" preserveAspectRatio="xMaxYMin meet">
         <g id="arrow_out" transform="scale(0.3 0.3)">
          <a xlink:href="menu_8h_a5621c1bf312de029f43808bf02dc52e3_cgraph_org.svg" target="_base">
           <rect id="button" ry="5" rx="5" y="6" x="6" height="38" width="38"
                fill="#f2f5e9" fill-opacity="0.5" stroke="#606060" stroke-width="1.0"/>
           <path id="arrow"
             d="M 11.500037,31.436501 C 11.940474,20.09759 22.043105,11.32322 32.158766,21.979434 L 37.068811,17.246167 C 37.068811,17.246167 37.088388,32 37.088388,32 L 22.160133,31.978069 C 22.160133,31.978069 26.997745,27.140456 26.997745,27.140456 C 18.528582,18.264221 13.291696,25.230495 11.500037,31.436501 z"
             style="fill:#404040;"/>
          </a>
         </g>
        </svg>
</svg>
