<?xml version="1.0" encoding="UTF-8" standalone="no"?>
<!DOCTYPE svg PUBLIC "-//W3C//DTD SVG 1.1//EN"
 "http://www.w3.org/Graphics/SVG/1.1/DTD/svg11.dtd">
<!-- Generated by graphviz version 2.38.0 (20140413.2041)
 -->
<!-- Title: menu_function Pages: 1 -->
<!--zoomable 634 -->
<svg id="main" version="1.1" xmlns="http://www.w3.org/2000/svg" xmlns:xlink="http://www.w3.org/1999/xlink" xml:space="preserve" onload="init(evt)">
<style type="text/css"><![CDATA[
.edge:hover path { stroke: red; }
.edge:hover polygon { stroke: red; fill: red; }
]]></style>
<script type="text/javascript"><![CDATA[
var edges = document.getElementsByTagName('g');
if (edges && edges.length) {
  for (var i=0;i<edges.length;i++) {
    if (edges[i].id.substr(0,4)=='edge') {
      edges[i].setAttribute('class','edge');
    }
  }
}
]]></script>
        <defs>
                <circle id="rim" cx="0" cy="0" r="7"/>
                <circle id="rim2" cx="0" cy="0" r="3.5"/>
                <g id="zoomPlus">
                        <use xlink:href="#rim" fill="#404040">
                                <set attributeName="fill" to="#808080" begin="zoomplus.mouseover" end="zoomplus.mouseout"/>
                        </use>
                        <path d="M-4,0h8M0,-4v8" fill="none" stroke="white" stroke-width="1.5" pointer-events="none"/>
                </g>
                <g id="zoomMin">
                        <use xlink:href="#rim" fill="#404040">
                                <set attributeName="fill" to="#808080" begin="zoomminus.mouseover" end="zoomminus.mouseout"/>
                        </use>
                        <path d="M-4,0h8" fill="none" stroke="white" stroke-width="1.5" pointer-events="none"/>
                </g>
                <g id="dirArrow">
                        <path fill="none" stroke="white" stroke-width="1.5" d="M0,-3.0v7 M-2.5,-0.5L0,-3.0L2.5,-0.5"/>
                </g>
               <g id="resetDef">
                       <use xlink:href="#rim2" fill="#404040">
                               <set attributeName="fill" to="#808080" begin="reset.mouseover" end="reset.mouseout"/>
                       </use>
               </g>
        </defs>

<script type="text/javascript">
var viewWidth = 1403;
var viewHeight = 634;
var sectionId = 'dynsection-2';
</script>
<script xlink:href="svgpan.js"/>
<svg id="graph" class="graph">
<g id="viewport">
<title>menu_function</title>
<polygon fill="white" stroke="none" points="-4,4 -4,-630.191 1399,-630.191 1399,4 -4,4"/>
<!-- Node1 -->
<g id="node1" class="node"><title>Node1</title>
<polygon fill="#bfbfbf" stroke="black" points="0,-229.447 0,-248.447 80,-248.447 80,-229.447 0,-229.447"/>
<text text-anchor="middle" x="40" y="-236.447" font-family="Helvetica,sans-Serif" font-size="10.00">menu_function</text>
</g>
<!-- Node2 -->
<g id="node2" class="node"><title>Node2</title>
<g id="a_node2"><a xlink:href="radio_8h.html#a5f7fcd9e9755fb5e22175a4ad74a5456" target="_top" xlink:title="radio_main">
<polygon fill="white" stroke="black" points="249,-377.447 249,-396.447 313,-396.447 313,-377.447 249,-377.447"/>
<text text-anchor="middle" x="281" y="-384.447" font-family="Helvetica,sans-Serif" font-size="10.00">radio_main</text>
</a>
</g>
</g>
<!-- Node1&#45;&gt;Node2 -->
<g id="edge1" class="edge"><title>Node1&#45;&gt;Node2</title>
<path fill="none" stroke="midnightblue" d="M56.6815,-248.658C97.4624,-273.912 207.055,-341.776 255.916,-372.033"/>
<polygon fill="midnightblue" stroke="midnightblue" points="254.227,-375.104 264.572,-377.393 257.912,-369.153 254.227,-375.104"/>
</g>
<!-- Node25 -->
<g id="node25" class="node"><title>Node25</title>
<g id="a_node25"><a xlink:href="radio_8h.html#a832a684fc60104296fc975a7608f92b4" target="_top" xlink:title="radio_settings">
<polygon fill="white" stroke="black" points="116,-149.447 116,-168.447 193,-168.447 193,-149.447 116,-149.447"/>
<text text-anchor="middle" x="154.5" y="-156.447" font-family="Helvetica,sans-Serif" font-size="10.00">radio_settings</text>
</a>
</g>
</g>
<!-- Node1&#45;&gt;Node25 -->
<g id="edge33" class="edge"><title>Node1&#45;&gt;Node25</title>
<path fill="none" stroke="midnightblue" d="M54.7947,-229.138C73.9598,-215.509 108.845,-190.702 131.592,-174.526"/>
<polygon fill="midnightblue" stroke="midnightblue" points="133.823,-177.235 139.944,-168.587 129.766,-171.53 133.823,-177.235"/>
</g>
<!-- Node3 -->
<g id="node3" class="node"><title>Node3</title>
<g id="a_node3"><a xlink:href="radio_8c.html#a9e674807004c71581139b5568db18270" target="_top" xlink:title="radio_set_volume">
<polygon fill="white" stroke="black" points="378,-500.447 378,-519.447 470,-519.447 470,-500.447 378,-500.447"/>
<text text-anchor="middle" x="424" y="-507.447" font-family="Helvetica,sans-Serif" font-size="10.00">radio_set_volume</text>
</a>
</g>
</g>
<!-- Node2&#45;&gt;Node3 -->
<g id="edge2" class="edge"><title>Node2&#45;&gt;Node3</title>
<path fill="none" stroke="midnightblue" d="M290.936,-396.643C306.209,-412.986 338.633,-446.706 369,-471.947 378.584,-479.914 389.767,-487.968 399.462,-494.598"/>
<polygon fill="midnightblue" stroke="midnightblue" points="397.608,-497.568 407.859,-500.243 401.513,-491.759 397.608,-497.568"/>
</g>
<!-- Node12 -->
<g id="node12" class="node"><title>Node12</title>
<g id="a_node12"><a xlink:href="radio_8c.html#a6d652e9d0f1c54bfe9ec73fe2605b706" target="_top" xlink:title="radio_tune_freq">
<polygon fill="white" stroke="black" points="382.5,-443.447 382.5,-462.447 465.5,-462.447 465.5,-443.447 382.5,-443.447"/>
<text text-anchor="middle" x="424" y="-450.447" font-family="Helvetica,sans-Serif" font-size="10.00">radio_tune_freq</text>
</a>
</g>
</g>
<!-- Node2&#45;&gt;Node12 -->
<g id="edge12" class="edge"><title>Node2&#45;&gt;Node12</title>
<path fill="none" stroke="midnightblue" d="M302.503,-396.544C326.416,-407.738 366.141,-426.332 393.398,-439.091"/>
<polygon fill="midnightblue" stroke="midnightblue" points="391.932,-442.269 402.473,-443.339 394.9,-435.93 391.932,-442.269"/>
</g>
<!-- Node15 -->
<g id="node15" class="node"><title>Node15</title>
<g id="a_node15"><a xlink:href="radio_8c.html#aa568d26c43f1503a5f31c86aab080591" target="_top" xlink:title="radio_display_handler">
<polygon fill="white" stroke="black" points="369,-320.447 369,-339.447 479,-339.447 479,-320.447 369,-320.447"/>
<text text-anchor="middle" x="424" y="-327.447" font-family="Helvetica,sans-Serif" font-size="10.00">radio_display_handler</text>
</a>
</g>
</g>
<!-- Node2&#45;&gt;Node15 -->
<g id="edge19" class="edge"><title>Node2&#45;&gt;Node15</title>
<path fill="none" stroke="midnightblue" d="M305.6,-377.407C328.68,-368.077 364.031,-353.786 389.913,-343.323"/>
<polygon fill="midnightblue" stroke="midnightblue" points="391.363,-346.512 399.323,-339.519 388.74,-340.022 391.363,-346.512"/>
</g>
<!-- Node4 -->
<g id="node4" class="node"><title>Node4</title>
<g id="a_node4"><a xlink:href="external__interrupthandler_8h.html#a345dfb9a7e177c5da6eb9dc5b3c82bc9" target="_top" xlink:title="ext_interrupt_enable">
<polygon fill="white" stroke="black" points="516.5,-510.447 516.5,-529.447 620.5,-529.447 620.5,-510.447 516.5,-510.447"/>
<text text-anchor="middle" x="568.5" y="-517.447" font-family="Helvetica,sans-Serif" font-size="10.00">ext_interrupt_enable</text>
</a>
</g>
</g>
<!-- Node3&#45;&gt;Node4 -->
<g id="edge3" class="edge"><title>Node3&#45;&gt;Node4</title>
<path fill="none" stroke="midnightblue" d="M470.088,-513.112C481.554,-513.916 494.071,-514.795 506.195,-515.645"/>
<polygon fill="midnightblue" stroke="midnightblue" points="506.035,-519.143 516.256,-516.351 506.525,-512.16 506.035,-519.143"/>
</g>
<!-- Node5 -->
<g id="node5" class="node"><title>Node5</title>
<g id="a_node5"><a xlink:href="si4735_8h.html#aadc29a91f13cd5ebe239b23c7e5370dc" target="_top" xlink:title="si4735_set_property">
<polygon fill="white" stroke="black" points="516.5,-586.447 516.5,-605.447 620.5,-605.447 620.5,-586.447 516.5,-586.447"/>
<text text-anchor="middle" x="568.5" y="-593.447" font-family="Helvetica,sans-Serif" font-size="10.00">si4735_set_property</text>
</a>
</g>
</g>
<!-- Node3&#45;&gt;Node5 -->
<g id="edge4" class="edge"><title>Node3&#45;&gt;Node5</title>
<path fill="none" stroke="midnightblue" d="M437.365,-519.5C454.307,-532.345 485.954,-555.471 515,-571.947 521.267,-575.502 528.154,-578.953 534.819,-582.078"/>
<polygon fill="midnightblue" stroke="midnightblue" points="533.775,-585.448 544.327,-586.398 536.67,-579.075 533.775,-585.448"/>
</g>
<!-- Node10 -->
<g id="node10" class="node"><title>Node10</title>
<g id="a_node10"><a xlink:href="external__interrupthandler_8h.html#a67fb5781413cf5c193be332cc6e52209" target="_top" xlink:title="ext_interrupt_disable">
<polygon fill="white" stroke="black" points="515,-472.447 515,-491.447 622,-491.447 622,-472.447 515,-472.447"/>
<text text-anchor="middle" x="568.5" y="-479.447" font-family="Helvetica,sans-Serif" font-size="10.00">ext_interrupt_disable</text>
</a>
</g>
</g>
<!-- Node3&#45;&gt;Node10 -->
<g id="edge9" class="edge"><title>Node3&#45;&gt;Node10</title>
<path fill="none" stroke="midnightblue" d="M470.088,-501.088C482.312,-498.686 495.73,-496.05 508.594,-493.522"/>
<polygon fill="midnightblue" stroke="midnightblue" points="509.621,-496.887 518.759,-491.525 508.271,-490.019 509.621,-496.887"/>
</g>
<!-- Node11 -->
<g id="node11" class="node"><title>Node11</title>
<g id="a_node11"><a xlink:href="timer_8c.html#a276d5cb665b9f8b2c79e53e2f2c5b4f0" target="_top" xlink:title="_delay_ms">
<polygon fill="white" stroke="black" points="1104,-277.447 1104,-296.447 1168,-296.447 1168,-277.447 1104,-277.447"/>
<text text-anchor="middle" x="1136" y="-284.447" font-family="Helvetica,sans-Serif" font-size="10.00">_delay_ms</text>
</a>
</g>
</g>
<!-- Node3&#45;&gt;Node11 -->
<g id="edge10" class="edge"><title>Node3&#45;&gt;Node11</title>
<path fill="none" stroke="midnightblue" d="M449.829,-519.537C467.69,-526.041 492.497,-534.276 515,-538.947 599.826,-556.556 622.365,-557.947 709,-557.947 709,-557.947 709,-557.947 872,-557.947 1012.69,-557.947 1102.31,-367.537 1127.62,-305.93"/>
<polygon fill="midnightblue" stroke="midnightblue" points="1130.89,-307.177 1131.37,-296.593 1124.4,-304.571 1130.89,-307.177"/>
</g>
<!-- Node6 -->
<g id="node6" class="node"><title>Node6</title>
<g id="a_node6"><a xlink:href="i2c_8h.html#a6691e5911f539e1e8178c6e983e8079a" target="_top" xlink:title="Transmits I2C commands with a variable length to a I2C slave. ">
<polygon fill="white" stroke="black" points="1100,-239.447 1100,-258.447 1172,-258.447 1172,-239.447 1100,-239.447"/>
<text text-anchor="middle" x="1136" y="-246.447" font-family="Helvetica,sans-Serif" font-size="10.00">i2c_write_var</text>
</a>
</g>
</g>
<!-- Node5&#45;&gt;Node6 -->
<g id="edge5" class="edge"><title>Node5&#45;&gt;Node6</title>
<path fill="none" stroke="midnightblue" d="M594.252,-605.536C631.946,-618.591 705.337,-637.861 762,-614.947 935.086,-544.954 945.028,-466.834 1064,-322.947 1082.62,-300.432 1078.51,-287.739 1100,-267.947 1101.45,-266.613 1103.01,-265.339 1104.64,-264.131"/>
<polygon fill="midnightblue" stroke="midnightblue" points="1106.65,-267 1113.16,-258.638 1102.85,-261.117 1106.65,-267"/>
</g>
<!-- Node9 -->
<g id="node9" class="node"><title>Node9</title>
<g id="a_node9"><a xlink:href="si4735_8c.html#aad8341b5b19aa8f962a6b9b940d77960" target="_top" xlink:title="si4735_get_interrupt">
<polygon fill="white" stroke="black" points="658,-586.447 658,-605.447 762,-605.447 762,-586.447 658,-586.447"/>
<text text-anchor="middle" x="710" y="-593.447" font-family="Helvetica,sans-Serif" font-size="10.00">si4735_get_interrupt</text>
</a>
</g>
</g>
<!-- Node5&#45;&gt;Node9 -->
<g id="edge8" class="edge"><title>Node5&#45;&gt;Node9</title>
<path fill="none" stroke="midnightblue" d="M620.653,-595.947C629.466,-595.947 638.707,-595.947 647.754,-595.947"/>
<polygon fill="midnightblue" stroke="midnightblue" points="647.854,-599.448 657.854,-595.947 647.854,-592.448 647.854,-599.448"/>
</g>
<!-- Node7 -->
<g id="node7" class="node"><title>Node7</title>
<g id="a_node7"><a xlink:href="i2c_8c.html#ae0625b97d3437bcaca4ac4b96dd01978" target="_top" xlink:title="Transmits I2C command array to a I2C slave. ">
<polygon fill="white" stroke="black" points="1208,-239.447 1208,-258.447 1279,-258.447 1279,-239.447 1208,-239.447"/>
<text text-anchor="middle" x="1243.5" y="-246.447" font-family="Helvetica,sans-Serif" font-size="10.00">i2c_write_arr</text>
</a>
</g>
</g>
<!-- Node6&#45;&gt;Node7 -->
<g id="edge6" class="edge"><title>Node6&#45;&gt;Node7</title>
<path fill="none" stroke="midnightblue" d="M1172.13,-248.947C1180.31,-248.947 1189.13,-248.947 1197.67,-248.947"/>
<polygon fill="midnightblue" stroke="midnightblue" points="1197.88,-252.448 1207.88,-248.947 1197.88,-245.448 1197.88,-252.448"/>
</g>
<!-- Node8 -->
<g id="node8" class="node"><title>Node8</title>
<g id="a_node8"><a xlink:href="timer_8c.html#a3c56af3315c2461dec5ced585a5f84db" target="_top" xlink:title="_delay_ten_us">
<polygon fill="white" stroke="black" points="1315,-258.447 1315,-277.447 1395,-277.447 1395,-258.447 1315,-258.447"/>
<text text-anchor="middle" x="1355" y="-265.447" font-family="Helvetica,sans-Serif" font-size="10.00">_delay_ten_us</text>
</a>
</g>
</g>
<!-- Node7&#45;&gt;Node8 -->
<g id="edge7" class="edge"><title>Node7&#45;&gt;Node8</title>
<path fill="none" stroke="midnightblue" d="M1279.15,-254.959C1287.25,-256.366 1296.04,-257.891 1304.65,-259.385"/>
<polygon fill="midnightblue" stroke="midnightblue" points="1304.17,-262.854 1314.62,-261.115 1305.37,-255.957 1304.17,-262.854"/>
</g>
<!-- Node11&#45;&gt;Node8 -->
<g id="edge11" class="edge"><title>Node11&#45;&gt;Node8</title>
<path fill="none" stroke="midnightblue" d="M1168.09,-284.225C1203.82,-281.097 1262.91,-275.923 1304.88,-272.248"/>
<polygon fill="midnightblue" stroke="midnightblue" points="1305.23,-275.731 1314.89,-271.372 1304.62,-268.758 1305.23,-275.731"/>
</g>
<!-- Node12&#45;&gt;Node4 -->
<g id="edge13" class="edge"><title>Node12&#45;&gt;Node4</title>
<path fill="none" stroke="midnightblue" d="M441.235,-462.516C458.993,-472.764 488.466,-489.143 515,-500.947 519.522,-502.959 524.329,-504.925 529.127,-506.782"/>
<polygon fill="midnightblue" stroke="midnightblue" points="528.277,-510.2 538.87,-510.422 530.727,-503.643 528.277,-510.2"/>
</g>
<!-- Node12&#45;&gt;Node10 -->
<g id="edge18" class="edge"><title>Node12&#45;&gt;Node10</title>
<path fill="none" stroke="midnightblue" d="M465.835,-461.258C479.734,-464.086 495.534,-467.302 510.466,-470.341"/>
<polygon fill="midnightblue" stroke="midnightblue" points="510.133,-473.845 520.63,-472.409 511.529,-466.985 510.133,-473.845"/>
</g>
<!-- Node13 -->
<g id="node13" class="node"><title>Node13</title>
<g id="a_node13"><a xlink:href="si4735_8h.html#af82ec28b536b1258ea4178108c61d5e9" target="_top" xlink:title="si4735_fm_tune_freq">
<polygon fill="white" stroke="black" points="515.5,-434.447 515.5,-453.447 621.5,-453.447 621.5,-434.447 515.5,-434.447"/>
<text text-anchor="middle" x="568.5" y="-441.447" font-family="Helvetica,sans-Serif" font-size="10.00">si4735_fm_tune_freq</text>
</a>
</g>
</g>
<!-- Node12&#45;&gt;Node13 -->
<g id="edge14" class="edge"><title>Node12&#45;&gt;Node13</title>
<path fill="none" stroke="midnightblue" d="M465.835,-450.368C478.156,-449.59 491.971,-448.718 505.35,-447.873"/>
<polygon fill="midnightblue" stroke="midnightblue" points="505.706,-451.357 515.465,-447.234 505.264,-444.371 505.706,-451.357"/>
</g>
<!-- Node13&#45;&gt;Node6 -->
<g id="edge15" class="edge"><title>Node13&#45;&gt;Node6</title>
<path fill="none" stroke="midnightblue" d="M621.807,-443.421C661.003,-441.918 715.635,-437.456 762,-424.947 904.478,-386.51 931.769,-352.464 1064,-286.947 1072.48,-282.745 1091.86,-272.355 1108.23,-263.5"/>
<polygon fill="midnightblue" stroke="midnightblue" points="1110.29,-266.363 1117.42,-258.522 1106.96,-260.209 1110.29,-266.363"/>
</g>
<!-- Node13&#45;&gt;Node9 -->
<g id="edge16" class="edge"><title>Node13&#45;&gt;Node9</title>
<path fill="none" stroke="midnightblue" d="M605.587,-453.483C611.421,-455.986 617.135,-459.098 622,-462.947 661.505,-494.206 688.913,-548.528 701.385,-577.116"/>
<polygon fill="midnightblue" stroke="midnightblue" points="698.187,-578.541 705.298,-586.394 704.636,-575.82 698.187,-578.541"/>
</g>
<!-- Node14 -->
<g id="node14" class="node"><title>Node14</title>
<g id="a_node14"><a xlink:href="i2c_8h.html#a6dd896b0c82d1aa91a1a8155b41c4566" target="_top" xlink:title="Receives I2C commands until a NACK is received or received RxBytes. ">
<polygon fill="white" stroke="black" points="683.5,-396.447 683.5,-415.447 736.5,-415.447 736.5,-396.447 683.5,-396.447"/>
<text text-anchor="middle" x="710" y="-403.447" font-family="Helvetica,sans-Serif" font-size="10.00">i2c_read</text>
</a>
</g>
</g>
<!-- Node13&#45;&gt;Node14 -->
<g id="edge17" class="edge"><title>Node13&#45;&gt;Node14</title>
<path fill="none" stroke="midnightblue" d="M604.702,-434.358C625.788,-428.614 652.511,-421.335 673.628,-415.583"/>
<polygon fill="midnightblue" stroke="midnightblue" points="674.766,-418.9 683.495,-412.895 672.926,-412.147 674.766,-418.9"/>
</g>
<!-- Node16 -->
<g id="node16" class="node"><title>Node16</title>
<g id="a_node16"><a xlink:href="lcd_8h.html#acd63fb85d212730fa4fcbcbeeccd231e" target="_top" xlink:title="lcd_create_view">
<polygon fill="white" stroke="black" points="667.5,-239.447 667.5,-258.447 752.5,-258.447 752.5,-239.447 667.5,-239.447"/>
<text text-anchor="middle" x="710" y="-246.447" font-family="Helvetica,sans-Serif" font-size="10.00">lcd_create_view</text>
</a>
</g>
</g>
<!-- Node15&#45;&gt;Node16 -->
<g id="edge20" class="edge"><title>Node15&#45;&gt;Node16</title>
<path fill="none" stroke="midnightblue" d="M435.633,-339.584C451.521,-353.262 483.026,-377.674 515,-386.947 560.673,-400.194 580.361,-409.92 622,-386.947 668.14,-361.492 693.168,-300.141 703.399,-268.519"/>
<polygon fill="midnightblue" stroke="midnightblue" points="706.83,-269.268 706.411,-258.681 700.137,-267.219 706.83,-269.268"/>
</g>
<!-- Node20 -->
<g id="node20" class="node"><title>Node20</title>
<g id="a_node20"><a xlink:href="time_8c.html#a38be5ccb6a78c3b5cebed5ff341ed4f9" target="_top" xlink:title="date_to_str">
<polygon fill="white" stroke="black" points="536,-358.447 536,-377.447 601,-377.447 601,-358.447 536,-358.447"/>
<text text-anchor="middle" x="568.5" y="-365.447" font-family="Helvetica,sans-Serif" font-size="10.00">date_to_str</text>
</a>
</g>
</g>
<!-- Node15&#45;&gt;Node20 -->
<g id="edge27" class="edge"><title>Node15&#45;&gt;Node20</title>
<path fill="none" stroke="midnightblue" d="M460.959,-339.536C480.798,-344.827 505.522,-351.42 526.157,-356.923"/>
<polygon fill="midnightblue" stroke="midnightblue" points="525.355,-360.331 535.919,-359.526 527.158,-353.567 525.355,-360.331"/>
</g>
<!-- Node21 -->
<g id="node21" class="node"><title>Node21</title>
<g id="a_node21"><a xlink:href="radio_8c.html#a391fc5fe58716d2c794685bcf12bbda5" target="_top" xlink:title="radio_value_to_string">
<polygon fill="white" stroke="black" points="515,-320.447 515,-339.447 622,-339.447 622,-320.447 515,-320.447"/>
<text text-anchor="middle" x="568.5" y="-327.447" font-family="Helvetica,sans-Serif" font-size="10.00">radio_value_to_string</text>
</a>
</g>
</g>
<!-- Node15&#45;&gt;Node21 -->
<g id="edge28" class="edge"><title>Node15&#45;&gt;Node21</title>
<path fill="none" stroke="midnightblue" d="M479.28,-329.947C487.555,-329.947 496.156,-329.947 504.597,-329.947"/>
<polygon fill="midnightblue" stroke="midnightblue" points="504.783,-333.448 514.783,-329.947 504.783,-326.448 504.783,-333.448"/>
</g>
<!-- Node22 -->
<g id="node22" class="node"><title>Node22</title>
<g id="a_node22"><a xlink:href="radio_8c.html#a132f2b55edd4f21141501c9e9a1c7b00" target="_top" xlink:title="radio_freq_to_string">
<polygon fill="white" stroke="black" points="518,-282.447 518,-301.447 619,-301.447 619,-282.447 518,-282.447"/>
<text text-anchor="middle" x="568.5" y="-289.447" font-family="Helvetica,sans-Serif" font-size="10.00">radio_freq_to_string</text>
</a>
</g>
</g>
<!-- Node15&#45;&gt;Node22 -->
<g id="edge29" class="edge"><title>Node15&#45;&gt;Node22</title>
<path fill="none" stroke="midnightblue" d="M460.959,-320.358C479.439,-315.431 502.156,-309.373 521.859,-304.118"/>
<polygon fill="midnightblue" stroke="midnightblue" points="522.792,-307.492 531.553,-301.533 520.989,-300.728 522.792,-307.492"/>
</g>
<!-- Node23 -->
<g id="node23" class="node"><title>Node23</title>
<g id="a_node23"><a xlink:href="menu_2menu_8h.html#a503ed2007daa6f20b2f748eedbcb8494" target="_top" xlink:title="menu_scroll">
<polygon fill="white" stroke="black" points="534,-244.447 534,-263.447 603,-263.447 603,-244.447 534,-244.447"/>
<text text-anchor="middle" x="568.5" y="-251.447" font-family="Helvetica,sans-Serif" font-size="10.00">menu_scroll</text>
</a>
</g>
</g>
<!-- Node15&#45;&gt;Node23 -->
<g id="edge30" class="edge"><title>Node15&#45;&gt;Node23</title>
<path fill="none" stroke="midnightblue" d="M438.188,-320.3C455.27,-308.113 486.272,-287.035 515,-272.947 519.126,-270.924 523.524,-268.999 527.952,-267.205"/>
<polygon fill="midnightblue" stroke="midnightblue" points="529.52,-270.352 537.599,-263.498 527.009,-263.817 529.52,-270.352"/>
</g>
<!-- Node24 -->
<g id="node24" class="node"><title>Node24</title>
<g id="a_node24"><a xlink:href="time_8c.html#a12eef8136a835e1bbe52bcf02789e706" target="_top" xlink:title="time_to_str">
<polygon fill="white" stroke="black" points="536,-206.447 536,-225.447 601,-225.447 601,-206.447 536,-206.447"/>
<text text-anchor="middle" x="568.5" y="-213.447" font-family="Helvetica,sans-Serif" font-size="10.00">time_to_str</text>
</a>
</g>
</g>
<!-- Node15&#45;&gt;Node24 -->
<g id="edge32" class="edge"><title>Node15&#45;&gt;Node24</title>
<path fill="none" stroke="midnightblue" d="M431.792,-320.179C445.455,-301.201 478.129,-259.095 515,-234.947 518.558,-232.617 522.438,-230.528 526.426,-228.665"/>
<polygon fill="midnightblue" stroke="midnightblue" points="527.957,-231.818 535.825,-224.723 525.249,-225.363 527.957,-231.818"/>
</g>
<!-- Node17 -->
<g id="node17" class="node"><title>Node17</title>
<g id="a_node17"><a xlink:href="lcd_8c.html#a2a4df97ebc5b396233aa31765228ef42" target="_top" xlink:title="lcd_set_courser">
<polygon fill="white" stroke="black" points="828,-220.447 828,-239.447 914,-239.447 914,-220.447 828,-220.447"/>
<text text-anchor="middle" x="871" y="-227.447" font-family="Helvetica,sans-Serif" font-size="10.00">lcd_set_courser</text>
</a>
</g>
</g>
<!-- Node16&#45;&gt;Node17 -->
<g id="edge21" class="edge"><title>Node16&#45;&gt;Node17</title>
<path fill="none" stroke="midnightblue" d="M752.775,-243.955C772.701,-241.574 796.743,-238.701 817.854,-236.179"/>
<polygon fill="midnightblue" stroke="midnightblue" points="818.438,-239.634 827.952,-234.972 817.607,-232.683 818.438,-239.634"/>
</g>
<!-- Node19 -->
<g id="node19" class="node"><title>Node19</title>
<g id="a_node19"><a xlink:href="lcd_8c.html#aa6e1aa2ef9b677e16d8198df683429ec" target="_top" xlink:title="lcd_write_string">
<polygon fill="white" stroke="black" points="980,-258.447 980,-277.447 1064,-277.447 1064,-258.447 980,-258.447"/>
<text text-anchor="middle" x="1022" y="-265.447" font-family="Helvetica,sans-Serif" font-size="10.00">lcd_write_string</text>
</a>
</g>
</g>
<!-- Node16&#45;&gt;Node19 -->
<g id="edge25" class="edge"><title>Node16&#45;&gt;Node19</title>
<path fill="none" stroke="midnightblue" d="M752.808,-251.51C809.05,-254.957 909.012,-261.084 969.727,-264.805"/>
<polygon fill="midnightblue" stroke="midnightblue" points="969.659,-268.307 979.854,-265.426 970.087,-261.32 969.659,-268.307"/>
</g>
<!-- Node18 -->
<g id="node18" class="node"><title>Node18</title>
<g id="a_node18"><a xlink:href="lcd_8c.html#a250728451a22259562d3f01a12bbd77b" target="_top" xlink:title="lcd_command">
<polygon fill="white" stroke="black" points="983.5,-220.447 983.5,-239.447 1060.5,-239.447 1060.5,-220.447 983.5,-220.447"/>
<text text-anchor="middle" x="1022" y="-227.447" font-family="Helvetica,sans-Serif" font-size="10.00">lcd_command</text>
</a>
</g>
</g>
<!-- Node17&#45;&gt;Node18 -->
<g id="edge22" class="edge"><title>Node17&#45;&gt;Node18</title>
<path fill="none" stroke="midnightblue" d="M914.299,-229.947C932.592,-229.947 954.094,-229.947 972.984,-229.947"/>
<polygon fill="midnightblue" stroke="midnightblue" points="973.172,-233.448 983.172,-229.947 973.172,-226.448 973.172,-233.448"/>
</g>
<!-- Node18&#45;&gt;Node6 -->
<g id="edge23" class="edge"><title>Node18&#45;&gt;Node6</title>
<path fill="none" stroke="midnightblue" d="M1060.61,-236.327C1070.04,-237.927 1080.26,-239.66 1090.01,-241.315"/>
<polygon fill="midnightblue" stroke="midnightblue" points="1089.51,-244.78 1099.95,-243.002 1090.68,-237.878 1089.51,-244.78"/>
</g>
<!-- Node18&#45;&gt;Node11 -->
<g id="edge24" class="edge"><title>Node18&#45;&gt;Node11</title>
<path fill="none" stroke="midnightblue" d="M1044.39,-239.578C1050.74,-242.512 1057.68,-245.796 1064,-248.947 1072.47,-253.173 1091.85,-263.562 1108.22,-272.41"/>
<polygon fill="midnightblue" stroke="midnightblue" points="1106.95,-275.702 1117.41,-277.384 1110.28,-269.546 1106.95,-275.702"/>
</g>
<!-- Node19&#45;&gt;Node6 -->
<g id="edge26" class="edge"><title>Node19&#45;&gt;Node6</title>
<path fill="none" stroke="midnightblue" d="M1064.07,-260.98C1072.41,-259.565 1081.23,-258.068 1089.72,-256.63"/>
<polygon fill="midnightblue" stroke="midnightblue" points="1090.56,-260.036 1099.84,-254.913 1089.39,-253.135 1090.56,-260.036"/>
</g>
<!-- Node23&#45;&gt;Node16 -->
<g id="edge31" class="edge"><title>Node23&#45;&gt;Node16</title>
<path fill="none" stroke="midnightblue" d="M603.269,-252.737C619.454,-252.157 639.199,-251.449 657.225,-250.803"/>
<polygon fill="midnightblue" stroke="midnightblue" points="657.446,-254.298 667.314,-250.442 657.195,-247.302 657.446,-254.298"/>
</g>
<!-- Node26 -->
<g id="node26" class="node"><title>Node26</title>
<g id="a_node26"><a xlink:href="radio_8c.html#aaaca9764d77849b9d1aeae47e691bf75" target="_top" xlink:title="radio_equalizer">
<polygon fill="white" stroke="black" points="240,-206.447 240,-225.447 322,-225.447 322,-206.447 240,-206.447"/>
<text text-anchor="middle" x="281" y="-213.447" font-family="Helvetica,sans-Serif" font-size="10.00">radio_equalizer</text>
</a>
</g>
</g>
<!-- Node25&#45;&gt;Node26 -->
<g id="edge34" class="edge"><title>Node25&#45;&gt;Node26</title>
<path fill="none" stroke="midnightblue" d="M172.442,-168.449C187.159,-176.522 209.167,-188.164 229,-196.947 233.463,-198.924 238.201,-200.876 242.922,-202.734"/>
<polygon fill="midnightblue" stroke="midnightblue" points="241.903,-206.091 252.494,-206.391 244.402,-199.552 241.903,-206.091"/>
</g>
<!-- Node28 -->
<g id="node28" class="node"><title>Node28</title>
<g id="a_node28"><a xlink:href="radio_8c.html#afb3cb0ce160c3403d9306d936667fb64" target="_top" xlink:title="radio_source_select">
<polygon fill="white" stroke="black" points="229,-168.447 229,-187.447 333,-187.447 333,-168.447 229,-168.447"/>
<text text-anchor="middle" x="281" y="-175.447" font-family="Helvetica,sans-Serif" font-size="10.00">radio_source_select</text>
</a>
</g>
</g>
<!-- Node25&#45;&gt;Node28 -->
<g id="edge37" class="edge"><title>Node25&#45;&gt;Node28</title>
<path fill="none" stroke="midnightblue" d="M193.192,-164.7C201.217,-165.924 209.89,-167.248 218.543,-168.568"/>
<polygon fill="midnightblue" stroke="midnightblue" points="218.237,-172.062 228.651,-170.111 219.293,-165.142 218.237,-172.062"/>
</g>
<!-- Node29 -->
<g id="node29" class="node"><title>Node29</title>
<g id="a_node29"><a xlink:href="radio_8c.html#a9dd33606330e2225b425000341cf4688" target="_top" xlink:title="radio_brightness">
<polygon fill="white" stroke="black" points="237,-92.4475 237,-111.447 325,-111.447 325,-92.4475 237,-92.4475"/>
<text text-anchor="middle" x="281" y="-99.4475" font-family="Helvetica,sans-Serif" font-size="10.00">radio_brightness</text>
</a>
</g>
</g>
<!-- Node25&#45;&gt;Node29 -->
<g id="edge38" class="edge"><title>Node25&#45;&gt;Node29</title>
<path fill="none" stroke="midnightblue" d="M172.442,-149.446C187.159,-141.373 209.167,-129.731 229,-120.947 233.463,-118.971 238.201,-117.019 242.922,-115.161"/>
<polygon fill="midnightblue" stroke="midnightblue" points="244.402,-118.343 252.494,-111.504 241.903,-111.804 244.402,-118.343"/>
</g>
<!-- Node34 -->
<g id="node34" class="node"><title>Node34</title>
<g id="a_node34"><a xlink:href="radio_8c.html#aaf3f53dfebe8da71fbe4c457ffda6714" target="_top" xlink:title="radio_contrast">
<polygon fill="white" stroke="black" points="242,-54.4475 242,-73.4475 320,-73.4475 320,-54.4475 242,-54.4475"/>
<text text-anchor="middle" x="281" y="-61.4475" font-family="Helvetica,sans-Serif" font-size="10.00">radio_contrast</text>
</a>
</g>
</g>
<!-- Node25&#45;&gt;Node34 -->
<g id="edge46" class="edge"><title>Node25&#45;&gt;Node34</title>
<path fill="none" stroke="midnightblue" d="M162.573,-149.201C174.576,-133.29 200.43,-101.64 229,-82.9475 231.935,-81.027 235.092,-79.2639 238.344,-77.653"/>
<polygon fill="midnightblue" stroke="midnightblue" points="239.941,-80.7732 247.656,-73.5116 237.097,-74.3772 239.941,-80.7732"/>
</g>
<!-- Node36 -->
<g id="node36" class="node"><title>Node36</title>
<g id="a_node36"><a xlink:href="radio_8c.html#afce06a210fd84b9acb905e8ab81feaeb" target="_top" xlink:title="radio_volume">
<polygon fill="white" stroke="black" points="244.5,-130.447 244.5,-149.447 317.5,-149.447 317.5,-130.447 244.5,-130.447"/>
<text text-anchor="middle" x="281" y="-137.447" font-family="Helvetica,sans-Serif" font-size="10.00">radio_volume</text>
</a>
</g>
</g>
<!-- Node25&#45;&gt;Node36 -->
<g id="edge50" class="edge"><title>Node25&#45;&gt;Node36</title>
<path fill="none" stroke="midnightblue" d="M193.192,-153.195C206.081,-151.228 220.643,-149.006 234.107,-146.951"/>
<polygon fill="midnightblue" stroke="midnightblue" points="234.785,-150.388 244.142,-145.42 233.729,-143.469 234.785,-150.388"/>
</g>
<!-- Node27 -->
<g id="node27" class="node"><title>Node27</title>
<g id="a_node27"><a xlink:href="tpa2016d2_8c.html#a52781315d0f308dba4aee65a749da317" target="_top" xlink:title="Amplifier_set_equalizer_mode">
<polygon fill="white" stroke="black" points="798,-173.447 798,-192.447 944,-192.447 944,-173.447 798,-173.447"/>
<text text-anchor="middle" x="871" y="-180.447" font-family="Helvetica,sans-Serif" font-size="10.00">Amplifier_set_equalizer_mode</text>
</a>
</g>
</g>
<!-- Node26&#45;&gt;Node27 -->
<g id="edge35" class="edge"><title>Node26&#45;&gt;Node27</title>
<path fill="none" stroke="midnightblue" d="M322.372,-212.138C368.805,-207.877 447.346,-201.038 515,-196.947 608.303,-191.306 715.546,-187.438 787.526,-185.22"/>
<polygon fill="midnightblue" stroke="midnightblue" points="787.996,-188.708 797.885,-184.905 787.783,-181.711 787.996,-188.708"/>
</g>
<!-- Node27&#45;&gt;Node6 -->
<g id="edge36" class="edge"><title>Node27&#45;&gt;Node6</title>
<path fill="none" stroke="midnightblue" d="M944.024,-187.506C980.646,-191.304 1025.45,-198.251 1064,-210.947 1080.94,-216.526 1098.63,-225.98 1112.11,-234.062"/>
<polygon fill="midnightblue" stroke="midnightblue" points="1110.36,-237.098 1120.71,-239.374 1114.04,-231.142 1110.36,-237.098"/>
</g>
<!-- Node30 -->
<g id="node30" class="node"><title>Node30</title>
<g id="a_node30"><a xlink:href="pca9530_8h.html#a07bd06dbfcb216eedc1969aa04e19b53" target="_top" xlink:title="pca9530_set_pwm">
<polygon fill="white" stroke="black" points="822,-132.447 822,-151.447 920,-151.447 920,-132.447 822,-132.447"/>
<text text-anchor="middle" x="871" y="-139.447" font-family="Helvetica,sans-Serif" font-size="10.00">pca9530_set_pwm</text>
</a>
</g>
</g>
<!-- Node29&#45;&gt;Node30 -->
<g id="edge39" class="edge"><title>Node29&#45;&gt;Node30</title>
<path fill="none" stroke="midnightblue" d="M325.237,-104.889C429.246,-111.964 693.522,-129.942 811.534,-137.97"/>
<polygon fill="midnightblue" stroke="midnightblue" points="811.597,-141.482 821.811,-138.669 812.072,-134.499 811.597,-141.482"/>
</g>
<!-- Node31 -->
<g id="node31" class="node"><title>Node31</title>
<g id="a_node31"><a xlink:href="menu_2menu_8h.html#a5621c1bf312de029f43808bf02dc52e3" target="_top" xlink:title="menu_scroll_settings">
<polygon fill="white" stroke="black" points="369.5,-73.4475 369.5,-92.4475 478.5,-92.4475 478.5,-73.4475 369.5,-73.4475"/>
<text text-anchor="middle" x="424" y="-80.4475" font-family="Helvetica,sans-Serif" font-size="10.00">menu_scroll_settings</text>
</a>
</g>
</g>
<!-- Node29&#45;&gt;Node31 -->
<g id="edge41" class="edge"><title>Node29&#45;&gt;Node31</title>
<path fill="none" stroke="midnightblue" d="M325.071,-96.1436C335.907,-94.6834 347.768,-93.0851 359.378,-91.5207"/>
<polygon fill="midnightblue" stroke="midnightblue" points="360.04,-94.9631 369.483,-90.1589 359.106,-88.0258 360.04,-94.9631"/>
</g>
<!-- Node30&#45;&gt;Node6 -->
<g id="edge40" class="edge"><title>Node30&#45;&gt;Node6</title>
<path fill="none" stroke="midnightblue" d="M920.301,-147.498C960.479,-153.554 1018.28,-165.674 1064,-188.947 1085.4,-199.841 1105.91,-218.341 1119.33,-231.925"/>
<polygon fill="midnightblue" stroke="midnightblue" points="1116.92,-234.468 1126.37,-239.261 1121.97,-229.622 1116.92,-234.468"/>
</g>
<!-- Node31&#45;&gt;Node16 -->
<g id="edge42" class="edge"><title>Node31&#45;&gt;Node16</title>
<path fill="none" stroke="midnightblue" d="M441.65,-92.477C475.637,-111.952 555.411,-157.783 622,-196.947 642.988,-209.292 666.706,-223.484 684.07,-233.92"/>
<polygon fill="midnightblue" stroke="midnightblue" points="682.632,-237.139 693.005,-239.295 686.241,-231.141 682.632,-237.139"/>
</g>
<!-- Node32 -->
<g id="node32" class="node"><title>Node32</title>
<g id="a_node32"><a xlink:href="radio_8h.html#a391fc5fe58716d2c794685bcf12bbda5" target="_top" xlink:title="radio_value_to_string">
<polygon fill="white" stroke="black" points="515,-54.4475 515,-73.4475 622,-73.4475 622,-54.4475 515,-54.4475"/>
<text text-anchor="middle" x="568.5" y="-61.4475" font-family="Helvetica,sans-Serif" font-size="10.00">radio_value_to_string</text>
</a>
</g>
</g>
<!-- Node31&#45;&gt;Node32 -->
<g id="edge43" class="edge"><title>Node31&#45;&gt;Node32</title>
<path fill="none" stroke="midnightblue" d="M478.873,-75.7644C487.37,-74.6314 496.219,-73.4516 504.894,-72.295"/>
<polygon fill="midnightblue" stroke="midnightblue" points="505.517,-75.743 514.966,-70.952 504.591,-68.8044 505.517,-75.743"/>
</g>
<!-- Node33 -->
<g id="node33" class="node"><title>Node33</title>
<g id="a_node33"><a xlink:href="menu_2src_2menu_8c.html#a503ed2007daa6f20b2f748eedbcb8494" target="_top" xlink:title="menu_scroll">
<polygon fill="white" stroke="black" points="534,-16.4475 534,-35.4475 603,-35.4475 603,-16.4475 534,-16.4475"/>
<text text-anchor="middle" x="568.5" y="-23.4475" font-family="Helvetica,sans-Serif" font-size="10.00">menu_scroll</text>
</a>
</g>
</g>
<!-- Node31&#45;&gt;Node33 -->
<g id="edge44" class="edge"><title>Node31&#45;&gt;Node33</title>
<path fill="none" stroke="midnightblue" d="M446.693,-73.4124C464.842,-65.5261 491.47,-54.1655 515,-44.9475 519.95,-43.0084 525.188,-41.0281 530.365,-39.1133"/>
<polygon fill="midnightblue" stroke="midnightblue" points="531.957,-42.2577 540.15,-35.5397 529.556,-35.6825 531.957,-42.2577"/>
</g>
<!-- Node33&#45;&gt;Node16 -->
<g id="edge45" class="edge"><title>Node33&#45;&gt;Node16</title>
<path fill="none" stroke="midnightblue" d="M603.2,-33.5198C610.025,-36.2535 616.718,-39.9525 622,-44.9475 676.861,-96.8258 698.723,-188.931 705.951,-229.191"/>
<polygon fill="midnightblue" stroke="midnightblue" points="702.541,-230.02 707.648,-239.302 709.444,-228.861 702.541,-230.02"/>
</g>
<!-- Node34&#45;&gt;Node31 -->
<g id="edge49" class="edge"><title>Node34&#45;&gt;Node31</title>
<path fill="none" stroke="midnightblue" d="M320.157,-69.0892C332.245,-70.7181 345.953,-72.5653 359.33,-74.3679"/>
<polygon fill="midnightblue" stroke="midnightblue" points="359.085,-77.8664 369.463,-75.7333 360.02,-70.9291 359.085,-77.8664"/>
</g>
<!-- Node35 -->
<g id="node35" class="node"><title>Node35</title>
<g id="a_node35"><a xlink:href="lcd_8h.html#ab99e48ab8689dcb1205c4c7c97bd9956" target="_top" xlink:title="lcd_contrast">
<polygon fill="white" stroke="black" points="675,-35.4475 675,-54.4475 745,-54.4475 745,-35.4475 675,-35.4475"/>
<text text-anchor="middle" x="710" y="-42.4475" font-family="Helvetica,sans-Serif" font-size="10.00">lcd_contrast</text>
</a>
</g>
</g>
<!-- Node34&#45;&gt;Node35 -->
<g id="edge47" class="edge"><title>Node34&#45;&gt;Node35</title>
<path fill="none" stroke="midnightblue" d="M304.392,-54.4355C358.963,-32.5035 503.068,17.8931 622,-6.94748 643.714,-11.4827 666.643,-21.7521 683.507,-30.473"/>
<polygon fill="midnightblue" stroke="midnightblue" points="682.211,-33.7489 692.681,-35.3737 685.51,-27.5747 682.211,-33.7489"/>
</g>
<!-- Node35&#45;&gt;Node18 -->
<g id="edge48" class="edge"><title>Node35&#45;&gt;Node18</title>
<path fill="none" stroke="midnightblue" d="M745.279,-49.646C793.605,-57.6772 882.7,-77.7787 944,-122.947 976.082,-146.587 1000.14,-187.571 1012.25,-211.368"/>
<polygon fill="midnightblue" stroke="midnightblue" points="1009.15,-212.984 1016.7,-220.414 1015.43,-209.896 1009.15,-212.984"/>
</g>
<!-- Node36&#45;&gt;Node3 -->
<g id="edge51" class="edge"><title>Node36&#45;&gt;Node3</title>
<path fill="none" stroke="midnightblue" d="M317.707,-147.454C323.583,-150.177 329.039,-153.889 333,-158.947 419.333,-269.195 297.481,-351.561 369,-471.947 374.679,-481.507 383.808,-489.278 392.956,-495.244"/>
<polygon fill="midnightblue" stroke="midnightblue" points="391.239,-498.295 401.621,-500.409 394.823,-492.282 391.239,-498.295"/>
</g>
<!-- Node36&#45;&gt;Node31 -->
<g id="edge52" class="edge"><title>Node36&#45;&gt;Node31</title>
<path fill="none" stroke="midnightblue" d="M308.29,-130.399C316.255,-127.44 325.009,-124.121 333,-120.947 352.502,-113.202 374.174,-104.068 391.364,-96.6961"/>
<polygon fill="midnightblue" stroke="midnightblue" points="393.116,-99.7524 400.917,-92.5833 390.348,-93.3229 393.116,-99.7524"/>
</g>
</g>
</svg>
        <g id="navigator" transform="translate(0 0)" fill="#404254">
                <rect fill="#f2f5e9" fill-opacity="0.5" stroke="#606060" stroke-width=".5" x="0" y="0" width="60" height="60"/>
                <use id="zoomplus" xlink:href="#zoomPlus" x="17" y="9" onmousedown="handleZoom(evt,'in')"/>
                <use id="zoomminus" xlink:href="#zoomMin" x="42" y="9" onmousedown="handleZoom(evt,'out')"/>
                <use id="reset" xlink:href="#resetDef" x="30" y="36" onmousedown="handleReset()"/>
                <g id="arrowUp" xlink:href="#dirArrow" transform="translate(30 24)" onmousedown="handlePan(0,-1)">
                  <use xlink:href="#rim" fill="#404040">
                        <set attributeName="fill" to="#808080" begin="arrowUp.mouseover" end="arrowUp.mouseout"/>
                  </use>
                  <path fill="none" stroke="white" stroke-width="1.5" d="M0,-3.0v7 M-2.5,-0.5L0,-3.0L2.5,-0.5"/>
                </g>
                <g id="arrowRight" xlink:href="#dirArrow" transform="rotate(90) translate(36 -43)" onmousedown="handlePan(1,0)">
                  <use xlink:href="#rim" fill="#404040">
                        <set attributeName="fill" to="#808080" begin="arrowRight.mouseover" end="arrowRight.mouseout"/>
                  </use>
                  <path fill="none" stroke="white" stroke-width="1.5" d="M0,-3.0v7 M-2.5,-0.5L0,-3.0L2.5,-0.5"/>
                </g>
                <g id="arrowDown" xlink:href="#dirArrow" transform="rotate(180) translate(-30 -48)" onmousedown="handlePan(0,1)">
                  <use xlink:href="#rim" fill="#404040">
                        <set attributeName="fill" to="#808080" begin="arrowDown.mouseover" end="arrowDown.mouseout"/>
                  </use>
                  <path fill="none" stroke="white" stroke-width="1.5" d="M0,-3.0v7 M-2.5,-0.5L0,-3.0L2.5,-0.5"/>
                </g>
                <g id="arrowLeft" xlink:href="#dirArrow" transform="rotate(270) translate(-36 17)" onmousedown="handlePan(-1,0)">
                  <use xlink:href="#rim" fill="#404040">
                        <set attributeName="fill" to="#808080" begin="arrowLeft.mouseover" end="arrowLeft.mouseout"/>
                  </use>
                  <path fill="none" stroke="white" stroke-width="1.5" d="M0,-3.0v7 M-2.5,-0.5L0,-3.0L2.5,-0.5"/>
                </g>
        </g>
        <svg viewBox="0 0 15 15" width="100%" height="30px" preserveAspectRatio="xMaxYMin meet">
         <g id="arrow_out" transform="scale(0.3 0.3)">
          <a xlink:href="menu_2menu_8h_a5d9c190838195d7872fc7067269e20fa_cgraph_org.svg" target="_base">
           <rect id="button" ry="5" rx="5" y="6" x="6" height="38" width="38"
                fill="#f2f5e9" fill-opacity="0.5" stroke="#606060" stroke-width="1.0"/>
           <path id="arrow"
             d="M 11.500037,31.436501 C 11.940474,20.09759 22.043105,11.32322 32.158766,21.979434 L 37.068811,17.246167 C 37.068811,17.246167 37.088388,32 37.088388,32 L 22.160133,31.978069 C 22.160133,31.978069 26.997745,27.140456 26.997745,27.140456 C 18.528582,18.264221 13.291696,25.230495 11.500037,31.436501 z"
             style="fill:#404040;"/>
          </a>
         </g>
        </svg>
</svg>
