<?xml version="1.0" encoding="UTF-8" standalone="no"?>
<!DOCTYPE svg PUBLIC "-//W3C//DTD SVG 1.1//EN"
 "http://www.w3.org/Graphics/SVG/1.1/DTD/svg11.dtd">
<!-- Generated by graphviz version 2.38.0 (20140413.2041)
 -->
<!-- Title: D:/GIT/fhradiov2/driver/src/pca9530.c Pages: 1 -->
<svg width="374pt" height="397pt"
 viewBox="0.00 0.00 374.00 397.00" xmlns="http://www.w3.org/2000/svg" xmlns:xlink="http://www.w3.org/1999/xlink">
<g id="graph0" class="graph" transform="scale(1 1) rotate(0) translate(4 393)">
<title>D:/GIT/fhradiov2/driver/src/pca9530.c</title>
<polygon fill="white" stroke="none" points="-4,4 -4,-393 370,-393 370,4 -4,4"/>
<!-- Node1 -->
<g id="node1" class="node"><title>Node1</title>
<polygon fill="#bfbfbf" stroke="black" points="50,-358.5 50,-388.5 160,-388.5 160,-358.5 50,-358.5"/>
<text text-anchor="start" x="58" y="-376.5" font-family="Helvetica,sans-Serif" font-size="10.00">D:/GIT/fhradiov2/driver</text>
<text text-anchor="middle" x="105" y="-365.5" font-family="Helvetica,sans-Serif" font-size="10.00">/src/pca9530.c</text>
</g>
<!-- Node2 -->
<g id="node2" class="node"><title>Node2</title>
<g id="a_node2"><a xlink:href="pca9530_8h.html" target="_top" xlink:title="driver/pca9530.h">
<polygon fill="white" stroke="black" points="7.5,-297 7.5,-316 94.5,-316 94.5,-297 7.5,-297"/>
<text text-anchor="middle" x="51" y="-304" font-family="Helvetica,sans-Serif" font-size="10.00">driver/pca9530.h</text>
</a>
</g>
</g>
<!-- Node1&#45;&gt;Node2 -->
<g id="edge1" class="edge"><title>Node1&#45;&gt;Node2</title>
<path fill="none" stroke="midnightblue" d="M93.2828,-358.396C84.863,-348.261 73.4867,-334.567 64.6552,-323.937"/>
<polygon fill="midnightblue" stroke="midnightblue" points="67.3056,-321.65 58.2232,-316.195 61.9212,-326.123 67.3056,-321.65"/>
</g>
<!-- Node12 -->
<g id="node12" class="node"><title>Node12</title>
<g id="a_node12"><a xlink:href="radio__pin__mapping_8h.html" target="_top" xlink:title="settings/radio_pin\l_mapping.h">
<polygon fill="white" stroke="black" points="112.5,-291.5 112.5,-321.5 205.5,-321.5 205.5,-291.5 112.5,-291.5"/>
<text text-anchor="start" x="120.5" y="-309.5" font-family="Helvetica,sans-Serif" font-size="10.00">settings/radio_pin</text>
<text text-anchor="middle" x="159" y="-298.5" font-family="Helvetica,sans-Serif" font-size="10.00">_mapping.h</text>
</a>
</g>
</g>
<!-- Node1&#45;&gt;Node12 -->
<g id="edge15" class="edge"><title>Node1&#45;&gt;Node12</title>
<path fill="none" stroke="midnightblue" d="M116.717,-358.396C123.723,-349.963 132.775,-339.067 140.705,-329.522"/>
<polygon fill="midnightblue" stroke="midnightblue" points="143.608,-331.505 147.306,-321.577 138.223,-327.032 143.608,-331.505"/>
</g>
<!-- Node3 -->
<g id="node3" class="node"><title>Node3</title>
<polygon fill="white" stroke="#bfbfbf" points="71.5,-0.5 71.5,-19.5 120.5,-19.5 120.5,-0.5 71.5,-0.5"/>
<text text-anchor="middle" x="96" y="-7.5" font-family="Helvetica,sans-Serif" font-size="10.00">stdint.h</text>
</g>
<!-- Node2&#45;&gt;Node3 -->
<g id="edge2" class="edge"><title>Node2&#45;&gt;Node3</title>
<path fill="none" stroke="midnightblue" d="M44.1219,-296.804C30.2011,-278.301 0,-233.182 0,-190 0,-190 0,-190 0,-132 0,-85.0583 44.8889,-45.736 73.2759,-25.5624"/>
<polygon fill="midnightblue" stroke="midnightblue" points="75.5625,-28.2386 81.8349,-19.6999 71.6068,-22.4634 75.5625,-28.2386"/>
</g>
<!-- Node4 -->
<g id="node4" class="node"><title>Node4</title>
<g id="a_node4"><a xlink:href="i2c_8h.html" target="_top" xlink:title="I2C implemtation for MSP430G2553, interrupt based. &#160;&#160;This implemtation based on examples from Texas I...">
<polygon fill="white" stroke="black" points="70.5,-235.5 70.5,-254.5 133.5,-254.5 133.5,-235.5 70.5,-235.5"/>
<text text-anchor="middle" x="102" y="-242.5" font-family="Helvetica,sans-Serif" font-size="10.00">driver/i2c.h</text>
</a>
</g>
</g>
<!-- Node2&#45;&gt;Node4 -->
<g id="edge3" class="edge"><title>Node2&#45;&gt;Node4</title>
<path fill="none" stroke="midnightblue" d="M58.3071,-296.975C66.0328,-287.962 78.4075,-273.525 88.0184,-262.312"/>
<polygon fill="midnightblue" stroke="midnightblue" points="90.856,-264.379 94.7065,-254.509 85.5411,-259.824 90.856,-264.379"/>
</g>
<!-- Node4&#45;&gt;Node3 -->
<g id="edge4" class="edge"><title>Node4&#45;&gt;Node3</title>
<path fill="none" stroke="midnightblue" d="M96.5659,-235.244C86.3705,-218.242 64.7077,-179.238 57,-143 48.0908,-101.113 70.7676,-53.1834 85.1733,-28.1986"/>
<polygon fill="midnightblue" stroke="midnightblue" points="88.2315,-29.9044 90.3796,-19.5296 82.2306,-26.3004 88.2315,-29.9044"/>
</g>
<!-- Node5 -->
<g id="node5" class="node"><title>Node5</title>
<polygon fill="white" stroke="#bfbfbf" points="66.5,-123.5 66.5,-142.5 125.5,-142.5 125.5,-123.5 66.5,-123.5"/>
<text text-anchor="middle" x="96" y="-130.5" font-family="Helvetica,sans-Serif" font-size="10.00">msp430.h</text>
</g>
<!-- Node4&#45;&gt;Node5 -->
<g id="edge5" class="edge"><title>Node4&#45;&gt;Node5</title>
<path fill="none" stroke="midnightblue" d="M100.261,-235.419C98.5282,-226.399 95.9873,-211.77 95,-199 93.8023,-183.509 94.182,-165.881 94.7889,-152.894"/>
<polygon fill="midnightblue" stroke="midnightblue" points="98.2869,-153.026 95.3468,-142.847 91.2977,-152.638 98.2869,-153.026"/>
</g>
<!-- Node6 -->
<g id="node6" class="node"><title>Node6</title>
<polygon fill="white" stroke="#bfbfbf" points="104,-179.5 104,-198.5 152,-198.5 152,-179.5 104,-179.5"/>
<text text-anchor="middle" x="128" y="-186.5" font-family="Helvetica,sans-Serif" font-size="10.00">stdlib.h</text>
</g>
<!-- Node4&#45;&gt;Node6 -->
<g id="edge6" class="edge"><title>Node4&#45;&gt;Node6</title>
<path fill="none" stroke="midnightblue" d="M106.293,-235.083C109.852,-227.691 115.022,-216.953 119.424,-207.811"/>
<polygon fill="midnightblue" stroke="midnightblue" points="122.602,-209.279 123.787,-198.751 116.295,-206.243 122.602,-209.279"/>
</g>
<!-- Node7 -->
<g id="node7" class="node"><title>Node7</title>
<polygon fill="white" stroke="#bfbfbf" points="170,-179.5 170,-198.5 222,-198.5 222,-179.5 170,-179.5"/>
<text text-anchor="middle" x="196" y="-186.5" font-family="Helvetica,sans-Serif" font-size="10.00">stdarg.h</text>
</g>
<!-- Node4&#45;&gt;Node7 -->
<g id="edge7" class="edge"><title>Node4&#45;&gt;Node7</title>
<path fill="none" stroke="midnightblue" d="M117.103,-235.324C131.903,-226.822 154.694,-213.729 171.982,-203.797"/>
<polygon fill="midnightblue" stroke="midnightblue" points="174.007,-206.671 180.935,-198.655 170.52,-200.601 174.007,-206.671"/>
</g>
<!-- Node8 -->
<g id="node8" class="node"><title>Node8</title>
<g id="a_node8"><a xlink:href="timer_8h.html" target="_top" xlink:title="driver/timer.h">
<polygon fill="white" stroke="black" points="240,-179.5 240,-198.5 312,-198.5 312,-179.5 240,-179.5"/>
<text text-anchor="middle" x="276" y="-186.5" font-family="Helvetica,sans-Serif" font-size="10.00">driver/timer.h</text>
</a>
</g>
</g>
<!-- Node4&#45;&gt;Node8 -->
<g id="edge8" class="edge"><title>Node4&#45;&gt;Node8</title>
<path fill="none" stroke="midnightblue" d="M129.571,-235.444C159.097,-226.28 206.118,-211.688 238.883,-201.519"/>
<polygon fill="midnightblue" stroke="midnightblue" points="240.045,-204.823 248.558,-198.516 237.97,-198.138 240.045,-204.823"/>
</g>
<!-- Node8&#45;&gt;Node3 -->
<g id="edge10" class="edge"><title>Node8&#45;&gt;Node3</title>
<path fill="none" stroke="midnightblue" d="M255.192,-179.401C237.869,-171.584 213.186,-158.86 195,-143 155.391,-108.456 121.707,-55.6275 105.799,-28.4651"/>
<polygon fill="midnightblue" stroke="midnightblue" points="108.781,-26.6285 100.765,-19.7005 102.711,-30.1151 108.781,-26.6285"/>
</g>
<!-- Node8&#45;&gt;Node5 -->
<g id="edge9" class="edge"><title>Node8&#45;&gt;Node5</title>
<path fill="none" stroke="midnightblue" d="M247.478,-179.444C216.934,-170.28 168.292,-155.688 134.397,-145.519"/>
<polygon fill="midnightblue" stroke="midnightblue" points="134.972,-142.038 124.388,-142.516 132.961,-148.742 134.972,-142.038"/>
</g>
<!-- Node9 -->
<g id="node9" class="node"><title>Node9</title>
<g id="a_node9"><a xlink:href="radio__configuration_8h.html" target="_top" xlink:title="settings/radio_configuration.h">
<polygon fill="white" stroke="black" points="204.5,-123.5 204.5,-142.5 347.5,-142.5 347.5,-123.5 204.5,-123.5"/>
<text text-anchor="middle" x="276" y="-130.5" font-family="Helvetica,sans-Serif" font-size="10.00">settings/radio_configuration.h</text>
</a>
</g>
</g>
<!-- Node8&#45;&gt;Node9 -->
<g id="edge11" class="edge"><title>Node8&#45;&gt;Node9</title>
<path fill="none" stroke="midnightblue" d="M276,-179.083C276,-172.006 276,-161.861 276,-152.986"/>
<polygon fill="midnightblue" stroke="midnightblue" points="279.5,-152.751 276,-142.751 272.5,-152.751 279.5,-152.751"/>
</g>
<!-- Node10 -->
<g id="node10" class="node"><title>Node10</title>
<g id="a_node10"><a xlink:href="si4735__cmd__prop_8h.html" target="_top" xlink:title="driver/include/si4735\l_cmd_prop.h">
<polygon fill="white" stroke="black" points="182,-56.5 182,-86.5 286,-86.5 286,-56.5 182,-56.5"/>
<text text-anchor="start" x="190" y="-74.5" font-family="Helvetica,sans-Serif" font-size="10.00">driver/include/si4735</text>
<text text-anchor="middle" x="234" y="-63.5" font-family="Helvetica,sans-Serif" font-size="10.00">_cmd_prop.h</text>
</a>
</g>
</g>
<!-- Node9&#45;&gt;Node10 -->
<g id="edge12" class="edge"><title>Node9&#45;&gt;Node10</title>
<path fill="none" stroke="midnightblue" d="M269.982,-123.475C264.719,-116.019 256.837,-104.852 249.79,-94.8685"/>
<polygon fill="midnightblue" stroke="midnightblue" points="252.525,-92.6743 243.899,-86.523 246.806,-96.7111 252.525,-92.6743"/>
</g>
<!-- Node11 -->
<g id="node11" class="node"><title>Node11</title>
<g id="a_node11"><a xlink:href="libs_2time_8h.html" target="_top" xlink:title="libs/time.h">
<polygon fill="white" stroke="black" points="304,-62 304,-81 366,-81 366,-62 304,-62"/>
<text text-anchor="middle" x="335" y="-69" font-family="Helvetica,sans-Serif" font-size="10.00">libs/time.h</text>
</a>
</g>
</g>
<!-- Node9&#45;&gt;Node11 -->
<g id="edge14" class="edge"><title>Node9&#45;&gt;Node11</title>
<path fill="none" stroke="midnightblue" d="M284.453,-123.475C293.566,-114.285 308.27,-99.4563 319.476,-88.156"/>
<polygon fill="midnightblue" stroke="midnightblue" points="322.007,-90.5744 326.562,-81.0091 317.036,-85.6455 322.007,-90.5744"/>
</g>
<!-- Node10&#45;&gt;Node3 -->
<g id="edge13" class="edge"><title>Node10&#45;&gt;Node3</title>
<path fill="none" stroke="midnightblue" d="M201.296,-56.3993C178.245,-46.4608 147.64,-33.2649 125.368,-23.6625"/>
<polygon fill="midnightblue" stroke="midnightblue" points="126.649,-20.4031 116.08,-19.6578 123.877,-26.8311 126.649,-20.4031"/>
</g>
</g>
</svg>
