<?xml version="1.0" encoding="UTF-8" standalone="no"?>
<!DOCTYPE svg PUBLIC "-//W3C//DTD SVG 1.1//EN"
 "http://www.w3.org/Graphics/SVG/1.1/DTD/svg11.dtd">
<!-- Generated by graphviz version 2.38.0 (20140413.2041)
 -->
<!-- Title: pca9530_set_pwm Pages: 1 -->
<svg width="468pt" height="104pt"
 viewBox="0.00 0.00 468.00 104.00" xmlns="http://www.w3.org/2000/svg" xmlns:xlink="http://www.w3.org/1999/xlink">
<g id="graph0" class="graph" transform="scale(1 1) rotate(0) translate(4 100)">
<title>pca9530_set_pwm</title>
<polygon fill="white" stroke="none" points="-4,4 -4,-100 464,-100 464,4 -4,4"/>
<!-- Node1 -->
<g id="node1" class="node"><title>Node1</title>
<polygon fill="#bfbfbf" stroke="black" points="0,-38.5 0,-57.5 98,-57.5 98,-38.5 0,-38.5"/>
<text text-anchor="middle" x="49" y="-45.5" font-family="Helvetica,sans-Serif" font-size="10.00">pca9530_set_pwm</text>
</g>
<!-- Node2 -->
<g id="node2" class="node"><title>Node2</title>
<g id="a_node2"><a xlink:href="pca9530_8c.html#ae2f44601e0bbf4c0b7bbdb127def81c3" target="_top" xlink:title="pca9530_init">
<polygon fill="white" stroke="black" points="142.5,-76.5 142.5,-95.5 213.5,-95.5 213.5,-76.5 142.5,-76.5"/>
<text text-anchor="middle" x="178" y="-83.5" font-family="Helvetica,sans-Serif" font-size="10.00">pca9530_init</text>
</a>
</g>
</g>
<!-- Node1&#45;&gt;Node2 -->
<g id="edge1" class="edge"><title>Node1&#45;&gt;Node2</title>
<path fill="none" stroke="midnightblue" d="M91.8943,-60.5353C109.171,-65.7048 128.871,-71.5991 144.963,-76.4141"/>
<polygon fill="midnightblue" stroke="midnightblue" points="92.6311,-57.1025 82.0475,-57.589 90.6245,-63.8088 92.6311,-57.1025"/>
</g>
<!-- Node5 -->
<g id="node5" class="node"><title>Node5</title>
<g id="a_node5"><a xlink:href="radio_8c.html#a8d795d5e8b1acf8b2d97bfee82d90ca1" target="_top" xlink:title="radio_brightness">
<polygon fill="white" stroke="black" points="134,-38.5 134,-57.5 222,-57.5 222,-38.5 134,-38.5"/>
<text text-anchor="middle" x="178" y="-45.5" font-family="Helvetica,sans-Serif" font-size="10.00">radio_brightness</text>
</a>
</g>
</g>
<!-- Node1&#45;&gt;Node5 -->
<g id="edge4" class="edge"><title>Node1&#45;&gt;Node5</title>
<path fill="none" stroke="midnightblue" d="M108.111,-48C116.8,-48 125.624,-48 133.926,-48"/>
<polygon fill="midnightblue" stroke="midnightblue" points="108.013,-44.5001 98.0133,-48 108.013,-51.5001 108.013,-44.5001"/>
</g>
<!-- Node7 -->
<g id="node7" class="node"><title>Node7</title>
<g id="a_node7"><a xlink:href="radio_8c.html#a5d08cbff96aee4274e785b49a98f14cd" target="_top" xlink:title="Turn radio to standby. ">
<polygon fill="white" stroke="black" points="136.5,-0.5 136.5,-19.5 219.5,-19.5 219.5,-0.5 136.5,-0.5"/>
<text text-anchor="middle" x="178" y="-7.5" font-family="Helvetica,sans-Serif" font-size="10.00">radio_stand_by</text>
</a>
</g>
</g>
<!-- Node1&#45;&gt;Node7 -->
<g id="edge7" class="edge"><title>Node1&#45;&gt;Node7</title>
<path fill="none" stroke="midnightblue" d="M91.8943,-35.4647C109.171,-30.2952 128.871,-24.4009 144.963,-19.5859"/>
<polygon fill="midnightblue" stroke="midnightblue" points="90.6245,-32.1912 82.0475,-38.411 92.6311,-38.8975 90.6245,-32.1912"/>
</g>
<!-- Node3 -->
<g id="node3" class="node"><title>Node3</title>
<g id="a_node3"><a xlink:href="radio_8c.html#a3a1de7e31aabba6e408a633c130e618a" target="_top" xlink:title="Initiales the radio. ">
<polygon fill="white" stroke="black" points="294,-76.5 294,-95.5 350,-95.5 350,-76.5 294,-76.5"/>
<text text-anchor="middle" x="322" y="-83.5" font-family="Helvetica,sans-Serif" font-size="10.00">radio_init</text>
</a>
</g>
</g>
<!-- Node2&#45;&gt;Node3 -->
<g id="edge2" class="edge"><title>Node2&#45;&gt;Node3</title>
<path fill="none" stroke="midnightblue" d="M223.931,-86C246.853,-86 273.985,-86 293.729,-86"/>
<polygon fill="midnightblue" stroke="midnightblue" points="223.737,-82.5001 213.737,-86 223.737,-89.5001 223.737,-82.5001"/>
</g>
<!-- Node4 -->
<g id="node4" class="node"><title>Node4</title>
<g id="a_node4"><a xlink:href="main_8c.html#a840291bc02cba5474a4cb46a9b9566fe" target="_top" xlink:title="Main function. ">
<polygon fill="white" stroke="black" points="422,-76.5 422,-95.5 460,-95.5 460,-76.5 422,-76.5"/>
<text text-anchor="middle" x="441" y="-83.5" font-family="Helvetica,sans-Serif" font-size="10.00">main</text>
</a>
</g>
</g>
<!-- Node3&#45;&gt;Node4 -->
<g id="edge3" class="edge"><title>Node3&#45;&gt;Node4</title>
<path fill="none" stroke="midnightblue" d="M360.146,-86C380.7,-86 405.331,-86 421.751,-86"/>
<polygon fill="midnightblue" stroke="midnightblue" points="360.136,-82.5001 350.136,-86 360.136,-89.5001 360.136,-82.5001"/>
</g>
<!-- Node5&#45;&gt;Node3 -->
<g id="edge5" class="edge"><title>Node5&#45;&gt;Node3</title>
<path fill="none" stroke="midnightblue" d="M224.637,-60.2126C247.395,-66.3029 274.156,-73.4643 293.695,-78.6929"/>
<polygon fill="midnightblue" stroke="midnightblue" points="225.397,-56.7931 214.833,-57.589 223.588,-63.5552 225.397,-56.7931"/>
</g>
<!-- Node6 -->
<g id="node6" class="node"><title>Node6</title>
<g id="a_node6"><a xlink:href="radio__settings_8c.html#a2d04f2363bf944b4700b71e0f96ee16f" target="_top" xlink:title="Sets the brightness. ">
<polygon fill="white" stroke="black" points="258,-38.5 258,-57.5 386,-57.5 386,-38.5 258,-38.5"/>
<text text-anchor="middle" x="322" y="-45.5" font-family="Helvetica,sans-Serif" font-size="10.00">radio_settings_brightness</text>
</a>
</g>
</g>
<!-- Node5&#45;&gt;Node6 -->
<g id="edge6" class="edge"><title>Node5&#45;&gt;Node6</title>
<path fill="none" stroke="midnightblue" d="M232.578,-48C240.801,-48 249.356,-48 257.764,-48"/>
<polygon fill="midnightblue" stroke="midnightblue" points="232.376,-44.5001 222.376,-48 232.376,-51.5001 232.376,-44.5001"/>
</g>
</g>
</svg>
