<?xml version="1.0" encoding="UTF-8" standalone="no"?>
<!DOCTYPE svg PUBLIC "-//W3C//DTD SVG 1.1//EN"
 "http://www.w3.org/Graphics/SVG/1.1/DTD/svg11.dtd">
<!-- Generated by graphviz version 2.38.0 (20140413.2041)
 -->
<!-- Title: pca9530_init Pages: 1 -->
<svg width="553pt" height="104pt"
 viewBox="0.00 0.00 553.00 104.00" xmlns="http://www.w3.org/2000/svg" xmlns:xlink="http://www.w3.org/1999/xlink">
<g id="graph0" class="graph" transform="scale(1 1) rotate(0) translate(4 100)">
<title>pca9530_init</title>
<polygon fill="white" stroke="none" points="-4,4 -4,-100 549,-100 549,4 -4,4"/>
<!-- Node1 -->
<g id="node1" class="node"><title>Node1</title>
<polygon fill="#bfbfbf" stroke="black" points="0,-38.5 0,-57.5 71,-57.5 71,-38.5 0,-38.5"/>
<text text-anchor="middle" x="35.5" y="-45.5" font-family="Helvetica,sans-Serif" font-size="10.00">pca9530_init</text>
</g>
<!-- Node2 -->
<g id="node2" class="node"><title>Node2</title>
<g id="a_node2"><a xlink:href="pca9530_8c.html#a07bd06dbfcb216eedc1969aa04e19b53" target="_top" xlink:title="pca9530_set_pwm">
<polygon fill="white" stroke="black" points="111.5,-76.5 111.5,-95.5 209.5,-95.5 209.5,-76.5 111.5,-76.5"/>
<text text-anchor="middle" x="160.5" y="-83.5" font-family="Helvetica,sans-Serif" font-size="10.00">pca9530_set_pwm</text>
</a>
</g>
</g>
<!-- Node1&#45;&gt;Node2 -->
<g id="edge1" class="edge"><title>Node1&#45;&gt;Node2</title>
<path fill="none" stroke="midnightblue" d="M67.5381,-57.589C82.9792,-62.3594 101.848,-68.1888 118.466,-73.3229"/>
<polygon fill="midnightblue" stroke="midnightblue" points="117.884,-76.8063 128.472,-76.4141 119.951,-70.1182 117.884,-76.8063"/>
</g>
<!-- Node6 -->
<g id="node6" class="node"><title>Node6</title>
<g id="a_node6"><a xlink:href="pca9530_8c.html#abc69b1cb491825b0e425539994b188bb" target="_top" xlink:title="pca9530_set_freq">
<polygon fill="white" stroke="black" points="114,-38.5 114,-57.5 207,-57.5 207,-38.5 114,-38.5"/>
<text text-anchor="middle" x="160.5" y="-45.5" font-family="Helvetica,sans-Serif" font-size="10.00">pca9530_set_freq</text>
</a>
</g>
</g>
<!-- Node1&#45;&gt;Node6 -->
<g id="edge5" class="edge"><title>Node1&#45;&gt;Node6</title>
<path fill="none" stroke="midnightblue" d="M71.0897,-48C81.2084,-48 92.5378,-48 103.622,-48"/>
<polygon fill="midnightblue" stroke="midnightblue" points="103.69,-51.5001 113.69,-48 103.69,-44.5001 103.69,-51.5001"/>
</g>
<!-- Node7 -->
<g id="node7" class="node"><title>Node7</title>
<g id="a_node7"><a xlink:href="pca9530_8c.html#a91089f6598b9a7b7d85171c4a731f1c1" target="_top" xlink:title="pca9530_config_leds">
<polygon fill="white" stroke="black" points="107,-0.5 107,-19.5 214,-19.5 214,-0.5 107,-0.5"/>
<text text-anchor="middle" x="160.5" y="-7.5" font-family="Helvetica,sans-Serif" font-size="10.00">pca9530_config_leds</text>
</a>
</g>
</g>
<!-- Node1&#45;&gt;Node7 -->
<g id="edge7" class="edge"><title>Node1&#45;&gt;Node7</title>
<path fill="none" stroke="midnightblue" d="M67.5381,-38.411C82.9792,-33.6406 101.848,-27.8112 118.466,-22.6771"/>
<polygon fill="midnightblue" stroke="midnightblue" points="119.951,-25.8818 128.472,-19.5859 117.884,-19.1937 119.951,-25.8818"/>
</g>
<!-- Node3 -->
<g id="node3" class="node"><title>Node3</title>
<g id="a_node3"><a xlink:href="i2c_8h.html#a6691e5911f539e1e8178c6e983e8079a" target="_top" xlink:title="Transmits I2C commands with a variable length to a I2C slave. ">
<polygon fill="white" stroke="black" points="250,-38.5 250,-57.5 322,-57.5 322,-38.5 250,-38.5"/>
<text text-anchor="middle" x="286" y="-45.5" font-family="Helvetica,sans-Serif" font-size="10.00">i2c_write_var</text>
</a>
</g>
</g>
<!-- Node2&#45;&gt;Node3 -->
<g id="edge2" class="edge"><title>Node2&#45;&gt;Node3</title>
<path fill="none" stroke="midnightblue" d="M192.664,-76.411C208.314,-71.5956 227.471,-65.7012 244.271,-60.532"/>
<polygon fill="midnightblue" stroke="midnightblue" points="245.317,-63.8721 253.846,-57.5859 243.259,-57.1816 245.317,-63.8721"/>
</g>
<!-- Node4 -->
<g id="node4" class="node"><title>Node4</title>
<g id="a_node4"><a xlink:href="i2c_8c.html#ae0625b97d3437bcaca4ac4b96dd01978" target="_top" xlink:title="Transmits I2C command array to a I2C slave. ">
<polygon fill="white" stroke="black" points="358,-38.5 358,-57.5 429,-57.5 429,-38.5 358,-38.5"/>
<text text-anchor="middle" x="393.5" y="-45.5" font-family="Helvetica,sans-Serif" font-size="10.00">i2c_write_arr</text>
</a>
</g>
</g>
<!-- Node3&#45;&gt;Node4 -->
<g id="edge3" class="edge"><title>Node3&#45;&gt;Node4</title>
<path fill="none" stroke="midnightblue" d="M322.13,-48C330.312,-48 339.133,-48 347.671,-48"/>
<polygon fill="midnightblue" stroke="midnightblue" points="347.882,-51.5001 357.882,-48 347.882,-44.5001 347.882,-51.5001"/>
</g>
<!-- Node5 -->
<g id="node5" class="node"><title>Node5</title>
<g id="a_node5"><a xlink:href="timer_8c.html#a3c56af3315c2461dec5ced585a5f84db" target="_top" xlink:title="_delay_ten_us">
<polygon fill="white" stroke="black" points="465,-38.5 465,-57.5 545,-57.5 545,-38.5 465,-38.5"/>
<text text-anchor="middle" x="505" y="-45.5" font-family="Helvetica,sans-Serif" font-size="10.00">_delay_ten_us</text>
</a>
</g>
</g>
<!-- Node4&#45;&gt;Node5 -->
<g id="edge4" class="edge"><title>Node4&#45;&gt;Node5</title>
<path fill="none" stroke="midnightblue" d="M429.146,-48C437.165,-48 445.851,-48 454.37,-48"/>
<polygon fill="midnightblue" stroke="midnightblue" points="454.623,-51.5001 464.623,-48 454.623,-44.5001 454.623,-51.5001"/>
</g>
<!-- Node6&#45;&gt;Node3 -->
<g id="edge6" class="edge"><title>Node6&#45;&gt;Node3</title>
<path fill="none" stroke="midnightblue" d="M207.136,-48C217.752,-48 229.051,-48 239.655,-48"/>
<polygon fill="midnightblue" stroke="midnightblue" points="239.975,-51.5001 249.975,-48 239.975,-44.5001 239.975,-51.5001"/>
</g>
<!-- Node7&#45;&gt;Node3 -->
<g id="edge8" class="edge"><title>Node7&#45;&gt;Node3</title>
<path fill="none" stroke="midnightblue" d="M192.664,-19.589C208.314,-24.4044 227.471,-30.2988 244.271,-35.468"/>
<polygon fill="midnightblue" stroke="midnightblue" points="243.259,-38.8184 253.846,-38.4141 245.317,-32.1279 243.259,-38.8184"/>
</g>
</g>
</svg>
