<?xml version="1.0" encoding="UTF-8" standalone="no"?>
<!DOCTYPE svg PUBLIC "-//W3C//DTD SVG 1.1//EN"
 "http://www.w3.org/Graphics/SVG/1.1/DTD/svg11.dtd">
<!-- Generated by graphviz version 2.38.0 (20140413.2041)
 -->
<!-- Title: radio_stand_by Pages: 1 -->
<svg width="896pt" height="732pt"
 viewBox="0.00 0.00 896.00 731.78" xmlns="http://www.w3.org/2000/svg" xmlns:xlink="http://www.w3.org/1999/xlink">
<g id="graph0" class="graph" transform="scale(1 1) rotate(0) translate(4 727.783)">
<title>radio_stand_by</title>
<polygon fill="white" stroke="none" points="-4,4 -4,-727.783 892,-727.783 892,4 -4,4"/>
<!-- Node1 -->
<g id="node1" class="node"><title>Node1</title>
<polygon fill="#bfbfbf" stroke="black" points="0,-555.953 0,-574.953 83,-574.953 83,-555.953 0,-555.953"/>
<text text-anchor="middle" x="41.5" y="-562.953" font-family="Helvetica,sans-Serif" font-size="10.00">radio_stand_by</text>
</g>
<!-- Node2 -->
<g id="node2" class="node"><title>Node2</title>
<g id="a_node2"><a xlink:href="tpa2016d2_8c.html#abd9d0aa3479e3dd782cdf627c1d54df1" target="_top" xlink:title="tpa2016d2_shutdown">
<polygon fill="white" stroke="black" points="417,-702.953 417,-721.953 525,-721.953 525,-702.953 417,-702.953"/>
<text text-anchor="middle" x="471" y="-709.953" font-family="Helvetica,sans-Serif" font-size="10.00">tpa2016d2_shutdown</text>
</a>
</g>
</g>
<!-- Node1&#45;&gt;Node2 -->
<g id="edge1" class="edge"><title>Node1&#45;&gt;Node2</title>
<path fill="none" stroke="midnightblue" d="M46.053,-575.083C54.702,-597.012 79.115,-650.608 119,-674.453 207.934,-727.623 332.47,-727.142 406.808,-720.681"/>
<polygon fill="midnightblue" stroke="midnightblue" points="407.324,-724.148 416.955,-719.735 406.674,-717.179 407.324,-724.148"/>
</g>
<!-- Node6 -->
<g id="node6" class="node"><title>Node6</title>
<g id="a_node6"><a xlink:href="si4735_8h.html#a7a8b4f9539a7fe4e1101a84c80d1c3f0" target="_top" xlink:title="si4735_shutdown">
<polygon fill="white" stroke="black" points="122,-645.953 122,-664.953 214,-664.953 214,-645.953 122,-645.953"/>
<text text-anchor="middle" x="168" y="-652.953" font-family="Helvetica,sans-Serif" font-size="10.00">si4735_shutdown</text>
</a>
</g>
</g>
<!-- Node1&#45;&gt;Node6 -->
<g id="edge5" class="edge"><title>Node1&#45;&gt;Node6</title>
<path fill="none" stroke="midnightblue" d="M52.2414,-575.279C66.1817,-588.995 93.0166,-614.14 119,-631.453 124.166,-634.895 129.894,-638.171 135.542,-641.134"/>
<polygon fill="midnightblue" stroke="midnightblue" points="134.349,-644.451 144.857,-645.8 137.484,-638.192 134.349,-644.451"/>
</g>
<!-- Node7 -->
<g id="node7" class="node"><title>Node7</title>
<g id="a_node7"><a xlink:href="lcd_8h.html#acd63fb85d212730fa4fcbcbeeccd231e" target="_top" xlink:title="lcd_create_view">
<polygon fill="white" stroke="black" points="125.5,-555.953 125.5,-574.953 210.5,-574.953 210.5,-555.953 125.5,-555.953"/>
<text text-anchor="middle" x="168" y="-562.953" font-family="Helvetica,sans-Serif" font-size="10.00">lcd_create_view</text>
</a>
</g>
</g>
<!-- Node1&#45;&gt;Node7 -->
<g id="edge7" class="edge"><title>Node1&#45;&gt;Node7</title>
<path fill="none" stroke="midnightblue" d="M83.266,-565.453C93.4769,-565.453 104.567,-565.453 115.234,-565.453"/>
<polygon fill="midnightblue" stroke="midnightblue" points="115.289,-568.953 125.289,-565.453 115.289,-561.953 115.289,-568.953"/>
</g>
<!-- Node12 -->
<g id="node12" class="node"><title>Node12</title>
<g id="a_node12"><a xlink:href="pca9530_8h.html#a07bd06dbfcb216eedc1969aa04e19b53" target="_top" xlink:title="pca9530_set_pwm">
<polygon fill="white" stroke="black" points="119,-602.953 119,-621.953 217,-621.953 217,-602.953 119,-602.953"/>
<text text-anchor="middle" x="168" y="-609.953" font-family="Helvetica,sans-Serif" font-size="10.00">pca9530_set_pwm</text>
</a>
</g>
</g>
<!-- Node1&#45;&gt;Node12 -->
<g id="edge15" class="edge"><title>Node1&#45;&gt;Node12</title>
<path fill="none" stroke="midnightblue" d="M67.6944,-574.964C86.135,-581.926 111.397,-591.462 131.826,-599.175"/>
<polygon fill="midnightblue" stroke="midnightblue" points="130.824,-602.537 141.416,-602.795 133.296,-595.988 130.824,-602.537"/>
</g>
<!-- Node13 -->
<g id="node13" class="node"><title>Node13</title>
<g id="a_node13"><a xlink:href="si4735_8h.html#a876518b974a7128391e2ff86a597218f" target="_top" xlink:title="SI4735_INIT">
<polygon fill="white" stroke="black" points="134,-322.953 134,-341.953 202,-341.953 202,-322.953 134,-322.953"/>
<text text-anchor="middle" x="168" y="-329.953" font-family="Helvetica,sans-Serif" font-size="10.00">SI4735_INIT</text>
</a>
</g>
</g>
<!-- Node1&#45;&gt;Node13 -->
<g id="edge17" class="edge"><title>Node1&#45;&gt;Node13</title>
<path fill="none" stroke="midnightblue" d="M47.6911,-555.738C66.5955,-520.359 131.964,-398.022 157.071,-351.034"/>
<polygon fill="midnightblue" stroke="midnightblue" points="160.161,-352.679 161.787,-342.21 153.987,-349.38 160.161,-352.679"/>
</g>
<!-- Node24 -->
<g id="node24" class="node"><title>Node24</title>
<g id="a_node24"><a xlink:href="radio_8c.html#ae11dbe9ea82d3ae65b6e80a4e6e995f8" target="_top" xlink:title="Set the volume. ">
<polygon fill="white" stroke="black" points="131.5,-94.9531 131.5,-113.953 204.5,-113.953 204.5,-94.9531 131.5,-94.9531"/>
<text text-anchor="middle" x="168" y="-101.953" font-family="Helvetica,sans-Serif" font-size="10.00">radio_volume</text>
</a>
</g>
</g>
<!-- Node1&#45;&gt;Node24 -->
<g id="edge37" class="edge"><title>Node1&#45;&gt;Node24</title>
<path fill="none" stroke="midnightblue" d="M45.1004,-555.824C60.5434,-498.642 140.257,-203.477 161.689,-124.118"/>
<polygon fill="midnightblue" stroke="midnightblue" points="165.186,-124.595 164.414,-114.029 158.428,-122.77 165.186,-124.595"/>
</g>
<!-- Node26 -->
<g id="node26" class="node"><title>Node26</title>
<g id="a_node26"><a xlink:href="radio_8c.html#a6d652e9d0f1c54bfe9ec73fe2605b706" target="_top" xlink:title="Tune the frequency. ">
<polygon fill="white" stroke="black" points="126.5,-56.9531 126.5,-75.9531 209.5,-75.9531 209.5,-56.9531 126.5,-56.9531"/>
<text text-anchor="middle" x="168" y="-63.9531" font-family="Helvetica,sans-Serif" font-size="10.00">radio_tune_freq</text>
</a>
</g>
</g>
<!-- Node1&#45;&gt;Node26 -->
<g id="edge44" class="edge"><title>Node1&#45;&gt;Node26</title>
<path fill="none" stroke="midnightblue" d="M42.7762,-555.601C44.6883,-493.99 57.7571,-161.815 119,-85.4531 119.981,-84.2296 121.053,-83.0845 122.197,-82.013"/>
<polygon fill="midnightblue" stroke="midnightblue" points="124.554,-84.6297 130.635,-75.9542 120.471,-78.9437 124.554,-84.6297"/>
</g>
<!-- Node3 -->
<g id="node3" class="node"><title>Node3</title>
<g id="a_node3"><a xlink:href="i2c_8h.html#a6691e5911f539e1e8178c6e983e8079a" target="_top" xlink:title="Transmits I2C commands with a variable length to a I2C slave. ">
<polygon fill="white" stroke="black" points="577,-512.953 577,-531.953 649,-531.953 649,-512.953 577,-512.953"/>
<text text-anchor="middle" x="613" y="-519.953" font-family="Helvetica,sans-Serif" font-size="10.00">i2c_write_var</text>
</a>
</g>
</g>
<!-- Node2&#45;&gt;Node3 -->
<g id="edge2" class="edge"><title>Node2&#45;&gt;Node3</title>
<path fill="none" stroke="midnightblue" d="M502.167,-702.895C510.254,-699.298 518.537,-694.555 525,-688.453 569.833,-646.128 595.963,-575.509 606.513,-541.673"/>
<polygon fill="midnightblue" stroke="midnightblue" points="609.875,-542.647 609.395,-532.063 603.17,-540.636 609.875,-542.647"/>
</g>
<!-- Node4 -->
<g id="node4" class="node"><title>Node4</title>
<g id="a_node4"><a xlink:href="i2c_8c.html#ae0625b97d3437bcaca4ac4b96dd01978" target="_top" xlink:title="Transmits I2C command array to a I2C slave. ">
<polygon fill="white" stroke="black" points="701,-512.953 701,-531.953 772,-531.953 772,-512.953 701,-512.953"/>
<text text-anchor="middle" x="736.5" y="-519.953" font-family="Helvetica,sans-Serif" font-size="10.00">i2c_write_arr</text>
</a>
</g>
</g>
<!-- Node3&#45;&gt;Node4 -->
<g id="edge3" class="edge"><title>Node3&#45;&gt;Node4</title>
<path fill="none" stroke="midnightblue" d="M649.143,-522.453C662.1,-522.453 676.959,-522.453 690.657,-522.453"/>
<polygon fill="midnightblue" stroke="midnightblue" points="690.856,-525.953 700.856,-522.453 690.856,-518.953 690.856,-525.953"/>
</g>
<!-- Node5 -->
<g id="node5" class="node"><title>Node5</title>
<g id="a_node5"><a xlink:href="timer_8c.html#a3c56af3315c2461dec5ced585a5f84db" target="_top" xlink:title="_delay_ten_us">
<polygon fill="white" stroke="black" points="808,-474.953 808,-493.953 888,-493.953 888,-474.953 808,-474.953"/>
<text text-anchor="middle" x="848" y="-481.953" font-family="Helvetica,sans-Serif" font-size="10.00">_delay_ten_us</text>
</a>
</g>
</g>
<!-- Node4&#45;&gt;Node5 -->
<g id="edge4" class="edge"><title>Node4&#45;&gt;Node5</title>
<path fill="none" stroke="midnightblue" d="M765.131,-512.864C778.618,-508.184 795.043,-502.484 809.63,-497.422"/>
<polygon fill="midnightblue" stroke="midnightblue" points="811.078,-500.624 819.377,-494.039 808.783,-494.011 811.078,-500.624"/>
</g>
<!-- Node6&#45;&gt;Node3 -->
<g id="edge6" class="edge"><title>Node6&#45;&gt;Node3</title>
<path fill="none" stroke="midnightblue" d="M208.097,-664.978C277.03,-679.534 422.571,-700.067 525,-643.453 565.962,-620.813 592.474,-569.754 604.506,-541.742"/>
<polygon fill="midnightblue" stroke="midnightblue" points="607.846,-542.822 608.407,-532.242 601.371,-540.162 607.846,-542.822"/>
</g>
<!-- Node8 -->
<g id="node8" class="node"><title>Node8</title>
<g id="a_node8"><a xlink:href="lcd_8c.html#a2a4df97ebc5b396233aa31765228ef42" target="_top" xlink:title="lcd_set_courser">
<polygon fill="white" stroke="black" points="274,-550.953 274,-569.953 360,-569.953 360,-550.953 274,-550.953"/>
<text text-anchor="middle" x="317" y="-557.953" font-family="Helvetica,sans-Serif" font-size="10.00">lcd_set_courser</text>
</a>
</g>
</g>
<!-- Node7&#45;&gt;Node8 -->
<g id="edge8" class="edge"><title>Node7&#45;&gt;Node8</title>
<path fill="none" stroke="midnightblue" d="M210.731,-564.034C227.264,-563.471 246.452,-562.819 263.883,-562.226"/>
<polygon fill="midnightblue" stroke="midnightblue" points="264.034,-565.723 273.91,-561.885 263.796,-558.727 264.034,-565.723"/>
</g>
<!-- Node11 -->
<g id="node11" class="node"><title>Node11</title>
<g id="a_node11"><a xlink:href="lcd_8c.html#aa6e1aa2ef9b677e16d8198df683429ec" target="_top" xlink:title="lcd_write_string">
<polygon fill="white" stroke="black" points="429,-588.953 429,-607.953 513,-607.953 513,-588.953 429,-588.953"/>
<text text-anchor="middle" x="471" y="-595.953" font-family="Helvetica,sans-Serif" font-size="10.00">lcd_write_string</text>
</a>
</g>
</g>
<!-- Node7&#45;&gt;Node11 -->
<g id="edge13" class="edge"><title>Node7&#45;&gt;Node11</title>
<path fill="none" stroke="midnightblue" d="M210.778,-573.074C224.226,-575.351 239.213,-577.703 253,-579.453 309.44,-586.616 374.484,-591.922 418.528,-595.079"/>
<polygon fill="midnightblue" stroke="midnightblue" points="418.48,-598.585 428.701,-595.797 418.973,-591.602 418.48,-598.585"/>
</g>
<!-- Node9 -->
<g id="node9" class="node"><title>Node9</title>
<g id="a_node9"><a xlink:href="lcd_8c.html#a250728451a22259562d3f01a12bbd77b" target="_top" xlink:title="lcd_command">
<polygon fill="white" stroke="black" points="432.5,-550.953 432.5,-569.953 509.5,-569.953 509.5,-550.953 432.5,-550.953"/>
<text text-anchor="middle" x="471" y="-557.953" font-family="Helvetica,sans-Serif" font-size="10.00">lcd_command</text>
</a>
</g>
</g>
<!-- Node8&#45;&gt;Node9 -->
<g id="edge9" class="edge"><title>Node8&#45;&gt;Node9</title>
<path fill="none" stroke="midnightblue" d="M360.34,-560.453C379.565,-560.453 402.39,-560.453 422.226,-560.453"/>
<polygon fill="midnightblue" stroke="midnightblue" points="422.291,-563.953 432.291,-560.453 422.291,-556.953 422.291,-563.953"/>
</g>
<!-- Node9&#45;&gt;Node3 -->
<g id="edge10" class="edge"><title>Node9&#45;&gt;Node3</title>
<path fill="none" stroke="midnightblue" d="M507.328,-550.864C525.401,-545.959 547.598,-539.934 566.895,-534.696"/>
<polygon fill="midnightblue" stroke="midnightblue" points="567.949,-538.036 576.683,-532.039 566.116,-531.281 567.949,-538.036"/>
</g>
<!-- Node10 -->
<g id="node10" class="node"><title>Node10</title>
<g id="a_node10"><a xlink:href="timer_8c.html#a276d5cb665b9f8b2c79e53e2f2c5b4f0" target="_top" xlink:title="_delay_ms">
<polygon fill="white" stroke="black" points="581,-474.953 581,-493.953 645,-493.953 645,-474.953 581,-474.953"/>
<text text-anchor="middle" x="613" y="-481.953" font-family="Helvetica,sans-Serif" font-size="10.00">_delay_ms</text>
</a>
</g>
</g>
<!-- Node9&#45;&gt;Node10 -->
<g id="edge11" class="edge"><title>Node9&#45;&gt;Node10</title>
<path fill="none" stroke="midnightblue" d="M485.044,-550.835C501.94,-538.679 532.601,-517.634 561,-503.453 565.056,-501.428 569.384,-499.494 573.738,-497.689"/>
<polygon fill="midnightblue" stroke="midnightblue" points="575.196,-500.876 583.219,-493.956 572.632,-494.363 575.196,-500.876"/>
</g>
<!-- Node10&#45;&gt;Node5 -->
<g id="edge12" class="edge"><title>Node10&#45;&gt;Node5</title>
<path fill="none" stroke="midnightblue" d="M645.423,-484.453C684.572,-484.453 751.903,-484.453 797.888,-484.453"/>
<polygon fill="midnightblue" stroke="midnightblue" points="797.933,-487.953 807.933,-484.453 797.933,-480.953 797.933,-487.953"/>
</g>
<!-- Node11&#45;&gt;Node3 -->
<g id="edge14" class="edge"><title>Node11&#45;&gt;Node3</title>
<path fill="none" stroke="midnightblue" d="M502.504,-588.904C510.005,-586.181 517.913,-582.983 525,-579.453 548.812,-567.593 574.029,-550.507 591.149,-538.137"/>
<polygon fill="midnightblue" stroke="midnightblue" points="593.318,-540.887 599.312,-532.151 589.178,-535.241 593.318,-540.887"/>
</g>
<!-- Node12&#45;&gt;Node3 -->
<g id="edge16" class="edge"><title>Node12&#45;&gt;Node3</title>
<path fill="none" stroke="midnightblue" d="M203.487,-622.008C269.299,-638.337 415.955,-665.453 525,-617.453 560.462,-601.843 587.772,-563.851 601.722,-540.921"/>
<polygon fill="midnightblue" stroke="midnightblue" points="604.839,-542.524 606.867,-532.125 598.797,-538.99 604.839,-542.524"/>
</g>
<!-- Node13&#45;&gt;Node3 -->
<g id="edge23" class="edge"><title>Node13&#45;&gt;Node3</title>
<path fill="none" stroke="midnightblue" d="M170.506,-342.193C175.667,-371.878 195.614,-461.497 253,-499.453 303.317,-532.735 482.143,-528.883 566.862,-524.989"/>
<polygon fill="midnightblue" stroke="midnightblue" points="567.134,-528.48 576.955,-524.504 566.798,-521.488 567.134,-528.48"/>
</g>
<!-- Node13&#45;&gt;Node5 -->
<g id="edge20" class="edge"><title>Node13&#45;&gt;Node5</title>
<path fill="none" stroke="midnightblue" d="M179.411,-322.731C194.379,-309.417 223.444,-285.967 253,-275.453 344.214,-243.006 373.187,-256.453 470,-256.453 470,-256.453 470,-256.453 614,-256.453 733.366,-256.453 814.197,-411.206 838.97,-465.723"/>
<polygon fill="midnightblue" stroke="midnightblue" points="835.805,-467.221 843.056,-474.946 842.205,-464.386 835.805,-467.221"/>
</g>
<!-- Node13&#45;&gt;Node10 -->
<g id="edge21" class="edge"><title>Node13&#45;&gt;Node10</title>
<path fill="none" stroke="midnightblue" d="M171.694,-342.064C179.409,-367.551 204.229,-436.866 253,-465.453 354.36,-524.866 500.766,-507.177 571.166,-493.651"/>
<polygon fill="midnightblue" stroke="midnightblue" points="571.863,-497.081 580.987,-491.695 570.496,-490.216 571.863,-497.081"/>
</g>
<!-- Node14 -->
<g id="node14" class="node"><title>Node14</title>
<g id="a_node14"><a xlink:href="external__interrupthandler_8h.html#a1685394f9610006097ec45181e59563b" target="_top" xlink:title="ext_interrupt_create">
<polygon fill="white" stroke="black" points="265.5,-436.953 265.5,-455.953 368.5,-455.953 368.5,-436.953 265.5,-436.953"/>
<text text-anchor="middle" x="317" y="-443.953" font-family="Helvetica,sans-Serif" font-size="10.00">ext_interrupt_create</text>
</a>
</g>
</g>
<!-- Node13&#45;&gt;Node14 -->
<g id="edge18" class="edge"><title>Node13&#45;&gt;Node14</title>
<path fill="none" stroke="midnightblue" d="M174.878,-342.119C187.036,-361.295 216.853,-404.292 253,-427.453 256.168,-429.483 259.564,-431.305 263.077,-432.94"/>
<polygon fill="midnightblue" stroke="midnightblue" points="261.991,-436.277 272.57,-436.84 264.651,-429.802 261.991,-436.277"/>
</g>
<!-- Node15 -->
<g id="node15" class="node"><title>Node15</title>
<g id="a_node15"><a xlink:href="si4735_8c.html#a08ce8e479825a0951c15968d2b14a222" target="_top" xlink:title="si4735_interrupt">
<polygon fill="white" stroke="black" points="274,-398.953 274,-417.953 360,-417.953 360,-398.953 274,-398.953"/>
<text text-anchor="middle" x="317" y="-405.953" font-family="Helvetica,sans-Serif" font-size="10.00">si4735_interrupt</text>
</a>
</g>
</g>
<!-- Node13&#45;&gt;Node15 -->
<g id="edge19" class="edge"><title>Node13&#45;&gt;Node15</title>
<path fill="none" stroke="midnightblue" d="M182.797,-342.135C199.066,-353.279 227.17,-371.683 253,-384.453 260.918,-388.368 269.643,-392.06 278.011,-395.321"/>
<polygon fill="midnightblue" stroke="midnightblue" points="277.008,-398.683 287.6,-398.938 279.479,-392.134 277.008,-398.683"/>
</g>
<!-- Node16 -->
<g id="node16" class="node"><title>Node16</title>
<g id="a_node16"><a xlink:href="external__interrupthandler_8h.html#a345dfb9a7e177c5da6eb9dc5b3c82bc9" target="_top" xlink:title="ext_interrupt_enable">
<polygon fill="white" stroke="black" points="265,-94.9531 265,-113.953 369,-113.953 369,-94.9531 265,-94.9531"/>
<text text-anchor="middle" x="317" y="-101.953" font-family="Helvetica,sans-Serif" font-size="10.00">ext_interrupt_enable</text>
</a>
</g>
</g>
<!-- Node13&#45;&gt;Node16 -->
<g id="edge22" class="edge"><title>Node13&#45;&gt;Node16</title>
<path fill="none" stroke="midnightblue" d="M170.234,-322.852C174.853,-290.744 194.001,-185.902 253,-128.453 257.036,-124.524 261.78,-121.223 266.825,-118.455"/>
<polygon fill="midnightblue" stroke="midnightblue" points="268.613,-121.48 276.141,-114.024 265.607,-115.158 268.613,-121.48"/>
</g>
<!-- Node17 -->
<g id="node17" class="node"><title>Node17</title>
<g id="a_node17"><a xlink:href="si4735_8c.html#aad8341b5b19aa8f962a6b9b940d77960" target="_top" xlink:title="si4735_get_interrupt">
<polygon fill="white" stroke="black" points="561,-170.953 561,-189.953 665,-189.953 665,-170.953 561,-170.953"/>
<text text-anchor="middle" x="613" y="-177.953" font-family="Helvetica,sans-Serif" font-size="10.00">si4735_get_interrupt</text>
</a>
</g>
</g>
<!-- Node13&#45;&gt;Node17 -->
<g id="edge24" class="edge"><title>Node13&#45;&gt;Node17</title>
<path fill="none" stroke="midnightblue" d="M171.73,-322.632C179.536,-296.526 204.561,-225.108 253,-191.453 349.397,-124.478 498.139,-150.052 570.123,-168.281"/>
<polygon fill="midnightblue" stroke="midnightblue" points="569.612,-171.765 580.172,-170.906 571.381,-164.992 569.612,-171.765"/>
</g>
<!-- Node18 -->
<g id="node18" class="node"><title>Node18</title>
<g id="a_node18"><a xlink:href="si4735_8c.html#aadc29a91f13cd5ebe239b23c7e5370dc" target="_top" xlink:title="si4735_set_property">
<polygon fill="white" stroke="black" points="419,-322.953 419,-341.953 523,-341.953 523,-322.953 419,-322.953"/>
<text text-anchor="middle" x="471" y="-329.953" font-family="Helvetica,sans-Serif" font-size="10.00">si4735_set_property</text>
</a>
</g>
</g>
<!-- Node13&#45;&gt;Node18 -->
<g id="edge25" class="edge"><title>Node13&#45;&gt;Node18</title>
<path fill="none" stroke="midnightblue" d="M202.227,-341.759C217.55,-345.587 236.06,-349.561 253,-351.453 309.537,-357.767 324.425,-357.425 381,-351.453 395.023,-349.973 410.086,-347.215 423.759,-344.251"/>
<polygon fill="midnightblue" stroke="midnightblue" points="424.92,-347.577 433.904,-341.962 423.379,-340.749 424.92,-347.577"/>
</g>
<!-- Node19 -->
<g id="node19" class="node"><title>Node19</title>
<g id="a_node19"><a xlink:href="si4735_8c.html#a6f18c3d05bcb57296aad95c0be535f73" target="_top" xlink:title="si4735_configure_rds">
<polygon fill="white" stroke="black" points="263,-322.953 263,-341.953 371,-341.953 371,-322.953 263,-322.953"/>
<text text-anchor="middle" x="317" y="-329.953" font-family="Helvetica,sans-Serif" font-size="10.00">si4735_configure_rds</text>
</a>
</g>
</g>
<!-- Node13&#45;&gt;Node19 -->
<g id="edge28" class="edge"><title>Node13&#45;&gt;Node19</title>
<path fill="none" stroke="midnightblue" d="M202.357,-332.453C217.298,-332.453 235.432,-332.453 252.785,-332.453"/>
<polygon fill="midnightblue" stroke="midnightblue" points="252.883,-335.953 262.883,-332.453 252.883,-328.953 252.883,-335.953"/>
</g>
<!-- Node20 -->
<g id="node20" class="node"><title>Node20</title>
<g id="a_node20"><a xlink:href="si4735_8c.html#af82ec28b536b1258ea4178108c61d5e9" target="_top" xlink:title="si4735_fm_tune_freq">
<polygon fill="white" stroke="black" points="418,-170.953 418,-189.953 524,-189.953 524,-170.953 418,-170.953"/>
<text text-anchor="middle" x="471" y="-177.953" font-family="Helvetica,sans-Serif" font-size="10.00">si4735_fm_tune_freq</text>
</a>
</g>
</g>
<!-- Node13&#45;&gt;Node20 -->
<g id="edge30" class="edge"><title>Node13&#45;&gt;Node20</title>
<path fill="none" stroke="midnightblue" d="M175.365,-322.696C187.938,-304.203 217.813,-263.982 253,-242.453 300.54,-213.366 362.244,-197.461 407.696,-189.07"/>
<polygon fill="midnightblue" stroke="midnightblue" points="408.481,-192.485 417.716,-187.292 407.259,-185.593 408.481,-192.485"/>
</g>
<!-- Node22 -->
<g id="node22" class="node"><title>Node22</title>
<g id="a_node22"><a xlink:href="si4735_8c.html#af6037be0045d62ab73bf8e6c3802bd8e" target="_top" xlink:title="si4735_configure_seeking">
<polygon fill="white" stroke="black" points="253,-284.953 253,-303.953 381,-303.953 381,-284.953 253,-284.953"/>
<text text-anchor="middle" x="317" y="-291.953" font-family="Helvetica,sans-Serif" font-size="10.00">si4735_configure_seeking</text>
</a>
</g>
</g>
<!-- Node13&#45;&gt;Node22 -->
<g id="edge34" class="edge"><title>Node13&#45;&gt;Node22</title>
<path fill="none" stroke="midnightblue" d="M202.357,-323.83C222.19,-318.703 247.65,-312.122 269.442,-306.488"/>
<polygon fill="midnightblue" stroke="midnightblue" points="270.358,-309.867 279.164,-303.975 268.606,-303.09 270.358,-309.867"/>
</g>
<!-- Node23 -->
<g id="node23" class="node"><title>Node23</title>
<g id="a_node23"><a xlink:href="external__interrupthandler_8h.html#a67fb5781413cf5c193be332cc6e52209" target="_top" xlink:title="ext_interrupt_disable">
<polygon fill="white" stroke="black" points="263.5,-56.9531 263.5,-75.9531 370.5,-75.9531 370.5,-56.9531 263.5,-56.9531"/>
<text text-anchor="middle" x="317" y="-63.9531" font-family="Helvetica,sans-Serif" font-size="10.00">ext_interrupt_disable</text>
</a>
</g>
</g>
<!-- Node13&#45;&gt;Node23 -->
<g id="edge36" class="edge"><title>Node13&#45;&gt;Node23</title>
<path fill="none" stroke="midnightblue" d="M169.285,-322.784C170.901,-286.132 181.646,-154.359 253,-85.4531 254.636,-83.8734 256.398,-82.4244 258.258,-81.0955"/>
<polygon fill="midnightblue" stroke="midnightblue" points="260.084,-84.0821 266.939,-76.004 256.542,-78.0439 260.084,-84.0821"/>
</g>
<!-- Node18&#45;&gt;Node3 -->
<g id="edge26" class="edge"><title>Node18&#45;&gt;Node3</title>
<path fill="none" stroke="midnightblue" d="M474.378,-342.112C481.936,-370.846 508.085,-456.69 561,-503.453 563.157,-505.36 565.523,-507.081 568.018,-508.635"/>
<polygon fill="midnightblue" stroke="midnightblue" points="566.4,-511.739 576.879,-513.298 569.659,-505.544 566.4,-511.739"/>
</g>
<!-- Node18&#45;&gt;Node17 -->
<g id="edge27" class="edge"><title>Node18&#45;&gt;Node17</title>
<path fill="none" stroke="midnightblue" d="M480.758,-322.945C503.837,-297.887 566.578,-229.769 596.161,-197.65"/>
<polygon fill="midnightblue" stroke="midnightblue" points="599.045,-199.684 603.246,-189.958 593.896,-194.942 599.045,-199.684"/>
</g>
<!-- Node19&#45;&gt;Node18 -->
<g id="edge29" class="edge"><title>Node19&#45;&gt;Node18</title>
<path fill="none" stroke="midnightblue" d="M371.162,-332.453C383.268,-332.453 396.226,-332.453 408.642,-332.453"/>
<polygon fill="midnightblue" stroke="midnightblue" points="408.914,-335.953 418.914,-332.453 408.914,-328.953 408.914,-335.953"/>
</g>
<!-- Node20&#45;&gt;Node3 -->
<g id="edge31" class="edge"><title>Node20&#45;&gt;Node3</title>
<path fill="none" stroke="midnightblue" d="M513.556,-189.988C517.925,-192.452 521.896,-195.553 525,-199.453 609.725,-305.908 476.936,-396.475 561,-503.453 562.916,-505.891 565.178,-508.016 567.667,-509.868"/>
<polygon fill="midnightblue" stroke="midnightblue" points="566.419,-513.19 576.826,-515.174 569.927,-507.133 566.419,-513.19"/>
</g>
<!-- Node20&#45;&gt;Node17 -->
<g id="edge32" class="edge"><title>Node20&#45;&gt;Node17</title>
<path fill="none" stroke="midnightblue" d="M524.131,-180.453C532.736,-180.453 541.727,-180.453 550.535,-180.453"/>
<polygon fill="midnightblue" stroke="midnightblue" points="550.757,-183.953 560.757,-180.453 550.757,-176.953 550.757,-183.953"/>
</g>
<!-- Node21 -->
<g id="node21" class="node"><title>Node21</title>
<g id="a_node21"><a xlink:href="i2c_8h.html#a6dd896b0c82d1aa91a1a8155b41c4566" target="_top" xlink:title="Receives I2C commands until a NACK is received or received RxBytes. ">
<polygon fill="white" stroke="black" points="586.5,-113.953 586.5,-132.953 639.5,-132.953 639.5,-113.953 586.5,-113.953"/>
<text text-anchor="middle" x="613" y="-120.953" font-family="Helvetica,sans-Serif" font-size="10.00">i2c_read</text>
</a>
</g>
</g>
<!-- Node20&#45;&gt;Node21 -->
<g id="edge33" class="edge"><title>Node20&#45;&gt;Node21</title>
<path fill="none" stroke="midnightblue" d="M495.433,-170.913C518.349,-161.583 553.45,-147.291 579.147,-136.829"/>
<polygon fill="midnightblue" stroke="midnightblue" points="580.549,-140.037 588.491,-133.025 577.909,-133.554 580.549,-140.037"/>
</g>
<!-- Node22&#45;&gt;Node18 -->
<g id="edge35" class="edge"><title>Node22&#45;&gt;Node18</title>
<path fill="none" stroke="midnightblue" d="M356.356,-304.042C376.324,-309.034 400.93,-315.185 422.133,-320.486"/>
<polygon fill="midnightblue" stroke="midnightblue" points="421.369,-323.903 431.92,-322.933 423.067,-317.112 421.369,-323.903"/>
</g>
<!-- Node24&#45;&gt;Node10 -->
<g id="edge43" class="edge"><title>Node24&#45;&gt;Node10</title>
<path fill="none" stroke="midnightblue" d="M186.537,-113.987C254.485,-151.03 497.979,-284.754 525,-313.453 568.267,-359.408 595.149,-431.022 606.196,-465.13"/>
<polygon fill="midnightblue" stroke="midnightblue" points="602.898,-466.31 609.227,-474.807 609.578,-464.218 602.898,-466.31"/>
</g>
<!-- Node24&#45;&gt;Node16 -->
<g id="edge38" class="edge"><title>Node24&#45;&gt;Node16</title>
<path fill="none" stroke="midnightblue" d="M204.585,-104.453C219.573,-104.453 237.457,-104.453 254.464,-104.453"/>
<polygon fill="midnightblue" stroke="midnightblue" points="254.906,-107.953 264.906,-104.453 254.906,-100.953 254.906,-107.953"/>
</g>
<!-- Node24&#45;&gt;Node23 -->
<g id="edge42" class="edge"><title>Node24&#45;&gt;Node23</title>
<path fill="none" stroke="midnightblue" d="M204.585,-95.2544C224.097,-90.2104 248.518,-83.8974 269.52,-78.4683"/>
<polygon fill="midnightblue" stroke="midnightblue" points="270.402,-81.8554 279.208,-75.964 268.65,-75.0782 270.402,-81.8554"/>
</g>
<!-- Node25 -->
<g id="node25" class="node"><title>Node25</title>
<g id="a_node25"><a xlink:href="si4735_8h.html#aadc29a91f13cd5ebe239b23c7e5370dc" target="_top" xlink:title="si4735_set_property">
<polygon fill="white" stroke="black" points="419,-208.953 419,-227.953 523,-227.953 523,-208.953 419,-208.953"/>
<text text-anchor="middle" x="471" y="-215.953" font-family="Helvetica,sans-Serif" font-size="10.00">si4735_set_property</text>
</a>
</g>
</g>
<!-- Node24&#45;&gt;Node25 -->
<g id="edge39" class="edge"><title>Node24&#45;&gt;Node25</title>
<path fill="none" stroke="midnightblue" d="M198.956,-94.9319C205.178,-92.3237 211.506,-89.1687 217,-85.4531 236.271,-72.4196 231.629,-56.6456 253,-47.4531 305.26,-24.9746 336.378,-12.1652 381,-47.4531 435.454,-90.5168 370.725,-147.7 417,-199.453 418.187,-200.781 419.474,-202.015 420.839,-203.164"/>
<polygon fill="midnightblue" stroke="midnightblue" points="419.122,-206.225 429.388,-208.844 422.996,-200.395 419.122,-206.225"/>
</g>
<!-- Node25&#45;&gt;Node3 -->
<g id="edge40" class="edge"><title>Node25&#45;&gt;Node3</title>
<path fill="none" stroke="midnightblue" d="M478.85,-228.202C490.226,-244.866 512.954,-280.254 525,-313.453 554.315,-394.246 505.585,-437.757 561,-503.453 562.97,-505.789 565.257,-507.838 567.749,-509.635"/>
<polygon fill="midnightblue" stroke="midnightblue" points="566.427,-512.911 576.847,-514.827 569.896,-506.831 566.427,-512.911"/>
</g>
<!-- Node25&#45;&gt;Node17 -->
<g id="edge41" class="edge"><title>Node25&#45;&gt;Node17</title>
<path fill="none" stroke="midnightblue" d="M507.328,-208.864C525.401,-203.959 547.598,-197.934 566.895,-192.696"/>
<polygon fill="midnightblue" stroke="midnightblue" points="567.949,-196.036 576.683,-190.039 566.116,-189.281 567.949,-196.036"/>
</g>
<!-- Node26&#45;&gt;Node16 -->
<g id="edge45" class="edge"><title>Node26&#45;&gt;Node16</title>
<path fill="none" stroke="midnightblue" d="M206.094,-76.0421C225.318,-81.0114 248.986,-87.1298 269.429,-92.4144"/>
<polygon fill="midnightblue" stroke="midnightblue" points="268.615,-95.8188 279.172,-94.933 270.367,-89.0416 268.615,-95.8188"/>
</g>
<!-- Node26&#45;&gt;Node23 -->
<g id="edge50" class="edge"><title>Node26&#45;&gt;Node23</title>
<path fill="none" stroke="midnightblue" d="M209.558,-66.4531C223.091,-66.4531 238.503,-66.4531 253.316,-66.4531"/>
<polygon fill="midnightblue" stroke="midnightblue" points="253.445,-69.9532 263.445,-66.4531 253.445,-62.9532 253.445,-69.9532"/>
</g>
<!-- Node27 -->
<g id="node27" class="node"><title>Node27</title>
<g id="a_node27"><a xlink:href="si4735_8h.html#af82ec28b536b1258ea4178108c61d5e9" target="_top" xlink:title="si4735_fm_tune_freq">
<polygon fill="white" stroke="black" points="418,-94.9531 418,-113.953 524,-113.953 524,-94.9531 418,-94.9531"/>
<text text-anchor="middle" x="471" y="-101.953" font-family="Helvetica,sans-Serif" font-size="10.00">si4735_fm_tune_freq</text>
</a>
</g>
</g>
<!-- Node26&#45;&gt;Node27 -->
<g id="edge46" class="edge"><title>Node26&#45;&gt;Node27</title>
<path fill="none" stroke="midnightblue" d="M179.976,-56.8124C195.15,-44.1935 223.965,-22.7127 253,-14.4531 307.718,1.11279 328.503,7.46406 381,-14.4531 415.777,-28.9723 443.901,-64.4296 458.678,-86.2551"/>
<polygon fill="midnightblue" stroke="midnightblue" points="455.777,-88.2136 464.175,-94.6735 461.638,-84.3867 455.777,-88.2136"/>
</g>
<!-- Node27&#45;&gt;Node3 -->
<g id="edge47" class="edge"><title>Node27&#45;&gt;Node3</title>
<path fill="none" stroke="midnightblue" d="M484.992,-114.186C497.582,-124.428 516.047,-141.774 525,-161.453 556.646,-231.013 514.174,-443.06 561,-503.453 562.9,-505.903 565.15,-508.037 567.631,-509.896"/>
<polygon fill="midnightblue" stroke="midnightblue" points="566.369,-513.212 576.772,-515.216 569.889,-507.161 566.369,-513.212"/>
</g>
<!-- Node27&#45;&gt;Node17 -->
<g id="edge48" class="edge"><title>Node27&#45;&gt;Node17</title>
<path fill="none" stroke="midnightblue" d="M494.707,-114.057C504.188,-118.241 515.244,-123.35 525,-128.453 546.97,-139.946 571.112,-154.541 588.379,-165.341"/>
<polygon fill="midnightblue" stroke="midnightblue" points="586.881,-168.534 597.207,-170.907 590.615,-162.613 586.881,-168.534"/>
</g>
<!-- Node27&#45;&gt;Node21 -->
<g id="edge49" class="edge"><title>Node27&#45;&gt;Node21</title>
<path fill="none" stroke="midnightblue" d="M524.131,-111.528C541.605,-113.899 560.67,-116.487 576.563,-118.644"/>
<polygon fill="midnightblue" stroke="midnightblue" points="576.12,-122.116 586.5,-119.992 577.061,-115.179 576.12,-122.116"/>
</g>
</g>
</svg>
