<?xml version="1.0" encoding="UTF-8" standalone="no"?>
<!DOCTYPE svg PUBLIC "-//W3C//DTD SVG 1.1//EN"
 "http://www.w3.org/Graphics/SVG/1.1/DTD/svg11.dtd">
<!-- Generated by graphviz version 2.38.0 (20140413.2041)
 -->
<!-- Title: radio_freq_to_string Pages: 1 -->
<svg width="658pt" height="28pt"
 viewBox="0.00 0.00 658.00 28.00" xmlns="http://www.w3.org/2000/svg" xmlns:xlink="http://www.w3.org/1999/xlink">
<g id="graph0" class="graph" transform="scale(1 1) rotate(0) translate(4 24)">
<title>radio_freq_to_string</title>
<polygon fill="white" stroke="none" points="-4,4 -4,-24 654,-24 654,4 -4,4"/>
<!-- Node1 -->
<g id="node1" class="node"><title>Node1</title>
<polygon fill="#bfbfbf" stroke="black" points="0,-0.5 0,-19.5 101,-19.5 101,-0.5 0,-0.5"/>
<text text-anchor="middle" x="50.5" y="-7.5" font-family="Helvetica,sans-Serif" font-size="10.00">radio_freq_to_string</text>
</g>
<!-- Node2 -->
<g id="node2" class="node"><title>Node2</title>
<g id="a_node2"><a xlink:href="radio_8c.html#aa568d26c43f1503a5f31c86aab080591" target="_top" xlink:title="radio_display_handler">
<polygon fill="white" stroke="black" points="137,-0.5 137,-19.5 247,-19.5 247,-0.5 137,-0.5"/>
<text text-anchor="middle" x="192" y="-7.5" font-family="Helvetica,sans-Serif" font-size="10.00">radio_display_handler</text>
</a>
</g>
</g>
<!-- Node1&#45;&gt;Node2 -->
<g id="edge1" class="edge"><title>Node1&#45;&gt;Node2</title>
<path fill="none" stroke="midnightblue" d="M111.295,-10C119.784,-10 128.474,-10 136.847,-10"/>
<polygon fill="midnightblue" stroke="midnightblue" points="111.075,-6.5001 101.075,-10 111.075,-13.5001 111.075,-6.5001"/>
</g>
<!-- Node3 -->
<g id="node3" class="node"><title>Node3</title>
<g id="a_node3"><a xlink:href="radio_8c.html#a5f7fcd9e9755fb5e22175a4ad74a5456" target="_top" xlink:title="radio_main">
<polygon fill="white" stroke="black" points="283,-0.5 283,-19.5 347,-19.5 347,-0.5 283,-0.5"/>
<text text-anchor="middle" x="315" y="-7.5" font-family="Helvetica,sans-Serif" font-size="10.00">radio_main</text>
</a>
</g>
</g>
<!-- Node2&#45;&gt;Node3 -->
<g id="edge2" class="edge"><title>Node2&#45;&gt;Node3</title>
<path fill="none" stroke="midnightblue" d="M257.181,-10C266.079,-10 274.871,-10 282.783,-10"/>
<polygon fill="midnightblue" stroke="midnightblue" points="257.13,-6.5001 247.13,-10 257.13,-13.5001 257.13,-6.5001"/>
</g>
<!-- Node4 -->
<g id="node4" class="node"><title>Node4</title>
<g id="a_node4"><a xlink:href="menu_2src_2menu_8c.html#a5d9c190838195d7872fc7067269e20fa" target="_top" xlink:title="menu_function">
<polygon fill="white" stroke="black" points="383,-0.5 383,-19.5 463,-19.5 463,-0.5 383,-0.5"/>
<text text-anchor="middle" x="423" y="-7.5" font-family="Helvetica,sans-Serif" font-size="10.00">menu_function</text>
</a>
</g>
</g>
<!-- Node3&#45;&gt;Node4 -->
<g id="edge3" class="edge"><title>Node3&#45;&gt;Node4</title>
<path fill="none" stroke="midnightblue" d="M357.472,-10C365.778,-10 374.48,-10 382.708,-10"/>
<polygon fill="midnightblue" stroke="midnightblue" points="357.23,-6.5001 347.23,-10 357.23,-13.5001 357.23,-6.5001"/>
</g>
<!-- Node5 -->
<g id="node5" class="node"><title>Node5</title>
<g id="a_node5"><a xlink:href="menu_2src_2menu_8c.html#aaf2a075d3159f7eeab42012941a3437f" target="_top" xlink:title="menu_handler">
<polygon fill="white" stroke="black" points="499,-0.5 499,-19.5 576,-19.5 576,-0.5 499,-0.5"/>
<text text-anchor="middle" x="537.5" y="-7.5" font-family="Helvetica,sans-Serif" font-size="10.00">menu_handler</text>
</a>
</g>
</g>
<!-- Node4&#45;&gt;Node5 -->
<g id="edge4" class="edge"><title>Node4&#45;&gt;Node5</title>
<path fill="none" stroke="midnightblue" d="M473.262,-10C481.783,-10 490.52,-10 498.676,-10"/>
<polygon fill="midnightblue" stroke="midnightblue" points="473.031,-6.5001 463.031,-10 473.031,-13.5001 473.031,-6.5001"/>
</g>
<!-- Node6 -->
<g id="node6" class="node"><title>Node6</title>
<g id="a_node6"><a xlink:href="main_8c.html#a840291bc02cba5474a4cb46a9b9566fe" target="_top" xlink:title="main">
<polygon fill="white" stroke="black" points="612,-0.5 612,-19.5 650,-19.5 650,-0.5 612,-0.5"/>
<text text-anchor="middle" x="631" y="-7.5" font-family="Helvetica,sans-Serif" font-size="10.00">main</text>
</a>
</g>
</g>
<!-- Node5&#45;&gt;Node6 -->
<g id="edge5" class="edge"><title>Node5&#45;&gt;Node6</title>
<path fill="none" stroke="midnightblue" d="M586.362,-10C595.347,-10 604.223,-10 611.601,-10"/>
<polygon fill="midnightblue" stroke="midnightblue" points="586.245,-6.5001 576.245,-10 586.245,-13.5001 586.245,-6.5001"/>
</g>
</g>
</svg>
