<?xml version="1.0" encoding="UTF-8" standalone="no"?>
<!DOCTYPE svg PUBLIC "-//W3C//DTD SVG 1.1//EN"
 "http://www.w3.org/Graphics/SVG/1.1/DTD/svg11.dtd">
<!-- Generated by graphviz version 2.38.0 (20140413.2041)
 -->
<!-- Title: D:/GIT/fhradiov2/radio/radio_settings.h Pages: 1 -->
<svg width="1944pt" height="587pt"
 viewBox="0.00 0.00 1944.08 587.00" xmlns="http://www.w3.org/2000/svg" xmlns:xlink="http://www.w3.org/1999/xlink">
<g id="graph0" class="graph" transform="scale(1 1) rotate(0) translate(4 583)">
<title>D:/GIT/fhradiov2/radio/radio_settings.h</title>
<polygon fill="white" stroke="none" points="-4,4 -4,-583 1940.08,-583 1940.08,4 -4,4"/>
<!-- Node1 -->
<g id="node1" class="node"><title>Node1</title>
<polygon fill="#bfbfbf" stroke="black" points="1245.5,-548.5 1245.5,-578.5 1354.5,-578.5 1354.5,-548.5 1245.5,-548.5"/>
<text text-anchor="start" x="1253.5" y="-566.5" font-family="Helvetica,sans-Serif" font-size="10.00">D:/GIT/fhradiov2/radio</text>
<text text-anchor="middle" x="1300" y="-555.5" font-family="Helvetica,sans-Serif" font-size="10.00">/radio_settings.h</text>
</g>
<!-- Node2 -->
<g id="node2" class="node"><title>Node2</title>
<g id="a_node2"><a xlink:href="radio_8h.html" target="_top" xlink:title="radio/radio.h">
<polygon fill="white" stroke="black" points="1265,-492.5 1265,-511.5 1335,-511.5 1335,-492.5 1265,-492.5"/>
<text text-anchor="middle" x="1300" y="-499.5" font-family="Helvetica,sans-Serif" font-size="10.00">radio/radio.h</text>
</a>
</g>
</g>
<!-- Node1&#45;&gt;Node2 -->
<g id="edge1" class="edge"><title>Node1&#45;&gt;Node2</title>
<path fill="none" stroke="midnightblue" d="M1294.16,-548.399C1293.13,-540.377 1292.97,-530.233 1293.69,-521.569"/>
<polygon fill="midnightblue" stroke="midnightblue" points="1297.16,-522.044 1295.07,-511.658 1290.23,-521.081 1297.16,-522.044"/>
</g>
<!-- Node27 -->
<g id="node27" class="node"><title>Node27</title>
<g id="a_node27"><a xlink:href="station__list_8h.html" target="_top" xlink:title="system/station_list.h">
<polygon fill="white" stroke="black" points="1804.5,-436.5 1804.5,-455.5 1911.5,-455.5 1911.5,-436.5 1804.5,-436.5"/>
<text text-anchor="middle" x="1858" y="-443.5" font-family="Helvetica,sans-Serif" font-size="10.00">system/station_list.h</text>
</a>
</g>
</g>
<!-- Node1&#45;&gt;Node27 -->
<g id="edge83" class="edge"><title>Node1&#45;&gt;Node27</title>
<path fill="none" stroke="midnightblue" d="M1354.52,-551.215C1462.4,-528.884 1701.74,-479.344 1806.84,-457.59"/>
<polygon fill="midnightblue" stroke="midnightblue" points="1807.79,-460.966 1816.88,-455.512 1806.38,-454.112 1807.79,-460.966"/>
</g>
<!-- Node2&#45;&gt;Node1 -->
<g id="edge75" class="edge"><title>Node2&#45;&gt;Node1</title>
<path fill="none" stroke="midnightblue" d="M1304.93,-511.658C1306.43,-518.655 1307.01,-528.857 1306.64,-538.289"/>
<polygon fill="midnightblue" stroke="midnightblue" points="1303.14,-538.153 1305.84,-548.399 1310.12,-538.709 1303.14,-538.153"/>
</g>
<!-- Node3 -->
<g id="node3" class="node"><title>Node3</title>
<polygon fill="white" stroke="#bfbfbf" points="1132.5,-0.5 1132.5,-19.5 1181.5,-19.5 1181.5,-0.5 1132.5,-0.5"/>
<text text-anchor="middle" x="1157" y="-7.5" font-family="Helvetica,sans-Serif" font-size="10.00">stdint.h</text>
</g>
<!-- Node2&#45;&gt;Node3 -->
<g id="edge2" class="edge"><title>Node2&#45;&gt;Node3</title>
<path fill="none" stroke="midnightblue" d="M1335.07,-496.056C1383.22,-488.94 1472.35,-474.596 1547,-456 1566.91,-451.04 1709.07,-415.073 1723,-400 1748.24,-372.682 1742,-355.694 1742,-318.5 1742,-318.5 1742,-318.5 1742,-132 1742,-19.0059 1318.17,-10.7028 1192.02,-10.7342"/>
<polygon fill="midnightblue" stroke="midnightblue" points="1191.76,-7.23465 1181.76,-10.7558 1191.77,-14.2346 1191.76,-7.23465"/>
</g>
<!-- Node4 -->
<g id="node4" class="node"><title>Node4</title>
<g id="a_node4"><a xlink:href="pca9530_8h.html" target="_top" xlink:title="driver/pca9530.h">
<polygon fill="white" stroke="black" points="816.5,-308 816.5,-327 903.5,-327 903.5,-308 816.5,-308"/>
<text text-anchor="middle" x="860" y="-315" font-family="Helvetica,sans-Serif" font-size="10.00">driver/pca9530.h</text>
</a>
</g>
</g>
<!-- Node2&#45;&gt;Node4 -->
<g id="edge3" class="edge"><title>Node2&#45;&gt;Node4</title>
<path fill="none" stroke="midnightblue" d="M1279.37,-492.442C1208.35,-462.985 973.765,-365.687 890.03,-330.956"/>
<polygon fill="midnightblue" stroke="midnightblue" points="891.165,-327.637 880.587,-327.039 888.483,-334.103 891.165,-327.637"/>
</g>
<!-- Node9 -->
<g id="node9" class="node"><title>Node9</title>
<g id="a_node9"><a xlink:href="timer_8h.html" target="_top" xlink:title="driver/timer.h">
<polygon fill="white" stroke="black" points="452,-179.5 452,-198.5 524,-198.5 524,-179.5 452,-179.5"/>
<text text-anchor="middle" x="488" y="-186.5" font-family="Helvetica,sans-Serif" font-size="10.00">driver/timer.h</text>
</a>
</g>
</g>
<!-- Node2&#45;&gt;Node9 -->
<g id="edge48" class="edge"><title>Node2&#45;&gt;Node9</title>
<path fill="none" stroke="midnightblue" d="M1264.65,-500.548C1121.61,-498.505 590.179,-488.755 523,-456 485.494,-437.713 461,-427.226 461,-385.5 461,-385.5 461,-385.5 461,-316.5 461,-277.357 473.517,-232.873 481.506,-208.467"/>
<polygon fill="midnightblue" stroke="midnightblue" points="484.902,-209.352 484.797,-198.758 478.272,-207.105 484.902,-209.352"/>
</g>
<!-- Node10 -->
<g id="node10" class="node"><title>Node10</title>
<g id="a_node10"><a xlink:href="radio__configuration_8h.html" target="_top" xlink:title="settings/radio_configuration.h">
<polygon fill="white" stroke="black" points="422.5,-123.5 422.5,-142.5 565.5,-142.5 565.5,-123.5 422.5,-123.5"/>
<text text-anchor="middle" x="494" y="-130.5" font-family="Helvetica,sans-Serif" font-size="10.00">settings/radio_configuration.h</text>
</a>
</g>
</g>
<!-- Node2&#45;&gt;Node10 -->
<g id="edge65" class="edge"><title>Node2&#45;&gt;Node10</title>
<path fill="none" stroke="midnightblue" d="M1264.9,-500.188C1192.52,-497.867 1021.84,-489.042 883,-456 731.944,-420.051 653.592,-453.773 556,-333 512.505,-279.173 561.923,-241.87 533,-179 527.945,-168.011 519.364,-157.667 511.536,-149.674"/>
<polygon fill="midnightblue" stroke="midnightblue" points="513.748,-146.945 504.118,-142.528 508.892,-151.987 513.748,-146.945"/>
</g>
<!-- Node11 -->
<g id="node11" class="node"><title>Node11</title>
<g id="a_node11"><a xlink:href="si4735__cmd__prop_8h.html" target="_top" xlink:title="driver/include/si4735\l_cmd_prop.h">
<polygon fill="white" stroke="black" points="391,-56.5 391,-86.5 495,-86.5 495,-56.5 391,-56.5"/>
<text text-anchor="start" x="399" y="-74.5" font-family="Helvetica,sans-Serif" font-size="10.00">driver/include/si4735</text>
<text text-anchor="middle" x="443" y="-63.5" font-family="Helvetica,sans-Serif" font-size="10.00">_cmd_prop.h</text>
</a>
</g>
</g>
<!-- Node2&#45;&gt;Node11 -->
<g id="edge24" class="edge"><title>Node2&#45;&gt;Node11</title>
<path fill="none" stroke="midnightblue" d="M1264.53,-500.836C1117.82,-499.916 558.016,-493.938 386,-456 304.518,-438.029 212,-468.94 212,-385.5 212,-385.5 212,-385.5 212,-249.5 212,-163.543 314.025,-113.661 382.468,-89.8698"/>
<polygon fill="midnightblue" stroke="midnightblue" points="383.951,-93.0631 392.306,-86.5477 381.712,-86.431 383.951,-93.0631"/>
</g>
<!-- Node13 -->
<g id="node13" class="node"><title>Node13</title>
<g id="a_node13"><a xlink:href="log__exp__table_8h.html" target="_top" xlink:title="libs/log_exp_table.h">
<polygon fill="white" stroke="black" points="1242.5,-241 1242.5,-260 1345.5,-260 1345.5,-241 1242.5,-241"/>
<text text-anchor="middle" x="1294" y="-248" font-family="Helvetica,sans-Serif" font-size="10.00">libs/log_exp_table.h</text>
</a>
</g>
</g>
<!-- Node2&#45;&gt;Node13 -->
<g id="edge17" class="edge"><title>Node2&#45;&gt;Node13</title>
<path fill="none" stroke="midnightblue" d="M1296.66,-492.197C1293.45,-483.24 1288.82,-468.883 1287,-456 1277.39,-388.079 1286.26,-306.269 1291.2,-270.168"/>
<polygon fill="midnightblue" stroke="midnightblue" points="1294.68,-270.524 1292.64,-260.129 1287.75,-269.532 1294.68,-270.524"/>
</g>
<!-- Node14 -->
<g id="node14" class="node"><title>Node14</title>
<g id="a_node14"><a xlink:href="si4735_8h.html" target="_top" xlink:title="driver/si4735.h">
<polygon fill="white" stroke="black" points="240.5,-308 240.5,-327 319.5,-327 319.5,-308 240.5,-308"/>
<text text-anchor="middle" x="280" y="-315" font-family="Helvetica,sans-Serif" font-size="10.00">driver/si4735.h</text>
</a>
</g>
</g>
<!-- Node2&#45;&gt;Node14 -->
<g id="edge19" class="edge"><title>Node2&#45;&gt;Node14</title>
<path fill="none" stroke="midnightblue" d="M1264.96,-500.645C1111.31,-498.892 501.175,-489.841 423,-456 362.562,-429.837 312.628,-366.043 291.226,-335.432"/>
<polygon fill="midnightblue" stroke="midnightblue" points="294.05,-333.361 285.52,-327.076 288.269,-337.308 294.05,-333.361"/>
</g>
<!-- Node16 -->
<g id="node16" class="node"><title>Node16</title>
<g id="a_node16"><a xlink:href="external__interrupthandler_8h.html" target="_top" xlink:title="driver/external_interrupthandler.h">
<polygon fill="white" stroke="black" points="960.5,-308 960.5,-327 1117.5,-327 1117.5,-308 960.5,-308"/>
<text text-anchor="middle" x="1039" y="-315" font-family="Helvetica,sans-Serif" font-size="10.00">driver/external_interrupthandler.h</text>
</a>
</g>
</g>
<!-- Node2&#45;&gt;Node16 -->
<g id="edge25" class="edge"><title>Node2&#45;&gt;Node16</title>
<path fill="none" stroke="midnightblue" d="M1286.08,-492.436C1258.64,-475.452 1195.84,-436.026 1145,-400 1113.68,-377.804 1078.59,-350.274 1057.67,-333.565"/>
<polygon fill="midnightblue" stroke="midnightblue" points="1059.62,-330.639 1049.63,-327.113 1055.24,-336.1 1059.62,-330.639"/>
</g>
<!-- Node17 -->
<g id="node17" class="node"><title>Node17</title>
<g id="a_node17"><a xlink:href="tpa2016d2_8h.html" target="_top" xlink:title="driver/tpa2016d2.h">
<polygon fill="white" stroke="black" points="337.5,-308 337.5,-327 432.5,-327 432.5,-308 337.5,-308"/>
<text text-anchor="middle" x="385" y="-315" font-family="Helvetica,sans-Serif" font-size="10.00">driver/tpa2016d2.h</text>
</a>
</g>
</g>
<!-- Node2&#45;&gt;Node17 -->
<g id="edge29" class="edge"><title>Node2&#45;&gt;Node17</title>
<path fill="none" stroke="midnightblue" d="M1264.79,-501.275C1112.52,-502.18 515.275,-502.704 447,-456 406.754,-428.469 392.253,-368.24 387.338,-337.447"/>
<polygon fill="midnightblue" stroke="midnightblue" points="390.757,-336.627 385.89,-327.216 383.826,-337.608 390.757,-336.627"/>
</g>
<!-- Node18 -->
<g id="node18" class="node"><title>Node18</title>
<g id="a_node18"><a xlink:href="lcd_8h.html" target="_top" xlink:title="driver/lcd.h">
<polygon fill="white" stroke="black" points="756.5,-375 756.5,-394 819.5,-394 819.5,-375 756.5,-375"/>
<text text-anchor="middle" x="788" y="-382" font-family="Helvetica,sans-Serif" font-size="10.00">driver/lcd.h</text>
</a>
</g>
</g>
<!-- Node2&#45;&gt;Node18 -->
<g id="edge35" class="edge"><title>Node2&#45;&gt;Node18</title>
<path fill="none" stroke="midnightblue" d="M1264.83,-500.286C1199.27,-498.159 1054.5,-489.693 938,-456 890.814,-442.354 839.861,-415.56 811.145,-399.22"/>
<polygon fill="midnightblue" stroke="midnightblue" points="812.708,-396.08 802.297,-394.113 809.209,-402.143 812.708,-396.08"/>
</g>
<!-- Node21 -->
<g id="node21" class="node"><title>Node21</title>
<g id="a_node21"><a xlink:href="flash_8h.html" target="_top" xlink:title="driver/flash.h">
<polygon fill="white" stroke="black" points="1296.5,-436.5 1296.5,-455.5 1367.5,-455.5 1367.5,-436.5 1296.5,-436.5"/>
<text text-anchor="middle" x="1332" y="-443.5" font-family="Helvetica,sans-Serif" font-size="10.00">driver/flash.h</text>
</a>
</g>
</g>
<!-- Node2&#45;&gt;Node21 -->
<g id="edge43" class="edge"><title>Node2&#45;&gt;Node21</title>
<path fill="none" stroke="midnightblue" d="M1305.28,-492.083C1309.71,-484.613 1316.16,-473.724 1321.62,-464.52"/>
<polygon fill="midnightblue" stroke="midnightblue" points="1324.73,-466.138 1326.81,-455.751 1318.71,-462.57 1324.73,-466.138"/>
</g>
<!-- Node22 -->
<g id="node22" class="node"><title>Node22</title>
<g id="a_node22"><a xlink:href="string_8h.html" target="_top" xlink:title="string.h">
<polygon fill="white" stroke="black" points="1372.5,-375 1372.5,-394 1421.5,-394 1421.5,-375 1372.5,-375"/>
<text text-anchor="middle" x="1397" y="-382" font-family="Helvetica,sans-Serif" font-size="10.00">string.h</text>
</a>
</g>
</g>
<!-- Node2&#45;&gt;Node22 -->
<g id="edge76" class="edge"><title>Node2&#45;&gt;Node22</title>
<path fill="none" stroke="midnightblue" d="M1323.82,-492.387C1340.68,-485.132 1362.6,-473.163 1376,-456 1387.65,-441.079 1392.85,-419.803 1395.16,-404.533"/>
<polygon fill="midnightblue" stroke="midnightblue" points="1398.68,-404.583 1396.43,-394.231 1391.73,-403.73 1398.68,-404.583"/>
</g>
<!-- Node23 -->
<g id="node23" class="node"><title>Node23</title>
<g id="a_node23"><a xlink:href="encoder_8h.html" target="_top" xlink:title="driver/encoder.h">
<polygon fill="white" stroke="black" points="1154.5,-375 1154.5,-394 1239.5,-394 1239.5,-375 1154.5,-375"/>
<text text-anchor="middle" x="1197" y="-382" font-family="Helvetica,sans-Serif" font-size="10.00">driver/encoder.h</text>
</a>
</g>
</g>
<!-- Node2&#45;&gt;Node23 -->
<g id="edge49" class="edge"><title>Node2&#45;&gt;Node23</title>
<path fill="none" stroke="midnightblue" d="M1290.52,-492.34C1280.99,-483.495 1266.03,-469.223 1254,-456 1237.86,-438.259 1220.74,-416.661 1209.52,-402.082"/>
<polygon fill="midnightblue" stroke="midnightblue" points="1212.21,-399.837 1203.37,-394.009 1206.65,-404.083 1212.21,-399.837"/>
</g>
<!-- Node24 -->
<g id="node24" class="node"><title>Node24</title>
<g id="a_node24"><a xlink:href="language_8h.html" target="_top" xlink:title="menu/lang/language.h">
<polygon fill="white" stroke="black" points="1602,-375 1602,-394 1714,-394 1714,-375 1602,-375"/>
<text text-anchor="middle" x="1658" y="-382" font-family="Helvetica,sans-Serif" font-size="10.00">menu/lang/language.h</text>
</a>
</g>
</g>
<!-- Node2&#45;&gt;Node24 -->
<g id="edge55" class="edge"><title>Node2&#45;&gt;Node24</title>
<path fill="none" stroke="midnightblue" d="M1335.05,-495.98C1377.11,-489.384 1449.42,-476.208 1509,-456 1554.78,-440.474 1605.01,-414.745 1633.89,-399.036"/>
<polygon fill="midnightblue" stroke="midnightblue" points="1635.75,-402.007 1642.83,-394.122 1632.38,-395.873 1635.75,-402.007"/>
</g>
<!-- Node25 -->
<g id="node25" class="node"><title>Node25</title>
<g id="a_node25"><a xlink:href="menu_8h.html" target="_top" xlink:title="menu/menu.h">
<polygon fill="white" stroke="black" points="1424,-436.5 1424,-455.5 1500,-455.5 1500,-436.5 1424,-436.5"/>
<text text-anchor="middle" x="1462" y="-443.5" font-family="Helvetica,sans-Serif" font-size="10.00">menu/menu.h</text>
</a>
</g>
</g>
<!-- Node2&#45;&gt;Node25 -->
<g id="edge56" class="edge"><title>Node2&#45;&gt;Node25</title>
<path fill="none" stroke="midnightblue" d="M1320.58,-492.444C1346.06,-483.28 1389.65,-468.688 1421.8,-458.519"/>
<polygon fill="midnightblue" stroke="midnightblue" points="1422.88,-461.848 1431.37,-455.516 1420.78,-455.169 1422.88,-461.848"/>
</g>
<!-- Node2&#45;&gt;Node27 -->
<g id="edge66" class="edge"><title>Node2&#45;&gt;Node27</title>
<path fill="none" stroke="midnightblue" d="M1335.14,-497.867C1414.76,-491.202 1614.18,-474.692 1781,-456 1785.19,-455.53 1789.53,-455.018 1793.91,-454.484"/>
<polygon fill="midnightblue" stroke="midnightblue" points="1794.68,-457.915 1804.17,-453.209 1793.82,-450.969 1794.68,-457.915"/>
</g>
<!-- Node29 -->
<g id="node29" class="node"><title>Node29</title>
<g id="a_node29"><a xlink:href="radio__display_8h.html" target="_top" xlink:title="radio/radio_display.h">
<polygon fill="white" stroke="black" points="1642,-436.5 1642,-455.5 1748,-455.5 1748,-436.5 1642,-436.5"/>
<text text-anchor="middle" x="1695" y="-443.5" font-family="Helvetica,sans-Serif" font-size="10.00">radio/radio_display.h</text>
</a>
</g>
</g>
<!-- Node2&#45;&gt;Node29 -->
<g id="edge72" class="edge"><title>Node2&#45;&gt;Node29</title>
<path fill="none" stroke="midnightblue" d="M1335.07,-495.625C1401.84,-486.076 1547.63,-466.112 1631.79,-454.964"/>
<polygon fill="midnightblue" stroke="midnightblue" points="1632.29,-458.429 1641.74,-453.649 1631.37,-451.489 1632.29,-458.429"/>
</g>
<!-- Node30 -->
<g id="node30" class="node"><title>Node30</title>
<g id="a_node30"><a xlink:href="opt3001_8h.html" target="_top" xlink:title="driver/opt3001.h">
<polygon fill="white" stroke="black" points="22.5,-308 22.5,-327 107.5,-327 107.5,-308 22.5,-308"/>
<text text-anchor="middle" x="65" y="-315" font-family="Helvetica,sans-Serif" font-size="10.00">driver/opt3001.h</text>
</a>
</g>
</g>
<!-- Node2&#45;&gt;Node30 -->
<g id="edge77" class="edge"><title>Node2&#45;&gt;Node30</title>
<path fill="none" stroke="midnightblue" d="M1264.75,-500.718C1073.78,-499.057 170.06,-489.447 122,-456 82.5038,-428.513 70.3074,-368.263 66.5929,-337.456"/>
<polygon fill="midnightblue" stroke="midnightblue" points="70.0454,-336.812 65.5453,-327.221 63.0817,-337.525 70.0454,-336.812"/>
</g>
<!-- Node31 -->
<g id="node31" class="node"><title>Node31</title>
<g id="a_node31"><a xlink:href="system_2time_8h.html" target="_top" xlink:title="system/time.h">
<polygon fill="white" stroke="black" points="66.5,-179.5 66.5,-198.5 145.5,-198.5 145.5,-179.5 66.5,-179.5"/>
<text text-anchor="middle" x="106" y="-186.5" font-family="Helvetica,sans-Serif" font-size="10.00">system/time.h</text>
</a>
</g>
</g>
<!-- Node2&#45;&gt;Node31 -->
<g id="edge80" class="edge"><title>Node2&#45;&gt;Node31</title>
<path fill="none" stroke="midnightblue" d="M1264.85,-501.198C1087.56,-501.982 296.129,-502.815 198,-456 160.34,-438.033 136,-427.226 136,-385.5 136,-385.5 136,-385.5 136,-316.5 136,-277.158 122.092,-232.745 113.216,-208.406"/>
<polygon fill="midnightblue" stroke="midnightblue" points="116.367,-206.844 109.559,-198.726 109.819,-209.317 116.367,-206.844"/>
</g>
<!-- Node4&#45;&gt;Node3 -->
<g id="edge4" class="edge"><title>Node4&#45;&gt;Node3</title>
<path fill="none" stroke="midnightblue" d="M868.568,-307.686C909.815,-265.26 1088.12,-81.8519 1141.71,-26.7277"/>
<polygon fill="midnightblue" stroke="midnightblue" points="1144.22,-29.1674 1148.68,-19.5575 1139.2,-24.2879 1144.22,-29.1674"/>
</g>
<!-- Node5 -->
<g id="node5" class="node"><title>Node5</title>
<g id="a_node5"><a xlink:href="i2c_8h.html" target="_top" xlink:title="I2C implemtation for MSP430G2553, interrupt based. &#160;&#160;This implemtation based on examples from Texas I...">
<polygon fill="white" stroke="black" points="255.5,-241 255.5,-260 318.5,-260 318.5,-241 255.5,-241"/>
<text text-anchor="middle" x="287" y="-248" font-family="Helvetica,sans-Serif" font-size="10.00">driver/i2c.h</text>
</a>
</g>
</g>
<!-- Node4&#45;&gt;Node5 -->
<g id="edge5" class="edge"><title>Node4&#45;&gt;Node5</title>
<path fill="none" stroke="midnightblue" d="M816.079,-309.104C800.876,-306.67 783.711,-304.061 768,-302 605.929,-280.735 412.199,-262.609 328.682,-255.145"/>
<polygon fill="midnightblue" stroke="midnightblue" points="328.853,-251.646 318.582,-254.246 328.232,-258.618 328.853,-251.646"/>
</g>
<!-- Node5&#45;&gt;Node3 -->
<g id="edge6" class="edge"><title>Node5&#45;&gt;Node3</title>
<path fill="none" stroke="midnightblue" d="M281.455,-240.673C273.711,-227.18 261.411,-200.702 269,-179 292.071,-113.021 304.921,-88.1199 367,-56 434.7,-20.9722 978.813,-12.8568 1122.37,-11.3175"/>
<polygon fill="midnightblue" stroke="midnightblue" points="1122.42,-14.8173 1132.39,-11.214 1122.35,-7.81769 1122.42,-14.8173"/>
</g>
<!-- Node6 -->
<g id="node6" class="node"><title>Node6</title>
<polygon fill="white" stroke="#bfbfbf" points="589.5,-123.5 589.5,-142.5 648.5,-142.5 648.5,-123.5 589.5,-123.5"/>
<text text-anchor="middle" x="619" y="-130.5" font-family="Helvetica,sans-Serif" font-size="10.00">msp430.h</text>
</g>
<!-- Node5&#45;&gt;Node6 -->
<g id="edge7" class="edge"><title>Node5&#45;&gt;Node6</title>
<path fill="none" stroke="midnightblue" d="M308.547,-240.886C332.38,-231.217 371.804,-214.808 405,-199 422.231,-190.794 425.188,-185.855 443,-179 467.713,-169.489 535.73,-153.094 579.609,-142.938"/>
<polygon fill="midnightblue" stroke="midnightblue" points="580.433,-146.34 589.392,-140.684 578.861,-139.518 580.433,-146.34"/>
</g>
<!-- Node7 -->
<g id="node7" class="node"><title>Node7</title>
<polygon fill="white" stroke="#bfbfbf" points="278,-179.5 278,-198.5 326,-198.5 326,-179.5 278,-179.5"/>
<text text-anchor="middle" x="302" y="-186.5" font-family="Helvetica,sans-Serif" font-size="10.00">stdlib.h</text>
</g>
<!-- Node5&#45;&gt;Node7 -->
<g id="edge8" class="edge"><title>Node5&#45;&gt;Node7</title>
<path fill="none" stroke="midnightblue" d="M289.149,-240.975C291.288,-232.492 294.638,-219.204 297.381,-208.322"/>
<polygon fill="midnightblue" stroke="midnightblue" points="300.804,-209.061 299.855,-198.509 294.016,-207.35 300.804,-209.061"/>
</g>
<!-- Node8 -->
<g id="node8" class="node"><title>Node8</title>
<polygon fill="white" stroke="#bfbfbf" points="344,-179.5 344,-198.5 396,-198.5 396,-179.5 344,-179.5"/>
<text text-anchor="middle" x="370" y="-186.5" font-family="Helvetica,sans-Serif" font-size="10.00">stdarg.h</text>
</g>
<!-- Node5&#45;&gt;Node8 -->
<g id="edge9" class="edge"><title>Node5&#45;&gt;Node8</title>
<path fill="none" stroke="midnightblue" d="M298.892,-240.975C312.205,-231.431 334,-215.807 349.957,-204.368"/>
<polygon fill="midnightblue" stroke="midnightblue" points="352.042,-207.18 358.13,-198.509 347.964,-201.491 352.042,-207.18"/>
</g>
<!-- Node5&#45;&gt;Node9 -->
<g id="edge10" class="edge"><title>Node5&#45;&gt;Node9</title>
<path fill="none" stroke="midnightblue" d="M313.725,-240.963C320.037,-238.978 326.749,-236.892 333,-235 372.083,-223.169 416.897,-210.225 448.253,-201.27"/>
<polygon fill="midnightblue" stroke="midnightblue" points="449.279,-204.617 457.936,-198.509 447.36,-197.885 449.279,-204.617"/>
</g>
<!-- Node9&#45;&gt;Node3 -->
<g id="edge12" class="edge"><title>Node9&#45;&gt;Node3</title>
<path fill="none" stroke="midnightblue" d="M467.553,-179.362C451.24,-171.68 428.612,-159.166 413,-143 384.485,-113.474 353.828,-85.8547 382,-56 407.718,-28.7453 973.834,-14.8798 1121.85,-11.7124"/>
<polygon fill="midnightblue" stroke="midnightblue" points="1122.24,-15.205 1132.16,-11.4946 1122.09,-8.20661 1122.24,-15.205"/>
</g>
<!-- Node9&#45;&gt;Node6 -->
<g id="edge11" class="edge"><title>Node9&#45;&gt;Node6</title>
<path fill="none" stroke="midnightblue" d="M508.757,-179.444C530.316,-170.557 564.263,-156.563 588.794,-146.451"/>
<polygon fill="midnightblue" stroke="midnightblue" points="590.428,-149.563 598.34,-142.516 587.761,-143.092 590.428,-149.563"/>
</g>
<!-- Node9&#45;&gt;Node10 -->
<g id="edge13" class="edge"><title>Node9&#45;&gt;Node10</title>
<path fill="none" stroke="midnightblue" d="M488.991,-179.083C489.786,-171.927 490.929,-161.635 491.923,-152.691"/>
<polygon fill="midnightblue" stroke="midnightblue" points="495.402,-153.076 493.028,-142.751 488.445,-152.303 495.402,-153.076"/>
</g>
<!-- Node10&#45;&gt;Node11 -->
<g id="edge14" class="edge"><title>Node10&#45;&gt;Node11</title>
<path fill="none" stroke="midnightblue" d="M486.693,-123.475C480.173,-115.869 470.342,-104.399 461.656,-94.2649"/>
<polygon fill="midnightblue" stroke="midnightblue" points="464.185,-91.8378 455.02,-86.523 458.87,-96.3933 464.185,-91.8378"/>
</g>
<!-- Node12 -->
<g id="node12" class="node"><title>Node12</title>
<g id="a_node12"><a xlink:href="libs_2time_8h.html" target="_top" xlink:title="libs/time.h">
<polygon fill="white" stroke="black" points="513,-62 513,-81 575,-81 575,-62 513,-62"/>
<text text-anchor="middle" x="544" y="-69" font-family="Helvetica,sans-Serif" font-size="10.00">libs/time.h</text>
</a>
</g>
</g>
<!-- Node10&#45;&gt;Node12 -->
<g id="edge16" class="edge"><title>Node10&#45;&gt;Node12</title>
<path fill="none" stroke="midnightblue" d="M501.164,-123.475C508.738,-114.462 520.87,-100.025 530.293,-88.8118"/>
<polygon fill="midnightblue" stroke="midnightblue" points="533.096,-90.9166 536.85,-81.0091 527.737,-86.4132 533.096,-90.9166"/>
</g>
<!-- Node11&#45;&gt;Node3 -->
<g id="edge15" class="edge"><title>Node11&#45;&gt;Node3</title>
<path fill="none" stroke="midnightblue" d="M495.133,-57.5118C498.123,-56.9527 501.094,-56.4424 504,-56 738.162,-20.349 1023.91,-12.9206 1122,-11.391"/>
<polygon fill="midnightblue" stroke="midnightblue" points="1122.28,-14.8874 1132.23,-11.2426 1122.18,-7.88809 1122.28,-14.8874"/>
</g>
<!-- Node13&#45;&gt;Node3 -->
<g id="edge18" class="edge"><title>Node13&#45;&gt;Node3</title>
<path fill="none" stroke="midnightblue" d="M1293.1,-240.813C1289.68,-211.683 1275.23,-115.943 1228,-56 1217.18,-42.271 1200.95,-31.5387 1186.73,-24.004"/>
<polygon fill="midnightblue" stroke="midnightblue" points="1188.27,-20.8587 1177.76,-19.515 1185.13,-27.1191 1188.27,-20.8587"/>
</g>
<!-- Node14&#45;&gt;Node3 -->
<g id="edge20" class="edge"><title>Node14&#45;&gt;Node3</title>
<path fill="none" stroke="midnightblue" d="M240.31,-313.601C171.655,-306.195 38,-280.193 38,-190 38,-190 38,-190 38,-132 38,-78.9638 80.4978,-75.0361 130,-56 224.179,-19.7835 953.426,-12.4365 1122.21,-11.2156"/>
<polygon fill="midnightblue" stroke="midnightblue" points="1122.31,-14.7151 1132.28,-11.1453 1122.26,-7.71525 1122.31,-14.7151"/>
</g>
<!-- Node14&#45;&gt;Node5 -->
<g id="edge21" class="edge"><title>Node14&#45;&gt;Node5</title>
<path fill="none" stroke="midnightblue" d="M280.944,-307.734C281.973,-298.183 283.649,-282.618 284.977,-270.283"/>
<polygon fill="midnightblue" stroke="midnightblue" points="288.48,-270.445 286.071,-260.127 281.52,-269.695 288.48,-270.445"/>
</g>
<!-- Node14&#45;&gt;Node9 -->
<g id="edge22" class="edge"><title>Node14&#45;&gt;Node9</title>
<path fill="none" stroke="midnightblue" d="M290.116,-307.875C308.925,-292.102 350.925,-258.108 390,-235 411.368,-222.363 436.892,-210.745 456.534,-202.479"/>
<polygon fill="midnightblue" stroke="midnightblue" points="458.036,-205.646 465.938,-198.589 455.359,-199.178 458.036,-205.646"/>
</g>
<!-- Node15 -->
<g id="node15" class="node"><title>Node15</title>
<g id="a_node15"><a xlink:href="radio__pin__mapping_8h.html" target="_top" xlink:title="settings/radio_pin\l_mapping.h">
<polygon fill="white" stroke="black" points="741.5,-235.5 741.5,-265.5 834.5,-265.5 834.5,-235.5 741.5,-235.5"/>
<text text-anchor="start" x="749.5" y="-253.5" font-family="Helvetica,sans-Serif" font-size="10.00">settings/radio_pin</text>
<text text-anchor="middle" x="788" y="-242.5" font-family="Helvetica,sans-Serif" font-size="10.00">_mapping.h</text>
</a>
</g>
</g>
<!-- Node14&#45;&gt;Node15 -->
<g id="edge23" class="edge"><title>Node14&#45;&gt;Node15</title>
<path fill="none" stroke="midnightblue" d="M305.186,-307.942C312.477,-305.724 320.494,-303.532 328,-302 471.343,-272.741 643.509,-259.555 730.966,-254.381"/>
<polygon fill="midnightblue" stroke="midnightblue" points="731.422,-257.86 741.204,-253.789 731.018,-250.872 731.422,-257.86"/>
</g>
<!-- Node16&#45;&gt;Node3 -->
<g id="edge27" class="edge"><title>Node16&#45;&gt;Node3</title>
<path fill="none" stroke="midnightblue" d="M1052.77,-307.918C1079.97,-289.774 1138,-244.66 1138,-190 1138,-190 1138,-190 1138,-132 1138,-95.2858 1146.64,-53.0556 1152.27,-29.4499"/>
<polygon fill="midnightblue" stroke="midnightblue" points="1155.67,-30.2793 1154.67,-19.7318 1148.87,-28.6007 1155.67,-30.2793"/>
</g>
<!-- Node16&#45;&gt;Node6 -->
<g id="edge26" class="edge"><title>Node16&#45;&gt;Node6</title>
<path fill="none" stroke="midnightblue" d="M1019.31,-307.942C951.652,-278.545 728.504,-181.582 648.154,-146.668"/>
<polygon fill="midnightblue" stroke="midnightblue" points="649.218,-143.314 638.652,-142.539 646.428,-149.734 649.218,-143.314"/>
</g>
<!-- Node16&#45;&gt;Node15 -->
<g id="edge28" class="edge"><title>Node16&#45;&gt;Node15</title>
<path fill="none" stroke="midnightblue" d="M1005.93,-307.936C964.954,-297.325 894.486,-279.076 844.793,-266.207"/>
<polygon fill="midnightblue" stroke="midnightblue" points="845.393,-262.747 834.835,-263.628 843.638,-269.524 845.393,-262.747"/>
</g>
<!-- Node17&#45;&gt;Node3 -->
<g id="edge31" class="edge"><title>Node17&#45;&gt;Node3</title>
<path fill="none" stroke="midnightblue" d="M356.8,-307.952C321.851,-297.069 264.625,-278.215 246,-266 207.092,-240.484 174,-236.529 174,-190 174,-190 174,-190 174,-132 174,-60.0261 247.653,-75.2679 317,-56 472.31,-12.8473 984.365,-10.6555 1122.44,-10.8701"/>
<polygon fill="midnightblue" stroke="midnightblue" points="1122.45,-14.37 1132.46,-10.8911 1122.46,-7.37004 1122.45,-14.37"/>
</g>
<!-- Node17&#45;&gt;Node5 -->
<g id="edge32" class="edge"><title>Node17&#45;&gt;Node5</title>
<path fill="none" stroke="midnightblue" d="M371.783,-307.734C355.546,-296.964 327.783,-278.55 308.469,-265.739"/>
<polygon fill="midnightblue" stroke="midnightblue" points="310.275,-262.738 300.007,-260.127 306.406,-268.571 310.275,-262.738"/>
</g>
<!-- Node17&#45;&gt;Node6 -->
<g id="edge30" class="edge"><title>Node17&#45;&gt;Node6</title>
<path fill="none" stroke="midnightblue" d="M395.972,-307.942C432.898,-279.144 552.963,-185.504 599.924,-148.878"/>
<polygon fill="midnightblue" stroke="midnightblue" points="602.318,-151.449 608.051,-142.539 598.013,-145.929 602.318,-151.449"/>
</g>
<!-- Node17&#45;&gt;Node9 -->
<g id="edge34" class="edge"><title>Node17&#45;&gt;Node9</title>
<path fill="none" stroke="midnightblue" d="M385.454,-307.929C386.71,-291.945 391.42,-257.203 409,-235 420.441,-220.55 437.88,-209.92 453.466,-202.631"/>
<polygon fill="midnightblue" stroke="midnightblue" points="455.102,-205.736 462.861,-198.521 452.296,-199.323 455.102,-205.736"/>
</g>
<!-- Node17&#45;&gt;Node15 -->
<g id="edge33" class="edge"><title>Node17&#45;&gt;Node15</title>
<path fill="none" stroke="midnightblue" d="M432.812,-308.788C507.439,-296.752 651.311,-273.547 731.141,-260.671"/>
<polygon fill="midnightblue" stroke="midnightblue" points="732.179,-264.049 741.494,-259.001 731.064,-257.138 732.179,-264.049"/>
</g>
<!-- Node18&#45;&gt;Node3 -->
<g id="edge36" class="edge"><title>Node18&#45;&gt;Node3</title>
<path fill="none" stroke="midnightblue" d="M819.775,-382.832C894.712,-380.63 1079.66,-371.35 1126,-333 1177.87,-290.072 1176,-257.329 1176,-190 1176,-190 1176,-190 1176,-132 1176,-95.2858 1167.36,-53.0556 1161.73,-29.4499"/>
<polygon fill="midnightblue" stroke="midnightblue" points="1165.13,-28.6007 1159.33,-19.7318 1158.33,-30.2793 1165.13,-28.6007"/>
</g>
<!-- Node18&#45;&gt;Node9 -->
<g id="edge42" class="edge"><title>Node18&#45;&gt;Node9</title>
<path fill="none" stroke="midnightblue" d="M756.25,-380.066C700.209,-373.451 586.76,-357.401 556,-333 515.719,-301.046 498,-239.455 491.376,-208.587"/>
<polygon fill="midnightblue" stroke="midnightblue" points="494.797,-207.844 489.417,-198.717 487.931,-209.207 494.797,-207.844"/>
</g>
<!-- Node18&#45;&gt;Node15 -->
<g id="edge41" class="edge"><title>Node18&#45;&gt;Node15</title>
<path fill="none" stroke="midnightblue" d="M788,-374.839C788,-355.019 788,-305.769 788,-275.844"/>
<polygon fill="midnightblue" stroke="midnightblue" points="791.5,-275.783 788,-265.783 784.5,-275.783 791.5,-275.783"/>
</g>
<!-- Node19 -->
<g id="node19" class="node"><title>Node19</title>
<g id="a_node19"><a xlink:href="pca9534_8h.html" target="_top" xlink:title="driver/pca9534.h">
<polygon fill="white" stroke="black" points="565.5,-308 565.5,-327 652.5,-327 652.5,-308 565.5,-308"/>
<text text-anchor="middle" x="609" y="-315" font-family="Helvetica,sans-Serif" font-size="10.00">driver/pca9534.h</text>
</a>
</g>
</g>
<!-- Node18&#45;&gt;Node19 -->
<g id="edge37" class="edge"><title>Node18&#45;&gt;Node19</title>
<path fill="none" stroke="midnightblue" d="M764.23,-374.869C732.849,-363.473 677.441,-343.353 642.01,-330.487"/>
<polygon fill="midnightblue" stroke="midnightblue" points="643.177,-327.187 632.583,-327.064 640.788,-333.767 643.177,-327.187"/>
</g>
<!-- Node20 -->
<g id="node20" class="node"><title>Node20</title>
<g id="a_node20"><a xlink:href="lcd__commands_8h.html" target="_top" xlink:title="driver/include/lcd\l_commands.h">
<polygon fill="white" stroke="black" points="670.5,-302.5 670.5,-332.5 759.5,-332.5 759.5,-302.5 670.5,-302.5"/>
<text text-anchor="start" x="678.5" y="-320.5" font-family="Helvetica,sans-Serif" font-size="10.00">driver/include/lcd</text>
<text text-anchor="middle" x="715" y="-309.5" font-family="Helvetica,sans-Serif" font-size="10.00">_commands.h</text>
</a>
</g>
</g>
<!-- Node18&#45;&gt;Node20 -->
<g id="edge40" class="edge"><title>Node18&#45;&gt;Node20</title>
<path fill="none" stroke="midnightblue" d="M778.155,-374.734C768.005,-365.696 751.808,-351.274 738.358,-339.298"/>
<polygon fill="midnightblue" stroke="midnightblue" points="740.619,-336.625 730.823,-332.589 735.964,-341.853 740.619,-336.625"/>
</g>
<!-- Node19&#45;&gt;Node3 -->
<g id="edge38" class="edge"><title>Node19&#45;&gt;Node3</title>
<path fill="none" stroke="midnightblue" d="M619.459,-307.885C641.144,-288.986 689,-241.45 689,-190 689,-190 689,-190 689,-132 689,-42.458 1014.19,-18.1195 1122.43,-12.4985"/>
<polygon fill="midnightblue" stroke="midnightblue" points="1122.68,-15.9901 1132.5,-11.9975 1122.34,-8.9987 1122.68,-15.9901"/>
</g>
<!-- Node19&#45;&gt;Node5 -->
<g id="edge39" class="edge"><title>Node19&#45;&gt;Node5</title>
<path fill="none" stroke="midnightblue" d="M566.573,-307.936C504.743,-295.454 390.559,-272.405 328.981,-259.975"/>
<polygon fill="midnightblue" stroke="midnightblue" points="329.338,-256.476 318.843,-257.928 327.953,-263.338 329.338,-256.476"/>
</g>
<!-- Node21&#45;&gt;Node3 -->
<g id="edge44" class="edge"><title>Node21&#45;&gt;Node3</title>
<path fill="none" stroke="midnightblue" d="M1335.3,-436.275C1345.2,-409.252 1374,-324.377 1374,-251.5 1374,-251.5 1374,-251.5 1374,-132 1374,-49.6332 1253.26,-22.8206 1191.91,-14.5128"/>
<polygon fill="midnightblue" stroke="midnightblue" points="1192.25,-11.0283 1181.89,-13.2495 1191.38,-17.9733 1192.25,-11.0283"/>
</g>
<!-- Node21&#45;&gt;Node6 -->
<g id="edge47" class="edge"><title>Node21&#45;&gt;Node6</title>
<path fill="none" stroke="midnightblue" d="M1327.08,-436.483C1312.84,-412.467 1269.25,-343.272 1217,-302 1042.74,-164.351 761.884,-139.446 658.684,-134.969"/>
<polygon fill="midnightblue" stroke="midnightblue" points="658.821,-131.472 648.691,-134.576 658.546,-138.467 658.821,-131.472"/>
</g>
<!-- Node21&#45;&gt;Node22 -->
<g id="edge45" class="edge"><title>Node21&#45;&gt;Node22</title>
<path fill="none" stroke="midnightblue" d="M1341.31,-436.475C1351.45,-427.197 1367.86,-412.171 1380.25,-400.831"/>
<polygon fill="midnightblue" stroke="midnightblue" points="1382.69,-403.343 1387.7,-394.009 1377.96,-398.18 1382.69,-403.343"/>
</g>
<!-- Node22&#45;&gt;Node3 -->
<g id="edge46" class="edge"><title>Node22&#45;&gt;Node3</title>
<path fill="none" stroke="midnightblue" d="M1398.66,-374.89C1402.57,-353.888 1412,-298.32 1412,-251.5 1412,-251.5 1412,-251.5 1412,-132 1412,-96.578 1414.43,-79.5864 1388,-56 1359.45,-30.5161 1248.98,-18.2316 1191.77,-13.4752"/>
<polygon fill="midnightblue" stroke="midnightblue" points="1191.99,-9.98156 1181.75,-12.6732 1191.43,-16.9593 1191.99,-9.98156"/>
</g>
<!-- Node23&#45;&gt;Node3 -->
<g id="edge50" class="edge"><title>Node23&#45;&gt;Node3</title>
<path fill="none" stroke="midnightblue" d="M1201.59,-374.865C1206.53,-365.045 1214.07,-348.376 1217,-333 1219.58,-319.466 1217.18,-315.777 1217,-302 1216.33,-252.209 1214,-239.796 1214,-190 1214,-190 1214,-190 1214,-132 1214,-96.578 1206.02,-87.5921 1190,-56 1184.92,-45.9742 1177.66,-35.7923 1171.25,-27.6554"/>
<polygon fill="midnightblue" stroke="midnightblue" points="1173.8,-25.2532 1164.76,-19.7327 1168.39,-29.6876 1173.8,-25.2532"/>
</g>
<!-- Node23&#45;&gt;Node6 -->
<g id="edge51" class="edge"><title>Node23&#45;&gt;Node6</title>
<path fill="none" stroke="midnightblue" d="M1200.16,-374.882C1205.44,-358.821 1214,-323.955 1198,-302 1167.2,-259.748 1133.26,-288.376 1086,-266 1063.05,-255.132 1061.34,-245.006 1038,-235 905.318,-178.121 734.653,-149.61 658.609,-139.014"/>
<polygon fill="midnightblue" stroke="midnightblue" points="658.902,-135.521 648.521,-137.636 657.955,-142.457 658.902,-135.521"/>
</g>
<!-- Node23&#45;&gt;Node10 -->
<g id="edge53" class="edge"><title>Node23&#45;&gt;Node10</title>
<path fill="none" stroke="midnightblue" d="M1191.96,-374.861C1181.74,-358.125 1156.9,-321.245 1126,-302 1075.17,-270.346 678.898,-176.768 541.065,-144.827"/>
<polygon fill="midnightblue" stroke="midnightblue" points="541.744,-141.392 531.212,-142.547 540.165,-148.211 541.744,-141.392"/>
</g>
<!-- Node23&#45;&gt;Node15 -->
<g id="edge52" class="edge"><title>Node23&#45;&gt;Node15</title>
<path fill="none" stroke="midnightblue" d="M1154.21,-380.773C1103.58,-376.205 1017.76,-364.187 951,-333 930.939,-323.628 931.114,-313.178 912,-302 889.615,-288.909 863.191,-277.637 840.499,-269.085"/>
<polygon fill="midnightblue" stroke="midnightblue" points="841.619,-265.768 831.026,-265.589 839.196,-272.335 841.619,-265.768"/>
</g>
<!-- Node23&#45;&gt;Node16 -->
<g id="edge54" class="edge"><title>Node23&#45;&gt;Node16</title>
<path fill="none" stroke="midnightblue" d="M1176.02,-374.869C1148.75,-363.65 1100.93,-343.977 1069.61,-331.092"/>
<polygon fill="midnightblue" stroke="midnightblue" points="1070.65,-327.735 1060.07,-327.167 1067.98,-334.209 1070.65,-327.735"/>
</g>
<!-- Node25&#45;&gt;Node2 -->
<g id="edge59" class="edge"><title>Node25&#45;&gt;Node2</title>
<path fill="none" stroke="midnightblue" d="M1441.53,-455.516C1416.1,-464.664 1372.52,-479.255 1340.35,-489.436"/>
<polygon fill="midnightblue" stroke="midnightblue" points="1339.25,-486.111 1330.76,-492.444 1341.35,-492.79 1339.25,-486.111"/>
</g>
<!-- Node25&#45;&gt;Node3 -->
<g id="edge57" class="edge"><title>Node25&#45;&gt;Node3</title>
<path fill="none" stroke="midnightblue" d="M1460.62,-436.437C1457.47,-416.061 1450,-363.062 1450,-318.5 1450,-318.5 1450,-318.5 1450,-132 1450,-94.432 1443,-78.6119 1413,-56 1378.59,-30.0678 1253.08,-17.7846 1191.52,-13.2167"/>
<polygon fill="midnightblue" stroke="midnightblue" points="1191.73,-9.72306 1181.51,-12.5003 1191.23,-16.7052 1191.73,-9.72306"/>
</g>
<!-- Node25&#45;&gt;Node18 -->
<g id="edge58" class="edge"><title>Node25&#45;&gt;Node18</title>
<path fill="none" stroke="midnightblue" d="M1423.91,-440.86C1408.98,-439.277 1391.69,-437.495 1376,-436 1171.27,-416.497 926.094,-396.531 829.766,-388.819"/>
<polygon fill="midnightblue" stroke="midnightblue" points="829.817,-385.312 819.57,-388.004 829.259,-392.289 829.817,-385.312"/>
</g>
<!-- Node25&#45;&gt;Node22 -->
<g id="edge64" class="edge"><title>Node25&#45;&gt;Node22</title>
<path fill="none" stroke="midnightblue" d="M1452.69,-436.475C1442.55,-427.197 1426.14,-412.171 1413.75,-400.831"/>
<polygon fill="midnightblue" stroke="midnightblue" points="1416.04,-398.18 1406.3,-394.009 1411.31,-403.343 1416.04,-398.18"/>
</g>
<!-- Node25&#45;&gt;Node23 -->
<g id="edge60" class="edge"><title>Node25&#45;&gt;Node23</title>
<path fill="none" stroke="midnightblue" d="M1424.03,-436.475C1376.8,-425.871 1296.14,-407.76 1244.76,-396.224"/>
<polygon fill="midnightblue" stroke="midnightblue" points="1245.42,-392.785 1234.9,-394.009 1243.89,-399.615 1245.42,-392.785"/>
</g>
<!-- Node25&#45;&gt;Node24 -->
<g id="edge61" class="edge"><title>Node25&#45;&gt;Node24</title>
<path fill="none" stroke="midnightblue" d="M1490.08,-436.475C1524.29,-426.092 1582.2,-408.512 1620.27,-396.954"/>
<polygon fill="midnightblue" stroke="midnightblue" points="1621.42,-400.263 1629.97,-394.009 1619.38,-393.565 1621.42,-400.263"/>
</g>
<!-- Node26 -->
<g id="node26" class="node"><title>Node26</title>
<g id="a_node26"><a xlink:href="menu__struct_8h.html" target="_top" xlink:title="menu/menu_struct.h">
<polygon fill="white" stroke="black" points="1478,-375 1478,-394 1584,-394 1584,-375 1478,-375"/>
<text text-anchor="middle" x="1531" y="-382" font-family="Helvetica,sans-Serif" font-size="10.00">menu/menu_struct.h</text>
</a>
</g>
</g>
<!-- Node25&#45;&gt;Node26 -->
<g id="edge62" class="edge"><title>Node25&#45;&gt;Node26</title>
<path fill="none" stroke="midnightblue" d="M1466.99,-436.475C1475.89,-427.02 1493.44,-411.596 1508.05,-400.187"/>
<polygon fill="midnightblue" stroke="midnightblue" points="1510.36,-402.829 1516.24,-394.009 1506.15,-397.243 1510.36,-402.829"/>
</g>
<!-- Node26&#45;&gt;Node25 -->
<g id="edge63" class="edge"><title>Node26&#45;&gt;Node25</title>
<path fill="none" stroke="midnightblue" d="M1526.03,-394.009C1517.14,-403.458 1499.59,-418.88 1484.97,-430.294"/>
<polygon fill="midnightblue" stroke="midnightblue" points="1482.66,-427.655 1476.79,-436.475 1486.88,-433.24 1482.66,-427.655"/>
</g>
<!-- Node27&#45;&gt;Node2 -->
<g id="edge68" class="edge"><title>Node27&#45;&gt;Node2</title>
<path fill="none" stroke="midnightblue" d="M1804.39,-455.382C1802.58,-455.595 1800.78,-455.801 1799,-456 1632.37,-474.67 1433.22,-491.163 1345.31,-497.843"/>
<polygon fill="midnightblue" stroke="midnightblue" points="1344.85,-494.367 1335.15,-498.609 1345.38,-501.347 1344.85,-494.367"/>
</g>
<!-- Node27&#45;&gt;Node3 -->
<g id="edge67" class="edge"><title>Node27&#45;&gt;Node3</title>
<path fill="none" stroke="midnightblue" d="M1874.24,-436.491C1887.47,-428.728 1905.59,-416.035 1916,-400 1936.31,-368.717 1936,-355.797 1936,-318.5 1936,-318.5 1936,-318.5 1936,-132 1936,-72.2111 1881.49,-75.59 1825,-56 1706.27,-14.8258 1311.56,-11.1025 1191.77,-10.9395"/>
<polygon fill="midnightblue" stroke="midnightblue" points="1191.69,-7.43955 1181.69,-10.9335 1191.69,-14.4395 1191.69,-7.43955"/>
</g>
<!-- Node28 -->
<g id="node28" class="node"><title>Node28</title>
<g id="a_node28"><a xlink:href="station__list__struct_8h.html" target="_top" xlink:title="system/station_list\l_struct.h">
<polygon fill="white" stroke="black" points="1808.5,-369.5 1808.5,-399.5 1907.5,-399.5 1907.5,-369.5 1808.5,-369.5"/>
<text text-anchor="start" x="1816.5" y="-387.5" font-family="Helvetica,sans-Serif" font-size="10.00">system/station_list</text>
<text text-anchor="middle" x="1858" y="-376.5" font-family="Helvetica,sans-Serif" font-size="10.00">_struct.h</text>
</a>
</g>
</g>
<!-- Node27&#45;&gt;Node28 -->
<g id="edge69" class="edge"><title>Node27&#45;&gt;Node28</title>
<path fill="none" stroke="midnightblue" d="M1858,-436.475C1858,-429.471 1858,-419.192 1858,-409.696"/>
<polygon fill="midnightblue" stroke="midnightblue" points="1861.5,-409.523 1858,-399.523 1854.5,-409.523 1861.5,-409.523"/>
</g>
<!-- Node28&#45;&gt;Node2 -->
<g id="edge71" class="edge"><title>Node28&#45;&gt;Node2</title>
<path fill="none" stroke="midnightblue" d="M1840.15,-399.624C1816.24,-418.252 1774.75,-449.444 1757,-456 1682.24,-483.609 1445.53,-495.54 1345.41,-499.443"/>
<polygon fill="midnightblue" stroke="midnightblue" points="1345.17,-495.949 1335.31,-499.827 1345.44,-502.944 1345.17,-495.949"/>
</g>
<!-- Node28&#45;&gt;Node3 -->
<g id="edge70" class="edge"><title>Node28&#45;&gt;Node3</title>
<path fill="none" stroke="midnightblue" d="M1854.42,-369.347C1848.67,-345.298 1838,-294.843 1838,-251.5 1838,-251.5 1838,-251.5 1838,-132 1838,-92.9698 1827.1,-76.6749 1794,-56 1742.78,-24.0085 1317.25,-13.8754 1191.73,-11.5677"/>
<polygon fill="midnightblue" stroke="midnightblue" points="1191.59,-8.06489 1181.53,-11.3856 1191.47,-15.0638 1191.59,-8.06489"/>
</g>
<!-- Node29&#45;&gt;Node2 -->
<g id="edge74" class="edge"><title>Node29&#45;&gt;Node2</title>
<path fill="none" stroke="midnightblue" d="M1641.95,-454.928C1563.77,-465.971 1419.16,-485.712 1345.52,-495.368"/>
<polygon fill="midnightblue" stroke="midnightblue" points="1344.65,-491.952 1335.19,-496.718 1345.55,-498.893 1344.65,-491.952"/>
</g>
<!-- Node29&#45;&gt;Node3 -->
<g id="edge73" class="edge"><title>Node29&#45;&gt;Node3</title>
<path fill="none" stroke="midnightblue" d="M1712.17,-436.406C1725.93,-428.672 1744.75,-416.063 1756,-400 1777.66,-369.067 1780,-356.26 1780,-318.5 1780,-318.5 1780,-318.5 1780,-132 1780,-96.578 1783.77,-77.9952 1756,-56 1711.71,-20.9168 1313.16,-12.984 1191.87,-11.3754"/>
<polygon fill="midnightblue" stroke="midnightblue" points="1191.7,-7.87316 1181.66,-11.2465 1191.62,-14.8726 1191.7,-7.87316"/>
</g>
<!-- Node30&#45;&gt;Node3 -->
<g id="edge78" class="edge"><title>Node30&#45;&gt;Node3</title>
<path fill="none" stroke="midnightblue" d="M56.7677,-307.787C39.2771,-288.32 0,-239.136 0,-190 0,-190 0,-190 0,-132 0,-90.564 17.5753,-75.7529 54,-56 102.032,-29.9524 940.016,-14.5986 1122.22,-11.5595"/>
<polygon fill="midnightblue" stroke="midnightblue" points="1122.38,-15.0575 1132.32,-11.3925 1122.26,-8.05844 1122.38,-15.0575"/>
</g>
<!-- Node30&#45;&gt;Node5 -->
<g id="edge79" class="edge"><title>Node30&#45;&gt;Node5</title>
<path fill="none" stroke="midnightblue" d="M94.4799,-307.869C133.981,-296.303 204.181,-275.749 248.015,-262.914"/>
<polygon fill="midnightblue" stroke="midnightblue" points="249.138,-266.233 257.752,-260.064 247.171,-259.515 249.138,-266.233"/>
</g>
<!-- Node31&#45;&gt;Node3 -->
<g id="edge81" class="edge"><title>Node31&#45;&gt;Node3</title>
<path fill="none" stroke="midnightblue" d="M106.514,-179.3C108.475,-154.925 117.697,-85.8057 160,-56 200.127,-27.7277 950.627,-14.2451 1122.25,-11.5243"/>
<polygon fill="midnightblue" stroke="midnightblue" points="1122.54,-15.0204 1132.48,-11.3641 1122.43,-8.02122 1122.54,-15.0204"/>
</g>
<!-- Node31&#45;&gt;Node10 -->
<g id="edge82" class="edge"><title>Node31&#45;&gt;Node10</title>
<path fill="none" stroke="midnightblue" d="M145.699,-182.475C210.804,-173.414 341.152,-155.273 422.617,-143.935"/>
<polygon fill="midnightblue" stroke="midnightblue" points="423.37,-147.364 432.792,-142.519 422.405,-140.431 423.37,-147.364"/>
</g>
</g>
</svg>
