<?xml version="1.0" encoding="UTF-8" standalone="no"?>
<!DOCTYPE svg PUBLIC "-//W3C//DTD SVG 1.1//EN"
 "http://www.w3.org/Graphics/SVG/1.1/DTD/svg11.dtd">
<!-- Generated by graphviz version 2.38.0 (20140413.2041)
 -->
<!-- Title: radio_contrast Pages: 1 -->
<svg width="1058pt" height="199pt"
 viewBox="0.00 0.00 1058.00 199.00" xmlns="http://www.w3.org/2000/svg" xmlns:xlink="http://www.w3.org/1999/xlink">
<g id="graph0" class="graph" transform="scale(1 1) rotate(0) translate(4 195)">
<title>radio_contrast</title>
<polygon fill="white" stroke="none" points="-4,4 -4,-195 1054,-195 1054,4 -4,4"/>
<!-- Node1 -->
<g id="node1" class="node"><title>Node1</title>
<polygon fill="#bfbfbf" stroke="black" points="0,-123.5 0,-142.5 78,-142.5 78,-123.5 0,-123.5"/>
<text text-anchor="middle" x="39" y="-130.5" font-family="Helvetica,sans-Serif" font-size="10.00">radio_contrast</text>
</g>
<!-- Node2 -->
<g id="node2" class="node"><title>Node2</title>
<g id="a_node2"><a xlink:href="lcd_8h.html#ab99e48ab8689dcb1205c4c7c97bd9956" target="_top" xlink:title="lcd_contrast">
<polygon fill="white" stroke="black" points="399.5,-171.5 399.5,-190.5 469.5,-190.5 469.5,-171.5 399.5,-171.5"/>
<text text-anchor="middle" x="434.5" y="-178.5" font-family="Helvetica,sans-Serif" font-size="10.00">lcd_contrast</text>
</a>
</g>
</g>
<!-- Node1&#45;&gt;Node2 -->
<g id="edge1" class="edge"><title>Node1&#45;&gt;Node2</title>
<path fill="none" stroke="midnightblue" d="M75.6623,-142.571C87.7944,-145.716 101.456,-149.138 114,-152 178.073,-166.622 193.599,-174.524 259,-181 303.177,-185.374 353.954,-184.741 389.301,-183.399"/>
<polygon fill="midnightblue" stroke="midnightblue" points="389.45,-186.896 399.296,-182.986 389.16,-179.902 389.45,-186.896"/>
</g>
<!-- Node8 -->
<g id="node8" class="node"><title>Node8</title>
<g id="a_node8"><a xlink:href="radio_8c.html#a477656bb91c200d15ddbe6cffcd04c53" target="_top" xlink:title="radio_store_settings">
<polygon fill="white" stroke="black" points="116.5,-123.5 116.5,-142.5 220.5,-142.5 220.5,-123.5 116.5,-123.5"/>
<text text-anchor="middle" x="168.5" y="-130.5" font-family="Helvetica,sans-Serif" font-size="10.00">radio_store_settings</text>
</a>
</g>
</g>
<!-- Node1&#45;&gt;Node8 -->
<g id="edge8" class="edge"><title>Node1&#45;&gt;Node8</title>
<path fill="none" stroke="midnightblue" d="M78.2542,-133C86.9807,-133 96.4704,-133 105.897,-133"/>
<polygon fill="midnightblue" stroke="midnightblue" points="106.063,-136.5 116.063,-133 106.063,-129.5 106.063,-136.5"/>
</g>
<!-- Node12 -->
<g id="node12" class="node"><title>Node12</title>
<g id="a_node12"><a xlink:href="menu_8h.html#a5621c1bf312de029f43808bf02dc52e3" target="_top" xlink:title="menu_scroll_settings">
<polygon fill="white" stroke="black" points="114,-66.5 114,-85.5 223,-85.5 223,-66.5 114,-66.5"/>
<text text-anchor="middle" x="168.5" y="-73.5" font-family="Helvetica,sans-Serif" font-size="10.00">menu_scroll_settings</text>
</a>
</g>
</g>
<!-- Node1&#45;&gt;Node12 -->
<g id="edge12" class="edge"><title>Node1&#45;&gt;Node12</title>
<path fill="none" stroke="midnightblue" d="M61.3406,-123.459C82.0264,-114.212 113.615,-100.09 136.96,-89.6532"/>
<polygon fill="midnightblue" stroke="midnightblue" points="138.389,-92.8482 146.09,-85.5716 135.532,-86.4578 138.389,-92.8482"/>
</g>
<!-- Node3 -->
<g id="node3" class="node"><title>Node3</title>
<g id="a_node3"><a xlink:href="lcd_8c.html#a250728451a22259562d3f01a12bbd77b" target="_top" xlink:title="lcd_command">
<polygon fill="white" stroke="black" points="638.5,-114.5 638.5,-133.5 715.5,-133.5 715.5,-114.5 638.5,-114.5"/>
<text text-anchor="middle" x="677" y="-121.5" font-family="Helvetica,sans-Serif" font-size="10.00">lcd_command</text>
</a>
</g>
</g>
<!-- Node2&#45;&gt;Node3 -->
<g id="edge2" class="edge"><title>Node2&#45;&gt;Node3</title>
<path fill="none" stroke="midnightblue" d="M469.665,-173.201C502.765,-165.612 554.364,-153.693 599,-143 608.54,-140.714 618.735,-138.229 628.48,-135.833"/>
<polygon fill="midnightblue" stroke="midnightblue" points="629.556,-139.172 638.427,-133.379 627.88,-132.376 629.556,-139.172"/>
</g>
<!-- Node4 -->
<g id="node4" class="node"><title>Node4</title>
<g id="a_node4"><a xlink:href="i2c_8h.html#a6691e5911f539e1e8178c6e983e8079a" target="_top" xlink:title="Transmits I2C commands with a variable length to a I2C slave. ">
<polygon fill="white" stroke="black" points="755,-76.5 755,-95.5 827,-95.5 827,-76.5 755,-76.5"/>
<text text-anchor="middle" x="791" y="-83.5" font-family="Helvetica,sans-Serif" font-size="10.00">i2c_write_var</text>
</a>
</g>
</g>
<!-- Node3&#45;&gt;Node4 -->
<g id="edge3" class="edge"><title>Node3&#45;&gt;Node4</title>
<path fill="none" stroke="midnightblue" d="M706.262,-114.411C720.19,-109.686 737.18,-103.921 752.207,-98.8226"/>
<polygon fill="midnightblue" stroke="midnightblue" points="753.401,-102.113 761.747,-95.5859 751.152,-95.4845 753.401,-102.113"/>
</g>
<!-- Node7 -->
<g id="node7" class="node"><title>Node7</title>
<g id="a_node7"><a xlink:href="timer_8c.html#a276d5cb665b9f8b2c79e53e2f2c5b4f0" target="_top" xlink:title="_delay_ms">
<polygon fill="white" stroke="black" points="866.5,-114.5 866.5,-133.5 930.5,-133.5 930.5,-114.5 866.5,-114.5"/>
<text text-anchor="middle" x="898.5" y="-121.5" font-family="Helvetica,sans-Serif" font-size="10.00">_delay_ms</text>
</a>
</g>
</g>
<!-- Node3&#45;&gt;Node7 -->
<g id="edge6" class="edge"><title>Node3&#45;&gt;Node7</title>
<path fill="none" stroke="midnightblue" d="M715.733,-124C754.861,-124 815.853,-124 856.237,-124"/>
<polygon fill="midnightblue" stroke="midnightblue" points="856.287,-127.5 866.287,-124 856.287,-120.5 856.287,-127.5"/>
</g>
<!-- Node5 -->
<g id="node5" class="node"><title>Node5</title>
<g id="a_node5"><a xlink:href="i2c_8c.html#ae0625b97d3437bcaca4ac4b96dd01978" target="_top" xlink:title="Transmits I2C command array to a I2C slave. ">
<polygon fill="white" stroke="black" points="863,-76.5 863,-95.5 934,-95.5 934,-76.5 863,-76.5"/>
<text text-anchor="middle" x="898.5" y="-83.5" font-family="Helvetica,sans-Serif" font-size="10.00">i2c_write_arr</text>
</a>
</g>
</g>
<!-- Node4&#45;&gt;Node5 -->
<g id="edge4" class="edge"><title>Node4&#45;&gt;Node5</title>
<path fill="none" stroke="midnightblue" d="M827.13,-86C835.312,-86 844.133,-86 852.671,-86"/>
<polygon fill="midnightblue" stroke="midnightblue" points="852.882,-89.5001 862.882,-86 852.882,-82.5001 852.882,-89.5001"/>
</g>
<!-- Node6 -->
<g id="node6" class="node"><title>Node6</title>
<g id="a_node6"><a xlink:href="timer_8c.html#a3c56af3315c2461dec5ced585a5f84db" target="_top" xlink:title="_delay_ten_us">
<polygon fill="white" stroke="black" points="970,-95.5 970,-114.5 1050,-114.5 1050,-95.5 970,-95.5"/>
<text text-anchor="middle" x="1010" y="-102.5" font-family="Helvetica,sans-Serif" font-size="10.00">_delay_ten_us</text>
</a>
</g>
</g>
<!-- Node5&#45;&gt;Node6 -->
<g id="edge5" class="edge"><title>Node5&#45;&gt;Node6</title>
<path fill="none" stroke="midnightblue" d="M934.146,-92.0117C942.253,-93.4183 951.042,-94.9433 959.651,-96.4371"/>
<polygon fill="midnightblue" stroke="midnightblue" points="959.172,-99.9062 969.623,-98.1674 960.368,-93.0092 959.172,-99.9062"/>
</g>
<!-- Node7&#45;&gt;Node6 -->
<g id="edge7" class="edge"><title>Node7&#45;&gt;Node6</title>
<path fill="none" stroke="midnightblue" d="M930.585,-118.606C939.595,-117.043 949.664,-115.296 959.505,-113.588"/>
<polygon fill="midnightblue" stroke="midnightblue" points="960.368,-116.991 969.623,-111.833 959.172,-110.094 960.368,-116.991"/>
</g>
<!-- Node9 -->
<g id="node9" class="node"><title>Node9</title>
<g id="a_node9"><a xlink:href="flash_8h.html#ad9d8a7cadb959b139fea7654d539714a" target="_top" xlink:title="flash_read">
<polygon fill="white" stroke="black" points="277,-152.5 277,-171.5 338,-171.5 338,-152.5 277,-152.5"/>
<text text-anchor="middle" x="307.5" y="-159.5" font-family="Helvetica,sans-Serif" font-size="10.00">flash_read</text>
</a>
</g>
</g>
<!-- Node8&#45;&gt;Node9 -->
<g id="edge9" class="edge"><title>Node8&#45;&gt;Node9</title>
<path fill="none" stroke="midnightblue" d="M214.739,-142.576C231.649,-146.156 250.706,-150.19 267.053,-153.65"/>
<polygon fill="midnightblue" stroke="midnightblue" points="266.33,-157.074 276.838,-155.721 267.779,-150.226 266.33,-157.074"/>
</g>
<!-- Node10 -->
<g id="node10" class="node"><title>Node10</title>
<g id="a_node10"><a xlink:href="flash_8h.html#a936ded19cea6a94beca2b32349a9ac2c" target="_top" xlink:title="flash_store">
<polygon fill="white" stroke="black" points="275.5,-114.5 275.5,-133.5 339.5,-133.5 339.5,-114.5 275.5,-114.5"/>
<text text-anchor="middle" x="307.5" y="-121.5" font-family="Helvetica,sans-Serif" font-size="10.00">flash_store</text>
</a>
</g>
</g>
<!-- Node8&#45;&gt;Node10 -->
<g id="edge10" class="edge"><title>Node8&#45;&gt;Node10</title>
<path fill="none" stroke="midnightblue" d="M220.514,-129.649C235.185,-128.685 251.002,-127.646 265.022,-126.725"/>
<polygon fill="midnightblue" stroke="midnightblue" points="265.594,-130.195 275.343,-126.047 265.135,-123.21 265.594,-130.195"/>
</g>
<!-- Node11 -->
<g id="node11" class="node"><title>Node11</title>
<g id="a_node11"><a xlink:href="flash_8c.html#ad9d8a7cadb959b139fea7654d539714a" target="_top" xlink:title="flash_read">
<polygon fill="white" stroke="black" points="404,-114.5 404,-133.5 465,-133.5 465,-114.5 404,-114.5"/>
<text text-anchor="middle" x="434.5" y="-121.5" font-family="Helvetica,sans-Serif" font-size="10.00">flash_read</text>
</a>
</g>
</g>
<!-- Node10&#45;&gt;Node11 -->
<g id="edge11" class="edge"><title>Node10&#45;&gt;Node11</title>
<path fill="none" stroke="midnightblue" d="M339.72,-124C356.009,-124 376.116,-124 393.53,-124"/>
<polygon fill="midnightblue" stroke="midnightblue" points="393.966,-127.5 403.966,-124 393.966,-120.5 393.966,-127.5"/>
</g>
<!-- Node13 -->
<g id="node13" class="node"><title>Node13</title>
<g id="a_node13"><a xlink:href="lcd_8h.html#acd63fb85d212730fa4fcbcbeeccd231e" target="_top" xlink:title="lcd_create_view">
<polygon fill="white" stroke="black" points="392,-76.5 392,-95.5 477,-95.5 477,-76.5 392,-76.5"/>
<text text-anchor="middle" x="434.5" y="-83.5" font-family="Helvetica,sans-Serif" font-size="10.00">lcd_create_view</text>
</a>
</g>
</g>
<!-- Node12&#45;&gt;Node13 -->
<g id="edge13" class="edge"><title>Node12&#45;&gt;Node13</title>
<path fill="none" stroke="midnightblue" d="M223.243,-78.0357C269.636,-79.793 336.214,-82.3149 381.955,-84.0475"/>
<polygon fill="midnightblue" stroke="midnightblue" points="381.833,-87.5453 391.958,-84.4264 382.098,-80.5503 381.833,-87.5453"/>
</g>
<!-- Node16 -->
<g id="node16" class="node"><title>Node16</title>
<g id="a_node16"><a xlink:href="string_8c.html#a82b1b882cf97ff40344f87bd1473e9d0" target="_top" xlink:title="string_int_to_array">
<polygon fill="white" stroke="black" points="259,-38.5 259,-57.5 356,-57.5 356,-38.5 259,-38.5"/>
<text text-anchor="middle" x="307.5" y="-45.5" font-family="Helvetica,sans-Serif" font-size="10.00">string_int_to_array</text>
</a>
</g>
</g>
<!-- Node12&#45;&gt;Node16 -->
<g id="edge18" class="edge"><title>Node12&#45;&gt;Node16</title>
<path fill="none" stroke="midnightblue" d="M216.264,-66.4423C227.066,-64.2347 238.671,-61.8628 249.844,-59.5794"/>
<polygon fill="midnightblue" stroke="midnightblue" points="250.85,-62.9462 259.946,-57.5146 249.448,-56.088 250.85,-62.9462"/>
</g>
<!-- Node17 -->
<g id="node17" class="node"><title>Node17</title>
<g id="a_node17"><a xlink:href="menu_8c.html#a503ed2007daa6f20b2f748eedbcb8494" target="_top" xlink:title="menu_scroll">
<polygon fill="white" stroke="black" points="273,-0.5 273,-19.5 342,-19.5 342,-0.5 273,-0.5"/>
<text text-anchor="middle" x="307.5" y="-7.5" font-family="Helvetica,sans-Serif" font-size="10.00">menu_scroll</text>
</a>
</g>
</g>
<!-- Node12&#45;&gt;Node17 -->
<g id="edge19" class="edge"><title>Node12&#45;&gt;Node17</title>
<path fill="none" stroke="midnightblue" d="M186.396,-66.4583C204.199,-56.5638 233.181,-40.9048 259,-29 263.103,-27.108 267.452,-25.2176 271.786,-23.4029"/>
<polygon fill="midnightblue" stroke="midnightblue" points="273.215,-26.6001 281.15,-19.5799 270.569,-20.1194 273.215,-26.6001"/>
</g>
<!-- Node14 -->
<g id="node14" class="node"><title>Node14</title>
<g id="a_node14"><a xlink:href="lcd_8c.html#a2a4df97ebc5b396233aa31765228ef42" target="_top" xlink:title="lcd_set_courser">
<polygon fill="white" stroke="black" points="513,-114.5 513,-133.5 599,-133.5 599,-114.5 513,-114.5"/>
<text text-anchor="middle" x="556" y="-121.5" font-family="Helvetica,sans-Serif" font-size="10.00">lcd_set_courser</text>
</a>
</g>
</g>
<!-- Node13&#45;&gt;Node14 -->
<g id="edge14" class="edge"><title>Node13&#45;&gt;Node14</title>
<path fill="none" stroke="midnightblue" d="M465.655,-95.589C480.657,-100.359 498.988,-106.189 515.134,-111.323"/>
<polygon fill="midnightblue" stroke="midnightblue" points="514.264,-114.719 524.855,-114.414 516.386,-108.048 514.264,-114.719"/>
</g>
<!-- Node15 -->
<g id="node15" class="node"><title>Node15</title>
<g id="a_node15"><a xlink:href="lcd_8c.html#aa6e1aa2ef9b677e16d8198df683429ec" target="_top" xlink:title="lcd_write_string">
<polygon fill="white" stroke="black" points="635,-76.5 635,-95.5 719,-95.5 719,-76.5 635,-76.5"/>
<text text-anchor="middle" x="677" y="-83.5" font-family="Helvetica,sans-Serif" font-size="10.00">lcd_write_string</text>
</a>
</g>
</g>
<!-- Node13&#45;&gt;Node15 -->
<g id="edge16" class="edge"><title>Node13&#45;&gt;Node15</title>
<path fill="none" stroke="midnightblue" d="M477.117,-86C518.066,-86 580.678,-86 624.687,-86"/>
<polygon fill="midnightblue" stroke="midnightblue" points="624.892,-89.5001 634.892,-86 624.892,-82.5001 624.892,-89.5001"/>
</g>
<!-- Node14&#45;&gt;Node3 -->
<g id="edge15" class="edge"><title>Node14&#45;&gt;Node3</title>
<path fill="none" stroke="midnightblue" d="M599.29,-124C608.611,-124 618.549,-124 628.075,-124"/>
<polygon fill="midnightblue" stroke="midnightblue" points="628.202,-127.5 638.202,-124 628.202,-120.5 628.202,-127.5"/>
</g>
<!-- Node15&#45;&gt;Node4 -->
<g id="edge17" class="edge"><title>Node15&#45;&gt;Node4</title>
<path fill="none" stroke="midnightblue" d="M719.069,-86C727.413,-86 736.234,-86 744.715,-86"/>
<polygon fill="midnightblue" stroke="midnightblue" points="744.836,-89.5001 754.836,-86 744.836,-82.5001 744.836,-89.5001"/>
</g>
<!-- Node17&#45;&gt;Node13 -->
<g id="edge20" class="edge"><title>Node17&#45;&gt;Node13</title>
<path fill="none" stroke="midnightblue" d="M336.177,-19.6983C342.822,-22.3979 349.79,-25.5479 356,-29 377.112,-40.7351 399.103,-57.4017 414.243,-69.6831"/>
<polygon fill="midnightblue" stroke="midnightblue" points="412.366,-72.6722 422.307,-76.3371 416.821,-67.273 412.366,-72.6722"/>
</g>
</g>
</svg>
