<?xml version="1.0" encoding="UTF-8" standalone="no"?>
<!DOCTYPE svg PUBLIC "-//W3C//DTD SVG 1.1//EN"
 "http://www.w3.org/Graphics/SVG/1.1/DTD/svg11.dtd">
<!-- Generated by graphviz version 2.38.0 (20140413.2041)
 -->
<!-- Title: radio_settings_volume Pages: 1 -->
<svg width="1148pt" height="218pt"
 viewBox="0.00 0.00 1148.00 218.00" xmlns="http://www.w3.org/2000/svg" xmlns:xlink="http://www.w3.org/1999/xlink">
<g id="graph0" class="graph" transform="scale(1 1) rotate(0) translate(4 214)">
<title>radio_settings_volume</title>
<polygon fill="white" stroke="none" points="-4,4 -4,-214 1144,-214 1144,4 -4,4"/>
<!-- Node1 -->
<g id="node1" class="node"><title>Node1</title>
<polygon fill="#bfbfbf" stroke="black" points="0,-133.5 0,-152.5 113,-152.5 113,-133.5 0,-133.5"/>
<text text-anchor="middle" x="56.5" y="-140.5" font-family="Helvetica,sans-Serif" font-size="10.00">radio_settings_volume</text>
</g>
<!-- Node2 -->
<g id="node2" class="node"><title>Node2</title>
<g id="a_node2"><a xlink:href="flash_8h.html#ad9d8a7cadb959b139fea7654d539714a" target="_top" xlink:title="flash_read">
<polygon fill="white" stroke="black" points="312,-190.5 312,-209.5 373,-209.5 373,-190.5 312,-190.5"/>
<text text-anchor="middle" x="342.5" y="-197.5" font-family="Helvetica,sans-Serif" font-size="10.00">flash_read</text>
</a>
</g>
</g>
<!-- Node1&#45;&gt;Node2 -->
<g id="edge1" class="edge"><title>Node1&#45;&gt;Node2</title>
<path fill="none" stroke="midnightblue" d="M75.8721,-152.533C93.9646,-161.458 122.641,-174.381 149,-181 200.616,-193.96 262.094,-198.156 301.445,-199.471"/>
<polygon fill="midnightblue" stroke="midnightblue" points="301.589,-202.977 311.685,-199.765 301.79,-195.98 301.589,-202.977"/>
</g>
<!-- Node3 -->
<g id="node3" class="node"><title>Node3</title>
<g id="a_node3"><a xlink:href="radio_8h.html#ae11dbe9ea82d3ae65b6e80a4e6e995f8" target="_top" xlink:title="Definition of functions for: &#45;Set the volume &#45;Set the settings &#45;Seeking frequency &#45;Radio main &#45;Init t...">
<polygon fill="white" stroke="black" points="554.5,-114.5 554.5,-133.5 627.5,-133.5 627.5,-114.5 554.5,-114.5"/>
<text text-anchor="middle" x="591" y="-121.5" font-family="Helvetica,sans-Serif" font-size="10.00">radio_volume</text>
</a>
</g>
</g>
<!-- Node1&#45;&gt;Node3 -->
<g id="edge2" class="edge"><title>Node1&#45;&gt;Node3</title>
<path fill="none" stroke="midnightblue" d="M113.23,-141.012C218.991,-137.238 446.926,-129.105 544.341,-125.629"/>
<polygon fill="midnightblue" stroke="midnightblue" points="544.589,-129.123 554.458,-125.268 544.339,-122.127 544.589,-129.123"/>
</g>
<!-- Node12 -->
<g id="node12" class="node"><title>Node12</title>
<g id="a_node12"><a xlink:href="radio_8h.html#a477656bb91c200d15ddbe6cffcd04c53" target="_top" xlink:title="Store the current settings. ">
<polygon fill="white" stroke="black" points="151.5,-152.5 151.5,-171.5 255.5,-171.5 255.5,-152.5 151.5,-152.5"/>
<text text-anchor="middle" x="203.5" y="-159.5" font-family="Helvetica,sans-Serif" font-size="10.00">radio_store_settings</text>
</a>
</g>
</g>
<!-- Node1&#45;&gt;Node12 -->
<g id="edge12" class="edge"><title>Node1&#45;&gt;Node12</title>
<path fill="none" stroke="midnightblue" d="M113.146,-150.292C122.296,-151.49 131.824,-152.739 141.104,-153.955"/>
<polygon fill="midnightblue" stroke="midnightblue" points="140.677,-157.429 151.047,-155.258 141.586,-150.488 140.677,-157.429"/>
</g>
<!-- Node15 -->
<g id="node15" class="node"><title>Node15</title>
<g id="a_node15"><a xlink:href="menu_8h.html#a5621c1bf312de029f43808bf02dc52e3" target="_top" xlink:title="Scroll through the settings. ">
<polygon fill="white" stroke="black" points="149,-57.5 149,-76.5 258,-76.5 258,-57.5 149,-57.5"/>
<text text-anchor="middle" x="203.5" y="-64.5" font-family="Helvetica,sans-Serif" font-size="10.00">menu_scroll_settings</text>
</a>
</g>
</g>
<!-- Node1&#45;&gt;Node15 -->
<g id="edge16" class="edge"><title>Node1&#45;&gt;Node15</title>
<path fill="none" stroke="midnightblue" d="M75.8644,-133.375C100.923,-120.24 146.028,-96.599 175.095,-81.3642"/>
<polygon fill="midnightblue" stroke="midnightblue" points="177.052,-84.2897 184.285,-76.5473 173.803,-78.0897 177.052,-84.2897"/>
</g>
<!-- Node4 -->
<g id="node4" class="node"><title>Node4</title>
<g id="a_node4"><a xlink:href="external__interrupthandler_8h.html#a345dfb9a7e177c5da6eb9dc5b3c82bc9" target="_top" xlink:title="ext_interrupt_enable">
<polygon fill="white" stroke="black" points="671.5,-114.5 671.5,-133.5 775.5,-133.5 775.5,-114.5 671.5,-114.5"/>
<text text-anchor="middle" x="723.5" y="-121.5" font-family="Helvetica,sans-Serif" font-size="10.00">ext_interrupt_enable</text>
</a>
</g>
</g>
<!-- Node3&#45;&gt;Node4 -->
<g id="edge3" class="edge"><title>Node3&#45;&gt;Node4</title>
<path fill="none" stroke="midnightblue" d="M627.66,-124C638.049,-124 649.709,-124 661.204,-124"/>
<polygon fill="midnightblue" stroke="midnightblue" points="661.227,-127.5 671.227,-124 661.227,-120.5 661.227,-127.5"/>
</g>
<!-- Node5 -->
<g id="node5" class="node"><title>Node5</title>
<g id="a_node5"><a xlink:href="si4735_8h.html#aadc29a91f13cd5ebe239b23c7e5370dc" target="_top" xlink:title="si4735_set_property">
<polygon fill="white" stroke="black" points="671.5,-152.5 671.5,-171.5 775.5,-171.5 775.5,-152.5 671.5,-152.5"/>
<text text-anchor="middle" x="723.5" y="-159.5" font-family="Helvetica,sans-Serif" font-size="10.00">si4735_set_property</text>
</a>
</g>
</g>
<!-- Node3&#45;&gt;Node5 -->
<g id="edge4" class="edge"><title>Node3&#45;&gt;Node5</title>
<path fill="none" stroke="midnightblue" d="M624.931,-133.589C641.622,-138.449 662.089,-144.409 679.96,-149.613"/>
<polygon fill="midnightblue" stroke="midnightblue" points="679,-152.979 689.58,-152.414 680.957,-146.258 679,-152.979"/>
</g>
<!-- Node10 -->
<g id="node10" class="node"><title>Node10</title>
<g id="a_node10"><a xlink:href="external__interrupthandler_8h.html#a67fb5781413cf5c193be332cc6e52209" target="_top" xlink:title="ext_interrupt_disable">
<polygon fill="white" stroke="black" points="670,-190.5 670,-209.5 777,-209.5 777,-190.5 670,-190.5"/>
<text text-anchor="middle" x="723.5" y="-197.5" font-family="Helvetica,sans-Serif" font-size="10.00">ext_interrupt_disable</text>
</a>
</g>
</g>
<!-- Node3&#45;&gt;Node10 -->
<g id="edge9" class="edge"><title>Node3&#45;&gt;Node10</title>
<path fill="none" stroke="midnightblue" d="M602.952,-133.577C617.463,-145.883 644.239,-167.287 670,-181 673.802,-183.024 677.866,-184.918 681.987,-186.666"/>
<polygon fill="midnightblue" stroke="midnightblue" points="681.021,-190.047 691.607,-190.472 683.596,-183.538 681.021,-190.047"/>
</g>
<!-- Node11 -->
<g id="node11" class="node"><title>Node11</title>
<g id="a_node11"><a xlink:href="timer_8c.html#a276d5cb665b9f8b2c79e53e2f2c5b4f0" target="_top" xlink:title="_delay_ms">
<polygon fill="white" stroke="black" points="833,-76.5 833,-95.5 897,-95.5 897,-76.5 833,-76.5"/>
<text text-anchor="middle" x="865" y="-83.5" font-family="Helvetica,sans-Serif" font-size="10.00">_delay_ms</text>
</a>
</g>
</g>
<!-- Node3&#45;&gt;Node11 -->
<g id="edge10" class="edge"><title>Node3&#45;&gt;Node11</title>
<path fill="none" stroke="midnightblue" d="M626.726,-114.427C640.157,-111.019 655.71,-107.428 670,-105 722.372,-96.1026 783.458,-90.9729 822.881,-88.3356"/>
<polygon fill="midnightblue" stroke="midnightblue" points="823.156,-91.8252 832.909,-87.6873 822.704,-84.8398 823.156,-91.8252"/>
</g>
<!-- Node6 -->
<g id="node6" class="node"><title>Node6</title>
<g id="a_node6"><a xlink:href="i2c_8h.html#a6691e5911f539e1e8178c6e983e8079a" target="_top" xlink:title="Transmits I2C commands with a variable length to a I2C slave. ">
<polygon fill="white" stroke="black" points="829,-38.5 829,-57.5 901,-57.5 901,-38.5 829,-38.5"/>
<text text-anchor="middle" x="865" y="-45.5" font-family="Helvetica,sans-Serif" font-size="10.00">i2c_write_var</text>
</a>
</g>
</g>
<!-- Node5&#45;&gt;Node6 -->
<g id="edge5" class="edge"><title>Node5&#45;&gt;Node6</title>
<path fill="none" stroke="midnightblue" d="M762.402,-152.397C767.699,-149.93 772.768,-146.847 777,-143 804.655,-117.858 785.463,-92.2714 813,-67 814.98,-65.1832 817.149,-63.5356 819.441,-62.042"/>
<polygon fill="midnightblue" stroke="midnightblue" points="821.616,-64.8451 828.751,-57.0125 818.289,-58.6864 821.616,-64.8451"/>
</g>
<!-- Node9 -->
<g id="node9" class="node"><title>Node9</title>
<g id="a_node9"><a xlink:href="si4735_8c.html#aad8341b5b19aa8f962a6b9b940d77960" target="_top" xlink:title="si4735_get_interrupt">
<polygon fill="white" stroke="black" points="813,-152.5 813,-171.5 917,-171.5 917,-152.5 813,-152.5"/>
<text text-anchor="middle" x="865" y="-159.5" font-family="Helvetica,sans-Serif" font-size="10.00">si4735_get_interrupt</text>
</a>
</g>
</g>
<!-- Node5&#45;&gt;Node9 -->
<g id="edge8" class="edge"><title>Node5&#45;&gt;Node9</title>
<path fill="none" stroke="midnightblue" d="M775.653,-162C784.466,-162 793.707,-162 802.754,-162"/>
<polygon fill="midnightblue" stroke="midnightblue" points="802.854,-165.5 812.854,-162 802.854,-158.5 802.854,-165.5"/>
</g>
<!-- Node7 -->
<g id="node7" class="node"><title>Node7</title>
<g id="a_node7"><a xlink:href="i2c_8c.html#ae0625b97d3437bcaca4ac4b96dd01978" target="_top" xlink:title="Transmits I2C command array to a I2C slave. ">
<polygon fill="white" stroke="black" points="953,-38.5 953,-57.5 1024,-57.5 1024,-38.5 953,-38.5"/>
<text text-anchor="middle" x="988.5" y="-45.5" font-family="Helvetica,sans-Serif" font-size="10.00">i2c_write_arr</text>
</a>
</g>
</g>
<!-- Node6&#45;&gt;Node7 -->
<g id="edge6" class="edge"><title>Node6&#45;&gt;Node7</title>
<path fill="none" stroke="midnightblue" d="M901.143,-48C914.1,-48 928.959,-48 942.657,-48"/>
<polygon fill="midnightblue" stroke="midnightblue" points="942.856,-51.5001 952.856,-48 942.856,-44.5001 942.856,-51.5001"/>
</g>
<!-- Node8 -->
<g id="node8" class="node"><title>Node8</title>
<g id="a_node8"><a xlink:href="timer_8c.html#a3c56af3315c2461dec5ced585a5f84db" target="_top" xlink:title="_delay_ten_us">
<polygon fill="white" stroke="black" points="1060,-57.5 1060,-76.5 1140,-76.5 1140,-57.5 1060,-57.5"/>
<text text-anchor="middle" x="1100" y="-64.5" font-family="Helvetica,sans-Serif" font-size="10.00">_delay_ten_us</text>
</a>
</g>
</g>
<!-- Node7&#45;&gt;Node8 -->
<g id="edge7" class="edge"><title>Node7&#45;&gt;Node8</title>
<path fill="none" stroke="midnightblue" d="M1024.15,-54.0117C1032.25,-55.4183 1041.04,-56.9433 1049.65,-58.4371"/>
<polygon fill="midnightblue" stroke="midnightblue" points="1049.17,-61.9062 1059.62,-60.1674 1050.37,-55.0092 1049.17,-61.9062"/>
</g>
<!-- Node11&#45;&gt;Node8 -->
<g id="edge11" class="edge"><title>Node11&#45;&gt;Node8</title>
<path fill="none" stroke="midnightblue" d="M897.423,-83.4376C936.572,-80.2452 1003.9,-74.7547 1049.89,-71.0049"/>
<polygon fill="midnightblue" stroke="midnightblue" points="1050.25,-74.487 1059.93,-70.1857 1049.68,-67.5101 1050.25,-74.487"/>
</g>
<!-- Node12&#45;&gt;Node2 -->
<g id="edge13" class="edge"><title>Node12&#45;&gt;Node2</title>
<path fill="none" stroke="midnightblue" d="M239.071,-171.589C258.194,-176.893 282.036,-183.506 301.905,-189.017"/>
<polygon fill="midnightblue" stroke="midnightblue" points="301.022,-192.405 311.593,-191.705 302.893,-185.659 301.022,-192.405"/>
</g>
<!-- Node13 -->
<g id="node13" class="node"><title>Node13</title>
<g id="a_node13"><a xlink:href="flash_8h.html#a936ded19cea6a94beca2b32349a9ac2c" target="_top" xlink:title="flash_store">
<polygon fill="white" stroke="black" points="310.5,-152.5 310.5,-171.5 374.5,-171.5 374.5,-152.5 310.5,-152.5"/>
<text text-anchor="middle" x="342.5" y="-159.5" font-family="Helvetica,sans-Serif" font-size="10.00">flash_store</text>
</a>
</g>
</g>
<!-- Node12&#45;&gt;Node13 -->
<g id="edge14" class="edge"><title>Node12&#45;&gt;Node13</title>
<path fill="none" stroke="midnightblue" d="M255.514,-162C270.185,-162 286.002,-162 300.022,-162"/>
<polygon fill="midnightblue" stroke="midnightblue" points="300.343,-165.5 310.343,-162 300.343,-158.5 300.343,-165.5"/>
</g>
<!-- Node14 -->
<g id="node14" class="node"><title>Node14</title>
<g id="a_node14"><a xlink:href="flash_8c.html#ad9d8a7cadb959b139fea7654d539714a" target="_top" xlink:title="flash_read">
<polygon fill="white" stroke="black" points="439,-152.5 439,-171.5 500,-171.5 500,-152.5 439,-152.5"/>
<text text-anchor="middle" x="469.5" y="-159.5" font-family="Helvetica,sans-Serif" font-size="10.00">flash_read</text>
</a>
</g>
</g>
<!-- Node13&#45;&gt;Node14 -->
<g id="edge15" class="edge"><title>Node13&#45;&gt;Node14</title>
<path fill="none" stroke="midnightblue" d="M374.72,-162C391.009,-162 411.116,-162 428.53,-162"/>
<polygon fill="midnightblue" stroke="midnightblue" points="428.966,-165.5 438.966,-162 428.966,-158.5 428.966,-165.5"/>
</g>
<!-- Node16 -->
<g id="node16" class="node"><title>Node16</title>
<g id="a_node16"><a xlink:href="lcd_8h.html#acd63fb85d212730fa4fcbcbeeccd231e" target="_top" xlink:title="lcd_create_view">
<polygon fill="white" stroke="black" points="427,-38.5 427,-57.5 512,-57.5 512,-38.5 427,-38.5"/>
<text text-anchor="middle" x="469.5" y="-45.5" font-family="Helvetica,sans-Serif" font-size="10.00">lcd_create_view</text>
</a>
</g>
</g>
<!-- Node15&#45;&gt;Node16 -->
<g id="edge17" class="edge"><title>Node15&#45;&gt;Node16</title>
<path fill="none" stroke="midnightblue" d="M258.165,-70.3987C295.543,-71.9366 346.479,-72.3777 391,-67 402.914,-65.5609 415.639,-62.9202 427.261,-60.0559"/>
<polygon fill="midnightblue" stroke="midnightblue" points="428.335,-63.3935 437.144,-57.5058 426.586,-56.6155 428.335,-63.3935"/>
</g>
<!-- Node20 -->
<g id="node20" class="node"><title>Node20</title>
<g id="a_node20"><a xlink:href="string_8c.html#a82b1b882cf97ff40344f87bd1473e9d0" target="_top" xlink:title="string_int_to_array">
<polygon fill="white" stroke="black" points="294,-0.5 294,-19.5 391,-19.5 391,-0.5 294,-0.5"/>
<text text-anchor="middle" x="342.5" y="-7.5" font-family="Helvetica,sans-Serif" font-size="10.00">string_int_to_array</text>
</a>
</g>
</g>
<!-- Node15&#45;&gt;Node20 -->
<g id="edge24" class="edge"><title>Node15&#45;&gt;Node20</title>
<path fill="none" stroke="midnightblue" d="M226.882,-57.343C244.953,-49.5832 271.058,-38.4574 294,-29 298.485,-27.1509 303.219,-25.2259 307.892,-23.3414"/>
<polygon fill="midnightblue" stroke="midnightblue" points="309.319,-26.5402 317.296,-19.5679 306.712,-20.0437 309.319,-26.5402"/>
</g>
<!-- Node21 -->
<g id="node21" class="node"><title>Node21</title>
<g id="a_node21"><a xlink:href="menu_8c.html#a503ed2007daa6f20b2f748eedbcb8494" target="_top" xlink:title="Scroll to given position. ">
<polygon fill="white" stroke="black" points="308,-38.5 308,-57.5 377,-57.5 377,-38.5 308,-38.5"/>
<text text-anchor="middle" x="342.5" y="-45.5" font-family="Helvetica,sans-Serif" font-size="10.00">menu_scroll</text>
</a>
</g>
</g>
<!-- Node15&#45;&gt;Node21 -->
<g id="edge25" class="edge"><title>Node15&#45;&gt;Node21</title>
<path fill="none" stroke="midnightblue" d="M258.253,-59.5452C271.254,-57.7421 285,-55.8358 297.494,-54.1031"/>
<polygon fill="midnightblue" stroke="midnightblue" points="298.226,-57.5352 307.65,-52.6945 297.264,-50.6015 298.226,-57.5352"/>
</g>
<!-- Node17 -->
<g id="node17" class="node"><title>Node17</title>
<g id="a_node17"><a xlink:href="lcd_8c.html#a2a4df97ebc5b396233aa31765228ef42" target="_top" xlink:title="lcd_set_courser">
<polygon fill="white" stroke="black" points="548,-38.5 548,-57.5 634,-57.5 634,-38.5 548,-38.5"/>
<text text-anchor="middle" x="591" y="-45.5" font-family="Helvetica,sans-Serif" font-size="10.00">lcd_set_courser</text>
</a>
</g>
</g>
<!-- Node16&#45;&gt;Node17 -->
<g id="edge18" class="edge"><title>Node16&#45;&gt;Node17</title>
<path fill="none" stroke="midnightblue" d="M512.295,-48C520.43,-48 529.054,-48 537.483,-48"/>
<polygon fill="midnightblue" stroke="midnightblue" points="537.622,-51.5001 547.622,-48 537.622,-44.5001 537.622,-51.5001"/>
</g>
<!-- Node19 -->
<g id="node19" class="node"><title>Node19</title>
<g id="a_node19"><a xlink:href="lcd_8c.html#aa6e1aa2ef9b677e16d8198df683429ec" target="_top" xlink:title="lcd_write_string">
<polygon fill="white" stroke="black" points="549,-0.5 549,-19.5 633,-19.5 633,-0.5 549,-0.5"/>
<text text-anchor="middle" x="591" y="-7.5" font-family="Helvetica,sans-Serif" font-size="10.00">lcd_write_string</text>
</a>
</g>
</g>
<!-- Node16&#45;&gt;Node19 -->
<g id="edge22" class="edge"><title>Node16&#45;&gt;Node19</title>
<path fill="none" stroke="midnightblue" d="M500.655,-38.411C515.657,-33.6406 533.988,-27.8112 550.134,-22.6771"/>
<polygon fill="midnightblue" stroke="midnightblue" points="551.386,-25.9518 559.855,-19.5859 549.264,-19.281 551.386,-25.9518"/>
</g>
<!-- Node18 -->
<g id="node18" class="node"><title>Node18</title>
<g id="a_node18"><a xlink:href="lcd_8c.html#a250728451a22259562d3f01a12bbd77b" target="_top" xlink:title="lcd_command">
<polygon fill="white" stroke="black" points="685,-38.5 685,-57.5 762,-57.5 762,-38.5 685,-38.5"/>
<text text-anchor="middle" x="723.5" y="-45.5" font-family="Helvetica,sans-Serif" font-size="10.00">lcd_command</text>
</a>
</g>
</g>
<!-- Node17&#45;&gt;Node18 -->
<g id="edge19" class="edge"><title>Node17&#45;&gt;Node18</title>
<path fill="none" stroke="midnightblue" d="M634.009,-48C647.072,-48 661.564,-48 674.975,-48"/>
<polygon fill="midnightblue" stroke="midnightblue" points="674.978,-51.5001 684.978,-48 674.978,-44.5001 674.978,-51.5001"/>
</g>
<!-- Node18&#45;&gt;Node6 -->
<g id="edge20" class="edge"><title>Node18&#45;&gt;Node6</title>
<path fill="none" stroke="midnightblue" d="M762.251,-48C779.599,-48 800.32,-48 818.521,-48"/>
<polygon fill="midnightblue" stroke="midnightblue" points="818.618,-51.5001 828.618,-48 818.618,-44.5001 818.618,-51.5001"/>
</g>
<!-- Node18&#45;&gt;Node11 -->
<g id="edge21" class="edge"><title>Node18&#45;&gt;Node11</title>
<path fill="none" stroke="midnightblue" d="M759.702,-57.589C778.897,-62.8179 802.763,-69.319 822.819,-74.7823"/>
<polygon fill="midnightblue" stroke="midnightblue" points="822.049,-78.2 832.617,-77.4513 823.889,-71.4461 822.049,-78.2"/>
</g>
<!-- Node19&#45;&gt;Node6 -->
<g id="edge23" class="edge"><title>Node19&#45;&gt;Node6</title>
<path fill="none" stroke="midnightblue" d="M633.321,-12.9034C670.928,-15.8635 727.903,-21.1432 777,-29 790.625,-31.1803 805.324,-34.1497 818.692,-37.093"/>
<polygon fill="midnightblue" stroke="midnightblue" points="818.091,-40.5453 828.616,-39.3252 819.628,-33.7159 818.091,-40.5453"/>
</g>
<!-- Node21&#45;&gt;Node16 -->
<g id="edge26" class="edge"><title>Node21&#45;&gt;Node16</title>
<path fill="none" stroke="midnightblue" d="M377.327,-48C389.308,-48 403.083,-48 416.237,-48"/>
<polygon fill="midnightblue" stroke="midnightblue" points="416.607,-51.5001 426.607,-48 416.607,-44.5001 416.607,-51.5001"/>
</g>
</g>
</svg>
