<?xml version="1.0" encoding="UTF-8" standalone="no"?>
<!DOCTYPE svg PUBLIC "-//W3C//DTD SVG 1.1//EN"
 "http://www.w3.org/Graphics/SVG/1.1/DTD/svg11.dtd">
<!-- Generated by graphviz version 2.38.0 (20140413.2041)
 -->
<!-- Title: radio_frequency Pages: 1 -->
<!--zoomable 268 -->
<svg id="main" version="1.1" xmlns="http://www.w3.org/2000/svg" xmlns:xlink="http://www.w3.org/1999/xlink" xml:space="preserve" onload="init(evt)">
<style type="text/css"><![CDATA[
.edge:hover path { stroke: red; }
.edge:hover polygon { stroke: red; fill: red; }
]]></style>
<script type="text/javascript"><![CDATA[
var edges = document.getElementsByTagName('g');
if (edges && edges.length) {
  for (var i=0;i<edges.length;i++) {
    if (edges[i].id.substr(0,4)=='edge') {
      edges[i].setAttribute('class','edge');
    }
  }
}
]]></script>
        <defs>
                <circle id="rim" cx="0" cy="0" r="7"/>
                <circle id="rim2" cx="0" cy="0" r="3.5"/>
                <g id="zoomPlus">
                        <use xlink:href="#rim" fill="#404040">
                                <set attributeName="fill" to="#808080" begin="zoomplus.mouseover" end="zoomplus.mouseout"/>
                        </use>
                        <path d="M-4,0h8M0,-4v8" fill="none" stroke="white" stroke-width="1.5" pointer-events="none"/>
                </g>
                <g id="zoomMin">
                        <use xlink:href="#rim" fill="#404040">
                                <set attributeName="fill" to="#808080" begin="zoomminus.mouseover" end="zoomminus.mouseout"/>
                        </use>
                        <path d="M-4,0h8" fill="none" stroke="white" stroke-width="1.5" pointer-events="none"/>
                </g>
                <g id="dirArrow">
                        <path fill="none" stroke="white" stroke-width="1.5" d="M0,-3.0v7 M-2.5,-0.5L0,-3.0L2.5,-0.5"/>
                </g>
               <g id="resetDef">
                       <use xlink:href="#rim2" fill="#404040">
                               <set attributeName="fill" to="#808080" begin="reset.mouseover" end="reset.mouseout"/>
                       </use>
               </g>
        </defs>

<script type="text/javascript">
var viewWidth = 1104;
var viewHeight = 268;
var sectionId = 'dynsection-9';
</script>
<script xlink:href="svgpan.js"/>
<svg id="graph" class="graph">
<g id="viewport">
<title>radio_frequency</title>
<polygon fill="white" stroke="none" points="-4,4 -4,-264 1100,-264 1100,4 -4,4"/>
<!-- Node1 -->
<g id="node1" class="node"><title>Node1</title>
<polygon fill="#bfbfbf" stroke="black" points="0,-51.5 0,-70.5 85,-70.5 85,-51.5 0,-51.5"/>
<text text-anchor="middle" x="42.5" y="-58.5" font-family="Helvetica,sans-Serif" font-size="10.00">radio_frequency</text>
</g>
<!-- Node2 -->
<g id="node2" class="node"><title>Node2</title>
<g id="a_node2"><a xlink:href="radio_8c.html#a477656bb91c200d15ddbe6cffcd04c53" target="_top" xlink:title="radio_store_settings">
<polygon fill="white" stroke="black" points="258,-1.5 258,-20.5 362,-20.5 362,-1.5 258,-1.5"/>
<text text-anchor="middle" x="310" y="-8.5" font-family="Helvetica,sans-Serif" font-size="10.00">radio_store_settings</text>
</a>
</g>
</g>
<!-- Node1&#45;&gt;Node2 -->
<g id="edge1" class="edge"><title>Node1&#45;&gt;Node2</title>
<path fill="none" stroke="midnightblue" d="M85.2764,-53.1325C129.131,-44.8736 198.509,-31.8081 248.382,-22.4159"/>
<polygon fill="midnightblue" stroke="midnightblue" points="249.217,-25.8201 258.397,-20.5298 247.922,-18.941 249.217,-25.8201"/>
</g>
<!-- Node6 -->
<g id="node6" class="node"><title>Node6</title>
<g id="a_node6"><a xlink:href="station__list_8c.html#a5b16204c2b6824ce89364d614f074b20" target="_top" xlink:title="station_list_handler">
<polygon fill="white" stroke="black" points="121,-80.5 121,-99.5 222,-99.5 222,-80.5 121,-80.5"/>
<text text-anchor="middle" x="171.5" y="-87.5" font-family="Helvetica,sans-Serif" font-size="10.00">station_list_handler</text>
</a>
</g>
</g>
<!-- Node1&#45;&gt;Node6 -->
<g id="edge5" class="edge"><title>Node1&#45;&gt;Node6</title>
<path fill="none" stroke="midnightblue" d="M85.0845,-70.4957C95.9391,-72.9743 107.767,-75.6752 119.067,-78.2553"/>
<polygon fill="midnightblue" stroke="midnightblue" points="118.294,-81.6689 128.822,-80.483 119.852,-74.8446 118.294,-81.6689"/>
</g>
<!-- Node3 -->
<g id="node3" class="node"><title>Node3</title>
<g id="a_node3"><a xlink:href="flash_8h.html#ad9d8a7cadb959b139fea7654d539714a" target="_top" xlink:title="flash_read">
<polygon fill="white" stroke="black" points="421,-0.5 421,-19.5 482,-19.5 482,-0.5 421,-0.5"/>
<text text-anchor="middle" x="451.5" y="-7.5" font-family="Helvetica,sans-Serif" font-size="10.00">flash_read</text>
</a>
</g>
</g>
<!-- Node2&#45;&gt;Node3 -->
<g id="edge2" class="edge"><title>Node2&#45;&gt;Node3</title>
<path fill="none" stroke="midnightblue" d="M362.153,-10.6333C378.2,-10.5183 395.665,-10.3931 410.797,-10.2846"/>
<polygon fill="midnightblue" stroke="midnightblue" points="410.88,-13.7842 420.854,-10.2125 410.829,-6.78439 410.88,-13.7842"/>
</g>
<!-- Node4 -->
<g id="node4" class="node"><title>Node4</title>
<g id="a_node4"><a xlink:href="flash_8h.html#a936ded19cea6a94beca2b32349a9ac2c" target="_top" xlink:title="flash_store">
<polygon fill="white" stroke="black" points="419.5,-38.5 419.5,-57.5 483.5,-57.5 483.5,-38.5 419.5,-38.5"/>
<text text-anchor="middle" x="451.5" y="-45.5" font-family="Helvetica,sans-Serif" font-size="10.00">flash_store</text>
</a>
</g>
</g>
<!-- Node2&#45;&gt;Node4 -->
<g id="edge3" class="edge"><title>Node2&#45;&gt;Node4</title>
<path fill="none" stroke="midnightblue" d="M346.925,-20.5284C366.124,-25.6206 389.834,-31.9093 409.722,-37.1843"/>
<polygon fill="midnightblue" stroke="midnightblue" points="408.872,-40.5798 419.435,-39.7605 410.666,-33.8137 408.872,-40.5798"/>
</g>
<!-- Node5 -->
<g id="node5" class="node"><title>Node5</title>
<g id="a_node5"><a xlink:href="flash_8c.html#ad9d8a7cadb959b139fea7654d539714a" target="_top" xlink:title="flash_read">
<polygon fill="white" stroke="black" points="562.5,-38.5 562.5,-57.5 623.5,-57.5 623.5,-38.5 562.5,-38.5"/>
<text text-anchor="middle" x="593" y="-45.5" font-family="Helvetica,sans-Serif" font-size="10.00">flash_read</text>
</a>
</g>
</g>
<!-- Node4&#45;&gt;Node5 -->
<g id="edge4" class="edge"><title>Node4&#45;&gt;Node5</title>
<path fill="none" stroke="midnightblue" d="M483.807,-48C503.964,-48 530.352,-48 552.021,-48"/>
<polygon fill="midnightblue" stroke="midnightblue" points="552.232,-51.5001 562.231,-48 552.231,-44.5001 552.232,-51.5001"/>
</g>
<!-- Node7 -->
<g id="node7" class="node"><title>Node7</title>
<g id="a_node7"><a xlink:href="radio_8h.html#a5e5300f73411d8e90a928adf42d2a6ed" target="_top" xlink:title="radio_store_station">
<polygon fill="white" stroke="black" points="260.5,-80.5 260.5,-99.5 359.5,-99.5 359.5,-80.5 260.5,-80.5"/>
<text text-anchor="middle" x="310" y="-87.5" font-family="Helvetica,sans-Serif" font-size="10.00">radio_store_station</text>
</a>
</g>
</g>
<!-- Node6&#45;&gt;Node7 -->
<g id="edge6" class="edge"><title>Node6&#45;&gt;Node7</title>
<path fill="none" stroke="midnightblue" d="M222.166,-90C231.138,-90 240.574,-90 249.787,-90"/>
<polygon fill="midnightblue" stroke="midnightblue" points="250.056,-93.5001 260.056,-90 250.056,-86.5001 250.056,-93.5001"/>
</g>
<!-- Node9 -->
<g id="node9" class="node"><title>Node9</title>
<g id="a_node9"><a xlink:href="radio_8h.html#a6d652e9d0f1c54bfe9ec73fe2605b706" target="_top" xlink:title="radio_tune_freq">
<polygon fill="white" stroke="black" points="268.5,-183.5 268.5,-202.5 351.5,-202.5 351.5,-183.5 268.5,-183.5"/>
<text text-anchor="middle" x="310" y="-190.5" font-family="Helvetica,sans-Serif" font-size="10.00">radio_tune_freq</text>
</a>
</g>
</g>
<!-- Node6&#45;&gt;Node9 -->
<g id="edge9" class="edge"><title>Node6&#45;&gt;Node9</title>
<path fill="none" stroke="midnightblue" d="M185.097,-99.5054C208.543,-117.197 259.103,-155.349 287.864,-177.051"/>
<polygon fill="midnightblue" stroke="midnightblue" points="285.945,-179.988 296.035,-183.217 290.161,-174.4 285.945,-179.988"/>
</g>
<!-- Node18 -->
<g id="node18" class="node"><title>Node18</title>
<g id="a_node18"><a xlink:href="radio_8h.html#a477656bb91c200d15ddbe6cffcd04c53" target="_top" xlink:title="radio_store_settings">
<polygon fill="white" stroke="black" points="258,-39.5 258,-58.5 362,-58.5 362,-39.5 258,-39.5"/>
<text text-anchor="middle" x="310" y="-46.5" font-family="Helvetica,sans-Serif" font-size="10.00">radio_store_settings</text>
</a>
</g>
</g>
<!-- Node6&#45;&gt;Node18 -->
<g id="edge18" class="edge"><title>Node6&#45;&gt;Node18</title>
<path fill="none" stroke="midnightblue" d="M204.159,-80.4907C222.974,-74.8392 247.058,-67.6054 267.396,-61.4964"/>
<polygon fill="midnightblue" stroke="midnightblue" points="268.469,-64.8286 277.04,-58.5997 266.456,-58.1244 268.469,-64.8286"/>
</g>
<!-- Node19 -->
<g id="node19" class="node"><title>Node19</title>
<g id="a_node19"><a xlink:href="station__list_8c.html#a9797d901a4c549c775a7067eebf0a5c2" target="_top" xlink:title="station_list_display">
<polygon fill="white" stroke="black" points="260,-124.5 260,-143.5 360,-143.5 360,-124.5 260,-124.5"/>
<text text-anchor="middle" x="310" y="-131.5" font-family="Helvetica,sans-Serif" font-size="10.00">station_list_display</text>
</a>
</g>
</g>
<!-- Node6&#45;&gt;Node19 -->
<g id="edge21" class="edge"><title>Node6&#45;&gt;Node19</title>
<path fill="none" stroke="midnightblue" d="M202.118,-99.5473C221.973,-105.947 248.332,-114.444 269.905,-121.398"/>
<polygon fill="midnightblue" stroke="midnightblue" points="268.848,-124.734 279.439,-124.471 270.995,-118.072 268.848,-124.734"/>
</g>
<!-- Node7&#45;&gt;Node4 -->
<g id="edge8" class="edge"><title>Node7&#45;&gt;Node4</title>
<path fill="none" stroke="midnightblue" d="M342.655,-80.4695C362.502,-74.494 388.286,-66.731 409.666,-60.2942"/>
<polygon fill="midnightblue" stroke="midnightblue" points="410.885,-63.5824 419.451,-57.3481 408.867,-56.8796 410.885,-63.5824"/>
</g>
<!-- Node8 -->
<g id="node8" class="node"><title>Node8</title>
<g id="a_node8"><a xlink:href="string_8c.html#a0e45f80d2057e44647b21fd530fe185d" target="_top" xlink:title="string_fixedpoint_to\l_array">
<polygon fill="white" stroke="black" points="401,-77 401,-107 502,-107 502,-77 401,-77"/>
<text text-anchor="start" x="409" y="-95" font-family="Helvetica,sans-Serif" font-size="10.00">string_fixedpoint_to</text>
<text text-anchor="middle" x="451.5" y="-84" font-family="Helvetica,sans-Serif" font-size="10.00">_array</text>
</a>
</g>
</g>
<!-- Node7&#45;&gt;Node8 -->
<g id="edge7" class="edge"><title>Node7&#45;&gt;Node8</title>
<path fill="none" stroke="midnightblue" d="M359.79,-90.6995C369.69,-90.8414 380.211,-90.9923 390.448,-91.139"/>
<polygon fill="midnightblue" stroke="midnightblue" points="390.507,-94.6401 400.556,-91.284 390.607,-87.6409 390.507,-94.6401"/>
</g>
<!-- Node10 -->
<g id="node10" class="node"><title>Node10</title>
<g id="a_node10"><a xlink:href="external__interrupthandler_8h.html#a345dfb9a7e177c5da6eb9dc5b3c82bc9" target="_top" xlink:title="ext_interrupt_enable">
<polygon fill="white" stroke="black" points="399.5,-240.5 399.5,-259.5 503.5,-259.5 503.5,-240.5 399.5,-240.5"/>
<text text-anchor="middle" x="451.5" y="-247.5" font-family="Helvetica,sans-Serif" font-size="10.00">ext_interrupt_enable</text>
</a>
</g>
</g>
<!-- Node9&#45;&gt;Node10 -->
<g id="edge10" class="edge"><title>Node9&#45;&gt;Node10</title>
<path fill="none" stroke="midnightblue" d="M331.936,-202.598C349.459,-210.521 375.189,-221.902 398,-231 402.938,-232.969 408.169,-234.967 413.342,-236.89"/>
<polygon fill="midnightblue" stroke="midnightblue" points="412.531,-240.321 423.125,-240.471 414.937,-233.747 412.531,-240.321"/>
</g>
<!-- Node11 -->
<g id="node11" class="node"><title>Node11</title>
<g id="a_node11"><a xlink:href="si4735_8h.html#af82ec28b536b1258ea4178108c61d5e9" target="_top" xlink:title="si4735_fm_tune_freq">
<polygon fill="white" stroke="black" points="398.5,-202.5 398.5,-221.5 504.5,-221.5 504.5,-202.5 398.5,-202.5"/>
<text text-anchor="middle" x="451.5" y="-209.5" font-family="Helvetica,sans-Serif" font-size="10.00">si4735_fm_tune_freq</text>
</a>
</g>
</g>
<!-- Node9&#45;&gt;Node11 -->
<g id="edge11" class="edge"><title>Node9&#45;&gt;Node11</title>
<path fill="none" stroke="midnightblue" d="M351.724,-198.547C363.096,-200.096 375.721,-201.815 388.039,-203.493"/>
<polygon fill="midnightblue" stroke="midnightblue" points="387.899,-207.006 398.28,-204.888 388.844,-200.07 387.899,-207.006"/>
</g>
<!-- Node17 -->
<g id="node17" class="node"><title>Node17</title>
<g id="a_node17"><a xlink:href="external__interrupthandler_8h.html#a67fb5781413cf5c193be332cc6e52209" target="_top" xlink:title="ext_interrupt_disable">
<polygon fill="white" stroke="black" points="398,-164.5 398,-183.5 505,-183.5 505,-164.5 398,-164.5"/>
<text text-anchor="middle" x="451.5" y="-171.5" font-family="Helvetica,sans-Serif" font-size="10.00">ext_interrupt_disable</text>
</a>
</g>
</g>
<!-- Node9&#45;&gt;Node17 -->
<g id="edge17" class="edge"><title>Node9&#45;&gt;Node17</title>
<path fill="none" stroke="midnightblue" d="M351.724,-187.453C362.97,-185.922 375.442,-184.223 387.631,-182.563"/>
<polygon fill="midnightblue" stroke="midnightblue" points="388.333,-186 397.77,-181.182 387.389,-179.064 388.333,-186"/>
</g>
<!-- Node12 -->
<g id="node12" class="node"><title>Node12</title>
<g id="a_node12"><a xlink:href="i2c_8h.html#a6691e5911f539e1e8178c6e983e8079a" target="_top" xlink:title="Transmits I2C commands with a variable length to a I2C slave. ">
<polygon fill="white" stroke="black" points="801,-126.5 801,-145.5 873,-145.5 873,-126.5 801,-126.5"/>
<text text-anchor="middle" x="837" y="-133.5" font-family="Helvetica,sans-Serif" font-size="10.00">i2c_write_var</text>
</a>
</g>
</g>
<!-- Node11&#45;&gt;Node12 -->
<g id="edge12" class="edge"><title>Node11&#45;&gt;Node12</title>
<path fill="none" stroke="midnightblue" d="M495.187,-202.444C509.699,-199.299 526.03,-195.875 541,-193 640.165,-173.953 666.342,-176.52 765,-155 774.155,-153.003 783.901,-150.588 793.144,-148.16"/>
<polygon fill="midnightblue" stroke="midnightblue" points="794.173,-151.508 802.926,-145.538 792.361,-144.746 794.173,-151.508"/>
</g>
<!-- Node15 -->
<g id="node15" class="node"><title>Node15</title>
<g id="a_node15"><a xlink:href="si4735_8c.html#aad8341b5b19aa8f962a6b9b940d77960" target="_top" xlink:title="si4735_get_interrupt">
<polygon fill="white" stroke="black" points="541,-202.5 541,-221.5 645,-221.5 645,-202.5 541,-202.5"/>
<text text-anchor="middle" x="593" y="-209.5" font-family="Helvetica,sans-Serif" font-size="10.00">si4735_get_interrupt</text>
</a>
</g>
</g>
<!-- Node11&#45;&gt;Node15 -->
<g id="edge15" class="edge"><title>Node11&#45;&gt;Node15</title>
<path fill="none" stroke="midnightblue" d="M504.842,-212C513.288,-212 522.098,-212 530.732,-212"/>
<polygon fill="midnightblue" stroke="midnightblue" points="530.755,-215.5 540.755,-212 530.755,-208.5 530.755,-215.5"/>
</g>
<!-- Node16 -->
<g id="node16" class="node"><title>Node16</title>
<g id="a_node16"><a xlink:href="i2c_8h.html#a6dd896b0c82d1aa91a1a8155b41c4566" target="_top" xlink:title="Receives I2C commands until a NACK is received or received RxBytes. ">
<polygon fill="white" stroke="black" points="566.5,-240.5 566.5,-259.5 619.5,-259.5 619.5,-240.5 566.5,-240.5"/>
<text text-anchor="middle" x="593" y="-247.5" font-family="Helvetica,sans-Serif" font-size="10.00">i2c_read</text>
</a>
</g>
</g>
<!-- Node11&#45;&gt;Node16 -->
<g id="edge16" class="edge"><title>Node11&#45;&gt;Node16</title>
<path fill="none" stroke="midnightblue" d="M487.702,-221.589C508.788,-227.333 535.511,-234.612 556.628,-240.365"/>
<polygon fill="midnightblue" stroke="midnightblue" points="555.926,-243.801 566.495,-243.052 557.766,-237.047 555.926,-243.801"/>
</g>
<!-- Node13 -->
<g id="node13" class="node"><title>Node13</title>
<g id="a_node13"><a xlink:href="i2c_8c.html#ae0625b97d3437bcaca4ac4b96dd01978" target="_top" xlink:title="Transmits I2C command array to a I2C slave. ">
<polygon fill="white" stroke="black" points="909,-126.5 909,-145.5 980,-145.5 980,-126.5 909,-126.5"/>
<text text-anchor="middle" x="944.5" y="-133.5" font-family="Helvetica,sans-Serif" font-size="10.00">i2c_write_arr</text>
</a>
</g>
</g>
<!-- Node12&#45;&gt;Node13 -->
<g id="edge13" class="edge"><title>Node12&#45;&gt;Node13</title>
<path fill="none" stroke="midnightblue" d="M873.13,-136C881.312,-136 890.133,-136 898.671,-136"/>
<polygon fill="midnightblue" stroke="midnightblue" points="898.882,-139.5 908.882,-136 898.882,-132.5 898.882,-139.5"/>
</g>
<!-- Node14 -->
<g id="node14" class="node"><title>Node14</title>
<g id="a_node14"><a xlink:href="timer_8c.html#a3c56af3315c2461dec5ced585a5f84db" target="_top" xlink:title="_delay_ten_us">
<polygon fill="white" stroke="black" points="1016,-107.5 1016,-126.5 1096,-126.5 1096,-107.5 1016,-107.5"/>
<text text-anchor="middle" x="1056" y="-114.5" font-family="Helvetica,sans-Serif" font-size="10.00">_delay_ten_us</text>
</a>
</g>
</g>
<!-- Node13&#45;&gt;Node14 -->
<g id="edge14" class="edge"><title>Node13&#45;&gt;Node14</title>
<path fill="none" stroke="midnightblue" d="M980.146,-129.988C988.253,-128.582 997.042,-127.057 1005.65,-125.563"/>
<polygon fill="midnightblue" stroke="midnightblue" points="1006.37,-128.991 1015.62,-123.833 1005.17,-122.094 1006.37,-128.991"/>
</g>
<!-- Node18&#45;&gt;Node3 -->
<g id="edge19" class="edge"><title>Node18&#45;&gt;Node3</title>
<path fill="none" stroke="midnightblue" d="M345.126,-39.4595C365.089,-33.8783 390.375,-26.809 411.173,-20.9946"/>
<polygon fill="midnightblue" stroke="midnightblue" points="412.291,-24.3163 420.98,-18.253 410.406,-17.5748 412.291,-24.3163"/>
</g>
<!-- Node18&#45;&gt;Node4 -->
<g id="edge20" class="edge"><title>Node18&#45;&gt;Node4</title>
<path fill="none" stroke="midnightblue" d="M362.153,-48.6333C377.545,-48.523 394.242,-48.4033 408.933,-48.298"/>
<polygon fill="midnightblue" stroke="midnightblue" points="409.254,-51.7959 419.229,-48.2242 409.204,-44.796 409.254,-51.7959"/>
</g>
<!-- Node20 -->
<g id="node20" class="node"><title>Node20</title>
<g id="a_node20"><a xlink:href="lcd_8h.html#acd63fb85d212730fa4fcbcbeeccd231e" target="_top" xlink:title="lcd_create_view">
<polygon fill="white" stroke="black" points="409,-126.5 409,-145.5 494,-145.5 494,-126.5 409,-126.5"/>
<text text-anchor="middle" x="451.5" y="-133.5" font-family="Helvetica,sans-Serif" font-size="10.00">lcd_create_view</text>
</a>
</g>
</g>
<!-- Node19&#45;&gt;Node20 -->
<g id="edge22" class="edge"><title>Node19&#45;&gt;Node20</title>
<path fill="none" stroke="midnightblue" d="M360.182,-134.705C372.562,-134.883 385.89,-135.074 398.407,-135.253"/>
<polygon fill="midnightblue" stroke="midnightblue" points="398.642,-138.757 408.691,-135.401 398.742,-131.757 398.642,-138.757"/>
</g>
<!-- Node21 -->
<g id="node21" class="node"><title>Node21</title>
<g id="a_node21"><a xlink:href="lcd_8c.html#a2a4df97ebc5b396233aa31765228ef42" target="_top" xlink:title="lcd_set_courser">
<polygon fill="white" stroke="black" points="550,-88.5 550,-107.5 636,-107.5 636,-88.5 550,-88.5"/>
<text text-anchor="middle" x="593" y="-95.5" font-family="Helvetica,sans-Serif" font-size="10.00">lcd_set_courser</text>
</a>
</g>
</g>
<!-- Node20&#45;&gt;Node21 -->
<g id="edge23" class="edge"><title>Node20&#45;&gt;Node21</title>
<path fill="none" stroke="midnightblue" d="M487.702,-126.411C505.71,-121.506 527.828,-115.48 547.056,-110.243"/>
<polygon fill="midnightblue" stroke="midnightblue" points="548.081,-113.591 556.81,-107.586 546.241,-106.837 548.081,-113.591"/>
</g>
<!-- Node24 -->
<g id="node24" class="node"><title>Node24</title>
<g id="a_node24"><a xlink:href="lcd_8c.html#aa6e1aa2ef9b677e16d8198df683429ec" target="_top" xlink:title="lcd_write_string">
<polygon fill="white" stroke="black" points="681,-126.5 681,-145.5 765,-145.5 765,-126.5 681,-126.5"/>
<text text-anchor="middle" x="723" y="-133.5" font-family="Helvetica,sans-Serif" font-size="10.00">lcd_write_string</text>
</a>
</g>
</g>
<!-- Node20&#45;&gt;Node24 -->
<g id="edge28" class="edge"><title>Node20&#45;&gt;Node24</title>
<path fill="none" stroke="midnightblue" d="M494.019,-136C541.537,-136 619.394,-136 670.675,-136"/>
<polygon fill="midnightblue" stroke="midnightblue" points="670.876,-139.5 680.876,-136 670.876,-132.5 670.876,-139.5"/>
</g>
<!-- Node22 -->
<g id="node22" class="node"><title>Node22</title>
<g id="a_node22"><a xlink:href="lcd_8c.html#a250728451a22259562d3f01a12bbd77b" target="_top" xlink:title="lcd_command">
<polygon fill="white" stroke="black" points="684.5,-88.5 684.5,-107.5 761.5,-107.5 761.5,-88.5 684.5,-88.5"/>
<text text-anchor="middle" x="723" y="-95.5" font-family="Helvetica,sans-Serif" font-size="10.00">lcd_command</text>
</a>
</g>
</g>
<!-- Node21&#45;&gt;Node22 -->
<g id="edge24" class="edge"><title>Node21&#45;&gt;Node22</title>
<path fill="none" stroke="midnightblue" d="M636.267,-98C648.327,-98 661.557,-98 673.936,-98"/>
<polygon fill="midnightblue" stroke="midnightblue" points="674.091,-101.5 684.091,-98 674.091,-94.5001 674.091,-101.5"/>
</g>
<!-- Node22&#45;&gt;Node12 -->
<g id="edge25" class="edge"><title>Node22&#45;&gt;Node12</title>
<path fill="none" stroke="midnightblue" d="M752.262,-107.589C766.19,-112.314 783.18,-118.079 798.207,-123.177"/>
<polygon fill="midnightblue" stroke="midnightblue" points="797.152,-126.515 807.747,-126.414 799.401,-119.887 797.152,-126.515"/>
</g>
<!-- Node23 -->
<g id="node23" class="node"><title>Node23</title>
<g id="a_node23"><a xlink:href="timer_8c.html#a276d5cb665b9f8b2c79e53e2f2c5b4f0" target="_top" xlink:title="_delay_ms">
<polygon fill="white" stroke="black" points="912.5,-88.5 912.5,-107.5 976.5,-107.5 976.5,-88.5 912.5,-88.5"/>
<text text-anchor="middle" x="944.5" y="-95.5" font-family="Helvetica,sans-Serif" font-size="10.00">_delay_ms</text>
</a>
</g>
</g>
<!-- Node22&#45;&gt;Node23 -->
<g id="edge26" class="edge"><title>Node22&#45;&gt;Node23</title>
<path fill="none" stroke="midnightblue" d="M761.733,-98C800.861,-98 861.853,-98 902.237,-98"/>
<polygon fill="midnightblue" stroke="midnightblue" points="902.287,-101.5 912.287,-98 902.287,-94.5001 902.287,-101.5"/>
</g>
<!-- Node23&#45;&gt;Node14 -->
<g id="edge27" class="edge"><title>Node23&#45;&gt;Node14</title>
<path fill="none" stroke="midnightblue" d="M976.585,-103.394C985.595,-104.957 995.664,-106.704 1005.5,-108.412"/>
<polygon fill="midnightblue" stroke="midnightblue" points="1005.17,-111.906 1015.62,-110.167 1006.37,-105.009 1005.17,-111.906"/>
</g>
<!-- Node24&#45;&gt;Node12 -->
<g id="edge29" class="edge"><title>Node24&#45;&gt;Node12</title>
<path fill="none" stroke="midnightblue" d="M765.069,-136C773.413,-136 782.234,-136 790.715,-136"/>
<polygon fill="midnightblue" stroke="midnightblue" points="790.836,-139.5 800.836,-136 790.836,-132.5 790.836,-139.5"/>
</g>
</g>
</svg>
        <g id="navigator" transform="translate(0 0)" fill="#404254">
                <rect fill="#f2f5e9" fill-opacity="0.5" stroke="#606060" stroke-width=".5" x="0" y="0" width="60" height="60"/>
                <use id="zoomplus" xlink:href="#zoomPlus" x="17" y="9" onmousedown="handleZoom(evt,'in')"/>
                <use id="zoomminus" xlink:href="#zoomMin" x="42" y="9" onmousedown="handleZoom(evt,'out')"/>
                <use id="reset" xlink:href="#resetDef" x="30" y="36" onmousedown="handleReset()"/>
                <g id="arrowUp" xlink:href="#dirArrow" transform="translate(30 24)" onmousedown="handlePan(0,-1)">
                  <use xlink:href="#rim" fill="#404040">
                        <set attributeName="fill" to="#808080" begin="arrowUp.mouseover" end="arrowUp.mouseout"/>
                  </use>
                  <path fill="none" stroke="white" stroke-width="1.5" d="M0,-3.0v7 M-2.5,-0.5L0,-3.0L2.5,-0.5"/>
                </g>
                <g id="arrowRight" xlink:href="#dirArrow" transform="rotate(90) translate(36 -43)" onmousedown="handlePan(1,0)">
                  <use xlink:href="#rim" fill="#404040">
                        <set attributeName="fill" to="#808080" begin="arrowRight.mouseover" end="arrowRight.mouseout"/>
                  </use>
                  <path fill="none" stroke="white" stroke-width="1.5" d="M0,-3.0v7 M-2.5,-0.5L0,-3.0L2.5,-0.5"/>
                </g>
                <g id="arrowDown" xlink:href="#dirArrow" transform="rotate(180) translate(-30 -48)" onmousedown="handlePan(0,1)">
                  <use xlink:href="#rim" fill="#404040">
                        <set attributeName="fill" to="#808080" begin="arrowDown.mouseover" end="arrowDown.mouseout"/>
                  </use>
                  <path fill="none" stroke="white" stroke-width="1.5" d="M0,-3.0v7 M-2.5,-0.5L0,-3.0L2.5,-0.5"/>
                </g>
                <g id="arrowLeft" xlink:href="#dirArrow" transform="rotate(270) translate(-36 17)" onmousedown="handlePan(-1,0)">
                  <use xlink:href="#rim" fill="#404040">
                        <set attributeName="fill" to="#808080" begin="arrowLeft.mouseover" end="arrowLeft.mouseout"/>
                  </use>
                  <path fill="none" stroke="white" stroke-width="1.5" d="M0,-3.0v7 M-2.5,-0.5L0,-3.0L2.5,-0.5"/>
                </g>
        </g>
        <svg viewBox="0 0 15 15" width="100%" height="30px" preserveAspectRatio="xMaxYMin meet">
         <g id="arrow_out" transform="scale(0.3 0.3)">
          <a xlink:href="radio_8c_aae41d271062b3f94cccf4fb5996b04a2_cgraph_org.svg" target="_base">
           <rect id="button" ry="5" rx="5" y="6" x="6" height="38" width="38"
                fill="#f2f5e9" fill-opacity="0.5" stroke="#606060" stroke-width="1.0"/>
           <path id="arrow"
             d="M 11.500037,31.436501 C 11.940474,20.09759 22.043105,11.32322 32.158766,21.979434 L 37.068811,17.246167 C 37.068811,17.246167 37.088388,32 37.088388,32 L 22.160133,31.978069 C 22.160133,31.978069 26.997745,27.140456 26.997745,27.140456 C 18.528582,18.264221 13.291696,25.230495 11.500037,31.436501 z"
             style="fill:#404040;"/>
          </a>
         </g>
        </svg>
</svg>
