<?xml version="1.0" encoding="UTF-8" standalone="no"?>
<!DOCTYPE svg PUBLIC "-//W3C//DTD SVG 1.1//EN"
 "http://www.w3.org/Graphics/SVG/1.1/DTD/svg11.dtd">
<!-- Generated by graphviz version 2.38.0 (20140413.2041)
 -->
<!-- Title: radio_equalizer Pages: 1 -->
<svg width="506pt" height="28pt"
 viewBox="0.00 0.00 506.00 28.00" xmlns="http://www.w3.org/2000/svg" xmlns:xlink="http://www.w3.org/1999/xlink">
<g id="graph0" class="graph" transform="scale(1 1) rotate(0) translate(4 24)">
<title>radio_equalizer</title>
<polygon fill="white" stroke="none" points="-4,4 -4,-24 502,-24 502,4 -4,4"/>
<!-- Node1 -->
<g id="node1" class="node"><title>Node1</title>
<polygon fill="#bfbfbf" stroke="black" points="0,-0.5 0,-19.5 82,-19.5 82,-0.5 0,-0.5"/>
<text text-anchor="middle" x="41" y="-7.5" font-family="Helvetica,sans-Serif" font-size="10.00">radio_equalizer</text>
</g>
<!-- Node2 -->
<g id="node2" class="node"><title>Node2</title>
<g id="a_node2"><a xlink:href="radio_8c.html#a832a684fc60104296fc975a7608f92b4" target="_top" xlink:title="radio_settings">
<polygon fill="white" stroke="black" points="118,-0.5 118,-19.5 195,-19.5 195,-0.5 118,-0.5"/>
<text text-anchor="middle" x="156.5" y="-7.5" font-family="Helvetica,sans-Serif" font-size="10.00">radio_settings</text>
</a>
</g>
</g>
<!-- Node1&#45;&gt;Node2 -->
<g id="edge1" class="edge"><title>Node1&#45;&gt;Node2</title>
<path fill="none" stroke="midnightblue" d="M92.2933,-10C100.843,-10 109.591,-10 117.747,-10"/>
<polygon fill="midnightblue" stroke="midnightblue" points="92.0159,-6.5001 82.0159,-10 92.0158,-13.5001 92.0159,-6.5001"/>
</g>
<!-- Node3 -->
<g id="node3" class="node"><title>Node3</title>
<g id="a_node3"><a xlink:href="menu_8c.html#a5d9c190838195d7872fc7067269e20fa" target="_top" xlink:title="menu_function">
<polygon fill="white" stroke="black" points="231,-0.5 231,-19.5 311,-19.5 311,-0.5 231,-0.5"/>
<text text-anchor="middle" x="271" y="-7.5" font-family="Helvetica,sans-Serif" font-size="10.00">menu_function</text>
</a>
</g>
</g>
<!-- Node2&#45;&gt;Node3 -->
<g id="edge2" class="edge"><title>Node2&#45;&gt;Node3</title>
<path fill="none" stroke="midnightblue" d="M205.474,-10C213.985,-10 222.755,-10 230.981,-10"/>
<polygon fill="midnightblue" stroke="midnightblue" points="205.274,-6.5001 195.274,-10 205.274,-13.5001 205.274,-6.5001"/>
</g>
<!-- Node4 -->
<g id="node4" class="node"><title>Node4</title>
<g id="a_node4"><a xlink:href="menu_8c.html#aaf2a075d3159f7eeab42012941a3437f" target="_top" xlink:title="menu_handler">
<polygon fill="white" stroke="black" points="347,-0.5 347,-19.5 424,-19.5 424,-0.5 347,-0.5"/>
<text text-anchor="middle" x="385.5" y="-7.5" font-family="Helvetica,sans-Serif" font-size="10.00">menu_handler</text>
</a>
</g>
</g>
<!-- Node3&#45;&gt;Node4 -->
<g id="edge3" class="edge"><title>Node3&#45;&gt;Node4</title>
<path fill="none" stroke="midnightblue" d="M321.262,-10C329.783,-10 338.52,-10 346.676,-10"/>
<polygon fill="midnightblue" stroke="midnightblue" points="321.031,-6.5001 311.031,-10 321.031,-13.5001 321.031,-6.5001"/>
</g>
<!-- Node5 -->
<g id="node5" class="node"><title>Node5</title>
<g id="a_node5"><a xlink:href="main_8c.html#a840291bc02cba5474a4cb46a9b9566fe" target="_top" xlink:title="main">
<polygon fill="white" stroke="black" points="460,-0.5 460,-19.5 498,-19.5 498,-0.5 460,-0.5"/>
<text text-anchor="middle" x="479" y="-7.5" font-family="Helvetica,sans-Serif" font-size="10.00">main</text>
</a>
</g>
</g>
<!-- Node4&#45;&gt;Node5 -->
<g id="edge4" class="edge"><title>Node4&#45;&gt;Node5</title>
<path fill="none" stroke="midnightblue" d="M434.362,-10C443.347,-10 452.223,-10 459.601,-10"/>
<polygon fill="midnightblue" stroke="midnightblue" points="434.245,-6.5001 424.245,-10 434.245,-13.5001 434.245,-6.5001"/>
</g>
</g>
</svg>
