<?xml version="1.0" encoding="UTF-8" standalone="no"?>
<!DOCTYPE svg PUBLIC "-//W3C//DTD SVG 1.1//EN"
 "http://www.w3.org/Graphics/SVG/1.1/DTD/svg11.dtd">
<!-- Generated by graphviz version 2.38.0 (20140413.2041)
 -->
<!-- Title: radio_settings_station Pages: 1 -->
<!--zoomable 420 -->
<svg id="main" version="1.1" xmlns="http://www.w3.org/2000/svg" xmlns:xlink="http://www.w3.org/1999/xlink" xml:space="preserve" onload="init(evt)">
<style type="text/css"><![CDATA[
.edge:hover path { stroke: red; }
.edge:hover polygon { stroke: red; fill: red; }
]]></style>
<script type="text/javascript"><![CDATA[
var edges = document.getElementsByTagName('g');
if (edges && edges.length) {
  for (var i=0;i<edges.length;i++) {
    if (edges[i].id.substr(0,4)=='edge') {
      edges[i].setAttribute('class','edge');
    }
  }
}
]]></script>
        <defs>
                <circle id="rim" cx="0" cy="0" r="7"/>
                <circle id="rim2" cx="0" cy="0" r="3.5"/>
                <g id="zoomPlus">
                        <use xlink:href="#rim" fill="#404040">
                                <set attributeName="fill" to="#808080" begin="zoomplus.mouseover" end="zoomplus.mouseout"/>
                        </use>
                        <path d="M-4,0h8M0,-4v8" fill="none" stroke="white" stroke-width="1.5" pointer-events="none"/>
                </g>
                <g id="zoomMin">
                        <use xlink:href="#rim" fill="#404040">
                                <set attributeName="fill" to="#808080" begin="zoomminus.mouseover" end="zoomminus.mouseout"/>
                        </use>
                        <path d="M-4,0h8" fill="none" stroke="white" stroke-width="1.5" pointer-events="none"/>
                </g>
                <g id="dirArrow">
                        <path fill="none" stroke="white" stroke-width="1.5" d="M0,-3.0v7 M-2.5,-0.5L0,-3.0L2.5,-0.5"/>
                </g>
               <g id="resetDef">
                       <use xlink:href="#rim2" fill="#404040">
                               <set attributeName="fill" to="#808080" begin="reset.mouseover" end="reset.mouseout"/>
                       </use>
               </g>
        </defs>

<script type="text/javascript">
var viewWidth = 1186;
var viewHeight = 420;
var sectionId = 'dynsection-8';
</script>
<script xlink:href="svgpan.js"/>
<svg id="graph" class="graph">
<g id="viewport">
<title>radio_settings_station</title>
<polygon fill="white" stroke="none" points="-4,4 -4,-416 1182,-416 1182,4 -4,4"/>
<!-- Node1 -->
<g id="node1" class="node"><title>Node1</title>
<polygon fill="#bfbfbf" stroke="black" points="0,-190.5 0,-209.5 112,-209.5 112,-190.5 0,-190.5"/>
<text text-anchor="middle" x="56" y="-197.5" font-family="Helvetica,sans-Serif" font-size="10.00">radio_settings_station</text>
</g>
<!-- Node2 -->
<g id="node2" class="node"><title>Node2</title>
<g id="a_node2"><a xlink:href="radio_8h.html#aee6321b512830d482a2fc164cf11f9e9" target="_top" xlink:title="Seeking all radio channels. ">
<polygon fill="white" stroke="black" points="573,-76.5 573,-95.5 650,-95.5 650,-76.5 573,-76.5"/>
<text text-anchor="middle" x="611.5" y="-83.5" font-family="Helvetica,sans-Serif" font-size="10.00">radio_seeking</text>
</a>
</g>
</g>
<!-- Node1&#45;&gt;Node2 -->
<g id="edge1" class="edge"><title>Node1&#45;&gt;Node2</title>
<path fill="none" stroke="midnightblue" d="M87.3231,-190.37C149.316,-171.066 295.325,-127.559 421,-105 468.744,-96.4297 524.001,-91.4424 562.48,-88.746"/>
<polygon fill="midnightblue" stroke="midnightblue" points="563.126,-92.2104 572.868,-88.0452 562.655,-85.2263 563.126,-92.2104"/>
</g>
<!-- Node13 -->
<g id="node13" class="node"><title>Node13</title>
<g id="a_node13"><a xlink:href="station__list_8c.html#a14396edaefab23c83e16fea65cc5db9d" target="_top" xlink:title="Handler to select the current station. ">
<polygon fill="white" stroke="black" points="148,-228.5 148,-247.5 249,-247.5 249,-228.5 148,-228.5"/>
<text text-anchor="middle" x="198.5" y="-235.5" font-family="Helvetica,sans-Serif" font-size="10.00">station_list_handler</text>
</a>
</g>
</g>
<!-- Node1&#45;&gt;Node13 -->
<g id="edge15" class="edge"><title>Node1&#45;&gt;Node13</title>
<path fill="none" stroke="midnightblue" d="M92.4541,-209.589C110.591,-214.494 132.868,-220.52 152.233,-225.757"/>
<polygon fill="midnightblue" stroke="midnightblue" points="151.49,-229.182 162.057,-228.414 153.318,-222.425 151.49,-229.182"/>
</g>
<!-- Node27 -->
<g id="node27" class="node"><title>Node27</title>
<g id="a_node27"><a xlink:href="radio_8h.html#ac96da2886aec92b299b27b500761564c" target="_top" xlink:title="Auto Search for radio stations. ">
<polygon fill="white" stroke="black" points="287,-190.5 287,-209.5 383,-209.5 383,-190.5 287,-190.5"/>
<text text-anchor="middle" x="335" y="-197.5" font-family="Helvetica,sans-Serif" font-size="10.00">radio_auto_search</text>
</a>
</g>
</g>
<!-- Node1&#45;&gt;Node27 -->
<g id="edge38" class="edge"><title>Node1&#45;&gt;Node27</title>
<path fill="none" stroke="midnightblue" d="M112.057,-200C159.683,-200 228.294,-200 276.593,-200"/>
<polygon fill="midnightblue" stroke="midnightblue" points="276.881,-203.5 286.881,-200 276.881,-196.5 276.881,-203.5"/>
</g>
<!-- Node3 -->
<g id="node3" class="node"><title>Node3</title>
<g id="a_node3"><a xlink:href="external__interrupthandler_8h.html#a345dfb9a7e177c5da6eb9dc5b3c82bc9" target="_top" xlink:title="ext_interrupt_enable">
<polygon fill="white" stroke="black" points="704.5,-76.5 704.5,-95.5 808.5,-95.5 808.5,-76.5 704.5,-76.5"/>
<text text-anchor="middle" x="756.5" y="-83.5" font-family="Helvetica,sans-Serif" font-size="10.00">ext_interrupt_enable</text>
</a>
</g>
</g>
<!-- Node2&#45;&gt;Node3 -->
<g id="edge2" class="edge"><title>Node2&#45;&gt;Node3</title>
<path fill="none" stroke="midnightblue" d="M650.072,-86C663.586,-86 679.205,-86 694.212,-86"/>
<polygon fill="midnightblue" stroke="midnightblue" points="694.47,-89.5001 704.47,-86 694.47,-82.5001 694.47,-89.5001"/>
</g>
<!-- Node4 -->
<g id="node4" class="node"><title>Node4</title>
<g id="a_node4"><a xlink:href="si4735_8h.html#a339846da787fb5a496df9252ca7dc9a5" target="_top" xlink:title="si4735_fm_seek_start">
<polygon fill="white" stroke="black" points="700.5,-114.5 700.5,-133.5 812.5,-133.5 812.5,-114.5 700.5,-114.5"/>
<text text-anchor="middle" x="756.5" y="-121.5" font-family="Helvetica,sans-Serif" font-size="10.00">si4735_fm_seek_start</text>
</a>
</g>
</g>
<!-- Node2&#45;&gt;Node4 -->
<g id="edge3" class="edge"><title>Node2&#45;&gt;Node4</title>
<path fill="none" stroke="midnightblue" d="M648.585,-95.589C667.13,-100.517 689.926,-106.575 709.699,-111.829"/>
<polygon fill="midnightblue" stroke="midnightblue" points="708.863,-115.228 719.427,-114.414 710.661,-108.463 708.863,-115.228"/>
</g>
<!-- Node10 -->
<g id="node10" class="node"><title>Node10</title>
<g id="a_node10"><a xlink:href="external__interrupthandler_8h.html#a67fb5781413cf5c193be332cc6e52209" target="_top" xlink:title="ext_interrupt_disable">
<polygon fill="white" stroke="black" points="703,-38.5 703,-57.5 810,-57.5 810,-38.5 703,-38.5"/>
<text text-anchor="middle" x="756.5" y="-45.5" font-family="Helvetica,sans-Serif" font-size="10.00">ext_interrupt_disable</text>
</a>
</g>
</g>
<!-- Node2&#45;&gt;Node10 -->
<g id="edge9" class="edge"><title>Node2&#45;&gt;Node10</title>
<path fill="none" stroke="midnightblue" d="M648.585,-76.411C667.13,-71.4831 689.926,-65.4251 709.699,-60.1709"/>
<polygon fill="midnightblue" stroke="midnightblue" points="710.661,-63.5368 719.427,-57.5859 708.863,-56.7716 710.661,-63.5368"/>
</g>
<!-- Node11 -->
<g id="node11" class="node"><title>Node11</title>
<g id="a_node11"><a xlink:href="si4735_8h.html#ad8b515f4991303f8cac978410d736a03" target="_top" xlink:title="si4735_fm_tune_status">
<polygon fill="white" stroke="black" points="698,-152.5 698,-171.5 815,-171.5 815,-152.5 698,-152.5"/>
<text text-anchor="middle" x="756.5" y="-159.5" font-family="Helvetica,sans-Serif" font-size="10.00">si4735_fm_tune_status</text>
</a>
</g>
</g>
<!-- Node2&#45;&gt;Node11 -->
<g id="edge10" class="edge"><title>Node2&#45;&gt;Node11</title>
<path fill="none" stroke="midnightblue" d="M643.657,-95.5196C649.989,-98.1144 656.414,-101.264 662,-105 681.338,-117.933 678.361,-130.529 698,-143 701.159,-145.006 704.551,-146.822 708.051,-148.461"/>
<polygon fill="midnightblue" stroke="midnightblue" points="706.901,-151.774 717.477,-152.398 709.599,-145.314 706.901,-151.774"/>
</g>
<!-- Node5 -->
<g id="node5" class="node"><title>Node5</title>
<g id="a_node5"><a xlink:href="i2c_8h.html#a6691e5911f539e1e8178c6e983e8079a" target="_top" xlink:title="Transmits I2C commands with a variable length to a I2C slave. ">
<polygon fill="white" stroke="black" points="867,-154.5 867,-173.5 939,-173.5 939,-154.5 867,-154.5"/>
<text text-anchor="middle" x="903" y="-161.5" font-family="Helvetica,sans-Serif" font-size="10.00">i2c_write_var</text>
</a>
</g>
</g>
<!-- Node4&#45;&gt;Node5 -->
<g id="edge4" class="edge"><title>Node4&#45;&gt;Node5</title>
<path fill="none" stroke="midnightblue" d="M792.111,-133.581C811.861,-139.048 836.816,-145.956 857.952,-151.807"/>
<polygon fill="midnightblue" stroke="midnightblue" points="857.1,-155.202 867.671,-154.497 858.967,-148.456 857.1,-155.202"/>
</g>
<!-- Node8 -->
<g id="node8" class="node"><title>Node8</title>
<g id="a_node8"><a xlink:href="si4735_8c.html#aad8341b5b19aa8f962a6b9b940d77960" target="_top" xlink:title="si4735_get_interrupt">
<polygon fill="white" stroke="black" points="851,-38.5 851,-57.5 955,-57.5 955,-38.5 851,-38.5"/>
<text text-anchor="middle" x="903" y="-45.5" font-family="Helvetica,sans-Serif" font-size="10.00">si4735_get_interrupt</text>
</a>
</g>
</g>
<!-- Node4&#45;&gt;Node8 -->
<g id="edge7" class="edge"><title>Node4&#45;&gt;Node8</title>
<path fill="none" stroke="midnightblue" d="M791.225,-114.488C799.18,-111.801 807.52,-108.609 815,-105 839.097,-93.3725 864.445,-76.1096 881.523,-63.6301"/>
<polygon fill="midnightblue" stroke="midnightblue" points="883.708,-66.3672 889.65,-57.5953 879.535,-60.7473 883.708,-66.3672"/>
</g>
<!-- Node9 -->
<g id="node9" class="node"><title>Node9</title>
<g id="a_node9"><a xlink:href="i2c_8h.html#a6dd896b0c82d1aa91a1a8155b41c4566" target="_top" xlink:title="Receives I2C commands until a NACK is received or received RxBytes. ">
<polygon fill="white" stroke="black" points="876.5,-114.5 876.5,-133.5 929.5,-133.5 929.5,-114.5 876.5,-114.5"/>
<text text-anchor="middle" x="903" y="-121.5" font-family="Helvetica,sans-Serif" font-size="10.00">i2c_read</text>
</a>
</g>
</g>
<!-- Node4&#45;&gt;Node9 -->
<g id="edge8" class="edge"><title>Node4&#45;&gt;Node9</title>
<path fill="none" stroke="midnightblue" d="M812.541,-124C830.468,-124 849.896,-124 866.051,-124"/>
<polygon fill="midnightblue" stroke="midnightblue" points="866.147,-127.5 876.147,-124 866.147,-120.5 866.147,-127.5"/>
</g>
<!-- Node6 -->
<g id="node6" class="node"><title>Node6</title>
<g id="a_node6"><a xlink:href="i2c_8c.html#ae0625b97d3437bcaca4ac4b96dd01978" target="_top" xlink:title="Transmits I2C command array to a I2C slave. ">
<polygon fill="white" stroke="black" points="991,-159.5 991,-178.5 1062,-178.5 1062,-159.5 991,-159.5"/>
<text text-anchor="middle" x="1026.5" y="-166.5" font-family="Helvetica,sans-Serif" font-size="10.00">i2c_write_arr</text>
</a>
</g>
</g>
<!-- Node5&#45;&gt;Node6 -->
<g id="edge5" class="edge"><title>Node5&#45;&gt;Node6</title>
<path fill="none" stroke="midnightblue" d="M939.143,-165.446C952.1,-165.979 966.959,-166.591 980.657,-167.155"/>
<polygon fill="midnightblue" stroke="midnightblue" points="980.72,-170.66 990.856,-167.574 981.008,-163.666 980.72,-170.66"/>
</g>
<!-- Node7 -->
<g id="node7" class="node"><title>Node7</title>
<g id="a_node7"><a xlink:href="timer_8c.html#a3c56af3315c2461dec5ced585a5f84db" target="_top" xlink:title="_delay_ten_us">
<polygon fill="white" stroke="black" points="1098,-182.5 1098,-201.5 1178,-201.5 1178,-182.5 1098,-182.5"/>
<text text-anchor="middle" x="1138" y="-189.5" font-family="Helvetica,sans-Serif" font-size="10.00">_delay_ten_us</text>
</a>
</g>
</g>
<!-- Node6&#45;&gt;Node7 -->
<g id="edge6" class="edge"><title>Node6&#45;&gt;Node7</title>
<path fill="none" stroke="midnightblue" d="M1062.15,-176.277C1070.25,-177.98 1079.04,-179.826 1087.65,-181.634"/>
<polygon fill="midnightblue" stroke="midnightblue" points="1087.12,-185.099 1097.62,-183.729 1088.56,-178.248 1087.12,-185.099"/>
</g>
<!-- Node11&#45;&gt;Node5 -->
<g id="edge11" class="edge"><title>Node11&#45;&gt;Node5</title>
<path fill="none" stroke="midnightblue" d="M815.025,-162.796C828.812,-162.987 843.346,-163.188 856.502,-163.37"/>
<polygon fill="midnightblue" stroke="midnightblue" points="856.669,-166.873 866.716,-163.512 856.766,-159.873 856.669,-166.873"/>
</g>
<!-- Node11&#45;&gt;Node9 -->
<g id="edge14" class="edge"><title>Node11&#45;&gt;Node9</title>
<path fill="none" stroke="midnightblue" d="M793.963,-152.411C816.194,-146.565 844.471,-139.129 866.52,-133.33"/>
<polygon fill="midnightblue" stroke="midnightblue" points="867.697,-136.64 876.478,-130.712 865.917,-129.87 867.697,-136.64"/>
</g>
<!-- Node12 -->
<g id="node12" class="node"><title>Node12</title>
<g id="a_node12"><a xlink:href="timer_8c.html#a276d5cb665b9f8b2c79e53e2f2c5b4f0" target="_top" xlink:title="_delay_ms">
<polygon fill="white" stroke="black" points="871,-225.5 871,-244.5 935,-244.5 935,-225.5 871,-225.5"/>
<text text-anchor="middle" x="903" y="-232.5" font-family="Helvetica,sans-Serif" font-size="10.00">_delay_ms</text>
</a>
</g>
</g>
<!-- Node11&#45;&gt;Node12 -->
<g id="edge12" class="edge"><title>Node11&#45;&gt;Node12</title>
<path fill="none" stroke="midnightblue" d="M790.86,-171.542C798.908,-174.247 807.381,-177.438 815,-181 838.235,-191.863 862.915,-207.634 880.03,-219.33"/>
<polygon fill="midnightblue" stroke="midnightblue" points="878.493,-222.523 888.703,-225.352 882.485,-216.773 878.493,-222.523"/>
</g>
<!-- Node12&#45;&gt;Node7 -->
<g id="edge13" class="edge"><title>Node12&#45;&gt;Node7</title>
<path fill="none" stroke="midnightblue" d="M935.423,-229.201C974.572,-221.976 1041.9,-209.55 1087.89,-201.064"/>
<polygon fill="midnightblue" stroke="midnightblue" points="1088.73,-204.467 1097.93,-199.21 1087.46,-197.583 1088.73,-204.467"/>
</g>
<!-- Node14 -->
<g id="node14" class="node"><title>Node14</title>
<g id="a_node14"><a xlink:href="radio_8h.html#a5e5300f73411d8e90a928adf42d2a6ed" target="_top" xlink:title="Store one radio station. ">
<polygon fill="white" stroke="black" points="423.5,-342.5 423.5,-361.5 522.5,-361.5 522.5,-342.5 423.5,-342.5"/>
<text text-anchor="middle" x="473" y="-349.5" font-family="Helvetica,sans-Serif" font-size="10.00">radio_store_station</text>
</a>
</g>
</g>
<!-- Node13&#45;&gt;Node14 -->
<g id="edge16" class="edge"><title>Node13&#45;&gt;Node14</title>
<path fill="none" stroke="midnightblue" d="M220.739,-247.517C260.025,-265.031 346.808,-303.29 421,-333 425.864,-334.948 431.014,-336.943 436.097,-338.874"/>
<polygon fill="midnightblue" stroke="midnightblue" points="435.107,-342.241 445.699,-342.479 437.567,-335.688 435.107,-342.241"/>
</g>
<!-- Node18 -->
<g id="node18" class="node"><title>Node18</title>
<g id="a_node18"><a xlink:href="radio_8h.html#a6d652e9d0f1c54bfe9ec73fe2605b706" target="_top" xlink:title="Tune the frequency. ">
<polygon fill="white" stroke="black" points="570,-38.5 570,-57.5 653,-57.5 653,-38.5 570,-38.5"/>
<text text-anchor="middle" x="611.5" y="-45.5" font-family="Helvetica,sans-Serif" font-size="10.00">radio_tune_freq</text>
</a>
</g>
</g>
<!-- Node13&#45;&gt;Node18 -->
<g id="edge20" class="edge"><title>Node13&#45;&gt;Node18</title>
<path fill="none" stroke="midnightblue" d="M213.204,-228.38C229.912,-216.765 259.126,-196.821 285,-181 344.074,-144.879 357.248,-132.021 421,-105 466.588,-85.6781 520.906,-70.0461 559.676,-60.0733"/>
<polygon fill="midnightblue" stroke="midnightblue" points="560.847,-63.3872 569.68,-57.5367 559.127,-56.6019 560.847,-63.3872"/>
</g>
<!-- Node20 -->
<g id="node20" class="node"><title>Node20</title>
<g id="a_node20"><a xlink:href="radio_8h.html#a477656bb91c200d15ddbe6cffcd04c53" target="_top" xlink:title="Store the current settings. ">
<polygon fill="white" stroke="black" points="421,-380.5 421,-399.5 525,-399.5 525,-380.5 421,-380.5"/>
<text text-anchor="middle" x="473" y="-387.5" font-family="Helvetica,sans-Serif" font-size="10.00">radio_store_settings</text>
</a>
</g>
</g>
<!-- Node13&#45;&gt;Node20 -->
<g id="edge27" class="edge"><title>Node13&#45;&gt;Node20</title>
<path fill="none" stroke="midnightblue" d="M208.729,-247.705C223.631,-262.955 254.422,-292.771 285,-312 340.775,-347.075 359.886,-346.379 421,-371 425.86,-372.958 431.008,-374.959 436.09,-376.893"/>
<polygon fill="midnightblue" stroke="midnightblue" points="435.099,-380.259 445.691,-380.5 437.56,-373.707 435.099,-380.259"/>
</g>
<!-- Node22 -->
<g id="node22" class="node"><title>Node22</title>
<g id="a_node22"><a xlink:href="station__list_8c.html#a9797d901a4c549c775a7067eebf0a5c2" target="_top" xlink:title="Displays the station list. ">
<polygon fill="white" stroke="black" points="285,-228.5 285,-247.5 385,-247.5 385,-228.5 285,-228.5"/>
<text text-anchor="middle" x="335" y="-235.5" font-family="Helvetica,sans-Serif" font-size="10.00">station_list_display</text>
</a>
</g>
</g>
<!-- Node13&#45;&gt;Node22 -->
<g id="edge30" class="edge"><title>Node13&#45;&gt;Node22</title>
<path fill="none" stroke="midnightblue" d="M249.201,-238C257.5,-238 266.183,-238 274.693,-238"/>
<polygon fill="midnightblue" stroke="midnightblue" points="274.952,-241.5 284.952,-238 274.952,-234.5 274.952,-241.5"/>
</g>
<!-- Node15 -->
<g id="node15" class="node"><title>Node15</title>
<g id="a_node15"><a xlink:href="string_8c.html#a0e45f80d2057e44647b21fd530fe185d" target="_top" xlink:title="string_fixedpoint_to\l_array">
<polygon fill="white" stroke="black" points="561,-305 561,-335 662,-335 662,-305 561,-305"/>
<text text-anchor="start" x="569" y="-323" font-family="Helvetica,sans-Serif" font-size="10.00">string_fixedpoint_to</text>
<text text-anchor="middle" x="611.5" y="-312" font-family="Helvetica,sans-Serif" font-size="10.00">_array</text>
</a>
</g>
</g>
<!-- Node14&#45;&gt;Node15 -->
<g id="edge17" class="edge"><title>Node14&#45;&gt;Node15</title>
<path fill="none" stroke="midnightblue" d="M514.585,-342.486C525.882,-339.837 538.396,-336.904 550.553,-334.053"/>
<polygon fill="midnightblue" stroke="midnightblue" points="551.71,-337.377 560.647,-331.687 550.112,-330.562 551.71,-337.377"/>
</g>
<!-- Node16 -->
<g id="node16" class="node"><title>Node16</title>
<g id="a_node16"><a xlink:href="flash_8h.html#a936ded19cea6a94beca2b32349a9ac2c" target="_top" xlink:title="flash_store">
<polygon fill="white" stroke="black" points="579.5,-354.5 579.5,-373.5 643.5,-373.5 643.5,-354.5 579.5,-354.5"/>
<text text-anchor="middle" x="611.5" y="-361.5" font-family="Helvetica,sans-Serif" font-size="10.00">flash_store</text>
</a>
</g>
</g>
<!-- Node14&#45;&gt;Node16 -->
<g id="edge18" class="edge"><title>Node14&#45;&gt;Node16</title>
<path fill="none" stroke="midnightblue" d="M522.509,-356.265C537.678,-357.598 554.27,-359.057 568.918,-360.344"/>
<polygon fill="midnightblue" stroke="midnightblue" points="568.924,-363.858 579.192,-361.248 569.537,-356.885 568.924,-363.858"/>
</g>
<!-- Node17 -->
<g id="node17" class="node"><title>Node17</title>
<g id="a_node17"><a xlink:href="flash_8c.html#ad9d8a7cadb959b139fea7654d539714a" target="_top" xlink:title="flash_read">
<polygon fill="white" stroke="black" points="726,-354.5 726,-373.5 787,-373.5 787,-354.5 726,-354.5"/>
<text text-anchor="middle" x="756.5" y="-361.5" font-family="Helvetica,sans-Serif" font-size="10.00">flash_read</text>
</a>
</g>
</g>
<!-- Node16&#45;&gt;Node17 -->
<g id="edge19" class="edge"><title>Node16&#45;&gt;Node17</title>
<path fill="none" stroke="midnightblue" d="M643.529,-364C664.757,-364 693.081,-364 715.93,-364"/>
<polygon fill="midnightblue" stroke="midnightblue" points="715.998,-367.5 725.998,-364 715.998,-360.5 715.998,-367.5"/>
</g>
<!-- Node18&#45;&gt;Node3 -->
<g id="edge21" class="edge"><title>Node18&#45;&gt;Node3</title>
<path fill="none" stroke="midnightblue" d="M648.585,-57.589C667.13,-62.5169 689.926,-68.5749 709.699,-73.8291"/>
<polygon fill="midnightblue" stroke="midnightblue" points="708.863,-77.2284 719.427,-76.4141 710.661,-70.4632 708.863,-77.2284"/>
</g>
<!-- Node18&#45;&gt;Node10 -->
<g id="edge26" class="edge"><title>Node18&#45;&gt;Node10</title>
<path fill="none" stroke="midnightblue" d="M653.096,-48C665.4,-48 679.217,-48 692.623,-48"/>
<polygon fill="midnightblue" stroke="midnightblue" points="692.763,-51.5001 702.763,-48 692.763,-44.5001 692.763,-51.5001"/>
</g>
<!-- Node19 -->
<g id="node19" class="node"><title>Node19</title>
<g id="a_node19"><a xlink:href="si4735_8h.html#af82ec28b536b1258ea4178108c61d5e9" target="_top" xlink:title="si4735_fm_tune_freq">
<polygon fill="white" stroke="black" points="703.5,-0.5 703.5,-19.5 809.5,-19.5 809.5,-0.5 703.5,-0.5"/>
<text text-anchor="middle" x="756.5" y="-7.5" font-family="Helvetica,sans-Serif" font-size="10.00">si4735_fm_tune_freq</text>
</a>
</g>
</g>
<!-- Node18&#45;&gt;Node19 -->
<g id="edge22" class="edge"><title>Node18&#45;&gt;Node19</title>
<path fill="none" stroke="midnightblue" d="M648.585,-38.411C667.13,-33.4831 689.926,-27.4251 709.699,-22.1709"/>
<polygon fill="midnightblue" stroke="midnightblue" points="710.661,-25.5368 719.427,-19.5859 708.863,-18.7716 710.661,-25.5368"/>
</g>
<!-- Node19&#45;&gt;Node5 -->
<g id="edge23" class="edge"><title>Node19&#45;&gt;Node5</title>
<path fill="none" stroke="midnightblue" d="M801.531,-19.5536C806.507,-22.0143 811.16,-25.1087 815,-29 852.321,-66.819 815.054,-103.872 851,-143 853.134,-145.323 855.563,-147.395 858.175,-149.244"/>
<polygon fill="midnightblue" stroke="midnightblue" points="856.612,-152.384 867.011,-154.416 860.149,-146.343 856.612,-152.384"/>
</g>
<!-- Node19&#45;&gt;Node8 -->
<g id="edge24" class="edge"><title>Node19&#45;&gt;Node8</title>
<path fill="none" stroke="midnightblue" d="M793.963,-19.589C812.774,-24.5358 835.915,-30.6211 855.947,-35.8892"/>
<polygon fill="midnightblue" stroke="midnightblue" points="855.237,-39.3215 865.799,-38.4799 857.018,-32.5517 855.237,-39.3215"/>
</g>
<!-- Node19&#45;&gt;Node9 -->
<g id="edge25" class="edge"><title>Node19&#45;&gt;Node9</title>
<path fill="none" stroke="midnightblue" d="M795.575,-19.5203C802.329,-22.0488 809.086,-25.1737 815,-29 819.339,-31.8073 862.784,-80.105 886.59,-106.726"/>
<polygon fill="midnightblue" stroke="midnightblue" points="884.01,-109.091 893.282,-114.217 889.23,-104.427 884.01,-109.091"/>
</g>
<!-- Node20&#45;&gt;Node16 -->
<g id="edge29" class="edge"><title>Node20&#45;&gt;Node16</title>
<path fill="none" stroke="midnightblue" d="M524.052,-380.466C538.992,-377.621 555.186,-374.536 569.476,-371.814"/>
<polygon fill="midnightblue" stroke="midnightblue" points="570.331,-375.214 579.499,-369.905 569.021,-368.338 570.331,-375.214"/>
</g>
<!-- Node21 -->
<g id="node21" class="node"><title>Node21</title>
<g id="a_node21"><a xlink:href="flash_8h.html#ad9d8a7cadb959b139fea7654d539714a" target="_top" xlink:title="flash_read">
<polygon fill="white" stroke="black" points="581,-392.5 581,-411.5 642,-411.5 642,-392.5 581,-392.5"/>
<text text-anchor="middle" x="611.5" y="-399.5" font-family="Helvetica,sans-Serif" font-size="10.00">flash_read</text>
</a>
</g>
</g>
<!-- Node20&#45;&gt;Node21 -->
<g id="edge28" class="edge"><title>Node20&#45;&gt;Node21</title>
<path fill="none" stroke="midnightblue" d="M525.216,-394.502C540.313,-395.83 556.597,-397.261 570.85,-398.514"/>
<polygon fill="midnightblue" stroke="midnightblue" points="570.556,-402.002 580.824,-399.391 571.169,-395.029 570.556,-402.002"/>
</g>
<!-- Node23 -->
<g id="node23" class="node"><title>Node23</title>
<g id="a_node23"><a xlink:href="lcd_8h.html#acd63fb85d212730fa4fcbcbeeccd231e" target="_top" xlink:title="lcd_create_view">
<polygon fill="white" stroke="black" points="430.5,-228.5 430.5,-247.5 515.5,-247.5 515.5,-228.5 430.5,-228.5"/>
<text text-anchor="middle" x="473" y="-235.5" font-family="Helvetica,sans-Serif" font-size="10.00">lcd_create_view</text>
</a>
</g>
</g>
<!-- Node22&#45;&gt;Node23 -->
<g id="edge31" class="edge"><title>Node22&#45;&gt;Node23</title>
<path fill="none" stroke="midnightblue" d="M385.099,-238C396.4,-238 408.458,-238 419.882,-238"/>
<polygon fill="midnightblue" stroke="midnightblue" points="420.155,-241.5 430.155,-238 420.155,-234.5 420.155,-241.5"/>
</g>
<!-- Node24 -->
<g id="node24" class="node"><title>Node24</title>
<g id="a_node24"><a xlink:href="lcd_8c.html#a2a4df97ebc5b396233aa31765228ef42" target="_top" xlink:title="lcd_set_courser">
<polygon fill="white" stroke="black" points="568.5,-228.5 568.5,-247.5 654.5,-247.5 654.5,-228.5 568.5,-228.5"/>
<text text-anchor="middle" x="611.5" y="-235.5" font-family="Helvetica,sans-Serif" font-size="10.00">lcd_set_courser</text>
</a>
</g>
</g>
<!-- Node23&#45;&gt;Node24 -->
<g id="edge32" class="edge"><title>Node23&#45;&gt;Node24</title>
<path fill="none" stroke="midnightblue" d="M515.696,-238C529.071,-238 544.058,-238 558.098,-238"/>
<polygon fill="midnightblue" stroke="midnightblue" points="558.117,-241.5 568.117,-238 558.117,-234.5 558.117,-241.5"/>
</g>
<!-- Node26 -->
<g id="node26" class="node"><title>Node26</title>
<g id="a_node26"><a xlink:href="lcd_8c.html#aa6e1aa2ef9b677e16d8198df683429ec" target="_top" xlink:title="lcd_write_string">
<polygon fill="white" stroke="black" points="714.5,-190.5 714.5,-209.5 798.5,-209.5 798.5,-190.5 714.5,-190.5"/>
<text text-anchor="middle" x="756.5" y="-197.5" font-family="Helvetica,sans-Serif" font-size="10.00">lcd_write_string</text>
</a>
</g>
</g>
<!-- Node23&#45;&gt;Node26 -->
<g id="edge36" class="edge"><title>Node23&#45;&gt;Node26</title>
<path fill="none" stroke="midnightblue" d="M513.226,-228.407C528.114,-225.037 545.27,-221.477 561,-219 609.302,-211.393 664.863,-206.33 704.201,-203.356"/>
<polygon fill="midnightblue" stroke="midnightblue" points="704.626,-206.835 714.342,-202.609 704.112,-199.854 704.626,-206.835"/>
</g>
<!-- Node25 -->
<g id="node25" class="node"><title>Node25</title>
<g id="a_node25"><a xlink:href="lcd_8c.html#a250728451a22259562d3f01a12bbd77b" target="_top" xlink:title="lcd_command">
<polygon fill="white" stroke="black" points="718,-228.5 718,-247.5 795,-247.5 795,-228.5 718,-228.5"/>
<text text-anchor="middle" x="756.5" y="-235.5" font-family="Helvetica,sans-Serif" font-size="10.00">lcd_command</text>
</a>
</g>
</g>
<!-- Node24&#45;&gt;Node25 -->
<g id="edge33" class="edge"><title>Node24&#45;&gt;Node25</title>
<path fill="none" stroke="midnightblue" d="M654.631,-238C671.142,-238 690.181,-238 707.24,-238"/>
<polygon fill="midnightblue" stroke="midnightblue" points="707.566,-241.5 717.566,-238 707.566,-234.5 707.566,-241.5"/>
</g>
<!-- Node25&#45;&gt;Node5 -->
<g id="edge34" class="edge"><title>Node25&#45;&gt;Node5</title>
<path fill="none" stroke="midnightblue" d="M791.183,-228.4C799.14,-225.716 807.491,-222.549 815,-219 838.664,-207.818 863.729,-191.427 880.845,-179.448"/>
<polygon fill="midnightblue" stroke="midnightblue" points="882.898,-182.283 889.022,-173.637 878.843,-176.577 882.898,-182.283"/>
</g>
<!-- Node25&#45;&gt;Node12 -->
<g id="edge35" class="edge"><title>Node25&#45;&gt;Node12</title>
<path fill="none" stroke="midnightblue" d="M795.088,-237.22C815.262,-236.801 840.16,-236.284 860.852,-235.854"/>
<polygon fill="midnightblue" stroke="midnightblue" points="861.011,-239.352 870.936,-235.645 860.865,-232.353 861.011,-239.352"/>
</g>
<!-- Node26&#45;&gt;Node5 -->
<g id="edge37" class="edge"><title>Node26&#45;&gt;Node5</title>
<path fill="none" stroke="midnightblue" d="M795.844,-190.447C814.641,-185.764 837.397,-180.095 857.012,-175.208"/>
<polygon fill="midnightblue" stroke="midnightblue" points="858.088,-178.547 866.946,-172.733 856.396,-171.755 858.088,-178.547"/>
</g>
<!-- Node27&#45;&gt;Node12 -->
<g id="edge46" class="edge"><title>Node27&#45;&gt;Node12</title>
<path fill="none" stroke="midnightblue" d="M366.841,-209.556C373.109,-212.148 379.47,-215.288 385,-219 404.316,-231.966 399.629,-247.808 421,-257 573.934,-322.782 780.021,-272.9 864.004,-247.503"/>
<polygon fill="midnightblue" stroke="midnightblue" points="865.104,-250.827 873.629,-244.537 863.042,-244.137 865.104,-250.827"/>
</g>
<!-- Node27&#45;&gt;Node23 -->
<g id="edge44" class="edge"><title>Node27&#45;&gt;Node23</title>
<path fill="none" stroke="midnightblue" d="M370.319,-209.589C387.794,-214.472 409.241,-220.464 427.925,-225.685"/>
<polygon fill="midnightblue" stroke="midnightblue" points="427.119,-229.094 437.692,-228.414 429.003,-222.352 427.119,-229.094"/>
</g>
<!-- Node28 -->
<g id="node28" class="node"><title>Node28</title>
<g id="a_node28"><a xlink:href="radio_8c.html#aee6321b512830d482a2fc164cf11f9e9" target="_top" xlink:title="Seeking all radio channels. ">
<polygon fill="white" stroke="black" points="573,-114.5 573,-133.5 650,-133.5 650,-114.5 573,-114.5"/>
<text text-anchor="middle" x="611.5" y="-121.5" font-family="Helvetica,sans-Serif" font-size="10.00">radio_seeking</text>
</a>
</g>
</g>
<!-- Node27&#45;&gt;Node28 -->
<g id="edge39" class="edge"><title>Node27&#45;&gt;Node28</title>
<path fill="none" stroke="midnightblue" d="M383.21,-201.504C422.307,-201.293 478.743,-197.576 525,-181 550.456,-171.878 575.742,-153.575 592.135,-140.161"/>
<polygon fill="midnightblue" stroke="midnightblue" points="594.454,-142.784 599.85,-133.667 589.946,-137.429 594.454,-142.784"/>
</g>
<!-- Node29 -->
<g id="node29" class="node"><title>Node29</title>
<g id="a_node29"><a xlink:href="string_8c.html#a82b1b882cf97ff40344f87bd1473e9d0" target="_top" xlink:title="string_int_to_array">
<polygon fill="white" stroke="black" points="424.5,-152.5 424.5,-171.5 521.5,-171.5 521.5,-152.5 424.5,-152.5"/>
<text text-anchor="middle" x="473" y="-159.5" font-family="Helvetica,sans-Serif" font-size="10.00">string_int_to_array</text>
</a>
</g>
</g>
<!-- Node27&#45;&gt;Node29 -->
<g id="edge45" class="edge"><title>Node27&#45;&gt;Node29</title>
<path fill="none" stroke="midnightblue" d="M370.319,-190.411C387.794,-185.528 409.241,-179.536 427.925,-174.315"/>
<polygon fill="midnightblue" stroke="midnightblue" points="429.003,-177.648 437.692,-171.586 427.119,-170.906 429.003,-177.648"/>
</g>
<!-- Node30 -->
<g id="node30" class="node"><title>Node30</title>
<g id="a_node30"><a xlink:href="radio_8c.html#a1c031719ba892045c773dc035058870f" target="_top" xlink:title="Updates the current RDS data . ">
<polygon fill="white" stroke="black" points="440.5,-114.5 440.5,-133.5 505.5,-133.5 505.5,-114.5 440.5,-114.5"/>
<text text-anchor="middle" x="473" y="-121.5" font-family="Helvetica,sans-Serif" font-size="10.00">rds_update</text>
</a>
</g>
</g>
<!-- Node27&#45;&gt;Node30 -->
<g id="edge47" class="edge"><title>Node27&#45;&gt;Node30</title>
<path fill="none" stroke="midnightblue" d="M348.385,-190.332C364.445,-178.123 393.646,-157.021 421,-143 424.986,-140.957 429.245,-139.019 433.538,-137.217"/>
<polygon fill="midnightblue" stroke="midnightblue" points="434.897,-140.443 442.901,-133.502 432.316,-133.937 434.897,-140.443"/>
</g>
<!-- Node31 -->
<g id="node31" class="node"><title>Node31</title>
<g id="a_node31"><a xlink:href="radio_8c.html#a5e5300f73411d8e90a928adf42d2a6ed" target="_top" xlink:title="Store one radio station. ">
<polygon fill="white" stroke="black" points="423.5,-304.5 423.5,-323.5 522.5,-323.5 522.5,-304.5 423.5,-304.5"/>
<text text-anchor="middle" x="473" y="-311.5" font-family="Helvetica,sans-Serif" font-size="10.00">radio_store_station</text>
</a>
</g>
</g>
<!-- Node27&#45;&gt;Node31 -->
<g id="edge48" class="edge"><title>Node27&#45;&gt;Node31</title>
<path fill="none" stroke="midnightblue" d="M370.292,-209.536C375.607,-212.033 380.739,-215.142 385,-219 411.229,-242.744 395.617,-265.353 421,-290 424.808,-293.697 429.291,-296.905 433.992,-299.665"/>
<polygon fill="midnightblue" stroke="midnightblue" points="432.695,-302.934 443.183,-304.431 435.917,-296.72 432.695,-302.934"/>
</g>
<!-- Node28&#45;&gt;Node3 -->
<g id="edge40" class="edge"><title>Node28&#45;&gt;Node3</title>
<path fill="none" stroke="midnightblue" d="M648.585,-114.411C667.13,-109.483 689.926,-103.425 709.699,-98.1709"/>
<polygon fill="midnightblue" stroke="midnightblue" points="710.661,-101.537 719.427,-95.5859 708.863,-94.7716 710.661,-101.537"/>
</g>
<!-- Node28&#45;&gt;Node4 -->
<g id="edge41" class="edge"><title>Node28&#45;&gt;Node4</title>
<path fill="none" stroke="midnightblue" d="M650.072,-124C662.337,-124 676.336,-124 690.038,-124"/>
<polygon fill="midnightblue" stroke="midnightblue" points="690.423,-127.5 700.423,-124 690.423,-120.5 690.423,-127.5"/>
</g>
<!-- Node28&#45;&gt;Node10 -->
<g id="edge42" class="edge"><title>Node28&#45;&gt;Node10</title>
<path fill="none" stroke="midnightblue" d="M643.657,-114.48C649.989,-111.886 656.414,-108.736 662,-105 681.338,-92.0671 678.361,-79.4715 698,-67 701.159,-64.9939 704.551,-63.1784 708.051,-61.5392"/>
<polygon fill="midnightblue" stroke="midnightblue" points="709.599,-64.6857 717.477,-57.6023 706.901,-58.2263 709.599,-64.6857"/>
</g>
<!-- Node28&#45;&gt;Node11 -->
<g id="edge43" class="edge"><title>Node28&#45;&gt;Node11</title>
<path fill="none" stroke="midnightblue" d="M648.585,-133.589C667.13,-138.517 689.926,-144.575 709.699,-149.829"/>
<polygon fill="midnightblue" stroke="midnightblue" points="708.863,-153.228 719.427,-152.414 710.661,-146.463 708.863,-153.228"/>
</g>
<!-- Node31&#45;&gt;Node15 -->
<g id="edge49" class="edge"><title>Node31&#45;&gt;Node15</title>
<path fill="none" stroke="midnightblue" d="M522.509,-316.132C531.626,-316.533 541.256,-316.956 550.67,-317.37"/>
<polygon fill="midnightblue" stroke="midnightblue" points="550.621,-320.871 560.765,-317.814 550.928,-313.878 550.621,-320.871"/>
</g>
<!-- Node31&#45;&gt;Node16 -->
<g id="edge50" class="edge"><title>Node31&#45;&gt;Node16</title>
<path fill="none" stroke="midnightblue" d="M499.996,-323.522C521.113,-331.258 551.128,-342.252 574.548,-350.831"/>
<polygon fill="midnightblue" stroke="midnightblue" points="573.542,-354.19 584.136,-354.343 575.95,-347.617 573.542,-354.19"/>
</g>
</g>
</svg>
        <g id="navigator" transform="translate(0 0)" fill="#404254">
                <rect fill="#f2f5e9" fill-opacity="0.5" stroke="#606060" stroke-width=".5" x="0" y="0" width="60" height="60"/>
                <use id="zoomplus" xlink:href="#zoomPlus" x="17" y="9" onmousedown="handleZoom(evt,'in')"/>
                <use id="zoomminus" xlink:href="#zoomMin" x="42" y="9" onmousedown="handleZoom(evt,'out')"/>
                <use id="reset" xlink:href="#resetDef" x="30" y="36" onmousedown="handleReset()"/>
                <g id="arrowUp" xlink:href="#dirArrow" transform="translate(30 24)" onmousedown="handlePan(0,-1)">
                  <use xlink:href="#rim" fill="#404040">
                        <set attributeName="fill" to="#808080" begin="arrowUp.mouseover" end="arrowUp.mouseout"/>
                  </use>
                  <path fill="none" stroke="white" stroke-width="1.5" d="M0,-3.0v7 M-2.5,-0.5L0,-3.0L2.5,-0.5"/>
                </g>
                <g id="arrowRight" xlink:href="#dirArrow" transform="rotate(90) translate(36 -43)" onmousedown="handlePan(1,0)">
                  <use xlink:href="#rim" fill="#404040">
                        <set attributeName="fill" to="#808080" begin="arrowRight.mouseover" end="arrowRight.mouseout"/>
                  </use>
                  <path fill="none" stroke="white" stroke-width="1.5" d="M0,-3.0v7 M-2.5,-0.5L0,-3.0L2.5,-0.5"/>
                </g>
                <g id="arrowDown" xlink:href="#dirArrow" transform="rotate(180) translate(-30 -48)" onmousedown="handlePan(0,1)">
                  <use xlink:href="#rim" fill="#404040">
                        <set attributeName="fill" to="#808080" begin="arrowDown.mouseover" end="arrowDown.mouseout"/>
                  </use>
                  <path fill="none" stroke="white" stroke-width="1.5" d="M0,-3.0v7 M-2.5,-0.5L0,-3.0L2.5,-0.5"/>
                </g>
                <g id="arrowLeft" xlink:href="#dirArrow" transform="rotate(270) translate(-36 17)" onmousedown="handlePan(-1,0)">
                  <use xlink:href="#rim" fill="#404040">
                        <set attributeName="fill" to="#808080" begin="arrowLeft.mouseover" end="arrowLeft.mouseout"/>
                  </use>
                  <path fill="none" stroke="white" stroke-width="1.5" d="M0,-3.0v7 M-2.5,-0.5L0,-3.0L2.5,-0.5"/>
                </g>
        </g>
        <svg viewBox="0 0 15 15" width="100%" height="30px" preserveAspectRatio="xMaxYMin meet">
         <g id="arrow_out" transform="scale(0.3 0.3)">
          <a xlink:href="radio__settings_8c_a90d48a01d9b0ad794fb9416a2ce8f85e_cgraph_org.svg" target="_base">
           <rect id="button" ry="5" rx="5" y="6" x="6" height="38" width="38"
                fill="#f2f5e9" fill-opacity="0.5" stroke="#606060" stroke-width="1.0"/>
           <path id="arrow"
             d="M 11.500037,31.436501 C 11.940474,20.09759 22.043105,11.32322 32.158766,21.979434 L 37.068811,17.246167 C 37.068811,17.246167 37.088388,32 37.088388,32 L 22.160133,31.978069 C 22.160133,31.978069 26.997745,27.140456 26.997745,27.140456 C 18.528582,18.264221 13.291696,25.230495 11.500037,31.436501 z"
             style="fill:#404040;"/>
          </a>
         </g>
        </svg>
</svg>
