<?xml version="1.0" encoding="UTF-8" standalone="no"?>
<!DOCTYPE svg PUBLIC "-//W3C//DTD SVG 1.1//EN"
 "http://www.w3.org/Graphics/SVG/1.1/DTD/svg11.dtd">
<!-- Generated by graphviz version 2.38.0 (20140413.2041)
 -->
<!-- Title: radio_settings_brightness Pages: 1 -->
<svg width="1133pt" height="218pt"
 viewBox="0.00 0.00 1133.00 218.00" xmlns="http://www.w3.org/2000/svg" xmlns:xlink="http://www.w3.org/1999/xlink">
<g id="graph0" class="graph" transform="scale(1 1) rotate(0) translate(4 214)">
<title>radio_settings_brightness</title>
<polygon fill="white" stroke="none" points="-4,4 -4,-214 1129,-214 1129,4 -4,4"/>
<!-- Node1 -->
<g id="node1" class="node"><title>Node1</title>
<polygon fill="#bfbfbf" stroke="black" points="0,-123.5 0,-142.5 128,-142.5 128,-123.5 0,-123.5"/>
<text text-anchor="middle" x="64" y="-130.5" font-family="Helvetica,sans-Serif" font-size="10.00">radio_settings_brightness</text>
</g>
<!-- Node2 -->
<g id="node2" class="node"><title>Node2</title>
<g id="a_node2"><a xlink:href="radio_8h.html#a8d795d5e8b1acf8b2d97bfee82d90ca1" target="_top" xlink:title="radio_brightness">
<polygon fill="white" stroke="black" points="563,-190.5 563,-209.5 651,-209.5 651,-190.5 563,-190.5"/>
<text text-anchor="middle" x="607" y="-197.5" font-family="Helvetica,sans-Serif" font-size="10.00">radio_brightness</text>
</a>
</g>
</g>
<!-- Node1&#45;&gt;Node2 -->
<g id="edge1" class="edge"><title>Node1&#45;&gt;Node2</title>
<path fill="none" stroke="midnightblue" d="M104.891,-142.511C152.992,-153.593 236.43,-171.582 309,-181 393.588,-191.978 492.59,-196.699 552.239,-198.667"/>
<polygon fill="midnightblue" stroke="midnightblue" points="552.44,-202.175 562.546,-198.992 552.661,-195.178 552.44,-202.175"/>
</g>
<!-- Node8 -->
<g id="node8" class="node"><title>Node8</title>
<g id="a_node8"><a xlink:href="radio_8h.html#a477656bb91c200d15ddbe6cffcd04c53" target="_top" xlink:title="Store the current settings. ">
<polygon fill="white" stroke="black" points="166.5,-123.5 166.5,-142.5 270.5,-142.5 270.5,-123.5 166.5,-123.5"/>
<text text-anchor="middle" x="218.5" y="-130.5" font-family="Helvetica,sans-Serif" font-size="10.00">radio_store_settings</text>
</a>
</g>
</g>
<!-- Node1&#45;&gt;Node8 -->
<g id="edge8" class="edge"><title>Node1&#45;&gt;Node8</title>
<path fill="none" stroke="midnightblue" d="M128.349,-133C137.505,-133 146.918,-133 156.036,-133"/>
<polygon fill="midnightblue" stroke="midnightblue" points="156.178,-136.5 166.178,-133 156.178,-129.5 156.178,-136.5"/>
</g>
<!-- Node12 -->
<g id="node12" class="node"><title>Node12</title>
<g id="a_node12"><a xlink:href="menu_8h.html#a5621c1bf312de029f43808bf02dc52e3" target="_top" xlink:title="Scroll through the settings. ">
<polygon fill="white" stroke="black" points="164,-66.5 164,-85.5 273,-85.5 273,-66.5 164,-66.5"/>
<text text-anchor="middle" x="218.5" y="-73.5" font-family="Helvetica,sans-Serif" font-size="10.00">menu_scroll_settings</text>
</a>
</g>
</g>
<!-- Node1&#45;&gt;Node12 -->
<g id="edge12" class="edge"><title>Node1&#45;&gt;Node12</title>
<path fill="none" stroke="midnightblue" d="M90.5251,-123.459C115.707,-114.047 154.397,-99.5862 182.451,-89.1001"/>
<polygon fill="midnightblue" stroke="midnightblue" points="183.75,-92.3513 191.892,-85.5716 181.299,-85.7944 183.75,-92.3513"/>
</g>
<!-- Node3 -->
<g id="node3" class="node"><title>Node3</title>
<g id="a_node3"><a xlink:href="pca9530_8h.html#a91089f6598b9a7b7d85171c4a731f1c1" target="_top" xlink:title="pca9530_config_leds">
<polygon fill="white" stroke="black" points="687,-190.5 687,-209.5 794,-209.5 794,-190.5 687,-190.5"/>
<text text-anchor="middle" x="740.5" y="-197.5" font-family="Helvetica,sans-Serif" font-size="10.00">pca9530_config_leds</text>
</a>
</g>
</g>
<!-- Node2&#45;&gt;Node3 -->
<g id="edge2" class="edge"><title>Node2&#45;&gt;Node3</title>
<path fill="none" stroke="midnightblue" d="M651.058,-200C659.241,-200 667.959,-200 676.611,-200"/>
<polygon fill="midnightblue" stroke="midnightblue" points="676.701,-203.5 686.701,-200 676.701,-196.5 676.701,-203.5"/>
</g>
<!-- Node7 -->
<g id="node7" class="node"><title>Node7</title>
<g id="a_node7"><a xlink:href="pca9530_8h.html#a07bd06dbfcb216eedc1969aa04e19b53" target="_top" xlink:title="pca9530_set_pwm">
<polygon fill="white" stroke="black" points="691.5,-152.5 691.5,-171.5 789.5,-171.5 789.5,-152.5 691.5,-152.5"/>
<text text-anchor="middle" x="740.5" y="-159.5" font-family="Helvetica,sans-Serif" font-size="10.00">pca9530_set_pwm</text>
</a>
</g>
</g>
<!-- Node2&#45;&gt;Node7 -->
<g id="edge6" class="edge"><title>Node2&#45;&gt;Node7</title>
<path fill="none" stroke="midnightblue" d="M641.183,-190.411C658.003,-185.551 678.626,-179.591 696.634,-174.387"/>
<polygon fill="midnightblue" stroke="midnightblue" points="697.692,-177.725 706.328,-171.586 695.749,-171 697.692,-177.725"/>
</g>
<!-- Node4 -->
<g id="node4" class="node"><title>Node4</title>
<g id="a_node4"><a xlink:href="i2c_8h.html#a6691e5911f539e1e8178c6e983e8079a" target="_top" xlink:title="Transmits I2C commands with a variable length to a I2C slave. ">
<polygon fill="white" stroke="black" points="830,-114.5 830,-133.5 902,-133.5 902,-114.5 830,-114.5"/>
<text text-anchor="middle" x="866" y="-121.5" font-family="Helvetica,sans-Serif" font-size="10.00">i2c_write_var</text>
</a>
</g>
</g>
<!-- Node3&#45;&gt;Node4 -->
<g id="edge3" class="edge"><title>Node3&#45;&gt;Node4</title>
<path fill="none" stroke="midnightblue" d="M773.064,-190.485C780.151,-187.831 787.493,-184.656 794,-181 813.858,-169.844 833.855,-153.188 847.544,-140.758"/>
<polygon fill="midnightblue" stroke="midnightblue" points="850.249,-143.022 855.194,-133.652 845.485,-137.893 850.249,-143.022"/>
</g>
<!-- Node5 -->
<g id="node5" class="node"><title>Node5</title>
<g id="a_node5"><a xlink:href="i2c_8c.html#ae0625b97d3437bcaca4ac4b96dd01978" target="_top" xlink:title="Transmits I2C command array to a I2C slave. ">
<polygon fill="white" stroke="black" points="938,-114.5 938,-133.5 1009,-133.5 1009,-114.5 938,-114.5"/>
<text text-anchor="middle" x="973.5" y="-121.5" font-family="Helvetica,sans-Serif" font-size="10.00">i2c_write_arr</text>
</a>
</g>
</g>
<!-- Node4&#45;&gt;Node5 -->
<g id="edge4" class="edge"><title>Node4&#45;&gt;Node5</title>
<path fill="none" stroke="midnightblue" d="M902.13,-124C910.312,-124 919.133,-124 927.671,-124"/>
<polygon fill="midnightblue" stroke="midnightblue" points="927.882,-127.5 937.882,-124 927.882,-120.5 927.882,-127.5"/>
</g>
<!-- Node6 -->
<g id="node6" class="node"><title>Node6</title>
<g id="a_node6"><a xlink:href="timer_8c.html#a3c56af3315c2461dec5ced585a5f84db" target="_top" xlink:title="_delay_ten_us">
<polygon fill="white" stroke="black" points="1045,-95.5 1045,-114.5 1125,-114.5 1125,-95.5 1045,-95.5"/>
<text text-anchor="middle" x="1085" y="-102.5" font-family="Helvetica,sans-Serif" font-size="10.00">_delay_ten_us</text>
</a>
</g>
</g>
<!-- Node5&#45;&gt;Node6 -->
<g id="edge5" class="edge"><title>Node5&#45;&gt;Node6</title>
<path fill="none" stroke="midnightblue" d="M1009.15,-117.988C1017.25,-116.582 1026.04,-115.057 1034.65,-113.563"/>
<polygon fill="midnightblue" stroke="midnightblue" points="1035.37,-116.991 1044.62,-111.833 1034.17,-110.094 1035.37,-116.991"/>
</g>
<!-- Node7&#45;&gt;Node4 -->
<g id="edge7" class="edge"><title>Node7&#45;&gt;Node4</title>
<path fill="none" stroke="midnightblue" d="M772.664,-152.411C788.314,-147.596 807.471,-141.701 824.271,-136.532"/>
<polygon fill="midnightblue" stroke="midnightblue" points="825.317,-139.872 833.846,-133.586 823.259,-133.182 825.317,-139.872"/>
</g>
<!-- Node9 -->
<g id="node9" class="node"><title>Node9</title>
<g id="a_node9"><a xlink:href="flash_8h.html#ad9d8a7cadb959b139fea7654d539714a" target="_top" xlink:title="flash_read">
<polygon fill="white" stroke="black" points="327,-152.5 327,-171.5 388,-171.5 388,-152.5 327,-152.5"/>
<text text-anchor="middle" x="357.5" y="-159.5" font-family="Helvetica,sans-Serif" font-size="10.00">flash_read</text>
</a>
</g>
</g>
<!-- Node8&#45;&gt;Node9 -->
<g id="edge9" class="edge"><title>Node8&#45;&gt;Node9</title>
<path fill="none" stroke="midnightblue" d="M264.739,-142.576C281.649,-146.156 300.706,-150.19 317.053,-153.65"/>
<polygon fill="midnightblue" stroke="midnightblue" points="316.33,-157.074 326.838,-155.721 317.779,-150.226 316.33,-157.074"/>
</g>
<!-- Node10 -->
<g id="node10" class="node"><title>Node10</title>
<g id="a_node10"><a xlink:href="flash_8h.html#a936ded19cea6a94beca2b32349a9ac2c" target="_top" xlink:title="flash_store">
<polygon fill="white" stroke="black" points="325.5,-114.5 325.5,-133.5 389.5,-133.5 389.5,-114.5 325.5,-114.5"/>
<text text-anchor="middle" x="357.5" y="-121.5" font-family="Helvetica,sans-Serif" font-size="10.00">flash_store</text>
</a>
</g>
</g>
<!-- Node8&#45;&gt;Node10 -->
<g id="edge10" class="edge"><title>Node8&#45;&gt;Node10</title>
<path fill="none" stroke="midnightblue" d="M270.514,-129.649C285.185,-128.685 301.002,-127.646 315.022,-126.725"/>
<polygon fill="midnightblue" stroke="midnightblue" points="315.594,-130.195 325.343,-126.047 315.135,-123.21 315.594,-130.195"/>
</g>
<!-- Node11 -->
<g id="node11" class="node"><title>Node11</title>
<g id="a_node11"><a xlink:href="flash_8c.html#ad9d8a7cadb959b139fea7654d539714a" target="_top" xlink:title="flash_read">
<polygon fill="white" stroke="black" points="454,-114.5 454,-133.5 515,-133.5 515,-114.5 454,-114.5"/>
<text text-anchor="middle" x="484.5" y="-121.5" font-family="Helvetica,sans-Serif" font-size="10.00">flash_read</text>
</a>
</g>
</g>
<!-- Node10&#45;&gt;Node11 -->
<g id="edge11" class="edge"><title>Node10&#45;&gt;Node11</title>
<path fill="none" stroke="midnightblue" d="M389.72,-124C406.009,-124 426.116,-124 443.53,-124"/>
<polygon fill="midnightblue" stroke="midnightblue" points="443.966,-127.5 453.966,-124 443.966,-120.5 443.966,-127.5"/>
</g>
<!-- Node13 -->
<g id="node13" class="node"><title>Node13</title>
<g id="a_node13"><a xlink:href="lcd_8h.html#acd63fb85d212730fa4fcbcbeeccd231e" target="_top" xlink:title="lcd_create_view">
<polygon fill="white" stroke="black" points="442,-76.5 442,-95.5 527,-95.5 527,-76.5 442,-76.5"/>
<text text-anchor="middle" x="484.5" y="-83.5" font-family="Helvetica,sans-Serif" font-size="10.00">lcd_create_view</text>
</a>
</g>
</g>
<!-- Node12&#45;&gt;Node13 -->
<g id="edge13" class="edge"><title>Node12&#45;&gt;Node13</title>
<path fill="none" stroke="midnightblue" d="M273.243,-78.0357C319.636,-79.793 386.214,-82.3149 431.955,-84.0475"/>
<polygon fill="midnightblue" stroke="midnightblue" points="431.833,-87.5453 441.958,-84.4264 432.098,-80.5503 431.833,-87.5453"/>
</g>
<!-- Node18 -->
<g id="node18" class="node"><title>Node18</title>
<g id="a_node18"><a xlink:href="string_8c.html#a82b1b882cf97ff40344f87bd1473e9d0" target="_top" xlink:title="string_int_to_array">
<polygon fill="white" stroke="black" points="309,-38.5 309,-57.5 406,-57.5 406,-38.5 309,-38.5"/>
<text text-anchor="middle" x="357.5" y="-45.5" font-family="Helvetica,sans-Serif" font-size="10.00">string_int_to_array</text>
</a>
</g>
</g>
<!-- Node12&#45;&gt;Node18 -->
<g id="edge21" class="edge"><title>Node12&#45;&gt;Node18</title>
<path fill="none" stroke="midnightblue" d="M266.264,-66.4423C277.066,-64.2347 288.671,-61.8628 299.844,-59.5794"/>
<polygon fill="midnightblue" stroke="midnightblue" points="300.85,-62.9462 309.946,-57.5146 299.448,-56.088 300.85,-62.9462"/>
</g>
<!-- Node19 -->
<g id="node19" class="node"><title>Node19</title>
<g id="a_node19"><a xlink:href="menu_8c.html#a503ed2007daa6f20b2f748eedbcb8494" target="_top" xlink:title="Scroll to given position. ">
<polygon fill="white" stroke="black" points="323,-0.5 323,-19.5 392,-19.5 392,-0.5 323,-0.5"/>
<text text-anchor="middle" x="357.5" y="-7.5" font-family="Helvetica,sans-Serif" font-size="10.00">menu_scroll</text>
</a>
</g>
</g>
<!-- Node12&#45;&gt;Node19 -->
<g id="edge22" class="edge"><title>Node12&#45;&gt;Node19</title>
<path fill="none" stroke="midnightblue" d="M236.396,-66.4583C254.199,-56.5638 283.181,-40.9048 309,-29 313.103,-27.108 317.452,-25.2176 321.786,-23.4029"/>
<polygon fill="midnightblue" stroke="midnightblue" points="323.215,-26.6001 331.15,-19.5799 320.569,-20.1194 323.215,-26.6001"/>
</g>
<!-- Node14 -->
<g id="node14" class="node"><title>Node14</title>
<g id="a_node14"><a xlink:href="lcd_8c.html#a2a4df97ebc5b396233aa31765228ef42" target="_top" xlink:title="lcd_set_courser">
<polygon fill="white" stroke="black" points="564,-76.5 564,-95.5 650,-95.5 650,-76.5 564,-76.5"/>
<text text-anchor="middle" x="607" y="-83.5" font-family="Helvetica,sans-Serif" font-size="10.00">lcd_set_courser</text>
</a>
</g>
</g>
<!-- Node13&#45;&gt;Node14 -->
<g id="edge14" class="edge"><title>Node13&#45;&gt;Node14</title>
<path fill="none" stroke="midnightblue" d="M527.307,-86C535.808,-86 544.851,-86 553.665,-86"/>
<polygon fill="midnightblue" stroke="midnightblue" points="553.859,-89.5001 563.859,-86 553.859,-82.5001 553.859,-89.5001"/>
</g>
<!-- Node17 -->
<g id="node17" class="node"><title>Node17</title>
<g id="a_node17"><a xlink:href="lcd_8c.html#aa6e1aa2ef9b677e16d8198df683429ec" target="_top" xlink:title="lcd_write_string">
<polygon fill="white" stroke="black" points="565,-114.5 565,-133.5 649,-133.5 649,-114.5 565,-114.5"/>
<text text-anchor="middle" x="607" y="-121.5" font-family="Helvetica,sans-Serif" font-size="10.00">lcd_write_string</text>
</a>
</g>
</g>
<!-- Node13&#45;&gt;Node17 -->
<g id="edge19" class="edge"><title>Node13&#45;&gt;Node17</title>
<path fill="none" stroke="midnightblue" d="M515.907,-95.589C531.035,-100.359 549.52,-106.189 565.8,-111.323"/>
<polygon fill="midnightblue" stroke="midnightblue" points="565.013,-114.744 575.602,-114.414 567.118,-108.069 565.013,-114.744"/>
</g>
<!-- Node15 -->
<g id="node15" class="node"><title>Node15</title>
<g id="a_node15"><a xlink:href="lcd_8c.html#a250728451a22259562d3f01a12bbd77b" target="_top" xlink:title="lcd_command">
<polygon fill="white" stroke="black" points="702,-76.5 702,-95.5 779,-95.5 779,-76.5 702,-76.5"/>
<text text-anchor="middle" x="740.5" y="-83.5" font-family="Helvetica,sans-Serif" font-size="10.00">lcd_command</text>
</a>
</g>
</g>
<!-- Node14&#45;&gt;Node15 -->
<g id="edge15" class="edge"><title>Node14&#45;&gt;Node15</title>
<path fill="none" stroke="midnightblue" d="M650.331,-86C663.494,-86 678.097,-86 691.611,-86"/>
<polygon fill="midnightblue" stroke="midnightblue" points="691.691,-89.5001 701.691,-86 691.691,-82.5001 691.691,-89.5001"/>
</g>
<!-- Node15&#45;&gt;Node4 -->
<g id="edge16" class="edge"><title>Node15&#45;&gt;Node4</title>
<path fill="none" stroke="midnightblue" d="M772.664,-95.589C788.314,-100.404 807.471,-106.299 824.271,-111.468"/>
<polygon fill="midnightblue" stroke="midnightblue" points="823.259,-114.818 833.846,-114.414 825.317,-108.128 823.259,-114.818"/>
</g>
<!-- Node16 -->
<g id="node16" class="node"><title>Node16</title>
<g id="a_node16"><a xlink:href="timer_8c.html#a276d5cb665b9f8b2c79e53e2f2c5b4f0" target="_top" xlink:title="_delay_ms">
<polygon fill="white" stroke="black" points="941.5,-76.5 941.5,-95.5 1005.5,-95.5 1005.5,-76.5 941.5,-76.5"/>
<text text-anchor="middle" x="973.5" y="-83.5" font-family="Helvetica,sans-Serif" font-size="10.00">_delay_ms</text>
</a>
</g>
</g>
<!-- Node15&#45;&gt;Node16 -->
<g id="edge17" class="edge"><title>Node15&#45;&gt;Node16</title>
<path fill="none" stroke="midnightblue" d="M779.128,-86C820.82,-86 887.85,-86 931.027,-86"/>
<polygon fill="midnightblue" stroke="midnightblue" points="931.193,-89.5001 941.193,-86 931.193,-82.5001 931.193,-89.5001"/>
</g>
<!-- Node16&#45;&gt;Node6 -->
<g id="edge18" class="edge"><title>Node16&#45;&gt;Node6</title>
<path fill="none" stroke="midnightblue" d="M1005.59,-91.3938C1014.6,-92.9572 1024.66,-94.7043 1034.5,-96.4118"/>
<polygon fill="midnightblue" stroke="midnightblue" points="1034.17,-99.9062 1044.62,-98.1674 1035.37,-93.0092 1034.17,-99.9062"/>
</g>
<!-- Node17&#45;&gt;Node4 -->
<g id="edge20" class="edge"><title>Node17&#45;&gt;Node4</title>
<path fill="none" stroke="midnightblue" d="M649.007,-124C695.612,-124 771.46,-124 819.756,-124"/>
<polygon fill="midnightblue" stroke="midnightblue" points="819.92,-127.5 829.92,-124 819.92,-120.5 819.92,-127.5"/>
</g>
<!-- Node19&#45;&gt;Node13 -->
<g id="edge23" class="edge"><title>Node19&#45;&gt;Node13</title>
<path fill="none" stroke="midnightblue" d="M386.177,-19.6983C392.822,-22.3979 399.79,-25.5479 406,-29 427.112,-40.7351 449.103,-57.4017 464.243,-69.6831"/>
<polygon fill="midnightblue" stroke="midnightblue" points="462.366,-72.6722 472.307,-76.3371 466.821,-67.273 462.366,-72.6722"/>
</g>
</g>
</svg>
