<?xml version="1.0" encoding="UTF-8" standalone="no"?>
<!DOCTYPE svg PUBLIC "-//W3C//DTD SVG 1.1//EN"
 "http://www.w3.org/Graphics/SVG/1.1/DTD/svg11.dtd">
<!-- Generated by graphviz version 2.38.0 (20140413.2041)
 -->
<!-- Title: radio_store_station Pages: 1 -->
<svg width="341pt" height="78pt"
 viewBox="0.00 0.00 341.00 77.50" xmlns="http://www.w3.org/2000/svg" xmlns:xlink="http://www.w3.org/1999/xlink">
<g id="graph0" class="graph" transform="scale(1 1) rotate(0) translate(4 73.5)">
<title>radio_store_station</title>
<polygon fill="white" stroke="none" points="-4,4 -4,-73.5 337,-73.5 337,4 -4,4"/>
<!-- Node1 -->
<g id="node1" class="node"><title>Node1</title>
<polygon fill="#bfbfbf" stroke="black" points="0,-22.5 0,-41.5 99,-41.5 99,-22.5 0,-22.5"/>
<text text-anchor="middle" x="49.5" y="-29.5" font-family="Helvetica,sans-Serif" font-size="10.00">radio_store_station</text>
</g>
<!-- Node2 -->
<g id="node2" class="node"><title>Node2</title>
<g id="a_node2"><a xlink:href="string_8c.html#a0e45f80d2057e44647b21fd530fe185d" target="_top" xlink:title="string_fixedpoint_to\l_array">
<polygon fill="white" stroke="black" points="135,-39 135,-69 236,-69 236,-39 135,-39"/>
<text text-anchor="start" x="143" y="-57" font-family="Helvetica,sans-Serif" font-size="10.00">string_fixedpoint_to</text>
<text text-anchor="middle" x="185.5" y="-46" font-family="Helvetica,sans-Serif" font-size="10.00">_array</text>
</a>
</g>
</g>
<!-- Node1&#45;&gt;Node2 -->
<g id="edge1" class="edge"><title>Node1&#45;&gt;Node2</title>
<path fill="none" stroke="midnightblue" d="M99.2561,-40.0047C107.539,-41.3646 116.225,-42.7906 124.752,-44.1906"/>
<polygon fill="midnightblue" stroke="midnightblue" points="124.22,-47.6501 134.655,-45.8166 125.355,-40.7426 124.22,-47.6501"/>
</g>
<!-- Node3 -->
<g id="node3" class="node"><title>Node3</title>
<g id="a_node3"><a xlink:href="flash_8h.html#a936ded19cea6a94beca2b32349a9ac2c" target="_top" xlink:title="flash_store">
<polygon fill="white" stroke="black" points="153.5,-0.5 153.5,-19.5 217.5,-19.5 217.5,-0.5 153.5,-0.5"/>
<text text-anchor="middle" x="185.5" y="-7.5" font-family="Helvetica,sans-Serif" font-size="10.00">flash_store</text>
</a>
</g>
</g>
<!-- Node1&#45;&gt;Node3 -->
<g id="edge2" class="edge"><title>Node1&#45;&gt;Node3</title>
<path fill="none" stroke="midnightblue" d="M99.2561,-23.9953C113.687,-21.626 129.34,-19.0561 143.248,-16.7728"/>
<polygon fill="midnightblue" stroke="midnightblue" points="144.193,-20.1646 153.493,-15.0906 143.058,-13.2571 144.193,-20.1646"/>
</g>
<!-- Node4 -->
<g id="node4" class="node"><title>Node4</title>
<g id="a_node4"><a xlink:href="flash_8c.html#ad9d8a7cadb959b139fea7654d539714a" target="_top" xlink:title="flash_read">
<polygon fill="white" stroke="black" points="272,-0.5 272,-19.5 333,-19.5 333,-0.5 272,-0.5"/>
<text text-anchor="middle" x="302.5" y="-7.5" font-family="Helvetica,sans-Serif" font-size="10.00">flash_read</text>
</a>
</g>
</g>
<!-- Node3&#45;&gt;Node4 -->
<g id="edge3" class="edge"><title>Node3&#45;&gt;Node4</title>
<path fill="none" stroke="midnightblue" d="M217.621,-10C231.217,-10 247.325,-10 261.772,-10"/>
<polygon fill="midnightblue" stroke="midnightblue" points="261.94,-13.5001 271.94,-10 261.939,-6.5001 261.94,-13.5001"/>
</g>
</g>
</svg>
