<?xml version="1.0" encoding="UTF-8" standalone="no"?>
<!DOCTYPE svg PUBLIC "-//W3C//DTD SVG 1.1//EN"
 "http://www.w3.org/Graphics/SVG/1.1/DTD/svg11.dtd">
<!-- Generated by graphviz version 2.38.0 (20140413.2041)
 -->
<!-- Title: D:/GIT/fhradiov2/radio/radio_display.h Pages: 1 -->
<svg width="1832pt" height="576pt"
 viewBox="0.00 0.00 1832.00 576.00" xmlns="http://www.w3.org/2000/svg" xmlns:xlink="http://www.w3.org/1999/xlink">
<g id="graph0" class="graph" transform="scale(1 1) rotate(0) translate(4 572)">
<title>D:/GIT/fhradiov2/radio/radio_display.h</title>
<polygon fill="white" stroke="none" points="-4,4 -4,-572 1828,-572 1828,4 -4,4"/>
<!-- Node1 -->
<g id="node1" class="node"><title>Node1</title>
<polygon fill="#bfbfbf" stroke="black" points="1125.5,-537.5 1125.5,-567.5 1234.5,-567.5 1234.5,-537.5 1125.5,-537.5"/>
<text text-anchor="start" x="1133.5" y="-555.5" font-family="Helvetica,sans-Serif" font-size="10.00">D:/GIT/fhradiov2/radio</text>
<text text-anchor="middle" x="1180" y="-544.5" font-family="Helvetica,sans-Serif" font-size="10.00">/radio_display.h</text>
</g>
<!-- Node2 -->
<g id="node2" class="node"><title>Node2</title>
<polygon fill="white" stroke="#bfbfbf" points="1091.5,-0.5 1091.5,-19.5 1140.5,-19.5 1140.5,-0.5 1091.5,-0.5"/>
<text text-anchor="middle" x="1116" y="-7.5" font-family="Helvetica,sans-Serif" font-size="10.00">stdint.h</text>
</g>
<!-- Node1&#45;&gt;Node2 -->
<g id="edge1" class="edge"><title>Node1&#45;&gt;Node2</title>
<path fill="none" stroke="midnightblue" d="M1234.63,-547.451C1390.13,-535.2 1824,-495.67 1824,-436 1824,-436 1824,-436 1824,-132 1824,-65.839 1759.08,-75.97 1696,-56 1593.38,-23.5104 1259.55,-13.9272 1150.68,-11.6294"/>
<polygon fill="midnightblue" stroke="midnightblue" points="1150.64,-8.12793 1140.57,-11.4235 1150.5,-15.1265 1150.64,-8.12793"/>
</g>
<!-- Node3 -->
<g id="node3" class="node"><title>Node3</title>
<g id="a_node3"><a xlink:href="radio_8h.html" target="_top" xlink:title="radio/radio.h">
<polygon fill="white" stroke="black" points="1145,-481.5 1145,-500.5 1215,-500.5 1215,-481.5 1145,-481.5"/>
<text text-anchor="middle" x="1180" y="-488.5" font-family="Helvetica,sans-Serif" font-size="10.00">radio/radio.h</text>
</a>
</g>
</g>
<!-- Node1&#45;&gt;Node3 -->
<g id="edge2" class="edge"><title>Node1&#45;&gt;Node3</title>
<path fill="none" stroke="midnightblue" d="M1174.16,-537.399C1173.13,-529.377 1172.97,-519.233 1173.69,-510.569"/>
<polygon fill="midnightblue" stroke="midnightblue" points="1177.16,-511.044 1175.07,-500.658 1170.23,-510.081 1177.16,-511.044"/>
</g>
<!-- Node3&#45;&gt;Node1 -->
<g id="edge73" class="edge"><title>Node3&#45;&gt;Node1</title>
<path fill="none" stroke="midnightblue" d="M1184.93,-500.658C1186.43,-507.655 1187.01,-517.857 1186.64,-527.289"/>
<polygon fill="midnightblue" stroke="midnightblue" points="1183.14,-527.153 1185.84,-537.399 1190.12,-527.709 1183.14,-527.153"/>
</g>
<!-- Node3&#45;&gt;Node2 -->
<g id="edge3" class="edge"><title>Node3&#45;&gt;Node2</title>
<path fill="none" stroke="midnightblue" d="M1215.26,-488.574C1312.25,-484.361 1581.46,-470.63 1666,-445 1724.05,-427.401 1786,-440.655 1786,-380 1786,-380 1786,-380 1786,-132 1786,-40.2246 1683.24,-77.4038 1594,-56 1431.63,-17.0572 1230.67,-11.5063 1150.95,-10.9337"/>
<polygon fill="midnightblue" stroke="midnightblue" points="1150.54,-7.4318 1140.52,-10.883 1150.5,-14.4317 1150.54,-7.4318"/>
</g>
<!-- Node4 -->
<g id="node4" class="node"><title>Node4</title>
<g id="a_node4"><a xlink:href="pca9530_8h.html" target="_top" xlink:title="driver/pca9530.h">
<polygon fill="white" stroke="black" points="1030.5,-308 1030.5,-327 1117.5,-327 1117.5,-308 1030.5,-308"/>
<text text-anchor="middle" x="1074" y="-315" font-family="Helvetica,sans-Serif" font-size="10.00">driver/pca9530.h</text>
</a>
</g>
</g>
<!-- Node3&#45;&gt;Node4 -->
<g id="edge4" class="edge"><title>Node3&#45;&gt;Node4</title>
<path fill="none" stroke="midnightblue" d="M1165.06,-481.387C1152.34,-473.39 1134.38,-460.417 1123,-445 1098.14,-411.331 1084.18,-363.451 1077.97,-337.313"/>
<polygon fill="midnightblue" stroke="midnightblue" points="1081.32,-336.244 1075.71,-327.254 1074.49,-337.777 1081.32,-336.244"/>
</g>
<!-- Node9 -->
<g id="node9" class="node"><title>Node9</title>
<g id="a_node9"><a xlink:href="timer_8h.html" target="_top" xlink:title="driver/timer.h">
<polygon fill="white" stroke="black" points="286,-179.5 286,-198.5 358,-198.5 358,-179.5 286,-179.5"/>
<text text-anchor="middle" x="322" y="-186.5" font-family="Helvetica,sans-Serif" font-size="10.00">driver/timer.h</text>
</a>
</g>
</g>
<!-- Node3&#45;&gt;Node9 -->
<g id="edge49" class="edge"><title>Node3&#45;&gt;Node9</title>
<path fill="none" stroke="midnightblue" d="M1144.98,-490.179C989.108,-490.126 361.303,-480.651 254,-333 242.219,-316.789 253.622,-252.73 264,-235 271.593,-222.028 284.5,-211.457 296.213,-203.829"/>
<polygon fill="midnightblue" stroke="midnightblue" points="298.111,-206.771 304.829,-198.578 294.468,-200.793 298.111,-206.771"/>
</g>
<!-- Node10 -->
<g id="node10" class="node"><title>Node10</title>
<g id="a_node10"><a xlink:href="radio__configuration_8h.html" target="_top" xlink:title="settings/radio_configuration.h">
<polygon fill="white" stroke="black" points="71.5,-123.5 71.5,-142.5 214.5,-142.5 214.5,-123.5 71.5,-123.5"/>
<text text-anchor="middle" x="143" y="-130.5" font-family="Helvetica,sans-Serif" font-size="10.00">settings/radio_configuration.h</text>
</a>
</g>
</g>
<!-- Node3&#45;&gt;Node10 -->
<g id="edge66" class="edge"><title>Node3&#45;&gt;Node10</title>
<path fill="none" stroke="midnightblue" d="M1144.97,-490.068C963.206,-489.971 136,-483.827 136,-380 136,-380 136,-380 136,-249.5 136,-215.301 139.096,-175.51 141.17,-152.688"/>
<polygon fill="midnightblue" stroke="midnightblue" points="144.659,-152.967 142.113,-142.682 137.69,-152.31 144.659,-152.967"/>
</g>
<!-- Node11 -->
<g id="node11" class="node"><title>Node11</title>
<g id="a_node11"><a xlink:href="si4735__cmd__prop_8h.html" target="_top" xlink:title="driver/include/si4735\l_cmd_prop.h">
<polygon fill="white" stroke="black" points="66,-56.5 66,-86.5 170,-86.5 170,-56.5 66,-56.5"/>
<text text-anchor="start" x="74" y="-74.5" font-family="Helvetica,sans-Serif" font-size="10.00">driver/include/si4735</text>
<text text-anchor="middle" x="118" y="-63.5" font-family="Helvetica,sans-Serif" font-size="10.00">_cmd_prop.h</text>
</a>
</g>
</g>
<!-- Node3&#45;&gt;Node11 -->
<g id="edge25" class="edge"><title>Node3&#45;&gt;Node11</title>
<path fill="none" stroke="midnightblue" d="M1144.93,-489.716C969.829,-488.143 194.497,-479.277 93,-445 45.2227,-428.865 0,-430.428 0,-380 0,-380 0,-380 0,-188 0,-143.396 43.591,-110.345 77.7842,-91.2803"/>
<polygon fill="midnightblue" stroke="midnightblue" points="79.5289,-94.3163 86.688,-86.5062 76.221,-88.1472 79.5289,-94.3163"/>
</g>
<!-- Node13 -->
<g id="node13" class="node"><title>Node13</title>
<g id="a_node13"><a xlink:href="log__exp__table_8h.html" target="_top" xlink:title="libs/log_exp_table.h">
<polygon fill="white" stroke="black" points="1245.5,-241 1245.5,-260 1348.5,-260 1348.5,-241 1245.5,-241"/>
<text text-anchor="middle" x="1297" y="-248" font-family="Helvetica,sans-Serif" font-size="10.00">libs/log_exp_table.h</text>
</a>
</g>
</g>
<!-- Node3&#45;&gt;Node13 -->
<g id="edge18" class="edge"><title>Node3&#45;&gt;Node13</title>
<path fill="none" stroke="midnightblue" d="M1175.48,-481.401C1169.47,-468.781 1160.34,-444.614 1167,-425 1177.09,-395.287 1186.74,-390.06 1210,-369 1232.49,-348.638 1248.96,-356.618 1268,-333 1282.92,-314.499 1290.47,-287.728 1294.07,-269.981"/>
<polygon fill="midnightblue" stroke="midnightblue" points="1297.53,-270.488 1295.86,-260.026 1290.65,-269.247 1297.53,-270.488"/>
</g>
<!-- Node14 -->
<g id="node14" class="node"><title>Node14</title>
<g id="a_node14"><a xlink:href="si4735_8h.html" target="_top" xlink:title="driver/si4735.h">
<polygon fill="white" stroke="black" points="278.5,-308 278.5,-327 357.5,-327 357.5,-308 278.5,-308"/>
<text text-anchor="middle" x="318" y="-315" font-family="Helvetica,sans-Serif" font-size="10.00">driver/si4735.h</text>
</a>
</g>
</g>
<!-- Node3&#45;&gt;Node14 -->
<g id="edge20" class="edge"><title>Node3&#45;&gt;Node14</title>
<path fill="none" stroke="midnightblue" d="M1144.79,-488.922C1064.09,-485.979 859.776,-475.848 692,-445 600.793,-428.23 578.752,-418.993 491,-389 439.046,-371.242 380.152,-346.141 346.216,-331.174"/>
<polygon fill="midnightblue" stroke="midnightblue" points="347.487,-327.909 336.927,-327.055 344.65,-334.308 347.487,-327.909"/>
</g>
<!-- Node16 -->
<g id="node16" class="node"><title>Node16</title>
<g id="a_node16"><a xlink:href="external__interrupthandler_8h.html" target="_top" xlink:title="driver/external_interrupthandler.h">
<polygon fill="white" stroke="black" points="816.5,-308 816.5,-327 973.5,-327 973.5,-308 816.5,-308"/>
<text text-anchor="middle" x="895" y="-315" font-family="Helvetica,sans-Serif" font-size="10.00">driver/external_interrupthandler.h</text>
</a>
</g>
</g>
<!-- Node3&#45;&gt;Node16 -->
<g id="edge26" class="edge"><title>Node3&#45;&gt;Node16</title>
<path fill="none" stroke="midnightblue" d="M1144.78,-482.283C1114.31,-474.897 1069.54,-462.316 1033,-445 992.453,-425.786 981.751,-419.669 949,-389 931.829,-372.921 915.944,-350.965 905.912,-335.849"/>
<polygon fill="midnightblue" stroke="midnightblue" points="908.58,-333.529 900.209,-327.034 902.702,-337.332 908.58,-333.529"/>
</g>
<!-- Node17 -->
<g id="node17" class="node"><title>Node17</title>
<g id="a_node17"><a xlink:href="tpa2016d2_8h.html" target="_top" xlink:title="driver/tpa2016d2.h">
<polygon fill="white" stroke="black" points="598.5,-308 598.5,-327 693.5,-327 693.5,-308 598.5,-308"/>
<text text-anchor="middle" x="646" y="-315" font-family="Helvetica,sans-Serif" font-size="10.00">driver/tpa2016d2.h</text>
</a>
</g>
</g>
<!-- Node3&#45;&gt;Node17 -->
<g id="edge30" class="edge"><title>Node3&#45;&gt;Node17</title>
<path fill="none" stroke="midnightblue" d="M1144.84,-482.924C1106.63,-474.936 1043.97,-460.955 991,-445 872.626,-409.341 735.772,-355.18 676.248,-330.963"/>
<polygon fill="midnightblue" stroke="midnightblue" points="677.293,-327.609 666.712,-327.07 674.647,-334.09 677.293,-327.609"/>
</g>
<!-- Node18 -->
<g id="node18" class="node"><title>Node18</title>
<g id="a_node18"><a xlink:href="lcd_8h.html" target="_top" xlink:title="driver/lcd.h">
<polygon fill="white" stroke="black" points="500.5,-369.5 500.5,-388.5 563.5,-388.5 563.5,-369.5 500.5,-369.5"/>
<text text-anchor="middle" x="532" y="-376.5" font-family="Helvetica,sans-Serif" font-size="10.00">driver/lcd.h</text>
</a>
</g>
</g>
<!-- Node3&#45;&gt;Node18 -->
<g id="edge36" class="edge"><title>Node3&#45;&gt;Node18</title>
<path fill="none" stroke="midnightblue" d="M1144.89,-487.561C1076.03,-482.425 918.544,-468.954 788,-445 709.729,-430.638 619.932,-405.877 570.206,-391.416"/>
<polygon fill="midnightblue" stroke="midnightblue" points="571.097,-388.03 560.517,-388.581 569.131,-394.748 571.097,-388.03"/>
</g>
<!-- Node21 -->
<g id="node21" class="node"><title>Node21</title>
<g id="a_node21"><a xlink:href="flash_8h.html" target="_top" xlink:title="driver/flash.h">
<polygon fill="white" stroke="black" points="1176.5,-425.5 1176.5,-444.5 1247.5,-444.5 1247.5,-425.5 1176.5,-425.5"/>
<text text-anchor="middle" x="1212" y="-432.5" font-family="Helvetica,sans-Serif" font-size="10.00">driver/flash.h</text>
</a>
</g>
</g>
<!-- Node3&#45;&gt;Node21 -->
<g id="edge44" class="edge"><title>Node3&#45;&gt;Node21</title>
<path fill="none" stroke="midnightblue" d="M1185.28,-481.083C1189.71,-473.613 1196.16,-462.724 1201.62,-453.52"/>
<polygon fill="midnightblue" stroke="midnightblue" points="1204.73,-455.138 1206.81,-444.751 1198.71,-451.57 1204.73,-455.138"/>
</g>
<!-- Node22 -->
<g id="node22" class="node"><title>Node22</title>
<g id="a_node22"><a xlink:href="string_8h.html" target="_top" xlink:title="string.h">
<polygon fill="white" stroke="black" points="1252.5,-369.5 1252.5,-388.5 1301.5,-388.5 1301.5,-369.5 1252.5,-369.5"/>
<text text-anchor="middle" x="1277" y="-376.5" font-family="Helvetica,sans-Serif" font-size="10.00">string.h</text>
</a>
</g>
</g>
<!-- Node3&#45;&gt;Node22 -->
<g id="edge77" class="edge"><title>Node3&#45;&gt;Node22</title>
<path fill="none" stroke="midnightblue" d="M1203.35,-481.449C1220.2,-474.162 1242.31,-462.128 1256,-445 1266.63,-431.697 1271.95,-412.864 1274.56,-398.892"/>
<polygon fill="midnightblue" stroke="midnightblue" points="1278.03,-399.35 1276.13,-388.928 1271.12,-398.262 1278.03,-399.35"/>
</g>
<!-- Node23 -->
<g id="node23" class="node"><title>Node23</title>
<g id="a_node23"><a xlink:href="encoder_8h.html" target="_top" xlink:title="driver/encoder.h">
<polygon fill="white" stroke="black" points="958.5,-369.5 958.5,-388.5 1043.5,-388.5 1043.5,-369.5 958.5,-369.5"/>
<text text-anchor="middle" x="1001" y="-376.5" font-family="Helvetica,sans-Serif" font-size="10.00">driver/encoder.h</text>
</a>
</g>
</g>
<!-- Node3&#45;&gt;Node23 -->
<g id="edge50" class="edge"><title>Node3&#45;&gt;Node23</title>
<path fill="none" stroke="midnightblue" d="M1144.96,-482.052C1119.31,-475.1 1084.51,-463.221 1058,-445 1039.33,-432.169 1022.86,-411.872 1012.49,-397.374"/>
<polygon fill="midnightblue" stroke="midnightblue" points="1015.15,-395.066 1006.59,-388.821 1009.38,-399.04 1015.15,-395.066"/>
</g>
<!-- Node24 -->
<g id="node24" class="node"><title>Node24</title>
<g id="a_node24"><a xlink:href="language_8h.html" target="_top" xlink:title="menu/lang/language.h">
<polygon fill="white" stroke="black" points="1482,-369.5 1482,-388.5 1594,-388.5 1594,-369.5 1482,-369.5"/>
<text text-anchor="middle" x="1538" y="-376.5" font-family="Helvetica,sans-Serif" font-size="10.00">menu/lang/language.h</text>
</a>
</g>
</g>
<!-- Node3&#45;&gt;Node24 -->
<g id="edge56" class="edge"><title>Node3&#45;&gt;Node24</title>
<path fill="none" stroke="midnightblue" d="M1215.21,-485.413C1257.41,-479.237 1329.87,-466.47 1389,-445 1406.94,-438.487 1409.69,-433.04 1427,-425 1452.96,-412.944 1483.09,-400.844 1505.4,-392.233"/>
<polygon fill="midnightblue" stroke="midnightblue" points="1506.67,-395.495 1514.75,-388.65 1504.16,-388.958 1506.67,-395.495"/>
</g>
<!-- Node25 -->
<g id="node25" class="node"><title>Node25</title>
<g id="a_node25"><a xlink:href="menu_8h.html" target="_top" xlink:title="menu/menu.h">
<polygon fill="white" stroke="black" points="1304,-425.5 1304,-444.5 1380,-444.5 1380,-425.5 1304,-425.5"/>
<text text-anchor="middle" x="1342" y="-432.5" font-family="Helvetica,sans-Serif" font-size="10.00">menu/menu.h</text>
</a>
</g>
</g>
<!-- Node3&#45;&gt;Node25 -->
<g id="edge57" class="edge"><title>Node3&#45;&gt;Node25</title>
<path fill="none" stroke="midnightblue" d="M1200.58,-481.444C1226.06,-472.28 1269.65,-457.688 1301.8,-447.519"/>
<polygon fill="midnightblue" stroke="midnightblue" points="1302.88,-450.848 1311.37,-444.516 1300.78,-444.169 1302.88,-450.848"/>
</g>
<!-- Node27 -->
<g id="node27" class="node"><title>Node27</title>
<g id="a_node27"><a xlink:href="station__list_8h.html" target="_top" xlink:title="system/station_list.h">
<polygon fill="white" stroke="black" points="1612.5,-369.5 1612.5,-388.5 1719.5,-388.5 1719.5,-369.5 1612.5,-369.5"/>
<text text-anchor="middle" x="1666" y="-376.5" font-family="Helvetica,sans-Serif" font-size="10.00">system/station_list.h</text>
</a>
</g>
</g>
<!-- Node3&#45;&gt;Node27 -->
<g id="edge67" class="edge"><title>Node3&#45;&gt;Node27</title>
<path fill="none" stroke="midnightblue" d="M1215.15,-490.483C1281.69,-490.155 1429.16,-484.315 1546,-445 1580.94,-433.242 1616.98,-409.619 1640.58,-394.322"/>
<polygon fill="midnightblue" stroke="midnightblue" points="1642.77,-397.072 1649.29,-388.718 1638.99,-391.186 1642.77,-397.072"/>
</g>
<!-- Node29 -->
<g id="node29" class="node"><title>Node29</title>
<g id="a_node29"><a xlink:href="radio__settings_8h.html" target="_top" xlink:title="radio/radio_settings.h">
<polygon fill="white" stroke="black" points="1436,-425.5 1436,-444.5 1546,-444.5 1546,-425.5 1436,-425.5"/>
<text text-anchor="middle" x="1491" y="-432.5" font-family="Helvetica,sans-Serif" font-size="10.00">radio/radio_settings.h</text>
</a>
</g>
</g>
<!-- Node3&#45;&gt;Node29 -->
<g id="edge74" class="edge"><title>Node3&#45;&gt;Node29</title>
<path fill="none" stroke="midnightblue" d="M1215.02,-483.106C1266.32,-473.768 1362.49,-457.027 1426.7,-446.223"/>
<polygon fill="midnightblue" stroke="midnightblue" points="1427.44,-449.648 1436.72,-444.542 1426.28,-442.745 1427.44,-449.648"/>
</g>
<!-- Node30 -->
<g id="node30" class="node"><title>Node30</title>
<g id="a_node30"><a xlink:href="opt3001_8h.html" target="_top" xlink:title="driver/opt3001.h">
<polygon fill="white" stroke="black" points="1174.5,-308 1174.5,-327 1259.5,-327 1259.5,-308 1174.5,-308"/>
<text text-anchor="middle" x="1217" y="-315" font-family="Helvetica,sans-Serif" font-size="10.00">driver/opt3001.h</text>
</a>
</g>
</g>
<!-- Node3&#45;&gt;Node30 -->
<g id="edge78" class="edge"><title>Node3&#45;&gt;Node30</title>
<path fill="none" stroke="midnightblue" d="M1166.21,-481.189C1155.17,-473.241 1140.5,-460.447 1134,-445 1120.9,-413.865 1117.45,-398.445 1134,-369 1143.97,-351.259 1162.98,-339.024 1180.29,-331.044"/>
<polygon fill="midnightblue" stroke="midnightblue" points="1181.85,-334.187 1189.67,-327.042 1179.1,-327.749 1181.85,-334.187"/>
</g>
<!-- Node31 -->
<g id="node31" class="node"><title>Node31</title>
<g id="a_node31"><a xlink:href="system_2time_8h.html" target="_top" xlink:title="system/time.h">
<polygon fill="white" stroke="black" points="28.5,-179.5 28.5,-198.5 107.5,-198.5 107.5,-179.5 28.5,-179.5"/>
<text text-anchor="middle" x="68" y="-186.5" font-family="Helvetica,sans-Serif" font-size="10.00">system/time.h</text>
</a>
</g>
</g>
<!-- Node3&#45;&gt;Node31 -->
<g id="edge81" class="edge"><title>Node3&#45;&gt;Node31</title>
<path fill="none" stroke="midnightblue" d="M1144.96,-489.44C966.669,-486.471 166.913,-471.705 122,-445 93.0424,-427.782 83,-413.69 83,-380 83,-380 83,-380 83,-316.5 83,-277.934 76.0398,-233.212 71.6018,-208.615"/>
<polygon fill="midnightblue" stroke="midnightblue" points="74.998,-207.735 69.7207,-198.548 68.1171,-209.021 74.998,-207.735"/>
</g>
<!-- Node4&#45;&gt;Node2 -->
<g id="edge5" class="edge"><title>Node4&#45;&gt;Node2</title>
<path fill="none" stroke="midnightblue" d="M1074.46,-307.914C1075.51,-287.486 1078,-234.385 1078,-190 1078,-190 1078,-190 1078,-132 1078,-93.8116 1095.44,-51.8296 1106.69,-28.7224"/>
<polygon fill="midnightblue" stroke="midnightblue" points="1109.96,-30.0195 1111.34,-19.5153 1103.71,-26.8646 1109.96,-30.0195"/>
</g>
<!-- Node5 -->
<g id="node5" class="node"><title>Node5</title>
<g id="a_node5"><a xlink:href="i2c_8h.html" target="_top" xlink:title="I2C implemtation for MSP430G2553, interrupt based. &#160;&#160;This implemtation based on examples from Texas I...">
<polygon fill="white" stroke="black" points="711.5,-241 711.5,-260 774.5,-260 774.5,-241 711.5,-241"/>
<text text-anchor="middle" x="743" y="-248" font-family="Helvetica,sans-Serif" font-size="10.00">driver/i2c.h</text>
</a>
</g>
</g>
<!-- Node4&#45;&gt;Node5 -->
<g id="edge6" class="edge"><title>Node4&#45;&gt;Node5</title>
<path fill="none" stroke="midnightblue" d="M1030.39,-307.936C966.365,-295.363 847.737,-272.068 784.778,-259.704"/>
<polygon fill="midnightblue" stroke="midnightblue" points="785.286,-256.237 774.799,-257.745 783.937,-263.106 785.286,-256.237"/>
</g>
<!-- Node5&#45;&gt;Node2 -->
<g id="edge7" class="edge"><title>Node5&#45;&gt;Node2</title>
<path fill="none" stroke="midnightblue" d="M729.841,-241C711.682,-228.14 682.52,-202.718 695,-179 739.948,-93.5765 784.83,-92.9618 874,-56 943.916,-27.0193 1032.92,-16.5998 1081.14,-12.93"/>
<polygon fill="midnightblue" stroke="midnightblue" points="1081.62,-16.4045 1091.35,-12.2081 1081.13,-9.42194 1081.62,-16.4045"/>
</g>
<!-- Node6 -->
<g id="node6" class="node"><title>Node6</title>
<polygon fill="white" stroke="#bfbfbf" points="925.5,-123.5 925.5,-142.5 984.5,-142.5 984.5,-123.5 925.5,-123.5"/>
<text text-anchor="middle" x="955" y="-130.5" font-family="Helvetica,sans-Serif" font-size="10.00">msp430.h</text>
</g>
<!-- Node5&#45;&gt;Node6 -->
<g id="edge8" class="edge"><title>Node5&#45;&gt;Node6</title>
<path fill="none" stroke="midnightblue" d="M758.934,-240.819C795.627,-220.828 886.298,-171.429 930.282,-147.467"/>
<polygon fill="midnightblue" stroke="midnightblue" points="932.063,-150.482 939.17,-142.624 928.714,-144.335 932.063,-150.482"/>
</g>
<!-- Node7 -->
<g id="node7" class="node"><title>Node7</title>
<polygon fill="white" stroke="#bfbfbf" points="774,-179.5 774,-198.5 822,-198.5 822,-179.5 774,-179.5"/>
<text text-anchor="middle" x="798" y="-186.5" font-family="Helvetica,sans-Serif" font-size="10.00">stdlib.h</text>
</g>
<!-- Node5&#45;&gt;Node7 -->
<g id="edge9" class="edge"><title>Node5&#45;&gt;Node7</title>
<path fill="none" stroke="midnightblue" d="M750.88,-240.975C759.294,-231.873 772.819,-217.241 783.226,-205.983"/>
<polygon fill="midnightblue" stroke="midnightblue" points="785.917,-208.228 790.134,-198.509 780.776,-203.477 785.917,-208.228"/>
</g>
<!-- Node8 -->
<g id="node8" class="node"><title>Node8</title>
<polygon fill="white" stroke="#bfbfbf" points="704,-179.5 704,-198.5 756,-198.5 756,-179.5 704,-179.5"/>
<text text-anchor="middle" x="730" y="-186.5" font-family="Helvetica,sans-Serif" font-size="10.00">stdarg.h</text>
</g>
<!-- Node5&#45;&gt;Node8 -->
<g id="edge10" class="edge"><title>Node5&#45;&gt;Node8</title>
<path fill="none" stroke="midnightblue" d="M741.137,-240.975C739.284,-232.492 736.381,-219.204 734.003,-208.322"/>
<polygon fill="midnightblue" stroke="midnightblue" points="737.413,-207.532 731.859,-198.509 730.574,-209.026 737.413,-207.532"/>
</g>
<!-- Node5&#45;&gt;Node9 -->
<g id="edge11" class="edge"><title>Node5&#45;&gt;Node9</title>
<path fill="none" stroke="midnightblue" d="M711.357,-245.028C637.67,-234.614 454.358,-208.706 368.169,-196.525"/>
<polygon fill="midnightblue" stroke="midnightblue" points="368.545,-193.043 358.153,-195.11 367.565,-199.975 368.545,-193.043"/>
</g>
<!-- Node9&#45;&gt;Node2 -->
<g id="edge13" class="edge"><title>Node9&#45;&gt;Node2</title>
<path fill="none" stroke="midnightblue" d="M322.266,-179.356C323.529,-155.129 330.753,-86.3625 372,-56 429.575,-13.6175 942.179,-10.8744 1081.3,-10.9167"/>
<polygon fill="midnightblue" stroke="midnightblue" points="1081.39,-14.4167 1091.39,-10.925 1081.4,-7.41668 1081.39,-14.4167"/>
</g>
<!-- Node9&#45;&gt;Node6 -->
<g id="edge12" class="edge"><title>Node9&#45;&gt;Node6</title>
<path fill="none" stroke="midnightblue" d="M358.306,-184.903C468.741,-175.482 800.074,-147.216 915.123,-137.402"/>
<polygon fill="midnightblue" stroke="midnightblue" points="915.586,-140.875 925.253,-136.538 914.991,-133.9 915.586,-140.875"/>
</g>
<!-- Node9&#45;&gt;Node10 -->
<g id="edge14" class="edge"><title>Node9&#45;&gt;Node10</title>
<path fill="none" stroke="midnightblue" d="M293.637,-179.444C263.262,-170.28 214.89,-155.688 181.184,-145.519"/>
<polygon fill="midnightblue" stroke="midnightblue" points="181.815,-142.054 171.23,-142.516 179.793,-148.756 181.815,-142.054"/>
</g>
<!-- Node10&#45;&gt;Node11 -->
<g id="edge15" class="edge"><title>Node10&#45;&gt;Node11</title>
<path fill="none" stroke="midnightblue" d="M139.418,-123.475C136.38,-116.245 131.876,-105.525 127.781,-95.7792"/>
<polygon fill="midnightblue" stroke="midnightblue" points="130.992,-94.3865 123.892,-86.523 124.539,-97.098 130.992,-94.3865"/>
</g>
<!-- Node12 -->
<g id="node12" class="node"><title>Node12</title>
<g id="a_node12"><a xlink:href="libs_2time_8h.html" target="_top" xlink:title="libs/time.h">
<polygon fill="white" stroke="black" points="188,-62 188,-81 250,-81 250,-62 188,-62"/>
<text text-anchor="middle" x="219" y="-69" font-family="Helvetica,sans-Serif" font-size="10.00">libs/time.h</text>
</a>
</g>
</g>
<!-- Node10&#45;&gt;Node12 -->
<g id="edge17" class="edge"><title>Node10&#45;&gt;Node12</title>
<path fill="none" stroke="midnightblue" d="M153.889,-123.475C165.966,-114.02 185.667,-98.5961 200.24,-87.1871"/>
<polygon fill="midnightblue" stroke="midnightblue" points="202.415,-89.9295 208.131,-81.0091 198.1,-84.4177 202.415,-89.9295"/>
</g>
<!-- Node11&#45;&gt;Node2 -->
<g id="edge16" class="edge"><title>Node11&#45;&gt;Node2</title>
<path fill="none" stroke="midnightblue" d="M170.122,-57.4391C173.115,-56.8986 176.09,-56.4121 179,-56 358.339,-30.6025 933.422,-15.3669 1081.15,-11.8081"/>
<polygon fill="midnightblue" stroke="midnightblue" points="1081.51,-15.3006 1091.42,-11.5629 1081.34,-8.30262 1081.51,-15.3006"/>
</g>
<!-- Node13&#45;&gt;Node2 -->
<g id="edge19" class="edge"><title>Node13&#45;&gt;Node2</title>
<path fill="none" stroke="midnightblue" d="M1296.55,-240.861C1294.55,-211.067 1284,-111.399 1231,-56 1209.77,-33.8062 1176.28,-22.3597 1150.91,-16.5823"/>
<polygon fill="midnightblue" stroke="midnightblue" points="1151.44,-13.1179 1140.94,-14.5039 1150.01,-19.9707 1151.44,-13.1179"/>
</g>
<!-- Node14&#45;&gt;Node2 -->
<g id="edge21" class="edge"><title>Node14&#45;&gt;Node2</title>
<path fill="none" stroke="midnightblue" d="M313.876,-307.923C304.974,-288.878 284.183,-241.391 277,-199 265.305,-129.986 284.002,-93.6689 343,-56 405.736,-15.9445 938.506,-11.5152 1081.05,-11.049"/>
<polygon fill="midnightblue" stroke="midnightblue" points="1081.39,-14.5482 1091.38,-11.0201 1081.37,-7.54823 1081.39,-14.5482"/>
</g>
<!-- Node14&#45;&gt;Node5 -->
<g id="edge22" class="edge"><title>Node14&#45;&gt;Node5</title>
<path fill="none" stroke="midnightblue" d="M357.823,-309.718C372.628,-307.235 389.573,-304.438 405,-302 511.587,-285.156 637.326,-266.757 701.206,-257.513"/>
<polygon fill="midnightblue" stroke="midnightblue" points="701.889,-260.951 711.285,-256.057 700.887,-254.023 701.889,-260.951"/>
</g>
<!-- Node14&#45;&gt;Node9 -->
<g id="edge23" class="edge"><title>Node14&#45;&gt;Node9</title>
<path fill="none" stroke="midnightblue" d="M318.275,-307.805C318.917,-287.494 320.528,-236.553 321.406,-208.777"/>
<polygon fill="midnightblue" stroke="midnightblue" points="324.905,-208.861 321.723,-198.756 317.909,-208.64 324.905,-208.861"/>
</g>
<!-- Node15 -->
<g id="node15" class="node"><title>Node15</title>
<g id="a_node15"><a xlink:href="radio__pin__mapping_8h.html" target="_top" xlink:title="settings/radio_pin\l_mapping.h">
<polygon fill="white" stroke="black" points="482.5,-235.5 482.5,-265.5 575.5,-265.5 575.5,-235.5 482.5,-235.5"/>
<text text-anchor="start" x="490.5" y="-253.5" font-family="Helvetica,sans-Serif" font-size="10.00">settings/radio_pin</text>
<text text-anchor="middle" x="529" y="-242.5" font-family="Helvetica,sans-Serif" font-size="10.00">_mapping.h</text>
</a>
</g>
</g>
<!-- Node14&#45;&gt;Node15 -->
<g id="edge24" class="edge"><title>Node14&#45;&gt;Node15</title>
<path fill="none" stroke="midnightblue" d="M346.019,-307.869C378.503,-297.862 432.828,-281.127 473.867,-268.484"/>
<polygon fill="midnightblue" stroke="midnightblue" points="474.936,-271.817 483.463,-265.528 472.875,-265.127 474.936,-271.817"/>
</g>
<!-- Node16&#45;&gt;Node2 -->
<g id="edge28" class="edge"><title>Node16&#45;&gt;Node2</title>
<path fill="none" stroke="midnightblue" d="M919.926,-307.888C961.384,-291.794 1040,-252.972 1040,-190 1040,-190 1040,-190 1040,-132 1040,-88.4754 1075.7,-47.7746 1098.16,-26.4715"/>
<polygon fill="midnightblue" stroke="midnightblue" points="1100.73,-28.8634 1105.75,-19.5313 1096.01,-23.6984 1100.73,-28.8634"/>
</g>
<!-- Node16&#45;&gt;Node6 -->
<g id="edge27" class="edge"><title>Node16&#45;&gt;Node6</title>
<path fill="none" stroke="midnightblue" d="M898.812,-307.802C907.157,-288.515 927.309,-240.576 940,-199 944.707,-183.579 948.731,-165.707 951.422,-152.611"/>
<polygon fill="midnightblue" stroke="midnightblue" points="954.913,-153.003 953.428,-142.513 948.047,-151.64 954.913,-153.003"/>
</g>
<!-- Node16&#45;&gt;Node15 -->
<g id="edge29" class="edge"><title>Node16&#45;&gt;Node15</title>
<path fill="none" stroke="midnightblue" d="M846.776,-307.936C779.431,-295.975 657.444,-274.311 585.789,-261.586"/>
<polygon fill="midnightblue" stroke="midnightblue" points="586.053,-258.078 575.595,-259.775 584.829,-264.97 586.053,-258.078"/>
</g>
<!-- Node17&#45;&gt;Node2 -->
<g id="edge32" class="edge"><title>Node17&#45;&gt;Node2</title>
<path fill="none" stroke="midnightblue" d="M648.159,-307.993C653.779,-286.212 669.709,-226.788 688,-179 713.591,-112.142 726.746,-85.4421 792,-56 843.189,-32.9042 1008.66,-18.6361 1081.29,-13.3405"/>
<polygon fill="midnightblue" stroke="midnightblue" points="1081.58,-16.8287 1091.3,-12.6243 1081.08,-9.84648 1081.58,-16.8287"/>
</g>
<!-- Node17&#45;&gt;Node5 -->
<g id="edge33" class="edge"><title>Node17&#45;&gt;Node5</title>
<path fill="none" stroke="midnightblue" d="M659.082,-307.734C675.153,-296.964 702.633,-278.55 721.75,-265.739"/>
<polygon fill="midnightblue" stroke="midnightblue" points="723.766,-268.602 730.125,-260.127 719.87,-262.787 723.766,-268.602"/>
</g>
<!-- Node17&#45;&gt;Node6 -->
<g id="edge31" class="edge"><title>Node17&#45;&gt;Node6</title>
<path fill="none" stroke="midnightblue" d="M677.08,-307.979C705.627,-299.482 748.592,-284.97 783,-266 845.104,-231.76 908.956,-176.424 938.346,-149.588"/>
<polygon fill="midnightblue" stroke="midnightblue" points="941.03,-151.875 946.007,-142.522 936.284,-146.729 941.03,-151.875"/>
</g>
<!-- Node17&#45;&gt;Node9 -->
<g id="edge35" class="edge"><title>Node17&#45;&gt;Node9</title>
<path fill="none" stroke="midnightblue" d="M642.166,-307.886C634.099,-290.856 613.64,-252.98 584,-235 548.511,-213.471 433.542,-199.98 368.307,-193.86"/>
<polygon fill="midnightblue" stroke="midnightblue" points="368.562,-190.369 358.284,-192.941 367.923,-197.339 368.562,-190.369"/>
</g>
<!-- Node17&#45;&gt;Node15 -->
<g id="edge34" class="edge"><title>Node17&#45;&gt;Node15</title>
<path fill="none" stroke="midnightblue" d="M630.221,-307.734C613.116,-298.231 585.299,-282.777 563.149,-270.472"/>
<polygon fill="midnightblue" stroke="midnightblue" points="564.802,-267.386 554.36,-265.589 561.402,-273.505 564.802,-267.386"/>
</g>
<!-- Node18&#45;&gt;Node2 -->
<g id="edge37" class="edge"><title>Node18&#45;&gt;Node2</title>
<path fill="none" stroke="midnightblue" d="M500.445,-370.514C467.202,-362.009 417.903,-347.429 405,-333 380.206,-305.276 386,-288.694 386,-251.5 386,-251.5 386,-251.5 386,-132 386,-60.6408 935.909,-22.0017 1081.16,-13.0401"/>
<polygon fill="midnightblue" stroke="midnightblue" points="1081.52,-16.5247 1091.29,-12.4231 1081.1,-9.53767 1081.52,-16.5247"/>
</g>
<!-- Node18&#45;&gt;Node9 -->
<g id="edge43" class="edge"><title>Node18&#45;&gt;Node9</title>
<path fill="none" stroke="midnightblue" d="M500.254,-377.462C436.885,-375.645 298.269,-367.702 269,-333 236.684,-294.685 281.147,-234.837 306.505,-206.256"/>
<polygon fill="midnightblue" stroke="midnightblue" points="309.198,-208.498 313.364,-198.757 304.032,-203.774 309.198,-208.498"/>
</g>
<!-- Node18&#45;&gt;Node15 -->
<g id="edge42" class="edge"><title>Node18&#45;&gt;Node15</title>
<path fill="none" stroke="midnightblue" d="M531.794,-369.305C531.343,-350.298 530.256,-304.47 529.579,-275.9"/>
<polygon fill="midnightblue" stroke="midnightblue" points="533.077,-275.802 529.341,-265.888 526.079,-275.968 533.077,-275.802"/>
</g>
<!-- Node19 -->
<g id="node19" class="node"><title>Node19</title>
<g id="a_node19"><a xlink:href="pca9534_8h.html" target="_top" xlink:title="driver/pca9534.h">
<polygon fill="white" stroke="black" points="711.5,-308 711.5,-327 798.5,-327 798.5,-308 711.5,-308"/>
<text text-anchor="middle" x="755" y="-315" font-family="Helvetica,sans-Serif" font-size="10.00">driver/pca9534.h</text>
</a>
</g>
</g>
<!-- Node18&#45;&gt;Node19 -->
<g id="edge38" class="edge"><title>Node18&#45;&gt;Node19</title>
<path fill="none" stroke="midnightblue" d="M563.666,-369.702C597.823,-360.731 653.798,-345.973 702,-333 705.879,-331.956 709.916,-330.863 713.954,-329.766"/>
<polygon fill="midnightblue" stroke="midnightblue" points="715.176,-333.06 723.904,-327.054 713.335,-326.307 715.176,-333.06"/>
</g>
<!-- Node20 -->
<g id="node20" class="node"><title>Node20</title>
<g id="a_node20"><a xlink:href="lcd__commands_8h.html" target="_top" xlink:title="driver/include/lcd\l_commands.h">
<polygon fill="white" stroke="black" points="414.5,-302.5 414.5,-332.5 503.5,-332.5 503.5,-302.5 414.5,-302.5"/>
<text text-anchor="start" x="422.5" y="-320.5" font-family="Helvetica,sans-Serif" font-size="10.00">driver/include/lcd</text>
<text text-anchor="middle" x="459" y="-309.5" font-family="Helvetica,sans-Serif" font-size="10.00">_commands.h</text>
</a>
</g>
</g>
<!-- Node18&#45;&gt;Node20 -->
<g id="edge41" class="edge"><title>Node18&#45;&gt;Node20</title>
<path fill="none" stroke="midnightblue" d="M521.541,-369.475C511.839,-361.567 497.015,-349.485 484.234,-339.067"/>
<polygon fill="midnightblue" stroke="midnightblue" points="486.167,-336.128 476.205,-332.523 481.745,-341.554 486.167,-336.128"/>
</g>
<!-- Node19&#45;&gt;Node2 -->
<g id="edge39" class="edge"><title>Node19&#45;&gt;Node2</title>
<path fill="none" stroke="midnightblue" d="M776.369,-307.947C813.965,-291.325 888,-250.865 888,-190 888,-190 888,-190 888,-132 888,-45.6162 1017.28,-20.7183 1081.14,-13.6889"/>
<polygon fill="midnightblue" stroke="midnightblue" points="1081.57,-17.1636 1091.17,-12.6736 1080.86,-10.1992 1081.57,-17.1636"/>
</g>
<!-- Node19&#45;&gt;Node5 -->
<g id="edge40" class="edge"><title>Node19&#45;&gt;Node5</title>
<path fill="none" stroke="midnightblue" d="M753.382,-307.734C751.618,-298.183 748.745,-282.618 746.468,-270.283"/>
<polygon fill="midnightblue" stroke="midnightblue" points="749.85,-269.326 744.593,-260.127 742.966,-270.597 749.85,-269.326"/>
</g>
<!-- Node21&#45;&gt;Node2 -->
<g id="edge45" class="edge"><title>Node21&#45;&gt;Node2</title>
<path fill="none" stroke="midnightblue" d="M1214.66,-425.259C1219,-412.031 1228.58,-386.605 1243,-369 1259.9,-348.368 1270.92,-350.548 1291,-333 1322.47,-305.495 1336.32,-302.324 1357,-266 1374.28,-235.647 1377,-224.928 1377,-190 1377,-190 1377,-190 1377,-132 1377,-33.4242 1221.86,-14.9246 1150.8,-11.6215"/>
<polygon fill="midnightblue" stroke="midnightblue" points="1150.68,-8.11431 1140.55,-11.2241 1150.41,-15.1091 1150.68,-8.11431"/>
</g>
<!-- Node21&#45;&gt;Node6 -->
<g id="edge48" class="edge"><title>Node21&#45;&gt;Node6</title>
<path fill="none" stroke="midnightblue" d="M1209.09,-425.347C1205.24,-412.234 1200.01,-386.957 1210,-369 1224.75,-342.487 1253.25,-359.513 1268,-333 1274.7,-320.96 1275.07,-313.824 1268,-302 1236.1,-248.671 1060.46,-175.197 987.157,-146.341"/>
<polygon fill="midnightblue" stroke="midnightblue" points="988.106,-142.954 977.518,-142.572 985.557,-149.473 988.106,-142.954"/>
</g>
<!-- Node21&#45;&gt;Node22 -->
<g id="edge46" class="edge"><title>Node21&#45;&gt;Node22</title>
<path fill="none" stroke="midnightblue" d="M1222.44,-425.324C1232.15,-417.263 1246.82,-405.077 1258.5,-395.369"/>
<polygon fill="midnightblue" stroke="midnightblue" points="1260.91,-397.916 1266.37,-388.834 1256.44,-392.532 1260.91,-397.916"/>
</g>
<!-- Node22&#45;&gt;Node2 -->
<g id="edge47" class="edge"><title>Node22&#45;&gt;Node2</title>
<path fill="none" stroke="midnightblue" d="M1301.83,-370.234C1329.86,-361.032 1373.12,-345.39 1385,-333 1411.71,-305.139 1415,-290.098 1415,-251.5 1415,-251.5 1415,-251.5 1415,-132 1415,-96.578 1417.78,-79.1847 1391,-56 1355.66,-25.4051 1216.98,-15.3584 1151.11,-12.2712"/>
<polygon fill="midnightblue" stroke="midnightblue" points="1150.96,-8.7613 1140.81,-11.818 1150.65,-15.7545 1150.96,-8.7613"/>
</g>
<!-- Node23&#45;&gt;Node2 -->
<g id="edge51" class="edge"><title>Node23&#45;&gt;Node2</title>
<path fill="none" stroke="midnightblue" d="M1043.61,-374.879C1072.04,-370.321 1107.5,-359.324 1126,-333 1193.55,-236.893 1143.53,-81.744 1123.39,-29.1229"/>
<polygon fill="midnightblue" stroke="midnightblue" points="1126.62,-27.7806 1119.7,-19.7599 1120.11,-30.3468 1126.62,-27.7806"/>
</g>
<!-- Node23&#45;&gt;Node6 -->
<g id="edge52" class="edge"><title>Node23&#45;&gt;Node6</title>
<path fill="none" stroke="midnightblue" d="M999.363,-369.316C992.726,-334.11 967.737,-201.561 958.479,-152.452"/>
<polygon fill="midnightblue" stroke="midnightblue" points="961.91,-151.758 956.618,-142.58 955.031,-153.055 961.91,-151.758"/>
</g>
<!-- Node23&#45;&gt;Node10 -->
<g id="edge54" class="edge"><title>Node23&#45;&gt;Node10</title>
<path fill="none" stroke="midnightblue" d="M958.359,-377.068C811.496,-373.625 332.196,-360.385 269,-333 193.227,-300.165 158.592,-195.292 147.345,-152.474"/>
<polygon fill="midnightblue" stroke="midnightblue" points="150.693,-151.433 144.877,-142.577 143.901,-153.127 150.693,-151.433"/>
</g>
<!-- Node23&#45;&gt;Node15 -->
<g id="edge53" class="edge"><title>Node23&#45;&gt;Node15</title>
<path fill="none" stroke="midnightblue" d="M958.395,-377.62C866.124,-376.12 651.119,-368.773 589,-333 565.945,-319.723 549.173,-293.64 539.316,-274.545"/>
<polygon fill="midnightblue" stroke="midnightblue" points="542.457,-273.001 534.916,-265.56 536.171,-276.08 542.457,-273.001"/>
</g>
<!-- Node23&#45;&gt;Node16 -->
<g id="edge55" class="edge"><title>Node23&#45;&gt;Node16</title>
<path fill="none" stroke="midnightblue" d="M985.813,-369.475C968.338,-359.666 939.421,-343.435 918.917,-331.925"/>
<polygon fill="midnightblue" stroke="midnightblue" points="920.592,-328.852 910.159,-327.009 917.166,-334.956 920.592,-328.852"/>
</g>
<!-- Node25&#45;&gt;Node2 -->
<g id="edge58" class="edge"><title>Node25&#45;&gt;Node2</title>
<path fill="none" stroke="midnightblue" d="M1375.69,-425.389C1395.64,-418.629 1419.9,-407.235 1435,-389 1455.7,-364.007 1454,-350.951 1454,-318.5 1454,-318.5 1454,-318.5 1454,-132 1454,-94.2353 1446.56,-78.1884 1416,-56 1374.25,-25.6844 1220.66,-15.4133 1150.89,-12.2625"/>
<polygon fill="midnightblue" stroke="midnightblue" points="1150.98,-8.76307 1140.84,-11.8318 1150.68,-15.7567 1150.98,-8.76307"/>
</g>
<!-- Node25&#45;&gt;Node3 -->
<g id="edge60" class="edge"><title>Node25&#45;&gt;Node3</title>
<path fill="none" stroke="midnightblue" d="M1321.53,-444.516C1296.1,-453.664 1252.52,-468.255 1220.35,-478.436"/>
<polygon fill="midnightblue" stroke="midnightblue" points="1219.25,-475.111 1210.76,-481.444 1221.35,-481.79 1219.25,-475.111"/>
</g>
<!-- Node25&#45;&gt;Node18 -->
<g id="edge59" class="edge"><title>Node25&#45;&gt;Node18</title>
<path fill="none" stroke="midnightblue" d="M1303.93,-429.667C1289,-428.059 1271.71,-426.31 1256,-425 997.035,-403.411 685.166,-387.389 573.922,-381.986"/>
<polygon fill="midnightblue" stroke="midnightblue" points="573.949,-378.483 563.792,-381.496 573.611,-385.475 573.949,-378.483"/>
</g>
<!-- Node25&#45;&gt;Node22 -->
<g id="edge65" class="edge"><title>Node25&#45;&gt;Node22</title>
<path fill="none" stroke="midnightblue" d="M1331.56,-425.324C1321.85,-417.263 1307.18,-405.077 1295.5,-395.369"/>
<polygon fill="midnightblue" stroke="midnightblue" points="1297.56,-392.532 1287.63,-388.834 1293.09,-397.916 1297.56,-392.532"/>
</g>
<!-- Node25&#45;&gt;Node23 -->
<g id="edge61" class="edge"><title>Node25&#45;&gt;Node23</title>
<path fill="none" stroke="midnightblue" d="M1303.88,-427.963C1242.88,-418.303 1123.18,-399.348 1053.93,-388.381"/>
<polygon fill="midnightblue" stroke="midnightblue" points="1054.1,-384.865 1043.67,-386.758 1053,-391.779 1054.1,-384.865"/>
</g>
<!-- Node25&#45;&gt;Node24 -->
<g id="edge62" class="edge"><title>Node25&#45;&gt;Node24</title>
<path fill="none" stroke="midnightblue" d="M1373.06,-425.444C1406.6,-416.201 1460.2,-401.436 1497.14,-391.257"/>
<polygon fill="midnightblue" stroke="midnightblue" points="1498.38,-394.547 1507.09,-388.516 1496.52,-387.798 1498.38,-394.547"/>
</g>
<!-- Node26 -->
<g id="node26" class="node"><title>Node26</title>
<g id="a_node26"><a xlink:href="menu__struct_8h.html" target="_top" xlink:title="menu/menu_struct.h">
<polygon fill="white" stroke="black" points="1320,-369.5 1320,-388.5 1426,-388.5 1426,-369.5 1320,-369.5"/>
<text text-anchor="middle" x="1373" y="-376.5" font-family="Helvetica,sans-Serif" font-size="10.00">menu/menu_struct.h</text>
</a>
</g>
</g>
<!-- Node25&#45;&gt;Node26 -->
<g id="edge63" class="edge"><title>Node25&#45;&gt;Node26</title>
<path fill="none" stroke="midnightblue" d="M1341.95,-425.083C1344.72,-417.455 1350.76,-406.264 1356.96,-396.941"/>
<polygon fill="midnightblue" stroke="midnightblue" points="1359.85,-398.914 1362.85,-388.751 1354.17,-394.829 1359.85,-398.914"/>
</g>
<!-- Node26&#45;&gt;Node25 -->
<g id="edge64" class="edge"><title>Node26&#45;&gt;Node25</title>
<path fill="none" stroke="midnightblue" d="M1373.11,-388.751C1370.39,-396.327 1364.37,-407.505 1358.18,-416.855"/>
<polygon fill="midnightblue" stroke="midnightblue" points="1355.26,-414.914 1352.29,-425.083 1360.95,-418.989 1355.26,-414.914"/>
</g>
<!-- Node27&#45;&gt;Node2 -->
<g id="edge68" class="edge"><title>Node27&#45;&gt;Node2</title>
<path fill="none" stroke="midnightblue" d="M1646.31,-369.393C1610.88,-352.414 1540,-311.015 1540,-251.5 1540,-251.5 1540,-251.5 1540,-132 1540,-85.4711 1509.49,-77.0634 1468,-56 1412.98,-28.0645 1228.52,-16.2938 1150.89,-12.4955"/>
<polygon fill="midnightblue" stroke="midnightblue" points="1150.83,-8.98855 1140.67,-12.0116 1150.5,-15.9807 1150.83,-8.98855"/>
</g>
<!-- Node27&#45;&gt;Node3 -->
<g id="edge69" class="edge"><title>Node27&#45;&gt;Node3</title>
<path fill="none" stroke="midnightblue" d="M1660.27,-388.718C1644.56,-403.138 1603.58,-431.682 1564,-445 1446.86,-484.415 1298.94,-490.184 1225.46,-490.486"/>
<polygon fill="midnightblue" stroke="midnightblue" points="1225.17,-486.986 1215.17,-490.494 1225.18,-493.986 1225.17,-486.986"/>
</g>
<!-- Node28 -->
<g id="node28" class="node"><title>Node28</title>
<g id="a_node28"><a xlink:href="station__list__struct_8h.html" target="_top" xlink:title="system/station_list\l_struct.h">
<polygon fill="white" stroke="black" points="1616.5,-302.5 1616.5,-332.5 1715.5,-332.5 1715.5,-302.5 1616.5,-302.5"/>
<text text-anchor="start" x="1624.5" y="-320.5" font-family="Helvetica,sans-Serif" font-size="10.00">system/station_list</text>
<text text-anchor="middle" x="1666" y="-309.5" font-family="Helvetica,sans-Serif" font-size="10.00">_struct.h</text>
</a>
</g>
</g>
<!-- Node27&#45;&gt;Node28 -->
<g id="edge70" class="edge"><title>Node27&#45;&gt;Node28</title>
<path fill="none" stroke="midnightblue" d="M1666,-369.475C1666,-362.471 1666,-352.192 1666,-342.696"/>
<polygon fill="midnightblue" stroke="midnightblue" points="1669.5,-342.523 1666,-332.523 1662.5,-342.523 1669.5,-342.523"/>
</g>
<!-- Node28&#45;&gt;Node2 -->
<g id="edge71" class="edge"><title>Node28&#45;&gt;Node2</title>
<path fill="none" stroke="midnightblue" d="M1657.52,-302.262C1644.73,-279.416 1622,-232.784 1622,-190 1622,-190 1622,-190 1622,-132 1622,-86.6754 1594.38,-76.5931 1554,-56 1483.67,-20.1278 1241.65,-12.8472 1150.81,-11.373"/>
<polygon fill="midnightblue" stroke="midnightblue" points="1150.81,-7.87262 1140.76,-11.2238 1150.7,-14.8719 1150.81,-7.87262"/>
</g>
<!-- Node28&#45;&gt;Node3 -->
<g id="edge72" class="edge"><title>Node28&#45;&gt;Node3</title>
<path fill="none" stroke="midnightblue" d="M1693.38,-332.636C1715.87,-346.211 1741.95,-367.74 1728,-389 1672.89,-473 1346.49,-487.181 1225.28,-489.541"/>
<polygon fill="midnightblue" stroke="midnightblue" points="1225.15,-486.043 1215.22,-489.719 1225.28,-493.042 1225.15,-486.043"/>
</g>
<!-- Node29&#45;&gt;Node3 -->
<g id="edge75" class="edge"><title>Node29&#45;&gt;Node3</title>
<path fill="none" stroke="midnightblue" d="M1446.97,-444.527C1388.21,-455.136 1284.88,-473.056 1225.42,-482.936"/>
<polygon fill="midnightblue" stroke="midnightblue" points="1224.5,-479.541 1215.2,-484.625 1225.64,-486.447 1224.5,-479.541"/>
</g>
<!-- Node29&#45;&gt;Node27 -->
<g id="edge76" class="edge"><title>Node29&#45;&gt;Node27</title>
<path fill="none" stroke="midnightblue" d="M1518.73,-425.444C1548.43,-416.28 1595.72,-401.688 1628.67,-391.519"/>
<polygon fill="midnightblue" stroke="midnightblue" points="1629.88,-394.809 1638.4,-388.516 1627.81,-388.121 1629.88,-394.809"/>
</g>
<!-- Node30&#45;&gt;Node2 -->
<g id="edge79" class="edge"><title>Node30&#45;&gt;Node2</title>
<path fill="none" stroke="midnightblue" d="M1217,-307.911C1217,-287.477 1217,-234.363 1217,-190 1217,-190 1217,-190 1217,-132 1217,-83.8916 1169.36,-44.7922 1139.52,-25.0179"/>
<polygon fill="midnightblue" stroke="midnightblue" points="1141.21,-21.9467 1130.9,-19.5129 1137.45,-27.8458 1141.21,-21.9467"/>
</g>
<!-- Node30&#45;&gt;Node5 -->
<g id="edge80" class="edge"><title>Node30&#45;&gt;Node5</title>
<path fill="none" stroke="midnightblue" d="M1174.44,-309.476C1159.18,-307.021 1141.83,-304.305 1126,-302 1002.27,-283.988 855.631,-265.428 785.069,-256.671"/>
<polygon fill="midnightblue" stroke="midnightblue" points="785.172,-253.157 774.817,-255.401 784.311,-260.104 785.172,-253.157"/>
</g>
<!-- Node31&#45;&gt;Node2 -->
<g id="edge82" class="edge"><title>Node31&#45;&gt;Node2</title>
<path fill="none" stroke="midnightblue" d="M63.4942,-179.46C51.8505,-156.09 23.9035,-90.5327 57,-56 93.2254,-18.2026 902.108,-12.0442 1081.13,-11.143"/>
<polygon fill="midnightblue" stroke="midnightblue" points="1081.32,-14.6423 1091.3,-11.0942 1081.28,-7.64236 1081.32,-14.6423"/>
</g>
<!-- Node31&#45;&gt;Node10 -->
<g id="edge83" class="edge"><title>Node31&#45;&gt;Node10</title>
<path fill="none" stroke="midnightblue" d="M80.05,-179.324C91.4631,-171.107 108.831,-158.602 122.435,-148.807"/>
<polygon fill="midnightblue" stroke="midnightblue" points="124.66,-151.517 130.731,-142.834 120.57,-145.837 124.66,-151.517"/>
</g>
</g>
</svg>
