<?xml version="1.0" encoding="UTF-8" standalone="no"?>
<!DOCTYPE svg PUBLIC "-//W3C//DTD SVG 1.1//EN"
 "http://www.w3.org/Graphics/SVG/1.1/DTD/svg11.dtd">
<!-- Generated by graphviz version 2.38.0 (20140413.2041)
 -->
<!-- Title: radio_value_to_string Pages: 1 -->
<!--zoomable 123 -->
<svg id="main" version="1.1" xmlns="http://www.w3.org/2000/svg" xmlns:xlink="http://www.w3.org/1999/xlink" xml:space="preserve" onload="init(evt)">
<style type="text/css"><![CDATA[
.edge:hover path { stroke: red; }
.edge:hover polygon { stroke: red; fill: red; }
]]></style>
<script type="text/javascript"><![CDATA[
var edges = document.getElementsByTagName('g');
if (edges && edges.length) {
  for (var i=0;i<edges.length;i++) {
    if (edges[i].id.substr(0,4)=='edge') {
      edges[i].setAttribute('class','edge');
    }
  }
}
]]></script>
        <defs>
                <circle id="rim" cx="0" cy="0" r="7"/>
                <circle id="rim2" cx="0" cy="0" r="3.5"/>
                <g id="zoomPlus">
                        <use xlink:href="#rim" fill="#404040">
                                <set attributeName="fill" to="#808080" begin="zoomplus.mouseover" end="zoomplus.mouseout"/>
                        </use>
                        <path d="M-4,0h8M0,-4v8" fill="none" stroke="white" stroke-width="1.5" pointer-events="none"/>
                </g>
                <g id="zoomMin">
                        <use xlink:href="#rim" fill="#404040">
                                <set attributeName="fill" to="#808080" begin="zoomminus.mouseover" end="zoomminus.mouseout"/>
                        </use>
                        <path d="M-4,0h8" fill="none" stroke="white" stroke-width="1.5" pointer-events="none"/>
                </g>
                <g id="dirArrow">
                        <path fill="none" stroke="white" stroke-width="1.5" d="M0,-3.0v7 M-2.5,-0.5L0,-3.0L2.5,-0.5"/>
                </g>
               <g id="resetDef">
                       <use xlink:href="#rim2" fill="#404040">
                               <set attributeName="fill" to="#808080" begin="reset.mouseover" end="reset.mouseout"/>
                       </use>
               </g>
        </defs>

<script type="text/javascript">
var viewWidth = 801;
var viewHeight = 123;
var sectionId = 'dynsection-26';
</script>
<script xlink:href="svgpan.js"/>
<svg id="graph" class="graph">
<g id="viewport">
<title>radio_value_to_string</title>
<polygon fill="white" stroke="none" points="-4,4 -4,-119 797,-119 797,4 -4,4"/>
<!-- Node1 -->
<g id="node1" class="node"><title>Node1</title>
<polygon fill="#bfbfbf" stroke="black" points="0,-19.5 0,-38.5 107,-38.5 107,-19.5 0,-19.5"/>
<text text-anchor="middle" x="53.5" y="-26.5" font-family="Helvetica,sans-Serif" font-size="10.00">radio_value_to_string</text>
</g>
<!-- Node2 -->
<g id="node2" class="node"><title>Node2</title>
<g id="a_node2"><a xlink:href="menu_2src_2menu_8c.html#a5621c1bf312de029f43808bf02dc52e3" target="_top" xlink:title="menu_scroll_settings">
<polygon fill="white" stroke="black" points="143.5,-38.5 143.5,-57.5 252.5,-57.5 252.5,-38.5 143.5,-38.5"/>
<text text-anchor="middle" x="198" y="-45.5" font-family="Helvetica,sans-Serif" font-size="10.00">menu_scroll_settings</text>
</a>
</g>
</g>
<!-- Node1&#45;&gt;Node2 -->
<g id="edge1" class="edge"><title>Node1&#45;&gt;Node2</title>
<path fill="none" stroke="midnightblue" d="M117.198,-37.3597C125.845,-38.5126 134.662,-39.6882 143.13,-40.8173"/>
<polygon fill="midnightblue" stroke="midnightblue" points="117.532,-33.8733 107.157,-36.0209 116.607,-40.8119 117.532,-33.8733"/>
</g>
<!-- Node10 -->
<g id="node10" class="node"><title>Node10</title>
<g id="a_node10"><a xlink:href="radio_8c.html#aa568d26c43f1503a5f31c86aab080591" target="_top" xlink:title="radio_display_handler">
<polygon fill="white" stroke="black" points="143,-0.5 143,-19.5 253,-19.5 253,-0.5 143,-0.5"/>
<text text-anchor="middle" x="198" y="-7.5" font-family="Helvetica,sans-Serif" font-size="10.00">radio_display_handler</text>
</a>
</g>
</g>
<!-- Node1&#45;&gt;Node10 -->
<g id="edge11" class="edge"><title>Node1&#45;&gt;Node10</title>
<path fill="none" stroke="midnightblue" d="M117.339,-20.6215C125.778,-19.4963 134.376,-18.3498 142.652,-17.2464"/>
<polygon fill="midnightblue" stroke="midnightblue" points="116.607,-17.1881 107.157,-21.9791 117.532,-24.1267 116.607,-17.1881"/>
</g>
<!-- Node3 -->
<g id="node3" class="node"><title>Node3</title>
<g id="a_node3"><a xlink:href="radio_8c.html#a9dd33606330e2225b425000341cf4688" target="_top" xlink:title="radio_brightness">
<polygon fill="white" stroke="black" points="289,-95.5 289,-114.5 377,-114.5 377,-95.5 289,-95.5"/>
<text text-anchor="middle" x="333" y="-102.5" font-family="Helvetica,sans-Serif" font-size="10.00">radio_brightness</text>
</a>
</g>
</g>
<!-- Node2&#45;&gt;Node3 -->
<g id="edge2" class="edge"><title>Node2&#45;&gt;Node3</title>
<path fill="none" stroke="midnightblue" d="M230.776,-61.6181C255.108,-72.0465 288.063,-86.1697 309.666,-95.4284"/>
<polygon fill="midnightblue" stroke="midnightblue" points="231.831,-58.2628 221.261,-57.5405 229.074,-64.6968 231.831,-58.2628"/>
</g>
<!-- Node8 -->
<g id="node8" class="node"><title>Node8</title>
<g id="a_node8"><a xlink:href="radio_8c.html#aaf3f53dfebe8da71fbe4c457ffda6714" target="_top" xlink:title="radio_contrast">
<polygon fill="white" stroke="black" points="294,-57.5 294,-76.5 372,-76.5 372,-57.5 294,-57.5"/>
<text text-anchor="middle" x="333" y="-64.5" font-family="Helvetica,sans-Serif" font-size="10.00">radio_contrast</text>
</a>
</g>
</g>
<!-- Node2&#45;&gt;Node8 -->
<g id="edge7" class="edge"><title>Node2&#45;&gt;Node8</title>
<path fill="none" stroke="midnightblue" d="M262.763,-57.109C273.311,-58.6158 283.951,-60.1358 293.619,-61.517"/>
<polygon fill="midnightblue" stroke="midnightblue" points="263.107,-53.6227 252.713,-55.6733 262.117,-60.5524 263.107,-53.6227"/>
</g>
<!-- Node9 -->
<g id="node9" class="node"><title>Node9</title>
<g id="a_node9"><a xlink:href="radio_8c.html#afce06a210fd84b9acb905e8ab81feaeb" target="_top" xlink:title="radio_volume">
<polygon fill="white" stroke="black" points="296.5,-19.5 296.5,-38.5 369.5,-38.5 369.5,-19.5 296.5,-19.5"/>
<text text-anchor="middle" x="333" y="-26.5" font-family="Helvetica,sans-Serif" font-size="10.00">radio_volume</text>
</a>
</g>
</g>
<!-- Node2&#45;&gt;Node9 -->
<g id="edge9" class="edge"><title>Node2&#45;&gt;Node9</title>
<path fill="none" stroke="midnightblue" d="M262.808,-38.8846C274.366,-37.2334 286.034,-35.5666 296.41,-34.0842"/>
<polygon fill="midnightblue" stroke="midnightblue" points="262.117,-35.4476 252.713,-40.3267 263.107,-42.3773 262.117,-35.4476"/>
</g>
<!-- Node4 -->
<g id="node4" class="node"><title>Node4</title>
<g id="a_node4"><a xlink:href="radio_8c.html#a832a684fc60104296fc975a7608f92b4" target="_top" xlink:title="radio_settings">
<polygon fill="white" stroke="black" points="413,-47.5 413,-66.5 490,-66.5 490,-47.5 413,-47.5"/>
<text text-anchor="middle" x="451.5" y="-54.5" font-family="Helvetica,sans-Serif" font-size="10.00">radio_settings</text>
</a>
</g>
</g>
<!-- Node3&#45;&gt;Node4 -->
<g id="edge3" class="edge"><title>Node3&#45;&gt;Node4</title>
<path fill="none" stroke="midnightblue" d="M366.616,-91.5618C385.902,-83.6153 409.873,-73.7391 427.245,-66.5815"/>
<polygon fill="midnightblue" stroke="midnightblue" points="365.208,-88.3562 357.296,-95.4018 367.875,-94.8284 365.208,-88.3562"/>
</g>
<!-- Node5 -->
<g id="node5" class="node"><title>Node5</title>
<g id="a_node5"><a xlink:href="menu_2src_2menu_8c.html#a5d9c190838195d7872fc7067269e20fa" target="_top" xlink:title="menu_function">
<polygon fill="white" stroke="black" points="526,-23.5 526,-42.5 606,-42.5 606,-23.5 526,-23.5"/>
<text text-anchor="middle" x="566" y="-30.5" font-family="Helvetica,sans-Serif" font-size="10.00">menu_function</text>
</a>
</g>
</g>
<!-- Node4&#45;&gt;Node5 -->
<g id="edge4" class="edge"><title>Node4&#45;&gt;Node5</title>
<path fill="none" stroke="midnightblue" d="M500.193,-46.8254C508.792,-44.9909 517.665,-43.0982 525.981,-41.3241"/>
<polygon fill="midnightblue" stroke="midnightblue" points="499.324,-43.4321 490.274,-48.9416 500.784,-50.2781 499.324,-43.4321"/>
</g>
<!-- Node6 -->
<g id="node6" class="node"><title>Node6</title>
<g id="a_node6"><a xlink:href="menu_2src_2menu_8c.html#aaf2a075d3159f7eeab42012941a3437f" target="_top" xlink:title="menu_handler">
<polygon fill="white" stroke="black" points="642,-23.5 642,-42.5 719,-42.5 719,-23.5 642,-23.5"/>
<text text-anchor="middle" x="680.5" y="-30.5" font-family="Helvetica,sans-Serif" font-size="10.00">menu_handler</text>
</a>
</g>
</g>
<!-- Node5&#45;&gt;Node6 -->
<g id="edge5" class="edge"><title>Node5&#45;&gt;Node6</title>
<path fill="none" stroke="midnightblue" d="M616.262,-33C624.783,-33 633.52,-33 641.676,-33"/>
<polygon fill="midnightblue" stroke="midnightblue" points="616.031,-29.5001 606.031,-33 616.031,-36.5001 616.031,-29.5001"/>
</g>
<!-- Node7 -->
<g id="node7" class="node"><title>Node7</title>
<g id="a_node7"><a xlink:href="main_8c.html#a840291bc02cba5474a4cb46a9b9566fe" target="_top" xlink:title="main">
<polygon fill="white" stroke="black" points="755,-23.5 755,-42.5 793,-42.5 793,-23.5 755,-23.5"/>
<text text-anchor="middle" x="774" y="-30.5" font-family="Helvetica,sans-Serif" font-size="10.00">main</text>
</a>
</g>
</g>
<!-- Node6&#45;&gt;Node7 -->
<g id="edge6" class="edge"><title>Node6&#45;&gt;Node7</title>
<path fill="none" stroke="midnightblue" d="M729.362,-33C738.347,-33 747.223,-33 754.601,-33"/>
<polygon fill="midnightblue" stroke="midnightblue" points="729.245,-29.5001 719.245,-33 729.245,-36.5001 729.245,-29.5001"/>
</g>
<!-- Node8&#45;&gt;Node4 -->
<g id="edge8" class="edge"><title>Node8&#45;&gt;Node4</title>
<path fill="none" stroke="midnightblue" d="M382.139,-62.8679C392.322,-61.9939 402.929,-61.0833 412.666,-60.2476"/>
<polygon fill="midnightblue" stroke="midnightblue" points="381.81,-59.3831 372.146,-63.7256 382.409,-66.3575 381.81,-59.3831"/>
</g>
<!-- Node9&#45;&gt;Node4 -->
<g id="edge10" class="edge"><title>Node9&#45;&gt;Node4</title>
<path fill="none" stroke="midnightblue" d="M379.461,-39.9263C390.461,-42.5701 402.102,-45.3678 412.706,-47.9165"/>
<polygon fill="midnightblue" stroke="midnightblue" points="380.128,-36.4869 369.587,-37.5531 378.492,-43.2931 380.128,-36.4869"/>
</g>
<!-- Node11 -->
<g id="node11" class="node"><title>Node11</title>
<g id="a_node11"><a xlink:href="radio_8c.html#a5f7fcd9e9755fb5e22175a4ad74a5456" target="_top" xlink:title="radio_main">
<polygon fill="white" stroke="black" points="419.5,-0.5 419.5,-19.5 483.5,-19.5 483.5,-0.5 419.5,-0.5"/>
<text text-anchor="middle" x="451.5" y="-7.5" font-family="Helvetica,sans-Serif" font-size="10.00">radio_main</text>
</a>
</g>
</g>
<!-- Node10&#45;&gt;Node11 -->
<g id="edge12" class="edge"><title>Node10&#45;&gt;Node11</title>
<path fill="none" stroke="midnightblue" d="M263.337,-10C313.337,-10 380.507,-10 419.292,-10"/>
<polygon fill="midnightblue" stroke="midnightblue" points="263.262,-6.5001 253.262,-10 263.262,-13.5001 263.262,-6.5001"/>
</g>
<!-- Node11&#45;&gt;Node5 -->
<g id="edge13" class="edge"><title>Node11&#45;&gt;Node5</title>
<path fill="none" stroke="midnightblue" d="M493.661,-18.4152C504.091,-20.5475 515.269,-22.8327 525.609,-24.9466"/>
<polygon fill="midnightblue" stroke="midnightblue" points="494.037,-14.9198 483.539,-16.3457 492.635,-21.7779 494.037,-14.9198"/>
</g>
</g>
</svg>
        <g id="navigator" transform="translate(0 0)" fill="#404254">
                <rect fill="#f2f5e9" fill-opacity="0.5" stroke="#606060" stroke-width=".5" x="0" y="0" width="60" height="60"/>
                <use id="zoomplus" xlink:href="#zoomPlus" x="17" y="9" onmousedown="handleZoom(evt,'in')"/>
                <use id="zoomminus" xlink:href="#zoomMin" x="42" y="9" onmousedown="handleZoom(evt,'out')"/>
                <use id="reset" xlink:href="#resetDef" x="30" y="36" onmousedown="handleReset()"/>
                <g id="arrowUp" xlink:href="#dirArrow" transform="translate(30 24)" onmousedown="handlePan(0,-1)">
                  <use xlink:href="#rim" fill="#404040">
                        <set attributeName="fill" to="#808080" begin="arrowUp.mouseover" end="arrowUp.mouseout"/>
                  </use>
                  <path fill="none" stroke="white" stroke-width="1.5" d="M0,-3.0v7 M-2.5,-0.5L0,-3.0L2.5,-0.5"/>
                </g>
                <g id="arrowRight" xlink:href="#dirArrow" transform="rotate(90) translate(36 -43)" onmousedown="handlePan(1,0)">
                  <use xlink:href="#rim" fill="#404040">
                        <set attributeName="fill" to="#808080" begin="arrowRight.mouseover" end="arrowRight.mouseout"/>
                  </use>
                  <path fill="none" stroke="white" stroke-width="1.5" d="M0,-3.0v7 M-2.5,-0.5L0,-3.0L2.5,-0.5"/>
                </g>
                <g id="arrowDown" xlink:href="#dirArrow" transform="rotate(180) translate(-30 -48)" onmousedown="handlePan(0,1)">
                  <use xlink:href="#rim" fill="#404040">
                        <set attributeName="fill" to="#808080" begin="arrowDown.mouseover" end="arrowDown.mouseout"/>
                  </use>
                  <path fill="none" stroke="white" stroke-width="1.5" d="M0,-3.0v7 M-2.5,-0.5L0,-3.0L2.5,-0.5"/>
                </g>
                <g id="arrowLeft" xlink:href="#dirArrow" transform="rotate(270) translate(-36 17)" onmousedown="handlePan(-1,0)">
                  <use xlink:href="#rim" fill="#404040">
                        <set attributeName="fill" to="#808080" begin="arrowLeft.mouseover" end="arrowLeft.mouseout"/>
                  </use>
                  <path fill="none" stroke="white" stroke-width="1.5" d="M0,-3.0v7 M-2.5,-0.5L0,-3.0L2.5,-0.5"/>
                </g>
        </g>
        <svg viewBox="0 0 15 15" width="100%" height="30px" preserveAspectRatio="xMaxYMin meet">
         <g id="arrow_out" transform="scale(0.3 0.3)">
          <a xlink:href="radio_8c_a391fc5fe58716d2c794685bcf12bbda5_icgraph_org.svg" target="_base">
           <rect id="button" ry="5" rx="5" y="6" x="6" height="38" width="38"
                fill="#f2f5e9" fill-opacity="0.5" stroke="#606060" stroke-width="1.0"/>
           <path id="arrow"
             d="M 11.500037,31.436501 C 11.940474,20.09759 22.043105,11.32322 32.158766,21.979434 L 37.068811,17.246167 C 37.068811,17.246167 37.088388,32 37.088388,32 L 22.160133,31.978069 C 22.160133,31.978069 26.997745,27.140456 26.997745,27.140456 C 18.528582,18.264221 13.291696,25.230495 11.500037,31.436501 z"
             style="fill:#404040;"/>
          </a>
         </g>
        </svg>
</svg>
