<?xml version="1.0" encoding="UTF-8" standalone="no"?>
<!DOCTYPE svg PUBLIC "-//W3C//DTD SVG 1.1//EN"
 "http://www.w3.org/Graphics/SVG/1.1/DTD/svg11.dtd">
<!-- Generated by graphviz version 2.38.0 (20140413.2041)
 -->
<!-- Title: rds_triggered Pages: 1 -->
<svg width="730pt" height="56pt"
 viewBox="0.00 0.00 730.00 56.00" xmlns="http://www.w3.org/2000/svg" xmlns:xlink="http://www.w3.org/1999/xlink">
<g id="graph0" class="graph" transform="scale(1 1) rotate(0) translate(4 52)">
<title>rds_triggered</title>
<polygon fill="white" stroke="none" points="-4,4 -4,-52 726,-52 726,4 -4,4"/>
<!-- Node1 -->
<g id="node1" class="node"><title>Node1</title>
<polygon fill="#bfbfbf" stroke="black" points="0,-19.5 0,-38.5 73,-38.5 73,-19.5 0,-19.5"/>
<text text-anchor="middle" x="36.5" y="-26.5" font-family="Helvetica,sans-Serif" font-size="10.00">rds_triggered</text>
</g>
<!-- Node2 -->
<g id="node2" class="node"><title>Node2</title>
<g id="a_node2"><a xlink:href="rds_8c.html#a1c031719ba892045c773dc035058870f" target="_top" xlink:title="rds_update">
<polygon fill="white" stroke="black" points="109,-19.5 109,-38.5 174,-38.5 174,-19.5 109,-19.5"/>
<text text-anchor="middle" x="141.5" y="-26.5" font-family="Helvetica,sans-Serif" font-size="10.00">rds_update</text>
</a>
</g>
</g>
<!-- Node1&#45;&gt;Node2 -->
<g id="edge1" class="edge"><title>Node1&#45;&gt;Node2</title>
<path fill="none" stroke="midnightblue" d="M83.2615,-29C91.9395,-29 100.838,-29 108.954,-29"/>
<polygon fill="midnightblue" stroke="midnightblue" points="83.2354,-25.5001 73.2353,-29 83.2353,-32.5001 83.2354,-25.5001"/>
</g>
<!-- Node3 -->
<g id="node3" class="node"><title>Node3</title>
<g id="a_node3"><a xlink:href="main_8c.html#a840291bc02cba5474a4cb46a9b9566fe" target="_top" xlink:title="main">
<polygon fill="white" stroke="black" points="684,-19.5 684,-38.5 722,-38.5 722,-19.5 684,-19.5"/>
<text text-anchor="middle" x="703" y="-26.5" font-family="Helvetica,sans-Serif" font-size="10.00">main</text>
</a>
</g>
</g>
<!-- Node2&#45;&gt;Node3 -->
<g id="edge2" class="edge"><title>Node2&#45;&gt;Node3</title>
<path fill="none" stroke="midnightblue" d="M184.417,-34.399C231.718,-40.0159 311,-48 379.5,-48 379.5,-48 379.5,-48 496,-48 565.676,-48 648.051,-37.0887 683.865,-31.8035"/>
<polygon fill="midnightblue" stroke="midnightblue" points="184.6,-30.8957 174.252,-33.1696 183.76,-37.8451 184.6,-30.8957"/>
</g>
<!-- Node4 -->
<g id="node4" class="node"><title>Node4</title>
<g id="a_node4"><a xlink:href="radio_8c.html#ac96da2886aec92b299b27b500761564c" target="_top" xlink:title="radio_auto_search">
<polygon fill="white" stroke="black" points="210,-0.5 210,-19.5 306,-19.5 306,-0.5 210,-0.5"/>
<text text-anchor="middle" x="258" y="-7.5" font-family="Helvetica,sans-Serif" font-size="10.00">radio_auto_search</text>
</a>
</g>
</g>
<!-- Node2&#45;&gt;Node4 -->
<g id="edge3" class="edge"><title>Node2&#45;&gt;Node4</title>
<path fill="none" stroke="midnightblue" d="M183.965,-22.1193C192.301,-20.7361 201.121,-19.2725 209.639,-17.859"/>
<polygon fill="midnightblue" stroke="midnightblue" points="183.383,-18.668 174.091,-23.7579 184.529,-25.5736 183.383,-18.668"/>
</g>
<!-- Node5 -->
<g id="node5" class="node"><title>Node5</title>
<g id="a_node5"><a xlink:href="radio_8c.html#a832a684fc60104296fc975a7608f92b4" target="_top" xlink:title="radio_settings">
<polygon fill="white" stroke="black" points="342,-0.5 342,-19.5 419,-19.5 419,-0.5 342,-0.5"/>
<text text-anchor="middle" x="380.5" y="-7.5" font-family="Helvetica,sans-Serif" font-size="10.00">radio_settings</text>
</a>
</g>
</g>
<!-- Node4&#45;&gt;Node5 -->
<g id="edge4" class="edge"><title>Node4&#45;&gt;Node5</title>
<path fill="none" stroke="midnightblue" d="M316.303,-10C324.909,-10 333.596,-10 341.659,-10"/>
<polygon fill="midnightblue" stroke="midnightblue" points="316.279,-6.5001 306.279,-10 316.279,-13.5001 316.279,-6.5001"/>
</g>
<!-- Node6 -->
<g id="node6" class="node"><title>Node6</title>
<g id="a_node6"><a xlink:href="menu_8c.html#a5d9c190838195d7872fc7067269e20fa" target="_top" xlink:title="menu_function">
<polygon fill="white" stroke="black" points="455,-0.5 455,-19.5 535,-19.5 535,-0.5 455,-0.5"/>
<text text-anchor="middle" x="495" y="-7.5" font-family="Helvetica,sans-Serif" font-size="10.00">menu_function</text>
</a>
</g>
</g>
<!-- Node5&#45;&gt;Node6 -->
<g id="edge5" class="edge"><title>Node5&#45;&gt;Node6</title>
<path fill="none" stroke="midnightblue" d="M429.474,-10C437.985,-10 446.755,-10 454.981,-10"/>
<polygon fill="midnightblue" stroke="midnightblue" points="429.274,-6.5001 419.274,-10 429.274,-13.5001 429.274,-6.5001"/>
</g>
<!-- Node7 -->
<g id="node7" class="node"><title>Node7</title>
<g id="a_node7"><a xlink:href="menu_8c.html#aaf2a075d3159f7eeab42012941a3437f" target="_top" xlink:title="menu_handler">
<polygon fill="white" stroke="black" points="571,-0.5 571,-19.5 648,-19.5 648,-0.5 571,-0.5"/>
<text text-anchor="middle" x="609.5" y="-7.5" font-family="Helvetica,sans-Serif" font-size="10.00">menu_handler</text>
</a>
</g>
</g>
<!-- Node6&#45;&gt;Node7 -->
<g id="edge6" class="edge"><title>Node6&#45;&gt;Node7</title>
<path fill="none" stroke="midnightblue" d="M545.262,-10C553.783,-10 562.52,-10 570.676,-10"/>
<polygon fill="midnightblue" stroke="midnightblue" points="545.031,-6.5001 535.031,-10 545.031,-13.5001 545.031,-6.5001"/>
</g>
<!-- Node7&#45;&gt;Node3 -->
<g id="edge7" class="edge"><title>Node7&#45;&gt;Node3</title>
<path fill="none" stroke="midnightblue" d="M658.072,-19.8783C667.156,-21.7646 676.144,-23.631 683.601,-25.1793"/>
<polygon fill="midnightblue" stroke="midnightblue" points="658.748,-16.444 648.245,-17.8377 657.324,-23.2978 658.748,-16.444"/>
</g>
</g>
</svg>
