<?xml version="1.0" encoding="UTF-8" standalone="no"?>
<!DOCTYPE svg PUBLIC "-//W3C//DTD SVG 1.1//EN"
 "http://www.w3.org/Graphics/SVG/1.1/DTD/svg11.dtd">
<!-- Generated by graphviz version 2.38.0 (20140413.2041)
 -->
<!-- Title: rds_update Pages: 1 -->
<svg width="353pt" height="66pt"
 viewBox="0.00 0.00 353.00 66.00" xmlns="http://www.w3.org/2000/svg" xmlns:xlink="http://www.w3.org/1999/xlink">
<g id="graph0" class="graph" transform="scale(1 1) rotate(0) translate(4 62)">
<title>rds_update</title>
<polygon fill="white" stroke="none" points="-4,4 -4,-62 349,-62 349,4 -4,4"/>
<!-- Node1 -->
<g id="node1" class="node"><title>Node1</title>
<polygon fill="#bfbfbf" stroke="black" points="0,-19.5 0,-38.5 65,-38.5 65,-19.5 0,-19.5"/>
<text text-anchor="middle" x="32.5" y="-26.5" font-family="Helvetica,sans-Serif" font-size="10.00">rds_update</text>
</g>
<!-- Node2 -->
<g id="node2" class="node"><title>Node2</title>
<g id="a_node2"><a xlink:href="radio_8c.html#ac96da2886aec92b299b27b500761564c" target="_top" xlink:title="Auto Search for radio stations. ">
<polygon fill="white" stroke="black" points="101,-38.5 101,-57.5 197,-57.5 197,-38.5 101,-38.5"/>
<text text-anchor="middle" x="149" y="-45.5" font-family="Helvetica,sans-Serif" font-size="10.00">radio_auto_search</text>
</a>
</g>
</g>
<!-- Node1&#45;&gt;Node2 -->
<g id="edge1" class="edge"><title>Node1&#45;&gt;Node2</title>
<path fill="none" stroke="midnightblue" d="M74.9653,-35.8807C83.3009,-37.2639 92.1208,-38.7275 100.639,-40.141"/>
<polygon fill="midnightblue" stroke="midnightblue" points="75.5288,-32.4264 65.0907,-34.2421 74.3828,-39.332 75.5288,-32.4264"/>
</g>
<!-- Node4 -->
<g id="node4" class="node"><title>Node4</title>
<g id="a_node4"><a xlink:href="handler_8c.html#a4f639cde11f5cab70d795fd2f75c9d22" target="_top" xlink:title="Handler for menu, RDS, time, the encoders and rsq. ">
<polygon fill="white" stroke="black" points="125,-0.5 125,-19.5 173,-19.5 173,-0.5 125,-0.5"/>
<text text-anchor="middle" x="149" y="-7.5" font-family="Helvetica,sans-Serif" font-size="10.00">handler</text>
</a>
</g>
</g>
<!-- Node1&#45;&gt;Node4 -->
<g id="edge3" class="edge"><title>Node1&#45;&gt;Node4</title>
<path fill="none" stroke="midnightblue" d="M75.2138,-22.0781C91.9615,-19.299 110.628,-16.2014 124.865,-13.839"/>
<polygon fill="midnightblue" stroke="midnightblue" points="74.3828,-18.668 65.0907,-23.7579 75.5288,-25.5736 74.3828,-18.668"/>
</g>
<!-- Node3 -->
<g id="node3" class="node"><title>Node3</title>
<g id="a_node3"><a xlink:href="radio__settings_8c.html#a90d48a01d9b0ad794fb9416a2ce8f85e" target="_top" xlink:title="Seeks the next station/all available. ">
<polygon fill="white" stroke="black" points="233,-38.5 233,-57.5 345,-57.5 345,-38.5 233,-38.5"/>
<text text-anchor="middle" x="289" y="-45.5" font-family="Helvetica,sans-Serif" font-size="10.00">radio_settings_station</text>
</a>
</g>
</g>
<!-- Node2&#45;&gt;Node3 -->
<g id="edge2" class="edge"><title>Node2&#45;&gt;Node3</title>
<path fill="none" stroke="midnightblue" d="M207.18,-48C215.565,-48 224.19,-48 232.54,-48"/>
<polygon fill="midnightblue" stroke="midnightblue" points="207.106,-44.5001 197.106,-48 207.106,-51.5001 207.106,-44.5001"/>
</g>
<!-- Node5 -->
<g id="node5" class="node"><title>Node5</title>
<g id="a_node5"><a xlink:href="main_8c.html#a840291bc02cba5474a4cb46a9b9566fe" target="_top" xlink:title="Main function. ">
<polygon fill="white" stroke="black" points="270,-0.5 270,-19.5 308,-19.5 308,-0.5 270,-0.5"/>
<text text-anchor="middle" x="289" y="-7.5" font-family="Helvetica,sans-Serif" font-size="10.00">main</text>
</a>
</g>
</g>
<!-- Node4&#45;&gt;Node5 -->
<g id="edge4" class="edge"><title>Node4&#45;&gt;Node5</title>
<path fill="none" stroke="midnightblue" d="M183.303,-10C210.427,-10 247.708,-10 269.687,-10"/>
<polygon fill="midnightblue" stroke="midnightblue" points="183.098,-6.5001 173.098,-10 183.098,-13.5001 183.098,-6.5001"/>
</g>
</g>
</svg>
