<?xml version="1.0" encoding="UTF-8" standalone="no"?>
<!DOCTYPE svg PUBLIC "-//W3C//DTD SVG 1.1//EN"
 "http://www.w3.org/Graphics/SVG/1.1/DTD/svg11.dtd">
<!-- Generated by graphviz version 2.38.0 (20140413.2041)
 -->
<!-- Title: D:/GIT/fhradiov2/system/rsq.h Pages: 1 -->
<svg width="1847pt" height="576pt"
 viewBox="0.00 0.00 1846.50 576.00" xmlns="http://www.w3.org/2000/svg" xmlns:xlink="http://www.w3.org/1999/xlink">
<g id="graph0" class="graph" transform="scale(1 1) rotate(0) translate(4 572)">
<title>D:/GIT/fhradiov2/system/rsq.h</title>
<polygon fill="white" stroke="none" points="-4,4 -4,-572 1842.5,-572 1842.5,4 -4,4"/>
<!-- Node1 -->
<g id="node1" class="node"><title>Node1</title>
<polygon fill="#bfbfbf" stroke="black" points="623.5,-537.5 623.5,-567.5 743.5,-567.5 743.5,-537.5 623.5,-537.5"/>
<text text-anchor="start" x="631.5" y="-555.5" font-family="Helvetica,sans-Serif" font-size="10.00">D:/GIT/fhradiov2/system</text>
<text text-anchor="middle" x="683.5" y="-544.5" font-family="Helvetica,sans-Serif" font-size="10.00">/rsq.h</text>
</g>
<!-- Node2 -->
<g id="node2" class="node"><title>Node2</title>
<polygon fill="white" stroke="#bfbfbf" points="1099,-0.5 1099,-19.5 1148,-19.5 1148,-0.5 1099,-0.5"/>
<text text-anchor="middle" x="1123.5" y="-7.5" font-family="Helvetica,sans-Serif" font-size="10.00">stdint.h</text>
</g>
<!-- Node1&#45;&gt;Node2 -->
<g id="edge1" class="edge"><title>Node1&#45;&gt;Node2</title>
<path fill="none" stroke="midnightblue" d="M743.568,-551.86C980.65,-552.504 1838.5,-547.151 1838.5,-436 1838.5,-436 1838.5,-436 1838.5,-132 1838.5,-69.2451 1779.03,-75.8513 1719.5,-56 1614.35,-20.9374 1269.63,-13.0566 1158.42,-11.4085"/>
<polygon fill="midnightblue" stroke="midnightblue" points="1158.16,-7.90454 1148.11,-11.2639 1158.06,-14.9039 1158.16,-7.90454"/>
</g>
<!-- Node3 -->
<g id="node3" class="node"><title>Node3</title>
<g id="a_node3"><a xlink:href="si4735_8h.html" target="_top" xlink:title="driver/si4735.h">
<polygon fill="white" stroke="black" points="255,-308 255,-327 334,-327 334,-308 255,-308"/>
<text text-anchor="middle" x="294.5" y="-315" font-family="Helvetica,sans-Serif" font-size="10.00">driver/si4735.h</text>
</a>
</g>
</g>
<!-- Node1&#45;&gt;Node3 -->
<g id="edge2" class="edge"><title>Node1&#45;&gt;Node3</title>
<path fill="none" stroke="midnightblue" d="M623.446,-548.186C546.3,-540.961 412.159,-517.992 326.5,-445 295.13,-418.269 292.186,-365.642 293.108,-337.427"/>
<polygon fill="midnightblue" stroke="midnightblue" points="296.611,-337.458 293.645,-327.287 289.621,-337.087 296.611,-337.458"/>
</g>
<!-- Node4 -->
<g id="node4" class="node"><title>Node4</title>
<g id="a_node4"><a xlink:href="i2c_8h.html" target="_top" xlink:title="I2C implemtation for MSP430G2553, interrupt based. &#160;&#160;This implemtation based on examples from Texas I...">
<polygon fill="white" stroke="black" points="218,-241 218,-260 281,-260 281,-241 218,-241"/>
<text text-anchor="middle" x="249.5" y="-248" font-family="Helvetica,sans-Serif" font-size="10.00">driver/i2c.h</text>
</a>
</g>
</g>
<!-- Node1&#45;&gt;Node4 -->
<g id="edge18" class="edge"><title>Node1&#45;&gt;Node4</title>
<path fill="none" stroke="midnightblue" d="M623.309,-551.891C476.788,-551.227 113.5,-539.178 113.5,-436 113.5,-436 113.5,-436 113.5,-378 113.5,-343.183 109.96,-328.536 132.5,-302 151.656,-279.448 182.731,-266.676 208.043,-259.621"/>
<polygon fill="midnightblue" stroke="midnightblue" points="208.971,-262.996 217.776,-257.104 207.219,-256.219 208.971,-262.996"/>
</g>
<!-- Node13 -->
<g id="node13" class="node"><title>Node13</title>
<g id="a_node13"><a xlink:href="radio_8h.html" target="_top" xlink:title="radio/radio.h">
<polygon fill="white" stroke="black" points="1129.5,-481.5 1129.5,-500.5 1199.5,-500.5 1199.5,-481.5 1129.5,-481.5"/>
<text text-anchor="middle" x="1164.5" y="-488.5" font-family="Helvetica,sans-Serif" font-size="10.00">radio/radio.h</text>
</a>
</g>
</g>
<!-- Node1&#45;&gt;Node13 -->
<g id="edge19" class="edge"><title>Node1&#45;&gt;Node13</title>
<path fill="none" stroke="midnightblue" d="M743.932,-544.025C841.644,-531.937 1032.15,-508.372 1119.17,-497.607"/>
<polygon fill="midnightblue" stroke="midnightblue" points="1119.76,-501.061 1129.26,-496.359 1118.9,-494.114 1119.76,-501.061"/>
</g>
<!-- Node3&#45;&gt;Node2 -->
<g id="edge3" class="edge"><title>Node3&#45;&gt;Node2</title>
<path fill="none" stroke="midnightblue" d="M270.242,-307.914C229.443,-291.741 151.5,-252.646 151.5,-190 151.5,-190 151.5,-190 151.5,-132 151.5,-33.5779 263.13,-75.9944 359.5,-56 501.7,-26.4969 958.142,-14.5672 1088.46,-11.7115"/>
<polygon fill="midnightblue" stroke="midnightblue" points="1088.74,-15.2064 1098.66,-11.492 1088.59,-8.20799 1088.74,-15.2064"/>
</g>
<!-- Node3&#45;&gt;Node4 -->
<g id="edge4" class="edge"><title>Node3&#45;&gt;Node4</title>
<path fill="none" stroke="midnightblue" d="M288.431,-307.734C281.481,-297.695 269.933,-281.014 261.215,-268.421"/>
<polygon fill="midnightblue" stroke="midnightblue" points="264.043,-266.357 255.473,-260.127 258.287,-270.341 264.043,-266.357"/>
</g>
<!-- Node8 -->
<g id="node8" class="node"><title>Node8</title>
<g id="a_node8"><a xlink:href="timer_8h.html" target="_top" xlink:title="driver/timer.h">
<polygon fill="white" stroke="black" points="429.5,-179.5 429.5,-198.5 501.5,-198.5 501.5,-179.5 429.5,-179.5"/>
<text text-anchor="middle" x="465.5" y="-186.5" font-family="Helvetica,sans-Serif" font-size="10.00">driver/timer.h</text>
</a>
</g>
</g>
<!-- Node3&#45;&gt;Node8 -->
<g id="edge16" class="edge"><title>Node3&#45;&gt;Node8</title>
<path fill="none" stroke="midnightblue" d="M300.869,-307.895C313.089,-291.855 341.304,-257.023 371.5,-235 390.173,-221.382 413.614,-210.15 432.416,-202.314"/>
<polygon fill="midnightblue" stroke="midnightblue" points="433.816,-205.523 441.776,-198.531 431.193,-199.033 433.816,-205.523"/>
</g>
<!-- Node12 -->
<g id="node12" class="node"><title>Node12</title>
<g id="a_node12"><a xlink:href="radio__pin__mapping_8h.html" target="_top" xlink:title="settings/radio_pin\l_mapping.h">
<polygon fill="white" stroke="black" points="622,-235.5 622,-265.5 715,-265.5 715,-235.5 622,-235.5"/>
<text text-anchor="start" x="630" y="-253.5" font-family="Helvetica,sans-Serif" font-size="10.00">settings/radio_pin</text>
<text text-anchor="middle" x="668.5" y="-242.5" font-family="Helvetica,sans-Serif" font-size="10.00">_mapping.h</text>
</a>
</g>
</g>
<!-- Node3&#45;&gt;Node12 -->
<g id="edge17" class="edge"><title>Node3&#45;&gt;Node12</title>
<path fill="none" stroke="midnightblue" d="M334.17,-309.605C400.83,-298.02 535.509,-274.613 612.024,-261.315"/>
<polygon fill="midnightblue" stroke="midnightblue" points="612.714,-264.748 621.967,-259.587 611.516,-257.851 612.714,-264.748"/>
</g>
<!-- Node4&#45;&gt;Node2 -->
<g id="edge5" class="edge"><title>Node4&#45;&gt;Node2</title>
<path fill="none" stroke="midnightblue" d="M245.859,-240.64C240.548,-226.141 232.721,-197.148 246.5,-179 369.546,-16.9382 487.583,-93.9141 687.5,-56 835.007,-28.0255 1014.12,-16.442 1088.51,-12.6005"/>
<polygon fill="midnightblue" stroke="midnightblue" points="1088.89,-16.0856 1098.7,-12.0889 1088.54,-9.09442 1088.89,-16.0856"/>
</g>
<!-- Node5 -->
<g id="node5" class="node"><title>Node5</title>
<polygon fill="white" stroke="#bfbfbf" points="604,-123.5 604,-142.5 663,-142.5 663,-123.5 604,-123.5"/>
<text text-anchor="middle" x="633.5" y="-130.5" font-family="Helvetica,sans-Serif" font-size="10.00">msp430.h</text>
</g>
<!-- Node4&#45;&gt;Node5 -->
<g id="edge6" class="edge"><title>Node4&#45;&gt;Node5</title>
<path fill="none" stroke="midnightblue" d="M270.401,-240.968C275.342,-238.983 280.598,-236.896 285.5,-235 328.387,-218.408 340.511,-217.748 382.5,-199 399.927,-191.219 402.548,-185.479 420.5,-179 478.961,-157.902 550.204,-145.341 593.686,-139.055"/>
<polygon fill="midnightblue" stroke="midnightblue" points="594.437,-142.484 603.852,-137.627 593.463,-135.552 594.437,-142.484"/>
</g>
<!-- Node6 -->
<g id="node6" class="node"><title>Node6</title>
<polygon fill="white" stroke="#bfbfbf" points="255.5,-179.5 255.5,-198.5 303.5,-198.5 303.5,-179.5 255.5,-179.5"/>
<text text-anchor="middle" x="279.5" y="-186.5" font-family="Helvetica,sans-Serif" font-size="10.00">stdlib.h</text>
</g>
<!-- Node4&#45;&gt;Node6 -->
<g id="edge7" class="edge"><title>Node4&#45;&gt;Node6</title>
<path fill="none" stroke="midnightblue" d="M253.798,-240.975C258.165,-232.315 265.055,-218.649 270.603,-207.645"/>
<polygon fill="midnightblue" stroke="midnightblue" points="273.833,-209.014 275.21,-198.509 267.582,-205.863 273.833,-209.014"/>
</g>
<!-- Node7 -->
<g id="node7" class="node"><title>Node7</title>
<polygon fill="white" stroke="#bfbfbf" points="321.5,-179.5 321.5,-198.5 373.5,-198.5 373.5,-179.5 321.5,-179.5"/>
<text text-anchor="middle" x="347.5" y="-186.5" font-family="Helvetica,sans-Serif" font-size="10.00">stdarg.h</text>
</g>
<!-- Node4&#45;&gt;Node7 -->
<g id="edge8" class="edge"><title>Node4&#45;&gt;Node7</title>
<path fill="none" stroke="midnightblue" d="M263.541,-240.975C279.551,-231.255 305.95,-215.227 324.874,-203.737"/>
<polygon fill="midnightblue" stroke="midnightblue" points="326.754,-206.691 333.485,-198.509 323.121,-200.707 326.754,-206.691"/>
</g>
<!-- Node4&#45;&gt;Node8 -->
<g id="edge9" class="edge"><title>Node4&#45;&gt;Node8</title>
<path fill="none" stroke="midnightblue" d="M276.193,-240.855C282.506,-238.874 289.227,-236.818 295.5,-235 338.203,-222.625 387.333,-209.768 421.76,-200.981"/>
<polygon fill="midnightblue" stroke="midnightblue" points="422.676,-204.359 431.505,-198.502 420.95,-197.575 422.676,-204.359"/>
</g>
<!-- Node8&#45;&gt;Node2 -->
<g id="edge11" class="edge"><title>Node8&#45;&gt;Node2</title>
<path fill="none" stroke="midnightblue" d="M480.619,-179.384C504.344,-166.096 552.003,-140.325 594.5,-123 685.612,-85.8561 709.567,-77.858 805.5,-56 907.092,-32.8528 1029.81,-19.5209 1088.68,-14.0084"/>
<polygon fill="midnightblue" stroke="midnightblue" points="1089.27,-17.4689 1098.91,-13.0695 1088.63,-10.4982 1089.27,-17.4689"/>
</g>
<!-- Node8&#45;&gt;Node5 -->
<g id="edge10" class="edge"><title>Node8&#45;&gt;Node5</title>
<path fill="none" stroke="midnightblue" d="M492.12,-179.444C520.506,-170.32 565.637,-155.813 597.253,-145.651"/>
<polygon fill="midnightblue" stroke="midnightblue" points="598.555,-148.909 607.004,-142.516 596.413,-142.244 598.555,-148.909"/>
</g>
<!-- Node9 -->
<g id="node9" class="node"><title>Node9</title>
<g id="a_node9"><a xlink:href="radio__configuration_8h.html" target="_top" xlink:title="settings/radio_configuration.h">
<polygon fill="white" stroke="black" points="1228,-123.5 1228,-142.5 1371,-142.5 1371,-123.5 1228,-123.5"/>
<text text-anchor="middle" x="1299.5" y="-130.5" font-family="Helvetica,sans-Serif" font-size="10.00">settings/radio_configuration.h</text>
</a>
</g>
</g>
<!-- Node8&#45;&gt;Node9 -->
<g id="edge12" class="edge"><title>Node8&#45;&gt;Node9</title>
<path fill="none" stroke="midnightblue" d="M501.604,-185.662C626.2,-177.595 1040.22,-150.788 1217.64,-139.3"/>
<polygon fill="midnightblue" stroke="midnightblue" points="1217.95,-142.788 1227.7,-138.649 1217.5,-135.802 1217.95,-142.788"/>
</g>
<!-- Node10 -->
<g id="node10" class="node"><title>Node10</title>
<g id="a_node10"><a xlink:href="si4735__cmd__prop_8h.html" target="_top" xlink:title="driver/include/si4735\l_cmd_prop.h">
<polygon fill="white" stroke="black" points="1307.5,-56.5 1307.5,-86.5 1411.5,-86.5 1411.5,-56.5 1307.5,-56.5"/>
<text text-anchor="start" x="1315.5" y="-74.5" font-family="Helvetica,sans-Serif" font-size="10.00">driver/include/si4735</text>
<text text-anchor="middle" x="1359.5" y="-63.5" font-family="Helvetica,sans-Serif" font-size="10.00">_cmd_prop.h</text>
</a>
</g>
</g>
<!-- Node9&#45;&gt;Node10 -->
<g id="edge13" class="edge"><title>Node9&#45;&gt;Node10</title>
<path fill="none" stroke="midnightblue" d="M1308.1,-123.475C1315.92,-115.718 1327.79,-103.943 1338.16,-93.6645"/>
<polygon fill="midnightblue" stroke="midnightblue" points="1340.72,-96.0496 1345.36,-86.523 1335.79,-91.0792 1340.72,-96.0496"/>
</g>
<!-- Node11 -->
<g id="node11" class="node"><title>Node11</title>
<g id="a_node11"><a xlink:href="libs_2time_8h.html" target="_top" xlink:title="libs/time.h">
<polygon fill="white" stroke="black" points="1227.5,-62 1227.5,-81 1289.5,-81 1289.5,-62 1227.5,-62"/>
<text text-anchor="middle" x="1258.5" y="-69" font-family="Helvetica,sans-Serif" font-size="10.00">libs/time.h</text>
</a>
</g>
</g>
<!-- Node9&#45;&gt;Node11 -->
<g id="edge15" class="edge"><title>Node9&#45;&gt;Node11</title>
<path fill="none" stroke="midnightblue" d="M1293.63,-123.475C1287.54,-114.638 1277.86,-100.589 1270.2,-89.475"/>
<polygon fill="midnightblue" stroke="midnightblue" points="1272.92,-87.2575 1264.36,-81.0091 1267.16,-91.2294 1272.92,-87.2575"/>
</g>
<!-- Node10&#45;&gt;Node2 -->
<g id="edge14" class="edge"><title>Node10&#45;&gt;Node2</title>
<path fill="none" stroke="midnightblue" d="M1307.42,-57.3688C1261.94,-45.9021 1197.22,-29.5857 1157.92,-19.6776"/>
<polygon fill="midnightblue" stroke="midnightblue" points="1158.58,-16.2339 1148.02,-17.1829 1156.86,-23.0215 1158.58,-16.2339"/>
</g>
<!-- Node13&#45;&gt;Node2 -->
<g id="edge20" class="edge"><title>Node13&#45;&gt;Node2</title>
<path fill="none" stroke="midnightblue" d="M1199.58,-489.747C1313.48,-488.565 1667.54,-481.927 1701.5,-445 1707.52,-438.457 1701.93,-433.878 1701.5,-425 1696.38,-320.181 1678.5,-294.943 1678.5,-190 1678.5,-190 1678.5,-190 1678.5,-132 1678.5,-78.9638 1635.48,-76.3435 1586.5,-56 1509.03,-23.8226 1252.39,-14.2352 1158.39,-11.764"/>
<polygon fill="midnightblue" stroke="midnightblue" points="1158.36,-8.26206 1148.27,-11.5092 1158.18,-15.2598 1158.36,-8.26206"/>
</g>
<!-- Node13&#45;&gt;Node3 -->
<g id="edge26" class="edge"><title>Node13&#45;&gt;Node3</title>
<path fill="none" stroke="midnightblue" d="M1129.06,-490.219C980.549,-490.845 413.061,-490.239 348.5,-445 312.749,-419.949 300.521,-366.167 296.451,-337.463"/>
<polygon fill="midnightblue" stroke="midnightblue" points="299.88,-336.67 295.193,-327.168 292.932,-337.519 299.88,-336.67"/>
</g>
<!-- Node13&#45;&gt;Node8 -->
<g id="edge51" class="edge"><title>Node13&#45;&gt;Node8</title>
<path fill="none" stroke="midnightblue" d="M1129.25,-490.745C1046.04,-491.669 831.502,-489.169 659.5,-445 539.607,-414.212 472.178,-436.643 404.5,-333 394.769,-318.097 401.118,-254.46 411.5,-235 418.253,-222.341 430.193,-211.818 441.131,-204.139"/>
<polygon fill="midnightblue" stroke="midnightblue" points="443.128,-207.016 449.571,-198.605 439.289,-201.162 443.128,-207.016"/>
</g>
<!-- Node13&#45;&gt;Node9 -->
<g id="edge68" class="edge"><title>Node13&#45;&gt;Node9</title>
<path fill="none" stroke="midnightblue" d="M1182.43,-481.448C1198.52,-473.31 1222.34,-460.091 1240.5,-445 1290.43,-403.517 1313.5,-383.412 1313.5,-318.5 1313.5,-318.5 1313.5,-318.5 1313.5,-249.5 1313.5,-215.114 1307.31,-175.385 1303.16,-152.625"/>
<polygon fill="midnightblue" stroke="midnightblue" points="1306.57,-151.825 1301.27,-142.65 1299.69,-153.126 1306.57,-151.825"/>
</g>
<!-- Node13&#45;&gt;Node10 -->
<g id="edge27" class="edge"><title>Node13&#45;&gt;Node10</title>
<path fill="none" stroke="midnightblue" d="M1192.2,-481.483C1213.75,-474.017 1243.73,-461.733 1266.5,-445 1321.08,-404.89 1351.5,-386.236 1351.5,-318.5 1351.5,-318.5 1351.5,-318.5 1351.5,-249.5 1351.5,-200.558 1373.23,-191.538 1379.5,-143 1380.64,-134.184 1381.17,-131.731 1379.5,-123 1377.75,-113.812 1374.35,-104.163 1370.85,-95.7897"/>
<polygon fill="midnightblue" stroke="midnightblue" points="1374.04,-94.3609 1366.78,-86.6495 1367.65,-97.2085 1374.04,-94.3609"/>
</g>
<!-- Node14 -->
<g id="node14" class="node"><title>Node14</title>
<g id="a_node14"><a xlink:href="pca9530_8h.html" target="_top" xlink:title="driver/pca9530.h">
<polygon fill="white" stroke="black" points="718,-308 718,-327 805,-327 805,-308 718,-308"/>
<text text-anchor="middle" x="761.5" y="-315" font-family="Helvetica,sans-Serif" font-size="10.00">driver/pca9530.h</text>
</a>
</g>
</g>
<!-- Node13&#45;&gt;Node14 -->
<g id="edge21" class="edge"><title>Node13&#45;&gt;Node14</title>
<path fill="none" stroke="midnightblue" d="M1129.43,-488.318C1051.08,-484.124 864.21,-471.57 807.5,-445 774.469,-429.524 762.038,-422.455 747.5,-389 740.136,-372.055 745.974,-351.128 752.205,-336.493"/>
<polygon fill="midnightblue" stroke="midnightblue" points="755.536,-337.634 756.629,-327.096 749.203,-334.653 755.536,-337.634"/>
</g>
<!-- Node15 -->
<g id="node15" class="node"><title>Node15</title>
<g id="a_node15"><a xlink:href="log__exp__table_8h.html" target="_top" xlink:title="libs/log_exp_table.h">
<polygon fill="white" stroke="black" points="1707,-241 1707,-260 1810,-260 1810,-241 1707,-241"/>
<text text-anchor="middle" x="1758.5" y="-248" font-family="Helvetica,sans-Serif" font-size="10.00">libs/log_exp_table.h</text>
</a>
</g>
</g>
<!-- Node13&#45;&gt;Node15 -->
<g id="edge24" class="edge"><title>Node13&#45;&gt;Node15</title>
<path fill="none" stroke="midnightblue" d="M1199.88,-489.753C1318.36,-488.583 1695.85,-481.963 1734.5,-445 1782.82,-398.791 1770.87,-308.709 1762.88,-269.954"/>
<polygon fill="midnightblue" stroke="midnightblue" points="1766.27,-269.077 1760.69,-260.069 1759.44,-270.589 1766.27,-269.077"/>
</g>
<!-- Node16 -->
<g id="node16" class="node"><title>Node16</title>
<g id="a_node16"><a xlink:href="external__interrupthandler_8h.html" target="_top" xlink:title="driver/external_interrupthandler.h">
<polygon fill="white" stroke="black" points="862,-308 862,-327 1019,-327 1019,-308 862,-308"/>
<text text-anchor="middle" x="940.5" y="-315" font-family="Helvetica,sans-Serif" font-size="10.00">driver/external_interrupthandler.h</text>
</a>
</g>
</g>
<!-- Node13&#45;&gt;Node16 -->
<g id="edge28" class="edge"><title>Node13&#45;&gt;Node16</title>
<path fill="none" stroke="midnightblue" d="M1129.26,-487.122C1037.88,-478.82 797.451,-451.324 754.5,-389 749.456,-381.681 749.1,-376.061 754.5,-369 768.702,-350.428 822.825,-337.084 869.052,-328.794"/>
<polygon fill="midnightblue" stroke="midnightblue" points="869.828,-332.212 879.081,-327.051 868.63,-325.315 869.828,-332.212"/>
</g>
<!-- Node17 -->
<g id="node17" class="node"><title>Node17</title>
<g id="a_node17"><a xlink:href="tpa2016d2_8h.html" target="_top" xlink:title="driver/tpa2016d2.h">
<polygon fill="white" stroke="black" points="142,-308 142,-327 237,-327 237,-308 142,-308"/>
<text text-anchor="middle" x="189.5" y="-315" font-family="Helvetica,sans-Serif" font-size="10.00">driver/tpa2016d2.h</text>
</a>
</g>
</g>
<!-- Node13&#45;&gt;Node17 -->
<g id="edge32" class="edge"><title>Node13&#45;&gt;Node17</title>
<path fill="none" stroke="midnightblue" d="M1129.44,-489.751C979.817,-488.469 399.118,-481.185 326.5,-445 286.976,-425.306 295.168,-398.712 262.5,-369 247.205,-355.089 227.893,-341.89 212.975,-332.476"/>
<polygon fill="midnightblue" stroke="midnightblue" points="214.675,-329.413 204.329,-327.132 210.995,-335.367 214.675,-329.413"/>
</g>
<!-- Node18 -->
<g id="node18" class="node"><title>Node18</title>
<g id="a_node18"><a xlink:href="lcd_8h.html" target="_top" xlink:title="driver/lcd.h">
<polygon fill="white" stroke="black" points="606,-369.5 606,-388.5 669,-388.5 669,-369.5 606,-369.5"/>
<text text-anchor="middle" x="637.5" y="-376.5" font-family="Helvetica,sans-Serif" font-size="10.00">driver/lcd.h</text>
</a>
</g>
</g>
<!-- Node13&#45;&gt;Node18 -->
<g id="edge38" class="edge"><title>Node13&#45;&gt;Node18</title>
<path fill="none" stroke="midnightblue" d="M1129.49,-490.442C1031.96,-491.099 759.381,-488.861 683.5,-445 665.217,-434.432 652.375,-413.334 644.99,-398.034"/>
<polygon fill="midnightblue" stroke="midnightblue" points="648.032,-396.264 640.75,-388.569 641.644,-399.126 648.032,-396.264"/>
</g>
<!-- Node21 -->
<g id="node21" class="node"><title>Node21</title>
<g id="a_node21"><a xlink:href="flash_8h.html" target="_top" xlink:title="driver/flash.h">
<polygon fill="white" stroke="black" points="1161,-425.5 1161,-444.5 1232,-444.5 1232,-425.5 1161,-425.5"/>
<text text-anchor="middle" x="1196.5" y="-432.5" font-family="Helvetica,sans-Serif" font-size="10.00">driver/flash.h</text>
</a>
</g>
</g>
<!-- Node13&#45;&gt;Node21 -->
<g id="edge46" class="edge"><title>Node13&#45;&gt;Node21</title>
<path fill="none" stroke="midnightblue" d="M1169.78,-481.083C1174.21,-473.613 1180.66,-462.724 1186.12,-453.52"/>
<polygon fill="midnightblue" stroke="midnightblue" points="1189.23,-455.138 1191.31,-444.751 1183.21,-451.57 1189.23,-455.138"/>
</g>
<!-- Node22 -->
<g id="node22" class="node"><title>Node22</title>
<g id="a_node22"><a xlink:href="string_8h.html" target="_top" xlink:title="string.h">
<polygon fill="white" stroke="black" points="1160,-369.5 1160,-388.5 1209,-388.5 1209,-369.5 1160,-369.5"/>
<text text-anchor="middle" x="1184.5" y="-376.5" font-family="Helvetica,sans-Serif" font-size="10.00">string.h</text>
</a>
</g>
</g>
<!-- Node13&#45;&gt;Node22 -->
<g id="edge81" class="edge"><title>Node13&#45;&gt;Node22</title>
<path fill="none" stroke="midnightblue" d="M1160.04,-481.42C1154.1,-468.824 1145.06,-444.687 1151.5,-425 1154.99,-414.34 1162.07,-404.117 1168.79,-396.117"/>
<polygon fill="midnightblue" stroke="midnightblue" points="1171.4,-398.439 1175.48,-388.66 1166.2,-393.763 1171.4,-398.439"/>
</g>
<!-- Node23 -->
<g id="node23" class="node"><title>Node23</title>
<g id="a_node23"><a xlink:href="encoder_8h.html" target="_top" xlink:title="driver/encoder.h">
<polygon fill="white" stroke="black" points="764,-369.5 764,-388.5 849,-388.5 849,-369.5 764,-369.5"/>
<text text-anchor="middle" x="806.5" y="-376.5" font-family="Helvetica,sans-Serif" font-size="10.00">driver/encoder.h</text>
</a>
</g>
</g>
<!-- Node13&#45;&gt;Node23 -->
<g id="edge52" class="edge"><title>Node13&#45;&gt;Node23</title>
<path fill="none" stroke="midnightblue" d="M1129.37,-484.713C1087.2,-477.856 1014.64,-464.428 954.5,-445 910.114,-430.662 860.976,-407.542 831.968,-393.088"/>
<polygon fill="midnightblue" stroke="midnightblue" points="833.443,-389.912 822.937,-388.543 830.297,-396.165 833.443,-389.912"/>
</g>
<!-- Node24 -->
<g id="node24" class="node"><title>Node24</title>
<g id="a_node24"><a xlink:href="language_8h.html" target="_top" xlink:title="menu/lang/language.h">
<polygon fill="white" stroke="black" points="1029.5,-369.5 1029.5,-388.5 1141.5,-388.5 1141.5,-369.5 1029.5,-369.5"/>
<text text-anchor="middle" x="1085.5" y="-376.5" font-family="Helvetica,sans-Serif" font-size="10.00">menu/lang/language.h</text>
</a>
</g>
</g>
<!-- Node13&#45;&gt;Node24 -->
<g id="edge58" class="edge"><title>Node13&#45;&gt;Node24</title>
<path fill="none" stroke="midnightblue" d="M1158.3,-481.368C1145.26,-463.215 1114.8,-420.802 1097.7,-396.99"/>
<polygon fill="midnightblue" stroke="midnightblue" points="1100.35,-394.672 1091.67,-388.591 1094.66,-398.755 1100.35,-394.672"/>
</g>
<!-- Node25 -->
<g id="node25" class="node"><title>Node25</title>
<g id="a_node25"><a xlink:href="menu_8h.html" target="_top" xlink:title="menu/menu.h">
<polygon fill="white" stroke="black" points="963.5,-425.5 963.5,-444.5 1039.5,-444.5 1039.5,-425.5 963.5,-425.5"/>
<text text-anchor="middle" x="1001.5" y="-432.5" font-family="Helvetica,sans-Serif" font-size="10.00">menu/menu.h</text>
</a>
</g>
</g>
<!-- Node13&#45;&gt;Node25 -->
<g id="edge59" class="edge"><title>Node13&#45;&gt;Node25</title>
<path fill="none" stroke="midnightblue" d="M1133.58,-481.444C1104.3,-472.399 1060.82,-458.064 1031.76,-447.916"/>
<polygon fill="midnightblue" stroke="midnightblue" points="1032.72,-444.544 1022.13,-444.516 1030.39,-451.145 1032.72,-444.544"/>
</g>
<!-- Node27 -->
<g id="node27" class="node"><title>Node27</title>
<g id="a_node27"><a xlink:href="station__list_8h.html" target="_top" xlink:title="system/station_list.h">
<polygon fill="white" stroke="black" points="1424,-369.5 1424,-388.5 1531,-388.5 1531,-369.5 1424,-369.5"/>
<text text-anchor="middle" x="1477.5" y="-376.5" font-family="Helvetica,sans-Serif" font-size="10.00">system/station_list.h</text>
</a>
</g>
</g>
<!-- Node13&#45;&gt;Node27 -->
<g id="edge69" class="edge"><title>Node13&#45;&gt;Node27</title>
<path fill="none" stroke="midnightblue" d="M1199.66,-490.566C1273.22,-490.704 1438.83,-486.059 1474.5,-445 1485.4,-432.457 1481.84,-412.959 1478.51,-398.588"/>
<polygon fill="midnightblue" stroke="midnightblue" points="1481.91,-397.751 1476.24,-388.797 1475.09,-399.329 1481.91,-397.751"/>
</g>
<!-- Node29 -->
<g id="node29" class="node"><title>Node29</title>
<g id="a_node29"><a xlink:href="radio__display_8h.html" target="_top" xlink:title="radio/radio_display.h">
<polygon fill="white" stroke="black" points="1586.5,-425.5 1586.5,-444.5 1692.5,-444.5 1692.5,-425.5 1586.5,-425.5"/>
<text text-anchor="middle" x="1639.5" y="-432.5" font-family="Helvetica,sans-Serif" font-size="10.00">radio/radio_display.h</text>
</a>
</g>
</g>
<!-- Node13&#45;&gt;Node29 -->
<g id="edge75" class="edge"><title>Node13&#45;&gt;Node29</title>
<path fill="none" stroke="midnightblue" d="M1199.75,-485.847C1269.46,-478.263 1429.1,-461.436 1563.5,-445 1567.63,-444.495 1571.9,-443.958 1576.21,-443.406"/>
<polygon fill="midnightblue" stroke="midnightblue" points="1576.85,-446.853 1586.32,-442.103 1575.96,-439.91 1576.85,-446.853"/>
</g>
<!-- Node30 -->
<g id="node30" class="node"><title>Node30</title>
<g id="a_node30"><a xlink:href="radio__settings_8h.html" target="_top" xlink:title="radio/radio_settings.h">
<polygon fill="white" stroke="black" points="1364.5,-425.5 1364.5,-444.5 1474.5,-444.5 1474.5,-425.5 1364.5,-425.5"/>
<text text-anchor="middle" x="1419.5" y="-432.5" font-family="Helvetica,sans-Serif" font-size="10.00">radio/radio_settings.h</text>
</a>
</g>
</g>
<!-- Node13&#45;&gt;Node30 -->
<g id="edge78" class="edge"><title>Node13&#45;&gt;Node30</title>
<path fill="none" stroke="midnightblue" d="M1199.55,-481.503C1242.08,-472.055 1314.05,-456.784 1364.09,-446.572"/>
<polygon fill="midnightblue" stroke="midnightblue" points="1365,-449.958 1374.1,-444.536 1363.61,-443.098 1365,-449.958"/>
</g>
<!-- Node31 -->
<g id="node31" class="node"><title>Node31</title>
<g id="a_node31"><a xlink:href="opt3001_8h.html" target="_top" xlink:title="driver/opt3001.h">
<polygon fill="white" stroke="black" points="0,-308 0,-327 85,-327 85,-308 0,-308"/>
<text text-anchor="middle" x="42.5" y="-315" font-family="Helvetica,sans-Serif" font-size="10.00">driver/opt3001.h</text>
</a>
</g>
</g>
<!-- Node13&#45;&gt;Node31 -->
<g id="edge82" class="edge"><title>Node13&#45;&gt;Node31</title>
<path fill="none" stroke="midnightblue" d="M1129.35,-490.073C987.69,-490.076 458.614,-487.202 297.5,-445 204.611,-420.669 105.826,-360.398 63.6075,-332.761"/>
<polygon fill="midnightblue" stroke="midnightblue" points="65.2966,-329.681 55.0262,-327.08 61.4325,-335.518 65.2966,-329.681"/>
</g>
<!-- Node32 -->
<g id="node32" class="node"><title>Node32</title>
<g id="a_node32"><a xlink:href="system_2time_8h.html" target="_top" xlink:title="system/time.h">
<polygon fill="white" stroke="black" points="1380,-179.5 1380,-198.5 1459,-198.5 1459,-179.5 1380,-179.5"/>
<text text-anchor="middle" x="1419.5" y="-186.5" font-family="Helvetica,sans-Serif" font-size="10.00">system/time.h</text>
</a>
</g>
</g>
<!-- Node13&#45;&gt;Node32 -->
<g id="edge85" class="edge"><title>Node13&#45;&gt;Node32</title>
<path fill="none" stroke="midnightblue" d="M1199.51,-484.624C1230.92,-478.624 1277.33,-466.76 1312.5,-445 1341.64,-426.97 1348.73,-418.884 1365.5,-389 1399.49,-328.437 1412.98,-245.38 1417.51,-208.704"/>
<polygon fill="midnightblue" stroke="midnightblue" points="1421.02,-208.848 1418.69,-198.513 1414.07,-208.047 1421.02,-208.848"/>
</g>
<!-- Node14&#45;&gt;Node2 -->
<g id="edge22" class="edge"><title>Node14&#45;&gt;Node2</title>
<path fill="none" stroke="midnightblue" d="M795.893,-307.934C846.087,-293.134 933.5,-257.648 933.5,-190 933.5,-190 933.5,-190 933.5,-132 933.5,-59.256 1033.81,-28.3417 1088.66,-16.8753"/>
<polygon fill="midnightblue" stroke="midnightblue" points="1089.53,-20.2711 1098.66,-14.8947 1088.17,-13.4045 1089.53,-20.2711"/>
</g>
<!-- Node14&#45;&gt;Node4 -->
<g id="edge23" class="edge"><title>Node14&#45;&gt;Node4</title>
<path fill="none" stroke="midnightblue" d="M717.847,-310.958C620.532,-298.604 386.872,-268.94 291.307,-256.808"/>
<polygon fill="midnightblue" stroke="midnightblue" points="291.518,-253.306 281.157,-255.519 290.636,-260.251 291.518,-253.306"/>
</g>
<!-- Node15&#45;&gt;Node2 -->
<g id="edge25" class="edge"><title>Node15&#45;&gt;Node2</title>
<path fill="none" stroke="midnightblue" d="M1758.61,-240.686C1758.45,-209.432 1753.32,-103.254 1692.5,-56 1650.34,-23.2433 1275.88,-13.7467 1158.52,-11.5625"/>
<polygon fill="midnightblue" stroke="midnightblue" points="1158.36,-8.05916 1148.29,-11.3788 1158.23,-15.058 1158.36,-8.05916"/>
</g>
<!-- Node16&#45;&gt;Node2 -->
<g id="edge30" class="edge"><title>Node16&#45;&gt;Node2</title>
<path fill="none" stroke="midnightblue" d="M949.239,-307.883C967.806,-288.608 1009.5,-239.783 1009.5,-190 1009.5,-190 1009.5,-190 1009.5,-132 1009.5,-81.3476 1063.08,-43.2775 1096.77,-24.3435"/>
<polygon fill="midnightblue" stroke="midnightblue" points="1098.56,-27.3554 1105.69,-19.516 1095.23,-21.1998 1098.56,-27.3554"/>
</g>
<!-- Node16&#45;&gt;Node5 -->
<g id="edge29" class="edge"><title>Node16&#45;&gt;Node5</title>
<path fill="none" stroke="midnightblue" d="M926.105,-307.942C877.156,-278.844 716.852,-183.55 656.637,-147.754"/>
<polygon fill="midnightblue" stroke="midnightblue" points="658.249,-144.64 647.864,-142.539 654.672,-150.658 658.249,-144.64"/>
</g>
<!-- Node16&#45;&gt;Node12 -->
<g id="edge31" class="edge"><title>Node16&#45;&gt;Node12</title>
<path fill="none" stroke="midnightblue" d="M904.661,-307.936C858.895,-296.999 779.172,-277.947 725.145,-265.037"/>
<polygon fill="midnightblue" stroke="midnightblue" points="725.91,-261.621 715.37,-262.701 724.283,-268.429 725.91,-261.621"/>
</g>
<!-- Node17&#45;&gt;Node2 -->
<g id="edge34" class="edge"><title>Node17&#45;&gt;Node2</title>
<path fill="none" stroke="midnightblue" d="M179.564,-307.774C158.964,-288.659 113.5,-240.729 113.5,-190 113.5,-190 113.5,-190 113.5,-132 113.5,-91.8103 127.672,-76.0552 162.5,-56 243.945,-9.10103 925.042,-9.88472 1088.39,-10.7583"/>
<polygon fill="midnightblue" stroke="midnightblue" points="1088.8,-14.2606 1098.82,-10.8181 1088.84,-7.26069 1088.8,-14.2606"/>
</g>
<!-- Node17&#45;&gt;Node4 -->
<g id="edge35" class="edge"><title>Node17&#45;&gt;Node4</title>
<path fill="none" stroke="midnightblue" d="M197.592,-307.734C207.038,-297.5 222.856,-280.364 234.553,-267.692"/>
<polygon fill="midnightblue" stroke="midnightblue" points="237.325,-269.849 241.536,-260.127 232.182,-265.101 237.325,-269.849"/>
</g>
<!-- Node17&#45;&gt;Node5 -->
<g id="edge33" class="edge"><title>Node17&#45;&gt;Node5</title>
<path fill="none" stroke="midnightblue" d="M189.843,-307.869C191.388,-282.349 199.879,-207.275 246.5,-179 304.17,-144.023 506.853,-136.233 593.61,-134.497"/>
<polygon fill="midnightblue" stroke="midnightblue" points="593.907,-137.992 603.842,-134.31 593.779,-130.994 593.907,-137.992"/>
</g>
<!-- Node17&#45;&gt;Node8 -->
<g id="edge37" class="edge"><title>Node17&#45;&gt;Node8</title>
<path fill="none" stroke="midnightblue" d="M208.367,-307.983C228.805,-298.526 262.153,-282.419 289.5,-266 310.009,-253.687 312.185,-245.859 333.5,-235 361.908,-220.528 396.015,-209.038 422.443,-201.292"/>
<polygon fill="midnightblue" stroke="midnightblue" points="423.517,-204.625 432.168,-198.507 421.59,-197.895 423.517,-204.625"/>
</g>
<!-- Node17&#45;&gt;Node12 -->
<g id="edge36" class="edge"><title>Node17&#45;&gt;Node12</title>
<path fill="none" stroke="midnightblue" d="M219.267,-307.999C227.696,-305.809 236.914,-303.617 245.5,-302 375.492,-277.526 530.313,-262.6 611.822,-255.827"/>
<polygon fill="midnightblue" stroke="midnightblue" points="612.19,-259.308 621.87,-255.002 611.617,-252.332 612.19,-259.308"/>
</g>
<!-- Node18&#45;&gt;Node2 -->
<g id="edge39" class="edge"><title>Node18&#45;&gt;Node2</title>
<path fill="none" stroke="midnightblue" d="M644.526,-369.495C683.054,-323.046 869.754,-100.498 946.5,-56 991.312,-30.0171 1051.01,-18.8705 1088.35,-14.2058"/>
<polygon fill="midnightblue" stroke="midnightblue" points="1089.19,-17.6325 1098.72,-13.0059 1088.38,-10.6789 1089.19,-17.6325"/>
</g>
<!-- Node18&#45;&gt;Node8 -->
<g id="edge45" class="edge"><title>Node18&#45;&gt;Node8</title>
<path fill="none" stroke="midnightblue" d="M605.693,-376.215C550.968,-372.406 442.627,-361.388 419.5,-333 388.451,-294.887 428.067,-235.37 451.116,-206.633"/>
<polygon fill="midnightblue" stroke="midnightblue" points="453.955,-208.694 457.641,-198.761 448.565,-204.227 453.955,-208.694"/>
</g>
<!-- Node18&#45;&gt;Node12 -->
<g id="edge44" class="edge"><title>Node18&#45;&gt;Node12</title>
<path fill="none" stroke="midnightblue" d="M639.631,-369.305C644.289,-350.298 655.519,-304.47 662.52,-275.9"/>
<polygon fill="midnightblue" stroke="midnightblue" points="665.993,-276.434 664.974,-265.888 659.194,-274.768 665.993,-276.434"/>
</g>
<!-- Node19 -->
<g id="node19" class="node"><title>Node19</title>
<g id="a_node19"><a xlink:href="pca9534_8h.html" target="_top" xlink:title="driver/pca9534.h">
<polygon fill="white" stroke="black" points="536,-308 536,-327 623,-327 623,-308 536,-308"/>
<text text-anchor="middle" x="579.5" y="-315" font-family="Helvetica,sans-Serif" font-size="10.00">driver/pca9534.h</text>
</a>
</g>
</g>
<!-- Node18&#45;&gt;Node19 -->
<g id="edge40" class="edge"><title>Node18&#45;&gt;Node19</title>
<path fill="none" stroke="midnightblue" d="M629.19,-369.475C620.318,-360.373 606.054,-345.741 595.08,-334.483"/>
<polygon fill="midnightblue" stroke="midnightblue" points="597.281,-331.727 587.795,-327.009 592.269,-336.613 597.281,-331.727"/>
</g>
<!-- Node20 -->
<g id="node20" class="node"><title>Node20</title>
<g id="a_node20"><a xlink:href="lcd__commands_8h.html" target="_top" xlink:title="driver/include/lcd\l_commands.h">
<polygon fill="white" stroke="black" points="429,-302.5 429,-332.5 518,-332.5 518,-302.5 429,-302.5"/>
<text text-anchor="start" x="437" y="-320.5" font-family="Helvetica,sans-Serif" font-size="10.00">driver/include/lcd</text>
<text text-anchor="middle" x="473.5" y="-309.5" font-family="Helvetica,sans-Serif" font-size="10.00">_commands.h</text>
</a>
</g>
</g>
<!-- Node18&#45;&gt;Node20 -->
<g id="edge43" class="edge"><title>Node18&#45;&gt;Node20</title>
<path fill="none" stroke="midnightblue" d="M614.003,-369.475C590.027,-360.776 552.127,-347.026 521.73,-335.998"/>
<polygon fill="midnightblue" stroke="midnightblue" points="522.746,-332.643 512.152,-332.523 520.358,-339.224 522.746,-332.643"/>
</g>
<!-- Node19&#45;&gt;Node2 -->
<g id="edge41" class="edge"><title>Node19&#45;&gt;Node2</title>
<path fill="none" stroke="midnightblue" d="M581.238,-307.775C584.772,-291.841 594.072,-257.594 612.5,-235 703.266,-123.716 748.433,-109.999 881.5,-56 951.63,-27.5411 1040.55,-16.9214 1088.7,-13.0787"/>
<polygon fill="midnightblue" stroke="midnightblue" points="1089.18,-16.5523 1098.89,-12.3184 1088.66,-9.57166 1089.18,-16.5523"/>
</g>
<!-- Node19&#45;&gt;Node4 -->
<g id="edge42" class="edge"><title>Node19&#45;&gt;Node4</title>
<path fill="none" stroke="midnightblue" d="M550.179,-307.991C542.506,-305.898 534.221,-303.756 526.5,-302 443.659,-283.154 345.628,-266.621 291.215,-257.947"/>
<polygon fill="midnightblue" stroke="midnightblue" points="291.678,-254.477 281.253,-256.369 290.583,-261.391 291.678,-254.477"/>
</g>
<!-- Node21&#45;&gt;Node2 -->
<g id="edge47" class="edge"><title>Node21&#45;&gt;Node2</title>
<path fill="none" stroke="midnightblue" d="M1206.94,-425.245C1215.92,-416.969 1228.25,-403.663 1233.5,-389 1236.5,-380.632 1234.33,-377.85 1233.5,-369 1225.91,-288.378 1199.5,-270.978 1199.5,-190 1199.5,-190 1199.5,-190 1199.5,-132 1199.5,-88.4754 1163.8,-47.7746 1141.34,-26.4715"/>
<polygon fill="midnightblue" stroke="midnightblue" points="1143.49,-23.6984 1133.75,-19.5313 1138.77,-28.8634 1143.49,-23.6984"/>
</g>
<!-- Node21&#45;&gt;Node5 -->
<g id="edge50" class="edge"><title>Node21&#45;&gt;Node5</title>
<path fill="none" stroke="midnightblue" d="M1203.51,-425.498C1213.26,-412.581 1228.52,-387.556 1217.5,-369 1118.62,-202.544 1010.56,-235.889 825.5,-179 773.529,-163.024 712.151,-149.552 673.037,-141.625"/>
<polygon fill="midnightblue" stroke="midnightblue" points="673.6,-138.169 663.107,-139.635 672.224,-145.032 673.6,-138.169"/>
</g>
<!-- Node21&#45;&gt;Node22 -->
<g id="edge48" class="edge"><title>Node21&#45;&gt;Node22</title>
<path fill="none" stroke="midnightblue" d="M1194.52,-425.083C1192.93,-417.927 1190.64,-407.635 1188.65,-398.691"/>
<polygon fill="midnightblue" stroke="midnightblue" points="1192.03,-397.754 1186.44,-388.751 1185.2,-399.272 1192.03,-397.754"/>
</g>
<!-- Node22&#45;&gt;Node2 -->
<g id="edge49" class="edge"><title>Node22&#45;&gt;Node2</title>
<path fill="none" stroke="midnightblue" d="M1183.47,-369.105C1181.81,-354.913 1178.45,-326.268 1175.5,-302 1169.44,-252.202 1161.5,-240.165 1161.5,-190 1161.5,-190 1161.5,-190 1161.5,-132 1161.5,-93.8116 1144.06,-51.8296 1132.81,-28.7224"/>
<polygon fill="midnightblue" stroke="midnightblue" points="1135.79,-26.8646 1128.16,-19.5153 1129.54,-30.0195 1135.79,-26.8646"/>
</g>
<!-- Node23&#45;&gt;Node2 -->
<g id="edge53" class="edge"><title>Node23&#45;&gt;Node2</title>
<path fill="none" stroke="midnightblue" d="M849.187,-370.461C916.863,-358.441 1041.59,-335.976 1045.5,-333 1077.61,-308.571 1085.5,-291.85 1085.5,-251.5 1085.5,-251.5 1085.5,-251.5 1085.5,-132 1085.5,-93.8116 1102.94,-51.8296 1114.19,-28.7224"/>
<polygon fill="midnightblue" stroke="midnightblue" points="1117.46,-30.0195 1118.84,-19.5153 1111.21,-26.8646 1117.46,-30.0195"/>
</g>
<!-- Node23&#45;&gt;Node5 -->
<g id="edge54" class="edge"><title>Node23&#45;&gt;Node5</title>
<path fill="none" stroke="midnightblue" d="M849.211,-370.005C912.647,-358.032 1024.66,-336.473 1027.5,-333 1036.22,-322.33 1035.08,-313.502 1027.5,-302 986.12,-239.246 764.37,-170.832 672.945,-144.836"/>
<polygon fill="midnightblue" stroke="midnightblue" points="673.804,-141.442 663.229,-142.094 671.903,-148.179 673.804,-141.442"/>
</g>
<!-- Node23&#45;&gt;Node9 -->
<g id="edge56" class="edge"><title>Node23&#45;&gt;Node9</title>
<path fill="none" stroke="midnightblue" d="M849.054,-370.553C852.249,-370.019 855.425,-369.496 858.5,-369 965.419,-351.764 1002.73,-381.621 1099.5,-333 1187.83,-288.619 1261.19,-190.534 1288.29,-151.004"/>
<polygon fill="midnightblue" stroke="midnightblue" points="1291.21,-152.932 1293.9,-142.684 1285.4,-149.019 1291.21,-152.932"/>
</g>
<!-- Node23&#45;&gt;Node12 -->
<g id="edge55" class="edge"><title>Node23&#45;&gt;Node12</title>
<path fill="none" stroke="midnightblue" d="M810.774,-369.06C817.391,-353.775 827.93,-322.306 813.5,-302 807.966,-294.213 763.163,-279.312 724.805,-267.706"/>
<polygon fill="midnightblue" stroke="midnightblue" points="725.804,-264.351 715.22,-264.832 723.794,-271.057 725.804,-264.351"/>
</g>
<!-- Node23&#45;&gt;Node16 -->
<g id="edge57" class="edge"><title>Node23&#45;&gt;Node16</title>
<path fill="none" stroke="midnightblue" d="M825.699,-369.475C848.287,-359.445 885.999,-342.7 912.001,-331.155"/>
<polygon fill="midnightblue" stroke="midnightblue" points="913.618,-334.266 921.337,-327.009 910.777,-327.869 913.618,-334.266"/>
</g>
<!-- Node25&#45;&gt;Node2 -->
<g id="edge60" class="edge"><title>Node25&#45;&gt;Node2</title>
<path fill="none" stroke="midnightblue" d="M1002.17,-425.169C1003.57,-411.823 1007.83,-386.245 1020.5,-369 1037.58,-345.754 1056.59,-355.61 1074.5,-333 1116.22,-280.339 1123.5,-257.183 1123.5,-190 1123.5,-190 1123.5,-190 1123.5,-132 1123.5,-95.7138 1123.5,-53.3066 1123.5,-29.559"/>
<polygon fill="midnightblue" stroke="midnightblue" points="1127,-29.5085 1123.5,-19.5085 1120,-29.5086 1127,-29.5085"/>
</g>
<!-- Node25&#45;&gt;Node13 -->
<g id="edge62" class="edge"><title>Node25&#45;&gt;Node13</title>
<path fill="none" stroke="midnightblue" d="M1032.29,-444.516C1061.53,-453.546 1105.01,-467.879 1134.11,-478.039"/>
<polygon fill="midnightblue" stroke="midnightblue" points="1133.17,-481.417 1143.76,-481.444 1135.5,-474.816 1133.17,-481.417"/>
</g>
<!-- Node25&#45;&gt;Node18 -->
<g id="edge61" class="edge"><title>Node25&#45;&gt;Node18</title>
<path fill="none" stroke="midnightblue" d="M963.234,-428.323C894.427,-418.116 750.369,-396.744 679.165,-386.181"/>
<polygon fill="midnightblue" stroke="midnightblue" points="679.611,-382.709 669.206,-384.704 678.584,-389.633 679.611,-382.709"/>
</g>
<!-- Node25&#45;&gt;Node22 -->
<g id="edge67" class="edge"><title>Node25&#45;&gt;Node22</title>
<path fill="none" stroke="midnightblue" d="M1030.5,-425.444C1062.97,-415.862 1115.56,-400.344 1150.09,-390.155"/>
<polygon fill="midnightblue" stroke="midnightblue" points="1151.15,-393.491 1159.75,-387.304 1149.17,-386.778 1151.15,-393.491"/>
</g>
<!-- Node25&#45;&gt;Node23 -->
<g id="edge63" class="edge"><title>Node25&#45;&gt;Node23</title>
<path fill="none" stroke="midnightblue" d="M970.602,-425.444C937.226,-416.201 883.906,-401.436 847.151,-391.257"/>
<polygon fill="midnightblue" stroke="midnightblue" points="847.825,-387.812 837.254,-388.516 845.957,-394.558 847.825,-387.812"/>
</g>
<!-- Node25&#45;&gt;Node24 -->
<g id="edge64" class="edge"><title>Node25&#45;&gt;Node24</title>
<path fill="none" stroke="midnightblue" d="M1015,-425.324C1028.1,-416.9 1048.21,-403.971 1063.61,-394.074"/>
<polygon fill="midnightblue" stroke="midnightblue" points="1065.52,-397.006 1072.04,-388.655 1061.73,-391.118 1065.52,-397.006"/>
</g>
<!-- Node26 -->
<g id="node26" class="node"><title>Node26</title>
<g id="a_node26"><a xlink:href="menu__struct_8h.html" target="_top" xlink:title="menu/menu_struct.h">
<polygon fill="white" stroke="black" points="867.5,-369.5 867.5,-388.5 973.5,-388.5 973.5,-369.5 867.5,-369.5"/>
<text text-anchor="middle" x="920.5" y="-376.5" font-family="Helvetica,sans-Serif" font-size="10.00">menu/menu_struct.h</text>
</a>
</g>
</g>
<!-- Node25&#45;&gt;Node26 -->
<g id="edge65" class="edge"><title>Node25&#45;&gt;Node26</title>
<path fill="none" stroke="midnightblue" d="M983.371,-425.324C969.4,-417.185 950.544,-404.839 937.003,-395.087"/>
<polygon fill="midnightblue" stroke="midnightblue" points="938.714,-391.998 928.602,-388.834 934.534,-397.613 938.714,-391.998"/>
</g>
<!-- Node26&#45;&gt;Node25 -->
<g id="edge66" class="edge"><title>Node26&#45;&gt;Node25</title>
<path fill="none" stroke="midnightblue" d="M938.592,-388.655C952.637,-396.835 971.635,-409.277 985.203,-419.061"/>
<polygon fill="midnightblue" stroke="midnightblue" points="983.492,-422.151 993.601,-425.324 987.677,-416.54 983.492,-422.151"/>
</g>
<!-- Node27&#45;&gt;Node2 -->
<g id="edge70" class="edge"><title>Node27&#45;&gt;Node2</title>
<path fill="none" stroke="midnightblue" d="M1479.98,-369.359C1491.47,-327.369 1535.03,-143.109 1442.5,-56 1402.13,-17.9986 1232.98,-11.8676 1158.71,-11.0353"/>
<polygon fill="midnightblue" stroke="midnightblue" points="1158.5,-7.53342 1148.47,-10.9478 1158.44,-14.5332 1158.5,-7.53342"/>
</g>
<!-- Node27&#45;&gt;Node13 -->
<g id="edge71" class="edge"><title>Node27&#45;&gt;Node13</title>
<path fill="none" stroke="midnightblue" d="M1487.56,-388.797C1497.09,-402.567 1506.18,-429.259 1492.5,-445 1456.87,-486.012 1291.6,-490.693 1210.04,-490.566"/>
<polygon fill="midnightblue" stroke="midnightblue" points="1209.6,-487.064 1199.58,-490.523 1209.57,-494.064 1209.6,-487.064"/>
</g>
<!-- Node28 -->
<g id="node28" class="node"><title>Node28</title>
<g id="a_node28"><a xlink:href="station__list__struct_8h.html" target="_top" xlink:title="system/station_list\l_struct.h">
<polygon fill="white" stroke="black" points="1511,-302.5 1511,-332.5 1610,-332.5 1610,-302.5 1511,-302.5"/>
<text text-anchor="start" x="1519" y="-320.5" font-family="Helvetica,sans-Serif" font-size="10.00">system/station_list</text>
<text text-anchor="middle" x="1560.5" y="-309.5" font-family="Helvetica,sans-Serif" font-size="10.00">_struct.h</text>
</a>
</g>
</g>
<!-- Node27&#45;&gt;Node28 -->
<g id="edge72" class="edge"><title>Node27&#45;&gt;Node28</title>
<path fill="none" stroke="midnightblue" d="M1489.39,-369.475C1500.63,-361.417 1517.92,-349.023 1532.64,-338.474"/>
<polygon fill="midnightblue" stroke="midnightblue" points="1534.85,-341.194 1540.94,-332.523 1530.77,-335.505 1534.85,-341.194"/>
</g>
<!-- Node28&#45;&gt;Node2 -->
<g id="edge73" class="edge"><title>Node28&#45;&gt;Node2</title>
<path fill="none" stroke="midnightblue" d="M1557.87,-302.139C1553.81,-278.737 1546.5,-230.877 1546.5,-190 1546.5,-190 1546.5,-190 1546.5,-132 1546.5,-92.7452 1534.39,-77.4253 1501.5,-56 1445.33,-19.4133 1240.83,-12.5538 1158.34,-11.2826"/>
<polygon fill="midnightblue" stroke="midnightblue" points="1158.27,-7.78134 1148.22,-11.1456 1158.17,-14.7807 1158.27,-7.78134"/>
</g>
<!-- Node28&#45;&gt;Node13 -->
<g id="edge74" class="edge"><title>Node28&#45;&gt;Node13</title>
<path fill="none" stroke="midnightblue" d="M1559.72,-332.54C1557.39,-359.62 1548.02,-418.712 1510.5,-445 1462.86,-478.375 1292,-487 1209.59,-489.227"/>
<polygon fill="midnightblue" stroke="midnightblue" points="1209.42,-485.729 1199.51,-489.479 1209.6,-492.727 1209.42,-485.729"/>
</g>
<!-- Node29&#45;&gt;Node2 -->
<g id="edge76" class="edge"><title>Node29&#45;&gt;Node2</title>
<path fill="none" stroke="midnightblue" d="M1639.37,-425.307C1639.1,-406.063 1638.5,-358.405 1638.5,-318.5 1638.5,-318.5 1638.5,-318.5 1638.5,-132 1638.5,-33.139 1274.31,-14.9816 1158.45,-11.7065"/>
<polygon fill="midnightblue" stroke="midnightblue" points="1158.43,-8.20493 1148.34,-11.4413 1158.24,-15.2025 1158.43,-8.20493"/>
</g>
<!-- Node29&#45;&gt;Node13 -->
<g id="edge77" class="edge"><title>Node29&#45;&gt;Node13</title>
<path fill="none" stroke="midnightblue" d="M1586.45,-444.387C1584.78,-444.596 1583.13,-444.801 1581.5,-445 1446.89,-461.462 1286.95,-478.316 1210.03,-485.882"/>
<polygon fill="midnightblue" stroke="midnightblue" points="1209.35,-482.432 1199.74,-486.887 1210.03,-489.399 1209.35,-482.432"/>
</g>
<!-- Node30&#45;&gt;Node13 -->
<g id="edge79" class="edge"><title>Node30&#45;&gt;Node13</title>
<path fill="none" stroke="midnightblue" d="M1384.39,-444.509C1338.8,-454.639 1259.41,-471.45 1209.46,-481.552"/>
<polygon fill="midnightblue" stroke="midnightblue" points="1208.69,-478.137 1199.58,-483.54 1210.07,-484.999 1208.69,-478.137"/>
</g>
<!-- Node30&#45;&gt;Node27 -->
<g id="edge80" class="edge"><title>Node30&#45;&gt;Node27</title>
<path fill="none" stroke="midnightblue" d="M1428.82,-425.324C1437.39,-417.341 1450.31,-405.313 1460.69,-395.653"/>
<polygon fill="midnightblue" stroke="midnightblue" points="1463.08,-398.21 1468.01,-388.834 1458.31,-393.086 1463.08,-398.21"/>
</g>
<!-- Node31&#45;&gt;Node2 -->
<g id="edge83" class="edge"><title>Node31&#45;&gt;Node2</title>
<path fill="none" stroke="midnightblue" d="M44.4501,-307.964C48.9155,-287.645 59.5,-234.762 59.5,-190 59.5,-190 59.5,-190 59.5,-132 59.5,-88.4082 82.5502,-75.5745 121.5,-56 209.328,-11.8615 921.71,-10.5768 1088.61,-10.8881"/>
<polygon fill="midnightblue" stroke="midnightblue" points="1088.79,-14.3884 1098.8,-10.9105 1088.81,-7.38845 1088.79,-14.3884"/>
</g>
<!-- Node31&#45;&gt;Node4 -->
<g id="edge84" class="edge"><title>Node31&#45;&gt;Node4</title>
<path fill="none" stroke="midnightblue" d="M69.988,-307.869C106.665,-296.351 171.726,-275.922 212.632,-263.077"/>
<polygon fill="midnightblue" stroke="midnightblue" points="213.736,-266.399 222.228,-260.064 211.639,-259.72 213.736,-266.399"/>
</g>
<!-- Node32&#45;&gt;Node2 -->
<g id="edge86" class="edge"><title>Node32&#45;&gt;Node2</title>
<path fill="none" stroke="midnightblue" d="M1423,-179.297C1431.69,-156.074 1451.43,-91.9693 1420.5,-56 1387.03,-17.0723 1229.36,-11.4051 1158.33,-10.8634"/>
<polygon fill="midnightblue" stroke="midnightblue" points="1158.13,-7.36247 1148.11,-10.8166 1158.09,-14.3624 1158.13,-7.36247"/>
</g>
<!-- Node32&#45;&gt;Node9 -->
<g id="edge87" class="edge"><title>Node32&#45;&gt;Node9</title>
<path fill="none" stroke="midnightblue" d="M1400.49,-179.444C1380.91,-170.636 1350.19,-156.812 1327.77,-146.722"/>
<polygon fill="midnightblue" stroke="midnightblue" points="1328.98,-143.428 1318.43,-142.516 1326.11,-149.812 1328.98,-143.428"/>
</g>
</g>
</svg>
