<?xml version="1.0" encoding="UTF-8" standalone="no"?>
<!DOCTYPE svg PUBLIC "-//W3C//DTD SVG 1.1//EN"
 "http://www.w3.org/Graphics/SVG/1.1/DTD/svg11.dtd">
<!-- Generated by graphviz version 2.38.0 (20140413.2041)
 -->
<!-- Title: D:/GIT/fhradiov2/settings/radio_pin_mapping.h Pages: 1 -->
<svg width="1332pt" height="508pt"
 viewBox="0.00 0.00 1332.00 508.00" xmlns="http://www.w3.org/2000/svg" xmlns:xlink="http://www.w3.org/1999/xlink">
<g id="graph0" class="graph" transform="scale(1 1) rotate(0) translate(4 504)">
<title>D:/GIT/fhradiov2/settings/radio_pin_mapping.h</title>
<polygon fill="white" stroke="none" points="-4,4 -4,-504 1328,-504 1328,4 -4,4"/>
<!-- Node1 -->
<g id="node1" class="node"><title>Node1</title>
<polygon fill="#bfbfbf" stroke="black" points="774,-469.5 774,-499.5 896,-499.5 896,-469.5 774,-469.5"/>
<text text-anchor="start" x="782" y="-487.5" font-family="Helvetica,sans-Serif" font-size="10.00">D:/GIT/fhradiov2/settings</text>
<text text-anchor="middle" x="835" y="-476.5" font-family="Helvetica,sans-Serif" font-size="10.00">/radio_pin_mapping.h</text>
</g>
<!-- Node2 -->
<g id="node2" class="node"><title>Node2</title>
<g id="a_node2"><a xlink:href="encoder_8h.html" target="_top" xlink:title="D:/GIT/fhradiov2/driver\l/encoder.h">
<polygon fill="white" stroke="black" points="381,-335.5 381,-365.5 491,-365.5 491,-335.5 381,-335.5"/>
<text text-anchor="start" x="389" y="-353.5" font-family="Helvetica,sans-Serif" font-size="10.00">D:/GIT/fhradiov2/driver</text>
<text text-anchor="middle" x="436" y="-342.5" font-family="Helvetica,sans-Serif" font-size="10.00">/encoder.h</text>
</a>
</g>
</g>
<!-- Node1&#45;&gt;Node2 -->
<g id="edge1" class="edge"><title>Node1&#45;&gt;Node2</title>
<path fill="none" stroke="midnightblue" d="M763.71,-471.199C719.651,-462.639 662.302,-449.755 613,-433 557.426,-414.114 495.88,-383.392 461.984,-365.553"/>
<polygon fill="midnightblue" stroke="midnightblue" points="763.274,-474.679 773.753,-473.12 764.589,-467.803 763.274,-474.679"/>
</g>
<!-- Node21 -->
<g id="node21" class="node"><title>Node21</title>
<g id="a_node21"><a xlink:href="external__interrupthandler_8h.html" target="_top" xlink:title="D:/GIT/fhradiov2/driver\l/external_interrupthandler.h">
<polygon fill="white" stroke="black" points="622,-402.5 622,-432.5 756,-432.5 756,-402.5 622,-402.5"/>
<text text-anchor="start" x="630" y="-420.5" font-family="Helvetica,sans-Serif" font-size="10.00">D:/GIT/fhradiov2/driver</text>
<text text-anchor="middle" x="689" y="-409.5" font-family="Helvetica,sans-Serif" font-size="10.00">/external_interrupthandler.h</text>
</a>
</g>
</g>
<!-- Node1&#45;&gt;Node21 -->
<g id="edge29" class="edge"><title>Node1&#45;&gt;Node21</title>
<path fill="none" stroke="midnightblue" d="M794.05,-465.269C770.796,-454.916 742.128,-442.153 720.618,-432.577"/>
<polygon fill="midnightblue" stroke="midnightblue" points="792.761,-468.526 803.32,-469.396 795.608,-462.131 792.761,-468.526"/>
</g>
<!-- Node24 -->
<g id="node24" class="node"><title>Node24</title>
<g id="a_node24"><a xlink:href="lcd_8h.html" target="_top" xlink:title="D:/GIT/fhradiov2/driver\l/lcd.h">
<polygon fill="white" stroke="black" points="844,-335.5 844,-365.5 954,-365.5 954,-335.5 844,-335.5"/>
<text text-anchor="start" x="852" y="-353.5" font-family="Helvetica,sans-Serif" font-size="10.00">D:/GIT/fhradiov2/driver</text>
<text text-anchor="middle" x="899" y="-342.5" font-family="Helvetica,sans-Serif" font-size="10.00">/lcd.h</text>
</a>
</g>
</g>
<!-- Node1&#45;&gt;Node24 -->
<g id="edge34" class="edge"><title>Node1&#45;&gt;Node24</title>
<path fill="none" stroke="midnightblue" d="M845.684,-459.951C853.17,-443.611 863.495,-421.386 873,-402 879.078,-389.604 886.284,-375.663 891.567,-365.574"/>
<polygon fill="midnightblue" stroke="midnightblue" points="842.392,-458.735 841.423,-469.286 848.76,-461.642 842.392,-458.735"/>
</g>
<!-- Node26 -->
<g id="node26" class="node"><title>Node26</title>
<g id="a_node26"><a xlink:href="si4735_8h.html" target="_top" xlink:title="D:/GIT/fhradiov2/driver\l/si4735.h">
<polygon fill="white" stroke="black" points="793,-268.5 793,-298.5 903,-298.5 903,-268.5 793,-268.5"/>
<text text-anchor="start" x="801" y="-286.5" font-family="Helvetica,sans-Serif" font-size="10.00">D:/GIT/fhradiov2/driver</text>
<text text-anchor="middle" x="848" y="-275.5" font-family="Helvetica,sans-Serif" font-size="10.00">/si4735.h</text>
</a>
</g>
</g>
<!-- Node1&#45;&gt;Node26 -->
<g id="edge39" class="edge"><title>Node1&#45;&gt;Node26</title>
<path fill="none" stroke="midnightblue" d="M833.115,-458.872C831.287,-429.315 829.514,-378.318 835,-335 836.57,-322.606 840.225,-308.899 843.261,-298.897"/>
<polygon fill="midnightblue" stroke="midnightblue" points="829.639,-459.347 833.803,-469.089 836.623,-458.876 829.639,-459.347"/>
</g>
<!-- Node27 -->
<g id="node27" class="node"><title>Node27</title>
<g id="a_node27"><a xlink:href="pca9530_8c.html" target="_top" xlink:title="D:/GIT/fhradiov2/driver\l/src/pca9530.c">
<polygon fill="white" stroke="black" points="882,-402.5 882,-432.5 992,-432.5 992,-402.5 882,-402.5"/>
<text text-anchor="start" x="890" y="-420.5" font-family="Helvetica,sans-Serif" font-size="10.00">D:/GIT/fhradiov2/driver</text>
<text text-anchor="middle" x="937" y="-409.5" font-family="Helvetica,sans-Serif" font-size="10.00">/src/pca9530.c</text>
</a>
</g>
</g>
<!-- Node1&#45;&gt;Node27 -->
<g id="edge45" class="edge"><title>Node1&#45;&gt;Node27</title>
<path fill="none" stroke="midnightblue" d="M865.576,-464.015C881.449,-453.9 900.484,-441.77 914.911,-432.577"/>
<polygon fill="midnightblue" stroke="midnightblue" points="863.685,-461.07 857.132,-469.396 867.447,-466.973 863.685,-461.07"/>
</g>
<!-- Node28 -->
<g id="node28" class="node"><title>Node28</title>
<g id="a_node28"><a xlink:href="tpa2016d2_8h.html" target="_top" xlink:title="D:/GIT/fhradiov2/driver\l/tpa2016d2.h">
<polygon fill="white" stroke="black" points="1176,-268.5 1176,-298.5 1286,-298.5 1286,-268.5 1176,-268.5"/>
<text text-anchor="start" x="1184" y="-286.5" font-family="Helvetica,sans-Serif" font-size="10.00">D:/GIT/fhradiov2/driver</text>
<text text-anchor="middle" x="1231" y="-275.5" font-family="Helvetica,sans-Serif" font-size="10.00">/tpa2016d2.h</text>
</a>
</g>
</g>
<!-- Node1&#45;&gt;Node28 -->
<g id="edge46" class="edge"><title>Node1&#45;&gt;Node28</title>
<path fill="none" stroke="midnightblue" d="M905.279,-466.781C935.457,-458.424 970.679,-447.065 1001,-433 1085.51,-393.799 1175.44,-327.577 1212.95,-298.688"/>
<polygon fill="midnightblue" stroke="midnightblue" points="903.988,-463.505 895.253,-469.5 905.82,-470.261 903.988,-463.505"/>
</g>
<!-- Node3 -->
<g id="node3" class="node"><title>Node3</title>
<g id="a_node3"><a xlink:href="encoder_8c.html" target="_top" xlink:title="D:/GIT/fhradiov2/driver\l/src/encoder.c">
<polygon fill="white" stroke="black" points="0,-268.5 0,-298.5 110,-298.5 110,-268.5 0,-268.5"/>
<text text-anchor="start" x="8" y="-286.5" font-family="Helvetica,sans-Serif" font-size="10.00">D:/GIT/fhradiov2/driver</text>
<text text-anchor="middle" x="55" y="-275.5" font-family="Helvetica,sans-Serif" font-size="10.00">/src/encoder.c</text>
</a>
</g>
</g>
<!-- Node2&#45;&gt;Node3 -->
<g id="edge2" class="edge"><title>Node2&#45;&gt;Node3</title>
<path fill="none" stroke="midnightblue" d="M370.691,-339.836C307.46,-330.266 208.958,-314.793 124,-299 119.547,-298.172 114.94,-297.281 110.316,-296.362"/>
<polygon fill="midnightblue" stroke="midnightblue" points="370.505,-343.348 380.915,-341.379 371.549,-336.426 370.505,-343.348"/>
</g>
<!-- Node4 -->
<g id="node4" class="node"><title>Node4</title>
<g id="a_node4"><a xlink:href="main_8c.html" target="_top" xlink:title="D:/GIT/fhradiov2/main.c">
<polygon fill="white" stroke="black" points="924.5,-73 924.5,-92 1041.5,-92 1041.5,-73 924.5,-73"/>
<text text-anchor="middle" x="983" y="-80" font-family="Helvetica,sans-Serif" font-size="10.00">D:/GIT/fhradiov2/main.c</text>
</a>
</g>
</g>
<!-- Node2&#45;&gt;Node4 -->
<g id="edge3" class="edge"><title>Node2&#45;&gt;Node4</title>
<path fill="none" stroke="midnightblue" d="M370.914,-342.481C304.4,-331.453 204.352,-303.323 157,-232 132.909,-195.714 126.941,-165.521 157,-134 186.095,-103.49 873.19,-103.414 915,-98 925.894,-96.5894 937.635,-94.3494 948.245,-92.048"/>
<polygon fill="midnightblue" stroke="midnightblue" points="370.459,-345.952 380.881,-344.047 371.546,-339.037 370.459,-345.952"/>
</g>
<!-- Node5 -->
<g id="node5" class="node"><title>Node5</title>
<g id="a_node5"><a xlink:href="menu_8h.html" target="_top" xlink:title="D:/GIT/fhradiov2/menu\l/menu.h">
<polygon fill="white" stroke="black" points="380,-268.5 380,-298.5 492,-298.5 492,-268.5 380,-268.5"/>
<text text-anchor="start" x="388" y="-286.5" font-family="Helvetica,sans-Serif" font-size="10.00">D:/GIT/fhradiov2/menu</text>
<text text-anchor="middle" x="436" y="-275.5" font-family="Helvetica,sans-Serif" font-size="10.00">/menu.h</text>
</a>
</g>
</g>
<!-- Node2&#45;&gt;Node5 -->
<g id="edge4" class="edge"><title>Node2&#45;&gt;Node5</title>
<path fill="none" stroke="midnightblue" d="M436,-325.108C436,-316.154 436,-306.323 436,-298.577"/>
<polygon fill="midnightblue" stroke="midnightblue" points="432.5,-325.396 436,-335.396 439.5,-325.396 432.5,-325.396"/>
</g>
<!-- Node9 -->
<g id="node9" class="node"><title>Node9</title>
<g id="a_node9"><a xlink:href="radio_8h.html" target="_top" xlink:title="D:/GIT/fhradiov2/system\l/radio.h">
<polygon fill="white" stroke="black" points="598,-201.5 598,-231.5 718,-231.5 718,-201.5 598,-201.5"/>
<text text-anchor="start" x="606" y="-219.5" font-family="Helvetica,sans-Serif" font-size="10.00">D:/GIT/fhradiov2/system</text>
<text text-anchor="middle" x="658" y="-208.5" font-family="Helvetica,sans-Serif" font-size="10.00">/radio.h</text>
</a>
</g>
</g>
<!-- Node2&#45;&gt;Node9 -->
<g id="edge28" class="edge"><title>Node2&#45;&gt;Node9</title>
<path fill="none" stroke="midnightblue" d="M468.576,-330.131C513.807,-303.237 594.555,-255.224 634.413,-231.525"/>
<polygon fill="midnightblue" stroke="midnightblue" points="466.564,-327.255 459.758,-335.374 470.142,-333.271 466.564,-327.255"/>
</g>
<!-- Node5&#45;&gt;Node4 -->
<g id="edge5" class="edge"><title>Node5&#45;&gt;Node4</title>
<path fill="none" stroke="midnightblue" d="M436.116,-258.162C434.948,-240.386 430.622,-216.739 417,-201 388.266,-167.8 349.753,-201.266 325,-165 317.233,-153.62 315.559,-144.035 325,-134 370.005,-86.1657 849.925,-106.873 915,-98 925.764,-96.5323 937.364,-94.3044 947.882,-92.0323"/>
<polygon fill="midnightblue" stroke="midnightblue" points="432.625,-258.483 436.491,-268.347 439.621,-258.225 432.625,-258.483"/>
</g>
<!-- Node6 -->
<g id="node6" class="node"><title>Node6</title>
<g id="a_node6"><a xlink:href="menu__struct_8h.html" target="_top" xlink:title="D:/GIT/fhradiov2/menu\l/menu_struct.h">
<polygon fill="white" stroke="black" points="166,-201.5 166,-231.5 278,-231.5 278,-201.5 166,-201.5"/>
<text text-anchor="start" x="174" y="-219.5" font-family="Helvetica,sans-Serif" font-size="10.00">D:/GIT/fhradiov2/menu</text>
<text text-anchor="middle" x="222" y="-208.5" font-family="Helvetica,sans-Serif" font-size="10.00">/menu_struct.h</text>
</a>
</g>
</g>
<!-- Node5&#45;&gt;Node6 -->
<g id="edge6" class="edge"><title>Node5&#45;&gt;Node6</title>
<path fill="none" stroke="midnightblue" d="M374.286,-265.58C338.439,-255.022 294.331,-241.592 262.778,-231.611"/>
<polygon fill="midnightblue" stroke="midnightblue" points="373.58,-269.02 384.161,-268.476 375.55,-262.303 373.58,-269.02"/>
</g>
<!-- Node8 -->
<g id="node8" class="node"><title>Node8</title>
<g id="a_node8"><a xlink:href="menu_8c.html" target="_top" xlink:title="D:/GIT/fhradiov2/menu\l/src/menu.c">
<polygon fill="white" stroke="black" points="296,-201.5 296,-231.5 408,-231.5 408,-201.5 296,-201.5"/>
<text text-anchor="start" x="304" y="-219.5" font-family="Helvetica,sans-Serif" font-size="10.00">D:/GIT/fhradiov2/menu</text>
<text text-anchor="middle" x="352" y="-208.5" font-family="Helvetica,sans-Serif" font-size="10.00">/src/menu.c</text>
</a>
</g>
</g>
<!-- Node5&#45;&gt;Node8 -->
<g id="edge9" class="edge"><title>Node5&#45;&gt;Node8</title>
<path fill="none" stroke="midnightblue" d="M409.724,-262.168C396.88,-252.228 381.742,-240.514 370.191,-231.577"/>
<polygon fill="midnightblue" stroke="midnightblue" points="407.723,-265.044 417.773,-268.396 412.006,-259.508 407.723,-265.044"/>
</g>
<!-- Node5&#45;&gt;Node9 -->
<g id="edge10" class="edge"><title>Node5&#45;&gt;Node9</title>
<path fill="none" stroke="midnightblue" d="M488.231,-265.444C523.142,-254.908 568.88,-241.549 604.126,-231.611"/>
<polygon fill="midnightblue" stroke="midnightblue" points="486.784,-262.225 478.229,-268.476 488.815,-268.924 486.784,-262.225"/>
</g>
<!-- Node6&#45;&gt;Node5 -->
<g id="edge7" class="edge"><title>Node6&#45;&gt;Node5</title>
<path fill="none" stroke="midnightblue" d="M284.026,-234.512C319.922,-245.086 364.017,-258.515 395.497,-268.476"/>
<polygon fill="midnightblue" stroke="midnightblue" points="284.718,-231.068 274.137,-231.611 282.747,-237.785 284.718,-231.068"/>
</g>
<!-- Node7 -->
<g id="node7" class="node"><title>Node7</title>
<g id="a_node7"><a xlink:href="menu__struct_8c.html" target="_top" xlink:title="D:/GIT/fhradiov2/menu\l/src/menu_struct.c">
<polygon fill="white" stroke="black" points="166,-134.5 166,-164.5 278,-164.5 278,-134.5 166,-134.5"/>
<text text-anchor="start" x="174" y="-152.5" font-family="Helvetica,sans-Serif" font-size="10.00">D:/GIT/fhradiov2/menu</text>
<text text-anchor="middle" x="222" y="-141.5" font-family="Helvetica,sans-Serif" font-size="10.00">/src/menu_struct.c</text>
</a>
</g>
</g>
<!-- Node6&#45;&gt;Node7 -->
<g id="edge8" class="edge"><title>Node6&#45;&gt;Node7</title>
<path fill="none" stroke="midnightblue" d="M222,-191.108C222,-182.154 222,-172.323 222,-164.577"/>
<polygon fill="midnightblue" stroke="midnightblue" points="218.5,-191.396 222,-201.396 225.5,-191.396 218.5,-191.396"/>
</g>
<!-- Node9&#45;&gt;Node4 -->
<g id="edge11" class="edge"><title>Node9&#45;&gt;Node4</title>
<path fill="none" stroke="midnightblue" d="M656.885,-191.114C657.453,-172.747 661.463,-148.357 677,-134 716.286,-97.698 862.375,-107.582 915,-98 924.738,-96.2269 935.215,-94.102 944.957,-92.0326"/>
<polygon fill="midnightblue" stroke="midnightblue" points="653.385,-191.371 656.894,-201.368 660.385,-191.365 653.385,-191.371"/>
</g>
<!-- Node9&#45;&gt;Node5 -->
<g id="edge12" class="edge"><title>Node9&#45;&gt;Node5</title>
<path fill="none" stroke="midnightblue" d="M605.913,-234.512C570.882,-245.086 524.902,-258.515 489.565,-268.476"/>
<polygon fill="midnightblue" stroke="midnightblue" points="606.93,-237.861 615.485,-231.611 604.9,-231.162 606.93,-237.861"/>
</g>
<!-- Node10 -->
<g id="node10" class="node"><title>Node10</title>
<g id="a_node10"><a xlink:href="radio__display_8h.html" target="_top" xlink:title="D:/GIT/fhradiov2/system\l/radio_display.h">
<polygon fill="white" stroke="black" points="334,-134.5 334,-164.5 454,-164.5 454,-134.5 334,-134.5"/>
<text text-anchor="start" x="342" y="-152.5" font-family="Helvetica,sans-Serif" font-size="10.00">D:/GIT/fhradiov2/system</text>
<text text-anchor="middle" x="394" y="-141.5" font-family="Helvetica,sans-Serif" font-size="10.00">/radio_display.h</text>
</a>
</g>
</g>
<!-- Node9&#45;&gt;Node10 -->
<g id="edge13" class="edge"><title>Node9&#45;&gt;Node10</title>
<path fill="none" stroke="midnightblue" d="M587.754,-199.655C542.909,-188.913 485.845,-174.845 445.245,-164.512"/>
<polygon fill="midnightblue" stroke="midnightblue" points="587.167,-203.113 597.706,-202.032 588.793,-196.305 587.167,-203.113"/>
</g>
<!-- Node12 -->
<g id="node12" class="node"><title>Node12</title>
<g id="a_node12"><a xlink:href="rds_8h.html" target="_top" xlink:title="D:/GIT/fhradiov2/system\l/rds.h">
<polygon fill="white" stroke="black" points="824,-134.5 824,-164.5 944,-164.5 944,-134.5 824,-134.5"/>
<text text-anchor="start" x="832" y="-152.5" font-family="Helvetica,sans-Serif" font-size="10.00">D:/GIT/fhradiov2/system</text>
<text text-anchor="middle" x="884" y="-141.5" font-family="Helvetica,sans-Serif" font-size="10.00">/rds.h</text>
</a>
</g>
</g>
<!-- Node9&#45;&gt;Node12 -->
<g id="edge16" class="edge"><title>Node9&#45;&gt;Node12</title>
<path fill="none" stroke="midnightblue" d="M716.83,-198.58C753.537,-188.022 800.233,-174.592 834.937,-164.611"/>
<polygon fill="midnightblue" stroke="midnightblue" points="715.403,-195.348 706.76,-201.476 717.338,-202.076 715.403,-195.348"/>
</g>
<!-- Node14 -->
<g id="node14" class="node"><title>Node14</title>
<g id="a_node14"><a xlink:href="rsq_8h.html" target="_top" xlink:title="D:/GIT/fhradiov2/system\l/rsq.h">
<polygon fill="white" stroke="black" points="962,-134.5 962,-164.5 1082,-164.5 1082,-134.5 962,-134.5"/>
<text text-anchor="start" x="970" y="-152.5" font-family="Helvetica,sans-Serif" font-size="10.00">D:/GIT/fhradiov2/system</text>
<text text-anchor="middle" x="1022" y="-141.5" font-family="Helvetica,sans-Serif" font-size="10.00">/rsq.h</text>
</a>
</g>
</g>
<!-- Node9&#45;&gt;Node14 -->
<g id="edge19" class="edge"><title>Node9&#45;&gt;Node14</title>
<path fill="none" stroke="midnightblue" d="M727.988,-201.185C728.326,-201.123 728.664,-201.061 729,-201 828.197,-182.908 853.855,-183.374 953,-165 955.889,-164.465 958.842,-163.902 961.823,-163.323"/>
<polygon fill="midnightblue" stroke="midnightblue" points="727.189,-197.774 718.007,-203.06 728.481,-204.654 727.189,-197.774"/>
</g>
<!-- Node16 -->
<g id="node16" class="node"><title>Node16</title>
<g id="a_node16"><a xlink:href="radio_8c.html" target="_top" xlink:title="D:/GIT/fhradiov2/system\l/src/radio.c">
<polygon fill="white" stroke="black" points="686,-134.5 686,-164.5 806,-164.5 806,-134.5 686,-134.5"/>
<text text-anchor="start" x="694" y="-152.5" font-family="Helvetica,sans-Serif" font-size="10.00">D:/GIT/fhradiov2/system</text>
<text text-anchor="middle" x="746" y="-141.5" font-family="Helvetica,sans-Serif" font-size="10.00">/src/radio.c</text>
</a>
</g>
</g>
<!-- Node9&#45;&gt;Node16 -->
<g id="edge22" class="edge"><title>Node9&#45;&gt;Node16</title>
<path fill="none" stroke="midnightblue" d="M685.143,-195.451C698.681,-185.452 714.727,-173.6 726.943,-164.577"/>
<polygon fill="midnightblue" stroke="midnightblue" points="683.059,-192.639 677.095,-201.396 687.218,-198.27 683.059,-192.639"/>
</g>
<!-- Node17 -->
<g id="node17" class="node"><title>Node17</title>
<g id="a_node17"><a xlink:href="station__list__struct_8h.html" target="_top" xlink:title="D:/GIT/fhradiov2/system\l/station_list_struct.h">
<polygon fill="white" stroke="black" points="472,-134.5 472,-164.5 592,-164.5 592,-134.5 472,-134.5"/>
<text text-anchor="start" x="480" y="-152.5" font-family="Helvetica,sans-Serif" font-size="10.00">D:/GIT/fhradiov2/system</text>
<text text-anchor="middle" x="532" y="-141.5" font-family="Helvetica,sans-Serif" font-size="10.00">/station_list_struct.h</text>
</a>
</g>
</g>
<!-- Node9&#45;&gt;Node17 -->
<g id="edge23" class="edge"><title>Node9&#45;&gt;Node17</title>
<path fill="none" stroke="midnightblue" d="M621.585,-196.714C601.713,-186.463 577.52,-173.983 559.287,-164.577"/>
<polygon fill="midnightblue" stroke="midnightblue" points="620.168,-199.922 630.66,-201.396 623.377,-193.701 620.168,-199.922"/>
</g>
<!-- Node10&#45;&gt;Node9 -->
<g id="edge14" class="edge"><title>Node10&#45;&gt;Node9</title>
<path fill="none" stroke="midnightblue" d="M464.141,-166.32C508.984,-177.061 566.079,-191.136 606.709,-201.476"/>
<polygon fill="midnightblue" stroke="midnightblue" points="464.728,-162.862 454.189,-163.943 463.102,-169.67 464.728,-162.862"/>
</g>
<!-- Node11 -->
<g id="node11" class="node"><title>Node11</title>
<g id="a_node11"><a xlink:href="radio__display_8c.html" target="_top" xlink:title="D:/GIT/fhradiov2/system\l/src/radio_display.c">
<polygon fill="white" stroke="black" points="307,-67.5 307,-97.5 427,-97.5 427,-67.5 307,-67.5"/>
<text text-anchor="start" x="315" y="-85.5" font-family="Helvetica,sans-Serif" font-size="10.00">D:/GIT/fhradiov2/system</text>
<text text-anchor="middle" x="367" y="-74.5" font-family="Helvetica,sans-Serif" font-size="10.00">/src/radio_display.c</text>
</a>
</g>
</g>
<!-- Node10&#45;&gt;Node11 -->
<g id="edge15" class="edge"><title>Node10&#45;&gt;Node11</title>
<path fill="none" stroke="midnightblue" d="M384.235,-124.991C380.419,-115.804 376.171,-105.578 372.847,-97.5765"/>
<polygon fill="midnightblue" stroke="midnightblue" points="381.073,-126.504 388.141,-134.396 387.538,-123.818 381.073,-126.504"/>
</g>
<!-- Node12&#45;&gt;Node4 -->
<g id="edge17" class="edge"><title>Node12&#45;&gt;Node4</title>
<path fill="none" stroke="midnightblue" d="M913.992,-128.808C932.721,-116.512 955.884,-101.303 970.043,-92.007"/>
<polygon fill="midnightblue" stroke="midnightblue" points="911.92,-125.982 905.482,-134.396 915.762,-131.833 911.92,-125.982"/>
</g>
<!-- Node13 -->
<g id="node13" class="node"><title>Node13</title>
<g id="a_node13"><a xlink:href="rds_8c.html" target="_top" xlink:title="D:/GIT/fhradiov2/system\l/src/rds.c">
<polygon fill="white" stroke="black" points="786,-67.5 786,-97.5 906,-97.5 906,-67.5 786,-67.5"/>
<text text-anchor="start" x="794" y="-85.5" font-family="Helvetica,sans-Serif" font-size="10.00">D:/GIT/fhradiov2/system</text>
<text text-anchor="middle" x="846" y="-74.5" font-family="Helvetica,sans-Serif" font-size="10.00">/src/rds.c</text>
</a>
</g>
</g>
<!-- Node12&#45;&gt;Node13 -->
<g id="edge18" class="edge"><title>Node12&#45;&gt;Node13</title>
<path fill="none" stroke="midnightblue" d="M870.598,-125.576C865.141,-116.241 859.007,-105.748 854.229,-97.5765"/>
<polygon fill="midnightblue" stroke="midnightblue" points="867.686,-127.529 875.755,-134.396 873.729,-123.997 867.686,-127.529"/>
</g>
<!-- Node14&#45;&gt;Node4 -->
<g id="edge20" class="edge"><title>Node14&#45;&gt;Node4</title>
<path fill="none" stroke="midnightblue" d="M1008.28,-125.632C1001.34,-114.067 993.328,-100.714 988.217,-92.1945"/>
<polygon fill="midnightblue" stroke="midnightblue" points="1005.39,-127.622 1013.54,-134.396 1011.39,-124.02 1005.39,-127.622"/>
</g>
<!-- Node15 -->
<g id="node15" class="node"><title>Node15</title>
<g id="a_node15"><a xlink:href="rsq_8c.html" target="_top" xlink:title="D:/GIT/fhradiov2/system\l/src/rsq.c">
<polygon fill="white" stroke="black" points="1060,-67.5 1060,-97.5 1180,-97.5 1180,-67.5 1060,-67.5"/>
<text text-anchor="start" x="1068" y="-85.5" font-family="Helvetica,sans-Serif" font-size="10.00">D:/GIT/fhradiov2/system</text>
<text text-anchor="middle" x="1120" y="-74.5" font-family="Helvetica,sans-Serif" font-size="10.00">/src/rsq.c</text>
</a>
</g>
</g>
<!-- Node14&#45;&gt;Node15 -->
<g id="edge21" class="edge"><title>Node14&#45;&gt;Node15</title>
<path fill="none" stroke="midnightblue" d="M1051.8,-128.734C1066.97,-118.676 1085.04,-106.685 1098.78,-97.5765"/>
<polygon fill="midnightblue" stroke="midnightblue" points="1049.66,-125.952 1043.26,-134.396 1053.53,-131.785 1049.66,-125.952"/>
</g>
<!-- Node18 -->
<g id="node18" class="node"><title>Node18</title>
<g id="a_node18"><a xlink:href="station__list__struct_8c.html" target="_top" xlink:title="D:/GIT/fhradiov2/system\l/src/station_list_struct.c">
<polygon fill="white" stroke="black" points="445,-67.5 445,-97.5 567,-97.5 567,-67.5 445,-67.5"/>
<text text-anchor="start" x="453" y="-85.5" font-family="Helvetica,sans-Serif" font-size="10.00">D:/GIT/fhradiov2/system</text>
<text text-anchor="middle" x="506" y="-74.5" font-family="Helvetica,sans-Serif" font-size="10.00">/src/station_list_struct.c</text>
</a>
</g>
</g>
<!-- Node17&#45;&gt;Node18 -->
<g id="edge24" class="edge"><title>Node17&#45;&gt;Node18</title>
<path fill="none" stroke="midnightblue" d="M522.596,-124.991C518.922,-115.804 514.831,-105.578 511.631,-97.5765"/>
<polygon fill="midnightblue" stroke="midnightblue" points="519.395,-126.411 526.358,-134.396 525.894,-123.811 519.395,-126.411"/>
</g>
<!-- Node19 -->
<g id="node19" class="node"><title>Node19</title>
<g id="a_node19"><a xlink:href="station__list_8h.html" target="_top" xlink:title="D:/GIT/fhradiov2/system\l/station_list.h">
<polygon fill="white" stroke="black" points="585,-67.5 585,-97.5 705,-97.5 705,-67.5 585,-67.5"/>
<text text-anchor="start" x="593" y="-85.5" font-family="Helvetica,sans-Serif" font-size="10.00">D:/GIT/fhradiov2/system</text>
<text text-anchor="middle" x="645" y="-74.5" font-family="Helvetica,sans-Serif" font-size="10.00">/station_list.h</text>
</a>
</g>
</g>
<!-- Node17&#45;&gt;Node19 -->
<g id="edge25" class="edge"><title>Node17&#45;&gt;Node19</title>
<path fill="none" stroke="midnightblue" d="M565.386,-129.296C583.068,-119.125 604.398,-106.855 620.529,-97.5765"/>
<polygon fill="midnightblue" stroke="midnightblue" points="563.442,-126.376 556.519,-134.396 566.933,-132.444 563.442,-126.376"/>
</g>
<!-- Node19&#45;&gt;Node9 -->
<g id="edge26" class="edge"><title>Node19&#45;&gt;Node9</title>
<path fill="none" stroke="midnightblue" d="M642.83,-107.977C641.848,-124.222 641.412,-145.975 644,-165 645.693,-177.441 649.629,-191.143 652.897,-201.133"/>
<polygon fill="midnightblue" stroke="midnightblue" points="646.342,-107.937 643.566,-97.712 639.36,-107.436 646.342,-107.937"/>
</g>
<!-- Node20 -->
<g id="node20" class="node"><title>Node20</title>
<g id="a_node20"><a xlink:href="station__list_8c.html" target="_top" xlink:title="D:/GIT/fhradiov2/system\l/src/station_list.c">
<polygon fill="white" stroke="black" points="585,-0.5 585,-30.5 705,-30.5 705,-0.5 585,-0.5"/>
<text text-anchor="start" x="593" y="-18.5" font-family="Helvetica,sans-Serif" font-size="10.00">D:/GIT/fhradiov2/system</text>
<text text-anchor="middle" x="645" y="-7.5" font-family="Helvetica,sans-Serif" font-size="10.00">/src/station_list.c</text>
</a>
</g>
</g>
<!-- Node19&#45;&gt;Node20 -->
<g id="edge27" class="edge"><title>Node19&#45;&gt;Node20</title>
<path fill="none" stroke="midnightblue" d="M645,-57.1081C645,-48.1539 645,-38.3227 645,-30.5765"/>
<polygon fill="midnightblue" stroke="midnightblue" points="641.5,-57.3959 645,-67.396 648.5,-57.396 641.5,-57.3959"/>
</g>
<!-- Node21&#45;&gt;Node2 -->
<g id="edge30" class="edge"><title>Node21&#45;&gt;Node2</title>
<path fill="none" stroke="midnightblue" d="M624.716,-399.984C583.392,-389.367 530.272,-375.72 490.924,-365.611"/>
<polygon fill="midnightblue" stroke="midnightblue" points="623.858,-403.377 634.414,-402.476 625.6,-396.598 623.858,-403.377"/>
</g>
<!-- Node21&#45;&gt;Node9 -->
<g id="edge33" class="edge"><title>Node21&#45;&gt;Node9</title>
<path fill="none" stroke="midnightblue" d="M685.225,-392.266C678.686,-350.291 665.45,-265.327 660.209,-231.682"/>
<polygon fill="midnightblue" stroke="midnightblue" points="681.773,-392.846 686.771,-402.188 688.69,-391.769 681.773,-392.846"/>
</g>
<!-- Node22 -->
<g id="node22" class="node"><title>Node22</title>
<g id="a_node22"><a xlink:href="external__interrupthandler_8c.html" target="_top" xlink:title="D:/GIT/fhradiov2/driver\l/src/external_interrupthandler.c">
<polygon fill="white" stroke="black" points="509.5,-335.5 509.5,-365.5 660.5,-365.5 660.5,-335.5 509.5,-335.5"/>
<text text-anchor="start" x="517.5" y="-353.5" font-family="Helvetica,sans-Serif" font-size="10.00">D:/GIT/fhradiov2/driver</text>
<text text-anchor="middle" x="585" y="-342.5" font-family="Helvetica,sans-Serif" font-size="10.00">/src/external_interrupthandler.c</text>
</a>
</g>
</g>
<!-- Node21&#45;&gt;Node22 -->
<g id="edge31" class="edge"><title>Node21&#45;&gt;Node22</title>
<path fill="none" stroke="midnightblue" d="M657.824,-397.015C641.64,-386.9 622.232,-374.77 607.522,-365.577"/>
<polygon fill="midnightblue" stroke="midnightblue" points="656.099,-400.064 666.434,-402.396 659.809,-394.128 656.099,-400.064"/>
</g>
<!-- Node23 -->
<g id="node23" class="node"><title>Node23</title>
<g id="a_node23"><a xlink:href="si4735_8c.html" target="_top" xlink:title="D:/GIT/fhradiov2/driver\l/src/si4735.c">
<polygon fill="white" stroke="black" points="738,-201.5 738,-231.5 848,-231.5 848,-201.5 738,-201.5"/>
<text text-anchor="start" x="746" y="-219.5" font-family="Helvetica,sans-Serif" font-size="10.00">D:/GIT/fhradiov2/driver</text>
<text text-anchor="middle" x="793" y="-208.5" font-family="Helvetica,sans-Serif" font-size="10.00">/src/si4735.c</text>
</a>
</g>
</g>
<!-- Node21&#45;&gt;Node23 -->
<g id="edge32" class="edge"><title>Node21&#45;&gt;Node23</title>
<path fill="none" stroke="midnightblue" d="M701.249,-393.063C723.035,-351.375 767.893,-265.542 785.588,-231.682"/>
<polygon fill="midnightblue" stroke="midnightblue" points="698.009,-391.705 696.479,-402.188 704.213,-394.947 698.009,-391.705"/>
</g>
<!-- Node24&#45;&gt;Node4 -->
<g id="edge36" class="edge"><title>Node24&#45;&gt;Node4</title>
<path fill="none" stroke="midnightblue" d="M964.005,-337.223C989.988,-329.695 1018.73,-317.754 1040,-299 1090.1,-254.835 1092.46,-229.953 1108,-165 1111.21,-151.6 1115.7,-145.422 1108,-134 1097.2,-117.992 1048.4,-101.64 1015.06,-92.0384"/>
<polygon fill="midnightblue" stroke="midnightblue" points="962.929,-333.888 954.203,-339.897 964.771,-340.642 962.929,-333.888"/>
</g>
<!-- Node24&#45;&gt;Node5 -->
<g id="edge37" class="edge"><title>Node24&#45;&gt;Node5</title>
<path fill="none" stroke="midnightblue" d="M833.661,-340.327C742.385,-327.513 578.254,-304.471 492.175,-292.386"/>
<polygon fill="midnightblue" stroke="midnightblue" points="833.222,-343.8 843.611,-341.724 834.195,-336.868 833.222,-343.8"/>
</g>
<!-- Node24&#45;&gt;Node9 -->
<g id="edge38" class="edge"><title>Node24&#45;&gt;Node9</title>
<path fill="none" stroke="midnightblue" d="M853.822,-331.638C832.293,-322.629 806.41,-311.068 784,-299 744.776,-277.878 701.734,-248.61 677.475,-231.503"/>
<polygon fill="midnightblue" stroke="midnightblue" points="852.49,-334.875 863.068,-335.463 855.166,-328.406 852.49,-334.875"/>
</g>
<!-- Node25 -->
<g id="node25" class="node"><title>Node25</title>
<g id="a_node25"><a xlink:href="lcd_8c.html" target="_top" xlink:title="D:/GIT/fhradiov2/driver\l/src/lcd.c">
<polygon fill="white" stroke="black" points="921,-268.5 921,-298.5 1031,-298.5 1031,-268.5 921,-268.5"/>
<text text-anchor="start" x="929" y="-286.5" font-family="Helvetica,sans-Serif" font-size="10.00">D:/GIT/fhradiov2/driver</text>
<text text-anchor="middle" x="976" y="-275.5" font-family="Helvetica,sans-Serif" font-size="10.00">/src/lcd.c</text>
</a>
</g>
</g>
<!-- Node24&#45;&gt;Node25 -->
<g id="edge35" class="edge"><title>Node24&#45;&gt;Node25</title>
<path fill="none" stroke="midnightblue" d="M923.423,-328.883C935.124,-319.005 948.838,-307.429 959.325,-298.577"/>
<polygon fill="midnightblue" stroke="midnightblue" points="921.092,-326.271 915.708,-335.396 925.607,-331.62 921.092,-326.271"/>
</g>
<!-- Node26&#45;&gt;Node4 -->
<g id="edge41" class="edge"><title>Node26&#45;&gt;Node4</title>
<path fill="none" stroke="midnightblue" d="M899.29,-264.998C963.927,-241.782 1069.24,-199.692 1091,-165 1098.32,-153.328 1098.4,-145.624 1091,-134 1076.83,-111.735 1049.99,-99.1214 1026.61,-92.0684"/>
<polygon fill="midnightblue" stroke="midnightblue" points="897.922,-261.77 889.674,-268.421 900.269,-268.365 897.922,-261.77"/>
</g>
<!-- Node26&#45;&gt;Node9 -->
<g id="edge42" class="edge"><title>Node26&#45;&gt;Node9</title>
<path fill="none" stroke="midnightblue" d="M797.114,-265.092C766.443,-254.599 727.886,-241.408 699.147,-231.577"/>
<polygon fill="midnightblue" stroke="midnightblue" points="796.178,-268.471 806.773,-268.396 798.444,-261.847 796.178,-268.471"/>
</g>
<!-- Node26&#45;&gt;Node12 -->
<g id="edge43" class="edge"><title>Node26&#45;&gt;Node12</title>
<path fill="none" stroke="midnightblue" d="M854.576,-258.39C862.072,-230.901 874.076,-186.888 880.175,-164.525"/>
<polygon fill="midnightblue" stroke="midnightblue" points="851.107,-257.805 851.853,-268.374 857.861,-259.647 851.107,-257.805"/>
</g>
<!-- Node26&#45;&gt;Node14 -->
<g id="edge44" class="edge"><title>Node26&#45;&gt;Node14</title>
<path fill="none" stroke="midnightblue" d="M874.651,-262.282C910.301,-235.237 972.599,-187.977 1003.51,-164.525"/>
<polygon fill="midnightblue" stroke="midnightblue" points="872.473,-259.541 866.621,-268.374 876.703,-265.118 872.473,-259.541"/>
</g>
<!-- Node26&#45;&gt;Node23 -->
<g id="edge40" class="edge"><title>Node26&#45;&gt;Node23</title>
<path fill="none" stroke="midnightblue" d="M829.584,-260.736C821.447,-251.119 812.114,-240.089 804.911,-231.577"/>
<polygon fill="midnightblue" stroke="midnightblue" points="826.935,-263.023 836.066,-268.396 832.278,-258.501 826.935,-263.023"/>
</g>
<!-- Node28&#45;&gt;Node4 -->
<g id="edge48" class="edge"><title>Node28&#45;&gt;Node4</title>
<path fill="none" stroke="midnightblue" d="M1218.75,-259.45C1214.3,-250.888 1209.31,-241.056 1205,-232 1184.55,-189.057 1197.88,-165.225 1162,-134 1151.16,-124.567 1068.86,-103.837 1019.71,-92.0805"/>
<polygon fill="midnightblue" stroke="midnightblue" points="1215.74,-261.236 1223.48,-268.468 1221.94,-257.986 1215.74,-261.236"/>
</g>
<!-- Node28&#45;&gt;Node9 -->
<g id="edge49" class="edge"><title>Node28&#45;&gt;Node9</title>
<path fill="none" stroke="midnightblue" d="M1165.66,-278.049C1069.62,-271.026 884.827,-255.688 729,-232 725.517,-231.471 721.947,-230.884 718.35,-230.258"/>
<polygon fill="midnightblue" stroke="midnightblue" points="1165.58,-281.551 1175.8,-278.783 1166.08,-274.57 1165.58,-281.551"/>
</g>
<!-- Node29 -->
<g id="node29" class="node"><title>Node29</title>
<g id="a_node29"><a xlink:href="tpa2016d2_8c.html" target="_top" xlink:title="D:/GIT/fhradiov2/driver\l/src/tpa2016d2.c">
<polygon fill="white" stroke="black" points="1214,-201.5 1214,-231.5 1324,-231.5 1324,-201.5 1214,-201.5"/>
<text text-anchor="start" x="1222" y="-219.5" font-family="Helvetica,sans-Serif" font-size="10.00">D:/GIT/fhradiov2/driver</text>
<text text-anchor="middle" x="1269" y="-208.5" font-family="Helvetica,sans-Serif" font-size="10.00">/src/tpa2016d2.c</text>
</a>
</g>
</g>
<!-- Node28&#45;&gt;Node29 -->
<g id="edge47" class="edge"><title>Node28&#45;&gt;Node29</title>
<path fill="none" stroke="midnightblue" d="M1244.4,-259.576C1249.86,-250.241 1255.99,-239.748 1260.77,-231.577"/>
<polygon fill="midnightblue" stroke="midnightblue" points="1241.27,-257.997 1239.25,-268.396 1247.31,-261.529 1241.27,-257.997"/>
</g>
</g>
</svg>
