<?xml version="1.0" encoding="UTF-8" standalone="no"?>
<!DOCTYPE svg PUBLIC "-//W3C//DTD SVG 1.1//EN"
 "http://www.w3.org/Graphics/SVG/1.1/DTD/svg11.dtd">
<!-- Generated by graphviz version 2.38.0 (20140413.2041)
 -->
<!-- Title: D:/GIT/fhradiov2/driver/si4735.h Pages: 1 -->
<svg width="1126pt" height="374pt"
 viewBox="0.00 0.00 1125.50 374.00" xmlns="http://www.w3.org/2000/svg" xmlns:xlink="http://www.w3.org/1999/xlink">
<g id="graph0" class="graph" transform="scale(1 1) rotate(0) translate(4 370)">
<title>D:/GIT/fhradiov2/driver/si4735.h</title>
<polygon fill="white" stroke="none" points="-4,4 -4,-370 1121.5,-370 1121.5,4 -4,4"/>
<!-- Node1 -->
<g id="node1" class="node"><title>Node1</title>
<polygon fill="#bfbfbf" stroke="black" points="525.5,-335.5 525.5,-365.5 635.5,-365.5 635.5,-335.5 525.5,-335.5"/>
<text text-anchor="start" x="533.5" y="-353.5" font-family="Helvetica,sans-Serif" font-size="10.00">D:/GIT/fhradiov2/driver</text>
<text text-anchor="middle" x="580.5" y="-342.5" font-family="Helvetica,sans-Serif" font-size="10.00">/si4735.h</text>
</g>
<!-- Node2 -->
<g id="node2" class="node"><title>Node2</title>
<g id="a_node2"><a xlink:href="si4735_8c.html" target="_top" xlink:title="D:/GIT/fhradiov2/driver\l/src/si4735.c">
<polygon fill="white" stroke="black" points="244.5,-268.5 244.5,-298.5 354.5,-298.5 354.5,-268.5 244.5,-268.5"/>
<text text-anchor="start" x="252.5" y="-286.5" font-family="Helvetica,sans-Serif" font-size="10.00">D:/GIT/fhradiov2/driver</text>
<text text-anchor="middle" x="299.5" y="-275.5" font-family="Helvetica,sans-Serif" font-size="10.00">/src/si4735.c</text>
</a>
</g>
</g>
<!-- Node1&#45;&gt;Node2 -->
<g id="edge1" class="edge"><title>Node1&#45;&gt;Node2</title>
<path fill="none" stroke="midnightblue" d="M515.499,-334.464C466.74,-323.185 400.724,-307.915 354.555,-297.235"/>
<polygon fill="midnightblue" stroke="midnightblue" points="514.787,-337.892 525.319,-336.736 516.365,-331.072 514.787,-337.892"/>
</g>
<!-- Node3 -->
<g id="node3" class="node"><title>Node3</title>
<g id="a_node3"><a xlink:href="radio_8h.html" target="_top" xlink:title="D:/GIT/fhradiov2/radio\l/radio.h">
<polygon fill="white" stroke="black" points="373,-268.5 373,-298.5 482,-298.5 482,-268.5 373,-268.5"/>
<text text-anchor="start" x="381" y="-286.5" font-family="Helvetica,sans-Serif" font-size="10.00">D:/GIT/fhradiov2/radio</text>
<text text-anchor="middle" x="427.5" y="-275.5" font-family="Helvetica,sans-Serif" font-size="10.00">/radio.h</text>
</a>
</g>
</g>
<!-- Node1&#45;&gt;Node3 -->
<g id="edge2" class="edge"><title>Node1&#45;&gt;Node3</title>
<path fill="none" stroke="midnightblue" d="M537.911,-331.407C513.485,-321.029 483.275,-308.195 460.634,-298.577"/>
<polygon fill="midnightblue" stroke="midnightblue" points="536.729,-334.707 547.301,-335.396 539.466,-328.264 536.729,-334.707"/>
</g>
<!-- Node16 -->
<g id="node16" class="node"><title>Node16</title>
<g id="a_node16"><a xlink:href="rds_8h.html" target="_top" xlink:title="D:/GIT/fhradiov2/system\l/rds.h">
<polygon fill="white" stroke="black" points="673.5,-201.5 673.5,-231.5 793.5,-231.5 793.5,-201.5 673.5,-201.5"/>
<text text-anchor="start" x="681.5" y="-219.5" font-family="Helvetica,sans-Serif" font-size="10.00">D:/GIT/fhradiov2/system</text>
<text text-anchor="middle" x="733.5" y="-208.5" font-family="Helvetica,sans-Serif" font-size="10.00">/rds.h</text>
</a>
</g>
</g>
<!-- Node1&#45;&gt;Node16 -->
<g id="edge33" class="edge"><title>Node1&#45;&gt;Node16</title>
<path fill="none" stroke="midnightblue" d="M604.733,-328.593C636.205,-301.441 690.29,-254.779 717.244,-231.525"/>
<polygon fill="midnightblue" stroke="midnightblue" points="602.159,-326.191 596.874,-335.374 606.732,-331.491 602.159,-326.191"/>
</g>
<!-- Node18 -->
<g id="node18" class="node"><title>Node18</title>
<g id="a_node18"><a xlink:href="rsq_8h.html" target="_top" xlink:title="D:/GIT/fhradiov2/system\l/rsq.h">
<polygon fill="white" stroke="black" points="811.5,-201.5 811.5,-231.5 931.5,-231.5 931.5,-201.5 811.5,-201.5"/>
<text text-anchor="start" x="819.5" y="-219.5" font-family="Helvetica,sans-Serif" font-size="10.00">D:/GIT/fhradiov2/system</text>
<text text-anchor="middle" x="871.5" y="-208.5" font-family="Helvetica,sans-Serif" font-size="10.00">/rsq.h</text>
</a>
</g>
</g>
<!-- Node1&#45;&gt;Node18 -->
<g id="edge34" class="edge"><title>Node1&#45;&gt;Node18</title>
<path fill="none" stroke="midnightblue" d="M620.701,-331.265C679.445,-304.618 787.498,-255.604 840.512,-231.556"/>
<polygon fill="midnightblue" stroke="midnightblue" points="619.028,-328.18 611.367,-335.499 621.919,-334.555 619.028,-328.18"/>
</g>
<!-- Node4 -->
<g id="node4" class="node"><title>Node4</title>
<g id="a_node4"><a xlink:href="menu_8h.html" target="_top" xlink:title="D:/GIT/fhradiov2/menu\l/menu.h">
<polygon fill="white" stroke="black" points="505.5,-201.5 505.5,-231.5 617.5,-231.5 617.5,-201.5 505.5,-201.5"/>
<text text-anchor="start" x="513.5" y="-219.5" font-family="Helvetica,sans-Serif" font-size="10.00">D:/GIT/fhradiov2/menu</text>
<text text-anchor="middle" x="561.5" y="-208.5" font-family="Helvetica,sans-Serif" font-size="10.00">/menu.h</text>
</a>
</g>
</g>
<!-- Node3&#45;&gt;Node4 -->
<g id="edge3" class="edge"><title>Node3&#45;&gt;Node4</title>
<path fill="none" stroke="midnightblue" d="M460.043,-263.714C480.279,-253.463 506.178,-240.983 526.806,-231.577"/>
<polygon fill="midnightblue" stroke="midnightblue" points="458.204,-260.724 450.898,-268.396 461.394,-266.955 458.204,-260.724"/>
</g>
<!-- Node8 -->
<g id="node8" class="node"><title>Node8</title>
<g id="a_node8"><a xlink:href="handler_8h.html" target="_top" xlink:title="D:/GIT/fhradiov2/system\l/handler.h">
<polygon fill="white" stroke="black" points="721.5,-134.5 721.5,-164.5 841.5,-164.5 841.5,-134.5 721.5,-134.5"/>
<text text-anchor="start" x="729.5" y="-152.5" font-family="Helvetica,sans-Serif" font-size="10.00">D:/GIT/fhradiov2/system</text>
<text text-anchor="middle" x="781.5" y="-141.5" font-family="Helvetica,sans-Serif" font-size="10.00">/handler.h</text>
</a>
</g>
</g>
<!-- Node3&#45;&gt;Node8 -->
<g id="edge19" class="edge"><title>Node3&#45;&gt;Node8</title>
<path fill="none" stroke="midnightblue" d="M492.076,-273.451C532.294,-266.067 584.237,-253.278 626.5,-232 645.968,-222.199 645.872,-212.316 664.5,-201 688.892,-186.183 718.41,-173.476 741.695,-164.514"/>
<polygon fill="midnightblue" stroke="midnightblue" points="491.353,-270.024 482.116,-275.213 492.573,-276.917 491.353,-270.024"/>
</g>
<!-- Node11 -->
<g id="node11" class="node"><title>Node11</title>
<g id="a_node11"><a xlink:href="radio__display_8h.html" target="_top" xlink:title="D:/GIT/fhradiov2/radio\l/radio_display.h">
<polygon fill="white" stroke="black" points="0,-201.5 0,-231.5 109,-231.5 109,-201.5 0,-201.5"/>
<text text-anchor="start" x="8" y="-219.5" font-family="Helvetica,sans-Serif" font-size="10.00">D:/GIT/fhradiov2/radio</text>
<text text-anchor="middle" x="54.5" y="-208.5" font-family="Helvetica,sans-Serif" font-size="10.00">/radio_display.h</text>
</a>
</g>
</g>
<!-- Node3&#45;&gt;Node11 -->
<g id="edge12" class="edge"><title>Node3&#45;&gt;Node11</title>
<path fill="none" stroke="midnightblue" d="M363.003,-269.662C360.126,-269.081 357.282,-268.523 354.5,-268 248.497,-248.07 220.656,-251.099 114.5,-232 112.693,-231.675 110.861,-231.338 109.014,-230.992"/>
<polygon fill="midnightblue" stroke="midnightblue" points="362.365,-273.104 372.868,-271.712 363.789,-266.251 362.365,-273.104"/>
</g>
<!-- Node13 -->
<g id="node13" class="node"><title>Node13</title>
<g id="a_node13"><a xlink:href="radio__settings_8h.html" target="_top" xlink:title="D:/GIT/fhradiov2/radio\l/radio_settings.h">
<polygon fill="white" stroke="black" points="92,-67.5 92,-97.5 201,-97.5 201,-67.5 92,-67.5"/>
<text text-anchor="start" x="100" y="-85.5" font-family="Helvetica,sans-Serif" font-size="10.00">D:/GIT/fhradiov2/radio</text>
<text text-anchor="middle" x="146.5" y="-74.5" font-family="Helvetica,sans-Serif" font-size="10.00">/radio_settings.h</text>
</a>
</g>
</g>
<!-- Node3&#45;&gt;Node13 -->
<g id="edge15" class="edge"><title>Node3&#45;&gt;Node13</title>
<path fill="none" stroke="midnightblue" d="M362.977,-269.796C360.107,-269.18 357.271,-268.578 354.5,-268 270.789,-250.55 225.909,-292.521 165.5,-232 128.988,-195.42 132.089,-127.2 139.559,-97.6984"/>
<polygon fill="midnightblue" stroke="midnightblue" points="362.31,-273.233 372.824,-271.932 363.793,-266.392 362.31,-273.233"/>
</g>
<!-- Node15 -->
<g id="node15" class="node"><title>Node15</title>
<g id="a_node15"><a xlink:href="radio_8c.html" target="_top" xlink:title="D:/GIT/fhradiov2/radio\l/src/radio.c">
<polygon fill="white" stroke="black" points="184,-201.5 184,-231.5 293,-231.5 293,-201.5 184,-201.5"/>
<text text-anchor="start" x="192" y="-219.5" font-family="Helvetica,sans-Serif" font-size="10.00">D:/GIT/fhradiov2/radio</text>
<text text-anchor="middle" x="238.5" y="-208.5" font-family="Helvetica,sans-Serif" font-size="10.00">/src/radio.c</text>
</a>
</g>
</g>
<!-- Node3&#45;&gt;Node15 -->
<g id="edge18" class="edge"><title>Node3&#45;&gt;Node15</title>
<path fill="none" stroke="midnightblue" d="M376.882,-265.092C346.372,-254.599 308.018,-241.408 279.43,-231.577"/>
<polygon fill="midnightblue" stroke="midnightblue" points="375.895,-268.453 386.49,-268.396 378.172,-261.834 375.895,-268.453"/>
</g>
<!-- Node3&#45;&gt;Node16 -->
<g id="edge20" class="edge"><title>Node3&#45;&gt;Node16</title>
<path fill="none" stroke="midnightblue" d="M492.261,-268.744C545.732,-257.385 621.049,-241.387 673.243,-230.3"/>
<polygon fill="midnightblue" stroke="midnightblue" points="491.261,-265.378 482.207,-270.879 492.716,-272.225 491.261,-265.378"/>
</g>
<!-- Node3&#45;&gt;Node18 -->
<g id="edge23" class="edge"><title>Node3&#45;&gt;Node18</title>
<path fill="none" stroke="midnightblue" d="M492.249,-275.241C567.172,-266.504 694.141,-250.656 802.5,-232 805.395,-231.502 808.354,-230.969 811.339,-230.413"/>
<polygon fill="midnightblue" stroke="midnightblue" points="491.56,-271.798 482.03,-276.427 492.366,-278.751 491.56,-271.798"/>
</g>
<!-- Node20 -->
<g id="node20" class="node"><title>Node20</title>
<g id="a_node20"><a xlink:href="station__list_8h.html" target="_top" xlink:title="D:/GIT/fhradiov2/system\l/station_list.h">
<polygon fill="white" stroke="black" points="183.5,-134.5 183.5,-164.5 303.5,-164.5 303.5,-134.5 183.5,-134.5"/>
<text text-anchor="start" x="191.5" y="-152.5" font-family="Helvetica,sans-Serif" font-size="10.00">D:/GIT/fhradiov2/system</text>
<text text-anchor="middle" x="243.5" y="-141.5" font-family="Helvetica,sans-Serif" font-size="10.00">/station_list.h</text>
</a>
</g>
</g>
<!-- Node3&#45;&gt;Node20 -->
<g id="edge26" class="edge"><title>Node3&#45;&gt;Node20</title>
<path fill="none" stroke="midnightblue" d="M395.052,-262.793C354.921,-235.836 288.622,-188.125 258.692,-164.525"/>
<polygon fill="midnightblue" stroke="midnightblue" points="393.174,-265.747 403.438,-268.374 397.052,-259.92 393.174,-265.747"/>
</g>
<!-- Node22 -->
<g id="node22" class="node"><title>Node22</title>
<g id="a_node22"><a xlink:href="station__list__struct_8h.html" target="_top" xlink:title="D:/GIT/fhradiov2/system\l/station_list_struct.h">
<polygon fill="white" stroke="black" points="367.5,-201.5 367.5,-231.5 487.5,-231.5 487.5,-201.5 367.5,-201.5"/>
<text text-anchor="start" x="375.5" y="-219.5" font-family="Helvetica,sans-Serif" font-size="10.00">D:/GIT/fhradiov2/system</text>
<text text-anchor="middle" x="427.5" y="-208.5" font-family="Helvetica,sans-Serif" font-size="10.00">/station_list_struct.h</text>
</a>
</g>
</g>
<!-- Node3&#45;&gt;Node22 -->
<g id="edge30" class="edge"><title>Node3&#45;&gt;Node22</title>
<path fill="none" stroke="midnightblue" d="M427.5,-258.108C427.5,-249.154 427.5,-239.323 427.5,-231.577"/>
<polygon fill="midnightblue" stroke="midnightblue" points="424,-258.396 427.5,-268.396 431,-258.396 424,-258.396"/>
</g>
<!-- Node4&#45;&gt;Node3 -->
<g id="edge8" class="edge"><title>Node4&#45;&gt;Node3</title>
<path fill="none" stroke="midnightblue" d="M529.016,-236.256C508.791,-246.503 482.892,-258.984 462.254,-268.396"/>
<polygon fill="midnightblue" stroke="midnightblue" points="530.849,-239.249 538.156,-231.577 527.659,-233.019 530.849,-239.249"/>
</g>
<!-- Node5 -->
<g id="node5" class="node"><title>Node5</title>
<g id="a_node5"><a xlink:href="menu__struct_8h.html" target="_top" xlink:title="D:/GIT/fhradiov2/menu\l/menu_struct.h">
<polygon fill="white" stroke="black" points="591.5,-134.5 591.5,-164.5 703.5,-164.5 703.5,-134.5 591.5,-134.5"/>
<text text-anchor="start" x="599.5" y="-152.5" font-family="Helvetica,sans-Serif" font-size="10.00">D:/GIT/fhradiov2/menu</text>
<text text-anchor="middle" x="647.5" y="-141.5" font-family="Helvetica,sans-Serif" font-size="10.00">/menu_struct.h</text>
</a>
</g>
</g>
<!-- Node4&#45;&gt;Node5 -->
<g id="edge4" class="edge"><title>Node4&#45;&gt;Node5</title>
<path fill="none" stroke="midnightblue" d="M582.446,-194.883C594.789,-185.005 610.324,-173.429 623.201,-164.577"/>
<polygon fill="midnightblue" stroke="midnightblue" points="580.007,-192.356 574.482,-201.396 584.439,-197.775 580.007,-192.356"/>
</g>
<!-- Node7 -->
<g id="node7" class="node"><title>Node7</title>
<g id="a_node7"><a xlink:href="menu_8c.html" target="_top" xlink:title="D:/GIT/fhradiov2/menu\l/src/menu.c">
<polygon fill="white" stroke="black" points="461.5,-134.5 461.5,-164.5 573.5,-164.5 573.5,-134.5 461.5,-134.5"/>
<text text-anchor="start" x="469.5" y="-152.5" font-family="Helvetica,sans-Serif" font-size="10.00">D:/GIT/fhradiov2/menu</text>
<text text-anchor="middle" x="517.5" y="-141.5" font-family="Helvetica,sans-Serif" font-size="10.00">/src/menu.c</text>
</a>
</g>
</g>
<!-- Node4&#45;&gt;Node7 -->
<g id="edge7" class="edge"><title>Node4&#45;&gt;Node7</title>
<path fill="none" stroke="midnightblue" d="M546.179,-192.867C539.811,-183.459 532.618,-172.833 527.029,-164.577"/>
<polygon fill="midnightblue" stroke="midnightblue" points="543.449,-195.077 551.953,-201.396 549.245,-191.153 543.449,-195.077"/>
</g>
<!-- Node4&#45;&gt;Node8 -->
<g id="edge9" class="edge"><title>Node4&#45;&gt;Node8</title>
<path fill="none" stroke="midnightblue" d="M618.769,-198.58C654.501,-188.022 699.957,-174.592 733.74,-164.611"/>
<polygon fill="midnightblue" stroke="midnightblue" points="617.564,-195.286 608.966,-201.476 619.548,-201.999 617.564,-195.286"/>
</g>
<!-- Node5&#45;&gt;Node4 -->
<g id="edge5" class="edge"><title>Node5&#45;&gt;Node4</title>
<path fill="none" stroke="midnightblue" d="M626.593,-171.086C614.256,-180.96 598.721,-192.538 585.839,-201.396"/>
<polygon fill="midnightblue" stroke="midnightblue" points="629.026,-173.617 634.551,-164.577 624.594,-168.199 629.026,-173.617"/>
</g>
<!-- Node6 -->
<g id="node6" class="node"><title>Node6</title>
<g id="a_node6"><a xlink:href="menu__struct_8c.html" target="_top" xlink:title="D:/GIT/fhradiov2/menu\l/src/menu_struct.c">
<polygon fill="white" stroke="black" points="591.5,-67.5 591.5,-97.5 703.5,-97.5 703.5,-67.5 591.5,-67.5"/>
<text text-anchor="start" x="599.5" y="-85.5" font-family="Helvetica,sans-Serif" font-size="10.00">D:/GIT/fhradiov2/menu</text>
<text text-anchor="middle" x="647.5" y="-74.5" font-family="Helvetica,sans-Serif" font-size="10.00">/src/menu_struct.c</text>
</a>
</g>
</g>
<!-- Node5&#45;&gt;Node6 -->
<g id="edge6" class="edge"><title>Node5&#45;&gt;Node6</title>
<path fill="none" stroke="midnightblue" d="M647.5,-124.108C647.5,-115.154 647.5,-105.323 647.5,-97.5765"/>
<polygon fill="midnightblue" stroke="midnightblue" points="644,-124.396 647.5,-134.396 651,-124.396 644,-124.396"/>
</g>
<!-- Node9 -->
<g id="node9" class="node"><title>Node9</title>
<g id="a_node9"><a xlink:href="main_8c.html" target="_top" xlink:title="D:/GIT/fhradiov2/main.c">
<polygon fill="white" stroke="black" points="860,-73 860,-92 977,-92 977,-73 860,-73"/>
<text text-anchor="middle" x="918.5" y="-80" font-family="Helvetica,sans-Serif" font-size="10.00">D:/GIT/fhradiov2/main.c</text>
</a>
</g>
</g>
<!-- Node8&#45;&gt;Node9 -->
<g id="edge10" class="edge"><title>Node8&#45;&gt;Node9</title>
<path fill="none" stroke="midnightblue" d="M820.561,-129.967C846.878,-117.481 880.355,-101.598 900.57,-92.007"/>
<polygon fill="midnightblue" stroke="midnightblue" points="818.761,-126.947 811.227,-134.396 821.762,-133.272 818.761,-126.947"/>
</g>
<!-- Node10 -->
<g id="node10" class="node"><title>Node10</title>
<g id="a_node10"><a xlink:href="handler_8c.html" target="_top" xlink:title="D:/GIT/fhradiov2/system\l/src/handler.c">
<polygon fill="white" stroke="black" points="721.5,-67.5 721.5,-97.5 841.5,-97.5 841.5,-67.5 721.5,-67.5"/>
<text text-anchor="start" x="729.5" y="-85.5" font-family="Helvetica,sans-Serif" font-size="10.00">D:/GIT/fhradiov2/system</text>
<text text-anchor="middle" x="781.5" y="-74.5" font-family="Helvetica,sans-Serif" font-size="10.00">/src/handler.c</text>
</a>
</g>
</g>
<!-- Node8&#45;&gt;Node10 -->
<g id="edge11" class="edge"><title>Node8&#45;&gt;Node10</title>
<path fill="none" stroke="midnightblue" d="M781.5,-124.108C781.5,-115.154 781.5,-105.323 781.5,-97.5765"/>
<polygon fill="midnightblue" stroke="midnightblue" points="778,-124.396 781.5,-134.396 785,-124.396 778,-124.396"/>
</g>
<!-- Node11&#45;&gt;Node3 -->
<g id="edge13" class="edge"><title>Node11&#45;&gt;Node3</title>
<path fill="none" stroke="midnightblue" d="M119.215,-229.503C123.72,-230.379 128.182,-231.223 132.5,-232 238.656,-251.099 266.497,-248.07 372.5,-268 373.284,-268.147 374.073,-268.297 374.865,-268.45"/>
<polygon fill="midnightblue" stroke="midnightblue" points="119.812,-226.053 109.322,-227.545 118.453,-232.92 119.812,-226.053"/>
</g>
<!-- Node12 -->
<g id="node12" class="node"><title>Node12</title>
<g id="a_node12"><a xlink:href="radio__display_8c.html" target="_top" xlink:title="D:/GIT/fhradiov2/radio\l/src/radio_display.c">
<polygon fill="white" stroke="black" points="0,-134.5 0,-164.5 109,-164.5 109,-134.5 0,-134.5"/>
<text text-anchor="start" x="8" y="-152.5" font-family="Helvetica,sans-Serif" font-size="10.00">D:/GIT/fhradiov2/radio</text>
<text text-anchor="middle" x="54.5" y="-141.5" font-family="Helvetica,sans-Serif" font-size="10.00">/src/radio_display.c</text>
</a>
</g>
</g>
<!-- Node11&#45;&gt;Node12 -->
<g id="edge14" class="edge"><title>Node11&#45;&gt;Node12</title>
<path fill="none" stroke="midnightblue" d="M54.5,-191.108C54.5,-182.154 54.5,-172.323 54.5,-164.577"/>
<polygon fill="midnightblue" stroke="midnightblue" points="51.0001,-191.396 54.5,-201.396 58.0001,-191.396 51.0001,-191.396"/>
</g>
<!-- Node13&#45;&gt;Node3 -->
<g id="edge16" class="edge"><title>Node13&#45;&gt;Node3</title>
<path fill="none" stroke="midnightblue" d="M149.507,-107.812C149.868,-140.731 150.696,-199.135 183.5,-232 243.909,-292.521 288.789,-250.55 372.5,-268 373.281,-268.163 374.067,-268.327 374.857,-268.494"/>
<polygon fill="midnightblue" stroke="midnightblue" points="153.005,-107.645 149.357,-97.6984 146.006,-107.749 153.005,-107.645"/>
</g>
<!-- Node14 -->
<g id="node14" class="node"><title>Node14</title>
<g id="a_node14"><a xlink:href="radio__settings_8c.html" target="_top" xlink:title="D:/GIT/fhradiov2/radio\l/src/radio_settings.c">
<polygon fill="white" stroke="black" points="92,-0.5 92,-30.5 201,-30.5 201,-0.5 92,-0.5"/>
<text text-anchor="start" x="100" y="-18.5" font-family="Helvetica,sans-Serif" font-size="10.00">D:/GIT/fhradiov2/radio</text>
<text text-anchor="middle" x="146.5" y="-7.5" font-family="Helvetica,sans-Serif" font-size="10.00">/src/radio_settings.c</text>
</a>
</g>
</g>
<!-- Node13&#45;&gt;Node14 -->
<g id="edge17" class="edge"><title>Node13&#45;&gt;Node14</title>
<path fill="none" stroke="midnightblue" d="M146.5,-57.1081C146.5,-48.1539 146.5,-38.3227 146.5,-30.5765"/>
<polygon fill="midnightblue" stroke="midnightblue" points="143,-57.3959 146.5,-67.396 150,-57.396 143,-57.3959"/>
</g>
<!-- Node16&#45;&gt;Node8 -->
<g id="edge21" class="edge"><title>Node16&#45;&gt;Node8</title>
<path fill="none" stroke="midnightblue" d="M749.999,-193.157C756.999,-183.679 764.945,-172.919 771.105,-164.577"/>
<polygon fill="midnightblue" stroke="midnightblue" points="747.04,-191.272 743.915,-201.396 752.671,-195.431 747.04,-191.272"/>
</g>
<!-- Node17 -->
<g id="node17" class="node"><title>Node17</title>
<g id="a_node17"><a xlink:href="rds_8c.html" target="_top" xlink:title="D:/GIT/fhradiov2/system\l/src/rds.c">
<polygon fill="white" stroke="black" points="859.5,-134.5 859.5,-164.5 979.5,-164.5 979.5,-134.5 859.5,-134.5"/>
<text text-anchor="start" x="867.5" y="-152.5" font-family="Helvetica,sans-Serif" font-size="10.00">D:/GIT/fhradiov2/system</text>
<text text-anchor="middle" x="919.5" y="-141.5" font-family="Helvetica,sans-Serif" font-size="10.00">/src/rds.c</text>
</a>
</g>
</g>
<!-- Node16&#45;&gt;Node17 -->
<g id="edge22" class="edge"><title>Node16&#45;&gt;Node17</title>
<path fill="none" stroke="midnightblue" d="M783.315,-198.092C813.34,-187.599 851.086,-174.408 879.22,-164.577"/>
<polygon fill="midnightblue" stroke="midnightblue" points="782.145,-194.793 773.859,-201.396 784.454,-201.401 782.145,-194.793"/>
</g>
<!-- Node18&#45;&gt;Node8 -->
<g id="edge24" class="edge"><title>Node18&#45;&gt;Node8</title>
<path fill="none" stroke="midnightblue" d="M843.74,-195.451C829.895,-185.452 813.484,-173.6 800.991,-164.577"/>
<polygon fill="midnightblue" stroke="midnightblue" points="841.815,-198.378 851.971,-201.396 845.914,-192.704 841.815,-198.378"/>
</g>
<!-- Node19 -->
<g id="node19" class="node"><title>Node19</title>
<g id="a_node19"><a xlink:href="rsq_8c.html" target="_top" xlink:title="D:/GIT/fhradiov2/system\l/src/rsq.c">
<polygon fill="white" stroke="black" points="997.5,-134.5 997.5,-164.5 1117.5,-164.5 1117.5,-134.5 997.5,-134.5"/>
<text text-anchor="start" x="1005.5" y="-152.5" font-family="Helvetica,sans-Serif" font-size="10.00">D:/GIT/fhradiov2/system</text>
<text text-anchor="middle" x="1057.5" y="-141.5" font-family="Helvetica,sans-Serif" font-size="10.00">/src/rsq.c</text>
</a>
</g>
</g>
<!-- Node18&#45;&gt;Node19 -->
<g id="edge25" class="edge"><title>Node18&#45;&gt;Node19</title>
<path fill="none" stroke="midnightblue" d="M921.315,-198.092C951.34,-187.599 989.086,-174.408 1017.22,-164.577"/>
<polygon fill="midnightblue" stroke="midnightblue" points="920.145,-194.793 911.859,-201.396 922.454,-201.401 920.145,-194.793"/>
</g>
<!-- Node20&#45;&gt;Node3 -->
<g id="edge27" class="edge"><title>Node20&#45;&gt;Node3</title>
<path fill="none" stroke="midnightblue" d="M275.776,-170.092C315.831,-196.989 382.145,-244.704 412.179,-268.374"/>
<polygon fill="midnightblue" stroke="midnightblue" points="277.672,-167.149 267.407,-164.525 273.795,-172.978 277.672,-167.149"/>
</g>
<!-- Node20&#45;&gt;Node13 -->
<g id="edge28" class="edge"><title>Node20&#45;&gt;Node13</title>
<path fill="none" stroke="midnightblue" d="M214.003,-128.734C198.993,-118.676 181.099,-106.685 167.506,-97.5765"/>
<polygon fill="midnightblue" stroke="midnightblue" points="212.197,-131.737 222.452,-134.396 216.094,-125.922 212.197,-131.737"/>
</g>
<!-- Node21 -->
<g id="node21" class="node"><title>Node21</title>
<g id="a_node21"><a xlink:href="station__list_8c.html" target="_top" xlink:title="D:/GIT/fhradiov2/system\l/src/station_list.c">
<polygon fill="white" stroke="black" points="219.5,-67.5 219.5,-97.5 339.5,-97.5 339.5,-67.5 219.5,-67.5"/>
<text text-anchor="start" x="227.5" y="-85.5" font-family="Helvetica,sans-Serif" font-size="10.00">D:/GIT/fhradiov2/system</text>
<text text-anchor="middle" x="279.5" y="-74.5" font-family="Helvetica,sans-Serif" font-size="10.00">/src/station_list.c</text>
</a>
</g>
</g>
<!-- Node20&#45;&gt;Node21 -->
<g id="edge29" class="edge"><title>Node20&#45;&gt;Node21</title>
<path fill="none" stroke="midnightblue" d="M256.197,-125.576C261.367,-116.241 267.178,-105.748 271.704,-97.5765"/>
<polygon fill="midnightblue" stroke="midnightblue" points="253.095,-123.952 251.311,-134.396 259.218,-127.344 253.095,-123.952"/>
</g>
<!-- Node22&#45;&gt;Node20 -->
<g id="edge32" class="edge"><title>Node22&#45;&gt;Node20</title>
<path fill="none" stroke="midnightblue" d="M377.835,-197.955C348.195,-187.485 311.058,-174.366 283.347,-164.577"/>
<polygon fill="midnightblue" stroke="midnightblue" points="376.98,-201.365 387.575,-201.396 379.312,-194.765 376.98,-201.365"/>
</g>
<!-- Node23 -->
<g id="node23" class="node"><title>Node23</title>
<g id="a_node23"><a xlink:href="station__list__struct_8c.html" target="_top" xlink:title="D:/GIT/fhradiov2/system\l/src/station_list_struct.c">
<polygon fill="white" stroke="black" points="321.5,-134.5 321.5,-164.5 443.5,-164.5 443.5,-134.5 321.5,-134.5"/>
<text text-anchor="start" x="329.5" y="-152.5" font-family="Helvetica,sans-Serif" font-size="10.00">D:/GIT/fhradiov2/system</text>
<text text-anchor="middle" x="382.5" y="-141.5" font-family="Helvetica,sans-Serif" font-size="10.00">/src/station_list_struct.c</text>
</a>
</g>
</g>
<!-- Node22&#45;&gt;Node23 -->
<g id="edge31" class="edge"><title>Node22&#45;&gt;Node23</title>
<path fill="none" stroke="midnightblue" d="M412.032,-193.157C405.47,-183.679 398.021,-172.919 392.245,-164.577"/>
<polygon fill="midnightblue" stroke="midnightblue" points="409.166,-195.166 417.736,-201.396 414.921,-191.182 409.166,-195.166"/>
</g>
</g>
</svg>
