<?xml version="1.0" encoding="UTF-8" standalone="no"?>
<!DOCTYPE svg PUBLIC "-//W3C//DTD SVG 1.1//EN"
 "http://www.w3.org/Graphics/SVG/1.1/DTD/svg11.dtd">
<!-- Generated by graphviz version 2.38.0 (20140413.2041)
 -->
<!-- Title: si4735_fm_seek_start Pages: 1 -->
<svg width="483pt" height="104pt"
 viewBox="0.00 0.00 483.00 104.00" xmlns="http://www.w3.org/2000/svg" xmlns:xlink="http://www.w3.org/1999/xlink">
<g id="graph0" class="graph" transform="scale(1 1) rotate(0) translate(4 100)">
<title>si4735_fm_seek_start</title>
<polygon fill="white" stroke="none" points="-4,4 -4,-100 479,-100 479,4 -4,4"/>
<!-- Node1 -->
<g id="node1" class="node"><title>Node1</title>
<polygon fill="#bfbfbf" stroke="black" points="0,-38.5 0,-57.5 112,-57.5 112,-38.5 0,-38.5"/>
<text text-anchor="middle" x="56" y="-45.5" font-family="Helvetica,sans-Serif" font-size="10.00">si4735_fm_seek_start</text>
</g>
<!-- Node2 -->
<g id="node2" class="node"><title>Node2</title>
<g id="a_node2"><a xlink:href="i2c_8h.html#a6691e5911f539e1e8178c6e983e8079a" target="_top" xlink:title="Transmits I2C commands with a variable length to a I2C slave. ">
<polygon fill="white" stroke="black" points="164,-76.5 164,-95.5 236,-95.5 236,-76.5 164,-76.5"/>
<text text-anchor="middle" x="200" y="-83.5" font-family="Helvetica,sans-Serif" font-size="10.00">i2c_write_var</text>
</a>
</g>
</g>
<!-- Node1&#45;&gt;Node2 -->
<g id="edge1" class="edge"><title>Node1&#45;&gt;Node2</title>
<path fill="none" stroke="midnightblue" d="M92.8326,-57.589C111.388,-62.5546 134.231,-68.6674 153.968,-73.9493"/>
<polygon fill="midnightblue" stroke="midnightblue" points="153.106,-77.3416 163.671,-76.5457 154.915,-70.5795 153.106,-77.3416"/>
</g>
<!-- Node5 -->
<g id="node5" class="node"><title>Node5</title>
<g id="a_node5"><a xlink:href="si4735_8c.html#aad8341b5b19aa8f962a6b9b940d77960" target="_top" xlink:title="si4735_get_interrupt">
<polygon fill="white" stroke="black" points="148,-38.5 148,-57.5 252,-57.5 252,-38.5 148,-38.5"/>
<text text-anchor="middle" x="200" y="-45.5" font-family="Helvetica,sans-Serif" font-size="10.00">si4735_get_interrupt</text>
</a>
</g>
</g>
<!-- Node1&#45;&gt;Node5 -->
<g id="edge4" class="edge"><title>Node1&#45;&gt;Node5</title>
<path fill="none" stroke="midnightblue" d="M112.308,-48C120.612,-48 129.218,-48 137.64,-48"/>
<polygon fill="midnightblue" stroke="midnightblue" points="137.788,-51.5001 147.788,-48 137.788,-44.5001 137.788,-51.5001"/>
</g>
<!-- Node6 -->
<g id="node6" class="node"><title>Node6</title>
<g id="a_node6"><a xlink:href="i2c_8h.html#a6dd896b0c82d1aa91a1a8155b41c4566" target="_top" xlink:title="Receives I2C commands until a NACK is received or received RxBytes. ">
<polygon fill="white" stroke="black" points="173.5,-0.5 173.5,-19.5 226.5,-19.5 226.5,-0.5 173.5,-0.5"/>
<text text-anchor="middle" x="200" y="-7.5" font-family="Helvetica,sans-Serif" font-size="10.00">i2c_read</text>
</a>
</g>
</g>
<!-- Node1&#45;&gt;Node6 -->
<g id="edge5" class="edge"><title>Node1&#45;&gt;Node6</title>
<path fill="none" stroke="midnightblue" d="M92.8326,-38.411C114.537,-32.6029 142.106,-25.2251 163.711,-19.4435"/>
<polygon fill="midnightblue" stroke="midnightblue" points="164.725,-22.7955 173.48,-16.8293 162.915,-16.0334 164.725,-22.7955"/>
</g>
<!-- Node3 -->
<g id="node3" class="node"><title>Node3</title>
<g id="a_node3"><a xlink:href="i2c_8c.html#ae0625b97d3437bcaca4ac4b96dd01978" target="_top" xlink:title="Transmits I2C command array to a I2C slave. ">
<polygon fill="white" stroke="black" points="288,-76.5 288,-95.5 359,-95.5 359,-76.5 288,-76.5"/>
<text text-anchor="middle" x="323.5" y="-83.5" font-family="Helvetica,sans-Serif" font-size="10.00">i2c_write_arr</text>
</a>
</g>
</g>
<!-- Node2&#45;&gt;Node3 -->
<g id="edge2" class="edge"><title>Node2&#45;&gt;Node3</title>
<path fill="none" stroke="midnightblue" d="M236.143,-86C249.1,-86 263.959,-86 277.657,-86"/>
<polygon fill="midnightblue" stroke="midnightblue" points="277.856,-89.5001 287.856,-86 277.856,-82.5001 277.856,-89.5001"/>
</g>
<!-- Node4 -->
<g id="node4" class="node"><title>Node4</title>
<g id="a_node4"><a xlink:href="timer_8c.html#a3c56af3315c2461dec5ced585a5f84db" target="_top" xlink:title="_delay_ten_us">
<polygon fill="white" stroke="black" points="395,-76.5 395,-95.5 475,-95.5 475,-76.5 395,-76.5"/>
<text text-anchor="middle" x="435" y="-83.5" font-family="Helvetica,sans-Serif" font-size="10.00">_delay_ten_us</text>
</a>
</g>
</g>
<!-- Node3&#45;&gt;Node4 -->
<g id="edge3" class="edge"><title>Node3&#45;&gt;Node4</title>
<path fill="none" stroke="midnightblue" d="M359.146,-86C367.165,-86 375.851,-86 384.37,-86"/>
<polygon fill="midnightblue" stroke="midnightblue" points="384.623,-89.5001 394.623,-86 384.623,-82.5001 384.623,-89.5001"/>
</g>
</g>
</svg>
