<?xml version="1.0" encoding="UTF-8" standalone="no"?>
<!DOCTYPE svg PUBLIC "-//W3C//DTD SVG 1.1//EN"
 "http://www.w3.org/Graphics/SVG/1.1/DTD/svg11.dtd">
<!-- Generated by graphviz version 2.38.0 (20140413.2041)
 -->
<!-- Title: si4735_set_property Pages: 1 -->
<!--zoomable 158 -->
<svg id="main" version="1.1" xmlns="http://www.w3.org/2000/svg" xmlns:xlink="http://www.w3.org/1999/xlink" xml:space="preserve" onload="init(evt)">
<style type="text/css"><![CDATA[
.edge:hover path { stroke: red; }
.edge:hover polygon { stroke: red; fill: red; }
]]></style>
<script type="text/javascript"><![CDATA[
var edges = document.getElementsByTagName('g');
if (edges && edges.length) {
  for (var i=0;i<edges.length;i++) {
    if (edges[i].id.substr(0,4)=='edge') {
      edges[i].setAttribute('class','edge');
    }
  }
}
]]></script>
        <defs>
                <circle id="rim" cx="0" cy="0" r="7"/>
                <circle id="rim2" cx="0" cy="0" r="3.5"/>
                <g id="zoomPlus">
                        <use xlink:href="#rim" fill="#404040">
                                <set attributeName="fill" to="#808080" begin="zoomplus.mouseover" end="zoomplus.mouseout"/>
                        </use>
                        <path d="M-4,0h8M0,-4v8" fill="none" stroke="white" stroke-width="1.5" pointer-events="none"/>
                </g>
                <g id="zoomMin">
                        <use xlink:href="#rim" fill="#404040">
                                <set attributeName="fill" to="#808080" begin="zoomminus.mouseover" end="zoomminus.mouseout"/>
                        </use>
                        <path d="M-4,0h8" fill="none" stroke="white" stroke-width="1.5" pointer-events="none"/>
                </g>
                <g id="dirArrow">
                        <path fill="none" stroke="white" stroke-width="1.5" d="M0,-3.0v7 M-2.5,-0.5L0,-3.0L2.5,-0.5"/>
                </g>
               <g id="resetDef">
                       <use xlink:href="#rim2" fill="#404040">
                               <set attributeName="fill" to="#808080" begin="reset.mouseover" end="reset.mouseout"/>
                       </use>
               </g>
        </defs>

<script type="text/javascript">
var viewWidth = 608;
var viewHeight = 158;
var sectionId = 'dynsection-23';
</script>
<script xlink:href="svgpan.js"/>
<svg id="graph" class="graph">
<g id="viewport">
<title>si4735_set_property</title>
<polygon fill="white" stroke="none" points="-4,4 -4,-154.391 604,-154.391 604,4 -4,4"/>
<!-- Node1 -->
<g id="node1" class="node"><title>Node1</title>
<polygon fill="#bfbfbf" stroke="black" points="0,-95.5 0,-114.5 104,-114.5 104,-95.5 0,-95.5"/>
<text text-anchor="middle" x="52" y="-102.5" font-family="Helvetica,sans-Serif" font-size="10.00">si4735_set_property</text>
</g>
<!-- Node2 -->
<g id="node2" class="node"><title>Node2</title>
<g id="a_node2"><a xlink:href="si4735_8c.html#a6f18c3d05bcb57296aad95c0be535f73" target="_top" xlink:title="si4735_configure_rds">
<polygon fill="white" stroke="black" points="150,-114.5 150,-133.5 258,-133.5 258,-114.5 150,-114.5"/>
<text text-anchor="middle" x="204" y="-121.5" font-family="Helvetica,sans-Serif" font-size="10.00">si4735_configure_rds</text>
</a>
</g>
</g>
<!-- Node1&#45;&gt;Node2 -->
<g id="edge1" class="edge"><title>Node1&#45;&gt;Node2</title>
<path fill="none" stroke="midnightblue" d="M114.42,-112.78C126.218,-114.274 138.48,-115.828 149.985,-117.285"/>
<polygon fill="midnightblue" stroke="midnightblue" points="114.563,-109.27 104.202,-111.486 113.683,-116.215 114.563,-109.27"/>
</g>
<!-- Node3 -->
<g id="node3" class="node"><title>Node3</title>
<g id="a_node3"><a xlink:href="si4735_8c.html#a876518b974a7128391e2ff86a597218f" target="_top" xlink:title="SI4735_INIT">
<polygon fill="white" stroke="black" points="306.5,-114.5 306.5,-133.5 374.5,-133.5 374.5,-114.5 306.5,-114.5"/>
<text text-anchor="middle" x="340.5" y="-121.5" font-family="Helvetica,sans-Serif" font-size="10.00">SI4735_INIT</text>
</a>
</g>
</g>
<!-- Node1&#45;&gt;Node3 -->
<g id="edge8" class="edge"><title>Node1&#45;&gt;Node3</title>
<path fill="none" stroke="midnightblue" d="M78.4929,-119.474C95.3575,-128.195 118.286,-138.465 140,-143 195.687,-154.631 211.59,-150.367 268,-143 282.264,-141.137 297.733,-137.268 310.622,-133.504"/>
<polygon fill="midnightblue" stroke="midnightblue" points="79.7886,-116.199 69.3191,-114.574 76.4903,-122.373 79.7886,-116.199"/>
</g>
<!-- Node7 -->
<g id="node7" class="node"><title>Node7</title>
<g id="a_node7"><a xlink:href="si4735_8c.html#af6037be0045d62ab73bf8e6c3802bd8e" target="_top" xlink:title="si4735_configure_seeking">
<polygon fill="white" stroke="black" points="140,-76.5 140,-95.5 268,-95.5 268,-76.5 140,-76.5"/>
<text text-anchor="middle" x="204" y="-83.5" font-family="Helvetica,sans-Serif" font-size="10.00">si4735_configure_seeking</text>
</a>
</g>
</g>
<!-- Node1&#45;&gt;Node7 -->
<g id="edge6" class="edge"><title>Node1&#45;&gt;Node7</title>
<path fill="none" stroke="midnightblue" d="M114.315,-97.2334C122.727,-96.1679 131.377,-95.0722 139.822,-94.0025"/>
<polygon fill="midnightblue" stroke="midnightblue" points="113.683,-93.7855 104.202,-98.5144 114.563,-100.73 113.683,-93.7855"/>
</g>
<!-- Node8 -->
<g id="node8" class="node"><title>Node8</title>
<g id="a_node8"><a xlink:href="radio_8c.html#ae11dbe9ea82d3ae65b6e80a4e6e995f8" target="_top" xlink:title="Set the volume. ">
<polygon fill="white" stroke="black" points="304,-38.5 304,-57.5 377,-57.5 377,-38.5 304,-38.5"/>
<text text-anchor="middle" x="340.5" y="-45.5" font-family="Helvetica,sans-Serif" font-size="10.00">radio_volume</text>
</a>
</g>
</g>
<!-- Node1&#45;&gt;Node8 -->
<g id="edge9" class="edge"><title>Node1&#45;&gt;Node8</title>
<path fill="none" stroke="midnightblue" d="M79.6073,-90.7439C96.4393,-82.3982 118.926,-72.457 140,-67 196.079,-52.4786 263.602,-48.8092 303.96,-48.0184"/>
<polygon fill="midnightblue" stroke="midnightblue" points="77.7288,-87.7726 70.4037,-95.4273 80.9035,-94.0113 77.7288,-87.7726"/>
</g>
<!-- Node2&#45;&gt;Node3 -->
<g id="edge2" class="edge"><title>Node2&#45;&gt;Node3</title>
<path fill="none" stroke="midnightblue" d="M268.2,-124C281.431,-124 294.871,-124 306.463,-124"/>
<polygon fill="midnightblue" stroke="midnightblue" points="268.158,-120.5 258.158,-124 268.158,-127.5 268.158,-120.5"/>
</g>
<!-- Node4 -->
<g id="node4" class="node"><title>Node4</title>
<g id="a_node4"><a xlink:href="radio_8c.html#a3a1de7e31aabba6e408a633c130e618a" target="_top" xlink:title="Initiales the radio. ">
<polygon fill="white" stroke="black" points="441.5,-114.5 441.5,-133.5 497.5,-133.5 497.5,-114.5 441.5,-114.5"/>
<text text-anchor="middle" x="469.5" y="-121.5" font-family="Helvetica,sans-Serif" font-size="10.00">radio_init</text>
</a>
</g>
</g>
<!-- Node3&#45;&gt;Node4 -->
<g id="edge3" class="edge"><title>Node3&#45;&gt;Node4</title>
<path fill="none" stroke="midnightblue" d="M384.619,-124C403.344,-124 424.714,-124 441.198,-124"/>
<polygon fill="midnightblue" stroke="midnightblue" points="384.536,-120.5 374.536,-124 384.536,-127.5 384.536,-120.5"/>
</g>
<!-- Node6 -->
<g id="node6" class="node"><title>Node6</title>
<g id="a_node6"><a xlink:href="radio_8c.html#a5d08cbff96aee4274e785b49a98f14cd" target="_top" xlink:title="Turn radio to standby. ">
<polygon fill="white" stroke="black" points="428,-76.5 428,-95.5 511,-95.5 511,-76.5 428,-76.5"/>
<text text-anchor="middle" x="469.5" y="-83.5" font-family="Helvetica,sans-Serif" font-size="10.00">radio_stand_by</text>
</a>
</g>
</g>
<!-- Node3&#45;&gt;Node6 -->
<g id="edge5" class="edge"><title>Node3&#45;&gt;Node6</title>
<path fill="none" stroke="midnightblue" d="M383.394,-111.465C400.671,-106.295 420.371,-100.401 436.463,-95.5859"/>
<polygon fill="midnightblue" stroke="midnightblue" points="382.124,-108.191 373.547,-114.411 384.131,-114.897 382.124,-108.191"/>
</g>
<!-- Node5 -->
<g id="node5" class="node"><title>Node5</title>
<g id="a_node5"><a xlink:href="main_8c.html#a840291bc02cba5474a4cb46a9b9566fe" target="_top" xlink:title="Main function. ">
<polygon fill="white" stroke="black" points="562,-114.5 562,-133.5 600,-133.5 600,-114.5 562,-114.5"/>
<text text-anchor="middle" x="581" y="-121.5" font-family="Helvetica,sans-Serif" font-size="10.00">main</text>
</a>
</g>
</g>
<!-- Node4&#45;&gt;Node5 -->
<g id="edge4" class="edge"><title>Node4&#45;&gt;Node5</title>
<path fill="none" stroke="midnightblue" d="M507.633,-124C525.9,-124 547.096,-124 561.807,-124"/>
<polygon fill="midnightblue" stroke="midnightblue" points="507.567,-120.5 497.567,-124 507.567,-127.5 507.567,-120.5"/>
</g>
<!-- Node7&#45;&gt;Node3 -->
<g id="edge7" class="edge"><title>Node7&#45;&gt;Node3</title>
<path fill="none" stroke="midnightblue" d="M248.676,-98.3398C267.305,-103.603 288.695,-109.646 306.037,-114.546"/>
<polygon fill="midnightblue" stroke="midnightblue" points="249.515,-94.9398 238.94,-95.589 247.612,-101.676 249.515,-94.9398"/>
</g>
<!-- Node8&#45;&gt;Node4 -->
<g id="edge10" class="edge"><title>Node8&#45;&gt;Node4</title>
<path fill="none" stroke="midnightblue" d="M359.044,-64.85C372.811,-77.3283 392.941,-94.0044 413,-105 421.841,-109.847 432.145,-113.786 441.457,-116.795"/>
<polygon fill="midnightblue" stroke="midnightblue" points="361.063,-61.9486 351.353,-57.7112 356.301,-67.0794 361.063,-61.9486"/>
</g>
<!-- Node8&#45;&gt;Node6 -->
<g id="edge12" class="edge"><title>Node8&#45;&gt;Node6</title>
<path fill="none" stroke="midnightblue" d="M383.394,-60.5353C400.671,-65.7048 420.371,-71.5991 436.463,-76.4141"/>
<polygon fill="midnightblue" stroke="midnightblue" points="384.131,-57.1025 373.547,-57.589 382.124,-63.8088 384.131,-57.1025"/>
</g>
<!-- Node9 -->
<g id="node9" class="node"><title>Node9</title>
<g id="a_node9"><a xlink:href="radio_8c.html#a841443a7db6e1c9caef95f3b7af5761f" target="_top" xlink:title="Radio main. ">
<polygon fill="white" stroke="black" points="437.5,-38.5 437.5,-57.5 501.5,-57.5 501.5,-38.5 437.5,-38.5"/>
<text text-anchor="middle" x="469.5" y="-45.5" font-family="Helvetica,sans-Serif" font-size="10.00">radio_main</text>
</a>
</g>
</g>
<!-- Node8&#45;&gt;Node9 -->
<g id="edge11" class="edge"><title>Node8&#45;&gt;Node9</title>
<path fill="none" stroke="midnightblue" d="M387.293,-48C403.917,-48 422.301,-48 437.368,-48"/>
<polygon fill="midnightblue" stroke="midnightblue" points="387.215,-44.5001 377.215,-48 387.215,-51.5001 387.215,-44.5001"/>
</g>
<!-- Node10 -->
<g id="node10" class="node"><title>Node10</title>
<g id="a_node10"><a xlink:href="radio__settings_8c.html#aba6a09ed7091ec65d2cbf4cd9a9a75f4" target="_top" xlink:title="Sets the volume. ">
<polygon fill="white" stroke="black" points="413,-0.5 413,-19.5 526,-19.5 526,-0.5 413,-0.5"/>
<text text-anchor="middle" x="469.5" y="-7.5" font-family="Helvetica,sans-Serif" font-size="10.00">radio_settings_volume</text>
</a>
</g>
</g>
<!-- Node8&#45;&gt;Node10 -->
<g id="edge13" class="edge"><title>Node8&#45;&gt;Node10</title>
<path fill="none" stroke="midnightblue" d="M383.394,-35.4647C400.671,-30.2952 420.371,-24.4009 436.463,-19.5859"/>
<polygon fill="midnightblue" stroke="midnightblue" points="382.124,-32.1912 373.547,-38.411 384.131,-38.8975 382.124,-32.1912"/>
</g>
</g>
</svg>
        <g id="navigator" transform="translate(0 0)" fill="#404254">
                <rect fill="#f2f5e9" fill-opacity="0.5" stroke="#606060" stroke-width=".5" x="0" y="0" width="60" height="60"/>
                <use id="zoomplus" xlink:href="#zoomPlus" x="17" y="9" onmousedown="handleZoom(evt,'in')"/>
                <use id="zoomminus" xlink:href="#zoomMin" x="42" y="9" onmousedown="handleZoom(evt,'out')"/>
                <use id="reset" xlink:href="#resetDef" x="30" y="36" onmousedown="handleReset()"/>
                <g id="arrowUp" xlink:href="#dirArrow" transform="translate(30 24)" onmousedown="handlePan(0,-1)">
                  <use xlink:href="#rim" fill="#404040">
                        <set attributeName="fill" to="#808080" begin="arrowUp.mouseover" end="arrowUp.mouseout"/>
                  </use>
                  <path fill="none" stroke="white" stroke-width="1.5" d="M0,-3.0v7 M-2.5,-0.5L0,-3.0L2.5,-0.5"/>
                </g>
                <g id="arrowRight" xlink:href="#dirArrow" transform="rotate(90) translate(36 -43)" onmousedown="handlePan(1,0)">
                  <use xlink:href="#rim" fill="#404040">
                        <set attributeName="fill" to="#808080" begin="arrowRight.mouseover" end="arrowRight.mouseout"/>
                  </use>
                  <path fill="none" stroke="white" stroke-width="1.5" d="M0,-3.0v7 M-2.5,-0.5L0,-3.0L2.5,-0.5"/>
                </g>
                <g id="arrowDown" xlink:href="#dirArrow" transform="rotate(180) translate(-30 -48)" onmousedown="handlePan(0,1)">
                  <use xlink:href="#rim" fill="#404040">
                        <set attributeName="fill" to="#808080" begin="arrowDown.mouseover" end="arrowDown.mouseout"/>
                  </use>
                  <path fill="none" stroke="white" stroke-width="1.5" d="M0,-3.0v7 M-2.5,-0.5L0,-3.0L2.5,-0.5"/>
                </g>
                <g id="arrowLeft" xlink:href="#dirArrow" transform="rotate(270) translate(-36 17)" onmousedown="handlePan(-1,0)">
                  <use xlink:href="#rim" fill="#404040">
                        <set attributeName="fill" to="#808080" begin="arrowLeft.mouseover" end="arrowLeft.mouseout"/>
                  </use>
                  <path fill="none" stroke="white" stroke-width="1.5" d="M0,-3.0v7 M-2.5,-0.5L0,-3.0L2.5,-0.5"/>
                </g>
        </g>
        <svg viewBox="0 0 15 15" width="100%" height="30px" preserveAspectRatio="xMaxYMin meet">
         <g id="arrow_out" transform="scale(0.3 0.3)">
          <a xlink:href="si4735_8c_aadc29a91f13cd5ebe239b23c7e5370dc_icgraph_org.svg" target="_base">
           <rect id="button" ry="5" rx="5" y="6" x="6" height="38" width="38"
                fill="#f2f5e9" fill-opacity="0.5" stroke="#606060" stroke-width="1.0"/>
           <path id="arrow"
             d="M 11.500037,31.436501 C 11.940474,20.09759 22.043105,11.32322 32.158766,21.979434 L 37.068811,17.246167 C 37.068811,17.246167 37.088388,32 37.088388,32 L 22.160133,31.978069 C 22.160133,31.978069 26.997745,27.140456 26.997745,27.140456 C 18.528582,18.264221 13.291696,25.230495 11.500037,31.436501 z"
             style="fill:#404040;"/>
          </a>
         </g>
        </svg>
</svg>
