<?xml version="1.0" encoding="UTF-8" standalone="no"?>
<!DOCTYPE svg PUBLIC "-//W3C//DTD SVG 1.1//EN"
 "http://www.w3.org/Graphics/SVG/1.1/DTD/svg11.dtd">
<!-- Generated by graphviz version 2.38.0 (20140413.2041)
 -->
<!-- Title: si4735_fm_tune_freq Pages: 1 -->
<svg width="531pt" height="161pt"
 viewBox="0.00 0.00 531.00 161.00" xmlns="http://www.w3.org/2000/svg" xmlns:xlink="http://www.w3.org/1999/xlink">
<g id="graph0" class="graph" transform="scale(1 1) rotate(0) translate(4 157)">
<title>si4735_fm_tune_freq</title>
<polygon fill="white" stroke="none" points="-4,4 -4,-157 527,-157 527,4 -4,4"/>
<!-- Node1 -->
<g id="node1" class="node"><title>Node1</title>
<polygon fill="#bfbfbf" stroke="black" points="0,-95.5 0,-114.5 106,-114.5 106,-95.5 0,-95.5"/>
<text text-anchor="middle" x="53" y="-102.5" font-family="Helvetica,sans-Serif" font-size="10.00">si4735_fm_tune_freq</text>
</g>
<!-- Node2 -->
<g id="node2" class="node"><title>Node2</title>
<g id="a_node2"><a xlink:href="si4735_8c.html#a876518b974a7128391e2ff86a597218f" target="_top" xlink:title="SI4735_INIT">
<polygon fill="white" stroke="black" points="149.5,-114.5 149.5,-133.5 217.5,-133.5 217.5,-114.5 149.5,-114.5"/>
<text text-anchor="middle" x="183.5" y="-121.5" font-family="Helvetica,sans-Serif" font-size="10.00">SI4735_INIT</text>
</a>
</g>
</g>
<!-- Node1&#45;&gt;Node2 -->
<g id="edge1" class="edge"><title>Node1&#45;&gt;Node2</title>
<path fill="none" stroke="midnightblue" d="M116.279,-114.209C127.739,-115.903 139.283,-117.61 149.45,-119.113"/>
<polygon fill="midnightblue" stroke="midnightblue" points="116.67,-110.728 106.266,-112.728 115.646,-117.653 116.67,-110.728"/>
</g>
<!-- Node6 -->
<g id="node6" class="node"><title>Node6</title>
<g id="a_node6"><a xlink:href="radio_8c.html#a6d652e9d0f1c54bfe9ec73fe2605b706" target="_top" xlink:title="Tune the frequency. ">
<polygon fill="white" stroke="black" points="142,-76.5 142,-95.5 225,-95.5 225,-76.5 142,-76.5"/>
<text text-anchor="middle" x="183.5" y="-83.5" font-family="Helvetica,sans-Serif" font-size="10.00">radio_tune_freq</text>
</a>
</g>
</g>
<!-- Node1&#45;&gt;Node6 -->
<g id="edge5" class="edge"><title>Node1&#45;&gt;Node6</title>
<path fill="none" stroke="midnightblue" d="M116.328,-95.7842C124.95,-94.5094 133.617,-93.2278 141.709,-92.0313"/>
<polygon fill="midnightblue" stroke="midnightblue" points="115.646,-92.3468 106.266,-97.272 116.67,-99.2715 115.646,-92.3468"/>
</g>
<!-- Node3 -->
<g id="node3" class="node"><title>Node3</title>
<g id="a_node3"><a xlink:href="radio_8c.html#a3a1de7e31aabba6e408a633c130e618a" target="_top" xlink:title="Initiales the radio. ">
<polygon fill="white" stroke="black" points="283.5,-133.5 283.5,-152.5 339.5,-152.5 339.5,-133.5 283.5,-133.5"/>
<text text-anchor="middle" x="311.5" y="-140.5" font-family="Helvetica,sans-Serif" font-size="10.00">radio_init</text>
</a>
</g>
</g>
<!-- Node2&#45;&gt;Node3 -->
<g id="edge2" class="edge"><title>Node2&#45;&gt;Node3</title>
<path fill="none" stroke="midnightblue" d="M227.528,-130.488C245.943,-133.265 266.897,-136.425 283.14,-138.874"/>
<polygon fill="midnightblue" stroke="midnightblue" points="228.015,-127.022 217.605,-128.992 226.971,-133.944 228.015,-127.022"/>
</g>
<!-- Node5 -->
<g id="node5" class="node"><title>Node5</title>
<g id="a_node5"><a xlink:href="radio_8c.html#a5d08cbff96aee4274e785b49a98f14cd" target="_top" xlink:title="Turn radio to standby. ">
<polygon fill="white" stroke="black" points="270,-95.5 270,-114.5 353,-114.5 353,-95.5 270,-95.5"/>
<text text-anchor="middle" x="311.5" y="-102.5" font-family="Helvetica,sans-Serif" font-size="10.00">radio_stand_by</text>
</a>
</g>
</g>
<!-- Node2&#45;&gt;Node5 -->
<g id="edge4" class="edge"><title>Node2&#45;&gt;Node5</title>
<path fill="none" stroke="midnightblue" d="M227.748,-117.479C241.427,-115.416 256.49,-113.144 269.972,-111.111"/>
<polygon fill="midnightblue" stroke="midnightblue" points="226.971,-114.056 217.605,-119.008 228.015,-120.978 226.971,-114.056"/>
</g>
<!-- Node4 -->
<g id="node4" class="node"><title>Node4</title>
<g id="a_node4"><a xlink:href="main_8c.html#a840291bc02cba5474a4cb46a9b9566fe" target="_top" xlink:title="Main function. ">
<polygon fill="white" stroke="black" points="441.5,-133.5 441.5,-152.5 479.5,-152.5 479.5,-133.5 441.5,-133.5"/>
<text text-anchor="middle" x="460.5" y="-140.5" font-family="Helvetica,sans-Serif" font-size="10.00">main</text>
</a>
</g>
</g>
<!-- Node3&#45;&gt;Node4 -->
<g id="edge3" class="edge"><title>Node3&#45;&gt;Node4</title>
<path fill="none" stroke="midnightblue" d="M350.056,-143C379.247,-143 418.472,-143 441.168,-143"/>
<polygon fill="midnightblue" stroke="midnightblue" points="349.805,-139.5 339.805,-143 349.805,-146.5 349.805,-139.5"/>
</g>
<!-- Node6&#45;&gt;Node3 -->
<g id="edge6" class="edge"><title>Node6&#45;&gt;Node3</title>
<path fill="none" stroke="midnightblue" d="M214.695,-99.9744C218.181,-101.644 221.676,-103.344 225,-105 241.194,-113.066 244.526,-116.523 261,-124 268.292,-127.31 276.345,-130.564 283.799,-133.419"/>
<polygon fill="midnightblue" stroke="midnightblue" points="216.146,-96.7893 205.61,-95.6749 213.152,-103.116 216.146,-96.7893"/>
</g>
<!-- Node6&#45;&gt;Node5 -->
<g id="edge8" class="edge"><title>Node6&#45;&gt;Node5</title>
<path fill="none" stroke="midnightblue" d="M234.973,-93.611C246.468,-95.3444 258.544,-97.1653 269.583,-98.83"/>
<polygon fill="midnightblue" stroke="midnightblue" points="235.471,-90.1466 225.061,-92.1163 234.427,-97.0683 235.471,-90.1466"/>
</g>
<!-- Node7 -->
<g id="node7" class="node"><title>Node7</title>
<g id="a_node7"><a xlink:href="radio_8c.html#a841443a7db6e1c9caef95f3b7af5761f" target="_top" xlink:title="Radio main. ">
<polygon fill="white" stroke="black" points="279.5,-57.5 279.5,-76.5 343.5,-76.5 343.5,-57.5 279.5,-57.5"/>
<text text-anchor="middle" x="311.5" y="-64.5" font-family="Helvetica,sans-Serif" font-size="10.00">radio_main</text>
</a>
</g>
</g>
<!-- Node6&#45;&gt;Node7 -->
<g id="edge7" class="edge"><title>Node6&#45;&gt;Node7</title>
<path fill="none" stroke="midnightblue" d="M235.174,-78.3588C250.064,-76.1134 265.91,-73.7239 279.207,-71.7188"/>
<polygon fill="midnightblue" stroke="midnightblue" points="234.427,-74.9317 225.061,-79.8837 235.471,-81.8534 234.427,-74.9317"/>
</g>
<!-- Node8 -->
<g id="node8" class="node"><title>Node8</title>
<g id="a_node8"><a xlink:href="station__list_8h.html#a14396edaefab23c83e16fea65cc5db9d" target="_top" xlink:title="Handler to select the current station. ">
<polygon fill="white" stroke="black" points="261,-19.5 261,-38.5 362,-38.5 362,-19.5 261,-19.5"/>
<text text-anchor="middle" x="311.5" y="-26.5" font-family="Helvetica,sans-Serif" font-size="10.00">station_list_handler</text>
</a>
</g>
</g>
<!-- Node6&#45;&gt;Node8 -->
<g id="edge9" class="edge"><title>Node6&#45;&gt;Node8</title>
<path fill="none" stroke="midnightblue" d="M211.45,-71.8341C225.973,-64.3993 244.293,-55.3365 261,-48 268.501,-44.7061 276.77,-41.4061 284.365,-38.5023"/>
<polygon fill="midnightblue" stroke="midnightblue" points="209.79,-68.7523 202.51,-76.4502 213.001,-74.9721 209.79,-68.7523"/>
</g>
<!-- Node9 -->
<g id="node9" class="node"><title>Node9</title>
<g id="a_node9"><a xlink:href="radio__settings_8c.html#ab424f802ddd3a0570afec524d4f2091b" target="_top" xlink:title="Sets the frequency. ">
<polygon fill="white" stroke="black" points="398,-0.5 398,-19.5 523,-19.5 523,-0.5 398,-0.5"/>
<text text-anchor="middle" x="460.5" y="-7.5" font-family="Helvetica,sans-Serif" font-size="10.00">radio_settings_frequency</text>
</a>
</g>
</g>
<!-- Node8&#45;&gt;Node9 -->
<g id="edge10" class="edge"><title>Node8&#45;&gt;Node9</title>
<path fill="none" stroke="midnightblue" d="M372.347,-21.2647C380.735,-20.1805 389.369,-19.0646 397.791,-17.976"/>
<polygon fill="midnightblue" stroke="midnightblue" points="371.736,-17.8144 362.267,-22.5675 372.634,-24.7567 371.736,-17.8144"/>
</g>
<!-- Node10 -->
<g id="node10" class="node"><title>Node10</title>
<g id="a_node10"><a xlink:href="radio__settings_8c.html#a90d48a01d9b0ad794fb9416a2ce8f85e" target="_top" xlink:title="Seeks the next station/all available. ">
<polygon fill="white" stroke="black" points="404.5,-38.5 404.5,-57.5 516.5,-57.5 516.5,-38.5 404.5,-38.5"/>
<text text-anchor="middle" x="460.5" y="-45.5" font-family="Helvetica,sans-Serif" font-size="10.00">radio_settings_station</text>
</a>
</g>
</g>
<!-- Node8&#45;&gt;Node10 -->
<g id="edge11" class="edge"><title>Node8&#45;&gt;Node10</title>
<path fill="none" stroke="midnightblue" d="M372.314,-36.7311C382.952,-38.106 393.986,-39.5321 404.482,-40.8888"/>
<polygon fill="midnightblue" stroke="midnightblue" points="372.634,-33.2433 362.267,-35.4325 371.736,-40.1856 372.634,-33.2433"/>
</g>
</g>
</svg>
