<?xml version="1.0" encoding="UTF-8" standalone="no"?>
<!DOCTYPE svg PUBLIC "-//W3C//DTD SVG 1.1//EN"
 "http://www.w3.org/Graphics/SVG/1.1/DTD/svg11.dtd">
<!-- Generated by graphviz version 2.38.0 (20140413.2041)
 -->
<!-- Title: D:/GIT/fhradiov2/driver/si4735.h Pages: 1 -->
<svg width="374pt" height="341pt"
 viewBox="0.00 0.00 374.00 341.00" xmlns="http://www.w3.org/2000/svg" xmlns:xlink="http://www.w3.org/1999/xlink">
<g id="graph0" class="graph" transform="scale(1 1) rotate(0) translate(4 337)">
<title>D:/GIT/fhradiov2/driver/si4735.h</title>
<polygon fill="white" stroke="none" points="-4,4 -4,-337 370,-337 370,4 -4,4"/>
<!-- Node1 -->
<g id="node1" class="node"><title>Node1</title>
<polygon fill="#bfbfbf" stroke="black" points="103,-302.5 103,-332.5 213,-332.5 213,-302.5 103,-302.5"/>
<text text-anchor="start" x="111" y="-320.5" font-family="Helvetica,sans-Serif" font-size="10.00">D:/GIT/fhradiov2/driver</text>
<text text-anchor="middle" x="158" y="-309.5" font-family="Helvetica,sans-Serif" font-size="10.00">/si4735.h</text>
</g>
<!-- Node2 -->
<g id="node2" class="node"><title>Node2</title>
<polygon fill="white" stroke="#bfbfbf" points="71.5,-0.5 71.5,-19.5 120.5,-19.5 120.5,-0.5 71.5,-0.5"/>
<text text-anchor="middle" x="96" y="-7.5" font-family="Helvetica,sans-Serif" font-size="10.00">stdint.h</text>
</g>
<!-- Node1&#45;&gt;Node2 -->
<g id="edge1" class="edge"><title>Node1&#45;&gt;Node2</title>
<path fill="none" stroke="midnightblue" d="M113.568,-302.379C66.8353,-284.419 0,-248.507 0,-190 0,-190 0,-190 0,-132 0,-85.0583 44.8889,-45.736 73.2759,-25.5624"/>
<polygon fill="midnightblue" stroke="midnightblue" points="75.5625,-28.2386 81.8349,-19.6999 71.6068,-22.4634 75.5625,-28.2386"/>
</g>
<!-- Node3 -->
<g id="node3" class="node"><title>Node3</title>
<g id="a_node3"><a xlink:href="i2c_8h.html" target="_top" xlink:title="I2C implemtation for MSP430G2553, interrupt based. &#160;&#160;This implemtation based on examples from Texas I...">
<polygon fill="white" stroke="black" points="96.5,-241 96.5,-260 159.5,-260 159.5,-241 96.5,-241"/>
<text text-anchor="middle" x="128" y="-248" font-family="Helvetica,sans-Serif" font-size="10.00">driver/i2c.h</text>
</a>
</g>
</g>
<!-- Node1&#45;&gt;Node3 -->
<g id="edge2" class="edge"><title>Node1&#45;&gt;Node3</title>
<path fill="none" stroke="midnightblue" d="M151.49,-302.396C147.044,-292.763 141.114,-279.914 136.325,-269.537"/>
<polygon fill="midnightblue" stroke="midnightblue" points="139.381,-267.807 132.013,-260.195 133.026,-270.741 139.381,-267.807"/>
</g>
<!-- Node7 -->
<g id="node7" class="node"><title>Node7</title>
<g id="a_node7"><a xlink:href="timer_8h.html" target="_top" xlink:title="driver/timer.h">
<polygon fill="white" stroke="black" points="240,-179.5 240,-198.5 312,-198.5 312,-179.5 240,-179.5"/>
<text text-anchor="middle" x="276" y="-186.5" font-family="Helvetica,sans-Serif" font-size="10.00">driver/timer.h</text>
</a>
</g>
</g>
<!-- Node1&#45;&gt;Node7 -->
<g id="edge14" class="edge"><title>Node1&#45;&gt;Node7</title>
<path fill="none" stroke="midnightblue" d="M164.138,-302.234C172.125,-284.861 187.406,-255.325 207,-235 219.178,-222.368 235.531,-211.508 249.261,-203.623"/>
<polygon fill="midnightblue" stroke="midnightblue" points="251.2,-206.551 258.263,-198.654 247.817,-200.423 251.2,-206.551"/>
</g>
<!-- Node11 -->
<g id="node11" class="node"><title>Node11</title>
<g id="a_node11"><a xlink:href="radio__pin__mapping_8h.html" target="_top" xlink:title="settings/radio_pin\l_mapping.h">
<polygon fill="white" stroke="black" points="216.5,-235.5 216.5,-265.5 309.5,-265.5 309.5,-235.5 216.5,-235.5"/>
<text text-anchor="start" x="224.5" y="-253.5" font-family="Helvetica,sans-Serif" font-size="10.00">settings/radio_pin</text>
<text text-anchor="middle" x="263" y="-242.5" font-family="Helvetica,sans-Serif" font-size="10.00">_mapping.h</text>
</a>
</g>
</g>
<!-- Node1&#45;&gt;Node11 -->
<g id="edge15" class="edge"><title>Node1&#45;&gt;Node11</title>
<path fill="none" stroke="midnightblue" d="M180.783,-302.396C195.644,-293.197 215.24,-281.066 231.573,-270.955"/>
<polygon fill="midnightblue" stroke="midnightblue" points="233.601,-273.816 240.261,-265.577 229.916,-267.864 233.601,-273.816"/>
</g>
<!-- Node3&#45;&gt;Node2 -->
<g id="edge3" class="edge"><title>Node3&#45;&gt;Node2</title>
<path fill="none" stroke="midnightblue" d="M119.165,-240.869C102.634,-223.97 67.7266,-184.525 57,-143 46.2894,-101.537 69.6869,-53.4377 84.6871,-28.313"/>
<polygon fill="midnightblue" stroke="midnightblue" points="87.803,-29.9304 90.1173,-19.5913 81.8606,-26.2306 87.803,-29.9304"/>
</g>
<!-- Node4 -->
<g id="node4" class="node"><title>Node4</title>
<polygon fill="white" stroke="#bfbfbf" points="66.5,-123.5 66.5,-142.5 125.5,-142.5 125.5,-123.5 66.5,-123.5"/>
<text text-anchor="middle" x="96" y="-130.5" font-family="Helvetica,sans-Serif" font-size="10.00">msp430.h</text>
</g>
<!-- Node3&#45;&gt;Node4 -->
<g id="edge4" class="edge"><title>Node3&#45;&gt;Node4</title>
<path fill="none" stroke="midnightblue" d="M120.177,-241C112.066,-231.557 99.9018,-215.462 95,-199 90.516,-183.941 91.2048,-166.038 92.7662,-152.837"/>
<polygon fill="midnightblue" stroke="midnightblue" points="96.274,-153.038 94.255,-142.637 89.3474,-152.026 96.274,-153.038"/>
</g>
<!-- Node5 -->
<g id="node5" class="node"><title>Node5</title>
<polygon fill="white" stroke="#bfbfbf" points="104,-179.5 104,-198.5 152,-198.5 152,-179.5 104,-179.5"/>
<text text-anchor="middle" x="128" y="-186.5" font-family="Helvetica,sans-Serif" font-size="10.00">stdlib.h</text>
</g>
<!-- Node3&#45;&gt;Node5 -->
<g id="edge5" class="edge"><title>Node3&#45;&gt;Node5</title>
<path fill="none" stroke="midnightblue" d="M128,-240.975C128,-232.58 128,-219.481 128,-208.663"/>
<polygon fill="midnightblue" stroke="midnightblue" points="131.5,-208.509 128,-198.509 124.5,-208.509 131.5,-208.509"/>
</g>
<!-- Node6 -->
<g id="node6" class="node"><title>Node6</title>
<polygon fill="white" stroke="#bfbfbf" points="170,-179.5 170,-198.5 222,-198.5 222,-179.5 170,-179.5"/>
<text text-anchor="middle" x="196" y="-186.5" font-family="Helvetica,sans-Serif" font-size="10.00">stdarg.h</text>
</g>
<!-- Node3&#45;&gt;Node6 -->
<g id="edge6" class="edge"><title>Node3&#45;&gt;Node6</title>
<path fill="none" stroke="midnightblue" d="M137.743,-240.975C148.347,-231.697 165.519,-216.671 178.479,-205.331"/>
<polygon fill="midnightblue" stroke="midnightblue" points="181.054,-207.728 186.275,-198.509 176.445,-202.46 181.054,-207.728"/>
</g>
<!-- Node3&#45;&gt;Node7 -->
<g id="edge7" class="edge"><title>Node3&#45;&gt;Node7</title>
<path fill="none" stroke="midnightblue" d="M149.205,-240.975C174.372,-230.857 216.54,-213.905 245.279,-202.351"/>
<polygon fill="midnightblue" stroke="midnightblue" points="246.862,-205.487 254.835,-198.509 244.251,-198.992 246.862,-205.487"/>
</g>
<!-- Node7&#45;&gt;Node2 -->
<g id="edge9" class="edge"><title>Node7&#45;&gt;Node2</title>
<path fill="none" stroke="midnightblue" d="M255.192,-179.401C237.869,-171.584 213.186,-158.86 195,-143 155.391,-108.456 121.707,-55.6275 105.799,-28.4651"/>
<polygon fill="midnightblue" stroke="midnightblue" points="108.781,-26.6285 100.765,-19.7005 102.711,-30.1151 108.781,-26.6285"/>
</g>
<!-- Node7&#45;&gt;Node4 -->
<g id="edge8" class="edge"><title>Node7&#45;&gt;Node4</title>
<path fill="none" stroke="midnightblue" d="M247.478,-179.444C216.934,-170.28 168.292,-155.688 134.397,-145.519"/>
<polygon fill="midnightblue" stroke="midnightblue" points="134.972,-142.038 124.388,-142.516 132.961,-148.742 134.972,-142.038"/>
</g>
<!-- Node8 -->
<g id="node8" class="node"><title>Node8</title>
<g id="a_node8"><a xlink:href="radio__configuration_8h.html" target="_top" xlink:title="settings/radio_configuration.h">
<polygon fill="white" stroke="black" points="204.5,-123.5 204.5,-142.5 347.5,-142.5 347.5,-123.5 204.5,-123.5"/>
<text text-anchor="middle" x="276" y="-130.5" font-family="Helvetica,sans-Serif" font-size="10.00">settings/radio_configuration.h</text>
</a>
</g>
</g>
<!-- Node7&#45;&gt;Node8 -->
<g id="edge10" class="edge"><title>Node7&#45;&gt;Node8</title>
<path fill="none" stroke="midnightblue" d="M276,-179.083C276,-172.006 276,-161.861 276,-152.986"/>
<polygon fill="midnightblue" stroke="midnightblue" points="279.5,-152.751 276,-142.751 272.5,-152.751 279.5,-152.751"/>
</g>
<!-- Node9 -->
<g id="node9" class="node"><title>Node9</title>
<g id="a_node9"><a xlink:href="si4735__cmd__prop_8h.html" target="_top" xlink:title="driver/include/si4735\l_cmd_prop.h">
<polygon fill="white" stroke="black" points="182,-56.5 182,-86.5 286,-86.5 286,-56.5 182,-56.5"/>
<text text-anchor="start" x="190" y="-74.5" font-family="Helvetica,sans-Serif" font-size="10.00">driver/include/si4735</text>
<text text-anchor="middle" x="234" y="-63.5" font-family="Helvetica,sans-Serif" font-size="10.00">_cmd_prop.h</text>
</a>
</g>
</g>
<!-- Node8&#45;&gt;Node9 -->
<g id="edge11" class="edge"><title>Node8&#45;&gt;Node9</title>
<path fill="none" stroke="midnightblue" d="M269.982,-123.475C264.719,-116.019 256.837,-104.852 249.79,-94.8685"/>
<polygon fill="midnightblue" stroke="midnightblue" points="252.525,-92.6743 243.899,-86.523 246.806,-96.7111 252.525,-92.6743"/>
</g>
<!-- Node10 -->
<g id="node10" class="node"><title>Node10</title>
<g id="a_node10"><a xlink:href="libs_2time_8h.html" target="_top" xlink:title="libs/time.h">
<polygon fill="white" stroke="black" points="304,-62 304,-81 366,-81 366,-62 304,-62"/>
<text text-anchor="middle" x="335" y="-69" font-family="Helvetica,sans-Serif" font-size="10.00">libs/time.h</text>
</a>
</g>
</g>
<!-- Node8&#45;&gt;Node10 -->
<g id="edge13" class="edge"><title>Node8&#45;&gt;Node10</title>
<path fill="none" stroke="midnightblue" d="M284.453,-123.475C293.566,-114.285 308.27,-99.4563 319.476,-88.156"/>
<polygon fill="midnightblue" stroke="midnightblue" points="322.007,-90.5744 326.562,-81.0091 317.036,-85.6455 322.007,-90.5744"/>
</g>
<!-- Node9&#45;&gt;Node2 -->
<g id="edge12" class="edge"><title>Node9&#45;&gt;Node2</title>
<path fill="none" stroke="midnightblue" d="M201.296,-56.3993C178.245,-46.4608 147.64,-33.2649 125.368,-23.6625"/>
<polygon fill="midnightblue" stroke="midnightblue" points="126.649,-20.4031 116.08,-19.6578 123.877,-26.8311 126.649,-20.4031"/>
</g>
</g>
</svg>
