<?xml version="1.0" encoding="UTF-8" standalone="no"?>
<!DOCTYPE svg PUBLIC "-//W3C//DTD SVG 1.1//EN"
 "http://www.w3.org/Graphics/SVG/1.1/DTD/svg11.dtd">
<!-- Generated by graphviz version 2.38.0 (20140413.2041)
 -->
<!-- Title: station_list_display Pages: 1 -->
<svg width="782pt" height="47pt"
 viewBox="0.00 0.00 782.00 47.00" xmlns="http://www.w3.org/2000/svg" xmlns:xlink="http://www.w3.org/1999/xlink">
<g id="graph0" class="graph" transform="scale(1 1) rotate(0) translate(4 43)">
<title>station_list_display</title>
<polygon fill="white" stroke="none" points="-4,4 -4,-43 778,-43 778,4 -4,4"/>
<!-- Node1 -->
<g id="node1" class="node"><title>Node1</title>
<polygon fill="#bfbfbf" stroke="black" points="0,-19.5 0,-38.5 100,-38.5 100,-19.5 0,-19.5"/>
<text text-anchor="middle" x="50" y="-26.5" font-family="Helvetica,sans-Serif" font-size="10.00">station_list_display</text>
</g>
<!-- Node2 -->
<g id="node2" class="node"><title>Node2</title>
<g id="a_node2"><a xlink:href="station__list_8h.html#a5b16204c2b6824ce89364d614f074b20" target="_top" xlink:title="station_list_handler">
<polygon fill="white" stroke="black" points="136,-19.5 136,-38.5 237,-38.5 237,-19.5 136,-19.5"/>
<text text-anchor="middle" x="186.5" y="-26.5" font-family="Helvetica,sans-Serif" font-size="10.00">station_list_handler</text>
</a>
</g>
</g>
<!-- Node1&#45;&gt;Node2 -->
<g id="edge1" class="edge"><title>Node1&#45;&gt;Node2</title>
<path fill="none" stroke="midnightblue" d="M110.486,-29C118.918,-29 127.515,-29 135.737,-29"/>
<polygon fill="midnightblue" stroke="midnightblue" points="110.319,-25.5001 100.319,-29 110.319,-32.5001 110.319,-25.5001"/>
</g>
<!-- Node3 -->
<g id="node3" class="node"><title>Node3</title>
<g id="a_node3"><a xlink:href="radio_8c.html#a832a684fc60104296fc975a7608f92b4" target="_top" xlink:title="radio_settings">
<polygon fill="white" stroke="black" points="394,-19.5 394,-38.5 471,-38.5 471,-19.5 394,-19.5"/>
<text text-anchor="middle" x="432.5" y="-26.5" font-family="Helvetica,sans-Serif" font-size="10.00">radio_settings</text>
</a>
</g>
</g>
<!-- Node2&#45;&gt;Node3 -->
<g id="edge2" class="edge"><title>Node2&#45;&gt;Node3</title>
<path fill="none" stroke="midnightblue" d="M247.266,-29C293.039,-29 354.774,-29 393.865,-29"/>
<polygon fill="midnightblue" stroke="midnightblue" points="247.171,-25.5001 237.171,-29 247.171,-32.5001 247.171,-25.5001"/>
</g>
<!-- Node7 -->
<g id="node7" class="node"><title>Node7</title>
<g id="a_node7"><a xlink:href="radio_8c.html#aae41d271062b3f94cccf4fb5996b04a2" target="_top" xlink:title="radio_frequency">
<polygon fill="white" stroke="black" points="273,-0.5 273,-19.5 358,-19.5 358,-0.5 273,-0.5"/>
<text text-anchor="middle" x="315.5" y="-7.5" font-family="Helvetica,sans-Serif" font-size="10.00">radio_frequency</text>
</a>
</g>
</g>
<!-- Node2&#45;&gt;Node7 -->
<g id="edge6" class="edge"><title>Node2&#45;&gt;Node7</title>
<path fill="none" stroke="midnightblue" d="M247.296,-20.0542C255.853,-18.774 264.5,-17.4803 272.613,-16.2666"/>
<polygon fill="midnightblue" stroke="midnightblue" points="246.701,-16.6041 237.329,-21.5452 247.737,-23.527 246.701,-16.6041"/>
</g>
<!-- Node4 -->
<g id="node4" class="node"><title>Node4</title>
<g id="a_node4"><a xlink:href="menu_8c.html#a5d9c190838195d7872fc7067269e20fa" target="_top" xlink:title="menu_function">
<polygon fill="white" stroke="black" points="507,-19.5 507,-38.5 587,-38.5 587,-19.5 507,-19.5"/>
<text text-anchor="middle" x="547" y="-26.5" font-family="Helvetica,sans-Serif" font-size="10.00">menu_function</text>
</a>
</g>
</g>
<!-- Node3&#45;&gt;Node4 -->
<g id="edge3" class="edge"><title>Node3&#45;&gt;Node4</title>
<path fill="none" stroke="midnightblue" d="M481.474,-29C489.985,-29 498.755,-29 506.981,-29"/>
<polygon fill="midnightblue" stroke="midnightblue" points="481.274,-25.5001 471.274,-29 481.274,-32.5001 481.274,-25.5001"/>
</g>
<!-- Node5 -->
<g id="node5" class="node"><title>Node5</title>
<g id="a_node5"><a xlink:href="menu_8c.html#aaf2a075d3159f7eeab42012941a3437f" target="_top" xlink:title="menu_handler">
<polygon fill="white" stroke="black" points="623,-19.5 623,-38.5 700,-38.5 700,-19.5 623,-19.5"/>
<text text-anchor="middle" x="661.5" y="-26.5" font-family="Helvetica,sans-Serif" font-size="10.00">menu_handler</text>
</a>
</g>
</g>
<!-- Node4&#45;&gt;Node5 -->
<g id="edge4" class="edge"><title>Node4&#45;&gt;Node5</title>
<path fill="none" stroke="midnightblue" d="M597.262,-29C605.783,-29 614.52,-29 622.676,-29"/>
<polygon fill="midnightblue" stroke="midnightblue" points="597.031,-25.5001 587.031,-29 597.031,-32.5001 597.031,-25.5001"/>
</g>
<!-- Node6 -->
<g id="node6" class="node"><title>Node6</title>
<g id="a_node6"><a xlink:href="main_8c.html#a840291bc02cba5474a4cb46a9b9566fe" target="_top" xlink:title="main">
<polygon fill="white" stroke="black" points="736,-19.5 736,-38.5 774,-38.5 774,-19.5 736,-19.5"/>
<text text-anchor="middle" x="755" y="-26.5" font-family="Helvetica,sans-Serif" font-size="10.00">main</text>
</a>
</g>
</g>
<!-- Node5&#45;&gt;Node6 -->
<g id="edge5" class="edge"><title>Node5&#45;&gt;Node6</title>
<path fill="none" stroke="midnightblue" d="M710.362,-29C719.347,-29 728.223,-29 735.601,-29"/>
<polygon fill="midnightblue" stroke="midnightblue" points="710.245,-25.5001 700.245,-29 710.245,-32.5001 710.245,-25.5001"/>
</g>
<!-- Node7&#45;&gt;Node3 -->
<g id="edge7" class="edge"><title>Node7&#45;&gt;Node3</title>
<path fill="none" stroke="midnightblue" d="M368.077,-18.5214C376.759,-19.9558 385.622,-21.4202 393.865,-22.782"/>
<polygon fill="midnightblue" stroke="midnightblue" points="368.454,-15.0364 358.018,-16.8594 367.313,-21.9428 368.454,-15.0364"/>
</g>
</g>
</svg>
