<?xml version="1.0" encoding="UTF-8" standalone="no"?>
<!DOCTYPE svg PUBLIC "-//W3C//DTD SVG 1.1//EN"
 "http://www.w3.org/Graphics/SVG/1.1/DTD/svg11.dtd">
<!-- Generated by graphviz version 2.38.0 (20140413.2041)
 -->
<!-- Title: D:/GIT/fhradiov2/system/station_list_struct.h Pages: 1 -->
<!--zoomable 374 -->
<svg id="main" version="1.1" xmlns="http://www.w3.org/2000/svg" xmlns:xlink="http://www.w3.org/1999/xlink" xml:space="preserve" onload="init(evt)">
<style type="text/css"><![CDATA[
.edge:hover path { stroke: red; }
.edge:hover polygon { stroke: red; fill: red; }
]]></style>
<script type="text/javascript"><![CDATA[
var edges = document.getElementsByTagName('g');
if (edges && edges.length) {
  for (var i=0;i<edges.length;i++) {
    if (edges[i].id.substr(0,4)=='edge') {
      edges[i].setAttribute('class','edge');
    }
  }
}
]]></script>
        <defs>
                <circle id="rim" cx="0" cy="0" r="7"/>
                <circle id="rim2" cx="0" cy="0" r="3.5"/>
                <g id="zoomPlus">
                        <use xlink:href="#rim" fill="#404040">
                                <set attributeName="fill" to="#808080" begin="zoomplus.mouseover" end="zoomplus.mouseout"/>
                        </use>
                        <path d="M-4,0h8M0,-4v8" fill="none" stroke="white" stroke-width="1.5" pointer-events="none"/>
                </g>
                <g id="zoomMin">
                        <use xlink:href="#rim" fill="#404040">
                                <set attributeName="fill" to="#808080" begin="zoomminus.mouseover" end="zoomminus.mouseout"/>
                        </use>
                        <path d="M-4,0h8" fill="none" stroke="white" stroke-width="1.5" pointer-events="none"/>
                </g>
                <g id="dirArrow">
                        <path fill="none" stroke="white" stroke-width="1.5" d="M0,-3.0v7 M-2.5,-0.5L0,-3.0L2.5,-0.5"/>
                </g>
               <g id="resetDef">
                       <use xlink:href="#rim2" fill="#404040">
                               <set attributeName="fill" to="#808080" begin="reset.mouseover" end="reset.mouseout"/>
                       </use>
               </g>
        </defs>

<script type="text/javascript">
var viewWidth = 983;
var viewHeight = 374;
var sectionId = 'dynsection-1';
</script>
<script xlink:href="svgpan.js"/>
<svg id="graph" class="graph">
<g id="viewport">
<title>D:/GIT/fhradiov2/system/station_list_struct.h</title>
<polygon fill="white" stroke="none" points="-4,4 -4,-370 978.5,-370 978.5,4 -4,4"/>
<!-- Node1 -->
<g id="node1" class="node"><title>Node1</title>
<polygon fill="#bfbfbf" stroke="black" points="603,-335.5 603,-365.5 723,-365.5 723,-335.5 603,-335.5"/>
<text text-anchor="start" x="611" y="-353.5" font-family="Helvetica,sans-Serif" font-size="10.00">D:/GIT/fhradiov2/system</text>
<text text-anchor="middle" x="663" y="-342.5" font-family="Helvetica,sans-Serif" font-size="10.00">/station_list_struct.h</text>
</g>
<!-- Node2 -->
<g id="node2" class="node"><title>Node2</title>
<g id="a_node2"><a xlink:href="station__list__struct_8c.html" target="_top" xlink:title="D:/GIT/fhradiov2/system\l/src/station_list_struct.c">
<polygon fill="white" stroke="black" points="513,-268.5 513,-298.5 635,-298.5 635,-268.5 513,-268.5"/>
<text text-anchor="start" x="521" y="-286.5" font-family="Helvetica,sans-Serif" font-size="10.00">D:/GIT/fhradiov2/system</text>
<text text-anchor="middle" x="574" y="-275.5" font-family="Helvetica,sans-Serif" font-size="10.00">/src/station_list_struct.c</text>
</a>
</g>
</g>
<!-- Node1&#45;&gt;Node2 -->
<g id="edge1" class="edge"><title>Node1&#45;&gt;Node2</title>
<path fill="none" stroke="midnightblue" d="M635.548,-329.451C621.857,-319.452 605.629,-307.6 593.274,-298.577"/>
<polygon fill="midnightblue" stroke="midnightblue" points="633.548,-332.324 643.688,-335.396 637.677,-326.672 633.548,-332.324"/>
</g>
<!-- Node3 -->
<g id="node3" class="node"><title>Node3</title>
<g id="a_node3"><a xlink:href="station__list_8h.html" target="_top" xlink:title="D:/GIT/fhradiov2/system\l/station_list.h">
<polygon fill="white" stroke="black" points="691,-268.5 691,-298.5 811,-298.5 811,-268.5 691,-268.5"/>
<text text-anchor="start" x="699" y="-286.5" font-family="Helvetica,sans-Serif" font-size="10.00">D:/GIT/fhradiov2/system</text>
<text text-anchor="middle" x="751" y="-275.5" font-family="Helvetica,sans-Serif" font-size="10.00">/station_list.h</text>
</a>
</g>
</g>
<!-- Node1&#45;&gt;Node3 -->
<g id="edge2" class="edge"><title>Node1&#45;&gt;Node3</title>
<path fill="none" stroke="midnightblue" d="M690.143,-329.451C703.681,-319.452 719.727,-307.6 731.943,-298.577"/>
<polygon fill="midnightblue" stroke="midnightblue" points="688.059,-326.639 682.095,-335.396 692.218,-332.27 688.059,-326.639"/>
</g>
<!-- Node4 -->
<g id="node4" class="node"><title>Node4</title>
<g id="a_node4"><a xlink:href="radio_8h.html" target="_top" xlink:title="D:/GIT/fhradiov2/radio\l/radio.h">
<polygon fill="white" stroke="black" points="611.5,-201.5 611.5,-231.5 720.5,-231.5 720.5,-201.5 611.5,-201.5"/>
<text text-anchor="start" x="619.5" y="-219.5" font-family="Helvetica,sans-Serif" font-size="10.00">D:/GIT/fhradiov2/radio</text>
<text text-anchor="middle" x="666" y="-208.5" font-family="Helvetica,sans-Serif" font-size="10.00">/radio.h</text>
</a>
</g>
</g>
<!-- Node3&#45;&gt;Node4 -->
<g id="edge3" class="edge"><title>Node3&#45;&gt;Node4</title>
<path fill="none" stroke="midnightblue" d="M718.493,-262.451C704.64,-252.452 689.346,-240.6 678.733,-231.577"/>
<polygon fill="midnightblue" stroke="midnightblue" points="716.696,-265.467 726.878,-268.396 720.745,-259.757 716.696,-265.467"/>
</g>
<!-- Node14 -->
<g id="node14" class="node"><title>Node14</title>
<g id="a_node14"><a xlink:href="radio__settings_8h.html" target="_top" xlink:title="D:/GIT/fhradiov2/radio\l/radio_settings.h">
<polygon fill="white" stroke="black" points="865.5,-134.5 865.5,-164.5 974.5,-164.5 974.5,-134.5 865.5,-134.5"/>
<text text-anchor="start" x="873.5" y="-152.5" font-family="Helvetica,sans-Serif" font-size="10.00">D:/GIT/fhradiov2/radio</text>
<text text-anchor="middle" x="920" y="-141.5" font-family="Helvetica,sans-Serif" font-size="10.00">/radio_settings.h</text>
</a>
</g>
</g>
<!-- Node3&#45;&gt;Node14 -->
<g id="edge29" class="edge"><title>Node3&#45;&gt;Node14</title>
<path fill="none" stroke="midnightblue" d="M750.651,-258.22C751.681,-240.317 755.937,-216.478 770,-201 783.166,-186.51 828.152,-172.504 865.453,-162.933"/>
<polygon fill="midnightblue" stroke="midnightblue" points="747.152,-258.125 750.366,-268.22 754.149,-258.324 747.152,-258.125"/>
</g>
<!-- Node21 -->
<g id="node21" class="node"><title>Node21</title>
<g id="a_node21"><a xlink:href="station__list_8c.html" target="_top" xlink:title="D:/GIT/fhradiov2/system\l/src/station_list.c">
<polygon fill="white" stroke="black" points="779,-201.5 779,-231.5 899,-231.5 899,-201.5 779,-201.5"/>
<text text-anchor="start" x="787" y="-219.5" font-family="Helvetica,sans-Serif" font-size="10.00">D:/GIT/fhradiov2/system</text>
<text text-anchor="middle" x="839" y="-208.5" font-family="Helvetica,sans-Serif" font-size="10.00">/src/station_list.c</text>
</a>
</g>
</g>
<!-- Node3&#45;&gt;Node21 -->
<g id="edge30" class="edge"><title>Node3&#45;&gt;Node21</title>
<path fill="none" stroke="midnightblue" d="M778.143,-262.451C791.681,-252.452 807.727,-240.6 819.943,-231.577"/>
<polygon fill="midnightblue" stroke="midnightblue" points="776.059,-259.639 770.095,-268.396 780.218,-265.27 776.059,-259.639"/>
</g>
<!-- Node4&#45;&gt;Node1 -->
<g id="edge28" class="edge"><title>Node4&#45;&gt;Node1</title>
<path fill="none" stroke="midnightblue" d="M665.447,-241.851C664.822,-269.313 663.829,-313.044 663.321,-335.374"/>
<polygon fill="midnightblue" stroke="midnightblue" points="668.953,-241.602 665.681,-231.525 661.955,-241.443 668.953,-241.602"/>
</g>
<!-- Node4&#45;&gt;Node3 -->
<g id="edge27" class="edge"><title>Node4&#45;&gt;Node3</title>
<path fill="none" stroke="midnightblue" d="M698.464,-237.518C712.314,-247.514 727.612,-259.367 738.235,-268.396"/>
<polygon fill="midnightblue" stroke="midnightblue" points="700.265,-234.504 690.083,-231.577 696.217,-240.215 700.265,-234.504"/>
</g>
<!-- Node5 -->
<g id="node5" class="node"><title>Node5</title>
<g id="a_node5"><a xlink:href="menu_8h.html" target="_top" xlink:title="D:/GIT/fhradiov2/menu\l/menu.h">
<polygon fill="white" stroke="black" points="142,-134.5 142,-164.5 254,-164.5 254,-134.5 142,-134.5"/>
<text text-anchor="start" x="150" y="-152.5" font-family="Helvetica,sans-Serif" font-size="10.00">D:/GIT/fhradiov2/menu</text>
<text text-anchor="middle" x="198" y="-141.5" font-family="Helvetica,sans-Serif" font-size="10.00">/menu.h</text>
</a>
</g>
</g>
<!-- Node4&#45;&gt;Node5 -->
<g id="edge4" class="edge"><title>Node4&#45;&gt;Node5</title>
<path fill="none" stroke="midnightblue" d="M601.575,-207.936C525.426,-198.315 395.268,-181.023 284,-165 274.339,-163.609 264.133,-162.096 254.243,-160.591"/>
<polygon fill="midnightblue" stroke="midnightblue" points="601.14,-211.408 611.498,-209.184 602.013,-204.463 601.14,-211.408"/>
</g>
<!-- Node9 -->
<g id="node9" class="node"><title>Node9</title>
<g id="a_node9"><a xlink:href="handler_8h.html" target="_top" xlink:title="D:/GIT/fhradiov2/system\l/handler.h">
<polygon fill="white" stroke="black" points="260,-67.5 260,-97.5 380,-97.5 380,-67.5 260,-67.5"/>
<text text-anchor="start" x="268" y="-85.5" font-family="Helvetica,sans-Serif" font-size="10.00">D:/GIT/fhradiov2/system</text>
<text text-anchor="middle" x="320" y="-74.5" font-family="Helvetica,sans-Serif" font-size="10.00">/handler.h</text>
</a>
</g>
</g>
<!-- Node4&#45;&gt;Node9 -->
<g id="edge20" class="edge"><title>Node4&#45;&gt;Node9</title>
<path fill="none" stroke="midnightblue" d="M601.254,-215.146C513.135,-213.175 362.229,-204.013 326,-165 309.201,-146.911 312.467,-115.761 316.282,-97.661"/>
<polygon fill="midnightblue" stroke="midnightblue" points="601.347,-218.648 611.415,-215.347 601.486,-211.65 601.347,-218.648"/>
</g>
<!-- Node12 -->
<g id="node12" class="node"><title>Node12</title>
<g id="a_node12"><a xlink:href="radio__display_8h.html" target="_top" xlink:title="D:/GIT/fhradiov2/radio\l/radio_display.h">
<polygon fill="white" stroke="black" points="611.5,-134.5 611.5,-164.5 720.5,-164.5 720.5,-134.5 611.5,-134.5"/>
<text text-anchor="start" x="619.5" y="-152.5" font-family="Helvetica,sans-Serif" font-size="10.00">D:/GIT/fhradiov2/radio</text>
<text text-anchor="middle" x="666" y="-141.5" font-family="Helvetica,sans-Serif" font-size="10.00">/radio_display.h</text>
</a>
</g>
</g>
<!-- Node4&#45;&gt;Node12 -->
<g id="edge13" class="edge"><title>Node4&#45;&gt;Node12</title>
<path fill="none" stroke="midnightblue" d="M659.455,-191.403C659.005,-182.37 659.296,-172.408 660.325,-164.577"/>
<polygon fill="midnightblue" stroke="midnightblue" points="655.97,-191.736 660.322,-201.396 662.944,-191.131 655.97,-191.736"/>
</g>
<!-- Node4&#45;&gt;Node14 -->
<g id="edge16" class="edge"><title>Node4&#45;&gt;Node14</title>
<path fill="none" stroke="midnightblue" d="M725.039,-198.862C767.432,-187.712 824.071,-173.261 865.418,-163.07"/>
<polygon fill="midnightblue" stroke="midnightblue" points="723.909,-195.54 715.134,-201.476 725.696,-202.308 723.909,-195.54"/>
</g>
<!-- Node16 -->
<g id="node16" class="node"><title>Node16</title>
<g id="a_node16"><a xlink:href="radio_8c.html" target="_top" xlink:title="D:/GIT/fhradiov2/radio\l/src/radio.c">
<polygon fill="white" stroke="black" points="738.5,-134.5 738.5,-164.5 847.5,-164.5 847.5,-134.5 738.5,-134.5"/>
<text text-anchor="start" x="746.5" y="-152.5" font-family="Helvetica,sans-Serif" font-size="10.00">D:/GIT/fhradiov2/radio</text>
<text text-anchor="middle" x="793" y="-141.5" font-family="Helvetica,sans-Serif" font-size="10.00">/src/radio.c</text>
</a>
</g>
</g>
<!-- Node4&#45;&gt;Node16 -->
<g id="edge19" class="edge"><title>Node4&#45;&gt;Node16</title>
<path fill="none" stroke="midnightblue" d="M702.704,-196.714C722.734,-186.463 747.119,-173.983 765.497,-164.577"/>
<polygon fill="midnightblue" stroke="midnightblue" points="700.864,-193.724 693.557,-201.396 704.054,-199.956 700.864,-193.724"/>
</g>
<!-- Node17 -->
<g id="node17" class="node"><title>Node17</title>
<g id="a_node17"><a xlink:href="rds_8h.html" target="_top" xlink:title="D:/GIT/fhradiov2/system\l/rds.h">
<polygon fill="white" stroke="black" points="335,-134.5 335,-164.5 455,-164.5 455,-134.5 335,-134.5"/>
<text text-anchor="start" x="343" y="-152.5" font-family="Helvetica,sans-Serif" font-size="10.00">D:/GIT/fhradiov2/system</text>
<text text-anchor="middle" x="395" y="-141.5" font-family="Helvetica,sans-Serif" font-size="10.00">/rds.h</text>
</a>
</g>
</g>
<!-- Node4&#45;&gt;Node17 -->
<g id="edge21" class="edge"><title>Node4&#45;&gt;Node17</title>
<path fill="none" stroke="midnightblue" d="M601.559,-200.044C556.655,-189.273 497.231,-175.02 453.652,-164.568"/>
<polygon fill="midnightblue" stroke="midnightblue" points="600.945,-203.495 611.485,-202.424 602.577,-196.689 600.945,-203.495"/>
</g>
<!-- Node19 -->
<g id="node19" class="node"><title>Node19</title>
<g id="a_node19"><a xlink:href="rsq_8h.html" target="_top" xlink:title="D:/GIT/fhradiov2/system\l/rsq.h">
<polygon fill="white" stroke="black" points="473,-134.5 473,-164.5 593,-164.5 593,-134.5 473,-134.5"/>
<text text-anchor="start" x="481" y="-152.5" font-family="Helvetica,sans-Serif" font-size="10.00">D:/GIT/fhradiov2/system</text>
<text text-anchor="middle" x="533" y="-141.5" font-family="Helvetica,sans-Serif" font-size="10.00">/rsq.h</text>
</a>
</g>
</g>
<!-- Node4&#45;&gt;Node19 -->
<g id="edge24" class="edge"><title>Node4&#45;&gt;Node19</title>
<path fill="none" stroke="midnightblue" d="M628.13,-196.992C607.049,-186.689 581.223,-174.068 561.803,-164.577"/>
<polygon fill="midnightblue" stroke="midnightblue" points="626.62,-200.15 637.141,-201.396 629.693,-193.86 626.62,-200.15"/>
</g>
<!-- Node5&#45;&gt;Node4 -->
<g id="edge9" class="edge"><title>Node5&#45;&gt;Node4</title>
<path fill="none" stroke="midnightblue" d="M264.143,-159.415C276.765,-161.298 289.817,-163.246 302,-165 411.795,-180.81 539.985,-197.858 611.276,-207.55"/>
<polygon fill="midnightblue" stroke="midnightblue" points="264.543,-155.936 254.137,-157.923 263.511,-162.859 264.543,-155.936"/>
</g>
<!-- Node6 -->
<g id="node6" class="node"><title>Node6</title>
<g id="a_node6"><a xlink:href="menu__struct_8h.html" target="_top" xlink:title="D:/GIT/fhradiov2/menu\l/menu_struct.h">
<polygon fill="white" stroke="black" points="0,-67.5 0,-97.5 112,-97.5 112,-67.5 0,-67.5"/>
<text text-anchor="start" x="8" y="-85.5" font-family="Helvetica,sans-Serif" font-size="10.00">D:/GIT/fhradiov2/menu</text>
<text text-anchor="middle" x="56" y="-74.5" font-family="Helvetica,sans-Serif" font-size="10.00">/menu_struct.h</text>
</a>
</g>
</g>
<!-- Node5&#45;&gt;Node6 -->
<g id="edge5" class="edge"><title>Node5&#45;&gt;Node6</title>
<path fill="none" stroke="midnightblue" d="M152.037,-130.269C128.468,-119.916 100.739,-107.153 81.0769,-97.5765"/>
<polygon fill="midnightblue" stroke="midnightblue" points="150.944,-133.61 161.51,-134.396 153.74,-127.193 150.944,-133.61"/>
</g>
<!-- Node8 -->
<g id="node8" class="node"><title>Node8</title>
<g id="a_node8"><a xlink:href="menu_8c.html" target="_top" xlink:title="D:/GIT/fhradiov2/menu\l/src/menu.c">
<polygon fill="white" stroke="black" points="130,-67.5 130,-97.5 242,-97.5 242,-67.5 130,-67.5"/>
<text text-anchor="start" x="138" y="-85.5" font-family="Helvetica,sans-Serif" font-size="10.00">D:/GIT/fhradiov2/menu</text>
<text text-anchor="middle" x="186" y="-74.5" font-family="Helvetica,sans-Serif" font-size="10.00">/src/menu.c</text>
</a>
</g>
</g>
<!-- Node5&#45;&gt;Node8 -->
<g id="edge8" class="edge"><title>Node5&#45;&gt;Node8</title>
<path fill="none" stroke="midnightblue" d="M193.551,-124.403C191.884,-115.37 190.045,-105.408 188.599,-97.5765"/>
<polygon fill="midnightblue" stroke="midnightblue" points="190.139,-125.198 195.396,-134.396 197.022,-123.927 190.139,-125.198"/>
</g>
<!-- Node5&#45;&gt;Node9 -->
<g id="edge10" class="edge"><title>Node5&#45;&gt;Node9</title>
<path fill="none" stroke="midnightblue" d="M233.521,-129.575C252.712,-119.35 276.005,-106.94 293.579,-97.5765"/>
<polygon fill="midnightblue" stroke="midnightblue" points="231.652,-126.605 224.472,-134.396 234.943,-132.783 231.652,-126.605"/>
</g>
<!-- Node6&#45;&gt;Node5 -->
<g id="edge6" class="edge"><title>Node6&#45;&gt;Node5</title>
<path fill="none" stroke="midnightblue" d="M101.896,-101.702C125.457,-112.05 153.189,-124.814 172.867,-134.396"/>
<polygon fill="midnightblue" stroke="midnightblue" points="102.992,-98.3617 92.4266,-97.5765 100.197,-104.779 102.992,-98.3617"/>
</g>
<!-- Node7 -->
<g id="node7" class="node"><title>Node7</title>
<g id="a_node7"><a xlink:href="menu__struct_8c.html" target="_top" xlink:title="D:/GIT/fhradiov2/menu\l/src/menu_struct.c">
<polygon fill="white" stroke="black" points="0,-0.5 0,-30.5 112,-30.5 112,-0.5 0,-0.5"/>
<text text-anchor="start" x="8" y="-18.5" font-family="Helvetica,sans-Serif" font-size="10.00">D:/GIT/fhradiov2/menu</text>
<text text-anchor="middle" x="56" y="-7.5" font-family="Helvetica,sans-Serif" font-size="10.00">/src/menu_struct.c</text>
</a>
</g>
</g>
<!-- Node6&#45;&gt;Node7 -->
<g id="edge7" class="edge"><title>Node6&#45;&gt;Node7</title>
<path fill="none" stroke="midnightblue" d="M56,-57.1081C56,-48.1539 56,-38.3227 56,-30.5765"/>
<polygon fill="midnightblue" stroke="midnightblue" points="52.5001,-57.3959 56,-67.396 59.5001,-57.396 52.5001,-57.3959"/>
</g>
<!-- Node10 -->
<g id="node10" class="node"><title>Node10</title>
<g id="a_node10"><a xlink:href="main_8c.html" target="_top" xlink:title="D:/GIT/fhradiov2/main.c">
<polygon fill="white" stroke="black" points="195.5,-6 195.5,-25 312.5,-25 312.5,-6 195.5,-6"/>
<text text-anchor="middle" x="254" y="-13" font-family="Helvetica,sans-Serif" font-size="10.00">D:/GIT/fhradiov2/main.c</text>
</a>
</g>
</g>
<!-- Node9&#45;&gt;Node10 -->
<g id="edge11" class="edge"><title>Node9&#45;&gt;Node10</title>
<path fill="none" stroke="midnightblue" d="M298.509,-60.335C286.392,-48.401 271.907,-34.1359 262.828,-25.1945"/>
<polygon fill="midnightblue" stroke="midnightblue" points="296.098,-62.8728 305.679,-67.396 301.01,-57.8853 296.098,-62.8728"/>
</g>
<!-- Node11 -->
<g id="node11" class="node"><title>Node11</title>
<g id="a_node11"><a xlink:href="handler_8c.html" target="_top" xlink:title="D:/GIT/fhradiov2/system\l/src/handler.c">
<polygon fill="white" stroke="black" points="331,-0.5 331,-30.5 451,-30.5 451,-0.5 331,-0.5"/>
<text text-anchor="start" x="339" y="-18.5" font-family="Helvetica,sans-Serif" font-size="10.00">D:/GIT/fhradiov2/system</text>
<text text-anchor="middle" x="391" y="-7.5" font-family="Helvetica,sans-Serif" font-size="10.00">/src/handler.c</text>
</a>
</g>
</g>
<!-- Node9&#45;&gt;Node11 -->
<g id="edge12" class="edge"><title>Node9&#45;&gt;Node11</title>
<path fill="none" stroke="midnightblue" d="M342.832,-60.5978C353.552,-50.7831 366.047,-39.3442 375.624,-30.5765"/>
<polygon fill="midnightblue" stroke="midnightblue" points="340.418,-58.0618 335.406,-67.396 345.145,-63.225 340.418,-58.0618"/>
</g>
<!-- Node12&#45;&gt;Node4 -->
<g id="edge14" class="edge"><title>Node12&#45;&gt;Node4</title>
<path fill="none" stroke="midnightblue" d="M672.544,-174.565C672.995,-183.596 672.706,-193.56 671.678,-201.396"/>
<polygon fill="midnightblue" stroke="midnightblue" points="676.028,-174.236 671.675,-164.577 669.055,-174.842 676.028,-174.236"/>
</g>
<!-- Node13 -->
<g id="node13" class="node"><title>Node13</title>
<g id="a_node13"><a xlink:href="radio__display_8c.html" target="_top" xlink:title="D:/GIT/fhradiov2/radio\l/src/radio_display.c">
<polygon fill="white" stroke="black" points="674.5,-67.5 674.5,-97.5 783.5,-97.5 783.5,-67.5 674.5,-67.5"/>
<text text-anchor="start" x="682.5" y="-85.5" font-family="Helvetica,sans-Serif" font-size="10.00">D:/GIT/fhradiov2/radio</text>
<text text-anchor="middle" x="729" y="-74.5" font-family="Helvetica,sans-Serif" font-size="10.00">/src/radio_display.c</text>
</a>
</g>
</g>
<!-- Node12&#45;&gt;Node13 -->
<g id="edge15" class="edge"><title>Node12&#45;&gt;Node13</title>
<path fill="none" stroke="midnightblue" d="M686.815,-127.024C696.201,-117.34 707.024,-106.174 715.357,-97.5765"/>
<polygon fill="midnightblue" stroke="midnightblue" points="684.117,-124.779 679.67,-134.396 689.143,-129.651 684.117,-124.779"/>
</g>
<!-- Node14&#45;&gt;Node4 -->
<g id="edge17" class="edge"><title>Node14&#45;&gt;Node4</title>
<path fill="none" stroke="midnightblue" d="M860.912,-167.151C818.58,-178.285 762.061,-192.705 720.744,-202.89"/>
<polygon fill="midnightblue" stroke="midnightblue" points="862.028,-170.476 870.804,-164.541 860.242,-163.708 862.028,-170.476"/>
</g>
<!-- Node15 -->
<g id="node15" class="node"><title>Node15</title>
<g id="a_node15"><a xlink:href="radio__settings_8c.html" target="_top" xlink:title="D:/GIT/fhradiov2/radio\l/src/radio_settings.c">
<polygon fill="white" stroke="black" points="865.5,-67.5 865.5,-97.5 974.5,-97.5 974.5,-67.5 865.5,-67.5"/>
<text text-anchor="start" x="873.5" y="-85.5" font-family="Helvetica,sans-Serif" font-size="10.00">D:/GIT/fhradiov2/radio</text>
<text text-anchor="middle" x="920" y="-74.5" font-family="Helvetica,sans-Serif" font-size="10.00">/src/radio_settings.c</text>
</a>
</g>
</g>
<!-- Node14&#45;&gt;Node15 -->
<g id="edge18" class="edge"><title>Node14&#45;&gt;Node15</title>
<path fill="none" stroke="midnightblue" d="M920,-124.108C920,-115.154 920,-105.323 920,-97.5765"/>
<polygon fill="midnightblue" stroke="midnightblue" points="916.5,-124.396 920,-134.396 923.5,-124.396 916.5,-124.396"/>
</g>
<!-- Node17&#45;&gt;Node9 -->
<g id="edge22" class="edge"><title>Node17&#45;&gt;Node9</title>
<path fill="none" stroke="midnightblue" d="M370.882,-127.598C359.557,-117.783 346.359,-106.344 336.242,-97.5765"/>
<polygon fill="midnightblue" stroke="midnightblue" points="368.877,-130.492 378.726,-134.396 373.461,-125.202 368.877,-130.492"/>
</g>
<!-- Node18 -->
<g id="node18" class="node"><title>Node18</title>
<g id="a_node18"><a xlink:href="rds_8c.html" target="_top" xlink:title="D:/GIT/fhradiov2/system\l/src/rds.c">
<polygon fill="white" stroke="black" points="398,-67.5 398,-97.5 518,-97.5 518,-67.5 398,-67.5"/>
<text text-anchor="start" x="406" y="-85.5" font-family="Helvetica,sans-Serif" font-size="10.00">D:/GIT/fhradiov2/system</text>
<text text-anchor="middle" x="458" y="-74.5" font-family="Helvetica,sans-Serif" font-size="10.00">/src/rds.c</text>
</a>
</g>
</g>
<!-- Node17&#45;&gt;Node18 -->
<g id="edge23" class="edge"><title>Node17&#45;&gt;Node18</title>
<path fill="none" stroke="midnightblue" d="M415.815,-127.024C425.201,-117.34 436.024,-106.174 444.357,-97.5765"/>
<polygon fill="midnightblue" stroke="midnightblue" points="413.117,-124.779 408.67,-134.396 418.143,-129.651 413.117,-124.779"/>
</g>
<!-- Node19&#45;&gt;Node9 -->
<g id="edge25" class="edge"><title>Node19&#45;&gt;Node9</title>
<path fill="none" stroke="midnightblue" d="M477.11,-131.444C442.582,-120.908 398.808,-107.549 366.24,-97.6109"/>
<polygon fill="midnightblue" stroke="midnightblue" points="476.458,-134.905 487.044,-134.476 478.501,-128.21 476.458,-134.905"/>
</g>
<!-- Node20 -->
<g id="node20" class="node"><title>Node20</title>
<g id="a_node20"><a xlink:href="rsq_8c.html" target="_top" xlink:title="D:/GIT/fhradiov2/system\l/src/rsq.c">
<polygon fill="white" stroke="black" points="536,-67.5 536,-97.5 656,-97.5 656,-67.5 536,-67.5"/>
<text text-anchor="start" x="544" y="-85.5" font-family="Helvetica,sans-Serif" font-size="10.00">D:/GIT/fhradiov2/system</text>
<text text-anchor="middle" x="596" y="-74.5" font-family="Helvetica,sans-Serif" font-size="10.00">/src/rsq.c</text>
</a>
</g>
</g>
<!-- Node19&#45;&gt;Node20 -->
<g id="edge26" class="edge"><title>Node19&#45;&gt;Node20</title>
<path fill="none" stroke="midnightblue" d="M553.815,-127.024C563.201,-117.34 574.024,-106.174 582.357,-97.5765"/>
<polygon fill="midnightblue" stroke="midnightblue" points="551.117,-124.779 546.67,-134.396 556.143,-129.651 551.117,-124.779"/>
</g>
</g>
</svg>
        <g id="navigator" transform="translate(0 0)" fill="#404254">
                <rect fill="#f2f5e9" fill-opacity="0.5" stroke="#606060" stroke-width=".5" x="0" y="0" width="60" height="60"/>
                <use id="zoomplus" xlink:href="#zoomPlus" x="17" y="9" onmousedown="handleZoom(evt,'in')"/>
                <use id="zoomminus" xlink:href="#zoomMin" x="42" y="9" onmousedown="handleZoom(evt,'out')"/>
                <use id="reset" xlink:href="#resetDef" x="30" y="36" onmousedown="handleReset()"/>
                <g id="arrowUp" xlink:href="#dirArrow" transform="translate(30 24)" onmousedown="handlePan(0,-1)">
                  <use xlink:href="#rim" fill="#404040">
                        <set attributeName="fill" to="#808080" begin="arrowUp.mouseover" end="arrowUp.mouseout"/>
                  </use>
                  <path fill="none" stroke="white" stroke-width="1.5" d="M0,-3.0v7 M-2.5,-0.5L0,-3.0L2.5,-0.5"/>
                </g>
                <g id="arrowRight" xlink:href="#dirArrow" transform="rotate(90) translate(36 -43)" onmousedown="handlePan(1,0)">
                  <use xlink:href="#rim" fill="#404040">
                        <set attributeName="fill" to="#808080" begin="arrowRight.mouseover" end="arrowRight.mouseout"/>
                  </use>
                  <path fill="none" stroke="white" stroke-width="1.5" d="M0,-3.0v7 M-2.5,-0.5L0,-3.0L2.5,-0.5"/>
                </g>
                <g id="arrowDown" xlink:href="#dirArrow" transform="rotate(180) translate(-30 -48)" onmousedown="handlePan(0,1)">
                  <use xlink:href="#rim" fill="#404040">
                        <set attributeName="fill" to="#808080" begin="arrowDown.mouseover" end="arrowDown.mouseout"/>
                  </use>
                  <path fill="none" stroke="white" stroke-width="1.5" d="M0,-3.0v7 M-2.5,-0.5L0,-3.0L2.5,-0.5"/>
                </g>
                <g id="arrowLeft" xlink:href="#dirArrow" transform="rotate(270) translate(-36 17)" onmousedown="handlePan(-1,0)">
                  <use xlink:href="#rim" fill="#404040">
                        <set attributeName="fill" to="#808080" begin="arrowLeft.mouseover" end="arrowLeft.mouseout"/>
                  </use>
                  <path fill="none" stroke="white" stroke-width="1.5" d="M0,-3.0v7 M-2.5,-0.5L0,-3.0L2.5,-0.5"/>
                </g>
        </g>
        <svg viewBox="0 0 15 15" width="100%" height="30px" preserveAspectRatio="xMaxYMin meet">
         <g id="arrow_out" transform="scale(0.3 0.3)">
          <a xlink:href="station__list__struct_8h__dep__incl_org.svg" target="_base">
           <rect id="button" ry="5" rx="5" y="6" x="6" height="38" width="38"
                fill="#f2f5e9" fill-opacity="0.5" stroke="#606060" stroke-width="1.0"/>
           <path id="arrow"
             d="M 11.500037,31.436501 C 11.940474,20.09759 22.043105,11.32322 32.158766,21.979434 L 37.068811,17.246167 C 37.068811,17.246167 37.088388,32 37.088388,32 L 22.160133,31.978069 C 22.160133,31.978069 26.997745,27.140456 26.997745,27.140456 C 18.528582,18.264221 13.291696,25.230495 11.500037,31.436501 z"
             style="fill:#404040;"/>
          </a>
         </g>
        </svg>
</svg>
