<?xml version="1.0" encoding="UTF-8" standalone="no"?>
<!DOCTYPE svg PUBLIC "-//W3C//DTD SVG 1.1//EN"
 "http://www.w3.org/Graphics/SVG/1.1/DTD/svg11.dtd">
<!-- Generated by graphviz version 2.38.0 (20140413.2041)
 -->
<!-- Title: station_list_display Pages: 1 -->
<svg width="802pt" height="66pt"
 viewBox="0.00 0.00 802.00 66.00" xmlns="http://www.w3.org/2000/svg" xmlns:xlink="http://www.w3.org/1999/xlink">
<g id="graph0" class="graph" transform="scale(1 1) rotate(0) translate(4 62)">
<title>station_list_display</title>
<polygon fill="white" stroke="none" points="-4,4 -4,-62 798,-62 798,4 -4,4"/>
<!-- Node1 -->
<g id="node1" class="node"><title>Node1</title>
<polygon fill="#bfbfbf" stroke="black" points="0,-19.5 0,-38.5 100,-38.5 100,-19.5 0,-19.5"/>
<text text-anchor="middle" x="50" y="-26.5" font-family="Helvetica,sans-Serif" font-size="10.00">station_list_display</text>
</g>
<!-- Node2 -->
<g id="node2" class="node"><title>Node2</title>
<g id="a_node2"><a xlink:href="lcd_8h.html#acd63fb85d212730fa4fcbcbeeccd231e" target="_top" xlink:title="lcd_create_view">
<polygon fill="white" stroke="black" points="136,-19.5 136,-38.5 221,-38.5 221,-19.5 136,-19.5"/>
<text text-anchor="middle" x="178.5" y="-26.5" font-family="Helvetica,sans-Serif" font-size="10.00">lcd_create_view</text>
</a>
</g>
</g>
<!-- Node1&#45;&gt;Node2 -->
<g id="edge1" class="edge"><title>Node1&#45;&gt;Node2</title>
<path fill="none" stroke="midnightblue" d="M100.27,-29C108.655,-29 117.384,-29 125.829,-29"/>
<polygon fill="midnightblue" stroke="midnightblue" points="125.945,-32.5001 135.945,-29 125.945,-25.5001 125.945,-32.5001"/>
</g>
<!-- Node3 -->
<g id="node3" class="node"><title>Node3</title>
<g id="a_node3"><a xlink:href="lcd_8c.html#a2a4df97ebc5b396233aa31765228ef42" target="_top" xlink:title="lcd_set_courser">
<polygon fill="white" stroke="black" points="257,-38.5 257,-57.5 343,-57.5 343,-38.5 257,-38.5"/>
<text text-anchor="middle" x="300" y="-45.5" font-family="Helvetica,sans-Serif" font-size="10.00">lcd_set_courser</text>
</a>
</g>
</g>
<!-- Node2&#45;&gt;Node3 -->
<g id="edge2" class="edge"><title>Node2&#45;&gt;Node3</title>
<path fill="none" stroke="midnightblue" d="M221.295,-35.6453C229.43,-36.9386 238.054,-38.3098 246.483,-39.65"/>
<polygon fill="midnightblue" stroke="midnightblue" points="246.196,-43.1483 256.622,-41.262 247.295,-36.2351 246.196,-43.1483"/>
</g>
<!-- Node9 -->
<g id="node9" class="node"><title>Node9</title>
<g id="a_node9"><a xlink:href="lcd_8c.html#aa6e1aa2ef9b677e16d8198df683429ec" target="_top" xlink:title="lcd_write_string">
<polygon fill="white" stroke="black" points="379,-0.5 379,-19.5 463,-19.5 463,-0.5 379,-0.5"/>
<text text-anchor="middle" x="421" y="-7.5" font-family="Helvetica,sans-Serif" font-size="10.00">lcd_write_string</text>
</a>
</g>
</g>
<!-- Node2&#45;&gt;Node9 -->
<g id="edge9" class="edge"><title>Node2&#45;&gt;Node9</title>
<path fill="none" stroke="midnightblue" d="M221.117,-25.7121C262.066,-22.4771 324.678,-17.5307 368.687,-14.0538"/>
<polygon fill="midnightblue" stroke="midnightblue" points="369.199,-17.5244 378.892,-13.2476 368.647,-10.5461 369.199,-17.5244"/>
</g>
<!-- Node4 -->
<g id="node4" class="node"><title>Node4</title>
<g id="a_node4"><a xlink:href="lcd_8c.html#a250728451a22259562d3f01a12bbd77b" target="_top" xlink:title="lcd_command">
<polygon fill="white" stroke="black" points="382.5,-38.5 382.5,-57.5 459.5,-57.5 459.5,-38.5 382.5,-38.5"/>
<text text-anchor="middle" x="421" y="-45.5" font-family="Helvetica,sans-Serif" font-size="10.00">lcd_command</text>
</a>
</g>
</g>
<!-- Node3&#45;&gt;Node4 -->
<g id="edge3" class="edge"><title>Node3&#45;&gt;Node4</title>
<path fill="none" stroke="midnightblue" d="M343.29,-48C352.611,-48 362.549,-48 372.075,-48"/>
<polygon fill="midnightblue" stroke="midnightblue" points="372.202,-51.5001 382.202,-48 372.202,-44.5001 372.202,-51.5001"/>
</g>
<!-- Node5 -->
<g id="node5" class="node"><title>Node5</title>
<g id="a_node5"><a xlink:href="i2c_8h.html#a6691e5911f539e1e8178c6e983e8079a" target="_top" xlink:title="Transmits I2C commands with a variable length to a I2C slave. ">
<polygon fill="white" stroke="black" points="499,-0.5 499,-19.5 571,-19.5 571,-0.5 499,-0.5"/>
<text text-anchor="middle" x="535" y="-7.5" font-family="Helvetica,sans-Serif" font-size="10.00">i2c_write_var</text>
</a>
</g>
</g>
<!-- Node4&#45;&gt;Node5 -->
<g id="edge4" class="edge"><title>Node4&#45;&gt;Node5</title>
<path fill="none" stroke="midnightblue" d="M450.262,-38.411C464.19,-33.6856 481.18,-27.9211 496.207,-22.8226"/>
<polygon fill="midnightblue" stroke="midnightblue" points="497.401,-26.1134 505.747,-19.5859 495.152,-19.4845 497.401,-26.1134"/>
</g>
<!-- Node8 -->
<g id="node8" class="node"><title>Node8</title>
<g id="a_node8"><a xlink:href="timer_8c.html#a276d5cb665b9f8b2c79e53e2f2c5b4f0" target="_top" xlink:title="_delay_ms">
<polygon fill="white" stroke="black" points="610.5,-38.5 610.5,-57.5 674.5,-57.5 674.5,-38.5 610.5,-38.5"/>
<text text-anchor="middle" x="642.5" y="-45.5" font-family="Helvetica,sans-Serif" font-size="10.00">_delay_ms</text>
</a>
</g>
</g>
<!-- Node4&#45;&gt;Node8 -->
<g id="edge7" class="edge"><title>Node4&#45;&gt;Node8</title>
<path fill="none" stroke="midnightblue" d="M459.733,-48C498.861,-48 559.853,-48 600.237,-48"/>
<polygon fill="midnightblue" stroke="midnightblue" points="600.287,-51.5001 610.287,-48 600.287,-44.5001 600.287,-51.5001"/>
</g>
<!-- Node6 -->
<g id="node6" class="node"><title>Node6</title>
<g id="a_node6"><a xlink:href="i2c_8c.html#ae0625b97d3437bcaca4ac4b96dd01978" target="_top" xlink:title="Transmits I2C command array to a I2C slave. ">
<polygon fill="white" stroke="black" points="607,-0.5 607,-19.5 678,-19.5 678,-0.5 607,-0.5"/>
<text text-anchor="middle" x="642.5" y="-7.5" font-family="Helvetica,sans-Serif" font-size="10.00">i2c_write_arr</text>
</a>
</g>
</g>
<!-- Node5&#45;&gt;Node6 -->
<g id="edge5" class="edge"><title>Node5&#45;&gt;Node6</title>
<path fill="none" stroke="midnightblue" d="M571.13,-10C579.312,-10 588.133,-10 596.671,-10"/>
<polygon fill="midnightblue" stroke="midnightblue" points="596.882,-13.5001 606.882,-10 596.882,-6.5001 596.882,-13.5001"/>
</g>
<!-- Node7 -->
<g id="node7" class="node"><title>Node7</title>
<g id="a_node7"><a xlink:href="timer_8c.html#a3c56af3315c2461dec5ced585a5f84db" target="_top" xlink:title="_delay_ten_us">
<polygon fill="white" stroke="black" points="714,-19.5 714,-38.5 794,-38.5 794,-19.5 714,-19.5"/>
<text text-anchor="middle" x="754" y="-26.5" font-family="Helvetica,sans-Serif" font-size="10.00">_delay_ten_us</text>
</a>
</g>
</g>
<!-- Node6&#45;&gt;Node7 -->
<g id="edge6" class="edge"><title>Node6&#45;&gt;Node7</title>
<path fill="none" stroke="midnightblue" d="M678.146,-16.0117C686.253,-17.4183 695.042,-18.9433 703.651,-20.4371"/>
<polygon fill="midnightblue" stroke="midnightblue" points="703.172,-23.9062 713.623,-22.1674 704.368,-17.0092 703.172,-23.9062"/>
</g>
<!-- Node8&#45;&gt;Node7 -->
<g id="edge8" class="edge"><title>Node8&#45;&gt;Node7</title>
<path fill="none" stroke="midnightblue" d="M674.585,-42.6062C683.595,-41.0428 693.664,-39.2957 703.505,-37.5882"/>
<polygon fill="midnightblue" stroke="midnightblue" points="704.368,-40.9908 713.623,-35.8326 703.172,-34.0938 704.368,-40.9908"/>
</g>
<!-- Node9&#45;&gt;Node5 -->
<g id="edge10" class="edge"><title>Node9&#45;&gt;Node5</title>
<path fill="none" stroke="midnightblue" d="M463.069,-10C471.413,-10 480.234,-10 488.715,-10"/>
<polygon fill="midnightblue" stroke="midnightblue" points="488.836,-13.5001 498.836,-10 488.836,-6.5001 488.836,-13.5001"/>
</g>
</g>
</svg>
