<?xml version="1.0" encoding="UTF-8" standalone="no"?>
<!DOCTYPE svg PUBLIC "-//W3C//DTD SVG 1.1//EN"
 "http://www.w3.org/Graphics/SVG/1.1/DTD/svg11.dtd">
<!-- Generated by graphviz version 2.38.0 (20140413.2041)
 -->
<!-- Title: D:/GIT/fhradiov2/system/station_list_struct.h Pages: 1 -->
<svg width="1753pt" height="576pt"
 viewBox="0.00 0.00 1752.50 576.00" xmlns="http://www.w3.org/2000/svg" xmlns:xlink="http://www.w3.org/1999/xlink">
<g id="graph0" class="graph" transform="scale(1 1) rotate(0) translate(4 572)">
<title>D:/GIT/fhradiov2/system/station_list_struct.h</title>
<polygon fill="white" stroke="none" points="-4,4 -4,-572 1748.5,-572 1748.5,4 -4,4"/>
<!-- Node1 -->
<g id="node1" class="node"><title>Node1</title>
<polygon fill="#bfbfbf" stroke="black" points="1624.5,-537.5 1624.5,-567.5 1744.5,-567.5 1744.5,-537.5 1624.5,-537.5"/>
<text text-anchor="start" x="1632.5" y="-555.5" font-family="Helvetica,sans-Serif" font-size="10.00">D:/GIT/fhradiov2/system</text>
<text text-anchor="middle" x="1684.5" y="-544.5" font-family="Helvetica,sans-Serif" font-size="10.00">/station_list_struct.h</text>
</g>
<!-- Node2 -->
<g id="node2" class="node"><title>Node2</title>
<polygon fill="white" stroke="#bfbfbf" points="1113,-0.5 1113,-19.5 1162,-19.5 1162,-0.5 1113,-0.5"/>
<text text-anchor="middle" x="1137.5" y="-7.5" font-family="Helvetica,sans-Serif" font-size="10.00">stdint.h</text>
</g>
<!-- Node1&#45;&gt;Node2 -->
<g id="edge1" class="edge"><title>Node1&#45;&gt;Node2</title>
<path fill="none" stroke="midnightblue" d="M1692.37,-537.407C1703.5,-516.125 1722.5,-474.208 1722.5,-436 1722.5,-436 1722.5,-436 1722.5,-132 1722.5,-19.0059 1298.67,-10.7028 1172.52,-10.7342"/>
<polygon fill="midnightblue" stroke="midnightblue" points="1172.26,-7.23465 1162.26,-10.7558 1172.27,-14.2346 1172.26,-7.23465"/>
</g>
<!-- Node3 -->
<g id="node3" class="node"><title>Node3</title>
<g id="a_node3"><a xlink:href="radio_8h.html" target="_top" xlink:title="radio/radio.h">
<polygon fill="white" stroke="black" points="1021.5,-481.5 1021.5,-500.5 1091.5,-500.5 1091.5,-481.5 1021.5,-481.5"/>
<text text-anchor="middle" x="1056.5" y="-488.5" font-family="Helvetica,sans-Serif" font-size="10.00">radio/radio.h</text>
</a>
</g>
</g>
<!-- Node1&#45;&gt;Node3 -->
<g id="edge2" class="edge"><title>Node1&#45;&gt;Node3</title>
<path fill="none" stroke="midnightblue" d="M1624.28,-545.795C1499.08,-533.932 1213.07,-506.834 1101.89,-496.3"/>
<polygon fill="midnightblue" stroke="midnightblue" points="1101.97,-492.792 1091.68,-495.334 1101.31,-499.761 1101.97,-492.792"/>
</g>
<!-- Node3&#45;&gt;Node2 -->
<g id="edge3" class="edge"><title>Node3&#45;&gt;Node2</title>
<path fill="none" stroke="midnightblue" d="M1091.73,-489.515C1209.72,-487.58 1585.93,-478.792 1627.5,-445 1650.86,-426.016 1646.5,-410.098 1646.5,-380 1646.5,-380 1646.5,-380 1646.5,-132 1646.5,-81.3236 1607.82,-76.5549 1561.5,-56 1491.93,-25.1281 1260.54,-14.8171 1172.19,-11.955"/>
<polygon fill="midnightblue" stroke="midnightblue" points="1172.25,-8.45531 1162.15,-11.6421 1172.03,-15.4519 1172.25,-8.45531"/>
</g>
<!-- Node4 -->
<g id="node4" class="node"><title>Node4</title>
<g id="a_node4"><a xlink:href="pca9530_8h.html" target="_top" xlink:title="driver/pca9530.h">
<polygon fill="white" stroke="black" points="820,-308 820,-327 907,-327 907,-308 820,-308"/>
<text text-anchor="middle" x="863.5" y="-315" font-family="Helvetica,sans-Serif" font-size="10.00">driver/pca9530.h</text>
</a>
</g>
</g>
<!-- Node3&#45;&gt;Node4 -->
<g id="edge4" class="edge"><title>Node3&#45;&gt;Node4</title>
<path fill="none" stroke="midnightblue" d="M1021.3,-485.685C990.507,-480.423 945.923,-469.046 914.5,-445 880.122,-418.693 868.836,-365.449 865.192,-337.155"/>
<polygon fill="midnightblue" stroke="midnightblue" points="868.65,-336.576 864.081,-327.017 861.691,-337.339 868.65,-336.576"/>
</g>
<!-- Node9 -->
<g id="node9" class="node"><title>Node9</title>
<g id="a_node9"><a xlink:href="timer_8h.html" target="_top" xlink:title="driver/timer.h">
<polygon fill="white" stroke="black" points="461.5,-179.5 461.5,-198.5 533.5,-198.5 533.5,-179.5 461.5,-179.5"/>
<text text-anchor="middle" x="497.5" y="-186.5" font-family="Helvetica,sans-Serif" font-size="10.00">driver/timer.h</text>
</a>
</g>
</g>
<!-- Node3&#45;&gt;Node9 -->
<g id="edge49" class="edge"><title>Node3&#45;&gt;Node9</title>
<path fill="none" stroke="midnightblue" d="M1021.32,-487.733C892.452,-478.611 449.606,-439.808 369.5,-333 361.233,-321.978 363.807,-314.546 369.5,-302 390.399,-255.944 440.632,-221.38 471.59,-203.547"/>
<polygon fill="midnightblue" stroke="midnightblue" points="473.502,-206.489 480.525,-198.556 470.088,-200.377 473.502,-206.489"/>
</g>
<!-- Node10 -->
<g id="node10" class="node"><title>Node10</title>
<g id="a_node10"><a xlink:href="radio__configuration_8h.html" target="_top" xlink:title="settings/radio_configuration.h">
<polygon fill="white" stroke="black" points="250,-123.5 250,-142.5 393,-142.5 393,-123.5 250,-123.5"/>
<text text-anchor="middle" x="321.5" y="-130.5" font-family="Helvetica,sans-Serif" font-size="10.00">settings/radio_configuration.h</text>
</a>
</g>
</g>
<!-- Node3&#45;&gt;Node10 -->
<g id="edge66" class="edge"><title>Node3&#45;&gt;Node10</title>
<path fill="none" stroke="midnightblue" d="M1021.34,-490.397C868.605,-491.825 267.377,-494.255 200.5,-445 175.704,-426.738 176.5,-410.795 176.5,-380 176.5,-380 176.5,-380 176.5,-316.5 176.5,-248.126 193.837,-223.788 245.5,-179 260.18,-166.274 278.946,-155.121 294.157,-147.103"/>
<polygon fill="midnightblue" stroke="midnightblue" points="295.791,-150.198 303.1,-142.529 292.603,-143.966 295.791,-150.198"/>
</g>
<!-- Node11 -->
<g id="node11" class="node"><title>Node11</title>
<g id="a_node11"><a xlink:href="si4735__cmd__prop_8h.html" target="_top" xlink:title="driver/include/si4735\l_cmd_prop.h">
<polygon fill="white" stroke="black" points="369.5,-56.5 369.5,-86.5 473.5,-86.5 473.5,-56.5 369.5,-56.5"/>
<text text-anchor="start" x="377.5" y="-74.5" font-family="Helvetica,sans-Serif" font-size="10.00">driver/include/si4735</text>
<text text-anchor="middle" x="421.5" y="-63.5" font-family="Helvetica,sans-Serif" font-size="10.00">_cmd_prop.h</text>
</a>
</g>
</g>
<!-- Node3&#45;&gt;Node11 -->
<g id="edge25" class="edge"><title>Node3&#45;&gt;Node11</title>
<path fill="none" stroke="midnightblue" d="M1021.14,-490.231C892.229,-490.708 448.097,-489.047 314.5,-445 264.157,-428.402 214.5,-433.008 214.5,-380 214.5,-380 214.5,-380 214.5,-316.5 214.5,-249.093 227.379,-222.935 278.5,-179 321.698,-141.874 361.391,-183.444 401.5,-143 413.539,-130.861 418.45,-112.039 420.399,-96.8963"/>
<polygon fill="midnightblue" stroke="midnightblue" points="423.909,-96.9502 421.354,-86.6681 416.939,-96.2993 423.909,-96.9502"/>
</g>
<!-- Node13 -->
<g id="node13" class="node"><title>Node13</title>
<g id="a_node13"><a xlink:href="log__exp__table_8h.html" target="_top" xlink:title="libs/log_exp_table.h">
<polygon fill="white" stroke="black" points="1304,-241 1304,-260 1407,-260 1407,-241 1304,-241"/>
<text text-anchor="middle" x="1355.5" y="-248" font-family="Helvetica,sans-Serif" font-size="10.00">libs/log_exp_table.h</text>
</a>
</g>
</g>
<!-- Node3&#45;&gt;Node13 -->
<g id="edge18" class="edge"><title>Node3&#45;&gt;Node13</title>
<path fill="none" stroke="midnightblue" d="M1074.77,-481.488C1093.94,-472.523 1124.92,-457.94 1151.5,-445 1169.37,-436.301 1173.35,-433.108 1191.5,-425 1231.21,-407.258 1250.08,-417.996 1282.5,-389 1319.66,-355.768 1341.16,-299.05 1350.29,-269.936"/>
<polygon fill="midnightblue" stroke="midnightblue" points="1353.67,-270.82 1353.18,-260.237 1346.97,-268.817 1353.67,-270.82"/>
</g>
<!-- Node14 -->
<g id="node14" class="node"><title>Node14</title>
<g id="a_node14"><a xlink:href="si4735_8h.html" target="_top" xlink:title="driver/si4735.h">
<polygon fill="white" stroke="black" points="243,-308 243,-327 322,-327 322,-308 243,-308"/>
<text text-anchor="middle" x="282.5" y="-315" font-family="Helvetica,sans-Serif" font-size="10.00">driver/si4735.h</text>
</a>
</g>
</g>
<!-- Node3&#45;&gt;Node14 -->
<g id="edge20" class="edge"><title>Node3&#45;&gt;Node14</title>
<path fill="none" stroke="midnightblue" d="M1021.13,-489.938C884.064,-489.41 392.768,-484.736 336.5,-445 300.842,-419.818 288.574,-366.092 284.474,-337.431"/>
<polygon fill="midnightblue" stroke="midnightblue" points="287.904,-336.648 283.204,-327.152 280.956,-337.506 287.904,-336.648"/>
</g>
<!-- Node16 -->
<g id="node16" class="node"><title>Node16</title>
<g id="a_node16"><a xlink:href="external__interrupthandler_8h.html" target="_top" xlink:title="driver/external_interrupthandler.h">
<polygon fill="white" stroke="black" points="964,-308 964,-327 1121,-327 1121,-308 964,-308"/>
<text text-anchor="middle" x="1042.5" y="-315" font-family="Helvetica,sans-Serif" font-size="10.00">driver/external_interrupthandler.h</text>
</a>
</g>
</g>
<!-- Node3&#45;&gt;Node16 -->
<g id="edge26" class="edge"><title>Node3&#45;&gt;Node16</title>
<path fill="none" stroke="midnightblue" d="M1024.09,-481.422C983.572,-468.757 915.959,-440.767 886.5,-389 867.191,-355.068 908.773,-337.396 953.84,-328.232"/>
<polygon fill="midnightblue" stroke="midnightblue" points="954.619,-331.647 963.795,-326.349 953.318,-324.769 954.619,-331.647"/>
</g>
<!-- Node17 -->
<g id="node17" class="node"><title>Node17</title>
<g id="a_node17"><a xlink:href="tpa2016d2_8h.html" target="_top" xlink:title="driver/tpa2016d2.h">
<polygon fill="white" stroke="black" points="630,-308 630,-327 725,-327 725,-308 630,-308"/>
<text text-anchor="middle" x="677.5" y="-315" font-family="Helvetica,sans-Serif" font-size="10.00">driver/tpa2016d2.h</text>
</a>
</g>
</g>
<!-- Node3&#45;&gt;Node17 -->
<g id="edge30" class="edge"><title>Node3&#45;&gt;Node17</title>
<path fill="none" stroke="midnightblue" d="M1021.48,-483.387C987.784,-476.322 935.845,-463.568 893.5,-445 834.995,-419.346 826.777,-401.022 771.5,-369 748.736,-355.813 722.302,-341.717 703.275,-331.778"/>
<polygon fill="midnightblue" stroke="midnightblue" points="704.806,-328.629 694.319,-327.121 701.576,-334.839 704.806,-328.629"/>
</g>
<!-- Node18 -->
<g id="node18" class="node"><title>Node18</title>
<g id="a_node18"><a xlink:href="lcd_8h.html" target="_top" xlink:title="driver/lcd.h">
<polygon fill="white" stroke="black" points="700,-369.5 700,-388.5 763,-388.5 763,-369.5 700,-369.5"/>
<text text-anchor="middle" x="731.5" y="-376.5" font-family="Helvetica,sans-Serif" font-size="10.00">driver/lcd.h</text>
</a>
</g>
</g>
<!-- Node3&#45;&gt;Node18 -->
<g id="edge36" class="edge"><title>Node3&#45;&gt;Node18</title>
<path fill="none" stroke="midnightblue" d="M1021.43,-487.716C955.852,-482.904 817.679,-470.046 777.5,-445 759.77,-433.948 746.943,-413.293 739.408,-398.224"/>
<polygon fill="midnightblue" stroke="midnightblue" points="742.444,-396.452 735.042,-388.871 736.101,-399.413 742.444,-396.452"/>
</g>
<!-- Node21 -->
<g id="node21" class="node"><title>Node21</title>
<g id="a_node21"><a xlink:href="flash_8h.html" target="_top" xlink:title="driver/flash.h">
<polygon fill="white" stroke="black" points="1201,-425.5 1201,-444.5 1272,-444.5 1272,-425.5 1201,-425.5"/>
<text text-anchor="middle" x="1236.5" y="-432.5" font-family="Helvetica,sans-Serif" font-size="10.00">driver/flash.h</text>
</a>
</g>
</g>
<!-- Node3&#45;&gt;Node21 -->
<g id="edge44" class="edge"><title>Node3&#45;&gt;Node21</title>
<path fill="none" stroke="midnightblue" d="M1085.02,-481.444C1115.57,-472.28 1164.21,-457.688 1198.1,-447.519"/>
<polygon fill="midnightblue" stroke="midnightblue" points="1199.54,-450.742 1208.11,-444.516 1197.53,-444.038 1199.54,-450.742"/>
</g>
<!-- Node22 -->
<g id="node22" class="node"><title>Node22</title>
<g id="a_node22"><a xlink:href="string_8h.html" target="_top" xlink:title="string.h">
<polygon fill="white" stroke="black" points="1406,-369.5 1406,-388.5 1455,-388.5 1455,-369.5 1406,-369.5"/>
<text text-anchor="middle" x="1430.5" y="-376.5" font-family="Helvetica,sans-Serif" font-size="10.00">string.h</text>
</a>
</g>
</g>
<!-- Node3&#45;&gt;Node22 -->
<g id="edge77" class="edge"><title>Node3&#45;&gt;Node22</title>
<path fill="none" stroke="midnightblue" d="M1091.83,-485.962C1136.66,-480.151 1215.9,-467.564 1280.5,-445 1298.89,-438.576 1301.79,-433.112 1319.5,-425 1345.68,-413.007 1376.03,-400.819 1398.36,-392.157"/>
<polygon fill="midnightblue" stroke="midnightblue" points="1399.64,-395.416 1407.71,-388.556 1397.13,-388.884 1399.64,-395.416"/>
</g>
<!-- Node23 -->
<g id="node23" class="node"><title>Node23</title>
<g id="a_node23"><a xlink:href="encoder_8h.html" target="_top" xlink:title="driver/encoder.h">
<polygon fill="white" stroke="black" points="896,-369.5 896,-388.5 981,-388.5 981,-369.5 896,-369.5"/>
<text text-anchor="middle" x="938.5" y="-376.5" font-family="Helvetica,sans-Serif" font-size="10.00">driver/encoder.h</text>
</a>
</g>
</g>
<!-- Node3&#45;&gt;Node23 -->
<g id="edge50" class="edge"><title>Node3&#45;&gt;Node23</title>
<path fill="none" stroke="midnightblue" d="M1047.24,-481.368C1027.34,-462.814 980.243,-418.913 955.06,-395.438"/>
<polygon fill="midnightblue" stroke="midnightblue" points="957.418,-392.85 947.716,-388.591 952.644,-397.97 957.418,-392.85"/>
</g>
<!-- Node24 -->
<g id="node24" class="node"><title>Node24</title>
<g id="a_node24"><a xlink:href="language_8h.html" target="_top" xlink:title="menu/lang/language.h">
<polygon fill="white" stroke="black" points="1161.5,-369.5 1161.5,-388.5 1273.5,-388.5 1273.5,-369.5 1161.5,-369.5"/>
<text text-anchor="middle" x="1217.5" y="-376.5" font-family="Helvetica,sans-Serif" font-size="10.00">menu/lang/language.h</text>
</a>
</g>
</g>
<!-- Node3&#45;&gt;Node24 -->
<g id="edge56" class="edge"><title>Node3&#45;&gt;Node24</title>
<path fill="none" stroke="midnightblue" d="M1069.13,-481.368C1096.76,-462.492 1162.78,-417.385 1196.66,-394.237"/>
<polygon fill="midnightblue" stroke="midnightblue" points="1198.64,-397.123 1204.93,-388.591 1194.69,-391.343 1198.64,-397.123"/>
</g>
<!-- Node25 -->
<g id="node25" class="node"><title>Node25</title>
<g id="a_node25"><a xlink:href="menu_8h.html" target="_top" xlink:title="menu/menu.h">
<polygon fill="white" stroke="black" points="1018.5,-425.5 1018.5,-444.5 1094.5,-444.5 1094.5,-425.5 1018.5,-425.5"/>
<text text-anchor="middle" x="1056.5" y="-432.5" font-family="Helvetica,sans-Serif" font-size="10.00">menu/menu.h</text>
</a>
</g>
</g>
<!-- Node3&#45;&gt;Node25 -->
<g id="edge57" class="edge"><title>Node3&#45;&gt;Node25</title>
<path fill="none" stroke="midnightblue" d="M1051.33,-481.083C1049.82,-473.927 1049.39,-463.635 1050.04,-454.691"/>
<polygon fill="midnightblue" stroke="midnightblue" points="1053.52,-455.126 1051.37,-444.751 1046.58,-454.2 1053.52,-455.126"/>
</g>
<!-- Node27 -->
<g id="node27" class="node"><title>Node27</title>
<g id="a_node27"><a xlink:href="station__list_8h.html" target="_top" xlink:title="system/station_list.h">
<polygon fill="white" stroke="black" points="1473,-369.5 1473,-388.5 1580,-388.5 1580,-369.5 1473,-369.5"/>
<text text-anchor="middle" x="1526.5" y="-376.5" font-family="Helvetica,sans-Serif" font-size="10.00">system/station_list.h</text>
</a>
</g>
</g>
<!-- Node3&#45;&gt;Node27 -->
<g id="edge67" class="edge"><title>Node3&#45;&gt;Node27</title>
<path fill="none" stroke="midnightblue" d="M1091.63,-488.269C1173.86,-484.056 1375.84,-471.605 1438.5,-445 1464.91,-433.785 1489.45,-410.837 1506.23,-395.432"/>
<polygon fill="midnightblue" stroke="midnightblue" points="1508.75,-397.868 1513.81,-388.56 1504.05,-392.681 1508.75,-397.868"/>
</g>
<!-- Node28 -->
<g id="node28" class="node"><title>Node28</title>
<g id="a_node28"><a xlink:href="radio__display_8h.html" target="_top" xlink:title="radio/radio_display.h">
<polygon fill="white" stroke="black" points="1512.5,-425.5 1512.5,-444.5 1618.5,-444.5 1618.5,-425.5 1512.5,-425.5"/>
<text text-anchor="middle" x="1565.5" y="-432.5" font-family="Helvetica,sans-Serif" font-size="10.00">radio/radio_display.h</text>
</a>
</g>
</g>
<!-- Node3&#45;&gt;Node28 -->
<g id="edge71" class="edge"><title>Node3&#45;&gt;Node28</title>
<path fill="none" stroke="midnightblue" d="M1091.63,-486.336C1165.51,-479.166 1341.66,-462.451 1489.5,-445 1493.63,-444.512 1497.9,-443.987 1502.22,-443.445"/>
<polygon fill="midnightblue" stroke="midnightblue" points="1502.85,-446.892 1512.33,-442.155 1501.97,-439.948 1502.85,-446.892"/>
</g>
<!-- Node29 -->
<g id="node29" class="node"><title>Node29</title>
<g id="a_node29"><a xlink:href="radio__settings_8h.html" target="_top" xlink:title="radio/radio_settings.h">
<polygon fill="white" stroke="black" points="1328.5,-425.5 1328.5,-444.5 1438.5,-444.5 1438.5,-425.5 1328.5,-425.5"/>
<text text-anchor="middle" x="1383.5" y="-432.5" font-family="Helvetica,sans-Serif" font-size="10.00">radio/radio_settings.h</text>
</a>
</g>
</g>
<!-- Node3&#45;&gt;Node29 -->
<g id="edge74" class="edge"><title>Node3&#45;&gt;Node29</title>
<path fill="none" stroke="midnightblue" d="M1091.67,-483.433C1145.75,-474.075 1249.91,-456.833 1318.09,-445.916"/>
<polygon fill="midnightblue" stroke="midnightblue" points="1318.97,-449.319 1328.29,-444.286 1317.87,-442.407 1318.97,-449.319"/>
</g>
<!-- Node30 -->
<g id="node30" class="node"><title>Node30</title>
<g id="a_node30"><a xlink:href="opt3001_8h.html" target="_top" xlink:title="driver/opt3001.h">
<polygon fill="white" stroke="black" points="63,-308 63,-327 148,-327 148,-308 63,-308"/>
<text text-anchor="middle" x="105.5" y="-315" font-family="Helvetica,sans-Serif" font-size="10.00">driver/opt3001.h</text>
</a>
</g>
</g>
<!-- Node3&#45;&gt;Node30 -->
<g id="edge78" class="edge"><title>Node3&#45;&gt;Node30</title>
<path fill="none" stroke="midnightblue" d="M1021.46,-490.366C864.939,-491.718 234.382,-494.058 162.5,-445 125.965,-420.066 112.516,-365.817 107.831,-337.137"/>
<polygon fill="midnightblue" stroke="midnightblue" points="111.289,-336.592 106.396,-327.195 104.361,-337.593 111.289,-336.592"/>
</g>
<!-- Node31 -->
<g id="node31" class="node"><title>Node31</title>
<g id="a_node31"><a xlink:href="system_2time_8h.html" target="_top" xlink:title="system/time.h">
<polygon fill="white" stroke="black" points="0,-179.5 0,-198.5 79,-198.5 79,-179.5 0,-179.5"/>
<text text-anchor="middle" x="39.5" y="-186.5" font-family="Helvetica,sans-Serif" font-size="10.00">system/time.h</text>
</a>
</g>
</g>
<!-- Node3&#45;&gt;Node31 -->
<g id="edge81" class="edge"><title>Node3&#45;&gt;Node31</title>
<path fill="none" stroke="midnightblue" d="M1021.36,-489.315C863.598,-486.1 224.777,-471.535 139.5,-445 87.0937,-428.693 34.5,-434.885 34.5,-380 34.5,-380 34.5,-380 34.5,-316.5 34.5,-278.172 36.8201,-233.364 38.2994,-208.688"/>
<polygon fill="midnightblue" stroke="midnightblue" points="41.8002,-208.782 38.9264,-198.585 34.8136,-208.349 41.8002,-208.782"/>
</g>
<!-- Node4&#45;&gt;Node2 -->
<g id="edge5" class="edge"><title>Node4&#45;&gt;Node2</title>
<path fill="none" stroke="midnightblue" d="M871.373,-307.863C894.399,-282.588 963.586,-206.549 1020.5,-143 1057.6,-101.576 1100.94,-52.5023 1122.99,-27.4741"/>
<polygon fill="midnightblue" stroke="midnightblue" points="1125.88,-29.4932 1129.86,-19.6761 1120.63,-24.8659 1125.88,-29.4932"/>
</g>
<!-- Node5 -->
<g id="node5" class="node"><title>Node5</title>
<g id="a_node5"><a xlink:href="i2c_8h.html" target="_top" xlink:title="I2C implemtation for MSP430G2553, interrupt based. &#160;&#160;This implemtation based on examples from Texas I...">
<polygon fill="white" stroke="black" points="281,-241 281,-260 344,-260 344,-241 281,-241"/>
<text text-anchor="middle" x="312.5" y="-248" font-family="Helvetica,sans-Serif" font-size="10.00">driver/i2c.h</text>
</a>
</g>
</g>
<!-- Node4&#45;&gt;Node5 -->
<g id="edge6" class="edge"><title>Node4&#45;&gt;Node5</title>
<path fill="none" stroke="midnightblue" d="M819.803,-311.345C716.06,-299.107 456.012,-268.43 354.253,-256.425"/>
<polygon fill="midnightblue" stroke="midnightblue" points="354.399,-252.919 344.058,-255.223 353.579,-259.87 354.399,-252.919"/>
</g>
<!-- Node5&#45;&gt;Node2 -->
<g id="edge7" class="edge"><title>Node5&#45;&gt;Node2</title>
<path fill="none" stroke="midnightblue" d="M303.857,-240.808C287.632,-223.803 253.116,-184.186 240.5,-143 228.036,-102.308 244.053,-77.9723 280.5,-56 351.759,-13.041 951.219,-10.7897 1102.79,-10.9133"/>
<polygon fill="midnightblue" stroke="midnightblue" points="1102.91,-14.4134 1112.92,-10.9258 1102.92,-7.41337 1102.91,-14.4134"/>
</g>
<!-- Node6 -->
<g id="node6" class="node"><title>Node6</title>
<polygon fill="white" stroke="#bfbfbf" points="953,-123.5 953,-142.5 1012,-142.5 1012,-123.5 953,-123.5"/>
<text text-anchor="middle" x="982.5" y="-130.5" font-family="Helvetica,sans-Serif" font-size="10.00">msp430.h</text>
</g>
<!-- Node5&#45;&gt;Node6 -->
<g id="edge8" class="edge"><title>Node5&#45;&gt;Node6</title>
<path fill="none" stroke="midnightblue" d="M330.256,-240.874C350.659,-230.925 385.111,-214.006 414.5,-199 431.498,-190.321 434.182,-184.358 452.5,-179 544.493,-152.089 835.79,-139.232 942.675,-135.332"/>
<polygon fill="midnightblue" stroke="midnightblue" points="942.857,-138.828 952.726,-134.972 942.607,-131.832 942.857,-138.828"/>
</g>
<!-- Node7 -->
<g id="node7" class="node"><title>Node7</title>
<polygon fill="white" stroke="#bfbfbf" points="287.5,-179.5 287.5,-198.5 335.5,-198.5 335.5,-179.5 287.5,-179.5"/>
<text text-anchor="middle" x="311.5" y="-186.5" font-family="Helvetica,sans-Serif" font-size="10.00">stdlib.h</text>
</g>
<!-- Node5&#45;&gt;Node7 -->
<g id="edge9" class="edge"><title>Node5&#45;&gt;Node7</title>
<path fill="none" stroke="midnightblue" d="M312.357,-240.975C312.216,-232.58 311.995,-219.481 311.814,-208.663"/>
<polygon fill="midnightblue" stroke="midnightblue" points="315.311,-208.449 311.643,-198.509 308.312,-208.567 315.311,-208.449"/>
</g>
<!-- Node8 -->
<g id="node8" class="node"><title>Node8</title>
<polygon fill="white" stroke="#bfbfbf" points="353.5,-179.5 353.5,-198.5 405.5,-198.5 405.5,-179.5 353.5,-179.5"/>
<text text-anchor="middle" x="379.5" y="-186.5" font-family="Helvetica,sans-Serif" font-size="10.00">stdarg.h</text>
</g>
<!-- Node5&#45;&gt;Node8 -->
<g id="edge10" class="edge"><title>Node5&#45;&gt;Node8</title>
<path fill="none" stroke="midnightblue" d="M322.099,-240.975C332.548,-231.697 349.468,-216.671 362.236,-205.331"/>
<polygon fill="midnightblue" stroke="midnightblue" points="364.765,-207.766 369.918,-198.509 360.117,-202.532 364.765,-207.766"/>
</g>
<!-- Node5&#45;&gt;Node9 -->
<g id="edge11" class="edge"><title>Node5&#45;&gt;Node9</title>
<path fill="none" stroke="midnightblue" d="M339.006,-240.975C371.152,-230.636 425.487,-213.161 461.427,-201.602"/>
<polygon fill="midnightblue" stroke="midnightblue" points="462.595,-204.903 471.043,-198.509 460.452,-198.239 462.595,-204.903"/>
</g>
<!-- Node9&#45;&gt;Node2 -->
<g id="edge13" class="edge"><title>Node9&#45;&gt;Node2</title>
<path fill="none" stroke="midnightblue" d="M501.671,-179.199C513.881,-154.56 552.21,-84.8113 607.5,-56 694.009,-10.9205 998.71,-9.5986 1102.54,-10.5127"/>
<polygon fill="midnightblue" stroke="midnightblue" points="1102.76,-14.015 1112.79,-10.6164 1102.83,-7.01535 1102.76,-14.015"/>
</g>
<!-- Node9&#45;&gt;Node6 -->
<g id="edge12" class="edge"><title>Node9&#45;&gt;Node6</title>
<path fill="none" stroke="midnightblue" d="M533.558,-183.985C622.233,-174.112 850.418,-148.706 942.793,-138.421"/>
<polygon fill="midnightblue" stroke="midnightblue" points="943.301,-141.886 952.853,-137.301 942.527,-134.929 943.301,-141.886"/>
</g>
<!-- Node9&#45;&gt;Node10 -->
<g id="edge14" class="edge"><title>Node9&#45;&gt;Node10</title>
<path fill="none" stroke="midnightblue" d="M469.612,-179.444C439.746,-170.28 392.185,-155.688 359.044,-145.519"/>
<polygon fill="midnightblue" stroke="midnightblue" points="359.844,-142.104 349.257,-142.516 357.791,-148.796 359.844,-142.104"/>
</g>
<!-- Node10&#45;&gt;Node11 -->
<g id="edge15" class="edge"><title>Node10&#45;&gt;Node11</title>
<path fill="none" stroke="midnightblue" d="M335.828,-123.475C349.624,-115.266 370.982,-102.558 388.921,-91.8845"/>
<polygon fill="midnightblue" stroke="midnightblue" points="391.128,-94.6442 397.932,-86.523 387.548,-88.6285 391.128,-94.6442"/>
</g>
<!-- Node12 -->
<g id="node12" class="node"><title>Node12</title>
<g id="a_node12"><a xlink:href="libs_2time_8h.html" target="_top" xlink:title="libs/time.h">
<polygon fill="white" stroke="black" points="289.5,-62 289.5,-81 351.5,-81 351.5,-62 289.5,-62"/>
<text text-anchor="middle" x="320.5" y="-69" font-family="Helvetica,sans-Serif" font-size="10.00">libs/time.h</text>
</a>
</g>
</g>
<!-- Node10&#45;&gt;Node12 -->
<g id="edge17" class="edge"><title>Node10&#45;&gt;Node12</title>
<path fill="none" stroke="midnightblue" d="M321.357,-123.475C321.216,-115.08 320.995,-101.981 320.814,-91.1631"/>
<polygon fill="midnightblue" stroke="midnightblue" points="324.311,-90.9488 320.643,-81.0091 317.312,-91.0665 324.311,-90.9488"/>
</g>
<!-- Node11&#45;&gt;Node2 -->
<g id="edge16" class="edge"><title>Node11&#45;&gt;Node2</title>
<path fill="none" stroke="midnightblue" d="M473.663,-60.3206C483.228,-58.694 493.144,-57.1656 502.5,-56 730.567,-27.5873 1007.12,-15.6411 1102.9,-12.1578"/>
<polygon fill="midnightblue" stroke="midnightblue" points="1103.02,-15.6556 1112.89,-11.8013 1102.77,-8.66002 1103.02,-15.6556"/>
</g>
<!-- Node13&#45;&gt;Node2 -->
<g id="edge19" class="edge"><title>Node13&#45;&gt;Node2</title>
<path fill="none" stroke="midnightblue" d="M1353.19,-240.813C1344.78,-210.861 1313.06,-110.739 1251.5,-56 1229.1,-36.0822 1196.83,-24.4587 1172.34,-18.0324"/>
<polygon fill="midnightblue" stroke="midnightblue" points="1172.91,-14.5701 1162.37,-15.5874 1171.25,-21.3687 1172.91,-14.5701"/>
</g>
<!-- Node14&#45;&gt;Node2 -->
<g id="edge21" class="edge"><title>Node14&#45;&gt;Node2</title>
<path fill="none" stroke="midnightblue" d="M276.615,-307.575C252.724,-270.168 167.746,-124.774 242.5,-56 274.678,-26.3964 940.681,-14.0818 1102.37,-11.5222"/>
<polygon fill="midnightblue" stroke="midnightblue" points="1102.75,-15.0167 1112.7,-11.3611 1102.64,-8.0175 1102.75,-15.0167"/>
</g>
<!-- Node14&#45;&gt;Node5 -->
<g id="edge22" class="edge"><title>Node14&#45;&gt;Node5</title>
<path fill="none" stroke="midnightblue" d="M286.546,-307.734C291.044,-297.988 298.432,-281.981 304.178,-269.532"/>
<polygon fill="midnightblue" stroke="midnightblue" points="307.505,-270.674 308.518,-260.127 301.15,-267.74 307.505,-270.674"/>
</g>
<!-- Node14&#45;&gt;Node9 -->
<g id="edge23" class="edge"><title>Node14&#45;&gt;Node9</title>
<path fill="none" stroke="midnightblue" d="M294.447,-307.861C322.598,-287.517 391.142,-238.067 396.5,-235 418.692,-222.297 445.134,-210.63 465.396,-202.36"/>
<polygon fill="midnightblue" stroke="midnightblue" points="466.824,-205.558 474.8,-198.584 464.216,-199.062 466.824,-205.558"/>
</g>
<!-- Node15 -->
<g id="node15" class="node"><title>Node15</title>
<g id="a_node15"><a xlink:href="radio__pin__mapping_8h.html" target="_top" xlink:title="settings/radio_pin\l_mapping.h">
<polygon fill="white" stroke="black" points="744,-235.5 744,-265.5 837,-265.5 837,-235.5 744,-235.5"/>
<text text-anchor="start" x="752" y="-253.5" font-family="Helvetica,sans-Serif" font-size="10.00">settings/radio_pin</text>
<text text-anchor="middle" x="790.5" y="-242.5" font-family="Helvetica,sans-Serif" font-size="10.00">_mapping.h</text>
</a>
</g>
</g>
<!-- Node14&#45;&gt;Node15 -->
<g id="edge24" class="edge"><title>Node14&#45;&gt;Node15</title>
<path fill="none" stroke="midnightblue" d="M322.287,-309.476C337.087,-306.966 354.039,-304.215 369.5,-302 499.655,-283.358 653.128,-266.146 734.024,-257.444"/>
<polygon fill="midnightblue" stroke="midnightblue" points="734.428,-260.921 743.997,-256.374 733.681,-253.96 734.428,-260.921"/>
</g>
<!-- Node16&#45;&gt;Node2 -->
<g id="edge28" class="edge"><title>Node16&#45;&gt;Node2</title>
<path fill="none" stroke="midnightblue" d="M1059.32,-307.927C1091.03,-290.427 1156.5,-247.354 1156.5,-190 1156.5,-190 1156.5,-190 1156.5,-132 1156.5,-95.2858 1147.86,-53.0556 1142.23,-29.4499"/>
<polygon fill="midnightblue" stroke="midnightblue" points="1145.63,-28.6007 1139.83,-19.7318 1138.83,-30.2793 1145.63,-28.6007"/>
</g>
<!-- Node16&#45;&gt;Node6 -->
<g id="edge27" class="edge"><title>Node16&#45;&gt;Node6</title>
<path fill="none" stroke="midnightblue" d="M1039.61,-307.698C1030.36,-279.573 1001.39,-191.458 988.634,-152.657"/>
<polygon fill="midnightblue" stroke="midnightblue" points="991.813,-151.121 985.365,-142.714 985.163,-153.307 991.813,-151.121"/>
</g>
<!-- Node16&#45;&gt;Node15 -->
<g id="edge29" class="edge"><title>Node16&#45;&gt;Node15</title>
<path fill="none" stroke="midnightblue" d="M1009.3,-307.936C967.948,-297.27 896.683,-278.889 846.753,-266.01"/>
<polygon fill="midnightblue" stroke="midnightblue" points="847.623,-262.62 837.066,-263.511 845.875,-269.398 847.623,-262.62"/>
</g>
<!-- Node17&#45;&gt;Node2 -->
<g id="edge32" class="edge"><title>Node17&#45;&gt;Node2</title>
<path fill="none" stroke="midnightblue" d="M677.5,-307.911C677.5,-287.477 677.5,-234.363 677.5,-190 677.5,-190 677.5,-190 677.5,-132 677.5,-44.1805 995.037,-18.7632 1102.46,-12.677"/>
<polygon fill="midnightblue" stroke="midnightblue" points="1102.97,-16.1546 1112.77,-12.1166 1102.59,-9.16491 1102.97,-16.1546"/>
</g>
<!-- Node17&#45;&gt;Node5 -->
<g id="edge33" class="edge"><title>Node17&#45;&gt;Node5</title>
<path fill="none" stroke="midnightblue" d="M645.956,-307.957C637.705,-305.865 628.796,-303.732 620.5,-302 525.928,-282.257 413.689,-265.519 354.265,-257.177"/>
<polygon fill="midnightblue" stroke="midnightblue" points="354.535,-253.681 344.147,-255.766 353.568,-260.613 354.535,-253.681"/>
</g>
<!-- Node17&#45;&gt;Node6 -->
<g id="edge31" class="edge"><title>Node17&#45;&gt;Node6</title>
<path fill="none" stroke="midnightblue" d="M681.548,-307.643C689.482,-291.184 708.59,-255.68 734.5,-235 798.199,-184.158 890.959,-155.585 943.104,-142.624"/>
<polygon fill="midnightblue" stroke="midnightblue" points="944.074,-145.99 952.971,-140.238 942.428,-139.186 944.074,-145.99"/>
</g>
<!-- Node17&#45;&gt;Node9 -->
<g id="edge35" class="edge"><title>Node17&#45;&gt;Node9</title>
<path fill="none" stroke="midnightblue" d="M665.128,-307.805C634.685,-286.411 555.886,-231.032 518.187,-204.538"/>
<polygon fill="midnightblue" stroke="midnightblue" points="520.153,-201.642 509.959,-198.756 516.128,-207.369 520.153,-201.642"/>
</g>
<!-- Node17&#45;&gt;Node15 -->
<g id="edge34" class="edge"><title>Node17&#45;&gt;Node15</title>
<path fill="none" stroke="midnightblue" d="M692.74,-307.734C709.186,-298.274 735.888,-282.914 757.232,-270.636"/>
<polygon fill="midnightblue" stroke="midnightblue" points="759.084,-273.609 766.007,-265.589 755.593,-267.541 759.084,-273.609"/>
</g>
<!-- Node18&#45;&gt;Node2 -->
<g id="edge37" class="edge"><title>Node18&#45;&gt;Node2</title>
<path fill="none" stroke="midnightblue" d="M740.489,-369.421C766.764,-344.311 841.827,-272.329 845.5,-266 863.03,-235.79 865.5,-224.928 865.5,-190 865.5,-190 865.5,-190 865.5,-132 865.5,-29.2903 1029.41,-13.1276 1102.75,-11.0365"/>
<polygon fill="midnightblue" stroke="midnightblue" points="1102.96,-14.5329 1112.88,-10.8215 1102.81,-7.53452 1102.96,-14.5329"/>
</g>
<!-- Node18&#45;&gt;Node9 -->
<g id="edge43" class="edge"><title>Node18&#45;&gt;Node9</title>
<path fill="none" stroke="midnightblue" d="M699.576,-375.912C645.203,-371.653 538.107,-359.985 513.5,-333 482.306,-298.791 487.891,-239.17 493.352,-208.858"/>
<polygon fill="midnightblue" stroke="midnightblue" points="496.837,-209.281 495.363,-198.789 489.972,-207.91 496.837,-209.281"/>
</g>
<!-- Node18&#45;&gt;Node15 -->
<g id="edge42" class="edge"><title>Node18&#45;&gt;Node15</title>
<path fill="none" stroke="midnightblue" d="M735.555,-369.305C744.498,-350.131 766.172,-303.66 779.47,-275.149"/>
<polygon fill="midnightblue" stroke="midnightblue" points="782.734,-276.43 783.789,-265.888 776.39,-273.471 782.734,-276.43"/>
</g>
<!-- Node19 -->
<g id="node19" class="node"><title>Node19</title>
<g id="a_node19"><a xlink:href="pca9534_8h.html" target="_top" xlink:title="driver/pca9534.h">
<polygon fill="white" stroke="black" points="379,-308 379,-327 466,-327 466,-308 379,-308"/>
<text text-anchor="middle" x="422.5" y="-315" font-family="Helvetica,sans-Serif" font-size="10.00">driver/pca9534.h</text>
</a>
</g>
</g>
<!-- Node18&#45;&gt;Node19 -->
<g id="edge38" class="edge"><title>Node18&#45;&gt;Node19</title>
<path fill="none" stroke="midnightblue" d="M699.667,-373.001C651.882,-365.337 558.851,-349.797 480.5,-333 475.429,-331.913 470.128,-330.698 464.879,-329.446"/>
<polygon fill="midnightblue" stroke="midnightblue" points="465.471,-325.988 454.926,-327.017 463.812,-332.788 465.471,-325.988"/>
</g>
<!-- Node20 -->
<g id="node20" class="node"><title>Node20</title>
<g id="a_node20"><a xlink:href="lcd__commands_8h.html" target="_top" xlink:title="driver/include/lcd\l_commands.h">
<polygon fill="white" stroke="black" points="523,-302.5 523,-332.5 612,-332.5 612,-302.5 523,-302.5"/>
<text text-anchor="start" x="531" y="-320.5" font-family="Helvetica,sans-Serif" font-size="10.00">driver/include/lcd</text>
<text text-anchor="middle" x="567.5" y="-309.5" font-family="Helvetica,sans-Serif" font-size="10.00">_commands.h</text>
</a>
</g>
</g>
<!-- Node18&#45;&gt;Node20 -->
<g id="edge41" class="edge"><title>Node18&#45;&gt;Node20</title>
<path fill="none" stroke="midnightblue" d="M708.003,-369.475C684.027,-360.776 646.127,-347.026 615.73,-335.998"/>
<polygon fill="midnightblue" stroke="midnightblue" points="616.746,-332.643 606.152,-332.523 614.358,-339.224 616.746,-332.643"/>
</g>
<!-- Node19&#45;&gt;Node2 -->
<g id="edge39" class="edge"><title>Node19&#45;&gt;Node2</title>
<path fill="none" stroke="midnightblue" d="M466.171,-308.83C524.75,-295.746 621.5,-263.074 621.5,-190 621.5,-190 621.5,-190 621.5,-132 621.5,-78.9638 664.611,-76.56 713.5,-56 783.66,-26.4944 1014.7,-15.3546 1102.88,-12.1137"/>
<polygon fill="midnightblue" stroke="midnightblue" points="1103.03,-15.6104 1112.9,-11.7569 1102.78,-8.61484 1103.03,-15.6104"/>
</g>
<!-- Node19&#45;&gt;Node5 -->
<g id="edge40" class="edge"><title>Node19&#45;&gt;Node5</title>
<path fill="none" stroke="midnightblue" d="M407.665,-307.734C389.192,-296.818 357.428,-278.049 335.72,-265.221"/>
<polygon fill="midnightblue" stroke="midnightblue" points="337.49,-262.201 327.1,-260.127 333.929,-268.228 337.49,-262.201"/>
</g>
<!-- Node21&#45;&gt;Node2 -->
<g id="edge45" class="edge"><title>Node21&#45;&gt;Node2</title>
<path fill="none" stroke="midnightblue" d="M1251.78,-425.321C1298.38,-397.599 1435.5,-306.159 1435.5,-190 1435.5,-190 1435.5,-190 1435.5,-132 1435.5,-75.6886 1250.52,-33 1172.04,-17.4228"/>
<polygon fill="midnightblue" stroke="midnightblue" points="1172.63,-13.971 1162.14,-15.4898 1171.28,-20.8413 1172.63,-13.971"/>
</g>
<!-- Node21&#45;&gt;Node6 -->
<g id="edge48" class="edge"><title>Node21&#45;&gt;Node6</title>
<path fill="none" stroke="midnightblue" d="M1250.29,-425.189C1261.33,-417.241 1276,-404.447 1282.5,-389 1290.03,-371.098 1295.47,-333.556 1277.5,-302 1222.57,-205.544 1088.8,-160.084 1021.92,-142.791"/>
<polygon fill="midnightblue" stroke="midnightblue" points="1022.72,-139.383 1012.17,-140.347 1021.02,-146.173 1022.72,-139.383"/>
</g>
<!-- Node21&#45;&gt;Node22 -->
<g id="edge46" class="edge"><title>Node21&#45;&gt;Node22</title>
<path fill="none" stroke="midnightblue" d="M1267.24,-425.444C1302.3,-415.685 1359.48,-399.768 1396.03,-389.596"/>
<polygon fill="midnightblue" stroke="midnightblue" points="1397.06,-392.942 1405.75,-386.889 1395.18,-386.198 1397.06,-392.942"/>
</g>
<!-- Node22&#45;&gt;Node2 -->
<g id="edge47" class="edge"><title>Node22&#45;&gt;Node2</title>
<path fill="none" stroke="midnightblue" d="M1435.6,-369.448C1446.99,-349.517 1473.5,-298.124 1473.5,-251.5 1473.5,-251.5 1473.5,-251.5 1473.5,-132 1473.5,-96.578 1476.5,-78.9298 1449.5,-56 1408.34,-21.0395 1245.19,-13.2382 1172.62,-11.4986"/>
<polygon fill="midnightblue" stroke="midnightblue" points="1172.26,-7.99025 1162.19,-11.2758 1172.12,-14.9887 1172.26,-7.99025"/>
</g>
<!-- Node23&#45;&gt;Node2 -->
<g id="edge51" class="edge"><title>Node23&#45;&gt;Node2</title>
<path fill="none" stroke="midnightblue" d="M981.262,-370.509C1051.26,-358.201 1182.77,-334.869 1184.5,-333 1227.93,-286.12 1199.5,-253.904 1199.5,-190 1199.5,-190 1199.5,-190 1199.5,-132 1199.5,-90.7408 1170.59,-49.413 1152.26,-27.346"/>
<polygon fill="midnightblue" stroke="midnightblue" points="1154.78,-24.9155 1145.61,-19.6217 1149.48,-29.4832 1154.78,-24.9155"/>
</g>
<!-- Node23&#45;&gt;Node6 -->
<g id="edge52" class="edge"><title>Node23&#45;&gt;Node6</title>
<path fill="none" stroke="midnightblue" d="M981.193,-370.164C1045.63,-358.24 1160.6,-336.543 1163.5,-333 1223.35,-260 1075.86,-178.22 1011.13,-147.032"/>
<polygon fill="midnightblue" stroke="midnightblue" points="1012.39,-143.756 1001.85,-142.637 1009.39,-150.082 1012.39,-143.756"/>
</g>
<!-- Node23&#45;&gt;Node10 -->
<g id="edge54" class="edge"><title>Node23&#45;&gt;Node10</title>
<path fill="none" stroke="midnightblue" d="M980.504,-369.477C1035.31,-358.159 1124.82,-338.909 1129.5,-333 1138.05,-322.198 1138.05,-312.803 1129.5,-302 1039.84,-188.721 590.031,-149.661 403.13,-138.183"/>
<polygon fill="midnightblue" stroke="midnightblue" points="403.277,-134.685 393.084,-137.577 402.855,-141.673 403.277,-134.685"/>
</g>
<!-- Node23&#45;&gt;Node15 -->
<g id="edge53" class="edge"><title>Node23&#45;&gt;Node15</title>
<path fill="none" stroke="midnightblue" d="M938.225,-369.306C937.279,-353.834 933.168,-321.336 915.5,-302 897.599,-282.41 871.036,-270.267 846.995,-262.817"/>
<polygon fill="midnightblue" stroke="midnightblue" points="847.809,-259.409 837.23,-259.997 845.867,-266.134 847.809,-259.409"/>
</g>
<!-- Node23&#45;&gt;Node16 -->
<g id="edge55" class="edge"><title>Node23&#45;&gt;Node16</title>
<path fill="none" stroke="midnightblue" d="M953.401,-369.475C970.468,-359.711 998.661,-343.581 1018.76,-332.081"/>
<polygon fill="midnightblue" stroke="midnightblue" points="1020.69,-335.013 1027.63,-327.009 1017.21,-328.937 1020.69,-335.013"/>
</g>
<!-- Node25&#45;&gt;Node2 -->
<g id="edge58" class="edge"><title>Node25&#45;&gt;Node2</title>
<path fill="none" stroke="midnightblue" d="M1068.86,-425.491C1087.08,-412.982 1122.26,-388.953 1152.5,-369 1177.2,-352.704 1191.8,-357.424 1208.5,-333 1245.1,-279.469 1237.5,-254.849 1237.5,-190 1237.5,-190 1237.5,-190 1237.5,-132 1237.5,-84.0867 1190.34,-44.9144 1160.79,-25.0753"/>
<polygon fill="midnightblue" stroke="midnightblue" points="1162.55,-22.0478 1152.26,-19.5508 1158.75,-27.9237 1162.55,-22.0478"/>
</g>
<!-- Node25&#45;&gt;Node3 -->
<g id="edge60" class="edge"><title>Node25&#45;&gt;Node3</title>
<path fill="none" stroke="midnightblue" d="M1061.63,-444.751C1063.16,-451.858 1063.6,-462.136 1062.97,-471.101"/>
<polygon fill="midnightblue" stroke="midnightblue" points="1059.49,-470.713 1061.67,-481.083 1066.43,-471.622 1059.49,-470.713"/>
</g>
<!-- Node25&#45;&gt;Node18 -->
<g id="edge59" class="edge"><title>Node25&#45;&gt;Node18</title>
<path fill="none" stroke="midnightblue" d="M1018.26,-427.647C956.909,-417.453 836.935,-397.518 773.359,-386.955"/>
<polygon fill="midnightblue" stroke="midnightblue" points="773.724,-383.468 763.285,-385.281 772.577,-390.373 773.724,-383.468"/>
</g>
<!-- Node25&#45;&gt;Node22 -->
<g id="edge65" class="edge"><title>Node25&#45;&gt;Node22</title>
<path fill="none" stroke="midnightblue" d="M1094.77,-428.475C1167.72,-417.941 1325.68,-395.134 1395.78,-385.013"/>
<polygon fill="midnightblue" stroke="midnightblue" points="1396.46,-388.451 1405.86,-383.558 1395.46,-381.523 1396.46,-388.451"/>
</g>
<!-- Node25&#45;&gt;Node23 -->
<g id="edge61" class="edge"><title>Node25&#45;&gt;Node23</title>
<path fill="none" stroke="midnightblue" d="M1037.8,-425.444C1018.56,-416.636 988.348,-402.812 966.3,-392.722"/>
<polygon fill="midnightblue" stroke="midnightblue" points="967.66,-389.495 957.11,-388.516 964.747,-395.86 967.66,-389.495"/>
</g>
<!-- Node25&#45;&gt;Node24 -->
<g id="edge62" class="edge"><title>Node25&#45;&gt;Node24</title>
<path fill="none" stroke="midnightblue" d="M1082.01,-425.444C1109.1,-416.359 1152.09,-401.939 1182.37,-391.783"/>
<polygon fill="midnightblue" stroke="midnightblue" points="1183.74,-395.015 1192.11,-388.516 1181.51,-388.378 1183.74,-395.015"/>
</g>
<!-- Node26 -->
<g id="node26" class="node"><title>Node26</title>
<g id="a_node26"><a xlink:href="menu__struct_8h.html" target="_top" xlink:title="menu/menu_struct.h">
<polygon fill="white" stroke="black" points="999.5,-369.5 999.5,-388.5 1105.5,-388.5 1105.5,-369.5 999.5,-369.5"/>
<text text-anchor="middle" x="1052.5" y="-376.5" font-family="Helvetica,sans-Serif" font-size="10.00">menu/menu_struct.h</text>
</a>
</g>
</g>
<!-- Node25&#45;&gt;Node26 -->
<g id="edge63" class="edge"><title>Node25&#45;&gt;Node26</title>
<path fill="none" stroke="midnightblue" d="M1050.67,-425.083C1048.66,-418.006 1047.47,-407.861 1047.43,-398.986"/>
<polygon fill="midnightblue" stroke="midnightblue" points="1050.94,-398.936 1048.02,-388.751 1043.95,-398.533 1050.94,-398.936"/>
</g>
<!-- Node26&#45;&gt;Node25 -->
<g id="edge64" class="edge"><title>Node26&#45;&gt;Node25</title>
<path fill="none" stroke="midnightblue" d="M1058.28,-388.751C1060.31,-395.78 1061.51,-405.91 1061.57,-414.805"/>
<polygon fill="midnightblue" stroke="midnightblue" points="1058.06,-414.906 1061.01,-425.083 1065.05,-415.29 1058.06,-414.906"/>
</g>
<!-- Node27&#45;&gt;Node1 -->
<g id="edge70" class="edge"><title>Node27&#45;&gt;Node1</title>
<path fill="none" stroke="midnightblue" d="M1561.03,-388.552C1582.45,-395.371 1609.27,-406.849 1627.5,-425 1656.41,-453.787 1672.01,-499.851 1679.27,-527.733"/>
<polygon fill="midnightblue" stroke="midnightblue" points="1675.87,-528.574 1681.65,-537.454 1682.67,-526.909 1675.87,-528.574"/>
</g>
<!-- Node27&#45;&gt;Node2 -->
<g id="edge68" class="edge"><title>Node27&#45;&gt;Node2</title>
<path fill="none" stroke="midnightblue" d="M1525.93,-369.415C1524.61,-348.992 1521.5,-295.897 1521.5,-251.5 1521.5,-251.5 1521.5,-251.5 1521.5,-132 1521.5,-92.285 1507.83,-77.5932 1474.5,-56 1425.16,-24.0351 1248.55,-14.569 1172.62,-11.942"/>
<polygon fill="midnightblue" stroke="midnightblue" points="1172.28,-8.42927 1162.17,-11.6022 1172.05,-15.4256 1172.28,-8.42927"/>
</g>
<!-- Node27&#45;&gt;Node3 -->
<g id="edge69" class="edge"><title>Node27&#45;&gt;Node3</title>
<path fill="none" stroke="midnightblue" d="M1524.68,-388.56C1515.43,-403.012 1487.23,-431.95 1456.5,-445 1393.97,-471.55 1192.7,-484.004 1101.71,-488.242"/>
<polygon fill="midnightblue" stroke="midnightblue" points="1101.53,-484.747 1091.7,-488.696 1101.84,-491.74 1101.53,-484.747"/>
</g>
<!-- Node28&#45;&gt;Node2 -->
<g id="edge72" class="edge"><title>Node28&#45;&gt;Node2</title>
<path fill="none" stroke="midnightblue" d="M1571.12,-425.424C1582.78,-406.79 1608.5,-360.865 1608.5,-318.5 1608.5,-318.5 1608.5,-318.5 1608.5,-132 1608.5,-75.4664 1558.98,-77.0143 1506.5,-56 1446.08,-31.8074 1251.81,-17.8028 1172.11,-12.9499"/>
<polygon fill="midnightblue" stroke="midnightblue" points="1172.28,-9.45393 1162.09,-12.3514 1171.87,-16.4415 1172.28,-9.45393"/>
</g>
<!-- Node28&#45;&gt;Node3 -->
<g id="edge73" class="edge"><title>Node28&#45;&gt;Node3</title>
<path fill="none" stroke="midnightblue" d="M1512.45,-444.406C1510.79,-444.609 1509.13,-444.807 1507.5,-445 1359.78,-462.436 1183.8,-479.139 1102.11,-486.318"/>
<polygon fill="midnightblue" stroke="midnightblue" points="1101.35,-482.872 1091.69,-487.227 1101.96,-489.845 1101.35,-482.872"/>
</g>
<!-- Node29&#45;&gt;Node3 -->
<g id="edge75" class="edge"><title>Node29&#45;&gt;Node3</title>
<path fill="none" stroke="midnightblue" d="M1336.97,-444.523C1274.26,-455.27 1163.58,-473.522 1101.6,-483.317"/>
<polygon fill="midnightblue" stroke="midnightblue" points="1101.06,-479.86 1091.72,-484.871 1102.14,-486.775 1101.06,-479.86"/>
</g>
<!-- Node29&#45;&gt;Node27 -->
<g id="edge76" class="edge"><title>Node29&#45;&gt;Node27</title>
<path fill="none" stroke="midnightblue" d="M1406.16,-425.444C1429.9,-416.478 1467.41,-402.314 1494.24,-392.183"/>
<polygon fill="midnightblue" stroke="midnightblue" points="1495.83,-395.324 1503.95,-388.516 1493.36,-388.775 1495.83,-395.324"/>
</g>
<!-- Node30&#45;&gt;Node2 -->
<g id="edge79" class="edge"><title>Node30&#45;&gt;Node2</title>
<path fill="none" stroke="midnightblue" d="M105.729,-307.911C106.255,-287.479 107.5,-234.368 107.5,-190 107.5,-190 107.5,-190 107.5,-132 107.5,-72.5773 161.221,-75.072 217.5,-56 302.444,-27.2139 945.055,-14.3217 1102.68,-11.5736"/>
<polygon fill="midnightblue" stroke="midnightblue" points="1102.82,-15.0717 1112.76,-11.4001 1102.7,-8.0727 1102.82,-15.0717"/>
</g>
<!-- Node30&#45;&gt;Node5 -->
<g id="edge80" class="edge"><title>Node30&#45;&gt;Node5</title>
<path fill="none" stroke="midnightblue" d="M132.988,-307.869C169.665,-296.351 234.726,-275.922 275.632,-263.077"/>
<polygon fill="midnightblue" stroke="midnightblue" points="276.736,-266.399 285.228,-260.064 274.639,-259.72 276.736,-266.399"/>
</g>
<!-- Node31&#45;&gt;Node2 -->
<g id="edge82" class="edge"><title>Node31&#45;&gt;Node2</title>
<path fill="none" stroke="midnightblue" d="M40.0114,-179.295C41.9637,-154.909 51.1668,-85.7628 93.5,-56 135.677,-26.3468 926.378,-13.871 1102.8,-11.4503"/>
<polygon fill="midnightblue" stroke="midnightblue" points="1102.88,-14.9497 1112.83,-11.3145 1102.78,-7.95033 1102.88,-14.9497"/>
</g>
<!-- Node31&#45;&gt;Node10 -->
<g id="edge83" class="edge"><title>Node31&#45;&gt;Node10</title>
<path fill="none" stroke="midnightblue" d="M79.0078,-180.435C127.954,-171.062 211.612,-155.042 266.731,-144.488"/>
<polygon fill="midnightblue" stroke="midnightblue" points="267.512,-147.902 276.676,-142.583 266.196,-141.027 267.512,-147.902"/>
</g>
</g>
</svg>
