<?xml version="1.0" encoding="UTF-8" standalone="no"?>
<!DOCTYPE svg PUBLIC "-//W3C//DTD SVG 1.1//EN"
 "http://www.w3.org/Graphics/SVG/1.1/DTD/svg11.dtd">
<!-- Generated by graphviz version 2.38.0 (20140413.2041)
 -->
<!-- Title: rds Pages: 1 -->
<svg width="322pt" height="95pt"
 viewBox="0.00 0.00 321.50 95.00" xmlns="http://www.w3.org/2000/svg" xmlns:xlink="http://www.w3.org/1999/xlink">
<g id="graph0" class="graph" transform="scale(1 1) rotate(0) translate(4 91)">
<title>rds</title>
<polygon fill="white" stroke="none" points="-4,4 -4,-91 317.5,-91 317.5,4 -4,4"/>
<!-- Node1 -->
<g id="node1" class="node"><title>Node1</title>
<polygon fill="#bfbfbf" stroke="black" points="156,-0.5 156,-19.5 186,-19.5 186,-0.5 156,-0.5"/>
<text text-anchor="middle" x="171" y="-7.5" font-family="Helvetica,sans-Serif" font-size="10.00">rds</text>
</g>
<!-- Node2 -->
<g id="node2" class="node"><title>Node2</title>
<g id="a_node2"><a xlink:href="structblock__b.html" target="_top" xlink:title="block_b">
<polygon fill="white" stroke="black" points="0,-67.5 0,-86.5 50,-86.5 50,-67.5 0,-67.5"/>
<text text-anchor="middle" x="25" y="-74.5" font-family="Helvetica,sans-Serif" font-size="10.00">block_b</text>
</a>
</g>
</g>
<!-- Node2&#45;&gt;Node1 -->
<g id="edge1" class="edge"><title>Node2&#45;&gt;Node1</title>
<path fill="none" stroke="#9a32cd" stroke-dasharray="5,2" d="M39.6928,-60.2936C47.6921,-52.5737 58.1541,-43.7234 69,-38 97.5135,-22.9533 135.032,-15.8341 155.696,-12.854"/>
<polygon fill="#9a32cd" stroke="#9a32cd" points="37.1314,-57.9062 32.5913,-67.479 42.1101,-62.8268 37.1314,-57.9062"/>
<text text-anchor="middle" x="87.5" y="-41" font-family="Helvetica,sans-Serif" font-size="10.00"> block_b</text>
</g>
<!-- Node3 -->
<g id="node3" class="node"><title>Node3</title>
<g id="a_node3"><a xlink:href="structstatus.html" target="_top" xlink:title="In here the are structs declared for several RDS stuff(See http://www.g.laroche. free.fr/english/rds/groupes/listeGroupesRDS.htm for more information). Also there are functions declared to update RDS and to get the current time out of RDS. ">
<polygon fill="white" stroke="black" points="68,-67.5 68,-86.5 112,-86.5 112,-67.5 68,-67.5"/>
<text text-anchor="middle" x="90" y="-74.5" font-family="Helvetica,sans-Serif" font-size="10.00">status</text>
</a>
</g>
</g>
<!-- Node3&#45;&gt;Node1 -->
<g id="edge2" class="edge"><title>Node3&#45;&gt;Node1</title>
<path fill="none" stroke="#9a32cd" stroke-dasharray="5,2" d="M101.059,-59.0034C106.229,-51.9234 112.826,-43.9777 120,-38 130.775,-29.0213 145.018,-21.7881 155.713,-17.0765"/>
<polygon fill="#9a32cd" stroke="#9a32cd" points="98.1364,-57.0765 95.3377,-67.295 103.898,-61.0521 98.1364,-57.0765"/>
<text text-anchor="middle" x="135.5" y="-41" font-family="Helvetica,sans-Serif" font-size="10.00"> status</text>
</g>
<!-- Node4 -->
<g id="node4" class="node"><title>Node4</title>
<g id="a_node4"><a xlink:href="structfifo.html" target="_top" xlink:title="fifo">
<polygon fill="white" stroke="black" points="130.5,-67.5 130.5,-86.5 159.5,-86.5 159.5,-67.5 130.5,-67.5"/>
<text text-anchor="middle" x="145" y="-74.5" font-family="Helvetica,sans-Serif" font-size="10.00">fifo</text>
</a>
</g>
</g>
<!-- Node4&#45;&gt;Node1 -->
<g id="edge3" class="edge"><title>Node4&#45;&gt;Node1</title>
<path fill="none" stroke="#9a32cd" stroke-dasharray="5,2" d="M151.408,-57.8644C153.714,-51.5438 156.391,-44.4269 159,-38 161.47,-31.9162 164.47,-25.1662 166.852,-19.9372"/>
<polygon fill="#9a32cd" stroke="#9a32cd" points="148.039,-56.8929 147.957,-67.4874 154.628,-59.2561 148.039,-56.8929"/>
<text text-anchor="middle" x="167" y="-41" font-family="Helvetica,sans-Serif" font-size="10.00"> fifo</text>
</g>
<!-- Node5 -->
<g id="node5" class="node"><title>Node5</title>
<g id="a_node5"><a xlink:href="structsync.html" target="_top" xlink:title="sync">
<polygon fill="white" stroke="black" points="178,-67.5 178,-86.5 216,-86.5 216,-67.5 178,-67.5"/>
<text text-anchor="middle" x="197" y="-74.5" font-family="Helvetica,sans-Serif" font-size="10.00">sync</text>
</a>
</g>
</g>
<!-- Node5&#45;&gt;Node1 -->
<g id="edge4" class="edge"><title>Node5&#45;&gt;Node1</title>
<path fill="none" stroke="#9a32cd" stroke-dasharray="5,2" d="M189.716,-57.79C184.723,-45.3076 178.325,-29.3135 174.451,-19.6273"/>
<polygon fill="#9a32cd" stroke="#9a32cd" points="186.53,-59.2489 193.494,-67.2338 193.029,-56.6491 186.53,-59.2489"/>
<text text-anchor="middle" x="198.5" y="-41" font-family="Helvetica,sans-Serif" font-size="10.00"> sync</text>
</g>
<!-- Node6 -->
<g id="node6" class="node"><title>Node6</title>
<g id="a_node6"><a xlink:href="structinfo.html" target="_top" xlink:title="info">
<polygon fill="white" stroke="black" points="234,-67.5 234,-86.5 266,-86.5 266,-67.5 234,-67.5"/>
<text text-anchor="middle" x="250" y="-74.5" font-family="Helvetica,sans-Serif" font-size="10.00">info</text>
</a>
</g>
</g>
<!-- Node6&#45;&gt;Node1 -->
<g id="edge5" class="edge"><title>Node6&#45;&gt;Node1</title>
<path fill="none" stroke="#9a32cd" stroke-dasharray="5,2" d="M236.62,-59.5377C230.444,-52.4713 222.766,-44.3892 215,-38 206.141,-30.7116 195.141,-23.9616 186.356,-19.0337"/>
<polygon fill="#9a32cd" stroke="#9a32cd" points="233.97,-61.8239 243.097,-67.2042 239.317,-57.3065 233.97,-61.8239"/>
<text text-anchor="middle" x="236.5" y="-41" font-family="Helvetica,sans-Serif" font-size="10.00"> info</text>
</g>
<!-- Node7 -->
<g id="node7" class="node"><title>Node7</title>
<g id="a_node7"><a xlink:href="structerr.html" target="_top" xlink:title="err">
<polygon fill="white" stroke="black" points="284.5,-67.5 284.5,-86.5 313.5,-86.5 313.5,-67.5 284.5,-67.5"/>
<text text-anchor="middle" x="299" y="-74.5" font-family="Helvetica,sans-Serif" font-size="10.00">err</text>
</a>
</g>
</g>
<!-- Node7&#45;&gt;Node1 -->
<g id="edge6" class="edge"><title>Node7&#45;&gt;Node1</title>
<path fill="none" stroke="#9a32cd" stroke-dasharray="5,2" d="M282.114,-60.6473C273.087,-53.0457 261.489,-44.1945 250,-38 229.077,-26.7192 202.54,-18.8111 186.169,-14.5841"/>
<polygon fill="#9a32cd" stroke="#9a32cd" points="280.053,-63.4945 289.892,-67.4251 284.652,-58.2168 280.053,-63.4945"/>
<text text-anchor="middle" x="275.5" y="-41" font-family="Helvetica,sans-Serif" font-size="10.00"> err</text>
</g>
</g>
</svg>
