<?xml version="1.0" encoding="UTF-8" standalone="no"?>
<!DOCTYPE svg PUBLIC "-//W3C//DTD SVG 1.1//EN"
 "http://www.w3.org/Graphics/SVG/1.1/DTD/svg11.dtd">
<!-- Generated by graphviz version 2.38.0 (20140413.2041)
 -->
<!-- Title: time_update Pages: 1 -->
<svg width="236pt" height="28pt"
 viewBox="0.00 0.00 236.00 28.00" xmlns="http://www.w3.org/2000/svg" xmlns:xlink="http://www.w3.org/1999/xlink">
<g id="graph0" class="graph" transform="scale(1 1) rotate(0) translate(4 24)">
<title>time_update</title>
<polygon fill="white" stroke="none" points="-4,4 -4,-24 232,-24 232,4 -4,4"/>
<!-- Node1 -->
<g id="node1" class="node"><title>Node1</title>
<polygon fill="#bfbfbf" stroke="black" points="0,-0.5 0,-19.5 70,-19.5 70,-0.5 0,-0.5"/>
<text text-anchor="middle" x="35" y="-7.5" font-family="Helvetica,sans-Serif" font-size="10.00">time_update</text>
</g>
<!-- Node2 -->
<g id="node2" class="node"><title>Node2</title>
<g id="a_node2"><a xlink:href="handler_8c.html#a4f639cde11f5cab70d795fd2f75c9d22" target="_top" xlink:title="Handler for menu, RDS, time, the encoders and rsq. ">
<polygon fill="white" stroke="black" points="106,-0.5 106,-19.5 154,-19.5 154,-0.5 106,-0.5"/>
<text text-anchor="middle" x="130" y="-7.5" font-family="Helvetica,sans-Serif" font-size="10.00">handler</text>
</a>
</g>
</g>
<!-- Node1&#45;&gt;Node2 -->
<g id="edge1" class="edge"><title>Node1&#45;&gt;Node2</title>
<path fill="none" stroke="midnightblue" d="M80.3634,-10C89.2108,-10 98.1616,-10 105.931,-10"/>
<polygon fill="midnightblue" stroke="midnightblue" points="80.1017,-6.5001 70.1017,-10 80.1017,-13.5001 80.1017,-6.5001"/>
</g>
<!-- Node3 -->
<g id="node3" class="node"><title>Node3</title>
<g id="a_node3"><a xlink:href="main_8c.html#a840291bc02cba5474a4cb46a9b9566fe" target="_top" xlink:title="Main function. ">
<polygon fill="white" stroke="black" points="190,-0.5 190,-19.5 228,-19.5 228,-0.5 190,-0.5"/>
<text text-anchor="middle" x="209" y="-7.5" font-family="Helvetica,sans-Serif" font-size="10.00">main</text>
</a>
</g>
</g>
<!-- Node2&#45;&gt;Node3 -->
<g id="edge2" class="edge"><title>Node2&#45;&gt;Node3</title>
<path fill="none" stroke="midnightblue" d="M164.352,-10C172.996,-10 181.993,-10 189.557,-10"/>
<polygon fill="midnightblue" stroke="midnightblue" points="164.103,-6.5001 154.103,-10 164.103,-13.5001 164.103,-6.5001"/>
</g>
</g>
</svg>
