<?xml version="1.0" encoding="UTF-8" standalone="no"?>
<!DOCTYPE svg PUBLIC "-//W3C//DTD SVG 1.1//EN"
 "http://www.w3.org/Graphics/SVG/1.1/DTD/svg11.dtd">
<!-- Generated by graphviz version 2.38.0 (20140413.2041)
 -->
<!-- Title: D:/GIT/fhradiov2/driver/timer.h Pages: 1 -->
<svg width="1264pt" height="575pt"
 viewBox="0.00 0.00 1264.00 575.00" xmlns="http://www.w3.org/2000/svg" xmlns:xlink="http://www.w3.org/1999/xlink">
<g id="graph0" class="graph" transform="scale(1 1) rotate(0) translate(4 571)">
<title>D:/GIT/fhradiov2/driver/timer.h</title>
<polygon fill="white" stroke="none" points="-4,4 -4,-571 1260,-571 1260,4 -4,4"/>
<!-- Node1 -->
<g id="node1" class="node"><title>Node1</title>
<polygon fill="#bfbfbf" stroke="black" points="853,-536.5 853,-566.5 963,-566.5 963,-536.5 853,-536.5"/>
<text text-anchor="start" x="861" y="-554.5" font-family="Helvetica,sans-Serif" font-size="10.00">D:/GIT/fhradiov2/driver</text>
<text text-anchor="middle" x="908" y="-543.5" font-family="Helvetica,sans-Serif" font-size="10.00">/timer.h</text>
</g>
<!-- Node2 -->
<g id="node2" class="node"><title>Node2</title>
<g id="a_node2"><a xlink:href="i2c_8h.html" target="_top" xlink:title="I2C implemtation for MSP430G2553, interrupt based. &#160;&#160;This implemtation based on examples from Texas I...">
<polygon fill="white" stroke="black" points="687,-469.5 687,-499.5 797,-499.5 797,-469.5 687,-469.5"/>
<text text-anchor="start" x="695" y="-487.5" font-family="Helvetica,sans-Serif" font-size="10.00">D:/GIT/fhradiov2/driver</text>
<text text-anchor="middle" x="742" y="-476.5" font-family="Helvetica,sans-Serif" font-size="10.00">/i2c.h</text>
</a>
</g>
</g>
<!-- Node1&#45;&gt;Node2 -->
<g id="edge1" class="edge"><title>Node1&#45;&gt;Node2</title>
<path fill="none" stroke="midnightblue" d="M862.494,-532.682C835.871,-522.257 802.732,-509.281 777.949,-499.577"/>
<polygon fill="midnightblue" stroke="midnightblue" points="861.393,-536.009 871.98,-536.396 863.945,-529.491 861.393,-536.009"/>
</g>
<!-- Node5 -->
<g id="node5" class="node"><title>Node5</title>
<g id="a_node5"><a xlink:href="radio_8h.html" target="_top" xlink:title="D:/GIT/fhradiov2/radio\l/radio.h">
<polygon fill="white" stroke="black" points="408.5,-268.5 408.5,-298.5 517.5,-298.5 517.5,-268.5 408.5,-268.5"/>
<text text-anchor="start" x="416.5" y="-286.5" font-family="Helvetica,sans-Serif" font-size="10.00">D:/GIT/fhradiov2/radio</text>
<text text-anchor="middle" x="463" y="-275.5" font-family="Helvetica,sans-Serif" font-size="10.00">/radio.h</text>
</a>
</g>
</g>
<!-- Node1&#45;&gt;Node5 -->
<g id="edge59" class="edge"><title>Node1&#45;&gt;Node5</title>
<path fill="none" stroke="midnightblue" d="M842.395,-548.893C692.159,-543.687 330.378,-521.98 256,-433 228.066,-399.582 229.098,-369.254 256,-335 274.621,-311.29 353.449,-297.3 408.266,-290.264"/>
<polygon fill="midnightblue" stroke="midnightblue" points="842.728,-552.405 852.839,-549.24 842.961,-545.409 842.728,-552.405"/>
</g>
<!-- Node18 -->
<g id="node18" class="node"><title>Node18</title>
<g id="a_node18"><a xlink:href="rds_8h.html" target="_top" xlink:title="D:/GIT/fhradiov2/system\l/rds.h">
<polygon fill="white" stroke="black" points="958,-201.5 958,-231.5 1078,-231.5 1078,-201.5 958,-201.5"/>
<text text-anchor="start" x="966" y="-219.5" font-family="Helvetica,sans-Serif" font-size="10.00">D:/GIT/fhradiov2/system</text>
<text text-anchor="middle" x="1018" y="-208.5" font-family="Helvetica,sans-Serif" font-size="10.00">/rds.h</text>
</a>
</g>
</g>
<!-- Node1&#45;&gt;Node18 -->
<g id="edge60" class="edge"><title>Node1&#45;&gt;Node18</title>
<path fill="none" stroke="midnightblue" d="M973.254,-538.111C1034.9,-522.18 1118,-487.846 1118,-418.5 1118,-418.5 1118,-418.5 1118,-349.5 1118,-297.749 1068.56,-253.514 1039.21,-231.811"/>
<polygon fill="midnightblue" stroke="midnightblue" points="972.042,-534.805 963.175,-540.603 973.723,-541.6 972.042,-534.805"/>
</g>
<!-- Node29 -->
<g id="node29" class="node"><title>Node29</title>
<g id="a_node29"><a xlink:href="lcd_8h.html" target="_top" xlink:title="D:/GIT/fhradiov2/driver\l/lcd.h">
<polygon fill="white" stroke="black" points="99,-335.5 99,-365.5 209,-365.5 209,-335.5 99,-335.5"/>
<text text-anchor="start" x="107" y="-353.5" font-family="Helvetica,sans-Serif" font-size="10.00">D:/GIT/fhradiov2/driver</text>
<text text-anchor="middle" x="154" y="-342.5" font-family="Helvetica,sans-Serif" font-size="10.00">/lcd.h</text>
</a>
</g>
</g>
<!-- Node1&#45;&gt;Node29 -->
<g id="edge55" class="edge"><title>Node1&#45;&gt;Node29</title>
<path fill="none" stroke="midnightblue" d="M842.679,-549.411C681.309,-546.199 273.216,-534.703 223,-500 176.46,-467.837 160.581,-395.944 155.817,-365.524"/>
<polygon fill="midnightblue" stroke="midnightblue" points="842.879,-552.916 852.945,-549.611 843.015,-545.917 842.879,-552.916"/>
</g>
<!-- Node32 -->
<g id="node32" class="node"><title>Node32</title>
<g id="a_node32"><a xlink:href="si4735_8h.html" target="_top" xlink:title="D:/GIT/fhradiov2/driver\l/si4735.h">
<polygon fill="white" stroke="black" points="980,-335.5 980,-365.5 1090,-365.5 1090,-335.5 980,-335.5"/>
<text text-anchor="start" x="988" y="-353.5" font-family="Helvetica,sans-Serif" font-size="10.00">D:/GIT/fhradiov2/driver</text>
<text text-anchor="middle" x="1035" y="-342.5" font-family="Helvetica,sans-Serif" font-size="10.00">/si4735.h</text>
</a>
</g>
</g>
<!-- Node1&#45;&gt;Node32 -->
<g id="edge56" class="edge"><title>Node1&#45;&gt;Node32</title>
<path fill="none" stroke="midnightblue" d="M928.756,-529.054C949.653,-506.574 981.755,-469.507 1003,-433 1015.92,-410.796 1025.73,-382.39 1030.9,-365.647"/>
<polygon fill="midnightblue" stroke="midnightblue" points="926.173,-526.691 921.868,-536.372 931.27,-531.489 926.173,-526.691"/>
</g>
<!-- Node35 -->
<g id="node35" class="node"><title>Node35</title>
<g id="a_node35"><a xlink:href="tpa2016d2_8h.html" target="_top" xlink:title="D:/GIT/fhradiov2/driver\l/tpa2016d2.h">
<polygon fill="white" stroke="black" points="853,-402.5 853,-432.5 963,-432.5 963,-402.5 853,-402.5"/>
<text text-anchor="start" x="861" y="-420.5" font-family="Helvetica,sans-Serif" font-size="10.00">D:/GIT/fhradiov2/driver</text>
<text text-anchor="middle" x="908" y="-409.5" font-family="Helvetica,sans-Serif" font-size="10.00">/tpa2016d2.h</text>
</a>
</g>
</g>
<!-- Node1&#45;&gt;Node35 -->
<g id="edge58" class="edge"><title>Node1&#45;&gt;Node35</title>
<path fill="none" stroke="midnightblue" d="M908,-526.024C908,-498.512 908,-454.789 908,-432.525"/>
<polygon fill="midnightblue" stroke="midnightblue" points="904.5,-526.374 908,-536.374 911.5,-526.374 904.5,-526.374"/>
</g>
<!-- Node37 -->
<g id="node37" class="node"><title>Node37</title>
<g id="a_node37"><a xlink:href="timer_8c.html" target="_top" xlink:title="D:/GIT/fhradiov2/driver\l/src/timer.c">
<polygon fill="white" stroke="black" points="1146,-469.5 1146,-499.5 1256,-499.5 1256,-469.5 1146,-469.5"/>
<text text-anchor="start" x="1154" y="-487.5" font-family="Helvetica,sans-Serif" font-size="10.00">D:/GIT/fhradiov2/driver</text>
<text text-anchor="middle" x="1201" y="-476.5" font-family="Helvetica,sans-Serif" font-size="10.00">/src/timer.c</text>
</a>
</g>
</g>
<!-- Node1&#45;&gt;Node37 -->
<g id="edge57" class="edge"><title>Node1&#45;&gt;Node37</title>
<path fill="none" stroke="midnightblue" d="M973.192,-536.038C1024.98,-524.549 1096.61,-508.659 1145.64,-497.782"/>
<polygon fill="midnightblue" stroke="midnightblue" points="972.116,-532.691 963.111,-538.274 973.632,-539.525 972.116,-532.691"/>
</g>
<!-- Node3 -->
<g id="node3" class="node"><title>Node3</title>
<g id="a_node3"><a xlink:href="opt3001_8h.html" target="_top" xlink:title="D:/GIT/fhradiov2/driver\l/opt3001.h">
<polygon fill="white" stroke="black" points="521,-402.5 521,-432.5 631,-432.5 631,-402.5 521,-402.5"/>
<text text-anchor="start" x="529" y="-420.5" font-family="Helvetica,sans-Serif" font-size="10.00">D:/GIT/fhradiov2/driver</text>
<text text-anchor="middle" x="576" y="-409.5" font-family="Helvetica,sans-Serif" font-size="10.00">/opt3001.h</text>
</a>
</g>
</g>
<!-- Node2&#45;&gt;Node3 -->
<g id="edge2" class="edge"><title>Node2&#45;&gt;Node3</title>
<path fill="none" stroke="midnightblue" d="M696.494,-465.682C669.871,-455.257 636.732,-442.281 611.949,-432.577"/>
<polygon fill="midnightblue" stroke="midnightblue" points="695.393,-469.009 705.98,-469.396 697.945,-462.491 695.393,-469.009"/>
</g>
<!-- Node2&#45;&gt;Node18 -->
<g id="edge53" class="edge"><title>Node2&#45;&gt;Node18</title>
<path fill="none" stroke="midnightblue" d="M774.096,-463.503C785.395,-455.195 797.406,-444.74 806,-433 833.499,-395.433 821.657,-376.376 843,-335 859.444,-303.12 859.994,-290.414 888,-268 908.983,-251.207 936.211,-239.482 960.322,-231.588"/>
<polygon fill="midnightblue" stroke="midnightblue" points="771.836,-460.813 765.663,-469.423 775.858,-466.542 771.836,-460.813"/>
</g>
<!-- Node20 -->
<g id="node20" class="node"><title>Node20</title>
<g id="a_node20"><a xlink:href="rsq_8h.html" target="_top" xlink:title="D:/GIT/fhradiov2/system\l/rsq.h">
<polygon fill="white" stroke="black" points="804,-201.5 804,-231.5 924,-231.5 924,-201.5 804,-201.5"/>
<text text-anchor="start" x="812" y="-219.5" font-family="Helvetica,sans-Serif" font-size="10.00">D:/GIT/fhradiov2/system</text>
<text text-anchor="middle" x="864" y="-208.5" font-family="Helvetica,sans-Serif" font-size="10.00">/rsq.h</text>
</a>
</g>
</g>
<!-- Node2&#45;&gt;Node20 -->
<g id="edge54" class="edge"><title>Node2&#45;&gt;Node20</title>
<path fill="none" stroke="midnightblue" d="M705.875,-463.803C694.851,-455.81 684.051,-445.483 678,-433 671.99,-420.602 672.556,-414.657 678,-402 687.192,-380.629 699.342,-382.241 716,-366 766.039,-317.213 824.269,-258.075 850.257,-231.556"/>
<polygon fill="midnightblue" stroke="midnightblue" points="704.025,-466.776 714.275,-469.456 707.933,-460.969 704.025,-466.776"/>
</g>
<!-- Node26 -->
<g id="node26" class="node"><title>Node26</title>
<g id="a_node26"><a xlink:href="pca9530_8h.html" target="_top" xlink:title="D:/GIT/fhradiov2/driver\l/pca9530.h">
<polygon fill="white" stroke="black" points="393,-402.5 393,-432.5 503,-432.5 503,-402.5 393,-402.5"/>
<text text-anchor="start" x="401" y="-420.5" font-family="Helvetica,sans-Serif" font-size="10.00">D:/GIT/fhradiov2/driver</text>
<text text-anchor="middle" x="448" y="-409.5" font-family="Helvetica,sans-Serif" font-size="10.00">/pca9530.h</text>
</a>
</g>
</g>
<!-- Node2&#45;&gt;Node26 -->
<g id="edge35" class="edge"><title>Node2&#45;&gt;Node26</title>
<path fill="none" stroke="midnightblue" d="M676.821,-469.31C630.758,-459.252 567.574,-445.396 512,-433 509.109,-432.355 506.145,-431.692 503.153,-431.02"/>
<polygon fill="midnightblue" stroke="midnightblue" points="676.158,-472.748 686.674,-471.461 677.65,-465.909 676.158,-472.748"/>
</g>
<!-- Node28 -->
<g id="node28" class="node"><title>Node28</title>
<g id="a_node28"><a xlink:href="pca9534_8h.html" target="_top" xlink:title="D:/GIT/fhradiov2/driver\l/pca9534.h">
<polygon fill="white" stroke="black" points="265,-402.5 265,-432.5 375,-432.5 375,-402.5 265,-402.5"/>
<text text-anchor="start" x="273" y="-420.5" font-family="Helvetica,sans-Serif" font-size="10.00">D:/GIT/fhradiov2/driver</text>
<text text-anchor="middle" x="320" y="-409.5" font-family="Helvetica,sans-Serif" font-size="10.00">/pca9534.h</text>
</a>
</g>
</g>
<!-- Node2&#45;&gt;Node28 -->
<g id="edge38" class="edge"><title>Node2&#45;&gt;Node28</title>
<path fill="none" stroke="midnightblue" d="M676.611,-475.924C604.639,-467.201 485.652,-451.652 384,-433 381.087,-432.465 378.105,-431.89 375.098,-431.287"/>
<polygon fill="midnightblue" stroke="midnightblue" points="676.535,-479.44 686.881,-477.16 677.372,-472.49 676.535,-479.44"/>
</g>
<!-- Node2&#45;&gt;Node32 -->
<g id="edge44" class="edge"><title>Node2&#45;&gt;Node32</title>
<path fill="none" stroke="midnightblue" d="M807.219,-481.021C855.915,-476.496 922.34,-464.442 972,-433 998.442,-416.258 1018.17,-384.321 1028.01,-365.786"/>
<polygon fill="midnightblue" stroke="midnightblue" points="806.779,-477.546 797.109,-481.877 807.369,-484.521 806.779,-477.546"/>
</g>
<!-- Node34 -->
<g id="node34" class="node"><title>Node34</title>
<g id="a_node34"><a xlink:href="i2c_8c.html" target="_top" xlink:title="D:/GIT/fhradiov2/driver\l/src/i2c.c">
<polygon fill="white" stroke="black" points="687,-402.5 687,-432.5 797,-432.5 797,-402.5 687,-402.5"/>
<text text-anchor="start" x="695" y="-420.5" font-family="Helvetica,sans-Serif" font-size="10.00">D:/GIT/fhradiov2/driver</text>
<text text-anchor="middle" x="742" y="-409.5" font-family="Helvetica,sans-Serif" font-size="10.00">/src/i2c.c</text>
</a>
</g>
</g>
<!-- Node2&#45;&gt;Node34 -->
<g id="edge49" class="edge"><title>Node2&#45;&gt;Node34</title>
<path fill="none" stroke="midnightblue" d="M742,-459.108C742,-450.154 742,-440.323 742,-432.577"/>
<polygon fill="midnightblue" stroke="midnightblue" points="738.5,-459.396 742,-469.396 745.5,-459.396 738.5,-459.396"/>
</g>
<!-- Node2&#45;&gt;Node35 -->
<g id="edge50" class="edge"><title>Node2&#45;&gt;Node35</title>
<path fill="none" stroke="midnightblue" d="M787.506,-465.682C814.129,-455.257 847.268,-442.281 872.051,-432.577"/>
<polygon fill="midnightblue" stroke="midnightblue" points="786.055,-462.491 778.02,-469.396 788.607,-469.009 786.055,-462.491"/>
</g>
<!-- Node4 -->
<g id="node4" class="node"><title>Node4</title>
<g id="a_node4"><a xlink:href="opt3001_8c.html" target="_top" xlink:title="D:/GIT/fhradiov2/driver\l/src/opt3001.c">
<polygon fill="white" stroke="black" points="597,-335.5 597,-365.5 707,-365.5 707,-335.5 597,-335.5"/>
<text text-anchor="start" x="605" y="-353.5" font-family="Helvetica,sans-Serif" font-size="10.00">D:/GIT/fhradiov2/driver</text>
<text text-anchor="middle" x="652" y="-342.5" font-family="Helvetica,sans-Serif" font-size="10.00">/src/opt3001.c</text>
</a>
</g>
</g>
<!-- Node3&#45;&gt;Node4 -->
<g id="edge3" class="edge"><title>Node3&#45;&gt;Node4</title>
<path fill="none" stroke="midnightblue" d="M600.106,-395.883C611.655,-386.005 625.19,-374.429 635.541,-365.577"/>
<polygon fill="midnightblue" stroke="midnightblue" points="597.816,-393.236 592.491,-402.396 602.365,-398.556 597.816,-393.236"/>
</g>
<!-- Node3&#45;&gt;Node5 -->
<g id="edge4" class="edge"><title>Node3&#45;&gt;Node5</title>
<path fill="none" stroke="midnightblue" d="M565.609,-393.121C557.258,-375.909 544.402,-352.547 529,-335 516.532,-320.795 499.542,-307.905 485.922,-298.703"/>
<polygon fill="midnightblue" stroke="midnightblue" points="562.572,-394.889 569.99,-402.454 568.909,-391.915 562.572,-394.889"/>
</g>
<!-- Node6 -->
<g id="node6" class="node"><title>Node6</title>
<g id="a_node6"><a xlink:href="menu_8h.html" target="_top" xlink:title="D:/GIT/fhradiov2/menu\l/menu.h">
<polygon fill="white" stroke="black" points="130,-201.5 130,-231.5 242,-231.5 242,-201.5 130,-201.5"/>
<text text-anchor="start" x="138" y="-219.5" font-family="Helvetica,sans-Serif" font-size="10.00">D:/GIT/fhradiov2/menu</text>
<text text-anchor="middle" x="186" y="-208.5" font-family="Helvetica,sans-Serif" font-size="10.00">/menu.h</text>
</a>
</g>
</g>
<!-- Node5&#45;&gt;Node6 -->
<g id="edge5" class="edge"><title>Node5&#45;&gt;Node6</title>
<path fill="none" stroke="midnightblue" d="M398.501,-268.688C350.422,-257.751 285.575,-242.537 240.164,-231.541"/>
<polygon fill="midnightblue" stroke="midnightblue" points="397.967,-272.156 408.493,-270.954 399.515,-265.329 397.967,-272.156"/>
</g>
<!-- Node10 -->
<g id="node10" class="node"><title>Node10</title>
<g id="a_node10"><a xlink:href="handler_8h.html" target="_top" xlink:title="D:/GIT/fhradiov2/system\l/handler.h">
<polygon fill="white" stroke="black" points="722,-134.5 722,-164.5 842,-164.5 842,-134.5 722,-134.5"/>
<text text-anchor="start" x="730" y="-152.5" font-family="Helvetica,sans-Serif" font-size="10.00">D:/GIT/fhradiov2/system</text>
<text text-anchor="middle" x="782" y="-141.5" font-family="Helvetica,sans-Serif" font-size="10.00">/handler.h</text>
</a>
</g>
</g>
<!-- Node5&#45;&gt;Node10 -->
<g id="edge21" class="edge"><title>Node5&#45;&gt;Node10</title>
<path fill="none" stroke="midnightblue" d="M528.136,-279.031C603.889,-273.698 722.815,-260.891 756,-232 775.603,-214.934 780.555,-183.115 781.726,-164.689"/>
<polygon fill="midnightblue" stroke="midnightblue" points="527.487,-275.567 517.747,-279.735 527.961,-282.551 527.487,-275.567"/>
</g>
<!-- Node13 -->
<g id="node13" class="node"><title>Node13</title>
<g id="a_node13"><a xlink:href="radio__display_8h.html" target="_top" xlink:title="D:/GIT/fhradiov2/radio\l/radio_display.h">
<polygon fill="white" stroke="black" points="260.5,-201.5 260.5,-231.5 369.5,-231.5 369.5,-201.5 260.5,-201.5"/>
<text text-anchor="start" x="268.5" y="-219.5" font-family="Helvetica,sans-Serif" font-size="10.00">D:/GIT/fhradiov2/radio</text>
<text text-anchor="middle" x="315" y="-208.5" font-family="Helvetica,sans-Serif" font-size="10.00">/radio_display.h</text>
</a>
</g>
</g>
<!-- Node5&#45;&gt;Node13 -->
<g id="edge14" class="edge"><title>Node5&#45;&gt;Node13</title>
<path fill="none" stroke="midnightblue" d="M415.681,-264.407C391.086,-254.029 362.013,-241.195 341.376,-231.577"/>
<polygon fill="midnightblue" stroke="midnightblue" points="414.632,-267.762 425.208,-268.396 417.336,-261.305 414.632,-267.762"/>
</g>
<!-- Node15 -->
<g id="node15" class="node"><title>Node15</title>
<g id="a_node15"><a xlink:href="radio__settings_8h.html" target="_top" xlink:title="D:/GIT/fhradiov2/radio\l/radio_settings.h">
<polygon fill="white" stroke="black" points="352.5,-67.5 352.5,-97.5 461.5,-97.5 461.5,-67.5 352.5,-67.5"/>
<text text-anchor="start" x="360.5" y="-85.5" font-family="Helvetica,sans-Serif" font-size="10.00">D:/GIT/fhradiov2/radio</text>
<text text-anchor="middle" x="407" y="-74.5" font-family="Helvetica,sans-Serif" font-size="10.00">/radio_settings.h</text>
</a>
</g>
</g>
<!-- Node5&#45;&gt;Node15 -->
<g id="edge17" class="edge"><title>Node5&#45;&gt;Node15</title>
<path fill="none" stroke="midnightblue" d="M451.769,-258.798C436.825,-217.013 413.044,-131.47 407.302,-97.6819"/>
<polygon fill="midnightblue" stroke="midnightblue" points="448.497,-260.041 455.27,-268.188 455.056,-257.596 448.497,-260.041"/>
</g>
<!-- Node17 -->
<g id="node17" class="node"><title>Node17</title>
<g id="a_node17"><a xlink:href="radio_8c.html" target="_top" xlink:title="D:/GIT/fhradiov2/radio\l/src/radio.c">
<polygon fill="white" stroke="black" points="638.5,-201.5 638.5,-231.5 747.5,-231.5 747.5,-201.5 638.5,-201.5"/>
<text text-anchor="start" x="646.5" y="-219.5" font-family="Helvetica,sans-Serif" font-size="10.00">D:/GIT/fhradiov2/radio</text>
<text text-anchor="middle" x="693" y="-208.5" font-family="Helvetica,sans-Serif" font-size="10.00">/src/radio.c</text>
</a>
</g>
</g>
<!-- Node5&#45;&gt;Node17 -->
<g id="edge20" class="edge"><title>Node5&#45;&gt;Node17</title>
<path fill="none" stroke="midnightblue" d="M522.393,-265.715C559.822,-255.137 607.6,-241.635 643.069,-231.611"/>
<polygon fill="midnightblue" stroke="midnightblue" points="521.295,-262.388 512.623,-268.476 523.198,-269.124 521.295,-262.388"/>
</g>
<!-- Node5&#45;&gt;Node18 -->
<g id="edge22" class="edge"><title>Node5&#45;&gt;Node18</title>
<path fill="none" stroke="midnightblue" d="M527.911,-276.807C618.73,-268.551 788.787,-252.029 933,-232 941.007,-230.888 949.418,-229.6 957.707,-228.26"/>
<polygon fill="midnightblue" stroke="midnightblue" points="527.414,-273.338 517.77,-277.725 528.044,-280.309 527.414,-273.338"/>
</g>
<!-- Node5&#45;&gt;Node20 -->
<g id="edge25" class="edge"><title>Node5&#45;&gt;Node20</title>
<path fill="none" stroke="midnightblue" d="M528.048,-273.242C594.129,-263.652 699.365,-247.872 790,-232 794.513,-231.21 799.176,-230.364 803.862,-229.494"/>
<polygon fill="midnightblue" stroke="midnightblue" points="527.182,-269.831 517.787,-274.727 528.185,-276.759 527.182,-269.831"/>
</g>
<!-- Node22 -->
<g id="node22" class="node"><title>Node22</title>
<g id="a_node22"><a xlink:href="station__list_8h.html" target="_top" xlink:title="D:/GIT/fhradiov2/system\l/station_list.h">
<polygon fill="white" stroke="black" points="444,-134.5 444,-164.5 564,-164.5 564,-134.5 444,-134.5"/>
<text text-anchor="start" x="452" y="-152.5" font-family="Helvetica,sans-Serif" font-size="10.00">D:/GIT/fhradiov2/system</text>
<text text-anchor="middle" x="504" y="-141.5" font-family="Helvetica,sans-Serif" font-size="10.00">/station_list.h</text>
</a>
</g>
</g>
<!-- Node5&#45;&gt;Node22 -->
<g id="edge28" class="edge"><title>Node5&#45;&gt;Node22</title>
<path fill="none" stroke="midnightblue" d="M465.133,-258.39C471.524,-230.901 485.528,-186.888 495.286,-164.525"/>
<polygon fill="midnightblue" stroke="midnightblue" points="461.666,-257.865 463.017,-268.374 468.514,-259.316 461.666,-257.865"/>
</g>
<!-- Node24 -->
<g id="node24" class="node"><title>Node24</title>
<g id="a_node24"><a xlink:href="station__list__struct_8h.html" target="_top" xlink:title="D:/GIT/fhradiov2/system\l/station_list_struct.h">
<polygon fill="white" stroke="black" points="500,-201.5 500,-231.5 620,-231.5 620,-201.5 500,-201.5"/>
<text text-anchor="start" x="508" y="-219.5" font-family="Helvetica,sans-Serif" font-size="10.00">D:/GIT/fhradiov2/system</text>
<text text-anchor="middle" x="560" y="-208.5" font-family="Helvetica,sans-Serif" font-size="10.00">/station_list_struct.h</text>
</a>
</g>
</g>
<!-- Node5&#45;&gt;Node24 -->
<g id="edge32" class="edge"><title>Node5&#45;&gt;Node24</title>
<path fill="none" stroke="midnightblue" d="M492.497,-262.734C507.507,-252.676 525.401,-240.685 538.994,-231.577"/>
<polygon fill="midnightblue" stroke="midnightblue" points="490.406,-259.922 484.048,-268.396 494.303,-265.737 490.406,-259.922"/>
</g>
<!-- Node6&#45;&gt;Node5 -->
<g id="edge10" class="edge"><title>Node6&#45;&gt;Node5</title>
<path fill="none" stroke="midnightblue" d="M252.168,-231.692C300.095,-242.605 364.013,-257.605 408.904,-268.476"/>
<polygon fill="midnightblue" stroke="midnightblue" points="252.723,-228.229 242.196,-229.428 251.173,-235.055 252.723,-228.229"/>
</g>
<!-- Node7 -->
<g id="node7" class="node"><title>Node7</title>
<g id="a_node7"><a xlink:href="menu__struct_8h.html" target="_top" xlink:title="D:/GIT/fhradiov2/menu\l/menu_struct.h">
<polygon fill="white" stroke="black" points="130,-134.5 130,-164.5 242,-164.5 242,-134.5 130,-134.5"/>
<text text-anchor="start" x="138" y="-152.5" font-family="Helvetica,sans-Serif" font-size="10.00">D:/GIT/fhradiov2/menu</text>
<text text-anchor="middle" x="186" y="-141.5" font-family="Helvetica,sans-Serif" font-size="10.00">/menu_struct.h</text>
</a>
</g>
</g>
<!-- Node6&#45;&gt;Node7 -->
<g id="edge6" class="edge"><title>Node6&#45;&gt;Node7</title>
<path fill="none" stroke="midnightblue" d="M179.455,-191.403C179.005,-182.37 179.296,-172.408 180.325,-164.577"/>
<polygon fill="midnightblue" stroke="midnightblue" points="175.97,-191.736 180.322,-201.396 182.944,-191.131 175.97,-191.736"/>
</g>
<!-- Node9 -->
<g id="node9" class="node"><title>Node9</title>
<g id="a_node9"><a xlink:href="menu_8c.html" target="_top" xlink:title="D:/GIT/fhradiov2/menu\l/src/menu.c">
<polygon fill="white" stroke="black" points="0,-134.5 0,-164.5 112,-164.5 112,-134.5 0,-134.5"/>
<text text-anchor="start" x="8" y="-152.5" font-family="Helvetica,sans-Serif" font-size="10.00">D:/GIT/fhradiov2/menu</text>
<text text-anchor="middle" x="56" y="-141.5" font-family="Helvetica,sans-Serif" font-size="10.00">/src/menu.c</text>
</a>
</g>
</g>
<!-- Node6&#45;&gt;Node9 -->
<g id="edge9" class="edge"><title>Node6&#45;&gt;Node9</title>
<path fill="none" stroke="midnightblue" d="M148.707,-196.853C128.152,-186.576 103.05,-174.025 84.153,-164.577"/>
<polygon fill="midnightblue" stroke="midnightblue" points="147.282,-200.054 157.792,-201.396 150.413,-193.793 147.282,-200.054"/>
</g>
<!-- Node6&#45;&gt;Node10 -->
<g id="edge11" class="edge"><title>Node6&#45;&gt;Node10</title>
<path fill="none" stroke="midnightblue" d="M252.425,-200.933C456.479,-171.254 512.415,-193.768 713,-165 715.908,-164.583 718.877,-164.117 721.871,-163.614"/>
<polygon fill="midnightblue" stroke="midnightblue" points="251.659,-197.508 242.279,-202.433 252.683,-204.432 251.659,-197.508"/>
</g>
<!-- Node7&#45;&gt;Node6 -->
<g id="edge7" class="edge"><title>Node7&#45;&gt;Node6</title>
<path fill="none" stroke="midnightblue" d="M192.544,-174.565C192.995,-183.596 192.706,-193.56 191.678,-201.396"/>
<polygon fill="midnightblue" stroke="midnightblue" points="196.028,-174.236 191.675,-164.577 189.055,-174.842 196.028,-174.236"/>
</g>
<!-- Node8 -->
<g id="node8" class="node"><title>Node8</title>
<g id="a_node8"><a xlink:href="menu__struct_8c.html" target="_top" xlink:title="D:/GIT/fhradiov2/menu\l/src/menu_struct.c">
<polygon fill="white" stroke="black" points="130,-67.5 130,-97.5 242,-97.5 242,-67.5 130,-67.5"/>
<text text-anchor="start" x="138" y="-85.5" font-family="Helvetica,sans-Serif" font-size="10.00">D:/GIT/fhradiov2/menu</text>
<text text-anchor="middle" x="186" y="-74.5" font-family="Helvetica,sans-Serif" font-size="10.00">/src/menu_struct.c</text>
</a>
</g>
</g>
<!-- Node7&#45;&gt;Node8 -->
<g id="edge8" class="edge"><title>Node7&#45;&gt;Node8</title>
<path fill="none" stroke="midnightblue" d="M186,-124.108C186,-115.154 186,-105.323 186,-97.5765"/>
<polygon fill="midnightblue" stroke="midnightblue" points="182.5,-124.396 186,-134.396 189.5,-124.396 182.5,-124.396"/>
</g>
<!-- Node11 -->
<g id="node11" class="node"><title>Node11</title>
<g id="a_node11"><a xlink:href="main_8c.html" target="_top" xlink:title="D:/GIT/fhradiov2/main.c">
<polygon fill="white" stroke="black" points="808.5,-73 808.5,-92 925.5,-92 925.5,-73 808.5,-73"/>
<text text-anchor="middle" x="867" y="-80" font-family="Helvetica,sans-Serif" font-size="10.00">D:/GIT/fhradiov2/main.c</text>
</a>
</g>
</g>
<!-- Node10&#45;&gt;Node11 -->
<g id="edge12" class="edge"><title>Node10&#45;&gt;Node11</title>
<path fill="none" stroke="midnightblue" d="M808.797,-128.008C824.577,-115.941 843.717,-101.305 855.63,-92.1945"/>
<polygon fill="midnightblue" stroke="midnightblue" points="806.261,-125.541 800.444,-134.396 810.513,-131.102 806.261,-125.541"/>
</g>
<!-- Node12 -->
<g id="node12" class="node"><title>Node12</title>
<g id="a_node12"><a xlink:href="handler_8c.html" target="_top" xlink:title="D:/GIT/fhradiov2/system\l/src/handler.c">
<polygon fill="white" stroke="black" points="670,-67.5 670,-97.5 790,-97.5 790,-67.5 670,-67.5"/>
<text text-anchor="start" x="678" y="-85.5" font-family="Helvetica,sans-Serif" font-size="10.00">D:/GIT/fhradiov2/system</text>
<text text-anchor="middle" x="730" y="-74.5" font-family="Helvetica,sans-Serif" font-size="10.00">/src/handler.c</text>
</a>
</g>
</g>
<!-- Node10&#45;&gt;Node12 -->
<g id="edge13" class="edge"><title>Node10&#45;&gt;Node12</title>
<path fill="none" stroke="midnightblue" d="M764.358,-126.447C756.719,-116.899 748.003,-106.004 741.261,-97.5765"/>
<polygon fill="midnightblue" stroke="midnightblue" points="761.737,-128.774 770.717,-134.396 767.203,-124.401 761.737,-128.774"/>
</g>
<!-- Node13&#45;&gt;Node5 -->
<g id="edge15" class="edge"><title>Node13&#45;&gt;Node5</title>
<path fill="none" stroke="midnightblue" d="M362.249,-235.564C386.835,-245.936 415.912,-258.771 436.565,-268.396"/>
<polygon fill="midnightblue" stroke="midnightblue" points="363.302,-232.21 352.726,-231.577 360.598,-238.667 363.302,-232.21"/>
</g>
<!-- Node14 -->
<g id="node14" class="node"><title>Node14</title>
<g id="a_node14"><a xlink:href="radio__display_8c.html" target="_top" xlink:title="D:/GIT/fhradiov2/radio\l/src/radio_display.c">
<polygon fill="white" stroke="black" points="260.5,-134.5 260.5,-164.5 369.5,-164.5 369.5,-134.5 260.5,-134.5"/>
<text text-anchor="start" x="268.5" y="-152.5" font-family="Helvetica,sans-Serif" font-size="10.00">D:/GIT/fhradiov2/radio</text>
<text text-anchor="middle" x="315" y="-141.5" font-family="Helvetica,sans-Serif" font-size="10.00">/src/radio_display.c</text>
</a>
</g>
</g>
<!-- Node13&#45;&gt;Node14 -->
<g id="edge16" class="edge"><title>Node13&#45;&gt;Node14</title>
<path fill="none" stroke="midnightblue" d="M315,-191.108C315,-182.154 315,-172.323 315,-164.577"/>
<polygon fill="midnightblue" stroke="midnightblue" points="311.5,-191.396 315,-201.396 318.5,-191.396 311.5,-191.396"/>
</g>
<!-- Node15&#45;&gt;Node5 -->
<g id="edge18" class="edge"><title>Node15&#45;&gt;Node5</title>
<path fill="none" stroke="midnightblue" d="M418.269,-107.307C433.195,-149.077 456.9,-234.34 462.676,-268.188"/>
<polygon fill="midnightblue" stroke="midnightblue" points="421.453,-105.828 414.679,-97.6819 414.894,-108.275 421.453,-105.828"/>
</g>
<!-- Node16 -->
<g id="node16" class="node"><title>Node16</title>
<g id="a_node16"><a xlink:href="radio__settings_8c.html" target="_top" xlink:title="D:/GIT/fhradiov2/radio\l/src/radio_settings.c">
<polygon fill="white" stroke="black" points="352.5,-0.5 352.5,-30.5 461.5,-30.5 461.5,-0.5 352.5,-0.5"/>
<text text-anchor="start" x="360.5" y="-18.5" font-family="Helvetica,sans-Serif" font-size="10.00">D:/GIT/fhradiov2/radio</text>
<text text-anchor="middle" x="407" y="-7.5" font-family="Helvetica,sans-Serif" font-size="10.00">/src/radio_settings.c</text>
</a>
</g>
</g>
<!-- Node15&#45;&gt;Node16 -->
<g id="edge19" class="edge"><title>Node15&#45;&gt;Node16</title>
<path fill="none" stroke="midnightblue" d="M407,-57.1081C407,-48.1539 407,-38.3227 407,-30.5765"/>
<polygon fill="midnightblue" stroke="midnightblue" points="403.5,-57.3959 407,-67.396 410.5,-57.396 403.5,-57.3959"/>
</g>
<!-- Node18&#45;&gt;Node10 -->
<g id="edge23" class="edge"><title>Node18&#45;&gt;Node10</title>
<path fill="none" stroke="midnightblue" d="M957.057,-198.715C918.652,-188.137 869.628,-174.635 833.233,-164.611"/>
<polygon fill="midnightblue" stroke="midnightblue" points="956.512,-202.195 967.082,-201.476 958.37,-195.446 956.512,-202.195"/>
</g>
<!-- Node19 -->
<g id="node19" class="node"><title>Node19</title>
<g id="a_node19"><a xlink:href="rds_8c.html" target="_top" xlink:title="D:/GIT/fhradiov2/system\l/src/rds.c">
<polygon fill="white" stroke="black" points="998,-134.5 998,-164.5 1118,-164.5 1118,-134.5 998,-134.5"/>
<text text-anchor="start" x="1006" y="-152.5" font-family="Helvetica,sans-Serif" font-size="10.00">D:/GIT/fhradiov2/system</text>
<text text-anchor="middle" x="1058" y="-141.5" font-family="Helvetica,sans-Serif" font-size="10.00">/src/rds.c</text>
</a>
</g>
</g>
<!-- Node18&#45;&gt;Node19 -->
<g id="edge24" class="edge"><title>Node18&#45;&gt;Node19</title>
<path fill="none" stroke="midnightblue" d="M1031.93,-192.867C1037.72,-183.459 1044.26,-172.833 1049.34,-164.577"/>
<polygon fill="midnightblue" stroke="midnightblue" points="1028.94,-191.045 1026.68,-201.396 1034.9,-194.714 1028.94,-191.045"/>
</g>
<!-- Node20&#45;&gt;Node10 -->
<g id="edge26" class="edge"><title>Node20&#45;&gt;Node10</title>
<path fill="none" stroke="midnightblue" d="M838.35,-195.168C825.811,-185.228 811.034,-173.514 799.758,-164.577"/>
<polygon fill="midnightblue" stroke="midnightblue" points="836.196,-197.927 846.207,-201.396 840.545,-192.441 836.196,-197.927"/>
</g>
<!-- Node21 -->
<g id="node21" class="node"><title>Node21</title>
<g id="a_node21"><a xlink:href="rsq_8c.html" target="_top" xlink:title="D:/GIT/fhradiov2/system\l/src/rsq.c">
<polygon fill="white" stroke="black" points="860,-134.5 860,-164.5 980,-164.5 980,-134.5 860,-134.5"/>
<text text-anchor="start" x="868" y="-152.5" font-family="Helvetica,sans-Serif" font-size="10.00">D:/GIT/fhradiov2/system</text>
<text text-anchor="middle" x="920" y="-141.5" font-family="Helvetica,sans-Serif" font-size="10.00">/src/rsq.c</text>
</a>
</g>
</g>
<!-- Node20&#45;&gt;Node21 -->
<g id="edge27" class="edge"><title>Node20&#45;&gt;Node21</title>
<path fill="none" stroke="midnightblue" d="M882.75,-193.736C891.036,-184.119 900.539,-173.089 907.873,-164.577"/>
<polygon fill="midnightblue" stroke="midnightblue" points="880.027,-191.535 876.151,-201.396 885.33,-196.104 880.027,-191.535"/>
</g>
<!-- Node22&#45;&gt;Node5 -->
<g id="edge29" class="edge"><title>Node22&#45;&gt;Node5</title>
<path fill="none" stroke="midnightblue" d="M501.896,-174.486C495.528,-201.924 481.529,-245.945 471.758,-268.374"/>
<polygon fill="midnightblue" stroke="midnightblue" points="505.358,-175.032 504.001,-164.525 498.509,-173.585 505.358,-175.032"/>
</g>
<!-- Node22&#45;&gt;Node15 -->
<g id="edge30" class="edge"><title>Node22&#45;&gt;Node15</title>
<path fill="none" stroke="midnightblue" d="M474.503,-128.734C459.493,-118.676 441.599,-106.685 428.006,-97.5765"/>
<polygon fill="midnightblue" stroke="midnightblue" points="472.697,-131.737 482.952,-134.396 476.594,-125.922 472.697,-131.737"/>
</g>
<!-- Node23 -->
<g id="node23" class="node"><title>Node23</title>
<g id="a_node23"><a xlink:href="station__list_8c.html" target="_top" xlink:title="D:/GIT/fhradiov2/system\l/src/station_list.c">
<polygon fill="white" stroke="black" points="480,-67.5 480,-97.5 600,-97.5 600,-67.5 480,-67.5"/>
<text text-anchor="start" x="488" y="-85.5" font-family="Helvetica,sans-Serif" font-size="10.00">D:/GIT/fhradiov2/system</text>
<text text-anchor="middle" x="540" y="-74.5" font-family="Helvetica,sans-Serif" font-size="10.00">/src/station_list.c</text>
</a>
</g>
</g>
<!-- Node22&#45;&gt;Node23 -->
<g id="edge31" class="edge"><title>Node22&#45;&gt;Node23</title>
<path fill="none" stroke="midnightblue" d="M516.697,-125.576C521.867,-116.241 527.678,-105.748 532.204,-97.5765"/>
<polygon fill="midnightblue" stroke="midnightblue" points="513.595,-123.952 511.811,-134.396 519.718,-127.344 513.595,-123.952"/>
</g>
<!-- Node24&#45;&gt;Node22 -->
<g id="edge34" class="edge"><title>Node24&#45;&gt;Node22</title>
<path fill="none" stroke="midnightblue" d="M541.25,-193.736C532.964,-184.119 523.461,-173.089 516.127,-164.577"/>
<polygon fill="midnightblue" stroke="midnightblue" points="538.67,-196.104 547.849,-201.396 543.973,-191.535 538.67,-196.104"/>
</g>
<!-- Node25 -->
<g id="node25" class="node"><title>Node25</title>
<g id="a_node25"><a xlink:href="station__list__struct_8c.html" target="_top" xlink:title="D:/GIT/fhradiov2/system\l/src/station_list_struct.c">
<polygon fill="white" stroke="black" points="582,-134.5 582,-164.5 704,-164.5 704,-134.5 582,-134.5"/>
<text text-anchor="start" x="590" y="-152.5" font-family="Helvetica,sans-Serif" font-size="10.00">D:/GIT/fhradiov2/system</text>
<text text-anchor="middle" x="643" y="-141.5" font-family="Helvetica,sans-Serif" font-size="10.00">/src/station_list_struct.c</text>
</a>
</g>
</g>
<!-- Node24&#45;&gt;Node25 -->
<g id="edge33" class="edge"><title>Node24&#45;&gt;Node25</title>
<path fill="none" stroke="midnightblue" d="M585.963,-195.168C598.655,-185.228 613.612,-173.514 625.025,-164.577"/>
<polygon fill="midnightblue" stroke="midnightblue" points="583.725,-192.475 578.01,-201.396 588.041,-197.986 583.725,-192.475"/>
</g>
<!-- Node26&#45;&gt;Node5 -->
<g id="edge37" class="edge"><title>Node26&#45;&gt;Node5</title>
<path fill="none" stroke="midnightblue" d="M484.125,-396.803C495.149,-388.81 505.949,-378.483 512,-366 518.01,-353.602 517.176,-347.768 512,-335 506.079,-320.396 493.683,-307.687 482.841,-298.671"/>
<polygon fill="midnightblue" stroke="midnightblue" points="482.067,-393.969 475.725,-402.456 485.975,-399.776 482.067,-393.969"/>
</g>
<!-- Node27 -->
<g id="node27" class="node"><title>Node27</title>
<g id="a_node27"><a xlink:href="pca9530_8c.html" target="_top" xlink:title="D:/GIT/fhradiov2/driver\l/src/pca9530.c">
<polygon fill="white" stroke="black" points="393,-335.5 393,-365.5 503,-365.5 503,-335.5 393,-335.5"/>
<text text-anchor="start" x="401" y="-353.5" font-family="Helvetica,sans-Serif" font-size="10.00">D:/GIT/fhradiov2/driver</text>
<text text-anchor="middle" x="448" y="-342.5" font-family="Helvetica,sans-Serif" font-size="10.00">/src/pca9530.c</text>
</a>
</g>
</g>
<!-- Node26&#45;&gt;Node27 -->
<g id="edge36" class="edge"><title>Node26&#45;&gt;Node27</title>
<path fill="none" stroke="midnightblue" d="M448,-392.108C448,-383.154 448,-373.323 448,-365.577"/>
<polygon fill="midnightblue" stroke="midnightblue" points="444.5,-392.396 448,-402.396 451.5,-392.396 444.5,-392.396"/>
</g>
<!-- Node28&#45;&gt;Node29 -->
<g id="edge39" class="edge"><title>Node28&#45;&gt;Node29</title>
<path fill="none" stroke="midnightblue" d="M274.494,-398.682C247.871,-388.257 214.732,-375.281 189.949,-365.577"/>
<polygon fill="midnightblue" stroke="midnightblue" points="273.393,-402.009 283.98,-402.396 275.945,-395.491 273.393,-402.009"/>
</g>
<!-- Node31 -->
<g id="node31" class="node"><title>Node31</title>
<g id="a_node31"><a xlink:href="pca9534_8c.html" target="_top" xlink:title="D:/GIT/fhradiov2/driver\l/src/pca9534.c">
<polygon fill="white" stroke="black" points="265,-335.5 265,-365.5 375,-365.5 375,-335.5 265,-335.5"/>
<text text-anchor="start" x="273" y="-353.5" font-family="Helvetica,sans-Serif" font-size="10.00">D:/GIT/fhradiov2/driver</text>
<text text-anchor="middle" x="320" y="-342.5" font-family="Helvetica,sans-Serif" font-size="10.00">/src/pca9534.c</text>
</a>
</g>
</g>
<!-- Node28&#45;&gt;Node31 -->
<g id="edge43" class="edge"><title>Node28&#45;&gt;Node31</title>
<path fill="none" stroke="midnightblue" d="M320,-392.108C320,-383.154 320,-373.323 320,-365.577"/>
<polygon fill="midnightblue" stroke="midnightblue" points="316.5,-392.396 320,-402.396 323.5,-392.396 316.5,-392.396"/>
</g>
<!-- Node29&#45;&gt;Node5 -->
<g id="edge42" class="edge"><title>Node29&#45;&gt;Node5</title>
<path fill="none" stroke="midnightblue" d="M219.098,-335.806C275.314,-323.981 355.608,-307.091 408.495,-295.966"/>
<polygon fill="midnightblue" stroke="midnightblue" points="218.308,-332.396 209.243,-337.879 219.749,-339.246 218.308,-332.396"/>
</g>
<!-- Node29&#45;&gt;Node6 -->
<g id="edge41" class="edge"><title>Node29&#45;&gt;Node6</title>
<path fill="none" stroke="midnightblue" d="M159.427,-325.569C163.152,-309.311 168.259,-287.33 173,-268 176.019,-255.69 179.624,-241.741 182.271,-231.627"/>
<polygon fill="midnightblue" stroke="midnightblue" points="156.01,-324.814 157.197,-335.342 162.834,-326.371 156.01,-324.814"/>
</g>
<!-- Node30 -->
<g id="node30" class="node"><title>Node30</title>
<g id="a_node30"><a xlink:href="lcd_8c.html" target="_top" xlink:title="D:/GIT/fhradiov2/driver\l/src/lcd.c">
<polygon fill="white" stroke="black" points="182,-268.5 182,-298.5 292,-298.5 292,-268.5 182,-268.5"/>
<text text-anchor="start" x="190" y="-286.5" font-family="Helvetica,sans-Serif" font-size="10.00">D:/GIT/fhradiov2/driver</text>
<text text-anchor="middle" x="237" y="-275.5" font-family="Helvetica,sans-Serif" font-size="10.00">/src/lcd.c</text>
</a>
</g>
</g>
<!-- Node29&#45;&gt;Node30 -->
<g id="edge40" class="edge"><title>Node29&#45;&gt;Node30</title>
<path fill="none" stroke="midnightblue" d="M179.963,-329.168C192.655,-319.228 207.612,-307.514 219.025,-298.577"/>
<polygon fill="midnightblue" stroke="midnightblue" points="177.725,-326.475 172.01,-335.396 182.041,-331.986 177.725,-326.475"/>
</g>
<!-- Node32&#45;&gt;Node5 -->
<g id="edge46" class="edge"><title>Node32&#45;&gt;Node5</title>
<path fill="none" stroke="midnightblue" d="M970.034,-334.973C799.761,-307.848 609.449,-293.584 517.791,-287.716"/>
<polygon fill="midnightblue" stroke="midnightblue" points="969.497,-338.432 979.927,-336.568 970.611,-331.521 969.497,-338.432"/>
</g>
<!-- Node32&#45;&gt;Node18 -->
<g id="edge47" class="edge"><title>Node32&#45;&gt;Node18</title>
<path fill="none" stroke="midnightblue" d="M1031.89,-325.39C1028.35,-297.901 1022.69,-253.888 1019.81,-231.525"/>
<polygon fill="midnightblue" stroke="midnightblue" points="1028.43,-325.903 1033.18,-335.374 1035.37,-325.009 1028.43,-325.903"/>
</g>
<!-- Node32&#45;&gt;Node20 -->
<g id="edge48" class="edge"><title>Node32&#45;&gt;Node20</title>
<path fill="none" stroke="midnightblue" d="M969.995,-333.482C936.356,-323.992 899.883,-311.424 888,-299 870.261,-280.453 865.548,-249.467 864.35,-231.52"/>
<polygon fill="midnightblue" stroke="midnightblue" points="969.277,-336.914 979.848,-336.199 971.138,-330.166 969.277,-336.914"/>
</g>
<!-- Node33 -->
<g id="node33" class="node"><title>Node33</title>
<g id="a_node33"><a xlink:href="si4735_8c.html" target="_top" xlink:title="D:/GIT/fhradiov2/driver\l/src/si4735.c">
<polygon fill="white" stroke="black" points="897,-268.5 897,-298.5 1007,-298.5 1007,-268.5 897,-268.5"/>
<text text-anchor="start" x="905" y="-286.5" font-family="Helvetica,sans-Serif" font-size="10.00">D:/GIT/fhradiov2/driver</text>
<text text-anchor="middle" x="952" y="-275.5" font-family="Helvetica,sans-Serif" font-size="10.00">/src/si4735.c</text>
</a>
</g>
</g>
<!-- Node32&#45;&gt;Node33 -->
<g id="edge45" class="edge"><title>Node32&#45;&gt;Node33</title>
<path fill="none" stroke="midnightblue" d="M1009.04,-329.168C996.345,-319.228 981.388,-307.514 969.975,-298.577"/>
<polygon fill="midnightblue" stroke="midnightblue" points="1006.96,-331.986 1016.99,-335.396 1011.28,-326.475 1006.96,-331.986"/>
</g>
<!-- Node35&#45;&gt;Node5 -->
<g id="edge52" class="edge"><title>Node35&#45;&gt;Node5</title>
<path fill="none" stroke="midnightblue" d="M870.897,-398.057C832.834,-379.785 771.505,-352.123 716,-335 649.018,-314.337 569.38,-300.065 517.593,-292.092"/>
<polygon fill="midnightblue" stroke="midnightblue" points="869.528,-401.283 880.055,-402.488 872.577,-394.982 869.528,-401.283"/>
</g>
<!-- Node36 -->
<g id="node36" class="node"><title>Node36</title>
<g id="a_node36"><a xlink:href="tpa2016d2_8c.html" target="_top" xlink:title="D:/GIT/fhradiov2/driver\l/src/tpa2016d2.c">
<polygon fill="white" stroke="black" points="852,-335.5 852,-365.5 962,-365.5 962,-335.5 852,-335.5"/>
<text text-anchor="start" x="860" y="-353.5" font-family="Helvetica,sans-Serif" font-size="10.00">D:/GIT/fhradiov2/driver</text>
<text text-anchor="middle" x="907" y="-342.5" font-family="Helvetica,sans-Serif" font-size="10.00">/src/tpa2016d2.c</text>
</a>
</g>
</g>
<!-- Node35&#45;&gt;Node36 -->
<g id="edge51" class="edge"><title>Node35&#45;&gt;Node36</title>
<path fill="none" stroke="midnightblue" d="M907.625,-392.108C907.487,-383.154 907.336,-373.323 907.217,-365.577"/>
<polygon fill="midnightblue" stroke="midnightblue" points="904.13,-392.451 907.783,-402.396 911.129,-392.343 904.13,-392.451"/>
</g>
</g>
</svg>
