<?xml version="1.0" encoding="UTF-8" standalone="no"?>
<!DOCTYPE svg PUBLIC "-//W3C//DTD SVG 1.1//EN"
 "http://www.w3.org/Graphics/SVG/1.1/DTD/svg11.dtd">
<!-- Generated by graphviz version 2.38.0 (20140413.2041)
 -->
<!-- Title: D:/GIT/fhradiov2/driver/src/timer.c Pages: 1 -->
<svg width="308pt" height="274pt"
 viewBox="0.00 0.00 307.50 274.00" xmlns="http://www.w3.org/2000/svg" xmlns:xlink="http://www.w3.org/1999/xlink">
<g id="graph0" class="graph" transform="scale(1 1) rotate(0) translate(4 270)">
<title>D:/GIT/fhradiov2/driver/src/timer.c</title>
<polygon fill="white" stroke="none" points="-4,4 -4,-270 303.5,-270 303.5,4 -4,4"/>
<!-- Node1 -->
<g id="node1" class="node"><title>Node1</title>
<polygon fill="#bfbfbf" stroke="black" points="32.5,-235.5 32.5,-265.5 142.5,-265.5 142.5,-235.5 32.5,-235.5"/>
<text text-anchor="start" x="40.5" y="-253.5" font-family="Helvetica,sans-Serif" font-size="10.00">D:/GIT/fhradiov2/driver</text>
<text text-anchor="middle" x="87.5" y="-242.5" font-family="Helvetica,sans-Serif" font-size="10.00">/src/timer.c</text>
</g>
<!-- Node2 -->
<g id="node2" class="node"><title>Node2</title>
<g id="a_node2"><a xlink:href="timer_8h.html" target="_top" xlink:title="driver/timer.h">
<polygon fill="white" stroke="black" points="51.5,-179.5 51.5,-198.5 123.5,-198.5 123.5,-179.5 51.5,-179.5"/>
<text text-anchor="middle" x="87.5" y="-186.5" font-family="Helvetica,sans-Serif" font-size="10.00">driver/timer.h</text>
</a>
</g>
</g>
<!-- Node1&#45;&gt;Node2 -->
<g id="edge1" class="edge"><title>Node1&#45;&gt;Node2</title>
<path fill="none" stroke="midnightblue" d="M87.5,-235.399C87.5,-227.466 87.5,-217.458 87.5,-208.858"/>
<polygon fill="midnightblue" stroke="midnightblue" points="91.0001,-208.658 87.5,-198.658 84.0001,-208.658 91.0001,-208.658"/>
</g>
<!-- Node3 -->
<g id="node3" class="node"><title>Node3</title>
<polygon fill="white" stroke="#bfbfbf" points="0,-123.5 0,-142.5 59,-142.5 59,-123.5 0,-123.5"/>
<text text-anchor="middle" x="29.5" y="-130.5" font-family="Helvetica,sans-Serif" font-size="10.00">msp430.h</text>
</g>
<!-- Node2&#45;&gt;Node3 -->
<g id="edge2" class="edge"><title>Node2&#45;&gt;Node3</title>
<path fill="none" stroke="midnightblue" d="M78.1813,-179.324C69.6074,-171.341 56.6878,-159.313 46.3124,-149.653"/>
<polygon fill="midnightblue" stroke="midnightblue" points="48.6922,-147.086 38.9883,-142.834 43.9223,-152.21 48.6922,-147.086"/>
</g>
<!-- Node4 -->
<g id="node4" class="node"><title>Node4</title>
<polygon fill="white" stroke="#bfbfbf" points="103,-0.5 103,-19.5 152,-19.5 152,-0.5 103,-0.5"/>
<text text-anchor="middle" x="127.5" y="-7.5" font-family="Helvetica,sans-Serif" font-size="10.00">stdint.h</text>
</g>
<!-- Node2&#45;&gt;Node4 -->
<g id="edge3" class="edge"><title>Node2&#45;&gt;Node4</title>
<path fill="none" stroke="midnightblue" d="M87.8627,-179.476C88.9518,-158.209 93.0034,-101.262 106.5,-56 109.302,-46.6022 113.76,-36.6714 117.85,-28.5367"/>
<polygon fill="midnightblue" stroke="midnightblue" points="120.96,-30.1412 122.518,-19.6615 114.765,-26.8822 120.96,-30.1412"/>
</g>
<!-- Node5 -->
<g id="node5" class="node"><title>Node5</title>
<g id="a_node5"><a xlink:href="radio__configuration_8h.html" target="_top" xlink:title="settings/radio_configuration.h">
<polygon fill="white" stroke="black" points="116,-123.5 116,-142.5 259,-142.5 259,-123.5 116,-123.5"/>
<text text-anchor="middle" x="187.5" y="-130.5" font-family="Helvetica,sans-Serif" font-size="10.00">settings/radio_configuration.h</text>
</a>
</g>
</g>
<!-- Node2&#45;&gt;Node5 -->
<g id="edge4" class="edge"><title>Node2&#45;&gt;Node5</title>
<path fill="none" stroke="midnightblue" d="M103.567,-179.324C119.458,-170.743 144.007,-157.486 162.458,-147.522"/>
<polygon fill="midnightblue" stroke="midnightblue" points="164.337,-150.486 171.473,-142.655 161.011,-144.326 164.337,-150.486"/>
</g>
<!-- Node6 -->
<g id="node6" class="node"><title>Node6</title>
<g id="a_node6"><a xlink:href="si4735__cmd__prop_8h.html" target="_top" xlink:title="driver/include/si4735\l_cmd_prop.h">
<polygon fill="white" stroke="black" points="115.5,-56.5 115.5,-86.5 219.5,-86.5 219.5,-56.5 115.5,-56.5"/>
<text text-anchor="start" x="123.5" y="-74.5" font-family="Helvetica,sans-Serif" font-size="10.00">driver/include/si4735</text>
<text text-anchor="middle" x="167.5" y="-63.5" font-family="Helvetica,sans-Serif" font-size="10.00">_cmd_prop.h</text>
</a>
</g>
</g>
<!-- Node5&#45;&gt;Node6 -->
<g id="edge5" class="edge"><title>Node5&#45;&gt;Node6</title>
<path fill="none" stroke="midnightblue" d="M184.634,-123.475C182.23,-116.32 178.676,-105.748 175.427,-96.0841"/>
<polygon fill="midnightblue" stroke="midnightblue" points="178.717,-94.8866 172.214,-86.523 172.082,-97.117 178.717,-94.8866"/>
</g>
<!-- Node7 -->
<g id="node7" class="node"><title>Node7</title>
<g id="a_node7"><a xlink:href="libs_2time_8h.html" target="_top" xlink:title="libs/time.h">
<polygon fill="white" stroke="black" points="237.5,-62 237.5,-81 299.5,-81 299.5,-62 237.5,-62"/>
<text text-anchor="middle" x="268.5" y="-69" font-family="Helvetica,sans-Serif" font-size="10.00">libs/time.h</text>
</a>
</g>
</g>
<!-- Node5&#45;&gt;Node7 -->
<g id="edge7" class="edge"><title>Node5&#45;&gt;Node7</title>
<path fill="none" stroke="midnightblue" d="M199.105,-123.475C211.977,-114.02 232.974,-98.5961 248.506,-87.1871"/>
<polygon fill="midnightblue" stroke="midnightblue" points="250.929,-89.75 256.916,-81.0091 246.785,-84.1085 250.929,-89.75"/>
</g>
<!-- Node6&#45;&gt;Node4 -->
<g id="edge6" class="edge"><title>Node6&#45;&gt;Node4</title>
<path fill="none" stroke="midnightblue" d="M158.021,-56.3993C152.328,-47.9315 145.046,-37.0991 139.022,-28.1393"/>
<polygon fill="midnightblue" stroke="midnightblue" points="141.804,-26.0041 133.32,-19.6578 135.995,-29.9095 141.804,-26.0041"/>
</g>
</g>
</svg>
