<?xml version="1.0" encoding="UTF-8" standalone="no"?>
<!DOCTYPE svg PUBLIC "-//W3C//DTD SVG 1.1//EN"
 "http://www.w3.org/Graphics/SVG/1.1/DTD/svg11.dtd">
<!-- Generated by graphviz version 2.38.0 (20140413.2041)
 -->
<!-- Title: tpa2016d2_equalizer_mode Pages: 1 -->
<svg width="677pt" height="66pt"
 viewBox="0.00 0.00 677.00 66.00" xmlns="http://www.w3.org/2000/svg" xmlns:xlink="http://www.w3.org/1999/xlink">
<g id="graph0" class="graph" transform="scale(1 1) rotate(0) translate(4 62)">
<title>tpa2016d2_equalizer_mode</title>
<polygon fill="white" stroke="none" points="-4,4 -4,-62 673,-62 673,4 -4,4"/>
<!-- Node1 -->
<g id="node1" class="node"><title>Node1</title>
<polygon fill="#bfbfbf" stroke="black" points="0,-19.5 0,-38.5 135,-38.5 135,-19.5 0,-19.5"/>
<text text-anchor="middle" x="67.5" y="-26.5" font-family="Helvetica,sans-Serif" font-size="10.00">tpa2016d2_equalizer_mode</text>
</g>
<!-- Node2 -->
<g id="node2" class="node"><title>Node2</title>
<g id="a_node2"><a xlink:href="tpa2016d2_8h.html#a8d3c252b2c26623c72958d1d77bc0cf9" target="_top" xlink:title="tpa2016d2_init">
<polygon fill="white" stroke="black" points="172,-38.5 172,-57.5 252,-57.5 252,-38.5 172,-38.5"/>
<text text-anchor="middle" x="212" y="-45.5" font-family="Helvetica,sans-Serif" font-size="10.00">tpa2016d2_init</text>
</a>
</g>
</g>
<!-- Node1&#45;&gt;Node2 -->
<g id="edge1" class="edge"><title>Node1&#45;&gt;Node2</title>
<path fill="none" stroke="midnightblue" d="M145.215,-39.2287C154.464,-40.4619 163.589,-41.6786 171.963,-42.795"/>
<polygon fill="midnightblue" stroke="midnightblue" points="145.535,-35.7405 135.161,-37.8881 144.61,-42.6791 145.535,-35.7405"/>
</g>
<!-- Node5 -->
<g id="node5" class="node"><title>Node5</title>
<g id="a_node5"><a xlink:href="radio_8c.html#aaaca9764d77849b9d1aeae47e691bf75" target="_top" xlink:title="radio_equalizer">
<polygon fill="white" stroke="black" points="171,-0.5 171,-19.5 253,-19.5 253,-0.5 171,-0.5"/>
<text text-anchor="middle" x="212" y="-7.5" font-family="Helvetica,sans-Serif" font-size="10.00">radio_equalizer</text>
</a>
</g>
</g>
<!-- Node1&#45;&gt;Node5 -->
<g id="edge4" class="edge"><title>Node1&#45;&gt;Node5</title>
<path fill="none" stroke="midnightblue" d="M145.154,-18.7794C153.989,-17.6014 162.713,-16.4382 170.778,-15.3629"/>
<polygon fill="midnightblue" stroke="midnightblue" points="144.61,-15.3209 135.161,-20.1119 145.535,-22.2595 144.61,-15.3209"/>
</g>
<!-- Node3 -->
<g id="node3" class="node"><title>Node3</title>
<g id="a_node3"><a xlink:href="radio_8c.html#a3a1de7e31aabba6e408a633c130e618a" target="_top" xlink:title="radio_init">
<polygon fill="white" stroke="black" points="414,-38.5 414,-57.5 470,-57.5 470,-38.5 414,-38.5"/>
<text text-anchor="middle" x="442" y="-45.5" font-family="Helvetica,sans-Serif" font-size="10.00">radio_init</text>
</a>
</g>
</g>
<!-- Node2&#45;&gt;Node3 -->
<g id="edge2" class="edge"><title>Node2&#45;&gt;Node3</title>
<path fill="none" stroke="midnightblue" d="M262.328,-48C308.7,-48 376.407,-48 413.747,-48"/>
<polygon fill="midnightblue" stroke="midnightblue" points="262.195,-44.5001 252.195,-48 262.195,-51.5001 262.195,-44.5001"/>
</g>
<!-- Node4 -->
<g id="node4" class="node"><title>Node4</title>
<g id="a_node4"><a xlink:href="main_8c.html#a840291bc02cba5474a4cb46a9b9566fe" target="_top" xlink:title="main">
<polygon fill="white" stroke="black" points="631,-19.5 631,-38.5 669,-38.5 669,-19.5 631,-19.5"/>
<text text-anchor="middle" x="650" y="-26.5" font-family="Helvetica,sans-Serif" font-size="10.00">main</text>
</a>
</g>
</g>
<!-- Node3&#45;&gt;Node4 -->
<g id="edge3" class="edge"><title>Node3&#45;&gt;Node4</title>
<path fill="none" stroke="midnightblue" d="M480.491,-44.5421C525.013,-40.4357 597.452,-33.7544 630.954,-30.6645"/>
<polygon fill="midnightblue" stroke="midnightblue" points="479.991,-41.0732 470.355,-45.4769 480.634,-48.0436 479.991,-41.0732"/>
</g>
<!-- Node6 -->
<g id="node6" class="node"><title>Node6</title>
<g id="a_node6"><a xlink:href="radio_8c.html#a832a684fc60104296fc975a7608f92b4" target="_top" xlink:title="radio_settings">
<polygon fill="white" stroke="black" points="289,-0.5 289,-19.5 366,-19.5 366,-0.5 289,-0.5"/>
<text text-anchor="middle" x="327.5" y="-7.5" font-family="Helvetica,sans-Serif" font-size="10.00">radio_settings</text>
</a>
</g>
</g>
<!-- Node5&#45;&gt;Node6 -->
<g id="edge5" class="edge"><title>Node5&#45;&gt;Node6</title>
<path fill="none" stroke="midnightblue" d="M263.293,-10C271.843,-10 280.591,-10 288.747,-10"/>
<polygon fill="midnightblue" stroke="midnightblue" points="263.016,-6.5001 253.016,-10 263.016,-13.5001 263.016,-6.5001"/>
</g>
<!-- Node7 -->
<g id="node7" class="node"><title>Node7</title>
<g id="a_node7"><a xlink:href="menu_8c.html#a5d9c190838195d7872fc7067269e20fa" target="_top" xlink:title="menu_function">
<polygon fill="white" stroke="black" points="402,-0.5 402,-19.5 482,-19.5 482,-0.5 402,-0.5"/>
<text text-anchor="middle" x="442" y="-7.5" font-family="Helvetica,sans-Serif" font-size="10.00">menu_function</text>
</a>
</g>
</g>
<!-- Node6&#45;&gt;Node7 -->
<g id="edge6" class="edge"><title>Node6&#45;&gt;Node7</title>
<path fill="none" stroke="midnightblue" d="M376.474,-10C384.985,-10 393.755,-10 401.981,-10"/>
<polygon fill="midnightblue" stroke="midnightblue" points="376.274,-6.5001 366.274,-10 376.274,-13.5001 376.274,-6.5001"/>
</g>
<!-- Node8 -->
<g id="node8" class="node"><title>Node8</title>
<g id="a_node8"><a xlink:href="menu_8c.html#aaf2a075d3159f7eeab42012941a3437f" target="_top" xlink:title="menu_handler">
<polygon fill="white" stroke="black" points="518,-0.5 518,-19.5 595,-19.5 595,-0.5 518,-0.5"/>
<text text-anchor="middle" x="556.5" y="-7.5" font-family="Helvetica,sans-Serif" font-size="10.00">menu_handler</text>
</a>
</g>
</g>
<!-- Node7&#45;&gt;Node8 -->
<g id="edge7" class="edge"><title>Node7&#45;&gt;Node8</title>
<path fill="none" stroke="midnightblue" d="M492.262,-10C500.783,-10 509.52,-10 517.676,-10"/>
<polygon fill="midnightblue" stroke="midnightblue" points="492.031,-6.5001 482.031,-10 492.031,-13.5001 492.031,-6.5001"/>
</g>
<!-- Node8&#45;&gt;Node4 -->
<g id="edge8" class="edge"><title>Node8&#45;&gt;Node4</title>
<path fill="none" stroke="midnightblue" d="M605.072,-19.8783C614.156,-21.7646 623.144,-23.631 630.601,-25.1793"/>
<polygon fill="midnightblue" stroke="midnightblue" points="605.748,-16.444 595.245,-17.8377 604.324,-23.2978 605.748,-16.444"/>
</g>
</g>
</svg>
