<?xml version="1.0" encoding="UTF-8" standalone="no"?>
<!DOCTYPE svg PUBLIC "-//W3C//DTD SVG 1.1//EN"
 "http://www.w3.org/Graphics/SVG/1.1/DTD/svg11.dtd">
<!-- Generated by graphviz version 2.38.0 (20140413.2041)
 -->
<!-- Title: D:/GIT/fhradiov2/driver/src/tpa2016d2.c Pages: 1 -->
<svg width="495pt" height="397pt"
 viewBox="0.00 0.00 495.00 397.00" xmlns="http://www.w3.org/2000/svg" xmlns:xlink="http://www.w3.org/1999/xlink">
<g id="graph0" class="graph" transform="scale(1 1) rotate(0) translate(4 393)">
<title>D:/GIT/fhradiov2/driver/src/tpa2016d2.c</title>
<polygon fill="white" stroke="none" points="-4,4 -4,-393 491,-393 491,4 -4,4"/>
<!-- Node1 -->
<g id="node1" class="node"><title>Node1</title>
<polygon fill="#bfbfbf" stroke="black" points="150.5,-358.5 150.5,-388.5 260.5,-388.5 260.5,-358.5 150.5,-358.5"/>
<text text-anchor="start" x="158.5" y="-376.5" font-family="Helvetica,sans-Serif" font-size="10.00">D:/GIT/fhradiov2/driver</text>
<text text-anchor="middle" x="205.5" y="-365.5" font-family="Helvetica,sans-Serif" font-size="10.00">/src/tpa2016d2.c</text>
</g>
<!-- Node2 -->
<g id="node2" class="node"><title>Node2</title>
<g id="a_node2"><a xlink:href="tpa2016d2_8h.html" target="_top" xlink:title="driver/tpa2016d2.h">
<polygon fill="white" stroke="black" points="158,-302.5 158,-321.5 253,-321.5 253,-302.5 158,-302.5"/>
<text text-anchor="middle" x="205.5" y="-309.5" font-family="Helvetica,sans-Serif" font-size="10.00">driver/tpa2016d2.h</text>
</a>
</g>
</g>
<!-- Node1&#45;&gt;Node2 -->
<g id="edge1" class="edge"><title>Node1&#45;&gt;Node2</title>
<path fill="none" stroke="midnightblue" d="M205.5,-358.399C205.5,-350.466 205.5,-340.458 205.5,-331.858"/>
<polygon fill="midnightblue" stroke="midnightblue" points="209,-331.658 205.5,-321.658 202,-331.658 209,-331.658"/>
</g>
<!-- Node3 -->
<g id="node3" class="node"><title>Node3</title>
<polygon fill="white" stroke="#bfbfbf" points="0,-123.5 0,-142.5 59,-142.5 59,-123.5 0,-123.5"/>
<text text-anchor="middle" x="29.5" y="-130.5" font-family="Helvetica,sans-Serif" font-size="10.00">msp430.h</text>
</g>
<!-- Node2&#45;&gt;Node3 -->
<g id="edge2" class="edge"><title>Node2&#45;&gt;Node3</title>
<path fill="none" stroke="midnightblue" d="M189.162,-302.358C159.444,-285.902 96.143,-247.357 58.5,-199 47.5994,-184.997 39.8026,-166.25 35.0577,-152.487"/>
<polygon fill="midnightblue" stroke="midnightblue" points="38.3039,-151.15 31.9056,-142.705 31.6413,-153.297 38.3039,-151.15"/>
</g>
<!-- Node4 -->
<g id="node4" class="node"><title>Node4</title>
<polygon fill="white" stroke="#bfbfbf" points="223,-0.5 223,-19.5 272,-19.5 272,-0.5 223,-0.5"/>
<text text-anchor="middle" x="247.5" y="-7.5" font-family="Helvetica,sans-Serif" font-size="10.00">stdint.h</text>
</g>
<!-- Node2&#45;&gt;Node4 -->
<g id="edge3" class="edge"><title>Node2&#45;&gt;Node4</title>
<path fill="none" stroke="midnightblue" d="M237.878,-302.403C284.631,-287.801 365.5,-253.385 365.5,-190 365.5,-190 365.5,-190 365.5,-132 365.5,-94.6244 355.13,-83.2034 329.5,-56 316.095,-41.7725 297.166,-30.9754 280.872,-23.5283"/>
<polygon fill="midnightblue" stroke="midnightblue" points="282.212,-20.2944 271.645,-19.5301 279.429,-26.7174 282.212,-20.2944"/>
</g>
<!-- Node5 -->
<g id="node5" class="node"><title>Node5</title>
<g id="a_node5"><a xlink:href="i2c_8h.html" target="_top" xlink:title="I2C implemtation for MSP430G2553, interrupt based. &#160;&#160;This implemtation based on examples from Texas I...">
<polygon fill="white" stroke="black" points="174,-241 174,-260 237,-260 237,-241 174,-241"/>
<text text-anchor="middle" x="205.5" y="-248" font-family="Helvetica,sans-Serif" font-size="10.00">driver/i2c.h</text>
</a>
</g>
</g>
<!-- Node2&#45;&gt;Node5 -->
<g id="edge4" class="edge"><title>Node2&#45;&gt;Node5</title>
<path fill="none" stroke="midnightblue" d="M205.5,-302.475C205.5,-294.08 205.5,-280.981 205.5,-270.163"/>
<polygon fill="midnightblue" stroke="midnightblue" points="209,-270.009 205.5,-260.009 202,-270.009 209,-270.009"/>
</g>
<!-- Node8 -->
<g id="node8" class="node"><title>Node8</title>
<g id="a_node8"><a xlink:href="timer_8h.html" target="_top" xlink:title="driver/timer.h">
<polygon fill="white" stroke="black" points="91.5,-179.5 91.5,-198.5 163.5,-198.5 163.5,-179.5 91.5,-179.5"/>
<text text-anchor="middle" x="127.5" y="-186.5" font-family="Helvetica,sans-Serif" font-size="10.00">driver/timer.h</text>
</a>
</g>
</g>
<!-- Node2&#45;&gt;Node8 -->
<g id="edge17" class="edge"><title>Node2&#45;&gt;Node8</title>
<path fill="none" stroke="midnightblue" d="M196.196,-302.341C187.294,-293.722 173.874,-279.82 164.5,-266 152.051,-247.646 141.406,-224.477 134.773,-208.573"/>
<polygon fill="midnightblue" stroke="midnightblue" points="137.844,-206.831 130.85,-198.873 131.355,-209.455 137.844,-206.831"/>
</g>
<!-- Node12 -->
<g id="node12" class="node"><title>Node12</title>
<g id="a_node12"><a xlink:href="radio__pin__mapping_8h.html" target="_top" xlink:title="settings/radio_pin\l_mapping.h">
<polygon fill="white" stroke="black" points="394,-235.5 394,-265.5 487,-265.5 487,-235.5 394,-235.5"/>
<text text-anchor="start" x="402" y="-253.5" font-family="Helvetica,sans-Serif" font-size="10.00">settings/radio_pin</text>
<text text-anchor="middle" x="440.5" y="-242.5" font-family="Helvetica,sans-Serif" font-size="10.00">_mapping.h</text>
</a>
</g>
</g>
<!-- Node2&#45;&gt;Node12 -->
<g id="edge16" class="edge"><title>Node2&#45;&gt;Node12</title>
<path fill="none" stroke="midnightblue" d="M239.17,-302.475C276.926,-292.915 338.78,-277.255 383.979,-265.811"/>
<polygon fill="midnightblue" stroke="midnightblue" points="385.096,-269.138 393.931,-263.291 383.378,-262.352 385.096,-269.138"/>
</g>
<!-- Node5&#45;&gt;Node3 -->
<g id="edge6" class="edge"><title>Node5&#45;&gt;Node3</title>
<path fill="none" stroke="midnightblue" d="M173.741,-241.226C147.51,-233.328 110.218,-219.559 82.5,-199 64.848,-185.908 49.5869,-165.658 40.0338,-151.242"/>
<polygon fill="midnightblue" stroke="midnightblue" points="42.9418,-149.293 34.6125,-142.745 37.0407,-153.058 42.9418,-149.293"/>
</g>
<!-- Node5&#45;&gt;Node4 -->
<g id="edge5" class="edge"><title>Node5&#45;&gt;Node4</title>
<path fill="none" stroke="midnightblue" d="M237.194,-243.342C261.349,-236.807 293.012,-223.843 308.5,-199 342.124,-145.067 337.148,-112.733 308.5,-56 301.693,-42.5199 288.732,-32.083 276.502,-24.6696"/>
<polygon fill="midnightblue" stroke="midnightblue" points="277.843,-21.4099 267.406,-19.5896 274.43,-27.5214 277.843,-21.4099"/>
</g>
<!-- Node6 -->
<g id="node6" class="node"><title>Node6</title>
<polygon fill="white" stroke="#bfbfbf" points="181.5,-179.5 181.5,-198.5 229.5,-198.5 229.5,-179.5 181.5,-179.5"/>
<text text-anchor="middle" x="205.5" y="-186.5" font-family="Helvetica,sans-Serif" font-size="10.00">stdlib.h</text>
</g>
<!-- Node5&#45;&gt;Node6 -->
<g id="edge7" class="edge"><title>Node5&#45;&gt;Node6</title>
<path fill="none" stroke="midnightblue" d="M205.5,-240.975C205.5,-232.58 205.5,-219.481 205.5,-208.663"/>
<polygon fill="midnightblue" stroke="midnightblue" points="209,-208.509 205.5,-198.509 202,-208.509 209,-208.509"/>
</g>
<!-- Node7 -->
<g id="node7" class="node"><title>Node7</title>
<polygon fill="white" stroke="#bfbfbf" points="247.5,-179.5 247.5,-198.5 299.5,-198.5 299.5,-179.5 247.5,-179.5"/>
<text text-anchor="middle" x="273.5" y="-186.5" font-family="Helvetica,sans-Serif" font-size="10.00">stdarg.h</text>
</g>
<!-- Node5&#45;&gt;Node7 -->
<g id="edge8" class="edge"><title>Node5&#45;&gt;Node7</title>
<path fill="none" stroke="midnightblue" d="M215.243,-240.975C225.847,-231.697 243.019,-216.671 255.979,-205.331"/>
<polygon fill="midnightblue" stroke="midnightblue" points="258.554,-207.728 263.775,-198.509 253.945,-202.46 258.554,-207.728"/>
</g>
<!-- Node5&#45;&gt;Node8 -->
<g id="edge9" class="edge"><title>Node5&#45;&gt;Node8</title>
<path fill="none" stroke="midnightblue" d="M194.325,-240.975C181.929,-231.52 161.71,-216.096 146.754,-204.687"/>
<polygon fill="midnightblue" stroke="midnightblue" points="148.728,-201.791 138.655,-198.509 144.483,-207.357 148.728,-201.791"/>
</g>
<!-- Node8&#45;&gt;Node3 -->
<g id="edge10" class="edge"><title>Node8&#45;&gt;Node3</title>
<path fill="none" stroke="midnightblue" d="M111.755,-179.324C96.1813,-170.743 72.1227,-157.486 54.0407,-147.522"/>
<polygon fill="midnightblue" stroke="midnightblue" points="55.6539,-144.415 45.2063,-142.655 52.2756,-150.546 55.6539,-144.415"/>
</g>
<!-- Node8&#45;&gt;Node4 -->
<g id="edge11" class="edge"><title>Node8&#45;&gt;Node4</title>
<path fill="none" stroke="midnightblue" d="M122.183,-179.278C109.083,-156.551 78.3017,-94.5991 106.5,-56 130.641,-22.955 179.317,-13.6094 212.657,-11.265"/>
<polygon fill="midnightblue" stroke="midnightblue" points="213.089,-14.7473 222.892,-10.7287 212.723,-7.75687 213.089,-14.7473"/>
</g>
<!-- Node9 -->
<g id="node9" class="node"><title>Node9</title>
<g id="a_node9"><a xlink:href="radio__configuration_8h.html" target="_top" xlink:title="settings/radio_configuration.h">
<polygon fill="white" stroke="black" points="116,-123.5 116,-142.5 259,-142.5 259,-123.5 116,-123.5"/>
<text text-anchor="middle" x="187.5" y="-130.5" font-family="Helvetica,sans-Serif" font-size="10.00">settings/radio_configuration.h</text>
</a>
</g>
</g>
<!-- Node8&#45;&gt;Node9 -->
<g id="edge12" class="edge"><title>Node8&#45;&gt;Node9</title>
<path fill="none" stroke="midnightblue" d="M137.14,-179.324C146.01,-171.341 159.375,-159.313 170.108,-149.653"/>
<polygon fill="midnightblue" stroke="midnightblue" points="172.593,-152.125 177.685,-142.834 167.91,-146.922 172.593,-152.125"/>
</g>
<!-- Node10 -->
<g id="node10" class="node"><title>Node10</title>
<g id="a_node10"><a xlink:href="si4735__cmd__prop_8h.html" target="_top" xlink:title="driver/include/si4735\l_cmd_prop.h">
<polygon fill="white" stroke="black" points="115.5,-56.5 115.5,-86.5 219.5,-86.5 219.5,-56.5 115.5,-56.5"/>
<text text-anchor="start" x="123.5" y="-74.5" font-family="Helvetica,sans-Serif" font-size="10.00">driver/include/si4735</text>
<text text-anchor="middle" x="167.5" y="-63.5" font-family="Helvetica,sans-Serif" font-size="10.00">_cmd_prop.h</text>
</a>
</g>
</g>
<!-- Node9&#45;&gt;Node10 -->
<g id="edge13" class="edge"><title>Node9&#45;&gt;Node10</title>
<path fill="none" stroke="midnightblue" d="M184.634,-123.475C182.23,-116.32 178.676,-105.748 175.427,-96.0841"/>
<polygon fill="midnightblue" stroke="midnightblue" points="178.717,-94.8866 172.214,-86.523 172.082,-97.117 178.717,-94.8866"/>
</g>
<!-- Node11 -->
<g id="node11" class="node"><title>Node11</title>
<g id="a_node11"><a xlink:href="libs_2time_8h.html" target="_top" xlink:title="libs/time.h">
<polygon fill="white" stroke="black" points="237.5,-62 237.5,-81 299.5,-81 299.5,-62 237.5,-62"/>
<text text-anchor="middle" x="268.5" y="-69" font-family="Helvetica,sans-Serif" font-size="10.00">libs/time.h</text>
</a>
</g>
</g>
<!-- Node9&#45;&gt;Node11 -->
<g id="edge15" class="edge"><title>Node9&#45;&gt;Node11</title>
<path fill="none" stroke="midnightblue" d="M199.105,-123.475C211.977,-114.02 232.974,-98.5961 248.506,-87.1871"/>
<polygon fill="midnightblue" stroke="midnightblue" points="250.929,-89.75 256.916,-81.0091 246.785,-84.1085 250.929,-89.75"/>
</g>
<!-- Node10&#45;&gt;Node4 -->
<g id="edge14" class="edge"><title>Node10&#45;&gt;Node4</title>
<path fill="none" stroke="midnightblue" d="M186.459,-56.3993C198.923,-47.1293 215.197,-35.0254 227.807,-25.6469"/>
<polygon fill="midnightblue" stroke="midnightblue" points="229.924,-28.4341 235.859,-19.6578 225.747,-22.8173 229.924,-28.4341"/>
</g>
</g>
</svg>
