<?xml version="1.0" encoding="UTF-8" standalone="no"?>
<!DOCTYPE svg PUBLIC "-//W3C//DTD SVG 1.1//EN"
 "http://www.w3.org/Graphics/SVG/1.1/DTD/svg11.dtd">
<!-- Generated by graphviz version 2.38.0 (20140413.2041)
 -->
<!-- Title: tpa2016d2_init Pages: 1 -->
<svg width="590pt" height="139pt"
 viewBox="0.00 0.00 590.00 139.00" xmlns="http://www.w3.org/2000/svg" xmlns:xlink="http://www.w3.org/1999/xlink">
<g id="graph0" class="graph" transform="scale(1 1) rotate(0) translate(4 135)">
<title>tpa2016d2_init</title>
<polygon fill="white" stroke="none" points="-4,4 -4,-135 586,-135 586,4 -4,4"/>
<!-- Node1 -->
<g id="node1" class="node"><title>Node1</title>
<polygon fill="#bfbfbf" stroke="black" points="0,-57.5 0,-76.5 80,-76.5 80,-57.5 0,-57.5"/>
<text text-anchor="middle" x="40" y="-64.5" font-family="Helvetica,sans-Serif" font-size="10.00">tpa2016d2_init</text>
</g>
<!-- Node2 -->
<g id="node2" class="node"><title>Node2</title>
<g id="a_node2"><a xlink:href="timer_8c.html#a276d5cb665b9f8b2c79e53e2f2c5b4f0" target="_top" xlink:title="_delay_ms">
<polygon fill="white" stroke="black" points="291,-111.5 291,-130.5 355,-130.5 355,-111.5 291,-111.5"/>
<text text-anchor="middle" x="323" y="-118.5" font-family="Helvetica,sans-Serif" font-size="10.00">_delay_ms</text>
</a>
</g>
</g>
<!-- Node1&#45;&gt;Node2 -->
<g id="edge1" class="edge"><title>Node1&#45;&gt;Node2</title>
<path fill="none" stroke="midnightblue" d="M55.5179,-76.5351C70.1327,-85.5951 93.6522,-98.737 116,-105 171.565,-120.572 238.641,-122.891 280.82,-122.465"/>
<polygon fill="midnightblue" stroke="midnightblue" points="281.041,-125.962 290.985,-122.304 280.93,-118.963 281.041,-125.962"/>
</g>
<!-- Node4 -->
<g id="node4" class="node"><title>Node4</title>
<g id="a_node4"><a xlink:href="tpa2016d2_8c.html#abd9d0aa3479e3dd782cdf627c1d54df1" target="_top" xlink:title="tpa2016d2_shutdown">
<polygon fill="white" stroke="black" points="129.5,-76.5 129.5,-95.5 237.5,-95.5 237.5,-76.5 129.5,-76.5"/>
<text text-anchor="middle" x="183.5" y="-83.5" font-family="Helvetica,sans-Serif" font-size="10.00">tpa2016d2_shutdown</text>
</a>
</g>
</g>
<!-- Node1&#45;&gt;Node4 -->
<g id="edge3" class="edge"><title>Node1&#45;&gt;Node4</title>
<path fill="none" stroke="midnightblue" d="M80.0401,-72.2421C92.1648,-73.8702 105.856,-75.7086 119.191,-77.4991"/>
<polygon fill="midnightblue" stroke="midnightblue" points="118.91,-80.9927 129.287,-78.8548 119.842,-74.055 118.91,-80.9927"/>
</g>
<!-- Node5 -->
<g id="node5" class="node"><title>Node5</title>
<g id="a_node5"><a xlink:href="i2c_8h.html#a6691e5911f539e1e8178c6e983e8079a" target="_top" xlink:title="Transmits I2C commands with a variable length to a I2C slave. ">
<polygon fill="white" stroke="black" points="287,-40.5 287,-59.5 359,-59.5 359,-40.5 287,-40.5"/>
<text text-anchor="middle" x="323" y="-47.5" font-family="Helvetica,sans-Serif" font-size="10.00">i2c_write_var</text>
</a>
</g>
</g>
<!-- Node1&#45;&gt;Node5 -->
<g id="edge9" class="edge"><title>Node1&#45;&gt;Node5</title>
<path fill="none" stroke="midnightblue" d="M80.0718,-64.6362C131.641,-61.5164 222.244,-56.0351 276.736,-52.7384"/>
<polygon fill="midnightblue" stroke="midnightblue" points="277.032,-56.227 286.802,-52.1294 276.609,-49.2398 277.032,-56.227"/>
</g>
<!-- Node7 -->
<g id="node7" class="node"><title>Node7</title>
<g id="a_node7"><a xlink:href="tpa2016d2_8c.html#a721d219e9bfdf0b5b266ff3f952772fd" target="_top" xlink:title="tpa2016d2_equalizer_mode">
<polygon fill="white" stroke="black" points="116,-0.5 116,-19.5 251,-19.5 251,-0.5 116,-0.5"/>
<text text-anchor="middle" x="183.5" y="-7.5" font-family="Helvetica,sans-Serif" font-size="10.00">tpa2016d2_equalizer_mode</text>
</a>
</g>
</g>
<!-- Node1&#45;&gt;Node7 -->
<g id="edge7" class="edge"><title>Node1&#45;&gt;Node7</title>
<path fill="none" stroke="midnightblue" d="M61.8516,-57.3687C76.8113,-50.5712 97.5081,-41.3951 116,-34 125.389,-30.2453 135.621,-26.4218 145.183,-22.9625"/>
<polygon fill="midnightblue" stroke="midnightblue" points="146.603,-26.1716 154.84,-19.5076 144.245,-19.5807 146.603,-26.1716"/>
</g>
<!-- Node3 -->
<g id="node3" class="node"><title>Node3</title>
<g id="a_node3"><a xlink:href="timer_8c.html#a3c56af3315c2461dec5ced585a5f84db" target="_top" xlink:title="_delay_ten_us">
<polygon fill="white" stroke="black" points="502,-68.5 502,-87.5 582,-87.5 582,-68.5 502,-68.5"/>
<text text-anchor="middle" x="542" y="-75.5" font-family="Helvetica,sans-Serif" font-size="10.00">_delay_ten_us</text>
</a>
</g>
</g>
<!-- Node2&#45;&gt;Node3 -->
<g id="edge2" class="edge"><title>Node2&#45;&gt;Node3</title>
<path fill="none" stroke="midnightblue" d="M355.091,-114.839C390.818,-107.759 449.912,-96.0497 491.879,-87.7337"/>
<polygon fill="midnightblue" stroke="midnightblue" points="492.759,-91.1275 501.887,-85.7504 491.398,-84.261 492.759,-91.1275"/>
</g>
<!-- Node4&#45;&gt;Node5 -->
<g id="edge4" class="edge"><title>Node4&#45;&gt;Node5</title>
<path fill="none" stroke="midnightblue" d="M220.986,-76.4472C238.172,-71.9478 258.835,-66.5377 276.983,-61.7862"/>
<polygon fill="midnightblue" stroke="midnightblue" points="277.981,-65.1429 286.769,-59.2241 276.208,-58.3712 277.981,-65.1429"/>
</g>
<!-- Node6 -->
<g id="node6" class="node"><title>Node6</title>
<g id="a_node6"><a xlink:href="i2c_8c.html#ae0625b97d3437bcaca4ac4b96dd01978" target="_top" xlink:title="Transmits I2C command array to a I2C slave. ">
<polygon fill="white" stroke="black" points="395,-45.5 395,-64.5 466,-64.5 466,-45.5 395,-45.5"/>
<text text-anchor="middle" x="430.5" y="-52.5" font-family="Helvetica,sans-Serif" font-size="10.00">i2c_write_arr</text>
</a>
</g>
</g>
<!-- Node5&#45;&gt;Node6 -->
<g id="edge5" class="edge"><title>Node5&#45;&gt;Node6</title>
<path fill="none" stroke="midnightblue" d="M359.13,-51.6649C367.312,-52.0527 376.133,-52.4708 384.671,-52.8754"/>
<polygon fill="midnightblue" stroke="midnightblue" points="384.728,-56.3819 394.882,-53.3594 385.059,-49.3898 384.728,-56.3819"/>
</g>
<!-- Node6&#45;&gt;Node3 -->
<g id="edge6" class="edge"><title>Node6&#45;&gt;Node3</title>
<path fill="none" stroke="midnightblue" d="M466.146,-62.2773C474.253,-63.98 483.042,-65.8261 491.651,-67.6344"/>
<polygon fill="midnightblue" stroke="midnightblue" points="491.117,-71.0985 501.623,-69.729 492.556,-64.248 491.117,-71.0985"/>
</g>
<!-- Node7&#45;&gt;Node5 -->
<g id="edge8" class="edge"><title>Node7&#45;&gt;Node5</title>
<path fill="none" stroke="midnightblue" d="M217.435,-19.581C236.058,-24.9986 259.545,-31.8312 279.539,-37.6478"/>
<polygon fill="midnightblue" stroke="midnightblue" points="278.754,-41.0645 289.334,-40.4972 280.71,-34.3431 278.754,-41.0645"/>
</g>
</g>
</svg>
