<?xml version="1.0" encoding="UTF-8" standalone="no"?>
<!DOCTYPE svg PUBLIC "-//W3C//DTD SVG 1.1//EN"
 "http://www.w3.org/Graphics/SVG/1.1/DTD/svg11.dtd">
<!-- Generated by graphviz version 2.38.0 (20140413.2041)
 -->
<!-- Title: D:/GIT/fhradiov2/radio Pages: 1 -->
<svg width="267pt" height="332pt"
 viewBox="0.00 0.00 266.84 332.00" xmlns="http://www.w3.org/2000/svg" xmlns:xlink="http://www.w3.org/1999/xlink">
<g id="graph0" class="graph" transform="scale(1 1) rotate(0) translate(4 328)">
<title>D:/GIT/fhradiov2/radio</title>
<polygon fill="white" stroke="none" points="-4,4 -4,-328 262.841,-328 262.841,4 -4,4"/>
<g id="clust1" class="cluster"><title>clusterdir_212b08e736d9d694db45040b806dc585</title>
<g id="a_clust1"><a xlink:href="dir_212b08e736d9d694db45040b806dc585.html" target="_top">
<polygon fill="#eeeeff" stroke="black" points="14.841,-208 14.841,-260 156.841,-260 156.841,-208 14.841,-208"/>
</a>
</g>
</g>
<!-- dir_212b08e736d9d694db45040b806dc585 -->
<g id="node1" class="node"><title>dir_212b08e736d9d694db45040b806dc585</title>
<text text-anchor="middle" x="121.841" y="-231.5" font-family="Helvetica,sans-Serif" font-size="10.00">radio</text>
</g>
<!-- dir_6719ab1f1f7655efc2fa43f7eb574fd1 -->
<g id="node3" class="node"><title>dir_6719ab1f1f7655efc2fa43f7eb574fd1</title>
<g id="a_node3"><a xlink:href="dir_6719ab1f1f7655efc2fa43f7eb574fd1.html" target="_top" xlink:title="libs">
<polygon fill="white" stroke="red" points="192.841,-36 138.841,-36 138.841,-0 192.841,-0 192.841,-36"/>
<text text-anchor="middle" x="165.841" y="-15.5" font-family="Helvetica,sans-Serif" font-size="10.00">libs</text>
</a>
</g>
</g>
<!-- dir_212b08e736d9d694db45040b806dc585&#45;&gt;dir_6719ab1f1f7655efc2fa43f7eb574fd1 -->
<g id="edge12" class="edge"><title>dir_212b08e736d9d694db45040b806dc585&#45;&gt;dir_6719ab1f1f7655efc2fa43f7eb574fd1</title>
<path fill="none" stroke="black" d="M114.005,-215.598C101.446,-184.997 80.3906,-120.225 102.841,-72 108.802,-59.196 119.547,-48.3801 130.495,-39.9252"/>
<polygon fill="black" stroke="black" points="132.759,-42.6082 138.831,-33.926 128.67,-36.9266 132.759,-42.6082"/>
<g id="a_edge12&#45;headlabel"><a xlink:href="dir_000011_000003.html" target="_top" xlink:title="2">
<text text-anchor="middle" x="131.5" y="-44.5124" font-family="Helvetica,sans-Serif" font-size="10.00">2</text>
</a>
</g>
</g>
<!-- dir_e8522150b400a43ebfdbd1fed060b8e2 -->
<g id="node4" class="node"><title>dir_e8522150b400a43ebfdbd1fed060b8e2</title>
<g id="a_node4"><a xlink:href="dir_e8522150b400a43ebfdbd1fed060b8e2.html" target="_top" xlink:title="system">
<polygon fill="white" stroke="red" points="175.841,-324 121.841,-324 121.841,-288 175.841,-288 175.841,-324"/>
<text text-anchor="middle" x="148.841" y="-303.5" font-family="Helvetica,sans-Serif" font-size="10.00">system</text>
</a>
</g>
</g>
<!-- dir_212b08e736d9d694db45040b806dc585&#45;&gt;dir_e8522150b400a43ebfdbd1fed060b8e2 -->
<g id="edge13" class="edge"><title>dir_212b08e736d9d694db45040b806dc585&#45;&gt;dir_e8522150b400a43ebfdbd1fed060b8e2</title>
<path fill="none" stroke="black" d="M122.543,-252.104C124.774,-260.045 128.26,-269.666 132.056,-278.515"/>
<polygon fill="black" stroke="black" points="128.912,-280.056 136.251,-287.697 135.279,-277.146 128.912,-280.056"/>
<g id="a_edge13&#45;headlabel"><a xlink:href="dir_000011_000005.html" target="_top" xlink:title="3">
<text text-anchor="middle" x="124.836" y="-275.466" font-family="Helvetica,sans-Serif" font-size="10.00">3</text>
</a>
</g>
</g>
<!-- dir_1284b95147afa48b330f502c8bbc0529 -->
<g id="node5" class="node"><title>dir_1284b95147afa48b330f502c8bbc0529</title>
<g id="a_node5"><a xlink:href="dir_1284b95147afa48b330f502c8bbc0529.html" target="_top" xlink:title="driver">
<polygon fill="white" stroke="red" points="203.841,-180 149.841,-180 149.841,-144 203.841,-144 203.841,-180"/>
<text text-anchor="middle" x="176.841" y="-159.5" font-family="Helvetica,sans-Serif" font-size="10.00">driver</text>
</a>
</g>
</g>
<!-- dir_212b08e736d9d694db45040b806dc585&#45;&gt;dir_1284b95147afa48b330f502c8bbc0529 -->
<g id="edge14" class="edge"><title>dir_212b08e736d9d694db45040b806dc585&#45;&gt;dir_1284b95147afa48b330f502c8bbc0529</title>
<path fill="none" stroke="black" d="M135.437,-215.697C141.964,-207.389 149.909,-197.277 157.088,-188.141"/>
<polygon fill="black" stroke="black" points="159.976,-190.13 163.402,-180.104 154.472,-185.805 159.976,-190.13"/>
<g id="a_edge14&#45;headlabel"><a xlink:href="dir_000011_000000.html" target="_top" xlink:title="10">
<text text-anchor="middle" x="159.988" y="-192.211" font-family="Helvetica,sans-Serif" font-size="10.00">10</text>
</a>
</g>
</g>
<!-- dir_0c8fd76a6ec5a01c144012824d36fa80 -->
<g id="node6" class="node"><title>dir_0c8fd76a6ec5a01c144012824d36fa80</title>
<g id="a_node6"><a xlink:href="dir_0c8fd76a6ec5a01c144012824d36fa80.html" target="_top" xlink:title="settings">
<polygon fill="none" stroke="black" points="165.841,-108 111.841,-108 111.841,-72 165.841,-72 165.841,-108"/>
<text text-anchor="middle" x="138.841" y="-87.5" font-family="Helvetica,sans-Serif" font-size="10.00">settings</text>
</a>
</g>
</g>
<!-- dir_212b08e736d9d694db45040b806dc585&#45;&gt;dir_0c8fd76a6ec5a01c144012824d36fa80 -->
<g id="edge15" class="edge"><title>dir_212b08e736d9d694db45040b806dc585&#45;&gt;dir_0c8fd76a6ec5a01c144012824d36fa80</title>
<path fill="none" stroke="black" d="M123.892,-215.871C126.789,-191.67 132.112,-147.211 135.562,-118.393"/>
<polygon fill="black" stroke="black" points="139.07,-118.534 136.783,-108.189 132.119,-117.702 139.07,-118.534"/>
<g id="a_edge15&#45;headlabel"><a xlink:href="dir_000011_000013.html" target="_top" xlink:title="1">
<text text-anchor="middle" x="141.462" y="-119.941" font-family="Helvetica,sans-Serif" font-size="10.00">1</text>
</a>
</g>
</g>
<!-- dir_baddde578d762c90c1d949a22a636838 -->
<g id="node7" class="node"><title>dir_baddde578d762c90c1d949a22a636838</title>
<g id="a_node7"><a xlink:href="dir_baddde578d762c90c1d949a22a636838.html" target="_top" xlink:title="menu">
<polygon fill="white" stroke="red" points="258.841,-252 204.841,-252 204.841,-216 258.841,-216 258.841,-252"/>
<text text-anchor="middle" x="231.841" y="-231.5" font-family="Helvetica,sans-Serif" font-size="10.00">menu</text>
</a>
</g>
</g>
<!-- dir_212b08e736d9d694db45040b806dc585&#45;&gt;dir_baddde578d762c90c1d949a22a636838 -->
<g id="edge16" class="edge"><title>dir_212b08e736d9d694db45040b806dc585&#45;&gt;dir_baddde578d762c90c1d949a22a636838</title>
<path fill="none" stroke="black" d="M148.911,-234C164.147,-234 179.382,-234 194.618,-234"/>
<polygon fill="black" stroke="black" points="194.63,-237.5 204.63,-234 194.63,-230.5 194.63,-237.5"/>
<g id="a_edge16&#45;headlabel"><a xlink:href="dir_000011_000006.html" target="_top" xlink:title="2">
<text text-anchor="middle" x="191.035" y="-237.839" font-family="Helvetica,sans-Serif" font-size="10.00">2</text>
</a>
</g>
</g>
<!-- dir_e3329d3c2d46f8b7ce41feead58c45dc -->
<g id="node2" class="node"><title>dir_e3329d3c2d46f8b7ce41feead58c45dc</title>
<g id="a_node2"><a xlink:href="dir_e3329d3c2d46f8b7ce41feead58c45dc.html" target="_top" xlink:title="src">
<polygon fill="white" stroke="black" points="76.841,-252 22.841,-252 22.841,-216 76.841,-216 76.841,-252"/>
<text text-anchor="middle" x="49.841" y="-231.5" font-family="Helvetica,sans-Serif" font-size="10.00">src</text>
</a>
</g>
</g>
<!-- dir_e8522150b400a43ebfdbd1fed060b8e2&#45;&gt;dir_212b08e736d9d694db45040b806dc585 -->
<g id="edge4" class="edge"><title>dir_e8522150b400a43ebfdbd1fed060b8e2&#45;&gt;dir_212b08e736d9d694db45040b806dc585</title>
<path fill="none" stroke="black" d="M148.083,-287.697C145.831,-279.728 142.332,-270.1 138.531,-261.264"/>
<polygon fill="black" stroke="black" points="141.681,-259.737 134.333,-252.104 135.318,-262.653 141.681,-259.737"/>
<g id="a_edge4&#45;headlabel"><a xlink:href="dir_000005_000011.html" target="_top" xlink:title="5">
<text text-anchor="middle" x="145.76" y="-259.322" font-family="Helvetica,sans-Serif" font-size="10.00">5</text>
</a>
</g>
</g>
<!-- dir_e8522150b400a43ebfdbd1fed060b8e2&#45;&gt;dir_1284b95147afa48b330f502c8bbc0529 -->
<g id="edge1" class="edge"><title>dir_e8522150b400a43ebfdbd1fed060b8e2&#45;&gt;dir_1284b95147afa48b330f502c8bbc0529</title>
<path fill="none" stroke="black" d="M153.792,-288C156.127,-279.617 158.833,-269.327 160.841,-260 165.872,-236.63 170.187,-209.796 173.064,-190.285"/>
<polygon fill="black" stroke="black" points="176.546,-190.664 174.51,-180.267 169.617,-189.664 176.546,-190.664"/>
<g id="a_edge1&#45;headlabel"><a xlink:href="dir_000005_000000.html" target="_top" xlink:title="5">
<text text-anchor="middle" x="178.842" y="-192.127" font-family="Helvetica,sans-Serif" font-size="10.00">5</text>
</a>
</g>
</g>
<!-- dir_e8522150b400a43ebfdbd1fed060b8e2&#45;&gt;dir_0c8fd76a6ec5a01c144012824d36fa80 -->
<g id="edge2" class="edge"><title>dir_e8522150b400a43ebfdbd1fed060b8e2&#45;&gt;dir_0c8fd76a6ec5a01c144012824d36fa80</title>
<path fill="none" stroke="black" d="M121.674,-304.946C89.2219,-303.238 36.1514,-294.875 10.841,-260 -28.519,-205.765 52.8509,-143.192 103.132,-111.574"/>
<polygon fill="black" stroke="black" points="105.142,-114.447 111.82,-106.222 101.47,-108.487 105.142,-114.447"/>
<g id="a_edge2&#45;headlabel"><a xlink:href="dir_000005_000013.html" target="_top" xlink:title="2">
<text text-anchor="middle" x="103.57" y="-116.25" font-family="Helvetica,sans-Serif" font-size="10.00">2</text>
</a>
</g>
</g>
<!-- dir_e8522150b400a43ebfdbd1fed060b8e2&#45;&gt;dir_baddde578d762c90c1d949a22a636838 -->
<g id="edge3" class="edge"><title>dir_e8522150b400a43ebfdbd1fed060b8e2&#45;&gt;dir_baddde578d762c90c1d949a22a636838</title>
<path fill="none" stroke="black" d="M169.358,-287.697C179.711,-278.965 192.427,-268.24 203.68,-258.75"/>
<polygon fill="black" stroke="black" points="206.172,-261.227 211.56,-252.104 201.659,-255.876 206.172,-261.227"/>
<g id="a_edge3&#45;headlabel"><a xlink:href="dir_000005_000006.html" target="_top" xlink:title="1">
<text text-anchor="middle" x="205.255" y="-263.215" font-family="Helvetica,sans-Serif" font-size="10.00">1</text>
</a>
</g>
</g>
<!-- dir_1284b95147afa48b330f502c8bbc0529&#45;&gt;dir_6719ab1f1f7655efc2fa43f7eb574fd1 -->
<g id="edge5" class="edge"><title>dir_1284b95147afa48b330f502c8bbc0529&#45;&gt;dir_6719ab1f1f7655efc2fa43f7eb574fd1</title>
<path fill="none" stroke="black" d="M177.194,-143.895C177.392,-125.944 177.224,-96.9239 174.841,-72 174.029,-63.5077 172.649,-54.3229 171.211,-46.0229"/>
<polygon fill="black" stroke="black" points="174.639,-45.3083 169.396,-36.1014 167.753,-46.568 174.639,-45.3083"/>
<g id="a_edge5&#45;headlabel"><a xlink:href="dir_000000_000003.html" target="_top" xlink:title="1">
<text text-anchor="middle" x="178.078" y="-45.8334" font-family="Helvetica,sans-Serif" font-size="10.00">1</text>
</a>
</g>
</g>
<!-- dir_1284b95147afa48b330f502c8bbc0529&#45;&gt;dir_0c8fd76a6ec5a01c144012824d36fa80 -->
<g id="edge6" class="edge"><title>dir_1284b95147afa48b330f502c8bbc0529&#45;&gt;dir_0c8fd76a6ec5a01c144012824d36fa80</title>
<path fill="none" stroke="black" d="M161.532,-143.697C156.385,-135.728 150.943,-126.1 146.539,-117.264"/>
<polygon fill="black" stroke="black" points="149.654,-115.664 142.231,-108.104 143.32,-118.643 149.654,-115.664"/>
<g id="a_edge6&#45;headlabel"><a xlink:href="dir_000000_000013.html" target="_top" xlink:title="9">
<text text-anchor="middle" x="153.753" y="-115.208" font-family="Helvetica,sans-Serif" font-size="10.00">9</text>
</a>
</g>
</g>
<!-- dir_0c8fd76a6ec5a01c144012824d36fa80&#45;&gt;dir_6719ab1f1f7655efc2fa43f7eb574fd1 -->
<g id="edge7" class="edge"><title>dir_0c8fd76a6ec5a01c144012824d36fa80&#45;&gt;dir_6719ab1f1f7655efc2fa43f7eb574fd1</title>
<path fill="none" stroke="black" d="M145.515,-71.6966C148.556,-63.8132 152.224,-54.3042 155.602,-45.5464"/>
<polygon fill="black" stroke="black" points="158.91,-46.6939 159.244,-36.1043 152.379,-44.1748 158.91,-46.6939"/>
<g id="a_edge7&#45;headlabel"><a xlink:href="dir_000013_000003.html" target="_top" xlink:title="1">
<text text-anchor="middle" x="160.266" y="-48.5695" font-family="Helvetica,sans-Serif" font-size="10.00">1</text>
</a>
</g>
</g>
<!-- dir_0c8fd76a6ec5a01c144012824d36fa80&#45;&gt;dir_1284b95147afa48b330f502c8bbc0529 -->
<g id="edge8" class="edge"><title>dir_0c8fd76a6ec5a01c144012824d36fa80&#45;&gt;dir_1284b95147afa48b330f502c8bbc0529</title>
<path fill="none" stroke="black" d="M154.021,-108.104C159.164,-116.045 164.612,-125.666 169.032,-134.515"/>
<polygon fill="black" stroke="black" points="165.932,-136.145 173.364,-143.697 172.263,-133.159 165.932,-136.145"/>
<g id="a_edge8&#45;headlabel"><a xlink:href="dir_000013_000000.html" target="_top" xlink:title="1">
<text text-anchor="middle" x="161.83" y="-131.606" font-family="Helvetica,sans-Serif" font-size="10.00">1</text>
</a>
</g>
</g>
<!-- dir_baddde578d762c90c1d949a22a636838&#45;&gt;dir_212b08e736d9d694db45040b806dc585 -->
<g id="edge11" class="edge"><title>dir_baddde578d762c90c1d949a22a636838&#45;&gt;dir_212b08e736d9d694db45040b806dc585</title>
<path fill="none" stroke="black" d="M204.63,-234C189.394,-234 174.159,-234 158.923,-234"/>
<polygon fill="black" stroke="black" points="158.911,-230.5 148.911,-234 158.911,-237.5 158.911,-230.5"/>
<g id="a_edge11&#45;headlabel"><a xlink:href="dir_000006_000011.html" target="_top" xlink:title="1">
<text text-anchor="middle" x="162.506" y="-225.161" font-family="Helvetica,sans-Serif" font-size="10.00">1</text>
</a>
</g>
</g>
<!-- dir_baddde578d762c90c1d949a22a636838&#45;&gt;dir_6719ab1f1f7655efc2fa43f7eb574fd1 -->
<g id="edge9" class="edge"><title>dir_baddde578d762c90c1d949a22a636838&#45;&gt;dir_6719ab1f1f7655efc2fa43f7eb574fd1</title>
<path fill="none" stroke="black" d="M228.836,-215.663C223.334,-185.7 210.382,-122.583 190.841,-72 187.468,-63.2691 183.291,-53.9685 179.323,-45.6354"/>
<polygon fill="black" stroke="black" points="182.346,-43.8485 174.822,-36.3895 176.052,-46.9126 182.346,-43.8485"/>
<g id="a_edge9&#45;headlabel"><a xlink:href="dir_000006_000003.html" target="_top" xlink:title="1">
<text text-anchor="middle" x="186.472" y="-43.3377" font-family="Helvetica,sans-Serif" font-size="10.00">1</text>
</a>
</g>
</g>
<!-- dir_baddde578d762c90c1d949a22a636838&#45;&gt;dir_1284b95147afa48b330f502c8bbc0529 -->
<g id="edge10" class="edge"><title>dir_baddde578d762c90c1d949a22a636838&#45;&gt;dir_1284b95147afa48b330f502c8bbc0529</title>
<path fill="none" stroke="black" d="M218.246,-215.697C211.718,-207.389 203.773,-197.277 196.594,-188.141"/>
<polygon fill="black" stroke="black" points="199.211,-185.805 190.28,-180.104 193.706,-190.13 199.211,-185.805"/>
<g id="a_edge10&#45;headlabel"><a xlink:href="dir_000006_000000.html" target="_top" xlink:title="2">
<text text-anchor="middle" x="203.664" y="-184.377" font-family="Helvetica,sans-Serif" font-size="10.00">2</text>
</a>
</g>
</g>
</g>
</svg>
