<?xml version="1.0" encoding="UTF-8" standalone="no"?>
<!DOCTYPE svg PUBLIC "-//W3C//DTD SVG 1.1//EN"
 "http://www.w3.org/Graphics/SVG/1.1/DTD/svg11.dtd">
<!-- Generated by graphviz version 2.38.0 (20140413.2041)
 -->
<!-- Title: Encoder_1_decoder Pages: 1 -->
<svg width="430pt" height="66pt"
 viewBox="0.00 0.00 430.00 66.00" xmlns="http://www.w3.org/2000/svg" xmlns:xlink="http://www.w3.org/1999/xlink">
<g id="graph0" class="graph" transform="scale(1 1) rotate(0) translate(4 62)">
<title>Encoder_1_decoder</title>
<polygon fill="white" stroke="none" points="-4,4 -4,-62 426,-62 426,4 -4,4"/>
<!-- Node1 -->
<g id="node1" class="node"><title>Node1</title>
<polygon fill="#bfbfbf" stroke="black" points="0,-19.5 0,-38.5 103,-38.5 103,-19.5 0,-19.5"/>
<text text-anchor="middle" x="51.5" y="-26.5" font-family="Helvetica,sans-Serif" font-size="10.00">Encoder_1_decoder</text>
</g>
<!-- Node2 -->
<g id="node2" class="node"><title>Node2</title>
<g id="a_node2"><a xlink:href="encoder_8c.html#a271ca5c0624ed124f6398f408d1f3017" target="_top" xlink:title="encoder_interrupt">
<polygon fill="white" stroke="black" points="139,-19.5 139,-38.5 231,-38.5 231,-19.5 139,-19.5"/>
<text text-anchor="middle" x="185" y="-26.5" font-family="Helvetica,sans-Serif" font-size="10.00">encoder_interrupt</text>
</a>
</g>
</g>
<!-- Node1&#45;&gt;Node2 -->
<g id="edge1" class="edge"><title>Node1&#45;&gt;Node2</title>
<path fill="none" stroke="midnightblue" d="M113.343,-29C121.937,-29 130.643,-29 138.87,-29"/>
<polygon fill="midnightblue" stroke="midnightblue" points="113.341,-25.5001 103.341,-29 113.341,-32.5001 113.341,-25.5001"/>
</g>
<!-- Node3 -->
<g id="node3" class="node"><title>Node3</title>
<g id="a_node3"><a xlink:href="encoder_8c.html#a1b09f480da15d565de0b4acf37f40199" target="_top" xlink:title="Encoder_1_init">
<polygon fill="white" stroke="black" points="267,-38.5 267,-57.5 348,-57.5 348,-38.5 267,-38.5"/>
<text text-anchor="middle" x="307.5" y="-45.5" font-family="Helvetica,sans-Serif" font-size="10.00">Encoder_1_init</text>
</a>
</g>
</g>
<!-- Node2&#45;&gt;Node3 -->
<g id="edge2" class="edge"><title>Node2&#45;&gt;Node3</title>
<path fill="none" stroke="midnightblue" d="M241.28,-37.7163C249.947,-39.0829 258.752,-40.4712 266.971,-41.7672"/>
<polygon fill="midnightblue" stroke="midnightblue" points="241.636,-34.2293 231.213,-36.129 240.545,-41.1438 241.636,-34.2293"/>
</g>
<!-- Node5 -->
<g id="node5" class="node"><title>Node5</title>
<g id="a_node5"><a xlink:href="encoder_8c.html#af947b4bf6e9bc6d5b580609d046789da" target="_top" xlink:title="Encoder_2_init">
<polygon fill="white" stroke="black" points="267,-0.5 267,-19.5 348,-19.5 348,-0.5 267,-0.5"/>
<text text-anchor="middle" x="307.5" y="-7.5" font-family="Helvetica,sans-Serif" font-size="10.00">Encoder_2_init</text>
</a>
</g>
</g>
<!-- Node2&#45;&gt;Node5 -->
<g id="edge4" class="edge"><title>Node2&#45;&gt;Node5</title>
<path fill="none" stroke="midnightblue" d="M241.28,-20.2837C249.947,-18.9171 258.752,-17.5288 266.971,-16.2328"/>
<polygon fill="midnightblue" stroke="midnightblue" points="240.545,-16.8562 231.213,-21.871 241.636,-23.7707 240.545,-16.8562"/>
</g>
<!-- Node4 -->
<g id="node4" class="node"><title>Node4</title>
<g id="a_node4"><a xlink:href="main_8c.html#a840291bc02cba5474a4cb46a9b9566fe" target="_top" xlink:title="main">
<polygon fill="white" stroke="black" points="384,-19.5 384,-38.5 422,-38.5 422,-19.5 384,-19.5"/>
<text text-anchor="middle" x="403" y="-26.5" font-family="Helvetica,sans-Serif" font-size="10.00">main</text>
</a>
</g>
</g>
<!-- Node3&#45;&gt;Node4 -->
<g id="edge3" class="edge"><title>Node3&#45;&gt;Node4</title>
<path fill="none" stroke="midnightblue" d="M358.065,-37.9279C367.21,-36.0697 376.21,-34.2408 383.66,-32.7269"/>
<polygon fill="midnightblue" stroke="midnightblue" points="357.255,-34.5209 348.152,-39.9423 358.649,-41.3807 357.255,-34.5209"/>
</g>
<!-- Node5&#45;&gt;Node4 -->
<g id="edge5" class="edge"><title>Node5&#45;&gt;Node4</title>
<path fill="none" stroke="midnightblue" d="M358.065,-20.0721C367.21,-21.9303 376.21,-23.7592 383.66,-25.2731"/>
<polygon fill="midnightblue" stroke="midnightblue" points="358.649,-16.6193 348.152,-18.0577 357.255,-23.4791 358.649,-16.6193"/>
</g>
</g>
</svg>
