<?xml version="1.0" encoding="UTF-8" standalone="no"?>
<!DOCTYPE svg PUBLIC "-//W3C//DTD SVG 1.1//EN"
 "http://www.w3.org/Graphics/SVG/1.1/DTD/svg11.dtd">
<!-- Generated by graphviz version 2.38.0 (20140413.2041)
 -->
<!-- Title: encoder_interrupt Pages: 1 -->
<svg width="291pt" height="66pt"
 viewBox="0.00 0.00 291.00 66.00" xmlns="http://www.w3.org/2000/svg" xmlns:xlink="http://www.w3.org/1999/xlink">
<g id="graph0" class="graph" transform="scale(1 1) rotate(0) translate(4 62)">
<title>encoder_interrupt</title>
<polygon fill="white" stroke="none" points="-4,4 -4,-62 287,-62 287,4 -4,4"/>
<!-- Node1 -->
<g id="node1" class="node"><title>Node1</title>
<polygon fill="#bfbfbf" stroke="black" points="0,-19.5 0,-38.5 92,-38.5 92,-19.5 0,-19.5"/>
<text text-anchor="middle" x="46" y="-26.5" font-family="Helvetica,sans-Serif" font-size="10.00">encoder_interrupt</text>
</g>
<!-- Node2 -->
<g id="node2" class="node"><title>Node2</title>
<g id="a_node2"><a xlink:href="encoder_8c.html#a1b09f480da15d565de0b4acf37f40199" target="_top" xlink:title="Encoder_1_init">
<polygon fill="white" stroke="black" points="128,-38.5 128,-57.5 209,-57.5 209,-38.5 128,-38.5"/>
<text text-anchor="middle" x="168.5" y="-45.5" font-family="Helvetica,sans-Serif" font-size="10.00">Encoder_1_init</text>
</a>
</g>
</g>
<!-- Node1&#45;&gt;Node2 -->
<g id="edge1" class="edge"><title>Node1&#45;&gt;Node2</title>
<path fill="none" stroke="midnightblue" d="M102.28,-37.7163C110.947,-39.0829 119.752,-40.4712 127.971,-41.7672"/>
<polygon fill="midnightblue" stroke="midnightblue" points="102.636,-34.2293 92.2126,-36.129 101.545,-41.1438 102.636,-34.2293"/>
</g>
<!-- Node4 -->
<g id="node4" class="node"><title>Node4</title>
<g id="a_node4"><a xlink:href="encoder_8c.html#af947b4bf6e9bc6d5b580609d046789da" target="_top" xlink:title="Encoder_2_init">
<polygon fill="white" stroke="black" points="128,-0.5 128,-19.5 209,-19.5 209,-0.5 128,-0.5"/>
<text text-anchor="middle" x="168.5" y="-7.5" font-family="Helvetica,sans-Serif" font-size="10.00">Encoder_2_init</text>
</a>
</g>
</g>
<!-- Node1&#45;&gt;Node4 -->
<g id="edge3" class="edge"><title>Node1&#45;&gt;Node4</title>
<path fill="none" stroke="midnightblue" d="M102.28,-20.2837C110.947,-18.9171 119.752,-17.5288 127.971,-16.2328"/>
<polygon fill="midnightblue" stroke="midnightblue" points="101.545,-16.8562 92.2126,-21.871 102.636,-23.7707 101.545,-16.8562"/>
</g>
<!-- Node3 -->
<g id="node3" class="node"><title>Node3</title>
<g id="a_node3"><a xlink:href="main_8c.html#a840291bc02cba5474a4cb46a9b9566fe" target="_top" xlink:title="main">
<polygon fill="white" stroke="black" points="245,-19.5 245,-38.5 283,-38.5 283,-19.5 245,-19.5"/>
<text text-anchor="middle" x="264" y="-26.5" font-family="Helvetica,sans-Serif" font-size="10.00">main</text>
</a>
</g>
</g>
<!-- Node2&#45;&gt;Node3 -->
<g id="edge2" class="edge"><title>Node2&#45;&gt;Node3</title>
<path fill="none" stroke="midnightblue" d="M219.065,-37.9279C228.21,-36.0697 237.21,-34.2408 244.66,-32.7269"/>
<polygon fill="midnightblue" stroke="midnightblue" points="218.255,-34.5209 209.152,-39.9423 219.649,-41.3807 218.255,-34.5209"/>
</g>
<!-- Node4&#45;&gt;Node3 -->
<g id="edge4" class="edge"><title>Node4&#45;&gt;Node3</title>
<path fill="none" stroke="midnightblue" d="M219.065,-20.0721C228.21,-21.9303 237.21,-23.7592 244.66,-25.2731"/>
<polygon fill="midnightblue" stroke="midnightblue" points="219.649,-16.6193 209.152,-18.0577 218.255,-23.4791 219.649,-16.6193"/>
</g>
</g>
</svg>
