<?xml version="1.0" encoding="UTF-8" standalone="no"?>
<!DOCTYPE svg PUBLIC "-//W3C//DTD SVG 1.1//EN"
 "http://www.w3.org/Graphics/SVG/1.1/DTD/svg11.dtd">
<!-- Generated by graphviz version 2.38.0 (20140413.2041)
 -->
<!-- Title: read_flash Pages: 1 -->
<svg width="341pt" height="66pt"
 viewBox="0.00 0.00 341.00 66.00" xmlns="http://www.w3.org/2000/svg" xmlns:xlink="http://www.w3.org/1999/xlink">
<g id="graph0" class="graph" transform="scale(1 1) rotate(0) translate(4 62)">
<title>read_flash</title>
<polygon fill="white" stroke="none" points="-4,4 -4,-62 337,-62 337,4 -4,4"/>
<!-- Node1 -->
<g id="node1" class="node"><title>Node1</title>
<polygon fill="#bfbfbf" stroke="black" points="0,-19.5 0,-38.5 61,-38.5 61,-19.5 0,-19.5"/>
<text text-anchor="middle" x="30.5" y="-26.5" font-family="Helvetica,sans-Serif" font-size="10.00">read_flash</text>
</g>
<!-- Node2 -->
<g id="node2" class="node"><title>Node2</title>
<g id="a_node2"><a xlink:href="flash_8c.html#aece8757a70bfb964ca3de0302924c3fd" target="_top" xlink:title="store_data_to_flash">
<polygon fill="white" stroke="black" points="97,-38.5 97,-57.5 198,-57.5 198,-38.5 97,-38.5"/>
<text text-anchor="middle" x="147.5" y="-45.5" font-family="Helvetica,sans-Serif" font-size="10.00">store_data_to_flash</text>
</a>
</g>
</g>
<!-- Node1&#45;&gt;Node2 -->
<g id="edge1" class="edge"><title>Node1&#45;&gt;Node2</title>
<path fill="none" stroke="midnightblue" d="M71.2445,-35.5665C79.5173,-36.9333 88.3338,-38.3899 96.9109,-39.807"/>
<polygon fill="midnightblue" stroke="midnightblue" points="71.5522,-32.0699 61.1154,-33.893 70.4111,-38.9763 71.5522,-32.0699"/>
</g>
<!-- Node4 -->
<g id="node4" class="node"><title>Node4</title>
<g id="a_node4"><a xlink:href="radio_8c.html#acd8105d0e43e2e4801375554df271689" target="_top" xlink:title="radio_read_station">
<polygon fill="white" stroke="black" points="99.5,-0.5 99.5,-19.5 195.5,-19.5 195.5,-0.5 99.5,-0.5"/>
<text text-anchor="middle" x="147.5" y="-7.5" font-family="Helvetica,sans-Serif" font-size="10.00">radio_read_station</text>
</a>
</g>
</g>
<!-- Node1&#45;&gt;Node4 -->
<g id="edge3" class="edge"><title>Node1&#45;&gt;Node4</title>
<path fill="none" stroke="midnightblue" d="M71.0059,-22.4729C80.0642,-20.9764 89.785,-19.3703 99.1364,-17.8253"/>
<polygon fill="midnightblue" stroke="midnightblue" points="70.4111,-19.0237 61.1154,-24.107 71.5522,-25.9301 70.4111,-19.0237"/>
</g>
<!-- Node3 -->
<g id="node3" class="node"><title>Node3</title>
<g id="a_node3"><a xlink:href="radio_8c.html#ab8b5a7b9b4ca94260ab8802217721bda" target="_top" xlink:title="radio_store_station">
<polygon fill="white" stroke="black" points="234,-38.5 234,-57.5 333,-57.5 333,-38.5 234,-38.5"/>
<text text-anchor="middle" x="283.5" y="-45.5" font-family="Helvetica,sans-Serif" font-size="10.00">radio_store_station</text>
</a>
</g>
</g>
<!-- Node2&#45;&gt;Node3 -->
<g id="edge2" class="edge"><title>Node2&#45;&gt;Node3</title>
<path fill="none" stroke="midnightblue" d="M208.254,-48C216.742,-48 225.386,-48 233.634,-48"/>
<polygon fill="midnightblue" stroke="midnightblue" points="208.016,-44.5001 198.016,-48 208.016,-51.5001 208.016,-44.5001"/>
</g>
</g>
</svg>
