<?xml version="1.0" encoding="UTF-8" standalone="no"?>
<!DOCTYPE svg PUBLIC "-//W3C//DTD SVG 1.1//EN"
 "http://www.w3.org/Graphics/SVG/1.1/DTD/svg11.dtd">
<!-- Generated by graphviz version 2.38.0 (20140413.2041)
 -->
<!-- Title: flash_store Pages: 1 -->
<svg width="611pt" height="408pt"
 viewBox="0.00 0.00 611.00 408.00" xmlns="http://www.w3.org/2000/svg" xmlns:xlink="http://www.w3.org/1999/xlink">
<g id="graph0" class="graph" transform="scale(1 1) rotate(0) translate(4 404)">
<title>flash_store</title>
<polygon fill="white" stroke="none" points="-4,4 -4,-404 607,-404 607,4 -4,4"/>
<!-- Node1 -->
<g id="node1" class="node"><title>Node1</title>
<polygon fill="#bfbfbf" stroke="black" points="0,-209.5 0,-228.5 64,-228.5 64,-209.5 0,-209.5"/>
<text text-anchor="middle" x="32" y="-216.5" font-family="Helvetica,sans-Serif" font-size="10.00">flash_store</text>
</g>
<!-- Node2 -->
<g id="node2" class="node"><title>Node2</title>
<g id="a_node2"><a xlink:href="radio_8c.html#a477656bb91c200d15ddbe6cffcd04c53" target="_top" xlink:title="Store the current settings. ">
<polygon fill="white" stroke="black" points="100,-209.5 100,-228.5 204,-228.5 204,-209.5 100,-209.5"/>
<text text-anchor="middle" x="152" y="-216.5" font-family="Helvetica,sans-Serif" font-size="10.00">radio_store_settings</text>
</a>
</g>
</g>
<!-- Node1&#45;&gt;Node2 -->
<g id="edge1" class="edge"><title>Node1&#45;&gt;Node2</title>
<path fill="none" stroke="midnightblue" d="M74.1193,-219C82.3666,-219 91.1287,-219 99.6725,-219"/>
<polygon fill="midnightblue" stroke="midnightblue" points="74.0031,-215.5 64.0031,-219 74.0031,-222.5 74.0031,-215.5"/>
</g>
<!-- Node3 -->
<g id="node3" class="node"><title>Node3</title>
<g id="a_node3"><a xlink:href="radio_8c.html#ad4d9fc5d5ddc7cfaac75911695ae92a8" target="_top" xlink:title="Factory reset. ">
<polygon fill="white" stroke="black" points="254.5,-380.5 254.5,-399.5 353.5,-399.5 353.5,-380.5 254.5,-380.5"/>
<text text-anchor="middle" x="304" y="-387.5" font-family="Helvetica,sans-Serif" font-size="10.00">radio_factory_state</text>
</a>
</g>
</g>
<!-- Node1&#45;&gt;Node3 -->
<g id="edge22" class="edge"><title>Node1&#45;&gt;Node3</title>
<path fill="none" stroke="midnightblue" d="M51.118,-235.7C85.4729,-266.55 163.514,-332.805 240,-371 247.461,-374.726 255.79,-377.872 263.885,-380.465"/>
<polygon fill="midnightblue" stroke="midnightblue" points="53.1114,-232.782 43.3525,-228.658 48.4091,-237.968 53.1114,-232.782"/>
</g>
<!-- Node17 -->
<g id="node17" class="node"><title>Node17</title>
<g id="a_node17"><a xlink:href="radio_8c.html#a5e5300f73411d8e90a928adf42d2a6ed" target="_top" xlink:title="Store one radio station. ">
<polygon fill="white" stroke="black" points="102.5,-38.5 102.5,-57.5 201.5,-57.5 201.5,-38.5 102.5,-38.5"/>
<text text-anchor="middle" x="152" y="-45.5" font-family="Helvetica,sans-Serif" font-size="10.00">radio_store_station</text>
</a>
</g>
</g>
<!-- Node1&#45;&gt;Node17 -->
<g id="edge18" class="edge"><title>Node1&#45;&gt;Node17</title>
<path fill="none" stroke="midnightblue" d="M45.6045,-200.734C70.5452,-164.591 125.418,-85.0729 144.391,-57.5774"/>
<polygon fill="midnightblue" stroke="midnightblue" points="42.4812,-199.098 39.6823,-209.316 48.2426,-203.074 42.4812,-199.098"/>
</g>
<!-- Node2&#45;&gt;Node3 -->
<g id="edge2" class="edge"><title>Node2&#45;&gt;Node3</title>
<path fill="none" stroke="midnightblue" d="M162.754,-237.8C182.912,-276.378 228.259,-361.661 240,-371 244.917,-374.911 250.63,-378.019 256.569,-380.488"/>
<polygon fill="midnightblue" stroke="midnightblue" points="165.719,-235.917 157.996,-228.665 159.511,-239.151 165.719,-235.917"/>
</g>
<!-- Node7 -->
<g id="node7" class="node"><title>Node7</title>
<g id="a_node7"><a xlink:href="radio__settings_8c.html#a2d04f2363bf944b4700b71e0f96ee16f" target="_top" xlink:title="Sets the brightness. ">
<polygon fill="white" stroke="black" points="240,-342.5 240,-361.5 368,-361.5 368,-342.5 240,-342.5"/>
<text text-anchor="middle" x="304" y="-349.5" font-family="Helvetica,sans-Serif" font-size="10.00">radio_settings_brightness</text>
</a>
</g>
</g>
<!-- Node2&#45;&gt;Node7 -->
<g id="edge6" class="edge"><title>Node2&#45;&gt;Node7</title>
<path fill="none" stroke="midnightblue" d="M162.29,-237.508C175.915,-262.788 203.687,-307.84 240,-333 245.54,-336.839 251.873,-339.917 258.339,-342.382"/>
<polygon fill="midnightblue" stroke="midnightblue" points="165.358,-235.821 157.626,-228.578 159.154,-239.063 165.358,-235.821"/>
</g>
<!-- Node8 -->
<g id="node8" class="node"><title>Node8</title>
<g id="a_node8"><a xlink:href="radio__settings_8c.html#ab8b2e0dbe3fd9644146e798c3e2a3116" target="_top" xlink:title="Sets the contrast. ">
<polygon fill="white" stroke="black" points="245,-304.5 245,-323.5 363,-323.5 363,-304.5 245,-304.5"/>
<text text-anchor="middle" x="304" y="-311.5" font-family="Helvetica,sans-Serif" font-size="10.00">radio_settings_contrast</text>
</a>
</g>
</g>
<!-- Node2&#45;&gt;Node8 -->
<g id="edge7" class="edge"><title>Node2&#45;&gt;Node8</title>
<path fill="none" stroke="midnightblue" d="M168.469,-236.266C184.721,-253.432 211.8,-279.394 240,-295 246.797,-298.762 254.428,-301.865 261.971,-304.395"/>
<polygon fill="midnightblue" stroke="midnightblue" points="170.763,-233.592 161.402,-228.629 165.625,-238.346 170.763,-233.592"/>
</g>
<!-- Node9 -->
<g id="node9" class="node"><title>Node9</title>
<g id="a_node9"><a xlink:href="radio__settings_8c.html#a1b37e35c0934d8ed5ba002ab3ec7a516" target="_top" xlink:title="Sets the audio source. ">
<polygon fill="white" stroke="black" points="248,-266.5 248,-285.5 360,-285.5 360,-266.5 248,-266.5"/>
<text text-anchor="middle" x="304" y="-273.5" font-family="Helvetica,sans-Serif" font-size="10.00">radio_settings_source</text>
</a>
</g>
</g>
<!-- Node2&#45;&gt;Node9 -->
<g id="edge8" class="edge"><title>Node2&#45;&gt;Node9</title>
<path fill="none" stroke="midnightblue" d="M182.35,-232.86C199.051,-240.482 220.473,-249.82 240,-257 249.221,-260.391 259.357,-263.647 268.751,-266.478"/>
<polygon fill="midnightblue" stroke="midnightblue" points="183.659,-229.609 173.113,-228.599 180.728,-235.966 183.659,-229.609"/>
</g>
<!-- Node10 -->
<g id="node10" class="node"><title>Node10</title>
<g id="a_node10"><a xlink:href="radio__settings_8c.html#a871edf4f0e44f83f32784e258622a6db" target="_top" xlink:title="Sets the equalizer mode. ">
<polygon fill="white" stroke="black" points="243,-228.5 243,-247.5 365,-247.5 365,-228.5 243,-228.5"/>
<text text-anchor="middle" x="304" y="-235.5" font-family="Helvetica,sans-Serif" font-size="10.00">radio_settings_equalizer</text>
</a>
</g>
</g>
<!-- Node2&#45;&gt;Node10 -->
<g id="edge10" class="edge"><title>Node2&#45;&gt;Node10</title>
<path fill="none" stroke="midnightblue" d="M214.321,-226.767C223.783,-227.966 233.546,-229.203 242.979,-230.397"/>
<polygon fill="midnightblue" stroke="midnightblue" points="214.563,-223.27 204.202,-225.486 213.683,-230.215 214.563,-223.27"/>
</g>
<!-- Node11 -->
<g id="node11" class="node"><title>Node11</title>
<g id="a_node11"><a xlink:href="radio__settings_8c.html#aba6a09ed7091ec65d2cbf4cd9a9a75f4" target="_top" xlink:title="Sets the volume. ">
<polygon fill="white" stroke="black" points="247.5,-190.5 247.5,-209.5 360.5,-209.5 360.5,-190.5 247.5,-190.5"/>
<text text-anchor="middle" x="304" y="-197.5" font-family="Helvetica,sans-Serif" font-size="10.00">radio_settings_volume</text>
</a>
</g>
</g>
<!-- Node2&#45;&gt;Node11 -->
<g id="edge11" class="edge"><title>Node2&#45;&gt;Node11</title>
<path fill="none" stroke="midnightblue" d="M214.161,-211.253C225.163,-209.859 236.576,-208.414 247.409,-207.042"/>
<polygon fill="midnightblue" stroke="midnightblue" points="213.683,-207.785 204.202,-212.514 214.563,-214.73 213.683,-207.785"/>
</g>
<!-- Node12 -->
<g id="node12" class="node"><title>Node12</title>
<g id="a_node12"><a xlink:href="radio__settings_8c.html#ab424f802ddd3a0570afec524d4f2091b" target="_top" xlink:title="Sets the frequency. ">
<polygon fill="white" stroke="black" points="404,-57.5 404,-76.5 529,-76.5 529,-57.5 404,-57.5"/>
<text text-anchor="middle" x="466.5" y="-64.5" font-family="Helvetica,sans-Serif" font-size="10.00">radio_settings_frequency</text>
</a>
</g>
</g>
<!-- Node2&#45;&gt;Node12 -->
<g id="edge12" class="edge"><title>Node2&#45;&gt;Node12</title>
<path fill="none" stroke="midnightblue" d="M182.339,-205.108C199.036,-197.475 220.458,-188.138 240,-181 295.741,-160.64 315.236,-170.158 368,-143 403.685,-124.633 439.261,-92.5465 455.846,-76.5843"/>
<polygon fill="midnightblue" stroke="midnightblue" points="180.713,-202.003 173.103,-209.375 183.649,-208.358 180.713,-202.003"/>
</g>
<!-- Node13 -->
<g id="node13" class="node"><title>Node13</title>
<g id="a_node13"><a xlink:href="radio__settings_8c.html#a57fa93db84d4ea8f569c455b5a3357fa" target="_top" xlink:title="Choose the data to display. ">
<polygon fill="white" stroke="black" points="253.5,-114.5 253.5,-133.5 354.5,-133.5 354.5,-114.5 253.5,-114.5"/>
<text text-anchor="middle" x="304" y="-121.5" font-family="Helvetica,sans-Serif" font-size="10.00">radio_settings_view</text>
</a>
</g>
</g>
<!-- Node2&#45;&gt;Node13 -->
<g id="edge13" class="edge"><title>Node2&#45;&gt;Node13</title>
<path fill="none" stroke="midnightblue" d="M169.997,-202.311C186.693,-186.632 213.458,-163.347 240,-148 249.93,-142.259 261.49,-137.396 271.976,-133.581"/>
<polygon fill="midnightblue" stroke="midnightblue" points="167.465,-199.889 162.654,-209.329 172.302,-204.95 167.465,-199.889"/>
</g>
<!-- Node14 -->
<g id="node14" class="node"><title>Node14</title>
<g id="a_node14"><a xlink:href="radio__settings_8c.html#ad72b06e78a241cf11a25dd8c0f9338e4" target="_top" xlink:title="Set TA/TP. ">
<polygon fill="white" stroke="black" points="254.5,-76.5 254.5,-95.5 353.5,-95.5 353.5,-76.5 254.5,-76.5"/>
<text text-anchor="middle" x="304" y="-83.5" font-family="Helvetica,sans-Serif" font-size="10.00">radio_settings_tatp</text>
</a>
</g>
</g>
<!-- Node2&#45;&gt;Node14 -->
<g id="edge14" class="edge"><title>Node2&#45;&gt;Node14</title>
<path fill="none" stroke="midnightblue" d="M162.29,-200.492C175.915,-175.212 203.687,-130.16 240,-105 245.54,-101.161 251.873,-98.0828 258.339,-95.618"/>
<polygon fill="midnightblue" stroke="midnightblue" points="159.154,-198.937 157.626,-209.422 165.358,-202.179 159.154,-198.937"/>
</g>
<!-- Node15 -->
<g id="node15" class="node"><title>Node15</title>
<g id="a_node15"><a xlink:href="station__list_8h.html#a14396edaefab23c83e16fea65cc5db9d" target="_top" xlink:title="Handler to select the current station. ">
<polygon fill="white" stroke="black" points="253.5,-38.5 253.5,-57.5 354.5,-57.5 354.5,-38.5 253.5,-38.5"/>
<text text-anchor="middle" x="304" y="-45.5" font-family="Helvetica,sans-Serif" font-size="10.00">station_list_handler</text>
</a>
</g>
</g>
<!-- Node2&#45;&gt;Node15 -->
<g id="edge15" class="edge"><title>Node2&#45;&gt;Node15</title>
<path fill="none" stroke="midnightblue" d="M158.877,-199.474C169.625,-167.098 195.531,-102.371 240,-67 244.917,-63.0887 250.63,-59.981 256.569,-57.5123"/>
<polygon fill="midnightblue" stroke="midnightblue" points="155.504,-198.534 155.809,-209.125 162.174,-200.656 155.504,-198.534"/>
</g>
<!-- Node4 -->
<g id="node4" class="node"><title>Node4</title>
<g id="a_node4"><a xlink:href="radio_8c.html#a3a1de7e31aabba6e408a633c130e618a" target="_top" xlink:title="Initiales the radio. ">
<polygon fill="white" stroke="black" points="438.5,-304.5 438.5,-323.5 494.5,-323.5 494.5,-304.5 438.5,-304.5"/>
<text text-anchor="middle" x="466.5" y="-311.5" font-family="Helvetica,sans-Serif" font-size="10.00">radio_init</text>
</a>
</g>
</g>
<!-- Node3&#45;&gt;Node4 -->
<g id="edge3" class="edge"><title>Node3&#45;&gt;Node4</title>
<path fill="none" stroke="midnightblue" d="M351.352,-377.394C357.033,-375.449 362.7,-373.31 368,-371 399.276,-357.37 433.079,-335.936 451.525,-323.603"/>
<polygon fill="midnightblue" stroke="midnightblue" points="350.27,-374.066 341.839,-380.482 352.431,-380.724 350.27,-374.066"/>
</g>
<!-- Node6 -->
<g id="node6" class="node"><title>Node6</title>
<g id="a_node6"><a xlink:href="radio__settings_8c.html#a268592a69ac1e823468c81d64c9d8f07" target="_top" xlink:title="Reset the settings. ">
<polygon fill="white" stroke="black" points="414.5,-380.5 414.5,-399.5 518.5,-399.5 518.5,-380.5 414.5,-380.5"/>
<text text-anchor="middle" x="466.5" y="-387.5" font-family="Helvetica,sans-Serif" font-size="10.00">radio_settings_reset</text>
</a>
</g>
</g>
<!-- Node3&#45;&gt;Node6 -->
<g id="edge5" class="edge"><title>Node3&#45;&gt;Node6</title>
<path fill="none" stroke="midnightblue" d="M363.713,-390C380.29,-390 398.191,-390 414.289,-390"/>
<polygon fill="midnightblue" stroke="midnightblue" points="363.591,-386.5 353.591,-390 363.591,-393.5 363.591,-386.5"/>
</g>
<!-- Node5 -->
<g id="node5" class="node"><title>Node5</title>
<g id="a_node5"><a xlink:href="main_8c.html#a840291bc02cba5474a4cb46a9b9566fe" target="_top" xlink:title="Main function. ">
<polygon fill="white" stroke="black" points="565,-304.5 565,-323.5 603,-323.5 603,-304.5 565,-304.5"/>
<text text-anchor="middle" x="584" y="-311.5" font-family="Helvetica,sans-Serif" font-size="10.00">main</text>
</a>
</g>
</g>
<!-- Node4&#45;&gt;Node5 -->
<g id="edge4" class="edge"><title>Node4&#45;&gt;Node5</title>
<path fill="none" stroke="midnightblue" d="M504.671,-314C524.753,-314 548.654,-314 564.729,-314"/>
<polygon fill="midnightblue" stroke="midnightblue" points="504.58,-310.5 494.58,-314 504.58,-317.5 504.58,-310.5"/>
</g>
<!-- Node9&#45;&gt;Node4 -->
<g id="edge9" class="edge"><title>Node9&#45;&gt;Node4</title>
<path fill="none" stroke="midnightblue" d="M355.311,-287.912C382.683,-294.392 415.479,-302.157 438.137,-307.522"/>
<polygon fill="midnightblue" stroke="midnightblue" points="356.038,-284.487 345.501,-285.589 354.426,-291.299 356.038,-284.487"/>
</g>
<!-- Node15&#45;&gt;Node12 -->
<g id="edge16" class="edge"><title>Node15&#45;&gt;Node12</title>
<path fill="none" stroke="midnightblue" d="M364.895,-55.0904C377.581,-56.5922 390.994,-58.18 403.748,-59.6898"/>
<polygon fill="midnightblue" stroke="midnightblue" points="365.246,-51.6075 354.903,-53.9076 364.423,-58.559 365.246,-51.6075"/>
</g>
<!-- Node16 -->
<g id="node16" class="node"><title>Node16</title>
<g id="a_node16"><a xlink:href="radio__settings_8c.html#a90d48a01d9b0ad794fb9416a2ce8f85e" target="_top" xlink:title="Seeks the next station/all available. ">
<polygon fill="white" stroke="black" points="410.5,-19.5 410.5,-38.5 522.5,-38.5 522.5,-19.5 410.5,-19.5"/>
<text text-anchor="middle" x="466.5" y="-26.5" font-family="Helvetica,sans-Serif" font-size="10.00">radio_settings_station</text>
</a>
</g>
</g>
<!-- Node15&#45;&gt;Node16 -->
<g id="edge17" class="edge"><title>Node15&#45;&gt;Node16</title>
<path fill="none" stroke="midnightblue" d="M365.003,-40.8969C379.859,-39.1382 395.706,-37.2623 410.319,-35.5323"/>
<polygon fill="midnightblue" stroke="midnightblue" points="364.423,-37.441 354.903,-42.0924 365.246,-44.3925 364.423,-37.441"/>
</g>
<!-- Node17&#45;&gt;Node15 -->
<g id="edge21" class="edge"><title>Node17&#45;&gt;Node15</title>
<path fill="none" stroke="midnightblue" d="M211.971,-48C225.632,-48 240.038,-48 253.258,-48"/>
<polygon fill="midnightblue" stroke="midnightblue" points="211.701,-44.5001 201.701,-48 211.701,-51.5001 211.701,-44.5001"/>
</g>
<!-- Node18 -->
<g id="node18" class="node"><title>Node18</title>
<g id="a_node18"><a xlink:href="radio_8c.html#ac96da2886aec92b299b27b500761564c" target="_top" xlink:title="Auto Search for radio stations. ">
<polygon fill="white" stroke="black" points="256,-0.5 256,-19.5 352,-19.5 352,-0.5 256,-0.5"/>
<text text-anchor="middle" x="304" y="-7.5" font-family="Helvetica,sans-Serif" font-size="10.00">radio_auto_search</text>
</a>
</g>
</g>
<!-- Node17&#45;&gt;Node18 -->
<g id="edge19" class="edge"><title>Node17&#45;&gt;Node18</title>
<path fill="none" stroke="midnightblue" d="M200.811,-35.8879C221.702,-30.5956 245.847,-24.4787 265.421,-19.5201"/>
<polygon fill="midnightblue" stroke="midnightblue" points="199.686,-32.5623 190.851,-38.411 201.405,-39.348 199.686,-32.5623"/>
</g>
<!-- Node18&#45;&gt;Node16 -->
<g id="edge20" class="edge"><title>Node18&#45;&gt;Node16</title>
<path fill="none" stroke="midnightblue" d="M362.345,-16.7885C377.969,-18.638 394.857,-20.6373 410.356,-22.4721"/>
<polygon fill="midnightblue" stroke="midnightblue" points="362.629,-13.2978 352.287,-15.5979 361.806,-20.2493 362.629,-13.2978"/>
</g>
</g>
</svg>
