<?xml version="1.0" encoding="UTF-8" standalone="no"?>
<!DOCTYPE svg PUBLIC "-//W3C//DTD SVG 1.1//EN"
 "http://www.w3.org/Graphics/SVG/1.1/DTD/svg11.dtd">
<!-- Generated by graphviz version 2.38.0 (20140413.2041)
 -->
<!-- Title: D:/GIT/fhradiov2/driver/src/flash.c Pages: 1 -->
<svg width="165pt" height="207pt"
 viewBox="0.00 0.00 164.50 207.00" xmlns="http://www.w3.org/2000/svg" xmlns:xlink="http://www.w3.org/1999/xlink">
<g id="graph0" class="graph" transform="scale(1 1) rotate(0) translate(4 203)">
<title>D:/GIT/fhradiov2/driver/src/flash.c</title>
<polygon fill="white" stroke="none" points="-4,4 -4,-203 160.5,-203 160.5,4 -4,4"/>
<!-- Node1 -->
<g id="node1" class="node"><title>Node1</title>
<polygon fill="#bfbfbf" stroke="black" points="0,-168.5 0,-198.5 110,-198.5 110,-168.5 0,-168.5"/>
<text text-anchor="start" x="8" y="-186.5" font-family="Helvetica,sans-Serif" font-size="10.00">D:/GIT/fhradiov2/driver</text>
<text text-anchor="middle" x="55" y="-175.5" font-family="Helvetica,sans-Serif" font-size="10.00">/src/flash.c</text>
</g>
<!-- Node2 -->
<g id="node2" class="node"><title>Node2</title>
<g id="a_node2"><a xlink:href="flash_8h.html" target="_top" xlink:title="driver/flash.h">
<polygon fill="white" stroke="black" points="19.5,-112.5 19.5,-131.5 90.5,-131.5 90.5,-112.5 19.5,-112.5"/>
<text text-anchor="middle" x="55" y="-119.5" font-family="Helvetica,sans-Serif" font-size="10.00">driver/flash.h</text>
</a>
</g>
</g>
<!-- Node1&#45;&gt;Node2 -->
<g id="edge1" class="edge"><title>Node1&#45;&gt;Node2</title>
<path fill="none" stroke="midnightblue" d="M55,-168.399C55,-160.466 55,-150.458 55,-141.858"/>
<polygon fill="midnightblue" stroke="midnightblue" points="58.5001,-141.658 55,-131.658 51.5001,-141.658 58.5001,-141.658"/>
</g>
<!-- Node3 -->
<g id="node3" class="node"><title>Node3</title>
<polygon fill="white" stroke="#bfbfbf" points="3.5,-0.5 3.5,-19.5 52.5,-19.5 52.5,-0.5 3.5,-0.5"/>
<text text-anchor="middle" x="28" y="-7.5" font-family="Helvetica,sans-Serif" font-size="10.00">stdint.h</text>
</g>
<!-- Node2&#45;&gt;Node3 -->
<g id="edge2" class="edge"><title>Node2&#45;&gt;Node3</title>
<path fill="none" stroke="midnightblue" d="M45.7121,-112.395C37.4193,-104.025 25.8561,-90.4826 21,-76 15.9259,-60.8671 18.5386,-42.7461 21.9242,-29.4861"/>
<polygon fill="midnightblue" stroke="midnightblue" points="25.3492,-30.2438 24.7982,-19.6633 18.6309,-28.2781 25.3492,-30.2438"/>
</g>
<!-- Node4 -->
<g id="node4" class="node"><title>Node4</title>
<g id="a_node4"><a xlink:href="string_8h.html" target="_top" xlink:title="string.h">
<polygon fill="white" stroke="black" points="30.5,-56.5 30.5,-75.5 79.5,-75.5 79.5,-56.5 30.5,-56.5"/>
<text text-anchor="middle" x="55" y="-63.5" font-family="Helvetica,sans-Serif" font-size="10.00">string.h</text>
</a>
</g>
</g>
<!-- Node2&#45;&gt;Node4 -->
<g id="edge3" class="edge"><title>Node2&#45;&gt;Node4</title>
<path fill="none" stroke="midnightblue" d="M55,-112.083C55,-105.006 55,-94.8611 55,-85.9865"/>
<polygon fill="midnightblue" stroke="midnightblue" points="58.5001,-85.751 55,-75.7511 51.5001,-85.7511 58.5001,-85.751"/>
</g>
<!-- Node5 -->
<g id="node5" class="node"><title>Node5</title>
<polygon fill="white" stroke="#bfbfbf" points="97.5,-56.5 97.5,-75.5 156.5,-75.5 156.5,-56.5 97.5,-56.5"/>
<text text-anchor="middle" x="127" y="-63.5" font-family="Helvetica,sans-Serif" font-size="10.00">msp430.h</text>
</g>
<!-- Node2&#45;&gt;Node5 -->
<g id="edge5" class="edge"><title>Node2&#45;&gt;Node5</title>
<path fill="none" stroke="midnightblue" d="M66.568,-112.324C77.4202,-104.185 93.8807,-91.8395 106.883,-82.0874"/>
<polygon fill="midnightblue" stroke="midnightblue" points="109.321,-84.6339 115.221,-75.8339 105.121,-79.0339 109.321,-84.6339"/>
</g>
<!-- Node4&#45;&gt;Node3 -->
<g id="edge4" class="edge"><title>Node4&#45;&gt;Node3</title>
<path fill="none" stroke="midnightblue" d="M50.5415,-56.083C46.8457,-48.6913 41.4766,-37.9533 36.9055,-28.8111"/>
<polygon fill="midnightblue" stroke="midnightblue" points="39.9782,-27.1301 32.3755,-19.7511 33.7172,-30.2606 39.9782,-27.1301"/>
</g>
</g>
</svg>
