<?xml version="1.0" encoding="UTF-8" standalone="no"?>
<!DOCTYPE svg PUBLIC "-//W3C//DTD SVG 1.1//EN"
 "http://www.w3.org/Graphics/SVG/1.1/DTD/svg11.dtd">
<!-- Generated by graphviz version 2.38.0 (20140413.2041)
 -->
<!-- Title: handler Pages: 1 -->
<!--zoomable 256 -->
<svg id="main" version="1.1" xmlns="http://www.w3.org/2000/svg" xmlns:xlink="http://www.w3.org/1999/xlink" xml:space="preserve" onload="init(evt)">
<style type="text/css"><![CDATA[
.edge:hover path { stroke: red; }
.edge:hover polygon { stroke: red; fill: red; }
]]></style>
<script type="text/javascript"><![CDATA[
var edges = document.getElementsByTagName('g');
if (edges && edges.length) {
  for (var i=0;i<edges.length;i++) {
    if (edges[i].id.substr(0,4)=='edge') {
      edges[i].setAttribute('class','edge');
    }
  }
}
]]></script>
        <defs>
                <circle id="rim" cx="0" cy="0" r="7"/>
                <circle id="rim2" cx="0" cy="0" r="3.5"/>
                <g id="zoomPlus">
                        <use xlink:href="#rim" fill="#404040">
                                <set attributeName="fill" to="#808080" begin="zoomplus.mouseover" end="zoomplus.mouseout"/>
                        </use>
                        <path d="M-4,0h8M0,-4v8" fill="none" stroke="white" stroke-width="1.5" pointer-events="none"/>
                </g>
                <g id="zoomMin">
                        <use xlink:href="#rim" fill="#404040">
                                <set attributeName="fill" to="#808080" begin="zoomminus.mouseover" end="zoomminus.mouseout"/>
                        </use>
                        <path d="M-4,0h8" fill="none" stroke="white" stroke-width="1.5" pointer-events="none"/>
                </g>
                <g id="dirArrow">
                        <path fill="none" stroke="white" stroke-width="1.5" d="M0,-3.0v7 M-2.5,-0.5L0,-3.0L2.5,-0.5"/>
                </g>
               <g id="resetDef">
                       <use xlink:href="#rim2" fill="#404040">
                               <set attributeName="fill" to="#808080" begin="reset.mouseover" end="reset.mouseout"/>
                       </use>
               </g>
        </defs>

<script type="text/javascript">
var viewWidth = 1031;
var viewHeight = 256;
var sectionId = 'dynsection-2';
</script>
<script xlink:href="svgpan.js"/>
<svg id="graph" class="graph">
<g id="viewport">
<title>handler</title>
<polygon fill="white" stroke="none" points="-4,4 -4,-252 1027,-252 1027,4 -4,4"/>
<!-- Node1 -->
<g id="node1" class="node"><title>Node1</title>
<polygon fill="#bfbfbf" stroke="black" points="0,-114.5 0,-133.5 48,-133.5 48,-114.5 0,-114.5"/>
<text text-anchor="middle" x="24" y="-121.5" font-family="Helvetica,sans-Serif" font-size="10.00">handler</text>
</g>
<!-- Node2 -->
<g id="node2" class="node"><title>Node2</title>
<g id="a_node2"><a xlink:href="encoder_8h.html#a047b769ea639f5e1d064fcec8b784b15" target="_top" xlink:title="encoder_1_update">
<polygon fill="white" stroke="black" points="84.5,-228.5 84.5,-247.5 180.5,-247.5 180.5,-228.5 84.5,-228.5"/>
<text text-anchor="middle" x="132.5" y="-235.5" font-family="Helvetica,sans-Serif" font-size="10.00">encoder_1_update</text>
</a>
</g>
</g>
<!-- Node1&#45;&gt;Node2 -->
<g id="edge1" class="edge"><title>Node1&#45;&gt;Node2</title>
<path fill="none" stroke="midnightblue" d="M28.627,-133.759C36.1376,-152.721 55.1382,-194.8 84,-219 85.9652,-220.648 88.0914,-222.166 90.3172,-223.562"/>
<polygon fill="midnightblue" stroke="midnightblue" points="88.7998,-226.719 99.2666,-228.362 92.1083,-220.551 88.7998,-226.719"/>
</g>
<!-- Node3 -->
<g id="node3" class="node"><title>Node3</title>
<g id="a_node3"><a xlink:href="encoder_8h.html#a3b8fdf5cc845c8e3ae93d7354f7f0065" target="_top" xlink:title="encoder_2_update">
<polygon fill="white" stroke="black" points="84.5,-190.5 84.5,-209.5 180.5,-209.5 180.5,-190.5 84.5,-190.5"/>
<text text-anchor="middle" x="132.5" y="-197.5" font-family="Helvetica,sans-Serif" font-size="10.00">encoder_2_update</text>
</a>
</g>
</g>
<!-- Node1&#45;&gt;Node3 -->
<g id="edge2" class="edge"><title>Node1&#45;&gt;Node3</title>
<path fill="none" stroke="midnightblue" d="M32.8782,-133.654C43.4148,-146.042 63.1942,-167.537 84,-181 86.9221,-182.891 90.0626,-184.648 93.2863,-186.268"/>
<polygon fill="midnightblue" stroke="midnightblue" points="91.9286,-189.496 102.479,-190.468 94.8378,-183.129 91.9286,-189.496"/>
</g>
<!-- Node4 -->
<g id="node4" class="node"><title>Node4</title>
<g id="a_node4"><a xlink:href="menu_8h.html#aaf2a075d3159f7eeab42012941a3437f" target="_top" xlink:title="Definition of functions for &#45;the menu handler &#45;scrolling through the menu &#45;main program of the menu &#45;...">
<polygon fill="white" stroke="black" points="94,-152.5 94,-171.5 171,-171.5 171,-152.5 94,-152.5"/>
<text text-anchor="middle" x="132.5" y="-159.5" font-family="Helvetica,sans-Serif" font-size="10.00">menu_handler</text>
</a>
</g>
</g>
<!-- Node1&#45;&gt;Node4 -->
<g id="edge3" class="edge"><title>Node1&#45;&gt;Node4</title>
<path fill="none" stroke="midnightblue" d="M48.1089,-132.245C61.759,-137.116 79.349,-143.392 94.8527,-148.924"/>
<polygon fill="midnightblue" stroke="midnightblue" points="94.0825,-152.365 104.677,-152.429 96.4349,-145.772 94.0825,-152.365"/>
</g>
<!-- Node14 -->
<g id="node14" class="node"><title>Node14</title>
<g id="a_node14"><a xlink:href="encoder_8h.html#a136248fd00f8429933544a54b030aef9" target="_top" xlink:title="encoder_interrupt2">
<polygon fill="white" stroke="black" points="84,-114.5 84,-133.5 181,-133.5 181,-114.5 84,-114.5"/>
<text text-anchor="middle" x="132.5" y="-121.5" font-family="Helvetica,sans-Serif" font-size="10.00">encoder_interrupt2</text>
</a>
</g>
</g>
<!-- Node1&#45;&gt;Node14 -->
<g id="edge15" class="edge"><title>Node1&#45;&gt;Node14</title>
<path fill="none" stroke="midnightblue" d="M48.1089,-124C55.7541,-124 64.6352,-124 73.6935,-124"/>
<polygon fill="midnightblue" stroke="midnightblue" points="73.9395,-127.5 83.9394,-124 73.9394,-120.5 73.9395,-127.5"/>
</g>
<!-- Node15 -->
<g id="node15" class="node"><title>Node15</title>
<g id="a_node15"><a xlink:href="time_8c.html#acbfa3c65c807be82221cbebc7ac63224" target="_top" xlink:title="Update the current time. ">
<polygon fill="white" stroke="black" points="97.5,-76.5 97.5,-95.5 167.5,-95.5 167.5,-76.5 97.5,-76.5"/>
<text text-anchor="middle" x="132.5" y="-83.5" font-family="Helvetica,sans-Serif" font-size="10.00">time_update</text>
</a>
</g>
</g>
<!-- Node1&#45;&gt;Node15 -->
<g id="edge16" class="edge"><title>Node1&#45;&gt;Node15</title>
<path fill="none" stroke="midnightblue" d="M48.1089,-115.755C61.759,-110.884 79.349,-104.608 94.8527,-99.076"/>
<polygon fill="midnightblue" stroke="midnightblue" points="96.4349,-102.228 104.677,-95.5706 94.0825,-95.6348 96.4349,-102.228"/>
</g>
<!-- Node16 -->
<g id="node16" class="node"><title>Node16</title>
<g id="a_node16"><a xlink:href="rsq_8h.html#adc26e0d94e8ebd7ba62fa4f628a15f6d" target="_top" xlink:title="In here the function to update Radio Signal Quality. ">
<polygon fill="white" stroke="black" points="100,-38.5 100,-57.5 165,-57.5 165,-38.5 100,-38.5"/>
<text text-anchor="middle" x="132.5" y="-45.5" font-family="Helvetica,sans-Serif" font-size="10.00">rsq_update</text>
</a>
</g>
</g>
<!-- Node1&#45;&gt;Node16 -->
<g id="edge17" class="edge"><title>Node1&#45;&gt;Node16</title>
<path fill="none" stroke="midnightblue" d="M32.8782,-114.346C43.4148,-101.958 63.1942,-80.4634 84,-67 86.9221,-65.1091 90.0626,-63.3519 93.2863,-61.7318"/>
<polygon fill="midnightblue" stroke="midnightblue" points="94.8378,-64.871 102.479,-57.5316 91.9286,-58.5041 94.8378,-64.871"/>
</g>
<!-- Node19 -->
<g id="node19" class="node"><title>Node19</title>
<g id="a_node19"><a xlink:href="radio_8c.html#a1c031719ba892045c773dc035058870f" target="_top" xlink:title="Updates the current RDS data . ">
<polygon fill="white" stroke="black" points="100,-0.5 100,-19.5 165,-19.5 165,-0.5 100,-0.5"/>
<text text-anchor="middle" x="132.5" y="-7.5" font-family="Helvetica,sans-Serif" font-size="10.00">rds_update</text>
</a>
</g>
</g>
<!-- Node1&#45;&gt;Node19 -->
<g id="edge21" class="edge"><title>Node1&#45;&gt;Node19</title>
<path fill="none" stroke="midnightblue" d="M28.627,-114.241C36.1376,-95.2786 55.1382,-53.2003 84,-29 86.0248,-27.3023 88.2204,-25.7425 90.5199,-24.3116"/>
<polygon fill="midnightblue" stroke="midnightblue" points="92.5659,-27.1884 99.7616,-19.4121 89.287,-21.0038 92.5659,-27.1884"/>
</g>
<!-- Node5 -->
<g id="node5" class="node"><title>Node5</title>
<g id="a_node5"><a xlink:href="menu_8c.html#a5ca9d2cf65ffedfb30889ee21a6f7f3d" target="_top" xlink:title="Display the current menu. ">
<polygon fill="white" stroke="black" points="234.5,-152.5 234.5,-171.5 311.5,-171.5 311.5,-152.5 234.5,-152.5"/>
<text text-anchor="middle" x="273" y="-159.5" font-family="Helvetica,sans-Serif" font-size="10.00">menu_display</text>
</a>
</g>
</g>
<!-- Node4&#45;&gt;Node5 -->
<g id="edge4" class="edge"><title>Node4&#45;&gt;Node5</title>
<path fill="none" stroke="midnightblue" d="M171.346,-162C187.529,-162 206.616,-162 223.794,-162"/>
<polygon fill="midnightblue" stroke="midnightblue" points="224.2,-165.5 234.2,-162 224.2,-158.5 224.2,-165.5"/>
</g>
<!-- Node6 -->
<g id="node6" class="node"><title>Node6</title>
<g id="a_node6"><a xlink:href="lcd_8h.html#acd63fb85d212730fa4fcbcbeeccd231e" target="_top" xlink:title="lcd_create_view">
<polygon fill="white" stroke="black" points="365,-152.5 365,-171.5 450,-171.5 450,-152.5 365,-152.5"/>
<text text-anchor="middle" x="407.5" y="-159.5" font-family="Helvetica,sans-Serif" font-size="10.00">lcd_create_view</text>
</a>
</g>
</g>
<!-- Node5&#45;&gt;Node6 -->
<g id="edge5" class="edge"><title>Node5&#45;&gt;Node6</title>
<path fill="none" stroke="midnightblue" d="M311.615,-162C324.913,-162 340.117,-162 354.401,-162"/>
<polygon fill="midnightblue" stroke="midnightblue" points="354.599,-165.5 364.599,-162 354.599,-158.5 354.599,-165.5"/>
</g>
<!-- Node7 -->
<g id="node7" class="node"><title>Node7</title>
<g id="a_node7"><a xlink:href="lcd_8c.html#a2a4df97ebc5b396233aa31765228ef42" target="_top" xlink:title="lcd_set_courser">
<polygon fill="white" stroke="black" points="486,-152.5 486,-171.5 572,-171.5 572,-152.5 486,-152.5"/>
<text text-anchor="middle" x="529" y="-159.5" font-family="Helvetica,sans-Serif" font-size="10.00">lcd_set_courser</text>
</a>
</g>
</g>
<!-- Node6&#45;&gt;Node7 -->
<g id="edge6" class="edge"><title>Node6&#45;&gt;Node7</title>
<path fill="none" stroke="midnightblue" d="M450.295,-162C458.43,-162 467.054,-162 475.483,-162"/>
<polygon fill="midnightblue" stroke="midnightblue" points="475.622,-165.5 485.622,-162 475.622,-158.5 475.622,-165.5"/>
</g>
<!-- Node13 -->
<g id="node13" class="node"><title>Node13</title>
<g id="a_node13"><a xlink:href="lcd_8c.html#aa6e1aa2ef9b677e16d8198df683429ec" target="_top" xlink:title="lcd_write_string">
<polygon fill="white" stroke="black" points="608,-114.5 608,-133.5 692,-133.5 692,-114.5 608,-114.5"/>
<text text-anchor="middle" x="650" y="-121.5" font-family="Helvetica,sans-Serif" font-size="10.00">lcd_write_string</text>
</a>
</g>
</g>
<!-- Node6&#45;&gt;Node13 -->
<g id="edge13" class="edge"><title>Node6&#45;&gt;Node13</title>
<path fill="none" stroke="midnightblue" d="M443.41,-152.463C456.669,-149.1 471.957,-145.53 486,-143 523.192,-136.3 565.603,-131.442 597.84,-128.316"/>
<polygon fill="midnightblue" stroke="midnightblue" points="598.304,-131.788 607.93,-127.362 597.645,-124.819 598.304,-131.788"/>
</g>
<!-- Node8 -->
<g id="node8" class="node"><title>Node8</title>
<g id="a_node8"><a xlink:href="lcd_8c.html#a250728451a22259562d3f01a12bbd77b" target="_top" xlink:title="lcd_command">
<polygon fill="white" stroke="black" points="611.5,-152.5 611.5,-171.5 688.5,-171.5 688.5,-152.5 611.5,-152.5"/>
<text text-anchor="middle" x="650" y="-159.5" font-family="Helvetica,sans-Serif" font-size="10.00">lcd_command</text>
</a>
</g>
</g>
<!-- Node7&#45;&gt;Node8 -->
<g id="edge7" class="edge"><title>Node7&#45;&gt;Node8</title>
<path fill="none" stroke="midnightblue" d="M572.29,-162C581.611,-162 591.549,-162 601.075,-162"/>
<polygon fill="midnightblue" stroke="midnightblue" points="601.202,-165.5 611.202,-162 601.202,-158.5 601.202,-165.5"/>
</g>
<!-- Node9 -->
<g id="node9" class="node"><title>Node9</title>
<g id="a_node9"><a xlink:href="i2c_8h.html#a6691e5911f539e1e8178c6e983e8079a" target="_top" xlink:title="Transmits I2C commands with a variable length to a I2C slave. ">
<polygon fill="white" stroke="black" points="728,-114.5 728,-133.5 800,-133.5 800,-114.5 728,-114.5"/>
<text text-anchor="middle" x="764" y="-121.5" font-family="Helvetica,sans-Serif" font-size="10.00">i2c_write_var</text>
</a>
</g>
</g>
<!-- Node8&#45;&gt;Node9 -->
<g id="edge8" class="edge"><title>Node8&#45;&gt;Node9</title>
<path fill="none" stroke="midnightblue" d="M679.262,-152.411C693.19,-147.686 710.18,-141.921 725.207,-136.823"/>
<polygon fill="midnightblue" stroke="midnightblue" points="726.401,-140.113 734.747,-133.586 724.152,-133.485 726.401,-140.113"/>
</g>
<!-- Node12 -->
<g id="node12" class="node"><title>Node12</title>
<g id="a_node12"><a xlink:href="timer_8c.html#a276d5cb665b9f8b2c79e53e2f2c5b4f0" target="_top" xlink:title="_delay_ms">
<polygon fill="white" stroke="black" points="839.5,-152.5 839.5,-171.5 903.5,-171.5 903.5,-152.5 839.5,-152.5"/>
<text text-anchor="middle" x="871.5" y="-159.5" font-family="Helvetica,sans-Serif" font-size="10.00">_delay_ms</text>
</a>
</g>
</g>
<!-- Node8&#45;&gt;Node12 -->
<g id="edge11" class="edge"><title>Node8&#45;&gt;Node12</title>
<path fill="none" stroke="midnightblue" d="M688.733,-162C727.861,-162 788.853,-162 829.237,-162"/>
<polygon fill="midnightblue" stroke="midnightblue" points="829.287,-165.5 839.287,-162 829.287,-158.5 829.287,-165.5"/>
</g>
<!-- Node10 -->
<g id="node10" class="node"><title>Node10</title>
<g id="a_node10"><a xlink:href="i2c_8c.html#ae0625b97d3437bcaca4ac4b96dd01978" target="_top" xlink:title="Transmits I2C command array to a I2C slave. ">
<polygon fill="white" stroke="black" points="836,-114.5 836,-133.5 907,-133.5 907,-114.5 836,-114.5"/>
<text text-anchor="middle" x="871.5" y="-121.5" font-family="Helvetica,sans-Serif" font-size="10.00">i2c_write_arr</text>
</a>
</g>
</g>
<!-- Node9&#45;&gt;Node10 -->
<g id="edge9" class="edge"><title>Node9&#45;&gt;Node10</title>
<path fill="none" stroke="midnightblue" d="M800.13,-124C808.312,-124 817.133,-124 825.671,-124"/>
<polygon fill="midnightblue" stroke="midnightblue" points="825.882,-127.5 835.882,-124 825.882,-120.5 825.882,-127.5"/>
</g>
<!-- Node11 -->
<g id="node11" class="node"><title>Node11</title>
<g id="a_node11"><a xlink:href="timer_8c.html#a3c56af3315c2461dec5ced585a5f84db" target="_top" xlink:title="_delay_ten_us">
<polygon fill="white" stroke="black" points="943,-133.5 943,-152.5 1023,-152.5 1023,-133.5 943,-133.5"/>
<text text-anchor="middle" x="983" y="-140.5" font-family="Helvetica,sans-Serif" font-size="10.00">_delay_ten_us</text>
</a>
</g>
</g>
<!-- Node10&#45;&gt;Node11 -->
<g id="edge10" class="edge"><title>Node10&#45;&gt;Node11</title>
<path fill="none" stroke="midnightblue" d="M907.146,-130.012C915.253,-131.418 924.042,-132.943 932.651,-134.437"/>
<polygon fill="midnightblue" stroke="midnightblue" points="932.172,-137.906 942.623,-136.167 933.368,-131.009 932.172,-137.906"/>
</g>
<!-- Node12&#45;&gt;Node11 -->
<g id="edge12" class="edge"><title>Node12&#45;&gt;Node11</title>
<path fill="none" stroke="midnightblue" d="M903.585,-156.606C912.595,-155.043 922.664,-153.296 932.505,-151.588"/>
<polygon fill="midnightblue" stroke="midnightblue" points="933.368,-154.991 942.623,-149.833 932.172,-148.094 933.368,-154.991"/>
</g>
<!-- Node13&#45;&gt;Node9 -->
<g id="edge14" class="edge"><title>Node13&#45;&gt;Node9</title>
<path fill="none" stroke="midnightblue" d="M692.069,-124C700.413,-124 709.234,-124 717.715,-124"/>
<polygon fill="midnightblue" stroke="midnightblue" points="717.836,-127.5 727.836,-124 717.836,-120.5 717.836,-127.5"/>
</g>
<!-- Node17 -->
<g id="node17" class="node"><title>Node17</title>
<g id="a_node17"><a xlink:href="si4735_8h.html#a01d768567b59b2f9c8900a233fdd4d41" target="_top" xlink:title="si4735_fm_rsq_status">
<polygon fill="white" stroke="black" points="217,-38.5 217,-57.5 329,-57.5 329,-38.5 217,-38.5"/>
<text text-anchor="middle" x="273" y="-45.5" font-family="Helvetica,sans-Serif" font-size="10.00">si4735_fm_rsq_status</text>
</a>
</g>
</g>
<!-- Node16&#45;&gt;Node17 -->
<g id="edge18" class="edge"><title>Node16&#45;&gt;Node17</title>
<path fill="none" stroke="midnightblue" d="M165.275,-48C177.549,-48 192.072,-48 206.386,-48"/>
<polygon fill="midnightblue" stroke="midnightblue" points="206.738,-51.5001 216.738,-48 206.738,-44.5001 206.738,-51.5001"/>
</g>
<!-- Node17&#45;&gt;Node9 -->
<g id="edge19" class="edge"><title>Node17&#45;&gt;Node9</title>
<path fill="none" stroke="midnightblue" d="M315.987,-57.5917C331.351,-60.8829 348.909,-64.3907 365,-67 509.425,-90.4201 548.283,-77.5713 692,-105 701.675,-106.846 711.97,-109.307 721.632,-111.843"/>
<polygon fill="midnightblue" stroke="midnightblue" points="720.852,-115.258 731.419,-114.491 722.68,-108.5 720.852,-115.258"/>
</g>
<!-- Node18 -->
<g id="node18" class="node"><title>Node18</title>
<g id="a_node18"><a xlink:href="i2c_8h.html#a6dd896b0c82d1aa91a1a8155b41c4566" target="_top" xlink:title="Receives I2C commands until a NACK is received or received RxBytes. ">
<polygon fill="white" stroke="black" points="381,-38.5 381,-57.5 434,-57.5 434,-38.5 381,-38.5"/>
<text text-anchor="middle" x="407.5" y="-45.5" font-family="Helvetica,sans-Serif" font-size="10.00">i2c_read</text>
</a>
</g>
</g>
<!-- Node17&#45;&gt;Node18 -->
<g id="edge20" class="edge"><title>Node17&#45;&gt;Node18</title>
<path fill="none" stroke="midnightblue" d="M329.041,-48C343.039,-48 357.725,-48 370.5,-48"/>
<polygon fill="midnightblue" stroke="midnightblue" points="370.724,-51.5001 380.724,-48 370.724,-44.5001 370.724,-51.5001"/>
</g>
</g>
</svg>
        <g id="navigator" transform="translate(0 0)" fill="#404254">
                <rect fill="#f2f5e9" fill-opacity="0.5" stroke="#606060" stroke-width=".5" x="0" y="0" width="60" height="60"/>
                <use id="zoomplus" xlink:href="#zoomPlus" x="17" y="9" onmousedown="handleZoom(evt,'in')"/>
                <use id="zoomminus" xlink:href="#zoomMin" x="42" y="9" onmousedown="handleZoom(evt,'out')"/>
                <use id="reset" xlink:href="#resetDef" x="30" y="36" onmousedown="handleReset()"/>
                <g id="arrowUp" xlink:href="#dirArrow" transform="translate(30 24)" onmousedown="handlePan(0,-1)">
                  <use xlink:href="#rim" fill="#404040">
                        <set attributeName="fill" to="#808080" begin="arrowUp.mouseover" end="arrowUp.mouseout"/>
                  </use>
                  <path fill="none" stroke="white" stroke-width="1.5" d="M0,-3.0v7 M-2.5,-0.5L0,-3.0L2.5,-0.5"/>
                </g>
                <g id="arrowRight" xlink:href="#dirArrow" transform="rotate(90) translate(36 -43)" onmousedown="handlePan(1,0)">
                  <use xlink:href="#rim" fill="#404040">
                        <set attributeName="fill" to="#808080" begin="arrowRight.mouseover" end="arrowRight.mouseout"/>
                  </use>
                  <path fill="none" stroke="white" stroke-width="1.5" d="M0,-3.0v7 M-2.5,-0.5L0,-3.0L2.5,-0.5"/>
                </g>
                <g id="arrowDown" xlink:href="#dirArrow" transform="rotate(180) translate(-30 -48)" onmousedown="handlePan(0,1)">
                  <use xlink:href="#rim" fill="#404040">
                        <set attributeName="fill" to="#808080" begin="arrowDown.mouseover" end="arrowDown.mouseout"/>
                  </use>
                  <path fill="none" stroke="white" stroke-width="1.5" d="M0,-3.0v7 M-2.5,-0.5L0,-3.0L2.5,-0.5"/>
                </g>
                <g id="arrowLeft" xlink:href="#dirArrow" transform="rotate(270) translate(-36 17)" onmousedown="handlePan(-1,0)">
                  <use xlink:href="#rim" fill="#404040">
                        <set attributeName="fill" to="#808080" begin="arrowLeft.mouseover" end="arrowLeft.mouseout"/>
                  </use>
                  <path fill="none" stroke="white" stroke-width="1.5" d="M0,-3.0v7 M-2.5,-0.5L0,-3.0L2.5,-0.5"/>
                </g>
        </g>
        <svg viewBox="0 0 15 15" width="100%" height="30px" preserveAspectRatio="xMaxYMin meet">
         <g id="arrow_out" transform="scale(0.3 0.3)">
          <a xlink:href="handler_8h_a4f639cde11f5cab70d795fd2f75c9d22_cgraph_org.svg" target="_base">
           <rect id="button" ry="5" rx="5" y="6" x="6" height="38" width="38"
                fill="#f2f5e9" fill-opacity="0.5" stroke="#606060" stroke-width="1.0"/>
           <path id="arrow"
             d="M 11.500037,31.436501 C 11.940474,20.09759 22.043105,11.32322 32.158766,21.979434 L 37.068811,17.246167 C 37.068811,17.246167 37.088388,32 37.088388,32 L 22.160133,31.978069 C 22.160133,31.978069 26.997745,27.140456 26.997745,27.140456 C 18.528582,18.264221 13.291696,25.230495 11.500037,31.436501 z"
             style="fill:#404040;"/>
          </a>
         </g>
        </svg>
</svg>
