<?xml version="1.0" encoding="UTF-8" standalone="no"?>
<!DOCTYPE svg PUBLIC "-//W3C//DTD SVG 1.1//EN"
 "http://www.w3.org/Graphics/SVG/1.1/DTD/svg11.dtd">
<!-- Generated by graphviz version 2.38.0 (20140413.2041)
 -->
<!-- Title: i2c_read Pages: 1 -->
<svg width="660pt" height="446pt"
 viewBox="0.00 0.00 660.00 446.00" xmlns="http://www.w3.org/2000/svg" xmlns:xlink="http://www.w3.org/1999/xlink">
<g id="graph0" class="graph" transform="scale(1 1) rotate(0) translate(4 442)">
<title>i2c_read</title>
<polygon fill="white" stroke="none" points="-4,4 -4,-442 656,-442 656,4 -4,4"/>
<!-- Node1 -->
<g id="node1" class="node"><title>Node1</title>
<polygon fill="#bfbfbf" stroke="black" points="0,-209.5 0,-228.5 53,-228.5 53,-209.5 0,-209.5"/>
<text text-anchor="middle" x="26.5" y="-216.5" font-family="Helvetica,sans-Serif" font-size="10.00">i2c_read</text>
</g>
<!-- Node2 -->
<g id="node2" class="node"><title>Node2</title>
<g id="a_node2"><a xlink:href="opt3001_8c.html#a4910f99caac4b6293a33627107cb7e82" target="_top" xlink:title="opt3001_get_value">
<polygon fill="white" stroke="black" points="99,-418.5 99,-437.5 196,-437.5 196,-418.5 99,-418.5"/>
<text text-anchor="middle" x="147.5" y="-425.5" font-family="Helvetica,sans-Serif" font-size="10.00">opt3001_get_value</text>
</a>
</g>
</g>
<!-- Node1&#45;&gt;Node2 -->
<g id="edge1" class="edge"><title>Node1&#45;&gt;Node2</title>
<path fill="none" stroke="midnightblue" d="M28.2688,-239.215C30.8241,-277.622 41.8207,-361.532 89,-409 92.854,-412.878 97.5147,-415.964 102.495,-418.42"/>
<polygon fill="midnightblue" stroke="midnightblue" points="31.7436,-238.647 27.7161,-228.848 24.7535,-239.02 31.7436,-238.647"/>
</g>
<!-- Node4 -->
<g id="node4" class="node"><title>Node4</title>
<g id="a_node4"><a xlink:href="pca9530_8c.html#a0504ea065814c638843035fe0559b24c" target="_top" xlink:title="pca9530_read_input">
<polygon fill="white" stroke="black" points="95.5,-380.5 95.5,-399.5 199.5,-399.5 199.5,-380.5 95.5,-380.5"/>
<text text-anchor="middle" x="147.5" y="-387.5" font-family="Helvetica,sans-Serif" font-size="10.00">pca9530_read_input</text>
</a>
</g>
</g>
<!-- Node1&#45;&gt;Node4 -->
<g id="edge3" class="edge"><title>Node1&#45;&gt;Node4</title>
<path fill="none" stroke="midnightblue" d="M30.1069,-238.727C35.3915,-270.922 50.3438,-334.79 89,-371 93.1434,-374.881 98.0973,-377.97 103.335,-380.429"/>
<polygon fill="midnightblue" stroke="midnightblue" points="33.5568,-238.131 28.6178,-228.758 26.6336,-239.165 33.5568,-238.131"/>
</g>
<!-- Node5 -->
<g id="node5" class="node"><title>Node5</title>
<g id="a_node5"><a xlink:href="pca9534_8c.html#a20d4e8d9173eded61af0bbdf23086913" target="_top" xlink:title="pca9534_input">
<polygon fill="white" stroke="black" points="107.5,-342.5 107.5,-361.5 187.5,-361.5 187.5,-342.5 107.5,-342.5"/>
<text text-anchor="middle" x="147.5" y="-349.5" font-family="Helvetica,sans-Serif" font-size="10.00">pca9534_input</text>
</a>
</g>
</g>
<!-- Node1&#45;&gt;Node5 -->
<g id="edge4" class="edge"><title>Node1&#45;&gt;Node5</title>
<path fill="none" stroke="midnightblue" d="M33.0038,-238.385C41.1571,-263.685 58.8243,-307.707 89,-333 94.3179,-337.457 100.716,-340.879 107.283,-343.504"/>
<polygon fill="midnightblue" stroke="midnightblue" points="36.2573,-237.053 29.9995,-228.504 29.56,-239.09 36.2573,-237.053"/>
</g>
<!-- Node6 -->
<g id="node6" class="node"><title>Node6</title>
<g id="a_node6"><a xlink:href="si4735_8c.html#af19013498b2529c01dd96942c157647a" target="_top" xlink:title="si4735_fm_rds_status">
<polygon fill="white" stroke="black" points="91.5,-304.5 91.5,-323.5 203.5,-323.5 203.5,-304.5 91.5,-304.5"/>
<text text-anchor="middle" x="147.5" y="-311.5" font-family="Helvetica,sans-Serif" font-size="10.00">si4735_fm_rds_status</text>
</a>
</g>
</g>
<!-- Node1&#45;&gt;Node6 -->
<g id="edge5" class="edge"><title>Node1&#45;&gt;Node6</title>
<path fill="none" stroke="midnightblue" d="M37.9834,-237.253C48.7337,-254.446 66.9698,-279.773 89,-295 94.5351,-298.826 100.896,-301.926 107.325,-304.425"/>
<polygon fill="midnightblue" stroke="midnightblue" points="40.9621,-235.415 32.8045,-228.654 34.9656,-239.026 40.9621,-235.415"/>
</g>
<!-- Node7 -->
<g id="node7" class="node"><title>Node7</title>
<g id="a_node7"><a xlink:href="si4735_8c.html#a01d768567b59b2f9c8900a233fdd4d41" target="_top" xlink:title="si4735_fm_rsq_status">
<polygon fill="white" stroke="black" points="91.5,-266.5 91.5,-285.5 203.5,-285.5 203.5,-266.5 91.5,-266.5"/>
<text text-anchor="middle" x="147.5" y="-273.5" font-family="Helvetica,sans-Serif" font-size="10.00">si4735_fm_rsq_status</text>
</a>
</g>
</g>
<!-- Node1&#45;&gt;Node7 -->
<g id="edge6" class="edge"><title>Node1&#45;&gt;Node7</title>
<path fill="none" stroke="midnightblue" d="M53.2317,-233.526C64.14,-239.496 77.0667,-246.324 89,-252 99.7456,-257.111 111.873,-262.261 122.211,-266.472"/>
<polygon fill="midnightblue" stroke="midnightblue" points="54.6855,-230.331 44.241,-228.553 51.2969,-236.456 54.6855,-230.331"/>
</g>
<!-- Node11 -->
<g id="node11" class="node"><title>Node11</title>
<g id="a_node11"><a xlink:href="si4735_8c.html#ad8b515f4991303f8cac978410d736a03" target="_top" xlink:title="si4735_fm_tune_status">
<polygon fill="white" stroke="black" points="89,-152.5 89,-171.5 206,-171.5 206,-152.5 89,-152.5"/>
<text text-anchor="middle" x="147.5" y="-159.5" font-family="Helvetica,sans-Serif" font-size="10.00">si4735_fm_tune_status</text>
</a>
</g>
</g>
<!-- Node1&#45;&gt;Node11 -->
<g id="edge10" class="edge"><title>Node1&#45;&gt;Node11</title>
<path fill="none" stroke="midnightblue" d="M49.5896,-203.598C60.9986,-196.103 75.357,-187.361 89,-181 96.6229,-177.446 105.097,-174.257 113.145,-171.553"/>
<polygon fill="midnightblue" stroke="midnightblue" points="47.4916,-200.791 41.1423,-209.273 51.3949,-206.602 47.4916,-200.791"/>
</g>
<!-- Node16 -->
<g id="node16" class="node"><title>Node16</title>
<g id="a_node16"><a xlink:href="si4735_8c.html#af82ec28b536b1258ea4178108c61d5e9" target="_top" xlink:title="si4735_fm_tune_freq">
<polygon fill="white" stroke="black" points="94.5,-76.5 94.5,-95.5 200.5,-95.5 200.5,-76.5 94.5,-76.5"/>
<text text-anchor="middle" x="147.5" y="-83.5" font-family="Helvetica,sans-Serif" font-size="10.00">si4735_fm_tune_freq</text>
</a>
</g>
</g>
<!-- Node1&#45;&gt;Node16 -->
<g id="edge17" class="edge"><title>Node1&#45;&gt;Node16</title>
<path fill="none" stroke="midnightblue" d="M33.0038,-199.615C41.1571,-174.315 58.8243,-130.293 89,-105 93.5927,-101.15 98.9908,-98.0731 104.608,-95.6151"/>
<polygon fill="midnightblue" stroke="midnightblue" points="29.56,-198.91 29.9995,-209.496 36.2573,-200.947 29.56,-198.91"/>
</g>
<!-- Node23 -->
<g id="node23" class="node"><title>Node23</title>
<g id="a_node23"><a xlink:href="si4735_8c.html#a209bed933b0bdc8432e8dd082f2c7a71" target="_top" xlink:title="si4735_get_int_status">
<polygon fill="white" stroke="black" points="91.5,-38.5 91.5,-57.5 203.5,-57.5 203.5,-38.5 91.5,-38.5"/>
<text text-anchor="middle" x="147.5" y="-45.5" font-family="Helvetica,sans-Serif" font-size="10.00">si4735_get_int_status</text>
</a>
</g>
</g>
<!-- Node1&#45;&gt;Node23 -->
<g id="edge28" class="edge"><title>Node1&#45;&gt;Node23</title>
<path fill="none" stroke="midnightblue" d="M30.1069,-199.273C35.3915,-167.078 50.3438,-103.21 89,-67 93.1434,-63.1188 98.0973,-60.0296 103.335,-57.5709"/>
<polygon fill="midnightblue" stroke="midnightblue" points="26.6336,-198.835 28.6178,-209.242 33.5568,-199.869 26.6336,-198.835"/>
</g>
<!-- Node24 -->
<g id="node24" class="node"><title>Node24</title>
<g id="a_node24"><a xlink:href="si4735_8c.html#a5d54c5379f019b57f7d75d471791250c" target="_top" xlink:title="si4735_get_property">
<polygon fill="white" stroke="black" points="95.5,-0.5 95.5,-19.5 199.5,-19.5 199.5,-0.5 95.5,-0.5"/>
<text text-anchor="middle" x="147.5" y="-7.5" font-family="Helvetica,sans-Serif" font-size="10.00">si4735_get_property</text>
</a>
</g>
</g>
<!-- Node1&#45;&gt;Node24 -->
<g id="edge29" class="edge"><title>Node1&#45;&gt;Node24</title>
<path fill="none" stroke="midnightblue" d="M28.2688,-198.785C30.8241,-160.378 41.8207,-76.4679 89,-29 92.854,-25.1225 97.5147,-22.0362 102.495,-19.5798"/>
<polygon fill="midnightblue" stroke="midnightblue" points="24.7535,-198.98 27.7161,-209.152 31.7436,-199.353 24.7535,-198.98"/>
</g>
<!-- Node25 -->
<g id="node25" class="node"><title>Node25</title>
<g id="a_node25"><a xlink:href="si4735_8c.html#a339846da787fb5a496df9252ca7dc9a5" target="_top" xlink:title="si4735_fm_seek_start">
<polygon fill="white" stroke="black" points="91.5,-114.5 91.5,-133.5 203.5,-133.5 203.5,-114.5 91.5,-114.5"/>
<text text-anchor="middle" x="147.5" y="-121.5" font-family="Helvetica,sans-Serif" font-size="10.00">si4735_fm_seek_start</text>
</a>
</g>
</g>
<!-- Node1&#45;&gt;Node25 -->
<g id="edge30" class="edge"><title>Node1&#45;&gt;Node25</title>
<path fill="none" stroke="midnightblue" d="M37.9834,-200.747C48.7337,-183.554 66.9698,-158.227 89,-143 94.5351,-139.174 100.896,-136.074 107.325,-133.575"/>
<polygon fill="midnightblue" stroke="midnightblue" points="34.9656,-198.974 32.8045,-209.346 40.9621,-202.585 34.9656,-198.974"/>
</g>
<!-- Node26 -->
<g id="node26" class="node"><title>Node26</title>
<g id="a_node26"><a xlink:href="rds_8c.html#a1c031719ba892045c773dc035058870f" target="_top" xlink:title="Updates the current RDS data . ">
<polygon fill="white" stroke="black" points="265.5,-205.5 265.5,-224.5 330.5,-224.5 330.5,-205.5 265.5,-205.5"/>
<text text-anchor="middle" x="298" y="-212.5" font-family="Helvetica,sans-Serif" font-size="10.00">rds_update</text>
</a>
</g>
</g>
<!-- Node1&#45;&gt;Node26 -->
<g id="edge32" class="edge"><title>Node1&#45;&gt;Node26</title>
<path fill="none" stroke="midnightblue" d="M63.2465,-219.461C99.2867,-219.818 156.512,-220.087 206,-219 225.763,-218.566 247.922,-217.602 265.426,-216.729"/>
<polygon fill="midnightblue" stroke="midnightblue" points="63.2576,-215.961 53.2208,-219.354 63.1829,-222.961 63.2576,-215.961"/>
</g>
<!-- Node27 -->
<g id="node27" class="node"><title>Node27</title>
<g id="a_node27"><a xlink:href="rds_8c.html#ad4168f8a33d30a3526e416da5997baa9" target="_top" xlink:title="Triggers RDS. ">
<polygon fill="white" stroke="black" points="111,-190.5 111,-209.5 184,-209.5 184,-190.5 111,-190.5"/>
<text text-anchor="middle" x="147.5" y="-197.5" font-family="Helvetica,sans-Serif" font-size="10.00">rds_triggered</text>
</a>
</g>
</g>
<!-- Node1&#45;&gt;Node27 -->
<g id="edge35" class="edge"><title>Node1&#45;&gt;Node27</title>
<path fill="none" stroke="midnightblue" d="M62.9917,-213.333C78.0375,-210.931 95.5443,-208.136 110.631,-205.727"/>
<polygon fill="midnightblue" stroke="midnightblue" points="62.3515,-209.891 53.0285,-214.924 63.4553,-216.803 62.3515,-209.891"/>
</g>
<!-- Node3 -->
<g id="node3" class="node"><title>Node3</title>
<g id="a_node3"><a xlink:href="radio_8c.html#a6112562337f97b2fe002065359e1895d" target="_top" xlink:title="Set Auto brightness. ">
<polygon fill="white" stroke="black" points="242,-418.5 242,-437.5 354,-437.5 354,-418.5 242,-418.5"/>
<text text-anchor="middle" x="298" y="-425.5" font-family="Helvetica,sans-Serif" font-size="10.00">radio_auto_brightness</text>
</a>
</g>
</g>
<!-- Node2&#45;&gt;Node3 -->
<g id="edge2" class="edge"><title>Node2&#45;&gt;Node3</title>
<path fill="none" stroke="midnightblue" d="M206.366,-428C218.017,-428 230.234,-428 241.791,-428"/>
<polygon fill="midnightblue" stroke="midnightblue" points="206.304,-424.5 196.304,-428 206.304,-431.5 206.304,-424.5"/>
</g>
<!-- Node8 -->
<g id="node8" class="node"><title>Node8</title>
<g id="a_node8"><a xlink:href="rsq_8c.html#adc26e0d94e8ebd7ba62fa4f628a15f6d" target="_top" xlink:title="Update the Radio Signal Quality. ">
<polygon fill="white" stroke="black" points="265.5,-257.5 265.5,-276.5 330.5,-276.5 330.5,-257.5 265.5,-257.5"/>
<text text-anchor="middle" x="298" y="-264.5" font-family="Helvetica,sans-Serif" font-size="10.00">rsq_update</text>
</a>
</g>
</g>
<!-- Node7&#45;&gt;Node8 -->
<g id="edge7" class="edge"><title>Node7&#45;&gt;Node8</title>
<path fill="none" stroke="midnightblue" d="M214.164,-272.02C231.957,-270.942 250.417,-269.823 265.382,-268.916"/>
<polygon fill="midnightblue" stroke="midnightblue" points="213.566,-268.55 203.796,-272.649 213.989,-275.537 213.566,-268.55"/>
</g>
<!-- Node9 -->
<g id="node9" class="node"><title>Node9</title>
<g id="a_node9"><a xlink:href="handler_8c.html#a4f639cde11f5cab70d795fd2f75c9d22" target="_top" xlink:title="Handler for menu, RDS, time, the encoders and rsq. ">
<polygon fill="white" stroke="black" points="416.5,-238.5 416.5,-257.5 464.5,-257.5 464.5,-238.5 416.5,-238.5"/>
<text text-anchor="middle" x="440.5" y="-245.5" font-family="Helvetica,sans-Serif" font-size="10.00">handler</text>
</a>
</g>
</g>
<!-- Node8&#45;&gt;Node9 -->
<g id="edge8" class="edge"><title>Node8&#45;&gt;Node9</title>
<path fill="none" stroke="midnightblue" d="M340.739,-261.356C365.476,-258.01 395.893,-253.897 416.382,-251.126"/>
<polygon fill="midnightblue" stroke="midnightblue" points="339.972,-257.927 330.531,-262.736 340.91,-264.864 339.972,-257.927"/>
</g>
<!-- Node10 -->
<g id="node10" class="node"><title>Node10</title>
<g id="a_node10"><a xlink:href="main_8c.html#a840291bc02cba5474a4cb46a9b9566fe" target="_top" xlink:title="Main function. ">
<polygon fill="white" stroke="black" points="570.5,-219.5 570.5,-238.5 608.5,-238.5 608.5,-219.5 570.5,-219.5"/>
<text text-anchor="middle" x="589.5" y="-226.5" font-family="Helvetica,sans-Serif" font-size="10.00">main</text>
</a>
</g>
</g>
<!-- Node9&#45;&gt;Node10 -->
<g id="edge9" class="edge"><title>Node9&#45;&gt;Node10</title>
<path fill="none" stroke="midnightblue" d="M475.084,-243.659C504.696,-239.832 546.715,-234.401 570.414,-231.338"/>
<polygon fill="midnightblue" stroke="midnightblue" points="474.261,-240.236 464.793,-244.989 475.159,-247.179 474.261,-240.236"/>
</g>
<!-- Node12 -->
<g id="node12" class="node"><title>Node12</title>
<g id="a_node12"><a xlink:href="radio_8c.html#aee6321b512830d482a2fc164cf11f9e9" target="_top" xlink:title="Seeking all radio channels. ">
<polygon fill="white" stroke="black" points="259.5,-152.5 259.5,-171.5 336.5,-171.5 336.5,-152.5 259.5,-152.5"/>
<text text-anchor="middle" x="298" y="-159.5" font-family="Helvetica,sans-Serif" font-size="10.00">radio_seeking</text>
</a>
</g>
</g>
<!-- Node11&#45;&gt;Node12 -->
<g id="edge11" class="edge"><title>Node11&#45;&gt;Node12</title>
<path fill="none" stroke="midnightblue" d="M216.436,-162C231.138,-162 246.173,-162 259.212,-162"/>
<polygon fill="midnightblue" stroke="midnightblue" points="216.339,-158.5 206.339,-162 216.339,-165.5 216.339,-158.5"/>
</g>
<!-- Node13 -->
<g id="node13" class="node"><title>Node13</title>
<g id="a_node13"><a xlink:href="radio_8c.html#a3a1de7e31aabba6e408a633c130e618a" target="_top" xlink:title="Initiales the radio. ">
<polygon fill="white" stroke="black" points="412.5,-124.5 412.5,-143.5 468.5,-143.5 468.5,-124.5 412.5,-124.5"/>
<text text-anchor="middle" x="440.5" y="-131.5" font-family="Helvetica,sans-Serif" font-size="10.00">radio_init</text>
</a>
</g>
</g>
<!-- Node12&#45;&gt;Node13 -->
<g id="edge12" class="edge"><title>Node12&#45;&gt;Node13</title>
<path fill="none" stroke="midnightblue" d="M346.48,-152.538C368.459,-148.158 393.773,-143.113 412.439,-139.393"/>
<polygon fill="midnightblue" stroke="midnightblue" points="345.774,-149.109 336.651,-154.497 347.143,-155.974 345.774,-149.109"/>
</g>
<!-- Node14 -->
<g id="node14" class="node"><title>Node14</title>
<g id="a_node14"><a xlink:href="radio_8c.html#ac96da2886aec92b299b27b500761564c" target="_top" xlink:title="Auto Search for radio stations. ">
<polygon fill="white" stroke="black" points="392.5,-200.5 392.5,-219.5 488.5,-219.5 488.5,-200.5 392.5,-200.5"/>
<text text-anchor="middle" x="440.5" y="-207.5" font-family="Helvetica,sans-Serif" font-size="10.00">radio_auto_search</text>
</a>
</g>
</g>
<!-- Node12&#45;&gt;Node14 -->
<g id="edge14" class="edge"><title>Node12&#45;&gt;Node14</title>
<path fill="none" stroke="midnightblue" d="M336.75,-174.897C360.271,-182.932 390.025,-193.098 411.454,-200.418"/>
<polygon fill="midnightblue" stroke="midnightblue" points="337.689,-171.519 327.095,-171.598 335.426,-178.143 337.689,-171.519"/>
</g>
<!-- Node15 -->
<g id="node15" class="node"><title>Node15</title>
<g id="a_node15"><a xlink:href="radio__settings_8c.html#a90d48a01d9b0ad794fb9416a2ce8f85e" target="_top" xlink:title="Seeks the next station/all available. ">
<polygon fill="white" stroke="black" points="533.5,-162.5 533.5,-181.5 645.5,-181.5 645.5,-162.5 533.5,-162.5"/>
<text text-anchor="middle" x="589.5" y="-169.5" font-family="Helvetica,sans-Serif" font-size="10.00">radio_settings_station</text>
</a>
</g>
</g>
<!-- Node12&#45;&gt;Node15 -->
<g id="edge16" class="edge"><title>Node12&#45;&gt;Node15</title>
<path fill="none" stroke="midnightblue" d="M346.706,-163.648C398.009,-165.42 479.465,-168.234 533.448,-170.098"/>
<polygon fill="midnightblue" stroke="midnightblue" points="346.665,-160.144 336.55,-163.297 346.423,-167.14 346.665,-160.144"/>
</g>
<!-- Node13&#45;&gt;Node10 -->
<g id="edge13" class="edge"><title>Node13&#45;&gt;Node10</title>
<path fill="none" stroke="midnightblue" d="M464.368,-149.556C481.507,-161.139 505.593,-177.257 527,-191 542.42,-200.9 560.255,-211.867 572.735,-219.465"/>
<polygon fill="midnightblue" stroke="midnightblue" points="465.864,-146.342 455.622,-143.631 461.938,-152.138 465.864,-146.342"/>
</g>
<!-- Node14&#45;&gt;Node15 -->
<g id="edge15" class="edge"><title>Node14&#45;&gt;Node15</title>
<path fill="none" stroke="midnightblue" d="M488.355,-197.888C508.828,-192.596 532.49,-186.479 551.672,-181.52"/>
<polygon fill="midnightblue" stroke="midnightblue" points="487.4,-194.52 478.594,-200.411 489.152,-201.297 487.4,-194.52"/>
</g>
<!-- Node17 -->
<g id="node17" class="node"><title>Node17</title>
<g id="a_node17"><a xlink:href="si4735_8c.html#a876518b974a7128391e2ff86a597218f" target="_top" xlink:title="SI4735_INIT">
<polygon fill="white" stroke="black" points="264,-95.5 264,-114.5 332,-114.5 332,-95.5 264,-95.5"/>
<text text-anchor="middle" x="298" y="-102.5" font-family="Helvetica,sans-Serif" font-size="10.00">SI4735_INIT</text>
</a>
</g>
</g>
<!-- Node16&#45;&gt;Node17 -->
<g id="edge18" class="edge"><title>Node16&#45;&gt;Node17</title>
<path fill="none" stroke="midnightblue" d="M210.798,-93.9708C228.928,-96.2904 248.033,-98.7349 263.638,-100.731"/>
<polygon fill="midnightblue" stroke="midnightblue" points="211.219,-90.4962 200.856,-92.6987 210.33,-97.4396 211.219,-90.4962"/>
</g>
<!-- Node19 -->
<g id="node19" class="node"><title>Node19</title>
<g id="a_node19"><a xlink:href="radio_8c.html#a6d652e9d0f1c54bfe9ec73fe2605b706" target="_top" xlink:title="Tune the frequency. ">
<polygon fill="white" stroke="black" points="256.5,-57.5 256.5,-76.5 339.5,-76.5 339.5,-57.5 256.5,-57.5"/>
<text text-anchor="middle" x="298" y="-64.5" font-family="Helvetica,sans-Serif" font-size="10.00">radio_tune_freq</text>
</a>
</g>
</g>
<!-- Node16&#45;&gt;Node19 -->
<g id="edge21" class="edge"><title>Node16&#45;&gt;Node19</title>
<path fill="none" stroke="midnightblue" d="M210.827,-78.0255C226.197,-76.059 242.267,-74.0028 256.31,-72.2062"/>
<polygon fill="midnightblue" stroke="midnightblue" points="210.33,-74.5604 200.856,-79.3013 211.219,-81.5038 210.33,-74.5604"/>
</g>
<!-- Node17&#45;&gt;Node13 -->
<g id="edge19" class="edge"><title>Node17&#45;&gt;Node13</title>
<path fill="none" stroke="midnightblue" d="M342.392,-113.956C365.133,-118.65 392.296,-124.257 412.103,-128.345"/>
<polygon fill="midnightblue" stroke="midnightblue" points="342.798,-110.466 332.297,-111.873 341.383,-117.322 342.798,-110.466"/>
</g>
<!-- Node18 -->
<g id="node18" class="node"><title>Node18</title>
<g id="a_node18"><a xlink:href="radio_8c.html#a5d08cbff96aee4274e785b49a98f14cd" target="_top" xlink:title="Turn radio to standby. ">
<polygon fill="white" stroke="black" points="399,-86.5 399,-105.5 482,-105.5 482,-86.5 399,-86.5"/>
<text text-anchor="middle" x="440.5" y="-93.5" font-family="Helvetica,sans-Serif" font-size="10.00">radio_stand_by</text>
</a>
</g>
</g>
<!-- Node17&#45;&gt;Node18 -->
<g id="edge20" class="edge"><title>Node17&#45;&gt;Node18</title>
<path fill="none" stroke="midnightblue" d="M342.527,-102.212C360.517,-101.059 381.254,-99.731 398.923,-98.5992"/>
<polygon fill="midnightblue" stroke="midnightblue" points="342.052,-98.7349 332.297,-102.867 342.5,-105.721 342.052,-98.7349"/>
</g>
<!-- Node19&#45;&gt;Node13 -->
<g id="edge22" class="edge"><title>Node19&#45;&gt;Node13</title>
<path fill="none" stroke="midnightblue" d="M342.207,-80.3042C346.277,-82.0374 350.271,-83.9367 354,-86 371.977,-95.9468 372.194,-104.75 390,-115 396.941,-118.995 404.881,-122.469 412.339,-125.315"/>
<polygon fill="midnightblue" stroke="midnightblue" points="343.249,-76.9534 332.662,-76.5622 340.694,-83.4705 343.249,-76.9534"/>
</g>
<!-- Node19&#45;&gt;Node18 -->
<g id="edge24" class="edge"><title>Node19&#45;&gt;Node18</title>
<path fill="none" stroke="midnightblue" d="M349.517,-77.427C365.756,-80.7788 383.526,-84.4466 398.953,-87.6308"/>
<polygon fill="midnightblue" stroke="midnightblue" points="350.14,-73.9818 339.638,-75.388 348.724,-80.8373 350.14,-73.9818"/>
</g>
<!-- Node20 -->
<g id="node20" class="node"><title>Node20</title>
<g id="a_node20"><a xlink:href="radio_8c.html#a841443a7db6e1c9caef95f3b7af5761f" target="_top" xlink:title="Radio main. ">
<polygon fill="white" stroke="black" points="408.5,-48.5 408.5,-67.5 472.5,-67.5 472.5,-48.5 408.5,-48.5"/>
<text text-anchor="middle" x="440.5" y="-55.5" font-family="Helvetica,sans-Serif" font-size="10.00">radio_main</text>
</a>
</g>
</g>
<!-- Node19&#45;&gt;Node20 -->
<g id="edge23" class="edge"><title>Node19&#45;&gt;Node20</title>
<path fill="none" stroke="midnightblue" d="M349.657,-63.7551C369.27,-62.4987 391.098,-61.1005 408.327,-59.9969"/>
<polygon fill="midnightblue" stroke="midnightblue" points="349.394,-60.2646 339.638,-64.3968 349.842,-67.2503 349.394,-60.2646"/>
</g>
<!-- Node21 -->
<g id="node21" class="node"><title>Node21</title>
<g id="a_node21"><a xlink:href="station__list_8h.html#a14396edaefab23c83e16fea65cc5db9d" target="_top" xlink:title="Handler to select the current station. ">
<polygon fill="white" stroke="black" points="390,-10.5 390,-29.5 491,-29.5 491,-10.5 390,-10.5"/>
<text text-anchor="middle" x="440.5" y="-17.5" font-family="Helvetica,sans-Serif" font-size="10.00">station_list_handler</text>
</a>
</g>
</g>
<!-- Node19&#45;&gt;Node21 -->
<g id="edge25" class="edge"><title>Node19&#45;&gt;Node21</title>
<path fill="none" stroke="midnightblue" d="M336.961,-54.3012C360.147,-46.5452 389.329,-36.783 410.628,-29.6583"/>
<polygon fill="midnightblue" stroke="midnightblue" points="335.805,-50.9972 327.432,-57.4888 338.026,-57.6356 335.805,-50.9972"/>
</g>
<!-- Node21&#45;&gt;Node15 -->
<g id="edge27" class="edge"><title>Node21&#45;&gt;Node15</title>
<path fill="none" stroke="midnightblue" d="M483.527,-34.094C486.15,-35.5866 488.668,-37.2188 491,-39 537.412,-74.4556 571.768,-137.86 583.811,-162.155"/>
<polygon fill="midnightblue" stroke="midnightblue" points="484.845,-30.8409 474.33,-29.5426 481.74,-37.1148 484.845,-30.8409"/>
</g>
<!-- Node22 -->
<g id="node22" class="node"><title>Node22</title>
<g id="a_node22"><a xlink:href="radio__settings_8c.html#ab424f802ddd3a0570afec524d4f2091b" target="_top" xlink:title="Sets the frequency. ">
<polygon fill="white" stroke="black" points="527,-10.5 527,-29.5 652,-29.5 652,-10.5 527,-10.5"/>
<text text-anchor="middle" x="589.5" y="-17.5" font-family="Helvetica,sans-Serif" font-size="10.00">radio_settings_frequency</text>
</a>
</g>
</g>
<!-- Node21&#45;&gt;Node22 -->
<g id="edge26" class="edge"><title>Node21&#45;&gt;Node22</title>
<path fill="none" stroke="midnightblue" d="M501.347,-20C509.735,-20 518.369,-20 526.791,-20"/>
<polygon fill="midnightblue" stroke="midnightblue" points="501.268,-16.5001 491.267,-20 501.267,-23.5001 501.268,-16.5001"/>
</g>
<!-- Node25&#45;&gt;Node12 -->
<g id="edge31" class="edge"><title>Node25&#45;&gt;Node12</title>
<path fill="none" stroke="midnightblue" d="M195.833,-136.112C216.515,-141.404 240.419,-147.521 259.797,-152.48"/>
<polygon fill="midnightblue" stroke="midnightblue" points="196.528,-132.677 185.973,-133.589 194.793,-139.459 196.528,-132.677"/>
</g>
<!-- Node26&#45;&gt;Node9 -->
<g id="edge34" class="edge"><title>Node26&#45;&gt;Node9</title>
<path fill="none" stroke="midnightblue" d="M340.408,-224.726C365.204,-230.55 395.802,-237.736 416.382,-242.57"/>
<polygon fill="midnightblue" stroke="midnightblue" points="341.066,-221.285 330.531,-222.406 339.466,-228.1 341.066,-221.285"/>
</g>
<!-- Node26&#45;&gt;Node14 -->
<g id="edge33" class="edge"><title>Node26&#45;&gt;Node14</title>
<path fill="none" stroke="midnightblue" d="M340.787,-213.513C356.996,-212.936 375.639,-212.273 392.327,-211.679"/>
<polygon fill="midnightblue" stroke="midnightblue" points="340.4,-210.024 330.531,-213.878 340.649,-217.02 340.4,-210.024"/>
</g>
<!-- Node27&#45;&gt;Node26 -->
<g id="edge36" class="edge"><title>Node27&#45;&gt;Node26</title>
<path fill="none" stroke="midnightblue" d="M194.296,-204.626C217.297,-206.949 244.59,-209.706 265.257,-211.794"/>
<polygon fill="midnightblue" stroke="midnightblue" points="194.371,-201.116 184.069,-203.593 193.667,-208.08 194.371,-201.116"/>
</g>
</g>
</svg>
