<?xml version="1.0" encoding="UTF-8" standalone="no"?>
<!DOCTYPE svg PUBLIC "-//W3C//DTD SVG 1.1//EN"
 "http://www.w3.org/Graphics/SVG/1.1/DTD/svg11.dtd">
<!-- Generated by graphviz version 2.38.0 (20140413.2041)
 -->
<!-- Title: D:/GIT/fhradiov2/driver/i2c.h Pages: 1 -->
<!--zoomable 508 -->
<svg id="main" version="1.1" xmlns="http://www.w3.org/2000/svg" xmlns:xlink="http://www.w3.org/1999/xlink" xml:space="preserve" onload="init(evt)">
<style type="text/css"><![CDATA[
.edge:hover path { stroke: red; }
.edge:hover polygon { stroke: red; fill: red; }
]]></style>
<script type="text/javascript"><![CDATA[
var edges = document.getElementsByTagName('g');
if (edges && edges.length) {
  for (var i=0;i<edges.length;i++) {
    if (edges[i].id.substr(0,4)=='edge') {
      edges[i].setAttribute('class','edge');
    }
  }
}
]]></script>
        <defs>
                <circle id="rim" cx="0" cy="0" r="7"/>
                <circle id="rim2" cx="0" cy="0" r="3.5"/>
                <g id="zoomPlus">
                        <use xlink:href="#rim" fill="#404040">
                                <set attributeName="fill" to="#808080" begin="zoomplus.mouseover" end="zoomplus.mouseout"/>
                        </use>
                        <path d="M-4,0h8M0,-4v8" fill="none" stroke="white" stroke-width="1.5" pointer-events="none"/>
                </g>
                <g id="zoomMin">
                        <use xlink:href="#rim" fill="#404040">
                                <set attributeName="fill" to="#808080" begin="zoomminus.mouseover" end="zoomminus.mouseout"/>
                        </use>
                        <path d="M-4,0h8" fill="none" stroke="white" stroke-width="1.5" pointer-events="none"/>
                </g>
                <g id="dirArrow">
                        <path fill="none" stroke="white" stroke-width="1.5" d="M0,-3.0v7 M-2.5,-0.5L0,-3.0L2.5,-0.5"/>
                </g>
               <g id="resetDef">
                       <use xlink:href="#rim2" fill="#404040">
                               <set attributeName="fill" to="#808080" begin="reset.mouseover" end="reset.mouseout"/>
                       </use>
               </g>
        </defs>

<script type="text/javascript">
var viewWidth = 1184;
var viewHeight = 508;
var sectionId = 'dynsection-1';
</script>
<script xlink:href="svgpan.js"/>
<svg id="graph" class="graph">
<g id="viewport">
<title>D:/GIT/fhradiov2/driver/i2c.h</title>
<polygon fill="white" stroke="none" points="-4,4 -4,-504 1180,-504 1180,4 -4,4"/>
<!-- Node1 -->
<g id="node1" class="node"><title>Node1</title>
<polygon fill="#bfbfbf" stroke="black" points="699,-469.5 699,-499.5 809,-499.5 809,-469.5 699,-469.5"/>
<text text-anchor="start" x="707" y="-487.5" font-family="Helvetica,sans-Serif" font-size="10.00">D:/GIT/fhradiov2/driver</text>
<text text-anchor="middle" x="754" y="-476.5" font-family="Helvetica,sans-Serif" font-size="10.00">/i2c.h</text>
</g>
<!-- Node2 -->
<g id="node2" class="node"><title>Node2</title>
<g id="a_node2"><a xlink:href="opt3001_8h.html" target="_top" xlink:title="D:/GIT/fhradiov2/driver\l/opt3001.h">
<polygon fill="white" stroke="black" points="112,-402.5 112,-432.5 222,-432.5 222,-402.5 112,-402.5"/>
<text text-anchor="start" x="120" y="-420.5" font-family="Helvetica,sans-Serif" font-size="10.00">D:/GIT/fhradiov2/driver</text>
<text text-anchor="middle" x="167" y="-409.5" font-family="Helvetica,sans-Serif" font-size="10.00">/opt3001.h</text>
</a>
</g>
</g>
<!-- Node1&#45;&gt;Node2 -->
<g id="edge1" class="edge"><title>Node1&#45;&gt;Node2</title>
<path fill="none" stroke="midnightblue" d="M688.554,-479.849C589.191,-473.704 394.53,-459.312 231,-433 228.076,-432.529 225.085,-432.005 222.072,-431.442"/>
<polygon fill="midnightblue" stroke="midnightblue" points="688.545,-483.354 698.74,-480.47 688.972,-476.367 688.545,-483.354"/>
</g>
<!-- Node17 -->
<g id="node17" class="node"><title>Node17</title>
<g id="a_node17"><a xlink:href="rds_8h.html" target="_top" xlink:title="D:/GIT/fhradiov2/system\l/rds.h">
<polygon fill="white" stroke="black" points="758,-201.5 758,-231.5 878,-231.5 878,-201.5 758,-201.5"/>
<text text-anchor="start" x="766" y="-219.5" font-family="Helvetica,sans-Serif" font-size="10.00">D:/GIT/fhradiov2/system</text>
<text text-anchor="middle" x="818" y="-208.5" font-family="Helvetica,sans-Serif" font-size="10.00">/rds.h</text>
</a>
</g>
</g>
<!-- Node1&#45;&gt;Node17 -->
<g id="edge52" class="edge"><title>Node1&#45;&gt;Node17</title>
<path fill="none" stroke="midnightblue" d="M766.06,-460.119C770.002,-451.738 774.106,-442.107 777,-433 800.472,-359.138 812.535,-266.531 816.496,-231.653"/>
<polygon fill="midnightblue" stroke="midnightblue" points="762.83,-458.757 761.589,-469.279 769.121,-461.828 762.83,-458.757"/>
</g>
<!-- Node19 -->
<g id="node19" class="node"><title>Node19</title>
<g id="a_node19"><a xlink:href="rsq_8h.html" target="_top" xlink:title="D:/GIT/fhradiov2/system\l/rsq.h">
<polygon fill="white" stroke="black" points="896,-201.5 896,-231.5 1016,-231.5 1016,-201.5 896,-201.5"/>
<text text-anchor="start" x="904" y="-219.5" font-family="Helvetica,sans-Serif" font-size="10.00">D:/GIT/fhradiov2/system</text>
<text text-anchor="middle" x="956" y="-208.5" font-family="Helvetica,sans-Serif" font-size="10.00">/rsq.h</text>
</a>
</g>
</g>
<!-- Node1&#45;&gt;Node19 -->
<g id="edge53" class="edge"><title>Node1&#45;&gt;Node19</title>
<path fill="none" stroke="midnightblue" d="M806.792,-465.817C871.96,-440.642 979.063,-387.448 1019,-299 1024.67,-286.443 1024.96,-280.421 1019,-268 1011.54,-252.456 996.704,-240.191 983.303,-231.642"/>
<polygon fill="midnightblue" stroke="midnightblue" points="805.222,-462.668 797.102,-469.473 807.694,-469.217 805.222,-462.668"/>
</g>
<!-- Node25 -->
<g id="node25" class="node"><title>Node25</title>
<g id="a_node25"><a xlink:href="pca9530_8h.html" target="_top" xlink:title="D:/GIT/fhradiov2/driver\l/pca9530.h">
<polygon fill="white" stroke="black" points="240,-402.5 240,-432.5 350,-432.5 350,-402.5 240,-402.5"/>
<text text-anchor="start" x="248" y="-420.5" font-family="Helvetica,sans-Serif" font-size="10.00">D:/GIT/fhradiov2/driver</text>
<text text-anchor="middle" x="295" y="-409.5" font-family="Helvetica,sans-Serif" font-size="10.00">/pca9530.h</text>
</a>
</g>
</g>
<!-- Node1&#45;&gt;Node25 -->
<g id="edge34" class="edge"><title>Node1&#45;&gt;Node25</title>
<path fill="none" stroke="midnightblue" d="M688.463,-474.219C597.654,-461.359 435.17,-438.35 350.205,-426.318"/>
<polygon fill="midnightblue" stroke="midnightblue" points="688.242,-477.723 698.634,-475.659 689.223,-470.792 688.242,-477.723"/>
</g>
<!-- Node27 -->
<g id="node27" class="node"><title>Node27</title>
<g id="a_node27"><a xlink:href="pca9534_8h.html" target="_top" xlink:title="D:/GIT/fhradiov2/driver\l/pca9534.h">
<polygon fill="white" stroke="black" points="658,-402.5 658,-432.5 768,-432.5 768,-402.5 658,-402.5"/>
<text text-anchor="start" x="666" y="-420.5" font-family="Helvetica,sans-Serif" font-size="10.00">D:/GIT/fhradiov2/driver</text>
<text text-anchor="middle" x="713" y="-409.5" font-family="Helvetica,sans-Serif" font-size="10.00">/pca9534.h</text>
</a>
</g>
</g>
<!-- Node1&#45;&gt;Node27 -->
<g id="edge37" class="edge"><title>Node1&#45;&gt;Node27</title>
<path fill="none" stroke="midnightblue" d="M739.724,-460.867C733.79,-451.459 727.087,-440.833 721.879,-432.577"/>
<polygon fill="midnightblue" stroke="midnightblue" points="736.808,-462.805 745.104,-469.396 742.729,-459.071 736.808,-462.805"/>
</g>
<!-- Node31 -->
<g id="node31" class="node"><title>Node31</title>
<g id="a_node31"><a xlink:href="si4735_8h.html" target="_top" xlink:title="D:/GIT/fhradiov2/driver\l/si4735.h">
<polygon fill="white" stroke="black" points="824,-335.5 824,-365.5 934,-365.5 934,-335.5 824,-335.5"/>
<text text-anchor="start" x="832" y="-353.5" font-family="Helvetica,sans-Serif" font-size="10.00">D:/GIT/fhradiov2/driver</text>
<text text-anchor="middle" x="879" y="-342.5" font-family="Helvetica,sans-Serif" font-size="10.00">/si4735.h</text>
</a>
</g>
</g>
<!-- Node1&#45;&gt;Node31 -->
<g id="edge43" class="edge"><title>Node1&#45;&gt;Node31</title>
<path fill="none" stroke="midnightblue" d="M778.395,-462.778C788.466,-453.901 800.079,-443.236 810,-433 831.806,-410.502 854.892,-382.19 868.064,-365.545"/>
<polygon fill="midnightblue" stroke="midnightblue" points="775.953,-460.264 770.711,-469.472 780.55,-465.543 775.953,-460.264"/>
</g>
<!-- Node33 -->
<g id="node33" class="node"><title>Node33</title>
<g id="a_node33"><a xlink:href="i2c_8c.html" target="_top" xlink:title="D:/GIT/fhradiov2/driver\l/src/i2c.c">
<polygon fill="white" stroke="black" points="1066,-402.5 1066,-432.5 1176,-432.5 1176,-402.5 1066,-402.5"/>
<text text-anchor="start" x="1074" y="-420.5" font-family="Helvetica,sans-Serif" font-size="10.00">D:/GIT/fhradiov2/driver</text>
<text text-anchor="middle" x="1121" y="-409.5" font-family="Helvetica,sans-Serif" font-size="10.00">/src/i2c.c</text>
</a>
</g>
</g>
<!-- Node1&#45;&gt;Node33 -->
<g id="edge48" class="edge"><title>Node1&#45;&gt;Node33</title>
<path fill="none" stroke="midnightblue" d="M819.204,-473.206C879.665,-463.482 972.075,-448.164 1052,-433 1056.45,-432.156 1061.05,-431.253 1065.68,-430.325"/>
<polygon fill="midnightblue" stroke="midnightblue" points="818.359,-469.797 809.04,-474.837 819.468,-476.709 818.359,-469.797"/>
</g>
<!-- Node34 -->
<g id="node34" class="node"><title>Node34</title>
<g id="a_node34"><a xlink:href="tpa2016d2_8h.html" target="_top" xlink:title="D:/GIT/fhradiov2/driver\l/tpa2016d2.h">
<polygon fill="white" stroke="black" points="447,-402.5 447,-432.5 557,-432.5 557,-402.5 447,-402.5"/>
<text text-anchor="start" x="455" y="-420.5" font-family="Helvetica,sans-Serif" font-size="10.00">D:/GIT/fhradiov2/driver</text>
<text text-anchor="middle" x="502" y="-409.5" font-family="Helvetica,sans-Serif" font-size="10.00">/tpa2016d2.h</text>
</a>
</g>
</g>
<!-- Node1&#45;&gt;Node34 -->
<g id="edge49" class="edge"><title>Node1&#45;&gt;Node34</title>
<path fill="none" stroke="midnightblue" d="M689.709,-466.917C648.586,-456.31 595.817,-442.699 556.707,-432.611"/>
<polygon fill="midnightblue" stroke="midnightblue" points="689.073,-470.367 699.63,-469.476 690.821,-463.589 689.073,-470.367"/>
</g>
<!-- Node3 -->
<g id="node3" class="node"><title>Node3</title>
<g id="a_node3"><a xlink:href="opt3001_8c.html" target="_top" xlink:title="D:/GIT/fhradiov2/driver\l/src/opt3001.c">
<polygon fill="white" stroke="black" points="32,-335.5 32,-365.5 142,-365.5 142,-335.5 32,-335.5"/>
<text text-anchor="start" x="40" y="-353.5" font-family="Helvetica,sans-Serif" font-size="10.00">D:/GIT/fhradiov2/driver</text>
<text text-anchor="middle" x="87" y="-342.5" font-family="Helvetica,sans-Serif" font-size="10.00">/src/opt3001.c</text>
</a>
</g>
</g>
<!-- Node2&#45;&gt;Node3 -->
<g id="edge2" class="edge"><title>Node2&#45;&gt;Node3</title>
<path fill="none" stroke="midnightblue" d="M141.625,-395.883C129.468,-386.005 115.221,-374.429 104.325,-365.577"/>
<polygon fill="midnightblue" stroke="midnightblue" points="139.673,-398.806 149.641,-402.396 144.087,-393.374 139.673,-398.806"/>
</g>
<!-- Node4 -->
<g id="node4" class="node"><title>Node4</title>
<g id="a_node4"><a xlink:href="radio_8h.html" target="_top" xlink:title="D:/GIT/fhradiov2/radio\l/radio.h">
<polygon fill="white" stroke="black" points="408.5,-268.5 408.5,-298.5 517.5,-298.5 517.5,-268.5 408.5,-268.5"/>
<text text-anchor="start" x="416.5" y="-286.5" font-family="Helvetica,sans-Serif" font-size="10.00">D:/GIT/fhradiov2/radio</text>
<text text-anchor="middle" x="463" y="-275.5" font-family="Helvetica,sans-Serif" font-size="10.00">/radio.h</text>
</a>
</g>
</g>
<!-- Node2&#45;&gt;Node4 -->
<g id="edge3" class="edge"><title>Node2&#45;&gt;Node4</title>
<path fill="none" stroke="midnightblue" d="M175.686,-392.88C183.776,-374.252 197.67,-349.133 218,-335 248.221,-313.992 345.828,-298.664 408.339,-290.705"/>
<polygon fill="midnightblue" stroke="midnightblue" points="172.423,-391.612 171.883,-402.193 178.904,-394.258 172.423,-391.612"/>
</g>
<!-- Node5 -->
<g id="node5" class="node"><title>Node5</title>
<g id="a_node5"><a xlink:href="menu_8h.html" target="_top" xlink:title="D:/GIT/fhradiov2/menu\l/menu.h">
<polygon fill="white" stroke="black" points="590,-201.5 590,-231.5 702,-231.5 702,-201.5 590,-201.5"/>
<text text-anchor="start" x="598" y="-219.5" font-family="Helvetica,sans-Serif" font-size="10.00">D:/GIT/fhradiov2/menu</text>
<text text-anchor="middle" x="646" y="-208.5" font-family="Helvetica,sans-Serif" font-size="10.00">/menu.h</text>
</a>
</g>
</g>
<!-- Node4&#45;&gt;Node5 -->
<g id="edge4" class="edge"><title>Node4&#45;&gt;Node5</title>
<path fill="none" stroke="midnightblue" d="M506.697,-264.819C535.103,-254.371 571.973,-241.323 600.694,-231.577"/>
<polygon fill="midnightblue" stroke="midnightblue" points="505.194,-261.643 497.03,-268.396 507.623,-268.208 505.194,-261.643"/>
</g>
<!-- Node9 -->
<g id="node9" class="node"><title>Node9</title>
<g id="a_node9"><a xlink:href="handler_8h.html" target="_top" xlink:title="D:/GIT/fhradiov2/system\l/handler.h">
<polygon fill="white" stroke="black" points="722,-134.5 722,-164.5 842,-164.5 842,-134.5 722,-134.5"/>
<text text-anchor="start" x="730" y="-152.5" font-family="Helvetica,sans-Serif" font-size="10.00">D:/GIT/fhradiov2/system</text>
<text text-anchor="middle" x="782" y="-141.5" font-family="Helvetica,sans-Serif" font-size="10.00">/handler.h</text>
</a>
</g>
</g>
<!-- Node4&#45;&gt;Node9 -->
<g id="edge20" class="edge"><title>Node4&#45;&gt;Node9</title>
<path fill="none" stroke="midnightblue" d="M528.039,-280.609C580.576,-276.519 654.763,-264.763 711,-232 739.538,-215.375 762.395,-183.088 773.893,-164.532"/>
<polygon fill="midnightblue" stroke="midnightblue" points="527.561,-277.134 517.832,-281.328 528.054,-284.116 527.561,-277.134"/>
</g>
<!-- Node12 -->
<g id="node12" class="node"><title>Node12</title>
<g id="a_node12"><a xlink:href="radio__display_8h.html" target="_top" xlink:title="D:/GIT/fhradiov2/radio\l/radio_display.h">
<polygon fill="white" stroke="black" points="278.5,-201.5 278.5,-231.5 387.5,-231.5 387.5,-201.5 278.5,-201.5"/>
<text text-anchor="start" x="286.5" y="-219.5" font-family="Helvetica,sans-Serif" font-size="10.00">D:/GIT/fhradiov2/radio</text>
<text text-anchor="middle" x="333" y="-208.5" font-family="Helvetica,sans-Serif" font-size="10.00">/radio_display.h</text>
</a>
</g>
</g>
<!-- Node4&#45;&gt;Node12 -->
<g id="edge13" class="edge"><title>Node4&#45;&gt;Node12</title>
<path fill="none" stroke="midnightblue" d="M419.824,-263.992C398.294,-253.689 373.213,-241.068 355.478,-231.577"/>
<polygon fill="midnightblue" stroke="midnightblue" points="418.578,-267.275 429.114,-268.396 421.577,-260.95 418.578,-267.275"/>
</g>
<!-- Node14 -->
<g id="node14" class="node"><title>Node14</title>
<g id="a_node14"><a xlink:href="radio__settings_8h.html" target="_top" xlink:title="D:/GIT/fhradiov2/radio\l/radio_settings.h">
<polygon fill="white" stroke="black" points="370.5,-67.5 370.5,-97.5 479.5,-97.5 479.5,-67.5 370.5,-67.5"/>
<text text-anchor="start" x="378.5" y="-85.5" font-family="Helvetica,sans-Serif" font-size="10.00">D:/GIT/fhradiov2/radio</text>
<text text-anchor="middle" x="425" y="-74.5" font-family="Helvetica,sans-Serif" font-size="10.00">/radio_settings.h</text>
</a>
</g>
</g>
<!-- Node4&#45;&gt;Node14 -->
<g id="edge16" class="edge"><title>Node4&#45;&gt;Node14</title>
<path fill="none" stroke="midnightblue" d="M449.78,-258.753C447.575,-250.31 445.688,-240.734 444,-232 434.491,-182.801 423.585,-124.353 422.397,-97.8437"/>
<polygon fill="midnightblue" stroke="midnightblue" points="446.431,-259.77 452.636,-268.358 453.141,-257.775 446.431,-259.77"/>
</g>
<!-- Node16 -->
<g id="node16" class="node"><title>Node16</title>
<g id="a_node16"><a xlink:href="radio_8c.html" target="_top" xlink:title="D:/GIT/fhradiov2/radio\l/src/radio.c">
<polygon fill="white" stroke="black" points="462.5,-201.5 462.5,-231.5 571.5,-231.5 571.5,-201.5 462.5,-201.5"/>
<text text-anchor="start" x="470.5" y="-219.5" font-family="Helvetica,sans-Serif" font-size="10.00">D:/GIT/fhradiov2/radio</text>
<text text-anchor="middle" x="517" y="-208.5" font-family="Helvetica,sans-Serif" font-size="10.00">/src/radio.c</text>
</a>
</g>
</g>
<!-- Node4&#45;&gt;Node16 -->
<g id="edge19" class="edge"><title>Node4&#45;&gt;Node16</title>
<path fill="none" stroke="midnightblue" d="M481.321,-260.447C489.253,-250.899 498.305,-240.004 505.306,-231.577"/>
<polygon fill="midnightblue" stroke="midnightblue" points="478.415,-258.467 474.717,-268.396 483.8,-262.941 478.415,-258.467"/>
</g>
<!-- Node4&#45;&gt;Node17 -->
<g id="edge21" class="edge"><title>Node4&#45;&gt;Node17</title>
<path fill="none" stroke="midnightblue" d="M527.655,-271.177C584.643,-261.126 669.897,-245.918 744,-232 748.503,-231.154 753.158,-230.269 757.84,-229.37"/>
<polygon fill="midnightblue" stroke="midnightblue" points="526.945,-267.748 517.704,-272.93 528.16,-274.642 526.945,-267.748"/>
</g>
<!-- Node4&#45;&gt;Node19 -->
<g id="edge24" class="edge"><title>Node4&#45;&gt;Node19</title>
<path fill="none" stroke="midnightblue" d="M527.853,-276.578C611.25,-268.55 760.425,-252.795 887,-232 889.899,-231.524 892.861,-231.009 895.848,-230.468"/>
<polygon fill="midnightblue" stroke="midnightblue" points="527.389,-273.106 517.768,-277.542 528.055,-280.075 527.389,-273.106"/>
</g>
<!-- Node21 -->
<g id="node21" class="node"><title>Node21</title>
<g id="a_node21"><a xlink:href="station__list_8h.html" target="_top" xlink:title="D:/GIT/fhradiov2/system\l/station_list.h">
<polygon fill="white" stroke="black" points="0,-134.5 0,-164.5 120,-164.5 120,-134.5 0,-134.5"/>
<text text-anchor="start" x="8" y="-152.5" font-family="Helvetica,sans-Serif" font-size="10.00">D:/GIT/fhradiov2/system</text>
<text text-anchor="middle" x="60" y="-141.5" font-family="Helvetica,sans-Serif" font-size="10.00">/station_list.h</text>
</a>
</g>
</g>
<!-- Node4&#45;&gt;Node21 -->
<g id="edge27" class="edge"><title>Node4&#45;&gt;Node21</title>
<path fill="none" stroke="midnightblue" d="M398.244,-278.5C312.47,-272.057 166.958,-257.456 121,-232 92.2836,-216.094 69.9663,-183.537 61.7469,-164.743"/>
<polygon fill="midnightblue" stroke="midnightblue" points="398.168,-282.003 408.397,-279.245 398.681,-275.022 398.168,-282.003"/>
</g>
<!-- Node23 -->
<g id="node23" class="node"><title>Node23</title>
<g id="a_node23"><a xlink:href="station__list__struct_8h.html" target="_top" xlink:title="D:/GIT/fhradiov2/system\l/station_list_struct.h">
<polygon fill="white" stroke="black" points="139,-201.5 139,-231.5 259,-231.5 259,-201.5 139,-201.5"/>
<text text-anchor="start" x="147" y="-219.5" font-family="Helvetica,sans-Serif" font-size="10.00">D:/GIT/fhradiov2/system</text>
<text text-anchor="middle" x="199" y="-208.5" font-family="Helvetica,sans-Serif" font-size="10.00">/station_list_struct.h</text>
</a>
</g>
</g>
<!-- Node4&#45;&gt;Node23 -->
<g id="edge31" class="edge"><title>Node4&#45;&gt;Node23</title>
<path fill="none" stroke="midnightblue" d="M398.369,-266.587C354.776,-255.854 297.789,-241.823 255.911,-231.512"/>
<polygon fill="midnightblue" stroke="midnightblue" points="397.752,-270.04 408.299,-269.032 399.426,-263.243 397.752,-270.04"/>
</g>
<!-- Node5&#45;&gt;Node4 -->
<g id="edge9" class="edge"><title>Node5&#45;&gt;Node4</title>
<path fill="none" stroke="midnightblue" d="M602.383,-235.152C573.993,-245.595 537.124,-258.643 508.387,-268.396"/>
<polygon fill="midnightblue" stroke="midnightblue" points="603.881,-238.33 612.044,-231.577 601.451,-231.765 603.881,-238.33"/>
</g>
<!-- Node6 -->
<g id="node6" class="node"><title>Node6</title>
<g id="a_node6"><a xlink:href="menu__struct_8h.html" target="_top" xlink:title="D:/GIT/fhradiov2/menu\l/menu_struct.h">
<polygon fill="white" stroke="black" points="592,-134.5 592,-164.5 704,-164.5 704,-134.5 592,-134.5"/>
<text text-anchor="start" x="600" y="-152.5" font-family="Helvetica,sans-Serif" font-size="10.00">D:/GIT/fhradiov2/menu</text>
<text text-anchor="middle" x="648" y="-141.5" font-family="Helvetica,sans-Serif" font-size="10.00">/menu_struct.h</text>
</a>
</g>
</g>
<!-- Node5&#45;&gt;Node6 -->
<g id="edge5" class="edge"><title>Node5&#45;&gt;Node6</title>
<path fill="none" stroke="midnightblue" d="M640.196,-191.403C640.025,-182.37 640.622,-172.408 641.892,-164.577"/>
<polygon fill="midnightblue" stroke="midnightblue" points="636.702,-191.607 640.756,-201.396 643.691,-191.216 636.702,-191.607"/>
</g>
<!-- Node8 -->
<g id="node8" class="node"><title>Node8</title>
<g id="a_node8"><a xlink:href="menu_8c.html" target="_top" xlink:title="D:/GIT/fhradiov2/menu\l/src/menu.c">
<polygon fill="white" stroke="black" points="462,-134.5 462,-164.5 574,-164.5 574,-134.5 462,-134.5"/>
<text text-anchor="start" x="470" y="-152.5" font-family="Helvetica,sans-Serif" font-size="10.00">D:/GIT/fhradiov2/menu</text>
<text text-anchor="middle" x="518" y="-141.5" font-family="Helvetica,sans-Serif" font-size="10.00">/src/menu.c</text>
</a>
</g>
</g>
<!-- Node5&#45;&gt;Node8 -->
<g id="edge8" class="edge"><title>Node5&#45;&gt;Node8</title>
<path fill="none" stroke="midnightblue" d="M609.28,-196.853C589.042,-186.576 564.326,-174.025 545.72,-164.577"/>
<polygon fill="midnightblue" stroke="midnightblue" points="607.725,-199.989 618.226,-201.396 610.894,-193.747 607.725,-199.989"/>
</g>
<!-- Node5&#45;&gt;Node9 -->
<g id="edge10" class="edge"><title>Node5&#45;&gt;Node9</title>
<path fill="none" stroke="midnightblue" d="M684.724,-196.992C706.281,-186.689 732.689,-174.068 752.548,-164.577"/>
<polygon fill="midnightblue" stroke="midnightblue" points="683.023,-193.926 675.51,-201.396 686.042,-200.242 683.023,-193.926"/>
</g>
<!-- Node6&#45;&gt;Node5 -->
<g id="edge6" class="edge"><title>Node6&#45;&gt;Node5</title>
<path fill="none" stroke="midnightblue" d="M653.803,-174.565C653.976,-183.596 653.381,-193.56 652.112,-201.396"/>
<polygon fill="midnightblue" stroke="midnightblue" points="657.298,-174.364 653.242,-164.577 650.309,-174.757 657.298,-174.364"/>
</g>
<!-- Node7 -->
<g id="node7" class="node"><title>Node7</title>
<g id="a_node7"><a xlink:href="menu__struct_8c.html" target="_top" xlink:title="D:/GIT/fhradiov2/menu\l/src/menu_struct.c">
<polygon fill="white" stroke="black" points="592,-67.5 592,-97.5 704,-97.5 704,-67.5 592,-67.5"/>
<text text-anchor="start" x="600" y="-85.5" font-family="Helvetica,sans-Serif" font-size="10.00">D:/GIT/fhradiov2/menu</text>
<text text-anchor="middle" x="648" y="-74.5" font-family="Helvetica,sans-Serif" font-size="10.00">/src/menu_struct.c</text>
</a>
</g>
</g>
<!-- Node6&#45;&gt;Node7 -->
<g id="edge7" class="edge"><title>Node6&#45;&gt;Node7</title>
<path fill="none" stroke="midnightblue" d="M648,-124.108C648,-115.154 648,-105.323 648,-97.5765"/>
<polygon fill="midnightblue" stroke="midnightblue" points="644.5,-124.396 648,-134.396 651.5,-124.396 644.5,-124.396"/>
</g>
<!-- Node10 -->
<g id="node10" class="node"><title>Node10</title>
<g id="a_node10"><a xlink:href="main_8c.html" target="_top" xlink:title="D:/GIT/fhradiov2/main.c">
<polygon fill="white" stroke="black" points="860.5,-73 860.5,-92 977.5,-92 977.5,-73 860.5,-73"/>
<text text-anchor="middle" x="919" y="-80" font-family="Helvetica,sans-Serif" font-size="10.00">D:/GIT/fhradiov2/main.c</text>
</a>
</g>
</g>
<!-- Node9&#45;&gt;Node10 -->
<g id="edge11" class="edge"><title>Node9&#45;&gt;Node10</title>
<path fill="none" stroke="midnightblue" d="M821.061,-129.967C847.378,-117.481 880.855,-101.598 901.07,-92.007"/>
<polygon fill="midnightblue" stroke="midnightblue" points="819.261,-126.947 811.727,-134.396 822.262,-133.272 819.261,-126.947"/>
</g>
<!-- Node11 -->
<g id="node11" class="node"><title>Node11</title>
<g id="a_node11"><a xlink:href="handler_8c.html" target="_top" xlink:title="D:/GIT/fhradiov2/system\l/src/handler.c">
<polygon fill="white" stroke="black" points="722,-67.5 722,-97.5 842,-97.5 842,-67.5 722,-67.5"/>
<text text-anchor="start" x="730" y="-85.5" font-family="Helvetica,sans-Serif" font-size="10.00">D:/GIT/fhradiov2/system</text>
<text text-anchor="middle" x="782" y="-74.5" font-family="Helvetica,sans-Serif" font-size="10.00">/src/handler.c</text>
</a>
</g>
</g>
<!-- Node9&#45;&gt;Node11 -->
<g id="edge12" class="edge"><title>Node9&#45;&gt;Node11</title>
<path fill="none" stroke="midnightblue" d="M782,-124.108C782,-115.154 782,-105.323 782,-97.5765"/>
<polygon fill="midnightblue" stroke="midnightblue" points="778.5,-124.396 782,-134.396 785.5,-124.396 778.5,-124.396"/>
</g>
<!-- Node12&#45;&gt;Node4 -->
<g id="edge14" class="edge"><title>Node12&#45;&gt;Node4</title>
<path fill="none" stroke="midnightblue" d="M376.114,-235.978C397.637,-246.276 422.721,-258.899 440.47,-268.396"/>
<polygon fill="midnightblue" stroke="midnightblue" points="377.363,-232.697 366.828,-231.577 374.365,-239.023 377.363,-232.697"/>
</g>
<!-- Node13 -->
<g id="node13" class="node"><title>Node13</title>
<g id="a_node13"><a xlink:href="radio__display_8c.html" target="_top" xlink:title="D:/GIT/fhradiov2/radio\l/src/radio_display.c">
<polygon fill="white" stroke="black" points="278.5,-134.5 278.5,-164.5 387.5,-164.5 387.5,-134.5 278.5,-134.5"/>
<text text-anchor="start" x="286.5" y="-152.5" font-family="Helvetica,sans-Serif" font-size="10.00">D:/GIT/fhradiov2/radio</text>
<text text-anchor="middle" x="333" y="-141.5" font-family="Helvetica,sans-Serif" font-size="10.00">/src/radio_display.c</text>
</a>
</g>
</g>
<!-- Node12&#45;&gt;Node13 -->
<g id="edge15" class="edge"><title>Node12&#45;&gt;Node13</title>
<path fill="none" stroke="midnightblue" d="M333,-191.108C333,-182.154 333,-172.323 333,-164.577"/>
<polygon fill="midnightblue" stroke="midnightblue" points="329.5,-191.396 333,-201.396 336.5,-191.396 329.5,-191.396"/>
</g>
<!-- Node14&#45;&gt;Node4 -->
<g id="edge17" class="edge"><title>Node14&#45;&gt;Node4</title>
<path fill="none" stroke="midnightblue" d="M435.84,-107.634C443.954,-137.027 453.531,-188.182 462,-232 464.375,-244.285 467.143,-258.237 467.692,-268.358"/>
<polygon fill="midnightblue" stroke="midnightblue" points="439.132,-106.427 432.922,-97.8437 432.424,-108.427 439.132,-106.427"/>
</g>
<!-- Node15 -->
<g id="node15" class="node"><title>Node15</title>
<g id="a_node15"><a xlink:href="radio__settings_8c.html" target="_top" xlink:title="D:/GIT/fhradiov2/radio\l/src/radio_settings.c">
<polygon fill="white" stroke="black" points="370.5,-0.5 370.5,-30.5 479.5,-30.5 479.5,-0.5 370.5,-0.5"/>
<text text-anchor="start" x="378.5" y="-18.5" font-family="Helvetica,sans-Serif" font-size="10.00">D:/GIT/fhradiov2/radio</text>
<text text-anchor="middle" x="425" y="-7.5" font-family="Helvetica,sans-Serif" font-size="10.00">/src/radio_settings.c</text>
</a>
</g>
</g>
<!-- Node14&#45;&gt;Node15 -->
<g id="edge18" class="edge"><title>Node14&#45;&gt;Node15</title>
<path fill="none" stroke="midnightblue" d="M425,-57.1081C425,-48.1539 425,-38.3227 425,-30.5765"/>
<polygon fill="midnightblue" stroke="midnightblue" points="421.5,-57.3959 425,-67.396 428.5,-57.396 421.5,-57.3959"/>
</g>
<!-- Node17&#45;&gt;Node9 -->
<g id="edge22" class="edge"><title>Node17&#45;&gt;Node9</title>
<path fill="none" stroke="midnightblue" d="M805.303,-192.576C800.133,-183.241 794.322,-172.748 789.796,-164.577"/>
<polygon fill="midnightblue" stroke="midnightblue" points="802.282,-194.344 810.189,-201.396 808.405,-190.952 802.282,-194.344"/>
</g>
<!-- Node18 -->
<g id="node18" class="node"><title>Node18</title>
<g id="a_node18"><a xlink:href="rds_8c.html" target="_top" xlink:title="D:/GIT/fhradiov2/system\l/src/rds.c">
<polygon fill="white" stroke="black" points="860,-134.5 860,-164.5 980,-164.5 980,-134.5 860,-134.5"/>
<text text-anchor="start" x="868" y="-152.5" font-family="Helvetica,sans-Serif" font-size="10.00">D:/GIT/fhradiov2/system</text>
<text text-anchor="middle" x="920" y="-141.5" font-family="Helvetica,sans-Serif" font-size="10.00">/src/rds.c</text>
</a>
</g>
</g>
<!-- Node17&#45;&gt;Node18 -->
<g id="edge23" class="edge"><title>Node17&#45;&gt;Node18</title>
<path fill="none" stroke="midnightblue" d="M848.576,-196.015C864.449,-185.9 883.484,-173.77 897.911,-164.577"/>
<polygon fill="midnightblue" stroke="midnightblue" points="846.685,-193.07 840.132,-201.396 850.447,-198.973 846.685,-193.07"/>
</g>
<!-- Node19&#45;&gt;Node9 -->
<g id="edge25" class="edge"><title>Node19&#45;&gt;Node9</title>
<path fill="none" stroke="midnightblue" d="M908.668,-197.819C880.7,-187.371 845.773,-174.323 819.682,-164.577"/>
<polygon fill="midnightblue" stroke="midnightblue" points="907.652,-201.175 918.245,-201.396 910.102,-194.618 907.652,-201.175"/>
</g>
<!-- Node20 -->
<g id="node20" class="node"><title>Node20</title>
<g id="a_node20"><a xlink:href="rsq_8c.html" target="_top" xlink:title="D:/GIT/fhradiov2/system\l/src/rsq.c">
<polygon fill="white" stroke="black" points="998,-134.5 998,-164.5 1118,-164.5 1118,-134.5 998,-134.5"/>
<text text-anchor="start" x="1006" y="-152.5" font-family="Helvetica,sans-Serif" font-size="10.00">D:/GIT/fhradiov2/system</text>
<text text-anchor="middle" x="1058" y="-141.5" font-family="Helvetica,sans-Serif" font-size="10.00">/src/rsq.c</text>
</a>
</g>
</g>
<!-- Node19&#45;&gt;Node20 -->
<g id="edge26" class="edge"><title>Node19&#45;&gt;Node20</title>
<path fill="none" stroke="midnightblue" d="M986.576,-196.015C1002.45,-185.9 1021.48,-173.77 1035.91,-164.577"/>
<polygon fill="midnightblue" stroke="midnightblue" points="984.685,-193.07 978.132,-201.396 988.447,-198.973 984.685,-193.07"/>
</g>
<!-- Node21&#45;&gt;Node4 -->
<g id="edge28" class="edge"><title>Node21&#45;&gt;Node4</title>
<path fill="none" stroke="midnightblue" d="M79.9354,-172.888C94.0072,-191.891 114.097,-218.206 139,-232 184.652,-257.287 328.539,-271.862 408.423,-278.37"/>
<polygon fill="midnightblue" stroke="midnightblue" points="82.6644,-170.692 73.8978,-164.743 77.0408,-174.861 82.6644,-170.692"/>
</g>
<!-- Node21&#45;&gt;Node14 -->
<g id="edge29" class="edge"><title>Node21&#45;&gt;Node14</title>
<path fill="none" stroke="midnightblue" d="M130.261,-133.8C220.01,-116.852 312.994,-101.44 370.333,-92.1858"/>
<polygon fill="midnightblue" stroke="midnightblue" points="129.356,-130.409 120.184,-135.712 130.661,-137.286 129.356,-130.409"/>
</g>
<!-- Node22 -->
<g id="node22" class="node"><title>Node22</title>
<g id="a_node22"><a xlink:href="station__list_8c.html" target="_top" xlink:title="D:/GIT/fhradiov2/system\l/src/station_list.c">
<polygon fill="white" stroke="black" points="0,-67.5 0,-97.5 120,-97.5 120,-67.5 0,-67.5"/>
<text text-anchor="start" x="8" y="-85.5" font-family="Helvetica,sans-Serif" font-size="10.00">D:/GIT/fhradiov2/system</text>
<text text-anchor="middle" x="60" y="-74.5" font-family="Helvetica,sans-Serif" font-size="10.00">/src/station_list.c</text>
</a>
</g>
</g>
<!-- Node21&#45;&gt;Node22 -->
<g id="edge30" class="edge"><title>Node21&#45;&gt;Node22</title>
<path fill="none" stroke="midnightblue" d="M60,-124.108C60,-115.154 60,-105.323 60,-97.5765"/>
<polygon fill="midnightblue" stroke="midnightblue" points="56.5001,-124.396 60,-134.396 63.5001,-124.396 56.5001,-124.396"/>
</g>
<!-- Node23&#45;&gt;Node21 -->
<g id="edge33" class="edge"><title>Node23&#45;&gt;Node21</title>
<path fill="none" stroke="midnightblue" d="M159.718,-197.131C137.631,-186.802 110.49,-174.11 90.1021,-164.577"/>
<polygon fill="midnightblue" stroke="midnightblue" points="158.298,-200.33 168.839,-201.396 161.263,-193.989 158.298,-200.33"/>
</g>
<!-- Node24 -->
<g id="node24" class="node"><title>Node24</title>
<g id="a_node24"><a xlink:href="station__list__struct_8c.html" target="_top" xlink:title="D:/GIT/fhradiov2/system\l/src/station_list_struct.c">
<polygon fill="white" stroke="black" points="138,-134.5 138,-164.5 260,-164.5 260,-134.5 138,-134.5"/>
<text text-anchor="start" x="146" y="-152.5" font-family="Helvetica,sans-Serif" font-size="10.00">D:/GIT/fhradiov2/system</text>
<text text-anchor="middle" x="199" y="-141.5" font-family="Helvetica,sans-Serif" font-size="10.00">/src/station_list_struct.c</text>
</a>
</g>
</g>
<!-- Node23&#45;&gt;Node24 -->
<g id="edge32" class="edge"><title>Node23&#45;&gt;Node24</title>
<path fill="none" stroke="midnightblue" d="M199,-191.108C199,-182.154 199,-172.323 199,-164.577"/>
<polygon fill="midnightblue" stroke="midnightblue" points="195.5,-191.396 199,-201.396 202.5,-191.396 195.5,-191.396"/>
</g>
<!-- Node25&#45;&gt;Node4 -->
<g id="edge36" class="edge"><title>Node25&#45;&gt;Node4</title>
<path fill="none" stroke="midnightblue" d="M260.436,-397.005C235.738,-380.581 209.69,-356.405 227,-335 249.361,-307.348 345.833,-294.163 408.3,-288.418"/>
<polygon fill="midnightblue" stroke="midnightblue" points="258.725,-400.065 269.042,-402.474 262.479,-394.157 258.725,-400.065"/>
</g>
<!-- Node26 -->
<g id="node26" class="node"><title>Node26</title>
<g id="a_node26"><a xlink:href="pca9530_8c.html" target="_top" xlink:title="D:/GIT/fhradiov2/driver\l/src/pca9530.c">
<polygon fill="white" stroke="black" points="236,-335.5 236,-365.5 346,-365.5 346,-335.5 236,-335.5"/>
<text text-anchor="start" x="244" y="-353.5" font-family="Helvetica,sans-Serif" font-size="10.00">D:/GIT/fhradiov2/driver</text>
<text text-anchor="middle" x="291" y="-342.5" font-family="Helvetica,sans-Serif" font-size="10.00">/src/pca9530.c</text>
</a>
</g>
</g>
<!-- Node25&#45;&gt;Node26 -->
<g id="edge35" class="edge"><title>Node25&#45;&gt;Node26</title>
<path fill="none" stroke="midnightblue" d="M293.517,-392.403C292.961,-383.37 292.348,-373.408 291.866,-365.577"/>
<polygon fill="midnightblue" stroke="midnightblue" points="290.024,-392.63 294.132,-402.396 297.011,-392.2 290.024,-392.63"/>
</g>
<!-- Node28 -->
<g id="node28" class="node"><title>Node28</title>
<g id="a_node28"><a xlink:href="lcd_8h.html" target="_top" xlink:title="D:/GIT/fhradiov2/driver\l/lcd.h">
<polygon fill="white" stroke="black" points="658,-335.5 658,-365.5 768,-365.5 768,-335.5 658,-335.5"/>
<text text-anchor="start" x="666" y="-353.5" font-family="Helvetica,sans-Serif" font-size="10.00">D:/GIT/fhradiov2/driver</text>
<text text-anchor="middle" x="713" y="-342.5" font-family="Helvetica,sans-Serif" font-size="10.00">/lcd.h</text>
</a>
</g>
</g>
<!-- Node27&#45;&gt;Node28 -->
<g id="edge38" class="edge"><title>Node27&#45;&gt;Node28</title>
<path fill="none" stroke="midnightblue" d="M713,-392.108C713,-383.154 713,-373.323 713,-365.577"/>
<polygon fill="midnightblue" stroke="midnightblue" points="709.5,-392.396 713,-402.396 716.5,-392.396 709.5,-392.396"/>
</g>
<!-- Node30 -->
<g id="node30" class="node"><title>Node30</title>
<g id="a_node30"><a xlink:href="pca9534_8c.html" target="_top" xlink:title="D:/GIT/fhradiov2/driver\l/src/pca9534.c">
<polygon fill="white" stroke="black" points="530,-335.5 530,-365.5 640,-365.5 640,-335.5 530,-335.5"/>
<text text-anchor="start" x="538" y="-353.5" font-family="Helvetica,sans-Serif" font-size="10.00">D:/GIT/fhradiov2/driver</text>
<text text-anchor="middle" x="585" y="-342.5" font-family="Helvetica,sans-Serif" font-size="10.00">/src/pca9534.c</text>
</a>
</g>
</g>
<!-- Node27&#45;&gt;Node30 -->
<g id="edge42" class="edge"><title>Node27&#45;&gt;Node30</title>
<path fill="none" stroke="midnightblue" d="M676.28,-397.853C656.042,-387.576 631.326,-375.025 612.72,-365.577"/>
<polygon fill="midnightblue" stroke="midnightblue" points="674.725,-400.989 685.226,-402.396 677.894,-394.747 674.725,-400.989"/>
</g>
<!-- Node28&#45;&gt;Node4 -->
<g id="edge41" class="edge"><title>Node28&#45;&gt;Node4</title>
<path fill="none" stroke="midnightblue" d="M649.22,-332.917C608.423,-322.31 556.072,-308.699 517.273,-298.611"/>
<polygon fill="midnightblue" stroke="midnightblue" points="648.503,-336.347 659.062,-335.476 650.264,-329.572 648.503,-336.347"/>
</g>
<!-- Node28&#45;&gt;Node5 -->
<g id="edge40" class="edge"><title>Node28&#45;&gt;Node5</title>
<path fill="none" stroke="midnightblue" d="M677.137,-329.673C666.133,-321.67 655.28,-311.37 649,-299 638.104,-277.537 640.356,-248.64 643.099,-231.647"/>
<polygon fill="midnightblue" stroke="midnightblue" points="675.265,-332.632 685.507,-335.341 679.189,-326.836 675.265,-332.632"/>
</g>
<!-- Node29 -->
<g id="node29" class="node"><title>Node29</title>
<g id="a_node29"><a xlink:href="lcd_8c.html" target="_top" xlink:title="D:/GIT/fhradiov2/driver\l/src/lcd.c">
<polygon fill="white" stroke="black" points="658,-268.5 658,-298.5 768,-298.5 768,-268.5 658,-268.5"/>
<text text-anchor="start" x="666" y="-286.5" font-family="Helvetica,sans-Serif" font-size="10.00">D:/GIT/fhradiov2/driver</text>
<text text-anchor="middle" x="713" y="-275.5" font-family="Helvetica,sans-Serif" font-size="10.00">/src/lcd.c</text>
</a>
</g>
</g>
<!-- Node28&#45;&gt;Node29 -->
<g id="edge39" class="edge"><title>Node28&#45;&gt;Node29</title>
<path fill="none" stroke="midnightblue" d="M713,-325.108C713,-316.154 713,-306.323 713,-298.577"/>
<polygon fill="midnightblue" stroke="midnightblue" points="709.5,-325.396 713,-335.396 716.5,-325.396 709.5,-325.396"/>
</g>
<!-- Node31&#45;&gt;Node4 -->
<g id="edge45" class="edge"><title>Node31&#45;&gt;Node4</title>
<path fill="none" stroke="midnightblue" d="M813.613,-339.283C732.057,-326.54 594.088,-304.983 517.807,-293.064"/>
<polygon fill="midnightblue" stroke="midnightblue" points="813.338,-342.783 823.758,-340.869 814.419,-335.867 813.338,-342.783"/>
</g>
<!-- Node31&#45;&gt;Node17 -->
<g id="edge46" class="edge"><title>Node31&#45;&gt;Node17</title>
<path fill="none" stroke="midnightblue" d="M868.194,-326.116C855.516,-298.682 834.907,-254.086 824.481,-231.525"/>
<polygon fill="midnightblue" stroke="midnightblue" points="865.1,-327.764 872.472,-335.374 871.454,-324.828 865.1,-327.764"/>
</g>
<!-- Node31&#45;&gt;Node19 -->
<g id="edge47" class="edge"><title>Node31&#45;&gt;Node19</title>
<path fill="none" stroke="midnightblue" d="M877.941,-325.216C878.255,-308.135 880.889,-285.327 891,-268 900.003,-252.572 915.711,-240.17 929.43,-231.518"/>
<polygon fill="midnightblue" stroke="midnightblue" points="874.443,-325.523 878.014,-335.498 881.443,-325.473 874.443,-325.523"/>
</g>
<!-- Node32 -->
<g id="node32" class="node"><title>Node32</title>
<g id="a_node32"><a xlink:href="si4735_8c.html" target="_top" xlink:title="D:/GIT/fhradiov2/driver\l/src/si4735.c">
<polygon fill="white" stroke="black" points="900,-268.5 900,-298.5 1010,-298.5 1010,-268.5 900,-268.5"/>
<text text-anchor="start" x="908" y="-286.5" font-family="Helvetica,sans-Serif" font-size="10.00">D:/GIT/fhradiov2/driver</text>
<text text-anchor="middle" x="955" y="-275.5" font-family="Helvetica,sans-Serif" font-size="10.00">/src/si4735.c</text>
</a>
</g>
</g>
<!-- Node31&#45;&gt;Node32 -->
<g id="edge44" class="edge"><title>Node31&#45;&gt;Node32</title>
<path fill="none" stroke="midnightblue" d="M903.106,-328.883C914.655,-319.005 928.19,-307.429 938.541,-298.577"/>
<polygon fill="midnightblue" stroke="midnightblue" points="900.816,-326.236 895.491,-335.396 905.365,-331.556 900.816,-326.236"/>
</g>
<!-- Node34&#45;&gt;Node4 -->
<g id="edge51" class="edge"><title>Node34&#45;&gt;Node4</title>
<path fill="none" stroke="midnightblue" d="M497.411,-392.646C494.024,-376.264 488.976,-354.11 483,-335 479.116,-322.58 473.608,-308.875 469.355,-298.881"/>
<polygon fill="midnightblue" stroke="midnightblue" points="493.987,-393.374 499.39,-402.488 500.85,-391.994 493.987,-393.374"/>
</g>
<!-- Node35 -->
<g id="node35" class="node"><title>Node35</title>
<g id="a_node35"><a xlink:href="tpa2016d2_8c.html" target="_top" xlink:title="D:/GIT/fhradiov2/driver\l/src/tpa2016d2.c">
<polygon fill="white" stroke="black" points="364,-335.5 364,-365.5 474,-365.5 474,-335.5 364,-335.5"/>
<text text-anchor="start" x="372" y="-353.5" font-family="Helvetica,sans-Serif" font-size="10.00">D:/GIT/fhradiov2/driver</text>
<text text-anchor="middle" x="419" y="-342.5" font-family="Helvetica,sans-Serif" font-size="10.00">/src/tpa2016d2.c</text>
</a>
</g>
</g>
<!-- Node34&#45;&gt;Node35 -->
<g id="edge50" class="edge"><title>Node34&#45;&gt;Node35</title>
<path fill="none" stroke="midnightblue" d="M476.037,-396.168C463.345,-386.228 448.388,-374.514 436.975,-365.577"/>
<polygon fill="midnightblue" stroke="midnightblue" points="473.959,-398.986 483.99,-402.396 478.275,-393.475 473.959,-398.986"/>
</g>
</g>
</svg>
        <g id="navigator" transform="translate(0 0)" fill="#404254">
                <rect fill="#f2f5e9" fill-opacity="0.5" stroke="#606060" stroke-width=".5" x="0" y="0" width="60" height="60"/>
                <use id="zoomplus" xlink:href="#zoomPlus" x="17" y="9" onmousedown="handleZoom(evt,'in')"/>
                <use id="zoomminus" xlink:href="#zoomMin" x="42" y="9" onmousedown="handleZoom(evt,'out')"/>
                <use id="reset" xlink:href="#resetDef" x="30" y="36" onmousedown="handleReset()"/>
                <g id="arrowUp" xlink:href="#dirArrow" transform="translate(30 24)" onmousedown="handlePan(0,-1)">
                  <use xlink:href="#rim" fill="#404040">
                        <set attributeName="fill" to="#808080" begin="arrowUp.mouseover" end="arrowUp.mouseout"/>
                  </use>
                  <path fill="none" stroke="white" stroke-width="1.5" d="M0,-3.0v7 M-2.5,-0.5L0,-3.0L2.5,-0.5"/>
                </g>
                <g id="arrowRight" xlink:href="#dirArrow" transform="rotate(90) translate(36 -43)" onmousedown="handlePan(1,0)">
                  <use xlink:href="#rim" fill="#404040">
                        <set attributeName="fill" to="#808080" begin="arrowRight.mouseover" end="arrowRight.mouseout"/>
                  </use>
                  <path fill="none" stroke="white" stroke-width="1.5" d="M0,-3.0v7 M-2.5,-0.5L0,-3.0L2.5,-0.5"/>
                </g>
                <g id="arrowDown" xlink:href="#dirArrow" transform="rotate(180) translate(-30 -48)" onmousedown="handlePan(0,1)">
                  <use xlink:href="#rim" fill="#404040">
                        <set attributeName="fill" to="#808080" begin="arrowDown.mouseover" end="arrowDown.mouseout"/>
                  </use>
                  <path fill="none" stroke="white" stroke-width="1.5" d="M0,-3.0v7 M-2.5,-0.5L0,-3.0L2.5,-0.5"/>
                </g>
                <g id="arrowLeft" xlink:href="#dirArrow" transform="rotate(270) translate(-36 17)" onmousedown="handlePan(-1,0)">
                  <use xlink:href="#rim" fill="#404040">
                        <set attributeName="fill" to="#808080" begin="arrowLeft.mouseover" end="arrowLeft.mouseout"/>
                  </use>
                  <path fill="none" stroke="white" stroke-width="1.5" d="M0,-3.0v7 M-2.5,-0.5L0,-3.0L2.5,-0.5"/>
                </g>
        </g>
        <svg viewBox="0 0 15 15" width="100%" height="30px" preserveAspectRatio="xMaxYMin meet">
         <g id="arrow_out" transform="scale(0.3 0.3)">
          <a xlink:href="i2c_8h__dep__incl_org.svg" target="_base">
           <rect id="button" ry="5" rx="5" y="6" x="6" height="38" width="38"
                fill="#f2f5e9" fill-opacity="0.5" stroke="#606060" stroke-width="1.0"/>
           <path id="arrow"
             d="M 11.500037,31.436501 C 11.940474,20.09759 22.043105,11.32322 32.158766,21.979434 L 37.068811,17.246167 C 37.068811,17.246167 37.088388,32 37.088388,32 L 22.160133,31.978069 C 22.160133,31.978069 26.997745,27.140456 26.997745,27.140456 C 18.528582,18.264221 13.291696,25.230495 11.500037,31.436501 z"
             style="fill:#404040;"/>
          </a>
         </g>
        </svg>
</svg>
