<?xml version="1.0" encoding="UTF-8" standalone="no"?>
<!DOCTYPE svg PUBLIC "-//W3C//DTD SVG 1.1//EN"
 "http://www.w3.org/Graphics/SVG/1.1/DTD/svg11.dtd">
<!-- Generated by graphviz version 2.38.0 (20140413.2041)
 -->
<!-- Title: lcd_contrast Pages: 1 -->
<svg width="608pt" height="28pt"
 viewBox="0.00 0.00 608.00 28.00" xmlns="http://www.w3.org/2000/svg" xmlns:xlink="http://www.w3.org/1999/xlink">
<g id="graph0" class="graph" transform="scale(1 1) rotate(0) translate(4 24)">
<title>lcd_contrast</title>
<polygon fill="white" stroke="none" points="-4,4 -4,-24 604,-24 604,4 -4,4"/>
<!-- Node1 -->
<g id="node1" class="node"><title>Node1</title>
<polygon fill="#bfbfbf" stroke="black" points="0,-0.5 0,-19.5 70,-19.5 70,-0.5 0,-0.5"/>
<text text-anchor="middle" x="35" y="-7.5" font-family="Helvetica,sans-Serif" font-size="10.00">lcd_contrast</text>
</g>
<!-- Node2 -->
<g id="node2" class="node"><title>Node2</title>
<g id="a_node2"><a xlink:href="radio_8c.html#aaf3f53dfebe8da71fbe4c457ffda6714" target="_top" xlink:title="radio_contrast">
<polygon fill="white" stroke="black" points="106,-0.5 106,-19.5 184,-19.5 184,-0.5 106,-0.5"/>
<text text-anchor="middle" x="145" y="-7.5" font-family="Helvetica,sans-Serif" font-size="10.00">radio_contrast</text>
</a>
</g>
</g>
<!-- Node1&#45;&gt;Node2 -->
<g id="edge1" class="edge"><title>Node1&#45;&gt;Node2</title>
<path fill="none" stroke="midnightblue" d="M80.3149,-10C88.8133,-10 97.6426,-10 105.923,-10"/>
<polygon fill="midnightblue" stroke="midnightblue" points="80.1719,-6.5001 70.1719,-10 80.1718,-13.5001 80.1719,-6.5001"/>
</g>
<!-- Node3 -->
<g id="node3" class="node"><title>Node3</title>
<g id="a_node3"><a xlink:href="radio_8c.html#a832a684fc60104296fc975a7608f92b4" target="_top" xlink:title="radio_settings">
<polygon fill="white" stroke="black" points="220,-0.5 220,-19.5 297,-19.5 297,-0.5 220,-0.5"/>
<text text-anchor="middle" x="258.5" y="-7.5" font-family="Helvetica,sans-Serif" font-size="10.00">radio_settings</text>
</a>
</g>
</g>
<!-- Node2&#45;&gt;Node3 -->
<g id="edge2" class="edge"><title>Node2&#45;&gt;Node3</title>
<path fill="none" stroke="midnightblue" d="M194.074,-10C202.747,-10 211.672,-10 219.989,-10"/>
<polygon fill="midnightblue" stroke="midnightblue" points="194.06,-6.5001 184.06,-10 194.06,-13.5001 194.06,-6.5001"/>
</g>
<!-- Node4 -->
<g id="node4" class="node"><title>Node4</title>
<g id="a_node4"><a xlink:href="menu_8c.html#a5d9c190838195d7872fc7067269e20fa" target="_top" xlink:title="menu_function">
<polygon fill="white" stroke="black" points="333,-0.5 333,-19.5 413,-19.5 413,-0.5 333,-0.5"/>
<text text-anchor="middle" x="373" y="-7.5" font-family="Helvetica,sans-Serif" font-size="10.00">menu_function</text>
</a>
</g>
</g>
<!-- Node3&#45;&gt;Node4 -->
<g id="edge3" class="edge"><title>Node3&#45;&gt;Node4</title>
<path fill="none" stroke="midnightblue" d="M307.474,-10C315.985,-10 324.755,-10 332.981,-10"/>
<polygon fill="midnightblue" stroke="midnightblue" points="307.274,-6.5001 297.274,-10 307.274,-13.5001 307.274,-6.5001"/>
</g>
<!-- Node5 -->
<g id="node5" class="node"><title>Node5</title>
<g id="a_node5"><a xlink:href="menu_8c.html#aaf2a075d3159f7eeab42012941a3437f" target="_top" xlink:title="menu_handler">
<polygon fill="white" stroke="black" points="449,-0.5 449,-19.5 526,-19.5 526,-0.5 449,-0.5"/>
<text text-anchor="middle" x="487.5" y="-7.5" font-family="Helvetica,sans-Serif" font-size="10.00">menu_handler</text>
</a>
</g>
</g>
<!-- Node4&#45;&gt;Node5 -->
<g id="edge4" class="edge"><title>Node4&#45;&gt;Node5</title>
<path fill="none" stroke="midnightblue" d="M423.262,-10C431.783,-10 440.52,-10 448.676,-10"/>
<polygon fill="midnightblue" stroke="midnightblue" points="423.031,-6.5001 413.031,-10 423.031,-13.5001 423.031,-6.5001"/>
</g>
<!-- Node6 -->
<g id="node6" class="node"><title>Node6</title>
<g id="a_node6"><a xlink:href="main_8c.html#a840291bc02cba5474a4cb46a9b9566fe" target="_top" xlink:title="main">
<polygon fill="white" stroke="black" points="562,-0.5 562,-19.5 600,-19.5 600,-0.5 562,-0.5"/>
<text text-anchor="middle" x="581" y="-7.5" font-family="Helvetica,sans-Serif" font-size="10.00">main</text>
</a>
</g>
</g>
<!-- Node5&#45;&gt;Node6 -->
<g id="edge5" class="edge"><title>Node5&#45;&gt;Node6</title>
<path fill="none" stroke="midnightblue" d="M536.362,-10C545.347,-10 554.223,-10 561.601,-10"/>
<polygon fill="midnightblue" stroke="midnightblue" points="536.245,-6.5001 526.245,-10 536.245,-13.5001 536.245,-6.5001"/>
</g>
</g>
</svg>
