<?xml version="1.0" encoding="UTF-8" standalone="no"?>
<!DOCTYPE svg PUBLIC "-//W3C//DTD SVG 1.1//EN"
 "http://www.w3.org/Graphics/SVG/1.1/DTD/svg11.dtd">
<!-- Generated by graphviz version 2.38.0 (20140413.2041)
 -->
<!-- Title: D:/GIT/fhradiov2/driver/src/lcd.c Pages: 1 -->
<svg width="443pt" height="453pt"
 viewBox="0.00 0.00 442.50 453.00" xmlns="http://www.w3.org/2000/svg" xmlns:xlink="http://www.w3.org/1999/xlink">
<g id="graph0" class="graph" transform="scale(1 1) rotate(0) translate(4 449)">
<title>D:/GIT/fhradiov2/driver/src/lcd.c</title>
<polygon fill="white" stroke="none" points="-4,4 -4,-449 438.5,-449 438.5,4 -4,4"/>
<!-- Node1 -->
<g id="node1" class="node"><title>Node1</title>
<polygon fill="#bfbfbf" stroke="black" points="151,-414.5 151,-444.5 261,-444.5 261,-414.5 151,-414.5"/>
<text text-anchor="start" x="159" y="-432.5" font-family="Helvetica,sans-Serif" font-size="10.00">D:/GIT/fhradiov2/driver</text>
<text text-anchor="middle" x="206" y="-421.5" font-family="Helvetica,sans-Serif" font-size="10.00">/src/lcd.c</text>
</g>
<!-- Node2 -->
<g id="node2" class="node"><title>Node2</title>
<g id="a_node2"><a xlink:href="lcd_8h.html" target="_top" xlink:title="driver/lcd.h">
<polygon fill="white" stroke="black" points="174.5,-358.5 174.5,-377.5 237.5,-377.5 237.5,-358.5 174.5,-358.5"/>
<text text-anchor="middle" x="206" y="-365.5" font-family="Helvetica,sans-Serif" font-size="10.00">driver/lcd.h</text>
</a>
</g>
</g>
<!-- Node1&#45;&gt;Node2 -->
<g id="edge1" class="edge"><title>Node1&#45;&gt;Node2</title>
<path fill="none" stroke="midnightblue" d="M206,-414.399C206,-406.466 206,-396.458 206,-387.858"/>
<polygon fill="midnightblue" stroke="midnightblue" points="209.5,-387.658 206,-377.658 202.5,-387.658 209.5,-387.658"/>
</g>
<!-- Node3 -->
<g id="node3" class="node"><title>Node3</title>
<polygon fill="white" stroke="#bfbfbf" points="51.5,-0.5 51.5,-19.5 100.5,-19.5 100.5,-0.5 51.5,-0.5"/>
<text text-anchor="middle" x="76" y="-7.5" font-family="Helvetica,sans-Serif" font-size="10.00">stdint.h</text>
</g>
<!-- Node2&#45;&gt;Node3 -->
<g id="edge2" class="edge"><title>Node2&#45;&gt;Node3</title>
<path fill="none" stroke="midnightblue" d="M174.264,-363.097C116.479,-354.027 0,-325.843 0,-246 0,-246 0,-246 0,-132 0,-88.4754 35.699,-47.7746 58.1634,-26.4715"/>
<polygon fill="midnightblue" stroke="midnightblue" points="60.7341,-28.8634 65.7503,-19.5313 56.0094,-23.6984 60.7341,-28.8634"/>
</g>
<!-- Node4 -->
<g id="node4" class="node"><title>Node4</title>
<g id="a_node4"><a xlink:href="pca9534_8h.html" target="_top" xlink:title="driver/pca9534.h">
<polygon fill="white" stroke="black" points="90.5,-297 90.5,-316 177.5,-316 177.5,-297 90.5,-297"/>
<text text-anchor="middle" x="134" y="-304" font-family="Helvetica,sans-Serif" font-size="10.00">driver/pca9534.h</text>
</a>
</g>
</g>
<!-- Node2&#45;&gt;Node4 -->
<g id="edge3" class="edge"><title>Node2&#45;&gt;Node4</title>
<path fill="none" stroke="midnightblue" d="M195.684,-358.475C184.349,-349.108 165.927,-333.884 152.161,-322.508"/>
<polygon fill="midnightblue" stroke="midnightblue" points="154.235,-319.681 144.297,-316.009 149.776,-325.077 154.235,-319.681"/>
</g>
<!-- Node9 -->
<g id="node9" class="node"><title>Node9</title>
<g id="a_node9"><a xlink:href="timer_8h.html" target="_top" xlink:title="driver/timer.h">
<polygon fill="white" stroke="black" points="278,-179.5 278,-198.5 350,-198.5 350,-179.5 278,-179.5"/>
<text text-anchor="middle" x="314" y="-186.5" font-family="Helvetica,sans-Serif" font-size="10.00">driver/timer.h</text>
</a>
</g>
</g>
<!-- Node2&#45;&gt;Node9 -->
<g id="edge19" class="edge"><title>Node2&#45;&gt;Node9</title>
<path fill="none" stroke="midnightblue" d="M206.846,-358.084C208.537,-343.367 213.237,-313.395 225,-291 243.244,-256.267 275.832,-223.655 296.106,-205.319"/>
<polygon fill="midnightblue" stroke="midnightblue" points="298.547,-207.833 303.715,-198.584 293.907,-202.591 298.547,-207.833"/>
</g>
<!-- Node13 -->
<g id="node13" class="node"><title>Node13</title>
<g id="a_node13"><a xlink:href="lcd__commands_8h.html" target="_top" xlink:title="driver/include/lcd\l_commands.h">
<polygon fill="white" stroke="black" points="234.5,-291.5 234.5,-321.5 323.5,-321.5 323.5,-291.5 234.5,-291.5"/>
<text text-anchor="start" x="242.5" y="-309.5" font-family="Helvetica,sans-Serif" font-size="10.00">driver/include/lcd</text>
<text text-anchor="middle" x="279" y="-298.5" font-family="Helvetica,sans-Serif" font-size="10.00">_commands.h</text>
</a>
</g>
</g>
<!-- Node2&#45;&gt;Node13 -->
<g id="edge17" class="edge"><title>Node2&#45;&gt;Node13</title>
<path fill="none" stroke="midnightblue" d="M216.459,-358.475C226.161,-350.567 240.985,-338.485 253.766,-328.067"/>
<polygon fill="midnightblue" stroke="midnightblue" points="256.255,-330.554 261.795,-321.523 251.833,-325.128 256.255,-330.554"/>
</g>
<!-- Node14 -->
<g id="node14" class="node"><title>Node14</title>
<g id="a_node14"><a xlink:href="radio__pin__mapping_8h.html" target="_top" xlink:title="settings/radio_pin\l_mapping.h">
<polygon fill="white" stroke="black" points="341.5,-291.5 341.5,-321.5 434.5,-321.5 434.5,-291.5 341.5,-291.5"/>
<text text-anchor="start" x="349.5" y="-309.5" font-family="Helvetica,sans-Serif" font-size="10.00">settings/radio_pin</text>
<text text-anchor="middle" x="388" y="-298.5" font-family="Helvetica,sans-Serif" font-size="10.00">_mapping.h</text>
</a>
</g>
</g>
<!-- Node2&#45;&gt;Node14 -->
<g id="edge18" class="edge"><title>Node2&#45;&gt;Node14</title>
<path fill="none" stroke="midnightblue" d="M232.076,-358.475C258.914,-349.701 301.472,-335.788 335.351,-324.712"/>
<polygon fill="midnightblue" stroke="midnightblue" points="336.689,-327.957 345.106,-321.523 334.514,-321.304 336.689,-327.957"/>
</g>
<!-- Node4&#45;&gt;Node3 -->
<g id="edge4" class="edge"><title>Node4&#45;&gt;Node3</title>
<path fill="none" stroke="midnightblue" d="M119,-296.84C92,-280 38,-240.062 38,-190 38,-190 38,-190 38,-132 38,-93.8116 55.4417,-51.8296 66.692,-28.7224"/>
<polygon fill="midnightblue" stroke="midnightblue" points="69.9579,-30.0195 71.3405,-19.5153 63.7091,-26.8646 69.9579,-30.0195"/>
</g>
<!-- Node5 -->
<g id="node5" class="node"><title>Node5</title>
<g id="a_node5"><a xlink:href="i2c_8h.html" target="_top" xlink:title="I2C implemtation for MSP430G2553, interrupt based. &#160;&#160;This implemtation based on examples from Texas I...">
<polygon fill="white" stroke="black" points="108.5,-235.5 108.5,-254.5 171.5,-254.5 171.5,-235.5 108.5,-235.5"/>
<text text-anchor="middle" x="140" y="-242.5" font-family="Helvetica,sans-Serif" font-size="10.00">driver/i2c.h</text>
</a>
</g>
</g>
<!-- Node4&#45;&gt;Node5 -->
<g id="edge5" class="edge"><title>Node4&#45;&gt;Node5</title>
<path fill="none" stroke="midnightblue" d="M134.86,-296.975C135.706,-288.58 137.027,-275.481 138.118,-264.663"/>
<polygon fill="midnightblue" stroke="midnightblue" points="141.621,-264.81 139.142,-254.509 134.656,-264.107 141.621,-264.81"/>
</g>
<!-- Node5&#45;&gt;Node3 -->
<g id="edge6" class="edge"><title>Node5&#45;&gt;Node3</title>
<path fill="none" stroke="midnightblue" d="M135.178,-235.393C125.846,-218.333 105.329,-178.78 95,-143 83.6395,-103.648 78.9069,-55.6489 77.067,-29.7456"/>
<polygon fill="midnightblue" stroke="midnightblue" points="80.5435,-29.2653 76.4118,-19.5094 73.5578,-29.7126 80.5435,-29.2653"/>
</g>
<!-- Node6 -->
<g id="node6" class="node"><title>Node6</title>
<polygon fill="white" stroke="#bfbfbf" points="104.5,-123.5 104.5,-142.5 163.5,-142.5 163.5,-123.5 104.5,-123.5"/>
<text text-anchor="middle" x="134" y="-130.5" font-family="Helvetica,sans-Serif" font-size="10.00">msp430.h</text>
</g>
<!-- Node5&#45;&gt;Node6 -->
<g id="edge7" class="edge"><title>Node5&#45;&gt;Node6</title>
<path fill="none" stroke="midnightblue" d="M138.261,-235.419C136.528,-226.399 133.987,-211.77 133,-199 131.802,-183.509 132.182,-165.881 132.789,-152.894"/>
<polygon fill="midnightblue" stroke="midnightblue" points="136.287,-153.026 133.347,-142.847 129.298,-152.638 136.287,-153.026"/>
</g>
<!-- Node7 -->
<g id="node7" class="node"><title>Node7</title>
<polygon fill="white" stroke="#bfbfbf" points="142,-179.5 142,-198.5 190,-198.5 190,-179.5 142,-179.5"/>
<text text-anchor="middle" x="166" y="-186.5" font-family="Helvetica,sans-Serif" font-size="10.00">stdlib.h</text>
</g>
<!-- Node5&#45;&gt;Node7 -->
<g id="edge8" class="edge"><title>Node5&#45;&gt;Node7</title>
<path fill="none" stroke="midnightblue" d="M144.293,-235.083C147.852,-227.691 153.022,-216.953 157.424,-207.811"/>
<polygon fill="midnightblue" stroke="midnightblue" points="160.602,-209.279 161.787,-198.751 154.295,-206.243 160.602,-209.279"/>
</g>
<!-- Node8 -->
<g id="node8" class="node"><title>Node8</title>
<polygon fill="white" stroke="#bfbfbf" points="208,-179.5 208,-198.5 260,-198.5 260,-179.5 208,-179.5"/>
<text text-anchor="middle" x="234" y="-186.5" font-family="Helvetica,sans-Serif" font-size="10.00">stdarg.h</text>
</g>
<!-- Node5&#45;&gt;Node8 -->
<g id="edge9" class="edge"><title>Node5&#45;&gt;Node8</title>
<path fill="none" stroke="midnightblue" d="M155.103,-235.324C169.903,-226.822 192.694,-213.729 209.982,-203.797"/>
<polygon fill="midnightblue" stroke="midnightblue" points="212.007,-206.671 218.935,-198.655 208.52,-200.601 212.007,-206.671"/>
</g>
<!-- Node5&#45;&gt;Node9 -->
<g id="edge10" class="edge"><title>Node5&#45;&gt;Node9</title>
<path fill="none" stroke="midnightblue" d="M167.571,-235.444C197.097,-226.28 244.118,-211.688 276.883,-201.519"/>
<polygon fill="midnightblue" stroke="midnightblue" points="278.045,-204.823 286.558,-198.516 275.97,-198.138 278.045,-204.823"/>
</g>
<!-- Node9&#45;&gt;Node3 -->
<g id="edge12" class="edge"><title>Node9&#45;&gt;Node3</title>
<path fill="none" stroke="midnightblue" d="M296.36,-179.443C279.553,-171.005 253.801,-157.325 233,-143 178.514,-105.475 120.425,-52.8964 92.6583,-26.8758"/>
<polygon fill="midnightblue" stroke="midnightblue" points="94.7274,-24.016 85.052,-19.6991 89.9236,-29.1075 94.7274,-24.016"/>
</g>
<!-- Node9&#45;&gt;Node6 -->
<g id="edge11" class="edge"><title>Node9&#45;&gt;Node6</title>
<path fill="none" stroke="midnightblue" d="M285.478,-179.444C254.934,-170.28 206.292,-155.688 172.397,-145.519"/>
<polygon fill="midnightblue" stroke="midnightblue" points="172.972,-142.038 162.388,-142.516 170.961,-148.742 172.972,-142.038"/>
</g>
<!-- Node10 -->
<g id="node10" class="node"><title>Node10</title>
<g id="a_node10"><a xlink:href="radio__configuration_8h.html" target="_top" xlink:title="settings/radio_configuration.h">
<polygon fill="white" stroke="black" points="242.5,-123.5 242.5,-142.5 385.5,-142.5 385.5,-123.5 242.5,-123.5"/>
<text text-anchor="middle" x="314" y="-130.5" font-family="Helvetica,sans-Serif" font-size="10.00">settings/radio_configuration.h</text>
</a>
</g>
</g>
<!-- Node9&#45;&gt;Node10 -->
<g id="edge13" class="edge"><title>Node9&#45;&gt;Node10</title>
<path fill="none" stroke="midnightblue" d="M314,-179.083C314,-172.006 314,-161.861 314,-152.986"/>
<polygon fill="midnightblue" stroke="midnightblue" points="317.5,-152.751 314,-142.751 310.5,-152.751 317.5,-152.751"/>
</g>
<!-- Node11 -->
<g id="node11" class="node"><title>Node11</title>
<g id="a_node11"><a xlink:href="si4735__cmd__prop_8h.html" target="_top" xlink:title="driver/include/si4735\l_cmd_prop.h">
<polygon fill="white" stroke="black" points="220,-56.5 220,-86.5 324,-86.5 324,-56.5 220,-56.5"/>
<text text-anchor="start" x="228" y="-74.5" font-family="Helvetica,sans-Serif" font-size="10.00">driver/include/si4735</text>
<text text-anchor="middle" x="272" y="-63.5" font-family="Helvetica,sans-Serif" font-size="10.00">_cmd_prop.h</text>
</a>
</g>
</g>
<!-- Node10&#45;&gt;Node11 -->
<g id="edge14" class="edge"><title>Node10&#45;&gt;Node11</title>
<path fill="none" stroke="midnightblue" d="M307.982,-123.475C302.719,-116.019 294.837,-104.852 287.79,-94.8685"/>
<polygon fill="midnightblue" stroke="midnightblue" points="290.525,-92.6743 281.899,-86.523 284.806,-96.7111 290.525,-92.6743"/>
</g>
<!-- Node12 -->
<g id="node12" class="node"><title>Node12</title>
<g id="a_node12"><a xlink:href="libs_2time_8h.html" target="_top" xlink:title="libs/time.h">
<polygon fill="white" stroke="black" points="342,-62 342,-81 404,-81 404,-62 342,-62"/>
<text text-anchor="middle" x="373" y="-69" font-family="Helvetica,sans-Serif" font-size="10.00">libs/time.h</text>
</a>
</g>
</g>
<!-- Node10&#45;&gt;Node12 -->
<g id="edge16" class="edge"><title>Node10&#45;&gt;Node12</title>
<path fill="none" stroke="midnightblue" d="M322.453,-123.475C331.566,-114.285 346.27,-99.4563 357.476,-88.156"/>
<polygon fill="midnightblue" stroke="midnightblue" points="360.007,-90.5744 364.562,-81.0091 355.036,-85.6455 360.007,-90.5744"/>
</g>
<!-- Node11&#45;&gt;Node3 -->
<g id="edge15" class="edge"><title>Node11&#45;&gt;Node3</title>
<path fill="none" stroke="midnightblue" d="M225.551,-56.3993C190.208,-45.6702 142.359,-31.1447 110.398,-21.4424"/>
<polygon fill="midnightblue" stroke="midnightblue" points="111.201,-18.0285 100.616,-18.4726 109.168,-24.7266 111.201,-18.0285"/>
</g>
</g>
</svg>
