<?xml version="1.0" encoding="UTF-8" standalone="no"?>
<!DOCTYPE svg PUBLIC "-//W3C//DTD SVG 1.1//EN"
 "http://www.w3.org/Graphics/SVG/1.1/DTD/svg11.dtd">
<!-- Generated by graphviz version 2.38.0 (20140413.2041)
 -->
<!-- Title: menu_display Pages: 1 -->
<svg width="779pt" height="66pt"
 viewBox="0.00 0.00 779.00 66.00" xmlns="http://www.w3.org/2000/svg" xmlns:xlink="http://www.w3.org/1999/xlink">
<g id="graph0" class="graph" transform="scale(1 1) rotate(0) translate(4 62)">
<title>menu_display</title>
<polygon fill="white" stroke="none" points="-4,4 -4,-62 775,-62 775,4 -4,4"/>
<!-- Node1 -->
<g id="node1" class="node"><title>Node1</title>
<polygon fill="#bfbfbf" stroke="black" points="0,-19.5 0,-38.5 77,-38.5 77,-19.5 0,-19.5"/>
<text text-anchor="middle" x="38.5" y="-26.5" font-family="Helvetica,sans-Serif" font-size="10.00">menu_display</text>
</g>
<!-- Node2 -->
<g id="node2" class="node"><title>Node2</title>
<g id="a_node2"><a xlink:href="lcd_8h.html#acd63fb85d212730fa4fcbcbeeccd231e" target="_top" xlink:title="lcd_create_view">
<polygon fill="white" stroke="black" points="113,-19.5 113,-38.5 198,-38.5 198,-19.5 113,-19.5"/>
<text text-anchor="middle" x="155.5" y="-26.5" font-family="Helvetica,sans-Serif" font-size="10.00">lcd_create_view</text>
</a>
</g>
</g>
<!-- Node1&#45;&gt;Node2 -->
<g id="edge1" class="edge"><title>Node1&#45;&gt;Node2</title>
<path fill="none" stroke="midnightblue" d="M77.1553,-29C85.3476,-29 94.1525,-29 102.782,-29"/>
<polygon fill="midnightblue" stroke="midnightblue" points="102.784,-32.5001 112.784,-29 102.784,-25.5001 102.784,-32.5001"/>
</g>
<!-- Node3 -->
<g id="node3" class="node"><title>Node3</title>
<g id="a_node3"><a xlink:href="lcd_8c.html#a2a4df97ebc5b396233aa31765228ef42" target="_top" xlink:title="lcd_set_courser">
<polygon fill="white" stroke="black" points="234,-38.5 234,-57.5 320,-57.5 320,-38.5 234,-38.5"/>
<text text-anchor="middle" x="277" y="-45.5" font-family="Helvetica,sans-Serif" font-size="10.00">lcd_set_courser</text>
</a>
</g>
</g>
<!-- Node2&#45;&gt;Node3 -->
<g id="edge2" class="edge"><title>Node2&#45;&gt;Node3</title>
<path fill="none" stroke="midnightblue" d="M198.295,-35.6453C206.43,-36.9386 215.054,-38.3098 223.483,-39.65"/>
<polygon fill="midnightblue" stroke="midnightblue" points="223.196,-43.1483 233.622,-41.262 224.295,-36.2351 223.196,-43.1483"/>
</g>
<!-- Node9 -->
<g id="node9" class="node"><title>Node9</title>
<g id="a_node9"><a xlink:href="lcd_8c.html#aa6e1aa2ef9b677e16d8198df683429ec" target="_top" xlink:title="lcd_write_string">
<polygon fill="white" stroke="black" points="356,-0.5 356,-19.5 440,-19.5 440,-0.5 356,-0.5"/>
<text text-anchor="middle" x="398" y="-7.5" font-family="Helvetica,sans-Serif" font-size="10.00">lcd_write_string</text>
</a>
</g>
</g>
<!-- Node2&#45;&gt;Node9 -->
<g id="edge9" class="edge"><title>Node2&#45;&gt;Node9</title>
<path fill="none" stroke="midnightblue" d="M198.117,-25.7121C239.066,-22.4771 301.678,-17.5307 345.687,-14.0538"/>
<polygon fill="midnightblue" stroke="midnightblue" points="346.199,-17.5244 355.892,-13.2476 345.647,-10.5461 346.199,-17.5244"/>
</g>
<!-- Node4 -->
<g id="node4" class="node"><title>Node4</title>
<g id="a_node4"><a xlink:href="lcd_8c.html#a250728451a22259562d3f01a12bbd77b" target="_top" xlink:title="lcd_command">
<polygon fill="white" stroke="black" points="359.5,-38.5 359.5,-57.5 436.5,-57.5 436.5,-38.5 359.5,-38.5"/>
<text text-anchor="middle" x="398" y="-45.5" font-family="Helvetica,sans-Serif" font-size="10.00">lcd_command</text>
</a>
</g>
</g>
<!-- Node3&#45;&gt;Node4 -->
<g id="edge3" class="edge"><title>Node3&#45;&gt;Node4</title>
<path fill="none" stroke="midnightblue" d="M320.29,-48C329.611,-48 339.549,-48 349.075,-48"/>
<polygon fill="midnightblue" stroke="midnightblue" points="349.202,-51.5001 359.202,-48 349.202,-44.5001 349.202,-51.5001"/>
</g>
<!-- Node5 -->
<g id="node5" class="node"><title>Node5</title>
<g id="a_node5"><a xlink:href="i2c_8h.html#a6691e5911f539e1e8178c6e983e8079a" target="_top" xlink:title="Transmits I2C commands with a variable length to a I2C slave. ">
<polygon fill="white" stroke="black" points="476,-0.5 476,-19.5 548,-19.5 548,-0.5 476,-0.5"/>
<text text-anchor="middle" x="512" y="-7.5" font-family="Helvetica,sans-Serif" font-size="10.00">i2c_write_var</text>
</a>
</g>
</g>
<!-- Node4&#45;&gt;Node5 -->
<g id="edge4" class="edge"><title>Node4&#45;&gt;Node5</title>
<path fill="none" stroke="midnightblue" d="M427.262,-38.411C441.19,-33.6856 458.18,-27.9211 473.207,-22.8226"/>
<polygon fill="midnightblue" stroke="midnightblue" points="474.401,-26.1134 482.747,-19.5859 472.152,-19.4845 474.401,-26.1134"/>
</g>
<!-- Node8 -->
<g id="node8" class="node"><title>Node8</title>
<g id="a_node8"><a xlink:href="timer_8c.html#a276d5cb665b9f8b2c79e53e2f2c5b4f0" target="_top" xlink:title="_delay_ms">
<polygon fill="white" stroke="black" points="587.5,-38.5 587.5,-57.5 651.5,-57.5 651.5,-38.5 587.5,-38.5"/>
<text text-anchor="middle" x="619.5" y="-45.5" font-family="Helvetica,sans-Serif" font-size="10.00">_delay_ms</text>
</a>
</g>
</g>
<!-- Node4&#45;&gt;Node8 -->
<g id="edge7" class="edge"><title>Node4&#45;&gt;Node8</title>
<path fill="none" stroke="midnightblue" d="M436.733,-48C475.861,-48 536.853,-48 577.237,-48"/>
<polygon fill="midnightblue" stroke="midnightblue" points="577.287,-51.5001 587.287,-48 577.287,-44.5001 577.287,-51.5001"/>
</g>
<!-- Node6 -->
<g id="node6" class="node"><title>Node6</title>
<g id="a_node6"><a xlink:href="i2c_8c.html#ae0625b97d3437bcaca4ac4b96dd01978" target="_top" xlink:title="Transmits I2C command array to a I2C slave. ">
<polygon fill="white" stroke="black" points="584,-0.5 584,-19.5 655,-19.5 655,-0.5 584,-0.5"/>
<text text-anchor="middle" x="619.5" y="-7.5" font-family="Helvetica,sans-Serif" font-size="10.00">i2c_write_arr</text>
</a>
</g>
</g>
<!-- Node5&#45;&gt;Node6 -->
<g id="edge5" class="edge"><title>Node5&#45;&gt;Node6</title>
<path fill="none" stroke="midnightblue" d="M548.13,-10C556.312,-10 565.133,-10 573.671,-10"/>
<polygon fill="midnightblue" stroke="midnightblue" points="573.882,-13.5001 583.882,-10 573.882,-6.5001 573.882,-13.5001"/>
</g>
<!-- Node7 -->
<g id="node7" class="node"><title>Node7</title>
<g id="a_node7"><a xlink:href="timer_8c.html#a3c56af3315c2461dec5ced585a5f84db" target="_top" xlink:title="_delay_ten_us">
<polygon fill="white" stroke="black" points="691,-19.5 691,-38.5 771,-38.5 771,-19.5 691,-19.5"/>
<text text-anchor="middle" x="731" y="-26.5" font-family="Helvetica,sans-Serif" font-size="10.00">_delay_ten_us</text>
</a>
</g>
</g>
<!-- Node6&#45;&gt;Node7 -->
<g id="edge6" class="edge"><title>Node6&#45;&gt;Node7</title>
<path fill="none" stroke="midnightblue" d="M655.146,-16.0117C663.253,-17.4183 672.042,-18.9433 680.651,-20.4371"/>
<polygon fill="midnightblue" stroke="midnightblue" points="680.172,-23.9062 690.623,-22.1674 681.368,-17.0092 680.172,-23.9062"/>
</g>
<!-- Node8&#45;&gt;Node7 -->
<g id="edge8" class="edge"><title>Node8&#45;&gt;Node7</title>
<path fill="none" stroke="midnightblue" d="M651.585,-42.6062C660.595,-41.0428 670.664,-39.2957 680.505,-37.5882"/>
<polygon fill="midnightblue" stroke="midnightblue" points="681.368,-40.9908 690.623,-35.8326 680.172,-34.0938 681.368,-40.9908"/>
</g>
<!-- Node9&#45;&gt;Node5 -->
<g id="edge10" class="edge"><title>Node9&#45;&gt;Node5</title>
<path fill="none" stroke="midnightblue" d="M440.069,-10C448.413,-10 457.234,-10 465.715,-10"/>
<polygon fill="midnightblue" stroke="midnightblue" points="465.836,-13.5001 475.836,-10 465.836,-6.5001 465.836,-13.5001"/>
</g>
</g>
</svg>
