<?xml version="1.0" encoding="UTF-8" standalone="no"?>
<!DOCTYPE svg PUBLIC "-//W3C//DTD SVG 1.1//EN"
 "http://www.w3.org/Graphics/SVG/1.1/DTD/svg11.dtd">
<!-- Generated by graphviz version 2.38.0 (20140413.2041)
 -->
<!-- Title: menu_handler Pages: 1 -->
<!--zoomable 690 -->
<svg id="main" version="1.1" xmlns="http://www.w3.org/2000/svg" xmlns:xlink="http://www.w3.org/1999/xlink" xml:space="preserve" onload="init(evt)">
<style type="text/css"><![CDATA[
.edge:hover path { stroke: red; }
.edge:hover polygon { stroke: red; fill: red; }
]]></style>
<script type="text/javascript"><![CDATA[
var edges = document.getElementsByTagName('g');
if (edges && edges.length) {
  for (var i=0;i<edges.length;i++) {
    if (edges[i].id.substr(0,4)=='edge') {
      edges[i].setAttribute('class','edge');
    }
  }
}
]]></script>
        <defs>
                <circle id="rim" cx="0" cy="0" r="7"/>
                <circle id="rim2" cx="0" cy="0" r="3.5"/>
                <g id="zoomPlus">
                        <use xlink:href="#rim" fill="#404040">
                                <set attributeName="fill" to="#808080" begin="zoomplus.mouseover" end="zoomplus.mouseout"/>
                        </use>
                        <path d="M-4,0h8M0,-4v8" fill="none" stroke="white" stroke-width="1.5" pointer-events="none"/>
                </g>
                <g id="zoomMin">
                        <use xlink:href="#rim" fill="#404040">
                                <set attributeName="fill" to="#808080" begin="zoomminus.mouseover" end="zoomminus.mouseout"/>
                        </use>
                        <path d="M-4,0h8" fill="none" stroke="white" stroke-width="1.5" pointer-events="none"/>
                </g>
                <g id="dirArrow">
                        <path fill="none" stroke="white" stroke-width="1.5" d="M0,-3.0v7 M-2.5,-0.5L0,-3.0L2.5,-0.5"/>
                </g>
               <g id="resetDef">
                       <use xlink:href="#rim2" fill="#404040">
                               <set attributeName="fill" to="#808080" begin="reset.mouseover" end="reset.mouseout"/>
                       </use>
               </g>
        </defs>

<script type="text/javascript">
var viewWidth = 1516;
var viewHeight = 690;
var sectionId = 'dynsection-5';
</script>
<script xlink:href="svgpan.js"/>
<svg id="graph" class="graph">
<g id="viewport">
<title>menu_handler</title>
<polygon fill="white" stroke="none" points="-4,4 -4,-685.523 1512,-685.523 1512,4 -4,4"/>
<!-- Node1 -->
<g id="node1" class="node"><title>Node1</title>
<polygon fill="#bfbfbf" stroke="black" points="0,-99.3732 0,-118.373 77,-118.373 77,-99.3732 0,-99.3732"/>
<text text-anchor="middle" x="38.5" y="-106.373" font-family="Helvetica,sans-Serif" font-size="10.00">menu_handler</text>
</g>
<!-- Node2 -->
<g id="node2" class="node"><title>Node2</title>
<g id="a_node2"><a xlink:href="menu_2src_2menu_8c.html#a5d9c190838195d7872fc7067269e20fa" target="_top" xlink:title="menu_function">
<polygon fill="white" stroke="black" points="113,-147.373 113,-166.373 193,-166.373 193,-147.373 113,-147.373"/>
<text text-anchor="middle" x="153" y="-154.373" font-family="Helvetica,sans-Serif" font-size="10.00">menu_function</text>
</a>
</g>
</g>
<!-- Node1&#45;&gt;Node2 -->
<g id="edge1" class="edge"><title>Node1&#45;&gt;Node2</title>
<path fill="none" stroke="midnightblue" d="M61.9957,-118.471C78.7044,-125.6 101.719,-135.42 120.292,-143.345"/>
<polygon fill="midnightblue" stroke="midnightblue" points="118.972,-146.586 129.543,-147.292 121.719,-140.148 118.972,-146.586"/>
</g>
<!-- Node38 -->
<g id="node38" class="node"><title>Node38</title>
<g id="a_node38"><a xlink:href="menu_2src_2menu_8c.html#a5ca9d2cf65ffedfb30889ee21a6f7f3d" target="_top" xlink:title="menu_display">
<polygon fill="white" stroke="black" points="229,-24.3732 229,-43.3732 306,-43.3732 306,-24.3732 229,-24.3732"/>
<text text-anchor="middle" x="267.5" y="-31.3732" font-family="Helvetica,sans-Serif" font-size="10.00">menu_display</text>
</a>
</g>
</g>
<!-- Node1&#45;&gt;Node38 -->
<g id="edge54" class="edge"><title>Node1&#45;&gt;Node38</title>
<path fill="none" stroke="midnightblue" d="M68.7116,-99.2218C109.234,-85.8334 182.594,-61.5953 227.682,-46.6985"/>
<polygon fill="midnightblue" stroke="midnightblue" points="229.003,-49.9481 237.401,-43.4876 226.807,-43.3015 229.003,-49.9481"/>
</g>
<!-- Node3 -->
<g id="node3" class="node"><title>Node3</title>
<g id="a_node3"><a xlink:href="radio_8h.html#a5f7fcd9e9755fb5e22175a4ad74a5456" target="_top" xlink:title="radio_main">
<polygon fill="white" stroke="black" points="362,-432.373 362,-451.373 426,-451.373 426,-432.373 362,-432.373"/>
<text text-anchor="middle" x="394" y="-439.373" font-family="Helvetica,sans-Serif" font-size="10.00">radio_main</text>
</a>
</g>
</g>
<!-- Node2&#45;&gt;Node3 -->
<g id="edge2" class="edge"><title>Node2&#45;&gt;Node3</title>
<path fill="none" stroke="midnightblue" d="M162.227,-166.684C197.132,-208.307 333.252,-370.625 378.376,-424.435"/>
<polygon fill="midnightblue" stroke="midnightblue" points="375.7,-426.691 384.808,-432.104 381.064,-422.193 375.7,-426.691"/>
</g>
<!-- Node26 -->
<g id="node26" class="node"><title>Node26</title>
<g id="a_node26"><a xlink:href="radio_8h.html#a832a684fc60104296fc975a7608f92b4" target="_top" xlink:title="radio_settings">
<polygon fill="white" stroke="black" points="229,-147.373 229,-166.373 306,-166.373 306,-147.373 229,-147.373"/>
<text text-anchor="middle" x="267.5" y="-154.373" font-family="Helvetica,sans-Serif" font-size="10.00">radio_settings</text>
</a>
</g>
</g>
<!-- Node2&#45;&gt;Node26 -->
<g id="edge34" class="edge"><title>Node2&#45;&gt;Node26</title>
<path fill="none" stroke="midnightblue" d="M193.031,-156.873C201.243,-156.873 209.996,-156.873 218.493,-156.873"/>
<polygon fill="midnightblue" stroke="midnightblue" points="218.676,-160.373 228.676,-156.873 218.676,-153.373 218.676,-160.373"/>
</g>
<!-- Node4 -->
<g id="node4" class="node"><title>Node4</title>
<g id="a_node4"><a xlink:href="radio_8c.html#a9e674807004c71581139b5568db18270" target="_top" xlink:title="radio_set_volume">
<polygon fill="white" stroke="black" points="491,-555.373 491,-574.373 583,-574.373 583,-555.373 491,-555.373"/>
<text text-anchor="middle" x="537" y="-562.373" font-family="Helvetica,sans-Serif" font-size="10.00">radio_set_volume</text>
</a>
</g>
</g>
<!-- Node3&#45;&gt;Node4 -->
<g id="edge3" class="edge"><title>Node3&#45;&gt;Node4</title>
<path fill="none" stroke="midnightblue" d="M403.936,-451.568C419.209,-467.912 451.633,-501.632 482,-526.873 491.584,-534.84 502.767,-542.893 512.462,-549.523"/>
<polygon fill="midnightblue" stroke="midnightblue" points="510.608,-552.494 520.859,-555.168 514.513,-546.684 510.608,-552.494"/>
</g>
<!-- Node13 -->
<g id="node13" class="node"><title>Node13</title>
<g id="a_node13"><a xlink:href="radio_8c.html#a6d652e9d0f1c54bfe9ec73fe2605b706" target="_top" xlink:title="radio_tune_freq">
<polygon fill="white" stroke="black" points="495.5,-498.373 495.5,-517.373 578.5,-517.373 578.5,-498.373 495.5,-498.373"/>
<text text-anchor="middle" x="537" y="-505.373" font-family="Helvetica,sans-Serif" font-size="10.00">radio_tune_freq</text>
</a>
</g>
</g>
<!-- Node3&#45;&gt;Node13 -->
<g id="edge13" class="edge"><title>Node3&#45;&gt;Node13</title>
<path fill="none" stroke="midnightblue" d="M415.503,-451.47C439.416,-462.664 479.141,-481.258 506.398,-494.017"/>
<polygon fill="midnightblue" stroke="midnightblue" points="504.932,-497.195 515.473,-498.265 507.9,-490.855 504.932,-497.195"/>
</g>
<!-- Node16 -->
<g id="node16" class="node"><title>Node16</title>
<g id="a_node16"><a xlink:href="radio_8c.html#aa568d26c43f1503a5f31c86aab080591" target="_top" xlink:title="radio_display_handler">
<polygon fill="white" stroke="black" points="482,-375.373 482,-394.373 592,-394.373 592,-375.373 482,-375.373"/>
<text text-anchor="middle" x="537" y="-382.373" font-family="Helvetica,sans-Serif" font-size="10.00">radio_display_handler</text>
</a>
</g>
</g>
<!-- Node3&#45;&gt;Node16 -->
<g id="edge20" class="edge"><title>Node3&#45;&gt;Node16</title>
<path fill="none" stroke="midnightblue" d="M418.6,-432.333C441.68,-423.003 477.031,-408.712 502.913,-398.249"/>
<polygon fill="midnightblue" stroke="midnightblue" points="504.363,-401.438 512.323,-394.445 501.74,-394.948 504.363,-401.438"/>
</g>
<!-- Node5 -->
<g id="node5" class="node"><title>Node5</title>
<g id="a_node5"><a xlink:href="external__interrupthandler_8h.html#a345dfb9a7e177c5da6eb9dc5b3c82bc9" target="_top" xlink:title="ext_interrupt_enable">
<polygon fill="white" stroke="black" points="629.5,-565.373 629.5,-584.373 733.5,-584.373 733.5,-565.373 629.5,-565.373"/>
<text text-anchor="middle" x="681.5" y="-572.373" font-family="Helvetica,sans-Serif" font-size="10.00">ext_interrupt_enable</text>
</a>
</g>
</g>
<!-- Node4&#45;&gt;Node5 -->
<g id="edge4" class="edge"><title>Node4&#45;&gt;Node5</title>
<path fill="none" stroke="midnightblue" d="M583.088,-568.037C594.554,-568.842 607.071,-569.72 619.195,-570.571"/>
<polygon fill="midnightblue" stroke="midnightblue" points="619.035,-574.068 629.256,-571.277 619.525,-567.086 619.035,-574.068"/>
</g>
<!-- Node6 -->
<g id="node6" class="node"><title>Node6</title>
<g id="a_node6"><a xlink:href="si4735_8h.html#aadc29a91f13cd5ebe239b23c7e5370dc" target="_top" xlink:title="si4735_set_property">
<polygon fill="white" stroke="black" points="629.5,-641.373 629.5,-660.373 733.5,-660.373 733.5,-641.373 629.5,-641.373"/>
<text text-anchor="middle" x="681.5" y="-648.373" font-family="Helvetica,sans-Serif" font-size="10.00">si4735_set_property</text>
</a>
</g>
</g>
<!-- Node4&#45;&gt;Node6 -->
<g id="edge5" class="edge"><title>Node4&#45;&gt;Node6</title>
<path fill="none" stroke="midnightblue" d="M550.365,-574.426C567.307,-587.271 598.954,-610.396 628,-626.873 634.267,-630.428 641.154,-633.879 647.819,-637.004"/>
<polygon fill="midnightblue" stroke="midnightblue" points="646.775,-640.374 657.327,-641.324 649.67,-634.001 646.775,-640.374"/>
</g>
<!-- Node11 -->
<g id="node11" class="node"><title>Node11</title>
<g id="a_node11"><a xlink:href="external__interrupthandler_8h.html#a67fb5781413cf5c193be332cc6e52209" target="_top" xlink:title="ext_interrupt_disable">
<polygon fill="white" stroke="black" points="628,-527.373 628,-546.373 735,-546.373 735,-527.373 628,-527.373"/>
<text text-anchor="middle" x="681.5" y="-534.373" font-family="Helvetica,sans-Serif" font-size="10.00">ext_interrupt_disable</text>
</a>
</g>
</g>
<!-- Node4&#45;&gt;Node11 -->
<g id="edge10" class="edge"><title>Node4&#45;&gt;Node11</title>
<path fill="none" stroke="midnightblue" d="M583.088,-556.014C595.312,-553.612 608.73,-550.975 621.594,-548.448"/>
<polygon fill="midnightblue" stroke="midnightblue" points="622.621,-551.813 631.759,-546.45 621.271,-544.944 622.621,-551.813"/>
</g>
<!-- Node12 -->
<g id="node12" class="node"><title>Node12</title>
<g id="a_node12"><a xlink:href="timer_8c.html#a276d5cb665b9f8b2c79e53e2f2c5b4f0" target="_top" xlink:title="_delay_ms">
<polygon fill="white" stroke="black" points="1217,-318.373 1217,-337.373 1281,-337.373 1281,-318.373 1217,-318.373"/>
<text text-anchor="middle" x="1249" y="-325.373" font-family="Helvetica,sans-Serif" font-size="10.00">_delay_ms</text>
</a>
</g>
</g>
<!-- Node4&#45;&gt;Node12 -->
<g id="edge11" class="edge"><title>Node4&#45;&gt;Node12</title>
<path fill="none" stroke="midnightblue" d="M562.829,-574.463C580.69,-580.967 605.497,-589.202 628,-593.873 712.826,-611.481 735.365,-612.873 822,-612.873 822,-612.873 822,-612.873 985,-612.873 1129.79,-612.873 1216.92,-411.742 1241.08,-347.41"/>
<polygon fill="midnightblue" stroke="midnightblue" points="1244.49,-348.277 1244.64,-337.684 1237.92,-345.871 1244.49,-348.277"/>
</g>
<!-- Node7 -->
<g id="node7" class="node"><title>Node7</title>
<g id="a_node7"><a xlink:href="i2c_8h.html#a6691e5911f539e1e8178c6e983e8079a" target="_top" xlink:title="Transmits I2C commands with a variable length to a I2C slave. ">
<polygon fill="white" stroke="black" points="1213,-280.373 1213,-299.373 1285,-299.373 1285,-280.373 1213,-280.373"/>
<text text-anchor="middle" x="1249" y="-287.373" font-family="Helvetica,sans-Serif" font-size="10.00">i2c_write_var</text>
</a>
</g>
</g>
<!-- Node6&#45;&gt;Node7 -->
<g id="edge6" class="edge"><title>Node6&#45;&gt;Node7</title>
<path fill="none" stroke="midnightblue" d="M706.7,-660.41C744.295,-673.683 818.3,-693.578 875,-669.873 1051.29,-596.17 1056.97,-512.549 1177,-363.873 1195.35,-341.141 1191.51,-328.665 1213,-308.873 1214.45,-307.538 1216.01,-306.265 1217.64,-305.057"/>
<polygon fill="midnightblue" stroke="midnightblue" points="1219.65,-307.925 1226.16,-299.564 1215.85,-302.043 1219.65,-307.925"/>
</g>
<!-- Node10 -->
<g id="node10" class="node"><title>Node10</title>
<g id="a_node10"><a xlink:href="si4735_8c.html#aad8341b5b19aa8f962a6b9b940d77960" target="_top" xlink:title="si4735_get_interrupt">
<polygon fill="white" stroke="black" points="771,-641.373 771,-660.373 875,-660.373 875,-641.373 771,-641.373"/>
<text text-anchor="middle" x="823" y="-648.373" font-family="Helvetica,sans-Serif" font-size="10.00">si4735_get_interrupt</text>
</a>
</g>
</g>
<!-- Node6&#45;&gt;Node10 -->
<g id="edge9" class="edge"><title>Node6&#45;&gt;Node10</title>
<path fill="none" stroke="midnightblue" d="M733.653,-650.873C742.466,-650.873 751.707,-650.873 760.754,-650.873"/>
<polygon fill="midnightblue" stroke="midnightblue" points="760.854,-654.373 770.854,-650.873 760.854,-647.373 760.854,-654.373"/>
</g>
<!-- Node8 -->
<g id="node8" class="node"><title>Node8</title>
<g id="a_node8"><a xlink:href="i2c_8c.html#ae0625b97d3437bcaca4ac4b96dd01978" target="_top" xlink:title="Transmits I2C command array to a I2C slave. ">
<polygon fill="white" stroke="black" points="1321,-280.373 1321,-299.373 1392,-299.373 1392,-280.373 1321,-280.373"/>
<text text-anchor="middle" x="1356.5" y="-287.373" font-family="Helvetica,sans-Serif" font-size="10.00">i2c_write_arr</text>
</a>
</g>
</g>
<!-- Node7&#45;&gt;Node8 -->
<g id="edge7" class="edge"><title>Node7&#45;&gt;Node8</title>
<path fill="none" stroke="midnightblue" d="M1285.13,-289.873C1293.31,-289.873 1302.13,-289.873 1310.67,-289.873"/>
<polygon fill="midnightblue" stroke="midnightblue" points="1310.88,-293.373 1320.88,-289.873 1310.88,-286.373 1310.88,-293.373"/>
</g>
<!-- Node9 -->
<g id="node9" class="node"><title>Node9</title>
<g id="a_node9"><a xlink:href="timer_8c.html#a3c56af3315c2461dec5ced585a5f84db" target="_top" xlink:title="_delay_ten_us">
<polygon fill="white" stroke="black" points="1428,-299.373 1428,-318.373 1508,-318.373 1508,-299.373 1428,-299.373"/>
<text text-anchor="middle" x="1468" y="-306.373" font-family="Helvetica,sans-Serif" font-size="10.00">_delay_ten_us</text>
</a>
</g>
</g>
<!-- Node8&#45;&gt;Node9 -->
<g id="edge8" class="edge"><title>Node8&#45;&gt;Node9</title>
<path fill="none" stroke="midnightblue" d="M1392.15,-295.885C1400.25,-297.291 1409.04,-298.817 1417.65,-300.31"/>
<polygon fill="midnightblue" stroke="midnightblue" points="1417.17,-303.779 1427.62,-302.041 1418.37,-296.882 1417.17,-303.779"/>
</g>
<!-- Node12&#45;&gt;Node9 -->
<g id="edge12" class="edge"><title>Node12&#45;&gt;Node9</title>
<path fill="none" stroke="midnightblue" d="M1281.09,-325.151C1316.82,-322.023 1375.91,-316.849 1417.88,-313.174"/>
<polygon fill="midnightblue" stroke="midnightblue" points="1418.23,-316.657 1427.89,-312.298 1417.62,-309.683 1418.23,-316.657"/>
</g>
<!-- Node13&#45;&gt;Node5 -->
<g id="edge14" class="edge"><title>Node13&#45;&gt;Node5</title>
<path fill="none" stroke="midnightblue" d="M554.235,-517.441C571.993,-527.689 601.466,-544.068 628,-555.873 632.522,-557.885 637.329,-559.85 642.127,-561.707"/>
<polygon fill="midnightblue" stroke="midnightblue" points="641.277,-565.126 651.87,-565.348 643.727,-558.569 641.277,-565.126"/>
</g>
<!-- Node13&#45;&gt;Node11 -->
<g id="edge19" class="edge"><title>Node13&#45;&gt;Node11</title>
<path fill="none" stroke="midnightblue" d="M578.835,-516.183C592.734,-519.012 608.534,-522.227 623.466,-525.266"/>
<polygon fill="midnightblue" stroke="midnightblue" points="623.133,-528.77 633.63,-527.335 624.529,-521.911 623.133,-528.77"/>
</g>
<!-- Node14 -->
<g id="node14" class="node"><title>Node14</title>
<g id="a_node14"><a xlink:href="si4735_8h.html#af82ec28b536b1258ea4178108c61d5e9" target="_top" xlink:title="si4735_fm_tune_freq">
<polygon fill="white" stroke="black" points="628.5,-489.373 628.5,-508.373 734.5,-508.373 734.5,-489.373 628.5,-489.373"/>
<text text-anchor="middle" x="681.5" y="-496.373" font-family="Helvetica,sans-Serif" font-size="10.00">si4735_fm_tune_freq</text>
</a>
</g>
</g>
<!-- Node13&#45;&gt;Node14 -->
<g id="edge15" class="edge"><title>Node13&#45;&gt;Node14</title>
<path fill="none" stroke="midnightblue" d="M578.835,-505.294C591.156,-504.516 604.971,-503.643 618.35,-502.798"/>
<polygon fill="midnightblue" stroke="midnightblue" points="618.706,-506.283 628.465,-502.16 618.264,-499.297 618.706,-506.283"/>
</g>
<!-- Node14&#45;&gt;Node7 -->
<g id="edge16" class="edge"><title>Node14&#45;&gt;Node7</title>
<path fill="none" stroke="midnightblue" d="M734.538,-498.869C773.836,-497.644 828.717,-493.299 875,-479.873 911.889,-469.172 1142.22,-346.574 1221.35,-304.186"/>
<polygon fill="midnightblue" stroke="midnightblue" points="1223.06,-307.237 1230.22,-299.428 1219.76,-301.068 1223.06,-307.237"/>
</g>
<!-- Node14&#45;&gt;Node10 -->
<g id="edge17" class="edge"><title>Node14&#45;&gt;Node10</title>
<path fill="none" stroke="midnightblue" d="M718.587,-508.409C724.421,-510.912 730.135,-514.024 735,-517.873 774.505,-549.132 801.913,-603.454 814.385,-632.042"/>
<polygon fill="midnightblue" stroke="midnightblue" points="811.187,-633.466 818.298,-641.32 817.636,-630.746 811.187,-633.466"/>
</g>
<!-- Node15 -->
<g id="node15" class="node"><title>Node15</title>
<g id="a_node15"><a xlink:href="i2c_8h.html#a6dd896b0c82d1aa91a1a8155b41c4566" target="_top" xlink:title="Receives I2C commands until a NACK is received or received RxBytes. ">
<polygon fill="white" stroke="black" points="796.5,-451.373 796.5,-470.373 849.5,-470.373 849.5,-451.373 796.5,-451.373"/>
<text text-anchor="middle" x="823" y="-458.373" font-family="Helvetica,sans-Serif" font-size="10.00">i2c_read</text>
</a>
</g>
</g>
<!-- Node14&#45;&gt;Node15 -->
<g id="edge18" class="edge"><title>Node14&#45;&gt;Node15</title>
<path fill="none" stroke="midnightblue" d="M717.702,-489.284C738.788,-483.54 765.511,-476.261 786.628,-470.509"/>
<polygon fill="midnightblue" stroke="midnightblue" points="787.766,-473.826 796.495,-467.821 785.926,-467.072 787.766,-473.826"/>
</g>
<!-- Node17 -->
<g id="node17" class="node"><title>Node17</title>
<g id="a_node17"><a xlink:href="lcd_8h.html#acd63fb85d212730fa4fcbcbeeccd231e" target="_top" xlink:title="lcd_create_view">
<polygon fill="white" stroke="black" points="780.5,-261.373 780.5,-280.373 865.5,-280.373 865.5,-261.373 780.5,-261.373"/>
<text text-anchor="middle" x="823" y="-268.373" font-family="Helvetica,sans-Serif" font-size="10.00">lcd_create_view</text>
</a>
</g>
</g>
<!-- Node16&#45;&gt;Node17 -->
<g id="edge21" class="edge"><title>Node16&#45;&gt;Node17</title>
<path fill="none" stroke="midnightblue" d="M548.633,-394.51C564.521,-408.187 596.026,-432.6 628,-441.873 673.673,-455.12 694.46,-466.733 735,-441.873 789.812,-408.262 811.429,-328.115 818.747,-290.721"/>
<polygon fill="midnightblue" stroke="midnightblue" points="822.244,-291.05 820.58,-280.587 815.356,-289.804 822.244,-291.05"/>
</g>
<!-- Node21 -->
<g id="node21" class="node"><title>Node21</title>
<g id="a_node21"><a xlink:href="time_8c.html#a38be5ccb6a78c3b5cebed5ff341ed4f9" target="_top" xlink:title="date_to_str">
<polygon fill="white" stroke="black" points="649,-413.373 649,-432.373 714,-432.373 714,-413.373 649,-413.373"/>
<text text-anchor="middle" x="681.5" y="-420.373" font-family="Helvetica,sans-Serif" font-size="10.00">date_to_str</text>
</a>
</g>
</g>
<!-- Node16&#45;&gt;Node21 -->
<g id="edge28" class="edge"><title>Node16&#45;&gt;Node21</title>
<path fill="none" stroke="midnightblue" d="M573.959,-394.462C593.798,-399.753 618.522,-406.346 639.157,-411.848"/>
<polygon fill="midnightblue" stroke="midnightblue" points="638.355,-415.257 648.919,-414.452 640.158,-408.493 638.355,-415.257"/>
</g>
<!-- Node22 -->
<g id="node22" class="node"><title>Node22</title>
<g id="a_node22"><a xlink:href="radio_8c.html#a391fc5fe58716d2c794685bcf12bbda5" target="_top" xlink:title="radio_value_to_string">
<polygon fill="white" stroke="black" points="628,-375.373 628,-394.373 735,-394.373 735,-375.373 628,-375.373"/>
<text text-anchor="middle" x="681.5" y="-382.373" font-family="Helvetica,sans-Serif" font-size="10.00">radio_value_to_string</text>
</a>
</g>
</g>
<!-- Node16&#45;&gt;Node22 -->
<g id="edge29" class="edge"><title>Node16&#45;&gt;Node22</title>
<path fill="none" stroke="midnightblue" d="M592.28,-384.873C600.555,-384.873 609.156,-384.873 617.597,-384.873"/>
<polygon fill="midnightblue" stroke="midnightblue" points="617.783,-388.373 627.783,-384.873 617.783,-381.373 617.783,-388.373"/>
</g>
<!-- Node23 -->
<g id="node23" class="node"><title>Node23</title>
<g id="a_node23"><a xlink:href="radio_8c.html#a132f2b55edd4f21141501c9e9a1c7b00" target="_top" xlink:title="radio_freq_to_string">
<polygon fill="white" stroke="black" points="631,-337.373 631,-356.373 732,-356.373 732,-337.373 631,-337.373"/>
<text text-anchor="middle" x="681.5" y="-344.373" font-family="Helvetica,sans-Serif" font-size="10.00">radio_freq_to_string</text>
</a>
</g>
</g>
<!-- Node16&#45;&gt;Node23 -->
<g id="edge30" class="edge"><title>Node16&#45;&gt;Node23</title>
<path fill="none" stroke="midnightblue" d="M573.959,-375.284C592.439,-370.356 615.156,-364.298 634.859,-359.044"/>
<polygon fill="midnightblue" stroke="midnightblue" points="635.792,-362.418 644.553,-356.459 633.989,-355.654 635.792,-362.418"/>
</g>
<!-- Node24 -->
<g id="node24" class="node"><title>Node24</title>
<g id="a_node24"><a xlink:href="menu_2menu_8h.html#a503ed2007daa6f20b2f748eedbcb8494" target="_top" xlink:title="menu_scroll">
<polygon fill="white" stroke="black" points="647,-299.373 647,-318.373 716,-318.373 716,-299.373 647,-299.373"/>
<text text-anchor="middle" x="681.5" y="-306.373" font-family="Helvetica,sans-Serif" font-size="10.00">menu_scroll</text>
</a>
</g>
</g>
<!-- Node16&#45;&gt;Node24 -->
<g id="edge31" class="edge"><title>Node16&#45;&gt;Node24</title>
<path fill="none" stroke="midnightblue" d="M551.188,-375.226C568.27,-363.039 599.272,-341.96 628,-327.873 632.126,-325.85 636.524,-323.925 640.952,-322.13"/>
<polygon fill="midnightblue" stroke="midnightblue" points="642.52,-325.277 650.599,-318.424 640.009,-318.743 642.52,-325.277"/>
</g>
<!-- Node25 -->
<g id="node25" class="node"><title>Node25</title>
<g id="a_node25"><a xlink:href="time_8c.html#a12eef8136a835e1bbe52bcf02789e706" target="_top" xlink:title="time_to_str">
<polygon fill="white" stroke="black" points="649,-261.373 649,-280.373 714,-280.373 714,-261.373 649,-261.373"/>
<text text-anchor="middle" x="681.5" y="-268.373" font-family="Helvetica,sans-Serif" font-size="10.00">time_to_str</text>
</a>
</g>
</g>
<!-- Node16&#45;&gt;Node25 -->
<g id="edge33" class="edge"><title>Node16&#45;&gt;Node25</title>
<path fill="none" stroke="midnightblue" d="M544.792,-375.105C558.455,-356.126 591.129,-314.021 628,-289.873 631.558,-287.543 635.438,-285.454 639.426,-283.591"/>
<polygon fill="midnightblue" stroke="midnightblue" points="640.957,-286.744 648.825,-279.649 638.249,-280.289 640.957,-286.744"/>
</g>
<!-- Node18 -->
<g id="node18" class="node"><title>Node18</title>
<g id="a_node18"><a xlink:href="lcd_8c.html#a2a4df97ebc5b396233aa31765228ef42" target="_top" xlink:title="lcd_set_courser">
<polygon fill="white" stroke="black" points="941,-261.373 941,-280.373 1027,-280.373 1027,-261.373 941,-261.373"/>
<text text-anchor="middle" x="984" y="-268.373" font-family="Helvetica,sans-Serif" font-size="10.00">lcd_set_courser</text>
</a>
</g>
</g>
<!-- Node17&#45;&gt;Node18 -->
<g id="edge22" class="edge"><title>Node17&#45;&gt;Node18</title>
<path fill="none" stroke="midnightblue" d="M865.775,-270.873C885.701,-270.873 909.743,-270.873 930.854,-270.873"/>
<polygon fill="midnightblue" stroke="midnightblue" points="930.952,-274.373 940.952,-270.873 930.952,-267.373 930.952,-274.373"/>
</g>
<!-- Node20 -->
<g id="node20" class="node"><title>Node20</title>
<g id="a_node20"><a xlink:href="lcd_8c.html#aa6e1aa2ef9b677e16d8198df683429ec" target="_top" xlink:title="lcd_write_string">
<polygon fill="white" stroke="black" points="1093,-299.373 1093,-318.373 1177,-318.373 1177,-299.373 1093,-299.373"/>
<text text-anchor="middle" x="1135" y="-306.373" font-family="Helvetica,sans-Serif" font-size="10.00">lcd_write_string</text>
</a>
</g>
</g>
<!-- Node17&#45;&gt;Node20 -->
<g id="edge26" class="edge"><title>Node17&#45;&gt;Node20</title>
<path fill="none" stroke="midnightblue" d="M862.345,-280.374C877.429,-283.815 894.949,-287.447 911,-289.873 969.454,-298.708 1037.2,-303.753 1082.54,-306.392"/>
<polygon fill="midnightblue" stroke="midnightblue" points="1082.53,-309.897 1092.71,-306.965 1082.92,-302.908 1082.53,-309.897"/>
</g>
<!-- Node19 -->
<g id="node19" class="node"><title>Node19</title>
<g id="a_node19"><a xlink:href="lcd_8c.html#a250728451a22259562d3f01a12bbd77b" target="_top" xlink:title="lcd_command">
<polygon fill="white" stroke="black" points="1096.5,-261.373 1096.5,-280.373 1173.5,-280.373 1173.5,-261.373 1096.5,-261.373"/>
<text text-anchor="middle" x="1135" y="-268.373" font-family="Helvetica,sans-Serif" font-size="10.00">lcd_command</text>
</a>
</g>
</g>
<!-- Node18&#45;&gt;Node19 -->
<g id="edge23" class="edge"><title>Node18&#45;&gt;Node19</title>
<path fill="none" stroke="midnightblue" d="M1027.3,-270.873C1045.59,-270.873 1067.09,-270.873 1085.98,-270.873"/>
<polygon fill="midnightblue" stroke="midnightblue" points="1086.17,-274.373 1096.17,-270.873 1086.17,-267.373 1086.17,-274.373"/>
</g>
<!-- Node19&#45;&gt;Node7 -->
<g id="edge24" class="edge"><title>Node19&#45;&gt;Node7</title>
<path fill="none" stroke="midnightblue" d="M1173.61,-277.253C1183.04,-278.853 1193.26,-280.586 1203.01,-282.241"/>
<polygon fill="midnightblue" stroke="midnightblue" points="1202.51,-285.706 1212.95,-283.927 1203.68,-278.804 1202.51,-285.706"/>
</g>
<!-- Node19&#45;&gt;Node12 -->
<g id="edge25" class="edge"><title>Node19&#45;&gt;Node12</title>
<path fill="none" stroke="midnightblue" d="M1157.39,-280.504C1163.74,-283.438 1170.68,-286.722 1177,-289.873 1185.47,-294.099 1204.85,-304.487 1221.22,-313.336"/>
<polygon fill="midnightblue" stroke="midnightblue" points="1219.95,-316.628 1230.41,-318.31 1223.28,-310.472 1219.95,-316.628"/>
</g>
<!-- Node20&#45;&gt;Node7 -->
<g id="edge27" class="edge"><title>Node20&#45;&gt;Node7</title>
<path fill="none" stroke="midnightblue" d="M1177.07,-301.906C1185.41,-300.491 1194.23,-298.994 1202.72,-297.555"/>
<polygon fill="midnightblue" stroke="midnightblue" points="1203.56,-300.962 1212.84,-295.838 1202.39,-294.06 1203.56,-300.962"/>
</g>
<!-- Node24&#45;&gt;Node17 -->
<g id="edge32" class="edge"><title>Node24&#45;&gt;Node17</title>
<path fill="none" stroke="midnightblue" d="M716.269,-299.674C734.618,-294.676 757.542,-288.432 777.35,-283.036"/>
<polygon fill="midnightblue" stroke="midnightblue" points="778.357,-286.389 787.085,-280.384 776.517,-279.635 778.357,-286.389"/>
</g>
<!-- Node27 -->
<g id="node27" class="node"><title>Node27</title>
<g id="a_node27"><a xlink:href="radio_8c.html#aaaca9764d77849b9d1aeae47e691bf75" target="_top" xlink:title="radio_equalizer">
<polygon fill="white" stroke="black" points="353,-223.373 353,-242.373 435,-242.373 435,-223.373 353,-223.373"/>
<text text-anchor="middle" x="394" y="-230.373" font-family="Helvetica,sans-Serif" font-size="10.00">radio_equalizer</text>
</a>
</g>
</g>
<!-- Node26&#45;&gt;Node27 -->
<g id="edge35" class="edge"><title>Node26&#45;&gt;Node27</title>
<path fill="none" stroke="midnightblue" d="M278.737,-166.464C292.319,-178.783 317.452,-200.203 342,-213.873 345.521,-215.834 349.285,-217.669 353.113,-219.366"/>
<polygon fill="midnightblue" stroke="midnightblue" points="352.078,-222.724 362.657,-223.291 354.74,-216.25 352.078,-222.724"/>
</g>
<!-- Node29 -->
<g id="node29" class="node"><title>Node29</title>
<g id="a_node29"><a xlink:href="radio_8c.html#afb3cb0ce160c3403d9306d936667fb64" target="_top" xlink:title="radio_source_select">
<polygon fill="white" stroke="black" points="342,-185.373 342,-204.373 446,-204.373 446,-185.373 342,-185.373"/>
<text text-anchor="middle" x="394" y="-192.373" font-family="Helvetica,sans-Serif" font-size="10.00">radio_source_select</text>
</a>
</g>
</g>
<!-- Node26&#45;&gt;Node29 -->
<g id="edge38" class="edge"><title>Node26&#45;&gt;Node29</title>
<path fill="none" stroke="midnightblue" d="M299.917,-166.462C315.693,-171.278 335.005,-177.172 351.941,-182.341"/>
<polygon fill="midnightblue" stroke="midnightblue" points="351.007,-185.715 361.593,-185.287 353.051,-179.02 351.007,-185.715"/>
</g>
<!-- Node30 -->
<g id="node30" class="node"><title>Node30</title>
<g id="a_node30"><a xlink:href="radio_8c.html#a9dd33606330e2225b425000341cf4688" target="_top" xlink:title="radio_brightness">
<polygon fill="white" stroke="black" points="350,-109.373 350,-128.373 438,-128.373 438,-109.373 350,-109.373"/>
<text text-anchor="middle" x="394" y="-116.373" font-family="Helvetica,sans-Serif" font-size="10.00">radio_brightness</text>
</a>
</g>
</g>
<!-- Node26&#45;&gt;Node30 -->
<g id="edge39" class="edge"><title>Node26&#45;&gt;Node30</title>
<path fill="none" stroke="midnightblue" d="M299.917,-147.284C315.693,-142.469 335.005,-136.574 351.941,-131.405"/>
<polygon fill="midnightblue" stroke="midnightblue" points="353.051,-134.726 361.593,-128.459 351.007,-128.031 353.051,-134.726"/>
</g>
<!-- Node35 -->
<g id="node35" class="node"><title>Node35</title>
<g id="a_node35"><a xlink:href="radio_8c.html#aaf3f53dfebe8da71fbe4c457ffda6714" target="_top" xlink:title="radio_contrast">
<polygon fill="white" stroke="black" points="355,-71.3732 355,-90.3732 433,-90.3732 433,-71.3732 355,-71.3732"/>
<text text-anchor="middle" x="394" y="-78.3732" font-family="Helvetica,sans-Serif" font-size="10.00">radio_contrast</text>
</a>
</g>
</g>
<!-- Node26&#45;&gt;Node35 -->
<g id="edge47" class="edge"><title>Node26&#45;&gt;Node35</title>
<path fill="none" stroke="midnightblue" d="M278.737,-147.283C292.319,-134.963 317.452,-113.544 342,-99.8732 345.521,-97.9122 349.285,-96.0772 353.113,-94.3807"/>
<polygon fill="midnightblue" stroke="midnightblue" points="354.74,-97.496 362.657,-90.4558 352.078,-91.022 354.74,-97.496"/>
</g>
<!-- Node37 -->
<g id="node37" class="node"><title>Node37</title>
<g id="a_node37"><a xlink:href="radio_8c.html#afce06a210fd84b9acb905e8ab81feaeb" target="_top" xlink:title="radio_volume">
<polygon fill="white" stroke="black" points="357.5,-147.373 357.5,-166.373 430.5,-166.373 430.5,-147.373 357.5,-147.373"/>
<text text-anchor="middle" x="394" y="-154.373" font-family="Helvetica,sans-Serif" font-size="10.00">radio_volume</text>
</a>
</g>
</g>
<!-- Node26&#45;&gt;Node37 -->
<g id="edge51" class="edge"><title>Node26&#45;&gt;Node37</title>
<path fill="none" stroke="midnightblue" d="M306.192,-156.873C319.081,-156.873 333.643,-156.873 347.107,-156.873"/>
<polygon fill="midnightblue" stroke="midnightblue" points="347.142,-160.373 357.142,-156.873 347.142,-153.373 347.142,-160.373"/>
</g>
<!-- Node28 -->
<g id="node28" class="node"><title>Node28</title>
<g id="a_node28"><a xlink:href="tpa2016d2_8c.html#a52781315d0f308dba4aee65a749da317" target="_top" xlink:title="Amplifier_set_equalizer_mode">
<polygon fill="white" stroke="black" points="911,-223.373 911,-242.373 1057,-242.373 1057,-223.373 911,-223.373"/>
<text text-anchor="middle" x="984" y="-230.373" font-family="Helvetica,sans-Serif" font-size="10.00">Amplifier_set_equalizer_mode</text>
</a>
</g>
</g>
<!-- Node27&#45;&gt;Node28 -->
<g id="edge36" class="edge"><title>Node27&#45;&gt;Node28</title>
<path fill="none" stroke="midnightblue" d="M435.416,-232.873C531.034,-232.873 772.689,-232.873 900.621,-232.873"/>
<polygon fill="midnightblue" stroke="midnightblue" points="900.759,-236.373 910.759,-232.873 900.759,-229.373 900.759,-236.373"/>
</g>
<!-- Node28&#45;&gt;Node7 -->
<g id="edge37" class="edge"><title>Node28&#45;&gt;Node7</title>
<path fill="none" stroke="midnightblue" d="M1057.43,-233.367C1093.95,-235.28 1138.54,-240.186 1177,-251.873 1194.17,-257.092 1211.98,-266.632 1225.46,-274.848"/>
<polygon fill="midnightblue" stroke="midnightblue" points="1223.72,-277.886 1234.04,-280.254 1227.45,-271.963 1223.72,-277.886"/>
</g>
<!-- Node31 -->
<g id="node31" class="node"><title>Node31</title>
<g id="a_node31"><a xlink:href="pca9530_8h.html#a07bd06dbfcb216eedc1969aa04e19b53" target="_top" xlink:title="pca9530_set_pwm">
<polygon fill="white" stroke="black" points="935,-185.373 935,-204.373 1033,-204.373 1033,-185.373 935,-185.373"/>
<text text-anchor="middle" x="984" y="-192.373" font-family="Helvetica,sans-Serif" font-size="10.00">pca9530_set_pwm</text>
</a>
</g>
</g>
<!-- Node30&#45;&gt;Node31 -->
<g id="edge40" class="edge"><title>Node30&#45;&gt;Node31</title>
<path fill="none" stroke="midnightblue" d="M434.682,-128.43C449.471,-131.757 466.443,-135.296 482,-137.873 641.202,-164.244 830.902,-182.192 924.631,-190.174"/>
<polygon fill="midnightblue" stroke="midnightblue" points="924.501,-193.675 934.761,-191.029 925.091,-186.7 924.501,-193.675"/>
</g>
<!-- Node32 -->
<g id="node32" class="node"><title>Node32</title>
<g id="a_node32"><a xlink:href="menu_2menu_8h.html#a5621c1bf312de029f43808bf02dc52e3" target="_top" xlink:title="menu_scroll_settings">
<polygon fill="white" stroke="black" points="482.5,-109.373 482.5,-128.373 591.5,-128.373 591.5,-109.373 482.5,-109.373"/>
<text text-anchor="middle" x="537" y="-116.373" font-family="Helvetica,sans-Serif" font-size="10.00">menu_scroll_settings</text>
</a>
</g>
</g>
<!-- Node30&#45;&gt;Node32 -->
<g id="edge42" class="edge"><title>Node30&#45;&gt;Node32</title>
<path fill="none" stroke="midnightblue" d="M438.071,-118.873C448.907,-118.873 460.768,-118.873 472.378,-118.873"/>
<polygon fill="midnightblue" stroke="midnightblue" points="472.484,-122.373 482.483,-118.873 472.483,-115.373 472.484,-122.373"/>
</g>
<!-- Node31&#45;&gt;Node7 -->
<g id="edge41" class="edge"><title>Node31&#45;&gt;Node7</title>
<path fill="none" stroke="midnightblue" d="M1033.13,-197.994C1073.21,-202.067 1130.95,-211.423 1177,-232.873 1197.88,-242.601 1218,-259.729 1231.46,-272.676"/>
<polygon fill="midnightblue" stroke="midnightblue" points="1229.36,-275.528 1238.92,-280.095 1234.3,-270.563 1229.36,-275.528"/>
</g>
<!-- Node32&#45;&gt;Node17 -->
<g id="edge43" class="edge"><title>Node32&#45;&gt;Node17</title>
<path fill="none" stroke="midnightblue" d="M555.765,-128.381C604.078,-154.239 738.064,-225.95 795.405,-256.639"/>
<polygon fill="midnightblue" stroke="midnightblue" points="793.773,-259.736 804.241,-261.369 797.076,-253.564 793.773,-259.736"/>
</g>
<!-- Node33 -->
<g id="node33" class="node"><title>Node33</title>
<g id="a_node33"><a xlink:href="radio_8h.html#a391fc5fe58716d2c794685bcf12bbda5" target="_top" xlink:title="radio_value_to_string">
<polygon fill="white" stroke="black" points="628,-109.373 628,-128.373 735,-128.373 735,-109.373 628,-109.373"/>
<text text-anchor="middle" x="681.5" y="-116.373" font-family="Helvetica,sans-Serif" font-size="10.00">radio_value_to_string</text>
</a>
</g>
</g>
<!-- Node32&#45;&gt;Node33 -->
<g id="edge44" class="edge"><title>Node32&#45;&gt;Node33</title>
<path fill="none" stroke="midnightblue" d="M591.873,-118.873C600.37,-118.873 609.219,-118.873 617.894,-118.873"/>
<polygon fill="midnightblue" stroke="midnightblue" points="617.966,-122.373 627.966,-118.873 617.966,-115.373 617.966,-122.373"/>
</g>
<!-- Node34 -->
<g id="node34" class="node"><title>Node34</title>
<g id="a_node34"><a xlink:href="menu_2src_2menu_8c.html#a503ed2007daa6f20b2f748eedbcb8494" target="_top" xlink:title="menu_scroll">
<polygon fill="white" stroke="black" points="647,-71.3732 647,-90.3732 716,-90.3732 716,-71.3732 647,-71.3732"/>
<text text-anchor="middle" x="681.5" y="-78.3732" font-family="Helvetica,sans-Serif" font-size="10.00">menu_scroll</text>
</a>
</g>
</g>
<!-- Node32&#45;&gt;Node34 -->
<g id="edge45" class="edge"><title>Node32&#45;&gt;Node34</title>
<path fill="none" stroke="midnightblue" d="M573.959,-109.284C593.003,-104.206 616.547,-97.9273 636.655,-92.5651"/>
<polygon fill="midnightblue" stroke="midnightblue" points="637.754,-95.8944 646.515,-89.9359 635.951,-89.1308 637.754,-95.8944"/>
</g>
<!-- Node34&#45;&gt;Node17 -->
<g id="edge46" class="edge"><title>Node34&#45;&gt;Node17</title>
<path fill="none" stroke="midnightblue" d="M716.226,-88.8265C722.971,-91.5323 729.625,-95.1236 735,-99.8732 782.523,-141.866 807.48,-215.982 817.151,-251.212"/>
<polygon fill="midnightblue" stroke="midnightblue" points="813.845,-252.405 819.762,-261.193 820.617,-250.633 813.845,-252.405"/>
</g>
<!-- Node35&#45;&gt;Node32 -->
<g id="edge50" class="edge"><title>Node35&#45;&gt;Node32</title>
<path fill="none" stroke="midnightblue" d="M430.58,-90.4622C448.782,-95.3677 471.138,-101.393 490.572,-106.63"/>
<polygon fill="midnightblue" stroke="midnightblue" points="489.865,-110.064 500.431,-109.287 491.686,-103.306 489.865,-110.064"/>
</g>
<!-- Node36 -->
<g id="node36" class="node"><title>Node36</title>
<g id="a_node36"><a xlink:href="lcd_8h.html#ab99e48ab8689dcb1205c4c7c97bd9956" target="_top" xlink:title="lcd_contrast">
<polygon fill="white" stroke="black" points="788,-90.3732 788,-109.373 858,-109.373 858,-90.3732 788,-90.3732"/>
<text text-anchor="middle" x="823" y="-97.3732" font-family="Helvetica,sans-Serif" font-size="10.00">lcd_contrast</text>
</a>
</g>
</g>
<!-- Node35&#45;&gt;Node36 -->
<g id="edge48" class="edge"><title>Node35&#45;&gt;Node36</title>
<path fill="none" stroke="midnightblue" d="M433.217,-72.3455C496.651,-59.6083 627.36,-39.3911 735,-61.8732 756.714,-66.4085 779.643,-76.6779 796.507,-85.3987"/>
<polygon fill="midnightblue" stroke="midnightblue" points="795.211,-88.6747 805.681,-90.2995 798.51,-82.5004 795.211,-88.6747"/>
</g>
<!-- Node36&#45;&gt;Node19 -->
<g id="edge49" class="edge"><title>Node36&#45;&gt;Node19</title>
<path fill="none" stroke="midnightblue" d="M858.331,-104.787C906.328,-112.976 994.598,-132.954 1057,-175.873 1086.58,-196.218 1110.68,-231.136 1123.63,-252.498"/>
<polygon fill="midnightblue" stroke="midnightblue" points="1120.69,-254.409 1128.78,-261.258 1126.73,-250.863 1120.69,-254.409"/>
</g>
<!-- Node37&#45;&gt;Node4 -->
<g id="edge52" class="edge"><title>Node37&#45;&gt;Node4</title>
<path fill="none" stroke="midnightblue" d="M430.758,-164.34C436.629,-167.067 442.07,-170.79 446,-175.873 541.924,-299.932 402.737,-391.561 482,-526.873 487.62,-536.468 496.734,-544.247 505.888,-550.21"/>
<polygon fill="midnightblue" stroke="midnightblue" points="504.179,-553.265 514.562,-555.369 507.757,-547.249 504.179,-553.265"/>
</g>
<!-- Node37&#45;&gt;Node32 -->
<g id="edge53" class="edge"><title>Node37&#45;&gt;Node32</title>
<path fill="none" stroke="midnightblue" d="M430.58,-147.284C448.782,-142.379 471.138,-136.354 490.572,-131.116"/>
<polygon fill="midnightblue" stroke="midnightblue" points="491.686,-134.441 500.431,-128.459 489.865,-127.682 491.686,-134.441"/>
</g>
<!-- Node38&#45;&gt;Node17 -->
<g id="edge55" class="edge"><title>Node38&#45;&gt;Node17</title>
<path fill="none" stroke="midnightblue" d="M304.497,-24.3323C388.728,-4.27739 601.6,32.9898 735,-61.8732 751.524,-73.6238 797.939,-202.234 815.319,-251.67"/>
<polygon fill="midnightblue" stroke="midnightblue" points="812.045,-252.913 818.652,-261.196 818.653,-250.601 812.045,-252.913"/>
</g>
</g>
</svg>
        <g id="navigator" transform="translate(0 0)" fill="#404254">
                <rect fill="#f2f5e9" fill-opacity="0.5" stroke="#606060" stroke-width=".5" x="0" y="0" width="60" height="60"/>
                <use id="zoomplus" xlink:href="#zoomPlus" x="17" y="9" onmousedown="handleZoom(evt,'in')"/>
                <use id="zoomminus" xlink:href="#zoomMin" x="42" y="9" onmousedown="handleZoom(evt,'out')"/>
                <use id="reset" xlink:href="#resetDef" x="30" y="36" onmousedown="handleReset()"/>
                <g id="arrowUp" xlink:href="#dirArrow" transform="translate(30 24)" onmousedown="handlePan(0,-1)">
                  <use xlink:href="#rim" fill="#404040">
                        <set attributeName="fill" to="#808080" begin="arrowUp.mouseover" end="arrowUp.mouseout"/>
                  </use>
                  <path fill="none" stroke="white" stroke-width="1.5" d="M0,-3.0v7 M-2.5,-0.5L0,-3.0L2.5,-0.5"/>
                </g>
                <g id="arrowRight" xlink:href="#dirArrow" transform="rotate(90) translate(36 -43)" onmousedown="handlePan(1,0)">
                  <use xlink:href="#rim" fill="#404040">
                        <set attributeName="fill" to="#808080" begin="arrowRight.mouseover" end="arrowRight.mouseout"/>
                  </use>
                  <path fill="none" stroke="white" stroke-width="1.5" d="M0,-3.0v7 M-2.5,-0.5L0,-3.0L2.5,-0.5"/>
                </g>
                <g id="arrowDown" xlink:href="#dirArrow" transform="rotate(180) translate(-30 -48)" onmousedown="handlePan(0,1)">
                  <use xlink:href="#rim" fill="#404040">
                        <set attributeName="fill" to="#808080" begin="arrowDown.mouseover" end="arrowDown.mouseout"/>
                  </use>
                  <path fill="none" stroke="white" stroke-width="1.5" d="M0,-3.0v7 M-2.5,-0.5L0,-3.0L2.5,-0.5"/>
                </g>
                <g id="arrowLeft" xlink:href="#dirArrow" transform="rotate(270) translate(-36 17)" onmousedown="handlePan(-1,0)">
                  <use xlink:href="#rim" fill="#404040">
                        <set attributeName="fill" to="#808080" begin="arrowLeft.mouseover" end="arrowLeft.mouseout"/>
                  </use>
                  <path fill="none" stroke="white" stroke-width="1.5" d="M0,-3.0v7 M-2.5,-0.5L0,-3.0L2.5,-0.5"/>
                </g>
        </g>
        <svg viewBox="0 0 15 15" width="100%" height="30px" preserveAspectRatio="xMaxYMin meet">
         <g id="arrow_out" transform="scale(0.3 0.3)">
          <a xlink:href="menu_2src_2menu_8c_aaf2a075d3159f7eeab42012941a3437f_cgraph_org.svg" target="_base">
           <rect id="button" ry="5" rx="5" y="6" x="6" height="38" width="38"
                fill="#f2f5e9" fill-opacity="0.5" stroke="#606060" stroke-width="1.0"/>
           <path id="arrow"
             d="M 11.500037,31.436501 C 11.940474,20.09759 22.043105,11.32322 32.158766,21.979434 L 37.068811,17.246167 C 37.068811,17.246167 37.088388,32 37.088388,32 L 22.160133,31.978069 C 22.160133,31.978069 26.997745,27.140456 26.997745,27.140456 C 18.528582,18.264221 13.291696,25.230495 11.500037,31.436501 z"
             style="fill:#404040;"/>
          </a>
         </g>
        </svg>
</svg>
