<?xml version="1.0" encoding="UTF-8" standalone="no"?>
<!DOCTYPE svg PUBLIC "-//W3C//DTD SVG 1.1//EN"
 "http://www.w3.org/Graphics/SVG/1.1/DTD/svg11.dtd">
<!-- Generated by graphviz version 2.38.0 (20140413.2041)
 -->
<!-- Title: menu_scroll_settings Pages: 1 -->
<svg width="281pt" height="104pt"
 viewBox="0.00 0.00 281.00 104.00" xmlns="http://www.w3.org/2000/svg" xmlns:xlink="http://www.w3.org/1999/xlink">
<g id="graph0" class="graph" transform="scale(1 1) rotate(0) translate(4 100)">
<title>menu_scroll_settings</title>
<polygon fill="white" stroke="none" points="-4,4 -4,-100 277,-100 277,4 -4,4"/>
<!-- Node1 -->
<g id="node1" class="node"><title>Node1</title>
<polygon fill="#bfbfbf" stroke="black" points="0,-38.5 0,-57.5 109,-57.5 109,-38.5 0,-38.5"/>
<text text-anchor="middle" x="54.5" y="-45.5" font-family="Helvetica,sans-Serif" font-size="10.00">menu_scroll_settings</text>
</g>
<!-- Node2 -->
<g id="node2" class="node"><title>Node2</title>
<g id="a_node2"><a xlink:href="radio__settings_8c.html#a2d04f2363bf944b4700b71e0f96ee16f" target="_top" xlink:title="Sets the brightness. ">
<polygon fill="white" stroke="black" points="145,-76.5 145,-95.5 273,-95.5 273,-76.5 145,-76.5"/>
<text text-anchor="middle" x="209" y="-83.5" font-family="Helvetica,sans-Serif" font-size="10.00">radio_settings_brightness</text>
</a>
</g>
</g>
<!-- Node1&#45;&gt;Node2 -->
<g id="edge1" class="edge"><title>Node1&#45;&gt;Node2</title>
<path fill="none" stroke="midnightblue" d="M103.818,-60.04C125.123,-65.3488 149.804,-71.4988 169.795,-76.4799"/>
<polygon fill="midnightblue" stroke="midnightblue" points="104.532,-56.6108 93.9822,-57.589 102.839,-63.4031 104.532,-56.6108"/>
</g>
<!-- Node3 -->
<g id="node3" class="node"><title>Node3</title>
<g id="a_node3"><a xlink:href="radio__settings_8c.html#ab8b2e0dbe3fd9644146e798c3e2a3116" target="_top" xlink:title="Sets the contrast. ">
<polygon fill="white" stroke="black" points="150,-38.5 150,-57.5 268,-57.5 268,-38.5 150,-38.5"/>
<text text-anchor="middle" x="209" y="-45.5" font-family="Helvetica,sans-Serif" font-size="10.00">radio_settings_contrast</text>
</a>
</g>
</g>
<!-- Node1&#45;&gt;Node3 -->
<g id="edge2" class="edge"><title>Node1&#45;&gt;Node3</title>
<path fill="none" stroke="midnightblue" d="M119.578,-48C129.602,-48 139.915,-48 149.798,-48"/>
<polygon fill="midnightblue" stroke="midnightblue" points="119.266,-44.5001 109.266,-48 119.266,-51.5001 119.266,-44.5001"/>
</g>
<!-- Node4 -->
<g id="node4" class="node"><title>Node4</title>
<g id="a_node4"><a xlink:href="radio__settings_8c.html#aba6a09ed7091ec65d2cbf4cd9a9a75f4" target="_top" xlink:title="Sets the volume. ">
<polygon fill="white" stroke="black" points="152.5,-0.5 152.5,-19.5 265.5,-19.5 265.5,-0.5 152.5,-0.5"/>
<text text-anchor="middle" x="209" y="-7.5" font-family="Helvetica,sans-Serif" font-size="10.00">radio_settings_volume</text>
</a>
</g>
</g>
<!-- Node1&#45;&gt;Node4 -->
<g id="edge3" class="edge"><title>Node1&#45;&gt;Node4</title>
<path fill="none" stroke="midnightblue" d="M103.818,-35.96C125.123,-30.6512 149.804,-24.5012 169.795,-19.5201"/>
<polygon fill="midnightblue" stroke="midnightblue" points="102.839,-32.5969 93.9822,-38.411 104.532,-39.3892 102.839,-32.5969"/>
</g>
</g>
</svg>
