<?xml version="1.0" encoding="UTF-8" standalone="no"?>
<!DOCTYPE svg PUBLIC "-//W3C//DTD SVG 1.1//EN"
 "http://www.w3.org/Graphics/SVG/1.1/DTD/svg11.dtd">
<!-- Generated by graphviz version 2.38.0 (20140413.2041)
 -->
<!-- Title: D:/GIT/fhradiov2/menu/menu.h Pages: 1 -->
<svg width="587pt" height="240pt"
 viewBox="0.00 0.00 587.28 240.00" xmlns="http://www.w3.org/2000/svg" xmlns:xlink="http://www.w3.org/1999/xlink">
<g id="graph0" class="graph" transform="scale(1 1) rotate(0) translate(4 236)">
<title>D:/GIT/fhradiov2/menu/menu.h</title>
<polygon fill="white" stroke="none" points="-4,4 -4,-236 583.276,-236 583.276,4 -4,4"/>
<!-- Node1 -->
<g id="node1" class="node"><title>Node1</title>
<polygon fill="#bfbfbf" stroke="black" points="268.276,-201.5 268.276,-231.5 380.276,-231.5 380.276,-201.5 268.276,-201.5"/>
<text text-anchor="start" x="276.276" y="-219.5" font-family="Helvetica,sans-Serif" font-size="10.00">D:/GIT/fhradiov2/menu</text>
<text text-anchor="middle" x="324.276" y="-208.5" font-family="Helvetica,sans-Serif" font-size="10.00">/menu.h</text>
</g>
<!-- Node2 -->
<g id="node2" class="node"><title>Node2</title>
<g id="a_node2"><a xlink:href="main_8c.html" target="_top" xlink:title="D:/GIT/fhradiov2/main.c">
<polygon fill="white" stroke="black" points="173.776,-6 173.776,-25 290.776,-25 290.776,-6 173.776,-6"/>
<text text-anchor="middle" x="232.276" y="-13" font-family="Helvetica,sans-Serif" font-size="10.00">D:/GIT/fhradiov2/main.c</text>
</a>
</g>
</g>
<!-- Node1&#45;&gt;Node2 -->
<g id="edge1" class="edge"><title>Node1&#45;&gt;Node2</title>
<path fill="none" stroke="midnightblue" d="M257.863,-212.2C182.555,-204.483 62.9053,-179.295 6.27619,-98 -1.5989,-86.6947 -2.33865,-77.7523 6.27619,-67 11.9794,-59.8817 123.197,-37.4727 187.445,-25.0327"/>
<polygon fill="midnightblue" stroke="midnightblue" points="257.898,-215.719 268.184,-213.177 258.558,-208.75 257.898,-215.719"/>
</g>
<!-- Node3 -->
<g id="node3" class="node"><title>Node3</title>
<g id="a_node3"><a xlink:href="menu__struct_8h.html" target="_top" xlink:title="D:/GIT/fhradiov2/menu\l/menu_struct.h">
<polygon fill="white" stroke="black" points="335.276,-134.5 335.276,-164.5 447.276,-164.5 447.276,-134.5 335.276,-134.5"/>
<text text-anchor="start" x="343.276" y="-152.5" font-family="Helvetica,sans-Serif" font-size="10.00">D:/GIT/fhradiov2/menu</text>
<text text-anchor="middle" x="391.276" y="-141.5" font-family="Helvetica,sans-Serif" font-size="10.00">/menu_struct.h</text>
</a>
</g>
</g>
<!-- Node1&#45;&gt;Node3 -->
<g id="edge2" class="edge"><title>Node1&#45;&gt;Node3</title>
<path fill="none" stroke="midnightblue" d="M340.02,-194.024C349.351,-184.34 361.1,-173.174 371.092,-164.577"/>
<polygon fill="midnightblue" stroke="midnightblue" points="337.403,-191.699 333.136,-201.396 342.519,-196.477 337.403,-191.699"/>
</g>
<!-- Node5 -->
<g id="node5" class="node"><title>Node5</title>
<g id="a_node5"><a xlink:href="menu_2src_2menu_8c.html" target="_top" xlink:title="D:/GIT/fhradiov2/menu\l/src/menu.c">
<polygon fill="white" stroke="black" points="465.276,-134.5 465.276,-164.5 577.276,-164.5 577.276,-134.5 465.276,-134.5"/>
<text text-anchor="start" x="473.276" y="-152.5" font-family="Helvetica,sans-Serif" font-size="10.00">D:/GIT/fhradiov2/menu</text>
<text text-anchor="middle" x="521.276" y="-141.5" font-family="Helvetica,sans-Serif" font-size="10.00">/src/menu.c</text>
</a>
</g>
</g>
<!-- Node1&#45;&gt;Node5 -->
<g id="edge5" class="edge"><title>Node1&#45;&gt;Node5</title>
<path fill="none" stroke="midnightblue" d="M376.624,-198.228C408.492,-187.713 448.687,-174.451 478.614,-164.577"/>
<polygon fill="midnightblue" stroke="midnightblue" points="375.422,-194.939 367.022,-201.396 377.615,-201.586 375.422,-194.939"/>
</g>
<!-- Node6 -->
<g id="node6" class="node"><title>Node6</title>
<g id="a_node6"><a xlink:href="radio_8h.html" target="_top" xlink:title="D:/GIT/fhradiov2/system\l/radio.h">
<polygon fill="white" stroke="black" points="197.276,-134.5 197.276,-164.5 317.276,-164.5 317.276,-134.5 197.276,-134.5"/>
<text text-anchor="start" x="205.276" y="-152.5" font-family="Helvetica,sans-Serif" font-size="10.00">D:/GIT/fhradiov2/system</text>
<text text-anchor="middle" x="257.276" y="-141.5" font-family="Helvetica,sans-Serif" font-size="10.00">/radio.h</text>
</a>
</g>
</g>
<!-- Node1&#45;&gt;Node6 -->
<g id="edge6" class="edge"><title>Node1&#45;&gt;Node6</title>
<path fill="none" stroke="midnightblue" d="M296.378,-194.598C285.561,-184.783 273.996,-173.344 266.111,-164.577"/>
<polygon fill="midnightblue" stroke="midnightblue" points="294.252,-197.39 304.06,-201.396 298.891,-192.148 294.252,-197.39"/>
</g>
<!-- Node3&#45;&gt;Node1 -->
<g id="edge3" class="edge"><title>Node3&#45;&gt;Node1</title>
<path fill="none" stroke="midnightblue" d="M375.562,-171.945C366.236,-181.626 354.489,-192.793 344.493,-201.396"/>
<polygon fill="midnightblue" stroke="midnightblue" points="378.175,-174.274 382.441,-164.577 373.059,-169.497 378.175,-174.274"/>
</g>
<!-- Node4 -->
<g id="node4" class="node"><title>Node4</title>
<g id="a_node4"><a xlink:href="menu__struct_8c.html" target="_top" xlink:title="D:/GIT/fhradiov2/menu\l/src/menu_struct.c">
<polygon fill="white" stroke="black" points="467.276,-67.5 467.276,-97.5 579.276,-97.5 579.276,-67.5 467.276,-67.5"/>
<text text-anchor="start" x="475.276" y="-85.5" font-family="Helvetica,sans-Serif" font-size="10.00">D:/GIT/fhradiov2/menu</text>
<text text-anchor="middle" x="523.276" y="-74.5" font-family="Helvetica,sans-Serif" font-size="10.00">/src/menu_struct.c</text>
</a>
</g>
</g>
<!-- Node3&#45;&gt;Node4 -->
<g id="edge4" class="edge"><title>Node3&#45;&gt;Node4</title>
<path fill="none" stroke="midnightblue" d="M429.143,-129.853C450.014,-119.576 475.502,-107.025 494.69,-97.5765"/>
<polygon fill="midnightblue" stroke="midnightblue" points="427.343,-126.838 419.918,-134.396 430.436,-133.118 427.343,-126.838"/>
</g>
<!-- Node6&#45;&gt;Node1 -->
<g id="edge8" class="edge"><title>Node6&#45;&gt;Node1</title>
<path fill="none" stroke="midnightblue" d="M285.14,-171.371C295.956,-181.183 307.524,-192.623 315.417,-201.396"/>
<polygon fill="midnightblue" stroke="midnightblue" points="287.269,-168.582 277.461,-164.577 282.631,-173.824 287.269,-168.582"/>
</g>
<!-- Node6&#45;&gt;Node2 -->
<g id="edge7" class="edge"><title>Node6&#45;&gt;Node2</title>
<path fill="none" stroke="midnightblue" d="M272.793,-125.422C281.891,-108.882 290.182,-86.2224 282.276,-67 274.861,-48.9718 257.553,-33.9607 245.388,-25.1097"/>
<polygon fill="midnightblue" stroke="midnightblue" points="269.568,-123.998 267.46,-134.381 275.583,-127.579 269.568,-123.998"/>
</g>
<!-- Node7 -->
<g id="node7" class="node"><title>Node7</title>
<g id="a_node7"><a xlink:href="rds_8h.html" target="_top" xlink:title="D:/GIT/fhradiov2/system\l/rds.h">
<polygon fill="white" stroke="black" points="329.276,-67.5 329.276,-97.5 449.276,-97.5 449.276,-67.5 329.276,-67.5"/>
<text text-anchor="start" x="337.276" y="-85.5" font-family="Helvetica,sans-Serif" font-size="10.00">D:/GIT/fhradiov2/system</text>
<text text-anchor="middle" x="389.276" y="-74.5" font-family="Helvetica,sans-Serif" font-size="10.00">/rds.h</text>
</a>
</g>
</g>
<!-- Node6&#45;&gt;Node7 -->
<g id="edge9" class="edge"><title>Node6&#45;&gt;Node7</title>
<path fill="none" stroke="midnightblue" d="M295.143,-129.853C316.014,-119.576 341.502,-107.025 360.69,-97.5765"/>
<polygon fill="midnightblue" stroke="midnightblue" points="293.343,-126.838 285.918,-134.396 296.436,-133.118 293.343,-126.838"/>
</g>
<!-- Node9 -->
<g id="node9" class="node"><title>Node9</title>
<g id="a_node9"><a xlink:href="rsq_8h.html" target="_top" xlink:title="D:/GIT/fhradiov2/system\l/rsq.h">
<polygon fill="white" stroke="black" points="15.2762,-67.5 15.2762,-97.5 135.276,-97.5 135.276,-67.5 15.2762,-67.5"/>
<text text-anchor="start" x="23.2762" y="-85.5" font-family="Helvetica,sans-Serif" font-size="10.00">D:/GIT/fhradiov2/system</text>
<text text-anchor="middle" x="75.2762" y="-74.5" font-family="Helvetica,sans-Serif" font-size="10.00">/rsq.h</text>
</a>
</g>
</g>
<!-- Node6&#45;&gt;Node9 -->
<g id="edge12" class="edge"><title>Node6&#45;&gt;Node9</title>
<path fill="none" stroke="midnightblue" d="M208.151,-130.955C178.833,-120.485 142.1,-107.366 114.69,-97.5765"/>
<polygon fill="midnightblue" stroke="midnightblue" points="207.19,-134.329 217.785,-134.396 209.545,-127.736 207.19,-134.329"/>
</g>
<!-- Node11 -->
<g id="node11" class="node"><title>Node11</title>
<g id="a_node11"><a xlink:href="radio_8c.html" target="_top" xlink:title="D:/GIT/fhradiov2/system\l/src/radio.c">
<polygon fill="white" stroke="black" points="153.276,-67.5 153.276,-97.5 273.276,-97.5 273.276,-67.5 153.276,-67.5"/>
<text text-anchor="start" x="161.276" y="-85.5" font-family="Helvetica,sans-Serif" font-size="10.00">D:/GIT/fhradiov2/system</text>
<text text-anchor="middle" x="213.276" y="-74.5" font-family="Helvetica,sans-Serif" font-size="10.00">/src/radio.c</text>
</a>
</g>
</g>
<!-- Node6&#45;&gt;Node11 -->
<g id="edge15" class="edge"><title>Node6&#45;&gt;Node11</title>
<path fill="none" stroke="midnightblue" d="M241.955,-125.867C235.587,-116.459 228.394,-105.833 222.805,-97.5765"/>
<polygon fill="midnightblue" stroke="midnightblue" points="239.225,-128.077 247.729,-134.396 245.022,-124.153 239.225,-128.077"/>
</g>
<!-- Node7&#45;&gt;Node2 -->
<g id="edge10" class="edge"><title>Node7&#45;&gt;Node2</title>
<path fill="none" stroke="midnightblue" d="M345.699,-63.4585C315.366,-50.9001 276.294,-34.724 252.824,-25.007"/>
<polygon fill="midnightblue" stroke="midnightblue" points="344.631,-66.8045 355.21,-67.396 347.309,-60.3368 344.631,-66.8045"/>
</g>
<!-- Node8 -->
<g id="node8" class="node"><title>Node8</title>
<g id="a_node8"><a xlink:href="rds_8c.html" target="_top" xlink:title="D:/GIT/fhradiov2/system\l/src/rds.c">
<polygon fill="white" stroke="black" points="329.276,-0.5 329.276,-30.5 449.276,-30.5 449.276,-0.5 329.276,-0.5"/>
<text text-anchor="start" x="337.276" y="-18.5" font-family="Helvetica,sans-Serif" font-size="10.00">D:/GIT/fhradiov2/system</text>
<text text-anchor="middle" x="389.276" y="-7.5" font-family="Helvetica,sans-Serif" font-size="10.00">/src/rds.c</text>
</a>
</g>
</g>
<!-- Node7&#45;&gt;Node8 -->
<g id="edge11" class="edge"><title>Node7&#45;&gt;Node8</title>
<path fill="none" stroke="midnightblue" d="M389.276,-57.1081C389.276,-48.1539 389.276,-38.3227 389.276,-30.5765"/>
<polygon fill="midnightblue" stroke="midnightblue" points="385.776,-57.3959 389.276,-67.396 392.776,-57.396 385.776,-57.3959"/>
</g>
<!-- Node9&#45;&gt;Node2 -->
<g id="edge13" class="edge"><title>Node9&#45;&gt;Node2</title>
<path fill="none" stroke="midnightblue" d="M118.853,-63.4585C149.187,-50.9001 188.258,-34.724 211.729,-25.007"/>
<polygon fill="midnightblue" stroke="midnightblue" points="117.243,-60.3368 109.343,-67.396 119.921,-66.8045 117.243,-60.3368"/>
</g>
<!-- Node10 -->
<g id="node10" class="node"><title>Node10</title>
<g id="a_node10"><a xlink:href="rsq_8c.html" target="_top" xlink:title="D:/GIT/fhradiov2/system\l/src/rsq.c">
<polygon fill="white" stroke="black" points="15.2762,-0.5 15.2762,-30.5 135.276,-30.5 135.276,-0.5 15.2762,-0.5"/>
<text text-anchor="start" x="23.2762" y="-18.5" font-family="Helvetica,sans-Serif" font-size="10.00">D:/GIT/fhradiov2/system</text>
<text text-anchor="middle" x="75.2762" y="-7.5" font-family="Helvetica,sans-Serif" font-size="10.00">/src/rsq.c</text>
</a>
</g>
</g>
<!-- Node9&#45;&gt;Node10 -->
<g id="edge14" class="edge"><title>Node9&#45;&gt;Node10</title>
<path fill="none" stroke="midnightblue" d="M75.2762,-57.1081C75.2762,-48.1539 75.2762,-38.3227 75.2762,-30.5765"/>
<polygon fill="midnightblue" stroke="midnightblue" points="71.7763,-57.3959 75.2762,-67.396 78.7763,-57.396 71.7763,-57.3959"/>
</g>
</g>
</svg>
