<?xml version="1.0" encoding="UTF-8" standalone="no"?>
<!DOCTYPE svg PUBLIC "-//W3C//DTD SVG 1.1//EN"
 "http://www.w3.org/Graphics/SVG/1.1/DTD/svg11.dtd">
<!-- Generated by graphviz version 2.38.0 (20140413.2041)
 -->
<!-- Title: opt3001_get_value Pages: 1 -->
<svg width="436pt" height="66pt"
 viewBox="0.00 0.00 436.00 66.00" xmlns="http://www.w3.org/2000/svg" xmlns:xlink="http://www.w3.org/1999/xlink">
<g id="graph0" class="graph" transform="scale(1 1) rotate(0) translate(4 62)">
<title>opt3001_get_value</title>
<polygon fill="white" stroke="none" points="-4,4 -4,-62 432,-62 432,4 -4,4"/>
<!-- Node1 -->
<g id="node1" class="node"><title>Node1</title>
<polygon fill="#bfbfbf" stroke="black" points="0,-19.5 0,-38.5 97,-38.5 97,-19.5 0,-19.5"/>
<text text-anchor="middle" x="48.5" y="-26.5" font-family="Helvetica,sans-Serif" font-size="10.00">opt3001_get_value</text>
</g>
<!-- Node2 -->
<g id="node2" class="node"><title>Node2</title>
<g id="a_node2"><a xlink:href="i2c_8h.html#a6691e5911f539e1e8178c6e983e8079a" target="_top" xlink:title="Transmits I2C commands with a variable length to a I2C slave. ">
<polygon fill="white" stroke="black" points="133,-38.5 133,-57.5 205,-57.5 205,-38.5 133,-38.5"/>
<text text-anchor="middle" x="169" y="-45.5" font-family="Helvetica,sans-Serif" font-size="10.00">i2c_write_var</text>
</a>
</g>
</g>
<!-- Node1&#45;&gt;Node2 -->
<g id="edge1" class="edge"><title>Node1&#45;&gt;Node2</title>
<path fill="none" stroke="midnightblue" d="M97.0157,-36.6185C105.53,-37.9838 114.382,-39.403 122.828,-40.7572"/>
<polygon fill="midnightblue" stroke="midnightblue" points="122.452,-44.2415 132.88,-42.3689 123.56,-37.3298 122.452,-44.2415"/>
</g>
<!-- Node5 -->
<g id="node5" class="node"><title>Node5</title>
<g id="a_node5"><a xlink:href="i2c_8h.html#a6dd896b0c82d1aa91a1a8155b41c4566" target="_top" xlink:title="Receives I2C commands until a NACK is received or received RxBytes. ">
<polygon fill="white" stroke="black" points="142.5,-0.5 142.5,-19.5 195.5,-19.5 195.5,-0.5 142.5,-0.5"/>
<text text-anchor="middle" x="169" y="-7.5" font-family="Helvetica,sans-Serif" font-size="10.00">i2c_read</text>
</a>
</g>
</g>
<!-- Node1&#45;&gt;Node5 -->
<g id="edge4" class="edge"><title>Node1&#45;&gt;Node5</title>
<path fill="none" stroke="midnightblue" d="M97.0157,-21.3815C108.727,-19.5038 121.075,-17.5239 132.129,-15.7514"/>
<polygon fill="midnightblue" stroke="midnightblue" points="132.949,-19.1647 142.269,-14.1256 131.841,-12.253 132.949,-19.1647"/>
</g>
<!-- Node3 -->
<g id="node3" class="node"><title>Node3</title>
<g id="a_node3"><a xlink:href="i2c_8c.html#ae0625b97d3437bcaca4ac4b96dd01978" target="_top" xlink:title="Transmits I2C command array to a I2C slave. ">
<polygon fill="white" stroke="black" points="241,-38.5 241,-57.5 312,-57.5 312,-38.5 241,-38.5"/>
<text text-anchor="middle" x="276.5" y="-45.5" font-family="Helvetica,sans-Serif" font-size="10.00">i2c_write_arr</text>
</a>
</g>
</g>
<!-- Node2&#45;&gt;Node3 -->
<g id="edge2" class="edge"><title>Node2&#45;&gt;Node3</title>
<path fill="none" stroke="midnightblue" d="M205.13,-48C213.312,-48 222.133,-48 230.671,-48"/>
<polygon fill="midnightblue" stroke="midnightblue" points="230.882,-51.5001 240.882,-48 230.882,-44.5001 230.882,-51.5001"/>
</g>
<!-- Node4 -->
<g id="node4" class="node"><title>Node4</title>
<g id="a_node4"><a xlink:href="timer_8c.html#a3c56af3315c2461dec5ced585a5f84db" target="_top" xlink:title="_delay_ten_us">
<polygon fill="white" stroke="black" points="348,-38.5 348,-57.5 428,-57.5 428,-38.5 348,-38.5"/>
<text text-anchor="middle" x="388" y="-45.5" font-family="Helvetica,sans-Serif" font-size="10.00">_delay_ten_us</text>
</a>
</g>
</g>
<!-- Node3&#45;&gt;Node4 -->
<g id="edge3" class="edge"><title>Node3&#45;&gt;Node4</title>
<path fill="none" stroke="midnightblue" d="M312.146,-48C320.165,-48 328.851,-48 337.37,-48"/>
<polygon fill="midnightblue" stroke="midnightblue" points="337.623,-51.5001 347.623,-48 337.623,-44.5001 337.623,-51.5001"/>
</g>
</g>
</svg>
