<?xml version="1.0" encoding="UTF-8" standalone="no"?>
<!DOCTYPE svg PUBLIC "-//W3C//DTD SVG 1.1//EN"
 "http://www.w3.org/Graphics/SVG/1.1/DTD/svg11.dtd">
<!-- Generated by graphviz version 2.38.0 (20140413.2041)
 -->
<!-- Title: D:/GIT/fhradiov2/driver/pca9534.h Pages: 1 -->
<svg width="378pt" height="330pt"
 viewBox="0.00 0.00 378.00 330.00" xmlns="http://www.w3.org/2000/svg" xmlns:xlink="http://www.w3.org/1999/xlink">
<g id="graph0" class="graph" transform="scale(1 1) rotate(0) translate(4 326)">
<title>D:/GIT/fhradiov2/driver/pca9534.h</title>
<polygon fill="white" stroke="none" points="-4,4 -4,-326 374,-326 374,4 -4,4"/>
<!-- Node1 -->
<g id="node1" class="node"><title>Node1</title>
<polygon fill="#bfbfbf" stroke="black" points="0,-291.5 0,-321.5 110,-321.5 110,-291.5 0,-291.5"/>
<text text-anchor="start" x="8" y="-309.5" font-family="Helvetica,sans-Serif" font-size="10.00">D:/GIT/fhradiov2/driver</text>
<text text-anchor="middle" x="55" y="-298.5" font-family="Helvetica,sans-Serif" font-size="10.00">/pca9534.h</text>
</g>
<!-- Node2 -->
<g id="node2" class="node"><title>Node2</title>
<polygon fill="white" stroke="#bfbfbf" points="75.5,-0.5 75.5,-19.5 124.5,-19.5 124.5,-0.5 75.5,-0.5"/>
<text text-anchor="middle" x="100" y="-7.5" font-family="Helvetica,sans-Serif" font-size="10.00">stdint.h</text>
</g>
<!-- Node1&#45;&gt;Node2 -->
<g id="edge1" class="edge"><title>Node1&#45;&gt;Node2</title>
<path fill="none" stroke="midnightblue" d="M44.1842,-291.438C29.2136,-270.528 4,-229.456 4,-190 4,-190 4,-190 4,-132 4,-85.0583 48.8889,-45.736 77.2759,-25.5624"/>
<polygon fill="midnightblue" stroke="midnightblue" points="79.5625,-28.2386 85.8349,-19.6999 75.6068,-22.4634 79.5625,-28.2386"/>
</g>
<!-- Node3 -->
<g id="node3" class="node"><title>Node3</title>
<g id="a_node3"><a xlink:href="i2c_8h.html" target="_top" xlink:title="I2C implemtation for MSP430G2553, interrupt based. &#160;&#160;This implemtation based on examples from Texas I...">
<polygon fill="white" stroke="black" points="74.5,-235.5 74.5,-254.5 137.5,-254.5 137.5,-235.5 74.5,-235.5"/>
<text text-anchor="middle" x="106" y="-242.5" font-family="Helvetica,sans-Serif" font-size="10.00">driver/i2c.h</text>
</a>
</g>
</g>
<!-- Node1&#45;&gt;Node3 -->
<g id="edge2" class="edge"><title>Node1&#45;&gt;Node3</title>
<path fill="none" stroke="midnightblue" d="M67.0863,-291.399C74.5736,-282.664 84.2178,-271.413 92.0318,-262.296"/>
<polygon fill="midnightblue" stroke="midnightblue" points="94.7285,-264.528 98.579,-254.658 89.4137,-259.973 94.7285,-264.528"/>
</g>
<!-- Node3&#45;&gt;Node2 -->
<g id="edge3" class="edge"><title>Node3&#45;&gt;Node2</title>
<path fill="none" stroke="midnightblue" d="M100.566,-235.244C90.3705,-218.242 68.7077,-179.238 61,-143 52.0908,-101.113 74.7676,-53.1834 89.1733,-28.1986"/>
<polygon fill="midnightblue" stroke="midnightblue" points="92.2315,-29.9044 94.3796,-19.5296 86.2306,-26.3004 92.2315,-29.9044"/>
</g>
<!-- Node4 -->
<g id="node4" class="node"><title>Node4</title>
<polygon fill="white" stroke="#bfbfbf" points="70.5,-123.5 70.5,-142.5 129.5,-142.5 129.5,-123.5 70.5,-123.5"/>
<text text-anchor="middle" x="100" y="-130.5" font-family="Helvetica,sans-Serif" font-size="10.00">msp430.h</text>
</g>
<!-- Node3&#45;&gt;Node4 -->
<g id="edge4" class="edge"><title>Node3&#45;&gt;Node4</title>
<path fill="none" stroke="midnightblue" d="M104.261,-235.419C102.528,-226.399 99.9873,-211.77 99,-199 97.8023,-183.509 98.182,-165.881 98.7889,-152.894"/>
<polygon fill="midnightblue" stroke="midnightblue" points="102.287,-153.026 99.3468,-142.847 95.2977,-152.638 102.287,-153.026"/>
</g>
<!-- Node5 -->
<g id="node5" class="node"><title>Node5</title>
<polygon fill="white" stroke="#bfbfbf" points="108,-179.5 108,-198.5 156,-198.5 156,-179.5 108,-179.5"/>
<text text-anchor="middle" x="132" y="-186.5" font-family="Helvetica,sans-Serif" font-size="10.00">stdlib.h</text>
</g>
<!-- Node3&#45;&gt;Node5 -->
<g id="edge5" class="edge"><title>Node3&#45;&gt;Node5</title>
<path fill="none" stroke="midnightblue" d="M110.293,-235.083C113.852,-227.691 119.022,-216.953 123.424,-207.811"/>
<polygon fill="midnightblue" stroke="midnightblue" points="126.602,-209.279 127.787,-198.751 120.295,-206.243 126.602,-209.279"/>
</g>
<!-- Node6 -->
<g id="node6" class="node"><title>Node6</title>
<polygon fill="white" stroke="#bfbfbf" points="174,-179.5 174,-198.5 226,-198.5 226,-179.5 174,-179.5"/>
<text text-anchor="middle" x="200" y="-186.5" font-family="Helvetica,sans-Serif" font-size="10.00">stdarg.h</text>
</g>
<!-- Node3&#45;&gt;Node6 -->
<g id="edge6" class="edge"><title>Node3&#45;&gt;Node6</title>
<path fill="none" stroke="midnightblue" d="M121.103,-235.324C135.903,-226.822 158.694,-213.729 175.982,-203.797"/>
<polygon fill="midnightblue" stroke="midnightblue" points="178.007,-206.671 184.935,-198.655 174.52,-200.601 178.007,-206.671"/>
</g>
<!-- Node7 -->
<g id="node7" class="node"><title>Node7</title>
<g id="a_node7"><a xlink:href="timer_8h.html" target="_top" xlink:title="driver/timer.h">
<polygon fill="white" stroke="black" points="244,-179.5 244,-198.5 316,-198.5 316,-179.5 244,-179.5"/>
<text text-anchor="middle" x="280" y="-186.5" font-family="Helvetica,sans-Serif" font-size="10.00">driver/timer.h</text>
</a>
</g>
</g>
<!-- Node3&#45;&gt;Node7 -->
<g id="edge7" class="edge"><title>Node3&#45;&gt;Node7</title>
<path fill="none" stroke="midnightblue" d="M133.571,-235.444C163.097,-226.28 210.118,-211.688 242.883,-201.519"/>
<polygon fill="midnightblue" stroke="midnightblue" points="244.045,-204.823 252.558,-198.516 241.97,-198.138 244.045,-204.823"/>
</g>
<!-- Node7&#45;&gt;Node2 -->
<g id="edge9" class="edge"><title>Node7&#45;&gt;Node2</title>
<path fill="none" stroke="midnightblue" d="M259.192,-179.401C241.869,-171.584 217.186,-158.86 199,-143 159.391,-108.456 125.707,-55.6275 109.799,-28.4651"/>
<polygon fill="midnightblue" stroke="midnightblue" points="112.781,-26.6285 104.765,-19.7005 106.711,-30.1151 112.781,-26.6285"/>
</g>
<!-- Node7&#45;&gt;Node4 -->
<g id="edge8" class="edge"><title>Node7&#45;&gt;Node4</title>
<path fill="none" stroke="midnightblue" d="M251.478,-179.444C220.934,-170.28 172.292,-155.688 138.397,-145.519"/>
<polygon fill="midnightblue" stroke="midnightblue" points="138.972,-142.038 128.388,-142.516 136.961,-148.742 138.972,-142.038"/>
</g>
<!-- Node8 -->
<g id="node8" class="node"><title>Node8</title>
<g id="a_node8"><a xlink:href="radio__configuration_8h.html" target="_top" xlink:title="settings/radio_configuration.h">
<polygon fill="white" stroke="black" points="208.5,-123.5 208.5,-142.5 351.5,-142.5 351.5,-123.5 208.5,-123.5"/>
<text text-anchor="middle" x="280" y="-130.5" font-family="Helvetica,sans-Serif" font-size="10.00">settings/radio_configuration.h</text>
</a>
</g>
</g>
<!-- Node7&#45;&gt;Node8 -->
<g id="edge10" class="edge"><title>Node7&#45;&gt;Node8</title>
<path fill="none" stroke="midnightblue" d="M280,-179.083C280,-172.006 280,-161.861 280,-152.986"/>
<polygon fill="midnightblue" stroke="midnightblue" points="283.5,-152.751 280,-142.751 276.5,-152.751 283.5,-152.751"/>
</g>
<!-- Node9 -->
<g id="node9" class="node"><title>Node9</title>
<g id="a_node9"><a xlink:href="si4735__cmd__prop_8h.html" target="_top" xlink:title="driver/include/si4735\l_cmd_prop.h">
<polygon fill="white" stroke="black" points="186,-56.5 186,-86.5 290,-86.5 290,-56.5 186,-56.5"/>
<text text-anchor="start" x="194" y="-74.5" font-family="Helvetica,sans-Serif" font-size="10.00">driver/include/si4735</text>
<text text-anchor="middle" x="238" y="-63.5" font-family="Helvetica,sans-Serif" font-size="10.00">_cmd_prop.h</text>
</a>
</g>
</g>
<!-- Node8&#45;&gt;Node9 -->
<g id="edge11" class="edge"><title>Node8&#45;&gt;Node9</title>
<path fill="none" stroke="midnightblue" d="M273.982,-123.475C268.719,-116.019 260.837,-104.852 253.79,-94.8685"/>
<polygon fill="midnightblue" stroke="midnightblue" points="256.525,-92.6743 247.899,-86.523 250.806,-96.7111 256.525,-92.6743"/>
</g>
<!-- Node10 -->
<g id="node10" class="node"><title>Node10</title>
<g id="a_node10"><a xlink:href="libs_2time_8h.html" target="_top" xlink:title="libs/time.h">
<polygon fill="white" stroke="black" points="308,-62 308,-81 370,-81 370,-62 308,-62"/>
<text text-anchor="middle" x="339" y="-69" font-family="Helvetica,sans-Serif" font-size="10.00">libs/time.h</text>
</a>
</g>
</g>
<!-- Node8&#45;&gt;Node10 -->
<g id="edge13" class="edge"><title>Node8&#45;&gt;Node10</title>
<path fill="none" stroke="midnightblue" d="M288.453,-123.475C297.566,-114.285 312.27,-99.4563 323.476,-88.156"/>
<polygon fill="midnightblue" stroke="midnightblue" points="326.007,-90.5744 330.562,-81.0091 321.036,-85.6455 326.007,-90.5744"/>
</g>
<!-- Node9&#45;&gt;Node2 -->
<g id="edge12" class="edge"><title>Node9&#45;&gt;Node2</title>
<path fill="none" stroke="midnightblue" d="M205.296,-56.3993C182.245,-46.4608 151.64,-33.2649 129.368,-23.6625"/>
<polygon fill="midnightblue" stroke="midnightblue" points="130.649,-20.4031 120.08,-19.6578 127.877,-26.8311 130.649,-20.4031"/>
</g>
</g>
</svg>
