<?xml version="1.0" encoding="UTF-8" standalone="no"?>
<!DOCTYPE svg PUBLIC "-//W3C//DTD SVG 1.1//EN"
 "http://www.w3.org/Graphics/SVG/1.1/DTD/svg11.dtd">
<!-- Generated by graphviz version 2.38.0 (20140413.2041)
 -->
<!-- Title: radio_seeking Pages: 1 -->
<svg width="633pt" height="47pt"
 viewBox="0.00 0.00 633.00 47.00" xmlns="http://www.w3.org/2000/svg" xmlns:xlink="http://www.w3.org/1999/xlink">
<g id="graph0" class="graph" transform="scale(1 1) rotate(0) translate(4 43)">
<title>radio_seeking</title>
<polygon fill="white" stroke="none" points="-4,4 -4,-43 629,-43 629,4 -4,4"/>
<!-- Node1 -->
<g id="node1" class="node"><title>Node1</title>
<polygon fill="#bfbfbf" stroke="black" points="0,-19.5 0,-38.5 77,-38.5 77,-19.5 0,-19.5"/>
<text text-anchor="middle" x="38.5" y="-26.5" font-family="Helvetica,sans-Serif" font-size="10.00">radio_seeking</text>
</g>
<!-- Node2 -->
<g id="node2" class="node"><title>Node2</title>
<g id="a_node2"><a xlink:href="radio_8c.html#a832a684fc60104296fc975a7608f92b4" target="_top" xlink:title="radio_settings">
<polygon fill="white" stroke="black" points="245,-19.5 245,-38.5 322,-38.5 322,-19.5 245,-19.5"/>
<text text-anchor="middle" x="283.5" y="-26.5" font-family="Helvetica,sans-Serif" font-size="10.00">radio_settings</text>
</a>
</g>
</g>
<!-- Node1&#45;&gt;Node2 -->
<g id="edge1" class="edge"><title>Node1&#45;&gt;Node2</title>
<path fill="none" stroke="midnightblue" d="M87.253,-29C133.37,-29 202.287,-29 244.709,-29"/>
<polygon fill="midnightblue" stroke="midnightblue" points="87.2022,-25.5001 77.2021,-29 87.2021,-32.5001 87.2022,-25.5001"/>
</g>
<!-- Node6 -->
<g id="node6" class="node"><title>Node6</title>
<g id="a_node6"><a xlink:href="radio_8c.html#ac96da2886aec92b299b27b500761564c" target="_top" xlink:title="radio_auto_search">
<polygon fill="white" stroke="black" points="113,-0.5 113,-19.5 209,-19.5 209,-0.5 113,-0.5"/>
<text text-anchor="middle" x="161" y="-7.5" font-family="Helvetica,sans-Serif" font-size="10.00">radio_auto_search</text>
</a>
</g>
</g>
<!-- Node1&#45;&gt;Node6 -->
<g id="edge5" class="edge"><title>Node1&#45;&gt;Node6</title>
<path fill="none" stroke="midnightblue" d="M87.2491,-21.4711C95.5814,-20.1573 104.247,-18.7909 112.571,-17.4784"/>
<polygon fill="midnightblue" stroke="midnightblue" points="86.6291,-18.0255 77.2963,-23.0404 87.7195,-24.9401 86.6291,-18.0255"/>
</g>
<!-- Node3 -->
<g id="node3" class="node"><title>Node3</title>
<g id="a_node3"><a xlink:href="menu_8c.html#a5d9c190838195d7872fc7067269e20fa" target="_top" xlink:title="menu_function">
<polygon fill="white" stroke="black" points="358,-19.5 358,-38.5 438,-38.5 438,-19.5 358,-19.5"/>
<text text-anchor="middle" x="398" y="-26.5" font-family="Helvetica,sans-Serif" font-size="10.00">menu_function</text>
</a>
</g>
</g>
<!-- Node2&#45;&gt;Node3 -->
<g id="edge2" class="edge"><title>Node2&#45;&gt;Node3</title>
<path fill="none" stroke="midnightblue" d="M332.474,-29C340.985,-29 349.755,-29 357.981,-29"/>
<polygon fill="midnightblue" stroke="midnightblue" points="332.274,-25.5001 322.274,-29 332.274,-32.5001 332.274,-25.5001"/>
</g>
<!-- Node4 -->
<g id="node4" class="node"><title>Node4</title>
<g id="a_node4"><a xlink:href="menu_8c.html#aaf2a075d3159f7eeab42012941a3437f" target="_top" xlink:title="menu_handler">
<polygon fill="white" stroke="black" points="474,-19.5 474,-38.5 551,-38.5 551,-19.5 474,-19.5"/>
<text text-anchor="middle" x="512.5" y="-26.5" font-family="Helvetica,sans-Serif" font-size="10.00">menu_handler</text>
</a>
</g>
</g>
<!-- Node3&#45;&gt;Node4 -->
<g id="edge3" class="edge"><title>Node3&#45;&gt;Node4</title>
<path fill="none" stroke="midnightblue" d="M448.262,-29C456.783,-29 465.52,-29 473.676,-29"/>
<polygon fill="midnightblue" stroke="midnightblue" points="448.031,-25.5001 438.031,-29 448.031,-32.5001 448.031,-25.5001"/>
</g>
<!-- Node5 -->
<g id="node5" class="node"><title>Node5</title>
<g id="a_node5"><a xlink:href="main_8c.html#a840291bc02cba5474a4cb46a9b9566fe" target="_top" xlink:title="main">
<polygon fill="white" stroke="black" points="587,-19.5 587,-38.5 625,-38.5 625,-19.5 587,-19.5"/>
<text text-anchor="middle" x="606" y="-26.5" font-family="Helvetica,sans-Serif" font-size="10.00">main</text>
</a>
</g>
</g>
<!-- Node4&#45;&gt;Node5 -->
<g id="edge4" class="edge"><title>Node4&#45;&gt;Node5</title>
<path fill="none" stroke="midnightblue" d="M561.362,-29C570.347,-29 579.223,-29 586.601,-29"/>
<polygon fill="midnightblue" stroke="midnightblue" points="561.245,-25.5001 551.245,-29 561.245,-32.5001 561.245,-25.5001"/>
</g>
<!-- Node6&#45;&gt;Node2 -->
<g id="edge6" class="edge"><title>Node6&#45;&gt;Node2</title>
<path fill="none" stroke="midnightblue" d="M219.303,-19.0353C227.909,-20.3923 236.596,-21.762 244.659,-23.0333"/>
<polygon fill="midnightblue" stroke="midnightblue" points="219.702,-15.5551 209.279,-17.4548 218.612,-22.4697 219.702,-15.5551"/>
</g>
</g>
</svg>
