<?xml version="1.0" encoding="UTF-8" standalone="no"?>
<!DOCTYPE svg PUBLIC "-//W3C//DTD SVG 1.1//EN"
 "http://www.w3.org/Graphics/SVG/1.1/DTD/svg11.dtd">
<!-- Generated by graphviz version 2.38.0 (20140413.2041)
 -->
<!-- Title: radio_volume Pages: 1 -->
<svg width="304pt" height="142pt"
 viewBox="0.00 0.00 304.00 142.00" xmlns="http://www.w3.org/2000/svg" xmlns:xlink="http://www.w3.org/1999/xlink">
<g id="graph0" class="graph" transform="scale(1 1) rotate(0) translate(4 138)">
<title>radio_volume</title>
<polygon fill="white" stroke="none" points="-4,4 -4,-138 300,-138 300,4 -4,4"/>
<!-- Node1 -->
<g id="node1" class="node"><title>Node1</title>
<polygon fill="#bfbfbf" stroke="black" points="0,-57.5 0,-76.5 73,-76.5 73,-57.5 0,-57.5"/>
<text text-anchor="middle" x="36.5" y="-64.5" font-family="Helvetica,sans-Serif" font-size="10.00">radio_volume</text>
</g>
<!-- Node2 -->
<g id="node2" class="node"><title>Node2</title>
<g id="a_node2"><a xlink:href="radio_8c.html#a3a1de7e31aabba6e408a633c130e618a" target="_top" xlink:title="Initiales the radio. ">
<polygon fill="white" stroke="black" points="137.5,-114.5 137.5,-133.5 193.5,-133.5 193.5,-114.5 137.5,-114.5"/>
<text text-anchor="middle" x="165.5" y="-121.5" font-family="Helvetica,sans-Serif" font-size="10.00">radio_init</text>
</a>
</g>
</g>
<!-- Node1&#45;&gt;Node2 -->
<g id="edge1" class="edge"><title>Node1&#45;&gt;Node2</title>
<path fill="none" stroke="midnightblue" d="M62.3339,-81.4506C75.872,-89.0064 93.0722,-98.093 109,-105 118.063,-108.93 128.227,-112.61 137.355,-115.665"/>
<polygon fill="midnightblue" stroke="midnightblue" points="64.0337,-78.391 53.6072,-76.5099 60.5849,-84.4825 64.0337,-78.391"/>
</g>
<!-- Node4 -->
<g id="node4" class="node"><title>Node4</title>
<g id="a_node4"><a xlink:href="radio_8c.html#a841443a7db6e1c9caef95f3b7af5761f" target="_top" xlink:title="Radio main. ">
<polygon fill="white" stroke="black" points="133.5,-76.5 133.5,-95.5 197.5,-95.5 197.5,-76.5 133.5,-76.5"/>
<text text-anchor="middle" x="165.5" y="-83.5" font-family="Helvetica,sans-Serif" font-size="10.00">radio_main</text>
</a>
</g>
</g>
<!-- Node1&#45;&gt;Node4 -->
<g id="edge3" class="edge"><title>Node1&#45;&gt;Node4</title>
<path fill="none" stroke="midnightblue" d="M83.2928,-73.8509C99.9171,-76.338 118.301,-79.0884 133.368,-81.3424"/>
<polygon fill="midnightblue" stroke="midnightblue" points="83.6224,-70.3613 73.2146,-72.3431 82.5866,-77.2843 83.6224,-70.3613"/>
</g>
<!-- Node5 -->
<g id="node5" class="node"><title>Node5</title>
<g id="a_node5"><a xlink:href="radio_8c.html#a5d08cbff96aee4274e785b49a98f14cd" target="_top" xlink:title="Turn radio to standby. ">
<polygon fill="white" stroke="black" points="124,-38.5 124,-57.5 207,-57.5 207,-38.5 124,-38.5"/>
<text text-anchor="middle" x="165.5" y="-45.5" font-family="Helvetica,sans-Serif" font-size="10.00">radio_stand_by</text>
</a>
</g>
</g>
<!-- Node1&#45;&gt;Node5 -->
<g id="edge4" class="edge"><title>Node1&#45;&gt;Node5</title>
<path fill="none" stroke="midnightblue" d="M83.4788,-60.1213C96.6279,-58.1541 110.864,-56.0242 123.682,-54.1067"/>
<polygon fill="midnightblue" stroke="midnightblue" points="82.5866,-56.7157 73.2146,-61.6569 83.6224,-63.6387 82.5866,-56.7157"/>
</g>
<!-- Node6 -->
<g id="node6" class="node"><title>Node6</title>
<g id="a_node6"><a xlink:href="radio__settings_8c.html#aba6a09ed7091ec65d2cbf4cd9a9a75f4" target="_top" xlink:title="Sets the volume. ">
<polygon fill="white" stroke="black" points="109,-0.5 109,-19.5 222,-19.5 222,-0.5 109,-0.5"/>
<text text-anchor="middle" x="165.5" y="-7.5" font-family="Helvetica,sans-Serif" font-size="10.00">radio_settings_volume</text>
</a>
</g>
</g>
<!-- Node1&#45;&gt;Node6 -->
<g id="edge5" class="edge"><title>Node1&#45;&gt;Node6</title>
<path fill="none" stroke="midnightblue" d="M62.3339,-52.5494C75.872,-44.9936 93.0722,-35.907 109,-29 116.849,-25.5964 125.522,-22.3808 133.634,-19.5962"/>
<polygon fill="midnightblue" stroke="midnightblue" points="60.5849,-49.5175 53.6072,-57.4901 64.0337,-55.609 60.5849,-49.5175"/>
</g>
<!-- Node3 -->
<g id="node3" class="node"><title>Node3</title>
<g id="a_node3"><a xlink:href="main_8c.html#a840291bc02cba5474a4cb46a9b9566fe" target="_top" xlink:title="Main function. ">
<polygon fill="white" stroke="black" points="258,-114.5 258,-133.5 296,-133.5 296,-114.5 258,-114.5"/>
<text text-anchor="middle" x="277" y="-121.5" font-family="Helvetica,sans-Serif" font-size="10.00">main</text>
</a>
</g>
</g>
<!-- Node2&#45;&gt;Node3 -->
<g id="edge2" class="edge"><title>Node2&#45;&gt;Node3</title>
<path fill="none" stroke="midnightblue" d="M203.633,-124C221.9,-124 243.096,-124 257.807,-124"/>
<polygon fill="midnightblue" stroke="midnightblue" points="203.567,-120.5 193.567,-124 203.567,-127.5 203.567,-120.5"/>
</g>
</g>
</svg>
