<?xml version="1.0" encoding="UTF-8" standalone="no"?>
<!DOCTYPE svg PUBLIC "-//W3C//DTD SVG 1.1//EN"
 "http://www.w3.org/Graphics/SVG/1.1/DTD/svg11.dtd">
<!-- Generated by graphviz version 2.38.0 (20140413.2041)
 -->
<!-- Title: radio_tune_freq Pages: 1 -->
<svg width="597pt" height="104pt"
 viewBox="0.00 0.00 597.00 104.00" xmlns="http://www.w3.org/2000/svg" xmlns:xlink="http://www.w3.org/1999/xlink">
<g id="graph0" class="graph" transform="scale(1 1) rotate(0) translate(4 100)">
<title>radio_tune_freq</title>
<polygon fill="white" stroke="none" points="-4,4 -4,-100 593,-100 593,4 -4,4"/>
<!-- Node1 -->
<g id="node1" class="node"><title>Node1</title>
<polygon fill="#bfbfbf" stroke="black" points="0,-38.5 0,-57.5 83,-57.5 83,-38.5 0,-38.5"/>
<text text-anchor="middle" x="41.5" y="-45.5" font-family="Helvetica,sans-Serif" font-size="10.00">radio_tune_freq</text>
</g>
<!-- Node2 -->
<g id="node2" class="node"><title>Node2</title>
<g id="a_node2"><a xlink:href="external__interrupthandler_8h.html#a345dfb9a7e177c5da6eb9dc5b3c82bc9" target="_top" xlink:title="ext_interrupt_enable">
<polygon fill="white" stroke="black" points="120.5,-76.5 120.5,-95.5 224.5,-95.5 224.5,-76.5 120.5,-76.5"/>
<text text-anchor="middle" x="172.5" y="-83.5" font-family="Helvetica,sans-Serif" font-size="10.00">ext_interrupt_enable</text>
</a>
</g>
</g>
<!-- Node1&#45;&gt;Node2 -->
<g id="edge1" class="edge"><title>Node1&#45;&gt;Node2</title>
<path fill="none" stroke="midnightblue" d="M75.0521,-57.589C91.3993,-62.4044 111.409,-68.2988 128.957,-73.468"/>
<polygon fill="midnightblue" stroke="midnightblue" points="128.377,-76.9457 138.958,-76.4141 130.355,-70.2309 128.377,-76.9457"/>
</g>
<!-- Node3 -->
<g id="node3" class="node"><title>Node3</title>
<g id="a_node3"><a xlink:href="si4735_8h.html#af82ec28b536b1258ea4178108c61d5e9" target="_top" xlink:title="si4735_fm_tune_freq">
<polygon fill="white" stroke="black" points="119.5,-38.5 119.5,-57.5 225.5,-57.5 225.5,-38.5 119.5,-38.5"/>
<text text-anchor="middle" x="172.5" y="-45.5" font-family="Helvetica,sans-Serif" font-size="10.00">si4735_fm_tune_freq</text>
</a>
</g>
</g>
<!-- Node1&#45;&gt;Node3 -->
<g id="edge2" class="edge"><title>Node1&#45;&gt;Node3</title>
<path fill="none" stroke="midnightblue" d="M83.3164,-48C91.4867,-48 100.246,-48 108.957,-48"/>
<polygon fill="midnightblue" stroke="midnightblue" points="109.124,-51.5001 119.124,-48 109.124,-44.5001 109.124,-51.5001"/>
</g>
<!-- Node9 -->
<g id="node9" class="node"><title>Node9</title>
<g id="a_node9"><a xlink:href="external__interrupthandler_8h.html#a67fb5781413cf5c193be332cc6e52209" target="_top" xlink:title="ext_interrupt_disable">
<polygon fill="white" stroke="black" points="119,-0.5 119,-19.5 226,-19.5 226,-0.5 119,-0.5"/>
<text text-anchor="middle" x="172.5" y="-7.5" font-family="Helvetica,sans-Serif" font-size="10.00">ext_interrupt_disable</text>
</a>
</g>
</g>
<!-- Node1&#45;&gt;Node9 -->
<g id="edge8" class="edge"><title>Node1&#45;&gt;Node9</title>
<path fill="none" stroke="midnightblue" d="M75.0521,-38.411C91.3993,-33.5956 111.409,-27.7012 128.957,-22.532"/>
<polygon fill="midnightblue" stroke="midnightblue" points="130.355,-25.7691 138.958,-19.5859 128.377,-19.0543 130.355,-25.7691"/>
</g>
<!-- Node4 -->
<g id="node4" class="node"><title>Node4</title>
<g id="a_node4"><a xlink:href="i2c_8h.html#a6691e5911f539e1e8178c6e983e8079a" target="_top" xlink:title="Transmits I2C commands with a variable length to a I2C slave. ">
<polygon fill="white" stroke="black" points="278,-76.5 278,-95.5 350,-95.5 350,-76.5 278,-76.5"/>
<text text-anchor="middle" x="314" y="-83.5" font-family="Helvetica,sans-Serif" font-size="10.00">i2c_write_var</text>
</a>
</g>
</g>
<!-- Node3&#45;&gt;Node4 -->
<g id="edge3" class="edge"><title>Node3&#45;&gt;Node4</title>
<path fill="none" stroke="midnightblue" d="M208.702,-57.589C226.71,-62.4944 248.828,-68.5196 268.056,-73.7571"/>
<polygon fill="midnightblue" stroke="midnightblue" points="267.241,-77.1627 277.81,-76.4141 269.081,-70.4088 267.241,-77.1627"/>
</g>
<!-- Node7 -->
<g id="node7" class="node"><title>Node7</title>
<g id="a_node7"><a xlink:href="si4735_8c.html#aad8341b5b19aa8f962a6b9b940d77960" target="_top" xlink:title="si4735_get_interrupt">
<polygon fill="white" stroke="black" points="262,-38.5 262,-57.5 366,-57.5 366,-38.5 262,-38.5"/>
<text text-anchor="middle" x="314" y="-45.5" font-family="Helvetica,sans-Serif" font-size="10.00">si4735_get_interrupt</text>
</a>
</g>
</g>
<!-- Node3&#45;&gt;Node7 -->
<g id="edge6" class="edge"><title>Node3&#45;&gt;Node7</title>
<path fill="none" stroke="midnightblue" d="M225.842,-48C234.288,-48 243.098,-48 251.732,-48"/>
<polygon fill="midnightblue" stroke="midnightblue" points="251.755,-51.5001 261.755,-48 251.755,-44.5001 251.755,-51.5001"/>
</g>
<!-- Node8 -->
<g id="node8" class="node"><title>Node8</title>
<g id="a_node8"><a xlink:href="i2c_8h.html#a6dd896b0c82d1aa91a1a8155b41c4566" target="_top" xlink:title="Receives I2C commands until a NACK is received or received RxBytes. ">
<polygon fill="white" stroke="black" points="287.5,-0.5 287.5,-19.5 340.5,-19.5 340.5,-0.5 287.5,-0.5"/>
<text text-anchor="middle" x="314" y="-7.5" font-family="Helvetica,sans-Serif" font-size="10.00">i2c_read</text>
</a>
</g>
</g>
<!-- Node3&#45;&gt;Node8 -->
<g id="edge7" class="edge"><title>Node3&#45;&gt;Node8</title>
<path fill="none" stroke="midnightblue" d="M208.702,-38.411C229.788,-32.667 256.511,-25.3877 277.628,-19.6354"/>
<polygon fill="midnightblue" stroke="midnightblue" points="278.766,-22.953 287.495,-16.9477 276.926,-16.199 278.766,-22.953"/>
</g>
<!-- Node5 -->
<g id="node5" class="node"><title>Node5</title>
<g id="a_node5"><a xlink:href="i2c_8c.html#ae0625b97d3437bcaca4ac4b96dd01978" target="_top" xlink:title="Transmits I2C command array to a I2C slave. ">
<polygon fill="white" stroke="black" points="402,-76.5 402,-95.5 473,-95.5 473,-76.5 402,-76.5"/>
<text text-anchor="middle" x="437.5" y="-83.5" font-family="Helvetica,sans-Serif" font-size="10.00">i2c_write_arr</text>
</a>
</g>
</g>
<!-- Node4&#45;&gt;Node5 -->
<g id="edge4" class="edge"><title>Node4&#45;&gt;Node5</title>
<path fill="none" stroke="midnightblue" d="M350.143,-86C363.1,-86 377.959,-86 391.657,-86"/>
<polygon fill="midnightblue" stroke="midnightblue" points="391.856,-89.5001 401.856,-86 391.856,-82.5001 391.856,-89.5001"/>
</g>
<!-- Node6 -->
<g id="node6" class="node"><title>Node6</title>
<g id="a_node6"><a xlink:href="timer_8c.html#a3c56af3315c2461dec5ced585a5f84db" target="_top" xlink:title="_delay_ten_us">
<polygon fill="white" stroke="black" points="509,-76.5 509,-95.5 589,-95.5 589,-76.5 509,-76.5"/>
<text text-anchor="middle" x="549" y="-83.5" font-family="Helvetica,sans-Serif" font-size="10.00">_delay_ten_us</text>
</a>
</g>
</g>
<!-- Node5&#45;&gt;Node6 -->
<g id="edge5" class="edge"><title>Node5&#45;&gt;Node6</title>
<path fill="none" stroke="midnightblue" d="M473.146,-86C481.165,-86 489.851,-86 498.37,-86"/>
<polygon fill="midnightblue" stroke="midnightblue" points="498.623,-89.5001 508.623,-86 498.623,-82.5001 498.623,-89.5001"/>
</g>
</g>
</svg>
