<?xml version="1.0" encoding="UTF-8" standalone="no"?>
<!DOCTYPE svg PUBLIC "-//W3C//DTD SVG 1.1//EN"
 "http://www.w3.org/Graphics/SVG/1.1/DTD/svg11.dtd">
<!-- Generated by graphviz version 2.38.0 (20140413.2041)
 -->
<!-- Title: radio_main Pages: 1 -->
<!--zoomable 529 -->
<svg id="main" version="1.1" xmlns="http://www.w3.org/2000/svg" xmlns:xlink="http://www.w3.org/1999/xlink" xml:space="preserve" onload="init(evt)">
<style type="text/css"><![CDATA[
.edge:hover path { stroke: red; }
.edge:hover polygon { stroke: red; fill: red; }
]]></style>
<script type="text/javascript"><![CDATA[
var edges = document.getElementsByTagName('g');
if (edges && edges.length) {
  for (var i=0;i<edges.length;i++) {
    if (edges[i].id.substr(0,4)=='edge') {
      edges[i].setAttribute('class','edge');
    }
  }
}
]]></script>
        <defs>
                <circle id="rim" cx="0" cy="0" r="7"/>
                <circle id="rim2" cx="0" cy="0" r="3.5"/>
                <g id="zoomPlus">
                        <use xlink:href="#rim" fill="#404040">
                                <set attributeName="fill" to="#808080" begin="zoomplus.mouseover" end="zoomplus.mouseout"/>
                        </use>
                        <path d="M-4,0h8M0,-4v8" fill="none" stroke="white" stroke-width="1.5" pointer-events="none"/>
                </g>
                <g id="zoomMin">
                        <use xlink:href="#rim" fill="#404040">
                                <set attributeName="fill" to="#808080" begin="zoomminus.mouseover" end="zoomminus.mouseout"/>
                        </use>
                        <path d="M-4,0h8" fill="none" stroke="white" stroke-width="1.5" pointer-events="none"/>
                </g>
                <g id="dirArrow">
                        <path fill="none" stroke="white" stroke-width="1.5" d="M0,-3.0v7 M-2.5,-0.5L0,-3.0L2.5,-0.5"/>
                </g>
               <g id="resetDef">
                       <use xlink:href="#rim2" fill="#404040">
                               <set attributeName="fill" to="#808080" begin="reset.mouseover" end="reset.mouseout"/>
                       </use>
               </g>
        </defs>

<script type="text/javascript">
var viewWidth = 1133;
var viewHeight = 529;
var sectionId = 'dynsection-12';
</script>
<script xlink:href="svgpan.js"/>
<svg id="graph" class="graph">
<g id="viewport">
<title>radio_main</title>
<polygon fill="white" stroke="none" points="-4,4 -4,-525 1129,-525 1129,4 -4,4"/>
<!-- Node1 -->
<g id="node1" class="node"><title>Node1</title>
<polygon fill="#bfbfbf" stroke="black" points="0,-346.5 0,-365.5 64,-365.5 64,-346.5 0,-346.5"/>
<text text-anchor="middle" x="32" y="-353.5" font-family="Helvetica,sans-Serif" font-size="10.00">radio_main</text>
</g>
<!-- Node2 -->
<g id="node2" class="node"><title>Node2</title>
<g id="a_node2"><a xlink:href="radio_8c.html#ae11dbe9ea82d3ae65b6e80a4e6e995f8" target="_top" xlink:title="Set the volume. ">
<polygon fill="white" stroke="black" points="539.5,-387.5 539.5,-406.5 612.5,-406.5 612.5,-387.5 539.5,-387.5"/>
<text text-anchor="middle" x="576" y="-394.5" font-family="Helvetica,sans-Serif" font-size="10.00">radio_volume</text>
</a>
</g>
</g>
<!-- Node1&#45;&gt;Node2 -->
<g id="edge1" class="edge"><title>Node1&#45;&gt;Node2</title>
<path fill="none" stroke="midnightblue" d="M64.087,-358.352C155.081,-365.235 421.225,-385.368 528.946,-393.516"/>
<polygon fill="midnightblue" stroke="midnightblue" points="528.932,-397.025 539.168,-394.289 529.46,-390.045 528.932,-397.025"/>
</g>
<!-- Node11 -->
<g id="node11" class="node"><title>Node11</title>
<g id="a_node11"><a xlink:href="tpa2016d2_8c.html#a37d13c141314bbc991005b6932dc059e" target="_top" xlink:title="tpa2016d2_mute">
<polygon fill="white" stroke="black" points="110.5,-318.5 110.5,-337.5 199.5,-337.5 199.5,-318.5 110.5,-318.5"/>
<text text-anchor="middle" x="155" y="-325.5" font-family="Helvetica,sans-Serif" font-size="10.00">tpa2016d2_mute</text>
</a>
</g>
</g>
<!-- Node1&#45;&gt;Node11 -->
<g id="edge11" class="edge"><title>Node1&#45;&gt;Node11</title>
<path fill="none" stroke="midnightblue" d="M64.1605,-348.789C75.9899,-346.052 89.7939,-342.858 102.981,-339.806"/>
<polygon fill="midnightblue" stroke="midnightblue" points="103.95,-343.174 112.903,-337.51 102.371,-336.355 103.95,-343.174"/>
</g>
<!-- Node12 -->
<g id="node12" class="node"><title>Node12</title>
<g id="a_node12"><a xlink:href="radio_8c.html#a6d652e9d0f1c54bfe9ec73fe2605b706" target="_top" xlink:title="Tune the frequency. ">
<polygon fill="white" stroke="black" points="534.5,-429.5 534.5,-448.5 617.5,-448.5 617.5,-429.5 534.5,-429.5"/>
<text text-anchor="middle" x="576" y="-436.5" font-family="Helvetica,sans-Serif" font-size="10.00">radio_tune_freq</text>
</a>
</g>
</g>
<!-- Node1&#45;&gt;Node12 -->
<g id="edge13" class="edge"><title>Node1&#45;&gt;Node12</title>
<path fill="none" stroke="midnightblue" d="M55.8747,-365.611C68.6493,-370.616 84.9755,-376.422 100,-380 251.866,-416.163 436.639,-431.023 524.239,-436.372"/>
<polygon fill="midnightblue" stroke="midnightblue" points="524.241,-439.878 534.432,-436.977 524.657,-432.89 524.241,-439.878"/>
</g>
<!-- Node15 -->
<g id="node15" class="node"><title>Node15</title>
<g id="a_node15"><a xlink:href="radio__display_8h.html#a43baede098c7b21694b3fda71685fa06" target="_top" xlink:title="Handler for the display. ">
<polygon fill="white" stroke="black" points="100,-152.5 100,-171.5 210,-171.5 210,-152.5 100,-152.5"/>
<text text-anchor="middle" x="155" y="-159.5" font-family="Helvetica,sans-Serif" font-size="10.00">radio_display_handler</text>
</a>
</g>
</g>
<!-- Node1&#45;&gt;Node15 -->
<g id="edge20" class="edge"><title>Node1&#45;&gt;Node15</title>
<path fill="none" stroke="midnightblue" d="M39.0004,-346.38C58.0719,-315.802 117.517,-220.493 142.625,-180.237"/>
<polygon fill="midnightblue" stroke="midnightblue" points="145.641,-182.016 147.963,-171.679 139.701,-178.311 145.641,-182.016"/>
</g>
<!-- Node3 -->
<g id="node3" class="node"><title>Node3</title>
<g id="a_node3"><a xlink:href="external__interrupthandler_8h.html#a345dfb9a7e177c5da6eb9dc5b3c82bc9" target="_top" xlink:title="ext_interrupt_enable">
<polygon fill="white" stroke="black" points="656.5,-463.5 656.5,-482.5 760.5,-482.5 760.5,-463.5 656.5,-463.5"/>
<text text-anchor="middle" x="708.5" y="-470.5" font-family="Helvetica,sans-Serif" font-size="10.00">ext_interrupt_enable</text>
</a>
</g>
</g>
<!-- Node2&#45;&gt;Node3 -->
<g id="edge2" class="edge"><title>Node2&#45;&gt;Node3</title>
<path fill="none" stroke="midnightblue" d="M596.866,-406.54C604.082,-410.347 612.143,-415.012 619,-420 636.797,-432.947 636.261,-442.459 655,-454 658.201,-455.971 661.637,-457.781 665.163,-459.434"/>
<polygon fill="midnightblue" stroke="midnightblue" points="664.036,-462.758 674.608,-463.442 666.77,-456.314 664.036,-462.758"/>
</g>
<!-- Node4 -->
<g id="node4" class="node"><title>Node4</title>
<g id="a_node4"><a xlink:href="si4735_8h.html#aadc29a91f13cd5ebe239b23c7e5370dc" target="_top" xlink:title="si4735_set_property">
<polygon fill="white" stroke="black" points="656.5,-387.5 656.5,-406.5 760.5,-406.5 760.5,-387.5 656.5,-387.5"/>
<text text-anchor="middle" x="708.5" y="-394.5" font-family="Helvetica,sans-Serif" font-size="10.00">si4735_set_property</text>
</a>
</g>
</g>
<!-- Node2&#45;&gt;Node4 -->
<g id="edge3" class="edge"><title>Node2&#45;&gt;Node4</title>
<path fill="none" stroke="midnightblue" d="M612.66,-397C623.049,-397 634.709,-397 646.204,-397"/>
<polygon fill="midnightblue" stroke="midnightblue" points="646.227,-400.5 656.227,-397 646.227,-393.5 646.227,-400.5"/>
</g>
<!-- Node9 -->
<g id="node9" class="node"><title>Node9</title>
<g id="a_node9"><a xlink:href="external__interrupthandler_8h.html#a67fb5781413cf5c193be332cc6e52209" target="_top" xlink:title="ext_interrupt_disable">
<polygon fill="white" stroke="black" points="655,-425.5 655,-444.5 762,-444.5 762,-425.5 655,-425.5"/>
<text text-anchor="middle" x="708.5" y="-432.5" font-family="Helvetica,sans-Serif" font-size="10.00">ext_interrupt_disable</text>
</a>
</g>
</g>
<!-- Node2&#45;&gt;Node9 -->
<g id="edge8" class="edge"><title>Node2&#45;&gt;Node9</title>
<path fill="none" stroke="midnightblue" d="M609.931,-406.589C626.622,-411.449 647.089,-417.409 664.96,-422.613"/>
<polygon fill="midnightblue" stroke="midnightblue" points="664,-425.979 674.58,-425.414 665.957,-419.258 664,-425.979"/>
</g>
<!-- Node10 -->
<g id="node10" class="node"><title>Node10</title>
<g id="a_node10"><a xlink:href="timer_8c.html#a276d5cb665b9f8b2c79e53e2f2c5b4f0" target="_top" xlink:title="_delay_ms">
<polygon fill="white" stroke="black" points="818,-273.5 818,-292.5 882,-292.5 882,-273.5 818,-273.5"/>
<text text-anchor="middle" x="850" y="-280.5" font-family="Helvetica,sans-Serif" font-size="10.00">_delay_ms</text>
</a>
</g>
</g>
<!-- Node2&#45;&gt;Node10 -->
<g id="edge9" class="edge"><title>Node2&#45;&gt;Node10</title>
<path fill="none" stroke="midnightblue" d="M598.188,-387.478C637.382,-369.956 723.962,-331.684 798,-302 802.863,-300.05 808.013,-298.054 813.096,-296.122"/>
<polygon fill="midnightblue" stroke="midnightblue" points="814.566,-299.309 822.697,-292.517 812.105,-292.755 814.566,-299.309"/>
</g>
<!-- Node5 -->
<g id="node5" class="node"><title>Node5</title>
<g id="a_node5"><a xlink:href="i2c_8h.html#a6691e5911f539e1e8178c6e983e8079a" target="_top" xlink:title="Transmits I2C commands with a variable length to a I2C slave. ">
<polygon fill="white" stroke="black" points="814,-311.5 814,-330.5 886,-330.5 886,-311.5 814,-311.5"/>
<text text-anchor="middle" x="850" y="-318.5" font-family="Helvetica,sans-Serif" font-size="10.00">i2c_write_var</text>
</a>
</g>
</g>
<!-- Node4&#45;&gt;Node5 -->
<g id="edge4" class="edge"><title>Node4&#45;&gt;Node5</title>
<path fill="none" stroke="midnightblue" d="M731.728,-387.489C741.175,-383.279 752.241,-378.127 762,-373 783.95,-361.468 808.094,-346.877 825.367,-336.088"/>
<polygon fill="midnightblue" stroke="midnightblue" points="827.6,-338.818 834.198,-330.529 823.871,-332.894 827.6,-338.818"/>
</g>
<!-- Node8 -->
<g id="node8" class="node"><title>Node8</title>
<g id="a_node8"><a xlink:href="si4735_8c.html#aad8341b5b19aa8f962a6b9b940d77960" target="_top" xlink:title="si4735_get_interrupt">
<polygon fill="white" stroke="black" points="798,-425.5 798,-444.5 902,-444.5 902,-425.5 798,-425.5"/>
<text text-anchor="middle" x="850" y="-432.5" font-family="Helvetica,sans-Serif" font-size="10.00">si4735_get_interrupt</text>
</a>
</g>
</g>
<!-- Node4&#45;&gt;Node8 -->
<g id="edge7" class="edge"><title>Node4&#45;&gt;Node8</title>
<path fill="none" stroke="midnightblue" d="M744.702,-406.589C762.71,-411.494 784.828,-417.52 804.056,-422.757"/>
<polygon fill="midnightblue" stroke="midnightblue" points="803.241,-426.163 813.81,-425.414 805.081,-419.409 803.241,-426.163"/>
</g>
<!-- Node6 -->
<g id="node6" class="node"><title>Node6</title>
<g id="a_node6"><a xlink:href="i2c_8c.html#ae0625b97d3437bcaca4ac4b96dd01978" target="_top" xlink:title="Transmits I2C command array to a I2C slave. ">
<polygon fill="white" stroke="black" points="938,-311.5 938,-330.5 1009,-330.5 1009,-311.5 938,-311.5"/>
<text text-anchor="middle" x="973.5" y="-318.5" font-family="Helvetica,sans-Serif" font-size="10.00">i2c_write_arr</text>
</a>
</g>
</g>
<!-- Node5&#45;&gt;Node6 -->
<g id="edge5" class="edge"><title>Node5&#45;&gt;Node6</title>
<path fill="none" stroke="midnightblue" d="M886.143,-321C899.1,-321 913.959,-321 927.657,-321"/>
<polygon fill="midnightblue" stroke="midnightblue" points="927.856,-324.5 937.856,-321 927.856,-317.5 927.856,-324.5"/>
</g>
<!-- Node7 -->
<g id="node7" class="node"><title>Node7</title>
<g id="a_node7"><a xlink:href="timer_8c.html#a3c56af3315c2461dec5ced585a5f84db" target="_top" xlink:title="_delay_ten_us">
<polygon fill="white" stroke="black" points="1045,-292.5 1045,-311.5 1125,-311.5 1125,-292.5 1045,-292.5"/>
<text text-anchor="middle" x="1085" y="-299.5" font-family="Helvetica,sans-Serif" font-size="10.00">_delay_ten_us</text>
</a>
</g>
</g>
<!-- Node6&#45;&gt;Node7 -->
<g id="edge6" class="edge"><title>Node6&#45;&gt;Node7</title>
<path fill="none" stroke="midnightblue" d="M1009.15,-314.988C1017.25,-313.582 1026.04,-312.057 1034.65,-310.563"/>
<polygon fill="midnightblue" stroke="midnightblue" points="1035.37,-313.991 1044.62,-308.833 1034.17,-307.094 1035.37,-313.991"/>
</g>
<!-- Node10&#45;&gt;Node7 -->
<g id="edge10" class="edge"><title>Node10&#45;&gt;Node7</title>
<path fill="none" stroke="midnightblue" d="M882.423,-285.562C921.572,-288.755 988.903,-294.245 1034.89,-297.995"/>
<polygon fill="midnightblue" stroke="midnightblue" points="1034.68,-301.49 1044.93,-298.814 1035.25,-294.513 1034.68,-301.49"/>
</g>
<!-- Node11&#45;&gt;Node5 -->
<g id="edge12" class="edge"><title>Node11&#45;&gt;Node5</title>
<path fill="none" stroke="midnightblue" d="M199.613,-327.559C323.655,-326.307 677.601,-322.731 803.701,-321.458"/>
<polygon fill="midnightblue" stroke="midnightblue" points="803.821,-324.957 813.785,-321.356 803.75,-317.957 803.821,-324.957"/>
</g>
<!-- Node12&#45;&gt;Node3 -->
<g id="edge14" class="edge"><title>Node12&#45;&gt;Node3</title>
<path fill="none" stroke="midnightblue" d="M613.699,-448.561C628.293,-452.364 645.262,-456.785 660.723,-460.813"/>
<polygon fill="midnightblue" stroke="midnightblue" points="660.065,-464.258 670.624,-463.393 661.83,-457.484 660.065,-464.258"/>
</g>
<!-- Node12&#45;&gt;Node9 -->
<g id="edge19" class="edge"><title>Node12&#45;&gt;Node9</title>
<path fill="none" stroke="midnightblue" d="M617.576,-437.756C626.257,-437.49 635.622,-437.203 644.915,-436.918"/>
<polygon fill="midnightblue" stroke="midnightblue" points="645.047,-440.416 654.935,-436.611 644.832,-433.419 645.047,-440.416"/>
</g>
<!-- Node13 -->
<g id="node13" class="node"><title>Node13</title>
<g id="a_node13"><a xlink:href="si4735_8h.html#af82ec28b536b1258ea4178108c61d5e9" target="_top" xlink:title="si4735_fm_tune_freq">
<polygon fill="white" stroke="black" points="655.5,-501.5 655.5,-520.5 761.5,-520.5 761.5,-501.5 655.5,-501.5"/>
<text text-anchor="middle" x="708.5" y="-508.5" font-family="Helvetica,sans-Serif" font-size="10.00">si4735_fm_tune_freq</text>
</a>
</g>
</g>
<!-- Node12&#45;&gt;Node13 -->
<g id="edge15" class="edge"><title>Node12&#45;&gt;Node13</title>
<path fill="none" stroke="midnightblue" d="M589.101,-448.641C603.949,-460.125 630.211,-479.345 655,-492 658.993,-494.038 663.256,-495.96 667.563,-497.742"/>
<polygon fill="midnightblue" stroke="midnightblue" points="666.381,-501.038 676.97,-501.406 668.922,-494.515 666.381,-501.038"/>
</g>
<!-- Node13&#45;&gt;Node5 -->
<g id="edge16" class="edge"><title>Node13&#45;&gt;Node5</title>
<path fill="none" stroke="midnightblue" d="M747.402,-501.397C752.699,-498.93 757.768,-495.847 762,-492 789.655,-466.858 781.155,-449.365 798,-416 811.578,-389.105 828.241,-358.478 838.744,-339.442"/>
<polygon fill="midnightblue" stroke="midnightblue" points="841.843,-341.069 843.625,-330.625 835.719,-337.679 841.843,-341.069"/>
</g>
<!-- Node13&#45;&gt;Node8 -->
<g id="edge17" class="edge"><title>Node13&#45;&gt;Node8</title>
<path fill="none" stroke="midnightblue" d="M739.713,-501.425C747.143,-498.702 754.977,-495.511 762,-492 785.794,-480.104 811.014,-463.023 828.139,-450.664"/>
<polygon fill="midnightblue" stroke="midnightblue" points="830.305,-453.416 836.306,-444.684 826.17,-447.768 830.305,-453.416"/>
</g>
<!-- Node14 -->
<g id="node14" class="node"><title>Node14</title>
<g id="a_node14"><a xlink:href="i2c_8h.html#a6dd896b0c82d1aa91a1a8155b41c4566" target="_top" xlink:title="Receives I2C commands until a NACK is received or received RxBytes. ">
<polygon fill="white" stroke="black" points="823.5,-501.5 823.5,-520.5 876.5,-520.5 876.5,-501.5 823.5,-501.5"/>
<text text-anchor="middle" x="850" y="-508.5" font-family="Helvetica,sans-Serif" font-size="10.00">i2c_read</text>
</a>
</g>
</g>
<!-- Node13&#45;&gt;Node14 -->
<g id="edge18" class="edge"><title>Node13&#45;&gt;Node14</title>
<path fill="none" stroke="midnightblue" d="M761.842,-511C778.927,-511 797.502,-511 813.097,-511"/>
<polygon fill="midnightblue" stroke="midnightblue" points="813.363,-514.5 823.363,-511 813.363,-507.5 813.363,-514.5"/>
</g>
<!-- Node16 -->
<g id="node16" class="node"><title>Node16</title>
<g id="a_node16"><a xlink:href="radio__display_8c.html#af1021ae1d01d874fb72c3ce3d1b29ad9" target="_top" xlink:title="Displays the RDS data. ">
<polygon fill="white" stroke="black" points="256.5,-278.5 256.5,-297.5 348.5,-297.5 348.5,-278.5 256.5,-278.5"/>
<text text-anchor="middle" x="302.5" y="-285.5" font-family="Helvetica,sans-Serif" font-size="10.00">radio_display_rds</text>
</a>
</g>
</g>
<!-- Node15&#45;&gt;Node16 -->
<g id="edge21" class="edge"><title>Node15&#45;&gt;Node16</title>
<path fill="none" stroke="midnightblue" d="M161.66,-171.805C174.195,-192.683 206.35,-241.836 246,-269 248.859,-270.959 251.939,-272.733 255.13,-274.336"/>
<polygon fill="midnightblue" stroke="midnightblue" points="253.768,-277.561 264.328,-278.415 256.606,-271.162 253.768,-277.561"/>
</g>
<!-- Node17 -->
<g id="node17" class="node"><title>Node17</title>
<g id="a_node17"><a xlink:href="lcd_8h.html#acd63fb85d212730fa4fcbcbeeccd231e" target="_top" xlink:title="lcd_create_view">
<polygon fill="white" stroke="black" points="403.5,-177.5 403.5,-196.5 488.5,-196.5 488.5,-177.5 403.5,-177.5"/>
<text text-anchor="middle" x="446" y="-184.5" font-family="Helvetica,sans-Serif" font-size="10.00">lcd_create_view</text>
</a>
</g>
</g>
<!-- Node15&#45;&gt;Node17 -->
<g id="edge36" class="edge"><title>Node15&#45;&gt;Node17</title>
<path fill="none" stroke="midnightblue" d="M210.02,-166.673C262.445,-171.208 341.458,-178.043 393.138,-182.514"/>
<polygon fill="midnightblue" stroke="midnightblue" points="393.148,-186.028 403.413,-183.402 393.751,-179.054 393.148,-186.028"/>
</g>
<!-- Node22 -->
<g id="node22" class="node"><title>Node22</title>
<g id="a_node22"><a xlink:href="radio__display_8c.html#aa113a6affc99d406e8c73fc800648cb3" target="_top" xlink:title="Display the RSQ. ">
<polygon fill="white" stroke="black" points="256.5,-38.5 256.5,-57.5 348.5,-57.5 348.5,-38.5 256.5,-38.5"/>
<text text-anchor="middle" x="302.5" y="-45.5" font-family="Helvetica,sans-Serif" font-size="10.00">radio_display_rsq</text>
</a>
</g>
</g>
<!-- Node15&#45;&gt;Node22 -->
<g id="edge30" class="edge"><title>Node15&#45;&gt;Node22</title>
<path fill="none" stroke="midnightblue" d="M162.546,-152.468C176.019,-133.534 208.729,-90.949 246,-67 249.141,-64.9819 252.52,-63.1522 256.005,-61.4983"/>
<polygon fill="midnightblue" stroke="midnightblue" points="257.545,-64.6472 265.386,-57.5222 254.813,-58.2022 257.545,-64.6472"/>
</g>
<!-- Node24 -->
<g id="node24" class="node"><title>Node24</title>
<g id="a_node24"><a xlink:href="radio__display_8c.html#ab985392609874befae589a4e4ad57c86" target="_top" xlink:title="Display the PTY/PI states. ">
<polygon fill="white" stroke="black" points="252.5,-240.5 252.5,-259.5 352.5,-259.5 352.5,-240.5 252.5,-240.5"/>
<text text-anchor="middle" x="302.5" y="-247.5" font-family="Helvetica,sans-Serif" font-size="10.00">radio_display_pipty</text>
</a>
</g>
</g>
<!-- Node15&#45;&gt;Node24 -->
<g id="edge33" class="edge"><title>Node15&#45;&gt;Node24</title>
<path fill="none" stroke="midnightblue" d="M166.357,-171.505C182.393,-185.816 214.661,-213.023 246,-230 250.555,-232.467 255.476,-234.741 260.442,-236.8"/>
<polygon fill="midnightblue" stroke="midnightblue" points="259.371,-240.138 269.96,-240.491 261.902,-233.612 259.371,-240.138"/>
</g>
<!-- Node26 -->
<g id="node26" class="node"><title>Node26</title>
<g id="a_node26"><a xlink:href="string_8c.html#a0e45f80d2057e44647b21fd530fe185d" target="_top" xlink:title="string_fixedpoint_to\l_array">
<polygon fill="white" stroke="black" points="252,-191 252,-221 353,-221 353,-191 252,-191"/>
<text text-anchor="start" x="260" y="-209" font-family="Helvetica,sans-Serif" font-size="10.00">string_fixedpoint_to</text>
<text text-anchor="middle" x="302.5" y="-198" font-family="Helvetica,sans-Serif" font-size="10.00">_array</text>
</a>
</g>
</g>
<!-- Node15&#45;&gt;Node26 -->
<g id="edge37" class="edge"><title>Node15&#45;&gt;Node26</title>
<path fill="none" stroke="midnightblue" d="M187.571,-171.547C203.585,-176.39 223.569,-182.433 242.308,-188.1"/>
<polygon fill="midnightblue" stroke="midnightblue" points="241.381,-191.476 251.966,-191.021 243.407,-184.776 241.381,-191.476"/>
</g>
<!-- Node27 -->
<g id="node27" class="node"><title>Node27</title>
<g id="a_node27"><a xlink:href="radio__display_8c.html#ac056d01b161ce2b8c286190f619c94f8" target="_top" xlink:title="Updates the speaker symbol according to the current audio state. ">
<polygon fill="white" stroke="black" points="246,-0.5 246,-19.5 359,-19.5 359,-0.5 246,-0.5"/>
<text text-anchor="middle" x="302.5" y="-7.5" font-family="Helvetica,sans-Serif" font-size="10.00">radio_display_speaker</text>
</a>
</g>
</g>
<!-- Node15&#45;&gt;Node27 -->
<g id="edge38" class="edge"><title>Node15&#45;&gt;Node27</title>
<path fill="none" stroke="midnightblue" d="M159.887,-152.401C170.198,-128.12 200.6,-63.719 246,-29 248.43,-27.1421 251.053,-25.4586 253.791,-23.9342"/>
<polygon fill="midnightblue" stroke="midnightblue" points="255.335,-27.0756 262.831,-19.5882 252.302,-20.7668 255.335,-27.0756"/>
</g>
<!-- Node28 -->
<g id="node28" class="node"><title>Node28</title>
<g id="a_node28"><a xlink:href="menu_8h.html#a503ed2007daa6f20b2f748eedbcb8494" target="_top" xlink:title="Scroll to given position. ">
<polygon fill="white" stroke="black" points="268,-114.5 268,-133.5 337,-133.5 337,-114.5 268,-114.5"/>
<text text-anchor="middle" x="302.5" y="-121.5" font-family="Helvetica,sans-Serif" font-size="10.00">menu_scroll</text>
</a>
</g>
</g>
<!-- Node15&#45;&gt;Node28 -->
<g id="edge41" class="edge"><title>Node15&#45;&gt;Node28</title>
<path fill="none" stroke="midnightblue" d="M192.716,-152.411C212.539,-147.234 237.137,-140.809 257.926,-135.38"/>
<polygon fill="midnightblue" stroke="midnightblue" points="258.997,-138.718 267.788,-132.805 257.228,-131.945 258.997,-138.718"/>
</g>
<!-- Node29 -->
<g id="node29" class="node"><title>Node29</title>
<g id="a_node29"><a xlink:href="time_8c.html#aa90db1275cec05113ad9a5041f6f8293" target="_top" xlink:title="Convert time to array. ">
<polygon fill="white" stroke="black" points="252.5,-76.5 252.5,-95.5 352.5,-95.5 352.5,-76.5 252.5,-76.5"/>
<text text-anchor="middle" x="302.5" y="-83.5" font-family="Helvetica,sans-Serif" font-size="10.00">time_time_to_array</text>
</a>
</g>
</g>
<!-- Node15&#45;&gt;Node29 -->
<g id="edge43" class="edge"><title>Node15&#45;&gt;Node29</title>
<path fill="none" stroke="midnightblue" d="M168.855,-152.485C185.833,-140.248 216.983,-118.917 246,-105 250.362,-102.908 255.016,-100.938 259.703,-99.1173"/>
<polygon fill="midnightblue" stroke="midnightblue" points="261.109,-102.33 269.289,-95.5972 258.696,-95.7589 261.109,-102.33"/>
</g>
<!-- Node16&#45;&gt;Node17 -->
<g id="edge22" class="edge"><title>Node16&#45;&gt;Node17</title>
<path fill="none" stroke="midnightblue" d="M339.614,-278.478C346.331,-275.93 353.088,-272.799 359,-269 378.572,-256.424 378.25,-247.146 395,-231 404.916,-221.442 416.429,-211.253 425.905,-203.089"/>
<polygon fill="midnightblue" stroke="midnightblue" points="428.286,-205.659 433.618,-196.503 423.741,-200.335 428.286,-205.659"/>
</g>
<!-- Node21 -->
<g id="node21" class="node"><title>Node21</title>
<g id="a_node21"><a xlink:href="time_8c.html#a4c9e3c34eea90bf15a804da6ee4ad638" target="_top" xlink:title="Convert date to array. ">
<polygon fill="white" stroke="black" points="396,-278.5 396,-297.5 496,-297.5 496,-278.5 396,-278.5"/>
<text text-anchor="middle" x="446" y="-285.5" font-family="Helvetica,sans-Serif" font-size="10.00">time_date_to_array</text>
</a>
</g>
</g>
<!-- Node16&#45;&gt;Node21 -->
<g id="edge29" class="edge"><title>Node16&#45;&gt;Node21</title>
<path fill="none" stroke="midnightblue" d="M348.661,-288C360.414,-288 373.255,-288 385.621,-288"/>
<polygon fill="midnightblue" stroke="midnightblue" points="385.862,-291.5 395.862,-288 385.862,-284.5 385.862,-291.5"/>
</g>
<!-- Node18 -->
<g id="node18" class="node"><title>Node18</title>
<g id="a_node18"><a xlink:href="lcd_8c.html#a2a4df97ebc5b396233aa31765228ef42" target="_top" xlink:title="lcd_set_courser">
<polygon fill="white" stroke="black" points="533,-194.5 533,-213.5 619,-213.5 619,-194.5 533,-194.5"/>
<text text-anchor="middle" x="576" y="-201.5" font-family="Helvetica,sans-Serif" font-size="10.00">lcd_set_courser</text>
</a>
</g>
</g>
<!-- Node17&#45;&gt;Node18 -->
<g id="edge23" class="edge"><title>Node17&#45;&gt;Node18</title>
<path fill="none" stroke="midnightblue" d="M488.558,-192.519C499.4,-193.959 511.227,-195.53 522.554,-197.035"/>
<polygon fill="midnightblue" stroke="midnightblue" points="522.4,-200.545 532.773,-198.392 523.321,-193.606 522.4,-200.545"/>
</g>
<!-- Node20 -->
<g id="node20" class="node"><title>Node20</title>
<g id="a_node20"><a xlink:href="lcd_8c.html#aa6e1aa2ef9b677e16d8198df683429ec" target="_top" xlink:title="lcd_write_string">
<polygon fill="white" stroke="black" points="534,-258.5 534,-277.5 618,-277.5 618,-258.5 534,-258.5"/>
<text text-anchor="middle" x="576" y="-265.5" font-family="Helvetica,sans-Serif" font-size="10.00">lcd_write_string</text>
</a>
</g>
</g>
<!-- Node17&#45;&gt;Node20 -->
<g id="edge27" class="edge"><title>Node17&#45;&gt;Node20</title>
<path fill="none" stroke="midnightblue" d="M462.186,-196.61C484.222,-210.555 525.269,-236.529 551.306,-253.006"/>
<polygon fill="midnightblue" stroke="midnightblue" points="549.512,-256.013 559.834,-258.403 553.255,-250.098 549.512,-256.013"/>
</g>
<!-- Node19 -->
<g id="node19" class="node"><title>Node19</title>
<g id="a_node19"><a xlink:href="lcd_8c.html#a250728451a22259562d3f01a12bbd77b" target="_top" xlink:title="lcd_command">
<polygon fill="white" stroke="black" points="670,-235.5 670,-254.5 747,-254.5 747,-235.5 670,-235.5"/>
<text text-anchor="middle" x="708.5" y="-242.5" font-family="Helvetica,sans-Serif" font-size="10.00">lcd_command</text>
</a>
</g>
</g>
<!-- Node18&#45;&gt;Node19 -->
<g id="edge24" class="edge"><title>Node18&#45;&gt;Node19</title>
<path fill="none" stroke="midnightblue" d="M607.267,-213.509C625.092,-219.109 647.862,-226.263 667.194,-232.337"/>
<polygon fill="midnightblue" stroke="midnightblue" points="666.355,-235.742 676.945,-235.4 668.454,-229.064 666.355,-235.742"/>
</g>
<!-- Node19&#45;&gt;Node5 -->
<g id="edge25" class="edge"><title>Node19&#45;&gt;Node5</title>
<path fill="none" stroke="midnightblue" d="M734.654,-254.59C743.612,-258.492 753.563,-263.408 762,-269 780.091,-280.992 779.488,-290.668 798,-302 801.211,-303.965 804.658,-305.779 808.189,-307.441"/>
<polygon fill="midnightblue" stroke="midnightblue" points="807.061,-310.766 817.631,-311.485 809.817,-304.331 807.061,-310.766"/>
</g>
<!-- Node19&#45;&gt;Node10 -->
<g id="edge26" class="edge"><title>Node19&#45;&gt;Node10</title>
<path fill="none" stroke="midnightblue" d="M744.702,-254.589C763.897,-259.818 787.763,-266.319 807.819,-271.782"/>
<polygon fill="midnightblue" stroke="midnightblue" points="807.049,-275.2 817.617,-274.451 808.889,-268.446 807.049,-275.2"/>
</g>
<!-- Node20&#45;&gt;Node5 -->
<g id="edge28" class="edge"><title>Node20&#45;&gt;Node5</title>
<path fill="none" stroke="midnightblue" d="M618.016,-275.992C667.965,-285.725 752.056,-302.11 803.819,-312.196"/>
<polygon fill="midnightblue" stroke="midnightblue" points="803.236,-315.649 813.721,-314.126 804.575,-308.778 803.236,-315.649"/>
</g>
<!-- Node22&#45;&gt;Node17 -->
<g id="edge32" class="edge"><title>Node22&#45;&gt;Node17</title>
<path fill="none" stroke="midnightblue" d="M341.792,-57.586C347.876,-60.0764 353.851,-63.1714 359,-67 395.678,-94.2744 422.988,-141.78 436.183,-168.096"/>
<polygon fill="midnightblue" stroke="midnightblue" points="433.164,-169.892 440.681,-177.358 439.461,-166.834 433.164,-169.892"/>
</g>
<!-- Node23 -->
<g id="node23" class="node"><title>Node23</title>
<g id="a_node23"><a xlink:href="string_8c.html#a82b1b882cf97ff40344f87bd1473e9d0" target="_top" xlink:title="string_int_to_array">
<polygon fill="white" stroke="black" points="397.5,-19.5 397.5,-38.5 494.5,-38.5 494.5,-19.5 397.5,-19.5"/>
<text text-anchor="middle" x="446" y="-26.5" font-family="Helvetica,sans-Serif" font-size="10.00">string_int_to_array</text>
</a>
</g>
</g>
<!-- Node22&#45;&gt;Node23 -->
<g id="edge31" class="edge"><title>Node22&#45;&gt;Node23</title>
<path fill="none" stroke="midnightblue" d="M348.661,-41.936C360.914,-40.2907 374.351,-38.4864 387.198,-36.7614"/>
<polygon fill="midnightblue" stroke="midnightblue" points="387.896,-40.1992 397.341,-35.3994 386.964,-33.2615 387.896,-40.1992"/>
</g>
<!-- Node24&#45;&gt;Node17 -->
<g id="edge35" class="edge"><title>Node24&#45;&gt;Node17</title>
<path fill="none" stroke="midnightblue" d="M331.985,-240.461C340.735,-237.337 350.339,-233.711 359,-230 379.266,-221.318 401.512,-210.148 418.301,-201.369"/>
<polygon fill="midnightblue" stroke="midnightblue" points="420.289,-204.277 427.499,-196.514 417.021,-198.087 420.289,-204.277"/>
</g>
<!-- Node25 -->
<g id="node25" class="node"><title>Node25</title>
<g id="a_node25"><a xlink:href="string_8c.html#a29d88799b460e9bf31c5b6bcd3cd5ba3" target="_top" xlink:title="string_hex_to_array">
<polygon fill="white" stroke="black" points="395,-240.5 395,-259.5 497,-259.5 497,-240.5 395,-240.5"/>
<text text-anchor="middle" x="446" y="-247.5" font-family="Helvetica,sans-Serif" font-size="10.00">string_hex_to_array</text>
</a>
</g>
</g>
<!-- Node24&#45;&gt;Node25 -->
<g id="edge34" class="edge"><title>Node24&#45;&gt;Node25</title>
<path fill="none" stroke="midnightblue" d="M352.593,-250C362.876,-250 373.835,-250 384.478,-250"/>
<polygon fill="midnightblue" stroke="midnightblue" points="384.554,-253.5 394.553,-250 384.553,-246.5 384.554,-253.5"/>
</g>
<!-- Node27&#45;&gt;Node17 -->
<g id="edge39" class="edge"><title>Node27&#45;&gt;Node17</title>
<path fill="none" stroke="midnightblue" d="M343.358,-19.5518C348.985,-22.0254 354.408,-25.124 359,-29 403.812,-66.8276 429.154,-134.168 439.479,-167.375"/>
<polygon fill="midnightblue" stroke="midnightblue" points="436.206,-168.649 442.412,-177.236 442.916,-166.653 436.206,-168.649"/>
</g>
<!-- Node27&#45;&gt;Node23 -->
<g id="edge40" class="edge"><title>Node27&#45;&gt;Node23</title>
<path fill="none" stroke="midnightblue" d="M359.018,-17.4548C368.343,-18.7069 378.039,-20.0088 387.415,-21.2677"/>
<polygon fill="midnightblue" stroke="midnightblue" points="387.054,-24.7505 397.43,-22.6126 387.985,-17.8128 387.054,-24.7505"/>
</g>
<!-- Node28&#45;&gt;Node17 -->
<g id="edge42" class="edge"><title>Node28&#45;&gt;Node17</title>
<path fill="none" stroke="midnightblue" d="M325.953,-133.603C336.069,-137.957 348.154,-143.196 359,-148 377.67,-156.269 398.531,-165.724 415.031,-173.253"/>
<polygon fill="midnightblue" stroke="midnightblue" points="413.642,-176.467 424.192,-177.44 416.552,-170.1 413.642,-176.467"/>
</g>
</g>
</svg>
        <g id="navigator" transform="translate(0 0)" fill="#404254">
                <rect fill="#f2f5e9" fill-opacity="0.5" stroke="#606060" stroke-width=".5" x="0" y="0" width="60" height="60"/>
                <use id="zoomplus" xlink:href="#zoomPlus" x="17" y="9" onmousedown="handleZoom(evt,'in')"/>
                <use id="zoomminus" xlink:href="#zoomMin" x="42" y="9" onmousedown="handleZoom(evt,'out')"/>
                <use id="reset" xlink:href="#resetDef" x="30" y="36" onmousedown="handleReset()"/>
                <g id="arrowUp" xlink:href="#dirArrow" transform="translate(30 24)" onmousedown="handlePan(0,-1)">
                  <use xlink:href="#rim" fill="#404040">
                        <set attributeName="fill" to="#808080" begin="arrowUp.mouseover" end="arrowUp.mouseout"/>
                  </use>
                  <path fill="none" stroke="white" stroke-width="1.5" d="M0,-3.0v7 M-2.5,-0.5L0,-3.0L2.5,-0.5"/>
                </g>
                <g id="arrowRight" xlink:href="#dirArrow" transform="rotate(90) translate(36 -43)" onmousedown="handlePan(1,0)">
                  <use xlink:href="#rim" fill="#404040">
                        <set attributeName="fill" to="#808080" begin="arrowRight.mouseover" end="arrowRight.mouseout"/>
                  </use>
                  <path fill="none" stroke="white" stroke-width="1.5" d="M0,-3.0v7 M-2.5,-0.5L0,-3.0L2.5,-0.5"/>
                </g>
                <g id="arrowDown" xlink:href="#dirArrow" transform="rotate(180) translate(-30 -48)" onmousedown="handlePan(0,1)">
                  <use xlink:href="#rim" fill="#404040">
                        <set attributeName="fill" to="#808080" begin="arrowDown.mouseover" end="arrowDown.mouseout"/>
                  </use>
                  <path fill="none" stroke="white" stroke-width="1.5" d="M0,-3.0v7 M-2.5,-0.5L0,-3.0L2.5,-0.5"/>
                </g>
                <g id="arrowLeft" xlink:href="#dirArrow" transform="rotate(270) translate(-36 17)" onmousedown="handlePan(-1,0)">
                  <use xlink:href="#rim" fill="#404040">
                        <set attributeName="fill" to="#808080" begin="arrowLeft.mouseover" end="arrowLeft.mouseout"/>
                  </use>
                  <path fill="none" stroke="white" stroke-width="1.5" d="M0,-3.0v7 M-2.5,-0.5L0,-3.0L2.5,-0.5"/>
                </g>
        </g>
        <svg viewBox="0 0 15 15" width="100%" height="30px" preserveAspectRatio="xMaxYMin meet">
         <g id="arrow_out" transform="scale(0.3 0.3)">
          <a xlink:href="radio_8h_a841443a7db6e1c9caef95f3b7af5761f_cgraph_org.svg" target="_base">
           <rect id="button" ry="5" rx="5" y="6" x="6" height="38" width="38"
                fill="#f2f5e9" fill-opacity="0.5" stroke="#606060" stroke-width="1.0"/>
           <path id="arrow"
             d="M 11.500037,31.436501 C 11.940474,20.09759 22.043105,11.32322 32.158766,21.979434 L 37.068811,17.246167 C 37.068811,17.246167 37.088388,32 37.088388,32 L 22.160133,31.978069 C 22.160133,31.978069 26.997745,27.140456 26.997745,27.140456 C 18.528582,18.264221 13.291696,25.230495 11.500037,31.436501 z"
             style="fill:#404040;"/>
          </a>
         </g>
        </svg>
</svg>
