<?xml version="1.0" encoding="UTF-8" standalone="no"?>
<!DOCTYPE svg PUBLIC "-//W3C//DTD SVG 1.1//EN"
 "http://www.w3.org/Graphics/SVG/1.1/DTD/svg11.dtd">
<!-- Generated by graphviz version 2.38.0 (20140413.2041)
 -->
<!-- Title: radio_main Pages: 1 -->
<svg width="375pt" height="28pt"
 viewBox="0.00 0.00 375.00 28.00" xmlns="http://www.w3.org/2000/svg" xmlns:xlink="http://www.w3.org/1999/xlink">
<g id="graph0" class="graph" transform="scale(1 1) rotate(0) translate(4 24)">
<title>radio_main</title>
<polygon fill="white" stroke="none" points="-4,4 -4,-24 371,-24 371,4 -4,4"/>
<!-- Node1 -->
<g id="node1" class="node"><title>Node1</title>
<polygon fill="#bfbfbf" stroke="black" points="0,-0.5 0,-19.5 64,-19.5 64,-0.5 0,-0.5"/>
<text text-anchor="middle" x="32" y="-7.5" font-family="Helvetica,sans-Serif" font-size="10.00">radio_main</text>
</g>
<!-- Node2 -->
<g id="node2" class="node"><title>Node2</title>
<g id="a_node2"><a xlink:href="menu_2src_2menu_8c.html#a6e158a5dda1d308b5a56ee88538eb0fc" target="_top" xlink:title="menu_function">
<polygon fill="white" stroke="black" points="100,-0.5 100,-19.5 180,-19.5 180,-0.5 100,-0.5"/>
<text text-anchor="middle" x="140" y="-7.5" font-family="Helvetica,sans-Serif" font-size="10.00">menu_function</text>
</a>
</g>
</g>
<!-- Node1&#45;&gt;Node2 -->
<g id="edge1" class="edge"><title>Node1&#45;&gt;Node2</title>
<path fill="none" stroke="midnightblue" d="M74.4724,-10C82.7776,-10 91.4797,-10 99.7084,-10"/>
<polygon fill="midnightblue" stroke="midnightblue" points="74.2302,-6.5001 64.2302,-10 74.2301,-13.5001 74.2302,-6.5001"/>
</g>
<!-- Node3 -->
<g id="node3" class="node"><title>Node3</title>
<g id="a_node3"><a xlink:href="menu_2src_2menu_8c.html#a8509849c574fb30136ac9ec88081d47c" target="_top" xlink:title="menu_handler">
<polygon fill="white" stroke="black" points="216,-0.5 216,-19.5 293,-19.5 293,-0.5 216,-0.5"/>
<text text-anchor="middle" x="254.5" y="-7.5" font-family="Helvetica,sans-Serif" font-size="10.00">menu_handler</text>
</a>
</g>
</g>
<!-- Node2&#45;&gt;Node3 -->
<g id="edge2" class="edge"><title>Node2&#45;&gt;Node3</title>
<path fill="none" stroke="midnightblue" d="M190.262,-10C198.783,-10 207.52,-10 215.676,-10"/>
<polygon fill="midnightblue" stroke="midnightblue" points="190.031,-6.5001 180.031,-10 190.031,-13.5001 190.031,-6.5001"/>
</g>
<!-- Node4 -->
<g id="node4" class="node"><title>Node4</title>
<g id="a_node4"><a xlink:href="main_8c.html#a840291bc02cba5474a4cb46a9b9566fe" target="_top" xlink:title="main">
<polygon fill="white" stroke="black" points="329,-0.5 329,-19.5 367,-19.5 367,-0.5 329,-0.5"/>
<text text-anchor="middle" x="348" y="-7.5" font-family="Helvetica,sans-Serif" font-size="10.00">main</text>
</a>
</g>
</g>
<!-- Node3&#45;&gt;Node4 -->
<g id="edge3" class="edge"><title>Node3&#45;&gt;Node4</title>
<path fill="none" stroke="midnightblue" d="M303.362,-10C312.347,-10 321.223,-10 328.601,-10"/>
<polygon fill="midnightblue" stroke="midnightblue" points="303.245,-6.5001 293.245,-10 303.245,-13.5001 303.245,-6.5001"/>
</g>
</g>
</svg>
