<?xml version="1.0" encoding="UTF-8" standalone="no"?>
<!DOCTYPE svg PUBLIC "-//W3C//DTD SVG 1.1//EN"
 "http://www.w3.org/Graphics/SVG/1.1/DTD/svg11.dtd">
<!-- Generated by graphviz version 2.38.0 (20140413.2041)
 -->
<!-- Title: D:/GIT/fhradiov2/settings/radio_pin_mapping.h Pages: 1 -->
<svg width="1013pt" height="575pt"
 viewBox="0.00 0.00 1013.00 575.00" xmlns="http://www.w3.org/2000/svg" xmlns:xlink="http://www.w3.org/1999/xlink">
<g id="graph0" class="graph" transform="scale(1 1) rotate(0) translate(4 571)">
<title>D:/GIT/fhradiov2/settings/radio_pin_mapping.h</title>
<polygon fill="white" stroke="none" points="-4,4 -4,-571 1009,-571 1009,4 -4,4"/>
<!-- Node1 -->
<g id="node1" class="node"><title>Node1</title>
<polygon fill="#bfbfbf" stroke="black" points="550,-536.5 550,-566.5 672,-566.5 672,-536.5 550,-536.5"/>
<text text-anchor="start" x="558" y="-554.5" font-family="Helvetica,sans-Serif" font-size="10.00">D:/GIT/fhradiov2/settings</text>
<text text-anchor="middle" x="611" y="-543.5" font-family="Helvetica,sans-Serif" font-size="10.00">/radio_pin_mapping.h</text>
</g>
<!-- Node2 -->
<g id="node2" class="node"><title>Node2</title>
<g id="a_node2"><a xlink:href="encoder_8h.html" target="_top" xlink:title="D:/GIT/fhradiov2/driver\l/encoder.h">
<polygon fill="white" stroke="black" points="468,-402.5 468,-432.5 578,-432.5 578,-402.5 468,-402.5"/>
<text text-anchor="start" x="476" y="-420.5" font-family="Helvetica,sans-Serif" font-size="10.00">D:/GIT/fhradiov2/driver</text>
<text text-anchor="middle" x="523" y="-409.5" font-family="Helvetica,sans-Serif" font-size="10.00">/encoder.h</text>
</a>
</g>
</g>
<!-- Node1&#45;&gt;Node2 -->
<g id="edge1" class="edge"><title>Node1&#45;&gt;Node2</title>
<path fill="none" stroke="midnightblue" d="M595.889,-527.834C577.644,-500.466 547.523,-455.284 532.35,-432.525"/>
<polygon fill="midnightblue" stroke="midnightblue" points="593.123,-529.995 601.582,-536.374 598.948,-526.112 593.123,-529.995"/>
</g>
<!-- Node25 -->
<g id="node25" class="node"><title>Node25</title>
<g id="a_node25"><a xlink:href="external__interrupthandler_8h.html" target="_top" xlink:title="D:/GIT/fhradiov2/driver\l/external_interrupthandler.h">
<polygon fill="white" stroke="black" points="605,-469.5 605,-499.5 739,-499.5 739,-469.5 605,-469.5"/>
<text text-anchor="start" x="613" y="-487.5" font-family="Helvetica,sans-Serif" font-size="10.00">D:/GIT/fhradiov2/driver</text>
<text text-anchor="middle" x="672" y="-476.5" font-family="Helvetica,sans-Serif" font-size="10.00">/external_interrupthandler.h</text>
</a>
</g>
</g>
<!-- Node1&#45;&gt;Node25 -->
<g id="edge35" class="edge"><title>Node1&#45;&gt;Node25</title>
<path fill="none" stroke="midnightblue" d="M631.154,-529.024C640.243,-519.34 650.721,-508.174 658.79,-499.577"/>
<polygon fill="midnightblue" stroke="midnightblue" points="628.527,-526.709 624.236,-536.396 633.631,-531.499 628.527,-526.709"/>
</g>
<!-- Node28 -->
<g id="node28" class="node"><title>Node28</title>
<g id="a_node28"><a xlink:href="lcd_8h.html" target="_top" xlink:title="D:/GIT/fhradiov2/driver\l/lcd.h">
<polygon fill="white" stroke="black" points="174,-402.5 174,-432.5 284,-432.5 284,-402.5 174,-402.5"/>
<text text-anchor="start" x="182" y="-420.5" font-family="Helvetica,sans-Serif" font-size="10.00">D:/GIT/fhradiov2/driver</text>
<text text-anchor="middle" x="229" y="-409.5" font-family="Helvetica,sans-Serif" font-size="10.00">/lcd.h</text>
</a>
</g>
</g>
<!-- Node1&#45;&gt;Node28 -->
<g id="edge40" class="edge"><title>Node1&#45;&gt;Node28</title>
<path fill="none" stroke="midnightblue" d="M539.491,-547.294C481.132,-542.44 397.717,-530.299 331,-500 294.677,-483.504 260.087,-451.169 242.016,-432.57"/>
<polygon fill="midnightblue" stroke="midnightblue" points="539.481,-550.804 549.723,-548.092 540.025,-543.825 539.481,-550.804"/>
</g>
<!-- Node30 -->
<g id="node30" class="node"><title>Node30</title>
<g id="a_node30"><a xlink:href="si4735_8h.html" target="_top" xlink:title="D:/GIT/fhradiov2/driver\l/si4735.h">
<polygon fill="white" stroke="black" points="842,-335.5 842,-365.5 952,-365.5 952,-335.5 842,-335.5"/>
<text text-anchor="start" x="850" y="-353.5" font-family="Helvetica,sans-Serif" font-size="10.00">D:/GIT/fhradiov2/driver</text>
<text text-anchor="middle" x="897" y="-342.5" font-family="Helvetica,sans-Serif" font-size="10.00">/si4735.h</text>
</a>
</g>
</g>
<!-- Node1&#45;&gt;Node30 -->
<g id="edge44" class="edge"><title>Node1&#45;&gt;Node30</title>
<path fill="none" stroke="midnightblue" d="M674.938,-533.276C698.929,-525.219 725.751,-514.212 748,-500 808.326,-461.466 863.619,-394.889 886.224,-365.798"/>
<polygon fill="midnightblue" stroke="midnightblue" points="673.632,-530.02 665.203,-536.439 675.795,-536.678 673.632,-530.02"/>
</g>
<!-- Node31 -->
<g id="node31" class="node"><title>Node31</title>
<g id="a_node31"><a xlink:href="pca9530_8c.html" target="_top" xlink:title="D:/GIT/fhradiov2/driver\l/src/pca9530.c">
<polygon fill="white" stroke="black" points="880,-469.5 880,-499.5 990,-499.5 990,-469.5 880,-469.5"/>
<text text-anchor="start" x="888" y="-487.5" font-family="Helvetica,sans-Serif" font-size="10.00">D:/GIT/fhradiov2/driver</text>
<text text-anchor="middle" x="935" y="-476.5" font-family="Helvetica,sans-Serif" font-size="10.00">/src/pca9530.c</text>
</a>
</g>
</g>
<!-- Node1&#45;&gt;Node31 -->
<g id="edge49" class="edge"><title>Node1&#45;&gt;Node31</title>
<path fill="none" stroke="midnightblue" d="M682.063,-536.656C733.24,-526.631 803.92,-512.669 866,-500 870.438,-499.094 875.034,-498.148 879.65,-497.191"/>
<polygon fill="midnightblue" stroke="midnightblue" points="681.237,-533.252 672.096,-538.608 682.582,-540.121 681.237,-533.252"/>
</g>
<!-- Node32 -->
<g id="node32" class="node"><title>Node32</title>
<g id="a_node32"><a xlink:href="tpa2016d2_8h.html" target="_top" xlink:title="D:/GIT/fhradiov2/driver\l/tpa2016d2.h">
<polygon fill="white" stroke="black" points="340,-469.5 340,-499.5 450,-499.5 450,-469.5 340,-469.5"/>
<text text-anchor="start" x="348" y="-487.5" font-family="Helvetica,sans-Serif" font-size="10.00">D:/GIT/fhradiov2/driver</text>
<text text-anchor="middle" x="395" y="-476.5" font-family="Helvetica,sans-Serif" font-size="10.00">/tpa2016d2.h</text>
</a>
</g>
</g>
<!-- Node1&#45;&gt;Node32 -->
<g id="edge50" class="edge"><title>Node1&#45;&gt;Node32</title>
<path fill="none" stroke="midnightblue" d="M554.773,-533.58C519.69,-523.022 475.06,-509.592 441.892,-499.611"/>
<polygon fill="midnightblue" stroke="midnightblue" points="553.813,-536.946 564.397,-536.476 555.83,-530.243 553.813,-536.946"/>
</g>
<!-- Node3 -->
<g id="node3" class="node"><title>Node3</title>
<g id="a_node3"><a xlink:href="encoder_8c.html" target="_top" xlink:title="D:/GIT/fhradiov2/driver\l/src/encoder.c">
<polygon fill="white" stroke="black" points="538,-335.5 538,-365.5 648,-365.5 648,-335.5 538,-335.5"/>
<text text-anchor="start" x="546" y="-353.5" font-family="Helvetica,sans-Serif" font-size="10.00">D:/GIT/fhradiov2/driver</text>
<text text-anchor="middle" x="593" y="-342.5" font-family="Helvetica,sans-Serif" font-size="10.00">/src/encoder.c</text>
</a>
</g>
</g>
<!-- Node2&#45;&gt;Node3 -->
<g id="edge2" class="edge"><title>Node2&#45;&gt;Node3</title>
<path fill="none" stroke="midnightblue" d="M545.818,-395.311C556.319,-385.561 568.49,-374.259 577.841,-365.577"/>
<polygon fill="midnightblue" stroke="midnightblue" points="543.135,-393.027 538.189,-402.396 547.899,-398.156 543.135,-393.027"/>
</g>
<!-- Node4 -->
<g id="node4" class="node"><title>Node4</title>
<g id="a_node4"><a xlink:href="menu_8h.html" target="_top" xlink:title="D:/GIT/fhradiov2/menu\l/menu.h">
<polygon fill="white" stroke="black" points="230,-335.5 230,-365.5 342,-365.5 342,-335.5 230,-335.5"/>
<text text-anchor="start" x="238" y="-353.5" font-family="Helvetica,sans-Serif" font-size="10.00">D:/GIT/fhradiov2/menu</text>
<text text-anchor="middle" x="286" y="-342.5" font-family="Helvetica,sans-Serif" font-size="10.00">/menu.h</text>
</a>
</g>
</g>
<!-- Node2&#45;&gt;Node4 -->
<g id="edge3" class="edge"><title>Node2&#45;&gt;Node4</title>
<path fill="none" stroke="midnightblue" d="M461.799,-399.715C423.232,-389.137 373.999,-375.635 337.451,-365.611"/>
<polygon fill="midnightblue" stroke="midnightblue" points="461.297,-403.206 471.866,-402.476 463.148,-396.456 461.297,-403.206"/>
</g>
<!-- Node8 -->
<g id="node8" class="node"><title>Node8</title>
<g id="a_node8"><a xlink:href="radio_8h.html" target="_top" xlink:title="D:/GIT/fhradiov2/radio\l/radio.h">
<polygon fill="white" stroke="black" points="455.5,-268.5 455.5,-298.5 564.5,-298.5 564.5,-268.5 455.5,-268.5"/>
<text text-anchor="start" x="463.5" y="-286.5" font-family="Helvetica,sans-Serif" font-size="10.00">D:/GIT/fhradiov2/radio</text>
<text text-anchor="middle" x="510" y="-275.5" font-family="Helvetica,sans-Serif" font-size="10.00">/radio.h</text>
</a>
</g>
</g>
<!-- Node2&#45;&gt;Node8 -->
<g id="edge34" class="edge"><title>Node2&#45;&gt;Node8</title>
<path fill="none" stroke="midnightblue" d="M520.626,-392.39C517.918,-364.901 513.584,-320.888 511.381,-298.525"/>
<polygon fill="midnightblue" stroke="midnightblue" points="517.145,-392.765 521.609,-402.374 524.112,-392.079 517.145,-392.765"/>
</g>
<!-- Node5 -->
<g id="node5" class="node"><title>Node5</title>
<g id="a_node5"><a xlink:href="menu__struct_8h.html" target="_top" xlink:title="D:/GIT/fhradiov2/menu\l/menu_struct.h">
<polygon fill="white" stroke="black" points="129,-268.5 129,-298.5 241,-298.5 241,-268.5 129,-268.5"/>
<text text-anchor="start" x="137" y="-286.5" font-family="Helvetica,sans-Serif" font-size="10.00">D:/GIT/fhradiov2/menu</text>
<text text-anchor="middle" x="185" y="-275.5" font-family="Helvetica,sans-Serif" font-size="10.00">/menu_struct.h</text>
</a>
</g>
</g>
<!-- Node4&#45;&gt;Node5 -->
<g id="edge4" class="edge"><title>Node4&#45;&gt;Node5</title>
<path fill="none" stroke="midnightblue" d="M249.48,-330.015C232.933,-319.9 214.274,-307.77 201.198,-298.577"/>
<polygon fill="midnightblue" stroke="midnightblue" points="248.035,-333.231 258.406,-335.396 251.649,-327.236 248.035,-333.231"/>
</g>
<!-- Node7 -->
<g id="node7" class="node"><title>Node7</title>
<g id="a_node7"><a xlink:href="menu_8c.html" target="_top" xlink:title="D:/GIT/fhradiov2/menu\l/src/menu.c">
<polygon fill="white" stroke="black" points="259,-268.5 259,-298.5 371,-298.5 371,-268.5 259,-268.5"/>
<text text-anchor="start" x="267" y="-286.5" font-family="Helvetica,sans-Serif" font-size="10.00">D:/GIT/fhradiov2/menu</text>
<text text-anchor="middle" x="315" y="-275.5" font-family="Helvetica,sans-Serif" font-size="10.00">/src/menu.c</text>
</a>
</g>
</g>
<!-- Node4&#45;&gt;Node7 -->
<g id="edge7" class="edge"><title>Node4&#45;&gt;Node7</title>
<path fill="none" stroke="midnightblue" d="M296.489,-325.991C300.587,-316.804 305.15,-306.578 308.72,-298.577"/>
<polygon fill="midnightblue" stroke="midnightblue" points="293.171,-324.838 292.293,-335.396 299.563,-327.69 293.171,-324.838"/>
</g>
<!-- Node4&#45;&gt;Node8 -->
<g id="edge8" class="edge"><title>Node4&#45;&gt;Node8</title>
<path fill="none" stroke="midnightblue" d="M338.303,-332.58C373.595,-322.022 419.987,-308.592 455.692,-298.611"/>
<polygon fill="midnightblue" stroke="midnightblue" points="337.231,-329.247 328.661,-335.476 339.245,-335.951 337.231,-329.247"/>
</g>
<!-- Node14 -->
<g id="node14" class="node"><title>Node14</title>
<g id="a_node14"><a xlink:href="handler_8h.html" target="_top" xlink:title="D:/GIT/fhradiov2/system\l/handler.h">
<polygon fill="white" stroke="black" points="609,-134.5 609,-164.5 729,-164.5 729,-134.5 609,-134.5"/>
<text text-anchor="start" x="617" y="-152.5" font-family="Helvetica,sans-Serif" font-size="10.00">D:/GIT/fhradiov2/system</text>
<text text-anchor="middle" x="669" y="-141.5" font-family="Helvetica,sans-Serif" font-size="10.00">/handler.h</text>
</a>
</g>
</g>
<!-- Node4&#45;&gt;Node14 -->
<g id="edge33" class="edge"><title>Node4&#45;&gt;Node14</title>
<path fill="none" stroke="midnightblue" d="M322.7,-330.462C340.191,-321.217 361.325,-309.794 380,-299 451.542,-257.649 464.014,-237.8 538,-201 566.698,-186.726 600.479,-173.791 626.549,-164.586"/>
<polygon fill="midnightblue" stroke="midnightblue" points="320.616,-327.604 313.396,-335.357 323.875,-333.799 320.616,-327.604"/>
</g>
<!-- Node5&#45;&gt;Node4 -->
<g id="edge5" class="edge"><title>Node5&#45;&gt;Node4</title>
<path fill="none" stroke="midnightblue" d="M221.471,-303.955C238.013,-314.066 256.675,-326.197 269.763,-335.396"/>
<polygon fill="midnightblue" stroke="midnightblue" points="222.919,-300.741 212.548,-298.577 219.306,-306.736 222.919,-300.741"/>
</g>
<!-- Node6 -->
<g id="node6" class="node"><title>Node6</title>
<g id="a_node6"><a xlink:href="menu__struct_8c.html" target="_top" xlink:title="D:/GIT/fhradiov2/menu\l/src/menu_struct.c">
<polygon fill="white" stroke="black" points="0,-201.5 0,-231.5 112,-231.5 112,-201.5 0,-201.5"/>
<text text-anchor="start" x="8" y="-219.5" font-family="Helvetica,sans-Serif" font-size="10.00">D:/GIT/fhradiov2/menu</text>
<text text-anchor="middle" x="56" y="-208.5" font-family="Helvetica,sans-Serif" font-size="10.00">/src/menu_struct.c</text>
</a>
</g>
</g>
<!-- Node5&#45;&gt;Node6 -->
<g id="edge6" class="edge"><title>Node5&#45;&gt;Node6</title>
<path fill="none" stroke="midnightblue" d="M147.993,-263.853C127.597,-253.576 102.688,-241.025 83.9365,-231.577"/>
<polygon fill="midnightblue" stroke="midnightblue" points="146.504,-267.022 157.009,-268.396 149.653,-260.77 146.504,-267.022"/>
</g>
<!-- Node8&#45;&gt;Node4 -->
<g id="edge9" class="edge"><title>Node8&#45;&gt;Node4</title>
<path fill="none" stroke="midnightblue" d="M457.389,-301.512C422.033,-312.086 375.64,-325.515 339.997,-335.476"/>
<polygon fill="midnightblue" stroke="midnightblue" points="458.48,-304.839 467.051,-298.611 456.467,-298.135 458.48,-304.839"/>
</g>
<!-- Node9 -->
<g id="node9" class="node"><title>Node9</title>
<g id="a_node9"><a xlink:href="radio__display_8h.html" target="_top" xlink:title="D:/GIT/fhradiov2/radio\l/radio_display.h">
<polygon fill="white" stroke="black" points="187.5,-201.5 187.5,-231.5 296.5,-231.5 296.5,-201.5 187.5,-201.5"/>
<text text-anchor="start" x="195.5" y="-219.5" font-family="Helvetica,sans-Serif" font-size="10.00">D:/GIT/fhradiov2/radio</text>
<text text-anchor="middle" x="242" y="-208.5" font-family="Helvetica,sans-Serif" font-size="10.00">/radio_display.h</text>
</a>
</g>
</g>
<!-- Node8&#45;&gt;Node9 -->
<g id="edge10" class="edge"><title>Node8&#45;&gt;Node9</title>
<path fill="none" stroke="midnightblue" d="M445.555,-268.252C399.288,-257.372 337.787,-242.454 294.494,-231.609"/>
<polygon fill="midnightblue" stroke="midnightblue" points="444.946,-271.703 455.481,-270.578 446.543,-264.888 444.946,-271.703"/>
</g>
<!-- Node11 -->
<g id="node11" class="node"><title>Node11</title>
<g id="a_node11"><a xlink:href="radio__settings_8h.html" target="_top" xlink:title="D:/GIT/fhradiov2/radio\l/radio_settings.h">
<polygon fill="white" stroke="black" points="94.5,-67.5 94.5,-97.5 203.5,-97.5 203.5,-67.5 94.5,-67.5"/>
<text text-anchor="start" x="102.5" y="-85.5" font-family="Helvetica,sans-Serif" font-size="10.00">D:/GIT/fhradiov2/radio</text>
<text text-anchor="middle" x="149" y="-74.5" font-family="Helvetica,sans-Serif" font-size="10.00">/radio_settings.h</text>
</a>
</g>
</g>
<!-- Node8&#45;&gt;Node11 -->
<g id="edge13" class="edge"><title>Node8&#45;&gt;Node11</title>
<path fill="none" stroke="midnightblue" d="M444.962,-275.247C348.678,-263.667 178.757,-241.356 169,-232 131.65,-196.183 134.611,-127.552 142.061,-97.82"/>
<polygon fill="midnightblue" stroke="midnightblue" points="444.837,-278.757 455.182,-276.469 445.669,-271.806 444.837,-278.757"/>
</g>
<!-- Node13 -->
<g id="node13" class="node"><title>Node13</title>
<g id="a_node13"><a xlink:href="radio_8c.html" target="_top" xlink:title="D:/GIT/fhradiov2/radio\l/src/radio.c">
<polygon fill="white" stroke="black" points="547.5,-201.5 547.5,-231.5 656.5,-231.5 656.5,-201.5 547.5,-201.5"/>
<text text-anchor="start" x="555.5" y="-219.5" font-family="Helvetica,sans-Serif" font-size="10.00">D:/GIT/fhradiov2/radio</text>
<text text-anchor="middle" x="602" y="-208.5" font-family="Helvetica,sans-Serif" font-size="10.00">/src/radio.c</text>
</a>
</g>
</g>
<!-- Node8&#45;&gt;Node13 -->
<g id="edge16" class="edge"><title>Node8&#45;&gt;Node13</title>
<path fill="none" stroke="midnightblue" d="M538.377,-262.451C552.53,-252.452 569.305,-240.6 582.076,-231.577"/>
<polygon fill="midnightblue" stroke="midnightblue" points="536.11,-259.767 529.963,-268.396 540.149,-265.484 536.11,-259.767"/>
</g>
<!-- Node8&#45;&gt;Node14 -->
<g id="edge17" class="edge"><title>Node8&#45;&gt;Node14</title>
<path fill="none" stroke="midnightblue" d="M574.728,-278.205C607.109,-272.452 643.822,-259.718 665,-232 679.879,-212.526 676.475,-182.153 672.703,-164.505"/>
<polygon fill="midnightblue" stroke="midnightblue" points="574.167,-274.75 564.84,-279.775 575.265,-281.663 574.167,-274.75"/>
</g>
<!-- Node17 -->
<g id="node17" class="node"><title>Node17</title>
<g id="a_node17"><a xlink:href="rds_8h.html" target="_top" xlink:title="D:/GIT/fhradiov2/system\l/rds.h">
<polygon fill="white" stroke="black" points="719,-201.5 719,-231.5 839,-231.5 839,-201.5 719,-201.5"/>
<text text-anchor="start" x="727" y="-219.5" font-family="Helvetica,sans-Serif" font-size="10.00">D:/GIT/fhradiov2/system</text>
<text text-anchor="middle" x="779" y="-208.5" font-family="Helvetica,sans-Serif" font-size="10.00">/rds.h</text>
</a>
</g>
</g>
<!-- Node8&#45;&gt;Node17 -->
<g id="edge20" class="edge"><title>Node8&#45;&gt;Node17</title>
<path fill="none" stroke="midnightblue" d="M574.621,-266.885C619.211,-256.111 677.989,-241.908 721.06,-231.5"/>
<polygon fill="midnightblue" stroke="midnightblue" points="573.659,-263.517 564.76,-269.268 575.303,-270.321 573.659,-263.517"/>
</g>
<!-- Node19 -->
<g id="node19" class="node"><title>Node19</title>
<g id="a_node19"><a xlink:href="rsq_8h.html" target="_top" xlink:title="D:/GIT/fhradiov2/system\l/rsq.h">
<polygon fill="white" stroke="black" points="860,-201.5 860,-231.5 980,-231.5 980,-201.5 860,-201.5"/>
<text text-anchor="start" x="868" y="-219.5" font-family="Helvetica,sans-Serif" font-size="10.00">D:/GIT/fhradiov2/system</text>
<text text-anchor="middle" x="920" y="-208.5" font-family="Helvetica,sans-Serif" font-size="10.00">/rsq.h</text>
</a>
</g>
</g>
<!-- Node8&#45;&gt;Node19 -->
<g id="edge23" class="edge"><title>Node8&#45;&gt;Node19</title>
<path fill="none" stroke="midnightblue" d="M574.733,-273.817C642.883,-264.444 753.224,-248.613 848,-232 851.893,-231.318 855.9,-230.588 859.934,-229.832"/>
<polygon fill="midnightblue" stroke="midnightblue" points="574.012,-270.383 564.579,-275.208 574.962,-277.318 574.012,-270.383"/>
</g>
<!-- Node21 -->
<g id="node21" class="node"><title>Node21</title>
<g id="a_node21"><a xlink:href="station__list_8h.html" target="_top" xlink:title="D:/GIT/fhradiov2/system\l/station_list.h">
<polygon fill="white" stroke="black" points="454,-134.5 454,-164.5 574,-164.5 574,-134.5 454,-134.5"/>
<text text-anchor="start" x="462" y="-152.5" font-family="Helvetica,sans-Serif" font-size="10.00">D:/GIT/fhradiov2/system</text>
<text text-anchor="middle" x="514" y="-141.5" font-family="Helvetica,sans-Serif" font-size="10.00">/station_list.h</text>
</a>
</g>
</g>
<!-- Node8&#45;&gt;Node21 -->
<g id="edge26" class="edge"><title>Node8&#45;&gt;Node21</title>
<path fill="none" stroke="midnightblue" d="M505.374,-258.39C504.061,-230.901 505.727,-186.888 509.217,-164.525"/>
<polygon fill="midnightblue" stroke="midnightblue" points="501.883,-258.636 506.058,-268.374 508.867,-258.158 501.883,-258.636"/>
</g>
<!-- Node23 -->
<g id="node23" class="node"><title>Node23</title>
<g id="a_node23"><a xlink:href="station__list__struct_8h.html" target="_top" xlink:title="D:/GIT/fhradiov2/system\l/station_list_struct.h">
<polygon fill="white" stroke="black" points="315,-201.5 315,-231.5 435,-231.5 435,-201.5 315,-201.5"/>
<text text-anchor="start" x="323" y="-219.5" font-family="Helvetica,sans-Serif" font-size="10.00">D:/GIT/fhradiov2/system</text>
<text text-anchor="middle" x="375" y="-208.5" font-family="Helvetica,sans-Serif" font-size="10.00">/station_list_struct.h</text>
</a>
</g>
</g>
<!-- Node8&#45;&gt;Node23 -->
<g id="edge30" class="edge"><title>Node8&#45;&gt;Node23</title>
<path fill="none" stroke="midnightblue" d="M471.56,-263.992C450.162,-253.689 423.948,-241.068 404.236,-231.577"/>
<polygon fill="midnightblue" stroke="midnightblue" points="470.179,-267.211 480.707,-268.396 473.215,-260.904 470.179,-267.211"/>
</g>
<!-- Node9&#45;&gt;Node8 -->
<g id="edge11" class="edge"><title>Node9&#45;&gt;Node8</title>
<path fill="none" stroke="midnightblue" d="M306.495,-231.76C352.878,-242.667 414.551,-257.628 457.846,-268.476"/>
<polygon fill="midnightblue" stroke="midnightblue" points="307.08,-228.303 296.545,-229.428 305.482,-235.118 307.08,-228.303"/>
</g>
<!-- Node10 -->
<g id="node10" class="node"><title>Node10</title>
<g id="a_node10"><a xlink:href="radio__display_8c.html" target="_top" xlink:title="D:/GIT/fhradiov2/radio\l/src/radio_display.c">
<polygon fill="white" stroke="black" points="186.5,-134.5 186.5,-164.5 295.5,-164.5 295.5,-134.5 186.5,-134.5"/>
<text text-anchor="start" x="194.5" y="-152.5" font-family="Helvetica,sans-Serif" font-size="10.00">D:/GIT/fhradiov2/radio</text>
<text text-anchor="middle" x="241" y="-141.5" font-family="Helvetica,sans-Serif" font-size="10.00">/src/radio_display.c</text>
</a>
</g>
</g>
<!-- Node9&#45;&gt;Node10 -->
<g id="edge12" class="edge"><title>Node9&#45;&gt;Node10</title>
<path fill="none" stroke="midnightblue" d="M241.625,-191.108C241.487,-182.154 241.336,-172.323 241.217,-164.577"/>
<polygon fill="midnightblue" stroke="midnightblue" points="238.13,-191.451 241.783,-201.396 245.129,-191.343 238.13,-191.451"/>
</g>
<!-- Node11&#45;&gt;Node8 -->
<g id="edge14" class="edge"><title>Node11&#45;&gt;Node8</title>
<path fill="none" stroke="midnightblue" d="M152.019,-108.008C152.425,-141.154 153.443,-199.821 187,-232 196.731,-241.332 365.779,-263.549 455.402,-275.155"/>
<polygon fill="midnightblue" stroke="midnightblue" points="155.515,-107.764 151.858,-97.82 148.516,-107.874 155.515,-107.764"/>
</g>
<!-- Node12 -->
<g id="node12" class="node"><title>Node12</title>
<g id="a_node12"><a xlink:href="radio__settings_8c.html" target="_top" xlink:title="D:/GIT/fhradiov2/radio\l/src/radio_settings.c">
<polygon fill="white" stroke="black" points="94.5,-0.5 94.5,-30.5 203.5,-30.5 203.5,-0.5 94.5,-0.5"/>
<text text-anchor="start" x="102.5" y="-18.5" font-family="Helvetica,sans-Serif" font-size="10.00">D:/GIT/fhradiov2/radio</text>
<text text-anchor="middle" x="149" y="-7.5" font-family="Helvetica,sans-Serif" font-size="10.00">/src/radio_settings.c</text>
</a>
</g>
</g>
<!-- Node11&#45;&gt;Node12 -->
<g id="edge15" class="edge"><title>Node11&#45;&gt;Node12</title>
<path fill="none" stroke="midnightblue" d="M149,-57.1081C149,-48.1539 149,-38.3227 149,-30.5765"/>
<polygon fill="midnightblue" stroke="midnightblue" points="145.5,-57.3959 149,-67.396 152.5,-57.396 145.5,-57.3959"/>
</g>
<!-- Node15 -->
<g id="node15" class="node"><title>Node15</title>
<g id="a_node15"><a xlink:href="main_8c.html" target="_top" xlink:title="D:/GIT/fhradiov2/main.c">
<polygon fill="white" stroke="black" points="601.5,-73 601.5,-92 718.5,-92 718.5,-73 601.5,-73"/>
<text text-anchor="middle" x="660" y="-80" font-family="Helvetica,sans-Serif" font-size="10.00">D:/GIT/fhradiov2/main.c</text>
</a>
</g>
</g>
<!-- Node14&#45;&gt;Node15 -->
<g id="edge18" class="edge"><title>Node14&#45;&gt;Node15</title>
<path fill="none" stroke="midnightblue" d="M665.642,-124.25C664.087,-113.017 662.337,-100.377 661.204,-92.1945"/>
<polygon fill="midnightblue" stroke="midnightblue" points="662.209,-124.971 667.047,-134.396 669.142,-124.01 662.209,-124.971"/>
</g>
<!-- Node16 -->
<g id="node16" class="node"><title>Node16</title>
<g id="a_node16"><a xlink:href="handler_8c.html" target="_top" xlink:title="D:/GIT/fhradiov2/system\l/src/handler.c">
<polygon fill="white" stroke="black" points="737,-67.5 737,-97.5 857,-97.5 857,-67.5 737,-67.5"/>
<text text-anchor="start" x="745" y="-85.5" font-family="Helvetica,sans-Serif" font-size="10.00">D:/GIT/fhradiov2/system</text>
<text text-anchor="middle" x="797" y="-74.5" font-family="Helvetica,sans-Serif" font-size="10.00">/src/handler.c</text>
</a>
</g>
</g>
<!-- Node14&#45;&gt;Node16 -->
<g id="edge19" class="edge"><title>Node14&#45;&gt;Node16</title>
<path fill="none" stroke="midnightblue" d="M705.72,-129.853C725.958,-119.576 750.674,-107.025 769.28,-97.5765"/>
<polygon fill="midnightblue" stroke="midnightblue" points="704.106,-126.747 696.774,-134.396 707.275,-132.989 704.106,-126.747"/>
</g>
<!-- Node17&#45;&gt;Node14 -->
<g id="edge21" class="edge"><title>Node17&#45;&gt;Node14</title>
<path fill="none" stroke="midnightblue" d="M746.5,-196.296C729.288,-186.125 708.524,-173.855 692.822,-164.577"/>
<polygon fill="midnightblue" stroke="midnightblue" points="744.742,-199.322 755.132,-201.396 748.303,-193.295 744.742,-199.322"/>
</g>
<!-- Node18 -->
<g id="node18" class="node"><title>Node18</title>
<g id="a_node18"><a xlink:href="rds_8c.html" target="_top" xlink:title="D:/GIT/fhradiov2/system\l/src/rds.c">
<polygon fill="white" stroke="black" points="747,-134.5 747,-164.5 867,-164.5 867,-134.5 747,-134.5"/>
<text text-anchor="start" x="755" y="-152.5" font-family="Helvetica,sans-Serif" font-size="10.00">D:/GIT/fhradiov2/system</text>
<text text-anchor="middle" x="807" y="-141.5" font-family="Helvetica,sans-Serif" font-size="10.00">/src/rds.c</text>
</a>
</g>
</g>
<!-- Node17&#45;&gt;Node18 -->
<g id="edge22" class="edge"><title>Node17&#45;&gt;Node18</title>
<path fill="none" stroke="midnightblue" d="M789.127,-191.991C793.084,-182.804 797.489,-172.578 800.936,-164.577"/>
<polygon fill="midnightblue" stroke="midnightblue" points="785.817,-190.827 785.076,-201.396 792.246,-193.597 785.817,-190.827"/>
</g>
<!-- Node19&#45;&gt;Node14 -->
<g id="edge24" class="edge"><title>Node19&#45;&gt;Node14</title>
<path fill="none" stroke="midnightblue" d="M855.965,-198.917C815.004,-188.31 762.445,-174.699 723.49,-164.611"/>
<polygon fill="midnightblue" stroke="midnightblue" points="855.288,-202.357 865.846,-201.476 857.043,-195.581 855.288,-202.357"/>
</g>
<!-- Node20 -->
<g id="node20" class="node"><title>Node20</title>
<g id="a_node20"><a xlink:href="rsq_8c.html" target="_top" xlink:title="D:/GIT/fhradiov2/system\l/src/rsq.c">
<polygon fill="white" stroke="black" points="885,-134.5 885,-164.5 1005,-164.5 1005,-134.5 885,-134.5"/>
<text text-anchor="start" x="893" y="-152.5" font-family="Helvetica,sans-Serif" font-size="10.00">D:/GIT/fhradiov2/system</text>
<text text-anchor="middle" x="945" y="-141.5" font-family="Helvetica,sans-Serif" font-size="10.00">/src/rsq.c</text>
</a>
</g>
</g>
<!-- Node19&#45;&gt;Node20 -->
<g id="edge25" class="edge"><title>Node19&#45;&gt;Node20</title>
<path fill="none" stroke="midnightblue" d="M929.042,-191.991C932.575,-182.804 936.508,-172.578 939.586,-164.577"/>
<polygon fill="midnightblue" stroke="midnightblue" points="925.748,-190.806 925.425,-201.396 932.281,-193.319 925.748,-190.806"/>
</g>
<!-- Node21&#45;&gt;Node8 -->
<g id="edge27" class="edge"><title>Node21&#45;&gt;Node8</title>
<path fill="none" stroke="midnightblue" d="M518.637,-174.851C519.927,-202.313 518.267,-246.044 514.798,-268.374"/>
<polygon fill="midnightblue" stroke="midnightblue" points="522.105,-174.263 517.933,-164.525 515.121,-174.74 522.105,-174.263"/>
</g>
<!-- Node21&#45;&gt;Node11 -->
<g id="edge28" class="edge"><title>Node21&#45;&gt;Node11</title>
<path fill="none" stroke="midnightblue" d="M443.739,-133.8C353.99,-116.852 261.006,-101.44 203.667,-92.1858"/>
<polygon fill="midnightblue" stroke="midnightblue" points="443.339,-137.286 453.816,-135.712 444.644,-130.409 443.339,-137.286"/>
</g>
<!-- Node22 -->
<g id="node22" class="node"><title>Node22</title>
<g id="a_node22"><a xlink:href="station__list_8c.html" target="_top" xlink:title="D:/GIT/fhradiov2/system\l/src/station_list.c">
<polygon fill="white" stroke="black" points="454,-67.5 454,-97.5 574,-97.5 574,-67.5 454,-67.5"/>
<text text-anchor="start" x="462" y="-85.5" font-family="Helvetica,sans-Serif" font-size="10.00">D:/GIT/fhradiov2/system</text>
<text text-anchor="middle" x="514" y="-74.5" font-family="Helvetica,sans-Serif" font-size="10.00">/src/station_list.c</text>
</a>
</g>
</g>
<!-- Node21&#45;&gt;Node22 -->
<g id="edge29" class="edge"><title>Node21&#45;&gt;Node22</title>
<path fill="none" stroke="midnightblue" d="M514,-124.108C514,-115.154 514,-105.323 514,-97.5765"/>
<polygon fill="midnightblue" stroke="midnightblue" points="510.5,-124.396 514,-134.396 517.5,-124.396 510.5,-124.396"/>
</g>
<!-- Node23&#45;&gt;Node21 -->
<g id="edge32" class="edge"><title>Node23&#45;&gt;Node21</title>
<path fill="none" stroke="midnightblue" d="M414.282,-197.131C436.369,-186.802 463.51,-174.11 483.898,-164.577"/>
<polygon fill="midnightblue" stroke="midnightblue" points="412.737,-193.989 405.161,-201.396 415.702,-200.33 412.737,-193.989"/>
</g>
<!-- Node24 -->
<g id="node24" class="node"><title>Node24</title>
<g id="a_node24"><a xlink:href="station__list__struct_8c.html" target="_top" xlink:title="D:/GIT/fhradiov2/system\l/src/station_list_struct.c">
<polygon fill="white" stroke="black" points="314,-134.5 314,-164.5 436,-164.5 436,-134.5 314,-134.5"/>
<text text-anchor="start" x="322" y="-152.5" font-family="Helvetica,sans-Serif" font-size="10.00">D:/GIT/fhradiov2/system</text>
<text text-anchor="middle" x="375" y="-141.5" font-family="Helvetica,sans-Serif" font-size="10.00">/src/station_list_struct.c</text>
</a>
</g>
</g>
<!-- Node23&#45;&gt;Node24 -->
<g id="edge31" class="edge"><title>Node23&#45;&gt;Node24</title>
<path fill="none" stroke="midnightblue" d="M375,-191.108C375,-182.154 375,-172.323 375,-164.577"/>
<polygon fill="midnightblue" stroke="midnightblue" points="371.5,-191.396 375,-201.396 378.5,-191.396 371.5,-191.396"/>
</g>
<!-- Node25&#45;&gt;Node2 -->
<g id="edge36" class="edge"><title>Node25&#45;&gt;Node2</title>
<path fill="none" stroke="midnightblue" d="M630.208,-465.269C606.476,-454.916 577.22,-442.153 555.268,-432.577"/>
<polygon fill="midnightblue" stroke="midnightblue" points="629.104,-468.605 639.669,-469.396 631.903,-462.189 629.104,-468.605"/>
</g>
<!-- Node25&#45;&gt;Node8 -->
<g id="edge39" class="edge"><title>Node25&#45;&gt;Node8</title>
<path fill="none" stroke="midnightblue" d="M721.456,-464.828C735.08,-457.137 748.235,-446.729 756,-433 762.783,-421.008 762.459,-414.17 756,-402 718.836,-331.973 624.991,-303.281 564.547,-291.812"/>
<polygon fill="midnightblue" stroke="midnightblue" points="719.741,-461.775 712.488,-469.498 722.974,-467.984 719.741,-461.775"/>
</g>
<!-- Node26 -->
<g id="node26" class="node"><title>Node26</title>
<g id="a_node26"><a xlink:href="external__interrupthandler_8c.html" target="_top" xlink:title="D:/GIT/fhradiov2/driver\l/src/external_interrupthandler.c">
<polygon fill="white" stroke="black" points="596.5,-402.5 596.5,-432.5 747.5,-432.5 747.5,-402.5 596.5,-402.5"/>
<text text-anchor="start" x="604.5" y="-420.5" font-family="Helvetica,sans-Serif" font-size="10.00">D:/GIT/fhradiov2/driver</text>
<text text-anchor="middle" x="672" y="-409.5" font-family="Helvetica,sans-Serif" font-size="10.00">/src/external_interrupthandler.c</text>
</a>
</g>
</g>
<!-- Node25&#45;&gt;Node26 -->
<g id="edge37" class="edge"><title>Node25&#45;&gt;Node26</title>
<path fill="none" stroke="midnightblue" d="M672,-459.108C672,-450.154 672,-440.323 672,-432.577"/>
<polygon fill="midnightblue" stroke="midnightblue" points="668.5,-459.396 672,-469.396 675.5,-459.396 668.5,-459.396"/>
</g>
<!-- Node27 -->
<g id="node27" class="node"><title>Node27</title>
<g id="a_node27"><a xlink:href="si4735_8c.html" target="_top" xlink:title="D:/GIT/fhradiov2/driver\l/src/si4735.c">
<polygon fill="white" stroke="black" points="756,-268.5 756,-298.5 866,-298.5 866,-268.5 756,-268.5"/>
<text text-anchor="start" x="764" y="-286.5" font-family="Helvetica,sans-Serif" font-size="10.00">D:/GIT/fhradiov2/driver</text>
<text text-anchor="middle" x="811" y="-275.5" font-family="Helvetica,sans-Serif" font-size="10.00">/src/si4735.c</text>
</a>
</g>
</g>
<!-- Node25&#45;&gt;Node27 -->
<g id="edge38" class="edge"><title>Node25&#45;&gt;Node27</title>
<path fill="none" stroke="midnightblue" d="M745.36,-465.632C762.356,-458.184 778.741,-447.704 790,-433 820.867,-392.686 816.894,-327.626 813.249,-298.91"/>
<polygon fill="midnightblue" stroke="midnightblue" points="743.841,-462.47 735.883,-469.465 746.466,-468.96 743.841,-462.47"/>
</g>
<!-- Node28&#45;&gt;Node4 -->
<g id="edge42" class="edge"><title>Node28&#45;&gt;Node4</title>
<path fill="none" stroke="midnightblue" d="M248.085,-394.736C256.519,-385.119 266.191,-374.089 273.656,-365.577"/>
<polygon fill="midnightblue" stroke="midnightblue" points="245.33,-392.57 241.368,-402.396 250.593,-397.185 245.33,-392.57"/>
</g>
<!-- Node28&#45;&gt;Node8 -->
<g id="edge43" class="edge"><title>Node28&#45;&gt;Node8</title>
<path fill="none" stroke="midnightblue" d="M278.788,-398.912C301.397,-390.168 328.137,-378.745 351,-366 371.578,-354.529 373.527,-346.658 394,-335 419.1,-320.708 449.021,-307.774 472.188,-298.574"/>
<polygon fill="midnightblue" stroke="midnightblue" points="277.477,-395.666 269.374,-402.492 279.965,-402.209 277.477,-395.666"/>
</g>
<!-- Node29 -->
<g id="node29" class="node"><title>Node29</title>
<g id="a_node29"><a xlink:href="lcd_8c.html" target="_top" xlink:title="D:/GIT/fhradiov2/driver\l/src/lcd.c">
<polygon fill="white" stroke="black" points="102,-335.5 102,-365.5 212,-365.5 212,-335.5 102,-335.5"/>
<text text-anchor="start" x="110" y="-353.5" font-family="Helvetica,sans-Serif" font-size="10.00">D:/GIT/fhradiov2/driver</text>
<text text-anchor="middle" x="157" y="-342.5" font-family="Helvetica,sans-Serif" font-size="10.00">/src/lcd.c</text>
</a>
</g>
</g>
<!-- Node28&#45;&gt;Node29 -->
<g id="edge41" class="edge"><title>Node28&#45;&gt;Node29</title>
<path fill="none" stroke="midnightblue" d="M205.847,-395.598C194.975,-385.783 182.304,-374.344 172.592,-365.577"/>
<polygon fill="midnightblue" stroke="midnightblue" points="203.609,-398.293 213.377,-402.396 208.3,-393.097 203.609,-398.293"/>
</g>
<!-- Node30&#45;&gt;Node8 -->
<g id="edge46" class="edge"><title>Node30&#45;&gt;Node8</title>
<path fill="none" stroke="midnightblue" d="M831.691,-338.531C756.616,-325.921 634.744,-305.452 564.535,-293.66"/>
<polygon fill="midnightblue" stroke="midnightblue" points="831.522,-342.051 841.963,-340.256 832.681,-335.148 831.522,-342.051"/>
</g>
<!-- Node30&#45;&gt;Node17 -->
<g id="edge47" class="edge"><title>Node30&#45;&gt;Node17</title>
<path fill="none" stroke="midnightblue" d="M895.555,-325.236C893.386,-307.689 888.046,-284.296 875,-268 861.701,-251.388 841.437,-239.602 822.949,-231.618"/>
<polygon fill="midnightblue" stroke="midnightblue" points="892.082,-325.678 896.537,-335.29 899.048,-324.997 892.082,-325.678"/>
</g>
<!-- Node30&#45;&gt;Node19 -->
<g id="edge48" class="edge"><title>Node30&#45;&gt;Node19</title>
<path fill="none" stroke="midnightblue" d="M902.571,-325.533C904.424,-317.163 906.416,-307.69 908,-299 912.284,-275.503 916.085,-247.98 918.211,-231.682"/>
<polygon fill="midnightblue" stroke="midnightblue" points="899.131,-324.877 900.341,-335.403 905.959,-326.42 899.131,-324.877"/>
</g>
<!-- Node30&#45;&gt;Node27 -->
<g id="edge45" class="edge"><title>Node30&#45;&gt;Node27</title>
<path fill="none" stroke="midnightblue" d="M870.099,-329.168C856.948,-319.228 841.45,-307.514 829.624,-298.577"/>
<polygon fill="midnightblue" stroke="midnightblue" points="868.251,-332.158 878.339,-335.396 872.472,-326.574 868.251,-332.158"/>
</g>
<!-- Node32&#45;&gt;Node8 -->
<g id="edge52" class="edge"><title>Node32&#45;&gt;Node8</title>
<path fill="none" stroke="midnightblue" d="M358.875,-463.803C347.851,-455.81 337.051,-445.483 331,-433 324.99,-420.602 324.398,-414.093 331,-402 345.178,-376.03 362.222,-382.172 387,-366 422.824,-342.618 464.252,-315.06 488.727,-298.724"/>
<polygon fill="midnightblue" stroke="midnightblue" points="357.025,-466.776 367.275,-469.456 360.933,-460.969 357.025,-466.776"/>
</g>
<!-- Node33 -->
<g id="node33" class="node"><title>Node33</title>
<g id="a_node33"><a xlink:href="tpa2016d2_8c.html" target="_top" xlink:title="D:/GIT/fhradiov2/driver\l/src/tpa2016d2.c">
<polygon fill="white" stroke="black" points="340,-402.5 340,-432.5 450,-432.5 450,-402.5 340,-402.5"/>
<text text-anchor="start" x="348" y="-420.5" font-family="Helvetica,sans-Serif" font-size="10.00">D:/GIT/fhradiov2/driver</text>
<text text-anchor="middle" x="395" y="-409.5" font-family="Helvetica,sans-Serif" font-size="10.00">/src/tpa2016d2.c</text>
</a>
</g>
</g>
<!-- Node32&#45;&gt;Node33 -->
<g id="edge51" class="edge"><title>Node32&#45;&gt;Node33</title>
<path fill="none" stroke="midnightblue" d="M395,-459.108C395,-450.154 395,-440.323 395,-432.577"/>
<polygon fill="midnightblue" stroke="midnightblue" points="391.5,-459.396 395,-469.396 398.5,-459.396 391.5,-459.396"/>
</g>
</g>
</svg>
