<?xml version="1.0" encoding="UTF-8" standalone="no"?>
<!DOCTYPE svg PUBLIC "-//W3C//DTD SVG 1.1//EN"
 "http://www.w3.org/Graphics/SVG/1.1/DTD/svg11.dtd">
<!-- Generated by graphviz version 2.38.0 (20140413.2041)
 -->
<!-- Title: radio_main Pages: 1 -->
<svg width="934pt" height="180pt"
 viewBox="0.00 0.00 934.00 180.00" xmlns="http://www.w3.org/2000/svg" xmlns:xlink="http://www.w3.org/1999/xlink">
<g id="graph0" class="graph" transform="scale(1 1) rotate(0) translate(4 176)">
<title>radio_main</title>
<polygon fill="white" stroke="none" points="-4,4 -4,-176 930,-176 930,4 -4,4"/>
<!-- Node1 -->
<g id="node1" class="node"><title>Node1</title>
<polygon fill="#bfbfbf" stroke="black" points="0,-76.5 0,-95.5 64,-95.5 64,-76.5 0,-76.5"/>
<text text-anchor="middle" x="32" y="-83.5" font-family="Helvetica,sans-Serif" font-size="10.00">radio_main</text>
</g>
<!-- Node2 -->
<g id="node2" class="node"><title>Node2</title>
<g id="a_node2"><a xlink:href="radio_8c.html#a51f5be293265eb7d6106c9181b357f96" target="_top" xlink:title="radio_display_handler">
<polygon fill="white" stroke="black" points="100,-76.5 100,-95.5 210,-95.5 210,-76.5 100,-76.5"/>
<text text-anchor="middle" x="155" y="-83.5" font-family="Helvetica,sans-Serif" font-size="10.00">radio_display_handler</text>
</a>
</g>
</g>
<!-- Node1&#45;&gt;Node2 -->
<g id="edge1" class="edge"><title>Node1&#45;&gt;Node2</title>
<path fill="none" stroke="midnightblue" d="M64.1605,-86C72.0971,-86 80.9225,-86 89.8543,-86"/>
<polygon fill="midnightblue" stroke="midnightblue" points="89.942,-89.5001 99.942,-86 89.942,-82.5001 89.942,-89.5001"/>
</g>
<!-- Node3 -->
<g id="node3" class="node"><title>Node3</title>
<g id="a_node3"><a xlink:href="time_8c.html#a38be5ccb6a78c3b5cebed5ff341ed4f9" target="_top" xlink:title="date_to_str">
<polygon fill="white" stroke="black" points="267,-152.5 267,-171.5 332,-171.5 332,-152.5 267,-152.5"/>
<text text-anchor="middle" x="299.5" y="-159.5" font-family="Helvetica,sans-Serif" font-size="10.00">date_to_str</text>
</a>
</g>
</g>
<!-- Node2&#45;&gt;Node3 -->
<g id="edge2" class="edge"><title>Node2&#45;&gt;Node3</title>
<path fill="none" stroke="midnightblue" d="M169.188,-95.6474C186.27,-107.835 217.272,-128.913 246,-143 250.126,-145.023 254.524,-146.949 258.952,-148.743"/>
<polygon fill="midnightblue" stroke="midnightblue" points="258.009,-152.13 268.599,-152.449 260.52,-145.596 258.009,-152.13"/>
</g>
<!-- Node4 -->
<g id="node4" class="node"><title>Node4</title>
<g id="a_node4"><a xlink:href="lcd_8h.html#acd63fb85d212730fa4fcbcbeeccd231e" target="_top" xlink:title="lcd_create_view">
<polygon fill="white" stroke="black" points="257,-114.5 257,-133.5 342,-133.5 342,-114.5 257,-114.5"/>
<text text-anchor="middle" x="299.5" y="-121.5" font-family="Helvetica,sans-Serif" font-size="10.00">lcd_create_view</text>
</a>
</g>
</g>
<!-- Node2&#45;&gt;Node4 -->
<g id="edge3" class="edge"><title>Node2&#45;&gt;Node4</title>
<path fill="none" stroke="midnightblue" d="M191.959,-95.589C210.439,-100.517 233.156,-106.575 252.859,-111.829"/>
<polygon fill="midnightblue" stroke="midnightblue" points="251.989,-115.219 262.553,-114.414 253.792,-108.456 251.989,-115.219"/>
</g>
<!-- Node12 -->
<g id="node12" class="node"><title>Node12</title>
<g id="a_node12"><a xlink:href="radio_8c.html#a391fc5fe58716d2c794685bcf12bbda5" target="_top" xlink:title="radio_value_to_string">
<polygon fill="white" stroke="black" points="246,-76.5 246,-95.5 353,-95.5 353,-76.5 246,-76.5"/>
<text text-anchor="middle" x="299.5" y="-83.5" font-family="Helvetica,sans-Serif" font-size="10.00">radio_value_to_string</text>
</a>
</g>
</g>
<!-- Node2&#45;&gt;Node12 -->
<g id="edge13" class="edge"><title>Node2&#45;&gt;Node12</title>
<path fill="none" stroke="midnightblue" d="M210.28,-86C218.555,-86 227.156,-86 235.597,-86"/>
<polygon fill="midnightblue" stroke="midnightblue" points="235.783,-89.5001 245.783,-86 235.783,-82.5001 235.783,-89.5001"/>
</g>
<!-- Node13 -->
<g id="node13" class="node"><title>Node13</title>
<g id="a_node13"><a xlink:href="radio_8c.html#a132f2b55edd4f21141501c9e9a1c7b00" target="_top" xlink:title="radio_freq_to_string">
<polygon fill="white" stroke="black" points="249,-38.5 249,-57.5 350,-57.5 350,-38.5 249,-38.5"/>
<text text-anchor="middle" x="299.5" y="-45.5" font-family="Helvetica,sans-Serif" font-size="10.00">radio_freq_to_string</text>
</a>
</g>
</g>
<!-- Node2&#45;&gt;Node13 -->
<g id="edge14" class="edge"><title>Node2&#45;&gt;Node13</title>
<path fill="none" stroke="midnightblue" d="M191.959,-76.411C210.439,-71.4831 233.156,-65.4251 252.859,-60.1709"/>
<polygon fill="midnightblue" stroke="midnightblue" points="253.792,-63.5445 262.553,-57.5859 251.989,-56.7808 253.792,-63.5445"/>
</g>
<!-- Node14 -->
<g id="node14" class="node"><title>Node14</title>
<g id="a_node14"><a xlink:href="time_8c.html#a12eef8136a835e1bbe52bcf02789e706" target="_top" xlink:title="time_to_str">
<polygon fill="white" stroke="black" points="267,-0.5 267,-19.5 332,-19.5 332,-0.5 267,-0.5"/>
<text text-anchor="middle" x="299.5" y="-7.5" font-family="Helvetica,sans-Serif" font-size="10.00">time_to_str</text>
</a>
</g>
</g>
<!-- Node2&#45;&gt;Node14 -->
<g id="edge15" class="edge"><title>Node2&#45;&gt;Node14</title>
<path fill="none" stroke="midnightblue" d="M169.188,-76.3526C186.27,-64.1655 217.272,-43.0873 246,-29 250.126,-26.9769 254.524,-25.0515 258.952,-23.257"/>
<polygon fill="midnightblue" stroke="midnightblue" points="260.52,-26.4041 268.599,-19.5506 258.009,-19.8698 260.52,-26.4041"/>
</g>
<!-- Node5 -->
<g id="node5" class="node"><title>Node5</title>
<g id="a_node5"><a xlink:href="lcd_8c.html#a2a4df97ebc5b396233aa31765228ef42" target="_top" xlink:title="lcd_set_courser">
<polygon fill="white" stroke="black" points="389,-133.5 389,-152.5 475,-152.5 475,-133.5 389,-133.5"/>
<text text-anchor="middle" x="432" y="-140.5" font-family="Helvetica,sans-Serif" font-size="10.00">lcd_set_courser</text>
</a>
</g>
</g>
<!-- Node4&#45;&gt;Node5 -->
<g id="edge4" class="edge"><title>Node4&#45;&gt;Node5</title>
<path fill="none" stroke="midnightblue" d="M342.15,-130.064C353.805,-131.761 366.621,-133.627 378.804,-135.401"/>
<polygon fill="midnightblue" stroke="midnightblue" points="378.45,-138.886 388.85,-136.863 379.459,-131.959 378.45,-138.886"/>
</g>
<!-- Node11 -->
<g id="node11" class="node"><title>Node11</title>
<g id="a_node11"><a xlink:href="lcd_8c.html#aa6e1aa2ef9b677e16d8198df683429ec" target="_top" xlink:title="lcd_write_string">
<polygon fill="white" stroke="black" points="511,-95.5 511,-114.5 595,-114.5 595,-95.5 511,-95.5"/>
<text text-anchor="middle" x="553" y="-102.5" font-family="Helvetica,sans-Serif" font-size="10.00">lcd_write_string</text>
</a>
</g>
</g>
<!-- Node4&#45;&gt;Node11 -->
<g id="edge11" class="edge"><title>Node4&#45;&gt;Node11</title>
<path fill="none" stroke="midnightblue" d="M342.03,-120.863C385.482,-117.58 453.764,-112.421 500.59,-108.884"/>
<polygon fill="midnightblue" stroke="midnightblue" points="501.118,-112.354 510.826,-108.111 500.591,-105.374 501.118,-112.354"/>
</g>
<!-- Node6 -->
<g id="node6" class="node"><title>Node6</title>
<g id="a_node6"><a xlink:href="lcd_8c.html#a250728451a22259562d3f01a12bbd77b" target="_top" xlink:title="lcd_command">
<polygon fill="white" stroke="black" points="514.5,-133.5 514.5,-152.5 591.5,-152.5 591.5,-133.5 514.5,-133.5"/>
<text text-anchor="middle" x="553" y="-140.5" font-family="Helvetica,sans-Serif" font-size="10.00">lcd_command</text>
</a>
</g>
</g>
<!-- Node5&#45;&gt;Node6 -->
<g id="edge5" class="edge"><title>Node5&#45;&gt;Node6</title>
<path fill="none" stroke="midnightblue" d="M475.29,-143C484.611,-143 494.549,-143 504.075,-143"/>
<polygon fill="midnightblue" stroke="midnightblue" points="504.202,-146.5 514.202,-143 504.202,-139.5 504.202,-146.5"/>
</g>
<!-- Node7 -->
<g id="node7" class="node"><title>Node7</title>
<g id="a_node7"><a xlink:href="i2c_8h.html#a6691e5911f539e1e8178c6e983e8079a" target="_top" xlink:title="Transmits I2C commands with a variable length to a I2C slave. ">
<polygon fill="white" stroke="black" points="631,-95.5 631,-114.5 703,-114.5 703,-95.5 631,-95.5"/>
<text text-anchor="middle" x="667" y="-102.5" font-family="Helvetica,sans-Serif" font-size="10.00">i2c_write_var</text>
</a>
</g>
</g>
<!-- Node6&#45;&gt;Node7 -->
<g id="edge6" class="edge"><title>Node6&#45;&gt;Node7</title>
<path fill="none" stroke="midnightblue" d="M582.262,-133.411C596.19,-128.686 613.18,-122.921 628.207,-117.823"/>
<polygon fill="midnightblue" stroke="midnightblue" points="629.401,-121.113 637.747,-114.586 627.152,-114.485 629.401,-121.113"/>
</g>
<!-- Node10 -->
<g id="node10" class="node"><title>Node10</title>
<g id="a_node10"><a xlink:href="timer_8c.html#a276d5cb665b9f8b2c79e53e2f2c5b4f0" target="_top" xlink:title="_delay_ms">
<polygon fill="white" stroke="black" points="742.5,-133.5 742.5,-152.5 806.5,-152.5 806.5,-133.5 742.5,-133.5"/>
<text text-anchor="middle" x="774.5" y="-140.5" font-family="Helvetica,sans-Serif" font-size="10.00">_delay_ms</text>
</a>
</g>
</g>
<!-- Node6&#45;&gt;Node10 -->
<g id="edge9" class="edge"><title>Node6&#45;&gt;Node10</title>
<path fill="none" stroke="midnightblue" d="M591.733,-143C630.861,-143 691.853,-143 732.237,-143"/>
<polygon fill="midnightblue" stroke="midnightblue" points="732.287,-146.5 742.287,-143 732.287,-139.5 732.287,-146.5"/>
</g>
<!-- Node8 -->
<g id="node8" class="node"><title>Node8</title>
<g id="a_node8"><a xlink:href="i2c_8c.html#ae0625b97d3437bcaca4ac4b96dd01978" target="_top" xlink:title="Transmits I2C command array to a I2C slave. ">
<polygon fill="white" stroke="black" points="739,-95.5 739,-114.5 810,-114.5 810,-95.5 739,-95.5"/>
<text text-anchor="middle" x="774.5" y="-102.5" font-family="Helvetica,sans-Serif" font-size="10.00">i2c_write_arr</text>
</a>
</g>
</g>
<!-- Node7&#45;&gt;Node8 -->
<g id="edge7" class="edge"><title>Node7&#45;&gt;Node8</title>
<path fill="none" stroke="midnightblue" d="M703.13,-105C711.312,-105 720.133,-105 728.671,-105"/>
<polygon fill="midnightblue" stroke="midnightblue" points="728.882,-108.5 738.882,-105 728.882,-101.5 728.882,-108.5"/>
</g>
<!-- Node9 -->
<g id="node9" class="node"><title>Node9</title>
<g id="a_node9"><a xlink:href="timer_8c.html#a3c56af3315c2461dec5ced585a5f84db" target="_top" xlink:title="_delay_ten_us">
<polygon fill="white" stroke="black" points="846,-114.5 846,-133.5 926,-133.5 926,-114.5 846,-114.5"/>
<text text-anchor="middle" x="886" y="-121.5" font-family="Helvetica,sans-Serif" font-size="10.00">_delay_ten_us</text>
</a>
</g>
</g>
<!-- Node8&#45;&gt;Node9 -->
<g id="edge8" class="edge"><title>Node8&#45;&gt;Node9</title>
<path fill="none" stroke="midnightblue" d="M810.146,-111.012C818.253,-112.418 827.042,-113.943 835.651,-115.437"/>
<polygon fill="midnightblue" stroke="midnightblue" points="835.172,-118.906 845.623,-117.167 836.368,-112.009 835.172,-118.906"/>
</g>
<!-- Node10&#45;&gt;Node9 -->
<g id="edge10" class="edge"><title>Node10&#45;&gt;Node9</title>
<path fill="none" stroke="midnightblue" d="M806.585,-137.606C815.595,-136.043 825.664,-134.296 835.505,-132.588"/>
<polygon fill="midnightblue" stroke="midnightblue" points="836.368,-135.991 845.623,-130.833 835.172,-129.094 836.368,-135.991"/>
</g>
<!-- Node11&#45;&gt;Node7 -->
<g id="edge12" class="edge"><title>Node11&#45;&gt;Node7</title>
<path fill="none" stroke="midnightblue" d="M595.069,-105C603.413,-105 612.234,-105 620.715,-105"/>
<polygon fill="midnightblue" stroke="midnightblue" points="620.836,-108.5 630.836,-105 620.836,-101.5 620.836,-108.5"/>
</g>
</g>
</svg>
