<?xml version="1.0" encoding="UTF-8" standalone="no"?>
<!DOCTYPE svg PUBLIC "-//W3C//DTD SVG 1.1//EN"
 "http://www.w3.org/Graphics/SVG/1.1/DTD/svg11.dtd">
<!-- Generated by graphviz version 2.38.0 (20140413.2041)
 -->
<!-- Title: radio_brightness Pages: 1 -->
<svg width="570pt" height="66pt"
 viewBox="0.00 0.00 570.00 66.00" xmlns="http://www.w3.org/2000/svg" xmlns:xlink="http://www.w3.org/1999/xlink">
<g id="graph0" class="graph" transform="scale(1 1) rotate(0) translate(4 62)">
<title>radio_brightness</title>
<polygon fill="white" stroke="none" points="-4,4 -4,-62 566,-62 566,4 -4,4"/>
<!-- Node1 -->
<g id="node1" class="node"><title>Node1</title>
<polygon fill="#bfbfbf" stroke="black" points="0,-19.5 0,-38.5 88,-38.5 88,-19.5 0,-19.5"/>
<text text-anchor="middle" x="44" y="-26.5" font-family="Helvetica,sans-Serif" font-size="10.00">radio_brightness</text>
</g>
<!-- Node2 -->
<g id="node2" class="node"><title>Node2</title>
<g id="a_node2"><a xlink:href="pca9530_8h.html#a91089f6598b9a7b7d85171c4a731f1c1" target="_top" xlink:title="pca9530_config_leds">
<polygon fill="white" stroke="black" points="124,-38.5 124,-57.5 231,-57.5 231,-38.5 124,-38.5"/>
<text text-anchor="middle" x="177.5" y="-45.5" font-family="Helvetica,sans-Serif" font-size="10.00">pca9530_config_leds</text>
</a>
</g>
</g>
<!-- Node1&#45;&gt;Node2 -->
<g id="edge1" class="edge"><title>Node1&#45;&gt;Node2</title>
<path fill="none" stroke="midnightblue" d="M88.058,-35.2213C96.2413,-36.4037 104.959,-37.6633 113.611,-38.9133"/>
<polygon fill="midnightblue" stroke="midnightblue" points="113.303,-42.4051 123.701,-40.3712 114.304,-35.4771 113.303,-42.4051"/>
</g>
<!-- Node6 -->
<g id="node6" class="node"><title>Node6</title>
<g id="a_node6"><a xlink:href="pca9530_8h.html#a07bd06dbfcb216eedc1969aa04e19b53" target="_top" xlink:title="pca9530_set_pwm">
<polygon fill="white" stroke="black" points="128.5,-0.5 128.5,-19.5 226.5,-19.5 226.5,-0.5 128.5,-0.5"/>
<text text-anchor="middle" x="177.5" y="-7.5" font-family="Helvetica,sans-Serif" font-size="10.00">pca9530_set_pwm</text>
</a>
</g>
</g>
<!-- Node1&#45;&gt;Node6 -->
<g id="edge5" class="edge"><title>Node1&#45;&gt;Node6</title>
<path fill="none" stroke="midnightblue" d="M88.058,-22.7787C97.7207,-21.3826 108.129,-19.8788 118.293,-18.4102"/>
<polygon fill="midnightblue" stroke="midnightblue" points="118.943,-21.8527 128.339,-16.9586 117.941,-14.9247 118.943,-21.8527"/>
</g>
<!-- Node3 -->
<g id="node3" class="node"><title>Node3</title>
<g id="a_node3"><a xlink:href="i2c_8h.html#a6691e5911f539e1e8178c6e983e8079a" target="_top" xlink:title="Transmits I2C commands with a variable length to a I2C slave. ">
<polygon fill="white" stroke="black" points="267,-19.5 267,-38.5 339,-38.5 339,-19.5 267,-19.5"/>
<text text-anchor="middle" x="303" y="-26.5" font-family="Helvetica,sans-Serif" font-size="10.00">i2c_write_var</text>
</a>
</g>
</g>
<!-- Node2&#45;&gt;Node3 -->
<g id="edge2" class="edge"><title>Node2&#45;&gt;Node3</title>
<path fill="none" stroke="midnightblue" d="M231.233,-39.8872C239.809,-38.5678 248.623,-37.2119 256.992,-35.9243"/>
<polygon fill="midnightblue" stroke="midnightblue" points="257.584,-39.3746 266.935,-34.3946 256.519,-32.456 257.584,-39.3746"/>
</g>
<!-- Node4 -->
<g id="node4" class="node"><title>Node4</title>
<g id="a_node4"><a xlink:href="i2c_8c.html#ae0625b97d3437bcaca4ac4b96dd01978" target="_top" xlink:title="Transmits I2C command array to a I2C slave. ">
<polygon fill="white" stroke="black" points="375,-19.5 375,-38.5 446,-38.5 446,-19.5 375,-19.5"/>
<text text-anchor="middle" x="410.5" y="-26.5" font-family="Helvetica,sans-Serif" font-size="10.00">i2c_write_arr</text>
</a>
</g>
</g>
<!-- Node3&#45;&gt;Node4 -->
<g id="edge3" class="edge"><title>Node3&#45;&gt;Node4</title>
<path fill="none" stroke="midnightblue" d="M339.13,-29C347.312,-29 356.133,-29 364.671,-29"/>
<polygon fill="midnightblue" stroke="midnightblue" points="364.882,-32.5001 374.882,-29 364.882,-25.5001 364.882,-32.5001"/>
</g>
<!-- Node5 -->
<g id="node5" class="node"><title>Node5</title>
<g id="a_node5"><a xlink:href="timer_8c.html#a3c56af3315c2461dec5ced585a5f84db" target="_top" xlink:title="_delay_ten_us">
<polygon fill="white" stroke="black" points="482,-19.5 482,-38.5 562,-38.5 562,-19.5 482,-19.5"/>
<text text-anchor="middle" x="522" y="-26.5" font-family="Helvetica,sans-Serif" font-size="10.00">_delay_ten_us</text>
</a>
</g>
</g>
<!-- Node4&#45;&gt;Node5 -->
<g id="edge4" class="edge"><title>Node4&#45;&gt;Node5</title>
<path fill="none" stroke="midnightblue" d="M446.146,-29C454.165,-29 462.851,-29 471.37,-29"/>
<polygon fill="midnightblue" stroke="midnightblue" points="471.623,-32.5001 481.623,-29 471.623,-25.5001 471.623,-32.5001"/>
</g>
<!-- Node6&#45;&gt;Node3 -->
<g id="edge6" class="edge"><title>Node6&#45;&gt;Node3</title>
<path fill="none" stroke="midnightblue" d="M226.602,-17.4003C236.555,-18.9315 247.006,-20.5393 256.849,-22.0536"/>
<polygon fill="midnightblue" stroke="midnightblue" points="256.424,-25.5294 266.84,-23.5907 257.488,-18.6108 256.424,-25.5294"/>
</g>
</g>
</svg>
