<?xml version="1.0" encoding="UTF-8" standalone="no"?>
<!DOCTYPE svg PUBLIC "-//W3C//DTD SVG 1.1//EN"
 "http://www.w3.org/Graphics/SVG/1.1/DTD/svg11.dtd">
<!-- Generated by graphviz version 2.38.0 (20140413.2041)
 -->
<!-- Title: radio_source_select Pages: 1 -->
<svg width="528pt" height="66pt"
 viewBox="0.00 0.00 528.00 66.00" xmlns="http://www.w3.org/2000/svg" xmlns:xlink="http://www.w3.org/1999/xlink">
<g id="graph0" class="graph" transform="scale(1 1) rotate(0) translate(4 62)">
<title>radio_source_select</title>
<polygon fill="white" stroke="none" points="-4,4 -4,-62 524,-62 524,4 -4,4"/>
<!-- Node1 -->
<g id="node1" class="node"><title>Node1</title>
<polygon fill="#bfbfbf" stroke="black" points="0,-19.5 0,-38.5 104,-38.5 104,-19.5 0,-19.5"/>
<text text-anchor="middle" x="52" y="-26.5" font-family="Helvetica,sans-Serif" font-size="10.00">radio_source_select</text>
</g>
<!-- Node2 -->
<g id="node2" class="node"><title>Node2</title>
<g id="a_node2"><a xlink:href="radio_8c.html#a3a1de7e31aabba6e408a633c130e618a" target="_top" xlink:title="radio_init">
<polygon fill="white" stroke="black" points="265,-38.5 265,-57.5 321,-57.5 321,-38.5 265,-38.5"/>
<text text-anchor="middle" x="293" y="-45.5" font-family="Helvetica,sans-Serif" font-size="10.00">radio_init</text>
</a>
</g>
</g>
<!-- Node1&#45;&gt;Node2 -->
<g id="edge1" class="edge"><title>Node1&#45;&gt;Node2</title>
<path fill="none" stroke="midnightblue" d="M114.372,-33.8789C162.991,-37.744 228.58,-42.9583 264.919,-45.8471"/>
<polygon fill="midnightblue" stroke="midnightblue" points="114.517,-30.3796 104.271,-33.076 113.963,-37.3575 114.517,-30.3796"/>
</g>
<!-- Node4 -->
<g id="node4" class="node"><title>Node4</title>
<g id="a_node4"><a xlink:href="radio_8c.html#a832a684fc60104296fc975a7608f92b4" target="_top" xlink:title="radio_settings">
<polygon fill="white" stroke="black" points="140,-0.5 140,-19.5 217,-19.5 217,-0.5 140,-0.5"/>
<text text-anchor="middle" x="178.5" y="-7.5" font-family="Helvetica,sans-Serif" font-size="10.00">radio_settings</text>
</a>
</g>
</g>
<!-- Node1&#45;&gt;Node4 -->
<g id="edge3" class="edge"><title>Node1&#45;&gt;Node4</title>
<path fill="none" stroke="midnightblue" d="M114.508,-19.6133C123.196,-18.2874 131.904,-16.9585 139.953,-15.73"/>
<polygon fill="midnightblue" stroke="midnightblue" points="113.715,-16.1936 104.358,-21.1623 114.771,-23.1135 113.715,-16.1936"/>
</g>
<!-- Node3 -->
<g id="node3" class="node"><title>Node3</title>
<g id="a_node3"><a xlink:href="main_8c.html#a840291bc02cba5474a4cb46a9b9566fe" target="_top" xlink:title="main">
<polygon fill="white" stroke="black" points="482,-19.5 482,-38.5 520,-38.5 520,-19.5 482,-19.5"/>
<text text-anchor="middle" x="501" y="-26.5" font-family="Helvetica,sans-Serif" font-size="10.00">main</text>
</a>
</g>
</g>
<!-- Node2&#45;&gt;Node3 -->
<g id="edge2" class="edge"><title>Node2&#45;&gt;Node3</title>
<path fill="none" stroke="midnightblue" d="M331.491,-44.5421C376.013,-40.4357 448.452,-33.7544 481.954,-30.6645"/>
<polygon fill="midnightblue" stroke="midnightblue" points="330.991,-41.0732 321.355,-45.4769 331.634,-48.0436 330.991,-41.0732"/>
</g>
<!-- Node5 -->
<g id="node5" class="node"><title>Node5</title>
<g id="a_node5"><a xlink:href="menu_8c.html#a5d9c190838195d7872fc7067269e20fa" target="_top" xlink:title="menu_function">
<polygon fill="white" stroke="black" points="253,-0.5 253,-19.5 333,-19.5 333,-0.5 253,-0.5"/>
<text text-anchor="middle" x="293" y="-7.5" font-family="Helvetica,sans-Serif" font-size="10.00">menu_function</text>
</a>
</g>
</g>
<!-- Node4&#45;&gt;Node5 -->
<g id="edge4" class="edge"><title>Node4&#45;&gt;Node5</title>
<path fill="none" stroke="midnightblue" d="M227.474,-10C235.985,-10 244.755,-10 252.981,-10"/>
<polygon fill="midnightblue" stroke="midnightblue" points="227.274,-6.5001 217.274,-10 227.274,-13.5001 227.274,-6.5001"/>
</g>
<!-- Node6 -->
<g id="node6" class="node"><title>Node6</title>
<g id="a_node6"><a xlink:href="menu_8c.html#aaf2a075d3159f7eeab42012941a3437f" target="_top" xlink:title="menu_handler">
<polygon fill="white" stroke="black" points="369,-0.5 369,-19.5 446,-19.5 446,-0.5 369,-0.5"/>
<text text-anchor="middle" x="407.5" y="-7.5" font-family="Helvetica,sans-Serif" font-size="10.00">menu_handler</text>
</a>
</g>
</g>
<!-- Node5&#45;&gt;Node6 -->
<g id="edge5" class="edge"><title>Node5&#45;&gt;Node6</title>
<path fill="none" stroke="midnightblue" d="M343.262,-10C351.783,-10 360.52,-10 368.676,-10"/>
<polygon fill="midnightblue" stroke="midnightblue" points="343.031,-6.5001 333.031,-10 343.031,-13.5001 343.031,-6.5001"/>
</g>
<!-- Node6&#45;&gt;Node3 -->
<g id="edge6" class="edge"><title>Node6&#45;&gt;Node3</title>
<path fill="none" stroke="midnightblue" d="M456.072,-19.8783C465.156,-21.7646 474.144,-23.631 481.601,-25.1793"/>
<polygon fill="midnightblue" stroke="midnightblue" points="456.748,-16.444 446.245,-17.8377 455.324,-23.2978 456.748,-16.444"/>
</g>
</g>
</svg>
