<?xml version="1.0" encoding="UTF-8" standalone="no"?>
<!DOCTYPE svg PUBLIC "-//W3C//DTD SVG 1.1//EN"
 "http://www.w3.org/Graphics/SVG/1.1/DTD/svg11.dtd">
<!-- Generated by graphviz version 2.38.0 (20140413.2041)
 -->
<!-- Title: D:/GIT/fhradiov2/settings/radio_configuration.h Pages: 1 -->
<svg width="192pt" height="162pt"
 viewBox="0.00 0.00 192.00 162.00" xmlns="http://www.w3.org/2000/svg" xmlns:xlink="http://www.w3.org/1999/xlink">
<g id="graph0" class="graph" transform="scale(1 1) rotate(0) translate(4 158)">
<title>D:/GIT/fhradiov2/settings/radio_configuration.h</title>
<polygon fill="white" stroke="none" points="-4,4 -4,-158 188,-158 188,4 -4,4"/>
<!-- Node1 -->
<g id="node1" class="node"><title>Node1</title>
<polygon fill="#bfbfbf" stroke="black" points="41,-123.5 41,-153.5 163,-153.5 163,-123.5 41,-123.5"/>
<text text-anchor="start" x="49" y="-141.5" font-family="Helvetica,sans-Serif" font-size="10.00">D:/GIT/fhradiov2/settings</text>
<text text-anchor="middle" x="102" y="-130.5" font-family="Helvetica,sans-Serif" font-size="10.00">/radio_configuration.h</text>
</g>
<!-- Node2 -->
<g id="node2" class="node"><title>Node2</title>
<g id="a_node2"><a xlink:href="si4735__cmd__prop_8h.html" target="_top" xlink:title="driver/include/si4735\l_cmd_prop.h">
<polygon fill="white" stroke="black" points="0,-56.5 0,-86.5 104,-86.5 104,-56.5 0,-56.5"/>
<text text-anchor="start" x="8" y="-74.5" font-family="Helvetica,sans-Serif" font-size="10.00">driver/include/si4735</text>
<text text-anchor="middle" x="52" y="-63.5" font-family="Helvetica,sans-Serif" font-size="10.00">_cmd_prop.h</text>
</a>
</g>
</g>
<!-- Node1&#45;&gt;Node2 -->
<g id="edge1" class="edge"><title>Node1&#45;&gt;Node2</title>
<path fill="none" stroke="midnightblue" d="M91.1507,-123.396C84.6642,-114.963 76.2825,-104.067 68.9397,-94.5216"/>
<polygon fill="midnightblue" stroke="midnightblue" points="71.6994,-92.3688 62.8281,-86.5765 66.151,-96.6368 71.6994,-92.3688"/>
</g>
<!-- Node4 -->
<g id="node4" class="node"><title>Node4</title>
<g id="a_node4"><a xlink:href="libs_2time_8h.html" target="_top" xlink:title="libs/time.h">
<polygon fill="white" stroke="black" points="122,-62 122,-81 184,-81 184,-62 122,-62"/>
<text text-anchor="middle" x="153" y="-69" font-family="Helvetica,sans-Serif" font-size="10.00">libs/time.h</text>
</a>
</g>
</g>
<!-- Node1&#45;&gt;Node4 -->
<g id="edge3" class="edge"><title>Node1&#45;&gt;Node4</title>
<path fill="none" stroke="midnightblue" d="M113.066,-123.396C120.94,-113.361 131.55,-99.8382 139.855,-89.2535"/>
<polygon fill="midnightblue" stroke="midnightblue" points="142.759,-91.2225 146.178,-81.1945 137.252,-86.9014 142.759,-91.2225"/>
</g>
<!-- Node3 -->
<g id="node3" class="node"><title>Node3</title>
<polygon fill="white" stroke="#bfbfbf" points="27.5,-0.5 27.5,-19.5 76.5,-19.5 76.5,-0.5 27.5,-0.5"/>
<text text-anchor="middle" x="52" y="-7.5" font-family="Helvetica,sans-Serif" font-size="10.00">stdint.h</text>
</g>
<!-- Node2&#45;&gt;Node3 -->
<g id="edge2" class="edge"><title>Node2&#45;&gt;Node3</title>
<path fill="none" stroke="midnightblue" d="M52,-56.3993C52,-48.4664 52,-38.458 52,-29.8583"/>
<polygon fill="midnightblue" stroke="midnightblue" points="55.5001,-29.6577 52,-19.6578 48.5001,-29.6578 55.5001,-29.6577"/>
</g>
</g>
</svg>
