<?xml version="1.0" encoding="UTF-8" standalone="no"?>
<!DOCTYPE svg PUBLIC "-//W3C//DTD SVG 1.1//EN"
 "http://www.w3.org/Graphics/SVG/1.1/DTD/svg11.dtd">
<!-- Generated by graphviz version 2.38.0 (20140413.2041)
 -->
<!-- Title: radio_settings_contrast Pages: 1 -->
<svg width="1098pt" height="199pt"
 viewBox="0.00 0.00 1098.00 199.00" xmlns="http://www.w3.org/2000/svg" xmlns:xlink="http://www.w3.org/1999/xlink">
<g id="graph0" class="graph" transform="scale(1 1) rotate(0) translate(4 195)">
<title>radio_settings_contrast</title>
<polygon fill="white" stroke="none" points="-4,4 -4,-195 1094,-195 1094,4 -4,4"/>
<!-- Node1 -->
<g id="node1" class="node"><title>Node1</title>
<polygon fill="#bfbfbf" stroke="black" points="0,-123.5 0,-142.5 118,-142.5 118,-123.5 0,-123.5"/>
<text text-anchor="middle" x="59" y="-130.5" font-family="Helvetica,sans-Serif" font-size="10.00">radio_settings_contrast</text>
</g>
<!-- Node2 -->
<g id="node2" class="node"><title>Node2</title>
<g id="a_node2"><a xlink:href="lcd_8h.html#ab99e48ab8689dcb1205c4c7c97bd9956" target="_top" xlink:title="lcd_contrast">
<polygon fill="white" stroke="black" points="439.5,-171.5 439.5,-190.5 509.5,-190.5 509.5,-171.5 439.5,-171.5"/>
<text text-anchor="middle" x="474.5" y="-178.5" font-family="Helvetica,sans-Serif" font-size="10.00">lcd_contrast</text>
</a>
</g>
</g>
<!-- Node1&#45;&gt;Node2 -->
<g id="edge1" class="edge"><title>Node1&#45;&gt;Node2</title>
<path fill="none" stroke="midnightblue" d="M107.334,-142.587C122.263,-145.606 138.82,-148.948 154,-152 218.431,-164.955 233.599,-174.524 299,-181 343.177,-185.374 393.954,-184.741 429.301,-183.399"/>
<polygon fill="midnightblue" stroke="midnightblue" points="429.45,-186.896 439.296,-182.986 429.16,-179.902 429.45,-186.896"/>
</g>
<!-- Node8 -->
<g id="node8" class="node"><title>Node8</title>
<g id="a_node8"><a xlink:href="radio_8h.html#a477656bb91c200d15ddbe6cffcd04c53" target="_top" xlink:title="Store the current settings. ">
<polygon fill="white" stroke="black" points="156.5,-123.5 156.5,-142.5 260.5,-142.5 260.5,-123.5 156.5,-123.5"/>
<text text-anchor="middle" x="208.5" y="-130.5" font-family="Helvetica,sans-Serif" font-size="10.00">radio_store_settings</text>
</a>
</g>
</g>
<!-- Node1&#45;&gt;Node8 -->
<g id="edge8" class="edge"><title>Node1&#45;&gt;Node8</title>
<path fill="none" stroke="midnightblue" d="M118.296,-133C127.423,-133 136.881,-133 146.075,-133"/>
<polygon fill="midnightblue" stroke="midnightblue" points="146.313,-136.5 156.313,-133 146.313,-129.5 146.313,-136.5"/>
</g>
<!-- Node12 -->
<g id="node12" class="node"><title>Node12</title>
<g id="a_node12"><a xlink:href="menu_8h.html#a5621c1bf312de029f43808bf02dc52e3" target="_top" xlink:title="Scroll through the settings. ">
<polygon fill="white" stroke="black" points="154,-66.5 154,-85.5 263,-85.5 263,-66.5 154,-66.5"/>
<text text-anchor="middle" x="208.5" y="-73.5" font-family="Helvetica,sans-Serif" font-size="10.00">menu_scroll_settings</text>
</a>
</g>
</g>
<!-- Node1&#45;&gt;Node12 -->
<g id="edge12" class="edge"><title>Node1&#45;&gt;Node12</title>
<path fill="none" stroke="midnightblue" d="M84.6882,-123.459C108.938,-114.088 146.139,-99.7124 173.244,-89.2377"/>
<polygon fill="midnightblue" stroke="midnightblue" points="174.665,-92.441 182.731,-85.5716 172.142,-85.9116 174.665,-92.441"/>
</g>
<!-- Node3 -->
<g id="node3" class="node"><title>Node3</title>
<g id="a_node3"><a xlink:href="lcd_8c.html#a250728451a22259562d3f01a12bbd77b" target="_top" xlink:title="lcd_command">
<polygon fill="white" stroke="black" points="678.5,-114.5 678.5,-133.5 755.5,-133.5 755.5,-114.5 678.5,-114.5"/>
<text text-anchor="middle" x="717" y="-121.5" font-family="Helvetica,sans-Serif" font-size="10.00">lcd_command</text>
</a>
</g>
</g>
<!-- Node2&#45;&gt;Node3 -->
<g id="edge2" class="edge"><title>Node2&#45;&gt;Node3</title>
<path fill="none" stroke="midnightblue" d="M509.665,-173.201C542.765,-165.612 594.364,-153.693 639,-143 648.54,-140.714 658.735,-138.229 668.48,-135.833"/>
<polygon fill="midnightblue" stroke="midnightblue" points="669.556,-139.172 678.427,-133.379 667.88,-132.376 669.556,-139.172"/>
</g>
<!-- Node4 -->
<g id="node4" class="node"><title>Node4</title>
<g id="a_node4"><a xlink:href="i2c_8h.html#a6691e5911f539e1e8178c6e983e8079a" target="_top" xlink:title="Transmits I2C commands with a variable length to a I2C slave. ">
<polygon fill="white" stroke="black" points="795,-76.5 795,-95.5 867,-95.5 867,-76.5 795,-76.5"/>
<text text-anchor="middle" x="831" y="-83.5" font-family="Helvetica,sans-Serif" font-size="10.00">i2c_write_var</text>
</a>
</g>
</g>
<!-- Node3&#45;&gt;Node4 -->
<g id="edge3" class="edge"><title>Node3&#45;&gt;Node4</title>
<path fill="none" stroke="midnightblue" d="M746.262,-114.411C760.19,-109.686 777.18,-103.921 792.207,-98.8226"/>
<polygon fill="midnightblue" stroke="midnightblue" points="793.401,-102.113 801.747,-95.5859 791.152,-95.4845 793.401,-102.113"/>
</g>
<!-- Node7 -->
<g id="node7" class="node"><title>Node7</title>
<g id="a_node7"><a xlink:href="timer_8c.html#a276d5cb665b9f8b2c79e53e2f2c5b4f0" target="_top" xlink:title="_delay_ms">
<polygon fill="white" stroke="black" points="906.5,-114.5 906.5,-133.5 970.5,-133.5 970.5,-114.5 906.5,-114.5"/>
<text text-anchor="middle" x="938.5" y="-121.5" font-family="Helvetica,sans-Serif" font-size="10.00">_delay_ms</text>
</a>
</g>
</g>
<!-- Node3&#45;&gt;Node7 -->
<g id="edge6" class="edge"><title>Node3&#45;&gt;Node7</title>
<path fill="none" stroke="midnightblue" d="M755.733,-124C794.861,-124 855.853,-124 896.237,-124"/>
<polygon fill="midnightblue" stroke="midnightblue" points="896.287,-127.5 906.287,-124 896.287,-120.5 896.287,-127.5"/>
</g>
<!-- Node5 -->
<g id="node5" class="node"><title>Node5</title>
<g id="a_node5"><a xlink:href="i2c_8c.html#ae0625b97d3437bcaca4ac4b96dd01978" target="_top" xlink:title="Transmits I2C command array to a I2C slave. ">
<polygon fill="white" stroke="black" points="903,-76.5 903,-95.5 974,-95.5 974,-76.5 903,-76.5"/>
<text text-anchor="middle" x="938.5" y="-83.5" font-family="Helvetica,sans-Serif" font-size="10.00">i2c_write_arr</text>
</a>
</g>
</g>
<!-- Node4&#45;&gt;Node5 -->
<g id="edge4" class="edge"><title>Node4&#45;&gt;Node5</title>
<path fill="none" stroke="midnightblue" d="M867.13,-86C875.312,-86 884.133,-86 892.671,-86"/>
<polygon fill="midnightblue" stroke="midnightblue" points="892.882,-89.5001 902.882,-86 892.882,-82.5001 892.882,-89.5001"/>
</g>
<!-- Node6 -->
<g id="node6" class="node"><title>Node6</title>
<g id="a_node6"><a xlink:href="timer_8c.html#a3c56af3315c2461dec5ced585a5f84db" target="_top" xlink:title="_delay_ten_us">
<polygon fill="white" stroke="black" points="1010,-95.5 1010,-114.5 1090,-114.5 1090,-95.5 1010,-95.5"/>
<text text-anchor="middle" x="1050" y="-102.5" font-family="Helvetica,sans-Serif" font-size="10.00">_delay_ten_us</text>
</a>
</g>
</g>
<!-- Node5&#45;&gt;Node6 -->
<g id="edge5" class="edge"><title>Node5&#45;&gt;Node6</title>
<path fill="none" stroke="midnightblue" d="M974.146,-92.0117C982.253,-93.4183 991.042,-94.9433 999.651,-96.4371"/>
<polygon fill="midnightblue" stroke="midnightblue" points="999.172,-99.9062 1009.62,-98.1674 1000.37,-93.0092 999.172,-99.9062"/>
</g>
<!-- Node7&#45;&gt;Node6 -->
<g id="edge7" class="edge"><title>Node7&#45;&gt;Node6</title>
<path fill="none" stroke="midnightblue" d="M970.585,-118.606C979.595,-117.043 989.664,-115.296 999.505,-113.588"/>
<polygon fill="midnightblue" stroke="midnightblue" points="1000.37,-116.991 1009.62,-111.833 999.172,-110.094 1000.37,-116.991"/>
</g>
<!-- Node9 -->
<g id="node9" class="node"><title>Node9</title>
<g id="a_node9"><a xlink:href="flash_8h.html#ad9d8a7cadb959b139fea7654d539714a" target="_top" xlink:title="flash_read">
<polygon fill="white" stroke="black" points="317,-152.5 317,-171.5 378,-171.5 378,-152.5 317,-152.5"/>
<text text-anchor="middle" x="347.5" y="-159.5" font-family="Helvetica,sans-Serif" font-size="10.00">flash_read</text>
</a>
</g>
</g>
<!-- Node8&#45;&gt;Node9 -->
<g id="edge9" class="edge"><title>Node8&#45;&gt;Node9</title>
<path fill="none" stroke="midnightblue" d="M254.739,-142.576C271.649,-146.156 290.706,-150.19 307.053,-153.65"/>
<polygon fill="midnightblue" stroke="midnightblue" points="306.33,-157.074 316.838,-155.721 307.779,-150.226 306.33,-157.074"/>
</g>
<!-- Node10 -->
<g id="node10" class="node"><title>Node10</title>
<g id="a_node10"><a xlink:href="flash_8h.html#a936ded19cea6a94beca2b32349a9ac2c" target="_top" xlink:title="flash_store">
<polygon fill="white" stroke="black" points="315.5,-114.5 315.5,-133.5 379.5,-133.5 379.5,-114.5 315.5,-114.5"/>
<text text-anchor="middle" x="347.5" y="-121.5" font-family="Helvetica,sans-Serif" font-size="10.00">flash_store</text>
</a>
</g>
</g>
<!-- Node8&#45;&gt;Node10 -->
<g id="edge10" class="edge"><title>Node8&#45;&gt;Node10</title>
<path fill="none" stroke="midnightblue" d="M260.514,-129.649C275.185,-128.685 291.002,-127.646 305.022,-126.725"/>
<polygon fill="midnightblue" stroke="midnightblue" points="305.594,-130.195 315.343,-126.047 305.135,-123.21 305.594,-130.195"/>
</g>
<!-- Node11 -->
<g id="node11" class="node"><title>Node11</title>
<g id="a_node11"><a xlink:href="flash_8c.html#ad9d8a7cadb959b139fea7654d539714a" target="_top" xlink:title="flash_read">
<polygon fill="white" stroke="black" points="444,-114.5 444,-133.5 505,-133.5 505,-114.5 444,-114.5"/>
<text text-anchor="middle" x="474.5" y="-121.5" font-family="Helvetica,sans-Serif" font-size="10.00">flash_read</text>
</a>
</g>
</g>
<!-- Node10&#45;&gt;Node11 -->
<g id="edge11" class="edge"><title>Node10&#45;&gt;Node11</title>
<path fill="none" stroke="midnightblue" d="M379.72,-124C396.009,-124 416.116,-124 433.53,-124"/>
<polygon fill="midnightblue" stroke="midnightblue" points="433.966,-127.5 443.966,-124 433.966,-120.5 433.966,-127.5"/>
</g>
<!-- Node13 -->
<g id="node13" class="node"><title>Node13</title>
<g id="a_node13"><a xlink:href="lcd_8h.html#acd63fb85d212730fa4fcbcbeeccd231e" target="_top" xlink:title="lcd_create_view">
<polygon fill="white" stroke="black" points="432,-76.5 432,-95.5 517,-95.5 517,-76.5 432,-76.5"/>
<text text-anchor="middle" x="474.5" y="-83.5" font-family="Helvetica,sans-Serif" font-size="10.00">lcd_create_view</text>
</a>
</g>
</g>
<!-- Node12&#45;&gt;Node13 -->
<g id="edge13" class="edge"><title>Node12&#45;&gt;Node13</title>
<path fill="none" stroke="midnightblue" d="M263.243,-78.0357C309.636,-79.793 376.214,-82.3149 421.955,-84.0475"/>
<polygon fill="midnightblue" stroke="midnightblue" points="421.833,-87.5453 431.958,-84.4264 422.098,-80.5503 421.833,-87.5453"/>
</g>
<!-- Node16 -->
<g id="node16" class="node"><title>Node16</title>
<g id="a_node16"><a xlink:href="string_8c.html#a82b1b882cf97ff40344f87bd1473e9d0" target="_top" xlink:title="string_int_to_array">
<polygon fill="white" stroke="black" points="299,-38.5 299,-57.5 396,-57.5 396,-38.5 299,-38.5"/>
<text text-anchor="middle" x="347.5" y="-45.5" font-family="Helvetica,sans-Serif" font-size="10.00">string_int_to_array</text>
</a>
</g>
</g>
<!-- Node12&#45;&gt;Node16 -->
<g id="edge18" class="edge"><title>Node12&#45;&gt;Node16</title>
<path fill="none" stroke="midnightblue" d="M256.264,-66.4423C267.066,-64.2347 278.671,-61.8628 289.844,-59.5794"/>
<polygon fill="midnightblue" stroke="midnightblue" points="290.85,-62.9462 299.946,-57.5146 289.448,-56.088 290.85,-62.9462"/>
</g>
<!-- Node17 -->
<g id="node17" class="node"><title>Node17</title>
<g id="a_node17"><a xlink:href="menu_8c.html#a503ed2007daa6f20b2f748eedbcb8494" target="_top" xlink:title="Scroll to given position. ">
<polygon fill="white" stroke="black" points="313,-0.5 313,-19.5 382,-19.5 382,-0.5 313,-0.5"/>
<text text-anchor="middle" x="347.5" y="-7.5" font-family="Helvetica,sans-Serif" font-size="10.00">menu_scroll</text>
</a>
</g>
</g>
<!-- Node12&#45;&gt;Node17 -->
<g id="edge19" class="edge"><title>Node12&#45;&gt;Node17</title>
<path fill="none" stroke="midnightblue" d="M226.396,-66.4583C244.199,-56.5638 273.181,-40.9048 299,-29 303.103,-27.108 307.452,-25.2176 311.786,-23.4029"/>
<polygon fill="midnightblue" stroke="midnightblue" points="313.215,-26.6001 321.15,-19.5799 310.569,-20.1194 313.215,-26.6001"/>
</g>
<!-- Node14 -->
<g id="node14" class="node"><title>Node14</title>
<g id="a_node14"><a xlink:href="lcd_8c.html#a2a4df97ebc5b396233aa31765228ef42" target="_top" xlink:title="lcd_set_courser">
<polygon fill="white" stroke="black" points="553,-114.5 553,-133.5 639,-133.5 639,-114.5 553,-114.5"/>
<text text-anchor="middle" x="596" y="-121.5" font-family="Helvetica,sans-Serif" font-size="10.00">lcd_set_courser</text>
</a>
</g>
</g>
<!-- Node13&#45;&gt;Node14 -->
<g id="edge14" class="edge"><title>Node13&#45;&gt;Node14</title>
<path fill="none" stroke="midnightblue" d="M505.655,-95.589C520.657,-100.359 538.988,-106.189 555.134,-111.323"/>
<polygon fill="midnightblue" stroke="midnightblue" points="554.264,-114.719 564.855,-114.414 556.386,-108.048 554.264,-114.719"/>
</g>
<!-- Node15 -->
<g id="node15" class="node"><title>Node15</title>
<g id="a_node15"><a xlink:href="lcd_8c.html#aa6e1aa2ef9b677e16d8198df683429ec" target="_top" xlink:title="lcd_write_string">
<polygon fill="white" stroke="black" points="675,-76.5 675,-95.5 759,-95.5 759,-76.5 675,-76.5"/>
<text text-anchor="middle" x="717" y="-83.5" font-family="Helvetica,sans-Serif" font-size="10.00">lcd_write_string</text>
</a>
</g>
</g>
<!-- Node13&#45;&gt;Node15 -->
<g id="edge16" class="edge"><title>Node13&#45;&gt;Node15</title>
<path fill="none" stroke="midnightblue" d="M517.117,-86C558.066,-86 620.678,-86 664.687,-86"/>
<polygon fill="midnightblue" stroke="midnightblue" points="664.892,-89.5001 674.892,-86 664.892,-82.5001 664.892,-89.5001"/>
</g>
<!-- Node14&#45;&gt;Node3 -->
<g id="edge15" class="edge"><title>Node14&#45;&gt;Node3</title>
<path fill="none" stroke="midnightblue" d="M639.29,-124C648.611,-124 658.549,-124 668.075,-124"/>
<polygon fill="midnightblue" stroke="midnightblue" points="668.202,-127.5 678.202,-124 668.202,-120.5 668.202,-127.5"/>
</g>
<!-- Node15&#45;&gt;Node4 -->
<g id="edge17" class="edge"><title>Node15&#45;&gt;Node4</title>
<path fill="none" stroke="midnightblue" d="M759.069,-86C767.413,-86 776.234,-86 784.715,-86"/>
<polygon fill="midnightblue" stroke="midnightblue" points="784.836,-89.5001 794.836,-86 784.836,-82.5001 784.836,-89.5001"/>
</g>
<!-- Node17&#45;&gt;Node13 -->
<g id="edge20" class="edge"><title>Node17&#45;&gt;Node13</title>
<path fill="none" stroke="midnightblue" d="M376.177,-19.6983C382.822,-22.3979 389.79,-25.5479 396,-29 417.112,-40.7351 439.103,-57.4017 454.243,-69.6831"/>
<polygon fill="midnightblue" stroke="midnightblue" points="452.366,-72.6722 462.307,-76.3371 456.821,-67.273 452.366,-72.6722"/>
</g>
</g>
</svg>
