<?xml version="1.0" encoding="UTF-8" standalone="no"?>
<!DOCTYPE svg PUBLIC "-//W3C//DTD SVG 1.1//EN"
 "http://www.w3.org/Graphics/SVG/1.1/DTD/svg11.dtd">
<!-- Generated by graphviz version 2.38.0 (20140413.2041)
 -->
<!-- Title: radio_tune_freq Pages: 1 -->
<svg width="389pt" height="161pt"
 viewBox="0.00 0.00 389.00 161.00" xmlns="http://www.w3.org/2000/svg" xmlns:xlink="http://www.w3.org/1999/xlink">
<g id="graph0" class="graph" transform="scale(1 1) rotate(0) translate(4 157)">
<title>radio_tune_freq</title>
<polygon fill="white" stroke="none" points="-4,4 -4,-157 385,-157 385,4 -4,4"/>
<!-- Node1 -->
<g id="node1" class="node"><title>Node1</title>
<polygon fill="#bfbfbf" stroke="black" points="0,-76.5 0,-95.5 83,-95.5 83,-76.5 0,-76.5"/>
<text text-anchor="middle" x="41.5" y="-83.5" font-family="Helvetica,sans-Serif" font-size="10.00">radio_tune_freq</text>
</g>
<!-- Node2 -->
<g id="node2" class="node"><title>Node2</title>
<g id="a_node2"><a xlink:href="radio_8c.html#a3a1de7e31aabba6e408a633c130e618a" target="_top" xlink:title="Initiales the radio. ">
<polygon fill="white" stroke="black" points="141.5,-133.5 141.5,-152.5 197.5,-152.5 197.5,-133.5 141.5,-133.5"/>
<text text-anchor="middle" x="169.5" y="-140.5" font-family="Helvetica,sans-Serif" font-size="10.00">radio_init</text>
</a>
</g>
</g>
<!-- Node1&#45;&gt;Node2 -->
<g id="edge1" class="edge"><title>Node1&#45;&gt;Node2</title>
<path fill="none" stroke="midnightblue" d="M69.45,-100.166C83.9725,-107.601 102.293,-116.664 119,-124 126.501,-127.294 134.77,-130.594 142.365,-133.498"/>
<polygon fill="midnightblue" stroke="midnightblue" points="71.0013,-97.0279 60.51,-95.5498 67.7897,-103.248 71.0013,-97.0279"/>
</g>
<!-- Node4 -->
<g id="node4" class="node"><title>Node4</title>
<g id="a_node4"><a xlink:href="radio_8c.html#a841443a7db6e1c9caef95f3b7af5761f" target="_top" xlink:title="Radio main. ">
<polygon fill="white" stroke="black" points="137.5,-95.5 137.5,-114.5 201.5,-114.5 201.5,-95.5 137.5,-95.5"/>
<text text-anchor="middle" x="169.5" y="-102.5" font-family="Helvetica,sans-Serif" font-size="10.00">radio_main</text>
</a>
</g>
</g>
<!-- Node1&#45;&gt;Node4 -->
<g id="edge3" class="edge"><title>Node1&#45;&gt;Node4</title>
<path fill="none" stroke="midnightblue" d="M93.1736,-93.6412C108.064,-95.8866 123.91,-98.2761 137.207,-100.281"/>
<polygon fill="midnightblue" stroke="midnightblue" points="93.4709,-90.1466 83.0608,-92.1163 92.4271,-97.0683 93.4709,-90.1466"/>
</g>
<!-- Node5 -->
<g id="node5" class="node"><title>Node5</title>
<g id="a_node5"><a xlink:href="radio_8c.html#a5d08cbff96aee4274e785b49a98f14cd" target="_top" xlink:title="Turn radio to standby. ">
<polygon fill="white" stroke="black" points="128,-57.5 128,-76.5 211,-76.5 211,-57.5 128,-57.5"/>
<text text-anchor="middle" x="169.5" y="-64.5" font-family="Helvetica,sans-Serif" font-size="10.00">radio_stand_by</text>
</a>
</g>
</g>
<!-- Node1&#45;&gt;Node5 -->
<g id="edge4" class="edge"><title>Node1&#45;&gt;Node5</title>
<path fill="none" stroke="midnightblue" d="M92.9729,-78.389C104.468,-76.6556 116.544,-74.8347 127.583,-73.17"/>
<polygon fill="midnightblue" stroke="midnightblue" points="92.4271,-74.9317 83.0608,-79.8837 93.4709,-81.8534 92.4271,-74.9317"/>
</g>
<!-- Node6 -->
<g id="node6" class="node"><title>Node6</title>
<g id="a_node6"><a xlink:href="station__list_8h.html#a14396edaefab23c83e16fea65cc5db9d" target="_top" xlink:title="Handler to select the current station. ">
<polygon fill="white" stroke="black" points="119,-19.5 119,-38.5 220,-38.5 220,-19.5 119,-19.5"/>
<text text-anchor="middle" x="169.5" y="-26.5" font-family="Helvetica,sans-Serif" font-size="10.00">station_list_handler</text>
</a>
</g>
</g>
<!-- Node1&#45;&gt;Node6 -->
<g id="edge5" class="edge"><title>Node1&#45;&gt;Node6</title>
<path fill="none" stroke="midnightblue" d="M69.45,-71.8341C83.9725,-64.3993 102.293,-55.3365 119,-48 126.501,-44.7061 134.77,-41.4061 142.365,-38.5023"/>
<polygon fill="midnightblue" stroke="midnightblue" points="67.7897,-68.7523 60.51,-76.4502 71.0013,-74.9721 67.7897,-68.7523"/>
</g>
<!-- Node3 -->
<g id="node3" class="node"><title>Node3</title>
<g id="a_node3"><a xlink:href="main_8c.html#a840291bc02cba5474a4cb46a9b9566fe" target="_top" xlink:title="Main function. ">
<polygon fill="white" stroke="black" points="299.5,-133.5 299.5,-152.5 337.5,-152.5 337.5,-133.5 299.5,-133.5"/>
<text text-anchor="middle" x="318.5" y="-140.5" font-family="Helvetica,sans-Serif" font-size="10.00">main</text>
</a>
</g>
</g>
<!-- Node2&#45;&gt;Node3 -->
<g id="edge2" class="edge"><title>Node2&#45;&gt;Node3</title>
<path fill="none" stroke="midnightblue" d="M208.056,-143C237.247,-143 276.472,-143 299.168,-143"/>
<polygon fill="midnightblue" stroke="midnightblue" points="207.805,-139.5 197.805,-143 207.805,-146.5 207.805,-139.5"/>
</g>
<!-- Node7 -->
<g id="node7" class="node"><title>Node7</title>
<g id="a_node7"><a xlink:href="radio__settings_8c.html#ab424f802ddd3a0570afec524d4f2091b" target="_top" xlink:title="Sets the frequency. ">
<polygon fill="white" stroke="black" points="256,-38.5 256,-57.5 381,-57.5 381,-38.5 256,-38.5"/>
<text text-anchor="middle" x="318.5" y="-45.5" font-family="Helvetica,sans-Serif" font-size="10.00">radio_settings_frequency</text>
</a>
</g>
</g>
<!-- Node6&#45;&gt;Node7 -->
<g id="edge6" class="edge"><title>Node6&#45;&gt;Node7</title>
<path fill="none" stroke="midnightblue" d="M230.347,-36.7353C238.735,-37.8195 247.369,-38.9354 255.791,-40.024"/>
<polygon fill="midnightblue" stroke="midnightblue" points="230.634,-33.2433 220.267,-35.4325 229.736,-40.1856 230.634,-33.2433"/>
</g>
<!-- Node8 -->
<g id="node8" class="node"><title>Node8</title>
<g id="a_node8"><a xlink:href="radio__settings_8c.html#a90d48a01d9b0ad794fb9416a2ce8f85e" target="_top" xlink:title="Seeks the next station/all available. ">
<polygon fill="white" stroke="black" points="262.5,-0.5 262.5,-19.5 374.5,-19.5 374.5,-0.5 262.5,-0.5"/>
<text text-anchor="middle" x="318.5" y="-7.5" font-family="Helvetica,sans-Serif" font-size="10.00">radio_settings_station</text>
</a>
</g>
</g>
<!-- Node6&#45;&gt;Node8 -->
<g id="edge7" class="edge"><title>Node6&#45;&gt;Node8</title>
<path fill="none" stroke="midnightblue" d="M230.314,-21.2689C240.952,-19.894 251.986,-18.4679 262.482,-17.1112"/>
<polygon fill="midnightblue" stroke="midnightblue" points="229.736,-17.8144 220.267,-22.5675 230.634,-24.7567 229.736,-17.8144"/>
</g>
</g>
</svg>
