<?xml version="1.0" encoding="UTF-8" standalone="no"?>
<!DOCTYPE svg PUBLIC "-//W3C//DTD SVG 1.1//EN"
 "http://www.w3.org/Graphics/SVG/1.1/DTD/svg11.dtd">
<!-- Generated by graphviz version 2.38.0 (20140413.2041)
 -->
<!-- Title: radio_display_handler Pages: 1 -->
<!--zoomable 306 -->
<svg id="main" version="1.1" xmlns="http://www.w3.org/2000/svg" xmlns:xlink="http://www.w3.org/1999/xlink" xml:space="preserve" onload="init(evt)">
<style type="text/css"><![CDATA[
.edge:hover path { stroke: red; }
.edge:hover polygon { stroke: red; fill: red; }
]]></style>
<script type="text/javascript"><![CDATA[
var edges = document.getElementsByTagName('g');
if (edges && edges.length) {
  for (var i=0;i<edges.length;i++) {
    if (edges[i].id.substr(0,4)=='edge') {
      edges[i].setAttribute('class','edge');
    }
  }
}
]]></script>
        <defs>
                <circle id="rim" cx="0" cy="0" r="7"/>
                <circle id="rim2" cx="0" cy="0" r="3.5"/>
                <g id="zoomPlus">
                        <use xlink:href="#rim" fill="#404040">
                                <set attributeName="fill" to="#808080" begin="zoomplus.mouseover" end="zoomplus.mouseout"/>
                        </use>
                        <path d="M-4,0h8M0,-4v8" fill="none" stroke="white" stroke-width="1.5" pointer-events="none"/>
                </g>
                <g id="zoomMin">
                        <use xlink:href="#rim" fill="#404040">
                                <set attributeName="fill" to="#808080" begin="zoomminus.mouseover" end="zoomminus.mouseout"/>
                        </use>
                        <path d="M-4,0h8" fill="none" stroke="white" stroke-width="1.5" pointer-events="none"/>
                </g>
                <g id="dirArrow">
                        <path fill="none" stroke="white" stroke-width="1.5" d="M0,-3.0v7 M-2.5,-0.5L0,-3.0L2.5,-0.5"/>
                </g>
               <g id="resetDef">
                       <use xlink:href="#rim2" fill="#404040">
                               <set attributeName="fill" to="#808080" begin="reset.mouseover" end="reset.mouseout"/>
                       </use>
               </g>
        </defs>

<script type="text/javascript">
var viewWidth = 978;
var viewHeight = 306;
var sectionId = 'dynsection-2';
</script>
<script xlink:href="svgpan.js"/>
<svg id="graph" class="graph">
<g id="viewport">
<title>radio_display_handler</title>
<polygon fill="white" stroke="none" points="-4,4 -4,-302 974,-302 974,4 -4,4"/>
<!-- Node1 -->
<g id="node1" class="node"><title>Node1</title>
<polygon fill="#bfbfbf" stroke="black" points="0,-142.5 0,-161.5 110,-161.5 110,-142.5 0,-142.5"/>
<text text-anchor="middle" x="55" y="-149.5" font-family="Helvetica,sans-Serif" font-size="10.00">radio_display_handler</text>
</g>
<!-- Node2 -->
<g id="node2" class="node"><title>Node2</title>
<g id="a_node2"><a xlink:href="radio__display_8c.html#af1021ae1d01d874fb72c3ce3d1b29ad9" target="_top" xlink:title="radio_display_rds">
<polygon fill="white" stroke="black" points="156.5,-278.5 156.5,-297.5 248.5,-297.5 248.5,-278.5 156.5,-278.5"/>
<text text-anchor="middle" x="202.5" y="-285.5" font-family="Helvetica,sans-Serif" font-size="10.00">radio_display_rds</text>
</a>
</g>
</g>
<!-- Node1&#45;&gt;Node2 -->
<g id="edge1" class="edge"><title>Node1&#45;&gt;Node2</title>
<path fill="none" stroke="midnightblue" d="M60.8826,-161.722C72.5357,-183.968 104.151,-238.967 146,-269 148.689,-270.93 151.59,-272.676 154.605,-274.254"/>
<polygon fill="midnightblue" stroke="midnightblue" points="153.348,-277.527 163.899,-278.498 156.256,-271.16 153.348,-277.527"/>
</g>
<!-- Node3 -->
<g id="node3" class="node"><title>Node3</title>
<g id="a_node3"><a xlink:href="lcd_8h.html#acd63fb85d212730fa4fcbcbeeccd231e" target="_top" xlink:title="lcd_create_view">
<polygon fill="white" stroke="black" points="303.5,-183.5 303.5,-202.5 388.5,-202.5 388.5,-183.5 303.5,-183.5"/>
<text text-anchor="middle" x="346" y="-190.5" font-family="Helvetica,sans-Serif" font-size="10.00">lcd_create_view</text>
</a>
</g>
</g>
<!-- Node1&#45;&gt;Node3 -->
<g id="edge19" class="edge"><title>Node1&#45;&gt;Node3</title>
<path fill="none" stroke="midnightblue" d="M71.5368,-161.581C88.9293,-171.696 118.314,-186.991 146,-193 195.073,-203.651 252.571,-202.208 293.108,-198.97"/>
<polygon fill="midnightblue" stroke="midnightblue" points="293.631,-202.438 303.292,-198.09 293.028,-195.464 293.631,-202.438"/>
</g>
<!-- Node12 -->
<g id="node12" class="node"><title>Node12</title>
<g id="a_node12"><a xlink:href="radio__display_8c.html#aa113a6affc99d406e8c73fc800648cb3" target="_top" xlink:title="radio_display_rsq">
<polygon fill="white" stroke="black" points="156.5,-38.5 156.5,-57.5 248.5,-57.5 248.5,-38.5 156.5,-38.5"/>
<text text-anchor="middle" x="202.5" y="-45.5" font-family="Helvetica,sans-Serif" font-size="10.00">radio_display_rsq</text>
</a>
</g>
</g>
<!-- Node1&#45;&gt;Node12 -->
<g id="edge13" class="edge"><title>Node1&#45;&gt;Node12</title>
<path fill="none" stroke="midnightblue" d="M63.6642,-142.448C78.0574,-125.093 110.862,-88.2225 146,-67 149.385,-64.9556 153.02,-63.0943 156.751,-61.4075"/>
<polygon fill="midnightblue" stroke="midnightblue" points="158.205,-64.5942 166.136,-57.5694 155.556,-58.115 158.205,-64.5942"/>
</g>
<!-- Node14 -->
<g id="node14" class="node"><title>Node14</title>
<g id="a_node14"><a xlink:href="radio__display_8c.html#ab985392609874befae589a4e4ad57c86" target="_top" xlink:title="radio_display_pipty">
<polygon fill="white" stroke="black" points="152.5,-240.5 152.5,-259.5 252.5,-259.5 252.5,-240.5 152.5,-240.5"/>
<text text-anchor="middle" x="202.5" y="-247.5" font-family="Helvetica,sans-Serif" font-size="10.00">radio_display_pipty</text>
</a>
</g>
</g>
<!-- Node1&#45;&gt;Node14 -->
<g id="edge16" class="edge"><title>Node1&#45;&gt;Node14</title>
<path fill="none" stroke="midnightblue" d="M65.8144,-161.665C81.6367,-176.861 114.233,-206.604 146,-226 152.283,-229.836 159.288,-233.371 166.149,-236.483"/>
<polygon fill="midnightblue" stroke="midnightblue" points="164.765,-239.698 175.333,-240.452 167.542,-233.272 164.765,-239.698"/>
</g>
<!-- Node16 -->
<g id="node16" class="node"><title>Node16</title>
<g id="a_node16"><a xlink:href="string_8c.html#a0e45f80d2057e44647b21fd530fe185d" target="_top" xlink:title="string_fixedpoint_to\l_array">
<polygon fill="white" stroke="black" points="152,-115 152,-145 253,-145 253,-115 152,-115"/>
<text text-anchor="start" x="160" y="-133" font-family="Helvetica,sans-Serif" font-size="10.00">string_fixedpoint_to</text>
<text text-anchor="middle" x="202.5" y="-122" font-family="Helvetica,sans-Serif" font-size="10.00">_array</text>
</a>
</g>
</g>
<!-- Node1&#45;&gt;Node16 -->
<g id="edge20" class="edge"><title>Node1&#45;&gt;Node16</title>
<path fill="none" stroke="midnightblue" d="M110.179,-143.808C120.359,-142.269 131.059,-140.651 141.407,-139.086"/>
<polygon fill="midnightblue" stroke="midnightblue" points="142.241,-142.5 151.605,-137.544 141.194,-135.579 142.241,-142.5"/>
</g>
<!-- Node17 -->
<g id="node17" class="node"><title>Node17</title>
<g id="a_node17"><a xlink:href="radio__display_8c.html#ac056d01b161ce2b8c286190f619c94f8" target="_top" xlink:title="radio_display_speaker">
<polygon fill="white" stroke="black" points="146,-76.5 146,-95.5 259,-95.5 259,-76.5 146,-76.5"/>
<text text-anchor="middle" x="202.5" y="-83.5" font-family="Helvetica,sans-Serif" font-size="10.00">radio_display_speaker</text>
</a>
</g>
</g>
<!-- Node1&#45;&gt;Node17 -->
<g id="edge21" class="edge"><title>Node1&#45;&gt;Node17</title>
<path fill="none" stroke="midnightblue" d="M72.5499,-142.386C90.3304,-132.29 119.598,-116.336 146,-105 150.847,-102.919 156.005,-100.902 161.149,-99.0086"/>
<polygon fill="midnightblue" stroke="midnightblue" points="162.686,-102.177 170.94,-95.5355 160.345,-95.5802 162.686,-102.177"/>
</g>
<!-- Node18 -->
<g id="node18" class="node"><title>Node18</title>
<g id="a_node18"><a xlink:href="menu_8h.html#a503ed2007daa6f20b2f748eedbcb8494" target="_top" xlink:title="menu_scroll">
<polygon fill="white" stroke="black" points="168,-164.5 168,-183.5 237,-183.5 237,-164.5 168,-164.5"/>
<text text-anchor="middle" x="202.5" y="-171.5" font-family="Helvetica,sans-Serif" font-size="10.00">menu_scroll</text>
</a>
</g>
</g>
<!-- Node1&#45;&gt;Node18 -->
<g id="edge24" class="edge"><title>Node1&#45;&gt;Node18</title>
<path fill="none" stroke="midnightblue" d="M110.179,-160.192C125.934,-162.574 142.935,-165.145 157.947,-167.415"/>
<polygon fill="midnightblue" stroke="midnightblue" points="157.571,-170.898 167.982,-168.932 158.618,-163.976 157.571,-170.898"/>
</g>
<!-- Node19 -->
<g id="node19" class="node"><title>Node19</title>
<g id="a_node19"><a xlink:href="time_8c.html#aa90db1275cec05113ad9a5041f6f8293" target="_top" xlink:title="time_time_to_array">
<polygon fill="white" stroke="black" points="152.5,-0.5 152.5,-19.5 252.5,-19.5 252.5,-0.5 152.5,-0.5"/>
<text text-anchor="middle" x="202.5" y="-7.5" font-family="Helvetica,sans-Serif" font-size="10.00">time_time_to_array</text>
</a>
</g>
</g>
<!-- Node1&#45;&gt;Node19 -->
<g id="edge26" class="edge"><title>Node1&#45;&gt;Node19</title>
<path fill="none" stroke="midnightblue" d="M60.4127,-142.461C71.4955,-119.526 102.739,-60.8392 146,-29 148.625,-27.0682 151.461,-25.3225 154.414,-23.7465"/>
<polygon fill="midnightblue" stroke="midnightblue" points="155.936,-26.8987 163.53,-19.5115 152.987,-20.5502 155.936,-26.8987"/>
</g>
<!-- Node2&#45;&gt;Node3 -->
<g id="edge2" class="edge"><title>Node2&#45;&gt;Node3</title>
<path fill="none" stroke="midnightblue" d="M239.614,-278.478C246.331,-275.93 253.088,-272.799 259,-269 278.572,-256.424 277.682,-246.534 295,-231 303.644,-223.247 313.749,-215.368 322.604,-208.809"/>
<polygon fill="midnightblue" stroke="midnightblue" points="324.913,-211.458 330.942,-202.745 320.796,-205.797 324.913,-211.458"/>
</g>
<!-- Node11 -->
<g id="node11" class="node"><title>Node11</title>
<g id="a_node11"><a xlink:href="time_8c.html#a4c9e3c34eea90bf15a804da6ee4ad638" target="_top" xlink:title="time_date_to_array">
<polygon fill="white" stroke="black" points="296,-278.5 296,-297.5 396,-297.5 396,-278.5 296,-278.5"/>
<text text-anchor="middle" x="346" y="-285.5" font-family="Helvetica,sans-Serif" font-size="10.00">time_date_to_array</text>
</a>
</g>
</g>
<!-- Node2&#45;&gt;Node11 -->
<g id="edge12" class="edge"><title>Node2&#45;&gt;Node11</title>
<path fill="none" stroke="midnightblue" d="M248.661,-288C260.414,-288 273.255,-288 285.621,-288"/>
<polygon fill="midnightblue" stroke="midnightblue" points="285.862,-291.5 295.862,-288 285.862,-284.5 285.862,-291.5"/>
</g>
<!-- Node4 -->
<g id="node4" class="node"><title>Node4</title>
<g id="a_node4"><a xlink:href="lcd_8c.html#a2a4df97ebc5b396233aa31765228ef42" target="_top" xlink:title="lcd_set_courser">
<polygon fill="white" stroke="black" points="433,-202.5 433,-221.5 519,-221.5 519,-202.5 433,-202.5"/>
<text text-anchor="middle" x="476" y="-209.5" font-family="Helvetica,sans-Serif" font-size="10.00">lcd_set_courser</text>
</a>
</g>
</g>
<!-- Node3&#45;&gt;Node4 -->
<g id="edge3" class="edge"><title>Node3&#45;&gt;Node4</title>
<path fill="none" stroke="midnightblue" d="M388.558,-199.169C399.4,-200.778 411.227,-202.534 422.554,-204.215"/>
<polygon fill="midnightblue" stroke="midnightblue" points="422.368,-207.726 432.773,-205.732 423.396,-200.802 422.368,-207.726"/>
</g>
<!-- Node10 -->
<g id="node10" class="node"><title>Node10</title>
<g id="a_node10"><a xlink:href="lcd_8c.html#aa6e1aa2ef9b677e16d8198df683429ec" target="_top" xlink:title="lcd_write_string">
<polygon fill="white" stroke="black" points="555,-164.5 555,-183.5 639,-183.5 639,-164.5 555,-164.5"/>
<text text-anchor="middle" x="597" y="-171.5" font-family="Helvetica,sans-Serif" font-size="10.00">lcd_write_string</text>
</a>
</g>
</g>
<!-- Node3&#45;&gt;Node10 -->
<g id="edge10" class="edge"><title>Node3&#45;&gt;Node10</title>
<path fill="none" stroke="midnightblue" d="M388.677,-189.82C431.538,-186.549 498.366,-181.45 544.507,-177.929"/>
<polygon fill="midnightblue" stroke="midnightblue" points="544.897,-181.41 554.602,-177.159 544.365,-174.43 544.897,-181.41"/>
</g>
<!-- Node5 -->
<g id="node5" class="node"><title>Node5</title>
<g id="a_node5"><a xlink:href="lcd_8c.html#a250728451a22259562d3f01a12bbd77b" target="_top" xlink:title="lcd_command">
<polygon fill="white" stroke="black" points="558.5,-202.5 558.5,-221.5 635.5,-221.5 635.5,-202.5 558.5,-202.5"/>
<text text-anchor="middle" x="597" y="-209.5" font-family="Helvetica,sans-Serif" font-size="10.00">lcd_command</text>
</a>
</g>
</g>
<!-- Node4&#45;&gt;Node5 -->
<g id="edge4" class="edge"><title>Node4&#45;&gt;Node5</title>
<path fill="none" stroke="midnightblue" d="M519.29,-212C528.611,-212 538.549,-212 548.075,-212"/>
<polygon fill="midnightblue" stroke="midnightblue" points="548.202,-215.5 558.202,-212 548.202,-208.5 548.202,-215.5"/>
</g>
<!-- Node6 -->
<g id="node6" class="node"><title>Node6</title>
<g id="a_node6"><a xlink:href="i2c_8h.html#a6691e5911f539e1e8178c6e983e8079a" target="_top" xlink:title="Transmits I2C commands with a variable length to a I2C slave. ">
<polygon fill="white" stroke="black" points="675,-164.5 675,-183.5 747,-183.5 747,-164.5 675,-164.5"/>
<text text-anchor="middle" x="711" y="-171.5" font-family="Helvetica,sans-Serif" font-size="10.00">i2c_write_var</text>
</a>
</g>
</g>
<!-- Node5&#45;&gt;Node6 -->
<g id="edge5" class="edge"><title>Node5&#45;&gt;Node6</title>
<path fill="none" stroke="midnightblue" d="M626.262,-202.411C640.19,-197.686 657.18,-191.921 672.207,-186.823"/>
<polygon fill="midnightblue" stroke="midnightblue" points="673.401,-190.113 681.747,-183.586 671.152,-183.485 673.401,-190.113"/>
</g>
<!-- Node9 -->
<g id="node9" class="node"><title>Node9</title>
<g id="a_node9"><a xlink:href="timer_8c.html#a276d5cb665b9f8b2c79e53e2f2c5b4f0" target="_top" xlink:title="_delay_ms">
<polygon fill="white" stroke="black" points="786.5,-202.5 786.5,-221.5 850.5,-221.5 850.5,-202.5 786.5,-202.5"/>
<text text-anchor="middle" x="818.5" y="-209.5" font-family="Helvetica,sans-Serif" font-size="10.00">_delay_ms</text>
</a>
</g>
</g>
<!-- Node5&#45;&gt;Node9 -->
<g id="edge8" class="edge"><title>Node5&#45;&gt;Node9</title>
<path fill="none" stroke="midnightblue" d="M635.733,-212C674.861,-212 735.853,-212 776.237,-212"/>
<polygon fill="midnightblue" stroke="midnightblue" points="776.287,-215.5 786.287,-212 776.287,-208.5 776.287,-215.5"/>
</g>
<!-- Node7 -->
<g id="node7" class="node"><title>Node7</title>
<g id="a_node7"><a xlink:href="i2c_8c.html#ae0625b97d3437bcaca4ac4b96dd01978" target="_top" xlink:title="Transmits I2C command array to a I2C slave. ">
<polygon fill="white" stroke="black" points="783,-164.5 783,-183.5 854,-183.5 854,-164.5 783,-164.5"/>
<text text-anchor="middle" x="818.5" y="-171.5" font-family="Helvetica,sans-Serif" font-size="10.00">i2c_write_arr</text>
</a>
</g>
</g>
<!-- Node6&#45;&gt;Node7 -->
<g id="edge6" class="edge"><title>Node6&#45;&gt;Node7</title>
<path fill="none" stroke="midnightblue" d="M747.13,-174C755.312,-174 764.133,-174 772.671,-174"/>
<polygon fill="midnightblue" stroke="midnightblue" points="772.882,-177.5 782.882,-174 772.882,-170.5 772.882,-177.5"/>
</g>
<!-- Node8 -->
<g id="node8" class="node"><title>Node8</title>
<g id="a_node8"><a xlink:href="timer_8c.html#a3c56af3315c2461dec5ced585a5f84db" target="_top" xlink:title="_delay_ten_us">
<polygon fill="white" stroke="black" points="890,-183.5 890,-202.5 970,-202.5 970,-183.5 890,-183.5"/>
<text text-anchor="middle" x="930" y="-190.5" font-family="Helvetica,sans-Serif" font-size="10.00">_delay_ten_us</text>
</a>
</g>
</g>
<!-- Node7&#45;&gt;Node8 -->
<g id="edge7" class="edge"><title>Node7&#45;&gt;Node8</title>
<path fill="none" stroke="midnightblue" d="M854.146,-180.012C862.253,-181.418 871.042,-182.943 879.651,-184.437"/>
<polygon fill="midnightblue" stroke="midnightblue" points="879.172,-187.906 889.623,-186.167 880.368,-181.009 879.172,-187.906"/>
</g>
<!-- Node9&#45;&gt;Node8 -->
<g id="edge9" class="edge"><title>Node9&#45;&gt;Node8</title>
<path fill="none" stroke="midnightblue" d="M850.585,-206.606C859.595,-205.043 869.664,-203.296 879.505,-201.588"/>
<polygon fill="midnightblue" stroke="midnightblue" points="880.368,-204.991 889.623,-199.833 879.172,-198.094 880.368,-204.991"/>
</g>
<!-- Node10&#45;&gt;Node6 -->
<g id="edge11" class="edge"><title>Node10&#45;&gt;Node6</title>
<path fill="none" stroke="midnightblue" d="M639.069,-174C647.413,-174 656.234,-174 664.715,-174"/>
<polygon fill="midnightblue" stroke="midnightblue" points="664.836,-177.5 674.836,-174 664.836,-170.5 664.836,-177.5"/>
</g>
<!-- Node12&#45;&gt;Node3 -->
<g id="edge15" class="edge"><title>Node12&#45;&gt;Node3</title>
<path fill="none" stroke="midnightblue" d="M242.156,-57.6055C248.131,-60.0873 253.977,-63.1743 259,-67 296.927,-95.884 324.037,-146.444 336.79,-173.917"/>
<polygon fill="midnightblue" stroke="midnightblue" points="333.679,-175.533 340.968,-183.223 340.065,-172.667 333.679,-175.533"/>
</g>
<!-- Node13 -->
<g id="node13" class="node"><title>Node13</title>
<g id="a_node13"><a xlink:href="string_8c.html#a82b1b882cf97ff40344f87bd1473e9d0" target="_top" xlink:title="string_int_to_array">
<polygon fill="white" stroke="black" points="297.5,-57.5 297.5,-76.5 394.5,-76.5 394.5,-57.5 297.5,-57.5"/>
<text text-anchor="middle" x="346" y="-64.5" font-family="Helvetica,sans-Serif" font-size="10.00">string_int_to_array</text>
</a>
</g>
</g>
<!-- Node12&#45;&gt;Node13 -->
<g id="edge14" class="edge"><title>Node12&#45;&gt;Node13</title>
<path fill="none" stroke="midnightblue" d="M248.661,-54.064C260.914,-55.7093 274.351,-57.5136 287.198,-59.2386"/>
<polygon fill="midnightblue" stroke="midnightblue" points="286.964,-62.7385 297.341,-60.6006 287.896,-55.8008 286.964,-62.7385"/>
</g>
<!-- Node14&#45;&gt;Node3 -->
<g id="edge18" class="edge"><title>Node14&#45;&gt;Node3</title>
<path fill="none" stroke="midnightblue" d="M227.184,-240.459C250.345,-231.13 285.822,-216.838 311.795,-206.376"/>
<polygon fill="midnightblue" stroke="midnightblue" points="313.271,-209.555 321.239,-202.572 310.655,-203.062 313.271,-209.555"/>
</g>
<!-- Node15 -->
<g id="node15" class="node"><title>Node15</title>
<g id="a_node15"><a xlink:href="string_8c.html#a29d88799b460e9bf31c5b6bcd3cd5ba3" target="_top" xlink:title="string_hex_to_array">
<polygon fill="white" stroke="black" points="295,-240.5 295,-259.5 397,-259.5 397,-240.5 295,-240.5"/>
<text text-anchor="middle" x="346" y="-247.5" font-family="Helvetica,sans-Serif" font-size="10.00">string_hex_to_array</text>
</a>
</g>
</g>
<!-- Node14&#45;&gt;Node15 -->
<g id="edge17" class="edge"><title>Node14&#45;&gt;Node15</title>
<path fill="none" stroke="midnightblue" d="M252.593,-250C262.876,-250 273.835,-250 284.478,-250"/>
<polygon fill="midnightblue" stroke="midnightblue" points="284.554,-253.5 294.553,-250 284.553,-246.5 284.554,-253.5"/>
</g>
<!-- Node17&#45;&gt;Node3 -->
<g id="edge22" class="edge"><title>Node17&#45;&gt;Node3</title>
<path fill="none" stroke="midnightblue" d="M239.567,-95.5959C246.288,-98.1371 253.059,-101.247 259,-105 289.071,-123.994 316.405,-155.506 331.842,-175.218"/>
<polygon fill="midnightblue" stroke="midnightblue" points="329.21,-177.538 338.064,-183.357 334.771,-173.287 329.21,-177.538"/>
</g>
<!-- Node17&#45;&gt;Node13 -->
<g id="edge23" class="edge"><title>Node17&#45;&gt;Node13</title>
<path fill="none" stroke="midnightblue" d="M259.018,-78.5452C268.343,-77.2931 278.039,-75.9912 287.415,-74.7323"/>
<polygon fill="midnightblue" stroke="midnightblue" points="287.985,-78.1872 297.43,-73.3874 287.054,-71.2495 287.985,-78.1872"/>
</g>
<!-- Node18&#45;&gt;Node3 -->
<g id="edge25" class="edge"><title>Node18&#45;&gt;Node3</title>
<path fill="none" stroke="midnightblue" d="M237.034,-178.503C253.867,-180.763 274.631,-183.551 293.438,-186.076"/>
<polygon fill="midnightblue" stroke="midnightblue" points="292.977,-189.546 303.354,-187.408 293.909,-182.608 292.977,-189.546"/>
</g>
</g>
</svg>
        <g id="navigator" transform="translate(0 0)" fill="#404254">
                <rect fill="#f2f5e9" fill-opacity="0.5" stroke="#606060" stroke-width=".5" x="0" y="0" width="60" height="60"/>
                <use id="zoomplus" xlink:href="#zoomPlus" x="17" y="9" onmousedown="handleZoom(evt,'in')"/>
                <use id="zoomminus" xlink:href="#zoomMin" x="42" y="9" onmousedown="handleZoom(evt,'out')"/>
                <use id="reset" xlink:href="#resetDef" x="30" y="36" onmousedown="handleReset()"/>
                <g id="arrowUp" xlink:href="#dirArrow" transform="translate(30 24)" onmousedown="handlePan(0,-1)">
                  <use xlink:href="#rim" fill="#404040">
                        <set attributeName="fill" to="#808080" begin="arrowUp.mouseover" end="arrowUp.mouseout"/>
                  </use>
                  <path fill="none" stroke="white" stroke-width="1.5" d="M0,-3.0v7 M-2.5,-0.5L0,-3.0L2.5,-0.5"/>
                </g>
                <g id="arrowRight" xlink:href="#dirArrow" transform="rotate(90) translate(36 -43)" onmousedown="handlePan(1,0)">
                  <use xlink:href="#rim" fill="#404040">
                        <set attributeName="fill" to="#808080" begin="arrowRight.mouseover" end="arrowRight.mouseout"/>
                  </use>
                  <path fill="none" stroke="white" stroke-width="1.5" d="M0,-3.0v7 M-2.5,-0.5L0,-3.0L2.5,-0.5"/>
                </g>
                <g id="arrowDown" xlink:href="#dirArrow" transform="rotate(180) translate(-30 -48)" onmousedown="handlePan(0,1)">
                  <use xlink:href="#rim" fill="#404040">
                        <set attributeName="fill" to="#808080" begin="arrowDown.mouseover" end="arrowDown.mouseout"/>
                  </use>
                  <path fill="none" stroke="white" stroke-width="1.5" d="M0,-3.0v7 M-2.5,-0.5L0,-3.0L2.5,-0.5"/>
                </g>
                <g id="arrowLeft" xlink:href="#dirArrow" transform="rotate(270) translate(-36 17)" onmousedown="handlePan(-1,0)">
                  <use xlink:href="#rim" fill="#404040">
                        <set attributeName="fill" to="#808080" begin="arrowLeft.mouseover" end="arrowLeft.mouseout"/>
                  </use>
                  <path fill="none" stroke="white" stroke-width="1.5" d="M0,-3.0v7 M-2.5,-0.5L0,-3.0L2.5,-0.5"/>
                </g>
        </g>
        <svg viewBox="0 0 15 15" width="100%" height="30px" preserveAspectRatio="xMaxYMin meet">
         <g id="arrow_out" transform="scale(0.3 0.3)">
          <a xlink:href="radio__display_8h_aa568d26c43f1503a5f31c86aab080591_cgraph_org.svg" target="_base">
           <rect id="button" ry="5" rx="5" y="6" x="6" height="38" width="38"
                fill="#f2f5e9" fill-opacity="0.5" stroke="#606060" stroke-width="1.0"/>
           <path id="arrow"
             d="M 11.500037,31.436501 C 11.940474,20.09759 22.043105,11.32322 32.158766,21.979434 L 37.068811,17.246167 C 37.068811,17.246167 37.088388,32 37.088388,32 L 22.160133,31.978069 C 22.160133,31.978069 26.997745,27.140456 26.997745,27.140456 C 18.528582,18.264221 13.291696,25.230495 11.500037,31.436501 z"
             style="fill:#404040;"/>
          </a>
         </g>
        </svg>
</svg>
