<?xml version="1.0" encoding="UTF-8" standalone="no"?>
<!DOCTYPE svg PUBLIC "-//W3C//DTD SVG 1.1//EN"
 "http://www.w3.org/Graphics/SVG/1.1/DTD/svg11.dtd">
<!-- Generated by graphviz version 2.38.0 (20140413.2041)
 -->
<!-- Title: radio_volume Pages: 1 -->
<svg width="584pt" height="85pt"
 viewBox="0.00 0.00 584.00 85.00" xmlns="http://www.w3.org/2000/svg" xmlns:xlink="http://www.w3.org/1999/xlink">
<g id="graph0" class="graph" transform="scale(1 1) rotate(0) translate(4 81)">
<title>radio_volume</title>
<polygon fill="white" stroke="none" points="-4,4 -4,-81 580,-81 580,4 -4,4"/>
<!-- Node1 -->
<g id="node1" class="node"><title>Node1</title>
<polygon fill="#bfbfbf" stroke="black" points="0,-0.5 0,-19.5 73,-19.5 73,-0.5 0,-0.5"/>
<text text-anchor="middle" x="36.5" y="-7.5" font-family="Helvetica,sans-Serif" font-size="10.00">radio_volume</text>
</g>
<!-- Node2 -->
<g id="node2" class="node"><title>Node2</title>
<g id="a_node2"><a xlink:href="si4735_8h.html#aadc29a91f13cd5ebe239b23c7e5370dc" target="_top" xlink:title="si4735_set_property">
<polygon fill="white" stroke="black" points="109,-19.5 109,-38.5 213,-38.5 213,-19.5 109,-19.5"/>
<text text-anchor="middle" x="161" y="-26.5" font-family="Helvetica,sans-Serif" font-size="10.00">si4735_set_property</text>
</a>
</g>
</g>
<!-- Node1&#45;&gt;Node2 -->
<g id="edge1" class="edge"><title>Node1&#45;&gt;Node2</title>
<path fill="none" stroke="midnightblue" d="M73.2614,-15.5467C81.3684,-16.8041 90.2004,-18.1739 99.0249,-19.5426"/>
<polygon fill="midnightblue" stroke="midnightblue" points="98.5274,-23.0072 108.946,-21.0814 99.6003,-16.09 98.5274,-23.0072"/>
</g>
<!-- Node7 -->
<g id="node7" class="node"><title>Node7</title>
<g id="a_node7"><a xlink:href="timer_8c.html#a276d5cb665b9f8b2c79e53e2f2c5b4f0" target="_top" xlink:title="_delay_ms">
<polygon fill="white" stroke="black" points="392.5,-0.5 392.5,-19.5 456.5,-19.5 456.5,-0.5 392.5,-0.5"/>
<text text-anchor="middle" x="424.5" y="-7.5" font-family="Helvetica,sans-Serif" font-size="10.00">_delay_ms</text>
</a>
</g>
</g>
<!-- Node1&#45;&gt;Node7 -->
<g id="edge6" class="edge"><title>Node1&#45;&gt;Node7</title>
<path fill="none" stroke="midnightblue" d="M73.1221,-10C144.779,-10 305.995,-10 382.156,-10"/>
<polygon fill="midnightblue" stroke="midnightblue" points="382.321,-13.5001 392.32,-10 382.32,-6.5001 382.321,-13.5001"/>
</g>
<!-- Node3 -->
<g id="node3" class="node"><title>Node3</title>
<g id="a_node3"><a xlink:href="i2c_8h.html#a6691e5911f539e1e8178c6e983e8079a" target="_top" xlink:title="Transmits I2C commands with a variable length to a I2C slave. ">
<polygon fill="white" stroke="black" points="265,-57.5 265,-76.5 337,-76.5 337,-57.5 265,-57.5"/>
<text text-anchor="middle" x="301" y="-64.5" font-family="Helvetica,sans-Serif" font-size="10.00">i2c_write_var</text>
</a>
</g>
</g>
<!-- Node2&#45;&gt;Node3 -->
<g id="edge2" class="edge"><title>Node2&#45;&gt;Node3</title>
<path fill="none" stroke="midnightblue" d="M196.823,-38.589C214.638,-43.4944 236.518,-49.5196 255.539,-54.7571"/>
<polygon fill="midnightblue" stroke="midnightblue" points="254.618,-58.1336 265.188,-57.4141 256.476,-51.3848 254.618,-58.1336"/>
</g>
<!-- Node6 -->
<g id="node6" class="node"><title>Node6</title>
<g id="a_node6"><a xlink:href="si4735_8c.html#aad8341b5b19aa8f962a6b9b940d77960" target="_top" xlink:title="si4735_get_interrupt">
<polygon fill="white" stroke="black" points="249,-19.5 249,-38.5 353,-38.5 353,-19.5 249,-19.5"/>
<text text-anchor="middle" x="301" y="-26.5" font-family="Helvetica,sans-Serif" font-size="10.00">si4735_get_interrupt</text>
</a>
</g>
</g>
<!-- Node2&#45;&gt;Node6 -->
<g id="edge5" class="edge"><title>Node2&#45;&gt;Node6</title>
<path fill="none" stroke="midnightblue" d="M213.386,-29C221.558,-29 230.083,-29 238.46,-29"/>
<polygon fill="midnightblue" stroke="midnightblue" points="238.571,-32.5001 248.571,-29 238.571,-25.5001 238.571,-32.5001"/>
</g>
<!-- Node4 -->
<g id="node4" class="node"><title>Node4</title>
<g id="a_node4"><a xlink:href="i2c_8c.html#ae0625b97d3437bcaca4ac4b96dd01978" target="_top" xlink:title="Transmits I2C command array to a I2C slave. ">
<polygon fill="white" stroke="black" points="389,-47.5 389,-66.5 460,-66.5 460,-47.5 389,-47.5"/>
<text text-anchor="middle" x="424.5" y="-54.5" font-family="Helvetica,sans-Serif" font-size="10.00">i2c_write_arr</text>
</a>
</g>
</g>
<!-- Node3&#45;&gt;Node4 -->
<g id="edge3" class="edge"><title>Node3&#45;&gt;Node4</title>
<path fill="none" stroke="midnightblue" d="M337.143,-64.1076C350.1,-63.0412 364.959,-61.8182 378.657,-60.6907"/>
<polygon fill="midnightblue" stroke="midnightblue" points="379.177,-64.1599 388.856,-59.8514 378.602,-57.1835 379.177,-64.1599"/>
</g>
<!-- Node5 -->
<g id="node5" class="node"><title>Node5</title>
<g id="a_node5"><a xlink:href="timer_8c.html#a3c56af3315c2461dec5ced585a5f84db" target="_top" xlink:title="_delay_ten_us">
<polygon fill="white" stroke="black" points="496,-23.5 496,-42.5 576,-42.5 576,-23.5 496,-23.5"/>
<text text-anchor="middle" x="536" y="-30.5" font-family="Helvetica,sans-Serif" font-size="10.00">_delay_ten_us</text>
</a>
</g>
</g>
<!-- Node4&#45;&gt;Node5 -->
<g id="edge4" class="edge"><title>Node4&#45;&gt;Node5</title>
<path fill="none" stroke="midnightblue" d="M460.146,-49.4063C468.253,-47.6296 477.042,-45.7032 485.651,-43.8163"/>
<polygon fill="midnightblue" stroke="midnightblue" points="486.604,-47.1905 495.623,-41.6306 485.105,-40.3528 486.604,-47.1905"/>
</g>
<!-- Node7&#45;&gt;Node5 -->
<g id="edge7" class="edge"><title>Node7&#45;&gt;Node5</title>
<path fill="none" stroke="midnightblue" d="M456.585,-16.5294C465.69,-18.4418 475.876,-20.5813 485.815,-22.669"/>
<polygon fill="midnightblue" stroke="midnightblue" points="485.117,-26.0985 495.623,-24.729 486.556,-19.248 485.117,-26.0985"/>
</g>
</g>
</svg>
