<?xml version="1.0" encoding="UTF-8" standalone="no"?>
<!DOCTYPE svg PUBLIC "-//W3C//DTD SVG 1.1//EN"
 "http://www.w3.org/Graphics/SVG/1.1/DTD/svg11.dtd">
<!-- Generated by graphviz version 2.38.0 (20140413.2041)
 -->
<!-- Title: radio_set_volume Pages: 1 -->
<!--zoomable 127 -->
<svg id="main" version="1.1" xmlns="http://www.w3.org/2000/svg" xmlns:xlink="http://www.w3.org/1999/xlink" xml:space="preserve" onload="init(evt)">
<style type="text/css"><![CDATA[
.edge:hover path { stroke: red; }
.edge:hover polygon { stroke: red; fill: red; }
]]></style>
<script type="text/javascript"><![CDATA[
var edges = document.getElementsByTagName('g');
if (edges && edges.length) {
  for (var i=0;i<edges.length;i++) {
    if (edges[i].id.substr(0,4)=='edge') {
      edges[i].setAttribute('class','edge');
    }
  }
}
]]></script>
        <defs>
                <circle id="rim" cx="0" cy="0" r="7"/>
                <circle id="rim2" cx="0" cy="0" r="3.5"/>
                <g id="zoomPlus">
                        <use xlink:href="#rim" fill="#404040">
                                <set attributeName="fill" to="#808080" begin="zoomplus.mouseover" end="zoomplus.mouseout"/>
                        </use>
                        <path d="M-4,0h8M0,-4v8" fill="none" stroke="white" stroke-width="1.5" pointer-events="none"/>
                </g>
                <g id="zoomMin">
                        <use xlink:href="#rim" fill="#404040">
                                <set attributeName="fill" to="#808080" begin="zoomminus.mouseover" end="zoomminus.mouseout"/>
                        </use>
                        <path d="M-4,0h8" fill="none" stroke="white" stroke-width="1.5" pointer-events="none"/>
                </g>
                <g id="dirArrow">
                        <path fill="none" stroke="white" stroke-width="1.5" d="M0,-3.0v7 M-2.5,-0.5L0,-3.0L2.5,-0.5"/>
                </g>
               <g id="resetDef">
                       <use xlink:href="#rim2" fill="#404040">
                               <set attributeName="fill" to="#808080" begin="reset.mouseover" end="reset.mouseout"/>
                       </use>
               </g>
        </defs>

<script type="text/javascript">
var viewWidth = 606;
var viewHeight = 127;
var sectionId = 'dynsection-15';
</script>
<script xlink:href="svgpan.js"/>
<svg id="graph" class="graph">
<g id="viewport">
<title>radio_set_volume</title>
<polygon fill="white" stroke="none" points="-4,4 -4,-122.815 602,-122.815 602,4 -4,4"/>
<!-- Node1 -->
<g id="node1" class="node"><title>Node1</title>
<polygon fill="#bfbfbf" stroke="black" points="0,-42.3146 0,-61.3146 92,-61.3146 92,-42.3146 0,-42.3146"/>
<text text-anchor="middle" x="46" y="-49.3146" font-family="Helvetica,sans-Serif" font-size="10.00">radio_set_volume</text>
</g>
<!-- Node2 -->
<g id="node2" class="node"><title>Node2</title>
<g id="a_node2"><a xlink:href="external__interrupthandler_8h.html#a345dfb9a7e177c5da6eb9dc5b3c82bc9" target="_top" xlink:title="ext_interrupt_enable">
<polygon fill="white" stroke="black" points="129.5,-99.3146 129.5,-118.315 233.5,-118.315 233.5,-99.3146 129.5,-99.3146"/>
<text text-anchor="middle" x="181.5" y="-106.315" font-family="Helvetica,sans-Serif" font-size="10.00">ext_interrupt_enable</text>
</a>
</g>
</g>
<!-- Node1&#45;&gt;Node2 -->
<g id="edge1" class="edge"><title>Node1&#45;&gt;Node2</title>
<path fill="none" stroke="midnightblue" d="M66.0908,-61.3756C82.3664,-69.3801 106.476,-80.8929 128,-89.8146 132.802,-91.805 137.895,-93.7952 142.948,-95.6979"/>
<polygon fill="midnightblue" stroke="midnightblue" points="141.933,-99.0539 152.527,-99.2264 144.353,-92.4854 141.933,-99.0539"/>
</g>
<!-- Node3 -->
<g id="node3" class="node"><title>Node3</title>
<g id="a_node3"><a xlink:href="si4735_8h.html#aadc29a91f13cd5ebe239b23c7e5370dc" target="_top" xlink:title="si4735_set_property">
<polygon fill="white" stroke="black" points="129.5,-61.3146 129.5,-80.3146 233.5,-80.3146 233.5,-61.3146 129.5,-61.3146"/>
<text text-anchor="middle" x="181.5" y="-68.3146" font-family="Helvetica,sans-Serif" font-size="10.00">si4735_set_property</text>
</a>
</g>
</g>
<!-- Node1&#45;&gt;Node3 -->
<g id="edge2" class="edge"><title>Node1&#45;&gt;Node3</title>
<path fill="none" stroke="midnightblue" d="M92.197,-58.2472C100.881,-59.483 110.109,-60.7965 119.202,-62.0906"/>
<polygon fill="midnightblue" stroke="midnightblue" points="118.981,-65.5943 129.375,-63.5383 119.967,-58.6641 118.981,-65.5943"/>
</g>
<!-- Node8 -->
<g id="node8" class="node"><title>Node8</title>
<g id="a_node8"><a xlink:href="external__interrupthandler_8h.html#a67fb5781413cf5c193be332cc6e52209" target="_top" xlink:title="ext_interrupt_disable">
<polygon fill="white" stroke="black" points="128,-23.3146 128,-42.3146 235,-42.3146 235,-23.3146 128,-23.3146"/>
<text text-anchor="middle" x="181.5" y="-30.3146" font-family="Helvetica,sans-Serif" font-size="10.00">ext_interrupt_disable</text>
</a>
</g>
</g>
<!-- Node1&#45;&gt;Node8 -->
<g id="edge7" class="edge"><title>Node1&#45;&gt;Node8</title>
<path fill="none" stroke="midnightblue" d="M92.197,-45.3821C100.461,-44.2059 109.219,-42.9595 117.883,-41.7263"/>
<polygon fill="midnightblue" stroke="midnightblue" points="118.57,-45.164 127.977,-40.2898 117.583,-38.2339 118.57,-45.164"/>
</g>
<!-- Node9 -->
<g id="node9" class="node"><title>Node9</title>
<g id="a_node9"><a xlink:href="timer_8c.html#a276d5cb665b9f8b2c79e53e2f2c5b4f0" target="_top" xlink:title="_delay_ms">
<polygon fill="white" stroke="black" points="414.5,-4.31462 414.5,-23.3146 478.5,-23.3146 478.5,-4.31462 414.5,-4.31462"/>
<text text-anchor="middle" x="446.5" y="-11.3146" font-family="Helvetica,sans-Serif" font-size="10.00">_delay_ms</text>
</a>
</g>
</g>
<!-- Node1&#45;&gt;Node9 -->
<g id="edge8" class="edge"><title>Node1&#45;&gt;Node9</title>
<path fill="none" stroke="midnightblue" d="M62.1007,-42.2474C77.8464,-32.8828 103.591,-19.2557 128,-13.8146 225.14,7.83915 343.192,-1.05153 404.337,-8.17254"/>
<polygon fill="midnightblue" stroke="midnightblue" points="404.015,-11.659 414.362,-9.38439 404.855,-4.70956 404.015,-11.659"/>
</g>
<!-- Node4 -->
<g id="node4" class="node"><title>Node4</title>
<g id="a_node4"><a xlink:href="i2c_8h.html#a6691e5911f539e1e8178c6e983e8079a" target="_top" xlink:title="Transmits I2C commands with a variable length to a I2C slave. ">
<polygon fill="white" stroke="black" points="287,-61.3146 287,-80.3146 359,-80.3146 359,-61.3146 287,-61.3146"/>
<text text-anchor="middle" x="323" y="-68.3146" font-family="Helvetica,sans-Serif" font-size="10.00">i2c_write_var</text>
</a>
</g>
</g>
<!-- Node3&#45;&gt;Node4 -->
<g id="edge3" class="edge"><title>Node3&#45;&gt;Node4</title>
<path fill="none" stroke="midnightblue" d="M233.653,-70.8146C247.781,-70.8146 263.007,-70.8146 276.773,-70.8146"/>
<polygon fill="midnightblue" stroke="midnightblue" points="276.973,-74.3147 286.973,-70.8146 276.973,-67.3147 276.973,-74.3147"/>
</g>
<!-- Node7 -->
<g id="node7" class="node"><title>Node7</title>
<g id="a_node7"><a xlink:href="si4735_8c.html#aad8341b5b19aa8f962a6b9b940d77960" target="_top" xlink:title="si4735_get_interrupt">
<polygon fill="white" stroke="black" points="271,-23.3146 271,-42.3146 375,-42.3146 375,-23.3146 271,-23.3146"/>
<text text-anchor="middle" x="323" y="-30.3146" font-family="Helvetica,sans-Serif" font-size="10.00">si4735_get_interrupt</text>
</a>
</g>
</g>
<!-- Node3&#45;&gt;Node7 -->
<g id="edge6" class="edge"><title>Node3&#45;&gt;Node7</title>
<path fill="none" stroke="midnightblue" d="M217.702,-61.2256C235.71,-56.3202 257.828,-50.295 277.056,-45.0575"/>
<polygon fill="midnightblue" stroke="midnightblue" points="278.081,-48.4058 286.81,-42.4006 276.241,-41.6519 278.081,-48.4058"/>
</g>
<!-- Node5 -->
<g id="node5" class="node"><title>Node5</title>
<g id="a_node5"><a xlink:href="i2c_8c.html#ae0625b97d3437bcaca4ac4b96dd01978" target="_top" xlink:title="Transmits I2C command array to a I2C slave. ">
<polygon fill="white" stroke="black" points="411,-51.3146 411,-70.3146 482,-70.3146 482,-51.3146 411,-51.3146"/>
<text text-anchor="middle" x="446.5" y="-58.3146" font-family="Helvetica,sans-Serif" font-size="10.00">i2c_write_arr</text>
</a>
</g>
</g>
<!-- Node4&#45;&gt;Node5 -->
<g id="edge4" class="edge"><title>Node4&#45;&gt;Node5</title>
<path fill="none" stroke="midnightblue" d="M359.143,-67.9222C372.1,-66.8558 386.959,-65.6328 400.657,-64.5054"/>
<polygon fill="midnightblue" stroke="midnightblue" points="401.177,-67.9746 410.856,-63.666 400.602,-60.9982 401.177,-67.9746"/>
</g>
<!-- Node6 -->
<g id="node6" class="node"><title>Node6</title>
<g id="a_node6"><a xlink:href="timer_8c.html#a3c56af3315c2461dec5ced585a5f84db" target="_top" xlink:title="_delay_ten_us">
<polygon fill="white" stroke="black" points="518,-27.3146 518,-46.3146 598,-46.3146 598,-27.3146 518,-27.3146"/>
<text text-anchor="middle" x="558" y="-34.3146" font-family="Helvetica,sans-Serif" font-size="10.00">_delay_ten_us</text>
</a>
</g>
</g>
<!-- Node5&#45;&gt;Node6 -->
<g id="edge5" class="edge"><title>Node5&#45;&gt;Node6</title>
<path fill="none" stroke="midnightblue" d="M482.146,-53.2209C490.253,-51.4442 499.042,-49.5178 507.651,-47.6309"/>
<polygon fill="midnightblue" stroke="midnightblue" points="508.604,-51.0051 517.623,-45.4453 507.105,-44.1675 508.604,-51.0051"/>
</g>
<!-- Node9&#45;&gt;Node6 -->
<g id="edge9" class="edge"><title>Node9&#45;&gt;Node6</title>
<path fill="none" stroke="midnightblue" d="M478.585,-20.344C487.69,-22.2564 497.876,-24.396 507.815,-26.4836"/>
<polygon fill="midnightblue" stroke="midnightblue" points="507.117,-29.9132 517.623,-28.5436 508.556,-23.0626 507.117,-29.9132"/>
</g>
</g>
</svg>
        <g id="navigator" transform="translate(0 0)" fill="#404254">
                <rect fill="#f2f5e9" fill-opacity="0.5" stroke="#606060" stroke-width=".5" x="0" y="0" width="60" height="60"/>
                <use id="zoomplus" xlink:href="#zoomPlus" x="17" y="9" onmousedown="handleZoom(evt,'in')"/>
                <use id="zoomminus" xlink:href="#zoomMin" x="42" y="9" onmousedown="handleZoom(evt,'out')"/>
                <use id="reset" xlink:href="#resetDef" x="30" y="36" onmousedown="handleReset()"/>
                <g id="arrowUp" xlink:href="#dirArrow" transform="translate(30 24)" onmousedown="handlePan(0,-1)">
                  <use xlink:href="#rim" fill="#404040">
                        <set attributeName="fill" to="#808080" begin="arrowUp.mouseover" end="arrowUp.mouseout"/>
                  </use>
                  <path fill="none" stroke="white" stroke-width="1.5" d="M0,-3.0v7 M-2.5,-0.5L0,-3.0L2.5,-0.5"/>
                </g>
                <g id="arrowRight" xlink:href="#dirArrow" transform="rotate(90) translate(36 -43)" onmousedown="handlePan(1,0)">
                  <use xlink:href="#rim" fill="#404040">
                        <set attributeName="fill" to="#808080" begin="arrowRight.mouseover" end="arrowRight.mouseout"/>
                  </use>
                  <path fill="none" stroke="white" stroke-width="1.5" d="M0,-3.0v7 M-2.5,-0.5L0,-3.0L2.5,-0.5"/>
                </g>
                <g id="arrowDown" xlink:href="#dirArrow" transform="rotate(180) translate(-30 -48)" onmousedown="handlePan(0,1)">
                  <use xlink:href="#rim" fill="#404040">
                        <set attributeName="fill" to="#808080" begin="arrowDown.mouseover" end="arrowDown.mouseout"/>
                  </use>
                  <path fill="none" stroke="white" stroke-width="1.5" d="M0,-3.0v7 M-2.5,-0.5L0,-3.0L2.5,-0.5"/>
                </g>
                <g id="arrowLeft" xlink:href="#dirArrow" transform="rotate(270) translate(-36 17)" onmousedown="handlePan(-1,0)">
                  <use xlink:href="#rim" fill="#404040">
                        <set attributeName="fill" to="#808080" begin="arrowLeft.mouseover" end="arrowLeft.mouseout"/>
                  </use>
                  <path fill="none" stroke="white" stroke-width="1.5" d="M0,-3.0v7 M-2.5,-0.5L0,-3.0L2.5,-0.5"/>
                </g>
        </g>
        <svg viewBox="0 0 15 15" width="100%" height="30px" preserveAspectRatio="xMaxYMin meet">
         <g id="arrow_out" transform="scale(0.3 0.3)">
          <a xlink:href="radio_8h_a9e674807004c71581139b5568db18270_cgraph_org.svg" target="_base">
           <rect id="button" ry="5" rx="5" y="6" x="6" height="38" width="38"
                fill="#f2f5e9" fill-opacity="0.5" stroke="#606060" stroke-width="1.0"/>
           <path id="arrow"
             d="M 11.500037,31.436501 C 11.940474,20.09759 22.043105,11.32322 32.158766,21.979434 L 37.068811,17.246167 C 37.068811,17.246167 37.088388,32 37.088388,32 L 22.160133,31.978069 C 22.160133,31.978069 26.997745,27.140456 26.997745,27.140456 C 18.528582,18.264221 13.291696,25.230495 11.500037,31.436501 z"
             style="fill:#404040;"/>
          </a>
         </g>
        </svg>
</svg>
