<?xml version="1.0" encoding="UTF-8" standalone="no"?>
<!DOCTYPE svg PUBLIC "-//W3C//DTD SVG 1.1//EN"
 "http://www.w3.org/Graphics/SVG/1.1/DTD/svg11.dtd">
<!-- Generated by graphviz version 2.38.0 (20140413.2041)
 -->
<!-- Title: radio_seeking Pages: 1 -->
<svg width="601pt" height="142pt"
 viewBox="0.00 0.00 601.00 142.00" xmlns="http://www.w3.org/2000/svg" xmlns:xlink="http://www.w3.org/1999/xlink">
<g id="graph0" class="graph" transform="scale(1 1) rotate(0) translate(4 138)">
<title>radio_seeking</title>
<polygon fill="white" stroke="none" points="-4,4 -4,-138 597,-138 597,4 -4,4"/>
<!-- Node1 -->
<g id="node1" class="node"><title>Node1</title>
<polygon fill="#bfbfbf" stroke="black" points="0,-57.5 0,-76.5 77,-76.5 77,-57.5 0,-57.5"/>
<text text-anchor="middle" x="38.5" y="-64.5" font-family="Helvetica,sans-Serif" font-size="10.00">radio_seeking</text>
</g>
<!-- Node2 -->
<g id="node2" class="node"><title>Node2</title>
<g id="a_node2"><a xlink:href="external__interrupthandler_8h.html#a345dfb9a7e177c5da6eb9dc5b3c82bc9" target="_top" xlink:title="ext_interrupt_enable">
<polygon fill="white" stroke="black" points="119.5,-114.5 119.5,-133.5 223.5,-133.5 223.5,-114.5 119.5,-114.5"/>
<text text-anchor="middle" x="171.5" y="-121.5" font-family="Helvetica,sans-Serif" font-size="10.00">ext_interrupt_enable</text>
</a>
</g>
</g>
<!-- Node1&#45;&gt;Node2 -->
<g id="edge1" class="edge"><title>Node1&#45;&gt;Node2</title>
<path fill="none" stroke="midnightblue" d="M56.0701,-76.5274C70.7354,-84.7252 92.8732,-96.5344 113,-105 118.088,-107.14 123.507,-109.201 128.908,-111.126"/>
<polygon fill="midnightblue" stroke="midnightblue" points="127.939,-114.494 138.534,-114.431 130.213,-107.874 127.939,-114.494"/>
</g>
<!-- Node3 -->
<g id="node3" class="node"><title>Node3</title>
<g id="a_node3"><a xlink:href="si4735_8h.html#a339846da787fb5a496df9252ca7dc9a5" target="_top" xlink:title="si4735_fm_seek_start">
<polygon fill="white" stroke="black" points="115.5,-38.5 115.5,-57.5 227.5,-57.5 227.5,-38.5 115.5,-38.5"/>
<text text-anchor="middle" x="171.5" y="-45.5" font-family="Helvetica,sans-Serif" font-size="10.00">si4735_fm_seek_start</text>
</a>
</g>
</g>
<!-- Node1&#45;&gt;Node3 -->
<g id="edge2" class="edge"><title>Node1&#45;&gt;Node3</title>
<path fill="none" stroke="midnightblue" d="M77.0393,-61.5554C85.9053,-60.2695 95.6127,-58.8615 105.311,-57.4549"/>
<polygon fill="midnightblue" stroke="midnightblue" points="105.985,-60.8939 115.379,-55.9947 104.98,-53.9664 105.985,-60.8939"/>
</g>
<!-- Node9 -->
<g id="node9" class="node"><title>Node9</title>
<g id="a_node9"><a xlink:href="external__interrupthandler_8h.html#a67fb5781413cf5c193be332cc6e52209" target="_top" xlink:title="ext_interrupt_disable">
<polygon fill="white" stroke="black" points="118,-0.5 118,-19.5 225,-19.5 225,-0.5 118,-0.5"/>
<text text-anchor="middle" x="171.5" y="-7.5" font-family="Helvetica,sans-Serif" font-size="10.00">ext_interrupt_disable</text>
</a>
</g>
</g>
<!-- Node1&#45;&gt;Node9 -->
<g id="edge8" class="edge"><title>Node1&#45;&gt;Node9</title>
<path fill="none" stroke="midnightblue" d="M56.0701,-57.4726C70.7354,-49.2748 92.8732,-37.4656 113,-29 118.088,-26.86 123.507,-24.7986 128.908,-22.8737"/>
<polygon fill="midnightblue" stroke="midnightblue" points="130.213,-26.1263 138.534,-19.5685 127.939,-19.5057 130.213,-26.1263"/>
</g>
<!-- Node10 -->
<g id="node10" class="node"><title>Node10</title>
<g id="a_node10"><a xlink:href="si4735_8h.html#ad8b515f4991303f8cac978410d736a03" target="_top" xlink:title="si4735_fm_tune_status">
<polygon fill="white" stroke="black" points="113,-76.5 113,-95.5 230,-95.5 230,-76.5 113,-76.5"/>
<text text-anchor="middle" x="171.5" y="-83.5" font-family="Helvetica,sans-Serif" font-size="10.00">si4735_fm_tune_status</text>
</a>
</g>
</g>
<!-- Node1&#45;&gt;Node10 -->
<g id="edge9" class="edge"><title>Node1&#45;&gt;Node10</title>
<path fill="none" stroke="midnightblue" d="M77.0393,-72.4446C85.1693,-73.6238 94.0069,-74.9056 102.896,-76.1949"/>
<polygon fill="midnightblue" stroke="midnightblue" points="102.521,-79.6769 112.919,-77.6486 103.525,-72.7494 102.521,-79.6769"/>
</g>
<!-- Node4 -->
<g id="node4" class="node"><title>Node4</title>
<g id="a_node4"><a xlink:href="i2c_8h.html#a6691e5911f539e1e8178c6e983e8079a" target="_top" xlink:title="Transmits I2C commands with a variable length to a I2C slave. ">
<polygon fill="white" stroke="black" points="282,-38.5 282,-57.5 354,-57.5 354,-38.5 282,-38.5"/>
<text text-anchor="middle" x="318" y="-45.5" font-family="Helvetica,sans-Serif" font-size="10.00">i2c_write_var</text>
</a>
</g>
</g>
<!-- Node3&#45;&gt;Node4 -->
<g id="edge3" class="edge"><title>Node3&#45;&gt;Node4</title>
<path fill="none" stroke="midnightblue" d="M227.541,-48C242.032,-48 257.504,-48 271.435,-48"/>
<polygon fill="midnightblue" stroke="midnightblue" points="271.747,-51.5001 281.747,-48 271.747,-44.5001 271.747,-51.5001"/>
</g>
<!-- Node7 -->
<g id="node7" class="node"><title>Node7</title>
<g id="a_node7"><a xlink:href="si4735_8c.html#aad8341b5b19aa8f962a6b9b940d77960" target="_top" xlink:title="si4735_get_interrupt">
<polygon fill="white" stroke="black" points="266,-0.5 266,-19.5 370,-19.5 370,-0.5 266,-0.5"/>
<text text-anchor="middle" x="318" y="-7.5" font-family="Helvetica,sans-Serif" font-size="10.00">si4735_get_interrupt</text>
</a>
</g>
</g>
<!-- Node3&#45;&gt;Node7 -->
<g id="edge6" class="edge"><title>Node3&#45;&gt;Node7</title>
<path fill="none" stroke="midnightblue" d="M208.963,-38.411C227.774,-33.4642 250.915,-27.3789 270.947,-22.1108"/>
<polygon fill="midnightblue" stroke="midnightblue" points="272.018,-25.4483 280.799,-19.5201 270.237,-18.6785 272.018,-25.4483"/>
</g>
<!-- Node8 -->
<g id="node8" class="node"><title>Node8</title>
<g id="a_node8"><a xlink:href="i2c_8h.html#a6dd896b0c82d1aa91a1a8155b41c4566" target="_top" xlink:title="Receives I2C commands until a NACK is received or received RxBytes. ">
<polygon fill="white" stroke="black" points="291.5,-76.5 291.5,-95.5 344.5,-95.5 344.5,-76.5 291.5,-76.5"/>
<text text-anchor="middle" x="318" y="-83.5" font-family="Helvetica,sans-Serif" font-size="10.00">i2c_read</text>
</a>
</g>
</g>
<!-- Node3&#45;&gt;Node8 -->
<g id="edge7" class="edge"><title>Node3&#45;&gt;Node8</title>
<path fill="none" stroke="midnightblue" d="M208.963,-57.589C231.194,-63.4351 259.471,-70.8714 281.52,-76.6696"/>
<polygon fill="midnightblue" stroke="midnightblue" points="280.917,-80.1299 291.478,-79.2884 282.697,-73.3601 280.917,-80.1299"/>
</g>
<!-- Node5 -->
<g id="node5" class="node"><title>Node5</title>
<g id="a_node5"><a xlink:href="i2c_8c.html#ae0625b97d3437bcaca4ac4b96dd01978" target="_top" xlink:title="Transmits I2C command array to a I2C slave. ">
<polygon fill="white" stroke="black" points="406,-57.5 406,-76.5 477,-76.5 477,-57.5 406,-57.5"/>
<text text-anchor="middle" x="441.5" y="-64.5" font-family="Helvetica,sans-Serif" font-size="10.00">i2c_write_arr</text>
</a>
</g>
</g>
<!-- Node4&#45;&gt;Node5 -->
<g id="edge4" class="edge"><title>Node4&#45;&gt;Node5</title>
<path fill="none" stroke="midnightblue" d="M354.143,-53.4956C367.1,-55.5218 381.959,-57.8455 395.657,-59.9876"/>
<polygon fill="midnightblue" stroke="midnightblue" points="395.435,-63.4953 405.856,-61.5824 396.517,-56.5793 395.435,-63.4953"/>
</g>
<!-- Node6 -->
<g id="node6" class="node"><title>Node6</title>
<g id="a_node6"><a xlink:href="timer_8c.html#a3c56af3315c2461dec5ced585a5f84db" target="_top" xlink:title="_delay_ten_us">
<polygon fill="white" stroke="black" points="513,-80.5 513,-99.5 593,-99.5 593,-80.5 513,-80.5"/>
<text text-anchor="middle" x="553" y="-87.5" font-family="Helvetica,sans-Serif" font-size="10.00">_delay_ten_us</text>
</a>
</g>
</g>
<!-- Node5&#45;&gt;Node6 -->
<g id="edge5" class="edge"><title>Node5&#45;&gt;Node6</title>
<path fill="none" stroke="midnightblue" d="M477.146,-74.2773C485.253,-75.98 494.042,-77.8261 502.651,-79.6344"/>
<polygon fill="midnightblue" stroke="midnightblue" points="502.117,-83.0985 512.623,-81.729 503.556,-76.248 502.117,-83.0985"/>
</g>
<!-- Node10&#45;&gt;Node4 -->
<g id="edge10" class="edge"><title>Node10&#45;&gt;Node4</title>
<path fill="none" stroke="midnightblue" d="M208.963,-76.411C227.989,-71.4078 251.443,-65.2399 271.632,-59.9308"/>
<polygon fill="midnightblue" stroke="midnightblue" points="272.766,-63.2515 281.547,-57.3232 270.986,-56.4817 272.766,-63.2515"/>
</g>
<!-- Node10&#45;&gt;Node8 -->
<g id="edge13" class="edge"><title>Node10&#45;&gt;Node8</title>
<path fill="none" stroke="midnightblue" d="M230.025,-86C247.291,-86 265.728,-86 281.164,-86"/>
<polygon fill="midnightblue" stroke="midnightblue" points="281.319,-89.5001 291.319,-86 281.318,-82.5001 281.319,-89.5001"/>
</g>
<!-- Node11 -->
<g id="node11" class="node"><title>Node11</title>
<g id="a_node11"><a xlink:href="timer_8c.html#a276d5cb665b9f8b2c79e53e2f2c5b4f0" target="_top" xlink:title="_delay_ms">
<polygon fill="white" stroke="black" points="409.5,-104.5 409.5,-123.5 473.5,-123.5 473.5,-104.5 409.5,-104.5"/>
<text text-anchor="middle" x="441.5" y="-111.5" font-family="Helvetica,sans-Serif" font-size="10.00">_delay_ms</text>
</a>
</g>
</g>
<!-- Node10&#45;&gt;Node11 -->
<g id="edge11" class="edge"><title>Node10&#45;&gt;Node11</title>
<path fill="none" stroke="midnightblue" d="M212.782,-95.5533C229.198,-99.0879 248.417,-102.773 266,-105 311.274,-110.735 363.598,-112.838 399.051,-113.597"/>
<polygon fill="midnightblue" stroke="midnightblue" points="399.422,-117.104 409.486,-113.792 399.553,-110.105 399.422,-117.104"/>
</g>
<!-- Node11&#45;&gt;Node6 -->
<g id="edge12" class="edge"><title>Node11&#45;&gt;Node6</title>
<path fill="none" stroke="midnightblue" d="M473.585,-107.187C482.69,-105.191 492.876,-102.959 502.815,-100.78"/>
<polygon fill="midnightblue" stroke="midnightblue" points="503.604,-104.191 512.623,-98.6306 502.105,-97.3528 503.604,-104.191"/>
</g>
</g>
</svg>
