<?xml version="1.0" encoding="UTF-8" standalone="no"?>
<!DOCTYPE svg PUBLIC "-//W3C//DTD SVG 1.1//EN"
 "http://www.w3.org/Graphics/SVG/1.1/DTD/svg11.dtd">
<!-- Generated by graphviz version 2.38.0 (20140413.2041)
 -->
<!-- Title: rds_group_4A Pages: 1 -->
<svg width="734pt" height="56pt"
 viewBox="0.00 0.00 734.00 56.00" xmlns="http://www.w3.org/2000/svg" xmlns:xlink="http://www.w3.org/1999/xlink">
<g id="graph0" class="graph" transform="scale(1 1) rotate(0) translate(4 52)">
<title>rds_group_4A</title>
<polygon fill="white" stroke="none" points="-4,4 -4,-52 730,-52 730,4 -4,4"/>
<!-- Node1 -->
<g id="node1" class="node"><title>Node1</title>
<polygon fill="#bfbfbf" stroke="black" points="0,-19.5 0,-38.5 77,-38.5 77,-19.5 0,-19.5"/>
<text text-anchor="middle" x="38.5" y="-26.5" font-family="Helvetica,sans-Serif" font-size="10.00">rds_group_4A</text>
</g>
<!-- Node2 -->
<g id="node2" class="node"><title>Node2</title>
<g id="a_node2"><a xlink:href="rds_8c.html#a1c031719ba892045c773dc035058870f" target="_top" xlink:title="rds_update">
<polygon fill="white" stroke="black" points="113,-19.5 113,-38.5 178,-38.5 178,-19.5 113,-19.5"/>
<text text-anchor="middle" x="145.5" y="-26.5" font-family="Helvetica,sans-Serif" font-size="10.00">rds_update</text>
</a>
</g>
</g>
<!-- Node1&#45;&gt;Node2 -->
<g id="edge1" class="edge"><title>Node1&#45;&gt;Node2</title>
<path fill="none" stroke="midnightblue" d="M87.1376,-29C95.7972,-29 104.635,-29 112.697,-29"/>
<polygon fill="midnightblue" stroke="midnightblue" points="87.1109,-25.5001 77.1108,-29 87.1108,-32.5001 87.1109,-25.5001"/>
</g>
<!-- Node3 -->
<g id="node3" class="node"><title>Node3</title>
<g id="a_node3"><a xlink:href="main_8c.html#a840291bc02cba5474a4cb46a9b9566fe" target="_top" xlink:title="main">
<polygon fill="white" stroke="black" points="688,-19.5 688,-38.5 726,-38.5 726,-19.5 688,-19.5"/>
<text text-anchor="middle" x="707" y="-26.5" font-family="Helvetica,sans-Serif" font-size="10.00">main</text>
</a>
</g>
</g>
<!-- Node2&#45;&gt;Node3 -->
<g id="edge2" class="edge"><title>Node2&#45;&gt;Node3</title>
<path fill="none" stroke="midnightblue" d="M188.417,-34.399C235.718,-40.0159 315,-48 383.5,-48 383.5,-48 383.5,-48 500,-48 569.676,-48 652.051,-37.0887 687.865,-31.8035"/>
<polygon fill="midnightblue" stroke="midnightblue" points="188.6,-30.8957 178.252,-33.1696 187.76,-37.8451 188.6,-30.8957"/>
</g>
<!-- Node4 -->
<g id="node4" class="node"><title>Node4</title>
<g id="a_node4"><a xlink:href="radio_8c.html#ac96da2886aec92b299b27b500761564c" target="_top" xlink:title="radio_auto_search">
<polygon fill="white" stroke="black" points="214,-0.5 214,-19.5 310,-19.5 310,-0.5 214,-0.5"/>
<text text-anchor="middle" x="262" y="-7.5" font-family="Helvetica,sans-Serif" font-size="10.00">radio_auto_search</text>
</a>
</g>
</g>
<!-- Node2&#45;&gt;Node4 -->
<g id="edge3" class="edge"><title>Node2&#45;&gt;Node4</title>
<path fill="none" stroke="midnightblue" d="M187.965,-22.1193C196.301,-20.7361 205.121,-19.2725 213.639,-17.859"/>
<polygon fill="midnightblue" stroke="midnightblue" points="187.383,-18.668 178.091,-23.7579 188.529,-25.5736 187.383,-18.668"/>
</g>
<!-- Node5 -->
<g id="node5" class="node"><title>Node5</title>
<g id="a_node5"><a xlink:href="radio_8c.html#a832a684fc60104296fc975a7608f92b4" target="_top" xlink:title="radio_settings">
<polygon fill="white" stroke="black" points="346,-0.5 346,-19.5 423,-19.5 423,-0.5 346,-0.5"/>
<text text-anchor="middle" x="384.5" y="-7.5" font-family="Helvetica,sans-Serif" font-size="10.00">radio_settings</text>
</a>
</g>
</g>
<!-- Node4&#45;&gt;Node5 -->
<g id="edge4" class="edge"><title>Node4&#45;&gt;Node5</title>
<path fill="none" stroke="midnightblue" d="M320.303,-10C328.909,-10 337.596,-10 345.659,-10"/>
<polygon fill="midnightblue" stroke="midnightblue" points="320.279,-6.5001 310.279,-10 320.279,-13.5001 320.279,-6.5001"/>
</g>
<!-- Node6 -->
<g id="node6" class="node"><title>Node6</title>
<g id="a_node6"><a xlink:href="menu_8c.html#a5d9c190838195d7872fc7067269e20fa" target="_top" xlink:title="menu_function">
<polygon fill="white" stroke="black" points="459,-0.5 459,-19.5 539,-19.5 539,-0.5 459,-0.5"/>
<text text-anchor="middle" x="499" y="-7.5" font-family="Helvetica,sans-Serif" font-size="10.00">menu_function</text>
</a>
</g>
</g>
<!-- Node5&#45;&gt;Node6 -->
<g id="edge5" class="edge"><title>Node5&#45;&gt;Node6</title>
<path fill="none" stroke="midnightblue" d="M433.474,-10C441.985,-10 450.755,-10 458.981,-10"/>
<polygon fill="midnightblue" stroke="midnightblue" points="433.274,-6.5001 423.274,-10 433.274,-13.5001 433.274,-6.5001"/>
</g>
<!-- Node7 -->
<g id="node7" class="node"><title>Node7</title>
<g id="a_node7"><a xlink:href="menu_8c.html#aaf2a075d3159f7eeab42012941a3437f" target="_top" xlink:title="menu_handler">
<polygon fill="white" stroke="black" points="575,-0.5 575,-19.5 652,-19.5 652,-0.5 575,-0.5"/>
<text text-anchor="middle" x="613.5" y="-7.5" font-family="Helvetica,sans-Serif" font-size="10.00">menu_handler</text>
</a>
</g>
</g>
<!-- Node6&#45;&gt;Node7 -->
<g id="edge6" class="edge"><title>Node6&#45;&gt;Node7</title>
<path fill="none" stroke="midnightblue" d="M549.262,-10C557.783,-10 566.52,-10 574.676,-10"/>
<polygon fill="midnightblue" stroke="midnightblue" points="549.031,-6.5001 539.031,-10 549.031,-13.5001 549.031,-6.5001"/>
</g>
<!-- Node7&#45;&gt;Node3 -->
<g id="edge7" class="edge"><title>Node7&#45;&gt;Node3</title>
<path fill="none" stroke="midnightblue" d="M662.072,-19.8783C671.156,-21.7646 680.144,-23.631 687.601,-25.1793"/>
<polygon fill="midnightblue" stroke="midnightblue" points="662.748,-16.444 652.245,-17.8377 661.324,-23.2978 662.748,-16.444"/>
</g>
</g>
</svg>
