<?xml version="1.0" encoding="UTF-8" standalone="no"?>
<!DOCTYPE svg PUBLIC "-//W3C//DTD SVG 1.1//EN"
 "http://www.w3.org/Graphics/SVG/1.1/DTD/svg11.dtd">
<!-- Generated by graphviz version 2.38.0 (20140413.2041)
 -->
<!-- Title: rds_update Pages: 1 -->
<svg width="621pt" height="56pt"
 viewBox="0.00 0.00 621.00 56.00" xmlns="http://www.w3.org/2000/svg" xmlns:xlink="http://www.w3.org/1999/xlink">
<g id="graph0" class="graph" transform="scale(1 1) rotate(0) translate(4 52)">
<title>rds_update</title>
<polygon fill="white" stroke="none" points="-4,4 -4,-52 617,-52 617,4 -4,4"/>
<!-- Node1 -->
<g id="node1" class="node"><title>Node1</title>
<polygon fill="#bfbfbf" stroke="black" points="0,-19.5 0,-38.5 65,-38.5 65,-19.5 0,-19.5"/>
<text text-anchor="middle" x="32.5" y="-26.5" font-family="Helvetica,sans-Serif" font-size="10.00">rds_update</text>
</g>
<!-- Node2 -->
<g id="node2" class="node"><title>Node2</title>
<g id="a_node2"><a xlink:href="main_8c.html#a840291bc02cba5474a4cb46a9b9566fe" target="_top" xlink:title="main">
<polygon fill="white" stroke="black" points="575,-19.5 575,-38.5 613,-38.5 613,-19.5 575,-19.5"/>
<text text-anchor="middle" x="594" y="-26.5" font-family="Helvetica,sans-Serif" font-size="10.00">main</text>
</a>
</g>
</g>
<!-- Node1&#45;&gt;Node2 -->
<g id="edge1" class="edge"><title>Node1&#45;&gt;Node2</title>
<path fill="none" stroke="midnightblue" d="M75.4173,-34.399C122.718,-40.0159 202,-48 270.5,-48 270.5,-48 270.5,-48 387,-48 456.676,-48 539.051,-37.0887 574.865,-31.8035"/>
<polygon fill="midnightblue" stroke="midnightblue" points="75.6004,-30.8957 65.2525,-33.1696 74.7599,-37.8451 75.6004,-30.8957"/>
</g>
<!-- Node3 -->
<g id="node3" class="node"><title>Node3</title>
<g id="a_node3"><a xlink:href="radio_8c.html#ac96da2886aec92b299b27b500761564c" target="_top" xlink:title="radio_auto_search">
<polygon fill="white" stroke="black" points="101,-0.5 101,-19.5 197,-19.5 197,-0.5 101,-0.5"/>
<text text-anchor="middle" x="149" y="-7.5" font-family="Helvetica,sans-Serif" font-size="10.00">radio_auto_search</text>
</a>
</g>
</g>
<!-- Node1&#45;&gt;Node3 -->
<g id="edge2" class="edge"><title>Node1&#45;&gt;Node3</title>
<path fill="none" stroke="midnightblue" d="M74.9653,-22.1193C83.3009,-20.7361 92.1208,-19.2725 100.639,-17.859"/>
<polygon fill="midnightblue" stroke="midnightblue" points="74.3828,-18.668 65.0907,-23.7579 75.5288,-25.5736 74.3828,-18.668"/>
</g>
<!-- Node4 -->
<g id="node4" class="node"><title>Node4</title>
<g id="a_node4"><a xlink:href="radio_8c.html#a832a684fc60104296fc975a7608f92b4" target="_top" xlink:title="radio_settings">
<polygon fill="white" stroke="black" points="233,-0.5 233,-19.5 310,-19.5 310,-0.5 233,-0.5"/>
<text text-anchor="middle" x="271.5" y="-7.5" font-family="Helvetica,sans-Serif" font-size="10.00">radio_settings</text>
</a>
</g>
</g>
<!-- Node3&#45;&gt;Node4 -->
<g id="edge3" class="edge"><title>Node3&#45;&gt;Node4</title>
<path fill="none" stroke="midnightblue" d="M207.303,-10C215.909,-10 224.596,-10 232.659,-10"/>
<polygon fill="midnightblue" stroke="midnightblue" points="207.279,-6.5001 197.279,-10 207.279,-13.5001 207.279,-6.5001"/>
</g>
<!-- Node5 -->
<g id="node5" class="node"><title>Node5</title>
<g id="a_node5"><a xlink:href="menu_8c.html#a5d9c190838195d7872fc7067269e20fa" target="_top" xlink:title="menu_function">
<polygon fill="white" stroke="black" points="346,-0.5 346,-19.5 426,-19.5 426,-0.5 346,-0.5"/>
<text text-anchor="middle" x="386" y="-7.5" font-family="Helvetica,sans-Serif" font-size="10.00">menu_function</text>
</a>
</g>
</g>
<!-- Node4&#45;&gt;Node5 -->
<g id="edge4" class="edge"><title>Node4&#45;&gt;Node5</title>
<path fill="none" stroke="midnightblue" d="M320.474,-10C328.985,-10 337.755,-10 345.981,-10"/>
<polygon fill="midnightblue" stroke="midnightblue" points="320.274,-6.5001 310.274,-10 320.274,-13.5001 320.274,-6.5001"/>
</g>
<!-- Node6 -->
<g id="node6" class="node"><title>Node6</title>
<g id="a_node6"><a xlink:href="menu_8c.html#aaf2a075d3159f7eeab42012941a3437f" target="_top" xlink:title="menu_handler">
<polygon fill="white" stroke="black" points="462,-0.5 462,-19.5 539,-19.5 539,-0.5 462,-0.5"/>
<text text-anchor="middle" x="500.5" y="-7.5" font-family="Helvetica,sans-Serif" font-size="10.00">menu_handler</text>
</a>
</g>
</g>
<!-- Node5&#45;&gt;Node6 -->
<g id="edge5" class="edge"><title>Node5&#45;&gt;Node6</title>
<path fill="none" stroke="midnightblue" d="M436.262,-10C444.783,-10 453.52,-10 461.676,-10"/>
<polygon fill="midnightblue" stroke="midnightblue" points="436.031,-6.5001 426.031,-10 436.031,-13.5001 436.031,-6.5001"/>
</g>
<!-- Node6&#45;&gt;Node2 -->
<g id="edge6" class="edge"><title>Node6&#45;&gt;Node2</title>
<path fill="none" stroke="midnightblue" d="M549.072,-19.8783C558.156,-21.7646 567.144,-23.631 574.601,-25.1793"/>
<polygon fill="midnightblue" stroke="midnightblue" points="549.748,-16.444 539.245,-17.8377 548.324,-23.2978 549.748,-16.444"/>
</g>
</g>
</svg>
