<?xml version="1.0" encoding="UTF-8" standalone="no"?>
<!DOCTYPE svg PUBLIC "-//W3C//DTD SVG 1.1//EN"
 "http://www.w3.org/Graphics/SVG/1.1/DTD/svg11.dtd">
<!-- Generated by graphviz version 2.38.0 (20140413.2041)
 -->
<!-- Title: rds_update Pages: 1 -->
<svg width="523pt" height="158pt"
 viewBox="0.00 0.00 523.00 158.33" xmlns="http://www.w3.org/2000/svg" xmlns:xlink="http://www.w3.org/1999/xlink">
<g id="graph0" class="graph" transform="scale(1 1) rotate(0) translate(4 154.327)">
<title>rds_update</title>
<polygon fill="white" stroke="none" points="-4,4 -4,-154.327 519,-154.327 519,4 -4,4"/>
<!-- Node1 -->
<g id="node1" class="node"><title>Node1</title>
<polygon fill="#bfbfbf" stroke="black" points="0,-76.5 0,-95.5 65,-95.5 65,-76.5 0,-76.5"/>
<text text-anchor="middle" x="32.5" y="-83.5" font-family="Helvetica,sans-Serif" font-size="10.00">rds_update</text>
</g>
<!-- Node2 -->
<g id="node2" class="node"><title>Node2</title>
<g id="a_node2"><a xlink:href="rds_8c.html#ad4168f8a33d30a3526e416da5997baa9" target="_top" xlink:title="Triggers RDS. ">
<polygon fill="white" stroke="black" points="103,-114.5 103,-133.5 176,-133.5 176,-114.5 103,-114.5"/>
<text text-anchor="middle" x="139.5" y="-121.5" font-family="Helvetica,sans-Serif" font-size="10.00">rds_triggered</text>
</a>
</g>
</g>
<!-- Node1&#45;&gt;Node2 -->
<g id="edge1" class="edge"><title>Node1&#45;&gt;Node2</title>
<path fill="none" stroke="midnightblue" d="M59.9959,-95.589C72.8043,-100.224 88.3753,-105.86 102.262,-110.885"/>
<polygon fill="midnightblue" stroke="midnightblue" points="101.418,-114.302 112.013,-114.414 103.8,-107.72 101.418,-114.302"/>
</g>
<!-- Node3 -->
<g id="node3" class="node"><title>Node3</title>
<g id="a_node3"><a xlink:href="i2c_8h.html#a6691e5911f539e1e8178c6e983e8079a" target="_top" xlink:title="Transmits I2C commands with a variable length to a I2C slave. ">
<polygon fill="white" stroke="black" points="217,-114.5 217,-133.5 289,-133.5 289,-114.5 217,-114.5"/>
<text text-anchor="middle" x="253" y="-121.5" font-family="Helvetica,sans-Serif" font-size="10.00">i2c_write_var</text>
</a>
</g>
</g>
<!-- Node1&#45;&gt;Node3 -->
<g id="edge6" class="edge"><title>Node1&#45;&gt;Node3</title>
<path fill="none" stroke="midnightblue" d="M40.9593,-95.5808C52.2338,-109.189 75.0713,-133.517 101,-143 139.849,-157.209 187.654,-146.933 218.933,-136.806"/>
<polygon fill="midnightblue" stroke="midnightblue" points="220.138,-140.092 228.475,-133.554 217.881,-133.467 220.138,-140.092"/>
</g>
<!-- Node5 -->
<g id="node5" class="node"><title>Node5</title>
<g id="a_node5"><a xlink:href="timer_8c.html#a3c56af3315c2461dec5ced585a5f84db" target="_top" xlink:title="_delay_ten_us">
<polygon fill="white" stroke="black" points="435,-66.5 435,-85.5 515,-85.5 515,-66.5 435,-66.5"/>
<text text-anchor="middle" x="475" y="-73.5" font-family="Helvetica,sans-Serif" font-size="10.00">_delay_ten_us</text>
</a>
</g>
</g>
<!-- Node1&#45;&gt;Node5 -->
<g id="edge10" class="edge"><title>Node1&#45;&gt;Node5</title>
<path fill="none" stroke="midnightblue" d="M65.0486,-81.6652C101.014,-76.9599 161.608,-69.7499 214,-67 287.364,-63.1494 372.463,-67.8253 424.768,-71.7471"/>
<polygon fill="midnightblue" stroke="midnightblue" points="424.539,-75.2397 434.778,-72.5186 425.077,-68.2604 424.539,-75.2397"/>
</g>
<!-- Node6 -->
<g id="node6" class="node"><title>Node6</title>
<g id="a_node6"><a xlink:href="i2c_8h.html#a6dd896b0c82d1aa91a1a8155b41c4566" target="_top" xlink:title="Receives I2C commands until a NACK is received or received RxBytes. ">
<polygon fill="white" stroke="black" points="226.5,-76.5 226.5,-95.5 279.5,-95.5 279.5,-76.5 226.5,-76.5"/>
<text text-anchor="middle" x="253" y="-83.5" font-family="Helvetica,sans-Serif" font-size="10.00">i2c_read</text>
</a>
</g>
</g>
<!-- Node1&#45;&gt;Node6 -->
<g id="edge7" class="edge"><title>Node1&#45;&gt;Node6</title>
<path fill="none" stroke="midnightblue" d="M65.2718,-86C105.425,-86 174.348,-86 216.286,-86"/>
<polygon fill="midnightblue" stroke="midnightblue" points="216.333,-89.5001 226.333,-86 216.333,-82.5001 216.333,-89.5001"/>
</g>
<!-- Node7 -->
<g id="node7" class="node"><title>Node7</title>
<g id="a_node7"><a xlink:href="rds_8c.html#a33e5a772a8a82d668cc39ebfd4ba37a4" target="_top" xlink:title="Gets the time and date out of RDS stream. ">
<polygon fill="white" stroke="black" points="101,-0.5 101,-19.5 178,-19.5 178,-0.5 101,-0.5"/>
<text text-anchor="middle" x="139.5" y="-7.5" font-family="Helvetica,sans-Serif" font-size="10.00">rds_group_4A</text>
</a>
</g>
</g>
<!-- Node1&#45;&gt;Node7 -->
<g id="edge8" class="edge"><title>Node1&#45;&gt;Node7</title>
<path fill="none" stroke="midnightblue" d="M45.2142,-76.4754C58.4944,-65.7961 80.9129,-48.125 101,-34 105.315,-30.9655 109.995,-27.8432 114.538,-24.8955"/>
<polygon fill="midnightblue" stroke="midnightblue" points="116.428,-27.8416 122.975,-19.5115 112.662,-21.9409 116.428,-27.8416"/>
</g>
<!-- Node2&#45;&gt;Node3 -->
<g id="edge2" class="edge"><title>Node2&#45;&gt;Node3</title>
<path fill="none" stroke="midnightblue" d="M176.086,-124C185.735,-124 196.316,-124 206.434,-124"/>
<polygon fill="midnightblue" stroke="midnightblue" points="206.752,-127.5 216.752,-124 206.752,-120.5 206.752,-127.5"/>
</g>
<!-- Node2&#45;&gt;Node6 -->
<g id="edge5" class="edge"><title>Node2&#45;&gt;Node6</title>
<path fill="none" stroke="midnightblue" d="M168.636,-114.411C183.137,-109.469 200.971,-103.391 216.419,-98.1264"/>
<polygon fill="midnightblue" stroke="midnightblue" points="217.829,-101.343 226.166,-94.8045 215.571,-94.7176 217.829,-101.343"/>
</g>
<!-- Node4 -->
<g id="node4" class="node"><title>Node4</title>
<g id="a_node4"><a xlink:href="i2c_8c.html#ae0625b97d3437bcaca4ac4b96dd01978" target="_top" xlink:title="Transmits I2C command array to a I2C slave. ">
<polygon fill="white" stroke="black" points="328,-95.5 328,-114.5 399,-114.5 399,-95.5 328,-95.5"/>
<text text-anchor="middle" x="363.5" y="-102.5" font-family="Helvetica,sans-Serif" font-size="10.00">i2c_write_arr</text>
</a>
</g>
</g>
<!-- Node3&#45;&gt;Node4 -->
<g id="edge3" class="edge"><title>Node3&#45;&gt;Node4</title>
<path fill="none" stroke="midnightblue" d="M289.227,-117.831C298.315,-116.24 308.219,-114.505 317.723,-112.841"/>
<polygon fill="midnightblue" stroke="midnightblue" points="318.574,-116.245 327.82,-111.073 317.366,-109.35 318.574,-116.245"/>
</g>
<!-- Node4&#45;&gt;Node5 -->
<g id="edge4" class="edge"><title>Node4&#45;&gt;Node5</title>
<path fill="none" stroke="midnightblue" d="M399.146,-95.8242C408.354,-93.3857 418.443,-90.7139 428.148,-88.1435"/>
<polygon fill="midnightblue" stroke="midnightblue" points="429.299,-91.4593 438.07,-85.5158 427.507,-84.6926 429.299,-91.4593"/>
</g>
<!-- Node8 -->
<g id="node8" class="node"><title>Node8</title>
<g id="a_node8"><a xlink:href="time_8c.html#a6b341bdccd1c2c5503da84093f12e145" target="_top" xlink:title="Set the time and write it into the time_date array. ">
<polygon fill="white" stroke="black" points="214,-0.5 214,-19.5 292,-19.5 292,-0.5 214,-0.5"/>
<text text-anchor="middle" x="253" y="-7.5" font-family="Helvetica,sans-Serif" font-size="10.00">time_set_time</text>
</a>
</g>
</g>
<!-- Node7&#45;&gt;Node8 -->
<g id="edge9" class="edge"><title>Node7&#45;&gt;Node8</title>
<path fill="none" stroke="midnightblue" d="M178.249,-10C186.423,-10 195.176,-10 203.694,-10"/>
<polygon fill="midnightblue" stroke="midnightblue" points="203.911,-13.5001 213.911,-10 203.911,-6.5001 203.911,-13.5001"/>
</g>
</g>
</svg>
