<?xml version="1.0" encoding="UTF-8" standalone="no"?>
<!DOCTYPE svg PUBLIC "-//W3C//DTD SVG 1.1//EN"
 "http://www.w3.org/Graphics/SVG/1.1/DTD/svg11.dtd">
<!-- Generated by graphviz version 2.38.0 (20140413.2041)
 -->
<!-- Title: get_rds_data Pages: 1 -->
<svg width="525pt" height="158pt"
 viewBox="0.00 0.00 525.00 157.78" xmlns="http://www.w3.org/2000/svg" xmlns:xlink="http://www.w3.org/1999/xlink">
<g id="graph0" class="graph" transform="scale(1 1) rotate(0) translate(4 153.781)">
<title>get_rds_data</title>
<polygon fill="white" stroke="none" points="-4,4 -4,-153.781 521,-153.781 521,4 -4,4"/>
<!-- Node1 -->
<g id="node1" class="node"><title>Node1</title>
<polygon fill="#bfbfbf" stroke="black" points="0,-76.5 0,-95.5 73,-95.5 73,-76.5 0,-76.5"/>
<text text-anchor="middle" x="36.5" y="-83.5" font-family="Helvetica,sans-Serif" font-size="10.00">get_rds_data</text>
</g>
<!-- Node2 -->
<g id="node2" class="node"><title>Node2</title>
<g id="a_node2"><a xlink:href="rds_8c.html#ad4168f8a33d30a3526e416da5997baa9" target="_top" xlink:title="rds_triggered">
<polygon fill="white" stroke="black" points="111,-114.5 111,-133.5 184,-133.5 184,-114.5 111,-114.5"/>
<text text-anchor="middle" x="147.5" y="-121.5" font-family="Helvetica,sans-Serif" font-size="10.00">rds_triggered</text>
</a>
</g>
</g>
<!-- Node1&#45;&gt;Node2 -->
<g id="edge1" class="edge"><title>Node1&#45;&gt;Node2</title>
<path fill="none" stroke="midnightblue" d="M65.0053,-95.589C78.4307,-100.269 94.78,-105.969 109.301,-111.032"/>
<polygon fill="midnightblue" stroke="midnightblue" points="108.409,-114.427 119.003,-114.414 110.713,-107.817 108.409,-114.427"/>
</g>
<!-- Node3 -->
<g id="node3" class="node"><title>Node3</title>
<g id="a_node3"><a xlink:href="i2c_8h.html#a6691e5911f539e1e8178c6e983e8079a" target="_top" xlink:title="Transmits I2C commands with a variable length to a I2C slave. ">
<polygon fill="white" stroke="black" points="222,-114.5 222,-133.5 294,-133.5 294,-114.5 222,-114.5"/>
<text text-anchor="middle" x="258" y="-121.5" font-family="Helvetica,sans-Serif" font-size="10.00">i2c_write_var</text>
</a>
</g>
</g>
<!-- Node1&#45;&gt;Node3 -->
<g id="edge6" class="edge"><title>Node1&#45;&gt;Node3</title>
<path fill="none" stroke="midnightblue" d="M45.5317,-95.5935C57.6367,-109.218 82.0278,-133.565 109,-143 146.786,-156.219 192.882,-146.555 223.487,-136.819"/>
<polygon fill="midnightblue" stroke="midnightblue" points="224.871,-140.046 233.238,-133.547 222.644,-133.41 224.871,-140.046"/>
</g>
<!-- Node5 -->
<g id="node5" class="node"><title>Node5</title>
<g id="a_node5"><a xlink:href="timer_8c.html#a3c56af3315c2461dec5ced585a5f84db" target="_top" xlink:title="_delay_ten_us">
<polygon fill="white" stroke="black" points="437,-66.5 437,-85.5 517,-85.5 517,-66.5 437,-66.5"/>
<text text-anchor="middle" x="477" y="-73.5" font-family="Helvetica,sans-Serif" font-size="10.00">_delay_ten_us</text>
</a>
</g>
</g>
<!-- Node1&#45;&gt;Node5 -->
<g id="edge10" class="edge"><title>Node1&#45;&gt;Node5</title>
<path fill="none" stroke="midnightblue" d="M73.1306,-81.2347C110.229,-76.5308 170.064,-69.6671 222,-67 253.958,-65.3588 262.01,-66.2095 294,-67 338.904,-68.1096 389.983,-70.7569 426.575,-72.8948"/>
<polygon fill="midnightblue" stroke="midnightblue" points="426.778,-76.4129 436.968,-73.5111 427.192,-69.4252 426.778,-76.4129"/>
</g>
<!-- Node6 -->
<g id="node6" class="node"><title>Node6</title>
<g id="a_node6"><a xlink:href="i2c_8h.html#a6dd896b0c82d1aa91a1a8155b41c4566" target="_top" xlink:title="Receives I2C commands until a NACK is received or received RxBytes. ">
<polygon fill="white" stroke="black" points="231.5,-76.5 231.5,-95.5 284.5,-95.5 284.5,-76.5 231.5,-76.5"/>
<text text-anchor="middle" x="258" y="-83.5" font-family="Helvetica,sans-Serif" font-size="10.00">i2c_read</text>
</a>
</g>
</g>
<!-- Node1&#45;&gt;Node6 -->
<g id="edge7" class="edge"><title>Node1&#45;&gt;Node6</title>
<path fill="none" stroke="midnightblue" d="M73.255,-86C114.045,-86 180.359,-86 221.177,-86"/>
<polygon fill="midnightblue" stroke="midnightblue" points="221.223,-89.5001 231.223,-86 221.223,-82.5001 221.223,-89.5001"/>
</g>
<!-- Node7 -->
<g id="node7" class="node"><title>Node7</title>
<g id="a_node7"><a xlink:href="rds_8c.html#a33e5a772a8a82d668cc39ebfd4ba37a4" target="_top" xlink:title="rds_group_4A">
<polygon fill="white" stroke="black" points="109,-0.5 109,-19.5 186,-19.5 186,-0.5 109,-0.5"/>
<text text-anchor="middle" x="147.5" y="-7.5" font-family="Helvetica,sans-Serif" font-size="10.00">rds_group_4A</text>
</a>
</g>
</g>
<!-- Node1&#45;&gt;Node7 -->
<g id="edge8" class="edge"><title>Node1&#45;&gt;Node7</title>
<path fill="none" stroke="midnightblue" d="M50.2522,-76.3727C64.4277,-65.7542 88.0843,-48.2802 109,-34 113.357,-31.0254 118.056,-27.931 122.605,-24.9921"/>
<polygon fill="midnightblue" stroke="midnightblue" points="124.496,-27.9375 131.039,-19.6047 120.728,-22.0383 124.496,-27.9375"/>
</g>
<!-- Node2&#45;&gt;Node3 -->
<g id="edge2" class="edge"><title>Node2&#45;&gt;Node3</title>
<path fill="none" stroke="midnightblue" d="M184.027,-124C192.828,-124 202.379,-124 211.581,-124"/>
<polygon fill="midnightblue" stroke="midnightblue" points="211.764,-127.5 221.764,-124 211.764,-120.5 211.764,-127.5"/>
</g>
<!-- Node2&#45;&gt;Node6 -->
<g id="edge5" class="edge"><title>Node2&#45;&gt;Node6</title>
<path fill="none" stroke="midnightblue" d="M175.879,-114.411C189.886,-109.505 207.091,-103.48 222.046,-98.2418"/>
<polygon fill="midnightblue" stroke="midnightblue" points="223.212,-101.542 231.493,-94.9333 220.898,-94.9356 223.212,-101.542"/>
</g>
<!-- Node4 -->
<g id="node4" class="node"><title>Node4</title>
<g id="a_node4"><a xlink:href="i2c_8c.html#ae0625b97d3437bcaca4ac4b96dd01978" target="_top" xlink:title="Transmits I2C command array to a I2C slave. ">
<polygon fill="white" stroke="black" points="330,-95.5 330,-114.5 401,-114.5 401,-95.5 330,-95.5"/>
<text text-anchor="middle" x="365.5" y="-102.5" font-family="Helvetica,sans-Serif" font-size="10.00">i2c_write_arr</text>
</a>
</g>
</g>
<!-- Node3&#45;&gt;Node4 -->
<g id="edge3" class="edge"><title>Node3&#45;&gt;Node4</title>
<path fill="none" stroke="midnightblue" d="M294.13,-117.673C302.402,-116.184 311.327,-114.576 319.952,-113.023"/>
<polygon fill="midnightblue" stroke="midnightblue" points="320.661,-116.452 329.882,-111.234 319.42,-109.562 320.661,-116.452"/>
</g>
<!-- Node4&#45;&gt;Node5 -->
<g id="edge4" class="edge"><title>Node4&#45;&gt;Node5</title>
<path fill="none" stroke="midnightblue" d="M401.146,-95.8242C410.354,-93.3857 420.443,-90.7139 430.148,-88.1435"/>
<polygon fill="midnightblue" stroke="midnightblue" points="431.299,-91.4593 440.07,-85.5158 429.507,-84.6926 431.299,-91.4593"/>
</g>
<!-- Node8 -->
<g id="node8" class="node"><title>Node8</title>
<g id="a_node8"><a xlink:href="time_8c.html#a5db7b4e6e4e991e6730a118bff927c39" target="_top" xlink:title="time_set">
<polygon fill="white" stroke="black" points="231,-0.5 231,-19.5 285,-19.5 285,-0.5 231,-0.5"/>
<text text-anchor="middle" x="258" y="-7.5" font-family="Helvetica,sans-Serif" font-size="10.00">time_set</text>
</a>
</g>
</g>
<!-- Node7&#45;&gt;Node8 -->
<g id="edge9" class="edge"><title>Node7&#45;&gt;Node8</title>
<path fill="none" stroke="midnightblue" d="M186.144,-10C197.275,-10 209.44,-10 220.498,-10"/>
<polygon fill="midnightblue" stroke="midnightblue" points="220.692,-13.5001 230.692,-10 220.692,-6.5001 220.692,-13.5001"/>
</g>
</g>
</svg>
