<?xml version="1.0" encoding="UTF-8" standalone="no"?>
<!DOCTYPE svg PUBLIC "-//W3C//DTD SVG 1.1//EN"
 "http://www.w3.org/Graphics/SVG/1.1/DTD/svg11.dtd">
<!-- Generated by graphviz version 2.38.0 (20140413.2041)
 -->
<!-- Title: D:/GIT/fhradiov2/driver/src/si4735.c Pages: 1 -->
<!--zoomable 397 -->
<svg id="main" version="1.1" xmlns="http://www.w3.org/2000/svg" xmlns:xlink="http://www.w3.org/1999/xlink" xml:space="preserve" onload="init(evt)">
<style type="text/css"><![CDATA[
.edge:hover path { stroke: red; }
.edge:hover polygon { stroke: red; fill: red; }
]]></style>
<script type="text/javascript"><![CDATA[
var edges = document.getElementsByTagName('g');
if (edges && edges.length) {
  for (var i=0;i<edges.length;i++) {
    if (edges[i].id.substr(0,4)=='edge') {
      edges[i].setAttribute('class','edge');
    }
  }
}
]]></script>
        <defs>
                <circle id="rim" cx="0" cy="0" r="7"/>
                <circle id="rim2" cx="0" cy="0" r="3.5"/>
                <g id="zoomPlus">
                        <use xlink:href="#rim" fill="#404040">
                                <set attributeName="fill" to="#808080" begin="zoomplus.mouseover" end="zoomplus.mouseout"/>
                        </use>
                        <path d="M-4,0h8M0,-4v8" fill="none" stroke="white" stroke-width="1.5" pointer-events="none"/>
                </g>
                <g id="zoomMin">
                        <use xlink:href="#rim" fill="#404040">
                                <set attributeName="fill" to="#808080" begin="zoomminus.mouseover" end="zoomminus.mouseout"/>
                        </use>
                        <path d="M-4,0h8" fill="none" stroke="white" stroke-width="1.5" pointer-events="none"/>
                </g>
                <g id="dirArrow">
                        <path fill="none" stroke="white" stroke-width="1.5" d="M0,-3.0v7 M-2.5,-0.5L0,-3.0L2.5,-0.5"/>
                </g>
               <g id="resetDef">
                       <use xlink:href="#rim2" fill="#404040">
                               <set attributeName="fill" to="#808080" begin="reset.mouseover" end="reset.mouseout"/>
                       </use>
               </g>
        </defs>

<script type="text/javascript">
var viewWidth = 519;
var viewHeight = 397;
var sectionId = 'dynsection-0';
</script>
<script xlink:href="svgpan.js"/>
<svg id="graph" class="graph">
<g id="viewport">
<title>D:/GIT/fhradiov2/driver/src/si4735.c</title>
<polygon fill="white" stroke="none" points="-4,4 -4,-393 515.454,-393 515.454,4 -4,4"/>
<!-- Node1 -->
<g id="node1" class="node"><title>Node1</title>
<polygon fill="#bfbfbf" stroke="black" points="386,-358.5 386,-388.5 496,-388.5 496,-358.5 386,-358.5"/>
<text text-anchor="start" x="394" y="-376.5" font-family="Helvetica,sans-Serif" font-size="10.00">D:/GIT/fhradiov2/driver</text>
<text text-anchor="middle" x="441" y="-365.5" font-family="Helvetica,sans-Serif" font-size="10.00">/src/si4735.c</text>
</g>
<!-- Node2 -->
<g id="node2" class="node"><title>Node2</title>
<g id="a_node2"><a xlink:href="si4735_8h.html" target="_top" xlink:title="driver/si4735.h">
<polygon fill="white" stroke="black" points="198.5,-302.5 198.5,-321.5 277.5,-321.5 277.5,-302.5 198.5,-302.5"/>
<text text-anchor="middle" x="238" y="-309.5" font-family="Helvetica,sans-Serif" font-size="10.00">driver/si4735.h</text>
</a>
</g>
</g>
<!-- Node1&#45;&gt;Node2 -->
<g id="edge1" class="edge"><title>Node1&#45;&gt;Node2</title>
<path fill="none" stroke="midnightblue" d="M393.149,-358.475C357.668,-348.075 309.914,-334.078 276.799,-324.372"/>
<polygon fill="midnightblue" stroke="midnightblue" points="277.602,-320.96 267.022,-321.506 275.634,-327.678 277.602,-320.96"/>
</g>
<!-- Node9 -->
<g id="node9" class="node"><title>Node9</title>
<g id="a_node9"><a xlink:href="radio__configuration_8h.html" target="_top" xlink:title="settings/radio_configuration.h">
<polygon fill="white" stroke="black" points="285.5,-123.5 285.5,-142.5 428.5,-142.5 428.5,-123.5 285.5,-123.5"/>
<text text-anchor="middle" x="357" y="-130.5" font-family="Helvetica,sans-Serif" font-size="10.00">settings/radio_configuration.h</text>
</a>
</g>
</g>
<!-- Node1&#45;&gt;Node9 -->
<g id="edge18" class="edge"><title>Node1&#45;&gt;Node9</title>
<path fill="none" stroke="midnightblue" d="M471.037,-358.491C493.248,-345.916 518.17,-325.803 509,-302 482.409,-232.975 412.857,-174.7 377.815,-148.632"/>
<polygon fill="midnightblue" stroke="midnightblue" points="379.838,-145.776 369.696,-142.711 375.714,-151.431 379.838,-145.776"/>
</g>
<!-- Node10 -->
<g id="node10" class="node"><title>Node10</title>
<g id="a_node10"><a xlink:href="si4735__cmd__prop_8h.html" target="_top" xlink:title="driver/include/si4735\l_cmd_prop.h">
<polygon fill="white" stroke="black" points="315,-56.5 315,-86.5 419,-86.5 419,-56.5 315,-56.5"/>
<text text-anchor="start" x="323" y="-74.5" font-family="Helvetica,sans-Serif" font-size="10.00">driver/include/si4735</text>
<text text-anchor="middle" x="367" y="-63.5" font-family="Helvetica,sans-Serif" font-size="10.00">_cmd_prop.h</text>
</a>
</g>
</g>
<!-- Node1&#45;&gt;Node10 -->
<g id="edge17" class="edge"><title>Node1&#45;&gt;Node10</title>
<path fill="none" stroke="midnightblue" d="M452.42,-358.209C459.732,-348.476 468.949,-335.039 475,-322 488.71,-292.456 495,-284.07 495,-251.5 495,-251.5 495,-251.5 495,-188 495,-141.919 448.708,-109.491 411.802,-90.9601"/>
<polygon fill="midnightblue" stroke="midnightblue" points="413.183,-87.7403 402.655,-86.5485 410.142,-94.0453 413.183,-87.7403"/>
</g>
<!-- Node13 -->
<g id="node13" class="node"><title>Node13</title>
<g id="a_node13"><a xlink:href="external__interrupthandler_8h.html" target="_top" xlink:title="driver/external_interrupthandler.h">
<polygon fill="white" stroke="black" points="309.5,-302.5 309.5,-321.5 466.5,-321.5 466.5,-302.5 309.5,-302.5"/>
<text text-anchor="middle" x="388" y="-309.5" font-family="Helvetica,sans-Serif" font-size="10.00">driver/external_interrupthandler.h</text>
</a>
</g>
</g>
<!-- Node1&#45;&gt;Node13 -->
<g id="edge19" class="edge"><title>Node1&#45;&gt;Node13</title>
<path fill="none" stroke="midnightblue" d="M428.44,-358.399C420.659,-349.664 410.636,-338.413 402.516,-329.296"/>
<polygon fill="midnightblue" stroke="midnightblue" points="404.977,-326.797 395.712,-321.658 399.75,-331.453 404.977,-326.797"/>
</g>
<!-- Node3 -->
<g id="node3" class="node"><title>Node3</title>
<polygon fill="white" stroke="#bfbfbf" points="155.5,-0.5 155.5,-19.5 204.5,-19.5 204.5,-0.5 155.5,-0.5"/>
<text text-anchor="middle" x="180" y="-7.5" font-family="Helvetica,sans-Serif" font-size="10.00">stdint.h</text>
</g>
<!-- Node2&#45;&gt;Node3 -->
<g id="edge2" class="edge"><title>Node2&#45;&gt;Node3</title>
<path fill="none" stroke="midnightblue" d="M198.432,-308.555C130.756,-302 0,-277.955 0,-190 0,-190 0,-190 0,-132 0,-62.6335 93.2095,-30.4424 145.481,-17.8436"/>
<polygon fill="midnightblue" stroke="midnightblue" points="146.385,-21.2272 155.349,-15.5799 144.82,-14.4044 146.385,-21.2272"/>
</g>
<!-- Node4 -->
<g id="node4" class="node"><title>Node4</title>
<g id="a_node4"><a xlink:href="i2c_8h.html" target="_top" xlink:title="I2C implemtation for MSP430G2553, interrupt based. &#160;&#160;This implemtation based on examples from Texas I...">
<polygon fill="white" stroke="black" points="128.5,-241 128.5,-260 191.5,-260 191.5,-241 128.5,-241"/>
<text text-anchor="middle" x="160" y="-248" font-family="Helvetica,sans-Serif" font-size="10.00">driver/i2c.h</text>
</a>
</g>
</g>
<!-- Node2&#45;&gt;Node4 -->
<g id="edge3" class="edge"><title>Node2&#45;&gt;Node4</title>
<path fill="none" stroke="midnightblue" d="M226.825,-302.475C214.429,-293.02 194.21,-277.596 179.254,-266.187"/>
<polygon fill="midnightblue" stroke="midnightblue" points="181.228,-263.291 171.155,-260.009 176.983,-268.857 181.228,-263.291"/>
</g>
<!-- Node8 -->
<g id="node8" class="node"><title>Node8</title>
<g id="a_node8"><a xlink:href="timer_8h.html" target="_top" xlink:title="driver/timer.h">
<polygon fill="white" stroke="black" points="240,-179.5 240,-198.5 312,-198.5 312,-179.5 240,-179.5"/>
<text text-anchor="middle" x="276" y="-186.5" font-family="Helvetica,sans-Serif" font-size="10.00">driver/timer.h</text>
</a>
</g>
</g>
<!-- Node2&#45;&gt;Node8 -->
<g id="edge15" class="edge"><title>Node2&#45;&gt;Node8</title>
<path fill="none" stroke="midnightblue" d="M239.688,-302.443C242.589,-288.242 248.988,-258.995 257,-235 260.021,-225.951 264.057,-216.165 267.631,-208.037"/>
<polygon fill="midnightblue" stroke="midnightblue" points="270.872,-209.363 271.801,-198.809 264.494,-206.48 270.872,-209.363"/>
</g>
<!-- Node12 -->
<g id="node12" class="node"><title>Node12</title>
<g id="a_node12"><a xlink:href="radio__pin__mapping_8h.html" target="_top" xlink:title="settings/radio_pin\l_mapping.h">
<polygon fill="white" stroke="black" points="266.5,-235.5 266.5,-265.5 359.5,-265.5 359.5,-235.5 266.5,-235.5"/>
<text text-anchor="start" x="274.5" y="-253.5" font-family="Helvetica,sans-Serif" font-size="10.00">settings/radio_pin</text>
<text text-anchor="middle" x="313" y="-242.5" font-family="Helvetica,sans-Serif" font-size="10.00">_mapping.h</text>
</a>
</g>
</g>
<!-- Node2&#45;&gt;Node12 -->
<g id="edge16" class="edge"><title>Node2&#45;&gt;Node12</title>
<path fill="none" stroke="midnightblue" d="M248.746,-302.475C258.808,-294.492 274.234,-282.254 287.449,-271.77"/>
<polygon fill="midnightblue" stroke="midnightblue" points="289.665,-274.48 295.324,-265.523 285.315,-268.996 289.665,-274.48"/>
</g>
<!-- Node4&#45;&gt;Node3 -->
<g id="edge4" class="edge"><title>Node4&#45;&gt;Node3</title>
<path fill="none" stroke="midnightblue" d="M159.869,-240.808C159.726,-227.49 159.67,-201.239 161,-179 164.282,-124.127 167.478,-110.583 174,-56 175.03,-47.3829 176.284,-37.8535 177.378,-29.7908"/>
<polygon fill="midnightblue" stroke="midnightblue" points="180.882,-30.0021 178.78,-19.618 173.948,-29.0466 180.882,-30.0021"/>
</g>
<!-- Node5 -->
<g id="node5" class="node"><title>Node5</title>
<polygon fill="white" stroke="#bfbfbf" points="208.5,-123.5 208.5,-142.5 267.5,-142.5 267.5,-123.5 208.5,-123.5"/>
<text text-anchor="middle" x="238" y="-130.5" font-family="Helvetica,sans-Serif" font-size="10.00">msp430.h</text>
</g>
<!-- Node4&#45;&gt;Node5 -->
<g id="edge5" class="edge"><title>Node4&#45;&gt;Node5</title>
<path fill="none" stroke="midnightblue" d="M128.247,-241.671C90.028,-230.724 33.7098,-208.79 57,-179 74.1869,-157.017 150.274,-144.237 198.161,-138.232"/>
<polygon fill="midnightblue" stroke="midnightblue" points="198.704,-141.692 208.212,-137.019 197.865,-134.743 198.704,-141.692"/>
</g>
<!-- Node6 -->
<g id="node6" class="node"><title>Node6</title>
<polygon fill="white" stroke="#bfbfbf" points="66,-179.5 66,-198.5 114,-198.5 114,-179.5 66,-179.5"/>
<text text-anchor="middle" x="90" y="-186.5" font-family="Helvetica,sans-Serif" font-size="10.00">stdlib.h</text>
</g>
<!-- Node4&#45;&gt;Node6 -->
<g id="edge6" class="edge"><title>Node4&#45;&gt;Node6</title>
<path fill="none" stroke="midnightblue" d="M149.971,-240.975C138.951,-231.608 121.04,-216.384 107.657,-205.008"/>
<polygon fill="midnightblue" stroke="midnightblue" points="109.897,-202.319 100.011,-198.509 105.363,-207.652 109.897,-202.319"/>
</g>
<!-- Node7 -->
<g id="node7" class="node"><title>Node7</title>
<polygon fill="white" stroke="#bfbfbf" points="170,-179.5 170,-198.5 222,-198.5 222,-179.5 170,-179.5"/>
<text text-anchor="middle" x="196" y="-186.5" font-family="Helvetica,sans-Serif" font-size="10.00">stdarg.h</text>
</g>
<!-- Node4&#45;&gt;Node7 -->
<g id="edge7" class="edge"><title>Node4&#45;&gt;Node7</title>
<path fill="none" stroke="midnightblue" d="M165.158,-240.975C170.451,-232.227 178.835,-218.369 185.527,-207.309"/>
<polygon fill="midnightblue" stroke="midnightblue" points="188.67,-208.877 190.852,-198.509 182.68,-205.253 188.67,-208.877"/>
</g>
<!-- Node4&#45;&gt;Node8 -->
<g id="edge8" class="edge"><title>Node4&#45;&gt;Node8</title>
<path fill="none" stroke="midnightblue" d="M176.62,-240.975C195.915,-231.078 227.959,-214.642 250.431,-203.115"/>
<polygon fill="midnightblue" stroke="midnightblue" points="252.11,-206.187 259.411,-198.509 248.916,-199.959 252.11,-206.187"/>
</g>
<!-- Node8&#45;&gt;Node3 -->
<g id="edge10" class="edge"><title>Node8&#45;&gt;Node3</title>
<path fill="none" stroke="midnightblue" d="M249.607,-179.43C232.374,-172.418 210.931,-160.726 199,-143 175.697,-108.379 175.79,-57.0712 177.885,-29.7387"/>
<polygon fill="midnightblue" stroke="midnightblue" points="181.386,-29.8964 178.843,-19.6112 174.417,-29.237 181.386,-29.8964"/>
</g>
<!-- Node8&#45;&gt;Node5 -->
<g id="edge9" class="edge"><title>Node8&#45;&gt;Node5</title>
<path fill="none" stroke="midnightblue" d="M269.725,-179.083C264.358,-171.455 256.482,-160.264 249.921,-150.941"/>
<polygon fill="midnightblue" stroke="midnightblue" points="252.775,-148.915 244.158,-142.751 247.051,-152.943 252.775,-148.915"/>
</g>
<!-- Node8&#45;&gt;Node9 -->
<g id="edge11" class="edge"><title>Node8&#45;&gt;Node9</title>
<path fill="none" stroke="midnightblue" d="M289.014,-179.324C301.532,-170.979 320.682,-158.212 335.471,-148.352"/>
<polygon fill="midnightblue" stroke="midnightblue" points="337.639,-151.114 344.018,-142.655 333.756,-145.289 337.639,-151.114"/>
</g>
<!-- Node9&#45;&gt;Node10 -->
<g id="edge12" class="edge"><title>Node9&#45;&gt;Node10</title>
<path fill="none" stroke="midnightblue" d="M358.433,-123.475C359.623,-116.396 361.375,-105.97 362.985,-96.3896"/>
<polygon fill="midnightblue" stroke="midnightblue" points="366.437,-96.9648 364.643,-86.523 359.534,-95.8045 366.437,-96.9648"/>
</g>
<!-- Node11 -->
<g id="node11" class="node"><title>Node11</title>
<g id="a_node11"><a xlink:href="libs_2time_8h.html" target="_top" xlink:title="libs/time.h">
<polygon fill="white" stroke="black" points="235,-62 235,-81 297,-81 297,-62 235,-62"/>
<text text-anchor="middle" x="266" y="-69" font-family="Helvetica,sans-Serif" font-size="10.00">libs/time.h</text>
</a>
</g>
</g>
<!-- Node9&#45;&gt;Node11 -->
<g id="edge14" class="edge"><title>Node9&#45;&gt;Node11</title>
<path fill="none" stroke="midnightblue" d="M343.962,-123.475C329.231,-113.843 305.027,-98.0175 287.491,-86.5517"/>
<polygon fill="midnightblue" stroke="midnightblue" points="289.299,-83.5522 279.014,-81.0091 285.468,-89.411 289.299,-83.5522"/>
</g>
<!-- Node10&#45;&gt;Node3 -->
<g id="edge13" class="edge"><title>Node10&#45;&gt;Node3</title>
<path fill="none" stroke="midnightblue" d="M322.684,-56.3993C289.497,-45.8401 244.755,-31.6039 214.279,-21.907"/>
<polygon fill="midnightblue" stroke="midnightblue" points="215.119,-18.5012 204.528,-18.8044 212.996,-25.1717 215.119,-18.5012"/>
</g>
<!-- Node13&#45;&gt;Node3 -->
<g id="edge21" class="edge"><title>Node13&#45;&gt;Node3</title>
<path fill="none" stroke="midnightblue" d="M397.306,-302.273C416.14,-283.612 457,-237.639 457,-190 457,-190 457,-190 457,-132 457,-95.8467 455.817,-79.0933 428,-56 396.08,-29.5001 275.389,-17.5687 214.942,-13.1627"/>
<polygon fill="midnightblue" stroke="midnightblue" points="214.957,-9.65534 204.737,-12.4489 214.469,-16.6383 214.957,-9.65534"/>
</g>
<!-- Node13&#45;&gt;Node5 -->
<g id="edge20" class="edge"><title>Node13&#45;&gt;Node5</title>
<path fill="none" stroke="midnightblue" d="M386.949,-302.115C384.939,-287.444 379.669,-257.535 368,-235 353.059,-206.146 346.17,-199.55 321,-179 304.973,-165.915 284.572,-154.793 268.007,-146.88"/>
<polygon fill="midnightblue" stroke="midnightblue" points="269.304,-143.624 258.759,-142.601 266.365,-149.977 269.304,-143.624"/>
</g>
<!-- Node13&#45;&gt;Node12 -->
<g id="edge22" class="edge"><title>Node13&#45;&gt;Node12</title>
<path fill="none" stroke="midnightblue" d="M377.254,-302.475C367.192,-294.492 351.766,-282.254 338.551,-271.77"/>
<polygon fill="midnightblue" stroke="midnightblue" points="340.685,-268.996 330.676,-265.523 336.335,-274.48 340.685,-268.996"/>
</g>
</g>
</svg>
        <g id="navigator" transform="translate(0 0)" fill="#404254">
                <rect fill="#f2f5e9" fill-opacity="0.5" stroke="#606060" stroke-width=".5" x="0" y="0" width="60" height="60"/>
                <use id="zoomplus" xlink:href="#zoomPlus" x="17" y="9" onmousedown="handleZoom(evt,'in')"/>
                <use id="zoomminus" xlink:href="#zoomMin" x="42" y="9" onmousedown="handleZoom(evt,'out')"/>
                <use id="reset" xlink:href="#resetDef" x="30" y="36" onmousedown="handleReset()"/>
                <g id="arrowUp" xlink:href="#dirArrow" transform="translate(30 24)" onmousedown="handlePan(0,-1)">
                  <use xlink:href="#rim" fill="#404040">
                        <set attributeName="fill" to="#808080" begin="arrowUp.mouseover" end="arrowUp.mouseout"/>
                  </use>
                  <path fill="none" stroke="white" stroke-width="1.5" d="M0,-3.0v7 M-2.5,-0.5L0,-3.0L2.5,-0.5"/>
                </g>
                <g id="arrowRight" xlink:href="#dirArrow" transform="rotate(90) translate(36 -43)" onmousedown="handlePan(1,0)">
                  <use xlink:href="#rim" fill="#404040">
                        <set attributeName="fill" to="#808080" begin="arrowRight.mouseover" end="arrowRight.mouseout"/>
                  </use>
                  <path fill="none" stroke="white" stroke-width="1.5" d="M0,-3.0v7 M-2.5,-0.5L0,-3.0L2.5,-0.5"/>
                </g>
                <g id="arrowDown" xlink:href="#dirArrow" transform="rotate(180) translate(-30 -48)" onmousedown="handlePan(0,1)">
                  <use xlink:href="#rim" fill="#404040">
                        <set attributeName="fill" to="#808080" begin="arrowDown.mouseover" end="arrowDown.mouseout"/>
                  </use>
                  <path fill="none" stroke="white" stroke-width="1.5" d="M0,-3.0v7 M-2.5,-0.5L0,-3.0L2.5,-0.5"/>
                </g>
                <g id="arrowLeft" xlink:href="#dirArrow" transform="rotate(270) translate(-36 17)" onmousedown="handlePan(-1,0)">
                  <use xlink:href="#rim" fill="#404040">
                        <set attributeName="fill" to="#808080" begin="arrowLeft.mouseover" end="arrowLeft.mouseout"/>
                  </use>
                  <path fill="none" stroke="white" stroke-width="1.5" d="M0,-3.0v7 M-2.5,-0.5L0,-3.0L2.5,-0.5"/>
                </g>
        </g>
        <svg viewBox="0 0 15 15" width="100%" height="30px" preserveAspectRatio="xMaxYMin meet">
         <g id="arrow_out" transform="scale(0.3 0.3)">
          <a xlink:href="si4735_8c__incl_org.svg" target="_base">
           <rect id="button" ry="5" rx="5" y="6" x="6" height="38" width="38"
                fill="#f2f5e9" fill-opacity="0.5" stroke="#606060" stroke-width="1.0"/>
           <path id="arrow"
             d="M 11.500037,31.436501 C 11.940474,20.09759 22.043105,11.32322 32.158766,21.979434 L 37.068811,17.246167 C 37.068811,17.246167 37.088388,32 37.088388,32 L 22.160133,31.978069 C 22.160133,31.978069 26.997745,27.140456 26.997745,27.140456 C 18.528582,18.264221 13.291696,25.230495 11.500037,31.436501 z"
             style="fill:#404040;"/>
          </a>
         </g>
        </svg>
</svg>
