<?xml version="1.0" encoding="UTF-8" standalone="no"?>
<!DOCTYPE svg PUBLIC "-//W3C//DTD SVG 1.1//EN"
 "http://www.w3.org/Graphics/SVG/1.1/DTD/svg11.dtd">
<!-- Generated by graphviz version 2.38.0 (20140413.2041)
 -->
<!-- Title: si4735_fm_tune_status Pages: 1 -->
<svg width="518pt" height="85pt"
 viewBox="0.00 0.00 518.00 85.00" xmlns="http://www.w3.org/2000/svg" xmlns:xlink="http://www.w3.org/1999/xlink">
<g id="graph0" class="graph" transform="scale(1 1) rotate(0) translate(4 81)">
<title>si4735_fm_tune_status</title>
<polygon fill="white" stroke="none" points="-4,4 -4,-81 514,-81 514,4 -4,4"/>
<!-- Node1 -->
<g id="node1" class="node"><title>Node1</title>
<polygon fill="#bfbfbf" stroke="black" points="0,-19.5 0,-38.5 117,-38.5 117,-19.5 0,-19.5"/>
<text text-anchor="middle" x="58.5" y="-26.5" font-family="Helvetica,sans-Serif" font-size="10.00">si4735_fm_tune_status</text>
</g>
<!-- Node2 -->
<g id="node2" class="node"><title>Node2</title>
<g id="a_node2"><a xlink:href="radio_8c.html#aee6321b512830d482a2fc164cf11f9e9" target="_top" xlink:title="Seeking all radio channels. ">
<polygon fill="white" stroke="black" points="153,-19.5 153,-38.5 230,-38.5 230,-19.5 153,-19.5"/>
<text text-anchor="middle" x="191.5" y="-26.5" font-family="Helvetica,sans-Serif" font-size="10.00">radio_seeking</text>
</a>
</g>
</g>
<!-- Node1&#45;&gt;Node2 -->
<g id="edge1" class="edge"><title>Node1&#45;&gt;Node2</title>
<path fill="none" stroke="midnightblue" d="M127.565,-29C136.282,-29 144.939,-29 152.917,-29"/>
<polygon fill="midnightblue" stroke="midnightblue" points="127.34,-25.5001 117.34,-29 127.34,-32.5001 127.34,-25.5001"/>
</g>
<!-- Node3 -->
<g id="node3" class="node"><title>Node3</title>
<g id="a_node3"><a xlink:href="radio_8c.html#a3a1de7e31aabba6e408a633c130e618a" target="_top" xlink:title="Initiales the radio. ">
<polygon fill="white" stroke="black" points="286,-57.5 286,-76.5 342,-76.5 342,-57.5 286,-57.5"/>
<text text-anchor="middle" x="314" y="-64.5" font-family="Helvetica,sans-Serif" font-size="10.00">radio_init</text>
</a>
</g>
</g>
<!-- Node2&#45;&gt;Node3 -->
<g id="edge2" class="edge"><title>Node2&#45;&gt;Node3</title>
<path fill="none" stroke="midnightblue" d="M232.84,-41.7215C250.292,-47.2248 270.254,-53.5199 285.892,-58.4513"/>
<polygon fill="midnightblue" stroke="midnightblue" points="233.497,-38.2586 222.907,-38.589 231.392,-44.9346 233.497,-38.2586"/>
</g>
<!-- Node5 -->
<g id="node5" class="node"><title>Node5</title>
<g id="a_node5"><a xlink:href="radio_8c.html#ac96da2886aec92b299b27b500761564c" target="_top" xlink:title="Auto Search for radio stations. ">
<polygon fill="white" stroke="black" points="266,-19.5 266,-38.5 362,-38.5 362,-19.5 266,-19.5"/>
<text text-anchor="middle" x="314" y="-26.5" font-family="Helvetica,sans-Serif" font-size="10.00">radio_auto_search</text>
</a>
</g>
</g>
<!-- Node2&#45;&gt;Node5 -->
<g id="edge4" class="edge"><title>Node2&#45;&gt;Node5</title>
<path fill="none" stroke="midnightblue" d="M240.524,-29C248.772,-29 257.339,-29 265.571,-29"/>
<polygon fill="midnightblue" stroke="midnightblue" points="240.296,-25.5001 230.296,-29 240.296,-32.5001 240.296,-25.5001"/>
</g>
<!-- Node6 -->
<g id="node6" class="node"><title>Node6</title>
<g id="a_node6"><a xlink:href="radio__settings_8c.html#a90d48a01d9b0ad794fb9416a2ce8f85e" target="_top" xlink:title="Seeks the next station/all available. ">
<polygon fill="white" stroke="black" points="398,-0.5 398,-19.5 510,-19.5 510,-0.5 398,-0.5"/>
<text text-anchor="middle" x="454" y="-7.5" font-family="Helvetica,sans-Serif" font-size="10.00">radio_settings_station</text>
</a>
</g>
</g>
<!-- Node2&#45;&gt;Node6 -->
<g id="edge6" class="edge"><title>Node2&#45;&gt;Node6</title>
<path fill="none" stroke="midnightblue" d="M231.909,-16.8588C242.841,-14.028 254.789,-11.4257 266,-10 310.122,-4.38936 360.575,-4.78385 397.947,-6.36296"/>
<polygon fill="midnightblue" stroke="midnightblue" points="230.937,-13.4959 222.205,-19.4956 232.773,-20.251 230.937,-13.4959"/>
</g>
<!-- Node4 -->
<g id="node4" class="node"><title>Node4</title>
<g id="a_node4"><a xlink:href="main_8c.html#a840291bc02cba5474a4cb46a9b9566fe" target="_top" xlink:title="Main function. ">
<polygon fill="white" stroke="black" points="435,-57.5 435,-76.5 473,-76.5 473,-57.5 435,-57.5"/>
<text text-anchor="middle" x="454" y="-64.5" font-family="Helvetica,sans-Serif" font-size="10.00">main</text>
</a>
</g>
</g>
<!-- Node3&#45;&gt;Node4 -->
<g id="edge3" class="edge"><title>Node3&#45;&gt;Node4</title>
<path fill="none" stroke="midnightblue" d="M352.4,-67C379.045,-67 413.708,-67 434.608,-67"/>
<polygon fill="midnightblue" stroke="midnightblue" points="352.264,-63.5001 342.264,-67 352.264,-70.5001 352.264,-63.5001"/>
</g>
<!-- Node5&#45;&gt;Node6 -->
<g id="edge5" class="edge"><title>Node5&#45;&gt;Node6</title>
<path fill="none" stroke="midnightblue" d="M372.18,-21.1274C380.565,-19.9729 389.19,-18.7854 397.54,-17.6359"/>
<polygon fill="midnightblue" stroke="midnightblue" points="371.535,-17.6831 362.106,-22.5144 372.49,-24.6177 371.535,-17.6831"/>
</g>
</g>
</svg>
