<?xml version="1.0" encoding="UTF-8" standalone="no"?>
<!DOCTYPE svg PUBLIC "-//W3C//DTD SVG 1.1//EN"
 "http://www.w3.org/Graphics/SVG/1.1/DTD/svg11.dtd">
<!-- Generated by graphviz version 2.38.0 (20140413.2041)
 -->
<!-- Title: D:/GIT/fhradiov2/libs/string.h Pages: 1 -->
<svg width="1126pt" height="441pt"
 viewBox="0.00 0.00 1125.50 441.00" xmlns="http://www.w3.org/2000/svg" xmlns:xlink="http://www.w3.org/1999/xlink">
<g id="graph0" class="graph" transform="scale(1 1) rotate(0) translate(4 437)">
<title>D:/GIT/fhradiov2/libs/string.h</title>
<polygon fill="white" stroke="none" points="-4,4 -4,-437 1121.5,-437 1121.5,4 -4,4"/>
<!-- Node1 -->
<g id="node1" class="node"><title>Node1</title>
<polygon fill="#bfbfbf" stroke="black" points="393,-402.5 393,-432.5 496,-432.5 496,-402.5 393,-402.5"/>
<text text-anchor="start" x="401" y="-420.5" font-family="Helvetica,sans-Serif" font-size="10.00">D:/GIT/fhradiov2/libs</text>
<text text-anchor="middle" x="444.5" y="-409.5" font-family="Helvetica,sans-Serif" font-size="10.00">/string.h</text>
</g>
<!-- Node2 -->
<g id="node2" class="node"><title>Node2</title>
<g id="a_node2"><a xlink:href="flash_8h.html" target="_top" xlink:title="D:/GIT/fhradiov2/driver\l/flash.h">
<polygon fill="white" stroke="black" points="287.5,-335.5 287.5,-365.5 397.5,-365.5 397.5,-335.5 287.5,-335.5"/>
<text text-anchor="start" x="295.5" y="-353.5" font-family="Helvetica,sans-Serif" font-size="10.00">D:/GIT/fhradiov2/driver</text>
<text text-anchor="middle" x="342.5" y="-342.5" font-family="Helvetica,sans-Serif" font-size="10.00">/flash.h</text>
</a>
</g>
</g>
<!-- Node1&#45;&gt;Node2 -->
<g id="edge1" class="edge"><title>Node1&#45;&gt;Node2</title>
<path fill="none" stroke="midnightblue" d="M413.924,-397.015C398.051,-386.9 379.016,-374.77 364.589,-365.577"/>
<polygon fill="midnightblue" stroke="midnightblue" points="412.053,-399.973 422.368,-402.396 415.815,-394.07 412.053,-399.973"/>
</g>
<!-- Node4 -->
<g id="node4" class="node"><title>Node4</title>
<g id="a_node4"><a xlink:href="radio_8h.html" target="_top" xlink:title="D:/GIT/fhradiov2/radio\l/radio.h">
<polygon fill="white" stroke="black" points="307,-268.5 307,-298.5 416,-298.5 416,-268.5 307,-268.5"/>
<text text-anchor="start" x="315" y="-286.5" font-family="Helvetica,sans-Serif" font-size="10.00">D:/GIT/fhradiov2/radio</text>
<text text-anchor="middle" x="361.5" y="-275.5" font-family="Helvetica,sans-Serif" font-size="10.00">/radio.h</text>
</a>
</g>
</g>
<!-- Node1&#45;&gt;Node4 -->
<g id="edge36" class="edge"><title>Node1&#45;&gt;Node4</title>
<path fill="none" stroke="midnightblue" d="M435.559,-392.693C428.747,-375.905 418.512,-353.251 406.5,-335 397.72,-321.659 385.568,-308.241 376.106,-298.592"/>
<polygon fill="midnightblue" stroke="midnightblue" points="432.42,-394.275 439.342,-402.296 438.933,-391.709 432.42,-394.275"/>
</g>
<!-- Node5 -->
<g id="node5" class="node"><title>Node5</title>
<g id="a_node5"><a xlink:href="menu_8h.html" target="_top" xlink:title="D:/GIT/fhradiov2/menu\l/menu.h">
<polygon fill="white" stroke="black" points="819.5,-201.5 819.5,-231.5 931.5,-231.5 931.5,-201.5 819.5,-201.5"/>
<text text-anchor="start" x="827.5" y="-219.5" font-family="Helvetica,sans-Serif" font-size="10.00">D:/GIT/fhradiov2/menu</text>
<text text-anchor="middle" x="875.5" y="-208.5" font-family="Helvetica,sans-Serif" font-size="10.00">/menu.h</text>
</a>
</g>
</g>
<!-- Node1&#45;&gt;Node5 -->
<g id="edge35" class="edge"><title>Node1&#45;&gt;Node5</title>
<path fill="none" stroke="midnightblue" d="M450.261,-392.587C455.844,-374.349 466.085,-349.904 483.5,-335 534.51,-291.346 723.864,-248.105 819.485,-228.462"/>
<polygon fill="midnightblue" stroke="midnightblue" points="446.886,-391.66 447.558,-402.233 453.626,-393.549 446.886,-391.66"/>
</g>
<!-- Node25 -->
<g id="node25" class="node"><title>Node25</title>
<g id="a_node25"><a xlink:href="string_8c.html" target="_top" xlink:title="D:/GIT/fhradiov2/libs\l/src/string.c">
<polygon fill="white" stroke="black" points="492,-335.5 492,-365.5 595,-365.5 595,-335.5 492,-335.5"/>
<text text-anchor="start" x="500" y="-353.5" font-family="Helvetica,sans-Serif" font-size="10.00">D:/GIT/fhradiov2/libs</text>
<text text-anchor="middle" x="543.5" y="-342.5" font-family="Helvetica,sans-Serif" font-size="10.00">/src/string.c</text>
</a>
</g>
</g>
<!-- Node1&#45;&gt;Node25 -->
<g id="edge34" class="edge"><title>Node1&#45;&gt;Node25</title>
<path fill="none" stroke="midnightblue" d="M474.606,-396.734C489.925,-386.676 508.188,-374.685 522.06,-365.577"/>
<polygon fill="midnightblue" stroke="midnightblue" points="472.42,-393.982 465.982,-402.396 476.262,-399.833 472.42,-393.982"/>
</g>
<!-- Node3 -->
<g id="node3" class="node"><title>Node3</title>
<g id="a_node3"><a xlink:href="flash_8c.html" target="_top" xlink:title="D:/GIT/fhradiov2/driver\l/src/flash.c">
<polygon fill="white" stroke="black" points="178.5,-268.5 178.5,-298.5 288.5,-298.5 288.5,-268.5 178.5,-268.5"/>
<text text-anchor="start" x="186.5" y="-286.5" font-family="Helvetica,sans-Serif" font-size="10.00">D:/GIT/fhradiov2/driver</text>
<text text-anchor="middle" x="233.5" y="-275.5" font-family="Helvetica,sans-Serif" font-size="10.00">/src/flash.c</text>
</a>
</g>
</g>
<!-- Node2&#45;&gt;Node3 -->
<g id="edge2" class="edge"><title>Node2&#45;&gt;Node3</title>
<path fill="none" stroke="midnightblue" d="M309.825,-330.015C292.863,-319.9 272.522,-307.77 257.105,-298.577"/>
<polygon fill="midnightblue" stroke="midnightblue" points="308.467,-333.28 318.849,-335.396 312.052,-327.268 308.467,-333.28"/>
</g>
<!-- Node2&#45;&gt;Node4 -->
<g id="edge3" class="edge"><title>Node2&#45;&gt;Node4</title>
<path fill="none" stroke="midnightblue" d="M349.458,-325.697C352.121,-316.587 355.071,-306.493 357.385,-298.577"/>
<polygon fill="midnightblue" stroke="midnightblue" points="346.069,-324.816 346.623,-335.396 352.788,-326.78 346.069,-324.816"/>
</g>
<!-- Node4&#45;&gt;Node5 -->
<g id="edge4" class="edge"><title>Node4&#45;&gt;Node5</title>
<path fill="none" stroke="midnightblue" d="M426.651,-269.944C431.324,-269.256 435.974,-268.601 440.5,-268 598.145,-247.062 639.317,-256.161 796.5,-232 803.86,-230.869 811.615,-229.471 819.292,-227.994"/>
<polygon fill="midnightblue" stroke="midnightblue" points="425.787,-266.535 416.426,-271.497 426.838,-273.456 425.787,-266.535"/>
</g>
<!-- Node9 -->
<g id="node9" class="node"><title>Node9</title>
<g id="a_node9"><a xlink:href="handler_8h.html" target="_top" xlink:title="D:/GIT/fhradiov2/system\l/handler.h">
<polygon fill="white" stroke="black" points="737.5,-134.5 737.5,-164.5 857.5,-164.5 857.5,-134.5 737.5,-134.5"/>
<text text-anchor="start" x="745.5" y="-152.5" font-family="Helvetica,sans-Serif" font-size="10.00">D:/GIT/fhradiov2/system</text>
<text text-anchor="middle" x="797.5" y="-141.5" font-family="Helvetica,sans-Serif" font-size="10.00">/handler.h</text>
</a>
</g>
</g>
<!-- Node4&#45;&gt;Node9 -->
<g id="edge20" class="edge"><title>Node4&#45;&gt;Node9</title>
<path fill="none" stroke="midnightblue" d="M426.477,-271.401C434.227,-270.193 442.035,-269.03 449.5,-268 521.044,-258.126 716.895,-278.088 772.5,-232 792.555,-215.378 796.851,-183.09 797.577,-164.533"/>
<polygon fill="midnightblue" stroke="midnightblue" points="425.684,-267.983 416.356,-273.006 426.781,-274.896 425.684,-267.983"/>
</g>
<!-- Node12 -->
<g id="node12" class="node"><title>Node12</title>
<g id="a_node12"><a xlink:href="radio__display_8h.html" target="_top" xlink:title="D:/GIT/fhradiov2/radio\l/radio_display.h">
<polygon fill="white" stroke="black" points="0,-201.5 0,-231.5 109,-231.5 109,-201.5 0,-201.5"/>
<text text-anchor="start" x="8" y="-219.5" font-family="Helvetica,sans-Serif" font-size="10.00">D:/GIT/fhradiov2/radio</text>
<text text-anchor="middle" x="54.5" y="-208.5" font-family="Helvetica,sans-Serif" font-size="10.00">/radio_display.h</text>
</a>
</g>
</g>
<!-- Node4&#45;&gt;Node12 -->
<g id="edge13" class="edge"><title>Node4&#45;&gt;Node12</title>
<path fill="none" stroke="midnightblue" d="M296.965,-269.849C294.098,-269.219 291.266,-268.599 288.5,-268 211.32,-251.274 191.808,-248.12 114.5,-232 112.703,-231.625 110.879,-231.245 109.04,-230.86"/>
<polygon fill="midnightblue" stroke="midnightblue" points="296.286,-273.284 306.805,-272.02 297.794,-266.448 296.286,-273.284"/>
</g>
<!-- Node14 -->
<g id="node14" class="node"><title>Node14</title>
<g id="a_node14"><a xlink:href="radio__settings_8h.html" target="_top" xlink:title="D:/GIT/fhradiov2/radio\l/radio_settings.h">
<polygon fill="white" stroke="black" points="92,-67.5 92,-97.5 201,-97.5 201,-67.5 92,-67.5"/>
<text text-anchor="start" x="100" y="-85.5" font-family="Helvetica,sans-Serif" font-size="10.00">D:/GIT/fhradiov2/radio</text>
<text text-anchor="middle" x="146.5" y="-74.5" font-family="Helvetica,sans-Serif" font-size="10.00">/radio_settings.h</text>
</a>
</g>
</g>
<!-- Node4&#45;&gt;Node14 -->
<g id="edge16" class="edge"><title>Node4&#45;&gt;Node14</title>
<path fill="none" stroke="midnightblue" d="M296.786,-266.011C262.653,-255.749 225.185,-242.545 211.5,-232 166.323,-197.188 146.762,-127.392 144.381,-97.553"/>
<polygon fill="midnightblue" stroke="midnightblue" points="296.189,-269.484 306.771,-268.958 298.171,-262.77 296.189,-269.484"/>
</g>
<!-- Node16 -->
<g id="node16" class="node"><title>Node16</title>
<g id="a_node16"><a xlink:href="radio_8c.html" target="_top" xlink:title="D:/GIT/fhradiov2/radio\l/src/radio.c">
<polygon fill="white" stroke="black" points="240,-201.5 240,-231.5 349,-231.5 349,-201.5 240,-201.5"/>
<text text-anchor="start" x="248" y="-219.5" font-family="Helvetica,sans-Serif" font-size="10.00">D:/GIT/fhradiov2/radio</text>
<text text-anchor="middle" x="294.5" y="-208.5" font-family="Helvetica,sans-Serif" font-size="10.00">/src/radio.c</text>
</a>
</g>
</g>
<!-- Node4&#45;&gt;Node16 -->
<g id="edge19" class="edge"><title>Node4&#45;&gt;Node16</title>
<path fill="none" stroke="midnightblue" d="M339.66,-261.311C329.609,-251.561 317.959,-240.259 309.01,-231.577"/>
<polygon fill="midnightblue" stroke="midnightblue" points="337.347,-263.945 346.962,-268.396 342.222,-258.921 337.347,-263.945"/>
</g>
<!-- Node17 -->
<g id="node17" class="node"><title>Node17</title>
<g id="a_node17"><a xlink:href="rds_8h.html" target="_top" xlink:title="D:/GIT/fhradiov2/system\l/rds.h">
<polygon fill="white" stroke="black" points="505.5,-201.5 505.5,-231.5 625.5,-231.5 625.5,-201.5 505.5,-201.5"/>
<text text-anchor="start" x="513.5" y="-219.5" font-family="Helvetica,sans-Serif" font-size="10.00">D:/GIT/fhradiov2/system</text>
<text text-anchor="middle" x="565.5" y="-208.5" font-family="Helvetica,sans-Serif" font-size="10.00">/rds.h</text>
</a>
</g>
</g>
<!-- Node4&#45;&gt;Node17 -->
<g id="edge21" class="edge"><title>Node4&#45;&gt;Node17</title>
<path fill="none" stroke="midnightblue" d="M415.455,-265.308C448.457,-254.793 490.155,-241.507 521.213,-231.611"/>
<polygon fill="midnightblue" stroke="midnightblue" points="413.979,-262.105 405.514,-268.476 416.104,-268.775 413.979,-262.105"/>
</g>
<!-- Node19 -->
<g id="node19" class="node"><title>Node19</title>
<g id="a_node19"><a xlink:href="rsq_8h.html" target="_top" xlink:title="D:/GIT/fhradiov2/system\l/rsq.h">
<polygon fill="white" stroke="black" points="643.5,-201.5 643.5,-231.5 763.5,-231.5 763.5,-201.5 643.5,-201.5"/>
<text text-anchor="start" x="651.5" y="-219.5" font-family="Helvetica,sans-Serif" font-size="10.00">D:/GIT/fhradiov2/system</text>
<text text-anchor="middle" x="703.5" y="-208.5" font-family="Helvetica,sans-Serif" font-size="10.00">/rsq.h</text>
</a>
</g>
</g>
<!-- Node4&#45;&gt;Node19 -->
<g id="edge24" class="edge"><title>Node4&#45;&gt;Node19</title>
<path fill="none" stroke="midnightblue" d="M426.242,-270.98C481.611,-261.018 563.386,-246.047 634.5,-232 637.382,-231.431 640.33,-230.841 643.307,-230.239"/>
<polygon fill="midnightblue" stroke="midnightblue" points="425.443,-267.567 416.219,-272.78 426.681,-274.457 425.443,-267.567"/>
</g>
<!-- Node21 -->
<g id="node21" class="node"><title>Node21</title>
<g id="a_node21"><a xlink:href="station__list_8h.html" target="_top" xlink:title="D:/GIT/fhradiov2/system\l/station_list.h">
<polygon fill="white" stroke="black" points="183.5,-134.5 183.5,-164.5 303.5,-164.5 303.5,-134.5 183.5,-134.5"/>
<text text-anchor="start" x="191.5" y="-152.5" font-family="Helvetica,sans-Serif" font-size="10.00">D:/GIT/fhradiov2/system</text>
<text text-anchor="middle" x="243.5" y="-141.5" font-family="Helvetica,sans-Serif" font-size="10.00">/station_list.h</text>
</a>
</g>
</g>
<!-- Node4&#45;&gt;Node21 -->
<g id="edge27" class="edge"><title>Node4&#45;&gt;Node21</title>
<path fill="none" stroke="midnightblue" d="M296.935,-267.543C264.6,-258.07 230.53,-245.159 221.5,-232 207.556,-211.68 218.217,-181.875 229.445,-164.503"/>
<polygon fill="midnightblue" stroke="midnightblue" points="296.308,-271.003 306.884,-270.369 298.221,-264.27 296.308,-271.003"/>
</g>
<!-- Node23 -->
<g id="node23" class="node"><title>Node23</title>
<g id="a_node23"><a xlink:href="station__list__struct_8h.html" target="_top" xlink:title="D:/GIT/fhradiov2/system\l/station_list_struct.h">
<polygon fill="white" stroke="black" points="367.5,-201.5 367.5,-231.5 487.5,-231.5 487.5,-201.5 367.5,-201.5"/>
<text text-anchor="start" x="375.5" y="-219.5" font-family="Helvetica,sans-Serif" font-size="10.00">D:/GIT/fhradiov2/system</text>
<text text-anchor="middle" x="427.5" y="-208.5" font-family="Helvetica,sans-Serif" font-size="10.00">/station_list_struct.h</text>
</a>
</g>
</g>
<!-- Node4&#45;&gt;Node23 -->
<g id="edge31" class="edge"><title>Node4&#45;&gt;Node23</title>
<path fill="none" stroke="midnightblue" d="M383.015,-261.311C392.915,-251.561 404.391,-240.259 413.207,-231.577"/>
<polygon fill="midnightblue" stroke="midnightblue" points="380.49,-258.885 375.821,-268.396 385.402,-263.873 380.49,-258.885"/>
</g>
<!-- Node5&#45;&gt;Node4 -->
<g id="edge9" class="edge"><title>Node5&#45;&gt;Node4</title>
<path fill="none" stroke="midnightblue" d="M809.055,-232.789C655.494,-255.784 612.758,-247.512 458.5,-268 444.839,-269.814 430.041,-272.12 416.169,-274.355"/>
<polygon fill="midnightblue" stroke="midnightblue" points="809.971,-236.191 819.332,-231.229 808.92,-229.27 809.971,-236.191"/>
</g>
<!-- Node6 -->
<g id="node6" class="node"><title>Node6</title>
<g id="a_node6"><a xlink:href="menu__struct_8h.html" target="_top" xlink:title="D:/GIT/fhradiov2/menu\l/menu_struct.h">
<polygon fill="white" stroke="black" points="1005.5,-134.5 1005.5,-164.5 1117.5,-164.5 1117.5,-134.5 1005.5,-134.5"/>
<text text-anchor="start" x="1013.5" y="-152.5" font-family="Helvetica,sans-Serif" font-size="10.00">D:/GIT/fhradiov2/menu</text>
<text text-anchor="middle" x="1061.5" y="-141.5" font-family="Helvetica,sans-Serif" font-size="10.00">/menu_struct.h</text>
</a>
</g>
</g>
<!-- Node5&#45;&gt;Node6 -->
<g id="edge5" class="edge"><title>Node5&#45;&gt;Node6</title>
<path fill="none" stroke="midnightblue" d="M919.635,-197.955C948.573,-187.485 986.246,-174.366 1015.54,-164.577"/>
<polygon fill="midnightblue" stroke="midnightblue" points="918.381,-194.687 910.181,-201.396 920.775,-201.265 918.381,-194.687"/>
</g>
<!-- Node8 -->
<g id="node8" class="node"><title>Node8</title>
<g id="a_node8"><a xlink:href="menu_8c.html" target="_top" xlink:title="D:/GIT/fhradiov2/menu\l/src/menu.c">
<polygon fill="white" stroke="black" points="875.5,-134.5 875.5,-164.5 987.5,-164.5 987.5,-134.5 875.5,-134.5"/>
<text text-anchor="start" x="883.5" y="-152.5" font-family="Helvetica,sans-Serif" font-size="10.00">D:/GIT/fhradiov2/menu</text>
<text text-anchor="middle" x="931.5" y="-141.5" font-family="Helvetica,sans-Serif" font-size="10.00">/src/menu.c</text>
</a>
</g>
</g>
<!-- Node5&#45;&gt;Node8 -->
<g id="edge8" class="edge"><title>Node5&#45;&gt;Node8</title>
<path fill="none" stroke="midnightblue" d="M894.25,-193.736C902.536,-184.119 912.039,-173.089 919.373,-164.577"/>
<polygon fill="midnightblue" stroke="midnightblue" points="891.527,-191.535 887.651,-201.396 896.83,-196.104 891.527,-191.535"/>
</g>
<!-- Node5&#45;&gt;Node9 -->
<g id="edge10" class="edge"><title>Node5&#45;&gt;Node9</title>
<path fill="none" stroke="midnightblue" d="M850.76,-194.883C838.907,-185.005 825.015,-173.429 814.392,-164.577"/>
<polygon fill="midnightblue" stroke="midnightblue" points="848.652,-197.683 858.575,-201.396 853.134,-192.305 848.652,-197.683"/>
</g>
<!-- Node6&#45;&gt;Node5 -->
<g id="edge6" class="edge"><title>Node6&#45;&gt;Node5</title>
<path fill="none" stroke="midnightblue" d="M1017.45,-168.015C988.524,-178.481 950.852,-191.601 921.538,-201.396"/>
<polygon fill="midnightblue" stroke="midnightblue" points="1018.69,-171.286 1026.89,-164.577 1016.3,-164.708 1018.69,-171.286"/>
</g>
<!-- Node7 -->
<g id="node7" class="node"><title>Node7</title>
<g id="a_node7"><a xlink:href="menu__struct_8c.html" target="_top" xlink:title="D:/GIT/fhradiov2/menu\l/src/menu_struct.c">
<polygon fill="white" stroke="black" points="1005.5,-67.5 1005.5,-97.5 1117.5,-97.5 1117.5,-67.5 1005.5,-67.5"/>
<text text-anchor="start" x="1013.5" y="-85.5" font-family="Helvetica,sans-Serif" font-size="10.00">D:/GIT/fhradiov2/menu</text>
<text text-anchor="middle" x="1061.5" y="-74.5" font-family="Helvetica,sans-Serif" font-size="10.00">/src/menu_struct.c</text>
</a>
</g>
</g>
<!-- Node6&#45;&gt;Node7 -->
<g id="edge7" class="edge"><title>Node6&#45;&gt;Node7</title>
<path fill="none" stroke="midnightblue" d="M1061.5,-124.108C1061.5,-115.154 1061.5,-105.323 1061.5,-97.5765"/>
<polygon fill="midnightblue" stroke="midnightblue" points="1058,-124.396 1061.5,-134.396 1065,-124.396 1058,-124.396"/>
</g>
<!-- Node10 -->
<g id="node10" class="node"><title>Node10</title>
<g id="a_node10"><a xlink:href="main_8c.html" target="_top" xlink:title="D:/GIT/fhradiov2/main.c">
<polygon fill="white" stroke="black" points="804,-73 804,-92 921,-92 921,-73 804,-73"/>
<text text-anchor="middle" x="862.5" y="-80" font-family="Helvetica,sans-Serif" font-size="10.00">D:/GIT/fhradiov2/main.c</text>
</a>
</g>
</g>
<!-- Node9&#45;&gt;Node10 -->
<g id="edge11" class="edge"><title>Node9&#45;&gt;Node10</title>
<path fill="none" stroke="midnightblue" d="M819.003,-126.997C830.868,-115.132 844.948,-101.052 853.805,-92.1945"/>
<polygon fill="midnightblue" stroke="midnightblue" points="816.2,-124.85 811.604,-134.396 821.15,-129.8 816.2,-124.85"/>
</g>
<!-- Node11 -->
<g id="node11" class="node"><title>Node11</title>
<g id="a_node11"><a xlink:href="handler_8c.html" target="_top" xlink:title="D:/GIT/fhradiov2/system\l/src/handler.c">
<polygon fill="white" stroke="black" points="665.5,-67.5 665.5,-97.5 785.5,-97.5 785.5,-67.5 665.5,-67.5"/>
<text text-anchor="start" x="673.5" y="-85.5" font-family="Helvetica,sans-Serif" font-size="10.00">D:/GIT/fhradiov2/system</text>
<text text-anchor="middle" x="725.5" y="-74.5" font-family="Helvetica,sans-Serif" font-size="10.00">/src/handler.c</text>
</a>
</g>
</g>
<!-- Node9&#45;&gt;Node11 -->
<g id="edge12" class="edge"><title>Node9&#45;&gt;Node11</title>
<path fill="none" stroke="midnightblue" d="M774.347,-127.598C763.475,-117.783 750.804,-106.344 741.092,-97.5765"/>
<polygon fill="midnightblue" stroke="midnightblue" points="772.109,-130.293 781.877,-134.396 776.8,-125.097 772.109,-130.293"/>
</g>
<!-- Node12&#45;&gt;Node4 -->
<g id="edge14" class="edge"><title>Node12&#45;&gt;Node4</title>
<path fill="none" stroke="midnightblue" d="M119.049,-229.194C123.616,-230.145 128.136,-231.09 132.5,-232 209.808,-248.12 229.32,-251.274 306.5,-268 307.168,-268.145 307.84,-268.291 308.515,-268.438"/>
<polygon fill="midnightblue" stroke="midnightblue" points="119.516,-225.717 109.014,-227.114 118.095,-232.571 119.516,-225.717"/>
</g>
<!-- Node13 -->
<g id="node13" class="node"><title>Node13</title>
<g id="a_node13"><a xlink:href="radio__display_8c.html" target="_top" xlink:title="D:/GIT/fhradiov2/radio\l/src/radio_display.c">
<polygon fill="white" stroke="black" points="0,-134.5 0,-164.5 109,-164.5 109,-134.5 0,-134.5"/>
<text text-anchor="start" x="8" y="-152.5" font-family="Helvetica,sans-Serif" font-size="10.00">D:/GIT/fhradiov2/radio</text>
<text text-anchor="middle" x="54.5" y="-141.5" font-family="Helvetica,sans-Serif" font-size="10.00">/src/radio_display.c</text>
</a>
</g>
</g>
<!-- Node12&#45;&gt;Node13 -->
<g id="edge15" class="edge"><title>Node12&#45;&gt;Node13</title>
<path fill="none" stroke="midnightblue" d="M54.5,-191.108C54.5,-182.154 54.5,-172.323 54.5,-164.577"/>
<polygon fill="midnightblue" stroke="midnightblue" points="51.0001,-191.396 54.5,-201.396 58.0001,-191.396 51.0001,-191.396"/>
</g>
<!-- Node14&#45;&gt;Node4 -->
<g id="edge17" class="edge"><title>Node14&#45;&gt;Node4</title>
<path fill="none" stroke="midnightblue" d="M157.459,-107.368C168.827,-140.691 188.735,-200.588 229.5,-232 244.278,-243.387 286.792,-257.876 319.72,-268.411"/>
<polygon fill="midnightblue" stroke="midnightblue" points="160.638,-105.853 154.053,-97.553 154.025,-108.148 160.638,-105.853"/>
</g>
<!-- Node15 -->
<g id="node15" class="node"><title>Node15</title>
<g id="a_node15"><a xlink:href="radio__settings_8c.html" target="_top" xlink:title="D:/GIT/fhradiov2/radio\l/src/radio_settings.c">
<polygon fill="white" stroke="black" points="92,-0.5 92,-30.5 201,-30.5 201,-0.5 92,-0.5"/>
<text text-anchor="start" x="100" y="-18.5" font-family="Helvetica,sans-Serif" font-size="10.00">D:/GIT/fhradiov2/radio</text>
<text text-anchor="middle" x="146.5" y="-7.5" font-family="Helvetica,sans-Serif" font-size="10.00">/src/radio_settings.c</text>
</a>
</g>
</g>
<!-- Node14&#45;&gt;Node15 -->
<g id="edge18" class="edge"><title>Node14&#45;&gt;Node15</title>
<path fill="none" stroke="midnightblue" d="M146.5,-57.1081C146.5,-48.1539 146.5,-38.3227 146.5,-30.5765"/>
<polygon fill="midnightblue" stroke="midnightblue" points="143,-57.3959 146.5,-67.396 150,-57.396 143,-57.3959"/>
</g>
<!-- Node17&#45;&gt;Node9 -->
<g id="edge22" class="edge"><title>Node17&#45;&gt;Node9</title>
<path fill="none" stroke="midnightblue" d="M625.41,-198.715C663.164,-188.137 711.357,-174.635 747.135,-164.611"/>
<polygon fill="midnightblue" stroke="midnightblue" points="624.24,-195.408 615.555,-201.476 626.128,-202.148 624.24,-195.408"/>
</g>
<!-- Node18 -->
<g id="node18" class="node"><title>Node18</title>
<g id="a_node18"><a xlink:href="rds_8c.html" target="_top" xlink:title="D:/GIT/fhradiov2/system\l/src/rds.c">
<polygon fill="white" stroke="black" points="461.5,-134.5 461.5,-164.5 581.5,-164.5 581.5,-134.5 461.5,-134.5"/>
<text text-anchor="start" x="469.5" y="-152.5" font-family="Helvetica,sans-Serif" font-size="10.00">D:/GIT/fhradiov2/system</text>
<text text-anchor="middle" x="521.5" y="-141.5" font-family="Helvetica,sans-Serif" font-size="10.00">/src/rds.c</text>
</a>
</g>
</g>
<!-- Node17&#45;&gt;Node18 -->
<g id="edge23" class="edge"><title>Node17&#45;&gt;Node18</title>
<path fill="none" stroke="midnightblue" d="M550.179,-192.867C543.811,-183.459 536.618,-172.833 531.029,-164.577"/>
<polygon fill="midnightblue" stroke="midnightblue" points="547.449,-195.077 555.953,-201.396 553.245,-191.153 547.449,-195.077"/>
</g>
<!-- Node19&#45;&gt;Node9 -->
<g id="edge25" class="edge"><title>Node19&#45;&gt;Node9</title>
<path fill="none" stroke="midnightblue" d="M732.494,-195.451C746.955,-185.452 764.095,-173.6 777.143,-164.577"/>
<polygon fill="midnightblue" stroke="midnightblue" points="730.131,-192.83 723.897,-201.396 734.112,-198.587 730.131,-192.83"/>
</g>
<!-- Node20 -->
<g id="node20" class="node"><title>Node20</title>
<g id="a_node20"><a xlink:href="rsq_8c.html" target="_top" xlink:title="D:/GIT/fhradiov2/system\l/src/rsq.c">
<polygon fill="white" stroke="black" points="599.5,-134.5 599.5,-164.5 719.5,-164.5 719.5,-134.5 599.5,-134.5"/>
<text text-anchor="start" x="607.5" y="-152.5" font-family="Helvetica,sans-Serif" font-size="10.00">D:/GIT/fhradiov2/system</text>
<text text-anchor="middle" x="659.5" y="-141.5" font-family="Helvetica,sans-Serif" font-size="10.00">/src/rsq.c</text>
</a>
</g>
</g>
<!-- Node19&#45;&gt;Node20 -->
<g id="edge26" class="edge"><title>Node19&#45;&gt;Node20</title>
<path fill="none" stroke="midnightblue" d="M688.179,-192.867C681.811,-183.459 674.618,-172.833 669.029,-164.577"/>
<polygon fill="midnightblue" stroke="midnightblue" points="685.449,-195.077 693.953,-201.396 691.245,-191.153 685.449,-195.077"/>
</g>
<!-- Node21&#45;&gt;Node4 -->
<g id="edge28" class="edge"><title>Node21&#45;&gt;Node4</title>
<path fill="none" stroke="midnightblue" d="M238.728,-174.451C233.279,-191.84 227.952,-215.172 239.5,-232 248.809,-245.566 284.73,-258.867 315.287,-268.411"/>
<polygon fill="midnightblue" stroke="midnightblue" points="242.199,-175.095 241.986,-164.503 235.547,-172.916 242.199,-175.095"/>
</g>
<!-- Node21&#45;&gt;Node14 -->
<g id="edge29" class="edge"><title>Node21&#45;&gt;Node14</title>
<path fill="none" stroke="midnightblue" d="M214.003,-128.734C198.993,-118.676 181.099,-106.685 167.506,-97.5765"/>
<polygon fill="midnightblue" stroke="midnightblue" points="212.197,-131.737 222.452,-134.396 216.094,-125.922 212.197,-131.737"/>
</g>
<!-- Node22 -->
<g id="node22" class="node"><title>Node22</title>
<g id="a_node22"><a xlink:href="station__list_8c.html" target="_top" xlink:title="D:/GIT/fhradiov2/system\l/src/station_list.c">
<polygon fill="white" stroke="black" points="219.5,-67.5 219.5,-97.5 339.5,-97.5 339.5,-67.5 219.5,-67.5"/>
<text text-anchor="start" x="227.5" y="-85.5" font-family="Helvetica,sans-Serif" font-size="10.00">D:/GIT/fhradiov2/system</text>
<text text-anchor="middle" x="279.5" y="-74.5" font-family="Helvetica,sans-Serif" font-size="10.00">/src/station_list.c</text>
</a>
</g>
</g>
<!-- Node21&#45;&gt;Node22 -->
<g id="edge30" class="edge"><title>Node21&#45;&gt;Node22</title>
<path fill="none" stroke="midnightblue" d="M256.197,-125.576C261.367,-116.241 267.178,-105.748 271.704,-97.5765"/>
<polygon fill="midnightblue" stroke="midnightblue" points="253.095,-123.952 251.311,-134.396 259.218,-127.344 253.095,-123.952"/>
</g>
<!-- Node23&#45;&gt;Node21 -->
<g id="edge33" class="edge"><title>Node23&#45;&gt;Node21</title>
<path fill="none" stroke="midnightblue" d="M377.835,-197.955C348.195,-187.485 311.058,-174.366 283.347,-164.577"/>
<polygon fill="midnightblue" stroke="midnightblue" points="376.98,-201.365 387.575,-201.396 379.312,-194.765 376.98,-201.365"/>
</g>
<!-- Node24 -->
<g id="node24" class="node"><title>Node24</title>
<g id="a_node24"><a xlink:href="station__list__struct_8c.html" target="_top" xlink:title="D:/GIT/fhradiov2/system\l/src/station_list_struct.c">
<polygon fill="white" stroke="black" points="321.5,-134.5 321.5,-164.5 443.5,-164.5 443.5,-134.5 321.5,-134.5"/>
<text text-anchor="start" x="329.5" y="-152.5" font-family="Helvetica,sans-Serif" font-size="10.00">D:/GIT/fhradiov2/system</text>
<text text-anchor="middle" x="382.5" y="-141.5" font-family="Helvetica,sans-Serif" font-size="10.00">/src/station_list_struct.c</text>
</a>
</g>
</g>
<!-- Node23&#45;&gt;Node24 -->
<g id="edge32" class="edge"><title>Node23&#45;&gt;Node24</title>
<path fill="none" stroke="midnightblue" d="M412.032,-193.157C405.47,-183.679 398.021,-172.919 392.245,-164.577"/>
<polygon fill="midnightblue" stroke="midnightblue" points="409.166,-195.166 417.736,-201.396 414.921,-191.182 409.166,-195.166"/>
</g>
</g>
</svg>
