<?xml version="1.0" encoding="UTF-8" standalone="no"?>
<!DOCTYPE svg PUBLIC "-//W3C//DTD SVG 1.1//EN"
 "http://www.w3.org/Graphics/SVG/1.1/DTD/svg11.dtd">
<!-- Generated by graphviz version 2.38.0 (20140413.2041)
 -->
<!-- Title: radio Pages: 1 -->
<svg width="322pt" height="95pt"
 viewBox="0.00 0.00 321.50 95.00" xmlns="http://www.w3.org/2000/svg" xmlns:xlink="http://www.w3.org/1999/xlink">
<g id="graph0" class="graph" transform="scale(1 1) rotate(0) translate(4 91)">
<title>radio</title>
<polygon fill="white" stroke="none" points="-4,4 -4,-91 317.5,-91 317.5,4 -4,4"/>
<!-- Node1 -->
<g id="node1" class="node"><title>Node1</title>
<polygon fill="#bfbfbf" stroke="black" points="141.5,-0.5 141.5,-19.5 179.5,-19.5 179.5,-0.5 141.5,-0.5"/>
<text text-anchor="middle" x="160.5" y="-7.5" font-family="Helvetica,sans-Serif" font-size="10.00">radio</text>
</g>
<!-- Node2 -->
<g id="node2" class="node"><title>Node2</title>
<g id="a_node2"><a xlink:href="structradio__settings.html" target="_top" xlink:title="radio_settings">
<polygon fill="white" stroke="black" points="0,-67.5 0,-86.5 77,-86.5 77,-67.5 0,-67.5"/>
<text text-anchor="middle" x="38.5" y="-74.5" font-family="Helvetica,sans-Serif" font-size="10.00">radio_settings</text>
</a>
</g>
</g>
<!-- Node2&#45;&gt;Node1 -->
<g id="edge1" class="edge"><title>Node2&#45;&gt;Node1</title>
<path fill="none" stroke="#9a32cd" stroke-dasharray="5,2" d="M59.382,-61.6583C70.7055,-54.1696 85.0916,-45.1114 98.5,-38 112.502,-30.5739 128.978,-23.4715 141.425,-18.4166"/>
<polygon fill="#9a32cd" stroke="#9a32cd" points="57.3875,-58.7817 51.0345,-67.2605 61.2884,-64.5941 57.3875,-58.7817"/>
<text text-anchor="middle" x="117.5" y="-41" font-family="Helvetica,sans-Serif" font-size="10.00"> settings</text>
</g>
<!-- Node3 -->
<g id="node3" class="node"><title>Node3</title>
<g id="a_node3"><a xlink:href="structradio__rsq.html" target="_top" xlink:title="radio_rsq">
<polygon fill="white" stroke="black" points="95.5,-67.5 95.5,-86.5 151.5,-86.5 151.5,-67.5 95.5,-67.5"/>
<text text-anchor="middle" x="123.5" y="-74.5" font-family="Helvetica,sans-Serif" font-size="10.00">radio_rsq</text>
</a>
</g>
</g>
<!-- Node3&#45;&gt;Node1 -->
<g id="edge2" class="edge"><title>Node3&#45;&gt;Node1</title>
<path fill="none" stroke="#9a32cd" stroke-dasharray="5,2" d="M133.442,-58.5347C140.605,-45.9499 149.965,-29.5072 155.589,-19.6273"/>
<polygon fill="#9a32cd" stroke="#9a32cd" points="130.395,-56.8117 128.49,-67.2338 136.479,-60.2746 130.395,-56.8117"/>
<text text-anchor="middle" x="153" y="-41" font-family="Helvetica,sans-Serif" font-size="10.00"> rsq</text>
</g>
<!-- Node4 -->
<g id="node4" class="node"><title>Node4</title>
<g id="a_node4"><a xlink:href="structradio__rds.html" target="_top" xlink:title="radio_rds">
<polygon fill="white" stroke="black" points="169.5,-67.5 169.5,-86.5 225.5,-86.5 225.5,-67.5 169.5,-67.5"/>
<text text-anchor="middle" x="197.5" y="-74.5" font-family="Helvetica,sans-Serif" font-size="10.00">radio_rds</text>
</a>
</g>
</g>
<!-- Node4&#45;&gt;Node1 -->
<g id="edge3" class="edge"><title>Node4&#45;&gt;Node1</title>
<path fill="none" stroke="#9a32cd" stroke-dasharray="5,2" d="M187.558,-58.5347C180.395,-45.9499 171.035,-29.5072 165.411,-19.6273"/>
<polygon fill="#9a32cd" stroke="#9a32cd" points="184.521,-60.2746 192.51,-67.2338 190.605,-56.8117 184.521,-60.2746"/>
<text text-anchor="middle" x="190" y="-41" font-family="Helvetica,sans-Serif" font-size="10.00"> rds</text>
</g>
<!-- Node5 -->
<g id="node5" class="node"><title>Node5</title>
<g id="a_node5"><a xlink:href="structradio__status.html" target="_top" xlink:title="Definition of some structs for the radio, the status, rsq, rds, the settings. ">
<polygon fill="white" stroke="black" points="243.5,-67.5 243.5,-86.5 313.5,-86.5 313.5,-67.5 243.5,-67.5"/>
<text text-anchor="middle" x="278.5" y="-74.5" font-family="Helvetica,sans-Serif" font-size="10.00">radio_status</text>
</a>
</g>
</g>
<!-- Node5&#45;&gt;Node1 -->
<g id="edge4" class="edge"><title>Node5&#45;&gt;Node1</title>
<path fill="none" stroke="#9a32cd" stroke-dasharray="5,2" d="M253.606,-62.2872C230.219,-49.4047 195.944,-30.5243 176.162,-19.6273"/>
<polygon fill="#9a32cd" stroke="#9a32cd" points="252.138,-65.4745 262.586,-67.2338 255.516,-59.3432 252.138,-65.4745"/>
<text text-anchor="middle" x="243" y="-41" font-family="Helvetica,sans-Serif" font-size="10.00"> status</text>
</g>
</g>
</svg>
