<?xml version="1.0" encoding="UTF-8" standalone="no"?>
<!DOCTYPE svg PUBLIC "-//W3C//DTD SVG 1.1//EN"
 "http://www.w3.org/Graphics/SVG/1.1/DTD/svg11.dtd">
<!-- Generated by graphviz version 2.38.0 (20140413.2041)
 -->
<!-- Title: D:/GIT/fhradiov2/system/time.h Pages: 1 -->
<!--zoomable 374 -->
<svg id="main" version="1.1" xmlns="http://www.w3.org/2000/svg" xmlns:xlink="http://www.w3.org/1999/xlink" xml:space="preserve" onload="init(evt)">
<style type="text/css"><![CDATA[
.edge:hover path { stroke: red; }
.edge:hover polygon { stroke: red; fill: red; }
]]></style>
<script type="text/javascript"><![CDATA[
var edges = document.getElementsByTagName('g');
if (edges && edges.length) {
  for (var i=0;i<edges.length;i++) {
    if (edges[i].id.substr(0,4)=='edge') {
      edges[i].setAttribute('class','edge');
    }
  }
}
]]></script>
        <defs>
                <circle id="rim" cx="0" cy="0" r="7"/>
                <circle id="rim2" cx="0" cy="0" r="3.5"/>
                <g id="zoomPlus">
                        <use xlink:href="#rim" fill="#404040">
                                <set attributeName="fill" to="#808080" begin="zoomplus.mouseover" end="zoomplus.mouseout"/>
                        </use>
                        <path d="M-4,0h8M0,-4v8" fill="none" stroke="white" stroke-width="1.5" pointer-events="none"/>
                </g>
                <g id="zoomMin">
                        <use xlink:href="#rim" fill="#404040">
                                <set attributeName="fill" to="#808080" begin="zoomminus.mouseover" end="zoomminus.mouseout"/>
                        </use>
                        <path d="M-4,0h8" fill="none" stroke="white" stroke-width="1.5" pointer-events="none"/>
                </g>
                <g id="dirArrow">
                        <path fill="none" stroke="white" stroke-width="1.5" d="M0,-3.0v7 M-2.5,-0.5L0,-3.0L2.5,-0.5"/>
                </g>
               <g id="resetDef">
                       <use xlink:href="#rim2" fill="#404040">
                               <set attributeName="fill" to="#808080" begin="reset.mouseover" end="reset.mouseout"/>
                       </use>
               </g>
        </defs>

<script type="text/javascript">
var viewWidth = 1170;
var viewHeight = 374;
var sectionId = 'dynsection-1';
</script>
<script xlink:href="svgpan.js"/>
<svg id="graph" class="graph">
<g id="viewport">
<title>D:/GIT/fhradiov2/system/time.h</title>
<polygon fill="white" stroke="none" points="-4,4 -4,-370 1165.5,-370 1165.5,4 -4,4"/>
<!-- Node1 -->
<g id="node1" class="node"><title>Node1</title>
<polygon fill="#bfbfbf" stroke="black" points="669,-335.5 669,-365.5 789,-365.5 789,-335.5 669,-335.5"/>
<text text-anchor="start" x="677" y="-353.5" font-family="Helvetica,sans-Serif" font-size="10.00">D:/GIT/fhradiov2/system</text>
<text text-anchor="middle" x="729" y="-342.5" font-family="Helvetica,sans-Serif" font-size="10.00">/time.h</text>
</g>
<!-- Node2 -->
<g id="node2" class="node"><title>Node2</title>
<g id="a_node2"><a xlink:href="radio_8h.html" target="_top" xlink:title="D:/GIT/fhradiov2/radio\l/radio.h">
<polygon fill="white" stroke="black" points="674.5,-268.5 674.5,-298.5 783.5,-298.5 783.5,-268.5 674.5,-268.5"/>
<text text-anchor="start" x="682.5" y="-286.5" font-family="Helvetica,sans-Serif" font-size="10.00">D:/GIT/fhradiov2/radio</text>
<text text-anchor="middle" x="729" y="-275.5" font-family="Helvetica,sans-Serif" font-size="10.00">/radio.h</text>
</a>
</g>
</g>
<!-- Node1&#45;&gt;Node2 -->
<g id="edge1" class="edge"><title>Node1&#45;&gt;Node2</title>
<path fill="none" stroke="midnightblue" d="M729,-325.108C729,-316.154 729,-306.323 729,-298.577"/>
<polygon fill="midnightblue" stroke="midnightblue" points="725.5,-325.396 729,-335.396 732.5,-325.396 725.5,-325.396"/>
</g>
<!-- Node15 -->
<g id="node15" class="node"><title>Node15</title>
<g id="a_node15"><a xlink:href="rds_8h.html" target="_top" xlink:title="D:/GIT/fhradiov2/system\l/rds.h">
<polygon fill="white" stroke="black" points="398,-201.5 398,-231.5 518,-231.5 518,-201.5 398,-201.5"/>
<text text-anchor="start" x="406" y="-219.5" font-family="Helvetica,sans-Serif" font-size="10.00">D:/GIT/fhradiov2/system</text>
<text text-anchor="middle" x="458" y="-208.5" font-family="Helvetica,sans-Serif" font-size="10.00">/rds.h</text>
</a>
</g>
</g>
<!-- Node1&#45;&gt;Node15 -->
<g id="edge32" class="edge"><title>Node1&#45;&gt;Node15</title>
<path fill="none" stroke="midnightblue" d="M691.223,-331.099C636.441,-304.416 536.127,-255.555 486.858,-231.556"/>
<polygon fill="midnightblue" stroke="midnightblue" points="689.732,-334.266 700.255,-335.499 692.797,-327.973 689.732,-334.266"/>
</g>
<!-- Node23 -->
<g id="node23" class="node"><title>Node23</title>
<g id="a_node23"><a xlink:href="time_8c.html" target="_top" xlink:title="D:/GIT/fhradiov2/system\l/src/time.c">
<polygon fill="white" stroke="black" points="802,-268.5 802,-298.5 922,-298.5 922,-268.5 802,-268.5"/>
<text text-anchor="start" x="810" y="-286.5" font-family="Helvetica,sans-Serif" font-size="10.00">D:/GIT/fhradiov2/system</text>
<text text-anchor="middle" x="862" y="-275.5" font-family="Helvetica,sans-Serif" font-size="10.00">/src/time.c</text>
</a>
</g>
</g>
<!-- Node1&#45;&gt;Node23 -->
<g id="edge33" class="edge"><title>Node1&#45;&gt;Node23</title>
<path fill="none" stroke="midnightblue" d="M766.87,-330.992C787.951,-320.689 813.777,-308.068 833.197,-298.577"/>
<polygon fill="midnightblue" stroke="midnightblue" points="765.307,-327.86 757.859,-335.396 768.38,-334.15 765.307,-327.86"/>
</g>
<!-- Node3 -->
<g id="node3" class="node"><title>Node3</title>
<g id="a_node3"><a xlink:href="menu_8h.html" target="_top" xlink:title="D:/GIT/fhradiov2/menu\l/menu.h">
<polygon fill="white" stroke="black" points="155,-201.5 155,-231.5 267,-231.5 267,-201.5 155,-201.5"/>
<text text-anchor="start" x="163" y="-219.5" font-family="Helvetica,sans-Serif" font-size="10.00">D:/GIT/fhradiov2/menu</text>
<text text-anchor="middle" x="211" y="-208.5" font-family="Helvetica,sans-Serif" font-size="10.00">/menu.h</text>
</a>
</g>
</g>
<!-- Node2&#45;&gt;Node3 -->
<g id="edge2" class="edge"><title>Node2&#45;&gt;Node3</title>
<path fill="none" stroke="midnightblue" d="M663.953,-274.906C561.38,-262.406 364.003,-237.639 267.207,-225.122"/>
<polygon fill="midnightblue" stroke="midnightblue" points="663.828,-278.416 674.178,-276.149 664.673,-271.467 663.828,-278.416"/>
</g>
<!-- Node7 -->
<g id="node7" class="node"><title>Node7</title>
<g id="a_node7"><a xlink:href="handler_8h.html" target="_top" xlink:title="D:/GIT/fhradiov2/system\l/handler.h">
<polygon fill="white" stroke="black" points="260,-134.5 260,-164.5 380,-164.5 380,-134.5 260,-134.5"/>
<text text-anchor="start" x="268" y="-152.5" font-family="Helvetica,sans-Serif" font-size="10.00">D:/GIT/fhradiov2/system</text>
<text text-anchor="middle" x="320" y="-141.5" font-family="Helvetica,sans-Serif" font-size="10.00">/handler.h</text>
</a>
</g>
</g>
<!-- Node2&#45;&gt;Node7 -->
<g id="edge18" class="edge"><title>Node2&#45;&gt;Node7</title>
<path fill="none" stroke="midnightblue" d="M664.415,-278.332C579.316,-271.923 435.036,-257.621 389,-232 360.489,-216.132 338.567,-183.561 327.651,-164.754"/>
<polygon fill="midnightblue" stroke="midnightblue" points="664.259,-281.83 674.489,-279.074 664.773,-274.849 664.259,-281.83"/>
</g>
<!-- Node10 -->
<g id="node10" class="node"><title>Node10</title>
<g id="a_node10"><a xlink:href="radio__display_8h.html" target="_top" xlink:title="D:/GIT/fhradiov2/radio\l/radio_display.h">
<polygon fill="white" stroke="black" points="674.5,-201.5 674.5,-231.5 783.5,-231.5 783.5,-201.5 674.5,-201.5"/>
<text text-anchor="start" x="682.5" y="-219.5" font-family="Helvetica,sans-Serif" font-size="10.00">D:/GIT/fhradiov2/radio</text>
<text text-anchor="middle" x="729" y="-208.5" font-family="Helvetica,sans-Serif" font-size="10.00">/radio_display.h</text>
</a>
</g>
</g>
<!-- Node2&#45;&gt;Node10 -->
<g id="edge11" class="edge"><title>Node2&#45;&gt;Node10</title>
<path fill="none" stroke="midnightblue" d="M722.455,-258.403C722.005,-249.37 722.296,-239.408 723.325,-231.577"/>
<polygon fill="midnightblue" stroke="midnightblue" points="718.97,-258.736 723.322,-268.396 725.944,-258.131 718.97,-258.736"/>
</g>
<!-- Node12 -->
<g id="node12" class="node"><title>Node12</title>
<g id="a_node12"><a xlink:href="radio__settings_8h.html" target="_top" xlink:title="D:/GIT/fhradiov2/radio\l/radio_settings.h">
<polygon fill="white" stroke="black" points="766.5,-67.5 766.5,-97.5 875.5,-97.5 875.5,-67.5 766.5,-67.5"/>
<text text-anchor="start" x="774.5" y="-85.5" font-family="Helvetica,sans-Serif" font-size="10.00">D:/GIT/fhradiov2/radio</text>
<text text-anchor="middle" x="821" y="-74.5" font-family="Helvetica,sans-Serif" font-size="10.00">/radio_settings.h</text>
</a>
</g>
</g>
<!-- Node2&#45;&gt;Node12 -->
<g id="edge14" class="edge"><title>Node2&#45;&gt;Node12</title>
<path fill="none" stroke="midnightblue" d="M754.306,-262.318C764.675,-254.204 775.787,-243.925 783,-232 809.374,-188.395 812.429,-125.598 816.279,-97.7388"/>
<polygon fill="midnightblue" stroke="midnightblue" points="752.152,-259.558 746.24,-268.35 756.344,-265.164 752.152,-259.558"/>
</g>
<!-- Node14 -->
<g id="node14" class="node"><title>Node14</title>
<g id="a_node14"><a xlink:href="radio_8c.html" target="_top" xlink:title="D:/GIT/fhradiov2/radio\l/src/radio.c">
<polygon fill="white" stroke="black" points="1052.5,-201.5 1052.5,-231.5 1161.5,-231.5 1161.5,-201.5 1052.5,-201.5"/>
<text text-anchor="start" x="1060.5" y="-219.5" font-family="Helvetica,sans-Serif" font-size="10.00">D:/GIT/fhradiov2/radio</text>
<text text-anchor="middle" x="1107" y="-208.5" font-family="Helvetica,sans-Serif" font-size="10.00">/src/radio.c</text>
</a>
</g>
</g>
<!-- Node2&#45;&gt;Node14 -->
<g id="edge17" class="edge"><title>Node2&#45;&gt;Node14</title>
<path fill="none" stroke="midnightblue" d="M793.704,-267.97C905.105,-247.835 935.742,-251.84 1043,-232 1046.02,-231.44 1049.12,-230.838 1052.25,-230.207"/>
<polygon fill="midnightblue" stroke="midnightblue" points="792.959,-264.548 783.753,-269.793 794.22,-271.433 792.959,-264.548"/>
</g>
<!-- Node2&#45;&gt;Node15 -->
<g id="edge19" class="edge"><title>Node2&#45;&gt;Node15</title>
<path fill="none" stroke="midnightblue" d="M664.559,-267.044C619.655,-256.273 560.231,-242.02 516.652,-231.568"/>
<polygon fill="midnightblue" stroke="midnightblue" points="663.945,-270.495 674.485,-269.424 665.577,-263.689 663.945,-270.495"/>
</g>
<!-- Node17 -->
<g id="node17" class="node"><title>Node17</title>
<g id="a_node17"><a xlink:href="rsq_8h.html" target="_top" xlink:title="D:/GIT/fhradiov2/system\l/rsq.h">
<polygon fill="white" stroke="black" points="536,-201.5 536,-231.5 656,-231.5 656,-201.5 536,-201.5"/>
<text text-anchor="start" x="544" y="-219.5" font-family="Helvetica,sans-Serif" font-size="10.00">D:/GIT/fhradiov2/system</text>
<text text-anchor="middle" x="596" y="-208.5" font-family="Helvetica,sans-Serif" font-size="10.00">/rsq.h</text>
</a>
</g>
</g>
<!-- Node2&#45;&gt;Node17 -->
<g id="edge22" class="edge"><title>Node2&#45;&gt;Node17</title>
<path fill="none" stroke="midnightblue" d="M691.13,-263.992C670.049,-253.689 644.223,-241.068 624.803,-231.577"/>
<polygon fill="midnightblue" stroke="midnightblue" points="689.62,-267.15 700.141,-268.396 692.693,-260.86 689.62,-267.15"/>
</g>
<!-- Node19 -->
<g id="node19" class="node"><title>Node19</title>
<g id="a_node19"><a xlink:href="station__list_8h.html" target="_top" xlink:title="D:/GIT/fhradiov2/system\l/station_list.h">
<polygon fill="white" stroke="black" points="858,-134.5 858,-164.5 978,-164.5 978,-134.5 858,-134.5"/>
<text text-anchor="start" x="866" y="-152.5" font-family="Helvetica,sans-Serif" font-size="10.00">D:/GIT/fhradiov2/system</text>
<text text-anchor="middle" x="918" y="-141.5" font-family="Helvetica,sans-Serif" font-size="10.00">/station_list.h</text>
</a>
</g>
</g>
<!-- Node2&#45;&gt;Node19 -->
<g id="edge25" class="edge"><title>Node2&#45;&gt;Node19</title>
<path fill="none" stroke="midnightblue" d="M773.659,-264.639C793.425,-256.416 816.29,-245.461 835,-232 861.838,-212.69 886.197,-182.259 901.949,-164.557"/>
<polygon fill="midnightblue" stroke="midnightblue" points="772.191,-261.457 764.237,-268.455 774.819,-267.945 772.191,-261.457"/>
</g>
<!-- Node21 -->
<g id="node21" class="node"><title>Node21</title>
<g id="a_node21"><a xlink:href="station__list__struct_8h.html" target="_top" xlink:title="D:/GIT/fhradiov2/system\l/station_list_struct.h">
<polygon fill="white" stroke="black" points="914,-201.5 914,-231.5 1034,-231.5 1034,-201.5 914,-201.5"/>
<text text-anchor="start" x="922" y="-219.5" font-family="Helvetica,sans-Serif" font-size="10.00">D:/GIT/fhradiov2/system</text>
<text text-anchor="middle" x="974" y="-208.5" font-family="Helvetica,sans-Serif" font-size="10.00">/station_list_struct.h</text>
</a>
</g>
</g>
<!-- Node2&#45;&gt;Node21 -->
<g id="edge29" class="edge"><title>Node2&#45;&gt;Node21</title>
<path fill="none" stroke="midnightblue" d="M791.758,-265.85C831.703,-255.252 882.87,-241.677 920.813,-231.611"/>
<polygon fill="midnightblue" stroke="midnightblue" points="790.628,-262.529 781.86,-268.476 792.423,-269.295 790.628,-262.529"/>
</g>
<!-- Node3&#45;&gt;Node2 -->
<g id="edge7" class="edge"><title>Node3&#45;&gt;Node2</title>
<path fill="none" stroke="midnightblue" d="M277.011,-225.212C380.308,-237.804 578.046,-262.619 674.073,-275.044"/>
<polygon fill="midnightblue" stroke="midnightblue" points="277.363,-221.729 267.013,-223.995 276.517,-228.678 277.363,-221.729"/>
</g>
<!-- Node4 -->
<g id="node4" class="node"><title>Node4</title>
<g id="a_node4"><a xlink:href="menu__struct_8h.html" target="_top" xlink:title="D:/GIT/fhradiov2/menu\l/menu_struct.h">
<polygon fill="white" stroke="black" points="0,-134.5 0,-164.5 112,-164.5 112,-134.5 0,-134.5"/>
<text text-anchor="start" x="8" y="-152.5" font-family="Helvetica,sans-Serif" font-size="10.00">D:/GIT/fhradiov2/menu</text>
<text text-anchor="middle" x="56" y="-141.5" font-family="Helvetica,sans-Serif" font-size="10.00">/menu_struct.h</text>
</a>
</g>
</g>
<!-- Node3&#45;&gt;Node4 -->
<g id="edge3" class="edge"><title>Node3&#45;&gt;Node4</title>
<path fill="none" stroke="midnightblue" d="M162.073,-197.544C136.29,-187.143 105.661,-174.238 83.8922,-164.577"/>
<polygon fill="midnightblue" stroke="midnightblue" points="161.104,-200.927 171.689,-201.396 163.707,-194.428 161.104,-200.927"/>
</g>
<!-- Node6 -->
<g id="node6" class="node"><title>Node6</title>
<g id="a_node6"><a xlink:href="menu_8c.html" target="_top" xlink:title="D:/GIT/fhradiov2/menu\l/src/menu.c">
<polygon fill="white" stroke="black" points="130,-134.5 130,-164.5 242,-164.5 242,-134.5 130,-134.5"/>
<text text-anchor="start" x="138" y="-152.5" font-family="Helvetica,sans-Serif" font-size="10.00">D:/GIT/fhradiov2/menu</text>
<text text-anchor="middle" x="186" y="-141.5" font-family="Helvetica,sans-Serif" font-size="10.00">/src/menu.c</text>
</a>
</g>
</g>
<!-- Node3&#45;&gt;Node6 -->
<g id="edge6" class="edge"><title>Node3&#45;&gt;Node6</title>
<path fill="none" stroke="midnightblue" d="M201.958,-191.991C198.425,-182.804 194.492,-172.578 191.414,-164.577"/>
<polygon fill="midnightblue" stroke="midnightblue" points="198.719,-193.319 205.575,-201.396 205.252,-190.806 198.719,-193.319"/>
</g>
<!-- Node3&#45;&gt;Node7 -->
<g id="edge8" class="edge"><title>Node3&#45;&gt;Node7</title>
<path fill="none" stroke="midnightblue" d="M243.675,-196.015C260.637,-185.9 280.978,-173.77 296.395,-164.577"/>
<polygon fill="midnightblue" stroke="midnightblue" points="241.448,-193.268 234.651,-201.396 245.033,-199.28 241.448,-193.268"/>
</g>
<!-- Node4&#45;&gt;Node3 -->
<g id="edge4" class="edge"><title>Node4&#45;&gt;Node3</title>
<path fill="none" stroke="midnightblue" d="M104.854,-168.426C130.628,-178.823 161.26,-191.728 183.046,-201.396"/>
<polygon fill="midnightblue" stroke="midnightblue" points="105.826,-165.046 95.2419,-164.577 103.224,-171.544 105.826,-165.046"/>
</g>
<!-- Node5 -->
<g id="node5" class="node"><title>Node5</title>
<g id="a_node5"><a xlink:href="menu__struct_8c.html" target="_top" xlink:title="D:/GIT/fhradiov2/menu\l/src/menu_struct.c">
<polygon fill="white" stroke="black" points="0,-67.5 0,-97.5 112,-97.5 112,-67.5 0,-67.5"/>
<text text-anchor="start" x="8" y="-85.5" font-family="Helvetica,sans-Serif" font-size="10.00">D:/GIT/fhradiov2/menu</text>
<text text-anchor="middle" x="56" y="-74.5" font-family="Helvetica,sans-Serif" font-size="10.00">/src/menu_struct.c</text>
</a>
</g>
</g>
<!-- Node4&#45;&gt;Node5 -->
<g id="edge5" class="edge"><title>Node4&#45;&gt;Node5</title>
<path fill="none" stroke="midnightblue" d="M56,-124.108C56,-115.154 56,-105.323 56,-97.5765"/>
<polygon fill="midnightblue" stroke="midnightblue" points="52.5001,-124.396 56,-134.396 59.5001,-124.396 52.5001,-124.396"/>
</g>
<!-- Node8 -->
<g id="node8" class="node"><title>Node8</title>
<g id="a_node8"><a xlink:href="main_8c.html" target="_top" xlink:title="D:/GIT/fhradiov2/main.c">
<polygon fill="white" stroke="black" points="196.5,-73 196.5,-92 313.5,-92 313.5,-73 196.5,-73"/>
<text text-anchor="middle" x="255" y="-80" font-family="Helvetica,sans-Serif" font-size="10.00">D:/GIT/fhradiov2/main.c</text>
</a>
</g>
</g>
<!-- Node7&#45;&gt;Node8 -->
<g id="edge9" class="edge"><title>Node7&#45;&gt;Node8</title>
<path fill="none" stroke="midnightblue" d="M298.497,-126.997C286.632,-115.132 272.552,-101.052 263.695,-92.1945"/>
<polygon fill="midnightblue" stroke="midnightblue" points="296.35,-129.8 305.896,-134.396 301.3,-124.85 296.35,-129.8"/>
</g>
<!-- Node9 -->
<g id="node9" class="node"><title>Node9</title>
<g id="a_node9"><a xlink:href="handler_8c.html" target="_top" xlink:title="D:/GIT/fhradiov2/system\l/src/handler.c">
<polygon fill="white" stroke="black" points="332,-67.5 332,-97.5 452,-97.5 452,-67.5 332,-67.5"/>
<text text-anchor="start" x="340" y="-85.5" font-family="Helvetica,sans-Serif" font-size="10.00">D:/GIT/fhradiov2/system</text>
<text text-anchor="middle" x="392" y="-74.5" font-family="Helvetica,sans-Serif" font-size="10.00">/src/handler.c</text>
</a>
</g>
</g>
<!-- Node7&#45;&gt;Node9 -->
<g id="edge10" class="edge"><title>Node7&#45;&gt;Node9</title>
<path fill="none" stroke="midnightblue" d="M343.153,-127.598C354.025,-117.783 366.696,-106.344 376.408,-97.5765"/>
<polygon fill="midnightblue" stroke="midnightblue" points="340.7,-125.097 335.623,-134.396 345.391,-130.293 340.7,-125.097"/>
</g>
<!-- Node10&#45;&gt;Node2 -->
<g id="edge12" class="edge"><title>Node10&#45;&gt;Node2</title>
<path fill="none" stroke="midnightblue" d="M735.544,-241.565C735.995,-250.596 735.706,-260.56 734.678,-268.396"/>
<polygon fill="midnightblue" stroke="midnightblue" points="739.028,-241.236 734.675,-231.577 732.055,-241.842 739.028,-241.236"/>
</g>
<!-- Node11 -->
<g id="node11" class="node"><title>Node11</title>
<g id="a_node11"><a xlink:href="radio__display_8c.html" target="_top" xlink:title="D:/GIT/fhradiov2/radio\l/src/radio_display.c">
<polygon fill="white" stroke="black" points="674.5,-134.5 674.5,-164.5 783.5,-164.5 783.5,-134.5 674.5,-134.5"/>
<text text-anchor="start" x="682.5" y="-152.5" font-family="Helvetica,sans-Serif" font-size="10.00">D:/GIT/fhradiov2/radio</text>
<text text-anchor="middle" x="729" y="-141.5" font-family="Helvetica,sans-Serif" font-size="10.00">/src/radio_display.c</text>
</a>
</g>
</g>
<!-- Node10&#45;&gt;Node11 -->
<g id="edge13" class="edge"><title>Node10&#45;&gt;Node11</title>
<path fill="none" stroke="midnightblue" d="M729,-191.108C729,-182.154 729,-172.323 729,-164.577"/>
<polygon fill="midnightblue" stroke="midnightblue" points="725.5,-191.396 729,-201.396 732.5,-191.396 725.5,-191.396"/>
</g>
<!-- Node12&#45;&gt;Node2 -->
<g id="edge15" class="edge"><title>Node12&#45;&gt;Node2</title>
<path fill="none" stroke="midnightblue" d="M827.478,-108.063C829.482,-139.106 824.489,-193.165 801,-232 791.859,-247.113 776.455,-259.583 762.094,-268.35"/>
<polygon fill="midnightblue" stroke="midnightblue" points="830.924,-107.341 826.445,-97.7388 823.958,-108.038 830.924,-107.341"/>
</g>
<!-- Node13 -->
<g id="node13" class="node"><title>Node13</title>
<g id="a_node13"><a xlink:href="radio__settings_8c.html" target="_top" xlink:title="D:/GIT/fhradiov2/radio\l/src/radio_settings.c">
<polygon fill="white" stroke="black" points="766.5,-0.5 766.5,-30.5 875.5,-30.5 875.5,-0.5 766.5,-0.5"/>
<text text-anchor="start" x="774.5" y="-18.5" font-family="Helvetica,sans-Serif" font-size="10.00">D:/GIT/fhradiov2/radio</text>
<text text-anchor="middle" x="821" y="-7.5" font-family="Helvetica,sans-Serif" font-size="10.00">/src/radio_settings.c</text>
</a>
</g>
</g>
<!-- Node12&#45;&gt;Node13 -->
<g id="edge16" class="edge"><title>Node12&#45;&gt;Node13</title>
<path fill="none" stroke="midnightblue" d="M821,-57.1081C821,-48.1539 821,-38.3227 821,-30.5765"/>
<polygon fill="midnightblue" stroke="midnightblue" points="817.5,-57.3959 821,-67.396 824.5,-57.396 817.5,-57.3959"/>
</g>
<!-- Node15&#45;&gt;Node7 -->
<g id="edge20" class="edge"><title>Node15&#45;&gt;Node7</title>
<path fill="none" stroke="midnightblue" d="M419,-197.131C397.073,-186.802 370.126,-174.11 349.886,-164.577"/>
<polygon fill="midnightblue" stroke="midnightblue" points="417.518,-200.301 428.056,-201.396 420.501,-193.968 417.518,-200.301"/>
</g>
<!-- Node16 -->
<g id="node16" class="node"><title>Node16</title>
<g id="a_node16"><a xlink:href="rds_8c.html" target="_top" xlink:title="D:/GIT/fhradiov2/system\l/src/rds.c">
<polygon fill="white" stroke="black" points="398,-134.5 398,-164.5 518,-164.5 518,-134.5 398,-134.5"/>
<text text-anchor="start" x="406" y="-152.5" font-family="Helvetica,sans-Serif" font-size="10.00">D:/GIT/fhradiov2/system</text>
<text text-anchor="middle" x="458" y="-141.5" font-family="Helvetica,sans-Serif" font-size="10.00">/src/rds.c</text>
</a>
</g>
</g>
<!-- Node15&#45;&gt;Node16 -->
<g id="edge21" class="edge"><title>Node15&#45;&gt;Node16</title>
<path fill="none" stroke="midnightblue" d="M458,-191.108C458,-182.154 458,-172.323 458,-164.577"/>
<polygon fill="midnightblue" stroke="midnightblue" points="454.5,-191.396 458,-201.396 461.5,-191.396 454.5,-191.396"/>
</g>
<!-- Node17&#45;&gt;Node7 -->
<g id="edge23" class="edge"><title>Node17&#45;&gt;Node7</title>
<path fill="none" stroke="midnightblue" d="M526.442,-199.119C481.28,-188.483 423.023,-174.763 379.917,-164.611"/>
<polygon fill="midnightblue" stroke="midnightblue" points="525.916,-202.59 536.452,-201.476 527.521,-195.777 525.916,-202.59"/>
</g>
<!-- Node18 -->
<g id="node18" class="node"><title>Node18</title>
<g id="a_node18"><a xlink:href="rsq_8c.html" target="_top" xlink:title="D:/GIT/fhradiov2/system\l/src/rsq.c">
<polygon fill="white" stroke="black" points="536,-134.5 536,-164.5 656,-164.5 656,-134.5 536,-134.5"/>
<text text-anchor="start" x="544" y="-152.5" font-family="Helvetica,sans-Serif" font-size="10.00">D:/GIT/fhradiov2/system</text>
<text text-anchor="middle" x="596" y="-141.5" font-family="Helvetica,sans-Serif" font-size="10.00">/src/rsq.c</text>
</a>
</g>
</g>
<!-- Node17&#45;&gt;Node18 -->
<g id="edge24" class="edge"><title>Node17&#45;&gt;Node18</title>
<path fill="none" stroke="midnightblue" d="M596,-191.108C596,-182.154 596,-172.323 596,-164.577"/>
<polygon fill="midnightblue" stroke="midnightblue" points="592.5,-191.396 596,-201.396 599.5,-191.396 592.5,-191.396"/>
</g>
<!-- Node19&#45;&gt;Node2 -->
<g id="edge26" class="edge"><title>Node19&#45;&gt;Node2</title>
<path fill="none" stroke="midnightblue" d="M908.955,-173.203C896.911,-191.048 875.855,-215.556 853,-232 831.229,-247.664 803.831,-259.934 780.24,-268.455"/>
<polygon fill="midnightblue" stroke="midnightblue" points="912.032,-174.885 914.394,-164.557 906.107,-171.158 912.032,-174.885"/>
</g>
<!-- Node19&#45;&gt;Node12 -->
<g id="edge27" class="edge"><title>Node19&#45;&gt;Node12</title>
<path fill="none" stroke="midnightblue" d="M888.503,-128.734C873.493,-118.676 855.599,-106.685 842.006,-97.5765"/>
<polygon fill="midnightblue" stroke="midnightblue" points="886.697,-131.737 896.952,-134.396 890.594,-125.922 886.697,-131.737"/>
</g>
<!-- Node20 -->
<g id="node20" class="node"><title>Node20</title>
<g id="a_node20"><a xlink:href="station__list_8c.html" target="_top" xlink:title="D:/GIT/fhradiov2/system\l/src/station_list.c">
<polygon fill="white" stroke="black" points="894,-67.5 894,-97.5 1014,-97.5 1014,-67.5 894,-67.5"/>
<text text-anchor="start" x="902" y="-85.5" font-family="Helvetica,sans-Serif" font-size="10.00">D:/GIT/fhradiov2/system</text>
<text text-anchor="middle" x="954" y="-74.5" font-family="Helvetica,sans-Serif" font-size="10.00">/src/station_list.c</text>
</a>
</g>
</g>
<!-- Node19&#45;&gt;Node20 -->
<g id="edge28" class="edge"><title>Node19&#45;&gt;Node20</title>
<path fill="none" stroke="midnightblue" d="M930.697,-125.576C935.867,-116.241 941.678,-105.748 946.204,-97.5765"/>
<polygon fill="midnightblue" stroke="midnightblue" points="927.595,-123.952 925.811,-134.396 933.718,-127.344 927.595,-123.952"/>
</g>
<!-- Node21&#45;&gt;Node19 -->
<g id="edge31" class="edge"><title>Node21&#45;&gt;Node19</title>
<path fill="none" stroke="midnightblue" d="M955.25,-193.736C946.964,-184.119 937.461,-173.089 930.127,-164.577"/>
<polygon fill="midnightblue" stroke="midnightblue" points="952.67,-196.104 961.849,-201.396 957.973,-191.535 952.67,-196.104"/>
</g>
<!-- Node22 -->
<g id="node22" class="node"><title>Node22</title>
<g id="a_node22"><a xlink:href="station__list__struct_8c.html" target="_top" xlink:title="D:/GIT/fhradiov2/system\l/src/station_list_struct.c">
<polygon fill="white" stroke="black" points="996,-134.5 996,-164.5 1118,-164.5 1118,-134.5 996,-134.5"/>
<text text-anchor="start" x="1004" y="-152.5" font-family="Helvetica,sans-Serif" font-size="10.00">D:/GIT/fhradiov2/system</text>
<text text-anchor="middle" x="1057" y="-141.5" font-family="Helvetica,sans-Serif" font-size="10.00">/src/station_list_struct.c</text>
</a>
</g>
</g>
<!-- Node21&#45;&gt;Node22 -->
<g id="edge30" class="edge"><title>Node21&#45;&gt;Node22</title>
<path fill="none" stroke="midnightblue" d="M999.963,-195.168C1012.65,-185.228 1027.61,-173.514 1039.03,-164.577"/>
<polygon fill="midnightblue" stroke="midnightblue" points="997.725,-192.475 992.01,-201.396 1002.04,-197.986 997.725,-192.475"/>
</g>
</g>
</svg>
        <g id="navigator" transform="translate(0 0)" fill="#404254">
                <rect fill="#f2f5e9" fill-opacity="0.5" stroke="#606060" stroke-width=".5" x="0" y="0" width="60" height="60"/>
                <use id="zoomplus" xlink:href="#zoomPlus" x="17" y="9" onmousedown="handleZoom(evt,'in')"/>
                <use id="zoomminus" xlink:href="#zoomMin" x="42" y="9" onmousedown="handleZoom(evt,'out')"/>
                <use id="reset" xlink:href="#resetDef" x="30" y="36" onmousedown="handleReset()"/>
                <g id="arrowUp" xlink:href="#dirArrow" transform="translate(30 24)" onmousedown="handlePan(0,-1)">
                  <use xlink:href="#rim" fill="#404040">
                        <set attributeName="fill" to="#808080" begin="arrowUp.mouseover" end="arrowUp.mouseout"/>
                  </use>
                  <path fill="none" stroke="white" stroke-width="1.5" d="M0,-3.0v7 M-2.5,-0.5L0,-3.0L2.5,-0.5"/>
                </g>
                <g id="arrowRight" xlink:href="#dirArrow" transform="rotate(90) translate(36 -43)" onmousedown="handlePan(1,0)">
                  <use xlink:href="#rim" fill="#404040">
                        <set attributeName="fill" to="#808080" begin="arrowRight.mouseover" end="arrowRight.mouseout"/>
                  </use>
                  <path fill="none" stroke="white" stroke-width="1.5" d="M0,-3.0v7 M-2.5,-0.5L0,-3.0L2.5,-0.5"/>
                </g>
                <g id="arrowDown" xlink:href="#dirArrow" transform="rotate(180) translate(-30 -48)" onmousedown="handlePan(0,1)">
                  <use xlink:href="#rim" fill="#404040">
                        <set attributeName="fill" to="#808080" begin="arrowDown.mouseover" end="arrowDown.mouseout"/>
                  </use>
                  <path fill="none" stroke="white" stroke-width="1.5" d="M0,-3.0v7 M-2.5,-0.5L0,-3.0L2.5,-0.5"/>
                </g>
                <g id="arrowLeft" xlink:href="#dirArrow" transform="rotate(270) translate(-36 17)" onmousedown="handlePan(-1,0)">
                  <use xlink:href="#rim" fill="#404040">
                        <set attributeName="fill" to="#808080" begin="arrowLeft.mouseover" end="arrowLeft.mouseout"/>
                  </use>
                  <path fill="none" stroke="white" stroke-width="1.5" d="M0,-3.0v7 M-2.5,-0.5L0,-3.0L2.5,-0.5"/>
                </g>
        </g>
        <svg viewBox="0 0 15 15" width="100%" height="30px" preserveAspectRatio="xMaxYMin meet">
         <g id="arrow_out" transform="scale(0.3 0.3)">
          <a xlink:href="system_2time_8h__dep__incl_org.svg" target="_base">
           <rect id="button" ry="5" rx="5" y="6" x="6" height="38" width="38"
                fill="#f2f5e9" fill-opacity="0.5" stroke="#606060" stroke-width="1.0"/>
           <path id="arrow"
             d="M 11.500037,31.436501 C 11.940474,20.09759 22.043105,11.32322 32.158766,21.979434 L 37.068811,17.246167 C 37.068811,17.246167 37.088388,32 37.088388,32 L 22.160133,31.978069 C 22.160133,31.978069 26.997745,27.140456 26.997745,27.140456 C 18.528582,18.264221 13.291696,25.230495 11.500037,31.436501 z"
             style="fill:#404040;"/>
          </a>
         </g>
        </svg>
</svg>
