<?xml version="1.0" encoding="UTF-8" standalone="no"?>
<!DOCTYPE svg PUBLIC "-//W3C//DTD SVG 1.1//EN"
 "http://www.w3.org/Graphics/SVG/1.1/DTD/svg11.dtd">
<!-- Generated by graphviz version 2.38.0 (20140413.2041)
 -->
<!-- Title: Amplifier_set_equalizer_mode Pages: 1 -->
<svg width="688pt" height="66pt"
 viewBox="0.00 0.00 688.00 66.00" xmlns="http://www.w3.org/2000/svg" xmlns:xlink="http://www.w3.org/1999/xlink">
<g id="graph0" class="graph" transform="scale(1 1) rotate(0) translate(4 62)">
<title>Amplifier_set_equalizer_mode</title>
<polygon fill="white" stroke="none" points="-4,4 -4,-62 684,-62 684,4 -4,4"/>
<!-- Node1 -->
<g id="node1" class="node"><title>Node1</title>
<polygon fill="#bfbfbf" stroke="black" points="0,-19.5 0,-38.5 146,-38.5 146,-19.5 0,-19.5"/>
<text text-anchor="middle" x="73" y="-26.5" font-family="Helvetica,sans-Serif" font-size="10.00">Amplifier_set_equalizer_mode</text>
</g>
<!-- Node2 -->
<g id="node2" class="node"><title>Node2</title>
<g id="a_node2"><a xlink:href="tpa2016d2_8h.html#a69f931d3974bd6188f078754326405d3" target="_top" xlink:title="Amplifier_init">
<polygon fill="white" stroke="black" points="187,-38.5 187,-57.5 259,-57.5 259,-38.5 187,-38.5"/>
<text text-anchor="middle" x="223" y="-45.5" font-family="Helvetica,sans-Serif" font-size="10.00">Amplifier_init</text>
</a>
</g>
</g>
<!-- Node1&#45;&gt;Node2 -->
<g id="edge1" class="edge"><title>Node1&#45;&gt;Node2</title>
<path fill="none" stroke="midnightblue" d="M156.488,-39.5896C167.104,-40.9525 177.484,-42.2851 186.738,-43.4732"/>
<polygon fill="midnightblue" stroke="midnightblue" points="156.63,-36.0793 146.266,-38.2774 155.739,-43.0223 156.63,-36.0793"/>
</g>
<!-- Node5 -->
<g id="node5" class="node"><title>Node5</title>
<g id="a_node5"><a xlink:href="radio_8c.html#aaaca9764d77849b9d1aeae47e691bf75" target="_top" xlink:title="radio_equalizer">
<polygon fill="white" stroke="black" points="182,-0.5 182,-19.5 264,-19.5 264,-0.5 182,-0.5"/>
<text text-anchor="middle" x="223" y="-7.5" font-family="Helvetica,sans-Serif" font-size="10.00">radio_equalizer</text>
</a>
</g>
</g>
<!-- Node1&#45;&gt;Node5 -->
<g id="edge4" class="edge"><title>Node1&#45;&gt;Node5</title>
<path fill="none" stroke="midnightblue" d="M156.245,-18.4416C165.048,-17.3114 173.693,-16.2015 181.674,-15.1769"/>
<polygon fill="midnightblue" stroke="midnightblue" points="155.739,-14.9777 146.266,-19.7226 156.63,-21.9207 155.739,-14.9777"/>
</g>
<!-- Node3 -->
<g id="node3" class="node"><title>Node3</title>
<g id="a_node3"><a xlink:href="radio_8c.html#a3a1de7e31aabba6e408a633c130e618a" target="_top" xlink:title="radio_init">
<polygon fill="white" stroke="black" points="425,-38.5 425,-57.5 481,-57.5 481,-38.5 425,-38.5"/>
<text text-anchor="middle" x="453" y="-45.5" font-family="Helvetica,sans-Serif" font-size="10.00">radio_init</text>
</a>
</g>
</g>
<!-- Node2&#45;&gt;Node3 -->
<g id="edge2" class="edge"><title>Node2&#45;&gt;Node3</title>
<path fill="none" stroke="midnightblue" d="M269.208,-48C315.589,-48 386.237,-48 424.708,-48"/>
<polygon fill="midnightblue" stroke="midnightblue" points="269.125,-44.5001 259.125,-48 269.125,-51.5001 269.125,-44.5001"/>
</g>
<!-- Node4 -->
<g id="node4" class="node"><title>Node4</title>
<g id="a_node4"><a xlink:href="main_8c.html#a840291bc02cba5474a4cb46a9b9566fe" target="_top" xlink:title="main">
<polygon fill="white" stroke="black" points="642,-19.5 642,-38.5 680,-38.5 680,-19.5 642,-19.5"/>
<text text-anchor="middle" x="661" y="-26.5" font-family="Helvetica,sans-Serif" font-size="10.00">main</text>
</a>
</g>
</g>
<!-- Node3&#45;&gt;Node4 -->
<g id="edge3" class="edge"><title>Node3&#45;&gt;Node4</title>
<path fill="none" stroke="midnightblue" d="M491.491,-44.5421C536.013,-40.4357 608.452,-33.7544 641.954,-30.6645"/>
<polygon fill="midnightblue" stroke="midnightblue" points="490.991,-41.0732 481.355,-45.4769 491.634,-48.0436 490.991,-41.0732"/>
</g>
<!-- Node6 -->
<g id="node6" class="node"><title>Node6</title>
<g id="a_node6"><a xlink:href="radio_8c.html#a832a684fc60104296fc975a7608f92b4" target="_top" xlink:title="radio_settings">
<polygon fill="white" stroke="black" points="300,-0.5 300,-19.5 377,-19.5 377,-0.5 300,-0.5"/>
<text text-anchor="middle" x="338.5" y="-7.5" font-family="Helvetica,sans-Serif" font-size="10.00">radio_settings</text>
</a>
</g>
</g>
<!-- Node5&#45;&gt;Node6 -->
<g id="edge5" class="edge"><title>Node5&#45;&gt;Node6</title>
<path fill="none" stroke="midnightblue" d="M274.293,-10C282.843,-10 291.591,-10 299.747,-10"/>
<polygon fill="midnightblue" stroke="midnightblue" points="274.016,-6.5001 264.016,-10 274.016,-13.5001 274.016,-6.5001"/>
</g>
<!-- Node7 -->
<g id="node7" class="node"><title>Node7</title>
<g id="a_node7"><a xlink:href="menu_2src_2menu_8c.html#a5d9c190838195d7872fc7067269e20fa" target="_top" xlink:title="menu_function">
<polygon fill="white" stroke="black" points="413,-0.5 413,-19.5 493,-19.5 493,-0.5 413,-0.5"/>
<text text-anchor="middle" x="453" y="-7.5" font-family="Helvetica,sans-Serif" font-size="10.00">menu_function</text>
</a>
</g>
</g>
<!-- Node6&#45;&gt;Node7 -->
<g id="edge6" class="edge"><title>Node6&#45;&gt;Node7</title>
<path fill="none" stroke="midnightblue" d="M387.474,-10C395.985,-10 404.755,-10 412.981,-10"/>
<polygon fill="midnightblue" stroke="midnightblue" points="387.274,-6.5001 377.274,-10 387.274,-13.5001 387.274,-6.5001"/>
</g>
<!-- Node8 -->
<g id="node8" class="node"><title>Node8</title>
<g id="a_node8"><a xlink:href="menu_2src_2menu_8c.html#aaf2a075d3159f7eeab42012941a3437f" target="_top" xlink:title="menu_handler">
<polygon fill="white" stroke="black" points="529,-0.5 529,-19.5 606,-19.5 606,-0.5 529,-0.5"/>
<text text-anchor="middle" x="567.5" y="-7.5" font-family="Helvetica,sans-Serif" font-size="10.00">menu_handler</text>
</a>
</g>
</g>
<!-- Node7&#45;&gt;Node8 -->
<g id="edge7" class="edge"><title>Node7&#45;&gt;Node8</title>
<path fill="none" stroke="midnightblue" d="M503.262,-10C511.783,-10 520.52,-10 528.676,-10"/>
<polygon fill="midnightblue" stroke="midnightblue" points="503.031,-6.5001 493.031,-10 503.031,-13.5001 503.031,-6.5001"/>
</g>
<!-- Node8&#45;&gt;Node4 -->
<g id="edge8" class="edge"><title>Node8&#45;&gt;Node4</title>
<path fill="none" stroke="midnightblue" d="M616.072,-19.8783C625.156,-21.7646 634.144,-23.631 641.601,-25.1793"/>
<polygon fill="midnightblue" stroke="midnightblue" points="616.748,-16.444 606.245,-17.8377 615.324,-23.2978 616.748,-16.444"/>
</g>
</g>
</svg>
