<?xml version="1.0" encoding="UTF-8" standalone="no"?>
<!DOCTYPE svg PUBLIC "-//W3C//DTD SVG 1.1//EN"
 "http://www.w3.org/Graphics/SVG/1.1/DTD/svg11.dtd">
<!-- Generated by graphviz version 2.38.0 (20140413.2041)
 -->
<!-- Title: Amplifier_init Pages: 1 -->
<svg width="593pt" height="104pt"
 viewBox="0.00 0.00 593.00 104.00" xmlns="http://www.w3.org/2000/svg" xmlns:xlink="http://www.w3.org/1999/xlink">
<g id="graph0" class="graph" transform="scale(1 1) rotate(0) translate(4 100)">
<title>Amplifier_init</title>
<polygon fill="white" stroke="none" points="-4,4 -4,-100 589,-100 589,4 -4,4"/>
<!-- Node1 -->
<g id="node1" class="node"><title>Node1</title>
<polygon fill="#bfbfbf" stroke="black" points="0,-38.5 0,-57.5 72,-57.5 72,-38.5 0,-38.5"/>
<text text-anchor="middle" x="36" y="-45.5" font-family="Helvetica,sans-Serif" font-size="10.00">Amplifier_init</text>
</g>
<!-- Node2 -->
<g id="node2" class="node"><title>Node2</title>
<g id="a_node2"><a xlink:href="timer_8c.html#a276d5cb665b9f8b2c79e53e2f2c5b4f0" target="_top" xlink:title="_delay_ms">
<polygon fill="white" stroke="black" points="294,-76.5 294,-95.5 358,-95.5 358,-76.5 294,-76.5"/>
<text text-anchor="middle" x="326" y="-83.5" font-family="Helvetica,sans-Serif" font-size="10.00">_delay_ms</text>
</a>
</g>
</g>
<!-- Node1&#45;&gt;Node2 -->
<g id="edge1" class="edge"><title>Node1&#45;&gt;Node2</title>
<path fill="none" stroke="midnightblue" d="M72.2885,-55.5693C83.6537,-57.8431 96.327,-60.2069 108,-62 169.043,-71.3768 240.288,-78.5398 284.02,-82.5085"/>
<polygon fill="midnightblue" stroke="midnightblue" points="283.715,-85.9952 293.988,-83.4009 284.34,-79.0231 283.715,-85.9952"/>
</g>
<!-- Node4 -->
<g id="node4" class="node"><title>Node4</title>
<g id="a_node4"><a xlink:href="i2c_8h.html#a6691e5911f539e1e8178c6e983e8079a" target="_top" xlink:title="Transmits I2C commands with a variable length to a I2C slave. ">
<polygon fill="white" stroke="black" points="290,-38.5 290,-57.5 362,-57.5 362,-38.5 290,-38.5"/>
<text text-anchor="middle" x="326" y="-45.5" font-family="Helvetica,sans-Serif" font-size="10.00">i2c_write_var</text>
</a>
</g>
</g>
<!-- Node1&#45;&gt;Node4 -->
<g id="edge3" class="edge"><title>Node1&#45;&gt;Node4</title>
<path fill="none" stroke="midnightblue" d="M72.0265,-48C124.101,-48 221.964,-48 279.511,-48"/>
<polygon fill="midnightblue" stroke="midnightblue" points="279.767,-51.5001 289.767,-48 279.767,-44.5001 279.767,-51.5001"/>
</g>
<!-- Node6 -->
<g id="node6" class="node"><title>Node6</title>
<g id="a_node6"><a xlink:href="tpa2016d2_8c.html#a52781315d0f308dba4aee65a749da317" target="_top" xlink:title="Amplifier_set_equalizer_mode">
<polygon fill="white" stroke="black" points="108,-0.5 108,-19.5 254,-19.5 254,-0.5 108,-0.5"/>
<text text-anchor="middle" x="181" y="-7.5" font-family="Helvetica,sans-Serif" font-size="10.00">Amplifier_set_equalizer_mode</text>
</a>
</g>
</g>
<!-- Node1&#45;&gt;Node6 -->
<g id="edge6" class="edge"><title>Node1&#45;&gt;Node6</title>
<path fill="none" stroke="midnightblue" d="M72.3483,-38.6067C91.0274,-33.6431 114.174,-27.4924 134.212,-22.1676"/>
<polygon fill="midnightblue" stroke="midnightblue" points="135.299,-25.5 144.065,-19.5491 133.502,-18.7348 135.299,-25.5"/>
</g>
<!-- Node3 -->
<g id="node3" class="node"><title>Node3</title>
<g id="a_node3"><a xlink:href="timer_8c.html#a3c56af3315c2461dec5ced585a5f84db" target="_top" xlink:title="_delay_ten_us">
<polygon fill="white" stroke="black" points="505,-57.5 505,-76.5 585,-76.5 585,-57.5 505,-57.5"/>
<text text-anchor="middle" x="545" y="-64.5" font-family="Helvetica,sans-Serif" font-size="10.00">_delay_ten_us</text>
</a>
</g>
</g>
<!-- Node2&#45;&gt;Node3 -->
<g id="edge2" class="edge"><title>Node2&#45;&gt;Node3</title>
<path fill="none" stroke="midnightblue" d="M358.091,-83.2778C393.818,-80.1495 452.912,-74.9754 494.879,-71.3009"/>
<polygon fill="midnightblue" stroke="midnightblue" points="495.231,-74.7836 504.887,-70.4246 494.62,-67.8103 495.231,-74.7836"/>
</g>
<!-- Node5 -->
<g id="node5" class="node"><title>Node5</title>
<g id="a_node5"><a xlink:href="i2c_8c.html#ae0625b97d3437bcaca4ac4b96dd01978" target="_top" xlink:title="Transmits I2C command array to a I2C slave. ">
<polygon fill="white" stroke="black" points="398,-38.5 398,-57.5 469,-57.5 469,-38.5 398,-38.5"/>
<text text-anchor="middle" x="433.5" y="-45.5" font-family="Helvetica,sans-Serif" font-size="10.00">i2c_write_arr</text>
</a>
</g>
</g>
<!-- Node4&#45;&gt;Node5 -->
<g id="edge4" class="edge"><title>Node4&#45;&gt;Node5</title>
<path fill="none" stroke="midnightblue" d="M362.13,-48C370.312,-48 379.133,-48 387.671,-48"/>
<polygon fill="midnightblue" stroke="midnightblue" points="387.882,-51.5001 397.882,-48 387.882,-44.5001 387.882,-51.5001"/>
</g>
<!-- Node5&#45;&gt;Node3 -->
<g id="edge5" class="edge"><title>Node5&#45;&gt;Node3</title>
<path fill="none" stroke="midnightblue" d="M469.146,-54.0117C477.253,-55.4183 486.042,-56.9433 494.651,-58.4371"/>
<polygon fill="midnightblue" stroke="midnightblue" points="494.172,-61.9062 504.623,-60.1674 495.368,-55.0092 494.172,-61.9062"/>
</g>
<!-- Node6&#45;&gt;Node4 -->
<g id="edge7" class="edge"><title>Node6&#45;&gt;Node4</title>
<path fill="none" stroke="midnightblue" d="M218.085,-19.589C236.913,-24.5922 260.124,-30.7601 280.102,-36.0692"/>
<polygon fill="midnightblue" stroke="midnightblue" points="279.352,-39.4911 289.915,-38.6768 281.15,-32.7259 279.352,-39.4911"/>
</g>
</g>
</svg>
