<?xml version="1.0" encoding="UTF-8" standalone="no"?>
<!DOCTYPE svg PUBLIC "-//W3C//DTD SVG 1.1//EN"
 "http://www.w3.org/Graphics/SVG/1.1/DTD/svg11.dtd">
<!-- Generated by graphviz version 2.38.0 (20140413.2041)
 -->
<!-- Title: Amplifier_Shutdown Pages: 1 -->
<svg width="441pt" height="28pt"
 viewBox="0.00 0.00 441.00 28.00" xmlns="http://www.w3.org/2000/svg" xmlns:xlink="http://www.w3.org/1999/xlink">
<g id="graph0" class="graph" transform="scale(1 1) rotate(0) translate(4 24)">
<title>Amplifier_Shutdown</title>
<polygon fill="white" stroke="none" points="-4,4 -4,-24 437,-24 437,4 -4,4"/>
<!-- Node1 -->
<g id="node1" class="node"><title>Node1</title>
<polygon fill="#bfbfbf" stroke="black" points="0,-0.5 0,-19.5 102,-19.5 102,-0.5 0,-0.5"/>
<text text-anchor="middle" x="51" y="-7.5" font-family="Helvetica,sans-Serif" font-size="10.00">Amplifier_Shutdown</text>
</g>
<!-- Node2 -->
<g id="node2" class="node"><title>Node2</title>
<g id="a_node2"><a xlink:href="i2c_8h.html#a6691e5911f539e1e8178c6e983e8079a" target="_top" xlink:title="Transmits I2C commands with a variable length to a I2C slave. ">
<polygon fill="white" stroke="black" points="138,-0.5 138,-19.5 210,-19.5 210,-0.5 138,-0.5"/>
<text text-anchor="middle" x="174" y="-7.5" font-family="Helvetica,sans-Serif" font-size="10.00">i2c_write_var</text>
</a>
</g>
</g>
<!-- Node1&#45;&gt;Node2 -->
<g id="edge1" class="edge"><title>Node1&#45;&gt;Node2</title>
<path fill="none" stroke="midnightblue" d="M102.264,-10C110.664,-10 119.336,-10 127.605,-10"/>
<polygon fill="midnightblue" stroke="midnightblue" points="127.814,-13.5001 137.814,-10 127.814,-6.5001 127.814,-13.5001"/>
</g>
<!-- Node3 -->
<g id="node3" class="node"><title>Node3</title>
<g id="a_node3"><a xlink:href="i2c_8c.html#ae0625b97d3437bcaca4ac4b96dd01978" target="_top" xlink:title="Transmits I2C command array to a I2C slave. ">
<polygon fill="white" stroke="black" points="246,-0.5 246,-19.5 317,-19.5 317,-0.5 246,-0.5"/>
<text text-anchor="middle" x="281.5" y="-7.5" font-family="Helvetica,sans-Serif" font-size="10.00">i2c_write_arr</text>
</a>
</g>
</g>
<!-- Node2&#45;&gt;Node3 -->
<g id="edge2" class="edge"><title>Node2&#45;&gt;Node3</title>
<path fill="none" stroke="midnightblue" d="M210.13,-10C218.312,-10 227.133,-10 235.671,-10"/>
<polygon fill="midnightblue" stroke="midnightblue" points="235.882,-13.5001 245.882,-10 235.882,-6.5001 235.882,-13.5001"/>
</g>
<!-- Node4 -->
<g id="node4" class="node"><title>Node4</title>
<g id="a_node4"><a xlink:href="timer_8c.html#a3c56af3315c2461dec5ced585a5f84db" target="_top" xlink:title="_delay_ten_us">
<polygon fill="white" stroke="black" points="353,-0.5 353,-19.5 433,-19.5 433,-0.5 353,-0.5"/>
<text text-anchor="middle" x="393" y="-7.5" font-family="Helvetica,sans-Serif" font-size="10.00">_delay_ten_us</text>
</a>
</g>
</g>
<!-- Node3&#45;&gt;Node4 -->
<g id="edge3" class="edge"><title>Node3&#45;&gt;Node4</title>
<path fill="none" stroke="midnightblue" d="M317.146,-10C325.165,-10 333.851,-10 342.37,-10"/>
<polygon fill="midnightblue" stroke="midnightblue" points="342.623,-13.5001 352.623,-10 342.623,-6.5001 342.623,-13.5001"/>
</g>
</g>
</svg>
