<?xml version="1.0" encoding="UTF-8" standalone="no"?>
<!DOCTYPE svg PUBLIC "-//W3C//DTD SVG 1.1//EN"
 "http://www.w3.org/Graphics/SVG/1.1/DTD/svg11.dtd">
<!-- Generated by graphviz version 2.38.0 (20140413.2041)
 -->
<!-- Title: D:/GIT/fhradiov2/driver Pages: 1 -->
<svg width="292pt" height="148pt"
 viewBox="0.00 0.00 292.00 148.00" xmlns="http://www.w3.org/2000/svg" xmlns:xlink="http://www.w3.org/1999/xlink">
<g id="graph0" class="graph" transform="scale(1 1) rotate(0) translate(4 144)">
<title>D:/GIT/fhradiov2/driver</title>
<polygon fill="white" stroke="none" points="-4,4 -4,-144 288,-144 288,4 -4,4"/>
<g id="clust1" class="cluster"><title>clusterdir_1284b95147afa48b330f502c8bbc0529</title>
<g id="a_clust1"><a xlink:href="dir_1284b95147afa48b330f502c8bbc0529.html" target="_top">
<polygon fill="#eeeeff" stroke="black" points="8,-8 8,-132 150,-132 150,-8 8,-8"/>
</a>
</g>
</g>
<!-- dir_1284b95147afa48b330f502c8bbc0529 -->
<g id="node1" class="node"><title>dir_1284b95147afa48b330f502c8bbc0529</title>
<text text-anchor="middle" x="115" y="-103.5" font-family="Helvetica,sans-Serif" font-size="10.00">driver</text>
</g>
<!-- dir_503d9bcc45879383b08c0a7ee967393c -->
<g id="node2" class="node"><title>dir_503d9bcc45879383b08c0a7ee967393c</title>
<g id="a_node2"><a xlink:href="dir_503d9bcc45879383b08c0a7ee967393c.html" target="_top" xlink:title="include">
<polygon fill="white" stroke="black" points="140,-52 86,-52 86,-16 140,-16 140,-52"/>
<text text-anchor="middle" x="113" y="-31.5" font-family="Helvetica,sans-Serif" font-size="10.00">include</text>
</a>
</g>
</g>
<!-- dir_1284b95147afa48b330f502c8bbc0529&#45;&gt;dir_503d9bcc45879383b08c0a7ee967393c -->
<g id="edge1" class="edge"><title>dir_1284b95147afa48b330f502c8bbc0529&#45;&gt;dir_503d9bcc45879383b08c0a7ee967393c</title>
<path fill="none" stroke="black" d="M114.506,-87.6966C114.285,-79.9827 114.02,-70.7125 113.775,-62.1124"/>
<polygon fill="black" stroke="black" points="117.273,-62.0003 113.489,-52.1043 110.276,-62.2002 117.273,-62.0003"/>
<g id="a_edge1&#45;headlabel"><a xlink:href="dir_000000_000001.html" target="_top" xlink:title="2">
<text text-anchor="middle" x="120.214" y="-63.0124" font-family="Helvetica,sans-Serif" font-size="10.00">2</text>
</a>
</g>
</g>
<!-- dir_6719ab1f1f7655efc2fa43f7eb574fd1 -->
<g id="node4" class="node"><title>dir_6719ab1f1f7655efc2fa43f7eb574fd1</title>
<g id="a_node4"><a xlink:href="dir_6719ab1f1f7655efc2fa43f7eb574fd1.html" target="_top" xlink:title="libs">
<polygon fill="white" stroke="red" points="284,-52 230,-52 230,-16 284,-16 284,-52"/>
<text text-anchor="middle" x="257" y="-31.5" font-family="Helvetica,sans-Serif" font-size="10.00">libs</text>
</a>
</g>
</g>
<!-- dir_1284b95147afa48b330f502c8bbc0529&#45;&gt;dir_6719ab1f1f7655efc2fa43f7eb574fd1 -->
<g id="edge2" class="edge"><title>dir_1284b95147afa48b330f502c8bbc0529&#45;&gt;dir_6719ab1f1f7655efc2fa43f7eb574fd1</title>
<path fill="none" stroke="black" d="M142.043,-91.6688C164.306,-80.6945 196.073,-65.0343 220.574,-52.9564"/>
<polygon fill="black" stroke="black" points="222.152,-56.0809 229.574,-48.52 219.057,-49.8023 222.152,-56.0809"/>
<g id="a_edge2&#45;headlabel"><a xlink:href="dir_000000_000003.html" target="_top" xlink:title="1">
<text text-anchor="middle" x="220.183" y="-57.7169" font-family="Helvetica,sans-Serif" font-size="10.00">1</text>
</a>
</g>
</g>
<!-- dir_0c8fd76a6ec5a01c144012824d36fa80 -->
<g id="node5" class="node"><title>dir_0c8fd76a6ec5a01c144012824d36fa80</title>
<g id="a_node5"><a xlink:href="dir_0c8fd76a6ec5a01c144012824d36fa80.html" target="_top" xlink:title="settings">
<polygon fill="none" stroke="black" points="212,-52 158,-52 158,-16 212,-16 212,-52"/>
<text text-anchor="middle" x="185" y="-31.5" font-family="Helvetica,sans-Serif" font-size="10.00">settings</text>
</a>
</g>
</g>
<!-- dir_1284b95147afa48b330f502c8bbc0529&#45;&gt;dir_0c8fd76a6ec5a01c144012824d36fa80 -->
<g id="edge3" class="edge"><title>dir_1284b95147afa48b330f502c8bbc0529&#45;&gt;dir_0c8fd76a6ec5a01c144012824d36fa80</title>
<path fill="none" stroke="black" d="M126.388,-87.6966C134.142,-79.0503 144.567,-68.4486 154.527,-59.027"/>
<polygon fill="black" stroke="black" points="157.043,-61.4675 162.001,-52.1043 152.286,-56.3321 157.043,-61.4675"/>
<g id="a_edge3&#45;headlabel"><a xlink:href="dir_000000_000010.html" target="_top" xlink:title="8">
<text text-anchor="middle" x="156.335" y="-63.4932" font-family="Helvetica,sans-Serif" font-size="10.00">8</text>
</a>
</g>
</g>
<!-- dir_a73e662009d191b54bc30e34ae038220 -->
<g id="node3" class="node"><title>dir_a73e662009d191b54bc30e34ae038220</title>
<g id="a_node3"><a xlink:href="dir_a73e662009d191b54bc30e34ae038220.html" target="_top" xlink:title="src">
<polygon fill="white" stroke="black" points="70,-124 16,-124 16,-88 70,-88 70,-124"/>
<text text-anchor="middle" x="43" y="-103.5" font-family="Helvetica,sans-Serif" font-size="10.00">src</text>
</a>
</g>
</g>
<!-- dir_a73e662009d191b54bc30e34ae038220&#45;&gt;dir_503d9bcc45879383b08c0a7ee967393c -->
<g id="edge4" class="edge"><title>dir_a73e662009d191b54bc30e34ae038220&#45;&gt;dir_503d9bcc45879383b08c0a7ee967393c</title>
<path fill="none" stroke="black" d="M60.3034,-87.6966C68.865,-79.135 79.3438,-68.6562 88.6955,-59.3045"/>
<polygon fill="black" stroke="black" points="91.2995,-61.6503 95.8957,-52.1043 86.3497,-56.7005 91.2995,-61.6503"/>
<g id="a_edge4&#45;headlabel"><a xlink:href="dir_000002_000001.html" target="_top" xlink:title="1">
<text text-anchor="middle" x="90.7654" y="-63.6997" font-family="Helvetica,sans-Serif" font-size="10.00">1</text>
</a>
</g>
</g>
<!-- dir_a73e662009d191b54bc30e34ae038220&#45;&gt;dir_0c8fd76a6ec5a01c144012824d36fa80 -->
<g id="edge5" class="edge"><title>dir_a73e662009d191b54bc30e34ae038220&#45;&gt;dir_0c8fd76a6ec5a01c144012824d36fa80</title>
<path fill="none" stroke="black" d="M70.2323,-92.0952C95.1289,-80.2845 130.453,-63.4918 148.822,-54.4939"/>
<polygon fill="black" stroke="black" points="150.606,-57.5158 157.997,-49.9245 147.485,-51.25 150.606,-57.5158"/>
<g id="a_edge5&#45;headlabel"><a xlink:href="dir_000002_000010.html" target="_top" xlink:title="2">
<text text-anchor="middle" x="148.654" y="-59.1599" font-family="Helvetica,sans-Serif" font-size="10.00">2</text>
</a>
</g>
</g>
<!-- dir_0c8fd76a6ec5a01c144012824d36fa80&#45;&gt;dir_1284b95147afa48b330f502c8bbc0529 -->
<g id="edge7" class="edge"><title>dir_0c8fd76a6ec5a01c144012824d36fa80&#45;&gt;dir_1284b95147afa48b330f502c8bbc0529</title>
<path fill="none" stroke="black" d="M173.791,-52.1043C166.077,-60.7205 155.67,-71.316 145.703,-80.7555"/>
<polygon fill="black" stroke="black" points="143.171,-78.3302 138.219,-87.6966 147.931,-83.4625 143.171,-78.3302"/>
<g id="a_edge7&#45;headlabel"><a xlink:href="dir_000010_000000.html" target="_top" xlink:title="1">
<text text-anchor="middle" x="143.876" y="-71.3041" font-family="Helvetica,sans-Serif" font-size="10.00">1</text>
</a>
</g>
</g>
<!-- dir_0c8fd76a6ec5a01c144012824d36fa80&#45;&gt;dir_503d9bcc45879383b08c0a7ee967393c -->
<g id="edge6" class="edge"><title>dir_0c8fd76a6ec5a01c144012824d36fa80&#45;&gt;dir_503d9bcc45879383b08c0a7ee967393c</title>
<path fill="none" stroke="black" d="M157.75,-34C155.293,-34 152.837,-34 150.38,-34"/>
<polygon fill="black" stroke="black" points="150.281,-30.5001 140.281,-34 150.281,-37.5001 150.281,-30.5001"/>
<g id="a_edge6&#45;headlabel"><a xlink:href="dir_000010_000001.html" target="_top" xlink:title="1">
<text text-anchor="middle" x="153.876" y="-25.1607" font-family="Helvetica,sans-Serif" font-size="10.00">1</text>
</a>
</g>
</g>
</g>
</svg>
