<?xml version="1.0" encoding="UTF-8" standalone="no"?>
<!DOCTYPE svg PUBLIC "-//W3C//DTD SVG 1.1//EN"
 "http://www.w3.org/Graphics/SVG/1.1/DTD/svg11.dtd">
<!-- Generated by graphviz version 2.38.0 (20140413.2041)
 -->
<!-- Title: system Pages: 1 -->
<svg width="200pt" height="276pt"
 viewBox="0.00 0.00 200.35 276.00" xmlns="http://www.w3.org/2000/svg" xmlns:xlink="http://www.w3.org/1999/xlink">
<g id="graph0" class="graph" transform="scale(1 1) rotate(0) translate(4 272)">
<title>system</title>
<polygon fill="white" stroke="none" points="-4,4 -4,-272 196.345,-272 196.345,4 -4,4"/>
<g id="clust1" class="cluster"><title>clusterdir_e8522150b400a43ebfdbd1fed060b8e2</title>
<g id="a_clust1"><a xlink:href="dir_e8522150b400a43ebfdbd1fed060b8e2.html" target="_top">
<polygon fill="#eeeeff" stroke="black" points="8,-208 8,-260 150,-260 150,-208 8,-208"/>
</a>
</g>
</g>
<!-- dir_e8522150b400a43ebfdbd1fed060b8e2 -->
<g id="node1" class="node"><title>dir_e8522150b400a43ebfdbd1fed060b8e2</title>
<text text-anchor="middle" x="115" y="-231.5" font-family="Helvetica,sans-Serif" font-size="10.00">system</text>
</g>
<!-- dir_6719ab1f1f7655efc2fa43f7eb574fd1 -->
<g id="node3" class="node"><title>dir_6719ab1f1f7655efc2fa43f7eb574fd1</title>
<g id="a_node3"><a xlink:href="dir_6719ab1f1f7655efc2fa43f7eb574fd1.html" target="_top" xlink:title="libs">
<polygon fill="white" stroke="red" points="60,-180 6,-180 6,-144 60,-144 60,-180"/>
<text text-anchor="middle" x="33" y="-159.5" font-family="Helvetica,sans-Serif" font-size="10.00">libs</text>
</a>
</g>
</g>
<!-- dir_e8522150b400a43ebfdbd1fed060b8e2&#45;&gt;dir_6719ab1f1f7655efc2fa43f7eb574fd1 -->
<g id="edge1" class="edge"><title>dir_e8522150b400a43ebfdbd1fed060b8e2&#45;&gt;dir_6719ab1f1f7655efc2fa43f7eb574fd1</title>
<path fill="none" stroke="black" d="M94.7303,-215.697C84.5024,-206.965 71.9389,-196.24 60.8218,-186.75"/>
<polygon fill="black" stroke="black" points="62.9146,-183.935 53.0365,-180.104 58.3697,-189.259 62.9146,-183.935"/>
<g id="a_edge1&#45;headlabel"><a xlink:href="dir_000012_000005.html" target="_top" xlink:title="1">
<text text-anchor="middle" x="67.4919" y="-181.609" font-family="Helvetica,sans-Serif" font-size="10.00">1</text>
</a>
</g>
</g>
<!-- dir_1284b95147afa48b330f502c8bbc0529 -->
<g id="node4" class="node"><title>dir_1284b95147afa48b330f502c8bbc0529</title>
<g id="a_node4"><a xlink:href="dir_1284b95147afa48b330f502c8bbc0529.html" target="_top" xlink:title="driver">
<polygon fill="white" stroke="red" points="170,-108 116,-108 116,-72 170,-72 170,-108"/>
<text text-anchor="middle" x="143" y="-87.5" font-family="Helvetica,sans-Serif" font-size="10.00">driver</text>
</a>
</g>
</g>
<!-- dir_e8522150b400a43ebfdbd1fed060b8e2&#45;&gt;dir_1284b95147afa48b330f502c8bbc0529 -->
<g id="edge2" class="edge"><title>dir_e8522150b400a43ebfdbd1fed060b8e2&#45;&gt;dir_1284b95147afa48b330f502c8bbc0529</title>
<path fill="none" stroke="black" d="M109.657,-215.867C104.843,-197.643 99.5674,-168.17 107,-144 110.009,-134.215 115.507,-124.616 121.316,-116.334"/>
<polygon fill="black" stroke="black" points="124.195,-118.328 127.39,-108.226 118.593,-114.131 124.195,-118.328"/>
<g id="a_edge2&#45;headlabel"><a xlink:href="dir_000012_000002.html" target="_top" xlink:title="12">
<text text-anchor="middle" x="124.312" y="-120.407" font-family="Helvetica,sans-Serif" font-size="10.00">12</text>
</a>
</g>
</g>
<!-- dir_0c8fd76a6ec5a01c144012824d36fa80 -->
<g id="node5" class="node"><title>dir_0c8fd76a6ec5a01c144012824d36fa80</title>
<g id="a_node5"><a xlink:href="dir_0c8fd76a6ec5a01c144012824d36fa80.html" target="_top" xlink:title="settings">
<polygon fill="none" stroke="black" points="170,-36 116,-36 116,-0 170,-0 170,-36"/>
<text text-anchor="middle" x="143" y="-15.5" font-family="Helvetica,sans-Serif" font-size="10.00">settings</text>
</a>
</g>
</g>
<!-- dir_e8522150b400a43ebfdbd1fed060b8e2&#45;&gt;dir_0c8fd76a6ec5a01c144012824d36fa80 -->
<g id="edge3" class="edge"><title>dir_e8522150b400a43ebfdbd1fed060b8e2&#45;&gt;dir_0c8fd76a6ec5a01c144012824d36fa80</title>
<path fill="none" stroke="black" d="M142.096,-218.388C155.887,-209.337 171.326,-196.319 179,-180 199.426,-136.563 193.108,-117.88 179,-72 175.991,-62.2153 170.493,-52.6161 164.684,-44.3336"/>
<polygon fill="black" stroke="black" points="167.407,-42.1306 158.61,-36.2264 161.805,-46.3279 167.407,-42.1306"/>
<g id="a_edge3&#45;headlabel"><a xlink:href="dir_000012_000001.html" target="_top" xlink:title="1">
<text text-anchor="middle" x="171.835" y="-40.8048" font-family="Helvetica,sans-Serif" font-size="10.00">1</text>
</a>
</g>
</g>
<!-- dir_baddde578d762c90c1d949a22a636838 -->
<g id="node6" class="node"><title>dir_baddde578d762c90c1d949a22a636838</title>
<g id="a_node6"><a xlink:href="dir_baddde578d762c90c1d949a22a636838.html" target="_top" xlink:title="menu">
<polygon fill="white" stroke="red" points="170,-180 116,-180 116,-144 170,-144 170,-180"/>
<text text-anchor="middle" x="143" y="-159.5" font-family="Helvetica,sans-Serif" font-size="10.00">menu</text>
</a>
</g>
</g>
<!-- dir_e8522150b400a43ebfdbd1fed060b8e2&#45;&gt;dir_baddde578d762c90c1d949a22a636838 -->
<g id="edge4" class="edge"><title>dir_e8522150b400a43ebfdbd1fed060b8e2&#45;&gt;dir_baddde578d762c90c1d949a22a636838</title>
<path fill="none" stroke="black" d="M121.921,-215.697C125.075,-207.813 128.878,-198.304 132.381,-189.546"/>
<polygon fill="black" stroke="black" points="135.694,-190.689 136.158,-180.104 129.195,-188.089 135.694,-190.689"/>
<g id="a_edge4&#45;headlabel"><a xlink:href="dir_000012_000007.html" target="_top" xlink:title="1">
<text text-anchor="middle" x="136.995" y="-192.581" font-family="Helvetica,sans-Serif" font-size="10.00">1</text>
</a>
</g>
</g>
<!-- dir_87da1dd3838e3a2bc958fb8a1763f6f7 -->
<g id="node2" class="node"><title>dir_87da1dd3838e3a2bc958fb8a1763f6f7</title>
<g id="a_node2"><a xlink:href="dir_87da1dd3838e3a2bc958fb8a1763f6f7.html" target="_top" xlink:title="src">
<polygon fill="white" stroke="black" points="70,-252 16,-252 16,-216 70,-216 70,-252"/>
<text text-anchor="middle" x="43" y="-231.5" font-family="Helvetica,sans-Serif" font-size="10.00">src</text>
</a>
</g>
</g>
<!-- dir_1284b95147afa48b330f502c8bbc0529&#45;&gt;dir_0c8fd76a6ec5a01c144012824d36fa80 -->
<g id="edge5" class="edge"><title>dir_1284b95147afa48b330f502c8bbc0529&#45;&gt;dir_0c8fd76a6ec5a01c144012824d36fa80</title>
<path fill="none" stroke="black" d="M137.084,-71.6966C136.289,-63.9827 136.062,-54.7125 136.405,-46.1124"/>
<polygon fill="black" stroke="black" points="139.898,-46.3243 137.105,-36.1043 132.915,-45.8356 139.898,-46.3243"/>
<g id="a_edge5&#45;headlabel"><a xlink:href="dir_000002_000001.html" target="_top" xlink:title="8">
<text text-anchor="middle" x="142.48" y="-47.6083" font-family="Helvetica,sans-Serif" font-size="10.00">8</text>
</a>
</g>
</g>
<!-- dir_0c8fd76a6ec5a01c144012824d36fa80&#45;&gt;dir_1284b95147afa48b330f502c8bbc0529 -->
<g id="edge6" class="edge"><title>dir_0c8fd76a6ec5a01c144012824d36fa80&#45;&gt;dir_1284b95147afa48b330f502c8bbc0529</title>
<path fill="none" stroke="black" d="M148.895,-36.1043C149.701,-43.7913 149.937,-53.0537 149.604,-61.6651"/>
<polygon fill="black" stroke="black" points="146.109,-61.4805 148.916,-71.6966 153.092,-61.9597 146.109,-61.4805"/>
<g id="a_edge6&#45;headlabel"><a xlink:href="dir_000001_000002.html" target="_top" xlink:title="1">
<text text-anchor="middle" x="143.522" y="-55.2" font-family="Helvetica,sans-Serif" font-size="10.00">1</text>
</a>
</g>
</g>
<!-- dir_baddde578d762c90c1d949a22a636838&#45;&gt;dir_1284b95147afa48b330f502c8bbc0529 -->
<g id="edge7" class="edge"><title>dir_baddde578d762c90c1d949a22a636838&#45;&gt;dir_1284b95147afa48b330f502c8bbc0529</title>
<path fill="none" stroke="black" d="M143,-143.697C143,-135.983 143,-126.712 143,-118.112"/>
<polygon fill="black" stroke="black" points="146.5,-118.104 143,-108.104 139.5,-118.104 146.5,-118.104"/>
<g id="a_edge7&#45;headlabel"><a xlink:href="dir_000007_000002.html" target="_top" xlink:title="1">
<text text-anchor="middle" x="149.339" y="-119.199" font-family="Helvetica,sans-Serif" font-size="10.00">1</text>
</a>
</g>
</g>
</g>
</svg>
