<?xml version="1.0" encoding="UTF-8" standalone="no"?>
<!DOCTYPE svg PUBLIC "-//W3C//DTD SVG 1.1//EN"
 "http://www.w3.org/Graphics/SVG/1.1/DTD/svg11.dtd">
<!-- Generated by graphviz version 2.38.0 (20140413.2041)
 -->
<!-- Title: menu Pages: 1 -->
<svg width="221pt" height="148pt"
 viewBox="0.00 0.00 221.00 148.00" xmlns="http://www.w3.org/2000/svg" xmlns:xlink="http://www.w3.org/1999/xlink">
<g id="graph0" class="graph" transform="scale(1 1) rotate(0) translate(4 144)">
<title>menu</title>
<polygon fill="white" stroke="none" points="-4,4 -4,-144 217,-144 217,4 -4,4"/>
<g id="clust1" class="cluster"><title>clusterdir_baddde578d762c90c1d949a22a636838</title>
<g id="a_clust1"><a xlink:href="dir_baddde578d762c90c1d949a22a636838.html" target="_top">
<polygon fill="#eeeeff" stroke="black" points="8,-8 8,-132 150,-132 150,-8 8,-8"/>
</a>
</g>
</g>
<!-- dir_baddde578d762c90c1d949a22a636838 -->
<g id="node1" class="node"><title>dir_baddde578d762c90c1d949a22a636838</title>
<text text-anchor="middle" x="115" y="-103.5" font-family="Helvetica,sans-Serif" font-size="10.00">menu</text>
</g>
<!-- dir_3fd9cf7a5333360ddc721515f885324d -->
<g id="node2" class="node"><title>dir_3fd9cf7a5333360ddc721515f885324d</title>
<g id="a_node2"><a xlink:href="dir_3fd9cf7a5333360ddc721515f885324d.html" target="_top" xlink:title="lang">
<polygon fill="white" stroke="red" points="141,-52 87,-52 87,-16 141,-16 141,-52"/>
<text text-anchor="middle" x="114" y="-31.5" font-family="Helvetica,sans-Serif" font-size="10.00">lang</text>
</a>
</g>
</g>
<!-- dir_baddde578d762c90c1d949a22a636838&#45;&gt;dir_3fd9cf7a5333360ddc721515f885324d -->
<g id="edge2" class="edge"><title>dir_baddde578d762c90c1d949a22a636838&#45;&gt;dir_3fd9cf7a5333360ddc721515f885324d</title>
<path fill="none" stroke="black" d="M114.753,-87.6966C114.643,-79.9827 114.51,-70.7125 114.387,-62.1124"/>
<polygon fill="black" stroke="black" points="117.887,-62.0533 114.244,-52.1043 110.888,-62.1533 117.887,-62.0533"/>
<g id="a_edge2&#45;headlabel"><a xlink:href="dir_000007_000008.html" target="_top" xlink:title="1">
<text text-anchor="middle" x="120.777" y="-63.107" font-family="Helvetica,sans-Serif" font-size="10.00">1</text>
</a>
</g>
</g>
<!-- dir_1284b95147afa48b330f502c8bbc0529 -->
<g id="node4" class="node"><title>dir_1284b95147afa48b330f502c8bbc0529</title>
<g id="a_node4"><a xlink:href="dir_1284b95147afa48b330f502c8bbc0529.html" target="_top" xlink:title="driver">
<polygon fill="white" stroke="red" points="213,-52 159,-52 159,-16 213,-16 213,-52"/>
<text text-anchor="middle" x="186" y="-31.5" font-family="Helvetica,sans-Serif" font-size="10.00">driver</text>
</a>
</g>
</g>
<!-- dir_baddde578d762c90c1d949a22a636838&#45;&gt;dir_1284b95147afa48b330f502c8bbc0529 -->
<g id="edge1" class="edge"><title>dir_baddde578d762c90c1d949a22a636838&#45;&gt;dir_1284b95147afa48b330f502c8bbc0529</title>
<path fill="none" stroke="black" d="M132.551,-87.6966C141.234,-79.135 151.863,-68.6562 161.348,-59.3045"/>
<polygon fill="black" stroke="black" points="163.988,-61.6175 168.651,-52.1043 159.073,-56.6327 163.988,-61.6175"/>
<g id="a_edge1&#45;headlabel"><a xlink:href="dir_000007_000002.html" target="_top" xlink:title="1">
<text text-anchor="middle" x="163.421" y="-63.663" font-family="Helvetica,sans-Serif" font-size="10.00">1</text>
</a>
</g>
</g>
<!-- dir_e8b29995d8f8a4b3dca266266c9ccbde -->
<g id="node3" class="node"><title>dir_e8b29995d8f8a4b3dca266266c9ccbde</title>
<g id="a_node3"><a xlink:href="dir_e8b29995d8f8a4b3dca266266c9ccbde.html" target="_top" xlink:title="src">
<polygon fill="white" stroke="black" points="70,-124 16,-124 16,-88 70,-88 70,-124"/>
<text text-anchor="middle" x="43" y="-103.5" font-family="Helvetica,sans-Serif" font-size="10.00">src</text>
</a>
</g>
</g>
</g>
</svg>
