<?xml version="1.0" encoding="UTF-8" standalone="no"?>
<!DOCTYPE svg PUBLIC "-//W3C//DTD SVG 1.1//EN"
 "http://www.w3.org/Graphics/SVG/1.1/DTD/svg11.dtd">
<!-- Generated by graphviz version 2.38.0 (20140413.2041)
 -->
<!-- Title: D:/GIT/fhradiov2/driver/encoder.h Pages: 1 -->
<svg width="301pt" height="162pt"
 viewBox="0.00 0.00 301.00 162.00" xmlns="http://www.w3.org/2000/svg" xmlns:xlink="http://www.w3.org/1999/xlink">
<g id="graph0" class="graph" transform="scale(1 1) rotate(0) translate(4 158)">
<title>D:/GIT/fhradiov2/driver/encoder.h</title>
<polygon fill="white" stroke="none" points="-4,4 -4,-158 297,-158 297,4 -4,4"/>
<!-- Node1 -->
<g id="node1" class="node"><title>Node1</title>
<polygon fill="#bfbfbf" stroke="black" points="112.5,-123.5 112.5,-153.5 222.5,-153.5 222.5,-123.5 112.5,-123.5"/>
<text text-anchor="start" x="120.5" y="-141.5" font-family="Helvetica,sans-Serif" font-size="10.00">D:/GIT/fhradiov2/driver</text>
<text text-anchor="middle" x="167.5" y="-130.5" font-family="Helvetica,sans-Serif" font-size="10.00">/encoder.h</text>
</g>
<!-- Node2 -->
<g id="node2" class="node"><title>Node2</title>
<polygon fill="white" stroke="#bfbfbf" points="0,-6 0,-25 49,-25 49,-6 0,-6"/>
<text text-anchor="middle" x="24.5" y="-13" font-family="Helvetica,sans-Serif" font-size="10.00">stdint.h</text>
</g>
<!-- Node1&#45;&gt;Node2 -->
<g id="edge1" class="edge"><title>Node1&#45;&gt;Node2</title>
<path fill="none" stroke="midnightblue" d="M112.369,-132.592C81.8457,-126.761 46.1967,-114.15 26.5,-87 15.7383,-72.1659 16.8767,-50.579 19.6789,-35.2061"/>
<polygon fill="midnightblue" stroke="midnightblue" points="23.1286,-35.8153 21.867,-25.2958 16.2933,-34.306 23.1286,-35.8153"/>
</g>
<!-- Node3 -->
<g id="node3" class="node"><title>Node3</title>
<polygon fill="white" stroke="#bfbfbf" points="98,-6 98,-25 157,-25 157,-6 98,-6"/>
<text text-anchor="middle" x="127.5" y="-13" font-family="Helvetica,sans-Serif" font-size="10.00">msp430.h</text>
</g>
<!-- Node1&#45;&gt;Node3 -->
<g id="edge2" class="edge"><title>Node1&#45;&gt;Node3</title>
<path fill="none" stroke="midnightblue" d="M182.542,-123.304C195.835,-108.957 211.655,-86.2245 201.5,-67 192.512,-49.9851 174.928,-37.6214 159.156,-29.3873"/>
<polygon fill="midnightblue" stroke="midnightblue" points="160.682,-26.2372 150.158,-25.0123 157.621,-32.5326 160.682,-26.2372"/>
</g>
<!-- Node4 -->
<g id="node4" class="node"><title>Node4</title>
<g id="a_node4"><a xlink:href="radio__pin__mapping_8h.html" target="_top" xlink:title="settings\\radio_pin\l_mapping.h">
<polygon fill="white" stroke="black" points="200,-0.5 200,-30.5 293,-30.5 293,-0.5 200,-0.5"/>
<text text-anchor="start" x="208" y="-18.5" font-family="Helvetica,sans-Serif" font-size="10.00">settings\radio_pin</text>
<text text-anchor="middle" x="246.5" y="-7.5" font-family="Helvetica,sans-Serif" font-size="10.00">_mapping.h</text>
</a>
</g>
</g>
<!-- Node1&#45;&gt;Node4 -->
<g id="edge3" class="edge"><title>Node1&#45;&gt;Node4</title>
<path fill="none" stroke="midnightblue" d="M184.52,-123.413C195.095,-113.971 208.366,-100.78 217.5,-87 227.091,-72.5307 234.466,-54.3813 239.379,-40.1212"/>
<polygon fill="midnightblue" stroke="midnightblue" points="242.733,-41.1259 242.518,-30.5332 236.08,-38.9481 242.733,-41.1259"/>
</g>
<!-- Node5 -->
<g id="node5" class="node"><title>Node5</title>
<g id="a_node5"><a xlink:href="external__interrupthandler_8h.html" target="_top" xlink:title="driver/external_interrupthandler.h">
<polygon fill="white" stroke="black" points="36,-67.5 36,-86.5 193,-86.5 193,-67.5 36,-67.5"/>
<text text-anchor="middle" x="114.5" y="-74.5" font-family="Helvetica,sans-Serif" font-size="10.00">driver/external_interrupthandler.h</text>
</a>
</g>
</g>
<!-- Node1&#45;&gt;Node5 -->
<g id="edge4" class="edge"><title>Node1&#45;&gt;Node5</title>
<path fill="none" stroke="midnightblue" d="M154.94,-123.399C147.159,-114.664 137.136,-103.413 129.016,-94.2962"/>
<polygon fill="midnightblue" stroke="midnightblue" points="131.477,-91.797 122.212,-86.6578 126.25,-96.453 131.477,-91.797"/>
</g>
<!-- Node5&#45;&gt;Node2 -->
<g id="edge6" class="edge"><title>Node5&#45;&gt;Node2</title>
<path fill="none" stroke="midnightblue" d="M101.605,-67.4751C87.0358,-57.8431 63.0978,-42.0175 45.7546,-30.5517"/>
<polygon fill="midnightblue" stroke="midnightblue" points="47.643,-27.6044 37.3709,-25.0091 43.7825,-33.4437 47.643,-27.6044"/>
</g>
<!-- Node5&#45;&gt;Node3 -->
<g id="edge5" class="edge"><title>Node5&#45;&gt;Node3</title>
<path fill="none" stroke="midnightblue" d="M116.363,-67.4751C118.216,-58.9919 121.119,-45.7043 123.497,-34.8222"/>
<polygon fill="midnightblue" stroke="midnightblue" points="126.926,-35.5257 125.641,-25.0091 120.087,-34.0315 126.926,-35.5257"/>
</g>
<!-- Node5&#45;&gt;Node4 -->
<g id="edge7" class="edge"><title>Node5&#45;&gt;Node4</title>
<path fill="none" stroke="midnightblue" d="M133.412,-67.4751C152.292,-58.9648 181.899,-45.6193 206.084,-34.718"/>
<polygon fill="midnightblue" stroke="midnightblue" points="207.712,-37.8232 215.39,-30.523 204.835,-31.4416 207.712,-37.8232"/>
</g>
</g>
</svg>
