<?xml version="1.0" encoding="UTF-8" standalone="no"?>
<!DOCTYPE svg PUBLIC "-//W3C//DTD SVG 1.1//EN"
 "http://www.w3.org/Graphics/SVG/1.1/DTD/svg11.dtd">
<!-- Generated by graphviz version 2.38.0 (20140413.2041)
 -->
<!-- Title: driver/encoder.h Pages: 1 -->
<svg width="277pt" height="140pt"
 viewBox="0.00 0.00 276.50 140.00" xmlns="http://www.w3.org/2000/svg" xmlns:xlink="http://www.w3.org/1999/xlink">
<g id="graph0" class="graph" transform="scale(1 1) rotate(0) translate(4 136)">
<title>driver/encoder.h</title>
<polygon fill="white" stroke="none" points="-4,4 -4,-136 272.5,-136 272.5,4 -4,4"/>
<!-- Node1 -->
<g id="node1" class="node"><title>Node1</title>
<polygon fill="#bfbfbf" stroke="black" points="87,-112.5 87,-131.5 172,-131.5 172,-112.5 87,-112.5"/>
<text text-anchor="middle" x="129.5" y="-119.5" font-family="Helvetica,sans-Serif" font-size="10.00">driver/encoder.h</text>
</g>
<!-- Node2 -->
<g id="node2" class="node"><title>Node2</title>
<g id="a_node2"><a xlink:href="encoder_8c.html" target="_top" xlink:title="driver/src/encoder.c">
<polygon fill="white" stroke="black" points="0,-56.5 0,-75.5 101,-75.5 101,-56.5 0,-56.5"/>
<text text-anchor="middle" x="50.5" y="-63.5" font-family="Helvetica,sans-Serif" font-size="10.00">driver/src/encoder.c</text>
</a>
</g>
</g>
<!-- Node1&#45;&gt;Node2 -->
<g id="edge1" class="edge"><title>Node1&#45;&gt;Node2</title>
<path fill="none" stroke="midnightblue" d="M108.466,-106.622C94.0339,-96.7574 75.3585,-83.9919 63.1612,-75.6545"/>
<polygon fill="midnightblue" stroke="midnightblue" points="106.577,-109.57 116.807,-112.324 110.527,-103.791 106.577,-109.57"/>
</g>
<!-- Node3 -->
<g id="node3" class="node"><title>Node3</title>
<g id="a_node3"><a xlink:href="main_8c.html" target="_top" xlink:title="main.c">
<polygon fill="white" stroke="black" points="106.5,-0.5 106.5,-19.5 152.5,-19.5 152.5,-0.5 106.5,-0.5"/>
<text text-anchor="middle" x="129.5" y="-7.5" font-family="Helvetica,sans-Serif" font-size="10.00">main.c</text>
</a>
</g>
</g>
<!-- Node1&#45;&gt;Node3 -->
<g id="edge2" class="edge"><title>Node1&#45;&gt;Node3</title>
<path fill="none" stroke="midnightblue" d="M129.5,-102.348C129.5,-78.2538 129.5,-37.3079 129.5,-19.5914"/>
<polygon fill="midnightblue" stroke="midnightblue" points="126,-102.368 129.5,-112.368 133,-102.369 126,-102.368"/>
</g>
<!-- Node4 -->
<g id="node4" class="node"><title>Node4</title>
<g id="a_node4"><a xlink:href="radio_8h.html" target="_top" xlink:title="system/radio.h">
<polygon fill="white" stroke="black" points="158,-56.5 158,-75.5 239,-75.5 239,-56.5 158,-56.5"/>
<text text-anchor="middle" x="198.5" y="-63.5" font-family="Helvetica,sans-Serif" font-size="10.00">system/radio.h</text>
</a>
</g>
</g>
<!-- Node1&#45;&gt;Node4 -->
<g id="edge3" class="edge"><title>Node1&#45;&gt;Node4</title>
<path fill="none" stroke="midnightblue" d="M148.538,-106.101C160.956,-96.3824 176.743,-84.0269 187.212,-75.8339"/>
<polygon fill="midnightblue" stroke="midnightblue" points="146.304,-103.405 140.586,-112.324 150.618,-108.917 146.304,-103.405"/>
</g>
<!-- Node4&#45;&gt;Node3 -->
<g id="edge4" class="edge"><title>Node4&#45;&gt;Node3</title>
<path fill="none" stroke="midnightblue" d="M179.462,-50.1008C167.044,-40.3824 151.257,-28.0269 140.788,-19.8339"/>
<polygon fill="midnightblue" stroke="midnightblue" points="177.382,-52.9171 187.414,-56.324 181.696,-47.4046 177.382,-52.9171"/>
</g>
<!-- Node5 -->
<g id="node5" class="node"><title>Node5</title>
<g id="a_node5"><a xlink:href="radio_8c.html" target="_top" xlink:title="system/src/radio.c">
<polygon fill="white" stroke="black" points="170.5,-0.5 170.5,-19.5 268.5,-19.5 268.5,-0.5 170.5,-0.5"/>
<text text-anchor="middle" x="219.5" y="-7.5" font-family="Helvetica,sans-Serif" font-size="10.00">system/src/radio.c</text>
</a>
</g>
</g>
<!-- Node4&#45;&gt;Node5 -->
<g id="edge5" class="edge"><title>Node4&#45;&gt;Node5</title>
<path fill="none" stroke="midnightblue" d="M205.621,-46.6897C209.16,-37.589 213.272,-27.0141 216.097,-19.7511"/>
<polygon fill="midnightblue" stroke="midnightblue" points="202.33,-45.4944 201.968,-56.083 208.854,-48.0315 202.33,-45.4944"/>
</g>
</g>
</svg>
