<?xml version="1.0" encoding="UTF-8" standalone="no"?>
<!DOCTYPE svg PUBLIC "-//W3C//DTD SVG 1.1//EN"
 "http://www.w3.org/Graphics/SVG/1.1/DTD/svg11.dtd">
<!-- Generated by graphviz version 2.38.0 (20140413.2041)
 -->
<!-- Title: D:/GIT/fhradiov2/driver/src/encoder.c Pages: 1 -->
<svg width="447pt" height="274pt"
 viewBox="0.00 0.00 447.17 274.00" xmlns="http://www.w3.org/2000/svg" xmlns:xlink="http://www.w3.org/1999/xlink">
<g id="graph0" class="graph" transform="scale(1 1) rotate(0) translate(4 270)">
<title>D:/GIT/fhradiov2/driver/src/encoder.c</title>
<polygon fill="white" stroke="none" points="-4,4 -4,-270 443.169,-270 443.169,4 -4,4"/>
<!-- Node1 -->
<g id="node1" class="node"><title>Node1</title>
<polygon fill="#bfbfbf" stroke="black" points="68.1691,-235.5 68.1691,-265.5 178.169,-265.5 178.169,-235.5 68.1691,-235.5"/>
<text text-anchor="start" x="76.1691" y="-253.5" font-family="Helvetica,sans-Serif" font-size="10.00">D:/GIT/fhradiov2/driver</text>
<text text-anchor="middle" x="123.169" y="-242.5" font-family="Helvetica,sans-Serif" font-size="10.00">/src/encoder.c</text>
</g>
<!-- Node2 -->
<g id="node2" class="node"><title>Node2</title>
<g id="a_node2"><a xlink:href="encoder_8h.html" target="_top" xlink:title="driver/encoder.h">
<polygon fill="white" stroke="black" points="80.6691,-179.5 80.6691,-198.5 165.669,-198.5 165.669,-179.5 80.6691,-179.5"/>
<text text-anchor="middle" x="123.169" y="-186.5" font-family="Helvetica,sans-Serif" font-size="10.00">driver/encoder.h</text>
</a>
</g>
</g>
<!-- Node1&#45;&gt;Node2 -->
<g id="edge1" class="edge"><title>Node1&#45;&gt;Node2</title>
<path fill="none" stroke="midnightblue" d="M123.169,-235.399C123.169,-227.466 123.169,-217.458 123.169,-208.858"/>
<polygon fill="midnightblue" stroke="midnightblue" points="126.669,-208.658 123.169,-198.658 119.669,-208.658 126.669,-208.658"/>
</g>
<!-- Node3 -->
<g id="node3" class="node"><title>Node3</title>
<polygon fill="white" stroke="#bfbfbf" points="90.6691,-0.5 90.6691,-19.5 139.669,-19.5 139.669,-0.5 90.6691,-0.5"/>
<text text-anchor="middle" x="115.169" y="-7.5" font-family="Helvetica,sans-Serif" font-size="10.00">stdint.h</text>
</g>
<!-- Node2&#45;&gt;Node3 -->
<g id="edge2" class="edge"><title>Node2&#45;&gt;Node3</title>
<path fill="none" stroke="midnightblue" d="M89.6964,-179.42C69.0006,-172.591 43.2233,-161.11 26.1691,-143 7.83661,-123.533 9.14488,-113.274 4.16909,-87 1.60538,-73.4628 -3.52857,-67.4269 4.16909,-56 21.0171,-30.9898 54.3971,-19.8747 80.1723,-14.9378"/>
<polygon fill="midnightblue" stroke="midnightblue" points="81.0492,-18.3396 90.3299,-13.2289 79.8878,-11.4366 81.0492,-18.3396"/>
</g>
<!-- Node4 -->
<g id="node4" class="node"><title>Node4</title>
<polygon fill="white" stroke="#bfbfbf" points="13.6691,-62 13.6691,-81 72.6691,-81 72.6691,-62 13.6691,-62"/>
<text text-anchor="middle" x="43.1691" y="-69" font-family="Helvetica,sans-Serif" font-size="10.00">msp430.h</text>
</g>
<!-- Node2&#45;&gt;Node4 -->
<g id="edge3" class="edge"><title>Node2&#45;&gt;Node4</title>
<path fill="none" stroke="midnightblue" d="M87.317,-179.397C68.2885,-172.81 46.5421,-161.589 35.1691,-143 25.5474,-127.273 29.911,-105.837 35.1957,-90.744"/>
<polygon fill="midnightblue" stroke="midnightblue" points="38.6071,-91.6337 39.0197,-81.0469 32.0951,-89.0657 38.6071,-91.6337"/>
</g>
<!-- Node5 -->
<g id="node5" class="node"><title>Node5</title>
<g id="a_node5"><a xlink:href="radio__pin__mapping_8h.html" target="_top" xlink:title="settings\\radio_pin\l_mapping.h">
<polygon fill="white" stroke="black" points="143.669,-56.5 143.669,-86.5 236.669,-86.5 236.669,-56.5 143.669,-56.5"/>
<text text-anchor="start" x="151.669" y="-74.5" font-family="Helvetica,sans-Serif" font-size="10.00">settings\radio_pin</text>
<text text-anchor="middle" x="190.169" y="-63.5" font-family="Helvetica,sans-Serif" font-size="10.00">_mapping.h</text>
</a>
</g>
</g>
<!-- Node2&#45;&gt;Node5 -->
<g id="edge4" class="edge"><title>Node2&#45;&gt;Node5</title>
<path fill="none" stroke="midnightblue" d="M158.182,-179.445C177.103,-172.844 198.853,-161.594 210.169,-143 219.013,-128.468 213.163,-109.884 205.555,-95.4445"/>
<polygon fill="midnightblue" stroke="midnightblue" points="208.488,-93.5268 200.438,-86.6387 202.436,-97.0435 208.488,-93.5268"/>
</g>
<!-- Node6 -->
<g id="node6" class="node"><title>Node6</title>
<g id="a_node6"><a xlink:href="radio__configuration_8h.html" target="_top" xlink:title="settings\\radio_configuration.h">
<polygon fill="white" stroke="black" points="258.669,-123.5 258.669,-142.5 401.669,-142.5 401.669,-123.5 258.669,-123.5"/>
<text text-anchor="middle" x="330.169" y="-130.5" font-family="Helvetica,sans-Serif" font-size="10.00">settings\radio_configuration.h</text>
</a>
</g>
</g>
<!-- Node2&#45;&gt;Node6 -->
<g id="edge5" class="edge"><title>Node2&#45;&gt;Node6</title>
<path fill="none" stroke="midnightblue" d="M155.969,-179.444C191.55,-170.162 248.484,-155.309 287.516,-145.127"/>
<polygon fill="midnightblue" stroke="midnightblue" points="288.73,-148.427 297.523,-142.516 286.963,-141.654 288.73,-148.427"/>
</g>
<!-- Node9 -->
<g id="node9" class="node"><title>Node9</title>
<g id="a_node9"><a xlink:href="external__interrupthandler_8h.html" target="_top" xlink:title="driver/external_interrupthandler.h">
<polygon fill="white" stroke="black" points="44.6691,-123.5 44.6691,-142.5 201.669,-142.5 201.669,-123.5 44.6691,-123.5"/>
<text text-anchor="middle" x="123.169" y="-130.5" font-family="Helvetica,sans-Serif" font-size="10.00">driver/external_interrupthandler.h</text>
</a>
</g>
</g>
<!-- Node2&#45;&gt;Node9 -->
<g id="edge9" class="edge"><title>Node2&#45;&gt;Node9</title>
<path fill="none" stroke="midnightblue" d="M123.169,-179.083C123.169,-172.006 123.169,-161.861 123.169,-152.986"/>
<polygon fill="midnightblue" stroke="midnightblue" points="126.669,-152.751 123.169,-142.751 119.669,-152.751 126.669,-152.751"/>
</g>
<!-- Node7 -->
<g id="node7" class="node"><title>Node7</title>
<g id="a_node7"><a xlink:href="si4735__cmd__prop_8h.html" target="_top" xlink:title="driver/include/si4735\l_cmd_prop.h">
<polygon fill="white" stroke="black" points="255.169,-56.5 255.169,-86.5 359.169,-86.5 359.169,-56.5 255.169,-56.5"/>
<text text-anchor="start" x="263.169" y="-74.5" font-family="Helvetica,sans-Serif" font-size="10.00">driver/include/si4735</text>
<text text-anchor="middle" x="307.169" y="-63.5" font-family="Helvetica,sans-Serif" font-size="10.00">_cmd_prop.h</text>
</a>
</g>
</g>
<!-- Node6&#45;&gt;Node7 -->
<g id="edge6" class="edge"><title>Node6&#45;&gt;Node7</title>
<path fill="none" stroke="midnightblue" d="M326.874,-123.475C324.108,-116.32 320.021,-105.748 316.286,-96.0841"/>
<polygon fill="midnightblue" stroke="midnightblue" points="319.46,-94.5884 312.59,-86.523 312.931,-97.1123 319.46,-94.5884"/>
</g>
<!-- Node8 -->
<g id="node8" class="node"><title>Node8</title>
<g id="a_node8"><a xlink:href="libs_2time_8h.html" target="_top" xlink:title="libs/time.h">
<polygon fill="white" stroke="black" points="377.169,-62 377.169,-81 439.169,-81 439.169,-62 377.169,-62"/>
<text text-anchor="middle" x="408.169" y="-69" font-family="Helvetica,sans-Serif" font-size="10.00">libs/time.h</text>
</a>
</g>
</g>
<!-- Node6&#45;&gt;Node8 -->
<g id="edge8" class="edge"><title>Node6&#45;&gt;Node8</title>
<path fill="none" stroke="midnightblue" d="M341.345,-123.475C353.74,-114.02 373.959,-98.5961 388.915,-87.1871"/>
<polygon fill="midnightblue" stroke="midnightblue" points="391.186,-89.857 397.014,-81.0091 386.941,-84.2914 391.186,-89.857"/>
</g>
<!-- Node7&#45;&gt;Node3 -->
<g id="edge7" class="edge"><title>Node7&#45;&gt;Node3</title>
<path fill="none" stroke="midnightblue" d="M261.668,-56.3993C227.246,-45.7322 180.715,-31.3125 149.41,-21.6111"/>
<polygon fill="midnightblue" stroke="midnightblue" points="150.403,-18.2548 139.815,-18.6378 148.331,-24.9411 150.403,-18.2548"/>
</g>
<!-- Node9&#45;&gt;Node3 -->
<g id="edge11" class="edge"><title>Node9&#45;&gt;Node3</title>
<path fill="none" stroke="midnightblue" d="M122.594,-123.298C121.308,-103.85 118.177,-56.49 116.419,-29.9036"/>
<polygon fill="midnightblue" stroke="midnightblue" points="119.891,-29.3705 115.739,-19.6232 112.907,-29.8323 119.891,-29.3705"/>
</g>
<!-- Node9&#45;&gt;Node4 -->
<g id="edge10" class="edge"><title>Node9&#45;&gt;Node4</title>
<path fill="none" stroke="midnightblue" d="M111.707,-123.475C98.9941,-114.02 78.2563,-98.5961 62.9165,-87.1871"/>
<polygon fill="midnightblue" stroke="midnightblue" points="64.7227,-84.1686 54.6099,-81.0091 60.5451,-89.7854 64.7227,-84.1686"/>
</g>
<!-- Node9&#45;&gt;Node5 -->
<g id="edge12" class="edge"><title>Node9&#45;&gt;Node5</title>
<path fill="none" stroke="midnightblue" d="M132.769,-123.475C141.588,-115.643 155.02,-103.714 166.673,-93.3656"/>
<polygon fill="midnightblue" stroke="midnightblue" points="169.225,-95.7802 174.379,-86.523 164.577,-90.5462 169.225,-95.7802"/>
</g>
</g>
</svg>
