<?xml version="1.0" encoding="UTF-8" standalone="no"?>
<!DOCTYPE svg PUBLIC "-//W3C//DTD SVG 1.1//EN"
 "http://www.w3.org/Graphics/SVG/1.1/DTD/svg11.dtd">
<!-- Generated by graphviz version 2.38.0 (20140413.2041)
 -->
<!-- Title: D:/GIT/fhradiov2/driver/encoder.h Pages: 1 -->
<svg width="1090pt" height="374pt"
 viewBox="0.00 0.00 1090.00 374.00" xmlns="http://www.w3.org/2000/svg" xmlns:xlink="http://www.w3.org/1999/xlink">
<g id="graph0" class="graph" transform="scale(1 1) rotate(0) translate(4 370)">
<title>D:/GIT/fhradiov2/driver/encoder.h</title>
<polygon fill="white" stroke="none" points="-4,4 -4,-370 1086,-370 1086,4 -4,4"/>
<!-- Node1 -->
<g id="node1" class="node"><title>Node1</title>
<polygon fill="#bfbfbf" stroke="black" points="167,-335.5 167,-365.5 277,-365.5 277,-335.5 167,-335.5"/>
<text text-anchor="start" x="175" y="-353.5" font-family="Helvetica,sans-Serif" font-size="10.00">D:/GIT/fhradiov2/driver</text>
<text text-anchor="middle" x="222" y="-342.5" font-family="Helvetica,sans-Serif" font-size="10.00">/encoder.h</text>
</g>
<!-- Node2 -->
<g id="node2" class="node"><title>Node2</title>
<g id="a_node2"><a xlink:href="encoder_8c.html" target="_top" xlink:title="D:/GIT/fhradiov2/driver\l/src/encoder.c">
<polygon fill="white" stroke="black" points="0,-268.5 0,-298.5 110,-298.5 110,-268.5 0,-268.5"/>
<text text-anchor="start" x="8" y="-286.5" font-family="Helvetica,sans-Serif" font-size="10.00">D:/GIT/fhradiov2/driver</text>
<text text-anchor="middle" x="55" y="-275.5" font-family="Helvetica,sans-Serif" font-size="10.00">/src/encoder.c</text>
</a>
</g>
</g>
<!-- Node1&#45;&gt;Node2 -->
<g id="edge1" class="edge"><title>Node1&#45;&gt;Node2</title>
<path fill="none" stroke="midnightblue" d="M176.22,-331.682C149.437,-321.257 116.098,-308.281 91.1658,-298.577"/>
<polygon fill="midnightblue" stroke="midnightblue" points="175.175,-335.03 185.763,-335.396 177.714,-328.507 175.175,-335.03"/>
</g>
<!-- Node3 -->
<g id="node3" class="node"><title>Node3</title>
<g id="a_node3"><a xlink:href="main_8c.html" target="_top" xlink:title="D:/GIT/fhradiov2/main.c">
<polygon fill="white" stroke="black" points="236.5,-73 236.5,-92 353.5,-92 353.5,-73 236.5,-73"/>
<text text-anchor="middle" x="295" y="-80" font-family="Helvetica,sans-Serif" font-size="10.00">D:/GIT/fhradiov2/main.c</text>
</a>
</g>
</g>
<!-- Node1&#45;&gt;Node3 -->
<g id="edge2" class="edge"><title>Node1&#45;&gt;Node3</title>
<path fill="none" stroke="midnightblue" d="M203.712,-327.264C171.983,-285.83 114.051,-195.451 157,-134 174.903,-108.384 207.271,-95.72 236.162,-89.4779"/>
<polygon fill="midnightblue" stroke="midnightblue" points="201.115,-329.624 210.039,-335.335 206.624,-325.306 201.115,-329.624"/>
</g>
<!-- Node4 -->
<g id="node4" class="node"><title>Node4</title>
<g id="a_node4"><a xlink:href="menu_8h.html" target="_top" xlink:title="D:/GIT/fhradiov2/menu\l/menu.h">
<polygon fill="white" stroke="black" points="250,-268.5 250,-298.5 362,-298.5 362,-268.5 250,-268.5"/>
<text text-anchor="start" x="258" y="-286.5" font-family="Helvetica,sans-Serif" font-size="10.00">D:/GIT/fhradiov2/menu</text>
<text text-anchor="middle" x="306" y="-275.5" font-family="Helvetica,sans-Serif" font-size="10.00">/menu.h</text>
</a>
</g>
</g>
<!-- Node1&#45;&gt;Node4 -->
<g id="edge3" class="edge"><title>Node1&#45;&gt;Node4</title>
<path fill="none" stroke="midnightblue" d="M248.276,-329.168C261.12,-319.228 276.258,-307.514 287.809,-298.577"/>
<polygon fill="midnightblue" stroke="midnightblue" points="245.994,-326.508 240.227,-335.396 250.277,-332.044 245.994,-326.508"/>
</g>
<!-- Node8 -->
<g id="node8" class="node"><title>Node8</title>
<g id="a_node8"><a xlink:href="radio_8h.html" target="_top" xlink:title="D:/GIT/fhradiov2/system\l/radio.h">
<polygon fill="white" stroke="black" points="510,-201.5 510,-231.5 630,-231.5 630,-201.5 510,-201.5"/>
<text text-anchor="start" x="518" y="-219.5" font-family="Helvetica,sans-Serif" font-size="10.00">D:/GIT/fhradiov2/system</text>
<text text-anchor="middle" x="570" y="-208.5" font-family="Helvetica,sans-Serif" font-size="10.00">/radio.h</text>
</a>
</g>
</g>
<!-- Node1&#45;&gt;Node8 -->
<g id="edge27" class="edge"><title>Node1&#45;&gt;Node8</title>
<path fill="none" stroke="midnightblue" d="M275.695,-332.194C304.166,-322.793 339.646,-310.721 371,-299 430.274,-276.842 498.296,-248.297 537.496,-231.537"/>
<polygon fill="midnightblue" stroke="midnightblue" points="274.341,-328.954 265.935,-335.402 276.527,-335.604 274.341,-328.954"/>
</g>
<!-- Node4&#45;&gt;Node3 -->
<g id="edge4" class="edge"><title>Node4&#45;&gt;Node3</title>
<path fill="none" stroke="midnightblue" d="M304.644,-257.962C302.182,-213.433 297.087,-121.253 295.49,-92.3601"/>
<polygon fill="midnightblue" stroke="midnightblue" points="301.162,-258.397 305.209,-268.188 308.152,-258.01 301.162,-258.397"/>
</g>
<!-- Node5 -->
<g id="node5" class="node"><title>Node5</title>
<g id="a_node5"><a xlink:href="menu__struct_8h.html" target="_top" xlink:title="D:/GIT/fhradiov2/menu\l/menu_struct.h">
<polygon fill="white" stroke="black" points="166,-201.5 166,-231.5 278,-231.5 278,-201.5 166,-201.5"/>
<text text-anchor="start" x="174" y="-219.5" font-family="Helvetica,sans-Serif" font-size="10.00">D:/GIT/fhradiov2/menu</text>
<text text-anchor="middle" x="222" y="-208.5" font-family="Helvetica,sans-Serif" font-size="10.00">/menu_struct.h</text>
</a>
</g>
</g>
<!-- Node4&#45;&gt;Node5 -->
<g id="edge5" class="edge"><title>Node4&#45;&gt;Node5</title>
<path fill="none" stroke="midnightblue" d="M273.802,-262.451C260.103,-252.452 244.991,-240.6 234.516,-231.577"/>
<polygon fill="midnightblue" stroke="midnightblue" points="271.928,-265.414 282.095,-268.396 276.006,-259.725 271.928,-265.414"/>
</g>
<!-- Node7 -->
<g id="node7" class="node"><title>Node7</title>
<g id="a_node7"><a xlink:href="menu_8c.html" target="_top" xlink:title="D:/GIT/fhradiov2/menu\l/src/menu.c">
<polygon fill="white" stroke="black" points="334,-201.5 334,-231.5 446,-231.5 446,-201.5 334,-201.5"/>
<text text-anchor="start" x="342" y="-219.5" font-family="Helvetica,sans-Serif" font-size="10.00">D:/GIT/fhradiov2/menu</text>
<text text-anchor="middle" x="390" y="-208.5" font-family="Helvetica,sans-Serif" font-size="10.00">/src/menu.c</text>
</a>
</g>
</g>
<!-- Node4&#45;&gt;Node7 -->
<g id="edge8" class="edge"><title>Node4&#45;&gt;Node7</title>
<path fill="none" stroke="midnightblue" d="M332.276,-262.168C345.12,-252.228 360.258,-240.514 371.809,-231.577"/>
<polygon fill="midnightblue" stroke="midnightblue" points="329.994,-259.508 324.227,-268.396 334.277,-265.044 329.994,-259.508"/>
</g>
<!-- Node4&#45;&gt;Node8 -->
<g id="edge9" class="edge"><title>Node4&#45;&gt;Node8</title>
<path fill="none" stroke="midnightblue" d="M367.051,-266C409.976,-255.146 467.075,-241.118 509.811,-230.943"/>
<polygon fill="midnightblue" stroke="midnightblue" points="366.124,-262.625 357.291,-268.476 367.845,-269.41 366.124,-262.625"/>
</g>
<!-- Node5&#45;&gt;Node4 -->
<g id="edge6" class="edge"><title>Node5&#45;&gt;Node4</title>
<path fill="none" stroke="midnightblue" d="M254.156,-237.518C267.853,-247.514 282.968,-259.367 293.452,-268.396"/>
<polygon fill="midnightblue" stroke="midnightblue" points="256.033,-234.557 245.866,-231.577 251.955,-240.247 256.033,-234.557"/>
</g>
<!-- Node6 -->
<g id="node6" class="node"><title>Node6</title>
<g id="a_node6"><a xlink:href="menu__struct_8c.html" target="_top" xlink:title="D:/GIT/fhradiov2/menu\l/src/menu_struct.c">
<polygon fill="white" stroke="black" points="166,-134.5 166,-164.5 278,-164.5 278,-134.5 166,-134.5"/>
<text text-anchor="start" x="174" y="-152.5" font-family="Helvetica,sans-Serif" font-size="10.00">D:/GIT/fhradiov2/menu</text>
<text text-anchor="middle" x="222" y="-141.5" font-family="Helvetica,sans-Serif" font-size="10.00">/src/menu_struct.c</text>
</a>
</g>
</g>
<!-- Node5&#45;&gt;Node6 -->
<g id="edge7" class="edge"><title>Node5&#45;&gt;Node6</title>
<path fill="none" stroke="midnightblue" d="M222,-191.108C222,-182.154 222,-172.323 222,-164.577"/>
<polygon fill="midnightblue" stroke="midnightblue" points="218.5,-191.396 222,-201.396 225.5,-191.396 218.5,-191.396"/>
</g>
<!-- Node8&#45;&gt;Node3 -->
<g id="edge10" class="edge"><title>Node8&#45;&gt;Node3</title>
<path fill="none" stroke="midnightblue" d="M499.997,-209.537C457.74,-203.344 404.269,-190.723 363,-165 332.661,-146.09 309.254,-109.037 299.695,-92.1981"/>
<polygon fill="midnightblue" stroke="midnightblue" points="499.548,-213.008 509.932,-210.906 500.504,-206.073 499.548,-213.008"/>
</g>
<!-- Node8&#45;&gt;Node4 -->
<g id="edge11" class="edge"><title>Node8&#45;&gt;Node4</title>
<path fill="none" stroke="midnightblue" d="M508.601,-234.088C464.307,-245.286 405.056,-259.831 362.036,-270.044"/>
<polygon fill="midnightblue" stroke="midnightblue" points="509.548,-237.458 518.381,-231.607 507.827,-230.673 509.548,-237.458"/>
</g>
<!-- Node9 -->
<g id="node9" class="node"><title>Node9</title>
<g id="a_node9"><a xlink:href="radio__display_8h.html" target="_top" xlink:title="D:/GIT/fhradiov2/system\l/radio_display.h">
<polygon fill="white" stroke="black" points="962,-134.5 962,-164.5 1082,-164.5 1082,-134.5 962,-134.5"/>
<text text-anchor="start" x="970" y="-152.5" font-family="Helvetica,sans-Serif" font-size="10.00">D:/GIT/fhradiov2/system</text>
<text text-anchor="middle" x="1022" y="-141.5" font-family="Helvetica,sans-Serif" font-size="10.00">/radio_display.h</text>
</a>
</g>
</g>
<!-- Node8&#45;&gt;Node9 -->
<g id="edge12" class="edge"><title>Node8&#45;&gt;Node9</title>
<path fill="none" stroke="midnightblue" d="M640.466,-207.057C715.829,-198.177 838.553,-183.005 944,-165 949.792,-164.011 955.837,-162.883 961.897,-161.703"/>
<polygon fill="midnightblue" stroke="midnightblue" points="639.676,-203.626 630.152,-208.268 640.492,-210.578 639.676,-203.626"/>
</g>
<!-- Node11 -->
<g id="node11" class="node"><title>Node11</title>
<g id="a_node11"><a xlink:href="rds_8h.html" target="_top" xlink:title="D:/GIT/fhradiov2/system\l/rds.h">
<polygon fill="white" stroke="black" points="372,-134.5 372,-164.5 492,-164.5 492,-134.5 372,-134.5"/>
<text text-anchor="start" x="380" y="-152.5" font-family="Helvetica,sans-Serif" font-size="10.00">D:/GIT/fhradiov2/system</text>
<text text-anchor="middle" x="432" y="-141.5" font-family="Helvetica,sans-Serif" font-size="10.00">/rds.h</text>
</a>
</g>
</g>
<!-- Node8&#45;&gt;Node11 -->
<g id="edge15" class="edge"><title>Node8&#45;&gt;Node11</title>
<path fill="none" stroke="midnightblue" d="M531,-197.131C509.073,-186.802 482.126,-174.11 461.886,-164.577"/>
<polygon fill="midnightblue" stroke="midnightblue" points="529.518,-200.301 540.056,-201.396 532.501,-193.968 529.518,-200.301"/>
</g>
<!-- Node13 -->
<g id="node13" class="node"><title>Node13</title>
<g id="a_node13"><a xlink:href="rsq_8h.html" target="_top" xlink:title="D:/GIT/fhradiov2/system\l/rsq.h">
<polygon fill="white" stroke="black" points="510,-134.5 510,-164.5 630,-164.5 630,-134.5 510,-134.5"/>
<text text-anchor="start" x="518" y="-152.5" font-family="Helvetica,sans-Serif" font-size="10.00">D:/GIT/fhradiov2/system</text>
<text text-anchor="middle" x="570" y="-141.5" font-family="Helvetica,sans-Serif" font-size="10.00">/rsq.h</text>
</a>
</g>
</g>
<!-- Node8&#45;&gt;Node13 -->
<g id="edge18" class="edge"><title>Node8&#45;&gt;Node13</title>
<path fill="none" stroke="midnightblue" d="M570,-191.108C570,-182.154 570,-172.323 570,-164.577"/>
<polygon fill="midnightblue" stroke="midnightblue" points="566.5,-191.396 570,-201.396 573.5,-191.396 566.5,-191.396"/>
</g>
<!-- Node15 -->
<g id="node15" class="node"><title>Node15</title>
<g id="a_node15"><a xlink:href="radio_8c.html" target="_top" xlink:title="D:/GIT/fhradiov2/system\l/src/radio.c">
<polygon fill="white" stroke="black" points="824,-134.5 824,-164.5 944,-164.5 944,-134.5 824,-134.5"/>
<text text-anchor="start" x="832" y="-152.5" font-family="Helvetica,sans-Serif" font-size="10.00">D:/GIT/fhradiov2/system</text>
<text text-anchor="middle" x="884" y="-141.5" font-family="Helvetica,sans-Serif" font-size="10.00">/src/radio.c</text>
</a>
</g>
</g>
<!-- Node8&#45;&gt;Node15 -->
<g id="edge21" class="edge"><title>Node8&#45;&gt;Node15</title>
<path fill="none" stroke="midnightblue" d="M640.216,-200.965C695.37,-189.548 771.358,-173.818 823.766,-162.969"/>
<polygon fill="midnightblue" stroke="midnightblue" points="639.254,-197.59 630.171,-203.044 640.673,-204.444 639.254,-197.59"/>
</g>
<!-- Node16 -->
<g id="node16" class="node"><title>Node16</title>
<g id="a_node16"><a xlink:href="station__list__struct_8h.html" target="_top" xlink:title="D:/GIT/fhradiov2/system\l/station_list_struct.h">
<polygon fill="white" stroke="black" points="648,-134.5 648,-164.5 768,-164.5 768,-134.5 648,-134.5"/>
<text text-anchor="start" x="656" y="-152.5" font-family="Helvetica,sans-Serif" font-size="10.00">D:/GIT/fhradiov2/system</text>
<text text-anchor="middle" x="708" y="-141.5" font-family="Helvetica,sans-Serif" font-size="10.00">/station_list_struct.h</text>
</a>
</g>
</g>
<!-- Node8&#45;&gt;Node16 -->
<g id="edge22" class="edge"><title>Node8&#45;&gt;Node16</title>
<path fill="none" stroke="midnightblue" d="M609,-197.131C630.927,-186.802 657.874,-174.11 678.114,-164.577"/>
<polygon fill="midnightblue" stroke="midnightblue" points="607.499,-193.968 599.944,-201.396 610.482,-200.301 607.499,-193.968"/>
</g>
<!-- Node9&#45;&gt;Node8 -->
<g id="edge13" class="edge"><title>Node9&#45;&gt;Node8</title>
<path fill="none" stroke="midnightblue" d="M954.376,-166.279C837.554,-185.849 705.279,-201.615 630.159,-209.679"/>
<polygon fill="midnightblue" stroke="midnightblue" points="955.273,-169.678 964.549,-164.559 954.105,-162.776 955.273,-169.678"/>
</g>
<!-- Node10 -->
<g id="node10" class="node"><title>Node10</title>
<g id="a_node10"><a xlink:href="radio__display_8c.html" target="_top" xlink:title="D:/GIT/fhradiov2/system\l/src/radio_display.c">
<polygon fill="white" stroke="black" points="962,-67.5 962,-97.5 1082,-97.5 1082,-67.5 962,-67.5"/>
<text text-anchor="start" x="970" y="-85.5" font-family="Helvetica,sans-Serif" font-size="10.00">D:/GIT/fhradiov2/system</text>
<text text-anchor="middle" x="1022" y="-74.5" font-family="Helvetica,sans-Serif" font-size="10.00">/src/radio_display.c</text>
</a>
</g>
</g>
<!-- Node9&#45;&gt;Node10 -->
<g id="edge14" class="edge"><title>Node9&#45;&gt;Node10</title>
<path fill="none" stroke="midnightblue" d="M1022,-124.108C1022,-115.154 1022,-105.323 1022,-97.5765"/>
<polygon fill="midnightblue" stroke="midnightblue" points="1018.5,-124.396 1022,-134.396 1025.5,-124.396 1018.5,-124.396"/>
</g>
<!-- Node11&#45;&gt;Node3 -->
<g id="edge16" class="edge"><title>Node11&#45;&gt;Node3</title>
<path fill="none" stroke="midnightblue" d="M392.939,-129.967C366.622,-117.481 333.145,-101.598 312.93,-92.007"/>
<polygon fill="midnightblue" stroke="midnightblue" points="391.738,-133.272 402.273,-134.396 394.739,-126.947 391.738,-133.272"/>
</g>
<!-- Node12 -->
<g id="node12" class="node"><title>Node12</title>
<g id="a_node12"><a xlink:href="rds_8c.html" target="_top" xlink:title="D:/GIT/fhradiov2/system\l/src/rds.c">
<polygon fill="white" stroke="black" points="372,-67.5 372,-97.5 492,-97.5 492,-67.5 372,-67.5"/>
<text text-anchor="start" x="380" y="-85.5" font-family="Helvetica,sans-Serif" font-size="10.00">D:/GIT/fhradiov2/system</text>
<text text-anchor="middle" x="432" y="-74.5" font-family="Helvetica,sans-Serif" font-size="10.00">/src/rds.c</text>
</a>
</g>
</g>
<!-- Node11&#45;&gt;Node12 -->
<g id="edge17" class="edge"><title>Node11&#45;&gt;Node12</title>
<path fill="none" stroke="midnightblue" d="M432,-124.108C432,-115.154 432,-105.323 432,-97.5765"/>
<polygon fill="midnightblue" stroke="midnightblue" points="428.5,-124.396 432,-134.396 435.5,-124.396 428.5,-124.396"/>
</g>
<!-- Node13&#45;&gt;Node3 -->
<g id="edge19" class="edge"><title>Node13&#45;&gt;Node3</title>
<path fill="none" stroke="midnightblue" d="M500.822,-132.149C446.86,-119.394 374.075,-102.191 331.083,-92.0287"/>
<polygon fill="midnightblue" stroke="midnightblue" points="500.131,-135.582 510.668,-134.476 501.741,-128.77 500.131,-135.582"/>
</g>
<!-- Node14 -->
<g id="node14" class="node"><title>Node14</title>
<g id="a_node14"><a xlink:href="rsq_8c.html" target="_top" xlink:title="D:/GIT/fhradiov2/system\l/src/rsq.c">
<polygon fill="white" stroke="black" points="510,-67.5 510,-97.5 630,-97.5 630,-67.5 510,-67.5"/>
<text text-anchor="start" x="518" y="-85.5" font-family="Helvetica,sans-Serif" font-size="10.00">D:/GIT/fhradiov2/system</text>
<text text-anchor="middle" x="570" y="-74.5" font-family="Helvetica,sans-Serif" font-size="10.00">/src/rsq.c</text>
</a>
</g>
</g>
<!-- Node13&#45;&gt;Node14 -->
<g id="edge20" class="edge"><title>Node13&#45;&gt;Node14</title>
<path fill="none" stroke="midnightblue" d="M570,-124.108C570,-115.154 570,-105.323 570,-97.5765"/>
<polygon fill="midnightblue" stroke="midnightblue" points="566.5,-124.396 570,-134.396 573.5,-124.396 566.5,-124.396"/>
</g>
<!-- Node17 -->
<g id="node17" class="node"><title>Node17</title>
<g id="a_node17"><a xlink:href="station__list__struct_8c.html" target="_top" xlink:title="D:/GIT/fhradiov2/system\l/src/station_list_struct.c">
<polygon fill="white" stroke="black" points="648,-67.5 648,-97.5 770,-97.5 770,-67.5 648,-67.5"/>
<text text-anchor="start" x="656" y="-85.5" font-family="Helvetica,sans-Serif" font-size="10.00">D:/GIT/fhradiov2/system</text>
<text text-anchor="middle" x="709" y="-74.5" font-family="Helvetica,sans-Serif" font-size="10.00">/src/station_list_struct.c</text>
</a>
</g>
</g>
<!-- Node16&#45;&gt;Node17 -->
<g id="edge23" class="edge"><title>Node16&#45;&gt;Node17</title>
<path fill="none" stroke="midnightblue" d="M708.375,-124.108C708.513,-115.154 708.664,-105.323 708.783,-97.5765"/>
<polygon fill="midnightblue" stroke="midnightblue" points="704.871,-124.343 708.217,-134.396 711.87,-124.451 704.871,-124.343"/>
</g>
<!-- Node18 -->
<g id="node18" class="node"><title>Node18</title>
<g id="a_node18"><a xlink:href="station__list_8h.html" target="_top" xlink:title="D:/GIT/fhradiov2/system\l/station_list.h">
<polygon fill="white" stroke="black" points="788,-67.5 788,-97.5 908,-97.5 908,-67.5 788,-67.5"/>
<text text-anchor="start" x="796" y="-85.5" font-family="Helvetica,sans-Serif" font-size="10.00">D:/GIT/fhradiov2/system</text>
<text text-anchor="middle" x="848" y="-74.5" font-family="Helvetica,sans-Serif" font-size="10.00">/station_list.h</text>
</a>
</g>
</g>
<!-- Node16&#45;&gt;Node18 -->
<g id="edge24" class="edge"><title>Node16&#45;&gt;Node18</title>
<path fill="none" stroke="midnightblue" d="M747.565,-130.131C769.81,-119.802 797.147,-107.11 817.681,-97.5765"/>
<polygon fill="midnightblue" stroke="midnightblue" points="745.974,-127.01 738.378,-134.396 748.922,-133.359 745.974,-127.01"/>
</g>
<!-- Node18&#45;&gt;Node8 -->
<g id="edge25" class="edge"><title>Node18&#45;&gt;Node8</title>
<path fill="none" stroke="midnightblue" d="M834.028,-106.176C821.394,-124.768 801.108,-150.328 777,-165 732.287,-192.212 673.761,-204.771 630.352,-210.561"/>
<polygon fill="midnightblue" stroke="midnightblue" points="837.039,-107.968 839.599,-97.6868 831.187,-104.127 837.039,-107.968"/>
</g>
<!-- Node19 -->
<g id="node19" class="node"><title>Node19</title>
<g id="a_node19"><a xlink:href="station__list_8c.html" target="_top" xlink:title="D:/GIT/fhradiov2/system\l/src/station_list.c">
<polygon fill="white" stroke="black" points="788,-0.5 788,-30.5 908,-30.5 908,-0.5 788,-0.5"/>
<text text-anchor="start" x="796" y="-18.5" font-family="Helvetica,sans-Serif" font-size="10.00">D:/GIT/fhradiov2/system</text>
<text text-anchor="middle" x="848" y="-7.5" font-family="Helvetica,sans-Serif" font-size="10.00">/src/station_list.c</text>
</a>
</g>
</g>
<!-- Node18&#45;&gt;Node19 -->
<g id="edge26" class="edge"><title>Node18&#45;&gt;Node19</title>
<path fill="none" stroke="midnightblue" d="M848,-57.1081C848,-48.1539 848,-38.3227 848,-30.5765"/>
<polygon fill="midnightblue" stroke="midnightblue" points="844.5,-57.3959 848,-67.396 851.5,-57.396 844.5,-57.3959"/>
</g>
</g>
</svg>
