<?xml version="1.0" encoding="UTF-8" standalone="no"?>
<!DOCTYPE svg PUBLIC "-//W3C//DTD SVG 1.1//EN"
 "http://www.w3.org/Graphics/SVG/1.1/DTD/svg11.dtd">
<!-- Generated by graphviz version 2.38.0 (20140413.2041)
 -->
<!-- Title: ext_interrupt_create Pages: 1 -->
<svg width="302pt" height="104pt"
 viewBox="0.00 0.00 302.00 104.00" xmlns="http://www.w3.org/2000/svg" xmlns:xlink="http://www.w3.org/1999/xlink">
<g id="graph0" class="graph" transform="scale(1 1) rotate(0) translate(4 100)">
<title>ext_interrupt_create</title>
<polygon fill="white" stroke="none" points="-4,4 -4,-100 298,-100 298,4 -4,4"/>
<!-- Node1 -->
<g id="node1" class="node"><title>Node1</title>
<polygon fill="#bfbfbf" stroke="black" points="0,-38.5 0,-57.5 103,-57.5 103,-38.5 0,-38.5"/>
<text text-anchor="middle" x="51.5" y="-45.5" font-family="Helvetica,sans-Serif" font-size="10.00">ext_interrupt_create</text>
</g>
<!-- Node2 -->
<g id="node2" class="node"><title>Node2</title>
<g id="a_node2"><a xlink:href="encoder_8c.html#a1b09f480da15d565de0b4acf37f40199" target="_top" xlink:title="Encoder_1_init">
<polygon fill="white" stroke="black" points="139,-76.5 139,-95.5 220,-95.5 220,-76.5 139,-76.5"/>
<text text-anchor="middle" x="179.5" y="-83.5" font-family="Helvetica,sans-Serif" font-size="10.00">Encoder_1_init</text>
</a>
</g>
</g>
<!-- Node1&#45;&gt;Node2 -->
<g id="edge1" class="edge"><title>Node1&#45;&gt;Node2</title>
<path fill="none" stroke="midnightblue" d="M94.0644,-60.5353C111.205,-65.7048 130.75,-71.5991 146.715,-76.4141"/>
<polygon fill="midnightblue" stroke="midnightblue" points="94.8798,-57.1256 84.2951,-57.589 92.8586,-63.8274 94.8798,-57.1256"/>
</g>
<!-- Node4 -->
<g id="node4" class="node"><title>Node4</title>
<g id="a_node4"><a xlink:href="encoder_8c.html#af947b4bf6e9bc6d5b580609d046789da" target="_top" xlink:title="Encoder_2_init">
<polygon fill="white" stroke="black" points="139,-38.5 139,-57.5 220,-57.5 220,-38.5 139,-38.5"/>
<text text-anchor="middle" x="179.5" y="-45.5" font-family="Helvetica,sans-Serif" font-size="10.00">Encoder_2_init</text>
</a>
</g>
</g>
<!-- Node1&#45;&gt;Node4 -->
<g id="edge3" class="edge"><title>Node1&#45;&gt;Node4</title>
<path fill="none" stroke="midnightblue" d="M113.182,-48C121.893,-48 130.663,-48 138.825,-48"/>
<polygon fill="midnightblue" stroke="midnightblue" points="113.023,-44.5001 103.023,-48 113.023,-51.5001 113.023,-44.5001"/>
</g>
<!-- Node5 -->
<g id="node5" class="node"><title>Node5</title>
<g id="a_node5"><a xlink:href="si4735_8c.html#a876518b974a7128391e2ff86a597218f" target="_top" xlink:title="SI4735_INIT">
<polygon fill="white" stroke="black" points="145.5,-0.5 145.5,-19.5 213.5,-19.5 213.5,-0.5 145.5,-0.5"/>
<text text-anchor="middle" x="179.5" y="-7.5" font-family="Helvetica,sans-Serif" font-size="10.00">SI4735_INIT</text>
</a>
</g>
</g>
<!-- Node1&#45;&gt;Node5 -->
<g id="edge5" class="edge"><title>Node1&#45;&gt;Node5</title>
<path fill="none" stroke="midnightblue" d="M94.0644,-35.4647C111.205,-30.2952 130.75,-24.4009 146.715,-19.5859"/>
<polygon fill="midnightblue" stroke="midnightblue" points="92.8586,-32.1726 84.2951,-38.411 94.8798,-38.8744 92.8586,-32.1726"/>
</g>
<!-- Node3 -->
<g id="node3" class="node"><title>Node3</title>
<g id="a_node3"><a xlink:href="main_8c.html#a840291bc02cba5474a4cb46a9b9566fe" target="_top" xlink:title="main">
<polygon fill="white" stroke="black" points="256,-38.5 256,-57.5 294,-57.5 294,-38.5 256,-38.5"/>
<text text-anchor="middle" x="275" y="-45.5" font-family="Helvetica,sans-Serif" font-size="10.00">main</text>
</a>
</g>
</g>
<!-- Node2&#45;&gt;Node3 -->
<g id="edge2" class="edge"><title>Node2&#45;&gt;Node3</title>
<path fill="none" stroke="midnightblue" d="M213.541,-72.5717C227.716,-66.8107 243.736,-60.2998 255.722,-55.4283"/>
<polygon fill="midnightblue" stroke="midnightblue" points="212.04,-69.4034 204.094,-76.411 214.676,-75.8883 212.04,-69.4034"/>
</g>
<!-- Node4&#45;&gt;Node3 -->
<g id="edge4" class="edge"><title>Node4&#45;&gt;Node3</title>
<path fill="none" stroke="midnightblue" d="M230.357,-48C239.401,-48 248.289,-48 255.66,-48"/>
<polygon fill="midnightblue" stroke="midnightblue" points="230.152,-44.5001 220.152,-48 230.152,-51.5001 230.152,-44.5001"/>
</g>
<!-- Node5&#45;&gt;Node3 -->
<g id="edge6" class="edge"><title>Node5&#45;&gt;Node3</title>
<path fill="none" stroke="midnightblue" d="M213.541,-23.4283C227.716,-29.1893 243.736,-35.7002 255.722,-40.5717"/>
<polygon fill="midnightblue" stroke="midnightblue" points="214.676,-20.1117 204.094,-19.589 212.04,-26.5966 214.676,-20.1117"/>
</g>
</g>
</svg>
