<?xml version="1.0" encoding="UTF-8" standalone="no"?>
<!DOCTYPE svg PUBLIC "-//W3C//DTD SVG 1.1//EN"
 "http://www.w3.org/Graphics/SVG/1.1/DTD/svg11.dtd">
<!-- Generated by graphviz version 2.38.0 (20140413.2041)
 -->
<!-- Title: ext_interrupt_disable Pages: 1 -->
<!--zoomable 238 -->
<svg id="main" version="1.1" xmlns="http://www.w3.org/2000/svg" xmlns:xlink="http://www.w3.org/1999/xlink" xml:space="preserve" onload="init(evt)">
<style type="text/css"><![CDATA[
.edge:hover path { stroke: red; }
.edge:hover polygon { stroke: red; fill: red; }
]]></style>
<script type="text/javascript"><![CDATA[
var edges = document.getElementsByTagName('g');
if (edges && edges.length) {
  for (var i=0;i<edges.length;i++) {
    if (edges[i].id.substr(0,4)=='edge') {
      edges[i].setAttribute('class','edge');
    }
  }
}
]]></script>
        <defs>
                <circle id="rim" cx="0" cy="0" r="7"/>
                <circle id="rim2" cx="0" cy="0" r="3.5"/>
                <g id="zoomPlus">
                        <use xlink:href="#rim" fill="#404040">
                                <set attributeName="fill" to="#808080" begin="zoomplus.mouseover" end="zoomplus.mouseout"/>
                        </use>
                        <path d="M-4,0h8M0,-4v8" fill="none" stroke="white" stroke-width="1.5" pointer-events="none"/>
                </g>
                <g id="zoomMin">
                        <use xlink:href="#rim" fill="#404040">
                                <set attributeName="fill" to="#808080" begin="zoomminus.mouseover" end="zoomminus.mouseout"/>
                        </use>
                        <path d="M-4,0h8" fill="none" stroke="white" stroke-width="1.5" pointer-events="none"/>
                </g>
                <g id="dirArrow">
                        <path fill="none" stroke="white" stroke-width="1.5" d="M0,-3.0v7 M-2.5,-0.5L0,-3.0L2.5,-0.5"/>
                </g>
               <g id="resetDef">
                       <use xlink:href="#rim2" fill="#404040">
                               <set attributeName="fill" to="#808080" begin="reset.mouseover" end="reset.mouseout"/>
                       </use>
               </g>
        </defs>

<script type="text/javascript">
var viewWidth = 928;
var viewHeight = 238;
var sectionId = 'dynsection-3';
</script>
<script xlink:href="svgpan.js"/>
<svg id="graph" class="graph">
<g id="viewport">
<title>ext_interrupt_disable</title>
<polygon fill="white" stroke="none" points="-4,4 -4,-233.846 924,-233.846 924,4 -4,4"/>
<!-- Node1 -->
<g id="node1" class="node"><title>Node1</title>
<polygon fill="#bfbfbf" stroke="black" points="0,-153.346 0,-172.346 107,-172.346 107,-153.346 0,-153.346"/>
<text text-anchor="middle" x="53.5" y="-160.346" font-family="Helvetica,sans-Serif" font-size="10.00">ext_interrupt_disable</text>
</g>
<!-- Node2 -->
<g id="node2" class="node"><title>Node2</title>
<g id="a_node2"><a xlink:href="si4735_8c.html#a876518b974a7128391e2ff86a597218f" target="_top" xlink:title="SI4735_INIT">
<polygon fill="white" stroke="black" points="155,-210.346 155,-229.346 223,-229.346 223,-210.346 155,-210.346"/>
<text text-anchor="middle" x="189" y="-217.346" font-family="Helvetica,sans-Serif" font-size="10.00">SI4735_INIT</text>
</a>
</g>
</g>
<!-- Node1&#45;&gt;Node2 -->
<g id="edge1" class="edge"><title>Node1&#45;&gt;Node2</title>
<path fill="none" stroke="midnightblue" d="M86.0671,-176.455C102.948,-183.719 124.095,-192.797 143,-200.846 150.178,-203.903 158.009,-207.216 165.096,-210.207"/>
<polygon fill="midnightblue" stroke="midnightblue" points="87.2391,-173.149 76.6701,-172.41 84.471,-179.579 87.2391,-173.149"/>
</g>
<!-- Node5 -->
<g id="node5" class="node"><title>Node5</title>
<g id="a_node5"><a xlink:href="radio_8c.html#aead0d199e23b8cc254924b96b017210b" target="_top" xlink:title="radio_set_volume">
<polygon fill="white" stroke="black" points="143,-172.346 143,-191.346 235,-191.346 235,-172.346 143,-172.346"/>
<text text-anchor="middle" x="189" y="-179.346" font-family="Helvetica,sans-Serif" font-size="10.00">radio_set_volume</text>
</a>
</g>
</g>
<!-- Node1&#45;&gt;Node5 -->
<g id="edge4" class="edge"><title>Node1&#45;&gt;Node5</title>
<path fill="none" stroke="midnightblue" d="M117.335,-171.789C125.979,-173.019 134.711,-174.262 142.948,-175.434"/>
<polygon fill="midnightblue" stroke="midnightblue" points="117.656,-168.3 107.263,-170.355 116.67,-175.23 117.656,-168.3"/>
</g>
<!-- Node11 -->
<g id="node11" class="node"><title>Node11</title>
<g id="a_node11"><a xlink:href="radio_8c.html#a6d652e9d0f1c54bfe9ec73fe2605b706" target="_top" xlink:title="radio_tune_freq">
<polygon fill="white" stroke="black" points="147.5,-134.346 147.5,-153.346 230.5,-153.346 230.5,-134.346 147.5,-134.346"/>
<text text-anchor="middle" x="189" y="-141.346" font-family="Helvetica,sans-Serif" font-size="10.00">radio_tune_freq</text>
</a>
</g>
</g>
<!-- Node1&#45;&gt;Node11 -->
<g id="edge13" class="edge"><title>Node1&#45;&gt;Node11</title>
<path fill="none" stroke="midnightblue" d="M117.321,-153.905C127.454,-152.463 137.709,-151.004 147.146,-149.661"/>
<polygon fill="midnightblue" stroke="midnightblue" points="116.67,-150.463 107.263,-155.337 117.656,-157.393 116.67,-150.463"/>
</g>
<!-- Node14 -->
<g id="node14" class="node"><title>Node14</title>
<g id="a_node14"><a xlink:href="radio_8c.html#aee6321b512830d482a2fc164cf11f9e9" target="_top" xlink:title="radio_seeking">
<polygon fill="white" stroke="black" points="283,-20.3462 283,-39.3462 360,-39.3462 360,-20.3462 283,-20.3462"/>
<text text-anchor="middle" x="321.5" y="-27.3462" font-family="Helvetica,sans-Serif" font-size="10.00">radio_seeking</text>
</a>
</g>
</g>
<!-- Node1&#45;&gt;Node14 -->
<g id="edge19" class="edge"><title>Node1&#45;&gt;Node14</title>
<path fill="none" stroke="midnightblue" d="M82.6947,-148.749C136.995,-121.599 254.809,-62.6915 301.186,-39.5032"/>
<polygon fill="midnightblue" stroke="midnightblue" points="81.0091,-145.678 73.6301,-153.281 84.1396,-151.939 81.0091,-145.678"/>
</g>
<!-- Node3 -->
<g id="node3" class="node"><title>Node3</title>
<g id="a_node3"><a xlink:href="radio_8c.html#a3a1de7e31aabba6e408a633c130e618a" target="_top" xlink:title="radio_init">
<polygon fill="white" stroke="black" points="293.5,-210.346 293.5,-229.346 349.5,-229.346 349.5,-210.346 293.5,-210.346"/>
<text text-anchor="middle" x="321.5" y="-217.346" font-family="Helvetica,sans-Serif" font-size="10.00">radio_init</text>
</a>
</g>
</g>
<!-- Node2&#45;&gt;Node3 -->
<g id="edge2" class="edge"><title>Node2&#45;&gt;Node3</title>
<path fill="none" stroke="midnightblue" d="M233.324,-219.846C253.174,-219.846 276.088,-219.846 293.441,-219.846"/>
<polygon fill="midnightblue" stroke="midnightblue" points="233.268,-216.346 223.268,-219.846 233.268,-223.346 233.268,-216.346"/>
</g>
<!-- Node4 -->
<g id="node4" class="node"><title>Node4</title>
<g id="a_node4"><a xlink:href="main_8c.html#a840291bc02cba5474a4cb46a9b9566fe" target="_top" xlink:title="main">
<polygon fill="white" stroke="black" points="882,-191.346 882,-210.346 920,-210.346 920,-191.346 882,-191.346"/>
<text text-anchor="middle" x="901" y="-198.346" font-family="Helvetica,sans-Serif" font-size="10.00">main</text>
</a>
</g>
</g>
<!-- Node3&#45;&gt;Node4 -->
<g id="edge3" class="edge"><title>Node3&#45;&gt;Node4</title>
<path fill="none" stroke="midnightblue" d="M359.934,-219.846C409.641,-219.846 500.167,-219.846 577.5,-219.846 577.5,-219.846 577.5,-219.846 694,-219.846 763.676,-219.846 846.051,-208.935 881.865,-203.65"/>
<polygon fill="midnightblue" stroke="midnightblue" points="359.672,-216.346 349.672,-219.846 359.672,-223.346 359.672,-216.346"/>
</g>
<!-- Node5&#45;&gt;Node3 -->
<g id="edge5" class="edge"><title>Node5&#45;&gt;Node3</title>
<path fill="none" stroke="midnightblue" d="M232.719,-194.285C252.654,-200.09 275.789,-206.827 293.302,-211.926"/>
<polygon fill="midnightblue" stroke="midnightblue" points="233.51,-190.871 222.931,-191.435 231.553,-197.591 233.51,-190.871"/>
</g>
<!-- Node6 -->
<g id="node6" class="node"><title>Node6</title>
<g id="a_node6"><a xlink:href="radio_8c.html#afce06a210fd84b9acb905e8ab81feaeb" target="_top" xlink:title="radio_volume">
<polygon fill="white" stroke="black" points="419.5,-172.346 419.5,-191.346 492.5,-191.346 492.5,-172.346 419.5,-172.346"/>
<text text-anchor="middle" x="456" y="-179.346" font-family="Helvetica,sans-Serif" font-size="10.00">radio_volume</text>
</a>
</g>
</g>
<!-- Node5&#45;&gt;Node6 -->
<g id="edge6" class="edge"><title>Node5&#45;&gt;Node6</title>
<path fill="none" stroke="midnightblue" d="M245.372,-181.846C297.689,-181.846 374.618,-181.846 419.278,-181.846"/>
<polygon fill="midnightblue" stroke="midnightblue" points="245.254,-178.346 235.254,-181.846 245.254,-185.346 245.254,-178.346"/>
</g>
<!-- Node10 -->
<g id="node10" class="node"><title>Node10</title>
<g id="a_node10"><a xlink:href="radio_8c.html#a5f7fcd9e9755fb5e22175a4ad74a5456" target="_top" xlink:title="radio_main">
<polygon fill="white" stroke="black" points="289.5,-134.346 289.5,-153.346 353.5,-153.346 353.5,-134.346 289.5,-134.346"/>
<text text-anchor="middle" x="321.5" y="-141.346" font-family="Helvetica,sans-Serif" font-size="10.00">radio_main</text>
</a>
</g>
</g>
<!-- Node5&#45;&gt;Node10 -->
<g id="edge11" class="edge"><title>Node5&#45;&gt;Node10</title>
<path fill="none" stroke="midnightblue" d="M232.599,-169.442C251.106,-164.053 272.389,-157.856 289.377,-152.909"/>
<polygon fill="midnightblue" stroke="midnightblue" points="231.553,-166.101 222.931,-172.257 233.51,-172.822 231.553,-166.101"/>
</g>
<!-- Node7 -->
<g id="node7" class="node"><title>Node7</title>
<g id="a_node7"><a xlink:href="radio_8c.html#a832a684fc60104296fc975a7608f92b4" target="_top" xlink:title="radio_settings">
<polygon fill="white" stroke="black" points="540,-77.3462 540,-96.3462 617,-96.3462 617,-77.3462 540,-77.3462"/>
<text text-anchor="middle" x="578.5" y="-84.3462" font-family="Helvetica,sans-Serif" font-size="10.00">radio_settings</text>
</a>
</g>
</g>
<!-- Node6&#45;&gt;Node7 -->
<g id="edge7" class="edge"><title>Node6&#45;&gt;Node7</title>
<path fill="none" stroke="midnightblue" d="M477.605,-165.601C502.826,-145.718 544.712,-112.696 565.305,-96.4602"/>
<polygon fill="midnightblue" stroke="midnightblue" points="475.128,-163.098 469.442,-172.037 479.462,-168.595 475.128,-163.098"/>
</g>
<!-- Node8 -->
<g id="node8" class="node"><title>Node8</title>
<g id="a_node8"><a xlink:href="menu_8c.html#a5d9c190838195d7872fc7067269e20fa" target="_top" xlink:title="menu_function">
<polygon fill="white" stroke="black" points="653,-134.346 653,-153.346 733,-153.346 733,-134.346 653,-134.346"/>
<text text-anchor="middle" x="693" y="-141.346" font-family="Helvetica,sans-Serif" font-size="10.00">menu_function</text>
</a>
</g>
</g>
<!-- Node7&#45;&gt;Node8 -->
<g id="edge8" class="edge"><title>Node7&#45;&gt;Node8</title>
<path fill="none" stroke="midnightblue" d="M607.482,-101.024C627.948,-111.393 655.16,-125.18 673.109,-134.275"/>
<polygon fill="midnightblue" stroke="midnightblue" points="608.832,-97.7843 598.33,-96.3867 605.668,-104.029 608.832,-97.7843"/>
</g>
<!-- Node9 -->
<g id="node9" class="node"><title>Node9</title>
<g id="a_node9"><a xlink:href="menu_8c.html#aaf2a075d3159f7eeab42012941a3437f" target="_top" xlink:title="menu_handler">
<polygon fill="white" stroke="black" points="769,-153.346 769,-172.346 846,-172.346 846,-153.346 769,-153.346"/>
<text text-anchor="middle" x="807.5" y="-160.346" font-family="Helvetica,sans-Serif" font-size="10.00">menu_handler</text>
</a>
</g>
</g>
<!-- Node8&#45;&gt;Node9 -->
<g id="edge9" class="edge"><title>Node8&#45;&gt;Node9</title>
<path fill="none" stroke="midnightblue" d="M742.982,-152.119C751.59,-153.573 760.43,-155.065 768.676,-156.458"/>
<polygon fill="midnightblue" stroke="midnightblue" points="743.475,-148.652 733.031,-150.438 742.309,-155.555 743.475,-148.652"/>
</g>
<!-- Node9&#45;&gt;Node4 -->
<g id="edge10" class="edge"><title>Node9&#45;&gt;Node4</title>
<path fill="none" stroke="midnightblue" d="M841.167,-176.413C854.841,-182.091 870.217,-188.477 881.82,-193.296"/>
<polygon fill="midnightblue" stroke="midnightblue" points="842.167,-173.038 831.589,-172.435 839.482,-179.503 842.167,-173.038"/>
</g>
<!-- Node10&#45;&gt;Node8 -->
<g id="edge12" class="edge"><title>Node10&#45;&gt;Node8</title>
<path fill="none" stroke="midnightblue" d="M363.711,-143.846C435.488,-143.846 582.488,-143.846 652.819,-143.846"/>
<polygon fill="midnightblue" stroke="midnightblue" points="363.685,-140.346 353.685,-143.846 363.685,-147.346 363.685,-140.346"/>
</g>
<!-- Node11&#45;&gt;Node10 -->
<g id="edge14" class="edge"><title>Node11&#45;&gt;Node10</title>
<path fill="none" stroke="midnightblue" d="M240.625,-143.846C257.102,-143.846 274.89,-143.846 289.488,-143.846"/>
<polygon fill="midnightblue" stroke="midnightblue" points="240.576,-140.346 230.576,-143.846 240.576,-147.346 240.576,-140.346"/>
</g>
<!-- Node12 -->
<g id="node12" class="node"><title>Node12</title>
<g id="a_node12"><a xlink:href="station__list_8h.html#a5b16204c2b6824ce89364d614f074b20" target="_top" xlink:title="station_list_handler">
<polygon fill="white" stroke="black" points="271,-96.3462 271,-115.346 372,-115.346 372,-96.3462 271,-96.3462"/>
<text text-anchor="middle" x="321.5" y="-103.346" font-family="Helvetica,sans-Serif" font-size="10.00">station_list_handler</text>
</a>
</g>
</g>
<!-- Node11&#45;&gt;Node12 -->
<g id="edge15" class="edge"><title>Node11&#45;&gt;Node12</title>
<path fill="none" stroke="midnightblue" d="M232.552,-131.456C250.423,-126.252 270.89,-120.292 287.58,-115.432"/>
<polygon fill="midnightblue" stroke="midnightblue" points="231.553,-128.101 222.931,-134.257 233.51,-134.822 231.553,-128.101"/>
</g>
<!-- Node12&#45;&gt;Node7 -->
<g id="edge16" class="edge"><title>Node12&#45;&gt;Node7</title>
<path fill="none" stroke="midnightblue" d="M366.899,-94.0489C380.034,-91.0847 394.51,-88.327 408,-86.8462 453.047,-81.9013 505.235,-82.9057 539.671,-84.4911"/>
<polygon fill="midnightblue" stroke="midnightblue" points="366.089,-90.6438 357.155,-96.3382 367.69,-97.4582 366.089,-90.6438"/>
</g>
<!-- Node13 -->
<g id="node13" class="node"><title>Node13</title>
<g id="a_node13"><a xlink:href="radio_8c.html#aae41d271062b3f94cccf4fb5996b04a2" target="_top" xlink:title="radio_frequency">
<polygon fill="white" stroke="black" points="413.5,-96.3462 413.5,-115.346 498.5,-115.346 498.5,-96.3462 413.5,-96.3462"/>
<text text-anchor="middle" x="456" y="-103.346" font-family="Helvetica,sans-Serif" font-size="10.00">radio_frequency</text>
</a>
</g>
</g>
<!-- Node12&#45;&gt;Node13 -->
<g id="edge17" class="edge"><title>Node12&#45;&gt;Node13</title>
<path fill="none" stroke="midnightblue" d="M382.494,-105.846C392.881,-105.846 403.474,-105.846 413.241,-105.846"/>
<polygon fill="midnightblue" stroke="midnightblue" points="382.215,-102.346 372.215,-105.846 382.215,-109.346 382.215,-102.346"/>
</g>
<!-- Node13&#45;&gt;Node7 -->
<g id="edge18" class="edge"><title>Node13&#45;&gt;Node7</title>
<path fill="none" stroke="midnightblue" d="M509.002,-97.6466C519.355,-96.0143 530.038,-94.3298 539.799,-92.7907"/>
<polygon fill="midnightblue" stroke="midnightblue" points="508.14,-94.2393 498.807,-99.2542 509.23,-101.154 508.14,-94.2393"/>
</g>
<!-- Node14&#45;&gt;Node7 -->
<g id="edge20" class="edge"><title>Node14&#45;&gt;Node7</title>
<path fill="none" stroke="midnightblue" d="M356.138,-16.8174C393.712,-4.38198 455.609,9.67378 504,-10.8462 536.277,-24.5329 561.305,-60.1023 571.933,-77.2826"/>
<polygon fill="midnightblue" stroke="midnightblue" points="354.521,-13.6731 346.217,-20.2517 356.811,-20.288 354.521,-13.6731"/>
</g>
<!-- Node15 -->
<g id="node15" class="node"><title>Node15</title>
<g id="a_node15"><a xlink:href="radio_8c.html#ac96da2886aec92b299b27b500761564c" target="_top" xlink:title="radio_auto_search">
<polygon fill="white" stroke="black" points="408,-20.3462 408,-39.3462 504,-39.3462 504,-20.3462 408,-20.3462"/>
<text text-anchor="middle" x="456" y="-27.3462" font-family="Helvetica,sans-Serif" font-size="10.00">radio_auto_search</text>
</a>
</g>
</g>
<!-- Node14&#45;&gt;Node15 -->
<g id="edge21" class="edge"><title>Node14&#45;&gt;Node15</title>
<path fill="none" stroke="midnightblue" d="M370.155,-29.8462C382.416,-29.8462 395.601,-29.8462 407.837,-29.8462"/>
<polygon fill="midnightblue" stroke="midnightblue" points="370.115,-26.3463 360.115,-29.8462 370.115,-33.3463 370.115,-26.3463"/>
</g>
<!-- Node15&#45;&gt;Node7 -->
<g id="edge22" class="edge"><title>Node15&#45;&gt;Node7</title>
<path fill="none" stroke="midnightblue" d="M486.379,-43.7432C508.365,-54.1433 537.866,-68.0982 557.265,-77.2745"/>
<polygon fill="midnightblue" stroke="midnightblue" points="487.705,-40.4989 477.169,-39.3867 484.712,-46.8267 487.705,-40.4989"/>
</g>
</g>
</svg>
        <g id="navigator" transform="translate(0 0)" fill="#404254">
                <rect fill="#f2f5e9" fill-opacity="0.5" stroke="#606060" stroke-width=".5" x="0" y="0" width="60" height="60"/>
                <use id="zoomplus" xlink:href="#zoomPlus" x="17" y="9" onmousedown="handleZoom(evt,'in')"/>
                <use id="zoomminus" xlink:href="#zoomMin" x="42" y="9" onmousedown="handleZoom(evt,'out')"/>
                <use id="reset" xlink:href="#resetDef" x="30" y="36" onmousedown="handleReset()"/>
                <g id="arrowUp" xlink:href="#dirArrow" transform="translate(30 24)" onmousedown="handlePan(0,-1)">
                  <use xlink:href="#rim" fill="#404040">
                        <set attributeName="fill" to="#808080" begin="arrowUp.mouseover" end="arrowUp.mouseout"/>
                  </use>
                  <path fill="none" stroke="white" stroke-width="1.5" d="M0,-3.0v7 M-2.5,-0.5L0,-3.0L2.5,-0.5"/>
                </g>
                <g id="arrowRight" xlink:href="#dirArrow" transform="rotate(90) translate(36 -43)" onmousedown="handlePan(1,0)">
                  <use xlink:href="#rim" fill="#404040">
                        <set attributeName="fill" to="#808080" begin="arrowRight.mouseover" end="arrowRight.mouseout"/>
                  </use>
                  <path fill="none" stroke="white" stroke-width="1.5" d="M0,-3.0v7 M-2.5,-0.5L0,-3.0L2.5,-0.5"/>
                </g>
                <g id="arrowDown" xlink:href="#dirArrow" transform="rotate(180) translate(-30 -48)" onmousedown="handlePan(0,1)">
                  <use xlink:href="#rim" fill="#404040">
                        <set attributeName="fill" to="#808080" begin="arrowDown.mouseover" end="arrowDown.mouseout"/>
                  </use>
                  <path fill="none" stroke="white" stroke-width="1.5" d="M0,-3.0v7 M-2.5,-0.5L0,-3.0L2.5,-0.5"/>
                </g>
                <g id="arrowLeft" xlink:href="#dirArrow" transform="rotate(270) translate(-36 17)" onmousedown="handlePan(-1,0)">
                  <use xlink:href="#rim" fill="#404040">
                        <set attributeName="fill" to="#808080" begin="arrowLeft.mouseover" end="arrowLeft.mouseout"/>
                  </use>
                  <path fill="none" stroke="white" stroke-width="1.5" d="M0,-3.0v7 M-2.5,-0.5L0,-3.0L2.5,-0.5"/>
                </g>
        </g>
        <svg viewBox="0 0 15 15" width="100%" height="30px" preserveAspectRatio="xMaxYMin meet">
         <g id="arrow_out" transform="scale(0.3 0.3)">
          <a xlink:href="external__interrupthandler_8h_a67fb5781413cf5c193be332cc6e52209_icgraph_org.svg" target="_base">
           <rect id="button" ry="5" rx="5" y="6" x="6" height="38" width="38"
                fill="#f2f5e9" fill-opacity="0.5" stroke="#606060" stroke-width="1.0"/>
           <path id="arrow"
             d="M 11.500037,31.436501 C 11.940474,20.09759 22.043105,11.32322 32.158766,21.979434 L 37.068811,17.246167 C 37.068811,17.246167 37.088388,32 37.088388,32 L 22.160133,31.978069 C 22.160133,31.978069 26.997745,27.140456 26.997745,27.140456 C 18.528582,18.264221 13.291696,25.230495 11.500037,31.436501 z"
             style="fill:#404040;"/>
          </a>
         </g>
        </svg>
</svg>
