<?xml version="1.0" encoding="UTF-8" standalone="no"?>
<!DOCTYPE svg PUBLIC "-//W3C//DTD SVG 1.1//EN"
 "http://www.w3.org/Graphics/SVG/1.1/DTD/svg11.dtd">
<!-- Generated by graphviz version 2.38.0 (20140413.2041)
 -->
<!-- Title: ext_interrupt_enable Pages: 1 -->
<svg width="361pt" height="142pt"
 viewBox="0.00 0.00 361.00 142.00" xmlns="http://www.w3.org/2000/svg" xmlns:xlink="http://www.w3.org/1999/xlink">
<g id="graph0" class="graph" transform="scale(1 1) rotate(0) translate(4 138)">
<title>ext_interrupt_enable</title>
<polygon fill="white" stroke="none" points="-4,4 -4,-138 357,-138 357,4 -4,4"/>
<!-- Node1 -->
<g id="node1" class="node"><title>Node1</title>
<polygon fill="#bfbfbf" stroke="black" points="0,-57.5 0,-76.5 104,-76.5 104,-57.5 0,-57.5"/>
<text text-anchor="middle" x="52" y="-64.5" font-family="Helvetica,sans-Serif" font-size="10.00">ext_interrupt_enable</text>
</g>
<!-- Node2 -->
<g id="node2" class="node"><title>Node2</title>
<g id="a_node2"><a xlink:href="encoder_8c.html#a1b09f480da15d565de0b4acf37f40199" target="_top" xlink:title="Encoder_1_init">
<polygon fill="white" stroke="black" points="140,-114.5 140,-133.5 221,-133.5 221,-114.5 140,-114.5"/>
<text text-anchor="middle" x="180.5" y="-121.5" font-family="Helvetica,sans-Serif" font-size="10.00">Encoder_1_init</text>
</a>
</g>
</g>
<!-- Node1&#45;&gt;Node2 -->
<g id="edge1" class="edge"><title>Node1&#45;&gt;Node2</title>
<path fill="none" stroke="midnightblue" d="M83.5317,-80.7574C106.645,-91.1719 137.801,-105.211 158.258,-114.428"/>
<polygon fill="midnightblue" stroke="midnightblue" points="84.7283,-77.4577 74.1733,-76.5405 81.8526,-83.8397 84.7283,-77.4577"/>
</g>
<!-- Node4 -->
<g id="node4" class="node"><title>Node4</title>
<g id="a_node4"><a xlink:href="encoder_8c.html#af947b4bf6e9bc6d5b580609d046789da" target="_top" xlink:title="Encoder_2_init">
<polygon fill="white" stroke="black" points="140,-76.5 140,-95.5 221,-95.5 221,-76.5 140,-76.5"/>
<text text-anchor="middle" x="180.5" y="-83.5" font-family="Helvetica,sans-Serif" font-size="10.00">Encoder_2_init</text>
</a>
</g>
</g>
<!-- Node1&#45;&gt;Node4 -->
<g id="edge3" class="edge"><title>Node1&#45;&gt;Node4</title>
<path fill="none" stroke="midnightblue" d="M114.258,-76.2007C122.974,-77.51 131.742,-78.8268 139.896,-80.0516"/>
<polygon fill="midnightblue" stroke="midnightblue" points="114.497,-72.6975 104.088,-74.6733 113.457,-79.6198 114.497,-72.6975"/>
</g>
<!-- Node5 -->
<g id="node5" class="node"><title>Node5</title>
<g id="a_node5"><a xlink:href="si4735_8c.html#a876518b974a7128391e2ff86a597218f" target="_top" xlink:title="SI4735_INIT">
<polygon fill="white" stroke="black" points="146.5,-38.5 146.5,-57.5 214.5,-57.5 214.5,-38.5 146.5,-38.5"/>
<text text-anchor="middle" x="180.5" y="-45.5" font-family="Helvetica,sans-Serif" font-size="10.00">SI4735_INIT</text>
</a>
</g>
</g>
<!-- Node1&#45;&gt;Node5 -->
<g id="edge5" class="edge"><title>Node1&#45;&gt;Node5</title>
<path fill="none" stroke="midnightblue" d="M114.218,-57.8052C125.318,-56.1381 136.501,-54.4584 146.398,-52.9719"/>
<polygon fill="midnightblue" stroke="midnightblue" points="113.457,-54.3802 104.088,-59.3267 114.497,-61.3025 113.457,-54.3802"/>
</g>
<!-- Node6 -->
<g id="node6" class="node"><title>Node6</title>
<g id="a_node6"><a xlink:href="radio_8c.html#aee6321b512830d482a2fc164cf11f9e9" target="_top" xlink:title="radio_seeking">
<polygon fill="white" stroke="black" points="142,-0.5 142,-19.5 219,-19.5 219,-0.5 142,-0.5"/>
<text text-anchor="middle" x="180.5" y="-7.5" font-family="Helvetica,sans-Serif" font-size="10.00">radio_seeking</text>
</a>
</g>
</g>
<!-- Node1&#45;&gt;Node6 -->
<g id="edge7" class="edge"><title>Node1&#45;&gt;Node6</title>
<path fill="none" stroke="midnightblue" d="M83.5317,-53.2426C106.645,-42.8281 137.801,-28.7892 158.258,-19.5716"/>
<polygon fill="midnightblue" stroke="midnightblue" points="81.8526,-50.1603 74.1733,-57.4595 84.7283,-56.5423 81.8526,-50.1603"/>
</g>
<!-- Node3 -->
<g id="node3" class="node"><title>Node3</title>
<g id="a_node3"><a xlink:href="main_8c.html#a840291bc02cba5474a4cb46a9b9566fe" target="_top" xlink:title="main">
<polygon fill="white" stroke="black" points="286,-76.5 286,-95.5 324,-95.5 324,-76.5 286,-76.5"/>
<text text-anchor="middle" x="305" y="-83.5" font-family="Helvetica,sans-Serif" font-size="10.00">main</text>
</a>
</g>
</g>
<!-- Node2&#45;&gt;Node3 -->
<g id="edge2" class="edge"><title>Node2&#45;&gt;Node3</title>
<path fill="none" stroke="midnightblue" d="M221.981,-111.443C243.5,-104.767 268.899,-96.8884 285.669,-91.6864"/>
<polygon fill="midnightblue" stroke="midnightblue" points="220.926,-108.105 212.412,-114.411 223,-114.791 220.926,-108.105"/>
</g>
<!-- Node4&#45;&gt;Node3 -->
<g id="edge4" class="edge"><title>Node4&#45;&gt;Node3</title>
<path fill="none" stroke="midnightblue" d="M231.477,-86C250.767,-86 271.603,-86 285.97,-86"/>
<polygon fill="midnightblue" stroke="midnightblue" points="231.272,-82.5001 221.272,-86 231.272,-89.5001 231.272,-82.5001"/>
</g>
<!-- Node5&#45;&gt;Node3 -->
<g id="edge6" class="edge"><title>Node5&#45;&gt;Node3</title>
<path fill="none" stroke="midnightblue" d="M221.981,-60.5574C243.5,-67.2328 268.899,-75.1116 285.669,-80.3136"/>
<polygon fill="midnightblue" stroke="midnightblue" points="223,-57.209 212.412,-57.589 220.926,-63.8947 223,-57.209"/>
</g>
<!-- Node7 -->
<g id="node7" class="node"><title>Node7</title>
<g id="a_node7"><a xlink:href="radio_8c.html#ac96da2886aec92b299b27b500761564c" target="_top" xlink:title="radio_auto_search">
<polygon fill="white" stroke="black" points="257,-0.5 257,-19.5 353,-19.5 353,-0.5 257,-0.5"/>
<text text-anchor="middle" x="305" y="-7.5" font-family="Helvetica,sans-Serif" font-size="10.00">radio_auto_search</text>
</a>
</g>
</g>
<!-- Node6&#45;&gt;Node7 -->
<g id="edge8" class="edge"><title>Node6&#45;&gt;Node7</title>
<path fill="none" stroke="midnightblue" d="M229.496,-10C238.417,-10 247.731,-10 256.633,-10"/>
<polygon fill="midnightblue" stroke="midnightblue" points="229.254,-6.5001 219.254,-10 229.254,-13.5001 229.254,-6.5001"/>
</g>
</g>
</svg>
