<?xml version="1.0" encoding="UTF-8" standalone="no"?>
<!DOCTYPE svg PUBLIC "-//W3C//DTD SVG 1.1//EN"
 "http://www.w3.org/Graphics/SVG/1.1/DTD/svg11.dtd">
<!-- Generated by graphviz version 2.38.0 (20140413.2041)
 -->
<!-- Title: D:/GIT/fhradiov2/driver/src/external_interrupthandler.c Pages: 1 -->
<svg width="245pt" height="162pt"
 viewBox="0.00 0.00 245.00 162.00" xmlns="http://www.w3.org/2000/svg" xmlns:xlink="http://www.w3.org/1999/xlink">
<g id="graph0" class="graph" transform="scale(1 1) rotate(0) translate(4 158)">
<title>D:/GIT/fhradiov2/driver/src/external_interrupthandler.c</title>
<polygon fill="white" stroke="none" points="-4,4 -4,-158 241,-158 241,4 -4,4"/>
<!-- Node1 -->
<g id="node1" class="node"><title>Node1</title>
<polygon fill="#bfbfbf" stroke="black" points="26,-123.5 26,-153.5 177,-153.5 177,-123.5 26,-123.5"/>
<text text-anchor="start" x="34" y="-141.5" font-family="Helvetica,sans-Serif" font-size="10.00">D:/GIT/fhradiov2/driver</text>
<text text-anchor="middle" x="101.5" y="-130.5" font-family="Helvetica,sans-Serif" font-size="10.00">/src/external_interrupthandler.c</text>
</g>
<!-- Node2 -->
<g id="node2" class="node"><title>Node2</title>
<g id="a_node2"><a xlink:href="external__interrupthandler_8h.html" target="_top" xlink:title="driver/external_interrupthandler.h">
<polygon fill="white" stroke="black" points="23,-67.5 23,-86.5 180,-86.5 180,-67.5 23,-67.5"/>
<text text-anchor="middle" x="101.5" y="-74.5" font-family="Helvetica,sans-Serif" font-size="10.00">driver/external_interrupthandler.h</text>
</a>
</g>
</g>
<!-- Node1&#45;&gt;Node2 -->
<g id="edge1" class="edge"><title>Node1&#45;&gt;Node2</title>
<path fill="none" stroke="midnightblue" d="M101.5,-123.399C101.5,-115.466 101.5,-105.458 101.5,-96.8583"/>
<polygon fill="midnightblue" stroke="midnightblue" points="105,-96.6577 101.5,-86.6578 98.0001,-96.6578 105,-96.6577"/>
</g>
<!-- Node3 -->
<g id="node3" class="node"><title>Node3</title>
<polygon fill="white" stroke="#bfbfbf" points="0,-6 0,-25 59,-25 59,-6 0,-6"/>
<text text-anchor="middle" x="29.5" y="-13" font-family="Helvetica,sans-Serif" font-size="10.00">msp430.h</text>
</g>
<!-- Node2&#45;&gt;Node3 -->
<g id="edge2" class="edge"><title>Node2&#45;&gt;Node3</title>
<path fill="none" stroke="midnightblue" d="M91.1842,-67.4751C79.8494,-58.1082 61.4267,-42.8839 47.661,-31.5081"/>
<polygon fill="midnightblue" stroke="midnightblue" points="49.7348,-28.6813 39.7967,-25.0091 45.2756,-34.0773 49.7348,-28.6813"/>
</g>
<!-- Node4 -->
<g id="node4" class="node"><title>Node4</title>
<polygon fill="white" stroke="#bfbfbf" points="77,-6 77,-25 126,-25 126,-6 77,-6"/>
<text text-anchor="middle" x="101.5" y="-13" font-family="Helvetica,sans-Serif" font-size="10.00">stdint.h</text>
</g>
<!-- Node2&#45;&gt;Node4 -->
<g id="edge3" class="edge"><title>Node2&#45;&gt;Node4</title>
<path fill="none" stroke="midnightblue" d="M101.5,-67.4751C101.5,-59.0803 101.5,-45.9806 101.5,-35.1631"/>
<polygon fill="midnightblue" stroke="midnightblue" points="105,-35.0091 101.5,-25.0091 98.0001,-35.0091 105,-35.0091"/>
</g>
<!-- Node5 -->
<g id="node5" class="node"><title>Node5</title>
<g id="a_node5"><a xlink:href="radio__pin__mapping_8h.html" target="_top" xlink:title="settings/radio_pin\l_mapping.h">
<polygon fill="white" stroke="black" points="144,-0.5 144,-30.5 237,-30.5 237,-0.5 144,-0.5"/>
<text text-anchor="start" x="152" y="-18.5" font-family="Helvetica,sans-Serif" font-size="10.00">settings/radio_pin</text>
<text text-anchor="middle" x="190.5" y="-7.5" font-family="Helvetica,sans-Serif" font-size="10.00">_mapping.h</text>
</a>
</g>
</g>
<!-- Node2&#45;&gt;Node5 -->
<g id="edge4" class="edge"><title>Node2&#45;&gt;Node5</title>
<path fill="none" stroke="midnightblue" d="M114.252,-67.4751C126.418,-59.3413 145.191,-46.7909 161.065,-36.1788"/>
<polygon fill="midnightblue" stroke="midnightblue" points="163.156,-38.9905 169.524,-30.523 159.266,-33.1711 163.156,-38.9905"/>
</g>
</g>
</svg>
