<?xml version="1.0" encoding="UTF-8" standalone="no"?>
<!DOCTYPE svg PUBLIC "-//W3C//DTD SVG 1.1//EN"
 "http://www.w3.org/Graphics/SVG/1.1/DTD/svg11.dtd">
<!-- Generated by graphviz version 2.38.0 (20140413.2041)
 -->
<!-- Title: driver/external_interrupthandler.h Pages: 1 -->
<svg width="446pt" height="207pt"
 viewBox="0.00 0.00 446.00 207.00" xmlns="http://www.w3.org/2000/svg" xmlns:xlink="http://www.w3.org/1999/xlink">
<g id="graph0" class="graph" transform="scale(1 1) rotate(0) translate(4 203)">
<title>driver/external_interrupthandler.h</title>
<polygon fill="white" stroke="none" points="-4,4 -4,-203 442,-203 442,4 -4,4"/>
<!-- Node1 -->
<g id="node1" class="node"><title>Node1</title>
<polygon fill="#bfbfbf" stroke="black" points="159,-179.5 159,-198.5 316,-198.5 316,-179.5 159,-179.5"/>
<text text-anchor="middle" x="237.5" y="-186.5" font-family="Helvetica,sans-Serif" font-size="10.00">driver/external_interrupthandler.h</text>
</g>
<!-- Node2 -->
<g id="node2" class="node"><title>Node2</title>
<g id="a_node2"><a xlink:href="encoder_8h.html" target="_top" xlink:title="driver/encoder.h">
<polygon fill="white" stroke="black" points="86,-118 86,-137 171,-137 171,-118 86,-118"/>
<text text-anchor="middle" x="128.5" y="-125" font-family="Helvetica,sans-Serif" font-size="10.00">driver/encoder.h</text>
</a>
</g>
</g>
<!-- Node1&#45;&gt;Node2 -->
<g id="edge1" class="edge"><title>Node1&#45;&gt;Node2</title>
<path fill="none" stroke="midnightblue" d="M212.872,-174.556C191.778,-163.042 162.044,-146.811 144.088,-137.009"/>
<polygon fill="midnightblue" stroke="midnightblue" points="211.429,-177.756 221.883,-179.475 214.783,-171.612 211.429,-177.756"/>
</g>
<!-- Node5 -->
<g id="node5" class="node"><title>Node5</title>
<g id="a_node5"><a xlink:href="radio_8h.html" target="_top" xlink:title="system/radio.h">
<polygon fill="white" stroke="black" points="158,-56.5 158,-75.5 239,-75.5 239,-56.5 158,-56.5"/>
<text text-anchor="middle" x="198.5" y="-63.5" font-family="Helvetica,sans-Serif" font-size="10.00">system/radio.h</text>
</a>
</g>
</g>
<!-- Node1&#45;&gt;Node5 -->
<g id="edge9" class="edge"><title>Node1&#45;&gt;Node5</title>
<path fill="none" stroke="midnightblue" d="M229.184,-169.946C225.619,-161.814 221.577,-152.03 218.5,-143 210.315,-118.979 203.466,-89.7437 200.332,-75.5516"/>
<polygon fill="midnightblue" stroke="midnightblue" points="226.042,-171.494 233.335,-179.18 232.427,-168.624 226.042,-171.494"/>
</g>
<!-- Node7 -->
<g id="node7" class="node"><title>Node7</title>
<g id="a_node7"><a xlink:href="external__interrupthandler_8c.html" target="_top" xlink:title="driver/src/external\l_interrupthandler.c">
<polygon fill="white" stroke="black" points="228,-112.5 228,-142.5 325,-142.5 325,-112.5 228,-112.5"/>
<text text-anchor="start" x="236" y="-130.5" font-family="Helvetica,sans-Serif" font-size="10.00">driver/src/external</text>
<text text-anchor="middle" x="276.5" y="-119.5" font-family="Helvetica,sans-Serif" font-size="10.00">_interrupthandler.c</text>
</a>
</g>
</g>
<!-- Node1&#45;&gt;Node7 -->
<g id="edge7" class="edge"><title>Node1&#45;&gt;Node7</title>
<path fill="none" stroke="midnightblue" d="M248.667,-170.963C254.571,-161.956 261.73,-151.034 267.308,-142.523"/>
<polygon fill="midnightblue" stroke="midnightblue" points="245.643,-169.193 243.088,-179.475 251.497,-173.03 245.643,-169.193"/>
</g>
<!-- Node8 -->
<g id="node8" class="node"><title>Node8</title>
<g id="a_node8"><a xlink:href="si4735_8c.html" target="_top" xlink:title="driver/src/si4735.c">
<polygon fill="white" stroke="black" points="343,-118 343,-137 438,-137 438,-118 343,-118"/>
<text text-anchor="middle" x="390.5" y="-125" font-family="Helvetica,sans-Serif" font-size="10.00">driver/src/si4735.c</text>
</a>
</g>
</g>
<!-- Node1&#45;&gt;Node8 -->
<g id="edge8" class="edge"><title>Node1&#45;&gt;Node8</title>
<path fill="none" stroke="midnightblue" d="M268.917,-175.782C298.649,-164.22 342.507,-147.164 368.619,-137.009"/>
<polygon fill="midnightblue" stroke="midnightblue" points="267.473,-172.589 259.421,-179.475 270.01,-179.113 267.473,-172.589"/>
</g>
<!-- Node3 -->
<g id="node3" class="node"><title>Node3</title>
<g id="a_node3"><a xlink:href="encoder_8c.html" target="_top" xlink:title="driver/src/encoder.c">
<polygon fill="white" stroke="black" points="0,-56.5 0,-75.5 101,-75.5 101,-56.5 0,-56.5"/>
<text text-anchor="middle" x="50.5" y="-63.5" font-family="Helvetica,sans-Serif" font-size="10.00">driver/src/encoder.c</text>
</a>
</g>
</g>
<!-- Node2&#45;&gt;Node3 -->
<g id="edge2" class="edge"><title>Node2&#45;&gt;Node3</title>
<path fill="none" stroke="midnightblue" d="M109.221,-111.794C94.259,-100.38 74.0411,-84.9577 61.6548,-75.5091"/>
<polygon fill="midnightblue" stroke="midnightblue" points="107.251,-114.693 117.325,-117.975 111.496,-109.127 107.251,-114.693"/>
</g>
<!-- Node4 -->
<g id="node4" class="node"><title>Node4</title>
<g id="a_node4"><a xlink:href="main_8c.html" target="_top" xlink:title="main.c">
<polygon fill="white" stroke="black" points="106.5,-0.5 106.5,-19.5 152.5,-19.5 152.5,-0.5 106.5,-0.5"/>
<text text-anchor="middle" x="129.5" y="-7.5" font-family="Helvetica,sans-Serif" font-size="10.00">main.c</text>
</a>
</g>
</g>
<!-- Node2&#45;&gt;Node4 -->
<g id="edge3" class="edge"><title>Node2&#45;&gt;Node4</title>
<path fill="none" stroke="midnightblue" d="M128.663,-107.664C128.882,-82.3651 129.262,-38.4353 129.424,-19.782"/>
<polygon fill="midnightblue" stroke="midnightblue" points="125.162,-107.789 128.575,-117.819 132.162,-107.849 125.162,-107.789"/>
</g>
<!-- Node2&#45;&gt;Node5 -->
<g id="edge4" class="edge"><title>Node2&#45;&gt;Node5</title>
<path fill="none" stroke="midnightblue" d="M146.179,-111.473C159.568,-100.093 177.477,-84.8694 188.489,-75.5091"/>
<polygon fill="midnightblue" stroke="midnightblue" points="143.882,-108.832 138.529,-117.975 148.415,-114.165 143.882,-108.832"/>
</g>
<!-- Node5&#45;&gt;Node4 -->
<g id="edge5" class="edge"><title>Node5&#45;&gt;Node4</title>
<path fill="none" stroke="midnightblue" d="M179.462,-50.1008C167.044,-40.3824 151.257,-28.0269 140.788,-19.8339"/>
<polygon fill="midnightblue" stroke="midnightblue" points="177.382,-52.9171 187.414,-56.324 181.696,-47.4046 177.382,-52.9171"/>
</g>
<!-- Node6 -->
<g id="node6" class="node"><title>Node6</title>
<g id="a_node6"><a xlink:href="radio_8c.html" target="_top" xlink:title="system/src/radio.c">
<polygon fill="white" stroke="black" points="170.5,-0.5 170.5,-19.5 268.5,-19.5 268.5,-0.5 170.5,-0.5"/>
<text text-anchor="middle" x="219.5" y="-7.5" font-family="Helvetica,sans-Serif" font-size="10.00">system/src/radio.c</text>
</a>
</g>
</g>
<!-- Node5&#45;&gt;Node6 -->
<g id="edge6" class="edge"><title>Node5&#45;&gt;Node6</title>
<path fill="none" stroke="midnightblue" d="M205.621,-46.6897C209.16,-37.589 213.272,-27.0141 216.097,-19.7511"/>
<polygon fill="midnightblue" stroke="midnightblue" points="202.33,-45.4944 201.968,-56.083 208.854,-48.0315 202.33,-45.4944"/>
</g>
</g>
</svg>
