<?xml version="1.0" encoding="UTF-8" standalone="no"?>
<!DOCTYPE svg PUBLIC "-//W3C//DTD SVG 1.1//EN"
 "http://www.w3.org/Graphics/SVG/1.1/DTD/svg11.dtd">
<!-- Generated by graphviz version 2.38.0 (20140413.2041)
 -->
<!-- Title: erase_flash Pages: 1 -->
<svg width="346pt" height="28pt"
 viewBox="0.00 0.00 346.00 28.00" xmlns="http://www.w3.org/2000/svg" xmlns:xlink="http://www.w3.org/1999/xlink">
<g id="graph0" class="graph" transform="scale(1 1) rotate(0) translate(4 24)">
<title>erase_flash</title>
<polygon fill="white" stroke="none" points="-4,4 -4,-24 342,-24 342,4 -4,4"/>
<!-- Node1 -->
<g id="node1" class="node"><title>Node1</title>
<polygon fill="#bfbfbf" stroke="black" points="0,-0.5 0,-19.5 66,-19.5 66,-0.5 0,-0.5"/>
<text text-anchor="middle" x="33" y="-7.5" font-family="Helvetica,sans-Serif" font-size="10.00">erase_flash</text>
</g>
<!-- Node2 -->
<g id="node2" class="node"><title>Node2</title>
<g id="a_node2"><a xlink:href="flash_8c.html#aece8757a70bfb964ca3de0302924c3fd" target="_top" xlink:title="store_data_to_flash">
<polygon fill="white" stroke="black" points="102,-0.5 102,-19.5 203,-19.5 203,-0.5 102,-0.5"/>
<text text-anchor="middle" x="152.5" y="-7.5" font-family="Helvetica,sans-Serif" font-size="10.00">store_data_to_flash</text>
</a>
</g>
</g>
<!-- Node1&#45;&gt;Node2 -->
<g id="edge1" class="edge"><title>Node1&#45;&gt;Node2</title>
<path fill="none" stroke="midnightblue" d="M76.2746,-10C84.5449,-10 93.2891,-10 101.776,-10"/>
<polygon fill="midnightblue" stroke="midnightblue" points="76.1074,-6.5001 66.1074,-10 76.1074,-13.5001 76.1074,-6.5001"/>
</g>
<!-- Node3 -->
<g id="node3" class="node"><title>Node3</title>
<g id="a_node3"><a xlink:href="radio_8c.html#ab8b5a7b9b4ca94260ab8802217721bda" target="_top" xlink:title="radio_store_station">
<polygon fill="white" stroke="black" points="239,-0.5 239,-19.5 338,-19.5 338,-0.5 239,-0.5"/>
<text text-anchor="middle" x="288.5" y="-7.5" font-family="Helvetica,sans-Serif" font-size="10.00">radio_store_station</text>
</a>
</g>
</g>
<!-- Node2&#45;&gt;Node3 -->
<g id="edge2" class="edge"><title>Node2&#45;&gt;Node3</title>
<path fill="none" stroke="midnightblue" d="M213.254,-10C221.742,-10 230.386,-10 238.634,-10"/>
<polygon fill="midnightblue" stroke="midnightblue" points="213.016,-6.5001 203.016,-10 213.016,-13.5001 213.016,-6.5001"/>
</g>
</g>
</svg>
