<?xml version="1.0" encoding="UTF-8" standalone="no"?>
<!DOCTYPE svg PUBLIC "-//W3C//DTD SVG 1.1//EN"
 "http://www.w3.org/Graphics/SVG/1.1/DTD/svg11.dtd">
<!-- Generated by graphviz version 2.38.0 (20140413.2041)
 -->
<!-- Title: system/src/handler.c Pages: 1 -->
<svg width="309pt" height="319pt"
 viewBox="0.00 0.00 308.50 319.00" xmlns="http://www.w3.org/2000/svg" xmlns:xlink="http://www.w3.org/1999/xlink">
<g id="graph0" class="graph" transform="scale(1 1) rotate(0) translate(4 315)">
<title>system/src/handler.c</title>
<polygon fill="white" stroke="none" points="-4,4 -4,-315 304.5,-315 304.5,4 -4,4"/>
<!-- Node1 -->
<g id="node1" class="node"><title>Node1</title>
<polygon fill="#bfbfbf" stroke="black" points="0,-291.5 0,-310.5 108,-310.5 108,-291.5 0,-291.5"/>
<text text-anchor="middle" x="54" y="-298.5" font-family="Helvetica,sans-Serif" font-size="10.00">system/src/handler.c</text>
</g>
<!-- Node2 -->
<g id="node2" class="node"><title>Node2</title>
<g id="a_node2"><a xlink:href="handler_8h.html" target="_top" xlink:title="system/handler.h">
<polygon fill="white" stroke="black" points="8,-235.5 8,-254.5 100,-254.5 100,-235.5 8,-235.5"/>
<text text-anchor="middle" x="54" y="-242.5" font-family="Helvetica,sans-Serif" font-size="10.00">system/handler.h</text>
</a>
</g>
</g>
<!-- Node1&#45;&gt;Node2 -->
<g id="edge1" class="edge"><title>Node1&#45;&gt;Node2</title>
<path fill="none" stroke="midnightblue" d="M54,-291.083C54,-284.006 54,-273.861 54,-264.986"/>
<polygon fill="midnightblue" stroke="midnightblue" points="57.5001,-264.751 54,-254.751 50.5001,-264.751 57.5001,-264.751"/>
</g>
<!-- Node3 -->
<g id="node3" class="node"><title>Node3</title>
<polygon fill="white" stroke="#bfbfbf" points="27.5,-0.5 27.5,-19.5 76.5,-19.5 76.5,-0.5 27.5,-0.5"/>
<text text-anchor="middle" x="52" y="-7.5" font-family="Helvetica,sans-Serif" font-size="10.00">stdint.h</text>
</g>
<!-- Node2&#45;&gt;Node3 -->
<g id="edge2" class="edge"><title>Node2&#45;&gt;Node3</title>
<path fill="none" stroke="midnightblue" d="M52.7575,-235.397C51.5194,-226.358 49.7042,-211.715 49,-199 45.5767,-137.19 48.8715,-63.7888 50.8097,-29.8883"/>
<polygon fill="midnightblue" stroke="midnightblue" points="54.32,-29.8202 51.4254,-19.6284 47.3326,-29.4008 54.32,-29.8202"/>
</g>
<!-- Node4 -->
<g id="node4" class="node"><title>Node4</title>
<g id="a_node4"><a xlink:href="timer_8h.html" target="_top" xlink:title="driver/timer.h">
<polygon fill="white" stroke="black" points="58,-179.5 58,-198.5 130,-198.5 130,-179.5 58,-179.5"/>
<text text-anchor="middle" x="94" y="-186.5" font-family="Helvetica,sans-Serif" font-size="10.00">driver/timer.h</text>
</a>
</g>
</g>
<!-- Node2&#45;&gt;Node4 -->
<g id="edge3" class="edge"><title>Node2&#45;&gt;Node4</title>
<path fill="none" stroke="midnightblue" d="M60.6052,-235.083C66.2552,-227.455 74.5448,-216.264 81.4512,-206.941"/>
<polygon fill="midnightblue" stroke="midnightblue" points="84.3779,-208.87 87.5177,-198.751 78.7529,-204.703 84.3779,-208.87"/>
</g>
<!-- Node4&#45;&gt;Node3 -->
<g id="edge5" class="edge"><title>Node4&#45;&gt;Node3</title>
<path fill="none" stroke="midnightblue" d="M88.5165,-179.406C83.1734,-170.612 75.252,-156.379 71,-143 58.5938,-103.965 54.2608,-55.8448 52.7676,-29.8364"/>
<polygon fill="midnightblue" stroke="midnightblue" points="56.249,-29.3708 52.2625,-19.5546 49.2574,-29.7143 56.249,-29.3708"/>
</g>
<!-- Node5 -->
<g id="node5" class="node"><title>Node5</title>
<polygon fill="white" stroke="#bfbfbf" points="80.5,-123.5 80.5,-142.5 139.5,-142.5 139.5,-123.5 80.5,-123.5"/>
<text text-anchor="middle" x="110" y="-130.5" font-family="Helvetica,sans-Serif" font-size="10.00">msp430.h</text>
</g>
<!-- Node4&#45;&gt;Node5 -->
<g id="edge4" class="edge"><title>Node4&#45;&gt;Node5</title>
<path fill="none" stroke="midnightblue" d="M96.6421,-179.083C98.7856,-171.849 101.879,-161.409 104.549,-152.397"/>
<polygon fill="midnightblue" stroke="midnightblue" points="107.922,-153.333 107.407,-142.751 101.21,-151.345 107.922,-153.333"/>
</g>
<!-- Node6 -->
<g id="node6" class="node"><title>Node6</title>
<g id="a_node6"><a xlink:href="radio__configuration_8h.html" target="_top" xlink:title="settings/radio_configuration.h">
<polygon fill="white" stroke="black" points="157.5,-123.5 157.5,-142.5 300.5,-142.5 300.5,-123.5 157.5,-123.5"/>
<text text-anchor="middle" x="229" y="-130.5" font-family="Helvetica,sans-Serif" font-size="10.00">settings/radio_configuration.h</text>
</a>
</g>
</g>
<!-- Node4&#45;&gt;Node6 -->
<g id="edge6" class="edge"><title>Node4&#45;&gt;Node6</title>
<path fill="none" stroke="midnightblue" d="M115.391,-179.444C137.707,-170.517 172.903,-156.439 198.208,-146.317"/>
<polygon fill="midnightblue" stroke="midnightblue" points="199.724,-149.48 207.709,-142.516 197.124,-142.981 199.724,-149.48"/>
</g>
<!-- Node7 -->
<g id="node7" class="node"><title>Node7</title>
<g id="a_node7"><a xlink:href="si4735__cmd__prop_8h.html" target="_top" xlink:title="driver/include/si4735\l_cmd_prop.h">
<polygon fill="white" stroke="black" points="128,-56.5 128,-86.5 232,-86.5 232,-56.5 128,-56.5"/>
<text text-anchor="start" x="136" y="-74.5" font-family="Helvetica,sans-Serif" font-size="10.00">driver/include/si4735</text>
<text text-anchor="middle" x="180" y="-63.5" font-family="Helvetica,sans-Serif" font-size="10.00">_cmd_prop.h</text>
</a>
</g>
</g>
<!-- Node6&#45;&gt;Node7 -->
<g id="edge7" class="edge"><title>Node6&#45;&gt;Node7</title>
<path fill="none" stroke="midnightblue" d="M221.979,-123.475C215.715,-115.869 206.27,-104.399 197.924,-94.2649"/>
<polygon fill="midnightblue" stroke="midnightblue" points="200.607,-92.0173 191.548,-86.523 195.204,-96.4673 200.607,-92.0173"/>
</g>
<!-- Node7&#45;&gt;Node3 -->
<g id="edge8" class="edge"><title>Node7&#45;&gt;Node3</title>
<path fill="none" stroke="midnightblue" d="M149.666,-56.3993C128.477,-46.55 100.406,-33.5014 79.798,-23.9217"/>
<polygon fill="midnightblue" stroke="midnightblue" points="81.1687,-20.6993 70.6251,-19.6578 78.2179,-27.047 81.1687,-20.6993"/>
</g>
</g>
</svg>
