<?xml version="1.0" encoding="UTF-8" standalone="no"?>
<!DOCTYPE svg PUBLIC "-//W3C//DTD SVG 1.1//EN"
 "http://www.w3.org/Graphics/SVG/1.1/DTD/svg11.dtd">
<!-- Generated by graphviz version 2.38.0 (20140413.2041)
 -->
<!-- Title: system/handler.h Pages: 1 -->
<svg width="301pt" height="263pt"
 viewBox="0.00 0.00 300.50 263.00" xmlns="http://www.w3.org/2000/svg" xmlns:xlink="http://www.w3.org/1999/xlink">
<g id="graph0" class="graph" transform="scale(1 1) rotate(0) translate(4 259)">
<title>system/handler.h</title>
<polygon fill="white" stroke="none" points="-4,4 -4,-259 296.5,-259 296.5,4 -4,4"/>
<!-- Node1 -->
<g id="node1" class="node"><title>Node1</title>
<polygon fill="#bfbfbf" stroke="black" points="0,-235.5 0,-254.5 92,-254.5 92,-235.5 0,-235.5"/>
<text text-anchor="middle" x="46" y="-242.5" font-family="Helvetica,sans-Serif" font-size="10.00">system/handler.h</text>
</g>
<!-- Node2 -->
<g id="node2" class="node"><title>Node2</title>
<polygon fill="white" stroke="#bfbfbf" points="19.5,-0.5 19.5,-19.5 68.5,-19.5 68.5,-0.5 19.5,-0.5"/>
<text text-anchor="middle" x="44" y="-7.5" font-family="Helvetica,sans-Serif" font-size="10.00">stdint.h</text>
</g>
<!-- Node1&#45;&gt;Node2 -->
<g id="edge1" class="edge"><title>Node1&#45;&gt;Node2</title>
<path fill="none" stroke="midnightblue" d="M44.7575,-235.397C43.5194,-226.358 41.7042,-211.715 41,-199 37.5767,-137.19 40.8715,-63.7888 42.8097,-29.8883"/>
<polygon fill="midnightblue" stroke="midnightblue" points="46.32,-29.8202 43.4254,-19.6284 39.3326,-29.4008 46.32,-29.8202"/>
</g>
<!-- Node3 -->
<g id="node3" class="node"><title>Node3</title>
<g id="a_node3"><a xlink:href="timer_8h.html" target="_top" xlink:title="driver/timer.h">
<polygon fill="white" stroke="black" points="50,-179.5 50,-198.5 122,-198.5 122,-179.5 50,-179.5"/>
<text text-anchor="middle" x="86" y="-186.5" font-family="Helvetica,sans-Serif" font-size="10.00">driver/timer.h</text>
</a>
</g>
</g>
<!-- Node1&#45;&gt;Node3 -->
<g id="edge2" class="edge"><title>Node1&#45;&gt;Node3</title>
<path fill="none" stroke="midnightblue" d="M52.6052,-235.083C58.2552,-227.455 66.5448,-216.264 73.4512,-206.941"/>
<polygon fill="midnightblue" stroke="midnightblue" points="76.3779,-208.87 79.5177,-198.751 70.7529,-204.703 76.3779,-208.87"/>
</g>
<!-- Node3&#45;&gt;Node2 -->
<g id="edge4" class="edge"><title>Node3&#45;&gt;Node2</title>
<path fill="none" stroke="midnightblue" d="M80.5165,-179.406C75.1734,-170.612 67.252,-156.379 63,-143 50.5938,-103.965 46.2608,-55.8448 44.7676,-29.8364"/>
<polygon fill="midnightblue" stroke="midnightblue" points="48.249,-29.3708 44.2625,-19.5546 41.2574,-29.7143 48.249,-29.3708"/>
</g>
<!-- Node4 -->
<g id="node4" class="node"><title>Node4</title>
<polygon fill="white" stroke="#bfbfbf" points="72.5,-123.5 72.5,-142.5 131.5,-142.5 131.5,-123.5 72.5,-123.5"/>
<text text-anchor="middle" x="102" y="-130.5" font-family="Helvetica,sans-Serif" font-size="10.00">msp430.h</text>
</g>
<!-- Node3&#45;&gt;Node4 -->
<g id="edge3" class="edge"><title>Node3&#45;&gt;Node4</title>
<path fill="none" stroke="midnightblue" d="M88.6421,-179.083C90.7856,-171.849 93.8789,-161.409 96.5491,-152.397"/>
<polygon fill="midnightblue" stroke="midnightblue" points="99.9219,-153.333 99.4071,-142.751 93.2103,-151.345 99.9219,-153.333"/>
</g>
<!-- Node5 -->
<g id="node5" class="node"><title>Node5</title>
<g id="a_node5"><a xlink:href="radio__configuration_8h.html" target="_top" xlink:title="settings/radio_configuration.h">
<polygon fill="white" stroke="black" points="149.5,-123.5 149.5,-142.5 292.5,-142.5 292.5,-123.5 149.5,-123.5"/>
<text text-anchor="middle" x="221" y="-130.5" font-family="Helvetica,sans-Serif" font-size="10.00">settings/radio_configuration.h</text>
</a>
</g>
</g>
<!-- Node3&#45;&gt;Node5 -->
<g id="edge5" class="edge"><title>Node3&#45;&gt;Node5</title>
<path fill="none" stroke="midnightblue" d="M107.391,-179.444C129.707,-170.517 164.903,-156.439 190.208,-146.317"/>
<polygon fill="midnightblue" stroke="midnightblue" points="191.724,-149.48 199.709,-142.516 189.124,-142.981 191.724,-149.48"/>
</g>
<!-- Node6 -->
<g id="node6" class="node"><title>Node6</title>
<g id="a_node6"><a xlink:href="si4735__cmd__prop_8h.html" target="_top" xlink:title="driver/include/si4735\l_cmd_prop.h">
<polygon fill="white" stroke="black" points="120,-56.5 120,-86.5 224,-86.5 224,-56.5 120,-56.5"/>
<text text-anchor="start" x="128" y="-74.5" font-family="Helvetica,sans-Serif" font-size="10.00">driver/include/si4735</text>
<text text-anchor="middle" x="172" y="-63.5" font-family="Helvetica,sans-Serif" font-size="10.00">_cmd_prop.h</text>
</a>
</g>
</g>
<!-- Node5&#45;&gt;Node6 -->
<g id="edge6" class="edge"><title>Node5&#45;&gt;Node6</title>
<path fill="none" stroke="midnightblue" d="M213.979,-123.475C207.715,-115.869 198.27,-104.399 189.924,-94.2649"/>
<polygon fill="midnightblue" stroke="midnightblue" points="192.607,-92.0173 183.548,-86.523 187.204,-96.4673 192.607,-92.0173"/>
</g>
<!-- Node6&#45;&gt;Node2 -->
<g id="edge7" class="edge"><title>Node6&#45;&gt;Node2</title>
<path fill="none" stroke="midnightblue" d="M141.666,-56.3993C120.477,-46.55 92.4063,-33.5014 71.798,-23.9217"/>
<polygon fill="midnightblue" stroke="midnightblue" points="73.1687,-20.6993 62.6251,-19.6578 70.2179,-27.047 73.1687,-20.6993"/>
</g>
</g>
</svg>
