<?xml version="1.0" encoding="UTF-8" standalone="no"?>
<!DOCTYPE svg PUBLIC "-//W3C//DTD SVG 1.1//EN"
 "http://www.w3.org/Graphics/SVG/1.1/DTD/svg11.dtd">
<!-- Generated by graphviz version 2.38.0 (20140413.2041)
 -->
<!-- Title: D:/GIT/fhradiov2/system/handler.h Pages: 1 -->
<svg width="315pt" height="274pt"
 viewBox="0.00 0.00 314.50 274.00" xmlns="http://www.w3.org/2000/svg" xmlns:xlink="http://www.w3.org/1999/xlink">
<g id="graph0" class="graph" transform="scale(1 1) rotate(0) translate(4 270)">
<title>D:/GIT/fhradiov2/system/handler.h</title>
<polygon fill="white" stroke="none" points="-4,4 -4,-270 310.5,-270 310.5,4 -4,4"/>
<!-- Node1 -->
<g id="node1" class="node"><title>Node1</title>
<polygon fill="#bfbfbf" stroke="black" points="0,-235.5 0,-265.5 120,-265.5 120,-235.5 0,-235.5"/>
<text text-anchor="start" x="8" y="-253.5" font-family="Helvetica,sans-Serif" font-size="10.00">D:/GIT/fhradiov2/system</text>
<text text-anchor="middle" x="60" y="-242.5" font-family="Helvetica,sans-Serif" font-size="10.00">/handler.h</text>
</g>
<!-- Node2 -->
<g id="node2" class="node"><title>Node2</title>
<polygon fill="white" stroke="#bfbfbf" points="33.5,-0.5 33.5,-19.5 82.5,-19.5 82.5,-0.5 33.5,-0.5"/>
<text text-anchor="middle" x="58" y="-7.5" font-family="Helvetica,sans-Serif" font-size="10.00">stdint.h</text>
</g>
<!-- Node1&#45;&gt;Node2 -->
<g id="edge1" class="edge"><title>Node1&#45;&gt;Node2</title>
<path fill="none" stroke="midnightblue" d="M58.2253,-235.379C57.0467,-225.268 55.6084,-211.319 55,-199 51.9466,-137.171 55.0633,-63.7788 56.8843,-29.8844"/>
<polygon fill="midnightblue" stroke="midnightblue" points="60.3941,-29.8076 57.4621,-19.6265 53.4051,-29.4138 60.3941,-29.8076"/>
</g>
<!-- Node3 -->
<g id="node3" class="node"><title>Node3</title>
<g id="a_node3"><a xlink:href="timer_8h.html" target="_top" xlink:title="driver/timer.h">
<polygon fill="white" stroke="black" points="64,-179.5 64,-198.5 136,-198.5 136,-179.5 64,-179.5"/>
<text text-anchor="middle" x="100" y="-186.5" font-family="Helvetica,sans-Serif" font-size="10.00">driver/timer.h</text>
</a>
</g>
</g>
<!-- Node1&#45;&gt;Node3 -->
<g id="edge2" class="edge"><title>Node1&#45;&gt;Node3</title>
<path fill="none" stroke="midnightblue" d="M69.4794,-235.399C75.1721,-226.932 82.4544,-216.099 88.4778,-207.139"/>
<polygon fill="midnightblue" stroke="midnightblue" points="91.5051,-208.909 94.1796,-198.658 85.6958,-205.004 91.5051,-208.909"/>
</g>
<!-- Node3&#45;&gt;Node2 -->
<g id="edge4" class="edge"><title>Node3&#45;&gt;Node2</title>
<path fill="none" stroke="midnightblue" d="M94.5165,-179.406C89.1734,-170.612 81.252,-156.379 77,-143 64.5938,-103.965 60.2608,-55.8448 58.7676,-29.8364"/>
<polygon fill="midnightblue" stroke="midnightblue" points="62.249,-29.3708 58.2625,-19.5546 55.2574,-29.7143 62.249,-29.3708"/>
</g>
<!-- Node4 -->
<g id="node4" class="node"><title>Node4</title>
<polygon fill="white" stroke="#bfbfbf" points="86.5,-123.5 86.5,-142.5 145.5,-142.5 145.5,-123.5 86.5,-123.5"/>
<text text-anchor="middle" x="116" y="-130.5" font-family="Helvetica,sans-Serif" font-size="10.00">msp430.h</text>
</g>
<!-- Node3&#45;&gt;Node4 -->
<g id="edge3" class="edge"><title>Node3&#45;&gt;Node4</title>
<path fill="none" stroke="midnightblue" d="M102.642,-179.083C104.786,-171.849 107.879,-161.409 110.549,-152.397"/>
<polygon fill="midnightblue" stroke="midnightblue" points="113.922,-153.333 113.407,-142.751 107.21,-151.345 113.922,-153.333"/>
</g>
<!-- Node5 -->
<g id="node5" class="node"><title>Node5</title>
<g id="a_node5"><a xlink:href="radio__configuration_8h.html" target="_top" xlink:title="settings/radio_configuration.h">
<polygon fill="white" stroke="black" points="163.5,-123.5 163.5,-142.5 306.5,-142.5 306.5,-123.5 163.5,-123.5"/>
<text text-anchor="middle" x="235" y="-130.5" font-family="Helvetica,sans-Serif" font-size="10.00">settings/radio_configuration.h</text>
</a>
</g>
</g>
<!-- Node3&#45;&gt;Node5 -->
<g id="edge5" class="edge"><title>Node3&#45;&gt;Node5</title>
<path fill="none" stroke="midnightblue" d="M121.391,-179.444C143.707,-170.517 178.903,-156.439 204.208,-146.317"/>
<polygon fill="midnightblue" stroke="midnightblue" points="205.724,-149.48 213.709,-142.516 203.124,-142.981 205.724,-149.48"/>
</g>
<!-- Node6 -->
<g id="node6" class="node"><title>Node6</title>
<g id="a_node6"><a xlink:href="si4735__cmd__prop_8h.html" target="_top" xlink:title="driver/include/si4735\l_cmd_prop.h">
<polygon fill="white" stroke="black" points="134,-56.5 134,-86.5 238,-86.5 238,-56.5 134,-56.5"/>
<text text-anchor="start" x="142" y="-74.5" font-family="Helvetica,sans-Serif" font-size="10.00">driver/include/si4735</text>
<text text-anchor="middle" x="186" y="-63.5" font-family="Helvetica,sans-Serif" font-size="10.00">_cmd_prop.h</text>
</a>
</g>
</g>
<!-- Node5&#45;&gt;Node6 -->
<g id="edge6" class="edge"><title>Node5&#45;&gt;Node6</title>
<path fill="none" stroke="midnightblue" d="M227.979,-123.475C221.715,-115.869 212.27,-104.399 203.924,-94.2649"/>
<polygon fill="midnightblue" stroke="midnightblue" points="206.607,-92.0173 197.548,-86.523 201.204,-96.4673 206.607,-92.0173"/>
</g>
<!-- Node6&#45;&gt;Node2 -->
<g id="edge7" class="edge"><title>Node6&#45;&gt;Node2</title>
<path fill="none" stroke="midnightblue" d="M155.666,-56.3993C134.477,-46.55 106.406,-33.5014 85.798,-23.9217"/>
<polygon fill="midnightblue" stroke="midnightblue" points="87.1687,-20.6993 76.6251,-19.6578 84.2179,-27.047 87.1687,-20.6993"/>
</g>
</g>
</svg>
