<?xml version="1.0" encoding="UTF-8" standalone="no"?>
<!DOCTYPE svg PUBLIC "-//W3C//DTD SVG 1.1//EN"
 "http://www.w3.org/Graphics/SVG/1.1/DTD/svg11.dtd">
<!-- Generated by graphviz version 2.38.0 (20140413.2041)
 -->
<!-- Title: driver/i2c.h Pages: 1 -->
<svg width="292pt" height="263pt"
 viewBox="0.00 0.00 291.62 263.00" xmlns="http://www.w3.org/2000/svg" xmlns:xlink="http://www.w3.org/1999/xlink">
<g id="graph0" class="graph" transform="scale(1 1) rotate(0) translate(4 259)">
<title>driver/i2c.h</title>
<polygon fill="white" stroke="none" points="-4,4 -4,-259 287.621,-259 287.621,4 -4,4"/>
<!-- Node1 -->
<g id="node1" class="node"><title>Node1</title>
<polygon fill="#bfbfbf" stroke="black" points="32.6213,-235.5 32.6213,-254.5 95.6213,-254.5 95.6213,-235.5 32.6213,-235.5"/>
<text text-anchor="middle" x="64.1213" y="-242.5" font-family="Helvetica,sans-Serif" font-size="10.00">driver/i2c.h</text>
</g>
<!-- Node2 -->
<g id="node2" class="node"><title>Node2</title>
<polygon fill="white" stroke="#bfbfbf" points="87.6213,-0.5 87.6213,-19.5 136.621,-19.5 136.621,-0.5 87.6213,-0.5"/>
<text text-anchor="middle" x="112.121" y="-7.5" font-family="Helvetica,sans-Serif" font-size="10.00">stdint.h</text>
</g>
<!-- Node1&#45;&gt;Node2 -->
<g id="edge1" class="edge"><title>Node1&#45;&gt;Node2</title>
<path fill="none" stroke="midnightblue" d="M54.2445,-235.406C33.0636,-215.878 -13.4303,-166.487 4.1213,-123 21.4698,-80.0159 64.0876,-44.3333 90.3026,-25.4774"/>
<polygon fill="midnightblue" stroke="midnightblue" points="92.315,-28.341 98.5038,-19.7416 88.3032,-22.6047 92.315,-28.341"/>
</g>
<!-- Node3 -->
<g id="node3" class="node"><title>Node3</title>
<polygon fill="white" stroke="#bfbfbf" points="13.6213,-123.5 13.6213,-142.5 72.6213,-142.5 72.6213,-123.5 13.6213,-123.5"/>
<text text-anchor="middle" x="43.1213" y="-130.5" font-family="Helvetica,sans-Serif" font-size="10.00">msp430.h</text>
</g>
<!-- Node1&#45;&gt;Node3 -->
<g id="edge2" class="edge"><title>Node1&#45;&gt;Node3</title>
<path fill="none" stroke="midnightblue" d="M55.1015,-235.34C47.049,-226.932 35.8234,-213.363 31.1213,-199 26.0504,-183.51 30.3,-165.2 35.0889,-151.968"/>
<polygon fill="midnightblue" stroke="midnightblue" points="38.3749,-153.177 38.8772,-142.594 31.8849,-150.554 38.3749,-153.177"/>
</g>
<!-- Node4 -->
<g id="node4" class="node"><title>Node4</title>
<polygon fill="white" stroke="#bfbfbf" points="40.1213,-179.5 40.1213,-198.5 88.1213,-198.5 88.1213,-179.5 40.1213,-179.5"/>
<text text-anchor="middle" x="64.1213" y="-186.5" font-family="Helvetica,sans-Serif" font-size="10.00">stdlib.h</text>
</g>
<!-- Node1&#45;&gt;Node4 -->
<g id="edge3" class="edge"><title>Node1&#45;&gt;Node4</title>
<path fill="none" stroke="midnightblue" d="M64.1213,-235.083C64.1213,-228.006 64.1213,-217.861 64.1213,-208.986"/>
<polygon fill="midnightblue" stroke="midnightblue" points="67.6214,-208.751 64.1213,-198.751 60.6214,-208.751 67.6214,-208.751"/>
</g>
<!-- Node5 -->
<g id="node5" class="node"><title>Node5</title>
<polygon fill="white" stroke="#bfbfbf" points="106.121,-179.5 106.121,-198.5 158.121,-198.5 158.121,-179.5 106.121,-179.5"/>
<text text-anchor="middle" x="132.121" y="-186.5" font-family="Helvetica,sans-Serif" font-size="10.00">stdarg.h</text>
</g>
<!-- Node1&#45;&gt;Node5 -->
<g id="edge4" class="edge"><title>Node1&#45;&gt;Node5</title>
<path fill="none" stroke="midnightblue" d="M75.0467,-235.324C85.2959,-227.185 100.842,-214.839 113.122,-205.087"/>
<polygon fill="midnightblue" stroke="midnightblue" points="115.343,-207.794 120.997,-198.834 110.989,-202.312 115.343,-207.794"/>
</g>
<!-- Node6 -->
<g id="node6" class="node"><title>Node6</title>
<g id="a_node6"><a xlink:href="timer_8h.html" target="_top" xlink:title="driver/timer.h">
<polygon fill="white" stroke="black" points="176.121,-179.5 176.121,-198.5 248.121,-198.5 248.121,-179.5 176.121,-179.5"/>
<text text-anchor="middle" x="212.121" y="-186.5" font-family="Helvetica,sans-Serif" font-size="10.00">driver/timer.h</text>
</a>
</g>
</g>
<!-- Node1&#45;&gt;Node6 -->
<g id="edge5" class="edge"><title>Node1&#45;&gt;Node6</title>
<path fill="none" stroke="midnightblue" d="M87.5723,-235.444C112.254,-226.438 151.307,-212.189 179.098,-202.049"/>
<polygon fill="midnightblue" stroke="midnightblue" points="180.585,-205.232 188.78,-198.516 178.186,-198.656 180.585,-205.232"/>
</g>
<!-- Node6&#45;&gt;Node2 -->
<g id="edge7" class="edge"><title>Node6&#45;&gt;Node2</title>
<path fill="none" stroke="midnightblue" d="M183.596,-179.482C165.619,-172.59 143.535,-161.016 131.121,-143 107.443,-108.635 107.689,-57.2226 109.908,-29.8059"/>
<polygon fill="midnightblue" stroke="midnightblue" points="113.412,-29.9413 110.916,-19.6446 106.446,-29.2504 113.412,-29.9413"/>
</g>
<!-- Node6&#45;&gt;Node3 -->
<g id="edge6" class="edge"><title>Node6&#45;&gt;Node3</title>
<path fill="none" stroke="midnightblue" d="M185.343,-179.444C156.788,-170.32 111.389,-155.813 79.5844,-145.651"/>
<polygon fill="midnightblue" stroke="midnightblue" points="80.3654,-142.226 69.7746,-142.516 78.2348,-148.894 80.3654,-142.226"/>
</g>
<!-- Node7 -->
<g id="node7" class="node"><title>Node7</title>
<g id="a_node7"><a xlink:href="radio__configuration_8h.html" target="_top" xlink:title="settings/radio_configuration.h">
<polygon fill="white" stroke="black" points="140.621,-123.5 140.621,-142.5 283.621,-142.5 283.621,-123.5 140.621,-123.5"/>
<text text-anchor="middle" x="212.121" y="-130.5" font-family="Helvetica,sans-Serif" font-size="10.00">settings/radio_configuration.h</text>
</a>
</g>
</g>
<!-- Node6&#45;&gt;Node7 -->
<g id="edge8" class="edge"><title>Node6&#45;&gt;Node7</title>
<path fill="none" stroke="midnightblue" d="M212.121,-179.083C212.121,-172.006 212.121,-161.861 212.121,-152.986"/>
<polygon fill="midnightblue" stroke="midnightblue" points="215.621,-152.751 212.121,-142.751 208.621,-152.751 215.621,-152.751"/>
</g>
<!-- Node8 -->
<g id="node8" class="node"><title>Node8</title>
<g id="a_node8"><a xlink:href="si4735__cmd__prop_8h.html" target="_top" xlink:title="driver/include/si4735\l_cmd_prop.h">
<polygon fill="white" stroke="black" points="150.121,-56.5 150.121,-86.5 254.121,-86.5 254.121,-56.5 150.121,-56.5"/>
<text text-anchor="start" x="158.121" y="-74.5" font-family="Helvetica,sans-Serif" font-size="10.00">driver/include/si4735</text>
<text text-anchor="middle" x="202.121" y="-63.5" font-family="Helvetica,sans-Serif" font-size="10.00">_cmd_prop.h</text>
</a>
</g>
</g>
<!-- Node7&#45;&gt;Node8 -->
<g id="edge9" class="edge"><title>Node7&#45;&gt;Node8</title>
<path fill="none" stroke="midnightblue" d="M210.689,-123.475C209.499,-116.396 207.747,-105.97 206.136,-96.3896"/>
<polygon fill="midnightblue" stroke="midnightblue" points="209.587,-95.8045 204.478,-86.523 202.684,-96.9648 209.587,-95.8045"/>
</g>
<!-- Node8&#45;&gt;Node2 -->
<g id="edge10" class="edge"><title>Node8&#45;&gt;Node2</title>
<path fill="none" stroke="midnightblue" d="M180.793,-56.3993C166.636,-47.0402 148.11,-34.7924 133.868,-25.3771"/>
<polygon fill="midnightblue" stroke="midnightblue" points="135.489,-22.2531 125.217,-19.6578 131.629,-28.0923 135.489,-22.2531"/>
</g>
</g>
</svg>
