<?xml version="1.0" encoding="UTF-8" standalone="no"?>
<!DOCTYPE svg PUBLIC "-//W3C//DTD SVG 1.1//EN"
 "http://www.w3.org/Graphics/SVG/1.1/DTD/svg11.dtd">
<!-- Generated by graphviz version 2.38.0 (20140413.2041)
 -->
<!-- Title: i2c_read Pages: 1 -->
<!--zoomable 446 -->
<svg id="main" version="1.1" xmlns="http://www.w3.org/2000/svg" xmlns:xlink="http://www.w3.org/1999/xlink" xml:space="preserve" onload="init(evt)">
<style type="text/css"><![CDATA[
.edge:hover path { stroke: red; }
.edge:hover polygon { stroke: red; fill: red; }
]]></style>
<script type="text/javascript"><![CDATA[
var edges = document.getElementsByTagName('g');
if (edges && edges.length) {
  for (var i=0;i<edges.length;i++) {
    if (edges[i].id.substr(0,4)=='edge') {
      edges[i].setAttribute('class','edge');
    }
  }
}
]]></script>
        <defs>
                <circle id="rim" cx="0" cy="0" r="7"/>
                <circle id="rim2" cx="0" cy="0" r="3.5"/>
                <g id="zoomPlus">
                        <use xlink:href="#rim" fill="#404040">
                                <set attributeName="fill" to="#808080" begin="zoomplus.mouseover" end="zoomplus.mouseout"/>
                        </use>
                        <path d="M-4,0h8M0,-4v8" fill="none" stroke="white" stroke-width="1.5" pointer-events="none"/>
                </g>
                <g id="zoomMin">
                        <use xlink:href="#rim" fill="#404040">
                                <set attributeName="fill" to="#808080" begin="zoomminus.mouseover" end="zoomminus.mouseout"/>
                        </use>
                        <path d="M-4,0h8" fill="none" stroke="white" stroke-width="1.5" pointer-events="none"/>
                </g>
                <g id="dirArrow">
                        <path fill="none" stroke="white" stroke-width="1.5" d="M0,-3.0v7 M-2.5,-0.5L0,-3.0L2.5,-0.5"/>
                </g>
               <g id="resetDef">
                       <use xlink:href="#rim2" fill="#404040">
                               <set attributeName="fill" to="#808080" begin="reset.mouseover" end="reset.mouseout"/>
                       </use>
               </g>
        </defs>

<script type="text/javascript">
var viewWidth = 1007;
var viewHeight = 446;
var sectionId = 'dynsection-2';
</script>
<script xlink:href="svgpan.js"/>
<svg id="graph" class="graph">
<g id="viewport">
<title>i2c_read</title>
<polygon fill="white" stroke="none" points="-4,4 -4,-442 1003,-442 1003,4 -4,4"/>
<!-- Node1 -->
<g id="node1" class="node"><title>Node1</title>
<polygon fill="#bfbfbf" stroke="black" points="0,-209.5 0,-228.5 53,-228.5 53,-209.5 0,-209.5"/>
<text text-anchor="middle" x="26.5" y="-216.5" font-family="Helvetica,sans-Serif" font-size="10.00">i2c_read</text>
</g>
<!-- Node2 -->
<g id="node2" class="node"><title>Node2</title>
<g id="a_node2"><a xlink:href="opt3001_8c.html#a4910f99caac4b6293a33627107cb7e82" target="_top" xlink:title="opt3001_get_value">
<polygon fill="white" stroke="black" points="99,-418.5 99,-437.5 196,-437.5 196,-418.5 99,-418.5"/>
<text text-anchor="middle" x="147.5" y="-425.5" font-family="Helvetica,sans-Serif" font-size="10.00">opt3001_get_value</text>
</a>
</g>
</g>
<!-- Node1&#45;&gt;Node2 -->
<g id="edge1" class="edge"><title>Node1&#45;&gt;Node2</title>
<path fill="none" stroke="midnightblue" d="M28.2688,-239.215C30.8241,-277.622 41.8207,-361.532 89,-409 92.854,-412.878 97.5147,-415.964 102.495,-418.42"/>
<polygon fill="midnightblue" stroke="midnightblue" points="31.7436,-238.647 27.7161,-228.848 24.7535,-239.02 31.7436,-238.647"/>
</g>
<!-- Node3 -->
<g id="node3" class="node"><title>Node3</title>
<g id="a_node3"><a xlink:href="pca9530_8c.html#a0504ea065814c638843035fe0559b24c" target="_top" xlink:title="pca9530_read_input">
<polygon fill="white" stroke="black" points="95.5,-380.5 95.5,-399.5 199.5,-399.5 199.5,-380.5 95.5,-380.5"/>
<text text-anchor="middle" x="147.5" y="-387.5" font-family="Helvetica,sans-Serif" font-size="10.00">pca9530_read_input</text>
</a>
</g>
</g>
<!-- Node1&#45;&gt;Node3 -->
<g id="edge2" class="edge"><title>Node1&#45;&gt;Node3</title>
<path fill="none" stroke="midnightblue" d="M30.1069,-238.727C35.3915,-270.922 50.3438,-334.79 89,-371 93.1434,-374.881 98.0973,-377.97 103.335,-380.429"/>
<polygon fill="midnightblue" stroke="midnightblue" points="33.5568,-238.131 28.6178,-228.758 26.6336,-239.165 33.5568,-238.131"/>
</g>
<!-- Node4 -->
<g id="node4" class="node"><title>Node4</title>
<g id="a_node4"><a xlink:href="pca9534_8c.html#a20d4e8d9173eded61af0bbdf23086913" target="_top" xlink:title="pca9534_input">
<polygon fill="white" stroke="black" points="107.5,-342.5 107.5,-361.5 187.5,-361.5 187.5,-342.5 107.5,-342.5"/>
<text text-anchor="middle" x="147.5" y="-349.5" font-family="Helvetica,sans-Serif" font-size="10.00">pca9534_input</text>
</a>
</g>
</g>
<!-- Node1&#45;&gt;Node4 -->
<g id="edge3" class="edge"><title>Node1&#45;&gt;Node4</title>
<path fill="none" stroke="midnightblue" d="M33.0038,-238.385C41.1571,-263.685 58.8243,-307.707 89,-333 94.3179,-337.457 100.716,-340.879 107.283,-343.504"/>
<polygon fill="midnightblue" stroke="midnightblue" points="36.2573,-237.053 29.9995,-228.504 29.56,-239.09 36.2573,-237.053"/>
</g>
<!-- Node5 -->
<g id="node5" class="node"><title>Node5</title>
<g id="a_node5"><a xlink:href="si4735_8c.html#af19013498b2529c01dd96942c157647a" target="_top" xlink:title="si4735_fm_rds_status">
<polygon fill="white" stroke="black" points="91.5,-304.5 91.5,-323.5 203.5,-323.5 203.5,-304.5 91.5,-304.5"/>
<text text-anchor="middle" x="147.5" y="-311.5" font-family="Helvetica,sans-Serif" font-size="10.00">si4735_fm_rds_status</text>
</a>
</g>
</g>
<!-- Node1&#45;&gt;Node5 -->
<g id="edge4" class="edge"><title>Node1&#45;&gt;Node5</title>
<path fill="none" stroke="midnightblue" d="M37.9834,-237.253C48.7337,-254.446 66.9698,-279.773 89,-295 94.5351,-298.826 100.896,-301.926 107.325,-304.425"/>
<polygon fill="midnightblue" stroke="midnightblue" points="40.9621,-235.415 32.8045,-228.654 34.9656,-239.026 40.9621,-235.415"/>
</g>
<!-- Node6 -->
<g id="node6" class="node"><title>Node6</title>
<g id="a_node6"><a xlink:href="si4735_8c.html#a01d768567b59b2f9c8900a233fdd4d41" target="_top" xlink:title="si4735_fm_rsq_status">
<polygon fill="white" stroke="black" points="91.5,-266.5 91.5,-285.5 203.5,-285.5 203.5,-266.5 91.5,-266.5"/>
<text text-anchor="middle" x="147.5" y="-273.5" font-family="Helvetica,sans-Serif" font-size="10.00">si4735_fm_rsq_status</text>
</a>
</g>
</g>
<!-- Node1&#45;&gt;Node6 -->
<g id="edge5" class="edge"><title>Node1&#45;&gt;Node6</title>
<path fill="none" stroke="midnightblue" d="M53.2317,-233.526C64.14,-239.496 77.0667,-246.324 89,-252 99.7456,-257.111 111.873,-262.261 122.211,-266.472"/>
<polygon fill="midnightblue" stroke="midnightblue" points="54.6855,-230.331 44.241,-228.553 51.2969,-236.456 54.6855,-230.331"/>
</g>
<!-- Node9 -->
<g id="node9" class="node"><title>Node9</title>
<g id="a_node9"><a xlink:href="si4735_8c.html#ad8b515f4991303f8cac978410d736a03" target="_top" xlink:title="si4735_fm_tune_status">
<polygon fill="white" stroke="black" points="89,-76.5 89,-95.5 206,-95.5 206,-76.5 89,-76.5"/>
<text text-anchor="middle" x="147.5" y="-83.5" font-family="Helvetica,sans-Serif" font-size="10.00">si4735_fm_tune_status</text>
</a>
</g>
</g>
<!-- Node1&#45;&gt;Node9 -->
<g id="edge8" class="edge"><title>Node1&#45;&gt;Node9</title>
<path fill="none" stroke="midnightblue" d="M33.0038,-199.615C41.1571,-174.315 58.8243,-130.293 89,-105 93.5927,-101.15 98.9908,-98.0731 104.608,-95.6151"/>
<polygon fill="midnightblue" stroke="midnightblue" points="29.56,-198.91 29.9995,-209.496 36.2573,-200.947 29.56,-198.91"/>
</g>
<!-- Node15 -->
<g id="node15" class="node"><title>Node15</title>
<g id="a_node15"><a xlink:href="si4735_8c.html#af82ec28b536b1258ea4178108c61d5e9" target="_top" xlink:title="si4735_fm_tune_freq">
<polygon fill="white" stroke="black" points="94.5,-114.5 94.5,-133.5 200.5,-133.5 200.5,-114.5 94.5,-114.5"/>
<text text-anchor="middle" x="147.5" y="-121.5" font-family="Helvetica,sans-Serif" font-size="10.00">si4735_fm_tune_freq</text>
</a>
</g>
</g>
<!-- Node1&#45;&gt;Node15 -->
<g id="edge16" class="edge"><title>Node1&#45;&gt;Node15</title>
<path fill="none" stroke="midnightblue" d="M37.9834,-200.747C48.7337,-183.554 66.9698,-158.227 89,-143 94.5351,-139.174 100.896,-136.074 107.325,-133.575"/>
<polygon fill="midnightblue" stroke="midnightblue" points="34.9656,-198.974 32.8045,-209.346 40.9621,-202.585 34.9656,-198.974"/>
</g>
<!-- Node22 -->
<g id="node22" class="node"><title>Node22</title>
<g id="a_node22"><a xlink:href="si4735_8c.html#a209bed933b0bdc8432e8dd082f2c7a71" target="_top" xlink:title="si4735_get_int_status">
<polygon fill="white" stroke="black" points="91.5,-38.5 91.5,-57.5 203.5,-57.5 203.5,-38.5 91.5,-38.5"/>
<text text-anchor="middle" x="147.5" y="-45.5" font-family="Helvetica,sans-Serif" font-size="10.00">si4735_get_int_status</text>
</a>
</g>
</g>
<!-- Node1&#45;&gt;Node22 -->
<g id="edge27" class="edge"><title>Node1&#45;&gt;Node22</title>
<path fill="none" stroke="midnightblue" d="M30.1069,-199.273C35.3915,-167.078 50.3438,-103.21 89,-67 93.1434,-63.1188 98.0973,-60.0296 103.335,-57.5709"/>
<polygon fill="midnightblue" stroke="midnightblue" points="26.6336,-198.835 28.6178,-209.242 33.5568,-199.869 26.6336,-198.835"/>
</g>
<!-- Node23 -->
<g id="node23" class="node"><title>Node23</title>
<g id="a_node23"><a xlink:href="si4735_8c.html#a5d54c5379f019b57f7d75d471791250c" target="_top" xlink:title="si4735_get_property">
<polygon fill="white" stroke="black" points="95.5,-0.5 95.5,-19.5 199.5,-19.5 199.5,-0.5 95.5,-0.5"/>
<text text-anchor="middle" x="147.5" y="-7.5" font-family="Helvetica,sans-Serif" font-size="10.00">si4735_get_property</text>
</a>
</g>
</g>
<!-- Node1&#45;&gt;Node23 -->
<g id="edge28" class="edge"><title>Node1&#45;&gt;Node23</title>
<path fill="none" stroke="midnightblue" d="M28.2688,-198.785C30.8241,-160.378 41.8207,-76.4679 89,-29 92.854,-25.1225 97.5147,-22.0362 102.495,-19.5798"/>
<polygon fill="midnightblue" stroke="midnightblue" points="24.7535,-198.98 27.7161,-209.152 31.7436,-199.353 24.7535,-198.98"/>
</g>
<!-- Node24 -->
<g id="node24" class="node"><title>Node24</title>
<g id="a_node24"><a xlink:href="si4735_8c.html#a339846da787fb5a496df9252ca7dc9a5" target="_top" xlink:title="si4735_fm_seek_start">
<polygon fill="white" stroke="black" points="91.5,-152.5 91.5,-171.5 203.5,-171.5 203.5,-152.5 91.5,-152.5"/>
<text text-anchor="middle" x="147.5" y="-159.5" font-family="Helvetica,sans-Serif" font-size="10.00">si4735_fm_seek_start</text>
</a>
</g>
</g>
<!-- Node1&#45;&gt;Node24 -->
<g id="edge29" class="edge"><title>Node1&#45;&gt;Node24</title>
<path fill="none" stroke="midnightblue" d="M49.5896,-203.598C60.9986,-196.103 75.357,-187.361 89,-181 96.6229,-177.446 105.097,-174.257 113.145,-171.553"/>
<polygon fill="midnightblue" stroke="midnightblue" points="47.4916,-200.791 41.1423,-209.273 51.3949,-206.602 47.4916,-200.791"/>
</g>
<!-- Node25 -->
<g id="node25" class="node"><title>Node25</title>
<g id="a_node25"><a xlink:href="rds_8c.html#a1c031719ba892045c773dc035058870f" target="_top" xlink:title="rds_update">
<polygon fill="white" stroke="black" points="251,-209.5 251,-228.5 316,-228.5 316,-209.5 251,-209.5"/>
<text text-anchor="middle" x="283.5" y="-216.5" font-family="Helvetica,sans-Serif" font-size="10.00">rds_update</text>
</a>
</g>
</g>
<!-- Node1&#45;&gt;Node25 -->
<g id="edge32" class="edge"><title>Node1&#45;&gt;Node25</title>
<path fill="none" stroke="midnightblue" d="M63.3741,-219C113.294,-219 202.934,-219 250.624,-219"/>
<polygon fill="midnightblue" stroke="midnightblue" points="63.3541,-215.5 53.3541,-219 63.354,-222.5 63.3541,-215.5"/>
</g>
<!-- Node26 -->
<g id="node26" class="node"><title>Node26</title>
<g id="a_node26"><a xlink:href="rds_8c.html#ad4168f8a33d30a3526e416da5997baa9" target="_top" xlink:title="rds_triggered">
<polygon fill="white" stroke="black" points="111,-190.5 111,-209.5 184,-209.5 184,-190.5 111,-190.5"/>
<text text-anchor="middle" x="147.5" y="-197.5" font-family="Helvetica,sans-Serif" font-size="10.00">rds_triggered</text>
</a>
</g>
</g>
<!-- Node1&#45;&gt;Node26 -->
<g id="edge35" class="edge"><title>Node1&#45;&gt;Node26</title>
<path fill="none" stroke="midnightblue" d="M62.9917,-213.333C78.0375,-210.931 95.5443,-208.136 110.631,-205.727"/>
<polygon fill="midnightblue" stroke="midnightblue" points="62.3515,-209.891 53.0285,-214.924 63.4553,-216.803 62.3515,-209.891"/>
</g>
<!-- Node7 -->
<g id="node7" class="node"><title>Node7</title>
<g id="a_node7"><a xlink:href="rsq_8c.html#adc26e0d94e8ebd7ba62fa4f628a15f6d" target="_top" xlink:title="rsq_update">
<polygon fill="white" stroke="black" points="508,-266.5 508,-285.5 573,-285.5 573,-266.5 508,-266.5"/>
<text text-anchor="middle" x="540.5" y="-273.5" font-family="Helvetica,sans-Serif" font-size="10.00">rsq_update</text>
</a>
</g>
</g>
<!-- Node6&#45;&gt;Node7 -->
<g id="edge6" class="edge"><title>Node6&#45;&gt;Node7</title>
<path fill="none" stroke="midnightblue" d="M213.754,-276C298.794,-276 444.156,-276 507.933,-276"/>
<polygon fill="midnightblue" stroke="midnightblue" points="213.691,-272.5 203.691,-276 213.691,-279.5 213.691,-272.5"/>
</g>
<!-- Node8 -->
<g id="node8" class="node"><title>Node8</title>
<g id="a_node8"><a xlink:href="main_8c.html#a840291bc02cba5474a4cb46a9b9566fe" target="_top" xlink:title="main">
<polygon fill="white" stroke="black" points="961,-209.5 961,-228.5 999,-228.5 999,-209.5 961,-209.5"/>
<text text-anchor="middle" x="980" y="-216.5" font-family="Helvetica,sans-Serif" font-size="10.00">main</text>
</a>
</g>
</g>
<!-- Node7&#45;&gt;Node8 -->
<g id="edge7" class="edge"><title>Node7&#45;&gt;Node8</title>
<path fill="none" stroke="midnightblue" d="M583.252,-279.824C655.011,-284.996 805.542,-289.677 925,-252 940.717,-247.043 956.555,-236.565 966.976,-228.738"/>
<polygon fill="midnightblue" stroke="midnightblue" points="583.486,-276.332 573.249,-279.062 582.954,-283.312 583.486,-276.332"/>
</g>
<!-- Node10 -->
<g id="node10" class="node"><title>Node10</title>
<g id="a_node10"><a xlink:href="radio_8c.html#aee6321b512830d482a2fc164cf11f9e9" target="_top" xlink:title="radio_seeking">
<polygon fill="white" stroke="black" points="245,-114.5 245,-133.5 322,-133.5 322,-114.5 245,-114.5"/>
<text text-anchor="middle" x="283.5" y="-121.5" font-family="Helvetica,sans-Serif" font-size="10.00">radio_seeking</text>
</a>
</g>
</g>
<!-- Node9&#45;&gt;Node10 -->
<g id="edge9" class="edge"><title>Node9&#45;&gt;Node10</title>
<path fill="none" stroke="midnightblue" d="M191.938,-98.3183C210.349,-103.539 231.48,-109.532 248.697,-114.414"/>
<polygon fill="midnightblue" stroke="midnightblue" points="192.889,-94.9501 182.314,-95.589 190.98,-101.685 192.889,-94.9501"/>
</g>
<!-- Node11 -->
<g id="node11" class="node"><title>Node11</title>
<g id="a_node11"><a xlink:href="radio_8c.html#a832a684fc60104296fc975a7608f92b4" target="_top" xlink:title="radio_settings">
<polygon fill="white" stroke="black" points="619,-95.5 619,-114.5 696,-114.5 696,-95.5 619,-95.5"/>
<text text-anchor="middle" x="657.5" y="-102.5" font-family="Helvetica,sans-Serif" font-size="10.00">radio_settings</text>
</a>
</g>
</g>
<!-- Node10&#45;&gt;Node11 -->
<g id="edge10" class="edge"><title>Node10&#45;&gt;Node11</title>
<path fill="none" stroke="midnightblue" d="M332.323,-121.557C407.286,-117.729 550.907,-110.393 618.961,-106.917"/>
<polygon fill="midnightblue" stroke="midnightblue" points="332.025,-118.068 322.217,-122.074 332.382,-125.059 332.025,-118.068"/>
</g>
<!-- Node14 -->
<g id="node14" class="node"><title>Node14</title>
<g id="a_node14"><a xlink:href="radio_8c.html#ac96da2886aec92b299b27b500761564c" target="_top" xlink:title="radio_auto_search">
<polygon fill="white" stroke="black" points="363.5,-152.5 363.5,-171.5 459.5,-171.5 459.5,-152.5 363.5,-152.5"/>
<text text-anchor="middle" x="411.5" y="-159.5" font-family="Helvetica,sans-Serif" font-size="10.00">radio_auto_search</text>
</a>
</g>
</g>
<!-- Node10&#45;&gt;Node14 -->
<g id="edge14" class="edge"><title>Node10&#45;&gt;Node14</title>
<path fill="none" stroke="midnightblue" d="M326.064,-136.535C343.205,-141.705 362.75,-147.599 378.715,-152.414"/>
<polygon fill="midnightblue" stroke="midnightblue" points="326.88,-133.126 316.295,-133.589 324.859,-139.827 326.88,-133.126"/>
</g>
<!-- Node12 -->
<g id="node12" class="node"><title>Node12</title>
<g id="a_node12"><a xlink:href="menu_8c.html#a5d9c190838195d7872fc7067269e20fa" target="_top" xlink:title="menu_function">
<polygon fill="white" stroke="black" points="732,-95.5 732,-114.5 812,-114.5 812,-95.5 732,-95.5"/>
<text text-anchor="middle" x="772" y="-102.5" font-family="Helvetica,sans-Serif" font-size="10.00">menu_function</text>
</a>
</g>
</g>
<!-- Node11&#45;&gt;Node12 -->
<g id="edge11" class="edge"><title>Node11&#45;&gt;Node12</title>
<path fill="none" stroke="midnightblue" d="M706.474,-105C714.985,-105 723.755,-105 731.981,-105"/>
<polygon fill="midnightblue" stroke="midnightblue" points="706.274,-101.5 696.274,-105 706.274,-108.5 706.274,-101.5"/>
</g>
<!-- Node13 -->
<g id="node13" class="node"><title>Node13</title>
<g id="a_node13"><a xlink:href="menu_8c.html#aaf2a075d3159f7eeab42012941a3437f" target="_top" xlink:title="menu_handler">
<polygon fill="white" stroke="black" points="848,-124.5 848,-143.5 925,-143.5 925,-124.5 848,-124.5"/>
<text text-anchor="middle" x="886.5" y="-131.5" font-family="Helvetica,sans-Serif" font-size="10.00">menu_handler</text>
</a>
</g>
</g>
<!-- Node12&#45;&gt;Node13 -->
<g id="edge12" class="edge"><title>Node12&#45;&gt;Node13</title>
<path fill="none" stroke="midnightblue" d="M819.881,-117.085C829.393,-119.537 839.272,-122.084 848.391,-124.434"/>
<polygon fill="midnightblue" stroke="midnightblue" points="820.706,-113.683 810.148,-114.576 818.958,-120.462 820.706,-113.683"/>
</g>
<!-- Node13&#45;&gt;Node8 -->
<g id="edge13" class="edge"><title>Node13&#45;&gt;Node8</title>
<path fill="none" stroke="midnightblue" d="M905.378,-150.608C924.221,-168.112 953.255,-195.084 968.626,-209.363"/>
<polygon fill="midnightblue" stroke="midnightblue" points="907.705,-147.992 897.996,-143.751 902.941,-153.121 907.705,-147.992"/>
</g>
<!-- Node14&#45;&gt;Node11 -->
<g id="edge15" class="edge"><title>Node14&#45;&gt;Node11</title>
<path fill="none" stroke="midnightblue" d="M469.64,-158.01C503.154,-154.672 546.04,-148.665 583,-138 602.89,-132.261 624.348,-122.128 638.913,-114.6"/>
<polygon fill="midnightblue" stroke="midnightblue" points="469.184,-154.537 459.557,-158.962 469.842,-161.506 469.184,-154.537"/>
</g>
<!-- Node16 -->
<g id="node16" class="node"><title>Node16</title>
<g id="a_node16"><a xlink:href="si4735_8c.html#a876518b974a7128391e2ff86a597218f" target="_top" xlink:title="SI4735_INIT">
<polygon fill="white" stroke="black" points="249.5,-152.5 249.5,-171.5 317.5,-171.5 317.5,-152.5 249.5,-152.5"/>
<text text-anchor="middle" x="283.5" y="-159.5" font-family="Helvetica,sans-Serif" font-size="10.00">SI4735_INIT</text>
</a>
</g>
</g>
<!-- Node15&#45;&gt;Node16 -->
<g id="edge17" class="edge"><title>Node15&#45;&gt;Node16</title>
<path fill="none" stroke="midnightblue" d="M192.014,-136.34C210.573,-141.603 231.884,-147.646 249.161,-152.546"/>
<polygon fill="midnightblue" stroke="midnightblue" points="192.889,-132.95 182.314,-133.589 190.98,-139.685 192.889,-132.95"/>
</g>
<!-- Node18 -->
<g id="node18" class="node"><title>Node18</title>
<g id="a_node18"><a xlink:href="radio_8c.html#a6d652e9d0f1c54bfe9ec73fe2605b706" target="_top" xlink:title="radio_tune_freq">
<polygon fill="white" stroke="black" points="242,-57.5 242,-76.5 325,-76.5 325,-57.5 242,-57.5"/>
<text text-anchor="middle" x="283.5" y="-64.5" font-family="Helvetica,sans-Serif" font-size="10.00">radio_tune_freq</text>
</a>
</g>
</g>
<!-- Node15&#45;&gt;Node18 -->
<g id="edge20" class="edge"><title>Node15&#45;&gt;Node18</title>
<path fill="none" stroke="midnightblue" d="M189.867,-111.117C195.336,-109.185 200.834,-107.124 206,-105 226.71,-96.4848 249.605,-84.7941 264.901,-76.6366"/>
<polygon fill="midnightblue" stroke="midnightblue" points="188.461,-107.898 180.129,-114.442 190.724,-114.522 188.461,-107.898"/>
</g>
<!-- Node17 -->
<g id="node17" class="node"><title>Node17</title>
<g id="a_node17"><a xlink:href="radio_8c.html#a3a1de7e31aabba6e408a633c130e618a" target="_top" xlink:title="radio_init">
<polygon fill="white" stroke="black" points="629.5,-190.5 629.5,-209.5 685.5,-209.5 685.5,-190.5 629.5,-190.5"/>
<text text-anchor="middle" x="657.5" y="-197.5" font-family="Helvetica,sans-Serif" font-size="10.00">radio_init</text>
</a>
</g>
</g>
<!-- Node16&#45;&gt;Node17 -->
<g id="edge18" class="edge"><title>Node16&#45;&gt;Node17</title>
<path fill="none" stroke="midnightblue" d="M327.144,-174.025C338.1,-176.718 349.922,-179.282 361,-181 459.046,-196.202 577.212,-199.281 629.434,-199.876"/>
<polygon fill="midnightblue" stroke="midnightblue" points="327.928,-170.613 317.373,-171.537 326.2,-177.397 327.928,-170.613"/>
</g>
<!-- Node17&#45;&gt;Node8 -->
<g id="edge19" class="edge"><title>Node17&#45;&gt;Node8</title>
<path fill="none" stroke="midnightblue" d="M695.956,-202.22C765.019,-206.315 910.013,-214.91 960.889,-217.926"/>
<polygon fill="midnightblue" stroke="midnightblue" points="695.739,-198.702 685.549,-201.604 695.325,-205.689 695.739,-198.702"/>
</g>
<!-- Node19 -->
<g id="node19" class="node"><title>Node19</title>
<g id="a_node19"><a xlink:href="radio_8c.html#a5f7fcd9e9755fb5e22175a4ad74a5456" target="_top" xlink:title="radio_main">
<polygon fill="white" stroke="black" points="508.5,-0.5 508.5,-19.5 572.5,-19.5 572.5,-0.5 508.5,-0.5"/>
<text text-anchor="middle" x="540.5" y="-7.5" font-family="Helvetica,sans-Serif" font-size="10.00">radio_main</text>
</a>
</g>
</g>
<!-- Node18&#45;&gt;Node19 -->
<g id="edge21" class="edge"><title>Node18&#45;&gt;Node19</title>
<path fill="none" stroke="midnightblue" d="M331.676,-55.0187C341.361,-52.6335 351.499,-50.1905 361,-48 412.56,-36.1126 472.811,-23.5635 508.473,-16.2748"/>
<polygon fill="midnightblue" stroke="midnightblue" points="330.656,-51.6655 321.793,-57.4705 332.342,-58.4596 330.656,-51.6655"/>
</g>
<!-- Node20 -->
<g id="node20" class="node"><title>Node20</title>
<g id="a_node20"><a xlink:href="station__list_8h.html#a5b16204c2b6824ce89364d614f074b20" target="_top" xlink:title="station_list_handler">
<polygon fill="white" stroke="black" points="361,-57.5 361,-76.5 462,-76.5 462,-57.5 361,-57.5"/>
<text text-anchor="middle" x="411.5" y="-64.5" font-family="Helvetica,sans-Serif" font-size="10.00">station_list_handler</text>
</a>
</g>
</g>
<!-- Node18&#45;&gt;Node20 -->
<g id="edge23" class="edge"><title>Node18&#45;&gt;Node20</title>
<path fill="none" stroke="midnightblue" d="M335.156,-67C343.592,-67 352.336,-67 360.75,-67"/>
<polygon fill="midnightblue" stroke="midnightblue" points="335.061,-63.5001 325.061,-67 335.061,-70.5001 335.061,-63.5001"/>
</g>
<!-- Node19&#45;&gt;Node12 -->
<g id="edge22" class="edge"><title>Node19&#45;&gt;Node12</title>
<path fill="none" stroke="midnightblue" d="M574.201,-23.5364C621.295,-43.0304 707.041,-78.5247 748.011,-95.4838"/>
<polygon fill="midnightblue" stroke="midnightblue" points="575.347,-20.2228 564.769,-19.6319 572.67,-26.6906 575.347,-20.2228"/>
</g>
<!-- Node20&#45;&gt;Node11 -->
<g id="edge24" class="edge"><title>Node20&#45;&gt;Node11</title>
<path fill="none" stroke="midnightblue" d="M472.266,-76.3078C518.039,-83.4364 579.774,-93.0509 618.865,-99.1389"/>
<polygon fill="midnightblue" stroke="midnightblue" points="472.591,-72.8163 462.171,-74.7357 471.513,-79.7329 472.591,-72.8163"/>
</g>
<!-- Node21 -->
<g id="node21" class="node"><title>Node21</title>
<g id="a_node21"><a xlink:href="radio_8c.html#aae41d271062b3f94cccf4fb5996b04a2" target="_top" xlink:title="radio_frequency">
<polygon fill="white" stroke="black" points="498,-38.5 498,-57.5 583,-57.5 583,-38.5 498,-38.5"/>
<text text-anchor="middle" x="540.5" y="-45.5" font-family="Helvetica,sans-Serif" font-size="10.00">radio_frequency</text>
</a>
</g>
</g>
<!-- Node20&#45;&gt;Node21 -->
<g id="edge25" class="edge"><title>Node20&#45;&gt;Node21</title>
<path fill="none" stroke="midnightblue" d="M472.296,-58.0542C480.853,-56.774 489.5,-55.4803 497.613,-54.2666"/>
<polygon fill="midnightblue" stroke="midnightblue" points="471.701,-54.6041 462.329,-59.5452 472.737,-61.527 471.701,-54.6041"/>
</g>
<!-- Node21&#45;&gt;Node11 -->
<g id="edge26" class="edge"><title>Node21&#45;&gt;Node11</title>
<path fill="none" stroke="midnightblue" d="M569.821,-62.0372C590.773,-72.4222 618.758,-86.2931 637.189,-95.4284"/>
<polygon fill="midnightblue" stroke="midnightblue" points="571.263,-58.8456 560.748,-57.5405 568.154,-65.1175 571.263,-58.8456"/>
</g>
<!-- Node24&#45;&gt;Node10 -->
<g id="edge31" class="edge"><title>Node24&#45;&gt;Node10</title>
<path fill="none" stroke="midnightblue" d="M191.938,-149.682C210.349,-144.461 231.48,-138.468 248.697,-133.586"/>
<polygon fill="midnightblue" stroke="midnightblue" points="190.98,-146.315 182.314,-152.411 192.889,-153.05 190.98,-146.315"/>
</g>
<!-- Node24&#45;&gt;Node16 -->
<g id="edge30" class="edge"><title>Node24&#45;&gt;Node16</title>
<path fill="none" stroke="midnightblue" d="M213.988,-162C226.207,-162 238.492,-162 249.218,-162"/>
<polygon fill="midnightblue" stroke="midnightblue" points="213.777,-158.5 203.777,-162 213.777,-165.5 213.777,-158.5"/>
</g>
<!-- Node25&#45;&gt;Node8 -->
<g id="edge33" class="edge"><title>Node25&#45;&gt;Node8</title>
<path fill="none" stroke="midnightblue" d="M326.44,-224.047C376.915,-229.676 464.276,-238 539.5,-238 539.5,-238 539.5,-238 773,-238 842.676,-238 925.051,-227.089 960.865,-221.804"/>
<polygon fill="midnightblue" stroke="midnightblue" points="326.578,-220.54 316.247,-222.891 325.789,-227.496 326.578,-220.54"/>
</g>
<!-- Node25&#45;&gt;Node14 -->
<g id="edge34" class="edge"><title>Node25&#45;&gt;Node14</title>
<path fill="none" stroke="midnightblue" d="M314.911,-205.243C337.933,-194.828 368.966,-180.789 389.342,-171.572"/>
<polygon fill="midnightblue" stroke="midnightblue" points="313.258,-202.149 305.59,-209.459 316.143,-208.527 313.258,-202.149"/>
</g>
<!-- Node26&#45;&gt;Node25 -->
<g id="edge36" class="edge"><title>Node26&#45;&gt;Node25</title>
<path fill="none" stroke="midnightblue" d="M194.138,-206.471C212.817,-209.12 233.969,-212.119 250.895,-214.519"/>
<polygon fill="midnightblue" stroke="midnightblue" points="194.45,-202.98 184.058,-205.042 193.467,-209.911 194.45,-202.98"/>
</g>
</g>
</svg>
        <g id="navigator" transform="translate(0 0)" fill="#404254">
                <rect fill="#f2f5e9" fill-opacity="0.5" stroke="#606060" stroke-width=".5" x="0" y="0" width="60" height="60"/>
                <use id="zoomplus" xlink:href="#zoomPlus" x="17" y="9" onmousedown="handleZoom(evt,'in')"/>
                <use id="zoomminus" xlink:href="#zoomMin" x="42" y="9" onmousedown="handleZoom(evt,'out')"/>
                <use id="reset" xlink:href="#resetDef" x="30" y="36" onmousedown="handleReset()"/>
                <g id="arrowUp" xlink:href="#dirArrow" transform="translate(30 24)" onmousedown="handlePan(0,-1)">
                  <use xlink:href="#rim" fill="#404040">
                        <set attributeName="fill" to="#808080" begin="arrowUp.mouseover" end="arrowUp.mouseout"/>
                  </use>
                  <path fill="none" stroke="white" stroke-width="1.5" d="M0,-3.0v7 M-2.5,-0.5L0,-3.0L2.5,-0.5"/>
                </g>
                <g id="arrowRight" xlink:href="#dirArrow" transform="rotate(90) translate(36 -43)" onmousedown="handlePan(1,0)">
                  <use xlink:href="#rim" fill="#404040">
                        <set attributeName="fill" to="#808080" begin="arrowRight.mouseover" end="arrowRight.mouseout"/>
                  </use>
                  <path fill="none" stroke="white" stroke-width="1.5" d="M0,-3.0v7 M-2.5,-0.5L0,-3.0L2.5,-0.5"/>
                </g>
                <g id="arrowDown" xlink:href="#dirArrow" transform="rotate(180) translate(-30 -48)" onmousedown="handlePan(0,1)">
                  <use xlink:href="#rim" fill="#404040">
                        <set attributeName="fill" to="#808080" begin="arrowDown.mouseover" end="arrowDown.mouseout"/>
                  </use>
                  <path fill="none" stroke="white" stroke-width="1.5" d="M0,-3.0v7 M-2.5,-0.5L0,-3.0L2.5,-0.5"/>
                </g>
                <g id="arrowLeft" xlink:href="#dirArrow" transform="rotate(270) translate(-36 17)" onmousedown="handlePan(-1,0)">
                  <use xlink:href="#rim" fill="#404040">
                        <set attributeName="fill" to="#808080" begin="arrowLeft.mouseover" end="arrowLeft.mouseout"/>
                  </use>
                  <path fill="none" stroke="white" stroke-width="1.5" d="M0,-3.0v7 M-2.5,-0.5L0,-3.0L2.5,-0.5"/>
                </g>
        </g>
        <svg viewBox="0 0 15 15" width="100%" height="30px" preserveAspectRatio="xMaxYMin meet">
         <g id="arrow_out" transform="scale(0.3 0.3)">
          <a xlink:href="i2c_8c_a620e4251e56f4961d8879a01a70f31bf_icgraph_org.svg" target="_base">
           <rect id="button" ry="5" rx="5" y="6" x="6" height="38" width="38"
                fill="#f2f5e9" fill-opacity="0.5" stroke="#606060" stroke-width="1.0"/>
           <path id="arrow"
             d="M 11.500037,31.436501 C 11.940474,20.09759 22.043105,11.32322 32.158766,21.979434 L 37.068811,17.246167 C 37.068811,17.246167 37.088388,32 37.088388,32 L 22.160133,31.978069 C 22.160133,31.978069 26.997745,27.140456 26.997745,27.140456 C 18.528582,18.264221 13.291696,25.230495 11.500037,31.436501 z"
             style="fill:#404040;"/>
          </a>
         </g>
        </svg>
</svg>
