<?xml version="1.0" encoding="UTF-8" standalone="no"?>
<!DOCTYPE svg PUBLIC "-//W3C//DTD SVG 1.1//EN"
 "http://www.w3.org/Graphics/SVG/1.1/DTD/svg11.dtd">
<!-- Generated by graphviz version 2.38.0 (20140413.2041)
 -->
<!-- Title: D:/GIT/fhradiov2/driver/i2c.h Pages: 1 -->
<svg width="292pt" height="274pt"
 viewBox="0.00 0.00 291.85 274.00" xmlns="http://www.w3.org/2000/svg" xmlns:xlink="http://www.w3.org/1999/xlink">
<g id="graph0" class="graph" transform="scale(1 1) rotate(0) translate(4 270)">
<title>D:/GIT/fhradiov2/driver/i2c.h</title>
<polygon fill="white" stroke="none" points="-4,4 -4,-270 287.847,-270 287.847,4 -4,4"/>
<!-- Node1 -->
<g id="node1" class="node"><title>Node1</title>
<polygon fill="#bfbfbf" stroke="black" points="9.34662,-235.5 9.34662,-265.5 119.347,-265.5 119.347,-235.5 9.34662,-235.5"/>
<text text-anchor="start" x="17.3466" y="-253.5" font-family="Helvetica,sans-Serif" font-size="10.00">D:/GIT/fhradiov2/driver</text>
<text text-anchor="middle" x="64.3466" y="-242.5" font-family="Helvetica,sans-Serif" font-size="10.00">/i2c.h</text>
</g>
<!-- Node2 -->
<g id="node2" class="node"><title>Node2</title>
<polygon fill="white" stroke="#bfbfbf" points="87.8466,-0.5 87.8466,-19.5 136.847,-19.5 136.847,-0.5 87.8466,-0.5"/>
<text text-anchor="middle" x="112.347" y="-7.5" font-family="Helvetica,sans-Serif" font-size="10.00">stdint.h</text>
</g>
<!-- Node1&#45;&gt;Node2 -->
<g id="edge1" class="edge"><title>Node1&#45;&gt;Node2</title>
<path fill="none" stroke="midnightblue" d="M49.1774,-235.329C26.3451,-212.193 -12.4835,-164.7 4.34662,-123 21.6952,-80.0159 64.3129,-44.3333 90.5279,-25.4774"/>
<polygon fill="midnightblue" stroke="midnightblue" points="92.5403,-28.341 98.7291,-19.7416 88.5285,-22.6047 92.5403,-28.341"/>
</g>
<!-- Node3 -->
<g id="node3" class="node"><title>Node3</title>
<polygon fill="white" stroke="#bfbfbf" points="13.8466,-123.5 13.8466,-142.5 72.8466,-142.5 72.8466,-123.5 13.8466,-123.5"/>
<text text-anchor="middle" x="43.3466" y="-130.5" font-family="Helvetica,sans-Serif" font-size="10.00">msp430.h</text>
</g>
<!-- Node1&#45;&gt;Node3 -->
<g id="edge2" class="edge"><title>Node1&#45;&gt;Node3</title>
<path fill="none" stroke="midnightblue" d="M51.7347,-235.188C44.2055,-225.656 35.3517,-212.451 31.3466,-199 26.6953,-183.379 30.8989,-165.084 35.5636,-151.89"/>
<polygon fill="midnightblue" stroke="midnightblue" points="38.8338,-153.137 39.2431,-142.55 32.321,-150.571 38.8338,-153.137"/>
</g>
<!-- Node4 -->
<g id="node4" class="node"><title>Node4</title>
<polygon fill="white" stroke="#bfbfbf" points="40.3466,-179.5 40.3466,-198.5 88.3466,-198.5 88.3466,-179.5 40.3466,-179.5"/>
<text text-anchor="middle" x="64.3466" y="-186.5" font-family="Helvetica,sans-Serif" font-size="10.00">stdlib.h</text>
</g>
<!-- Node1&#45;&gt;Node4 -->
<g id="edge3" class="edge"><title>Node1&#45;&gt;Node4</title>
<path fill="none" stroke="midnightblue" d="M64.3466,-235.399C64.3466,-227.466 64.3466,-217.458 64.3466,-208.858"/>
<polygon fill="midnightblue" stroke="midnightblue" points="67.8467,-208.658 64.3466,-198.658 60.8467,-208.658 67.8467,-208.658"/>
</g>
<!-- Node5 -->
<g id="node5" class="node"><title>Node5</title>
<polygon fill="white" stroke="#bfbfbf" points="106.347,-179.5 106.347,-198.5 158.347,-198.5 158.347,-179.5 106.347,-179.5"/>
<text text-anchor="middle" x="132.347" y="-186.5" font-family="Helvetica,sans-Serif" font-size="10.00">stdarg.h</text>
</g>
<!-- Node1&#45;&gt;Node5 -->
<g id="edge4" class="edge"><title>Node1&#45;&gt;Node5</title>
<path fill="none" stroke="midnightblue" d="M80.4617,-235.399C90.7504,-226.397 104.094,-214.721 114.672,-205.465"/>
<polygon fill="midnightblue" stroke="midnightblue" points="117.231,-207.877 122.452,-198.658 112.621,-202.609 117.231,-207.877"/>
</g>
<!-- Node6 -->
<g id="node6" class="node"><title>Node6</title>
<g id="a_node6"><a xlink:href="timer_8h.html" target="_top" xlink:title="driver/timer.h">
<polygon fill="white" stroke="black" points="176.347,-179.5 176.347,-198.5 248.347,-198.5 248.347,-179.5 176.347,-179.5"/>
<text text-anchor="middle" x="212.347" y="-186.5" font-family="Helvetica,sans-Serif" font-size="10.00">driver/timer.h</text>
</a>
</g>
</g>
<!-- Node1&#45;&gt;Node6 -->
<g id="edge5" class="edge"><title>Node1&#45;&gt;Node6</title>
<path fill="none" stroke="midnightblue" d="M99.4206,-235.399C124.363,-225.372 157.554,-212.028 181.491,-202.405"/>
<polygon fill="midnightblue" stroke="midnightblue" points="182.839,-205.635 190.811,-198.658 180.227,-199.141 182.839,-205.635"/>
</g>
<!-- Node6&#45;&gt;Node2 -->
<g id="edge7" class="edge"><title>Node6&#45;&gt;Node2</title>
<path fill="none" stroke="midnightblue" d="M183.821,-179.482C165.845,-172.59 143.76,-161.016 131.347,-143 107.668,-108.635 107.914,-57.2226 110.133,-29.8059"/>
<polygon fill="midnightblue" stroke="midnightblue" points="113.637,-29.9413 111.141,-19.6446 106.671,-29.2504 113.637,-29.9413"/>
</g>
<!-- Node6&#45;&gt;Node3 -->
<g id="edge6" class="edge"><title>Node6&#45;&gt;Node3</title>
<path fill="none" stroke="midnightblue" d="M185.568,-179.444C157.014,-170.32 111.614,-155.813 79.8097,-145.651"/>
<polygon fill="midnightblue" stroke="midnightblue" points="80.5908,-142.226 69.9999,-142.516 78.4601,-148.894 80.5908,-142.226"/>
</g>
<!-- Node7 -->
<g id="node7" class="node"><title>Node7</title>
<g id="a_node7"><a xlink:href="radio__configuration_8h.html" target="_top" xlink:title="settings/radio_configuration.h">
<polygon fill="white" stroke="black" points="140.847,-123.5 140.847,-142.5 283.847,-142.5 283.847,-123.5 140.847,-123.5"/>
<text text-anchor="middle" x="212.347" y="-130.5" font-family="Helvetica,sans-Serif" font-size="10.00">settings/radio_configuration.h</text>
</a>
</g>
</g>
<!-- Node6&#45;&gt;Node7 -->
<g id="edge8" class="edge"><title>Node6&#45;&gt;Node7</title>
<path fill="none" stroke="midnightblue" d="M212.347,-179.083C212.347,-172.006 212.347,-161.861 212.347,-152.986"/>
<polygon fill="midnightblue" stroke="midnightblue" points="215.847,-152.751 212.347,-142.751 208.847,-152.751 215.847,-152.751"/>
</g>
<!-- Node8 -->
<g id="node8" class="node"><title>Node8</title>
<g id="a_node8"><a xlink:href="si4735__cmd__prop_8h.html" target="_top" xlink:title="driver/include/si4735\l_cmd_prop.h">
<polygon fill="white" stroke="black" points="150.347,-56.5 150.347,-86.5 254.347,-86.5 254.347,-56.5 150.347,-56.5"/>
<text text-anchor="start" x="158.347" y="-74.5" font-family="Helvetica,sans-Serif" font-size="10.00">driver/include/si4735</text>
<text text-anchor="middle" x="202.347" y="-63.5" font-family="Helvetica,sans-Serif" font-size="10.00">_cmd_prop.h</text>
</a>
</g>
</g>
<!-- Node7&#45;&gt;Node8 -->
<g id="edge9" class="edge"><title>Node7&#45;&gt;Node8</title>
<path fill="none" stroke="midnightblue" d="M210.914,-123.475C209.724,-116.396 207.972,-105.97 206.362,-96.3896"/>
<polygon fill="midnightblue" stroke="midnightblue" points="209.813,-95.8045 204.703,-86.523 202.909,-96.9648 209.813,-95.8045"/>
</g>
<!-- Node8&#45;&gt;Node2 -->
<g id="edge10" class="edge"><title>Node8&#45;&gt;Node2</title>
<path fill="none" stroke="midnightblue" d="M181.018,-56.3993C166.861,-47.0402 148.335,-34.7924 134.094,-25.3771"/>
<polygon fill="midnightblue" stroke="midnightblue" points="135.714,-22.2531 125.442,-19.6578 131.854,-28.0923 135.714,-22.2531"/>
</g>
</g>
</svg>
