<?xml version="1.0" encoding="UTF-8" standalone="no"?>
<!DOCTYPE svg PUBLIC "-//W3C//DTD SVG 1.1//EN"
 "http://www.w3.org/Graphics/SVG/1.1/DTD/svg11.dtd">
<!-- Generated by graphviz version 2.38.0 (20140413.2041)
 -->
<!-- Title: i2c_read Pages: 1 -->
<svg width="465pt" height="446pt"
 viewBox="0.00 0.00 465.00 446.00" xmlns="http://www.w3.org/2000/svg" xmlns:xlink="http://www.w3.org/1999/xlink">
<g id="graph0" class="graph" transform="scale(1 1) rotate(0) translate(4 442)">
<title>i2c_read</title>
<polygon fill="white" stroke="none" points="-4,4 -4,-442 461,-442 461,4 -4,4"/>
<!-- Node1 -->
<g id="node1" class="node"><title>Node1</title>
<polygon fill="#bfbfbf" stroke="black" points="0,-209.5 0,-228.5 53,-228.5 53,-209.5 0,-209.5"/>
<text text-anchor="middle" x="26.5" y="-216.5" font-family="Helvetica,sans-Serif" font-size="10.00">i2c_read</text>
</g>
<!-- Node2 -->
<g id="node2" class="node"><title>Node2</title>
<g id="a_node2"><a xlink:href="pca9530_8c.html#a0504ea065814c638843035fe0559b24c" target="_top" xlink:title="pca9530_read_input">
<polygon fill="white" stroke="black" points="95.5,-418.5 95.5,-437.5 199.5,-437.5 199.5,-418.5 95.5,-418.5"/>
<text text-anchor="middle" x="147.5" y="-425.5" font-family="Helvetica,sans-Serif" font-size="10.00">pca9530_read_input</text>
</a>
</g>
</g>
<!-- Node1&#45;&gt;Node2 -->
<g id="edge1" class="edge"><title>Node1&#45;&gt;Node2</title>
<path fill="none" stroke="midnightblue" d="M28.2688,-239.215C30.8241,-277.622 41.8207,-361.532 89,-409 92.854,-412.878 97.5147,-415.964 102.495,-418.42"/>
<polygon fill="midnightblue" stroke="midnightblue" points="31.7436,-238.647 27.7161,-228.848 24.7535,-239.02 31.7436,-238.647"/>
</g>
<!-- Node3 -->
<g id="node3" class="node"><title>Node3</title>
<g id="a_node3"><a xlink:href="pca9534_8c.html#a20d4e8d9173eded61af0bbdf23086913" target="_top" xlink:title="pca9534_input">
<polygon fill="white" stroke="black" points="107.5,-380.5 107.5,-399.5 187.5,-399.5 187.5,-380.5 107.5,-380.5"/>
<text text-anchor="middle" x="147.5" y="-387.5" font-family="Helvetica,sans-Serif" font-size="10.00">pca9534_input</text>
</a>
</g>
</g>
<!-- Node1&#45;&gt;Node3 -->
<g id="edge2" class="edge"><title>Node1&#45;&gt;Node3</title>
<path fill="none" stroke="midnightblue" d="M30.1069,-238.727C35.3915,-270.922 50.3438,-334.79 89,-371 94.2176,-375.887 100.72,-379.519 107.457,-382.217"/>
<polygon fill="midnightblue" stroke="midnightblue" points="33.5568,-238.131 28.6178,-228.758 26.6336,-239.165 33.5568,-238.131"/>
</g>
<!-- Node4 -->
<g id="node4" class="node"><title>Node4</title>
<g id="a_node4"><a xlink:href="si4735_8c.html#af19013498b2529c01dd96942c157647a" target="_top" xlink:title="si4735_fm_rds_status">
<polygon fill="white" stroke="black" points="91.5,-342.5 91.5,-361.5 203.5,-361.5 203.5,-342.5 91.5,-342.5"/>
<text text-anchor="middle" x="147.5" y="-349.5" font-family="Helvetica,sans-Serif" font-size="10.00">si4735_fm_rds_status</text>
</a>
</g>
</g>
<!-- Node1&#45;&gt;Node4 -->
<g id="edge3" class="edge"><title>Node1&#45;&gt;Node4</title>
<path fill="none" stroke="midnightblue" d="M33.0038,-238.385C41.1571,-263.685 58.8243,-307.707 89,-333 93.5927,-336.85 98.9908,-339.927 104.608,-342.385"/>
<polygon fill="midnightblue" stroke="midnightblue" points="36.2573,-237.053 29.9995,-228.504 29.56,-239.09 36.2573,-237.053"/>
</g>
<!-- Node5 -->
<g id="node5" class="node"><title>Node5</title>
<g id="a_node5"><a xlink:href="si4735_8c.html#a89613c1378ba6894efae537469783717" target="_top" xlink:title="si4735_fm_rsq_status">
<polygon fill="white" stroke="black" points="91.5,-304.5 91.5,-323.5 203.5,-323.5 203.5,-304.5 91.5,-304.5"/>
<text text-anchor="middle" x="147.5" y="-311.5" font-family="Helvetica,sans-Serif" font-size="10.00">si4735_fm_rsq_status</text>
</a>
</g>
</g>
<!-- Node1&#45;&gt;Node5 -->
<g id="edge4" class="edge"><title>Node1&#45;&gt;Node5</title>
<path fill="none" stroke="midnightblue" d="M37.9834,-237.253C48.7337,-254.446 66.9698,-279.773 89,-295 94.5351,-298.826 100.896,-301.926 107.325,-304.425"/>
<polygon fill="midnightblue" stroke="midnightblue" points="40.9621,-235.415 32.8045,-228.654 34.9656,-239.026 40.9621,-235.415"/>
</g>
<!-- Node6 -->
<g id="node6" class="node"><title>Node6</title>
<g id="a_node6"><a xlink:href="si4735_8c.html#ad8b515f4991303f8cac978410d736a03" target="_top" xlink:title="si4735_fm_tune_status">
<polygon fill="white" stroke="black" points="89,-266.5 89,-285.5 206,-285.5 206,-266.5 89,-266.5"/>
<text text-anchor="middle" x="147.5" y="-273.5" font-family="Helvetica,sans-Serif" font-size="10.00">si4735_fm_tune_status</text>
</a>
</g>
</g>
<!-- Node1&#45;&gt;Node6 -->
<g id="edge5" class="edge"><title>Node1&#45;&gt;Node6</title>
<path fill="none" stroke="midnightblue" d="M49.5896,-234.402C60.9986,-241.897 75.357,-250.639 89,-257 96.6229,-260.554 105.097,-263.743 113.145,-266.447"/>
<polygon fill="midnightblue" stroke="midnightblue" points="51.3949,-231.398 41.1423,-228.727 47.4916,-237.209 51.3949,-231.398"/>
</g>
<!-- Node9 -->
<g id="node9" class="node"><title>Node9</title>
<g id="a_node9"><a xlink:href="si4735_8c.html#af82ec28b536b1258ea4178108c61d5e9" target="_top" xlink:title="si4735_fm_tune_freq">
<polygon fill="white" stroke="black" points="94.5,-190.5 94.5,-209.5 200.5,-209.5 200.5,-190.5 94.5,-190.5"/>
<text text-anchor="middle" x="147.5" y="-197.5" font-family="Helvetica,sans-Serif" font-size="10.00">si4735_fm_tune_freq</text>
</a>
</g>
</g>
<!-- Node1&#45;&gt;Node9 -->
<g id="edge8" class="edge"><title>Node1&#45;&gt;Node9</title>
<path fill="none" stroke="midnightblue" d="M63.1329,-213.311C72.8723,-211.756 83.6344,-210.037 94.0992,-208.367"/>
<polygon fill="midnightblue" stroke="midnightblue" points="62.3515,-209.891 53.0285,-214.924 63.4553,-216.803 62.3515,-209.891"/>
</g>
<!-- Node13 -->
<g id="node13" class="node"><title>Node13</title>
<g id="a_node13"><a xlink:href="si4735_8c.html#a209bed933b0bdc8432e8dd082f2c7a71" target="_top" xlink:title="si4735_get_int_status">
<polygon fill="white" stroke="black" points="91.5,-152.5 91.5,-171.5 203.5,-171.5 203.5,-152.5 91.5,-152.5"/>
<text text-anchor="middle" x="147.5" y="-159.5" font-family="Helvetica,sans-Serif" font-size="10.00">si4735_get_int_status</text>
</a>
</g>
</g>
<!-- Node1&#45;&gt;Node13 -->
<g id="edge13" class="edge"><title>Node1&#45;&gt;Node13</title>
<path fill="none" stroke="midnightblue" d="M49.5896,-203.598C60.9986,-196.103 75.357,-187.361 89,-181 96.6229,-177.446 105.097,-174.257 113.145,-171.553"/>
<polygon fill="midnightblue" stroke="midnightblue" points="47.4916,-200.791 41.1423,-209.273 51.3949,-206.602 47.4916,-200.791"/>
</g>
<!-- Node14 -->
<g id="node14" class="node"><title>Node14</title>
<g id="a_node14"><a xlink:href="si4735_8c.html#a5d54c5379f019b57f7d75d471791250c" target="_top" xlink:title="si4735_get_property">
<polygon fill="white" stroke="black" points="95.5,-114.5 95.5,-133.5 199.5,-133.5 199.5,-114.5 95.5,-114.5"/>
<text text-anchor="middle" x="147.5" y="-121.5" font-family="Helvetica,sans-Serif" font-size="10.00">si4735_get_property</text>
</a>
</g>
</g>
<!-- Node1&#45;&gt;Node14 -->
<g id="edge14" class="edge"><title>Node1&#45;&gt;Node14</title>
<path fill="none" stroke="midnightblue" d="M37.9834,-200.747C48.7337,-183.554 66.9698,-158.227 89,-143 94.5351,-139.174 100.896,-136.074 107.325,-133.575"/>
<polygon fill="midnightblue" stroke="midnightblue" points="34.9656,-198.974 32.8045,-209.346 40.9621,-202.585 34.9656,-198.974"/>
</g>
<!-- Node15 -->
<g id="node15" class="node"><title>Node15</title>
<g id="a_node15"><a xlink:href="si4735_8c.html#a339846da787fb5a496df9252ca7dc9a5" target="_top" xlink:title="si4735_fm_seek_start">
<polygon fill="white" stroke="black" points="91.5,-228.5 91.5,-247.5 203.5,-247.5 203.5,-228.5 91.5,-228.5"/>
<text text-anchor="middle" x="147.5" y="-235.5" font-family="Helvetica,sans-Serif" font-size="10.00">si4735_fm_seek_start</text>
</a>
</g>
</g>
<!-- Node1&#45;&gt;Node15 -->
<g id="edge15" class="edge"><title>Node1&#45;&gt;Node15</title>
<path fill="none" stroke="midnightblue" d="M62.9917,-224.667C71.8649,-226.083 81.594,-227.637 91.1778,-229.167"/>
<polygon fill="midnightblue" stroke="midnightblue" points="63.4553,-221.197 53.0285,-223.076 62.3515,-228.109 63.4553,-221.197"/>
</g>
<!-- Node16 -->
<g id="node16" class="node"><title>Node16</title>
<g id="a_node16"><a xlink:href="rds_8c.html#a7d3450a025ce61ff8522b8a575d34a8f" target="_top" xlink:title="get_rds_data">
<polygon fill="white" stroke="black" points="247,-57.5 247,-76.5 320,-76.5 320,-57.5 247,-57.5"/>
<text text-anchor="middle" x="283.5" y="-64.5" font-family="Helvetica,sans-Serif" font-size="10.00">get_rds_data</text>
</a>
</g>
</g>
<!-- Node1&#45;&gt;Node16 -->
<g id="edge18" class="edge"><title>Node1&#45;&gt;Node16</title>
<path fill="none" stroke="midnightblue" d="M32.4449,-199.382C40.041,-173.492 57.1586,-128.46 89,-105 135.58,-70.6804 204.988,-65.1127 246.785,-65.2922"/>
<polygon fill="midnightblue" stroke="midnightblue" points="29.0254,-198.618 29.7573,-209.188 35.7764,-200.469 29.0254,-198.618"/>
</g>
<!-- Node17 -->
<g id="node17" class="node"><title>Node17</title>
<g id="a_node17"><a xlink:href="rds_8c.html#ad78635732ebd8ebf68f659b9b31e9635" target="_top" xlink:title="get_signal_qual">
<polygon fill="white" stroke="black" points="105.5,-0.5 105.5,-19.5 189.5,-19.5 189.5,-0.5 105.5,-0.5"/>
<text text-anchor="middle" x="147.5" y="-7.5" font-family="Helvetica,sans-Serif" font-size="10.00">get_signal_qual</text>
</a>
</g>
</g>
<!-- Node1&#45;&gt;Node17 -->
<g id="edge19" class="edge"><title>Node1&#45;&gt;Node17</title>
<path fill="none" stroke="midnightblue" d="M28.2688,-198.785C30.8241,-160.378 41.8207,-76.4679 89,-29 93.5951,-24.3768 99.3371,-20.8785 105.401,-18.2314"/>
<polygon fill="midnightblue" stroke="midnightblue" points="24.7535,-198.98 27.7161,-209.152 31.7436,-199.353 24.7535,-198.98"/>
</g>
<!-- Node18 -->
<g id="node18" class="node"><title>Node18</title>
<g id="a_node18"><a xlink:href="rds_8c.html#ad4168f8a33d30a3526e416da5997baa9" target="_top" xlink:title="rds_triggered">
<polygon fill="white" stroke="black" points="111,-38.5 111,-57.5 184,-57.5 184,-38.5 111,-38.5"/>
<text text-anchor="middle" x="147.5" y="-45.5" font-family="Helvetica,sans-Serif" font-size="10.00">rds_triggered</text>
</a>
</g>
</g>
<!-- Node1&#45;&gt;Node18 -->
<g id="edge20" class="edge"><title>Node1&#45;&gt;Node18</title>
<path fill="none" stroke="midnightblue" d="M30.7769,-199.376C36.9118,-168.414 52.9214,-108.049 89,-72 95.2748,-65.7304 103.429,-61.0149 111.616,-57.5011"/>
<polygon fill="midnightblue" stroke="midnightblue" points="27.3085,-198.886 28.9445,-209.354 34.1933,-200.15 27.3085,-198.886"/>
</g>
<!-- Node7 -->
<g id="node7" class="node"><title>Node7</title>
<g id="a_node7"><a xlink:href="radio_8c.html#aee6321b512830d482a2fc164cf11f9e9" target="_top" xlink:title="radio_seeking">
<polygon fill="white" stroke="black" points="245,-266.5 245,-285.5 322,-285.5 322,-266.5 245,-266.5"/>
<text text-anchor="middle" x="283.5" y="-273.5" font-family="Helvetica,sans-Serif" font-size="10.00">radio_seeking</text>
</a>
</g>
</g>
<!-- Node6&#45;&gt;Node7 -->
<g id="edge6" class="edge"><title>Node6&#45;&gt;Node7</title>
<path fill="none" stroke="midnightblue" d="M216.263,-276C226.035,-276 235.786,-276 244.683,-276"/>
<polygon fill="midnightblue" stroke="midnightblue" points="216.106,-272.5 206.106,-276 216.106,-279.5 216.106,-272.5"/>
</g>
<!-- Node8 -->
<g id="node8" class="node"><title>Node8</title>
<g id="a_node8"><a xlink:href="radio_8c.html#ac96da2886aec92b299b27b500761564c" target="_top" xlink:title="radio_auto_search">
<polygon fill="white" stroke="black" points="361,-190.5 361,-209.5 457,-209.5 457,-190.5 361,-190.5"/>
<text text-anchor="middle" x="409" y="-197.5" font-family="Helvetica,sans-Serif" font-size="10.00">radio_auto_search</text>
</a>
</g>
</g>
<!-- Node7&#45;&gt;Node8 -->
<g id="edge7" class="edge"><title>Node7&#45;&gt;Node8</title>
<path fill="none" stroke="midnightblue" d="M317.938,-261.569C320.392,-260.133 322.775,-258.607 325,-257 343.859,-243.378 341.777,-232.103 361,-219 366.382,-215.332 372.579,-212.197 378.671,-209.593"/>
<polygon fill="midnightblue" stroke="midnightblue" points="316.088,-258.588 308.889,-266.361 319.364,-264.774 316.088,-258.588"/>
</g>
<!-- Node9&#45;&gt;Node8 -->
<g id="edge12" class="edge"><title>Node9&#45;&gt;Node8</title>
<path fill="none" stroke="midnightblue" d="M210.867,-200C256.921,-200 318.652,-200 360.684,-200"/>
<polygon fill="midnightblue" stroke="midnightblue" points="210.702,-196.5 200.702,-200 210.702,-203.5 210.702,-196.5"/>
</g>
<!-- Node10 -->
<g id="node10" class="node"><title>Node10</title>
<g id="a_node10"><a xlink:href="si4735_8c.html#a876518b974a7128391e2ff86a597218f" target="_top" xlink:title="SI4735_INIT">
<polygon fill="white" stroke="black" points="249.5,-228.5 249.5,-247.5 317.5,-247.5 317.5,-228.5 249.5,-228.5"/>
<text text-anchor="middle" x="283.5" y="-235.5" font-family="Helvetica,sans-Serif" font-size="10.00">SI4735_INIT</text>
</a>
</g>
</g>
<!-- Node9&#45;&gt;Node10 -->
<g id="edge9" class="edge"><title>Node9&#45;&gt;Node10</title>
<path fill="none" stroke="midnightblue" d="M192.014,-212.34C210.573,-217.603 231.884,-223.646 249.161,-228.546"/>
<polygon fill="midnightblue" stroke="midnightblue" points="192.889,-208.95 182.314,-209.589 190.98,-215.685 192.889,-208.95"/>
</g>
<!-- Node12 -->
<g id="node12" class="node"><title>Node12</title>
<g id="a_node12"><a xlink:href="radio_8c.html#a6d652e9d0f1c54bfe9ec73fe2605b706" target="_top" xlink:title="radio_tune_freq">
<polygon fill="white" stroke="black" points="242,-152.5 242,-171.5 325,-171.5 325,-152.5 242,-152.5"/>
<text text-anchor="middle" x="283.5" y="-159.5" font-family="Helvetica,sans-Serif" font-size="10.00">radio_tune_freq</text>
</a>
</g>
</g>
<!-- Node9&#45;&gt;Node12 -->
<g id="edge11" class="edge"><title>Node9&#45;&gt;Node12</title>
<path fill="none" stroke="midnightblue" d="M191.938,-187.682C210.349,-182.461 231.48,-176.468 248.697,-171.586"/>
<polygon fill="midnightblue" stroke="midnightblue" points="190.98,-184.315 182.314,-190.411 192.889,-191.05 190.98,-184.315"/>
</g>
<!-- Node11 -->
<g id="node11" class="node"><title>Node11</title>
<g id="a_node11"><a xlink:href="main_8c.html#a840291bc02cba5474a4cb46a9b9566fe" target="_top" xlink:title="main">
<polygon fill="white" stroke="black" points="390,-228.5 390,-247.5 428,-247.5 428,-228.5 390,-228.5"/>
<text text-anchor="middle" x="409" y="-235.5" font-family="Helvetica,sans-Serif" font-size="10.00">main</text>
</a>
</g>
</g>
<!-- Node10&#45;&gt;Node11 -->
<g id="edge10" class="edge"><title>Node10&#45;&gt;Node11</title>
<path fill="none" stroke="midnightblue" d="M327.721,-238C348.978,-238 373.464,-238 389.748,-238"/>
<polygon fill="midnightblue" stroke="midnightblue" points="327.596,-234.5 317.596,-238 327.596,-241.5 327.596,-234.5"/>
</g>
<!-- Node15&#45;&gt;Node7 -->
<g id="edge17" class="edge"><title>Node15&#45;&gt;Node7</title>
<path fill="none" stroke="midnightblue" d="M191.938,-250.318C210.349,-255.539 231.48,-261.532 248.697,-266.414"/>
<polygon fill="midnightblue" stroke="midnightblue" points="192.889,-246.95 182.314,-247.589 190.98,-253.685 192.889,-246.95"/>
</g>
<!-- Node15&#45;&gt;Node10 -->
<g id="edge16" class="edge"><title>Node15&#45;&gt;Node10</title>
<path fill="none" stroke="midnightblue" d="M213.988,-238C226.207,-238 238.492,-238 249.218,-238"/>
<polygon fill="midnightblue" stroke="midnightblue" points="213.777,-234.5 203.777,-238 213.777,-241.5 213.777,-234.5"/>
</g>
<!-- Node18&#45;&gt;Node16 -->
<g id="edge21" class="edge"><title>Node18&#45;&gt;Node16</title>
<path fill="none" stroke="midnightblue" d="M194.409,-54.5095C211.532,-56.9374 230.702,-59.6556 246.776,-61.9347"/>
<polygon fill="midnightblue" stroke="midnightblue" points="194.45,-50.9804 184.058,-53.0418 193.467,-57.9111 194.45,-50.9804"/>
</g>
</g>
</svg>
