<?xml version="1.0" encoding="UTF-8" standalone="no"?>
<!DOCTYPE svg PUBLIC "-//W3C//DTD SVG 1.1//EN"
 "http://www.w3.org/Graphics/SVG/1.1/DTD/svg11.dtd">
<!-- Generated by graphviz version 2.38.0 (20140413.2041)
 -->
<!-- Title: menu/lang/language.h Pages: 1 -->
<svg width="608pt" height="196pt"
 viewBox="0.00 0.00 608.00 196.00" xmlns="http://www.w3.org/2000/svg" xmlns:xlink="http://www.w3.org/1999/xlink">
<g id="graph0" class="graph" transform="scale(1 1) rotate(0) translate(4 192)">
<title>menu/lang/language.h</title>
<polygon fill="white" stroke="none" points="-4,4 -4,-192 604,-192 604,4 -4,4"/>
<!-- Node1 -->
<g id="node1" class="node"><title>Node1</title>
<polygon fill="#bfbfbf" stroke="black" points="274,-168.5 274,-187.5 386,-187.5 386,-168.5 274,-168.5"/>
<text text-anchor="middle" x="330" y="-175.5" font-family="Helvetica,sans-Serif" font-size="10.00">menu/lang/language.h</text>
</g>
<!-- Node2 -->
<g id="node2" class="node"><title>Node2</title>
<g id="a_node2"><a xlink:href="menu_2menu_8h.html" target="_top" xlink:title="menu/menu.h">
<polygon fill="white" stroke="black" points="135,-112.5 135,-131.5 211,-131.5 211,-112.5 135,-112.5"/>
<text text-anchor="middle" x="173" y="-119.5" font-family="Helvetica,sans-Serif" font-size="10.00">menu/menu.h</text>
</a>
</g>
</g>
<!-- Node1&#45;&gt;Node2 -->
<g id="edge1" class="edge"><title>Node1&#45;&gt;Node2</title>
<path fill="none" stroke="midnightblue" d="M295.611,-165.172C266.048,-155.004 224.127,-140.585 197.761,-131.516"/>
<polygon fill="midnightblue" stroke="midnightblue" points="294.528,-168.501 305.123,-168.444 296.805,-161.881 294.528,-168.501"/>
</g>
<!-- Node7 -->
<g id="node7" class="node"><title>Node7</title>
<g id="a_node7"><a xlink:href="radio_8h.html" target="_top" xlink:title="system/radio.h">
<polygon fill="white" stroke="black" points="229.5,-112.5 229.5,-131.5 310.5,-131.5 310.5,-112.5 229.5,-112.5"/>
<text text-anchor="middle" x="270" y="-119.5" font-family="Helvetica,sans-Serif" font-size="10.00">system/radio.h</text>
</a>
</g>
</g>
<!-- Node1&#45;&gt;Node7 -->
<g id="edge7" class="edge"><title>Node1&#45;&gt;Node7</title>
<path fill="none" stroke="midnightblue" d="M312.819,-161.537C302.121,-151.909 288.744,-139.869 279.815,-131.834"/>
<polygon fill="midnightblue" stroke="midnightblue" points="310.586,-164.236 320.36,-168.324 315.268,-159.033 310.586,-164.236"/>
</g>
<!-- Node9 -->
<g id="node9" class="node"><title>Node9</title>
<g id="a_node9"><a xlink:href="en_2language_8c.html" target="_top" xlink:title="menu/lang/en/language.c">
<polygon fill="white" stroke="black" points="328.5,-112.5 328.5,-131.5 453.5,-131.5 453.5,-112.5 328.5,-112.5"/>
<text text-anchor="middle" x="391" y="-119.5" font-family="Helvetica,sans-Serif" font-size="10.00">menu/lang/en/language.c</text>
</a>
</g>
</g>
<!-- Node1&#45;&gt;Node9 -->
<g id="edge10" class="edge"><title>Node1&#45;&gt;Node9</title>
<path fill="none" stroke="midnightblue" d="M347.467,-161.537C358.344,-151.909 371.944,-139.869 381.021,-131.834"/>
<polygon fill="midnightblue" stroke="midnightblue" points="344.968,-159.075 339.801,-168.324 349.608,-164.316 344.968,-159.075"/>
</g>
<!-- Node10 -->
<g id="node10" class="node"><title>Node10</title>
<g id="a_node10"><a xlink:href="ger_2language_8c.html" target="_top" xlink:title="menu/lang/ger/language.c">
<polygon fill="white" stroke="black" points="472,-112.5 472,-131.5 600,-131.5 600,-112.5 472,-112.5"/>
<text text-anchor="middle" x="536" y="-119.5" font-family="Helvetica,sans-Serif" font-size="10.00">menu/lang/ger/language.c</text>
</a>
</g>
</g>
<!-- Node1&#45;&gt;Node10 -->
<g id="edge11" class="edge"><title>Node1&#45;&gt;Node10</title>
<path fill="none" stroke="midnightblue" d="M372.615,-165.829C411.51,-155.633 468.164,-140.782 503.511,-131.516"/>
<polygon fill="midnightblue" stroke="midnightblue" points="371.427,-162.522 362.641,-168.444 373.202,-169.293 371.427,-162.522"/>
</g>
<!-- Node3 -->
<g id="node3" class="node"><title>Node3</title>
<g id="a_node3"><a xlink:href="main_8c.html" target="_top" xlink:title="main.c">
<polygon fill="white" stroke="black" points="242,-56.5 242,-75.5 288,-75.5 288,-56.5 242,-56.5"/>
<text text-anchor="middle" x="265" y="-63.5" font-family="Helvetica,sans-Serif" font-size="10.00">main.c</text>
</a>
</g>
</g>
<!-- Node2&#45;&gt;Node3 -->
<g id="edge2" class="edge"><title>Node2&#45;&gt;Node3</title>
<path fill="none" stroke="midnightblue" d="M196.55,-107.177C213.479,-97.2407 235.783,-84.1492 250.255,-75.6545"/>
<polygon fill="midnightblue" stroke="midnightblue" points="194.634,-104.243 187.781,-112.324 198.177,-110.28 194.634,-104.243"/>
</g>
<!-- Node4 -->
<g id="node4" class="node"><title>Node4</title>
<g id="a_node4"><a xlink:href="menu__struct_8h.html" target="_top" xlink:title="menu/menu_struct.h">
<polygon fill="white" stroke="black" points="8,-56.5 8,-75.5 114,-75.5 114,-56.5 8,-56.5"/>
<text text-anchor="middle" x="61" y="-63.5" font-family="Helvetica,sans-Serif" font-size="10.00">menu/menu_struct.h</text>
</a>
</g>
</g>
<!-- Node2&#45;&gt;Node4 -->
<g id="edge3" class="edge"><title>Node2&#45;&gt;Node4</title>
<path fill="none" stroke="midnightblue" d="M140.983,-108.368C118.554,-98.2553 89.9565,-84.3486 73.5837,-75.5164"/>
<polygon fill="midnightblue" stroke="midnightblue" points="139.605,-111.585 150.165,-112.444 142.445,-105.187 139.605,-111.585"/>
</g>
<!-- Node6 -->
<g id="node6" class="node"><title>Node6</title>
<g id="a_node6"><a xlink:href="menu_2src_2menu_8c.html" target="_top" xlink:title="menu/src/menu.c">
<polygon fill="white" stroke="black" points="132,-56.5 132,-75.5 224,-75.5 224,-56.5 132,-56.5"/>
<text text-anchor="middle" x="178" y="-63.5" font-family="Helvetica,sans-Serif" font-size="10.00">menu/src/menu.c</text>
</a>
</g>
</g>
<!-- Node2&#45;&gt;Node6 -->
<g id="edge6" class="edge"><title>Node2&#45;&gt;Node6</title>
<path fill="none" stroke="midnightblue" d="M174.75,-102.101C175.58,-93.1357 176.532,-82.8579 177.19,-75.7511"/>
<polygon fill="midnightblue" stroke="midnightblue" points="171.263,-101.803 173.826,-112.083 178.233,-102.448 171.263,-101.803"/>
</g>
<!-- Node4&#45;&gt;Node2 -->
<g id="edge4" class="edge"><title>Node4&#45;&gt;Node2</title>
<path fill="none" stroke="midnightblue" d="M93.4818,-79.8421C115.705,-89.8754 143.814,-103.546 160.12,-112.324"/>
<polygon fill="midnightblue" stroke="midnightblue" points="94.6198,-76.5179 84.0602,-75.6545 91.7767,-82.9145 94.6198,-76.5179"/>
</g>
<!-- Node5 -->
<g id="node5" class="node"><title>Node5</title>
<g id="a_node5"><a xlink:href="menu__struct_8c.html" target="_top" xlink:title="menu/src/menu_struct.c">
<polygon fill="white" stroke="black" points="0,-0.5 0,-19.5 122,-19.5 122,-0.5 0,-0.5"/>
<text text-anchor="middle" x="61" y="-7.5" font-family="Helvetica,sans-Serif" font-size="10.00">menu/src/menu_struct.c</text>
</a>
</g>
</g>
<!-- Node4&#45;&gt;Node5 -->
<g id="edge5" class="edge"><title>Node4&#45;&gt;Node5</title>
<path fill="none" stroke="midnightblue" d="M61,-45.8045C61,-36.9102 61,-26.7798 61,-19.7511"/>
<polygon fill="midnightblue" stroke="midnightblue" points="57.5001,-46.083 61,-56.083 64.5001,-46.083 57.5001,-46.083"/>
</g>
<!-- Node7&#45;&gt;Node3 -->
<g id="edge8" class="edge"><title>Node7&#45;&gt;Node3</title>
<path fill="none" stroke="midnightblue" d="M268.25,-102.101C267.42,-93.1357 266.468,-82.8579 265.81,-75.7511"/>
<polygon fill="midnightblue" stroke="midnightblue" points="264.767,-102.448 269.174,-112.083 271.737,-101.803 264.767,-102.448"/>
</g>
<!-- Node8 -->
<g id="node8" class="node"><title>Node8</title>
<g id="a_node8"><a xlink:href="radio_8c.html" target="_top" xlink:title="system/src/radio.c">
<polygon fill="white" stroke="black" points="306,-56.5 306,-75.5 404,-75.5 404,-56.5 306,-56.5"/>
<text text-anchor="middle" x="355" y="-63.5" font-family="Helvetica,sans-Serif" font-size="10.00">system/src/radio.c</text>
</a>
</g>
</g>
<!-- Node7&#45;&gt;Node8 -->
<g id="edge9" class="edge"><title>Node7&#45;&gt;Node8</title>
<path fill="none" stroke="midnightblue" d="M292.194,-106.901C307.78,-96.9986 328.13,-84.0705 341.377,-75.6545"/>
<polygon fill="midnightblue" stroke="midnightblue" points="290.221,-104.007 283.657,-112.324 293.974,-109.916 290.221,-104.007"/>
</g>
</g>
</svg>
