<?xml version="1.0" encoding="UTF-8" standalone="no"?>
<!DOCTYPE svg PUBLIC "-//W3C//DTD SVG 1.1//EN"
 "http://www.w3.org/Graphics/SVG/1.1/DTD/svg11.dtd">
<!-- Generated by graphviz version 2.38.0 (20140413.2041)
 -->
<!-- Title: lcd_create_view Pages: 1 -->
<svg width="666pt" height="66pt"
 viewBox="0.00 0.00 666.00 66.00" xmlns="http://www.w3.org/2000/svg" xmlns:xlink="http://www.w3.org/1999/xlink">
<g id="graph0" class="graph" transform="scale(1 1) rotate(0) translate(4 62)">
<title>lcd_create_view</title>
<polygon fill="white" stroke="none" points="-4,4 -4,-62 662,-62 662,4 -4,4"/>
<!-- Node1 -->
<g id="node1" class="node"><title>Node1</title>
<polygon fill="#bfbfbf" stroke="black" points="0,-19.5 0,-38.5 85,-38.5 85,-19.5 0,-19.5"/>
<text text-anchor="middle" x="42.5" y="-26.5" font-family="Helvetica,sans-Serif" font-size="10.00">lcd_create_view</text>
</g>
<!-- Node2 -->
<g id="node2" class="node"><title>Node2</title>
<g id="a_node2"><a xlink:href="lcd_8c.html#a2a4df97ebc5b396233aa31765228ef42" target="_top" xlink:title="lcd_set_courser">
<polygon fill="white" stroke="black" points="121,-38.5 121,-57.5 207,-57.5 207,-38.5 121,-38.5"/>
<text text-anchor="middle" x="164" y="-45.5" font-family="Helvetica,sans-Serif" font-size="10.00">lcd_set_courser</text>
</a>
</g>
</g>
<!-- Node1&#45;&gt;Node2 -->
<g id="edge1" class="edge"><title>Node1&#45;&gt;Node2</title>
<path fill="none" stroke="midnightblue" d="M85.2953,-35.6453C93.4298,-36.9386 102.054,-38.3098 110.483,-39.65"/>
<polygon fill="midnightblue" stroke="midnightblue" points="110.196,-43.1483 120.622,-41.262 111.295,-36.2351 110.196,-43.1483"/>
</g>
<!-- Node8 -->
<g id="node8" class="node"><title>Node8</title>
<g id="a_node8"><a xlink:href="lcd_8c.html#aa6e1aa2ef9b677e16d8198df683429ec" target="_top" xlink:title="lcd_write_string">
<polygon fill="white" stroke="black" points="243,-0.5 243,-19.5 327,-19.5 327,-0.5 243,-0.5"/>
<text text-anchor="middle" x="285" y="-7.5" font-family="Helvetica,sans-Serif" font-size="10.00">lcd_write_string</text>
</a>
</g>
</g>
<!-- Node1&#45;&gt;Node8 -->
<g id="edge8" class="edge"><title>Node1&#45;&gt;Node8</title>
<path fill="none" stroke="midnightblue" d="M85.1173,-25.7121C126.066,-22.4771 188.678,-17.5307 232.687,-14.0538"/>
<polygon fill="midnightblue" stroke="midnightblue" points="233.199,-17.5244 242.892,-13.2476 232.647,-10.5461 233.199,-17.5244"/>
</g>
<!-- Node3 -->
<g id="node3" class="node"><title>Node3</title>
<g id="a_node3"><a xlink:href="lcd_8c.html#a250728451a22259562d3f01a12bbd77b" target="_top" xlink:title="lcd_command">
<polygon fill="white" stroke="black" points="246.5,-38.5 246.5,-57.5 323.5,-57.5 323.5,-38.5 246.5,-38.5"/>
<text text-anchor="middle" x="285" y="-45.5" font-family="Helvetica,sans-Serif" font-size="10.00">lcd_command</text>
</a>
</g>
</g>
<!-- Node2&#45;&gt;Node3 -->
<g id="edge2" class="edge"><title>Node2&#45;&gt;Node3</title>
<path fill="none" stroke="midnightblue" d="M207.29,-48C216.611,-48 226.549,-48 236.075,-48"/>
<polygon fill="midnightblue" stroke="midnightblue" points="236.202,-51.5001 246.202,-48 236.202,-44.5001 236.202,-51.5001"/>
</g>
<!-- Node4 -->
<g id="node4" class="node"><title>Node4</title>
<g id="a_node4"><a xlink:href="i2c_8h.html#a6691e5911f539e1e8178c6e983e8079a" target="_top" xlink:title="Transmits I2C commands with a variable length to a I2C slave. ">
<polygon fill="white" stroke="black" points="363,-0.5 363,-19.5 435,-19.5 435,-0.5 363,-0.5"/>
<text text-anchor="middle" x="399" y="-7.5" font-family="Helvetica,sans-Serif" font-size="10.00">i2c_write_var</text>
</a>
</g>
</g>
<!-- Node3&#45;&gt;Node4 -->
<g id="edge3" class="edge"><title>Node3&#45;&gt;Node4</title>
<path fill="none" stroke="midnightblue" d="M314.262,-38.411C328.19,-33.6856 345.18,-27.9211 360.207,-22.8226"/>
<polygon fill="midnightblue" stroke="midnightblue" points="361.401,-26.1134 369.747,-19.5859 359.152,-19.4845 361.401,-26.1134"/>
</g>
<!-- Node7 -->
<g id="node7" class="node"><title>Node7</title>
<g id="a_node7"><a xlink:href="timer_8c.html#a276d5cb665b9f8b2c79e53e2f2c5b4f0" target="_top" xlink:title="_delay_ms">
<polygon fill="white" stroke="black" points="474.5,-38.5 474.5,-57.5 538.5,-57.5 538.5,-38.5 474.5,-38.5"/>
<text text-anchor="middle" x="506.5" y="-45.5" font-family="Helvetica,sans-Serif" font-size="10.00">_delay_ms</text>
</a>
</g>
</g>
<!-- Node3&#45;&gt;Node7 -->
<g id="edge6" class="edge"><title>Node3&#45;&gt;Node7</title>
<path fill="none" stroke="midnightblue" d="M323.733,-48C362.861,-48 423.853,-48 464.237,-48"/>
<polygon fill="midnightblue" stroke="midnightblue" points="464.287,-51.5001 474.287,-48 464.287,-44.5001 464.287,-51.5001"/>
</g>
<!-- Node5 -->
<g id="node5" class="node"><title>Node5</title>
<g id="a_node5"><a xlink:href="i2c_8c.html#ae0625b97d3437bcaca4ac4b96dd01978" target="_top" xlink:title="Transmits I2C command array to a I2C slave. ">
<polygon fill="white" stroke="black" points="471,-0.5 471,-19.5 542,-19.5 542,-0.5 471,-0.5"/>
<text text-anchor="middle" x="506.5" y="-7.5" font-family="Helvetica,sans-Serif" font-size="10.00">i2c_write_arr</text>
</a>
</g>
</g>
<!-- Node4&#45;&gt;Node5 -->
<g id="edge4" class="edge"><title>Node4&#45;&gt;Node5</title>
<path fill="none" stroke="midnightblue" d="M435.13,-10C443.312,-10 452.133,-10 460.671,-10"/>
<polygon fill="midnightblue" stroke="midnightblue" points="460.882,-13.5001 470.882,-10 460.882,-6.5001 460.882,-13.5001"/>
</g>
<!-- Node6 -->
<g id="node6" class="node"><title>Node6</title>
<g id="a_node6"><a xlink:href="timer_8c.html#a3c56af3315c2461dec5ced585a5f84db" target="_top" xlink:title="_delay_ten_us">
<polygon fill="white" stroke="black" points="578,-19.5 578,-38.5 658,-38.5 658,-19.5 578,-19.5"/>
<text text-anchor="middle" x="618" y="-26.5" font-family="Helvetica,sans-Serif" font-size="10.00">_delay_ten_us</text>
</a>
</g>
</g>
<!-- Node5&#45;&gt;Node6 -->
<g id="edge5" class="edge"><title>Node5&#45;&gt;Node6</title>
<path fill="none" stroke="midnightblue" d="M542.146,-16.0117C550.253,-17.4183 559.042,-18.9433 567.651,-20.4371"/>
<polygon fill="midnightblue" stroke="midnightblue" points="567.172,-23.9062 577.623,-22.1674 568.368,-17.0092 567.172,-23.9062"/>
</g>
<!-- Node7&#45;&gt;Node6 -->
<g id="edge7" class="edge"><title>Node7&#45;&gt;Node6</title>
<path fill="none" stroke="midnightblue" d="M538.585,-42.6062C547.595,-41.0428 557.664,-39.2957 567.505,-37.5882"/>
<polygon fill="midnightblue" stroke="midnightblue" points="568.368,-40.9908 577.623,-35.8326 567.172,-34.0938 568.368,-40.9908"/>
</g>
<!-- Node8&#45;&gt;Node4 -->
<g id="edge9" class="edge"><title>Node8&#45;&gt;Node4</title>
<path fill="none" stroke="midnightblue" d="M327.069,-10C335.413,-10 344.234,-10 352.715,-10"/>
<polygon fill="midnightblue" stroke="midnightblue" points="352.836,-13.5001 362.836,-10 352.836,-6.5001 352.836,-13.5001"/>
</g>
</g>
</svg>
