<?xml version="1.0" encoding="UTF-8" standalone="no"?>
<!DOCTYPE svg PUBLIC "-//W3C//DTD SVG 1.1//EN"
 "http://www.w3.org/Graphics/SVG/1.1/DTD/svg11.dtd">
<!-- Generated by graphviz version 2.38.0 (20140413.2041)
 -->
<!-- Title: lcd_command Pages: 1 -->
<svg width="1193pt" height="522pt"
 viewBox="0.00 0.00 1193.00 522.00" xmlns="http://www.w3.org/2000/svg" xmlns:xlink="http://www.w3.org/1999/xlink">
<g id="graph0" class="graph" transform="scale(1 1) rotate(0) translate(4 518)">
<title>lcd_command</title>
<polygon fill="white" stroke="none" points="-4,4 -4,-518 1189,-518 1189,4 -4,4"/>
<!-- Node1 -->
<g id="node1" class="node"><title>Node1</title>
<polygon fill="#bfbfbf" stroke="black" points="0,-337.5 0,-356.5 77,-356.5 77,-337.5 0,-337.5"/>
<text text-anchor="middle" x="38.5" y="-344.5" font-family="Helvetica,sans-Serif" font-size="10.00">lcd_command</text>
</g>
<!-- Node2 -->
<g id="node2" class="node"><title>Node2</title>
<g id="a_node2"><a xlink:href="lcd_8c.html#a312eed1baec275e185dc00b760de1356" target="_top" xlink:title="lcd_init">
<polygon fill="white" stroke="black" points="419,-494.5 419,-513.5 466,-513.5 466,-494.5 419,-494.5"/>
<text text-anchor="middle" x="442.5" y="-501.5" font-family="Helvetica,sans-Serif" font-size="10.00">lcd_init</text>
</a>
</g>
</g>
<!-- Node1&#45;&gt;Node2 -->
<g id="edge1" class="edge"><title>Node1&#45;&gt;Node2</title>
<path fill="none" stroke="midnightblue" d="M61.6581,-362.348C75.8837,-371.746 95.002,-383.549 113,-392 223.447,-443.859 364.708,-483.754 418.927,-498.165"/>
<polygon fill="midnightblue" stroke="midnightblue" points="63.329,-359.254 53.0774,-356.579 59.4233,-365.063 63.329,-359.254"/>
</g>
<!-- Node5 -->
<g id="node5" class="node"><title>Node5</title>
<g id="a_node5"><a xlink:href="lcd_8c.html#ab99e48ab8689dcb1205c4c7c97bd9956" target="_top" xlink:title="lcd_contrast">
<polygon fill="white" stroke="black" points="260,-152.5 260,-171.5 330,-171.5 330,-152.5 260,-152.5"/>
<text text-anchor="middle" x="295" y="-159.5" font-family="Helvetica,sans-Serif" font-size="10.00">lcd_contrast</text>
</a>
</g>
</g>
<!-- Node1&#45;&gt;Node5 -->
<g id="edge4" class="edge"><title>Node1&#45;&gt;Node5</title>
<path fill="none" stroke="midnightblue" d="M61.1889,-331.234C112.378,-294.024 239.502,-201.616 280.807,-171.59"/>
<polygon fill="midnightblue" stroke="midnightblue" points="58.8555,-328.603 52.8247,-337.314 62.9714,-334.265 58.8555,-328.603"/>
</g>
<!-- Node10 -->
<g id="node10" class="node"><title>Node10</title>
<g id="a_node10"><a xlink:href="lcd_8c.html#a2a4df97ebc5b396233aa31765228ef42" target="_top" xlink:title="lcd_set_courser">
<polygon fill="white" stroke="black" points="115.5,-311.5 115.5,-330.5 201.5,-330.5 201.5,-311.5 115.5,-311.5"/>
<text text-anchor="middle" x="158.5" y="-318.5" font-family="Helvetica,sans-Serif" font-size="10.00">lcd_set_courser</text>
</a>
</g>
</g>
<!-- Node1&#45;&gt;Node10 -->
<g id="edge10" class="edge"><title>Node1&#45;&gt;Node10</title>
<path fill="none" stroke="midnightblue" d="M87.0834,-336.516C96.4143,-334.46 106.141,-332.316 115.282,-330.302"/>
<polygon fill="midnightblue" stroke="midnightblue" points="86.173,-333.132 77.1604,-338.702 87.6793,-339.968 86.173,-333.132"/>
</g>
<!-- Node27 -->
<g id="node27" class="node"><title>Node27</title>
<g id="a_node27"><a xlink:href="lcd_8c.html#ac5d817278ad99ea7420d6240c7e6cba6" target="_top" xlink:title="lcd_generatechar">
<polygon fill="white" stroke="black" points="113,-363.5 113,-382.5 204,-382.5 204,-363.5 113,-363.5"/>
<text text-anchor="middle" x="158.5" y="-370.5" font-family="Helvetica,sans-Serif" font-size="10.00">lcd_generatechar</text>
</a>
</g>
</g>
<!-- Node1&#45;&gt;Node27 -->
<g id="edge43" class="edge"><title>Node1&#45;&gt;Node27</title>
<path fill="none" stroke="midnightblue" d="M87.0338,-357.474C95.9563,-359.44 105.243,-361.486 114.034,-363.423"/>
<polygon fill="midnightblue" stroke="midnightblue" points="87.6793,-354.032 77.1604,-355.298 86.173,-360.868 87.6793,-354.032"/>
</g>
<!-- Node3 -->
<g id="node3" class="node"><title>Node3</title>
<g id="a_node3"><a xlink:href="radio_8c.html#a3a1de7e31aabba6e408a633c130e618a" target="_top" xlink:title="radio_init">
<polygon fill="white" stroke="black" points="562,-456.5 562,-475.5 618,-475.5 618,-456.5 562,-456.5"/>
<text text-anchor="middle" x="590" y="-463.5" font-family="Helvetica,sans-Serif" font-size="10.00">radio_init</text>
</a>
</g>
</g>
<!-- Node2&#45;&gt;Node3 -->
<g id="edge2" class="edge"><title>Node2&#45;&gt;Node3</title>
<path fill="none" stroke="midnightblue" d="M475.963,-495.522C501.838,-488.764 537.643,-479.413 561.974,-473.058"/>
<polygon fill="midnightblue" stroke="midnightblue" points="475.025,-492.149 466.234,-498.063 476.794,-498.922 475.025,-492.149"/>
</g>
<!-- Node4 -->
<g id="node4" class="node"><title>Node4</title>
<g id="a_node4"><a xlink:href="main_8c.html#a840291bc02cba5474a4cb46a9b9566fe" target="_top" xlink:title="main">
<polygon fill="white" stroke="black" points="1147,-437.5 1147,-456.5 1185,-456.5 1185,-437.5 1147,-437.5"/>
<text text-anchor="middle" x="1166" y="-444.5" font-family="Helvetica,sans-Serif" font-size="10.00">main</text>
</a>
</g>
</g>
<!-- Node3&#45;&gt;Node4 -->
<g id="edge3" class="edge"><title>Node3&#45;&gt;Node4</title>
<path fill="none" stroke="midnightblue" d="M628.313,-466C677.421,-466 766.431,-466 842.5,-466 842.5,-466 842.5,-466 959,-466 1028.68,-466 1111.05,-455.089 1146.86,-449.804"/>
<polygon fill="midnightblue" stroke="midnightblue" points="628.168,-462.5 618.168,-466 628.168,-469.5 628.168,-462.5"/>
</g>
<!-- Node6 -->
<g id="node6" class="node"><title>Node6</title>
<g id="a_node6"><a xlink:href="radio_8c.html#aaf3f53dfebe8da71fbe4c457ffda6714" target="_top" xlink:title="radio_contrast">
<polygon fill="white" stroke="black" points="686,-67.5 686,-86.5 764,-86.5 764,-67.5 686,-67.5"/>
<text text-anchor="middle" x="725" y="-74.5" font-family="Helvetica,sans-Serif" font-size="10.00">radio_contrast</text>
</a>
</g>
</g>
<!-- Node5&#45;&gt;Node6 -->
<g id="edge5" class="edge"><title>Node5&#45;&gt;Node6</title>
<path fill="none" stroke="midnightblue" d="M306.798,-143.514C321.404,-120.565 349.842,-82.5527 386,-67 490.353,-22.1146 630.061,-50.7965 692.058,-67.4768"/>
<polygon fill="midnightblue" stroke="midnightblue" points="303.644,-141.962 301.402,-152.318 309.612,-145.62 303.644,-141.962"/>
</g>
<!-- Node7 -->
<g id="node7" class="node"><title>Node7</title>
<g id="a_node7"><a xlink:href="radio_8c.html#a832a684fc60104296fc975a7608f92b4" target="_top" xlink:title="radio_settings">
<polygon fill="white" stroke="black" points="805,-105.5 805,-124.5 882,-124.5 882,-105.5 805,-105.5"/>
<text text-anchor="middle" x="843.5" y="-112.5" font-family="Helvetica,sans-Serif" font-size="10.00">radio_settings</text>
</a>
</g>
</g>
<!-- Node6&#45;&gt;Node7 -->
<g id="edge6" class="edge"><title>Node6&#45;&gt;Node7</title>
<path fill="none" stroke="midnightblue" d="M765.322,-89.8259C780.953,-94.9247 798.626,-100.689 813.112,-105.414"/>
<polygon fill="midnightblue" stroke="midnightblue" points="765.99,-86.3626 755.398,-86.589 763.82,-93.0175 765.99,-86.3626"/>
</g>
<!-- Node8 -->
<g id="node8" class="node"><title>Node8</title>
<g id="a_node8"><a xlink:href="menu_8c.html#a5d9c190838195d7872fc7067269e20fa" target="_top" xlink:title="menu_function">
<polygon fill="white" stroke="black" points="918,-285.5 918,-304.5 998,-304.5 998,-285.5 918,-285.5"/>
<text text-anchor="middle" x="958" y="-292.5" font-family="Helvetica,sans-Serif" font-size="10.00">menu_function</text>
</a>
</g>
</g>
<!-- Node7&#45;&gt;Node8 -->
<g id="edge7" class="edge"><title>Node7&#45;&gt;Node8</title>
<path fill="none" stroke="midnightblue" d="M855.851,-133.162C879.4,-170.84 932.875,-256.4 950.922,-285.275"/>
<polygon fill="midnightblue" stroke="midnightblue" points="858.817,-131.303 850.548,-124.678 852.881,-135.013 858.817,-131.303"/>
</g>
<!-- Node9 -->
<g id="node9" class="node"><title>Node9</title>
<g id="a_node9"><a xlink:href="menu_8c.html#aaf2a075d3159f7eeab42012941a3437f" target="_top" xlink:title="menu_handler">
<polygon fill="white" stroke="black" points="1034,-418.5 1034,-437.5 1111,-437.5 1111,-418.5 1034,-418.5"/>
<text text-anchor="middle" x="1072.5" y="-425.5" font-family="Helvetica,sans-Serif" font-size="10.00">menu_handler</text>
</a>
</g>
</g>
<!-- Node8&#45;&gt;Node9 -->
<g id="edge8" class="edge"><title>Node8&#45;&gt;Node9</title>
<path fill="none" stroke="midnightblue" d="M973.738,-312.423C997.675,-340.723 1044.23,-395.765 1063.18,-418.163"/>
<polygon fill="midnightblue" stroke="midnightblue" points="976.221,-309.94 967.091,-304.565 970.877,-314.46 976.221,-309.94"/>
</g>
<!-- Node9&#45;&gt;Node4 -->
<g id="edge9" class="edge"><title>Node9&#45;&gt;Node4</title>
<path fill="none" stroke="midnightblue" d="M1121.07,-437.878C1130.16,-439.765 1139.14,-441.631 1146.6,-443.179"/>
<polygon fill="midnightblue" stroke="midnightblue" points="1121.75,-434.444 1111.24,-435.838 1120.32,-441.298 1121.75,-434.444"/>
</g>
<!-- Node11 -->
<g id="node11" class="node"><title>Node11</title>
<g id="a_node11"><a xlink:href="lcd_8c.html#acd63fb85d212730fa4fcbcbeeccd231e" target="_top" xlink:title="lcd_create_view">
<polygon fill="white" stroke="black" points="252.5,-304.5 252.5,-323.5 337.5,-323.5 337.5,-304.5 252.5,-304.5"/>
<text text-anchor="middle" x="295" y="-311.5" font-family="Helvetica,sans-Serif" font-size="10.00">lcd_create_view</text>
</a>
</g>
</g>
<!-- Node10&#45;&gt;Node11 -->
<g id="edge11" class="edge"><title>Node10&#45;&gt;Node11</title>
<path fill="none" stroke="midnightblue" d="M211.788,-318.279C225.26,-317.578 239.577,-316.832 252.423,-316.164"/>
<polygon fill="midnightblue" stroke="midnightblue" points="211.492,-314.789 201.688,-318.804 211.856,-321.78 211.492,-314.789"/>
</g>
<!-- Node11&#45;&gt;Node2 -->
<g id="edge12" class="edge"><title>Node11&#45;&gt;Node2</title>
<path fill="none" stroke="midnightblue" d="M319.546,-329.769C330.188,-337.965 342.117,-348.813 350,-361 380.012,-407.395 349.225,-438.759 386,-480 394.524,-489.559 407.528,-495.458 418.806,-499.014"/>
<polygon fill="midnightblue" stroke="midnightblue" points="321.524,-326.879 311.389,-323.791 317.386,-332.525 321.524,-326.879"/>
</g>
<!-- Node11&#45;&gt;Node3 -->
<g id="edge26" class="edge"><title>Node11&#45;&gt;Node3</title>
<path fill="none" stroke="midnightblue" d="M318.463,-329.89C329.056,-338.232 341.257,-349.169 350,-361 373.413,-392.683 354.287,-418.628 386,-442 438.423,-480.635 519.993,-476.214 561.991,-470.612"/>
<polygon fill="midnightblue" stroke="midnightblue" points="320.493,-327.037 310.409,-323.789 316.267,-332.617 320.493,-327.037"/>
</g>
<!-- Node12 -->
<g id="node12" class="node"><title>Node12</title>
<g id="a_node12"><a xlink:href="menu_8c.html#a5ca9d2cf65ffedfb30889ee21a6f7f3d" target="_top" xlink:title="menu_display">
<polygon fill="white" stroke="black" points="805,-418.5 805,-437.5 882,-437.5 882,-418.5 805,-418.5"/>
<text text-anchor="middle" x="843.5" y="-425.5" font-family="Helvetica,sans-Serif" font-size="10.00">menu_display</text>
</a>
</g>
</g>
<!-- Node11&#45;&gt;Node12 -->
<g id="edge13" class="edge"><title>Node11&#45;&gt;Node12</title>
<path fill="none" stroke="midnightblue" d="M316.536,-330.127C327.028,-338.79 339.716,-349.94 350,-361 368.158,-380.529 362.402,-396.581 386,-409 458.213,-447.004 709.226,-436.193 804.986,-430.484"/>
<polygon fill="midnightblue" stroke="midnightblue" points="318.653,-327.338 308.679,-323.763 314.246,-332.777 318.653,-327.338"/>
</g>
<!-- Node13 -->
<g id="node13" class="node"><title>Node13</title>
<g id="a_node13"><a xlink:href="menu_8c.html#a5621c1bf312de029f43808bf02dc52e3" target="_top" xlink:title="menu_scroll_settings">
<polygon fill="white" stroke="black" points="535.5,-114.5 535.5,-133.5 644.5,-133.5 644.5,-114.5 535.5,-114.5"/>
<text text-anchor="middle" x="590" y="-121.5" font-family="Helvetica,sans-Serif" font-size="10.00">menu_scroll_settings</text>
</a>
</g>
</g>
<!-- Node11&#45;&gt;Node13 -->
<g id="edge15" class="edge"><title>Node11&#45;&gt;Node13</title>
<path fill="none" stroke="midnightblue" d="M301.4,-294.432C311.763,-260.824 337.803,-192.523 386,-159 429.746,-128.573 491.337,-121.708 535.181,-121.285"/>
<polygon fill="midnightblue" stroke="midnightblue" points="297.933,-293.818 298.477,-304.399 304.65,-295.788 297.933,-293.818"/>
</g>
<!-- Node16 -->
<g id="node16" class="node"><title>Node16</title>
<g id="a_node16"><a xlink:href="menu_8c.html#a503ed2007daa6f20b2f748eedbcb8494" target="_top" xlink:title="menu_scroll">
<polygon fill="white" stroke="black" points="408,-190.5 408,-209.5 477,-209.5 477,-190.5 408,-190.5"/>
<text text-anchor="middle" x="442.5" y="-197.5" font-family="Helvetica,sans-Serif" font-size="10.00">menu_scroll</text>
</a>
</g>
</g>
<!-- Node11&#45;&gt;Node16 -->
<g id="edge21" class="edge"><title>Node11&#45;&gt;Node16</title>
<path fill="none" stroke="midnightblue" d="M308.471,-296.342C324.267,-275.179 353.388,-239.955 386,-219 392.597,-214.761 400.247,-211.353 407.719,-208.66"/>
<polygon fill="midnightblue" stroke="midnightblue" points="305.61,-294.326 302.546,-304.468 311.266,-298.45 305.61,-294.326"/>
</g>
<!-- Node17 -->
<g id="node17" class="node"><title>Node17</title>
<g id="a_node17"><a xlink:href="radio__display_8c.html#aa568d26c43f1503a5f31c86aab080591" target="_top" xlink:title="radio_display_handler">
<polygon fill="white" stroke="black" points="535,-285.5 535,-304.5 645,-304.5 645,-285.5 535,-285.5"/>
<text text-anchor="middle" x="590" y="-292.5" font-family="Helvetica,sans-Serif" font-size="10.00">radio_display_handler</text>
</a>
</g>
</g>
<!-- Node11&#45;&gt;Node17 -->
<g id="edge37" class="edge"><title>Node11&#45;&gt;Node17</title>
<path fill="none" stroke="midnightblue" d="M342.361,-302.289C356.295,-299.292 371.685,-296.495 386,-295 436.3,-289.748 493.995,-290.384 534.988,-291.957"/>
<polygon fill="midnightblue" stroke="midnightblue" points="341.504,-298.894 332.508,-304.491 343.031,-305.725 341.504,-298.894"/>
</g>
<!-- Node19 -->
<g id="node19" class="node"><title>Node19</title>
<g id="a_node19"><a xlink:href="radio_8c.html#ac96da2886aec92b299b27b500761564c" target="_top" xlink:title="radio_auto_search">
<polygon fill="white" stroke="black" points="542,-171.5 542,-190.5 638,-190.5 638,-171.5 542,-171.5"/>
<text text-anchor="middle" x="590" y="-178.5" font-family="Helvetica,sans-Serif" font-size="10.00">radio_auto_search</text>
</a>
</g>
</g>
<!-- Node11&#45;&gt;Node19 -->
<g id="edge27" class="edge"><title>Node11&#45;&gt;Node19</title>
<path fill="none" stroke="midnightblue" d="M302.384,-294.647C313.68,-263.976 340.4,-205.202 386,-181 438.921,-152.912 511.075,-162.128 553.581,-171.491"/>
<polygon fill="midnightblue" stroke="midnightblue" points="299.033,-293.626 299.027,-304.221 305.639,-295.943 299.033,-293.626"/>
</g>
<!-- Node20 -->
<g id="node20" class="node"><title>Node20</title>
<g id="a_node20"><a xlink:href="radio__display_8c.html#ac056d01b161ce2b8c286190f619c94f8" target="_top" xlink:title="radio_display_speaker">
<polygon fill="white" stroke="black" points="386,-228.5 386,-247.5 499,-247.5 499,-228.5 386,-228.5"/>
<text text-anchor="middle" x="442.5" y="-235.5" font-family="Helvetica,sans-Serif" font-size="10.00">radio_display_speaker</text>
</a>
</g>
</g>
<!-- Node11&#45;&gt;Node20 -->
<g id="edge29" class="edge"><title>Node11&#45;&gt;Node20</title>
<path fill="none" stroke="midnightblue" d="M319.948,-299.147C337.846,-288.298 363.074,-273.531 386,-262 396.222,-256.858 407.801,-251.744 417.728,-247.566"/>
<polygon fill="midnightblue" stroke="midnightblue" points="318.017,-296.225 311.308,-304.425 321.666,-302.199 318.017,-296.225"/>
</g>
<!-- Node21 -->
<g id="node21" class="node"><title>Node21</title>
<g id="a_node21"><a xlink:href="radio__display_8c.html#af1021ae1d01d874fb72c3ce3d1b29ad9" target="_top" xlink:title="radio_display_rds">
<polygon fill="white" stroke="black" points="396.5,-380.5 396.5,-399.5 488.5,-399.5 488.5,-380.5 396.5,-380.5"/>
<text text-anchor="middle" x="442.5" y="-387.5" font-family="Helvetica,sans-Serif" font-size="10.00">radio_display_rds</text>
</a>
</g>
</g>
<!-- Node11&#45;&gt;Node21 -->
<g id="edge31" class="edge"><title>Node11&#45;&gt;Node21</title>
<path fill="none" stroke="midnightblue" d="M317.299,-329.511C335.034,-341.921 361.29,-359.149 386,-371 393.346,-374.523 401.521,-377.7 409.289,-380.403"/>
<polygon fill="midnightblue" stroke="midnightblue" points="319.035,-326.451 308.855,-323.515 314.982,-332.158 319.035,-326.451"/>
</g>
<!-- Node22 -->
<g id="node22" class="node"><title>Node22</title>
<g id="a_node22"><a xlink:href="radio__display_8c.html#ab985392609874befae589a4e4ad57c86" target="_top" xlink:title="radio_display_pipty">
<polygon fill="white" stroke="black" points="392.5,-342.5 392.5,-361.5 492.5,-361.5 492.5,-342.5 392.5,-342.5"/>
<text text-anchor="middle" x="442.5" y="-349.5" font-family="Helvetica,sans-Serif" font-size="10.00">radio_display_pipty</text>
</a>
</g>
</g>
<!-- Node11&#45;&gt;Node22 -->
<g id="edge33" class="edge"><title>Node11&#45;&gt;Node22</title>
<path fill="none" stroke="midnightblue" d="M342.653,-326.184C362.853,-331.46 386.148,-337.544 405.048,-342.48"/>
<polygon fill="midnightblue" stroke="midnightblue" points="343.276,-322.73 332.716,-323.589 341.507,-329.502 343.276,-322.73"/>
</g>
<!-- Node23 -->
<g id="node23" class="node"><title>Node23</title>
<g id="a_node23"><a xlink:href="radio__display_8c.html#aa113a6affc99d406e8c73fc800648cb3" target="_top" xlink:title="radio_display_rsq">
<polygon fill="white" stroke="black" points="396.5,-304.5 396.5,-323.5 488.5,-323.5 488.5,-304.5 396.5,-304.5"/>
<text text-anchor="middle" x="442.5" y="-311.5" font-family="Helvetica,sans-Serif" font-size="10.00">radio_display_rsq</text>
</a>
</g>
</g>
<!-- Node11&#45;&gt;Node23 -->
<g id="edge35" class="edge"><title>Node11&#45;&gt;Node23</title>
<path fill="none" stroke="midnightblue" d="M347.888,-314C363.772,-314 381.105,-314 396.491,-314"/>
<polygon fill="midnightblue" stroke="midnightblue" points="347.694,-310.5 337.694,-314 347.694,-317.5 347.694,-310.5"/>
</g>
<!-- Node24 -->
<g id="node24" class="node"><title>Node24</title>
<g id="a_node24"><a xlink:href="station__list_8h.html#a9797d901a4c549c775a7067eebf0a5c2" target="_top" xlink:title="station_list_display">
<polygon fill="white" stroke="black" points="392.5,-76.5 392.5,-95.5 492.5,-95.5 492.5,-76.5 392.5,-76.5"/>
<text text-anchor="middle" x="442.5" y="-83.5" font-family="Helvetica,sans-Serif" font-size="10.00">station_list_display</text>
</a>
</g>
</g>
<!-- Node11&#45;&gt;Node24 -->
<g id="edge38" class="edge"><title>Node11&#45;&gt;Node24</title>
<path fill="none" stroke="midnightblue" d="M303.488,-294.925C322.456,-246.935 371.889,-124.008 386,-110 392.258,-103.788 400.385,-99.0681 408.48,-95.5307"/>
<polygon fill="midnightblue" stroke="midnightblue" points="300.145,-293.861 299.736,-304.448 306.658,-296.427 300.145,-293.861"/>
</g>
<!-- Node12&#45;&gt;Node9 -->
<g id="edge14" class="edge"><title>Node12&#45;&gt;Node9</title>
<path fill="none" stroke="midnightblue" d="M892.253,-428C934.346,-428 994.853,-428 1033.67,-428"/>
<polygon fill="midnightblue" stroke="midnightblue" points="892.239,-424.5 882.239,-428 892.239,-431.5 892.239,-424.5"/>
</g>
<!-- Node13&#45;&gt;Node6 -->
<g id="edge18" class="edge"><title>Node13&#45;&gt;Node6</title>
<path fill="none" stroke="midnightblue" d="M627.524,-111.093C649.375,-103.371 676.688,-93.7194 696.669,-86.6583"/>
<polygon fill="midnightblue" stroke="midnightblue" points="626.177,-107.857 617.915,-114.489 628.509,-114.457 626.177,-107.857"/>
</g>
<!-- Node14 -->
<g id="node14" class="node"><title>Node14</title>
<g id="a_node14"><a xlink:href="radio_8c.html#a9dd33606330e2225b425000341cf4688" target="_top" xlink:title="radio_brightness">
<polygon fill="white" stroke="black" points="681,-143.5 681,-162.5 769,-162.5 769,-143.5 681,-143.5"/>
<text text-anchor="middle" x="725" y="-150.5" font-family="Helvetica,sans-Serif" font-size="10.00">radio_brightness</text>
</a>
</g>
</g>
<!-- Node13&#45;&gt;Node14 -->
<g id="edge16" class="edge"><title>Node13&#45;&gt;Node14</title>
<path fill="none" stroke="midnightblue" d="M644.755,-135.721C656.666,-138.318 669.144,-141.039 680.582,-143.533"/>
<polygon fill="midnightblue" stroke="midnightblue" points="645.434,-132.287 634.918,-133.576 643.943,-139.126 645.434,-132.287"/>
</g>
<!-- Node15 -->
<g id="node15" class="node"><title>Node15</title>
<g id="a_node15"><a xlink:href="radio_8c.html#afce06a210fd84b9acb905e8ab81feaeb" target="_top" xlink:title="radio_volume">
<polygon fill="white" stroke="black" points="688.5,-105.5 688.5,-124.5 761.5,-124.5 761.5,-105.5 688.5,-105.5"/>
<text text-anchor="middle" x="725" y="-112.5" font-family="Helvetica,sans-Serif" font-size="10.00">radio_volume</text>
</a>
</g>
</g>
<!-- Node13&#45;&gt;Node15 -->
<g id="edge19" class="edge"><title>Node13&#45;&gt;Node15</title>
<path fill="none" stroke="midnightblue" d="M654.808,-119.682C666.366,-118.9 678.034,-118.11 688.41,-117.408"/>
<polygon fill="midnightblue" stroke="midnightblue" points="654.454,-116.198 644.713,-120.365 654.926,-123.182 654.454,-116.198"/>
</g>
<!-- Node14&#45;&gt;Node7 -->
<g id="edge17" class="edge"><title>Node14&#45;&gt;Node7</title>
<path fill="none" stroke="midnightblue" d="M765.322,-140.174C780.953,-135.075 798.626,-129.311 813.112,-124.586"/>
<polygon fill="midnightblue" stroke="midnightblue" points="763.82,-136.982 755.398,-143.411 765.99,-143.637 763.82,-136.982"/>
</g>
<!-- Node15&#45;&gt;Node7 -->
<g id="edge20" class="edge"><title>Node15&#45;&gt;Node7</title>
<path fill="none" stroke="midnightblue" d="M771.798,-115C782.699,-115 794.21,-115 804.706,-115"/>
<polygon fill="midnightblue" stroke="midnightblue" points="771.587,-111.5 761.587,-115 771.587,-118.5 771.587,-111.5"/>
</g>
<!-- Node16&#45;&gt;Node13 -->
<g id="edge22" class="edge"><title>Node16&#45;&gt;Node13</title>
<path fill="none" stroke="midnightblue" d="M470.794,-185.744C500.01,-170.483 545.548,-146.697 570.722,-133.547"/>
<polygon fill="midnightblue" stroke="midnightblue" points="469.171,-182.642 461.928,-190.375 472.412,-188.847 469.171,-182.642"/>
</g>
<!-- Node16&#45;&gt;Node17 -->
<g id="edge23" class="edge"><title>Node16&#45;&gt;Node17</title>
<path fill="none" stroke="midnightblue" d="M486.642,-212.972C490.915,-214.785 495.107,-216.794 499,-219 532.094,-237.753 564.609,-269.376 579.916,-285.267"/>
<polygon fill="midnightblue" stroke="midnightblue" points="487.831,-209.678 477.242,-209.311 485.29,-216.201 487.831,-209.678"/>
</g>
<!-- Node18 -->
<g id="node18" class="node"><title>Node18</title>
<g id="a_node18"><a xlink:href="radio_8c.html#a5f7fcd9e9755fb5e22175a4ad74a5456" target="_top" xlink:title="radio_main">
<polygon fill="white" stroke="black" points="811.5,-285.5 811.5,-304.5 875.5,-304.5 875.5,-285.5 811.5,-285.5"/>
<text text-anchor="middle" x="843.5" y="-292.5" font-family="Helvetica,sans-Serif" font-size="10.00">radio_main</text>
</a>
</g>
</g>
<!-- Node17&#45;&gt;Node18 -->
<g id="edge24" class="edge"><title>Node17&#45;&gt;Node18</title>
<path fill="none" stroke="midnightblue" d="M655.337,-295C705.337,-295 772.507,-295 811.292,-295"/>
<polygon fill="midnightblue" stroke="midnightblue" points="655.262,-291.5 645.262,-295 655.262,-298.5 655.262,-291.5"/>
</g>
<!-- Node18&#45;&gt;Node8 -->
<g id="edge25" class="edge"><title>Node18&#45;&gt;Node8</title>
<path fill="none" stroke="midnightblue" d="M885.661,-295C896.091,-295 907.269,-295 917.609,-295"/>
<polygon fill="midnightblue" stroke="midnightblue" points="885.539,-291.5 875.539,-295 885.539,-298.5 885.539,-291.5"/>
</g>
<!-- Node19&#45;&gt;Node7 -->
<g id="edge28" class="edge"><title>Node19&#45;&gt;Node7</title>
<path fill="none" stroke="midnightblue" d="M648.528,-186.691C684.277,-188.161 730.58,-186.246 769,-172 795.95,-162.007 820.957,-138.353 833.694,-124.867"/>
<polygon fill="midnightblue" stroke="midnightblue" points="648.433,-183.182 638.267,-186.166 648.075,-190.173 648.433,-183.182"/>
</g>
<!-- Node20&#45;&gt;Node17 -->
<g id="edge30" class="edge"><title>Node20&#45;&gt;Node17</title>
<path fill="none" stroke="midnightblue" d="M477.202,-251.203C503.918,-261.669 540.618,-276.046 564.567,-285.428"/>
<polygon fill="midnightblue" stroke="midnightblue" points="478.441,-247.929 467.853,-247.541 475.888,-254.447 478.441,-247.929"/>
</g>
<!-- Node21&#45;&gt;Node17 -->
<g id="edge32" class="edge"><title>Node21&#45;&gt;Node17</title>
<path fill="none" stroke="midnightblue" d="M487.316,-376.74C491.356,-375.003 495.312,-373.09 499,-371 532.094,-352.247 564.609,-320.624 579.916,-304.733"/>
<polygon fill="midnightblue" stroke="midnightblue" points="485.848,-373.557 477.827,-380.479 488.414,-380.07 485.848,-373.557"/>
</g>
<!-- Node22&#45;&gt;Node17 -->
<g id="edge34" class="edge"><title>Node22&#45;&gt;Node17</title>
<path fill="none" stroke="midnightblue" d="M482.55,-339.015C488.095,-337.06 493.707,-335.02 499,-333 522.61,-323.987 549.225,-312.593 567.348,-304.643"/>
<polygon fill="midnightblue" stroke="midnightblue" points="481.031,-335.837 472.729,-342.42 483.324,-342.451 481.031,-335.837"/>
</g>
<!-- Node23&#45;&gt;Node17 -->
<g id="edge36" class="edge"><title>Node23&#45;&gt;Node17</title>
<path fill="none" stroke="midnightblue" d="M498.895,-306.766C510.679,-305.227 523.108,-303.604 534.845,-302.072"/>
<polygon fill="midnightblue" stroke="midnightblue" points="498.202,-303.327 488.74,-308.092 499.109,-310.268 498.202,-303.327"/>
</g>
<!-- Node25 -->
<g id="node25" class="node"><title>Node25</title>
<g id="a_node25"><a xlink:href="station__list_8h.html#a5b16204c2b6824ce89364d614f074b20" target="_top" xlink:title="station_list_handler">
<polygon fill="white" stroke="black" points="539.5,-0.5 539.5,-19.5 640.5,-19.5 640.5,-0.5 539.5,-0.5"/>
<text text-anchor="middle" x="590" y="-7.5" font-family="Helvetica,sans-Serif" font-size="10.00">station_list_handler</text>
</a>
</g>
</g>
<!-- Node24&#45;&gt;Node25 -->
<g id="edge39" class="edge"><title>Node24&#45;&gt;Node25</title>
<path fill="none" stroke="midnightblue" d="M470.794,-71.7435C500.01,-56.4826 545.548,-32.6966 570.722,-19.5473"/>
<polygon fill="midnightblue" stroke="midnightblue" points="469.171,-68.6424 461.928,-76.3745 472.412,-74.847 469.171,-68.6424"/>
</g>
<!-- Node25&#45;&gt;Node7 -->
<g id="edge40" class="edge"><title>Node25&#45;&gt;Node7</title>
<path fill="none" stroke="midnightblue" d="M651.153,-1.32725C687.302,1.05319 733.098,-1.11606 769,-20 805.358,-39.1235 829.284,-85.0717 838.381,-105.235"/>
<polygon fill="midnightblue" stroke="midnightblue" points="650.44,2.12726 640.749,-2.15348 650.994,-4.85077 650.44,2.12726"/>
</g>
<!-- Node26 -->
<g id="node26" class="node"><title>Node26</title>
<g id="a_node26"><a xlink:href="radio_8c.html#aae41d271062b3f94cccf4fb5996b04a2" target="_top" xlink:title="radio_frequency">
<polygon fill="white" stroke="black" points="682.5,-29.5 682.5,-48.5 767.5,-48.5 767.5,-29.5 682.5,-29.5"/>
<text text-anchor="middle" x="725" y="-36.5" font-family="Helvetica,sans-Serif" font-size="10.00">radio_frequency</text>
</a>
</g>
</g>
<!-- Node25&#45;&gt;Node26 -->
<g id="edge41" class="edge"><title>Node25&#45;&gt;Node26</title>
<path fill="none" stroke="midnightblue" d="M644.795,-21.7298C657.323,-24.4614 670.475,-27.3292 682.384,-29.9258"/>
<polygon fill="midnightblue" stroke="midnightblue" points="645.434,-18.2869 634.918,-19.5761 643.943,-25.1262 645.434,-18.2869"/>
</g>
<!-- Node26&#45;&gt;Node7 -->
<g id="edge42" class="edge"><title>Node26&#45;&gt;Node7</title>
<path fill="none" stroke="midnightblue" d="M759.672,-52.9201C762.879,-54.53 766.036,-56.2322 769,-58 792.853,-72.2285 817.833,-93.0682 831.657,-105.212"/>
<polygon fill="midnightblue" stroke="midnightblue" points="761.162,-49.7532 750.625,-48.649 758.174,-56.0833 761.162,-49.7532"/>
</g>
<!-- Node28 -->
<g id="node28" class="node"><title>Node28</title>
<g id="a_node28"><a xlink:href="lcd_8c.html#a6b9abf6cd27026b67144523ffbef4916" target="_top" xlink:title="lcd_generatebargraph">
<polygon fill="white" stroke="black" points="240,-370.5 240,-389.5 350,-389.5 350,-370.5 240,-370.5"/>
<text text-anchor="middle" x="295" y="-377.5" font-family="Helvetica,sans-Serif" font-size="10.00">lcd_generatebargraph</text>
</a>
</g>
</g>
<!-- Node27&#45;&gt;Node28 -->
<g id="edge44" class="edge"><title>Node27&#45;&gt;Node28</title>
<path fill="none" stroke="midnightblue" d="M214.298,-375.852C222.643,-376.286 231.254,-376.734 239.591,-377.168"/>
<polygon fill="midnightblue" stroke="midnightblue" points="214.455,-372.355 204.287,-375.331 214.091,-379.346 214.455,-372.355"/>
</g>
<!-- Node28&#45;&gt;Node2 -->
<g id="edge45" class="edge"><title>Node28&#45;&gt;Node2</title>
<path fill="none" stroke="midnightblue" d="M308.311,-397.853C324.133,-419.69 353.47,-456.626 386,-480 395.889,-487.106 408.212,-492.7 418.732,-496.693"/>
<polygon fill="midnightblue" stroke="midnightblue" points="311.028,-395.634 302.387,-389.502 305.319,-399.684 311.028,-395.634"/>
</g>
</g>
</svg>
