<?xml version="1.0" encoding="UTF-8" standalone="no"?>
<!DOCTYPE svg PUBLIC "-//W3C//DTD SVG 1.1//EN"
 "http://www.w3.org/Graphics/SVG/1.1/DTD/svg11.dtd">
<!-- Generated by graphviz version 2.38.0 (20140413.2041)
 -->
<!-- Title: lcd_command Pages: 1 -->
<svg width="952pt" height="201pt"
 viewBox="0.00 0.00 952.00 201.23" xmlns="http://www.w3.org/2000/svg" xmlns:xlink="http://www.w3.org/1999/xlink">
<g id="graph0" class="graph" transform="scale(1 1) rotate(0) translate(4 197.23)">
<title>lcd_command</title>
<polygon fill="white" stroke="none" points="-4,4 -4,-197.23 948,-197.23 948,4 -4,4"/>
<!-- Node1 -->
<g id="node1" class="node"><title>Node1</title>
<polygon fill="#bfbfbf" stroke="black" points="0,-133.5 0,-152.5 77,-152.5 77,-133.5 0,-133.5"/>
<text text-anchor="middle" x="38.5" y="-140.5" font-family="Helvetica,sans-Serif" font-size="10.00">lcd_command</text>
</g>
<!-- Node2 -->
<g id="node2" class="node"><title>Node2</title>
<g id="a_node2"><a xlink:href="lcd_8c.html#a312eed1baec275e185dc00b760de1356" target="_top" xlink:title="lcd_init">
<polygon fill="white" stroke="black" points="417.5,-152.5 417.5,-171.5 464.5,-171.5 464.5,-152.5 417.5,-152.5"/>
<text text-anchor="middle" x="441" y="-159.5" font-family="Helvetica,sans-Serif" font-size="10.00">lcd_init</text>
</a>
</g>
</g>
<!-- Node1&#45;&gt;Node2 -->
<g id="edge1" class="edge"><title>Node1&#45;&gt;Node2</title>
<path fill="none" stroke="midnightblue" d="M61.5371,-157.942C75.5896,-166.545 94.5656,-176.517 113,-181 224.617,-208.147 363.685,-180.623 417.388,-167.803"/>
<polygon fill="midnightblue" stroke="midnightblue" points="63.3854,-154.97 53.0689,-152.557 59.6293,-160.876 63.3854,-154.97"/>
</g>
<!-- Node4 -->
<g id="node4" class="node"><title>Node4</title>
<g id="a_node4"><a xlink:href="lcd_8c.html#ab99e48ab8689dcb1205c4c7c97bd9956" target="_top" xlink:title="lcd_contrast">
<polygon fill="white" stroke="black" points="123.5,-152.5 123.5,-171.5 193.5,-171.5 193.5,-152.5 123.5,-152.5"/>
<text text-anchor="middle" x="158.5" y="-159.5" font-family="Helvetica,sans-Serif" font-size="10.00">lcd_contrast</text>
</a>
</g>
</g>
<!-- Node1&#45;&gt;Node4 -->
<g id="edge3" class="edge"><title>Node1&#45;&gt;Node4</title>
<path fill="none" stroke="midnightblue" d="M87.1496,-150.672C99.2844,-152.626 112.085,-154.687 123.392,-156.508"/>
<polygon fill="midnightblue" stroke="midnightblue" points="87.5896,-147.198 77.1604,-149.064 86.4768,-154.109 87.5896,-147.198"/>
</g>
<!-- Node6 -->
<g id="node6" class="node"><title>Node6</title>
<g id="a_node6"><a xlink:href="lcd_8c.html#a2a4df97ebc5b396233aa31765228ef42" target="_top" xlink:title="lcd_set_courser">
<polygon fill="white" stroke="black" points="115.5,-76.5 115.5,-95.5 201.5,-95.5 201.5,-76.5 115.5,-76.5"/>
<text text-anchor="middle" x="158.5" y="-83.5" font-family="Helvetica,sans-Serif" font-size="10.00">lcd_set_courser</text>
</a>
</g>
</g>
<!-- Node1&#45;&gt;Node6 -->
<g id="edge5" class="edge"><title>Node1&#45;&gt;Node6</title>
<path fill="none" stroke="midnightblue" d="M66.1225,-128.635C79.9786,-121.313 97.2684,-112.413 113,-105 119.839,-101.777 127.37,-98.4723 134.26,-95.5411"/>
<polygon fill="midnightblue" stroke="midnightblue" points="64.3235,-125.628 57.1397,-133.415 67.6119,-131.808 64.3235,-125.628"/>
</g>
<!-- Node15 -->
<g id="node15" class="node"><title>Node15</title>
<g id="a_node15"><a xlink:href="lcd_8c.html#ac5d817278ad99ea7420d6240c7e6cba6" target="_top" xlink:title="lcd_generatechar">
<polygon fill="white" stroke="black" points="113,-114.5 113,-133.5 204,-133.5 204,-114.5 113,-114.5"/>
<text text-anchor="middle" x="158.5" y="-121.5" font-family="Helvetica,sans-Serif" font-size="10.00">lcd_generatechar</text>
</a>
</g>
</g>
<!-- Node1&#45;&gt;Node15 -->
<g id="edge19" class="edge"><title>Node1&#45;&gt;Node15</title>
<path fill="none" stroke="midnightblue" d="M87.2423,-135.313C95.6772,-133.955 104.431,-132.545 112.779,-131.201"/>
<polygon fill="midnightblue" stroke="midnightblue" points="86.4768,-131.891 77.1604,-136.936 87.5896,-138.802 86.4768,-131.891"/>
</g>
<!-- Node3 -->
<g id="node3" class="node"><title>Node3</title>
<g id="a_node3"><a xlink:href="main_8c.html#a840291bc02cba5474a4cb46a9b9566fe" target="_top" xlink:title="main">
<polygon fill="white" stroke="black" points="906,-114.5 906,-133.5 944,-133.5 944,-114.5 906,-114.5"/>
<text text-anchor="middle" x="925" y="-121.5" font-family="Helvetica,sans-Serif" font-size="10.00">main</text>
</a>
</g>
</g>
<!-- Node2&#45;&gt;Node3 -->
<g id="edge2" class="edge"><title>Node2&#45;&gt;Node3</title>
<path fill="none" stroke="midnightblue" d="M475.184,-162.361C547.427,-162.661 724.172,-160.763 870,-138 882.057,-136.118 895.327,-132.697 905.695,-129.708"/>
<polygon fill="midnightblue" stroke="midnightblue" points="474.923,-158.859 464.902,-162.3 474.881,-165.859 474.923,-158.859"/>
</g>
<!-- Node5 -->
<g id="node5" class="node"><title>Node5</title>
<g id="a_node5"><a xlink:href="radio_8c.html#af40ef5734842d7237918116e2decd3c0" target="_top" xlink:title="radio_contrast">
<polygon fill="white" stroke="black" points="256,-152.5 256,-171.5 334,-171.5 334,-152.5 256,-152.5"/>
<text text-anchor="middle" x="295" y="-159.5" font-family="Helvetica,sans-Serif" font-size="10.00">radio_contrast</text>
</a>
</g>
</g>
<!-- Node4&#45;&gt;Node5 -->
<g id="edge4" class="edge"><title>Node4&#45;&gt;Node5</title>
<path fill="none" stroke="midnightblue" d="M203.948,-162C220.787,-162 239.789,-162 255.983,-162"/>
<polygon fill="midnightblue" stroke="midnightblue" points="203.788,-158.5 193.788,-162 203.788,-165.5 203.788,-158.5"/>
</g>
<!-- Node7 -->
<g id="node7" class="node"><title>Node7</title>
<g id="a_node7"><a xlink:href="lcd_8c.html#acd63fb85d212730fa4fcbcbeeccd231e" target="_top" xlink:title="lcd_create_view">
<polygon fill="white" stroke="black" points="252.5,-76.5 252.5,-95.5 337.5,-95.5 337.5,-76.5 252.5,-76.5"/>
<text text-anchor="middle" x="295" y="-83.5" font-family="Helvetica,sans-Serif" font-size="10.00">lcd_create_view</text>
</a>
</g>
</g>
<!-- Node6&#45;&gt;Node7 -->
<g id="edge6" class="edge"><title>Node6&#45;&gt;Node7</title>
<path fill="none" stroke="midnightblue" d="M211.788,-86C225.26,-86 239.577,-86 252.423,-86"/>
<polygon fill="midnightblue" stroke="midnightblue" points="211.688,-82.5001 201.688,-86 211.688,-89.5001 211.688,-82.5001"/>
</g>
<!-- Node7&#45;&gt;Node2 -->
<g id="edge7" class="edge"><title>Node7&#45;&gt;Node2</title>
<path fill="none" stroke="midnightblue" d="M339.197,-99.3971C342.943,-101.094 346.597,-102.96 350,-105 368.615,-116.162 367.846,-126.104 386,-138 395.697,-144.354 407.354,-149.775 417.352,-153.848"/>
<polygon fill="midnightblue" stroke="midnightblue" points="340.372,-96.0959 329.793,-95.5267 337.708,-102.569 340.372,-96.0959"/>
</g>
<!-- Node7&#45;&gt;Node3 -->
<g id="edge8" class="edge"><title>Node7&#45;&gt;Node3</title>
<path fill="none" stroke="midnightblue" d="M347.937,-96.9732C405.67,-108.197 501.814,-124 585.5,-124 585.5,-124 585.5,-124 718,-124 787.382,-124 869.909,-124 905.813,-124"/>
<polygon fill="midnightblue" stroke="midnightblue" points="348.453,-93.5076 337.964,-95.0055 347.098,-100.375 348.453,-93.5076"/>
</g>
<!-- Node8 -->
<g id="node8" class="node"><title>Node8</title>
<g id="a_node8"><a xlink:href="menu_2src_2menu_8c.html#a5ca9d2cf65ffedfb30889ee21a6f7f3d" target="_top" xlink:title="menu_display">
<polygon fill="white" stroke="black" points="678.5,-76.5 678.5,-95.5 755.5,-95.5 755.5,-76.5 678.5,-76.5"/>
<text text-anchor="middle" x="717" y="-83.5" font-family="Helvetica,sans-Serif" font-size="10.00">menu_display</text>
</a>
</g>
</g>
<!-- Node7&#45;&gt;Node8 -->
<g id="edge9" class="edge"><title>Node7&#45;&gt;Node8</title>
<path fill="none" stroke="midnightblue" d="M347.837,-86C433.587,-86 602.966,-86 678.321,-86"/>
<polygon fill="midnightblue" stroke="midnightblue" points="347.807,-82.5001 337.807,-86 347.807,-89.5001 347.807,-82.5001"/>
</g>
<!-- Node10 -->
<g id="node10" class="node"><title>Node10</title>
<g id="a_node10"><a xlink:href="menu_2src_2menu_8c.html#a503ed2007daa6f20b2f748eedbcb8494" target="_top" xlink:title="menu_scroll">
<polygon fill="white" stroke="black" points="406.5,-38.5 406.5,-57.5 475.5,-57.5 475.5,-38.5 406.5,-38.5"/>
<text text-anchor="middle" x="441" y="-45.5" font-family="Helvetica,sans-Serif" font-size="10.00">menu_scroll</text>
</a>
</g>
</g>
<!-- Node7&#45;&gt;Node10 -->
<g id="edge12" class="edge"><title>Node7&#45;&gt;Node10</title>
<path fill="none" stroke="midnightblue" d="M342.236,-73.7989C363.013,-68.316 387.088,-61.963 406.147,-56.9333"/>
<polygon fill="midnightblue" stroke="midnightblue" points="341.113,-70.4752 332.337,-76.411 342.899,-77.2435 341.113,-70.4752"/>
</g>
<!-- Node13 -->
<g id="node13" class="node"><title>Node13</title>
<g id="a_node13"><a xlink:href="radio_8c.html#a51f5be293265eb7d6106c9181b357f96" target="_top" xlink:title="radio_display_handler">
<polygon fill="white" stroke="black" points="386,-0.5 386,-19.5 496,-19.5 496,-0.5 386,-0.5"/>
<text text-anchor="middle" x="441" y="-7.5" font-family="Helvetica,sans-Serif" font-size="10.00">radio_display_handler</text>
</a>
</g>
</g>
<!-- Node7&#45;&gt;Node13 -->
<g id="edge16" class="edge"><title>Node7&#45;&gt;Node13</title>
<path fill="none" stroke="midnightblue" d="M317.633,-70.3307C335.378,-57.9692 361.483,-40.887 386,-29 393.244,-25.488 401.309,-22.2963 408.952,-19.5738"/>
<polygon fill="midnightblue" stroke="midnightblue" points="315.315,-67.6829 309.168,-76.3121 319.355,-73.3998 315.315,-67.6829"/>
</g>
<!-- Node9 -->
<g id="node9" class="node"><title>Node9</title>
<g id="a_node9"><a xlink:href="menu_2src_2menu_8c.html#a8509849c574fb30136ac9ec88081d47c" target="_top" xlink:title="menu_handler">
<polygon fill="white" stroke="black" points="793,-76.5 793,-95.5 870,-95.5 870,-76.5 793,-76.5"/>
<text text-anchor="middle" x="831.5" y="-83.5" font-family="Helvetica,sans-Serif" font-size="10.00">menu_handler</text>
</a>
</g>
</g>
<!-- Node8&#45;&gt;Node9 -->
<g id="edge10" class="edge"><title>Node8&#45;&gt;Node9</title>
<path fill="none" stroke="midnightblue" d="M766.03,-86C774.923,-86 784.096,-86 792.634,-86"/>
<polygon fill="midnightblue" stroke="midnightblue" points="765.774,-82.5001 755.774,-86 765.774,-89.5001 765.774,-82.5001"/>
</g>
<!-- Node9&#45;&gt;Node3 -->
<g id="edge11" class="edge"><title>Node9&#45;&gt;Node3</title>
<path fill="none" stroke="midnightblue" d="M865.167,-99.5665C878.841,-105.245 894.217,-111.631 905.82,-116.45"/>
<polygon fill="midnightblue" stroke="midnightblue" points="866.167,-96.1921 855.589,-95.589 863.482,-102.657 866.167,-96.1921"/>
</g>
<!-- Node11 -->
<g id="node11" class="node"><title>Node11</title>
<g id="a_node11"><a xlink:href="menu_2src_2menu_8c.html#a024aeffbbf4583410c047ad3a6c80946" target="_top" xlink:title="menu_scroll_settings">
<polygon fill="white" stroke="black" points="532,-38.5 532,-57.5 641,-57.5 641,-38.5 532,-38.5"/>
<text text-anchor="middle" x="586.5" y="-45.5" font-family="Helvetica,sans-Serif" font-size="10.00">menu_scroll_settings</text>
</a>
</g>
</g>
<!-- Node10&#45;&gt;Node11 -->
<g id="edge13" class="edge"><title>Node10&#45;&gt;Node11</title>
<path fill="none" stroke="midnightblue" d="M485.853,-48C500.368,-48 516.688,-48 531.854,-48"/>
<polygon fill="midnightblue" stroke="midnightblue" points="485.644,-44.5001 475.644,-48 485.644,-51.5001 485.644,-44.5001"/>
</g>
<!-- Node12 -->
<g id="node12" class="node"><title>Node12</title>
<g id="a_node12"><a xlink:href="menu_2src_2menu_8c.html#a6e158a5dda1d308b5a56ee88538eb0fc" target="_top" xlink:title="menu_function">
<polygon fill="white" stroke="black" points="677,-38.5 677,-57.5 757,-57.5 757,-38.5 677,-38.5"/>
<text text-anchor="middle" x="717" y="-45.5" font-family="Helvetica,sans-Serif" font-size="10.00">menu_function</text>
</a>
</g>
</g>
<!-- Node11&#45;&gt;Node12 -->
<g id="edge14" class="edge"><title>Node11&#45;&gt;Node12</title>
<path fill="none" stroke="midnightblue" d="M651.428,-48C660.133,-48 668.846,-48 676.928,-48"/>
<polygon fill="midnightblue" stroke="midnightblue" points="651.251,-44.5001 641.251,-48 651.251,-51.5001 651.251,-44.5001"/>
</g>
<!-- Node12&#45;&gt;Node9 -->
<g id="edge15" class="edge"><title>Node12&#45;&gt;Node9</title>
<path fill="none" stroke="midnightblue" d="M755.971,-60.8259C771.067,-65.9247 788.132,-71.6891 802.121,-76.4141"/>
<polygon fill="midnightblue" stroke="midnightblue" points="756.983,-57.4733 746.389,-57.589 754.743,-64.1052 756.983,-57.4733"/>
</g>
<!-- Node14 -->
<g id="node14" class="node"><title>Node14</title>
<g id="a_node14"><a xlink:href="radio_8c.html#a921f25c9a84ad0ee0715bc7f5720ade4" target="_top" xlink:title="radio_main">
<polygon fill="white" stroke="black" points="554.5,-0.5 554.5,-19.5 618.5,-19.5 618.5,-0.5 554.5,-0.5"/>
<text text-anchor="middle" x="586.5" y="-7.5" font-family="Helvetica,sans-Serif" font-size="10.00">radio_main</text>
</a>
</g>
</g>
<!-- Node13&#45;&gt;Node14 -->
<g id="edge17" class="edge"><title>Node13&#45;&gt;Node14</title>
<path fill="none" stroke="midnightblue" d="M506.534,-10C523.209,-10 540.41,-10 554.484,-10"/>
<polygon fill="midnightblue" stroke="midnightblue" points="506.251,-6.5001 496.251,-10 506.251,-13.5001 506.251,-6.5001"/>
</g>
<!-- Node14&#45;&gt;Node12 -->
<g id="edge18" class="edge"><title>Node14&#45;&gt;Node12</title>
<path fill="none" stroke="midnightblue" d="M628.246,-22.0495C646.202,-27.3594 666.998,-33.5093 683.838,-38.4891"/>
<polygon fill="midnightblue" stroke="midnightblue" points="629.188,-18.6783 618.606,-19.1987 627.203,-25.3909 629.188,-18.6783"/>
</g>
<!-- Node16 -->
<g id="node16" class="node"><title>Node16</title>
<g id="a_node16"><a xlink:href="lcd_8c.html#a6b9abf6cd27026b67144523ffbef4916" target="_top" xlink:title="lcd_generatebargraph">
<polygon fill="white" stroke="black" points="240,-114.5 240,-133.5 350,-133.5 350,-114.5 240,-114.5"/>
<text text-anchor="middle" x="295" y="-121.5" font-family="Helvetica,sans-Serif" font-size="10.00">lcd_generatebargraph</text>
</a>
</g>
</g>
<!-- Node15&#45;&gt;Node16 -->
<g id="edge20" class="edge"><title>Node15&#45;&gt;Node16</title>
<path fill="none" stroke="midnightblue" d="M214.298,-124C222.643,-124 231.254,-124 239.591,-124"/>
<polygon fill="midnightblue" stroke="midnightblue" points="214.287,-120.5 204.287,-124 214.287,-127.5 214.287,-120.5"/>
</g>
<!-- Node16&#45;&gt;Node2 -->
<g id="edge21" class="edge"><title>Node16&#45;&gt;Node2</title>
<path fill="none" stroke="midnightblue" d="M342.036,-136.148C367.121,-142.768 397.06,-150.669 417.183,-155.979"/>
<polygon fill="midnightblue" stroke="midnightblue" points="342.899,-132.756 332.337,-133.589 341.113,-139.525 342.899,-132.756"/>
</g>
</g>
</svg>
