<?xml version="1.0" encoding="UTF-8" standalone="no"?>
<!DOCTYPE svg PUBLIC "-//W3C//DTD SVG 1.1//EN"
 "http://www.w3.org/Graphics/SVG/1.1/DTD/svg11.dtd">
<!-- Generated by graphviz version 2.38.0 (20140413.2041)
 -->
<!-- Title: D:/GIT/fhradiov2/driver/lcd.h Pages: 1 -->
<svg width="443pt" height="397pt"
 viewBox="0.00 0.00 442.50 397.00" xmlns="http://www.w3.org/2000/svg" xmlns:xlink="http://www.w3.org/1999/xlink">
<g id="graph0" class="graph" transform="scale(1 1) rotate(0) translate(4 393)">
<title>D:/GIT/fhradiov2/driver/lcd.h</title>
<polygon fill="white" stroke="none" points="-4,4 -4,-393 438.5,-393 438.5,4 -4,4"/>
<!-- Node1 -->
<g id="node1" class="node"><title>Node1</title>
<polygon fill="#bfbfbf" stroke="black" points="151,-358.5 151,-388.5 261,-388.5 261,-358.5 151,-358.5"/>
<text text-anchor="start" x="159" y="-376.5" font-family="Helvetica,sans-Serif" font-size="10.00">D:/GIT/fhradiov2/driver</text>
<text text-anchor="middle" x="206" y="-365.5" font-family="Helvetica,sans-Serif" font-size="10.00">/lcd.h</text>
</g>
<!-- Node2 -->
<g id="node2" class="node"><title>Node2</title>
<polygon fill="white" stroke="#bfbfbf" points="51.5,-0.5 51.5,-19.5 100.5,-19.5 100.5,-0.5 51.5,-0.5"/>
<text text-anchor="middle" x="76" y="-7.5" font-family="Helvetica,sans-Serif" font-size="10.00">stdint.h</text>
</g>
<!-- Node1&#45;&gt;Node2 -->
<g id="edge1" class="edge"><title>Node1&#45;&gt;Node2</title>
<path fill="none" stroke="midnightblue" d="M150.796,-363.175C89.7761,-349.338 0,-316.927 0,-246 0,-246 0,-246 0,-132 0,-88.4754 35.699,-47.7746 58.1634,-26.4715"/>
<polygon fill="midnightblue" stroke="midnightblue" points="60.7341,-28.8634 65.7503,-19.5313 56.0094,-23.6984 60.7341,-28.8634"/>
</g>
<!-- Node3 -->
<g id="node3" class="node"><title>Node3</title>
<g id="a_node3"><a xlink:href="pca9534_8h.html" target="_top" xlink:title="driver/pca9534.h">
<polygon fill="white" stroke="black" points="90.5,-297 90.5,-316 177.5,-316 177.5,-297 90.5,-297"/>
<text text-anchor="middle" x="134" y="-304" font-family="Helvetica,sans-Serif" font-size="10.00">driver/pca9534.h</text>
</a>
</g>
</g>
<!-- Node1&#45;&gt;Node3 -->
<g id="edge2" class="edge"><title>Node1&#45;&gt;Node3</title>
<path fill="none" stroke="midnightblue" d="M190.377,-358.396C178.817,-347.96 163.078,-333.751 151.167,-322.998"/>
<polygon fill="midnightblue" stroke="midnightblue" points="153.399,-320.298 143.631,-316.195 148.708,-325.494 153.399,-320.298"/>
</g>
<!-- Node8 -->
<g id="node8" class="node"><title>Node8</title>
<g id="a_node8"><a xlink:href="timer_8h.html" target="_top" xlink:title="driver/timer.h">
<polygon fill="white" stroke="black" points="278,-179.5 278,-198.5 350,-198.5 350,-179.5 278,-179.5"/>
<text text-anchor="middle" x="314" y="-186.5" font-family="Helvetica,sans-Serif" font-size="10.00">driver/timer.h</text>
</a>
</g>
</g>
<!-- Node1&#45;&gt;Node8 -->
<g id="edge17" class="edge"><title>Node1&#45;&gt;Node8</title>
<path fill="none" stroke="midnightblue" d="M207.196,-358.222C209.077,-341.354 213.756,-312.828 225,-291 242.967,-256.122 275.641,-223.556 296.007,-205.267"/>
<polygon fill="midnightblue" stroke="midnightblue" points="298.45,-207.781 303.654,-198.552 293.831,-202.521 298.45,-207.781"/>
</g>
<!-- Node11 -->
<g id="node11" class="node"><title>Node11</title>
<g id="a_node11"><a xlink:href="lcd__commands_8h.html" target="_top" xlink:title="driver/include/lcd\l_commands.h">
<polygon fill="white" stroke="black" points="234.5,-291.5 234.5,-321.5 323.5,-321.5 323.5,-291.5 234.5,-291.5"/>
<text text-anchor="start" x="242.5" y="-309.5" font-family="Helvetica,sans-Serif" font-size="10.00">driver/include/lcd</text>
<text text-anchor="middle" x="279" y="-298.5" font-family="Helvetica,sans-Serif" font-size="10.00">_commands.h</text>
</a>
</g>
</g>
<!-- Node1&#45;&gt;Node11 -->
<g id="edge15" class="edge"><title>Node1&#45;&gt;Node11</title>
<path fill="none" stroke="midnightblue" d="M221.84,-358.396C231.693,-349.623 244.541,-338.183 255.56,-328.371"/>
<polygon fill="midnightblue" stroke="midnightblue" points="258.05,-330.84 263.191,-321.577 253.395,-325.613 258.05,-330.84"/>
</g>
<!-- Node12 -->
<g id="node12" class="node"><title>Node12</title>
<g id="a_node12"><a xlink:href="radio__pin__mapping_8h.html" target="_top" xlink:title="settings/radio_pin\l_mapping.h">
<polygon fill="white" stroke="black" points="341.5,-291.5 341.5,-321.5 434.5,-321.5 434.5,-291.5 341.5,-291.5"/>
<text text-anchor="start" x="349.5" y="-309.5" font-family="Helvetica,sans-Serif" font-size="10.00">settings/radio_pin</text>
<text text-anchor="middle" x="388" y="-298.5" font-family="Helvetica,sans-Serif" font-size="10.00">_mapping.h</text>
</a>
</g>
</g>
<!-- Node1&#45;&gt;Node12 -->
<g id="edge16" class="edge"><title>Node1&#45;&gt;Node12</title>
<path fill="none" stroke="midnightblue" d="M245.491,-358.396C272.918,-348.601 309.653,-335.481 338.957,-325.015"/>
<polygon fill="midnightblue" stroke="midnightblue" points="340.346,-328.236 348.586,-321.577 337.991,-321.644 340.346,-328.236"/>
</g>
<!-- Node3&#45;&gt;Node2 -->
<g id="edge3" class="edge"><title>Node3&#45;&gt;Node2</title>
<path fill="none" stroke="midnightblue" d="M119,-296.84C92,-280 38,-240.062 38,-190 38,-190 38,-190 38,-132 38,-93.8116 55.4417,-51.8296 66.692,-28.7224"/>
<polygon fill="midnightblue" stroke="midnightblue" points="69.9579,-30.0195 71.3405,-19.5153 63.7091,-26.8646 69.9579,-30.0195"/>
</g>
<!-- Node4 -->
<g id="node4" class="node"><title>Node4</title>
<g id="a_node4"><a xlink:href="i2c_8h.html" target="_top" xlink:title="I2C implemtation for MSP430G2553, interrupt based. &#160;&#160;This implemtation based on examples from Texas I...">
<polygon fill="white" stroke="black" points="108.5,-235.5 108.5,-254.5 171.5,-254.5 171.5,-235.5 108.5,-235.5"/>
<text text-anchor="middle" x="140" y="-242.5" font-family="Helvetica,sans-Serif" font-size="10.00">driver/i2c.h</text>
</a>
</g>
</g>
<!-- Node3&#45;&gt;Node4 -->
<g id="edge4" class="edge"><title>Node3&#45;&gt;Node4</title>
<path fill="none" stroke="midnightblue" d="M134.86,-296.975C135.706,-288.58 137.027,-275.481 138.118,-264.663"/>
<polygon fill="midnightblue" stroke="midnightblue" points="141.621,-264.81 139.142,-254.509 134.656,-264.107 141.621,-264.81"/>
</g>
<!-- Node4&#45;&gt;Node2 -->
<g id="edge5" class="edge"><title>Node4&#45;&gt;Node2</title>
<path fill="none" stroke="midnightblue" d="M136.792,-235.445C130.381,-218.153 115.766,-177.731 106,-143 94.7513,-102.994 84.7286,-55.2743 79.6054,-29.5858"/>
<polygon fill="midnightblue" stroke="midnightblue" points="83.03,-28.8611 77.6647,-19.7252 76.1617,-30.2129 83.03,-28.8611"/>
</g>
<!-- Node5 -->
<g id="node5" class="node"><title>Node5</title>
<polygon fill="white" stroke="#bfbfbf" points="115.5,-123.5 115.5,-142.5 174.5,-142.5 174.5,-123.5 115.5,-123.5"/>
<text text-anchor="middle" x="145" y="-130.5" font-family="Helvetica,sans-Serif" font-size="10.00">msp430.h</text>
</g>
<!-- Node4&#45;&gt;Node5 -->
<g id="edge6" class="edge"><title>Node4&#45;&gt;Node5</title>
<path fill="none" stroke="midnightblue" d="M137.715,-235.153C134.785,-222.632 130.375,-199.032 133,-179 134.156,-170.181 136.534,-160.633 138.87,-152.61"/>
<polygon fill="midnightblue" stroke="midnightblue" points="142.285,-153.415 141.912,-142.827 135.601,-151.337 142.285,-153.415"/>
</g>
<!-- Node6 -->
<g id="node6" class="node"><title>Node6</title>
<polygon fill="white" stroke="#bfbfbf" points="142,-179.5 142,-198.5 190,-198.5 190,-179.5 142,-179.5"/>
<text text-anchor="middle" x="166" y="-186.5" font-family="Helvetica,sans-Serif" font-size="10.00">stdlib.h</text>
</g>
<!-- Node4&#45;&gt;Node6 -->
<g id="edge7" class="edge"><title>Node4&#45;&gt;Node6</title>
<path fill="none" stroke="midnightblue" d="M144.293,-235.083C147.852,-227.691 153.022,-216.953 157.424,-207.811"/>
<polygon fill="midnightblue" stroke="midnightblue" points="160.602,-209.279 161.787,-198.751 154.295,-206.243 160.602,-209.279"/>
</g>
<!-- Node7 -->
<g id="node7" class="node"><title>Node7</title>
<polygon fill="white" stroke="#bfbfbf" points="208,-179.5 208,-198.5 260,-198.5 260,-179.5 208,-179.5"/>
<text text-anchor="middle" x="234" y="-186.5" font-family="Helvetica,sans-Serif" font-size="10.00">stdarg.h</text>
</g>
<!-- Node4&#45;&gt;Node7 -->
<g id="edge8" class="edge"><title>Node4&#45;&gt;Node7</title>
<path fill="none" stroke="midnightblue" d="M155.103,-235.324C169.903,-226.822 192.694,-213.729 209.982,-203.797"/>
<polygon fill="midnightblue" stroke="midnightblue" points="212.007,-206.671 218.935,-198.655 208.52,-200.601 212.007,-206.671"/>
</g>
<!-- Node4&#45;&gt;Node8 -->
<g id="edge9" class="edge"><title>Node4&#45;&gt;Node8</title>
<path fill="none" stroke="midnightblue" d="M167.571,-235.444C197.097,-226.28 244.118,-211.688 276.883,-201.519"/>
<polygon fill="midnightblue" stroke="midnightblue" points="278.045,-204.823 286.558,-198.516 275.97,-198.138 278.045,-204.823"/>
</g>
<!-- Node8&#45;&gt;Node2 -->
<g id="edge11" class="edge"><title>Node8&#45;&gt;Node2</title>
<path fill="none" stroke="midnightblue" d="M295.311,-179.438C277.831,-171.099 251.298,-157.577 230,-143 176.014,-106.049 119.28,-53.2113 92.218,-27.0053"/>
<polygon fill="midnightblue" stroke="midnightblue" points="94.4095,-24.2535 84.808,-19.7745 89.5207,-29.2635 94.4095,-24.2535"/>
</g>
<!-- Node8&#45;&gt;Node5 -->
<g id="edge10" class="edge"><title>Node8&#45;&gt;Node5</title>
<path fill="none" stroke="midnightblue" d="M287.221,-179.444C258.667,-170.32 213.267,-155.813 181.463,-145.651"/>
<polygon fill="midnightblue" stroke="midnightblue" points="182.244,-142.226 171.653,-142.516 180.114,-148.894 182.244,-142.226"/>
</g>
<!-- Node9 -->
<g id="node9" class="node"><title>Node9</title>
<g id="a_node9"><a xlink:href="radio__configuration_8h.html" target="_top" xlink:title="settings/radio_configuration.h">
<polygon fill="white" stroke="black" points="239.5,-123.5 239.5,-142.5 382.5,-142.5 382.5,-123.5 239.5,-123.5"/>
<text text-anchor="middle" x="311" y="-130.5" font-family="Helvetica,sans-Serif" font-size="10.00">settings/radio_configuration.h</text>
</a>
</g>
</g>
<!-- Node8&#45;&gt;Node9 -->
<g id="edge12" class="edge"><title>Node8&#45;&gt;Node9</title>
<path fill="none" stroke="midnightblue" d="M313.505,-179.083C313.111,-172.006 312.548,-161.861 312.055,-152.986"/>
<polygon fill="midnightblue" stroke="midnightblue" points="315.536,-152.542 311.486,-142.751 308.546,-152.93 315.536,-152.542"/>
</g>
<!-- Node10 -->
<g id="node10" class="node"><title>Node10</title>
<g id="a_node10"><a xlink:href="si4735__cmd__prop_8h.html" target="_top" xlink:title="driver/include/si4735\l_cmd_prop.h">
<polygon fill="white" stroke="black" points="247,-56.5 247,-86.5 351,-86.5 351,-56.5 247,-56.5"/>
<text text-anchor="start" x="255" y="-74.5" font-family="Helvetica,sans-Serif" font-size="10.00">driver/include/si4735</text>
<text text-anchor="middle" x="299" y="-63.5" font-family="Helvetica,sans-Serif" font-size="10.00">_cmd_prop.h</text>
</a>
</g>
</g>
<!-- Node9&#45;&gt;Node10 -->
<g id="edge13" class="edge"><title>Node9&#45;&gt;Node10</title>
<path fill="none" stroke="midnightblue" d="M309.281,-123.475C307.853,-116.396 305.75,-105.97 303.818,-96.3896"/>
<polygon fill="midnightblue" stroke="midnightblue" points="307.236,-95.6336 301.828,-86.523 300.374,-97.0176 307.236,-95.6336"/>
</g>
<!-- Node10&#45;&gt;Node2 -->
<g id="edge14" class="edge"><title>Node10&#45;&gt;Node2</title>
<path fill="none" stroke="midnightblue" d="M246.998,-56.625C204.883,-45.388 146.751,-29.8776 110.28,-20.1465"/>
<polygon fill="midnightblue" stroke="midnightblue" points="111.163,-16.7597 100.599,-17.5634 109.359,-23.5231 111.163,-16.7597"/>
</g>
</g>
</svg>
