<?xml version="1.0" encoding="UTF-8" standalone="no"?>
<!DOCTYPE svg PUBLIC "-//W3C//DTD SVG 1.1//EN"
 "http://www.w3.org/Graphics/SVG/1.1/DTD/svg11.dtd">
<!-- Generated by graphviz version 2.38.0 (20140413.2041)
 -->
<!-- Title: lcd_generatechar Pages: 1 -->
<svg width="545pt" height="85pt"
 viewBox="0.00 0.00 545.00 85.00" xmlns="http://www.w3.org/2000/svg" xmlns:xlink="http://www.w3.org/1999/xlink">
<g id="graph0" class="graph" transform="scale(1 1) rotate(0) translate(4 81)">
<title>lcd_generatechar</title>
<polygon fill="white" stroke="none" points="-4,4 -4,-81 541,-81 541,4 -4,4"/>
<!-- Node1 -->
<g id="node1" class="node"><title>Node1</title>
<polygon fill="#bfbfbf" stroke="black" points="0,-19.5 0,-38.5 91,-38.5 91,-19.5 0,-19.5"/>
<text text-anchor="middle" x="45.5" y="-26.5" font-family="Helvetica,sans-Serif" font-size="10.00">lcd_generatechar</text>
</g>
<!-- Node2 -->
<g id="node2" class="node"><title>Node2</title>
<g id="a_node2"><a xlink:href="lcd_8c.html#a250728451a22259562d3f01a12bbd77b" target="_top" xlink:title="lcd_command">
<polygon fill="white" stroke="black" points="128,-38.5 128,-57.5 205,-57.5 205,-38.5 128,-38.5"/>
<text text-anchor="middle" x="166.5" y="-45.5" font-family="Helvetica,sans-Serif" font-size="10.00">lcd_command</text>
</a>
</g>
</g>
<!-- Node1&#45;&gt;Node2 -->
<g id="edge1" class="edge"><title>Node1&#45;&gt;Node2</title>
<path fill="none" stroke="midnightblue" d="M91.1498,-36.129C99.8717,-37.5215 109.049,-38.9867 117.863,-40.3941"/>
<polygon fill="midnightblue" stroke="midnightblue" points="117.569,-43.8914 127.996,-42.0119 118.673,-36.9789 117.569,-43.8914"/>
</g>
<!-- Node7 -->
<g id="node7" class="node"><title>Node7</title>
<g id="a_node7"><a xlink:href="lcd_8c.html#a1a22a2c5cd6e0e4e06977a2f78a7ab08" target="_top" xlink:title="lcd_write_char">
<polygon fill="white" stroke="black" points="127,-0.5 127,-19.5 206,-19.5 206,-0.5 127,-0.5"/>
<text text-anchor="middle" x="166.5" y="-7.5" font-family="Helvetica,sans-Serif" font-size="10.00">lcd_write_char</text>
</a>
</g>
</g>
<!-- Node1&#45;&gt;Node7 -->
<g id="edge7" class="edge"><title>Node1&#45;&gt;Node7</title>
<path fill="none" stroke="midnightblue" d="M91.1498,-21.871C99.4956,-20.5385 108.258,-19.1395 116.721,-17.7883"/>
<polygon fill="midnightblue" stroke="midnightblue" points="117.524,-21.2044 126.847,-16.1714 116.421,-14.2919 117.524,-21.2044"/>
</g>
<!-- Node3 -->
<g id="node3" class="node"><title>Node3</title>
<g id="a_node3"><a xlink:href="i2c_8h.html#a6691e5911f539e1e8178c6e983e8079a" target="_top" xlink:title="Transmits I2C commands with a variable length to a I2C slave. ">
<polygon fill="white" stroke="black" points="242,-19.5 242,-38.5 314,-38.5 314,-19.5 242,-19.5"/>
<text text-anchor="middle" x="278" y="-26.5" font-family="Helvetica,sans-Serif" font-size="10.00">i2c_write_var</text>
</a>
</g>
</g>
<!-- Node2&#45;&gt;Node3 -->
<g id="edge2" class="edge"><title>Node2&#45;&gt;Node3</title>
<path fill="none" stroke="midnightblue" d="M205.184,-41.4613C213.721,-39.9799 222.873,-38.3918 231.689,-36.8622"/>
<polygon fill="midnightblue" stroke="midnightblue" points="232.572,-40.2614 241.826,-35.1032 231.375,-33.3644 232.572,-40.2614"/>
</g>
<!-- Node6 -->
<g id="node6" class="node"><title>Node6</title>
<g id="a_node6"><a xlink:href="timer_8c.html#a276d5cb665b9f8b2c79e53e2f2c5b4f0" target="_top" xlink:title="_delay_ms">
<polygon fill="white" stroke="black" points="353.5,-57.5 353.5,-76.5 417.5,-76.5 417.5,-57.5 353.5,-57.5"/>
<text text-anchor="middle" x="385.5" y="-64.5" font-family="Helvetica,sans-Serif" font-size="10.00">_delay_ms</text>
</a>
</g>
</g>
<!-- Node2&#45;&gt;Node6 -->
<g id="edge5" class="edge"><title>Node2&#45;&gt;Node6</title>
<path fill="none" stroke="midnightblue" d="M205.299,-51.3095C243.867,-54.6865 303.546,-59.9118 343.301,-63.3927"/>
<polygon fill="midnightblue" stroke="midnightblue" points="343.185,-66.8959 353.452,-64.2816 343.796,-59.9226 343.185,-66.8959"/>
</g>
<!-- Node4 -->
<g id="node4" class="node"><title>Node4</title>
<g id="a_node4"><a xlink:href="i2c_8c.html#ae0625b97d3437bcaca4ac4b96dd01978" target="_top" xlink:title="Transmits I2C command array to a I2C slave. ">
<polygon fill="white" stroke="black" points="350,-19.5 350,-38.5 421,-38.5 421,-19.5 350,-19.5"/>
<text text-anchor="middle" x="385.5" y="-26.5" font-family="Helvetica,sans-Serif" font-size="10.00">i2c_write_arr</text>
</a>
</g>
</g>
<!-- Node3&#45;&gt;Node4 -->
<g id="edge3" class="edge"><title>Node3&#45;&gt;Node4</title>
<path fill="none" stroke="midnightblue" d="M314.13,-29C322.312,-29 331.133,-29 339.671,-29"/>
<polygon fill="midnightblue" stroke="midnightblue" points="339.882,-32.5001 349.882,-29 339.882,-25.5001 339.882,-32.5001"/>
</g>
<!-- Node5 -->
<g id="node5" class="node"><title>Node5</title>
<g id="a_node5"><a xlink:href="timer_8c.html#a3c56af3315c2461dec5ced585a5f84db" target="_top" xlink:title="_delay_ten_us">
<polygon fill="white" stroke="black" points="457,-19.5 457,-38.5 537,-38.5 537,-19.5 457,-19.5"/>
<text text-anchor="middle" x="497" y="-26.5" font-family="Helvetica,sans-Serif" font-size="10.00">_delay_ten_us</text>
</a>
</g>
</g>
<!-- Node4&#45;&gt;Node5 -->
<g id="edge4" class="edge"><title>Node4&#45;&gt;Node5</title>
<path fill="none" stroke="midnightblue" d="M421.146,-29C429.165,-29 437.851,-29 446.37,-29"/>
<polygon fill="midnightblue" stroke="midnightblue" points="446.623,-32.5001 456.623,-29 446.623,-25.5001 446.623,-32.5001"/>
</g>
<!-- Node6&#45;&gt;Node5 -->
<g id="edge6" class="edge"><title>Node6&#45;&gt;Node5</title>
<path fill="none" stroke="midnightblue" d="M414.131,-57.411C427.618,-52.7306 444.043,-47.0308 458.63,-41.9685"/>
<polygon fill="midnightblue" stroke="midnightblue" points="460.078,-45.1711 468.377,-38.5859 457.783,-38.558 460.078,-45.1711"/>
</g>
<!-- Node7&#45;&gt;Node3 -->
<g id="edge9" class="edge"><title>Node7&#45;&gt;Node3</title>
<path fill="none" stroke="midnightblue" d="M206.106,-16.6987C214.335,-18.1267 223.099,-19.6474 231.558,-21.1151"/>
<polygon fill="midnightblue" stroke="midnightblue" points="231.217,-24.6081 241.668,-22.8694 232.414,-17.7112 231.217,-24.6081"/>
</g>
<!-- Node7&#45;&gt;Node5 -->
<g id="edge8" class="edge"><title>Node7&#45;&gt;Node5</title>
<path fill="none" stroke="midnightblue" d="M206.337,-7.02898C256.24,-3.89092 345.447,-0.578776 421,-10 432.43,-11.4252 444.617,-14.0274 455.772,-16.8583"/>
<polygon fill="midnightblue" stroke="midnightblue" points="455.112,-20.3042 465.676,-19.495 456.913,-13.5399 455.112,-20.3042"/>
</g>
</g>
</svg>
