<?xml version="1.0" encoding="UTF-8" standalone="no"?>
<!DOCTYPE svg PUBLIC "-//W3C//DTD SVG 1.1//EN"
 "http://www.w3.org/Graphics/SVG/1.1/DTD/svg11.dtd">
<!-- Generated by graphviz version 2.38.0 (20140413.2041)
 -->
<!-- Title: driver/lcd.h Pages: 1 -->
<svg width="412pt" height="196pt"
 viewBox="0.00 0.00 412.00 196.00" xmlns="http://www.w3.org/2000/svg" xmlns:xlink="http://www.w3.org/1999/xlink">
<g id="graph0" class="graph" transform="scale(1 1) rotate(0) translate(4 192)">
<title>driver/lcd.h</title>
<polygon fill="white" stroke="none" points="-4,4 -4,-192 408,-192 408,4 -4,4"/>
<!-- Node1 -->
<g id="node1" class="node"><title>Node1</title>
<polygon fill="#bfbfbf" stroke="black" points="179.5,-168.5 179.5,-187.5 242.5,-187.5 242.5,-168.5 179.5,-168.5"/>
<text text-anchor="middle" x="211" y="-175.5" font-family="Helvetica,sans-Serif" font-size="10.00">driver/lcd.h</text>
</g>
<!-- Node2 -->
<g id="node2" class="node"><title>Node2</title>
<g id="a_node2"><a xlink:href="lcd_8c.html" target="_top" xlink:title="driver/src/lcd.c">
<polygon fill="white" stroke="black" points="42,-112.5 42,-131.5 122,-131.5 122,-112.5 42,-112.5"/>
<text text-anchor="middle" x="82" y="-119.5" font-family="Helvetica,sans-Serif" font-size="10.00">driver/src/lcd.c</text>
</a>
</g>
</g>
<!-- Node1&#45;&gt;Node2 -->
<g id="edge1" class="edge"><title>Node1&#45;&gt;Node2</title>
<path fill="none" stroke="midnightblue" d="M181.146,-164.503C156.962,-154.38 123.538,-140.388 102.345,-131.516"/>
<polygon fill="midnightblue" stroke="midnightblue" points="179.984,-167.811 190.56,-168.444 182.687,-161.354 179.984,-167.811"/>
</g>
<!-- Node3 -->
<g id="node3" class="node"><title>Node3</title>
<g id="a_node3"><a xlink:href="main_8c.html" target="_top" xlink:title="main.c">
<polygon fill="white" stroke="black" points="242,-56.5 242,-75.5 288,-75.5 288,-56.5 242,-56.5"/>
<text text-anchor="middle" x="265" y="-63.5" font-family="Helvetica,sans-Serif" font-size="10.00">main.c</text>
</a>
</g>
</g>
<!-- Node1&#45;&gt;Node3 -->
<g id="edge2" class="edge"><title>Node1&#45;&gt;Node3</title>
<path fill="none" stroke="midnightblue" d="M219.679,-159.32C231.437,-135.37 251.967,-93.5484 260.782,-75.5914"/>
<polygon fill="midnightblue" stroke="midnightblue" points="216.502,-157.849 215.237,-168.368 222.786,-160.934 216.502,-157.849"/>
</g>
<!-- Node4 -->
<g id="node4" class="node"><title>Node4</title>
<g id="a_node4"><a xlink:href="menu_2menu_8h.html" target="_top" xlink:title="menu/menu.h">
<polygon fill="white" stroke="black" points="140,-112.5 140,-131.5 216,-131.5 216,-112.5 140,-112.5"/>
<text text-anchor="middle" x="178" y="-119.5" font-family="Helvetica,sans-Serif" font-size="10.00">menu/menu.h</text>
</a>
</g>
</g>
<!-- Node1&#45;&gt;Node4 -->
<g id="edge3" class="edge"><title>Node1&#45;&gt;Node4</title>
<path fill="none" stroke="midnightblue" d="M200.168,-159.275C194.528,-150.045 187.882,-139.17 183.348,-131.751"/>
<polygon fill="midnightblue" stroke="midnightblue" points="197.35,-161.375 205.551,-168.083 203.323,-157.725 197.35,-161.375"/>
</g>
<!-- Node8 -->
<g id="node8" class="node"><title>Node8</title>
<g id="a_node8"><a xlink:href="radio_8h.html" target="_top" xlink:title="system/radio.h">
<polygon fill="white" stroke="black" points="272.5,-112.5 272.5,-131.5 353.5,-131.5 353.5,-112.5 272.5,-112.5"/>
<text text-anchor="middle" x="313" y="-119.5" font-family="Helvetica,sans-Serif" font-size="10.00">system/radio.h</text>
</a>
</g>
</g>
<!-- Node1&#45;&gt;Node8 -->
<g id="edge9" class="edge"><title>Node1&#45;&gt;Node8</title>
<path fill="none" stroke="midnightblue" d="M236.331,-163.59C255.19,-153.605 280.384,-140.267 296.653,-131.655"/>
<polygon fill="midnightblue" stroke="midnightblue" points="234.588,-160.552 227.388,-168.324 237.864,-166.738 234.588,-160.552"/>
</g>
<!-- Node4&#45;&gt;Node3 -->
<g id="edge4" class="edge"><title>Node4&#45;&gt;Node3</title>
<path fill="none" stroke="midnightblue" d="M200.716,-106.901C216.669,-96.9986 237.497,-84.0705 251.057,-75.6545"/>
<polygon fill="midnightblue" stroke="midnightblue" points="198.629,-104.077 191.978,-112.324 202.32,-110.024 198.629,-104.077"/>
</g>
<!-- Node5 -->
<g id="node5" class="node"><title>Node5</title>
<g id="a_node5"><a xlink:href="menu__struct_8h.html" target="_top" xlink:title="menu/menu_struct.h">
<polygon fill="white" stroke="black" points="8,-56.5 8,-75.5 114,-75.5 114,-56.5 8,-56.5"/>
<text text-anchor="middle" x="61" y="-63.5" font-family="Helvetica,sans-Serif" font-size="10.00">menu/menu_struct.h</text>
</a>
</g>
</g>
<!-- Node4&#45;&gt;Node5 -->
<g id="edge5" class="edge"><title>Node4&#45;&gt;Node5</title>
<path fill="none" stroke="midnightblue" d="M145.126,-108.503C121.716,-98.3795 91.6396,-84.388 74.3723,-75.5164"/>
<polygon fill="midnightblue" stroke="midnightblue" points="143.801,-111.743 154.372,-112.444 146.545,-105.303 143.801,-111.743"/>
</g>
<!-- Node7 -->
<g id="node7" class="node"><title>Node7</title>
<g id="a_node7"><a xlink:href="menu_2src_2menu_8c.html" target="_top" xlink:title="menu/src/menu.c">
<polygon fill="white" stroke="black" points="132,-56.5 132,-75.5 224,-75.5 224,-56.5 132,-56.5"/>
<text text-anchor="middle" x="178" y="-63.5" font-family="Helvetica,sans-Serif" font-size="10.00">menu/src/menu.c</text>
</a>
</g>
</g>
<!-- Node4&#45;&gt;Node7 -->
<g id="edge8" class="edge"><title>Node4&#45;&gt;Node7</title>
<path fill="none" stroke="midnightblue" d="M178,-101.805C178,-92.9102 178,-82.7798 178,-75.7511"/>
<polygon fill="midnightblue" stroke="midnightblue" points="174.5,-102.083 178,-112.083 181.5,-102.083 174.5,-102.083"/>
</g>
<!-- Node5&#45;&gt;Node4 -->
<g id="edge6" class="edge"><title>Node5&#45;&gt;Node4</title>
<path fill="none" stroke="midnightblue" d="M94.3598,-79.7074C117.559,-89.7527 147.122,-103.507 164.317,-112.324"/>
<polygon fill="midnightblue" stroke="midnightblue" points="95.4329,-76.36 84.8616,-75.6545 92.6856,-82.7984 95.4329,-76.36"/>
</g>
<!-- Node6 -->
<g id="node6" class="node"><title>Node6</title>
<g id="a_node6"><a xlink:href="menu__struct_8c.html" target="_top" xlink:title="menu/src/menu_struct.c">
<polygon fill="white" stroke="black" points="0,-0.5 0,-19.5 122,-19.5 122,-0.5 0,-0.5"/>
<text text-anchor="middle" x="61" y="-7.5" font-family="Helvetica,sans-Serif" font-size="10.00">menu/src/menu_struct.c</text>
</a>
</g>
</g>
<!-- Node5&#45;&gt;Node6 -->
<g id="edge7" class="edge"><title>Node5&#45;&gt;Node6</title>
<path fill="none" stroke="midnightblue" d="M61,-45.8045C61,-36.9102 61,-26.7798 61,-19.7511"/>
<polygon fill="midnightblue" stroke="midnightblue" points="57.5001,-46.083 61,-56.083 64.5001,-46.083 57.5001,-46.083"/>
</g>
<!-- Node8&#45;&gt;Node3 -->
<g id="edge10" class="edge"><title>Node8&#45;&gt;Node3</title>
<path fill="none" stroke="midnightblue" d="M298.272,-104.431C289.86,-94.9673 279.651,-83.4827 272.779,-75.7511"/>
<polygon fill="midnightblue" stroke="midnightblue" points="295.814,-106.934 305.074,-112.083 301.046,-102.284 295.814,-106.934"/>
</g>
<!-- Node9 -->
<g id="node9" class="node"><title>Node9</title>
<g id="a_node9"><a xlink:href="radio_8c.html" target="_top" xlink:title="system/src/radio.c">
<polygon fill="white" stroke="black" points="306,-56.5 306,-75.5 404,-75.5 404,-56.5 306,-56.5"/>
<text text-anchor="middle" x="355" y="-63.5" font-family="Helvetica,sans-Serif" font-size="10.00">system/src/radio.c</text>
</a>
</g>
</g>
<!-- Node8&#45;&gt;Node9 -->
<g id="edge11" class="edge"><title>Node8&#45;&gt;Node9</title>
<path fill="none" stroke="midnightblue" d="M326.11,-104.144C333.428,-94.7357 342.241,-83.4046 348.194,-75.7511"/>
<polygon fill="midnightblue" stroke="midnightblue" points="323.312,-102.041 319.935,-112.083 328.838,-106.338 323.312,-102.041"/>
</g>
</g>
</svg>
