<?xml version="1.0" encoding="UTF-8" standalone="no"?>
<!DOCTYPE svg PUBLIC "-//W3C//DTD SVG 1.1//EN"
 "http://www.w3.org/Graphics/SVG/1.1/DTD/svg11.dtd">
<!-- Generated by graphviz version 2.38.0 (20140413.2041)
 -->
<!-- Title: lcd_write_string Pages: 1 -->
<svg width="1048pt" height="460pt"
 viewBox="0.00 0.00 1048.00 459.69" xmlns="http://www.w3.org/2000/svg" xmlns:xlink="http://www.w3.org/1999/xlink">
<g id="graph0" class="graph" transform="scale(1 1) rotate(0) translate(4 455.687)">
<title>lcd_write_string</title>
<polygon fill="white" stroke="none" points="-4,4 -4,-455.687 1044,-455.687 1044,4 -4,4"/>
<!-- Node1 -->
<g id="node1" class="node"><title>Node1</title>
<polygon fill="#bfbfbf" stroke="black" points="0,-223.187 0,-242.187 84,-242.187 84,-223.187 0,-223.187"/>
<text text-anchor="middle" x="42" y="-230.187" font-family="Helvetica,sans-Serif" font-size="10.00">lcd_write_string</text>
</g>
<!-- Node2 -->
<g id="node2" class="node"><title>Node2</title>
<g id="a_node2"><a xlink:href="lcd_8c.html#acd63fb85d212730fa4fcbcbeeccd231e" target="_top" xlink:title="lcd_create_view">
<polygon fill="white" stroke="black" points="120,-223.187 120,-242.187 205,-242.187 205,-223.187 120,-223.187"/>
<text text-anchor="middle" x="162.5" y="-230.187" font-family="Helvetica,sans-Serif" font-size="10.00">lcd_create_view</text>
</a>
</g>
</g>
<!-- Node1&#45;&gt;Node2 -->
<g id="edge1" class="edge"><title>Node1&#45;&gt;Node2</title>
<path fill="none" stroke="midnightblue" d="M94.2887,-232.687C102.76,-232.687 111.452,-232.687 119.656,-232.687"/>
<polygon fill="midnightblue" stroke="midnightblue" points="94.113,-229.187 84.113,-232.687 94.1129,-236.187 94.113,-229.187"/>
</g>
<!-- Node3 -->
<g id="node3" class="node"><title>Node3</title>
<g id="a_node3"><a xlink:href="lcd_8c.html#a312eed1baec275e185dc00b760de1356" target="_top" xlink:title="lcd_init">
<polygon fill="white" stroke="black" points="274,-432.187 274,-451.187 321,-451.187 321,-432.187 274,-432.187"/>
<text text-anchor="middle" x="297.5" y="-439.187" font-family="Helvetica,sans-Serif" font-size="10.00">lcd_init</text>
</a>
</g>
</g>
<!-- Node2&#45;&gt;Node3 -->
<g id="edge2" class="edge"><title>Node2&#45;&gt;Node3</title>
<path fill="none" stroke="midnightblue" d="M166.782,-252.606C173.877,-289.747 193.964,-370.11 241,-417.687 249.93,-426.72 262.818,-432.576 273.926,-436.24"/>
<polygon fill="midnightblue" stroke="midnightblue" points="170.189,-251.778 164.982,-242.551 163.299,-253.011 170.189,-251.778"/>
</g>
<!-- Node4 -->
<g id="node4" class="node"><title>Node4</title>
<g id="a_node4"><a xlink:href="radio_8c.html#a3a1de7e31aabba6e408a633c130e618a" target="_top" xlink:title="radio_init">
<polygon fill="white" stroke="black" points="417,-394.187 417,-413.187 473,-413.187 473,-394.187 417,-394.187"/>
<text text-anchor="middle" x="445" y="-401.187" font-family="Helvetica,sans-Serif" font-size="10.00">radio_init</text>
</a>
</g>
</g>
<!-- Node2&#45;&gt;Node4 -->
<g id="edge22" class="edge"><title>Node2&#45;&gt;Node4</title>
<path fill="none" stroke="midnightblue" d="M168.251,-252.275C176.933,-283.527 198.512,-344.15 241,-373.687 294.531,-410.9 375.263,-410.24 416.952,-406.838"/>
<polygon fill="midnightblue" stroke="midnightblue" points="171.533,-250.993 165.621,-242.201 164.76,-252.761 171.533,-250.993"/>
</g>
<!-- Node6 -->
<g id="node6" class="node"><title>Node6</title>
<g id="a_node6"><a xlink:href="menu_8c.html#a5ca9d2cf65ffedfb30889ee21a6f7f3d" target="_top" xlink:title="menu_display">
<polygon fill="white" stroke="black" points="660,-71.187 660,-90.187 737,-90.187 737,-71.187 660,-71.187"/>
<text text-anchor="middle" x="698.5" y="-78.187" font-family="Helvetica,sans-Serif" font-size="10.00">menu_display</text>
</a>
</g>
</g>
<!-- Node2&#45;&gt;Node6 -->
<g id="edge5" class="edge"><title>Node2&#45;&gt;Node6</title>
<path fill="none" stroke="midnightblue" d="M164.72,-212.751C168.391,-172.415 183.018,-81.6566 241,-42.687 383.571,53.1343 610.542,-39.7955 677.99,-71.1755"/>
<polygon fill="midnightblue" stroke="midnightblue" points="161.216,-212.675 163.935,-222.915 168.195,-213.214 161.216,-212.675"/>
</g>
<!-- Node8 -->
<g id="node8" class="node"><title>Node8</title>
<g id="a_node8"><a xlink:href="menu_8c.html#a5621c1bf312de029f43808bf02dc52e3" target="_top" xlink:title="menu_scroll_settings">
<polygon fill="white" stroke="black" points="390.5,-242.187 390.5,-261.187 499.5,-261.187 499.5,-242.187 390.5,-242.187"/>
<text text-anchor="middle" x="445" y="-249.187" font-family="Helvetica,sans-Serif" font-size="10.00">menu_scroll_settings</text>
</a>
</g>
</g>
<!-- Node2&#45;&gt;Node8 -->
<g id="edge8" class="edge"><title>Node2&#45;&gt;Node8</title>
<path fill="none" stroke="midnightblue" d="M186.848,-247.637C201.707,-256.243 221.721,-266.215 241,-270.687 299.791,-284.325 370.317,-271.369 410.868,-261.193"/>
<polygon fill="midnightblue" stroke="midnightblue" points="188.261,-244.403 177.887,-242.25 184.654,-250.402 188.261,-244.403"/>
</g>
<!-- Node14 -->
<g id="node14" class="node"><title>Node14</title>
<g id="a_node14"><a xlink:href="menu_8c.html#a503ed2007daa6f20b2f748eedbcb8494" target="_top" xlink:title="menu_scroll">
<polygon fill="white" stroke="black" points="263,-242.187 263,-261.187 332,-261.187 332,-242.187 263,-242.187"/>
<text text-anchor="middle" x="297.5" y="-249.187" font-family="Helvetica,sans-Serif" font-size="10.00">menu_scroll</text>
</a>
</g>
</g>
<!-- Node2&#45;&gt;Node14 -->
<g id="edge17" class="edge"><title>Node2&#45;&gt;Node14</title>
<path fill="none" stroke="midnightblue" d="M215.488,-240.114C231.437,-242.392 248.557,-244.838 262.93,-246.891"/>
<polygon fill="midnightblue" stroke="midnightblue" points="215.612,-236.596 205.217,-238.647 214.622,-243.526 215.612,-236.596"/>
</g>
<!-- Node15 -->
<g id="node15" class="node"><title>Node15</title>
<g id="a_node15"><a xlink:href="radio__display_8c.html#aa568d26c43f1503a5f31c86aab080591" target="_top" xlink:title="radio_display_handler">
<polygon fill="white" stroke="black" points="390,-128.187 390,-147.187 500,-147.187 500,-128.187 390,-128.187"/>
<text text-anchor="middle" x="445" y="-135.187" font-family="Helvetica,sans-Serif" font-size="10.00">radio_display_handler</text>
</a>
</g>
</g>
<!-- Node2&#45;&gt;Node15 -->
<g id="edge33" class="edge"><title>Node2&#45;&gt;Node15</title>
<path fill="none" stroke="midnightblue" d="M215.371,-227.557C254.531,-222.455 309.02,-212.691 354,-194.687 384.22,-182.591 415.427,-160.186 431.98,-147.363"/>
<polygon fill="midnightblue" stroke="midnightblue" points="214.748,-224.108 205.257,-228.816 215.613,-231.054 214.748,-224.108"/>
</g>
<!-- Node17 -->
<g id="node17" class="node"><title>Node17</title>
<g id="a_node17"><a xlink:href="radio_8c.html#ac96da2886aec92b299b27b500761564c" target="_top" xlink:title="radio_auto_search">
<polygon fill="white" stroke="black" points="397,-356.187 397,-375.187 493,-375.187 493,-356.187 397,-356.187"/>
<text text-anchor="middle" x="445" y="-363.187" font-family="Helvetica,sans-Serif" font-size="10.00">radio_auto_search</text>
</a>
</g>
</g>
<!-- Node2&#45;&gt;Node17 -->
<g id="edge23" class="edge"><title>Node2&#45;&gt;Node17</title>
<path fill="none" stroke="midnightblue" d="M170.568,-252.159C181.301,-278.612 204.416,-325.078 241,-346.687 288.392,-374.68 353.11,-375.676 396.619,-372.144"/>
<polygon fill="midnightblue" stroke="midnightblue" points="173.699,-250.552 166.834,-242.482 167.169,-253.072 173.699,-250.552"/>
</g>
<!-- Node18 -->
<g id="node18" class="node"><title>Node18</title>
<g id="a_node18"><a xlink:href="radio__display_8c.html#ac056d01b161ce2b8c286190f619c94f8" target="_top" xlink:title="radio_display_speaker">
<polygon fill="white" stroke="black" points="241,-166.187 241,-185.187 354,-185.187 354,-166.187 241,-166.187"/>
<text text-anchor="middle" x="297.5" y="-173.187" font-family="Helvetica,sans-Serif" font-size="10.00">radio_display_speaker</text>
</a>
</g>
</g>
<!-- Node2&#45;&gt;Node18 -->
<g id="edge25" class="edge"><title>Node2&#45;&gt;Node18</title>
<path fill="none" stroke="midnightblue" d="M195.276,-219.069C219.608,-208.64 252.563,-194.517 274.166,-185.259"/>
<polygon fill="midnightblue" stroke="midnightblue" points="193.574,-215.99 185.761,-223.146 196.331,-222.424 193.574,-215.99"/>
</g>
<!-- Node19 -->
<g id="node19" class="node"><title>Node19</title>
<g id="a_node19"><a xlink:href="radio__display_8c.html#af1021ae1d01d874fb72c3ce3d1b29ad9" target="_top" xlink:title="radio_display_rds">
<polygon fill="white" stroke="black" points="251.5,-128.187 251.5,-147.187 343.5,-147.187 343.5,-128.187 251.5,-128.187"/>
<text text-anchor="middle" x="297.5" y="-135.187" font-family="Helvetica,sans-Serif" font-size="10.00">radio_display_rds</text>
</a>
</g>
</g>
<!-- Node2&#45;&gt;Node19 -->
<g id="edge27" class="edge"><title>Node2&#45;&gt;Node19</title>
<path fill="none" stroke="midnightblue" d="M177.399,-215.075C191.706,-198.004 215.46,-172.442 241,-156.687 247.068,-152.944 253.966,-149.828 260.789,-147.275"/>
<polygon fill="midnightblue" stroke="midnightblue" points="174.434,-213.173 170.819,-223.132 179.855,-217.601 174.434,-213.173"/>
</g>
<!-- Node20 -->
<g id="node20" class="node"><title>Node20</title>
<g id="a_node20"><a xlink:href="radio__display_8c.html#ab985392609874befae589a4e4ad57c86" target="_top" xlink:title="radio_display_pipty">
<polygon fill="white" stroke="black" points="247.5,-90.187 247.5,-109.187 347.5,-109.187 347.5,-90.187 247.5,-90.187"/>
<text text-anchor="middle" x="297.5" y="-97.187" font-family="Helvetica,sans-Serif" font-size="10.00">radio_display_pipty</text>
</a>
</g>
</g>
<!-- Node2&#45;&gt;Node20 -->
<g id="edge29" class="edge"><title>Node2&#45;&gt;Node20</title>
<path fill="none" stroke="midnightblue" d="M171.709,-213.638C183.5,-188.429 207.556,-144.206 241,-118.687 246.02,-114.857 251.864,-111.767 257.838,-109.284"/>
<polygon fill="midnightblue" stroke="midnightblue" points="168.463,-212.322 167.54,-222.876 174.843,-215.201 168.463,-212.322"/>
</g>
<!-- Node21 -->
<g id="node21" class="node"><title>Node21</title>
<g id="a_node21"><a xlink:href="radio__display_8c.html#aa113a6affc99d406e8c73fc800648cb3" target="_top" xlink:title="radio_display_rsq">
<polygon fill="white" stroke="black" points="251.5,-52.187 251.5,-71.187 343.5,-71.187 343.5,-52.187 251.5,-52.187"/>
<text text-anchor="middle" x="297.5" y="-59.187" font-family="Helvetica,sans-Serif" font-size="10.00">radio_display_rsq</text>
</a>
</g>
</g>
<!-- Node2&#45;&gt;Node21 -->
<g id="edge31" class="edge"><title>Node2&#45;&gt;Node21</title>
<path fill="none" stroke="midnightblue" d="M168.371,-212.938C177.314,-180.714 199.368,-116.802 241,-80.687 245.462,-76.8162 250.751,-73.7241 256.263,-71.2565"/>
<polygon fill="midnightblue" stroke="midnightblue" points="164.905,-212.356 165.744,-222.918 171.674,-214.138 164.905,-212.356"/>
</g>
<!-- Node22 -->
<g id="node22" class="node"><title>Node22</title>
<g id="a_node22"><a xlink:href="station__list_8h.html#a9797d901a4c549c775a7067eebf0a5c2" target="_top" xlink:title="station_list_display">
<polygon fill="white" stroke="black" points="247.5,-318.187 247.5,-337.187 347.5,-337.187 347.5,-318.187 247.5,-318.187"/>
<text text-anchor="middle" x="297.5" y="-325.187" font-family="Helvetica,sans-Serif" font-size="10.00">station_list_display</text>
</a>
</g>
</g>
<!-- Node2&#45;&gt;Node22 -->
<g id="edge34" class="edge"><title>Node2&#45;&gt;Node22</title>
<path fill="none" stroke="midnightblue" d="M179.091,-249.944C193.864,-265.528 217.265,-288.309 241,-303.687 249.81,-309.395 260.206,-314.306 269.604,-318.171"/>
<polygon fill="midnightblue" stroke="midnightblue" points="181.569,-247.469 172.197,-242.528 176.442,-252.235 181.569,-247.469"/>
</g>
<!-- Node3&#45;&gt;Node4 -->
<g id="edge3" class="edge"><title>Node3&#45;&gt;Node4</title>
<path fill="none" stroke="midnightblue" d="M330.963,-433.209C356.838,-426.451 392.643,-417.1 416.974,-410.745"/>
<polygon fill="midnightblue" stroke="midnightblue" points="330.025,-429.836 321.234,-435.749 331.794,-436.609 330.025,-429.836"/>
</g>
<!-- Node5 -->
<g id="node5" class="node"><title>Node5</title>
<g id="a_node5"><a xlink:href="main_8c.html#a840291bc02cba5474a4cb46a9b9566fe" target="_top" xlink:title="main">
<polygon fill="white" stroke="black" points="1002,-301.187 1002,-320.187 1040,-320.187 1040,-301.187 1002,-301.187"/>
<text text-anchor="middle" x="1021" y="-308.187" font-family="Helvetica,sans-Serif" font-size="10.00">main</text>
</a>
</g>
</g>
<!-- Node4&#45;&gt;Node5 -->
<g id="edge4" class="edge"><title>Node4&#45;&gt;Node5</title>
<path fill="none" stroke="midnightblue" d="M483.313,-403.687C532.421,-403.687 621.431,-403.687 697.5,-403.687 697.5,-403.687 697.5,-403.687 814,-403.687 894.441,-403.687 978.148,-344.051 1008.31,-320.289"/>
<polygon fill="midnightblue" stroke="midnightblue" points="483.168,-400.187 473.168,-403.687 483.168,-407.187 483.168,-400.187"/>
</g>
<!-- Node7 -->
<g id="node7" class="node"><title>Node7</title>
<g id="a_node7"><a xlink:href="menu_8c.html#aaf2a075d3159f7eeab42012941a3437f" target="_top" xlink:title="menu_handler">
<polygon fill="white" stroke="black" points="889,-209.187 889,-228.187 966,-228.187 966,-209.187 889,-209.187"/>
<text text-anchor="middle" x="927.5" y="-216.187" font-family="Helvetica,sans-Serif" font-size="10.00">menu_handler</text>
</a>
</g>
</g>
<!-- Node6&#45;&gt;Node7 -->
<g id="edge6" class="edge"><title>Node6&#45;&gt;Node7</title>
<path fill="none" stroke="midnightblue" d="M724.087,-95.6339C770.99,-124.148 872.026,-185.571 910.857,-209.177"/>
<polygon fill="midnightblue" stroke="midnightblue" points="725.825,-92.5949 715.462,-90.3909 722.189,-98.5763 725.825,-92.5949"/>
</g>
<!-- Node7&#45;&gt;Node5 -->
<g id="edge7" class="edge"><title>Node7&#45;&gt;Node5</title>
<path fill="none" stroke="midnightblue" d="M945.466,-235.746C964.537,-254.921 994.845,-285.394 1010.28,-300.912"/>
<polygon fill="midnightblue" stroke="midnightblue" points="947.826,-233.155 938.292,-228.533 942.862,-238.091 947.826,-233.155"/>
</g>
<!-- Node9 -->
<g id="node9" class="node"><title>Node9</title>
<g id="a_node9"><a xlink:href="radio_8c.html#a9dd33606330e2225b425000341cf4688" target="_top" xlink:title="radio_brightness">
<polygon fill="white" stroke="black" points="536,-242.187 536,-261.187 624,-261.187 624,-242.187 536,-242.187"/>
<text text-anchor="middle" x="580" y="-249.187" font-family="Helvetica,sans-Serif" font-size="10.00">radio_brightness</text>
</a>
</g>
</g>
<!-- Node8&#45;&gt;Node9 -->
<g id="edge9" class="edge"><title>Node8&#45;&gt;Node9</title>
<path fill="none" stroke="midnightblue" d="M509.911,-251.687C518.652,-251.687 527.453,-251.687 535.708,-251.687"/>
<polygon fill="midnightblue" stroke="midnightblue" points="509.713,-248.187 499.713,-251.687 509.713,-255.187 509.713,-248.187"/>
</g>
<!-- Node12 -->
<g id="node12" class="node"><title>Node12</title>
<g id="a_node12"><a xlink:href="radio_8c.html#aaf3f53dfebe8da71fbe4c457ffda6714" target="_top" xlink:title="radio_contrast">
<polygon fill="white" stroke="black" points="541,-204.187 541,-223.187 619,-223.187 619,-204.187 541,-204.187"/>
<text text-anchor="middle" x="580" y="-211.187" font-family="Helvetica,sans-Serif" font-size="10.00">radio_contrast</text>
</a>
</g>
</g>
<!-- Node8&#45;&gt;Node12 -->
<g id="edge13" class="edge"><title>Node8&#45;&gt;Node12</title>
<path fill="none" stroke="midnightblue" d="M489.367,-239.296C507.581,-234.092 528.439,-228.133 545.449,-223.273"/>
<polygon fill="midnightblue" stroke="midnightblue" points="488.215,-235.985 479.562,-242.098 490.138,-242.716 488.215,-235.985"/>
</g>
<!-- Node13 -->
<g id="node13" class="node"><title>Node13</title>
<g id="a_node13"><a xlink:href="radio_8c.html#afce06a210fd84b9acb905e8ab81feaeb" target="_top" xlink:title="radio_volume">
<polygon fill="white" stroke="black" points="543.5,-166.187 543.5,-185.187 616.5,-185.187 616.5,-166.187 543.5,-166.187"/>
<text text-anchor="middle" x="580" y="-173.187" font-family="Helvetica,sans-Serif" font-size="10.00">radio_volume</text>
</a>
</g>
</g>
<!-- Node8&#45;&gt;Node13 -->
<g id="edge15" class="edge"><title>Node8&#45;&gt;Node13</title>
<path fill="none" stroke="midnightblue" d="M468.204,-236.318C486.089,-224.262 512.102,-207.444 536,-194.687 542.192,-191.382 549.076,-188.153 555.489,-185.322"/>
<polygon fill="midnightblue" stroke="midnightblue" points="465.944,-233.622 459.646,-242.142 469.883,-239.409 465.944,-233.622"/>
</g>
<!-- Node10 -->
<g id="node10" class="node"><title>Node10</title>
<g id="a_node10"><a xlink:href="radio_8c.html#a832a684fc60104296fc975a7608f92b4" target="_top" xlink:title="radio_settings">
<polygon fill="white" stroke="black" points="660,-242.187 660,-261.187 737,-261.187 737,-242.187 660,-242.187"/>
<text text-anchor="middle" x="698.5" y="-249.187" font-family="Helvetica,sans-Serif" font-size="10.00">radio_settings</text>
</a>
</g>
</g>
<!-- Node9&#45;&gt;Node10 -->
<g id="edge10" class="edge"><title>Node9&#45;&gt;Node10</title>
<path fill="none" stroke="midnightblue" d="M634.168,-251.687C642.887,-251.687 651.76,-251.687 659.996,-251.687"/>
<polygon fill="midnightblue" stroke="midnightblue" points="634.049,-248.187 624.049,-251.687 634.049,-255.187 634.049,-248.187"/>
</g>
<!-- Node11 -->
<g id="node11" class="node"><title>Node11</title>
<g id="a_node11"><a xlink:href="menu_8c.html#a5d9c190838195d7872fc7067269e20fa" target="_top" xlink:title="menu_function">
<polygon fill="white" stroke="black" points="773,-209.187 773,-228.187 853,-228.187 853,-209.187 773,-209.187"/>
<text text-anchor="middle" x="813" y="-216.187" font-family="Helvetica,sans-Serif" font-size="10.00">menu_function</text>
</a>
</g>
</g>
<!-- Node10&#45;&gt;Node11 -->
<g id="edge11" class="edge"><title>Node10&#45;&gt;Node11</title>
<path fill="none" stroke="midnightblue" d="M741.797,-239.28C754.29,-235.615 767.763,-231.663 779.533,-228.21"/>
<polygon fill="midnightblue" stroke="midnightblue" points="740.65,-235.969 732.04,-242.142 742.621,-242.686 740.65,-235.969"/>
</g>
<!-- Node11&#45;&gt;Node7 -->
<g id="edge12" class="edge"><title>Node11&#45;&gt;Node7</title>
<path fill="none" stroke="midnightblue" d="M863.262,-218.687C871.783,-218.687 880.52,-218.687 888.676,-218.687"/>
<polygon fill="midnightblue" stroke="midnightblue" points="863.031,-215.187 853.031,-218.687 863.031,-222.187 863.031,-215.187"/>
</g>
<!-- Node12&#45;&gt;Node10 -->
<g id="edge14" class="edge"><title>Node12&#45;&gt;Node10</title>
<path fill="none" stroke="midnightblue" d="M620.322,-226.513C635.953,-231.612 653.626,-237.376 668.112,-242.101"/>
<polygon fill="midnightblue" stroke="midnightblue" points="620.99,-223.05 610.398,-223.276 618.82,-229.705 620.99,-223.05"/>
</g>
<!-- Node13&#45;&gt;Node10 -->
<g id="edge16" class="edge"><title>Node13&#45;&gt;Node10</title>
<path fill="none" stroke="midnightblue" d="M614.672,-189.607C617.879,-191.217 621.036,-192.919 624,-194.687 647.853,-208.915 672.833,-229.755 686.657,-241.899"/>
<polygon fill="midnightblue" stroke="midnightblue" points="616.162,-186.44 605.625,-185.336 613.174,-192.77 616.162,-186.44"/>
</g>
<!-- Node14&#45;&gt;Node8 -->
<g id="edge18" class="edge"><title>Node14&#45;&gt;Node8</title>
<path fill="none" stroke="midnightblue" d="M342.374,-251.687C357.521,-251.687 374.662,-251.687 390.493,-251.687"/>
<polygon fill="midnightblue" stroke="midnightblue" points="342.246,-248.187 332.246,-251.687 342.246,-255.187 342.246,-248.187"/>
</g>
<!-- Node14&#45;&gt;Node15 -->
<g id="edge19" class="edge"><title>Node14&#45;&gt;Node15</title>
<path fill="none" stroke="midnightblue" d="M335.411,-238.063C341.835,-235.045 348.283,-231.571 354,-227.687 389.093,-203.844 422.172,-165.141 436.517,-147.279"/>
<polygon fill="midnightblue" stroke="midnightblue" points="333.85,-234.925 326.103,-242.152 336.666,-241.334 333.85,-234.925"/>
</g>
<!-- Node16 -->
<g id="node16" class="node"><title>Node16</title>
<g id="a_node16"><a xlink:href="radio_8c.html#a5f7fcd9e9755fb5e22175a4ad74a5456" target="_top" xlink:title="radio_main">
<polygon fill="white" stroke="black" points="666.5,-166.187 666.5,-185.187 730.5,-185.187 730.5,-166.187 666.5,-166.187"/>
<text text-anchor="middle" x="698.5" y="-173.187" font-family="Helvetica,sans-Serif" font-size="10.00">radio_main</text>
</a>
</g>
</g>
<!-- Node15&#45;&gt;Node16 -->
<g id="edge20" class="edge"><title>Node15&#45;&gt;Node16</title>
<path fill="none" stroke="midnightblue" d="M510.303,-142.26C544.282,-145.253 586.59,-149.893 624,-156.687 638.005,-159.23 653.275,-163.009 666.25,-166.529"/>
<polygon fill="midnightblue" stroke="midnightblue" points="510.301,-138.748 500.04,-141.384 509.706,-145.722 510.301,-138.748"/>
</g>
<!-- Node16&#45;&gt;Node11 -->
<g id="edge21" class="edge"><title>Node16&#45;&gt;Node11</title>
<path fill="none" stroke="midnightblue" d="M734.127,-188.922C751.252,-195.468 771.532,-203.219 787.102,-209.171"/>
<polygon fill="midnightblue" stroke="midnightblue" points="735.058,-185.531 724.467,-185.23 732.559,-192.07 735.058,-185.531"/>
</g>
<!-- Node17&#45;&gt;Node10 -->
<g id="edge24" class="edge"><title>Node17&#45;&gt;Node10</title>
<path fill="none" stroke="midnightblue" d="M503.3,-370.679C539.996,-371.298 587.417,-367.117 624,-346.687 659.866,-326.657 684.057,-281.197 693.303,-261.307"/>
<polygon fill="midnightblue" stroke="midnightblue" points="503.35,-367.179 493.252,-370.386 503.146,-374.176 503.35,-367.179"/>
</g>
<!-- Node18&#45;&gt;Node15 -->
<g id="edge26" class="edge"><title>Node18&#45;&gt;Node15</title>
<path fill="none" stroke="midnightblue" d="M345.153,-163.503C365.353,-158.227 388.648,-152.143 407.548,-147.207"/>
<polygon fill="midnightblue" stroke="midnightblue" points="344.007,-160.185 335.216,-166.098 345.776,-166.957 344.007,-160.185"/>
</g>
<!-- Node19&#45;&gt;Node15 -->
<g id="edge28" class="edge"><title>Node19&#45;&gt;Node15</title>
<path fill="none" stroke="midnightblue" d="M353.895,-137.687C365.679,-137.687 378.108,-137.687 389.845,-137.687"/>
<polygon fill="midnightblue" stroke="midnightblue" points="353.74,-134.187 343.74,-137.687 353.74,-141.187 353.74,-134.187"/>
</g>
<!-- Node20&#45;&gt;Node15 -->
<g id="edge30" class="edge"><title>Node20&#45;&gt;Node15</title>
<path fill="none" stroke="midnightblue" d="M345.153,-111.871C365.353,-117.147 388.648,-123.231 407.548,-128.167"/>
<polygon fill="midnightblue" stroke="midnightblue" points="345.776,-108.417 335.216,-109.276 344.007,-115.189 345.776,-108.417"/>
</g>
<!-- Node21&#45;&gt;Node15 -->
<g id="edge32" class="edge"><title>Node21&#45;&gt;Node15</title>
<path fill="none" stroke="midnightblue" d="M340.297,-74.8043C344.984,-76.6252 349.638,-78.595 354,-80.687 383.017,-94.6037 414.167,-115.935 431.145,-128.172"/>
<polygon fill="midnightblue" stroke="midnightblue" points="341.304,-71.4458 330.711,-71.2842 338.891,-78.0168 341.304,-71.4458"/>
</g>
<!-- Node23 -->
<g id="node23" class="node"><title>Node23</title>
<g id="a_node23"><a xlink:href="station__list_8h.html#a5b16204c2b6824ce89364d614f074b20" target="_top" xlink:title="station_list_handler">
<polygon fill="white" stroke="black" points="394.5,-318.187 394.5,-337.187 495.5,-337.187 495.5,-318.187 394.5,-318.187"/>
<text text-anchor="middle" x="445" y="-325.187" font-family="Helvetica,sans-Serif" font-size="10.00">station_list_handler</text>
</a>
</g>
</g>
<!-- Node22&#45;&gt;Node23 -->
<g id="edge35" class="edge"><title>Node22&#45;&gt;Node23</title>
<path fill="none" stroke="midnightblue" d="M357.79,-327.687C369.912,-327.687 382.551,-327.687 394.296,-327.687"/>
<polygon fill="midnightblue" stroke="midnightblue" points="357.76,-324.187 347.76,-327.687 357.76,-331.187 357.76,-324.187"/>
</g>
<!-- Node23&#45;&gt;Node10 -->
<g id="edge36" class="edge"><title>Node23&#45;&gt;Node10</title>
<path fill="none" stroke="midnightblue" d="M487.451,-315.161C537.515,-300.032 620.621,-274.919 665.833,-261.256"/>
<polygon fill="midnightblue" stroke="midnightblue" points="486.158,-311.895 477.598,-318.138 488.183,-318.596 486.158,-311.895"/>
</g>
<!-- Node24 -->
<g id="node24" class="node"><title>Node24</title>
<g id="a_node24"><a xlink:href="radio_8c.html#aae41d271062b3f94cccf4fb5996b04a2" target="_top" xlink:title="radio_frequency">
<polygon fill="white" stroke="black" points="537.5,-318.187 537.5,-337.187 622.5,-337.187 622.5,-318.187 537.5,-318.187"/>
<text text-anchor="middle" x="580" y="-325.187" font-family="Helvetica,sans-Serif" font-size="10.00">radio_frequency</text>
</a>
</g>
</g>
<!-- Node23&#45;&gt;Node24 -->
<g id="edge37" class="edge"><title>Node23&#45;&gt;Node24</title>
<path fill="none" stroke="midnightblue" d="M505.651,-327.687C516.327,-327.687 527.241,-327.687 537.277,-327.687"/>
<polygon fill="midnightblue" stroke="midnightblue" points="505.524,-324.187 495.524,-327.687 505.524,-331.187 505.524,-324.187"/>
</g>
<!-- Node24&#45;&gt;Node10 -->
<g id="edge38" class="edge"><title>Node24&#45;&gt;Node10</title>
<path fill="none" stroke="midnightblue" d="M607.988,-313.203C613.354,-310.162 618.903,-306.899 624,-303.687 645.951,-289.851 670.339,-272.094 684.774,-261.319"/>
<polygon fill="midnightblue" stroke="midnightblue" points="606.282,-310.147 599.242,-318.065 609.683,-316.266 606.282,-310.147"/>
</g>
</g>
</svg>
