<?xml version="1.0" encoding="UTF-8" standalone="no"?>
<!DOCTYPE svg PUBLIC "-//W3C//DTD SVG 1.1//EN"
 "http://www.w3.org/Graphics/SVG/1.1/DTD/svg11.dtd">
<!-- Generated by graphviz version 2.38.0 (20140413.2041)
 -->
<!-- Title: lcd_set_courser Pages: 1 -->
<!--zoomable 460 -->
<svg id="main" version="1.1" xmlns="http://www.w3.org/2000/svg" xmlns:xlink="http://www.w3.org/1999/xlink" xml:space="preserve" onload="init(evt)">
<style type="text/css"><![CDATA[
.edge:hover path { stroke: red; }
.edge:hover polygon { stroke: red; fill: red; }
]]></style>
<script type="text/javascript"><![CDATA[
var edges = document.getElementsByTagName('g');
if (edges && edges.length) {
  for (var i=0;i<edges.length;i++) {
    if (edges[i].id.substr(0,4)=='edge') {
      edges[i].setAttribute('class','edge');
    }
  }
}
]]></script>
        <defs>
                <circle id="rim" cx="0" cy="0" r="7"/>
                <circle id="rim2" cx="0" cy="0" r="3.5"/>
                <g id="zoomPlus">
                        <use xlink:href="#rim" fill="#404040">
                                <set attributeName="fill" to="#808080" begin="zoomplus.mouseover" end="zoomplus.mouseout"/>
                        </use>
                        <path d="M-4,0h8M0,-4v8" fill="none" stroke="white" stroke-width="1.5" pointer-events="none"/>
                </g>
                <g id="zoomMin">
                        <use xlink:href="#rim" fill="#404040">
                                <set attributeName="fill" to="#808080" begin="zoomminus.mouseover" end="zoomminus.mouseout"/>
                        </use>
                        <path d="M-4,0h8" fill="none" stroke="white" stroke-width="1.5" pointer-events="none"/>
                </g>
                <g id="dirArrow">
                        <path fill="none" stroke="white" stroke-width="1.5" d="M0,-3.0v7 M-2.5,-0.5L0,-3.0L2.5,-0.5"/>
                </g>
               <g id="resetDef">
                       <use xlink:href="#rim2" fill="#404040">
                               <set attributeName="fill" to="#808080" begin="reset.mouseover" end="reset.mouseout"/>
                       </use>
               </g>
        </defs>

<script type="text/javascript">
var viewWidth = 1050;
var viewHeight = 460;
var sectionId = 'dynsection-15';
</script>
<script xlink:href="svgpan.js"/>
<svg id="graph" class="graph">
<g id="viewport">
<title>lcd_set_courser</title>
<polygon fill="white" stroke="none" points="-4,4 -4,-455.687 1046,-455.687 1046,4 -4,4"/>
<!-- Node1 -->
<g id="node1" class="node"><title>Node1</title>
<polygon fill="#bfbfbf" stroke="black" points="0,-223.187 0,-242.187 86,-242.187 86,-223.187 0,-223.187"/>
<text text-anchor="middle" x="43" y="-230.187" font-family="Helvetica,sans-Serif" font-size="10.00">lcd_set_courser</text>
</g>
<!-- Node2 -->
<g id="node2" class="node"><title>Node2</title>
<g id="a_node2"><a xlink:href="lcd_8c.html#acd63fb85d212730fa4fcbcbeeccd231e" target="_top" xlink:title="lcd_create_view">
<polygon fill="white" stroke="black" points="122,-223.187 122,-242.187 207,-242.187 207,-223.187 122,-223.187"/>
<text text-anchor="middle" x="164.5" y="-230.187" font-family="Helvetica,sans-Serif" font-size="10.00">lcd_create_view</text>
</a>
</g>
</g>
<!-- Node1&#45;&gt;Node2 -->
<g id="edge1" class="edge"><title>Node1&#45;&gt;Node2</title>
<path fill="none" stroke="midnightblue" d="M96.349,-232.687C104.847,-232.687 113.548,-232.687 121.749,-232.687"/>
<polygon fill="midnightblue" stroke="midnightblue" points="96.1313,-229.187 86.1312,-232.687 96.1312,-236.187 96.1313,-229.187"/>
</g>
<!-- Node3 -->
<g id="node3" class="node"><title>Node3</title>
<g id="a_node3"><a xlink:href="lcd_8c.html#a312eed1baec275e185dc00b760de1356" target="_top" xlink:title="lcd_init">
<polygon fill="white" stroke="black" points="276,-432.187 276,-451.187 323,-451.187 323,-432.187 276,-432.187"/>
<text text-anchor="middle" x="299.5" y="-439.187" font-family="Helvetica,sans-Serif" font-size="10.00">lcd_init</text>
</a>
</g>
</g>
<!-- Node2&#45;&gt;Node3 -->
<g id="edge2" class="edge"><title>Node2&#45;&gt;Node3</title>
<path fill="none" stroke="midnightblue" d="M168.782,-252.606C175.877,-289.747 195.964,-370.11 243,-417.687 251.93,-426.72 264.818,-432.576 275.926,-436.24"/>
<polygon fill="midnightblue" stroke="midnightblue" points="172.189,-251.778 166.982,-242.551 165.299,-253.011 172.189,-251.778"/>
</g>
<!-- Node4 -->
<g id="node4" class="node"><title>Node4</title>
<g id="a_node4"><a xlink:href="radio_8c.html#a3a1de7e31aabba6e408a633c130e618a" target="_top" xlink:title="radio_init">
<polygon fill="white" stroke="black" points="419,-394.187 419,-413.187 475,-413.187 475,-394.187 419,-394.187"/>
<text text-anchor="middle" x="447" y="-401.187" font-family="Helvetica,sans-Serif" font-size="10.00">radio_init</text>
</a>
</g>
</g>
<!-- Node2&#45;&gt;Node4 -->
<g id="edge22" class="edge"><title>Node2&#45;&gt;Node4</title>
<path fill="none" stroke="midnightblue" d="M170.251,-252.275C178.933,-283.527 200.512,-344.15 243,-373.687 296.531,-410.9 377.263,-410.24 418.952,-406.838"/>
<polygon fill="midnightblue" stroke="midnightblue" points="173.533,-250.993 167.621,-242.201 166.76,-252.761 173.533,-250.993"/>
</g>
<!-- Node6 -->
<g id="node6" class="node"><title>Node6</title>
<g id="a_node6"><a xlink:href="menu_8c.html#a5ca9d2cf65ffedfb30889ee21a6f7f3d" target="_top" xlink:title="menu_display">
<polygon fill="white" stroke="black" points="662,-71.187 662,-90.187 739,-90.187 739,-71.187 662,-71.187"/>
<text text-anchor="middle" x="700.5" y="-78.187" font-family="Helvetica,sans-Serif" font-size="10.00">menu_display</text>
</a>
</g>
</g>
<!-- Node2&#45;&gt;Node6 -->
<g id="edge5" class="edge"><title>Node2&#45;&gt;Node6</title>
<path fill="none" stroke="midnightblue" d="M166.72,-212.751C170.391,-172.415 185.018,-81.6566 243,-42.687 385.571,53.1343 612.542,-39.7955 679.99,-71.1755"/>
<polygon fill="midnightblue" stroke="midnightblue" points="163.216,-212.675 165.935,-222.915 170.195,-213.214 163.216,-212.675"/>
</g>
<!-- Node8 -->
<g id="node8" class="node"><title>Node8</title>
<g id="a_node8"><a xlink:href="menu_8c.html#a5621c1bf312de029f43808bf02dc52e3" target="_top" xlink:title="menu_scroll_settings">
<polygon fill="white" stroke="black" points="392.5,-242.187 392.5,-261.187 501.5,-261.187 501.5,-242.187 392.5,-242.187"/>
<text text-anchor="middle" x="447" y="-249.187" font-family="Helvetica,sans-Serif" font-size="10.00">menu_scroll_settings</text>
</a>
</g>
</g>
<!-- Node2&#45;&gt;Node8 -->
<g id="edge8" class="edge"><title>Node2&#45;&gt;Node8</title>
<path fill="none" stroke="midnightblue" d="M188.848,-247.637C203.707,-256.243 223.721,-266.215 243,-270.687 301.791,-284.325 372.317,-271.369 412.868,-261.193"/>
<polygon fill="midnightblue" stroke="midnightblue" points="190.261,-244.403 179.887,-242.25 186.654,-250.402 190.261,-244.403"/>
</g>
<!-- Node14 -->
<g id="node14" class="node"><title>Node14</title>
<g id="a_node14"><a xlink:href="menu_8c.html#a503ed2007daa6f20b2f748eedbcb8494" target="_top" xlink:title="menu_scroll">
<polygon fill="white" stroke="black" points="265,-242.187 265,-261.187 334,-261.187 334,-242.187 265,-242.187"/>
<text text-anchor="middle" x="299.5" y="-249.187" font-family="Helvetica,sans-Serif" font-size="10.00">menu_scroll</text>
</a>
</g>
</g>
<!-- Node2&#45;&gt;Node14 -->
<g id="edge17" class="edge"><title>Node2&#45;&gt;Node14</title>
<path fill="none" stroke="midnightblue" d="M217.488,-240.114C233.437,-242.392 250.557,-244.838 264.93,-246.891"/>
<polygon fill="midnightblue" stroke="midnightblue" points="217.612,-236.596 207.217,-238.647 216.622,-243.526 217.612,-236.596"/>
</g>
<!-- Node15 -->
<g id="node15" class="node"><title>Node15</title>
<g id="a_node15"><a xlink:href="radio__display_8c.html#aa568d26c43f1503a5f31c86aab080591" target="_top" xlink:title="radio_display_handler">
<polygon fill="white" stroke="black" points="392,-128.187 392,-147.187 502,-147.187 502,-128.187 392,-128.187"/>
<text text-anchor="middle" x="447" y="-135.187" font-family="Helvetica,sans-Serif" font-size="10.00">radio_display_handler</text>
</a>
</g>
</g>
<!-- Node2&#45;&gt;Node15 -->
<g id="edge33" class="edge"><title>Node2&#45;&gt;Node15</title>
<path fill="none" stroke="midnightblue" d="M217.371,-227.557C256.531,-222.455 311.02,-212.691 356,-194.687 386.22,-182.591 417.427,-160.186 433.98,-147.363"/>
<polygon fill="midnightblue" stroke="midnightblue" points="216.748,-224.108 207.257,-228.816 217.613,-231.054 216.748,-224.108"/>
</g>
<!-- Node17 -->
<g id="node17" class="node"><title>Node17</title>
<g id="a_node17"><a xlink:href="radio_8c.html#ac96da2886aec92b299b27b500761564c" target="_top" xlink:title="radio_auto_search">
<polygon fill="white" stroke="black" points="399,-356.187 399,-375.187 495,-375.187 495,-356.187 399,-356.187"/>
<text text-anchor="middle" x="447" y="-363.187" font-family="Helvetica,sans-Serif" font-size="10.00">radio_auto_search</text>
</a>
</g>
</g>
<!-- Node2&#45;&gt;Node17 -->
<g id="edge23" class="edge"><title>Node2&#45;&gt;Node17</title>
<path fill="none" stroke="midnightblue" d="M172.568,-252.159C183.301,-278.612 206.416,-325.078 243,-346.687 290.392,-374.68 355.11,-375.676 398.619,-372.144"/>
<polygon fill="midnightblue" stroke="midnightblue" points="175.699,-250.552 168.834,-242.482 169.169,-253.072 175.699,-250.552"/>
</g>
<!-- Node18 -->
<g id="node18" class="node"><title>Node18</title>
<g id="a_node18"><a xlink:href="radio__display_8c.html#ac056d01b161ce2b8c286190f619c94f8" target="_top" xlink:title="radio_display_speaker">
<polygon fill="white" stroke="black" points="243,-166.187 243,-185.187 356,-185.187 356,-166.187 243,-166.187"/>
<text text-anchor="middle" x="299.5" y="-173.187" font-family="Helvetica,sans-Serif" font-size="10.00">radio_display_speaker</text>
</a>
</g>
</g>
<!-- Node2&#45;&gt;Node18 -->
<g id="edge25" class="edge"><title>Node2&#45;&gt;Node18</title>
<path fill="none" stroke="midnightblue" d="M197.276,-219.069C221.608,-208.64 254.563,-194.517 276.166,-185.259"/>
<polygon fill="midnightblue" stroke="midnightblue" points="195.574,-215.99 187.761,-223.146 198.331,-222.424 195.574,-215.99"/>
</g>
<!-- Node19 -->
<g id="node19" class="node"><title>Node19</title>
<g id="a_node19"><a xlink:href="radio__display_8c.html#af1021ae1d01d874fb72c3ce3d1b29ad9" target="_top" xlink:title="radio_display_rds">
<polygon fill="white" stroke="black" points="253.5,-128.187 253.5,-147.187 345.5,-147.187 345.5,-128.187 253.5,-128.187"/>
<text text-anchor="middle" x="299.5" y="-135.187" font-family="Helvetica,sans-Serif" font-size="10.00">radio_display_rds</text>
</a>
</g>
</g>
<!-- Node2&#45;&gt;Node19 -->
<g id="edge27" class="edge"><title>Node2&#45;&gt;Node19</title>
<path fill="none" stroke="midnightblue" d="M179.399,-215.075C193.706,-198.004 217.46,-172.442 243,-156.687 249.068,-152.944 255.966,-149.828 262.789,-147.275"/>
<polygon fill="midnightblue" stroke="midnightblue" points="176.434,-213.173 172.819,-223.132 181.855,-217.601 176.434,-213.173"/>
</g>
<!-- Node20 -->
<g id="node20" class="node"><title>Node20</title>
<g id="a_node20"><a xlink:href="radio__display_8c.html#ab985392609874befae589a4e4ad57c86" target="_top" xlink:title="radio_display_pipty">
<polygon fill="white" stroke="black" points="249.5,-90.187 249.5,-109.187 349.5,-109.187 349.5,-90.187 249.5,-90.187"/>
<text text-anchor="middle" x="299.5" y="-97.187" font-family="Helvetica,sans-Serif" font-size="10.00">radio_display_pipty</text>
</a>
</g>
</g>
<!-- Node2&#45;&gt;Node20 -->
<g id="edge29" class="edge"><title>Node2&#45;&gt;Node20</title>
<path fill="none" stroke="midnightblue" d="M173.709,-213.638C185.5,-188.429 209.556,-144.206 243,-118.687 248.02,-114.857 253.864,-111.767 259.838,-109.284"/>
<polygon fill="midnightblue" stroke="midnightblue" points="170.463,-212.322 169.54,-222.876 176.843,-215.201 170.463,-212.322"/>
</g>
<!-- Node21 -->
<g id="node21" class="node"><title>Node21</title>
<g id="a_node21"><a xlink:href="radio__display_8c.html#aa113a6affc99d406e8c73fc800648cb3" target="_top" xlink:title="radio_display_rsq">
<polygon fill="white" stroke="black" points="253.5,-52.187 253.5,-71.187 345.5,-71.187 345.5,-52.187 253.5,-52.187"/>
<text text-anchor="middle" x="299.5" y="-59.187" font-family="Helvetica,sans-Serif" font-size="10.00">radio_display_rsq</text>
</a>
</g>
</g>
<!-- Node2&#45;&gt;Node21 -->
<g id="edge31" class="edge"><title>Node2&#45;&gt;Node21</title>
<path fill="none" stroke="midnightblue" d="M170.371,-212.938C179.314,-180.714 201.368,-116.802 243,-80.687 247.462,-76.8162 252.751,-73.7241 258.263,-71.2565"/>
<polygon fill="midnightblue" stroke="midnightblue" points="166.905,-212.356 167.744,-222.918 173.674,-214.138 166.905,-212.356"/>
</g>
<!-- Node22 -->
<g id="node22" class="node"><title>Node22</title>
<g id="a_node22"><a xlink:href="station__list_8h.html#a9797d901a4c549c775a7067eebf0a5c2" target="_top" xlink:title="station_list_display">
<polygon fill="white" stroke="black" points="249.5,-318.187 249.5,-337.187 349.5,-337.187 349.5,-318.187 249.5,-318.187"/>
<text text-anchor="middle" x="299.5" y="-325.187" font-family="Helvetica,sans-Serif" font-size="10.00">station_list_display</text>
</a>
</g>
</g>
<!-- Node2&#45;&gt;Node22 -->
<g id="edge34" class="edge"><title>Node2&#45;&gt;Node22</title>
<path fill="none" stroke="midnightblue" d="M181.091,-249.944C195.864,-265.528 219.265,-288.309 243,-303.687 251.81,-309.395 262.206,-314.306 271.604,-318.171"/>
<polygon fill="midnightblue" stroke="midnightblue" points="183.569,-247.469 174.197,-242.528 178.442,-252.235 183.569,-247.469"/>
</g>
<!-- Node3&#45;&gt;Node4 -->
<g id="edge3" class="edge"><title>Node3&#45;&gt;Node4</title>
<path fill="none" stroke="midnightblue" d="M332.963,-433.209C358.838,-426.451 394.643,-417.1 418.974,-410.745"/>
<polygon fill="midnightblue" stroke="midnightblue" points="332.025,-429.836 323.234,-435.749 333.794,-436.609 332.025,-429.836"/>
</g>
<!-- Node5 -->
<g id="node5" class="node"><title>Node5</title>
<g id="a_node5"><a xlink:href="main_8c.html#a840291bc02cba5474a4cb46a9b9566fe" target="_top" xlink:title="main">
<polygon fill="white" stroke="black" points="1004,-301.187 1004,-320.187 1042,-320.187 1042,-301.187 1004,-301.187"/>
<text text-anchor="middle" x="1023" y="-308.187" font-family="Helvetica,sans-Serif" font-size="10.00">main</text>
</a>
</g>
</g>
<!-- Node4&#45;&gt;Node5 -->
<g id="edge4" class="edge"><title>Node4&#45;&gt;Node5</title>
<path fill="none" stroke="midnightblue" d="M485.313,-403.687C534.421,-403.687 623.431,-403.687 699.5,-403.687 699.5,-403.687 699.5,-403.687 816,-403.687 896.441,-403.687 980.148,-344.051 1010.31,-320.289"/>
<polygon fill="midnightblue" stroke="midnightblue" points="485.168,-400.187 475.168,-403.687 485.168,-407.187 485.168,-400.187"/>
</g>
<!-- Node7 -->
<g id="node7" class="node"><title>Node7</title>
<g id="a_node7"><a xlink:href="menu_8c.html#aaf2a075d3159f7eeab42012941a3437f" target="_top" xlink:title="menu_handler">
<polygon fill="white" stroke="black" points="891,-209.187 891,-228.187 968,-228.187 968,-209.187 891,-209.187"/>
<text text-anchor="middle" x="929.5" y="-216.187" font-family="Helvetica,sans-Serif" font-size="10.00">menu_handler</text>
</a>
</g>
</g>
<!-- Node6&#45;&gt;Node7 -->
<g id="edge6" class="edge"><title>Node6&#45;&gt;Node7</title>
<path fill="none" stroke="midnightblue" d="M726.087,-95.6339C772.99,-124.148 874.026,-185.571 912.857,-209.177"/>
<polygon fill="midnightblue" stroke="midnightblue" points="727.825,-92.5949 717.462,-90.3909 724.189,-98.5763 727.825,-92.5949"/>
</g>
<!-- Node7&#45;&gt;Node5 -->
<g id="edge7" class="edge"><title>Node7&#45;&gt;Node5</title>
<path fill="none" stroke="midnightblue" d="M947.466,-235.746C966.537,-254.921 996.845,-285.394 1012.28,-300.912"/>
<polygon fill="midnightblue" stroke="midnightblue" points="949.826,-233.155 940.292,-228.533 944.862,-238.091 949.826,-233.155"/>
</g>
<!-- Node9 -->
<g id="node9" class="node"><title>Node9</title>
<g id="a_node9"><a xlink:href="radio_8c.html#a9dd33606330e2225b425000341cf4688" target="_top" xlink:title="radio_brightness">
<polygon fill="white" stroke="black" points="538,-242.187 538,-261.187 626,-261.187 626,-242.187 538,-242.187"/>
<text text-anchor="middle" x="582" y="-249.187" font-family="Helvetica,sans-Serif" font-size="10.00">radio_brightness</text>
</a>
</g>
</g>
<!-- Node8&#45;&gt;Node9 -->
<g id="edge9" class="edge"><title>Node8&#45;&gt;Node9</title>
<path fill="none" stroke="midnightblue" d="M511.911,-251.687C520.652,-251.687 529.453,-251.687 537.708,-251.687"/>
<polygon fill="midnightblue" stroke="midnightblue" points="511.713,-248.187 501.713,-251.687 511.713,-255.187 511.713,-248.187"/>
</g>
<!-- Node12 -->
<g id="node12" class="node"><title>Node12</title>
<g id="a_node12"><a xlink:href="radio_8c.html#aaf3f53dfebe8da71fbe4c457ffda6714" target="_top" xlink:title="radio_contrast">
<polygon fill="white" stroke="black" points="543,-204.187 543,-223.187 621,-223.187 621,-204.187 543,-204.187"/>
<text text-anchor="middle" x="582" y="-211.187" font-family="Helvetica,sans-Serif" font-size="10.00">radio_contrast</text>
</a>
</g>
</g>
<!-- Node8&#45;&gt;Node12 -->
<g id="edge13" class="edge"><title>Node8&#45;&gt;Node12</title>
<path fill="none" stroke="midnightblue" d="M491.367,-239.296C509.581,-234.092 530.439,-228.133 547.449,-223.273"/>
<polygon fill="midnightblue" stroke="midnightblue" points="490.215,-235.985 481.562,-242.098 492.138,-242.716 490.215,-235.985"/>
</g>
<!-- Node13 -->
<g id="node13" class="node"><title>Node13</title>
<g id="a_node13"><a xlink:href="radio_8c.html#afce06a210fd84b9acb905e8ab81feaeb" target="_top" xlink:title="radio_volume">
<polygon fill="white" stroke="black" points="545.5,-166.187 545.5,-185.187 618.5,-185.187 618.5,-166.187 545.5,-166.187"/>
<text text-anchor="middle" x="582" y="-173.187" font-family="Helvetica,sans-Serif" font-size="10.00">radio_volume</text>
</a>
</g>
</g>
<!-- Node8&#45;&gt;Node13 -->
<g id="edge15" class="edge"><title>Node8&#45;&gt;Node13</title>
<path fill="none" stroke="midnightblue" d="M470.204,-236.318C488.089,-224.262 514.102,-207.444 538,-194.687 544.192,-191.382 551.076,-188.153 557.489,-185.322"/>
<polygon fill="midnightblue" stroke="midnightblue" points="467.944,-233.622 461.646,-242.142 471.883,-239.409 467.944,-233.622"/>
</g>
<!-- Node10 -->
<g id="node10" class="node"><title>Node10</title>
<g id="a_node10"><a xlink:href="radio_8c.html#a832a684fc60104296fc975a7608f92b4" target="_top" xlink:title="radio_settings">
<polygon fill="white" stroke="black" points="662,-242.187 662,-261.187 739,-261.187 739,-242.187 662,-242.187"/>
<text text-anchor="middle" x="700.5" y="-249.187" font-family="Helvetica,sans-Serif" font-size="10.00">radio_settings</text>
</a>
</g>
</g>
<!-- Node9&#45;&gt;Node10 -->
<g id="edge10" class="edge"><title>Node9&#45;&gt;Node10</title>
<path fill="none" stroke="midnightblue" d="M636.168,-251.687C644.887,-251.687 653.76,-251.687 661.996,-251.687"/>
<polygon fill="midnightblue" stroke="midnightblue" points="636.049,-248.187 626.049,-251.687 636.049,-255.187 636.049,-248.187"/>
</g>
<!-- Node11 -->
<g id="node11" class="node"><title>Node11</title>
<g id="a_node11"><a xlink:href="menu_8c.html#a5d9c190838195d7872fc7067269e20fa" target="_top" xlink:title="menu_function">
<polygon fill="white" stroke="black" points="775,-209.187 775,-228.187 855,-228.187 855,-209.187 775,-209.187"/>
<text text-anchor="middle" x="815" y="-216.187" font-family="Helvetica,sans-Serif" font-size="10.00">menu_function</text>
</a>
</g>
</g>
<!-- Node10&#45;&gt;Node11 -->
<g id="edge11" class="edge"><title>Node10&#45;&gt;Node11</title>
<path fill="none" stroke="midnightblue" d="M743.797,-239.28C756.29,-235.615 769.763,-231.663 781.533,-228.21"/>
<polygon fill="midnightblue" stroke="midnightblue" points="742.65,-235.969 734.04,-242.142 744.621,-242.686 742.65,-235.969"/>
</g>
<!-- Node11&#45;&gt;Node7 -->
<g id="edge12" class="edge"><title>Node11&#45;&gt;Node7</title>
<path fill="none" stroke="midnightblue" d="M865.262,-218.687C873.783,-218.687 882.52,-218.687 890.676,-218.687"/>
<polygon fill="midnightblue" stroke="midnightblue" points="865.031,-215.187 855.031,-218.687 865.031,-222.187 865.031,-215.187"/>
</g>
<!-- Node12&#45;&gt;Node10 -->
<g id="edge14" class="edge"><title>Node12&#45;&gt;Node10</title>
<path fill="none" stroke="midnightblue" d="M622.322,-226.513C637.953,-231.612 655.626,-237.376 670.112,-242.101"/>
<polygon fill="midnightblue" stroke="midnightblue" points="622.99,-223.05 612.398,-223.276 620.82,-229.705 622.99,-223.05"/>
</g>
<!-- Node13&#45;&gt;Node10 -->
<g id="edge16" class="edge"><title>Node13&#45;&gt;Node10</title>
<path fill="none" stroke="midnightblue" d="M616.672,-189.607C619.879,-191.217 623.036,-192.919 626,-194.687 649.853,-208.915 674.833,-229.755 688.657,-241.899"/>
<polygon fill="midnightblue" stroke="midnightblue" points="618.162,-186.44 607.625,-185.336 615.174,-192.77 618.162,-186.44"/>
</g>
<!-- Node14&#45;&gt;Node8 -->
<g id="edge18" class="edge"><title>Node14&#45;&gt;Node8</title>
<path fill="none" stroke="midnightblue" d="M344.374,-251.687C359.521,-251.687 376.662,-251.687 392.493,-251.687"/>
<polygon fill="midnightblue" stroke="midnightblue" points="344.246,-248.187 334.246,-251.687 344.246,-255.187 344.246,-248.187"/>
</g>
<!-- Node14&#45;&gt;Node15 -->
<g id="edge19" class="edge"><title>Node14&#45;&gt;Node15</title>
<path fill="none" stroke="midnightblue" d="M337.411,-238.063C343.835,-235.045 350.283,-231.571 356,-227.687 391.093,-203.844 424.172,-165.141 438.517,-147.279"/>
<polygon fill="midnightblue" stroke="midnightblue" points="335.85,-234.925 328.103,-242.152 338.666,-241.334 335.85,-234.925"/>
</g>
<!-- Node16 -->
<g id="node16" class="node"><title>Node16</title>
<g id="a_node16"><a xlink:href="radio_8c.html#a5f7fcd9e9755fb5e22175a4ad74a5456" target="_top" xlink:title="radio_main">
<polygon fill="white" stroke="black" points="668.5,-166.187 668.5,-185.187 732.5,-185.187 732.5,-166.187 668.5,-166.187"/>
<text text-anchor="middle" x="700.5" y="-173.187" font-family="Helvetica,sans-Serif" font-size="10.00">radio_main</text>
</a>
</g>
</g>
<!-- Node15&#45;&gt;Node16 -->
<g id="edge20" class="edge"><title>Node15&#45;&gt;Node16</title>
<path fill="none" stroke="midnightblue" d="M512.303,-142.26C546.282,-145.253 588.59,-149.893 626,-156.687 640.005,-159.23 655.275,-163.009 668.25,-166.529"/>
<polygon fill="midnightblue" stroke="midnightblue" points="512.301,-138.748 502.04,-141.384 511.706,-145.722 512.301,-138.748"/>
</g>
<!-- Node16&#45;&gt;Node11 -->
<g id="edge21" class="edge"><title>Node16&#45;&gt;Node11</title>
<path fill="none" stroke="midnightblue" d="M736.127,-188.922C753.252,-195.468 773.532,-203.219 789.102,-209.171"/>
<polygon fill="midnightblue" stroke="midnightblue" points="737.058,-185.531 726.467,-185.23 734.559,-192.07 737.058,-185.531"/>
</g>
<!-- Node17&#45;&gt;Node10 -->
<g id="edge24" class="edge"><title>Node17&#45;&gt;Node10</title>
<path fill="none" stroke="midnightblue" d="M505.3,-370.679C541.996,-371.298 589.417,-367.117 626,-346.687 661.866,-326.657 686.057,-281.197 695.303,-261.307"/>
<polygon fill="midnightblue" stroke="midnightblue" points="505.35,-367.179 495.252,-370.386 505.146,-374.176 505.35,-367.179"/>
</g>
<!-- Node18&#45;&gt;Node15 -->
<g id="edge26" class="edge"><title>Node18&#45;&gt;Node15</title>
<path fill="none" stroke="midnightblue" d="M347.153,-163.503C367.353,-158.227 390.648,-152.143 409.548,-147.207"/>
<polygon fill="midnightblue" stroke="midnightblue" points="346.007,-160.185 337.216,-166.098 347.776,-166.957 346.007,-160.185"/>
</g>
<!-- Node19&#45;&gt;Node15 -->
<g id="edge28" class="edge"><title>Node19&#45;&gt;Node15</title>
<path fill="none" stroke="midnightblue" d="M355.895,-137.687C367.679,-137.687 380.108,-137.687 391.845,-137.687"/>
<polygon fill="midnightblue" stroke="midnightblue" points="355.74,-134.187 345.74,-137.687 355.74,-141.187 355.74,-134.187"/>
</g>
<!-- Node20&#45;&gt;Node15 -->
<g id="edge30" class="edge"><title>Node20&#45;&gt;Node15</title>
<path fill="none" stroke="midnightblue" d="M347.153,-111.871C367.353,-117.147 390.648,-123.231 409.548,-128.167"/>
<polygon fill="midnightblue" stroke="midnightblue" points="347.776,-108.417 337.216,-109.276 346.007,-115.189 347.776,-108.417"/>
</g>
<!-- Node21&#45;&gt;Node15 -->
<g id="edge32" class="edge"><title>Node21&#45;&gt;Node15</title>
<path fill="none" stroke="midnightblue" d="M342.297,-74.8043C346.984,-76.6252 351.638,-78.595 356,-80.687 385.017,-94.6037 416.167,-115.935 433.145,-128.172"/>
<polygon fill="midnightblue" stroke="midnightblue" points="343.304,-71.4458 332.711,-71.2842 340.891,-78.0168 343.304,-71.4458"/>
</g>
<!-- Node23 -->
<g id="node23" class="node"><title>Node23</title>
<g id="a_node23"><a xlink:href="station__list_8h.html#a5b16204c2b6824ce89364d614f074b20" target="_top" xlink:title="station_list_handler">
<polygon fill="white" stroke="black" points="396.5,-318.187 396.5,-337.187 497.5,-337.187 497.5,-318.187 396.5,-318.187"/>
<text text-anchor="middle" x="447" y="-325.187" font-family="Helvetica,sans-Serif" font-size="10.00">station_list_handler</text>
</a>
</g>
</g>
<!-- Node22&#45;&gt;Node23 -->
<g id="edge35" class="edge"><title>Node22&#45;&gt;Node23</title>
<path fill="none" stroke="midnightblue" d="M359.79,-327.687C371.912,-327.687 384.551,-327.687 396.296,-327.687"/>
<polygon fill="midnightblue" stroke="midnightblue" points="359.76,-324.187 349.76,-327.687 359.76,-331.187 359.76,-324.187"/>
</g>
<!-- Node23&#45;&gt;Node10 -->
<g id="edge36" class="edge"><title>Node23&#45;&gt;Node10</title>
<path fill="none" stroke="midnightblue" d="M489.451,-315.161C539.515,-300.032 622.621,-274.919 667.833,-261.256"/>
<polygon fill="midnightblue" stroke="midnightblue" points="488.158,-311.895 479.598,-318.138 490.183,-318.596 488.158,-311.895"/>
</g>
<!-- Node24 -->
<g id="node24" class="node"><title>Node24</title>
<g id="a_node24"><a xlink:href="radio_8c.html#aae41d271062b3f94cccf4fb5996b04a2" target="_top" xlink:title="radio_frequency">
<polygon fill="white" stroke="black" points="539.5,-318.187 539.5,-337.187 624.5,-337.187 624.5,-318.187 539.5,-318.187"/>
<text text-anchor="middle" x="582" y="-325.187" font-family="Helvetica,sans-Serif" font-size="10.00">radio_frequency</text>
</a>
</g>
</g>
<!-- Node23&#45;&gt;Node24 -->
<g id="edge37" class="edge"><title>Node23&#45;&gt;Node24</title>
<path fill="none" stroke="midnightblue" d="M507.651,-327.687C518.327,-327.687 529.241,-327.687 539.277,-327.687"/>
<polygon fill="midnightblue" stroke="midnightblue" points="507.524,-324.187 497.524,-327.687 507.524,-331.187 507.524,-324.187"/>
</g>
<!-- Node24&#45;&gt;Node10 -->
<g id="edge38" class="edge"><title>Node24&#45;&gt;Node10</title>
<path fill="none" stroke="midnightblue" d="M609.988,-313.203C615.354,-310.162 620.903,-306.899 626,-303.687 647.951,-289.851 672.339,-272.094 686.774,-261.319"/>
<polygon fill="midnightblue" stroke="midnightblue" points="608.282,-310.147 601.242,-318.065 611.683,-316.266 608.282,-310.147"/>
</g>
</g>
</svg>
        <g id="navigator" transform="translate(0 0)" fill="#404254">
                <rect fill="#f2f5e9" fill-opacity="0.5" stroke="#606060" stroke-width=".5" x="0" y="0" width="60" height="60"/>
                <use id="zoomplus" xlink:href="#zoomPlus" x="17" y="9" onmousedown="handleZoom(evt,'in')"/>
                <use id="zoomminus" xlink:href="#zoomMin" x="42" y="9" onmousedown="handleZoom(evt,'out')"/>
                <use id="reset" xlink:href="#resetDef" x="30" y="36" onmousedown="handleReset()"/>
                <g id="arrowUp" xlink:href="#dirArrow" transform="translate(30 24)" onmousedown="handlePan(0,-1)">
                  <use xlink:href="#rim" fill="#404040">
                        <set attributeName="fill" to="#808080" begin="arrowUp.mouseover" end="arrowUp.mouseout"/>
                  </use>
                  <path fill="none" stroke="white" stroke-width="1.5" d="M0,-3.0v7 M-2.5,-0.5L0,-3.0L2.5,-0.5"/>
                </g>
                <g id="arrowRight" xlink:href="#dirArrow" transform="rotate(90) translate(36 -43)" onmousedown="handlePan(1,0)">
                  <use xlink:href="#rim" fill="#404040">
                        <set attributeName="fill" to="#808080" begin="arrowRight.mouseover" end="arrowRight.mouseout"/>
                  </use>
                  <path fill="none" stroke="white" stroke-width="1.5" d="M0,-3.0v7 M-2.5,-0.5L0,-3.0L2.5,-0.5"/>
                </g>
                <g id="arrowDown" xlink:href="#dirArrow" transform="rotate(180) translate(-30 -48)" onmousedown="handlePan(0,1)">
                  <use xlink:href="#rim" fill="#404040">
                        <set attributeName="fill" to="#808080" begin="arrowDown.mouseover" end="arrowDown.mouseout"/>
                  </use>
                  <path fill="none" stroke="white" stroke-width="1.5" d="M0,-3.0v7 M-2.5,-0.5L0,-3.0L2.5,-0.5"/>
                </g>
                <g id="arrowLeft" xlink:href="#dirArrow" transform="rotate(270) translate(-36 17)" onmousedown="handlePan(-1,0)">
                  <use xlink:href="#rim" fill="#404040">
                        <set attributeName="fill" to="#808080" begin="arrowLeft.mouseover" end="arrowLeft.mouseout"/>
                  </use>
                  <path fill="none" stroke="white" stroke-width="1.5" d="M0,-3.0v7 M-2.5,-0.5L0,-3.0L2.5,-0.5"/>
                </g>
        </g>
        <svg viewBox="0 0 15 15" width="100%" height="30px" preserveAspectRatio="xMaxYMin meet">
         <g id="arrow_out" transform="scale(0.3 0.3)">
          <a xlink:href="lcd_8h_a2a4df97ebc5b396233aa31765228ef42_icgraph_org.svg" target="_base">
           <rect id="button" ry="5" rx="5" y="6" x="6" height="38" width="38"
                fill="#f2f5e9" fill-opacity="0.5" stroke="#606060" stroke-width="1.0"/>
           <path id="arrow"
             d="M 11.500037,31.436501 C 11.940474,20.09759 22.043105,11.32322 32.158766,21.979434 L 37.068811,17.246167 C 37.068811,17.246167 37.088388,32 37.088388,32 L 22.160133,31.978069 C 22.160133,31.978069 26.997745,27.140456 26.997745,27.140456 C 18.528582,18.264221 13.291696,25.230495 11.500037,31.436501 z"
             style="fill:#404040;"/>
          </a>
         </g>
        </svg>
</svg>
