<?xml version="1.0" encoding="UTF-8" standalone="no"?>
<!DOCTYPE svg PUBLIC "-//W3C//DTD SVG 1.1//EN"
 "http://www.w3.org/Graphics/SVG/1.1/DTD/svg11.dtd">
<!-- Generated by graphviz version 2.38.0 (20140413.2041)
 -->
<!-- Title: lcd_command Pages: 1 -->
<!--zoomable 522 -->
<svg id="main" version="1.1" xmlns="http://www.w3.org/2000/svg" xmlns:xlink="http://www.w3.org/1999/xlink" xml:space="preserve" onload="init(evt)">
<style type="text/css"><![CDATA[
.edge:hover path { stroke: red; }
.edge:hover polygon { stroke: red; fill: red; }
]]></style>
<script type="text/javascript"><![CDATA[
var edges = document.getElementsByTagName('g');
if (edges && edges.length) {
  for (var i=0;i<edges.length;i++) {
    if (edges[i].id.substr(0,4)=='edge') {
      edges[i].setAttribute('class','edge');
    }
  }
}
]]></script>
        <defs>
                <circle id="rim" cx="0" cy="0" r="7"/>
                <circle id="rim2" cx="0" cy="0" r="3.5"/>
                <g id="zoomPlus">
                        <use xlink:href="#rim" fill="#404040">
                                <set attributeName="fill" to="#808080" begin="zoomplus.mouseover" end="zoomplus.mouseout"/>
                        </use>
                        <path d="M-4,0h8M0,-4v8" fill="none" stroke="white" stroke-width="1.5" pointer-events="none"/>
                </g>
                <g id="zoomMin">
                        <use xlink:href="#rim" fill="#404040">
                                <set attributeName="fill" to="#808080" begin="zoomminus.mouseover" end="zoomminus.mouseout"/>
                        </use>
                        <path d="M-4,0h8" fill="none" stroke="white" stroke-width="1.5" pointer-events="none"/>
                </g>
                <g id="dirArrow">
                        <path fill="none" stroke="white" stroke-width="1.5" d="M0,-3.0v7 M-2.5,-0.5L0,-3.0L2.5,-0.5"/>
                </g>
               <g id="resetDef">
                       <use xlink:href="#rim2" fill="#404040">
                               <set attributeName="fill" to="#808080" begin="reset.mouseover" end="reset.mouseout"/>
                       </use>
               </g>
        </defs>

<script type="text/javascript">
var viewWidth = 891;
var viewHeight = 522;
var sectionId = 'dynsection-3';
</script>
<script xlink:href="svgpan.js"/>
<svg id="graph" class="graph">
<g id="viewport">
<title>lcd_command</title>
<polygon fill="white" stroke="none" points="-4,4 -4,-518 887,-518 887,4 -4,4"/>
<!-- Node1 -->
<g id="node1" class="node"><title>Node1</title>
<polygon fill="#bfbfbf" stroke="black" points="0,-409.5 0,-428.5 77,-428.5 77,-409.5 0,-409.5"/>
<text text-anchor="middle" x="38.5" y="-416.5" font-family="Helvetica,sans-Serif" font-size="10.00">lcd_command</text>
</g>
<!-- Node2 -->
<g id="node2" class="node"><title>Node2</title>
<g id="a_node2"><a xlink:href="lcd_8c.html#a312eed1baec275e185dc00b760de1356" target="_top" xlink:title="lcd_init">
<polygon fill="white" stroke="black" points="419,-494.5 419,-513.5 466,-513.5 466,-494.5 419,-494.5"/>
<text text-anchor="middle" x="442.5" y="-501.5" font-family="Helvetica,sans-Serif" font-size="10.00">lcd_init</text>
</a>
</g>
</g>
<!-- Node1&#45;&gt;Node2 -->
<g id="edge1" class="edge"><title>Node1&#45;&gt;Node2</title>
<path fill="none" stroke="midnightblue" d="M61.9449,-434.001C76.0241,-442.688 94.884,-453.051 113,-459 223.749,-495.365 364.834,-502.356 418.966,-503.69"/>
<polygon fill="midnightblue" stroke="midnightblue" points="63.7566,-431.005 53.4391,-428.597 60.0029,-436.914 63.7566,-431.005"/>
</g>
<!-- Node5 -->
<g id="node5" class="node"><title>Node5</title>
<g id="a_node5"><a xlink:href="lcd_8c.html#ab99e48ab8689dcb1205c4c7c97bd9956" target="_top" xlink:title="lcd_contrast">
<polygon fill="white" stroke="black" points="260,-386.5 260,-405.5 330,-405.5 330,-386.5 260,-386.5"/>
<text text-anchor="middle" x="295" y="-393.5" font-family="Helvetica,sans-Serif" font-size="10.00">lcd_contrast</text>
</a>
</g>
</g>
<!-- Node1&#45;&gt;Node5 -->
<g id="edge4" class="edge"><title>Node1&#45;&gt;Node5</title>
<path fill="none" stroke="midnightblue" d="M87.0334,-414.704C137.34,-410.158 215.479,-403.096 259.962,-399.076"/>
<polygon fill="midnightblue" stroke="midnightblue" points="86.6967,-411.22 77.0524,-415.606 87.3268,-418.192 86.6967,-411.22"/>
</g>
<!-- Node7 -->
<g id="node7" class="node"><title>Node7</title>
<g id="a_node7"><a xlink:href="lcd_8c.html#a2a4df97ebc5b396233aa31765228ef42" target="_top" xlink:title="lcd_set_courser">
<polygon fill="white" stroke="black" points="115.5,-303.5 115.5,-322.5 201.5,-322.5 201.5,-303.5 115.5,-303.5"/>
<text text-anchor="middle" x="158.5" y="-310.5" font-family="Helvetica,sans-Serif" font-size="10.00">lcd_set_courser</text>
</a>
</g>
</g>
<!-- Node1&#45;&gt;Node7 -->
<g id="edge6" class="edge"><title>Node1&#45;&gt;Node7</title>
<path fill="none" stroke="midnightblue" d="M58.0706,-402.318C82.994,-379.929 126.46,-340.883 146.637,-322.759"/>
<polygon fill="midnightblue" stroke="midnightblue" points="55.4899,-399.931 50.3896,-409.218 60.1678,-405.139 55.4899,-399.931"/>
</g>
<!-- Node28 -->
<g id="node28" class="node"><title>Node28</title>
<g id="a_node28"><a xlink:href="lcd_8c.html#ac5d817278ad99ea7420d6240c7e6cba6" target="_top" xlink:title="lcd_generatechar">
<polygon fill="white" stroke="black" points="113,-430.5 113,-449.5 204,-449.5 204,-430.5 113,-430.5"/>
<text text-anchor="middle" x="158.5" y="-437.5" font-family="Helvetica,sans-Serif" font-size="10.00">lcd_generatechar</text>
</a>
</g>
</g>
<!-- Node1&#45;&gt;Node28 -->
<g id="edge38" class="edge"><title>Node1&#45;&gt;Node28</title>
<path fill="none" stroke="midnightblue" d="M87.2423,-427.497C95.6772,-428.998 104.431,-430.555 112.779,-432.041"/>
<polygon fill="midnightblue" stroke="midnightblue" points="87.619,-424.009 77.1604,-425.702 86.3924,-430.9 87.619,-424.009"/>
</g>
<!-- Node3 -->
<g id="node3" class="node"><title>Node3</title>
<g id="a_node3"><a xlink:href="radio_8c.html#a3a1de7e31aabba6e408a633c130e618a" target="_top" xlink:title="Initiales the radio. ">
<polygon fill="white" stroke="black" points="562,-456.5 562,-475.5 618,-475.5 618,-456.5 562,-456.5"/>
<text text-anchor="middle" x="590" y="-463.5" font-family="Helvetica,sans-Serif" font-size="10.00">radio_init</text>
</a>
</g>
</g>
<!-- Node2&#45;&gt;Node3 -->
<g id="edge2" class="edge"><title>Node2&#45;&gt;Node3</title>
<path fill="none" stroke="midnightblue" d="M475.963,-495.522C501.838,-488.764 537.643,-479.413 561.974,-473.058"/>
<polygon fill="midnightblue" stroke="midnightblue" points="475.025,-492.149 466.234,-498.063 476.794,-498.922 475.025,-492.149"/>
</g>
<!-- Node4 -->
<g id="node4" class="node"><title>Node4</title>
<g id="a_node4"><a xlink:href="main_8c.html#a840291bc02cba5474a4cb46a9b9566fe" target="_top" xlink:title="Main function. ">
<polygon fill="white" stroke="black" points="845,-437.5 845,-456.5 883,-456.5 883,-437.5 845,-437.5"/>
<text text-anchor="middle" x="864" y="-444.5" font-family="Helvetica,sans-Serif" font-size="10.00">main</text>
</a>
</g>
</g>
<!-- Node3&#45;&gt;Node4 -->
<g id="edge3" class="edge"><title>Node3&#45;&gt;Node4</title>
<path fill="none" stroke="midnightblue" d="M628.124,-463.407C687.33,-459.271 800.938,-451.335 844.956,-448.26"/>
<polygon fill="midnightblue" stroke="midnightblue" points="627.807,-459.92 618.075,-464.109 628.294,-466.903 627.807,-459.92"/>
</g>
<!-- Node6 -->
<g id="node6" class="node"><title>Node6</title>
<g id="a_node6"><a xlink:href="radio__settings_8c.html#ab8b2e0dbe3fd9644146e798c3e2a3116" target="_top" xlink:title="Sets the contrast. ">
<polygon fill="white" stroke="black" points="686,-380.5 686,-399.5 804,-399.5 804,-380.5 686,-380.5"/>
<text text-anchor="middle" x="745" y="-387.5" font-family="Helvetica,sans-Serif" font-size="10.00">radio_settings_contrast</text>
</a>
</g>
</g>
<!-- Node5&#45;&gt;Node6 -->
<g id="edge5" class="edge"><title>Node5&#45;&gt;Node6</title>
<path fill="none" stroke="midnightblue" d="M340.445,-395.405C421.928,-394.313 595.171,-391.993 685.876,-390.778"/>
<polygon fill="midnightblue" stroke="midnightblue" points="339.993,-391.91 330.041,-395.544 340.087,-398.91 339.993,-391.91"/>
</g>
<!-- Node8 -->
<g id="node8" class="node"><title>Node8</title>
<g id="a_node8"><a xlink:href="lcd_8c.html#acd63fb85d212730fa4fcbcbeeccd231e" target="_top" xlink:title="lcd_create_view">
<polygon fill="white" stroke="black" points="252.5,-247.5 252.5,-266.5 337.5,-266.5 337.5,-247.5 252.5,-247.5"/>
<text text-anchor="middle" x="295" y="-254.5" font-family="Helvetica,sans-Serif" font-size="10.00">lcd_create_view</text>
</a>
</g>
</g>
<!-- Node7&#45;&gt;Node8 -->
<g id="edge7" class="edge"><title>Node7&#45;&gt;Node8</title>
<path fill="none" stroke="midnightblue" d="M191.879,-299.519C216.374,-289.32 249.402,-275.569 271.18,-266.501"/>
<polygon fill="midnightblue" stroke="midnightblue" points="190.508,-296.298 182.621,-303.373 193.198,-302.761 190.508,-296.298"/>
</g>
<!-- Node8&#45;&gt;Node2 -->
<g id="edge8" class="edge"><title>Node8&#45;&gt;Node2</title>
<path fill="none" stroke="midnightblue" d="M305.001,-275.654C316.158,-299.069 335.475,-340.586 350,-377 367.967,-422.042 352.965,-444.5 386,-480 394.725,-489.376 407.738,-495.266 418.972,-498.863"/>
<polygon fill="midnightblue" stroke="midnightblue" points="308.103,-274.028 300.626,-266.523 301.791,-277.053 308.103,-274.028"/>
</g>
<!-- Node8&#45;&gt;Node3 -->
<g id="edge21" class="edge"><title>Node8&#45;&gt;Node3</title>
<path fill="none" stroke="midnightblue" d="M304.382,-275.982C325.237,-323.029 378.339,-441.635 386,-447 439.062,-484.155 519.995,-477.899 561.838,-471.31"/>
<polygon fill="midnightblue" stroke="midnightblue" points="307.484,-274.343 300.237,-266.615 301.083,-277.176 307.484,-274.343"/>
</g>
<!-- Node9 -->
<g id="node9" class="node"><title>Node9</title>
<g id="a_node9"><a xlink:href="menu_8c.html#a5ca9d2cf65ffedfb30889ee21a6f7f3d" target="_top" xlink:title="Display the current menu. ">
<polygon fill="white" stroke="black" points="404,-418.5 404,-437.5 481,-437.5 481,-418.5 404,-418.5"/>
<text text-anchor="middle" x="442.5" y="-425.5" font-family="Helvetica,sans-Serif" font-size="10.00">menu_display</text>
</a>
</g>
</g>
<!-- Node8&#45;&gt;Node9 -->
<g id="edge9" class="edge"><title>Node8&#45;&gt;Node9</title>
<path fill="none" stroke="midnightblue" d="M310.28,-274.734C327.853,-296.454 358.719,-334.272 386,-366 402.2,-384.841 421.685,-406.352 432.728,-418.44"/>
<polygon fill="midnightblue" stroke="midnightblue" points="312.824,-272.312 303.818,-266.731 307.377,-276.71 312.824,-272.312"/>
</g>
<!-- Node12 -->
<g id="node12" class="node"><title>Node12</title>
<g id="a_node12"><a xlink:href="menu_8c.html#a5621c1bf312de029f43808bf02dc52e3" target="_top" xlink:title="Scroll through the settings. ">
<polygon fill="white" stroke="black" points="535.5,-342.5 535.5,-361.5 644.5,-361.5 644.5,-342.5 535.5,-342.5"/>
<text text-anchor="middle" x="590" y="-349.5" font-family="Helvetica,sans-Serif" font-size="10.00">menu_scroll_settings</text>
</a>
</g>
</g>
<!-- Node8&#45;&gt;Node12 -->
<g id="edge13" class="edge"><title>Node8&#45;&gt;Node12</title>
<path fill="none" stroke="midnightblue" d="M310.306,-274.11C326.572,-292.225 354.929,-319.962 386,-333 433.655,-352.996 492.98,-356.364 535.165,-355.566"/>
<polygon fill="midnightblue" stroke="midnightblue" points="312.927,-271.79 303.717,-266.552 307.65,-276.39 312.927,-271.79"/>
</g>
<!-- Node15 -->
<g id="node15" class="node"><title>Node15</title>
<g id="a_node15"><a xlink:href="menu_8c.html#a503ed2007daa6f20b2f748eedbcb8494" target="_top" xlink:title="Scroll to given position. ">
<polygon fill="white" stroke="black" points="408,-304.5 408,-323.5 477,-323.5 477,-304.5 408,-304.5"/>
<text text-anchor="middle" x="442.5" y="-311.5" font-family="Helvetica,sans-Serif" font-size="10.00">menu_scroll</text>
</a>
</g>
</g>
<!-- Node8&#45;&gt;Node15 -->
<g id="edge17" class="edge"><title>Node8&#45;&gt;Node15</title>
<path fill="none" stroke="midnightblue" d="M329.702,-270.203C356.418,-280.669 393.118,-295.046 417.067,-304.428"/>
<polygon fill="midnightblue" stroke="midnightblue" points="330.941,-266.929 320.353,-266.541 328.388,-273.447 330.941,-266.929"/>
</g>
<!-- Node16 -->
<g id="node16" class="node"><title>Node16</title>
<g id="a_node16"><a xlink:href="radio__display_8c.html#a43baede098c7b21694b3fda71685fa06" target="_top" xlink:title="Handler for the display. ">
<polygon fill="white" stroke="black" points="535,-209.5 535,-228.5 645,-228.5 645,-209.5 535,-209.5"/>
<text text-anchor="middle" x="590" y="-216.5" font-family="Helvetica,sans-Serif" font-size="10.00">radio_display_handler</text>
</a>
</g>
</g>
<!-- Node8&#45;&gt;Node16 -->
<g id="edge33" class="edge"><title>Node8&#45;&gt;Node16</title>
<path fill="none" stroke="midnightblue" d="M347.807,-262.618C389.166,-265.763 448.369,-267.251 499,-257 525.764,-251.581 554.461,-237.949 572.074,-228.577"/>
<polygon fill="midnightblue" stroke="midnightblue" points="347.945,-259.118 337.692,-261.789 347.373,-266.095 347.945,-259.118"/>
</g>
<!-- Node18 -->
<g id="node18" class="node"><title>Node18</title>
<g id="a_node18"><a xlink:href="radio_8c.html#ac96da2886aec92b299b27b500761564c" target="_top" xlink:title="Auto Search for radio stations. ">
<polygon fill="white" stroke="black" points="542,-76.5 542,-95.5 638,-95.5 638,-76.5 542,-76.5"/>
<text text-anchor="middle" x="590" y="-83.5" font-family="Helvetica,sans-Serif" font-size="10.00">radio_auto_search</text>
</a>
</g>
</g>
<!-- Node8&#45;&gt;Node18 -->
<g id="edge22" class="edge"><title>Node8&#45;&gt;Node18</title>
<path fill="none" stroke="midnightblue" d="M301.259,-237.415C311.406,-203.851 337.123,-135.968 386,-105 432.645,-75.4457 497.823,-74.8553 541.626,-78.9036"/>
<polygon fill="midnightblue" stroke="midnightblue" points="297.794,-236.802 298.404,-247.379 304.523,-238.73 297.794,-236.802"/>
</g>
<!-- Node20 -->
<g id="node20" class="node"><title>Node20</title>
<g id="a_node20"><a xlink:href="radio_8c.html#a5d08cbff96aee4274e785b49a98f14cd" target="_top" xlink:title="Turn radio to standby. ">
<polygon fill="white" stroke="black" points="401,-0.5 401,-19.5 484,-19.5 484,-0.5 401,-0.5"/>
<text text-anchor="middle" x="442.5" y="-7.5" font-family="Helvetica,sans-Serif" font-size="10.00">radio_stand_by</text>
</a>
</g>
</g>
<!-- Node8&#45;&gt;Node20 -->
<g id="edge24" class="edge"><title>Node8&#45;&gt;Node20</title>
<path fill="none" stroke="midnightblue" d="M298.233,-237.233C304.215,-193.476 324.561,-87.6681 386,-29 390.272,-24.9206 395.457,-21.7144 400.922,-19.1951"/>
<polygon fill="midnightblue" stroke="midnightblue" points="294.758,-236.819 296.98,-247.178 301.703,-237.694 294.758,-236.819"/>
</g>
<!-- Node21 -->
<g id="node21" class="node"><title>Node21</title>
<g id="a_node21"><a xlink:href="radio__display_8c.html#ac056d01b161ce2b8c286190f619c94f8" target="_top" xlink:title="Updates the speaker symbol according to the current audio state. ">
<polygon fill="white" stroke="black" points="386,-228.5 386,-247.5 499,-247.5 499,-228.5 386,-228.5"/>
<text text-anchor="middle" x="442.5" y="-235.5" font-family="Helvetica,sans-Serif" font-size="10.00">radio_display_speaker</text>
</a>
</g>
</g>
<!-- Node8&#45;&gt;Node21 -->
<g id="edge25" class="edge"><title>Node8&#45;&gt;Node21</title>
<path fill="none" stroke="midnightblue" d="M347.836,-250.231C360.198,-248.617 373.441,-246.887 385.962,-245.252"/>
<polygon fill="midnightblue" stroke="midnightblue" points="347.157,-246.79 337.694,-251.555 348.064,-253.731 347.157,-246.79"/>
</g>
<!-- Node22 -->
<g id="node22" class="node"><title>Node22</title>
<g id="a_node22"><a xlink:href="radio__display_8c.html#af1021ae1d01d874fb72c3ce3d1b29ad9" target="_top" xlink:title="Displays the RDS data. ">
<polygon fill="white" stroke="black" points="396.5,-190.5 396.5,-209.5 488.5,-209.5 488.5,-190.5 396.5,-190.5"/>
<text text-anchor="middle" x="442.5" y="-197.5" font-family="Helvetica,sans-Serif" font-size="10.00">radio_display_rds</text>
</a>
</g>
</g>
<!-- Node8&#45;&gt;Node22 -->
<g id="edge27" class="edge"><title>Node8&#45;&gt;Node22</title>
<path fill="none" stroke="midnightblue" d="M327.207,-243.192C344.428,-235.733 366.264,-226.534 386,-219 394.468,-215.767 403.756,-212.486 412.271,-209.58"/>
<polygon fill="midnightblue" stroke="midnightblue" points="325.42,-240.153 317.652,-247.357 328.217,-246.57 325.42,-240.153"/>
</g>
<!-- Node23 -->
<g id="node23" class="node"><title>Node23</title>
<g id="a_node23"><a xlink:href="radio__display_8c.html#ab985392609874befae589a4e4ad57c86" target="_top" xlink:title="Display the PTY/PI states. ">
<polygon fill="white" stroke="black" points="392.5,-152.5 392.5,-171.5 492.5,-171.5 492.5,-152.5 392.5,-152.5"/>
<text text-anchor="middle" x="442.5" y="-159.5" font-family="Helvetica,sans-Serif" font-size="10.00">radio_display_pipty</text>
</a>
</g>
</g>
<!-- Node8&#45;&gt;Node23 -->
<g id="edge29" class="edge"><title>Node8&#45;&gt;Node23</title>
<path fill="none" stroke="midnightblue" d="M312.516,-239.709C329.547,-222.736 357.56,-197.116 386,-181 392.557,-177.284 399.96,-174.129 407.173,-171.521"/>
<polygon fill="midnightblue" stroke="midnightblue" points="309.6,-237.683 305.084,-247.267 314.591,-242.591 309.6,-237.683"/>
</g>
<!-- Node24 -->
<g id="node24" class="node"><title>Node24</title>
<g id="a_node24"><a xlink:href="radio__display_8c.html#aa113a6affc99d406e8c73fc800648cb3" target="_top" xlink:title="Display the RSQ. ">
<polygon fill="white" stroke="black" points="396.5,-114.5 396.5,-133.5 488.5,-133.5 488.5,-114.5 396.5,-114.5"/>
<text text-anchor="middle" x="442.5" y="-121.5" font-family="Helvetica,sans-Serif" font-size="10.00">radio_display_rsq</text>
</a>
</g>
</g>
<!-- Node8&#45;&gt;Node24 -->
<g id="edge31" class="edge"><title>Node8&#45;&gt;Node24</title>
<path fill="none" stroke="midnightblue" d="M306.124,-238.314C320.639,-213.196 349.666,-168.73 386,-143 391.402,-139.174 397.639,-136.066 403.939,-133.558"/>
<polygon fill="midnightblue" stroke="midnightblue" points="302.975,-236.773 301.127,-247.205 309.078,-240.202 302.975,-236.773"/>
</g>
<!-- Node25 -->
<g id="node25" class="node"><title>Node25</title>
<g id="a_node25"><a xlink:href="station__list_8h.html#a9797d901a4c549c775a7067eebf0a5c2" target="_top" xlink:title="In here there are functions declared to display the avaiable station lists and also to add/remove sta...">
<polygon fill="white" stroke="black" points="392.5,-38.5 392.5,-57.5 492.5,-57.5 492.5,-38.5 392.5,-38.5"/>
<text text-anchor="middle" x="442.5" y="-45.5" font-family="Helvetica,sans-Serif" font-size="10.00">station_list_display</text>
</a>
</g>
</g>
<!-- Node8&#45;&gt;Node25 -->
<g id="edge34" class="edge"><title>Node8&#45;&gt;Node25</title>
<path fill="none" stroke="midnightblue" d="M300.751,-237.053C310.561,-199.866 336.407,-119.428 386,-72 392.449,-65.8328 400.734,-61.1151 408.925,-57.5643"/>
<polygon fill="midnightblue" stroke="midnightblue" points="297.263,-236.569 298.212,-247.121 304.051,-238.28 297.263,-236.569"/>
</g>
<!-- Node10 -->
<g id="node10" class="node"><title>Node10</title>
<g id="a_node10"><a xlink:href="menu_8c.html#aaf2a075d3159f7eeab42012941a3437f" target="_top" xlink:title="Handler of the menu, entry to the sub menus and the parent lvl of the menus. ">
<polygon fill="white" stroke="black" points="551.5,-418.5 551.5,-437.5 628.5,-437.5 628.5,-418.5 551.5,-418.5"/>
<text text-anchor="middle" x="590" y="-425.5" font-family="Helvetica,sans-Serif" font-size="10.00">menu_handler</text>
</a>
</g>
</g>
<!-- Node9&#45;&gt;Node10 -->
<g id="edge10" class="edge"><title>Node9&#45;&gt;Node10</title>
<path fill="none" stroke="midnightblue" d="M491.535,-428C510.979,-428 533.096,-428 551.341,-428"/>
<polygon fill="midnightblue" stroke="midnightblue" points="491.349,-424.5 481.349,-428 491.349,-431.5 491.349,-424.5"/>
</g>
<!-- Node11 -->
<g id="node11" class="node"><title>Node11</title>
<g id="a_node11"><a xlink:href="handler_8c.html#a4f639cde11f5cab70d795fd2f75c9d22" target="_top" xlink:title="Handler for menu, RDS, time, the encoders and rsq. ">
<polygon fill="white" stroke="black" points="721,-418.5 721,-437.5 769,-437.5 769,-418.5 721,-418.5"/>
<text text-anchor="middle" x="745" y="-425.5" font-family="Helvetica,sans-Serif" font-size="10.00">handler</text>
</a>
</g>
</g>
<!-- Node10&#45;&gt;Node11 -->
<g id="edge11" class="edge"><title>Node10&#45;&gt;Node11</title>
<path fill="none" stroke="midnightblue" d="M638.972,-428C666.276,-428 699.238,-428 720.864,-428"/>
<polygon fill="midnightblue" stroke="midnightblue" points="638.82,-424.5 628.82,-428 638.82,-431.5 638.82,-424.5"/>
</g>
<!-- Node11&#45;&gt;Node4 -->
<g id="edge12" class="edge"><title>Node11&#45;&gt;Node4</title>
<path fill="none" stroke="midnightblue" d="M779.082,-433.372C800.436,-436.84 827.4,-441.219 844.913,-444.063"/>
<polygon fill="midnightblue" stroke="midnightblue" points="779.547,-429.902 769.115,-431.754 778.425,-436.812 779.547,-429.902"/>
</g>
<!-- Node12&#45;&gt;Node6 -->
<g id="edge15" class="edge"><title>Node12&#45;&gt;Node6</title>
<path fill="none" stroke="midnightblue" d="M639.477,-364.04C660.852,-369.349 685.613,-375.499 705.669,-380.48"/>
<polygon fill="midnightblue" stroke="midnightblue" points="640.157,-360.603 629.608,-361.589 638.47,-367.396 640.157,-360.603"/>
</g>
<!-- Node13 -->
<g id="node13" class="node"><title>Node13</title>
<g id="a_node13"><a xlink:href="radio__settings_8c.html#a2d04f2363bf944b4700b71e0f96ee16f" target="_top" xlink:title="Sets the brightness. ">
<polygon fill="white" stroke="black" points="681,-342.5 681,-361.5 809,-361.5 809,-342.5 681,-342.5"/>
<text text-anchor="middle" x="745" y="-349.5" font-family="Helvetica,sans-Serif" font-size="10.00">radio_settings_brightness</text>
</a>
</g>
</g>
<!-- Node12&#45;&gt;Node13 -->
<g id="edge14" class="edge"><title>Node12&#45;&gt;Node13</title>
<path fill="none" stroke="midnightblue" d="M654.561,-352C663.234,-352 672.136,-352 680.803,-352"/>
<polygon fill="midnightblue" stroke="midnightblue" points="654.512,-348.5 644.512,-352 654.512,-355.5 654.512,-348.5"/>
</g>
<!-- Node14 -->
<g id="node14" class="node"><title>Node14</title>
<g id="a_node14"><a xlink:href="radio__settings_8c.html#aba6a09ed7091ec65d2cbf4cd9a9a75f4" target="_top" xlink:title="Sets the volume. ">
<polygon fill="white" stroke="black" points="688.5,-304.5 688.5,-323.5 801.5,-323.5 801.5,-304.5 688.5,-304.5"/>
<text text-anchor="middle" x="745" y="-311.5" font-family="Helvetica,sans-Serif" font-size="10.00">radio_settings_volume</text>
</a>
</g>
</g>
<!-- Node12&#45;&gt;Node14 -->
<g id="edge16" class="edge"><title>Node12&#45;&gt;Node14</title>
<path fill="none" stroke="midnightblue" d="M639.477,-339.96C660.852,-334.651 685.613,-328.501 705.669,-323.52"/>
<polygon fill="midnightblue" stroke="midnightblue" points="638.47,-336.604 629.608,-342.411 640.157,-343.397 638.47,-336.604"/>
</g>
<!-- Node15&#45;&gt;Node12 -->
<g id="edge18" class="edge"><title>Node15&#45;&gt;Node12</title>
<path fill="none" stroke="midnightblue" d="M487.119,-325.392C507.931,-330.827 532.553,-337.258 552.378,-342.436"/>
<polygon fill="midnightblue" stroke="midnightblue" points="487.806,-321.954 477.246,-322.813 486.037,-328.727 487.806,-321.954"/>
</g>
<!-- Node15&#45;&gt;Node16 -->
<g id="edge19" class="edge"><title>Node15&#45;&gt;Node16</title>
<path fill="none" stroke="midnightblue" d="M478.589,-300.473C485.518,-297.348 492.617,-293.809 499,-290 530.104,-271.438 562.471,-243.383 578.584,-228.715"/>
<polygon fill="midnightblue" stroke="midnightblue" points="477.124,-297.293 469.327,-304.467 479.895,-303.721 477.124,-297.293"/>
</g>
<!-- Node17 -->
<g id="node17" class="node"><title>Node17</title>
<g id="a_node17"><a xlink:href="radio_8c.html#a841443a7db6e1c9caef95f3b7af5761f" target="_top" xlink:title="Radio main. ">
<polygon fill="white" stroke="black" points="713,-209.5 713,-228.5 777,-228.5 777,-209.5 713,-209.5"/>
<text text-anchor="middle" x="745" y="-216.5" font-family="Helvetica,sans-Serif" font-size="10.00">radio_main</text>
</a>
</g>
</g>
<!-- Node16&#45;&gt;Node17 -->
<g id="edge20" class="edge"><title>Node16&#45;&gt;Node17</title>
<path fill="none" stroke="midnightblue" d="M655.629,-219C675.488,-219 696.441,-219 712.958,-219"/>
<polygon fill="midnightblue" stroke="midnightblue" points="655.373,-215.5 645.373,-219 655.373,-222.5 655.373,-215.5"/>
</g>
<!-- Node19 -->
<g id="node19" class="node"><title>Node19</title>
<g id="a_node19"><a xlink:href="radio__settings_8c.html#a90d48a01d9b0ad794fb9416a2ce8f85e" target="_top" xlink:title="Seeks the next station/all available. ">
<polygon fill="white" stroke="black" points="689,-76.5 689,-95.5 801,-95.5 801,-76.5 689,-76.5"/>
<text text-anchor="middle" x="745" y="-83.5" font-family="Helvetica,sans-Serif" font-size="10.00">radio_settings_station</text>
</a>
</g>
</g>
<!-- Node18&#45;&gt;Node19 -->
<g id="edge23" class="edge"><title>Node18&#45;&gt;Node19</title>
<path fill="none" stroke="midnightblue" d="M648.167,-86C661.515,-86 675.703,-86 688.957,-86"/>
<polygon fill="midnightblue" stroke="midnightblue" points="648.154,-82.5001 638.153,-86 648.153,-89.5001 648.154,-82.5001"/>
</g>
<!-- Node21&#45;&gt;Node16 -->
<g id="edge26" class="edge"><title>Node21&#45;&gt;Node16</title>
<path fill="none" stroke="midnightblue" d="M509.328,-229.404C517.913,-228.283 526.628,-227.145 534.989,-226.053"/>
<polygon fill="midnightblue" stroke="midnightblue" points="508.801,-225.943 499.338,-230.708 509.707,-232.884 508.801,-225.943"/>
</g>
<!-- Node22&#45;&gt;Node16 -->
<g id="edge28" class="edge"><title>Node22&#45;&gt;Node16</title>
<path fill="none" stroke="midnightblue" d="M498.895,-207.234C510.679,-208.773 523.108,-210.396 534.845,-211.928"/>
<polygon fill="midnightblue" stroke="midnightblue" points="499.109,-203.732 488.74,-205.908 498.202,-210.673 499.109,-203.732"/>
</g>
<!-- Node23&#45;&gt;Node16 -->
<g id="edge30" class="edge"><title>Node23&#45;&gt;Node16</title>
<path fill="none" stroke="midnightblue" d="M482.55,-174.985C488.095,-176.94 493.707,-178.98 499,-181 522.61,-190.013 549.225,-201.407 567.348,-209.357"/>
<polygon fill="midnightblue" stroke="midnightblue" points="483.324,-171.549 472.729,-171.58 481.031,-178.163 483.324,-171.549"/>
</g>
<!-- Node24&#45;&gt;Node16 -->
<g id="edge32" class="edge"><title>Node24&#45;&gt;Node16</title>
<path fill="none" stroke="midnightblue" d="M487.316,-137.26C491.356,-138.997 495.312,-140.91 499,-143 532.094,-161.753 564.609,-193.376 579.916,-209.267"/>
<polygon fill="midnightblue" stroke="midnightblue" points="488.414,-133.93 477.827,-133.521 485.848,-140.443 488.414,-133.93"/>
</g>
<!-- Node26 -->
<g id="node26" class="node"><title>Node26</title>
<g id="a_node26"><a xlink:href="station__list_8h.html#a14396edaefab23c83e16fea65cc5db9d" target="_top" xlink:title="Handler to select the current station. ">
<polygon fill="white" stroke="black" points="539.5,-38.5 539.5,-57.5 640.5,-57.5 640.5,-38.5 539.5,-38.5"/>
<text text-anchor="middle" x="590" y="-45.5" font-family="Helvetica,sans-Serif" font-size="10.00">station_list_handler</text>
</a>
</g>
</g>
<!-- Node25&#45;&gt;Node26 -->
<g id="edge35" class="edge"><title>Node25&#45;&gt;Node26</title>
<path fill="none" stroke="midnightblue" d="M502.79,-48C514.912,-48 527.551,-48 539.296,-48"/>
<polygon fill="midnightblue" stroke="midnightblue" points="502.76,-44.5001 492.76,-48 502.76,-51.5001 502.76,-44.5001"/>
</g>
<!-- Node26&#45;&gt;Node19 -->
<g id="edge37" class="edge"><title>Node26&#45;&gt;Node19</title>
<path fill="none" stroke="midnightblue" d="M639.477,-60.04C660.852,-65.3488 685.613,-71.4988 705.669,-76.4799"/>
<polygon fill="midnightblue" stroke="midnightblue" points="640.157,-56.6027 629.608,-57.589 638.47,-63.3963 640.157,-56.6027"/>
</g>
<!-- Node27 -->
<g id="node27" class="node"><title>Node27</title>
<g id="a_node27"><a xlink:href="radio__settings_8c.html#ab424f802ddd3a0570afec524d4f2091b" target="_top" xlink:title="Sets the frequency. ">
<polygon fill="white" stroke="black" points="682.5,-38.5 682.5,-57.5 807.5,-57.5 807.5,-38.5 682.5,-38.5"/>
<text text-anchor="middle" x="745" y="-45.5" font-family="Helvetica,sans-Serif" font-size="10.00">radio_settings_frequency</text>
</a>
</g>
</g>
<!-- Node26&#45;&gt;Node27 -->
<g id="edge36" class="edge"><title>Node26&#45;&gt;Node27</title>
<path fill="none" stroke="midnightblue" d="M650.823,-48C661.143,-48 671.889,-48 682.258,-48"/>
<polygon fill="midnightblue" stroke="midnightblue" points="650.675,-44.5001 640.675,-48 650.675,-51.5001 650.675,-44.5001"/>
</g>
<!-- Node29 -->
<g id="node29" class="node"><title>Node29</title>
<g id="a_node29"><a xlink:href="lcd_8c.html#a6b9abf6cd27026b67144523ffbef4916" target="_top" xlink:title="lcd_generatebargraph">
<polygon fill="white" stroke="black" points="240,-433.5 240,-452.5 350,-452.5 350,-433.5 240,-433.5"/>
<text text-anchor="middle" x="295" y="-440.5" font-family="Helvetica,sans-Serif" font-size="10.00">lcd_generatebargraph</text>
</a>
</g>
</g>
<!-- Node28&#45;&gt;Node29 -->
<g id="edge39" class="edge"><title>Node28&#45;&gt;Node29</title>
<path fill="none" stroke="midnightblue" d="M214.298,-441.222C222.643,-441.408 231.254,-441.6 239.591,-441.786"/>
<polygon fill="midnightblue" stroke="midnightblue" points="214.362,-437.723 204.287,-440.999 214.206,-444.721 214.362,-437.723"/>
</g>
<!-- Node29&#45;&gt;Node2 -->
<g id="edge40" class="edge"><title>Node29&#45;&gt;Node2</title>
<path fill="none" stroke="midnightblue" d="M328.311,-456.546C355.823,-468.08 394.644,-484.356 418.925,-494.536"/>
<polygon fill="midnightblue" stroke="midnightblue" points="329.31,-453.17 318.734,-452.531 326.603,-459.626 329.31,-453.17"/>
</g>
</g>
</svg>
        <g id="navigator" transform="translate(0 0)" fill="#404254">
                <rect fill="#f2f5e9" fill-opacity="0.5" stroke="#606060" stroke-width=".5" x="0" y="0" width="60" height="60"/>
                <use id="zoomplus" xlink:href="#zoomPlus" x="17" y="9" onmousedown="handleZoom(evt,'in')"/>
                <use id="zoomminus" xlink:href="#zoomMin" x="42" y="9" onmousedown="handleZoom(evt,'out')"/>
                <use id="reset" xlink:href="#resetDef" x="30" y="36" onmousedown="handleReset()"/>
                <g id="arrowUp" xlink:href="#dirArrow" transform="translate(30 24)" onmousedown="handlePan(0,-1)">
                  <use xlink:href="#rim" fill="#404040">
                        <set attributeName="fill" to="#808080" begin="arrowUp.mouseover" end="arrowUp.mouseout"/>
                  </use>
                  <path fill="none" stroke="white" stroke-width="1.5" d="M0,-3.0v7 M-2.5,-0.5L0,-3.0L2.5,-0.5"/>
                </g>
                <g id="arrowRight" xlink:href="#dirArrow" transform="rotate(90) translate(36 -43)" onmousedown="handlePan(1,0)">
                  <use xlink:href="#rim" fill="#404040">
                        <set attributeName="fill" to="#808080" begin="arrowRight.mouseover" end="arrowRight.mouseout"/>
                  </use>
                  <path fill="none" stroke="white" stroke-width="1.5" d="M0,-3.0v7 M-2.5,-0.5L0,-3.0L2.5,-0.5"/>
                </g>
                <g id="arrowDown" xlink:href="#dirArrow" transform="rotate(180) translate(-30 -48)" onmousedown="handlePan(0,1)">
                  <use xlink:href="#rim" fill="#404040">
                        <set attributeName="fill" to="#808080" begin="arrowDown.mouseover" end="arrowDown.mouseout"/>
                  </use>
                  <path fill="none" stroke="white" stroke-width="1.5" d="M0,-3.0v7 M-2.5,-0.5L0,-3.0L2.5,-0.5"/>
                </g>
                <g id="arrowLeft" xlink:href="#dirArrow" transform="rotate(270) translate(-36 17)" onmousedown="handlePan(-1,0)">
                  <use xlink:href="#rim" fill="#404040">
                        <set attributeName="fill" to="#808080" begin="arrowLeft.mouseover" end="arrowLeft.mouseout"/>
                  </use>
                  <path fill="none" stroke="white" stroke-width="1.5" d="M0,-3.0v7 M-2.5,-0.5L0,-3.0L2.5,-0.5"/>
                </g>
        </g>
        <svg viewBox="0 0 15 15" width="100%" height="30px" preserveAspectRatio="xMaxYMin meet">
         <g id="arrow_out" transform="scale(0.3 0.3)">
          <a xlink:href="lcd_8h_a41e4f70e7f07bd5333b929ed8f9df77f_icgraph_org.svg" target="_base">
           <rect id="button" ry="5" rx="5" y="6" x="6" height="38" width="38"
                fill="#f2f5e9" fill-opacity="0.5" stroke="#606060" stroke-width="1.0"/>
           <path id="arrow"
             d="M 11.500037,31.436501 C 11.940474,20.09759 22.043105,11.32322 32.158766,21.979434 L 37.068811,17.246167 C 37.068811,17.246167 37.088388,32 37.088388,32 L 22.160133,31.978069 C 22.160133,31.978069 26.997745,27.140456 26.997745,27.140456 C 18.528582,18.264221 13.291696,25.230495 11.500037,31.436501 z"
             style="fill:#404040;"/>
          </a>
         </g>
        </svg>
</svg>
