<?xml version="1.0" encoding="UTF-8" standalone="no"?>
<!DOCTYPE svg PUBLIC "-//W3C//DTD SVG 1.1//EN"
 "http://www.w3.org/Graphics/SVG/1.1/DTD/svg11.dtd">
<!-- Generated by graphviz version 2.38.0 (20140413.2041)
 -->
<!-- Title: lcd_generatechar Pages: 1 -->
<svg width="494pt" height="28pt"
 viewBox="0.00 0.00 494.00 28.00" xmlns="http://www.w3.org/2000/svg" xmlns:xlink="http://www.w3.org/1999/xlink">
<g id="graph0" class="graph" transform="scale(1 1) rotate(0) translate(4 24)">
<title>lcd_generatechar</title>
<polygon fill="white" stroke="none" points="-4,4 -4,-24 490,-24 490,4 -4,4"/>
<!-- Node1 -->
<g id="node1" class="node"><title>Node1</title>
<polygon fill="#bfbfbf" stroke="black" points="0,-0.5 0,-19.5 91,-19.5 91,-0.5 0,-0.5"/>
<text text-anchor="middle" x="45.5" y="-7.5" font-family="Helvetica,sans-Serif" font-size="10.00">lcd_generatechar</text>
</g>
<!-- Node2 -->
<g id="node2" class="node"><title>Node2</title>
<g id="a_node2"><a xlink:href="lcd_8c.html#a6b9abf6cd27026b67144523ffbef4916" target="_top" xlink:title="lcd_generatebargraph">
<polygon fill="white" stroke="black" points="127,-0.5 127,-19.5 237,-19.5 237,-0.5 127,-0.5"/>
<text text-anchor="middle" x="182" y="-7.5" font-family="Helvetica,sans-Serif" font-size="10.00">lcd_generatebargraph</text>
</a>
</g>
</g>
<!-- Node1&#45;&gt;Node2 -->
<g id="edge1" class="edge"><title>Node1&#45;&gt;Node2</title>
<path fill="none" stroke="midnightblue" d="M101.298,-10C109.643,-10 118.254,-10 126.591,-10"/>
<polygon fill="midnightblue" stroke="midnightblue" points="101.287,-6.5001 91.2866,-10 101.287,-13.5001 101.287,-6.5001"/>
</g>
<!-- Node3 -->
<g id="node3" class="node"><title>Node3</title>
<g id="a_node3"><a xlink:href="lcd_8c.html#a312eed1baec275e185dc00b760de1356" target="_top" xlink:title="lcd_init">
<polygon fill="white" stroke="black" points="273,-0.5 273,-19.5 320,-19.5 320,-0.5 273,-0.5"/>
<text text-anchor="middle" x="296.5" y="-7.5" font-family="Helvetica,sans-Serif" font-size="10.00">lcd_init</text>
</a>
</g>
</g>
<!-- Node2&#45;&gt;Node3 -->
<g id="edge2" class="edge"><title>Node2&#45;&gt;Node3</title>
<path fill="none" stroke="midnightblue" d="M247.283,-10C256.447,-10 265.32,-10 272.903,-10"/>
<polygon fill="midnightblue" stroke="midnightblue" points="247.273,-6.5001 237.273,-10 247.273,-13.5001 247.273,-6.5001"/>
</g>
<!-- Node4 -->
<g id="node4" class="node"><title>Node4</title>
<g id="a_node4"><a xlink:href="radio_8c.html#a3a1de7e31aabba6e408a633c130e618a" target="_top" xlink:title="radio_init">
<polygon fill="white" stroke="black" points="356,-0.5 356,-19.5 412,-19.5 412,-0.5 356,-0.5"/>
<text text-anchor="middle" x="384" y="-7.5" font-family="Helvetica,sans-Serif" font-size="10.00">radio_init</text>
</a>
</g>
</g>
<!-- Node3&#45;&gt;Node4 -->
<g id="edge3" class="edge"><title>Node3&#45;&gt;Node4</title>
<path fill="none" stroke="midnightblue" d="M330.585,-10C338.915,-10 347.761,-10 355.767,-10"/>
<polygon fill="midnightblue" stroke="midnightblue" points="330.412,-6.5001 320.412,-10 330.412,-13.5001 330.412,-6.5001"/>
</g>
<!-- Node5 -->
<g id="node5" class="node"><title>Node5</title>
<g id="a_node5"><a xlink:href="main_8c.html#a840291bc02cba5474a4cb46a9b9566fe" target="_top" xlink:title="main">
<polygon fill="white" stroke="black" points="448,-0.5 448,-19.5 486,-19.5 486,-0.5 448,-0.5"/>
<text text-anchor="middle" x="467" y="-7.5" font-family="Helvetica,sans-Serif" font-size="10.00">main</text>
</a>
</g>
</g>
<!-- Node4&#45;&gt;Node5 -->
<g id="edge4" class="edge"><title>Node4&#45;&gt;Node5</title>
<path fill="none" stroke="midnightblue" d="M422.463,-10C431.171,-10 440.069,-10 447.531,-10"/>
<polygon fill="midnightblue" stroke="midnightblue" points="422.423,-6.5001 412.423,-10 422.423,-13.5001 422.423,-6.5001"/>
</g>
</g>
</svg>
