<?xml version="1.0" encoding="UTF-8" standalone="no"?>
<!DOCTYPE svg PUBLIC "-//W3C//DTD SVG 1.1//EN"
 "http://www.w3.org/Graphics/SVG/1.1/DTD/svg11.dtd">
<!-- Generated by graphviz version 2.38.0 (20140413.2041)
 -->
<!-- Title: lcd_set_courser Pages: 1 -->
<!--zoomable 180 -->
<svg id="main" version="1.1" xmlns="http://www.w3.org/2000/svg" xmlns:xlink="http://www.w3.org/1999/xlink" xml:space="preserve" onload="init(evt)">
<style type="text/css"><![CDATA[
.edge:hover path { stroke: red; }
.edge:hover polygon { stroke: red; fill: red; }
]]></style>
<script type="text/javascript"><![CDATA[
var edges = document.getElementsByTagName('g');
if (edges && edges.length) {
  for (var i=0;i<edges.length;i++) {
    if (edges[i].id.substr(0,4)=='edge') {
      edges[i].setAttribute('class','edge');
    }
  }
}
]]></script>
        <defs>
                <circle id="rim" cx="0" cy="0" r="7"/>
                <circle id="rim2" cx="0" cy="0" r="3.5"/>
                <g id="zoomPlus">
                        <use xlink:href="#rim" fill="#404040">
                                <set attributeName="fill" to="#808080" begin="zoomplus.mouseover" end="zoomplus.mouseout"/>
                        </use>
                        <path d="M-4,0h8M0,-4v8" fill="none" stroke="white" stroke-width="1.5" pointer-events="none"/>
                </g>
                <g id="zoomMin">
                        <use xlink:href="#rim" fill="#404040">
                                <set attributeName="fill" to="#808080" begin="zoomminus.mouseover" end="zoomminus.mouseout"/>
                        </use>
                        <path d="M-4,0h8" fill="none" stroke="white" stroke-width="1.5" pointer-events="none"/>
                </g>
                <g id="dirArrow">
                        <path fill="none" stroke="white" stroke-width="1.5" d="M0,-3.0v7 M-2.5,-0.5L0,-3.0L2.5,-0.5"/>
                </g>
               <g id="resetDef">
                       <use xlink:href="#rim2" fill="#404040">
                               <set attributeName="fill" to="#808080" begin="reset.mouseover" end="reset.mouseout"/>
                       </use>
               </g>
        </defs>

<script type="text/javascript">
var viewWidth = 809;
var viewHeight = 180;
var sectionId = 'dynsection-15';
</script>
<script xlink:href="svgpan.js"/>
<svg id="graph" class="graph">
<g id="viewport">
<title>lcd_set_courser</title>
<polygon fill="white" stroke="none" points="-4,4 -4,-176 805,-176 805,4 -4,4"/>
<!-- Node1 -->
<g id="node1" class="node"><title>Node1</title>
<polygon fill="#bfbfbf" stroke="black" points="0,-76.5 0,-95.5 86,-95.5 86,-76.5 0,-76.5"/>
<text text-anchor="middle" x="43" y="-83.5" font-family="Helvetica,sans-Serif" font-size="10.00">lcd_set_courser</text>
</g>
<!-- Node2 -->
<g id="node2" class="node"><title>Node2</title>
<g id="a_node2"><a xlink:href="lcd_8c.html#acd63fb85d212730fa4fcbcbeeccd231e" target="_top" xlink:title="lcd_create_view">
<polygon fill="white" stroke="black" points="122,-76.5 122,-95.5 207,-95.5 207,-76.5 122,-76.5"/>
<text text-anchor="middle" x="164.5" y="-83.5" font-family="Helvetica,sans-Serif" font-size="10.00">lcd_create_view</text>
</a>
</g>
</g>
<!-- Node1&#45;&gt;Node2 -->
<g id="edge1" class="edge"><title>Node1&#45;&gt;Node2</title>
<path fill="none" stroke="midnightblue" d="M96.349,-86C104.847,-86 113.548,-86 121.749,-86"/>
<polygon fill="midnightblue" stroke="midnightblue" points="96.1313,-82.5001 86.1312,-86 96.1312,-89.5001 96.1313,-82.5001"/>
</g>
<!-- Node3 -->
<g id="node3" class="node"><title>Node3</title>
<g id="a_node3"><a xlink:href="lcd_8c.html#a312eed1baec275e185dc00b760de1356" target="_top" xlink:title="lcd_init">
<polygon fill="white" stroke="black" points="550.5,-152.5 550.5,-171.5 597.5,-171.5 597.5,-152.5 550.5,-152.5"/>
<text text-anchor="middle" x="574" y="-159.5" font-family="Helvetica,sans-Serif" font-size="10.00">lcd_init</text>
</a>
</g>
</g>
<!-- Node2&#45;&gt;Node3 -->
<g id="edge2" class="edge"><title>Node2&#45;&gt;Node3</title>
<path fill="none" stroke="midnightblue" d="M183.909,-102.421C198.737,-114.583 220.718,-130.323 243,-138 352.978,-175.89 495.45,-168.854 550.196,-164.258"/>
<polygon fill="midnightblue" stroke="midnightblue" points="185.946,-99.5598 176.056,-95.7611 181.419,-104.898 185.946,-99.5598"/>
</g>
<!-- Node4 -->
<g id="node4" class="node"><title>Node4</title>
<g id="a_node4"><a xlink:href="main_8c.html#a840291bc02cba5474a4cb46a9b9566fe" target="_top" xlink:title="main">
<polygon fill="white" stroke="black" points="763,-114.5 763,-133.5 801,-133.5 801,-114.5 763,-114.5"/>
<text text-anchor="middle" x="782" y="-121.5" font-family="Helvetica,sans-Serif" font-size="10.00">main</text>
</a>
</g>
</g>
<!-- Node2&#45;&gt;Node4 -->
<g id="edge4" class="edge"><title>Node2&#45;&gt;Node4</title>
<path fill="none" stroke="midnightblue" d="M216.943,-97.3325C272.343,-108.531 363.217,-124 442.5,-124 442.5,-124 442.5,-124 575,-124 644.382,-124 726.909,-124 762.813,-124"/>
<polygon fill="midnightblue" stroke="midnightblue" points="217.522,-93.8784 207.022,-95.2958 216.114,-100.735 217.522,-93.8784"/>
</g>
<!-- Node5 -->
<g id="node5" class="node"><title>Node5</title>
<g id="a_node5"><a xlink:href="menu_2src_2menu_8c.html#a5ca9d2cf65ffedfb30889ee21a6f7f3d" target="_top" xlink:title="menu_display">
<polygon fill="white" stroke="black" points="405,-76.5 405,-95.5 482,-95.5 482,-76.5 405,-76.5"/>
<text text-anchor="middle" x="443.5" y="-83.5" font-family="Helvetica,sans-Serif" font-size="10.00">menu_display</text>
</a>
</g>
</g>
<!-- Node2&#45;&gt;Node5 -->
<g id="edge5" class="edge"><title>Node2&#45;&gt;Node5</title>
<path fill="none" stroke="midnightblue" d="M217.423,-86C271.956,-86 356.384,-86 404.845,-86"/>
<polygon fill="midnightblue" stroke="midnightblue" points="217.27,-82.5001 207.27,-86 217.27,-89.5001 217.27,-82.5001"/>
</g>
<!-- Node7 -->
<g id="node7" class="node"><title>Node7</title>
<g id="a_node7"><a xlink:href="menu_2src_2menu_8c.html#a503ed2007daa6f20b2f748eedbcb8494" target="_top" xlink:title="menu_scroll">
<polygon fill="white" stroke="black" points="263.5,-38.5 263.5,-57.5 332.5,-57.5 332.5,-38.5 263.5,-38.5"/>
<text text-anchor="middle" x="298" y="-45.5" font-family="Helvetica,sans-Serif" font-size="10.00">menu_scroll</text>
</a>
</g>
</g>
<!-- Node2&#45;&gt;Node7 -->
<g id="edge8" class="edge"><title>Node2&#45;&gt;Node7</title>
<path fill="none" stroke="midnightblue" d="M208.378,-73.6094C226.386,-68.4055 247.01,-62.4459 263.828,-57.5859"/>
<polygon fill="midnightblue" stroke="midnightblue" points="207.318,-70.2724 198.683,-76.411 209.262,-76.9972 207.318,-70.2724"/>
</g>
<!-- Node10 -->
<g id="node10" class="node"><title>Node10</title>
<g id="a_node10"><a xlink:href="radio_8c.html#a51f5be293265eb7d6106c9181b357f96" target="_top" xlink:title="radio_display_handler">
<polygon fill="white" stroke="black" points="243,-0.5 243,-19.5 353,-19.5 353,-0.5 243,-0.5"/>
<text text-anchor="middle" x="298" y="-7.5" font-family="Helvetica,sans-Serif" font-size="10.00">radio_display_handler</text>
</a>
</g>
</g>
<!-- Node2&#45;&gt;Node10 -->
<g id="edge12" class="edge"><title>Node2&#45;&gt;Node10</title>
<path fill="none" stroke="midnightblue" d="M184.358,-69.6437C199.432,-57.2055 221.522,-40.3525 243,-29 249.853,-25.3775 257.544,-22.1986 264.924,-19.5293"/>
<polygon fill="midnightblue" stroke="midnightblue" points="181.749,-67.2649 176.352,-76.382 186.257,-72.6206 181.749,-67.2649"/>
</g>
<!-- Node3&#45;&gt;Node4 -->
<g id="edge3" class="edge"><title>Node3&#45;&gt;Node4</title>
<path fill="none" stroke="midnightblue" d="M607.725,-157.769C638.621,-153.553 686.172,-146.495 727,-138 738.947,-135.514 752.215,-132.084 762.61,-129.241"/>
<polygon fill="midnightblue" stroke="midnightblue" points="606.975,-154.338 597.53,-159.139 607.907,-161.276 606.975,-154.338"/>
</g>
<!-- Node6 -->
<g id="node6" class="node"><title>Node6</title>
<g id="a_node6"><a xlink:href="menu_2src_2menu_8c.html#a8509849c574fb30136ac9ec88081d47c" target="_top" xlink:title="menu_handler">
<polygon fill="white" stroke="black" points="650,-76.5 650,-95.5 727,-95.5 727,-76.5 650,-76.5"/>
<text text-anchor="middle" x="688.5" y="-83.5" font-family="Helvetica,sans-Serif" font-size="10.00">menu_handler</text>
</a>
</g>
</g>
<!-- Node5&#45;&gt;Node6 -->
<g id="edge6" class="edge"><title>Node5&#45;&gt;Node6</title>
<path fill="none" stroke="midnightblue" d="M492.253,-86C538.37,-86 607.287,-86 649.709,-86"/>
<polygon fill="midnightblue" stroke="midnightblue" points="492.202,-82.5001 482.202,-86 492.202,-89.5001 492.202,-82.5001"/>
</g>
<!-- Node6&#45;&gt;Node4 -->
<g id="edge7" class="edge"><title>Node6&#45;&gt;Node4</title>
<path fill="none" stroke="midnightblue" d="M722.167,-99.5665C735.841,-105.245 751.217,-111.631 762.82,-116.45"/>
<polygon fill="midnightblue" stroke="midnightblue" points="723.167,-96.1921 712.589,-95.589 720.482,-102.657 723.167,-96.1921"/>
</g>
<!-- Node8 -->
<g id="node8" class="node"><title>Node8</title>
<g id="a_node8"><a xlink:href="menu_2src_2menu_8c.html#a024aeffbbf4583410c047ad3a6c80946" target="_top" xlink:title="menu_scroll_settings">
<polygon fill="white" stroke="black" points="389,-38.5 389,-57.5 498,-57.5 498,-38.5 389,-38.5"/>
<text text-anchor="middle" x="443.5" y="-45.5" font-family="Helvetica,sans-Serif" font-size="10.00">menu_scroll_settings</text>
</a>
</g>
</g>
<!-- Node7&#45;&gt;Node8 -->
<g id="edge9" class="edge"><title>Node7&#45;&gt;Node8</title>
<path fill="none" stroke="midnightblue" d="M342.853,-48C357.368,-48 373.688,-48 388.854,-48"/>
<polygon fill="midnightblue" stroke="midnightblue" points="342.644,-44.5001 332.644,-48 342.644,-51.5001 342.644,-44.5001"/>
</g>
<!-- Node9 -->
<g id="node9" class="node"><title>Node9</title>
<g id="a_node9"><a xlink:href="menu_2src_2menu_8c.html#a6e158a5dda1d308b5a56ee88538eb0fc" target="_top" xlink:title="menu_function">
<polygon fill="white" stroke="black" points="534,-38.5 534,-57.5 614,-57.5 614,-38.5 534,-38.5"/>
<text text-anchor="middle" x="574" y="-45.5" font-family="Helvetica,sans-Serif" font-size="10.00">menu_function</text>
</a>
</g>
</g>
<!-- Node8&#45;&gt;Node9 -->
<g id="edge10" class="edge"><title>Node8&#45;&gt;Node9</title>
<path fill="none" stroke="midnightblue" d="M508.428,-48C517.133,-48 525.846,-48 533.928,-48"/>
<polygon fill="midnightblue" stroke="midnightblue" points="508.251,-44.5001 498.251,-48 508.251,-51.5001 508.251,-44.5001"/>
</g>
<!-- Node9&#45;&gt;Node6 -->
<g id="edge11" class="edge"><title>Node9&#45;&gt;Node6</title>
<path fill="none" stroke="midnightblue" d="M612.971,-60.8259C628.067,-65.9247 645.132,-71.6891 659.121,-76.4141"/>
<polygon fill="midnightblue" stroke="midnightblue" points="613.983,-57.4733 603.389,-57.589 611.743,-64.1052 613.983,-57.4733"/>
</g>
<!-- Node11 -->
<g id="node11" class="node"><title>Node11</title>
<g id="a_node11"><a xlink:href="radio_8c.html#a921f25c9a84ad0ee0715bc7f5720ade4" target="_top" xlink:title="radio_main">
<polygon fill="white" stroke="black" points="411.5,-0.5 411.5,-19.5 475.5,-19.5 475.5,-0.5 411.5,-0.5"/>
<text text-anchor="middle" x="443.5" y="-7.5" font-family="Helvetica,sans-Serif" font-size="10.00">radio_main</text>
</a>
</g>
</g>
<!-- Node10&#45;&gt;Node11 -->
<g id="edge13" class="edge"><title>Node10&#45;&gt;Node11</title>
<path fill="none" stroke="midnightblue" d="M363.534,-10C380.209,-10 397.41,-10 411.484,-10"/>
<polygon fill="midnightblue" stroke="midnightblue" points="363.251,-6.5001 353.251,-10 363.251,-13.5001 363.251,-6.5001"/>
</g>
<!-- Node11&#45;&gt;Node9 -->
<g id="edge14" class="edge"><title>Node11&#45;&gt;Node9</title>
<path fill="none" stroke="midnightblue" d="M485.246,-22.0495C503.202,-27.3594 523.998,-33.5093 540.838,-38.4891"/>
<polygon fill="midnightblue" stroke="midnightblue" points="486.188,-18.6783 475.606,-19.1987 484.203,-25.3909 486.188,-18.6783"/>
</g>
</g>
</svg>
        <g id="navigator" transform="translate(0 0)" fill="#404254">
                <rect fill="#f2f5e9" fill-opacity="0.5" stroke="#606060" stroke-width=".5" x="0" y="0" width="60" height="60"/>
                <use id="zoomplus" xlink:href="#zoomPlus" x="17" y="9" onmousedown="handleZoom(evt,'in')"/>
                <use id="zoomminus" xlink:href="#zoomMin" x="42" y="9" onmousedown="handleZoom(evt,'out')"/>
                <use id="reset" xlink:href="#resetDef" x="30" y="36" onmousedown="handleReset()"/>
                <g id="arrowUp" xlink:href="#dirArrow" transform="translate(30 24)" onmousedown="handlePan(0,-1)">
                  <use xlink:href="#rim" fill="#404040">
                        <set attributeName="fill" to="#808080" begin="arrowUp.mouseover" end="arrowUp.mouseout"/>
                  </use>
                  <path fill="none" stroke="white" stroke-width="1.5" d="M0,-3.0v7 M-2.5,-0.5L0,-3.0L2.5,-0.5"/>
                </g>
                <g id="arrowRight" xlink:href="#dirArrow" transform="rotate(90) translate(36 -43)" onmousedown="handlePan(1,0)">
                  <use xlink:href="#rim" fill="#404040">
                        <set attributeName="fill" to="#808080" begin="arrowRight.mouseover" end="arrowRight.mouseout"/>
                  </use>
                  <path fill="none" stroke="white" stroke-width="1.5" d="M0,-3.0v7 M-2.5,-0.5L0,-3.0L2.5,-0.5"/>
                </g>
                <g id="arrowDown" xlink:href="#dirArrow" transform="rotate(180) translate(-30 -48)" onmousedown="handlePan(0,1)">
                  <use xlink:href="#rim" fill="#404040">
                        <set attributeName="fill" to="#808080" begin="arrowDown.mouseover" end="arrowDown.mouseout"/>
                  </use>
                  <path fill="none" stroke="white" stroke-width="1.5" d="M0,-3.0v7 M-2.5,-0.5L0,-3.0L2.5,-0.5"/>
                </g>
                <g id="arrowLeft" xlink:href="#dirArrow" transform="rotate(270) translate(-36 17)" onmousedown="handlePan(-1,0)">
                  <use xlink:href="#rim" fill="#404040">
                        <set attributeName="fill" to="#808080" begin="arrowLeft.mouseover" end="arrowLeft.mouseout"/>
                  </use>
                  <path fill="none" stroke="white" stroke-width="1.5" d="M0,-3.0v7 M-2.5,-0.5L0,-3.0L2.5,-0.5"/>
                </g>
        </g>
        <svg viewBox="0 0 15 15" width="100%" height="30px" preserveAspectRatio="xMaxYMin meet">
         <g id="arrow_out" transform="scale(0.3 0.3)">
          <a xlink:href="lcd_8h_a2a4df97ebc5b396233aa31765228ef42_icgraph_org.svg" target="_base">
           <rect id="button" ry="5" rx="5" y="6" x="6" height="38" width="38"
                fill="#f2f5e9" fill-opacity="0.5" stroke="#606060" stroke-width="1.0"/>
           <path id="arrow"
             d="M 11.500037,31.436501 C 11.940474,20.09759 22.043105,11.32322 32.158766,21.979434 L 37.068811,17.246167 C 37.068811,17.246167 37.088388,32 37.088388,32 L 22.160133,31.978069 C 22.160133,31.978069 26.997745,27.140456 26.997745,27.140456 C 18.528582,18.264221 13.291696,25.230495 11.500037,31.436501 z"
             style="fill:#404040;"/>
          </a>
         </g>
        </svg>
</svg>
