<?xml version="1.0" encoding="UTF-8" standalone="no"?>
<!DOCTYPE svg PUBLIC "-//W3C//DTD SVG 1.1//EN"
 "http://www.w3.org/Graphics/SVG/1.1/DTD/svg11.dtd">
<!-- Generated by graphviz version 2.38.0 (20140413.2041)
 -->
<!-- Title: D:/GIT/fhradiov2/libs/log_exp_table.h Pages: 1 -->
<svg width="1170pt" height="374pt"
 viewBox="0.00 0.00 1169.50 374.00" xmlns="http://www.w3.org/2000/svg" xmlns:xlink="http://www.w3.org/1999/xlink">
<g id="graph0" class="graph" transform="scale(1 1) rotate(0) translate(4 370)">
<title>D:/GIT/fhradiov2/libs/log_exp_table.h</title>
<polygon fill="white" stroke="none" points="-4,4 -4,-370 1165.5,-370 1165.5,4 -4,4"/>
<!-- Node1 -->
<g id="node1" class="node"><title>Node1</title>
<polygon fill="#bfbfbf" stroke="black" points="614.5,-335.5 614.5,-365.5 717.5,-365.5 717.5,-335.5 614.5,-335.5"/>
<text text-anchor="start" x="622.5" y="-353.5" font-family="Helvetica,sans-Serif" font-size="10.00">D:/GIT/fhradiov2/libs</text>
<text text-anchor="middle" x="666" y="-342.5" font-family="Helvetica,sans-Serif" font-size="10.00">/log_exp_table.h</text>
</g>
<!-- Node2 -->
<g id="node2" class="node"><title>Node2</title>
<g id="a_node2"><a xlink:href="log__exp__table_8c.html" target="_top" xlink:title="D:/GIT/fhradiov2/libs\l/src/log_exp_table.c">
<polygon fill="white" stroke="black" points="552,-268.5 552,-298.5 656,-298.5 656,-268.5 552,-268.5"/>
<text text-anchor="start" x="560" y="-286.5" font-family="Helvetica,sans-Serif" font-size="10.00">D:/GIT/fhradiov2/libs</text>
<text text-anchor="middle" x="604" y="-275.5" font-family="Helvetica,sans-Serif" font-size="10.00">/src/log_exp_table.c</text>
</a>
</g>
</g>
<!-- Node1&#45;&gt;Node2 -->
<g id="edge1" class="edge"><title>Node1&#45;&gt;Node2</title>
<path fill="none" stroke="midnightblue" d="M645.515,-328.024C636.278,-318.34 625.627,-307.174 617.427,-298.577"/>
<polygon fill="midnightblue" stroke="midnightblue" points="643.112,-330.576 652.547,-335.396 648.177,-325.744 643.112,-330.576"/>
</g>
<!-- Node3 -->
<g id="node3" class="node"><title>Node3</title>
<g id="a_node3"><a xlink:href="radio_8h.html" target="_top" xlink:title="D:/GIT/fhradiov2/radio\l/radio.h">
<polygon fill="white" stroke="black" points="674.5,-268.5 674.5,-298.5 783.5,-298.5 783.5,-268.5 674.5,-268.5"/>
<text text-anchor="start" x="682.5" y="-286.5" font-family="Helvetica,sans-Serif" font-size="10.00">D:/GIT/fhradiov2/radio</text>
<text text-anchor="middle" x="729" y="-275.5" font-family="Helvetica,sans-Serif" font-size="10.00">/radio.h</text>
</a>
</g>
</g>
<!-- Node1&#45;&gt;Node3 -->
<g id="edge2" class="edge"><title>Node1&#45;&gt;Node3</title>
<path fill="none" stroke="midnightblue" d="M686.815,-328.024C696.201,-318.34 707.024,-307.174 715.357,-298.577"/>
<polygon fill="midnightblue" stroke="midnightblue" points="684.117,-325.779 679.67,-335.396 689.143,-330.651 684.117,-325.779"/>
</g>
<!-- Node4 -->
<g id="node4" class="node"><title>Node4</title>
<g id="a_node4"><a xlink:href="menu_8h.html" target="_top" xlink:title="D:/GIT/fhradiov2/menu\l/menu.h">
<polygon fill="white" stroke="black" points="155,-201.5 155,-231.5 267,-231.5 267,-201.5 155,-201.5"/>
<text text-anchor="start" x="163" y="-219.5" font-family="Helvetica,sans-Serif" font-size="10.00">D:/GIT/fhradiov2/menu</text>
<text text-anchor="middle" x="211" y="-208.5" font-family="Helvetica,sans-Serif" font-size="10.00">/menu.h</text>
</a>
</g>
</g>
<!-- Node3&#45;&gt;Node4 -->
<g id="edge3" class="edge"><title>Node3&#45;&gt;Node4</title>
<path fill="none" stroke="midnightblue" d="M664.528,-269.521C661.645,-268.977 658.792,-268.465 656,-268 508.726,-243.464 470.338,-248.956 322,-232 304.07,-229.951 284.644,-227.642 267.092,-225.479"/>
<polygon fill="midnightblue" stroke="midnightblue" points="663.919,-272.968 674.409,-271.479 665.28,-266.102 663.919,-272.968"/>
</g>
<!-- Node8 -->
<g id="node8" class="node"><title>Node8</title>
<g id="a_node8"><a xlink:href="handler_8h.html" target="_top" xlink:title="D:/GIT/fhradiov2/system\l/handler.h">
<polygon fill="white" stroke="black" points="260,-134.5 260,-164.5 380,-164.5 380,-134.5 260,-134.5"/>
<text text-anchor="start" x="268" y="-152.5" font-family="Helvetica,sans-Serif" font-size="10.00">D:/GIT/fhradiov2/system</text>
<text text-anchor="middle" x="320" y="-141.5" font-family="Helvetica,sans-Serif" font-size="10.00">/handler.h</text>
</a>
</g>
</g>
<!-- Node3&#45;&gt;Node8 -->
<g id="edge19" class="edge"><title>Node3&#45;&gt;Node8</title>
<path fill="none" stroke="midnightblue" d="M664.065,-268.03C540.763,-248.604 494.758,-289.636 389,-232 360.187,-216.297 338.232,-183.348 327.425,-164.507"/>
<polygon fill="midnightblue" stroke="midnightblue" points="663.813,-271.537 674.255,-269.745 664.975,-264.634 663.813,-271.537"/>
</g>
<!-- Node11 -->
<g id="node11" class="node"><title>Node11</title>
<g id="a_node11"><a xlink:href="radio__display_8h.html" target="_top" xlink:title="D:/GIT/fhradiov2/radio\l/radio_display.h">
<polygon fill="white" stroke="black" points="674.5,-201.5 674.5,-231.5 783.5,-231.5 783.5,-201.5 674.5,-201.5"/>
<text text-anchor="start" x="682.5" y="-219.5" font-family="Helvetica,sans-Serif" font-size="10.00">D:/GIT/fhradiov2/radio</text>
<text text-anchor="middle" x="729" y="-208.5" font-family="Helvetica,sans-Serif" font-size="10.00">/radio_display.h</text>
</a>
</g>
</g>
<!-- Node3&#45;&gt;Node11 -->
<g id="edge12" class="edge"><title>Node3&#45;&gt;Node11</title>
<path fill="none" stroke="midnightblue" d="M722.455,-258.403C722.005,-249.37 722.296,-239.408 723.325,-231.577"/>
<polygon fill="midnightblue" stroke="midnightblue" points="718.97,-258.736 723.322,-268.396 725.944,-258.131 718.97,-258.736"/>
</g>
<!-- Node13 -->
<g id="node13" class="node"><title>Node13</title>
<g id="a_node13"><a xlink:href="radio__settings_8h.html" target="_top" xlink:title="D:/GIT/fhradiov2/radio\l/radio_settings.h">
<polygon fill="white" stroke="black" points="766.5,-67.5 766.5,-97.5 875.5,-97.5 875.5,-67.5 766.5,-67.5"/>
<text text-anchor="start" x="774.5" y="-85.5" font-family="Helvetica,sans-Serif" font-size="10.00">D:/GIT/fhradiov2/radio</text>
<text text-anchor="middle" x="821" y="-74.5" font-family="Helvetica,sans-Serif" font-size="10.00">/radio_settings.h</text>
</a>
</g>
</g>
<!-- Node3&#45;&gt;Node13 -->
<g id="edge15" class="edge"><title>Node3&#45;&gt;Node13</title>
<path fill="none" stroke="midnightblue" d="M754.306,-262.318C764.675,-254.204 775.787,-243.925 783,-232 809.374,-188.395 812.429,-125.598 816.279,-97.7388"/>
<polygon fill="midnightblue" stroke="midnightblue" points="752.152,-259.558 746.24,-268.35 756.344,-265.164 752.152,-259.558"/>
</g>
<!-- Node15 -->
<g id="node15" class="node"><title>Node15</title>
<g id="a_node15"><a xlink:href="radio_8c.html" target="_top" xlink:title="D:/GIT/fhradiov2/radio\l/src/radio.c">
<polygon fill="white" stroke="black" points="1052.5,-201.5 1052.5,-231.5 1161.5,-231.5 1161.5,-201.5 1052.5,-201.5"/>
<text text-anchor="start" x="1060.5" y="-219.5" font-family="Helvetica,sans-Serif" font-size="10.00">D:/GIT/fhradiov2/radio</text>
<text text-anchor="middle" x="1107" y="-208.5" font-family="Helvetica,sans-Serif" font-size="10.00">/src/radio.c</text>
</a>
</g>
</g>
<!-- Node3&#45;&gt;Node15 -->
<g id="edge18" class="edge"><title>Node3&#45;&gt;Node15</title>
<path fill="none" stroke="midnightblue" d="M793.927,-273.285C857.571,-263.963 957.245,-248.593 1043,-232 1046.02,-231.416 1049.11,-230.793 1052.24,-230.147"/>
<polygon fill="midnightblue" stroke="midnightblue" points="793.032,-269.878 783.641,-274.784 794.042,-276.805 793.032,-269.878"/>
</g>
<!-- Node16 -->
<g id="node16" class="node"><title>Node16</title>
<g id="a_node16"><a xlink:href="rds_8h.html" target="_top" xlink:title="D:/GIT/fhradiov2/system\l/rds.h">
<polygon fill="white" stroke="black" points="398,-201.5 398,-231.5 518,-231.5 518,-201.5 398,-201.5"/>
<text text-anchor="start" x="406" y="-219.5" font-family="Helvetica,sans-Serif" font-size="10.00">D:/GIT/fhradiov2/system</text>
<text text-anchor="middle" x="458" y="-208.5" font-family="Helvetica,sans-Serif" font-size="10.00">/rds.h</text>
</a>
</g>
</g>
<!-- Node3&#45;&gt;Node16 -->
<g id="edge20" class="edge"><title>Node3&#45;&gt;Node16</title>
<path fill="none" stroke="midnightblue" d="M664.559,-267.044C619.655,-256.273 560.231,-242.02 516.652,-231.568"/>
<polygon fill="midnightblue" stroke="midnightblue" points="663.945,-270.495 674.485,-269.424 665.577,-263.689 663.945,-270.495"/>
</g>
<!-- Node18 -->
<g id="node18" class="node"><title>Node18</title>
<g id="a_node18"><a xlink:href="rsq_8h.html" target="_top" xlink:title="D:/GIT/fhradiov2/system\l/rsq.h">
<polygon fill="white" stroke="black" points="536,-201.5 536,-231.5 656,-231.5 656,-201.5 536,-201.5"/>
<text text-anchor="start" x="544" y="-219.5" font-family="Helvetica,sans-Serif" font-size="10.00">D:/GIT/fhradiov2/system</text>
<text text-anchor="middle" x="596" y="-208.5" font-family="Helvetica,sans-Serif" font-size="10.00">/rsq.h</text>
</a>
</g>
</g>
<!-- Node3&#45;&gt;Node18 -->
<g id="edge23" class="edge"><title>Node3&#45;&gt;Node18</title>
<path fill="none" stroke="midnightblue" d="M691.13,-263.992C670.049,-253.689 644.223,-241.068 624.803,-231.577"/>
<polygon fill="midnightblue" stroke="midnightblue" points="689.62,-267.15 700.141,-268.396 692.693,-260.86 689.62,-267.15"/>
</g>
<!-- Node20 -->
<g id="node20" class="node"><title>Node20</title>
<g id="a_node20"><a xlink:href="station__list_8h.html" target="_top" xlink:title="D:/GIT/fhradiov2/system\l/station_list.h">
<polygon fill="white" stroke="black" points="858,-134.5 858,-164.5 978,-164.5 978,-134.5 858,-134.5"/>
<text text-anchor="start" x="866" y="-152.5" font-family="Helvetica,sans-Serif" font-size="10.00">D:/GIT/fhradiov2/system</text>
<text text-anchor="middle" x="918" y="-141.5" font-family="Helvetica,sans-Serif" font-size="10.00">/station_list.h</text>
</a>
</g>
</g>
<!-- Node3&#45;&gt;Node20 -->
<g id="edge26" class="edge"><title>Node3&#45;&gt;Node20</title>
<path fill="none" stroke="midnightblue" d="M773.659,-264.639C793.425,-256.416 816.29,-245.461 835,-232 861.838,-212.69 886.197,-182.259 901.949,-164.557"/>
<polygon fill="midnightblue" stroke="midnightblue" points="772.191,-261.457 764.237,-268.455 774.819,-267.945 772.191,-261.457"/>
</g>
<!-- Node22 -->
<g id="node22" class="node"><title>Node22</title>
<g id="a_node22"><a xlink:href="station__list__struct_8h.html" target="_top" xlink:title="D:/GIT/fhradiov2/system\l/station_list_struct.h">
<polygon fill="white" stroke="black" points="914,-201.5 914,-231.5 1034,-231.5 1034,-201.5 914,-201.5"/>
<text text-anchor="start" x="922" y="-219.5" font-family="Helvetica,sans-Serif" font-size="10.00">D:/GIT/fhradiov2/system</text>
<text text-anchor="middle" x="974" y="-208.5" font-family="Helvetica,sans-Serif" font-size="10.00">/station_list_struct.h</text>
</a>
</g>
</g>
<!-- Node3&#45;&gt;Node22 -->
<g id="edge30" class="edge"><title>Node3&#45;&gt;Node22</title>
<path fill="none" stroke="midnightblue" d="M791.758,-265.85C831.703,-255.252 882.87,-241.677 920.813,-231.611"/>
<polygon fill="midnightblue" stroke="midnightblue" points="790.628,-262.529 781.86,-268.476 792.423,-269.295 790.628,-262.529"/>
</g>
<!-- Node4&#45;&gt;Node3 -->
<g id="edge8" class="edge"><title>Node4&#45;&gt;Node3</title>
<path fill="none" stroke="midnightblue" d="M277.15,-224.618C297.411,-227.018 319.667,-229.676 340,-232 488.338,-248.956 526.726,-243.464 674,-268 674.899,-268.15 675.804,-268.304 676.714,-268.463"/>
<polygon fill="midnightblue" stroke="midnightblue" points="277.413,-221.125 267.071,-223.427 276.591,-228.077 277.413,-221.125"/>
</g>
<!-- Node5 -->
<g id="node5" class="node"><title>Node5</title>
<g id="a_node5"><a xlink:href="menu__struct_8h.html" target="_top" xlink:title="D:/GIT/fhradiov2/menu\l/menu_struct.h">
<polygon fill="white" stroke="black" points="130,-134.5 130,-164.5 242,-164.5 242,-134.5 130,-134.5"/>
<text text-anchor="start" x="138" y="-152.5" font-family="Helvetica,sans-Serif" font-size="10.00">D:/GIT/fhradiov2/menu</text>
<text text-anchor="middle" x="186" y="-141.5" font-family="Helvetica,sans-Serif" font-size="10.00">/menu_struct.h</text>
</a>
</g>
</g>
<!-- Node4&#45;&gt;Node5 -->
<g id="edge4" class="edge"><title>Node4&#45;&gt;Node5</title>
<path fill="none" stroke="midnightblue" d="M195.572,-192.283C191.496,-183.022 187.786,-172.663 185.739,-164.577"/>
<polygon fill="midnightblue" stroke="midnightblue" points="192.447,-193.863 199.897,-201.396 198.771,-190.861 192.447,-193.863"/>
</g>
<!-- Node7 -->
<g id="node7" class="node"><title>Node7</title>
<g id="a_node7"><a xlink:href="menu_8c.html" target="_top" xlink:title="D:/GIT/fhradiov2/menu\l/src/menu.c">
<polygon fill="white" stroke="black" points="0,-134.5 0,-164.5 112,-164.5 112,-134.5 0,-134.5"/>
<text text-anchor="start" x="8" y="-152.5" font-family="Helvetica,sans-Serif" font-size="10.00">D:/GIT/fhradiov2/menu</text>
<text text-anchor="middle" x="56" y="-141.5" font-family="Helvetica,sans-Serif" font-size="10.00">/src/menu.c</text>
</a>
</g>
</g>
<!-- Node4&#45;&gt;Node7 -->
<g id="edge7" class="edge"><title>Node4&#45;&gt;Node7</title>
<path fill="none" stroke="midnightblue" d="M167.854,-197.407C143.109,-187.029 112.504,-174.195 89.5671,-164.577"/>
<polygon fill="midnightblue" stroke="midnightblue" points="166.792,-200.756 177.367,-201.396 169.499,-194.301 166.792,-200.756"/>
</g>
<!-- Node4&#45;&gt;Node8 -->
<g id="edge9" class="edge"><title>Node4&#45;&gt;Node8</title>
<path fill="none" stroke="midnightblue" d="M243.675,-196.015C260.637,-185.9 280.978,-173.77 296.395,-164.577"/>
<polygon fill="midnightblue" stroke="midnightblue" points="241.448,-193.268 234.651,-201.396 245.033,-199.28 241.448,-193.268"/>
</g>
<!-- Node5&#45;&gt;Node4 -->
<g id="edge5" class="edge"><title>Node5&#45;&gt;Node4</title>
<path fill="none" stroke="midnightblue" d="M201.415,-173.685C205.491,-182.944 209.203,-193.304 211.254,-201.396"/>
<polygon fill="midnightblue" stroke="midnightblue" points="204.54,-172.108 197.089,-164.577 198.217,-175.111 204.54,-172.108"/>
</g>
<!-- Node6 -->
<g id="node6" class="node"><title>Node6</title>
<g id="a_node6"><a xlink:href="menu__struct_8c.html" target="_top" xlink:title="D:/GIT/fhradiov2/menu\l/src/menu_struct.c">
<polygon fill="white" stroke="black" points="130,-67.5 130,-97.5 242,-97.5 242,-67.5 130,-67.5"/>
<text text-anchor="start" x="138" y="-85.5" font-family="Helvetica,sans-Serif" font-size="10.00">D:/GIT/fhradiov2/menu</text>
<text text-anchor="middle" x="186" y="-74.5" font-family="Helvetica,sans-Serif" font-size="10.00">/src/menu_struct.c</text>
</a>
</g>
</g>
<!-- Node5&#45;&gt;Node6 -->
<g id="edge6" class="edge"><title>Node5&#45;&gt;Node6</title>
<path fill="none" stroke="midnightblue" d="M186,-124.108C186,-115.154 186,-105.323 186,-97.5765"/>
<polygon fill="midnightblue" stroke="midnightblue" points="182.5,-124.396 186,-134.396 189.5,-124.396 182.5,-124.396"/>
</g>
<!-- Node9 -->
<g id="node9" class="node"><title>Node9</title>
<g id="a_node9"><a xlink:href="main_8c.html" target="_top" xlink:title="D:/GIT/fhradiov2/main.c">
<polygon fill="white" stroke="black" points="398.5,-73 398.5,-92 515.5,-92 515.5,-73 398.5,-73"/>
<text text-anchor="middle" x="457" y="-80" font-family="Helvetica,sans-Serif" font-size="10.00">D:/GIT/fhradiov2/main.c</text>
</a>
</g>
</g>
<!-- Node8&#45;&gt;Node9 -->
<g id="edge10" class="edge"><title>Node8&#45;&gt;Node9</title>
<path fill="none" stroke="midnightblue" d="M359.061,-129.967C385.378,-117.481 418.855,-101.598 439.07,-92.007"/>
<polygon fill="midnightblue" stroke="midnightblue" points="357.261,-126.947 349.727,-134.396 360.262,-133.272 357.261,-126.947"/>
</g>
<!-- Node10 -->
<g id="node10" class="node"><title>Node10</title>
<g id="a_node10"><a xlink:href="handler_8c.html" target="_top" xlink:title="D:/GIT/fhradiov2/system\l/src/handler.c">
<polygon fill="white" stroke="black" points="260,-67.5 260,-97.5 380,-97.5 380,-67.5 260,-67.5"/>
<text text-anchor="start" x="268" y="-85.5" font-family="Helvetica,sans-Serif" font-size="10.00">D:/GIT/fhradiov2/system</text>
<text text-anchor="middle" x="320" y="-74.5" font-family="Helvetica,sans-Serif" font-size="10.00">/src/handler.c</text>
</a>
</g>
</g>
<!-- Node8&#45;&gt;Node10 -->
<g id="edge11" class="edge"><title>Node8&#45;&gt;Node10</title>
<path fill="none" stroke="midnightblue" d="M320,-124.108C320,-115.154 320,-105.323 320,-97.5765"/>
<polygon fill="midnightblue" stroke="midnightblue" points="316.5,-124.396 320,-134.396 323.5,-124.396 316.5,-124.396"/>
</g>
<!-- Node11&#45;&gt;Node3 -->
<g id="edge13" class="edge"><title>Node11&#45;&gt;Node3</title>
<path fill="none" stroke="midnightblue" d="M735.544,-241.565C735.995,-250.596 735.706,-260.56 734.678,-268.396"/>
<polygon fill="midnightblue" stroke="midnightblue" points="739.028,-241.236 734.675,-231.577 732.055,-241.842 739.028,-241.236"/>
</g>
<!-- Node12 -->
<g id="node12" class="node"><title>Node12</title>
<g id="a_node12"><a xlink:href="radio__display_8c.html" target="_top" xlink:title="D:/GIT/fhradiov2/radio\l/src/radio_display.c">
<polygon fill="white" stroke="black" points="674.5,-134.5 674.5,-164.5 783.5,-164.5 783.5,-134.5 674.5,-134.5"/>
<text text-anchor="start" x="682.5" y="-152.5" font-family="Helvetica,sans-Serif" font-size="10.00">D:/GIT/fhradiov2/radio</text>
<text text-anchor="middle" x="729" y="-141.5" font-family="Helvetica,sans-Serif" font-size="10.00">/src/radio_display.c</text>
</a>
</g>
</g>
<!-- Node11&#45;&gt;Node12 -->
<g id="edge14" class="edge"><title>Node11&#45;&gt;Node12</title>
<path fill="none" stroke="midnightblue" d="M729,-191.108C729,-182.154 729,-172.323 729,-164.577"/>
<polygon fill="midnightblue" stroke="midnightblue" points="725.5,-191.396 729,-201.396 732.5,-191.396 725.5,-191.396"/>
</g>
<!-- Node13&#45;&gt;Node3 -->
<g id="edge16" class="edge"><title>Node13&#45;&gt;Node3</title>
<path fill="none" stroke="midnightblue" d="M827.478,-108.063C829.482,-139.106 824.489,-193.165 801,-232 791.859,-247.113 776.455,-259.583 762.094,-268.35"/>
<polygon fill="midnightblue" stroke="midnightblue" points="830.924,-107.341 826.445,-97.7388 823.958,-108.038 830.924,-107.341"/>
</g>
<!-- Node14 -->
<g id="node14" class="node"><title>Node14</title>
<g id="a_node14"><a xlink:href="radio__settings_8c.html" target="_top" xlink:title="D:/GIT/fhradiov2/radio\l/src/radio_settings.c">
<polygon fill="white" stroke="black" points="766.5,-0.5 766.5,-30.5 875.5,-30.5 875.5,-0.5 766.5,-0.5"/>
<text text-anchor="start" x="774.5" y="-18.5" font-family="Helvetica,sans-Serif" font-size="10.00">D:/GIT/fhradiov2/radio</text>
<text text-anchor="middle" x="821" y="-7.5" font-family="Helvetica,sans-Serif" font-size="10.00">/src/radio_settings.c</text>
</a>
</g>
</g>
<!-- Node13&#45;&gt;Node14 -->
<g id="edge17" class="edge"><title>Node13&#45;&gt;Node14</title>
<path fill="none" stroke="midnightblue" d="M821,-57.1081C821,-48.1539 821,-38.3227 821,-30.5765"/>
<polygon fill="midnightblue" stroke="midnightblue" points="817.5,-57.3959 821,-67.396 824.5,-57.396 817.5,-57.3959"/>
</g>
<!-- Node16&#45;&gt;Node8 -->
<g id="edge21" class="edge"><title>Node16&#45;&gt;Node8</title>
<path fill="none" stroke="midnightblue" d="M419,-197.131C397.073,-186.802 370.126,-174.11 349.886,-164.577"/>
<polygon fill="midnightblue" stroke="midnightblue" points="417.518,-200.301 428.056,-201.396 420.501,-193.968 417.518,-200.301"/>
</g>
<!-- Node17 -->
<g id="node17" class="node"><title>Node17</title>
<g id="a_node17"><a xlink:href="rds_8c.html" target="_top" xlink:title="D:/GIT/fhradiov2/system\l/src/rds.c">
<polygon fill="white" stroke="black" points="398,-134.5 398,-164.5 518,-164.5 518,-134.5 398,-134.5"/>
<text text-anchor="start" x="406" y="-152.5" font-family="Helvetica,sans-Serif" font-size="10.00">D:/GIT/fhradiov2/system</text>
<text text-anchor="middle" x="458" y="-141.5" font-family="Helvetica,sans-Serif" font-size="10.00">/src/rds.c</text>
</a>
</g>
</g>
<!-- Node16&#45;&gt;Node17 -->
<g id="edge22" class="edge"><title>Node16&#45;&gt;Node17</title>
<path fill="none" stroke="midnightblue" d="M458,-191.108C458,-182.154 458,-172.323 458,-164.577"/>
<polygon fill="midnightblue" stroke="midnightblue" points="454.5,-191.396 458,-201.396 461.5,-191.396 454.5,-191.396"/>
</g>
<!-- Node18&#45;&gt;Node8 -->
<g id="edge24" class="edge"><title>Node18&#45;&gt;Node8</title>
<path fill="none" stroke="midnightblue" d="M526.442,-199.119C481.28,-188.483 423.023,-174.763 379.917,-164.611"/>
<polygon fill="midnightblue" stroke="midnightblue" points="525.916,-202.59 536.452,-201.476 527.521,-195.777 525.916,-202.59"/>
</g>
<!-- Node19 -->
<g id="node19" class="node"><title>Node19</title>
<g id="a_node19"><a xlink:href="rsq_8c.html" target="_top" xlink:title="D:/GIT/fhradiov2/system\l/src/rsq.c">
<polygon fill="white" stroke="black" points="536,-134.5 536,-164.5 656,-164.5 656,-134.5 536,-134.5"/>
<text text-anchor="start" x="544" y="-152.5" font-family="Helvetica,sans-Serif" font-size="10.00">D:/GIT/fhradiov2/system</text>
<text text-anchor="middle" x="596" y="-141.5" font-family="Helvetica,sans-Serif" font-size="10.00">/src/rsq.c</text>
</a>
</g>
</g>
<!-- Node18&#45;&gt;Node19 -->
<g id="edge25" class="edge"><title>Node18&#45;&gt;Node19</title>
<path fill="none" stroke="midnightblue" d="M596,-191.108C596,-182.154 596,-172.323 596,-164.577"/>
<polygon fill="midnightblue" stroke="midnightblue" points="592.5,-191.396 596,-201.396 599.5,-191.396 592.5,-191.396"/>
</g>
<!-- Node20&#45;&gt;Node3 -->
<g id="edge27" class="edge"><title>Node20&#45;&gt;Node3</title>
<path fill="none" stroke="midnightblue" d="M908.955,-173.203C896.911,-191.048 875.855,-215.556 853,-232 831.229,-247.664 803.831,-259.934 780.24,-268.455"/>
<polygon fill="midnightblue" stroke="midnightblue" points="912.032,-174.885 914.394,-164.557 906.107,-171.158 912.032,-174.885"/>
</g>
<!-- Node20&#45;&gt;Node13 -->
<g id="edge28" class="edge"><title>Node20&#45;&gt;Node13</title>
<path fill="none" stroke="midnightblue" d="M888.503,-128.734C873.493,-118.676 855.599,-106.685 842.006,-97.5765"/>
<polygon fill="midnightblue" stroke="midnightblue" points="886.697,-131.737 896.952,-134.396 890.594,-125.922 886.697,-131.737"/>
</g>
<!-- Node21 -->
<g id="node21" class="node"><title>Node21</title>
<g id="a_node21"><a xlink:href="station__list_8c.html" target="_top" xlink:title="D:/GIT/fhradiov2/system\l/src/station_list.c">
<polygon fill="white" stroke="black" points="894,-67.5 894,-97.5 1014,-97.5 1014,-67.5 894,-67.5"/>
<text text-anchor="start" x="902" y="-85.5" font-family="Helvetica,sans-Serif" font-size="10.00">D:/GIT/fhradiov2/system</text>
<text text-anchor="middle" x="954" y="-74.5" font-family="Helvetica,sans-Serif" font-size="10.00">/src/station_list.c</text>
</a>
</g>
</g>
<!-- Node20&#45;&gt;Node21 -->
<g id="edge29" class="edge"><title>Node20&#45;&gt;Node21</title>
<path fill="none" stroke="midnightblue" d="M930.697,-125.576C935.867,-116.241 941.678,-105.748 946.204,-97.5765"/>
<polygon fill="midnightblue" stroke="midnightblue" points="927.595,-123.952 925.811,-134.396 933.718,-127.344 927.595,-123.952"/>
</g>
<!-- Node22&#45;&gt;Node20 -->
<g id="edge32" class="edge"><title>Node22&#45;&gt;Node20</title>
<path fill="none" stroke="midnightblue" d="M955.25,-193.736C946.964,-184.119 937.461,-173.089 930.127,-164.577"/>
<polygon fill="midnightblue" stroke="midnightblue" points="952.67,-196.104 961.849,-201.396 957.973,-191.535 952.67,-196.104"/>
</g>
<!-- Node23 -->
<g id="node23" class="node"><title>Node23</title>
<g id="a_node23"><a xlink:href="station__list__struct_8c.html" target="_top" xlink:title="D:/GIT/fhradiov2/system\l/src/station_list_struct.c">
<polygon fill="white" stroke="black" points="996,-134.5 996,-164.5 1118,-164.5 1118,-134.5 996,-134.5"/>
<text text-anchor="start" x="1004" y="-152.5" font-family="Helvetica,sans-Serif" font-size="10.00">D:/GIT/fhradiov2/system</text>
<text text-anchor="middle" x="1057" y="-141.5" font-family="Helvetica,sans-Serif" font-size="10.00">/src/station_list_struct.c</text>
</a>
</g>
</g>
<!-- Node22&#45;&gt;Node23 -->
<g id="edge31" class="edge"><title>Node22&#45;&gt;Node23</title>
<path fill="none" stroke="midnightblue" d="M999.963,-195.168C1012.65,-185.228 1027.61,-173.514 1039.03,-164.577"/>
<polygon fill="midnightblue" stroke="midnightblue" points="997.725,-192.475 992.01,-201.396 1002.04,-197.986 997.725,-192.475"/>
</g>
</g>
</svg>
