<?xml version="1.0" encoding="UTF-8" standalone="no"?>
<!DOCTYPE svg PUBLIC "-//W3C//DTD SVG 1.1//EN"
 "http://www.w3.org/Graphics/SVG/1.1/DTD/svg11.dtd">
<!-- Generated by graphviz version 2.38.0 (20140413.2041)
 -->
<!-- Title: main.c Pages: 1 -->
<svg width="1683pt" height="509pt"
 viewBox="0.00 0.00 1682.61 509.00" xmlns="http://www.w3.org/2000/svg" xmlns:xlink="http://www.w3.org/1999/xlink">
<g id="graph0" class="graph" transform="scale(1 1) rotate(0) translate(4 505)">
<title>main.c</title>
<polygon fill="white" stroke="none" points="-4,4 -4,-505 1678.61,-505 1678.61,4 -4,4"/>
<!-- Node1 -->
<g id="node1" class="node"><title>Node1</title>
<polygon fill="#bfbfbf" stroke="black" points="655.113,-481.5 655.113,-500.5 701.113,-500.5 701.113,-481.5 655.113,-481.5"/>
<text text-anchor="middle" x="678.113" y="-488.5" font-family="Helvetica,sans-Serif" font-size="10.00">main.c</text>
</g>
<!-- Node2 -->
<g id="node2" class="node"><title>Node2</title>
<polygon fill="white" stroke="#bfbfbf" points="949.613,-123.5 949.613,-142.5 1008.61,-142.5 1008.61,-123.5 949.613,-123.5"/>
<text text-anchor="middle" x="979.113" y="-130.5" font-family="Helvetica,sans-Serif" font-size="10.00">msp430.h</text>
</g>
<!-- Node1&#45;&gt;Node2 -->
<g id="edge1" class="edge"><title>Node1&#45;&gt;Node2</title>
<path fill="none" stroke="midnightblue" d="M701.393,-488.531C735.209,-485.379 798.619,-475.538 842.113,-445 943.994,-373.468 970.999,-208.59 977.346,-152.826"/>
<polygon fill="midnightblue" stroke="midnightblue" points="980.85,-152.964 978.406,-142.655 973.888,-152.238 980.85,-152.964"/>
</g>
<!-- Node3 -->
<g id="node3" class="node"><title>Node3</title>
<polygon fill="white" stroke="#bfbfbf" points="29.1133,-425.5 29.1133,-444.5 115.113,-444.5 115.113,-425.5 29.1133,-425.5"/>
<text text-anchor="middle" x="72.1133" y="-432.5" font-family="Helvetica,sans-Serif" font-size="10.00">msp430g2553.h</text>
</g>
<!-- Node1&#45;&gt;Node3 -->
<g id="edge2" class="edge"><title>Node1&#45;&gt;Node3</title>
<path fill="none" stroke="midnightblue" d="M655.08,-488.876C580.235,-485.068 336.979,-471.46 125.256,-445.034"/>
<polygon fill="midnightblue" stroke="midnightblue" points="125.558,-441.544 115.198,-443.766 124.682,-448.489 125.558,-441.544"/>
</g>
<!-- Node4 -->
<g id="node4" class="node"><title>Node4</title>
<polygon fill="white" stroke="#bfbfbf" points="133.113,-425.5 133.113,-444.5 197.113,-444.5 197.113,-425.5 133.113,-425.5"/>
<text text-anchor="middle" x="165.113" y="-432.5" font-family="Helvetica,sans-Serif" font-size="10.00">intrinsics.h</text>
</g>
<!-- Node1&#45;&gt;Node4 -->
<g id="edge3" class="edge"><title>Node1&#45;&gt;Node4</title>
<path fill="none" stroke="midnightblue" d="M654.905,-488.785C587.369,-485.04 384.996,-472.331 207.322,-445.01"/>
<polygon fill="midnightblue" stroke="midnightblue" points="207.692,-441.526 197.273,-443.445 206.615,-448.442 207.692,-441.526"/>
</g>
<!-- Node5 -->
<g id="node5" class="node"><title>Node5</title>
<polygon fill="white" stroke="#bfbfbf" points="215.113,-425.5 215.113,-444.5 261.113,-444.5 261.113,-425.5 215.113,-425.5"/>
<text text-anchor="middle" x="238.113" y="-432.5" font-family="Helvetica,sans-Serif" font-size="10.00">stdio.h</text>
</g>
<!-- Node1&#45;&gt;Node5 -->
<g id="edge4" class="edge"><title>Node1&#45;&gt;Node5</title>
<path fill="none" stroke="midnightblue" d="M654.795,-488.441C592.695,-484.063 418.272,-470.298 275.113,-445 273.868,-444.78 272.603,-444.543 271.327,-444.292"/>
<polygon fill="midnightblue" stroke="midnightblue" points="272.02,-440.861 261.506,-442.167 270.54,-447.702 272.02,-440.861"/>
</g>
<!-- Node6 -->
<g id="node6" class="node"><title>Node6</title>
<polygon fill="white" stroke="#bfbfbf" points="579.113,-179.5 579.113,-198.5 627.113,-198.5 627.113,-179.5 579.113,-179.5"/>
<text text-anchor="middle" x="603.113" y="-186.5" font-family="Helvetica,sans-Serif" font-size="10.00">stdlib.h</text>
</g>
<!-- Node1&#45;&gt;Node6 -->
<g id="edge5" class="edge"><title>Node1&#45;&gt;Node6</title>
<path fill="none" stroke="midnightblue" d="M655.042,-488.899C578.406,-485.008 335.873,-470.738 313.113,-445 251.286,-375.082 252.387,-305.876 313.113,-235 345.681,-196.989 499.096,-190.817 568.664,-190.002"/>
<polygon fill="midnightblue" stroke="midnightblue" points="569.108,-193.499 579.078,-189.914 569.048,-186.499 569.108,-193.499"/>
</g>
<!-- Node7 -->
<g id="node7" class="node"><title>Node7</title>
<polygon fill="white" stroke="#bfbfbf" points="973.613,-0.5 973.613,-19.5 1022.61,-19.5 1022.61,-0.5 973.613,-0.5"/>
<text text-anchor="middle" x="998.113" y="-7.5" font-family="Helvetica,sans-Serif" font-size="10.00">stdint.h</text>
</g>
<!-- Node1&#45;&gt;Node7 -->
<g id="edge6" class="edge"><title>Node1&#45;&gt;Node7</title>
<path fill="none" stroke="midnightblue" d="M654.831,-489.96C543.698,-489.565 70.4697,-485.501 20.1133,-445 -3.34,-426.137 1.11333,-410.098 1.11333,-380 1.11333,-380 1.11333,-380 1.11333,-132 1.11333,-32.8955 787.482,-14.385 963.459,-11.4834"/>
<polygon fill="midnightblue" stroke="midnightblue" points="963.525,-14.9829 973.468,-11.3245 963.414,-7.98376 963.525,-14.9829"/>
</g>
<!-- Node8 -->
<g id="node8" class="node"><title>Node8</title>
<g id="a_node8"><a xlink:href="i2c_8h.html" target="_top" xlink:title="I2C implemtation for MSP430G2553, interrupt based. &#160;&#160;This implemtation based on examples from Texas I...">
<polygon fill="white" stroke="black" points="661.613,-241 661.613,-260 724.613,-260 724.613,-241 661.613,-241"/>
<text text-anchor="middle" x="693.113" y="-248" font-family="Helvetica,sans-Serif" font-size="10.00">driver/i2c.h</text>
</a>
</g>
</g>
<!-- Node1&#45;&gt;Node8 -->
<g id="edge7" class="edge"><title>Node1&#45;&gt;Node8</title>
<path fill="none" stroke="midnightblue" d="M691.664,-481.453C714.451,-466.173 759.662,-431.735 777.113,-389 796.64,-341.183 744.302,-290.814 713.607,-266.449"/>
<polygon fill="midnightblue" stroke="midnightblue" points="715.661,-263.613 705.601,-260.29 711.393,-269.162 715.661,-263.613"/>
</g>
<!-- Node10 -->
<g id="node10" class="node"><title>Node10</title>
<g id="a_node10"><a xlink:href="timer_8h.html" target="_top" xlink:title="driver/timer.h">
<polygon fill="white" stroke="black" points="721.113,-179.5 721.113,-198.5 793.113,-198.5 793.113,-179.5 721.113,-179.5"/>
<text text-anchor="middle" x="757.113" y="-186.5" font-family="Helvetica,sans-Serif" font-size="10.00">driver/timer.h</text>
</a>
</g>
</g>
<!-- Node1&#45;&gt;Node10 -->
<g id="edge48" class="edge"><title>Node1&#45;&gt;Node10</title>
<path fill="none" stroke="midnightblue" d="M655.083,-487.834C576.995,-479.863 327.113,-448.969 327.113,-380 327.113,-380 327.113,-380 327.113,-316.5 327.113,-237.252 599.311,-204.031 710.572,-193.761"/>
<polygon fill="midnightblue" stroke="midnightblue" points="711.177,-197.221 720.822,-192.838 710.549,-190.249 711.177,-197.221"/>
</g>
<!-- Node13 -->
<g id="node13" class="node"><title>Node13</title>
<g id="a_node13"><a xlink:href="si4735_8h.html" target="_top" xlink:title="driver/si4735.h">
<polygon fill="white" stroke="black" points="833.613,-308 833.613,-327 912.613,-327 912.613,-308 833.613,-308"/>
<text text-anchor="middle" x="873.113" y="-315" font-family="Helvetica,sans-Serif" font-size="10.00">driver/si4735.h</text>
</a>
</g>
</g>
<!-- Node1&#45;&gt;Node13 -->
<g id="edge18" class="edge"><title>Node1&#45;&gt;Node13</title>
<path fill="none" stroke="midnightblue" d="M701.276,-488.451C731.868,-485.233 785.755,-475.345 819.113,-445 851.095,-415.907 864.849,-364.691 870.162,-337.197"/>
<polygon fill="midnightblue" stroke="midnightblue" points="873.617,-337.759 871.902,-327.304 866.723,-336.546 873.617,-337.759"/>
</g>
<!-- Node15 -->
<g id="node15" class="node"><title>Node15</title>
<g id="a_node15"><a xlink:href="pca9530_8h.html" target="_top" xlink:title="driver/pca9530.h">
<polygon fill="white" stroke="black" points="1449.61,-308 1449.61,-327 1536.61,-327 1536.61,-308 1449.61,-308"/>
<text text-anchor="middle" x="1493.11" y="-315" font-family="Helvetica,sans-Serif" font-size="10.00">driver/pca9530.h</text>
</a>
</g>
</g>
<!-- Node1&#45;&gt;Node15 -->
<g id="edge23" class="edge"><title>Node1&#45;&gt;Node15</title>
<path fill="none" stroke="midnightblue" d="M701.276,-489.327C801.453,-486.272 1197.84,-472.639 1319.11,-445 1384.86,-430.017 1411.03,-435.234 1460.11,-389 1474.99,-374.982 1483.81,-352.912 1488.54,-337.202"/>
<polygon fill="midnightblue" stroke="midnightblue" points="1492.04,-337.66 1491.28,-327.093 1485.28,-335.827 1492.04,-337.66"/>
</g>
<!-- Node16 -->
<g id="node16" class="node"><title>Node16</title>
<g id="a_node16"><a xlink:href="tpa2016d2_8h.html" target="_top" xlink:title="driver/tpa2016d2.h">
<polygon fill="white" stroke="black" points="393.613,-308 393.613,-327 488.613,-327 488.613,-308 393.613,-308"/>
<text text-anchor="middle" x="441.113" y="-315" font-family="Helvetica,sans-Serif" font-size="10.00">driver/tpa2016d2.h</text>
</a>
</g>
</g>
<!-- Node1&#45;&gt;Node16 -->
<g id="edge26" class="edge"><title>Node1&#45;&gt;Node16</title>
<path fill="none" stroke="midnightblue" d="M654.967,-486.498C622.424,-480.946 561.894,-468.286 515.113,-445 478.507,-426.778 460.461,-425.544 442.113,-389 434.06,-372.96 434.904,-352.167 437.095,-337.327"/>
<polygon fill="midnightblue" stroke="midnightblue" points="440.57,-337.78 438.908,-327.317 433.682,-336.533 440.57,-337.78"/>
</g>
<!-- Node17 -->
<g id="node17" class="node"><title>Node17</title>
<g id="a_node17"><a xlink:href="lcd_8h.html" target="_top" xlink:title="driver/lcd.h">
<polygon fill="white" stroke="black" points="705.613,-369.5 705.613,-388.5 768.613,-388.5 768.613,-369.5 705.613,-369.5"/>
<text text-anchor="middle" x="737.113" y="-376.5" font-family="Helvetica,sans-Serif" font-size="10.00">driver/lcd.h</text>
</a>
</g>
</g>
<!-- Node1&#45;&gt;Node17 -->
<g id="edge32" class="edge"><title>Node1&#45;&gt;Node17</title>
<path fill="none" stroke="midnightblue" d="M682.743,-481.368C692.393,-463.376 714.827,-421.55 727.659,-397.627"/>
<polygon fill="midnightblue" stroke="midnightblue" points="730.863,-399.058 732.505,-388.591 724.694,-395.749 730.863,-399.058"/>
</g>
<!-- Node20 -->
<g id="node20" class="node"><title>Node20</title>
<g id="a_node20"><a xlink:href="encoder_8h.html" target="_top" xlink:title="driver/encoder.h">
<polygon fill="white" stroke="black" points="1031.61,-369.5 1031.61,-388.5 1116.61,-388.5 1116.61,-369.5 1031.61,-369.5"/>
<text text-anchor="middle" x="1074.11" y="-376.5" font-family="Helvetica,sans-Serif" font-size="10.00">driver/encoder.h</text>
</a>
</g>
</g>
<!-- Node1&#45;&gt;Node20 -->
<g id="edge40" class="edge"><title>Node1&#45;&gt;Node20</title>
<path fill="none" stroke="midnightblue" d="M701.323,-487.578C744.583,-482.638 840.13,-469.722 917.113,-445 937.181,-438.556 940.747,-433.318 960.113,-425 987.363,-413.297 1018.73,-400.999 1041.66,-392.222"/>
<polygon fill="midnightblue" stroke="midnightblue" points="1043.14,-395.402 1051.24,-388.571 1040.65,-388.861 1043.14,-395.402"/>
</g>
<!-- Node22 -->
<g id="node22" class="node"><title>Node22</title>
<g id="a_node22"><a xlink:href="menu_8h.html" target="_top" xlink:title="Menu.h">
<polygon fill="white" stroke="black" points="969.613,-425.5 969.613,-444.5 1018.61,-444.5 1018.61,-425.5 969.613,-425.5"/>
<text text-anchor="middle" x="994.113" y="-432.5" font-family="Helvetica,sans-Serif" font-size="10.00">Menu.h</text>
</a>
</g>
</g>
<!-- Node1&#45;&gt;Node22 -->
<g id="edge49" class="edge"><title>Node1&#45;&gt;Node22</title>
<path fill="none" stroke="midnightblue" d="M701.187,-486.776C748.818,-480.004 861.411,-463.402 955.113,-445 956.562,-444.715 958.039,-444.416 959.53,-444.106"/>
<polygon fill="midnightblue" stroke="midnightblue" points="960.38,-447.503 969.408,-441.959 958.893,-440.663 960.38,-447.503"/>
</g>
<!-- Node23 -->
<g id="node23" class="node"><title>Node23</title>
<g id="a_node23"><a xlink:href="menu_2menu_8h.html" target="_top" xlink:title="menu/menu.h">
<polygon fill="white" stroke="black" points="524.113,-425.5 524.113,-444.5 600.113,-444.5 600.113,-425.5 524.113,-425.5"/>
<text text-anchor="middle" x="562.113" y="-432.5" font-family="Helvetica,sans-Serif" font-size="10.00">menu/menu.h</text>
</a>
</g>
</g>
<!-- Node1&#45;&gt;Node23 -->
<g id="edge50" class="edge"><title>Node1&#45;&gt;Node23</title>
<path fill="none" stroke="midnightblue" d="M659.733,-481.444C640.897,-472.675 611.382,-458.935 589.734,-448.858"/>
<polygon fill="midnightblue" stroke="midnightblue" points="590.951,-445.564 580.408,-444.516 587.997,-451.91 590.951,-445.564"/>
</g>
<!-- Node26 -->
<g id="node26" class="node"><title>Node26</title>
<g id="a_node26"><a xlink:href="radio_8h.html" target="_top" xlink:title="system/radio.h">
<polygon fill="white" stroke="black" points="1229.61,-425.5 1229.61,-444.5 1310.61,-444.5 1310.61,-425.5 1229.61,-425.5"/>
<text text-anchor="middle" x="1270.11" y="-432.5" font-family="Helvetica,sans-Serif" font-size="10.00">system/radio.h</text>
</a>
</g>
</g>
<!-- Node1&#45;&gt;Node26 -->
<g id="edge56" class="edge"><title>Node1&#45;&gt;Node26</title>
<path fill="none" stroke="midnightblue" d="M701.32,-487.883C788.355,-479.944 1096.63,-451.825 1219.26,-440.639"/>
<polygon fill="midnightblue" stroke="midnightblue" points="1219.86,-444.099 1229.5,-439.705 1219.22,-437.128 1219.86,-444.099"/>
</g>
<!-- Node8&#45;&gt;Node2 -->
<g id="edge9" class="edge"><title>Node8&#45;&gt;Node2</title>
<path fill="none" stroke="midnightblue" d="M724.719,-243.304C761.194,-235.54 822.52,-220.58 872.113,-199 904.231,-185.024 938.314,-162.886 959.16,-148.4"/>
<polygon fill="midnightblue" stroke="midnightblue" points="961.339,-151.146 967.496,-142.524 957.306,-145.425 961.339,-151.146"/>
</g>
<!-- Node8&#45;&gt;Node6 -->
<g id="edge10" class="edge"><title>Node8&#45;&gt;Node6</title>
<path fill="none" stroke="midnightblue" d="M680.219,-240.975C665.649,-231.343 641.711,-215.517 624.368,-204.052"/>
<polygon fill="midnightblue" stroke="midnightblue" points="626.256,-201.104 615.984,-198.509 622.396,-206.944 626.256,-201.104"/>
</g>
<!-- Node8&#45;&gt;Node7 -->
<g id="edge8" class="edge"><title>Node8&#45;&gt;Node7</title>
<path fill="none" stroke="midnightblue" d="M693.886,-240.627C695.447,-226.61 699.934,-198.892 712.113,-179 754.67,-109.495 777.12,-96.0238 848.113,-56 884.712,-35.3667 931.783,-23.2465 963.347,-16.88"/>
<polygon fill="midnightblue" stroke="midnightblue" points="964.263,-20.2679 973.42,-14.9375 962.938,-13.3945 964.263,-20.2679"/>
</g>
<!-- Node9 -->
<g id="node9" class="node"><title>Node9</title>
<polygon fill="white" stroke="#bfbfbf" points="811.113,-179.5 811.113,-198.5 863.113,-198.5 863.113,-179.5 811.113,-179.5"/>
<text text-anchor="middle" x="837.113" y="-186.5" font-family="Helvetica,sans-Serif" font-size="10.00">stdarg.h</text>
</g>
<!-- Node8&#45;&gt;Node9 -->
<g id="edge11" class="edge"><title>Node8&#45;&gt;Node9</title>
<path fill="none" stroke="midnightblue" d="M713.745,-240.975C738.232,-230.857 779.26,-213.905 807.223,-202.351"/>
<polygon fill="midnightblue" stroke="midnightblue" points="808.614,-205.563 816.52,-198.509 805.941,-199.093 808.614,-205.563"/>
</g>
<!-- Node8&#45;&gt;Node10 -->
<g id="edge12" class="edge"><title>Node8&#45;&gt;Node10</title>
<path fill="none" stroke="midnightblue" d="M702.283,-240.975C712.263,-231.697 728.426,-216.671 740.623,-205.331"/>
<polygon fill="midnightblue" stroke="midnightblue" points="743.02,-207.881 747.961,-198.509 738.254,-202.755 743.02,-207.881"/>
</g>
<!-- Node10&#45;&gt;Node2 -->
<g id="edge13" class="edge"><title>Node10&#45;&gt;Node2</title>
<path fill="none" stroke="midnightblue" d="M792.29,-179.444C832.387,-169.69 897.769,-153.786 939.592,-143.613"/>
<polygon fill="midnightblue" stroke="midnightblue" points="940.54,-146.985 949.43,-141.22 938.886,-140.183 940.54,-146.985"/>
</g>
<!-- Node10&#45;&gt;Node7 -->
<g id="edge14" class="edge"><title>Node10&#45;&gt;Node7</title>
<path fill="none" stroke="midnightblue" d="M763.637,-179.436C781.447,-156.56 833.311,-93.2388 889.113,-56 912.151,-40.6264 941.279,-28.9346 963.627,-21.3265"/>
<polygon fill="midnightblue" stroke="midnightblue" points="964.967,-24.5702 973.372,-18.1197 962.779,-17.921 964.967,-24.5702"/>
</g>
<!-- Node11 -->
<g id="node11" class="node"><title>Node11</title>
<g id="a_node11"><a xlink:href="radio__configuration_8h.html" target="_top" xlink:title="settings/radio_configuration.h">
<polygon fill="white" stroke="black" points="1166.61,-123.5 1166.61,-142.5 1309.61,-142.5 1309.61,-123.5 1166.61,-123.5"/>
<text text-anchor="middle" x="1238.11" y="-130.5" font-family="Helvetica,sans-Serif" font-size="10.00">settings/radio_configuration.h</text>
</a>
</g>
</g>
<!-- Node10&#45;&gt;Node11 -->
<g id="edge15" class="edge"><title>Node10&#45;&gt;Node11</title>
<path fill="none" stroke="midnightblue" d="M793.411,-180.434C796.349,-179.915 799.277,-179.429 802.113,-179 924.97,-160.417 1068.48,-147.232 1156.32,-140.12"/>
<polygon fill="midnightblue" stroke="midnightblue" points="1156.79,-143.592 1166.48,-139.303 1156.23,-136.615 1156.79,-143.592"/>
</g>
<!-- Node12 -->
<g id="node12" class="node"><title>Node12</title>
<g id="a_node12"><a xlink:href="si4735__cmd__prop_8h.html" target="_top" xlink:title="driver/include/si4735\l_cmd_prop.h">
<polygon fill="white" stroke="black" points="1186.11,-56.5 1186.11,-86.5 1290.11,-86.5 1290.11,-56.5 1186.11,-56.5"/>
<text text-anchor="start" x="1194.11" y="-74.5" font-family="Helvetica,sans-Serif" font-size="10.00">driver/include/si4735</text>
<text text-anchor="middle" x="1238.11" y="-63.5" font-family="Helvetica,sans-Serif" font-size="10.00">_cmd_prop.h</text>
</a>
</g>
</g>
<!-- Node11&#45;&gt;Node12 -->
<g id="edge16" class="edge"><title>Node11&#45;&gt;Node12</title>
<path fill="none" stroke="midnightblue" d="M1238.11,-123.475C1238.11,-116.471 1238.11,-106.192 1238.11,-96.6956"/>
<polygon fill="midnightblue" stroke="midnightblue" points="1241.61,-96.5229 1238.11,-86.523 1234.61,-96.523 1241.61,-96.5229"/>
</g>
<!-- Node12&#45;&gt;Node7 -->
<g id="edge17" class="edge"><title>Node12&#45;&gt;Node7</title>
<path fill="none" stroke="midnightblue" d="M1186.04,-57.5894C1139.49,-46.0503 1072.62,-29.4716 1032.47,-19.5168"/>
<polygon fill="midnightblue" stroke="midnightblue" points="1033.17,-16.0846 1022.62,-17.0754 1031.48,-22.8789 1033.17,-16.0846"/>
</g>
<!-- Node13&#45;&gt;Node7 -->
<g id="edge19" class="edge"><title>Node13&#45;&gt;Node7</title>
<path fill="none" stroke="midnightblue" d="M876.673,-307.774C884.619,-287.477 903.113,-235.368 903.113,-190 903.113,-190 903.113,-190 903.113,-132 903.113,-85.2465 947.535,-45.8551 975.626,-25.6189"/>
<polygon fill="midnightblue" stroke="midnightblue" points="977.879,-28.3157 984.096,-19.7367 973.886,-22.5662 977.879,-28.3157"/>
</g>
<!-- Node13&#45;&gt;Node8 -->
<g id="edge20" class="edge"><title>Node13&#45;&gt;Node8</title>
<path fill="none" stroke="midnightblue" d="M849.211,-307.869C817.654,-296.473 761.936,-276.353 726.308,-263.487"/>
<polygon fill="midnightblue" stroke="midnightblue" points="727.422,-260.168 716.828,-260.064 725.045,-266.752 727.422,-260.168"/>
</g>
<!-- Node13&#45;&gt;Node10 -->
<g id="edge21" class="edge"><title>Node13&#45;&gt;Node10</title>
<path fill="none" stroke="midnightblue" d="M838.969,-307.92C816.576,-300.514 788.508,-287.521 772.113,-266 759.664,-249.658 756.731,-225.76 756.39,-209.141"/>
<polygon fill="midnightblue" stroke="midnightblue" points="759.891,-209.013 756.483,-198.981 752.892,-208.948 759.891,-209.013"/>
</g>
<!-- Node14 -->
<g id="node14" class="node"><title>Node14</title>
<g id="a_node14"><a xlink:href="settings_2radio__pin__mapping_8h.html" target="_top" xlink:title="settings/radio_pin\l_mapping.h">
<polygon fill="white" stroke="black" points="781.613,-235.5 781.613,-265.5 874.613,-265.5 874.613,-235.5 781.613,-235.5"/>
<text text-anchor="start" x="789.613" y="-253.5" font-family="Helvetica,sans-Serif" font-size="10.00">settings/radio_pin</text>
<text text-anchor="middle" x="828.113" y="-242.5" font-family="Helvetica,sans-Serif" font-size="10.00">_mapping.h</text>
</a>
</g>
</g>
<!-- Node13&#45;&gt;Node14 -->
<g id="edge22" class="edge"><title>Node13&#45;&gt;Node14</title>
<path fill="none" stroke="midnightblue" d="M867.044,-307.734C861.08,-299.118 851.728,-285.61 843.685,-273.992"/>
<polygon fill="midnightblue" stroke="midnightblue" points="846.437,-271.819 837.867,-265.589 840.682,-275.803 846.437,-271.819"/>
</g>
<!-- Node15&#45;&gt;Node7 -->
<g id="edge24" class="edge"><title>Node15&#45;&gt;Node7</title>
<path fill="none" stroke="midnightblue" d="M1493,-307.911C1492.74,-287.478 1492.11,-234.364 1492.11,-190 1492.11,-190 1492.11,-190 1492.11,-132 1492.11,-97.1827 1499.51,-78.6987 1473.11,-56 1439.9,-27.444 1137.31,-15.3561 1033.15,-12.0174"/>
<polygon fill="midnightblue" stroke="midnightblue" points="1032.96,-8.50991 1022.86,-11.6955 1032.74,-15.5065 1032.96,-8.50991"/>
</g>
<!-- Node15&#45;&gt;Node8 -->
<g id="edge25" class="edge"><title>Node15&#45;&gt;Node8</title>
<path fill="none" stroke="midnightblue" d="M1449.31,-313.411C1407.61,-310.471 1343.08,-305.926 1287.11,-302 1058.23,-285.945 999.752,-294.756 772.113,-266 760.022,-264.473 746.979,-262.298 735.043,-260.096"/>
<polygon fill="midnightblue" stroke="midnightblue" points="735.368,-256.596 724.891,-258.17 734.063,-263.473 735.368,-256.596"/>
</g>
<!-- Node16&#45;&gt;Node2 -->
<g id="edge27" class="edge"><title>Node16&#45;&gt;Node2</title>
<path fill="none" stroke="midnightblue" d="M449.931,-307.949C467.121,-291.691 506.874,-256.066 546.113,-235 580.414,-216.585 674.356,-188.487 712.113,-179 791.66,-159.013 886.803,-145.367 939.331,-138.703"/>
<polygon fill="midnightblue" stroke="midnightblue" points="940.073,-142.138 949.562,-137.425 939.205,-135.192 940.073,-142.138"/>
</g>
<!-- Node16&#45;&gt;Node7 -->
<g id="edge28" class="edge"><title>Node16&#45;&gt;Node7</title>
<path fill="none" stroke="midnightblue" d="M443.063,-307.964C447.529,-287.645 458.113,-234.762 458.113,-190 458.113,-190 458.113,-190 458.113,-132 458.113,-28.0151 844.21,-13.3696 963.458,-11.3261"/>
<polygon fill="midnightblue" stroke="midnightblue" points="963.562,-14.825 973.507,-11.1734 963.455,-7.82582 963.562,-14.825"/>
</g>
<!-- Node16&#45;&gt;Node8 -->
<g id="edge29" class="edge"><title>Node16&#45;&gt;Node8</title>
<path fill="none" stroke="midnightblue" d="M473.98,-307.983C481.577,-306.016 489.626,-303.934 497.113,-302 550.477,-288.217 612.025,-272.366 651.697,-262.156"/>
<polygon fill="midnightblue" stroke="midnightblue" points="652.728,-265.505 661.54,-259.623 650.983,-258.725 652.728,-265.505"/>
</g>
<!-- Node16&#45;&gt;Node10 -->
<g id="edge31" class="edge"><title>Node16&#45;&gt;Node10</title>
<path fill="none" stroke="midnightblue" d="M458.017,-307.973C489.321,-292.359 558.643,-258.614 619.113,-235 651.936,-222.183 690.074,-209.942 717.928,-201.472"/>
<polygon fill="midnightblue" stroke="midnightblue" points="719.131,-204.764 727.696,-198.528 717.111,-198.062 719.131,-204.764"/>
</g>
<!-- Node16&#45;&gt;Node14 -->
<g id="edge30" class="edge"><title>Node16&#45;&gt;Node14</title>
<path fill="none" stroke="midnightblue" d="M471.791,-307.955C479.98,-305.84 488.849,-303.696 497.113,-302 601.05,-280.674 628.225,-282.005 733.113,-266 745.477,-264.114 758.745,-262.089 771.329,-260.168"/>
<polygon fill="midnightblue" stroke="midnightblue" points="771.886,-263.624 781.243,-258.655 770.829,-256.704 771.886,-263.624"/>
</g>
<!-- Node17&#45;&gt;Node7 -->
<g id="edge33" class="edge"><title>Node17&#45;&gt;Node7</title>
<path fill="none" stroke="midnightblue" d="M705.391,-370.704C702.264,-370.085 699.132,-369.504 696.113,-369 627.273,-357.503 436.2,-379.455 384.113,-333 356.356,-308.243 365.113,-288.694 365.113,-251.5 365.113,-251.5 365.113,-251.5 365.113,-132 365.113,-66.2207 429.55,-76.3157 492.113,-56 580.128,-27.4196 863.863,-15.4574 963.295,-12.0734"/>
<polygon fill="midnightblue" stroke="midnightblue" points="963.534,-15.5675 973.412,-11.7373 963.301,-8.57141 963.534,-15.5675"/>
</g>
<!-- Node17&#45;&gt;Node10 -->
<g id="edge39" class="edge"><title>Node17&#45;&gt;Node10</title>
<path fill="none" stroke="midnightblue" d="M735.756,-369.112C733.047,-353.905 725.741,-322.552 709.113,-302 690.267,-278.706 666.577,-292.241 652.113,-266 645.463,-253.934 644.529,-246.502 652.113,-235 665.273,-215.042 689.32,-203.902 711.083,-197.701"/>
<polygon fill="midnightblue" stroke="midnightblue" points="712.059,-201.064 720.874,-195.185 710.317,-194.284 712.059,-201.064"/>
</g>
<!-- Node17&#45;&gt;Node14 -->
<g id="edge38" class="edge"><title>Node17&#45;&gt;Node14</title>
<path fill="none" stroke="midnightblue" d="M743.368,-369.305C757.342,-349.88 791.47,-302.438 811.9,-274.038"/>
<polygon fill="midnightblue" stroke="midnightblue" points="814.765,-276.05 817.763,-265.888 809.082,-271.962 814.765,-276.05"/>
</g>
<!-- Node18 -->
<g id="node18" class="node"><title>Node18</title>
<g id="a_node18"><a xlink:href="pca9534_8h.html" target="_top" xlink:title="driver/pca9534.h">
<polygon fill="white" stroke="black" points="506.613,-308 506.613,-327 593.613,-327 593.613,-308 506.613,-308"/>
<text text-anchor="middle" x="550.113" y="-315" font-family="Helvetica,sans-Serif" font-size="10.00">driver/pca9534.h</text>
</a>
</g>
</g>
<!-- Node17&#45;&gt;Node18 -->
<g id="edge34" class="edge"><title>Node17&#45;&gt;Node18</title>
<path fill="none" stroke="midnightblue" d="M710.321,-369.475C677.827,-359.136 622.905,-341.661 586.576,-330.102"/>
<polygon fill="midnightblue" stroke="midnightblue" points="587.447,-326.706 576.856,-327.009 585.324,-333.376 587.447,-326.706"/>
</g>
<!-- Node19 -->
<g id="node19" class="node"><title>Node19</title>
<g id="a_node19"><a xlink:href="lcd__commands_8h.html" target="_top" xlink:title="driver/include/lcd\l_commands.h">
<polygon fill="white" stroke="black" points="611.613,-302.5 611.613,-332.5 700.613,-332.5 700.613,-302.5 611.613,-302.5"/>
<text text-anchor="start" x="619.613" y="-320.5" font-family="Helvetica,sans-Serif" font-size="10.00">driver/include/lcd</text>
<text text-anchor="middle" x="656.113" y="-309.5" font-family="Helvetica,sans-Serif" font-size="10.00">_commands.h</text>
</a>
</g>
</g>
<!-- Node17&#45;&gt;Node19 -->
<g id="edge37" class="edge"><title>Node17&#45;&gt;Node19</title>
<path fill="none" stroke="midnightblue" d="M725.508,-369.475C714.538,-361.417 697.666,-349.023 683.305,-338.474"/>
<polygon fill="midnightblue" stroke="midnightblue" points="685.335,-335.622 675.203,-332.523 681.191,-341.264 685.335,-335.622"/>
</g>
<!-- Node18&#45;&gt;Node7 -->
<g id="edge35" class="edge"><title>Node18&#45;&gt;Node7</title>
<path fill="none" stroke="midnightblue" d="M550.228,-307.911C550.491,-287.478 551.113,-234.364 551.113,-190 551.113,-190 551.113,-190 551.113,-132 551.113,-46.6939 858.275,-19.6706 963.353,-12.9218"/>
<polygon fill="midnightblue" stroke="midnightblue" points="963.68,-16.4084 973.444,-12.2967 963.247,-9.42184 963.68,-16.4084"/>
</g>
<!-- Node18&#45;&gt;Node8 -->
<g id="edge36" class="edge"><title>Node18&#45;&gt;Node8</title>
<path fill="none" stroke="midnightblue" d="M569.103,-307.869C593.569,-296.748 636.317,-277.317 664.67,-264.429"/>
<polygon fill="midnightblue" stroke="midnightblue" points="666.39,-267.492 674.046,-260.167 663.493,-261.119 666.39,-267.492"/>
</g>
<!-- Node20&#45;&gt;Node2 -->
<g id="edge42" class="edge"><title>Node20&#45;&gt;Node2</title>
<path fill="none" stroke="midnightblue" d="M1070.73,-369.316C1057,-334.036 1005.2,-201.002 986.177,-152.143"/>
<polygon fill="midnightblue" stroke="midnightblue" points="989.344,-150.629 982.454,-142.58 982.821,-153.169 989.344,-150.629"/>
</g>
<!-- Node20&#45;&gt;Node7 -->
<g id="edge41" class="edge"><title>Node20&#45;&gt;Node7</title>
<path fill="none" stroke="midnightblue" d="M1076.29,-369.477C1081.28,-349.187 1093.11,-296.36 1093.11,-251.5 1093.11,-251.5 1093.11,-251.5 1093.11,-132 1093.11,-85.2465 1048.69,-45.8551 1020.6,-25.6189"/>
<polygon fill="midnightblue" stroke="midnightblue" points="1022.34,-22.5662 1012.13,-19.7367 1018.35,-28.3157 1022.34,-22.5662"/>
</g>
<!-- Node20&#45;&gt;Node14 -->
<g id="edge43" class="edge"><title>Node20&#45;&gt;Node14</title>
<path fill="none" stroke="midnightblue" d="M1057.2,-369.305C1017.7,-348.99 918.601,-298.031 864.593,-270.259"/>
<polygon fill="midnightblue" stroke="midnightblue" points="866.186,-267.143 855.693,-265.682 862.985,-273.368 866.186,-267.143"/>
</g>
<!-- Node21 -->
<g id="node21" class="node"><title>Node21</title>
<g id="a_node21"><a xlink:href="external__interrupthandler_8h.html" target="_top" xlink:title="driver/external_interrupthandler.h">
<polygon fill="white" stroke="black" points="1121.61,-308 1121.61,-327 1278.61,-327 1278.61,-308 1121.61,-308"/>
<text text-anchor="middle" x="1200.11" y="-315" font-family="Helvetica,sans-Serif" font-size="10.00">driver/external_interrupthandler.h</text>
</a>
</g>
</g>
<!-- Node20&#45;&gt;Node21 -->
<g id="edge44" class="edge"><title>Node20&#45;&gt;Node21</title>
<path fill="none" stroke="midnightblue" d="M1092.17,-369.475C1113.31,-359.49 1148.55,-342.848 1172.99,-331.307"/>
<polygon fill="midnightblue" stroke="midnightblue" points="1174.55,-334.444 1182.09,-327.009 1171.56,-328.114 1174.55,-334.444"/>
</g>
<!-- Node21&#45;&gt;Node2 -->
<g id="edge45" class="edge"><title>Node21&#45;&gt;Node2</title>
<path fill="none" stroke="midnightblue" d="M1184.65,-307.86C1168.27,-298.424 1141.93,-282.448 1121.11,-266 1077.46,-231.513 1072.16,-216.55 1031.11,-179 1020.1,-168.927 1007.45,-157.962 997.377,-149.378"/>
<polygon fill="midnightblue" stroke="midnightblue" points="999.51,-146.598 989.62,-142.799 994.983,-151.937 999.51,-146.598"/>
</g>
<!-- Node21&#45;&gt;Node7 -->
<g id="edge46" class="edge"><title>Node21&#45;&gt;Node7</title>
<path fill="none" stroke="midnightblue" d="M1191.88,-307.787C1174.39,-288.32 1135.11,-239.136 1135.11,-190 1135.11,-190 1135.11,-190 1135.11,-132 1135.11,-96.0027 1132.07,-81.9396 1107.11,-56 1087.33,-35.4384 1056.78,-23.9272 1033.05,-17.7065"/>
<polygon fill="midnightblue" stroke="midnightblue" points="1033.56,-14.2297 1023.02,-15.2802 1031.92,-21.0335 1033.56,-14.2297"/>
</g>
<!-- Node21&#45;&gt;Node14 -->
<g id="edge47" class="edge"><title>Node21&#45;&gt;Node14</title>
<path fill="none" stroke="midnightblue" d="M1151.1,-307.936C1082.32,-295.918 957.471,-274.103 884.788,-261.403"/>
<polygon fill="midnightblue" stroke="midnightblue" points="885.343,-257.947 874.89,-259.673 884.138,-264.842 885.343,-257.947"/>
</g>
<!-- Node23&#45;&gt;Node7 -->
<g id="edge51" class="edge"><title>Node23&#45;&gt;Node7</title>
<path fill="none" stroke="midnightblue" d="M523.866,-426.976C448.733,-410.735 289.113,-363.099 289.113,-251.5 289.113,-251.5 289.113,-251.5 289.113,-132 289.113,-78.2755 333.151,-75.7515 383.113,-56 489.808,-13.8201 848.95,-10.726 963.024,-10.8361"/>
<polygon fill="midnightblue" stroke="midnightblue" points="963.275,-14.3365 973.282,-10.8556 963.289,-7.33652 963.275,-14.3365"/>
</g>
<!-- Node23&#45;&gt;Node17 -->
<g id="edge52" class="edge"><title>Node23&#45;&gt;Node17</title>
<path fill="none" stroke="midnightblue" d="M589.843,-425.444C619.539,-416.28 666.83,-401.688 699.783,-391.519"/>
<polygon fill="midnightblue" stroke="midnightblue" points="700.99,-394.809 709.514,-388.516 698.926,-388.121 700.99,-394.809"/>
</g>
<!-- Node24 -->
<g id="node24" class="node"><title>Node24</title>
<g id="a_node24"><a xlink:href="language_8h.html" target="_top" xlink:title="menu/lang/language.h">
<polygon fill="white" stroke="black" points="575.113,-369.5 575.113,-388.5 687.113,-388.5 687.113,-369.5 575.113,-369.5"/>
<text text-anchor="middle" x="631.113" y="-376.5" font-family="Helvetica,sans-Serif" font-size="10.00">menu/lang/language.h</text>
</a>
</g>
</g>
<!-- Node23&#45;&gt;Node24 -->
<g id="edge53" class="edge"><title>Node23&#45;&gt;Node24</title>
<path fill="none" stroke="midnightblue" d="M573.199,-425.324C583.599,-417.185 599.374,-404.839 611.835,-395.087"/>
<polygon fill="midnightblue" stroke="midnightblue" points="614.108,-397.753 619.826,-388.834 609.793,-392.241 614.108,-397.753"/>
</g>
<!-- Node25 -->
<g id="node25" class="node"><title>Node25</title>
<g id="a_node25"><a xlink:href="menu__struct_8h.html" target="_top" xlink:title="menu/menu_struct.h">
<polygon fill="white" stroke="black" points="451.113,-369.5 451.113,-388.5 557.113,-388.5 557.113,-369.5 451.113,-369.5"/>
<text text-anchor="middle" x="504.113" y="-376.5" font-family="Helvetica,sans-Serif" font-size="10.00">menu/menu_struct.h</text>
</a>
</g>
</g>
<!-- Node23&#45;&gt;Node25 -->
<g id="edge54" class="edge"><title>Node23&#45;&gt;Node25</title>
<path fill="none" stroke="midnightblue" d="M547.68,-425.324C537.58,-417.498 524.619,-405.783 515.291,-396.224"/>
<polygon fill="midnightblue" stroke="midnightblue" points="517.814,-393.796 508.453,-388.834 512.676,-398.551 517.814,-393.796"/>
</g>
<!-- Node25&#45;&gt;Node23 -->
<g id="edge55" class="edge"><title>Node25&#45;&gt;Node23</title>
<path fill="none" stroke="midnightblue" d="M518.644,-388.751C528.709,-396.561 541.584,-408.2 550.878,-417.718"/>
<polygon fill="midnightblue" stroke="midnightblue" points="548.338,-420.126 557.702,-425.083 553.473,-415.369 548.338,-420.126"/>
</g>
<!-- Node26&#45;&gt;Node7 -->
<g id="edge57" class="edge"><title>Node26&#45;&gt;Node7</title>
<path fill="none" stroke="midnightblue" d="M1289.03,-425.429C1321.2,-409.406 1383.11,-371.66 1383.11,-318.5 1383.11,-318.5 1383.11,-318.5 1383.11,-188 1383.11,-118.462 1357.42,-93.8893 1299.11,-56 1255.71,-27.7945 1102.41,-16.4034 1032.87,-12.6109"/>
<polygon fill="midnightblue" stroke="midnightblue" points="1033.02,-9.11403 1022.85,-12.0857 1032.66,-16.1044 1033.02,-9.11403"/>
</g>
<!-- Node26&#45;&gt;Node10 -->
<g id="edge69" class="edge"><title>Node26&#45;&gt;Node10</title>
<path fill="none" stroke="midnightblue" d="M1229.22,-434.48C1177.74,-433.385 1088.06,-425.719 1022.11,-389 941.556,-344.148 959.738,-286.281 883.113,-235 858.829,-218.748 827.985,-207.602 802.892,-200.468"/>
<polygon fill="midnightblue" stroke="midnightblue" points="803.801,-197.088 793.232,-197.837 801.961,-203.842 803.801,-197.088"/>
</g>
<!-- Node26&#45;&gt;Node11 -->
<g id="edge72" class="edge"><title>Node26&#45;&gt;Node11</title>
<path fill="none" stroke="midnightblue" d="M1274.95,-425.32C1284.98,-406.484 1307.11,-360.191 1307.11,-318.5 1307.11,-318.5 1307.11,-318.5 1307.11,-249.5 1307.11,-208.905 1275.31,-170.196 1254.89,-149.522"/>
<polygon fill="midnightblue" stroke="midnightblue" points="1257.31,-146.994 1247.71,-142.515 1252.42,-152.004 1257.31,-146.994"/>
</g>
<!-- Node26&#45;&gt;Node12 -->
<g id="edge62" class="edge"><title>Node26&#45;&gt;Node12</title>
<path fill="none" stroke="midnightblue" d="M1280.86,-425.393C1301.6,-407.733 1345.11,-365.122 1345.11,-318.5 1345.11,-318.5 1345.11,-318.5 1345.11,-188 1345.11,-156.718 1338.28,-146.912 1318.11,-123 1307.34,-110.229 1292.5,-99.6345 1278.52,-91.5025"/>
<polygon fill="midnightblue" stroke="midnightblue" points="1279.96,-88.2968 1269.51,-86.5161 1276.57,-94.4212 1279.96,-88.2968"/>
</g>
<!-- Node26&#45;&gt;Node13 -->
<g id="edge61" class="edge"><title>Node26&#45;&gt;Node13</title>
<path fill="none" stroke="midnightblue" d="M1229.39,-434.388C1169.22,-433.571 1054.09,-426.638 965.113,-389 934.853,-376.2 905.767,-351.048 888.668,-334.508"/>
<polygon fill="midnightblue" stroke="midnightblue" points="890.845,-331.737 881.284,-327.172 885.911,-336.703 890.845,-331.737"/>
</g>
<!-- Node26&#45;&gt;Node15 -->
<g id="edge58" class="edge"><title>Node26&#45;&gt;Node15</title>
<path fill="none" stroke="midnightblue" d="M1310.92,-429.893C1346.16,-424.785 1397.22,-413.518 1435.11,-389 1455.83,-375.595 1472.8,-352.42 1482.92,-336.316"/>
<polygon fill="midnightblue" stroke="midnightblue" points="1486.15,-337.728 1488.31,-327.354 1480.15,-334.122 1486.15,-337.728"/>
</g>
<!-- Node26&#45;&gt;Node17 -->
<g id="edge64" class="edge"><title>Node26&#45;&gt;Node17</title>
<path fill="none" stroke="midnightblue" d="M1229.17,-429.852C1130.17,-419.822 878.629,-394.337 778.833,-384.227"/>
<polygon fill="midnightblue" stroke="midnightblue" points="779.123,-380.738 768.821,-383.212 778.417,-387.703 779.123,-380.738"/>
</g>
<!-- Node26&#45;&gt;Node20 -->
<g id="edge70" class="edge"><title>Node26&#45;&gt;Node20</title>
<path fill="none" stroke="midnightblue" d="M1239.06,-425.444C1205.51,-416.201 1151.92,-401.436 1114.97,-391.257"/>
<polygon fill="midnightblue" stroke="midnightblue" points="1115.6,-387.798 1105.02,-388.516 1113.74,-394.547 1115.6,-387.798"/>
</g>
<!-- Node26&#45;&gt;Node21 -->
<g id="edge63" class="edge"><title>Node26&#45;&gt;Node21</title>
<path fill="none" stroke="midnightblue" d="M1264.85,-425.319C1253.4,-406.422 1226.02,-361.248 1210.79,-336.121"/>
<polygon fill="midnightblue" stroke="midnightblue" points="1213.61,-334.02 1205.44,-327.282 1207.63,-337.648 1213.61,-334.02"/>
</g>
<!-- Node26&#45;&gt;Node24 -->
<g id="edge71" class="edge"><title>Node26&#45;&gt;Node24</title>
<path fill="none" stroke="midnightblue" d="M1229.32,-431.637C1136.72,-426.092 903.296,-411.106 697.544,-389.097"/>
<polygon fill="midnightblue" stroke="midnightblue" points="697.776,-385.602 687.458,-388.01 697.026,-392.561 697.776,-385.602"/>
</g>
<!-- Node27 -->
<g id="node27" class="node"><title>Node27</title>
<g id="a_node27"><a xlink:href="log__exp__table_8h.html" target="_top" xlink:title="libs/log_exp_table.h">
<polygon fill="white" stroke="black" points="1360.61,-62 1360.61,-81 1463.61,-81 1463.61,-62 1360.61,-62"/>
<text text-anchor="middle" x="1412.11" y="-69" font-family="Helvetica,sans-Serif" font-size="10.00">libs/log_exp_table.h</text>
</a>
</g>
</g>
<!-- Node26&#45;&gt;Node27 -->
<g id="edge59" class="edge"><title>Node26&#45;&gt;Node27</title>
<path fill="none" stroke="midnightblue" d="M1304.44,-425.461C1337.35,-416.653 1383.92,-402.356 1397.11,-389 1420.37,-365.451 1421.11,-351.599 1421.11,-318.5 1421.11,-318.5 1421.11,-318.5 1421.11,-188 1421.11,-153.76 1417.13,-113.983 1414.47,-91.1743"/>
<polygon fill="midnightblue" stroke="midnightblue" points="1417.93,-90.6808 1413.25,-81.1754 1410.98,-91.5243 1417.93,-90.6808"/>
</g>
<!-- Node28 -->
<g id="node28" class="node"><title>Node28</title>
<g id="a_node28"><a xlink:href="flash_8h.html" target="_top" xlink:title="driver/flash.h">
<polygon fill="white" stroke="black" points="1524.61,-179.5 1524.61,-198.5 1595.61,-198.5 1595.61,-179.5 1524.61,-179.5"/>
<text text-anchor="middle" x="1560.11" y="-186.5" font-family="Helvetica,sans-Serif" font-size="10.00">driver/flash.h</text>
</a>
</g>
</g>
<!-- Node26&#45;&gt;Node28 -->
<g id="edge65" class="edge"><title>Node26&#45;&gt;Node28</title>
<path fill="none" stroke="midnightblue" d="M1310.72,-433.623C1374.81,-430.503 1497.13,-413.69 1546.11,-333 1569.88,-293.845 1566.76,-237.287 1563.09,-208.438"/>
<polygon fill="midnightblue" stroke="midnightblue" points="1566.55,-207.918 1561.66,-198.519 1559.62,-208.916 1566.55,-207.918"/>
</g>
<!-- Node30 -->
<g id="node30" class="node"><title>Node30</title>
<g id="a_node30"><a xlink:href="time_8h.html" target="_top" xlink:title="system/time.h">
<polygon fill="white" stroke="black" points="1595.61,-241 1595.61,-260 1674.61,-260 1674.61,-241 1595.61,-241"/>
<text text-anchor="middle" x="1635.11" y="-248" font-family="Helvetica,sans-Serif" font-size="10.00">system/time.h</text>
</a>
</g>
</g>
<!-- Node26&#45;&gt;Node30 -->
<g id="edge73" class="edge"><title>Node26&#45;&gt;Node30</title>
<path fill="none" stroke="midnightblue" d="M1310.71,-432.985C1384.81,-430.356 1538.14,-421.086 1579.11,-389 1616.72,-359.55 1629.23,-300.68 1633.26,-270.42"/>
<polygon fill="midnightblue" stroke="midnightblue" points="1636.76,-270.68 1634.43,-260.344 1629.8,-269.874 1636.76,-270.68"/>
</g>
<!-- Node27&#45;&gt;Node7 -->
<g id="edge60" class="edge"><title>Node27&#45;&gt;Node7</title>
<path fill="none" stroke="midnightblue" d="M1375.92,-61.9487C1366.26,-59.8332 1355.82,-57.6908 1346.11,-56 1232.08,-36.1397 1095.61,-20.9708 1032.83,-14.47"/>
<polygon fill="midnightblue" stroke="midnightblue" points="1033,-10.969 1022.7,-13.4296 1032.29,-17.9324 1033,-10.969"/>
</g>
<!-- Node28&#45;&gt;Node2 -->
<g id="edge68" class="edge"><title>Node28&#45;&gt;Node2</title>
<path fill="none" stroke="midnightblue" d="M1524.21,-184.663C1421.37,-175.105 1126.25,-147.675 1018.83,-137.691"/>
<polygon fill="midnightblue" stroke="midnightblue" points="1019.01,-134.194 1008.73,-136.753 1018.37,-141.164 1019.01,-134.194"/>
</g>
<!-- Node28&#45;&gt;Node7 -->
<g id="edge66" class="edge"><title>Node28&#45;&gt;Node7</title>
<path fill="none" stroke="midnightblue" d="M1566.39,-179.338C1574.78,-166.638 1587.63,-142.374 1579.11,-123 1561.39,-82.6843 1546.41,-73.7743 1506.11,-56 1421.02,-18.4607 1133.45,-12.2287 1033.05,-11.2008"/>
<polygon fill="midnightblue" stroke="midnightblue" points="1032.87,-7.69909 1022.84,-11.1079 1032.81,-14.6988 1032.87,-7.69909"/>
</g>
<!-- Node29 -->
<g id="node29" class="node"><title>Node29</title>
<polygon fill="white" stroke="#bfbfbf" points="1520.61,-123.5 1520.61,-142.5 1569.61,-142.5 1569.61,-123.5 1520.61,-123.5"/>
<text text-anchor="middle" x="1545.11" y="-130.5" font-family="Helvetica,sans-Serif" font-size="10.00">string.h</text>
</g>
<!-- Node28&#45;&gt;Node29 -->
<g id="edge67" class="edge"><title>Node28&#45;&gt;Node29</title>
<path fill="none" stroke="midnightblue" d="M1557.64,-179.083C1555.63,-171.849 1552.73,-161.409 1550.22,-152.397"/>
<polygon fill="midnightblue" stroke="midnightblue" points="1553.59,-151.449 1547.54,-142.751 1546.85,-153.323 1553.59,-151.449"/>
</g>
<!-- Node30&#45;&gt;Node7 -->
<g id="edge74" class="edge"><title>Node30&#45;&gt;Node7</title>
<path fill="none" stroke="midnightblue" d="M1634.41,-240.585C1631.3,-208.039 1615.58,-95.4795 1545.11,-56 1500.52,-31.0147 1146.38,-16.2988 1032.94,-12.1907"/>
<polygon fill="midnightblue" stroke="midnightblue" points="1032.85,-8.68541 1022.73,-11.8263 1032.6,-15.681 1032.85,-8.68541"/>
</g>
</g>
</svg>
