<?xml version="1.0" encoding="UTF-8" standalone="no"?>
<!DOCTYPE svg PUBLIC "-//W3C//DTD SVG 1.1//EN"
 "http://www.w3.org/Graphics/SVG/1.1/DTD/svg11.dtd">
<!-- Generated by graphviz version 2.38.0 (20140413.2041)
 -->
<!-- Title: menu_scroll Pages: 1 -->
<svg width="387pt" height="142pt"
 viewBox="0.00 0.00 387.00 142.00" xmlns="http://www.w3.org/2000/svg" xmlns:xlink="http://www.w3.org/1999/xlink">
<g id="graph0" class="graph" transform="scale(1 1) rotate(0) translate(4 138)">
<title>menu_scroll</title>
<polygon fill="white" stroke="none" points="-4,4 -4,-138 383,-138 383,4 -4,4"/>
<!-- Node1 -->
<g id="node1" class="node"><title>Node1</title>
<polygon fill="#bfbfbf" stroke="black" points="0,-42.5 0,-61.5 69,-61.5 69,-42.5 0,-42.5"/>
<text text-anchor="middle" x="34.5" y="-49.5" font-family="Helvetica,sans-Serif" font-size="10.00">menu_scroll</text>
</g>
<!-- Node2 -->
<g id="node2" class="node"><title>Node2</title>
<g id="a_node2"><a xlink:href="menu_8c.html#a5621c1bf312de029f43808bf02dc52e3" target="_top" xlink:title="Scroll through the settings. ">
<polygon fill="white" stroke="black" points="105.5,-66.5 105.5,-85.5 214.5,-85.5 214.5,-66.5 105.5,-66.5"/>
<text text-anchor="middle" x="160" y="-73.5" font-family="Helvetica,sans-Serif" font-size="10.00">menu_scroll_settings</text>
</a>
</g>
</g>
<!-- Node1&#45;&gt;Node2 -->
<g id="edge1" class="edge"><title>Node1&#45;&gt;Node2</title>
<path fill="none" stroke="midnightblue" d="M79.3117,-60.514C89.2525,-62.4458 99.8723,-64.5096 110.012,-66.4801"/>
<polygon fill="midnightblue" stroke="midnightblue" points="79.731,-57.0301 69.2469,-58.5581 78.3956,-63.9015 79.731,-57.0301"/>
</g>
<!-- Node6 -->
<g id="node6" class="node"><title>Node6</title>
<g id="a_node6"><a xlink:href="radio__display_8c.html#a43baede098c7b21694b3fda71685fa06" target="_top" xlink:title="Handler for the display. ">
<polygon fill="white" stroke="black" points="105,-19.5 105,-38.5 215,-38.5 215,-19.5 105,-19.5"/>
<text text-anchor="middle" x="160" y="-26.5" font-family="Helvetica,sans-Serif" font-size="10.00">radio_display_handler</text>
</a>
</g>
</g>
<!-- Node1&#45;&gt;Node6 -->
<g id="edge5" class="edge"><title>Node1&#45;&gt;Node6</title>
<path fill="none" stroke="midnightblue" d="M79.3153,-43.8401C88.494,-42.1307 98.2515,-40.3135 107.675,-38.5584"/>
<polygon fill="midnightblue" stroke="midnightblue" points="78.4371,-40.4434 69.2469,-45.7151 79.7187,-47.325 78.4371,-40.4434"/>
</g>
<!-- Node3 -->
<g id="node3" class="node"><title>Node3</title>
<g id="a_node3"><a xlink:href="radio__settings_8c.html#a2d04f2363bf944b4700b71e0f96ee16f" target="_top" xlink:title="Sets the brightness. ">
<polygon fill="white" stroke="black" points="251,-114.5 251,-133.5 379,-133.5 379,-114.5 251,-114.5"/>
<text text-anchor="middle" x="315" y="-121.5" font-family="Helvetica,sans-Serif" font-size="10.00">radio_settings_brightness</text>
</a>
</g>
</g>
<!-- Node2&#45;&gt;Node3 -->
<g id="edge2" class="edge"><title>Node2&#45;&gt;Node3</title>
<path fill="none" stroke="midnightblue" d="M200.093,-88.7731C215.881,-93.8858 234.288,-99.7878 251,-105 261.034,-108.129 271.992,-111.463 281.915,-114.451"/>
<polygon fill="midnightblue" stroke="midnightblue" points="200.731,-85.3007 190.139,-85.5425 198.57,-91.9588 200.731,-85.3007"/>
</g>
<!-- Node4 -->
<g id="node4" class="node"><title>Node4</title>
<g id="a_node4"><a xlink:href="radio__settings_8c.html#ab8b2e0dbe3fd9644146e798c3e2a3116" target="_top" xlink:title="Sets the contrast. ">
<polygon fill="white" stroke="black" points="256,-76.5 256,-95.5 374,-95.5 374,-76.5 256,-76.5"/>
<text text-anchor="middle" x="315" y="-83.5" font-family="Helvetica,sans-Serif" font-size="10.00">radio_settings_contrast</text>
</a>
</g>
</g>
<!-- Node2&#45;&gt;Node4 -->
<g id="edge3" class="edge"><title>Node2&#45;&gt;Node4</title>
<path fill="none" stroke="midnightblue" d="M224.694,-80.163C235.012,-80.8374 245.649,-81.5326 255.827,-82.1978"/>
<polygon fill="midnightblue" stroke="midnightblue" points="224.719,-76.6573 214.512,-79.4975 224.262,-83.6424 224.719,-76.6573"/>
</g>
<!-- Node5 -->
<g id="node5" class="node"><title>Node5</title>
<g id="a_node5"><a xlink:href="radio__settings_8c.html#aba6a09ed7091ec65d2cbf4cd9a9a75f4" target="_top" xlink:title="Sets the volume. ">
<polygon fill="white" stroke="black" points="258.5,-38.5 258.5,-57.5 371.5,-57.5 371.5,-38.5 258.5,-38.5"/>
<text text-anchor="middle" x="315" y="-45.5" font-family="Helvetica,sans-Serif" font-size="10.00">radio_settings_volume</text>
</a>
</g>
</g>
<!-- Node2&#45;&gt;Node5 -->
<g id="edge4" class="edge"><title>Node2&#45;&gt;Node5</title>
<path fill="none" stroke="midnightblue" d="M223.372,-64.5855C236.206,-62.2368 249.589,-59.7875 262.009,-57.5146"/>
<polygon fill="midnightblue" stroke="midnightblue" points="222.433,-61.1992 213.226,-66.4423 223.693,-68.0849 222.433,-61.1992"/>
</g>
<!-- Node7 -->
<g id="node7" class="node"><title>Node7</title>
<g id="a_node7"><a xlink:href="radio_8c.html#a841443a7db6e1c9caef95f3b7af5761f" target="_top" xlink:title="Radio main. ">
<polygon fill="white" stroke="black" points="283,-0.5 283,-19.5 347,-19.5 347,-0.5 283,-0.5"/>
<text text-anchor="middle" x="315" y="-7.5" font-family="Helvetica,sans-Serif" font-size="10.00">radio_main</text>
</a>
</g>
</g>
<!-- Node6&#45;&gt;Node7 -->
<g id="edge6" class="edge"><title>Node6&#45;&gt;Node7</title>
<path fill="none" stroke="midnightblue" d="M225.356,-21.0081C245.295,-18.5319 266.365,-15.9155 282.958,-13.8549"/>
<polygon fill="midnightblue" stroke="midnightblue" points="224.865,-17.542 215.373,-22.2478 225.728,-24.4887 224.865,-17.542"/>
</g>
</g>
</svg>
