<?xml version="1.0" encoding="UTF-8" standalone="no"?>
<!DOCTYPE svg PUBLIC "-//W3C//DTD SVG 1.1//EN"
 "http://www.w3.org/Graphics/SVG/1.1/DTD/svg11.dtd">
<!-- Generated by graphviz version 2.38.0 (20140413.2041)
 -->
<!-- Title: menu_scroll_settings Pages: 1 -->
<svg width="954pt" height="85pt"
 viewBox="0.00 0.00 954.00 85.00" xmlns="http://www.w3.org/2000/svg" xmlns:xlink="http://www.w3.org/1999/xlink">
<g id="graph0" class="graph" transform="scale(1 1) rotate(0) translate(4 81)">
<title>menu_scroll_settings</title>
<polygon fill="white" stroke="none" points="-4,4 -4,-81 950,-81 950,4 -4,4"/>
<!-- Node1 -->
<g id="node1" class="node"><title>Node1</title>
<polygon fill="#bfbfbf" stroke="black" points="0,-38.5 0,-57.5 109,-57.5 109,-38.5 0,-38.5"/>
<text text-anchor="middle" x="54.5" y="-45.5" font-family="Helvetica,sans-Serif" font-size="10.00">menu_scroll_settings</text>
</g>
<!-- Node2 -->
<g id="node2" class="node"><title>Node2</title>
<g id="a_node2"><a xlink:href="lcd_8h.html#acd63fb85d212730fa4fcbcbeeccd231e" target="_top" xlink:title="lcd_create_view">
<polygon fill="white" stroke="black" points="288,-38.5 288,-57.5 373,-57.5 373,-38.5 288,-38.5"/>
<text text-anchor="middle" x="330.5" y="-45.5" font-family="Helvetica,sans-Serif" font-size="10.00">lcd_create_view</text>
</a>
</g>
</g>
<!-- Node1&#45;&gt;Node2 -->
<g id="edge1" class="edge"><title>Node1&#45;&gt;Node2</title>
<path fill="none" stroke="midnightblue" d="M91.802,-57.5089C107.964,-61.2737 127.307,-65.1426 145,-67 192.296,-71.9649 204.788,-72.7029 252,-67 263.914,-65.5609 276.639,-62.9202 288.261,-60.0559"/>
<polygon fill="midnightblue" stroke="midnightblue" points="289.335,-63.3935 298.144,-57.5058 287.586,-56.6155 289.335,-63.3935"/>
</g>
<!-- Node10 -->
<g id="node10" class="node"><title>Node10</title>
<g id="a_node10"><a xlink:href="radio_8h.html#a391fc5fe58716d2c794685bcf12bbda5" target="_top" xlink:title="radio_value_to_string">
<polygon fill="white" stroke="black" points="145,-38.5 145,-57.5 252,-57.5 252,-38.5 145,-38.5"/>
<text text-anchor="middle" x="198.5" y="-45.5" font-family="Helvetica,sans-Serif" font-size="10.00">radio_value_to_string</text>
</a>
</g>
</g>
<!-- Node1&#45;&gt;Node10 -->
<g id="edge11" class="edge"><title>Node1&#45;&gt;Node10</title>
<path fill="none" stroke="midnightblue" d="M109.184,-48C117.448,-48 126.045,-48 134.489,-48"/>
<polygon fill="midnightblue" stroke="midnightblue" points="134.681,-51.5001 144.681,-48 134.681,-44.5001 134.681,-51.5001"/>
</g>
<!-- Node11 -->
<g id="node11" class="node"><title>Node11</title>
<g id="a_node11"><a xlink:href="menu_2src_2menu_8c.html#a503ed2007daa6f20b2f748eedbcb8494" target="_top" xlink:title="menu_scroll">
<polygon fill="white" stroke="black" points="164,-0.5 164,-19.5 233,-19.5 233,-0.5 164,-0.5"/>
<text text-anchor="middle" x="198.5" y="-7.5" font-family="Helvetica,sans-Serif" font-size="10.00">menu_scroll</text>
</a>
</g>
</g>
<!-- Node1&#45;&gt;Node11 -->
<g id="edge12" class="edge"><title>Node1&#45;&gt;Node11</title>
<path fill="none" stroke="midnightblue" d="M91.3326,-38.411C110.31,-33.3326 133.771,-27.0541 153.809,-21.6919"/>
<polygon fill="midnightblue" stroke="midnightblue" points="154.879,-25.0289 163.634,-19.0627 153.069,-18.2668 154.879,-25.0289"/>
</g>
<!-- Node3 -->
<g id="node3" class="node"><title>Node3</title>
<g id="a_node3"><a xlink:href="lcd_8c.html#a2a4df97ebc5b396233aa31765228ef42" target="_top" xlink:title="lcd_set_courser">
<polygon fill="white" stroke="black" points="409,-57.5 409,-76.5 495,-76.5 495,-57.5 409,-57.5"/>
<text text-anchor="middle" x="452" y="-64.5" font-family="Helvetica,sans-Serif" font-size="10.00">lcd_set_courser</text>
</a>
</g>
</g>
<!-- Node2&#45;&gt;Node3 -->
<g id="edge2" class="edge"><title>Node2&#45;&gt;Node3</title>
<path fill="none" stroke="midnightblue" d="M373.295,-54.6453C381.43,-55.9386 390.054,-57.3098 398.483,-58.65"/>
<polygon fill="midnightblue" stroke="midnightblue" points="398.196,-62.1483 408.622,-60.262 399.295,-55.2351 398.196,-62.1483"/>
</g>
<!-- Node9 -->
<g id="node9" class="node"><title>Node9</title>
<g id="a_node9"><a xlink:href="lcd_8c.html#aa6e1aa2ef9b677e16d8198df683429ec" target="_top" xlink:title="lcd_write_string">
<polygon fill="white" stroke="black" points="531,-19.5 531,-38.5 615,-38.5 615,-19.5 531,-19.5"/>
<text text-anchor="middle" x="573" y="-26.5" font-family="Helvetica,sans-Serif" font-size="10.00">lcd_write_string</text>
</a>
</g>
</g>
<!-- Node2&#45;&gt;Node9 -->
<g id="edge9" class="edge"><title>Node2&#45;&gt;Node9</title>
<path fill="none" stroke="midnightblue" d="M373.117,-44.7121C414.066,-41.4771 476.678,-36.5307 520.687,-33.0538"/>
<polygon fill="midnightblue" stroke="midnightblue" points="521.199,-36.5244 530.892,-32.2476 520.647,-29.5461 521.199,-36.5244"/>
</g>
<!-- Node4 -->
<g id="node4" class="node"><title>Node4</title>
<g id="a_node4"><a xlink:href="lcd_8c.html#a250728451a22259562d3f01a12bbd77b" target="_top" xlink:title="lcd_command">
<polygon fill="white" stroke="black" points="534.5,-57.5 534.5,-76.5 611.5,-76.5 611.5,-57.5 534.5,-57.5"/>
<text text-anchor="middle" x="573" y="-64.5" font-family="Helvetica,sans-Serif" font-size="10.00">lcd_command</text>
</a>
</g>
</g>
<!-- Node3&#45;&gt;Node4 -->
<g id="edge3" class="edge"><title>Node3&#45;&gt;Node4</title>
<path fill="none" stroke="midnightblue" d="M495.29,-67C504.611,-67 514.549,-67 524.075,-67"/>
<polygon fill="midnightblue" stroke="midnightblue" points="524.202,-70.5001 534.202,-67 524.202,-63.5001 524.202,-70.5001"/>
</g>
<!-- Node5 -->
<g id="node5" class="node"><title>Node5</title>
<g id="a_node5"><a xlink:href="i2c_8h.html#a6691e5911f539e1e8178c6e983e8079a" target="_top" xlink:title="Transmits I2C commands with a variable length to a I2C slave. ">
<polygon fill="white" stroke="black" points="651,-19.5 651,-38.5 723,-38.5 723,-19.5 651,-19.5"/>
<text text-anchor="middle" x="687" y="-26.5" font-family="Helvetica,sans-Serif" font-size="10.00">i2c_write_var</text>
</a>
</g>
</g>
<!-- Node4&#45;&gt;Node5 -->
<g id="edge4" class="edge"><title>Node4&#45;&gt;Node5</title>
<path fill="none" stroke="midnightblue" d="M602.262,-57.411C616.19,-52.6856 633.18,-46.9211 648.207,-41.8226"/>
<polygon fill="midnightblue" stroke="midnightblue" points="649.401,-45.1134 657.747,-38.5859 647.152,-38.4845 649.401,-45.1134"/>
</g>
<!-- Node8 -->
<g id="node8" class="node"><title>Node8</title>
<g id="a_node8"><a xlink:href="timer_8c.html#a276d5cb665b9f8b2c79e53e2f2c5b4f0" target="_top" xlink:title="_delay_ms">
<polygon fill="white" stroke="black" points="762.5,-57.5 762.5,-76.5 826.5,-76.5 826.5,-57.5 762.5,-57.5"/>
<text text-anchor="middle" x="794.5" y="-64.5" font-family="Helvetica,sans-Serif" font-size="10.00">_delay_ms</text>
</a>
</g>
</g>
<!-- Node4&#45;&gt;Node8 -->
<g id="edge7" class="edge"><title>Node4&#45;&gt;Node8</title>
<path fill="none" stroke="midnightblue" d="M611.733,-67C650.861,-67 711.853,-67 752.237,-67"/>
<polygon fill="midnightblue" stroke="midnightblue" points="752.287,-70.5001 762.287,-67 752.287,-63.5001 752.287,-70.5001"/>
</g>
<!-- Node6 -->
<g id="node6" class="node"><title>Node6</title>
<g id="a_node6"><a xlink:href="i2c_8c.html#ae0625b97d3437bcaca4ac4b96dd01978" target="_top" xlink:title="Transmits I2C command array to a I2C slave. ">
<polygon fill="white" stroke="black" points="759,-19.5 759,-38.5 830,-38.5 830,-19.5 759,-19.5"/>
<text text-anchor="middle" x="794.5" y="-26.5" font-family="Helvetica,sans-Serif" font-size="10.00">i2c_write_arr</text>
</a>
</g>
</g>
<!-- Node5&#45;&gt;Node6 -->
<g id="edge5" class="edge"><title>Node5&#45;&gt;Node6</title>
<path fill="none" stroke="midnightblue" d="M723.13,-29C731.312,-29 740.133,-29 748.671,-29"/>
<polygon fill="midnightblue" stroke="midnightblue" points="748.882,-32.5001 758.882,-29 748.882,-25.5001 748.882,-32.5001"/>
</g>
<!-- Node7 -->
<g id="node7" class="node"><title>Node7</title>
<g id="a_node7"><a xlink:href="timer_8c.html#a3c56af3315c2461dec5ced585a5f84db" target="_top" xlink:title="_delay_ten_us">
<polygon fill="white" stroke="black" points="866,-38.5 866,-57.5 946,-57.5 946,-38.5 866,-38.5"/>
<text text-anchor="middle" x="906" y="-45.5" font-family="Helvetica,sans-Serif" font-size="10.00">_delay_ten_us</text>
</a>
</g>
</g>
<!-- Node6&#45;&gt;Node7 -->
<g id="edge6" class="edge"><title>Node6&#45;&gt;Node7</title>
<path fill="none" stroke="midnightblue" d="M830.146,-35.0117C838.253,-36.4183 847.042,-37.9433 855.651,-39.4371"/>
<polygon fill="midnightblue" stroke="midnightblue" points="855.172,-42.9062 865.623,-41.1674 856.368,-36.0092 855.172,-42.9062"/>
</g>
<!-- Node8&#45;&gt;Node7 -->
<g id="edge8" class="edge"><title>Node8&#45;&gt;Node7</title>
<path fill="none" stroke="midnightblue" d="M826.585,-61.6062C835.595,-60.0428 845.664,-58.2957 855.505,-56.5882"/>
<polygon fill="midnightblue" stroke="midnightblue" points="856.368,-59.9908 865.623,-54.8326 855.172,-53.0938 856.368,-59.9908"/>
</g>
<!-- Node9&#45;&gt;Node5 -->
<g id="edge10" class="edge"><title>Node9&#45;&gt;Node5</title>
<path fill="none" stroke="midnightblue" d="M615.069,-29C623.413,-29 632.234,-29 640.715,-29"/>
<polygon fill="midnightblue" stroke="midnightblue" points="640.836,-32.5001 650.836,-29 640.836,-25.5001 640.836,-32.5001"/>
</g>
<!-- Node11&#45;&gt;Node2 -->
<g id="edge13" class="edge"><title>Node11&#45;&gt;Node2</title>
<path fill="none" stroke="midnightblue" d="M232.304,-19.589C248.778,-24.4044 268.943,-30.2988 286.627,-35.468"/>
<polygon fill="midnightblue" stroke="midnightblue" points="286.126,-38.9677 296.706,-38.4141 288.09,-32.2489 286.126,-38.9677"/>
</g>
</g>
</svg>
