<?xml version="1.0" encoding="UTF-8" standalone="no"?>
<!DOCTYPE svg PUBLIC "-//W3C//DTD SVG 1.1//EN"
 "http://www.w3.org/Graphics/SVG/1.1/DTD/svg11.dtd">
<!-- Generated by graphviz version 2.38.0 (20140413.2041)
 -->
<!-- Title: D:/GIT/fhradiov2/menu/src/menu.c Pages: 1 -->
<!--zoomable 576 -->
<svg id="main" version="1.1" xmlns="http://www.w3.org/2000/svg" xmlns:xlink="http://www.w3.org/1999/xlink" xml:space="preserve" onload="init(evt)">
<style type="text/css"><![CDATA[
.edge:hover path { stroke: red; }
.edge:hover polygon { stroke: red; fill: red; }
]]></style>
<script type="text/javascript"><![CDATA[
var edges = document.getElementsByTagName('g');
if (edges && edges.length) {
  for (var i=0;i<edges.length;i++) {
    if (edges[i].id.substr(0,4)=='edge') {
      edges[i].setAttribute('class','edge');
    }
  }
}
]]></script>
        <defs>
                <circle id="rim" cx="0" cy="0" r="7"/>
                <circle id="rim2" cx="0" cy="0" r="3.5"/>
                <g id="zoomPlus">
                        <use xlink:href="#rim" fill="#404040">
                                <set attributeName="fill" to="#808080" begin="zoomplus.mouseover" end="zoomplus.mouseout"/>
                        </use>
                        <path d="M-4,0h8M0,-4v8" fill="none" stroke="white" stroke-width="1.5" pointer-events="none"/>
                </g>
                <g id="zoomMin">
                        <use xlink:href="#rim" fill="#404040">
                                <set attributeName="fill" to="#808080" begin="zoomminus.mouseover" end="zoomminus.mouseout"/>
                        </use>
                        <path d="M-4,0h8" fill="none" stroke="white" stroke-width="1.5" pointer-events="none"/>
                </g>
                <g id="dirArrow">
                        <path fill="none" stroke="white" stroke-width="1.5" d="M0,-3.0v7 M-2.5,-0.5L0,-3.0L2.5,-0.5"/>
                </g>
               <g id="resetDef">
                       <use xlink:href="#rim2" fill="#404040">
                               <set attributeName="fill" to="#808080" begin="reset.mouseover" end="reset.mouseout"/>
                       </use>
               </g>
        </defs>

<script type="text/javascript">
var viewWidth = 1650;
var viewHeight = 576;
var sectionId = 'dynsection-0';
</script>
<script xlink:href="svgpan.js"/>
<svg id="graph" class="graph">
<g id="viewport">
<title>D:/GIT/fhradiov2/menu/src/menu.c</title>
<polygon fill="white" stroke="none" points="-4,4 -4,-572 1646,-572 1646,4 -4,4"/>
<!-- Node1 -->
<g id="node1" class="node"><title>Node1</title>
<polygon fill="#bfbfbf" stroke="black" points="715,-537.5 715,-567.5 827,-567.5 827,-537.5 715,-537.5"/>
<text text-anchor="start" x="723" y="-555.5" font-family="Helvetica,sans-Serif" font-size="10.00">D:/GIT/fhradiov2/menu</text>
<text text-anchor="middle" x="771" y="-544.5" font-family="Helvetica,sans-Serif" font-size="10.00">/src/menu.c</text>
</g>
<!-- Node2 -->
<g id="node2" class="node"><title>Node2</title>
<g id="a_node2"><a xlink:href="menu_8h.html" target="_top" xlink:title="menu/menu.h">
<polygon fill="white" stroke="black" points="733,-481.5 733,-500.5 809,-500.5 809,-481.5 733,-481.5"/>
<text text-anchor="middle" x="771" y="-488.5" font-family="Helvetica,sans-Serif" font-size="10.00">menu/menu.h</text>
</a>
</g>
</g>
<!-- Node1&#45;&gt;Node2 -->
<g id="edge1" class="edge"><title>Node1&#45;&gt;Node2</title>
<path fill="none" stroke="midnightblue" d="M771,-537.399C771,-529.466 771,-519.458 771,-510.858"/>
<polygon fill="midnightblue" stroke="midnightblue" points="774.5,-510.658 771,-500.658 767.5,-510.658 774.5,-510.658"/>
</g>
<!-- Node3 -->
<g id="node3" class="node"><title>Node3</title>
<polygon fill="white" stroke="#bfbfbf" points="623.5,-0.5 623.5,-19.5 672.5,-19.5 672.5,-0.5 623.5,-0.5"/>
<text text-anchor="middle" x="648" y="-7.5" font-family="Helvetica,sans-Serif" font-size="10.00">stdint.h</text>
</g>
<!-- Node2&#45;&gt;Node3 -->
<g id="edge2" class="edge"><title>Node2&#45;&gt;Node3</title>
<path fill="none" stroke="midnightblue" d="M732.766,-488.625C577.194,-482.53 0,-454.872 0,-380 0,-380 0,-380 0,-132 0,-94.9962 3.70481,-77.2482 34,-56 81.5091,-22.6785 490.277,-13.5075 613.187,-11.492"/>
<polygon fill="midnightblue" stroke="midnightblue" points="613.246,-14.9916 623.189,-11.3336 613.135,-7.99245 613.246,-14.9916"/>
</g>
<!-- Node4 -->
<g id="node4" class="node"><title>Node4</title>
<g id="a_node4"><a xlink:href="lcd_8h.html" target="_top" xlink:title="driver/lcd.h">
<polygon fill="white" stroke="black" points="380.5,-369.5 380.5,-388.5 443.5,-388.5 443.5,-369.5 380.5,-369.5"/>
<text text-anchor="middle" x="412" y="-376.5" font-family="Helvetica,sans-Serif" font-size="10.00">driver/lcd.h</text>
</a>
</g>
</g>
<!-- Node2&#45;&gt;Node4 -->
<g id="edge3" class="edge"><title>Node2&#45;&gt;Node4</title>
<path fill="none" stroke="midnightblue" d="M743.129,-481.46C679.247,-461.886 522.2,-413.766 449.745,-391.565"/>
<polygon fill="midnightblue" stroke="midnightblue" points="450.688,-388.194 440.101,-388.61 448.637,-394.887 450.688,-388.194"/>
</g>
<!-- Node15 -->
<g id="node15" class="node"><title>Node15</title>
<g id="a_node15"><a xlink:href="radio_8h.html" target="_top" xlink:title="system/radio.h">
<polygon fill="white" stroke="black" points="730.5,-425.5 730.5,-444.5 811.5,-444.5 811.5,-425.5 730.5,-425.5"/>
<text text-anchor="middle" x="771" y="-432.5" font-family="Helvetica,sans-Serif" font-size="10.00">system/radio.h</text>
</a>
</g>
</g>
<!-- Node2&#45;&gt;Node15 -->
<g id="edge21" class="edge"><title>Node2&#45;&gt;Node15</title>
<path fill="none" stroke="midnightblue" d="M765.834,-481.083C764.324,-473.927 763.894,-463.635 764.542,-454.691"/>
<polygon fill="midnightblue" stroke="midnightblue" points="768.015,-455.126 765.869,-444.751 761.077,-454.2 768.015,-455.126"/>
</g>
<!-- Node22 -->
<g id="node22" class="node"><title>Node22</title>
<g id="a_node22"><a xlink:href="string_8h.html" target="_top" xlink:title="string.h">
<polygon fill="white" stroke="black" points="104.5,-308 104.5,-327 153.5,-327 153.5,-308 104.5,-308"/>
<text text-anchor="middle" x="129" y="-315" font-family="Helvetica,sans-Serif" font-size="10.00">string.h</text>
</a>
</g>
</g>
<!-- Node2&#45;&gt;Node22 -->
<g id="edge74" class="edge"><title>Node2&#45;&gt;Node22</title>
<path fill="none" stroke="midnightblue" d="M732.743,-490.34C638.195,-489.707 388.002,-478.974 206,-389 179.711,-376.004 155.895,-351.274 141.927,-334.834"/>
<polygon fill="midnightblue" stroke="midnightblue" points="144.617,-332.595 135.559,-327.098 139.212,-337.044 144.617,-332.595"/>
</g>
<!-- Node23 -->
<g id="node23" class="node"><title>Node23</title>
<g id="a_node23"><a xlink:href="encoder_8h.html" target="_top" xlink:title="driver/encoder.h">
<polygon fill="white" stroke="black" points="1003.5,-369.5 1003.5,-388.5 1088.5,-388.5 1088.5,-369.5 1003.5,-369.5"/>
<text text-anchor="middle" x="1046" y="-376.5" font-family="Helvetica,sans-Serif" font-size="10.00">driver/encoder.h</text>
</a>
</g>
</g>
<!-- Node2&#45;&gt;Node23 -->
<g id="edge70" class="edge"><title>Node2&#45;&gt;Node23</title>
<path fill="none" stroke="midnightblue" d="M780.574,-481.476C796.661,-467.597 830.638,-440.147 864,-425 905.448,-406.182 955.926,-394.494 993.198,-387.763"/>
<polygon fill="midnightblue" stroke="midnightblue" points="994.092,-391.16 1003.34,-385.994 992.89,-384.264 994.092,-391.16"/>
</g>
<!-- Node24 -->
<g id="node24" class="node"><title>Node24</title>
<g id="a_node24"><a xlink:href="language_8h.html" target="_top" xlink:title="menu/lang/language.h">
<polygon fill="white" stroke="black" points="1530,-369.5 1530,-388.5 1642,-388.5 1642,-369.5 1530,-369.5"/>
<text text-anchor="middle" x="1586" y="-376.5" font-family="Helvetica,sans-Serif" font-size="10.00">menu/lang/language.h</text>
</a>
</g>
</g>
<!-- Node2&#45;&gt;Node24 -->
<g id="edge71" class="edge"><title>Node2&#45;&gt;Node24</title>
<path fill="none" stroke="midnightblue" d="M788.706,-481.429C806.939,-472.537 836.123,-458.122 861,-445 877.189,-436.461 879.423,-430.104 897,-425 1029.32,-386.578 1378.81,-401.793 1516,-389 1517.27,-388.882 1518.55,-388.758 1519.84,-388.63"/>
<polygon fill="midnightblue" stroke="midnightblue" points="1520.3,-392.101 1529.87,-387.566 1519.56,-385.14 1520.3,-392.101"/>
</g>
<!-- Node29 -->
<g id="node29" class="node"><title>Node29</title>
<g id="a_node29"><a xlink:href="menu__struct_8h.html" target="_top" xlink:title="menu/menu_struct.h">
<polygon fill="white" stroke="black" points="906,-425.5 906,-444.5 1012,-444.5 1012,-425.5 906,-425.5"/>
<text text-anchor="middle" x="959" y="-432.5" font-family="Helvetica,sans-Serif" font-size="10.00">menu/menu_struct.h</text>
</a>
</g>
</g>
<!-- Node2&#45;&gt;Node29 -->
<g id="edge72" class="edge"><title>Node2&#45;&gt;Node29</title>
<path fill="none" stroke="midnightblue" d="M795.7,-481.444C825.85,-472.201 877.085,-457.436 914.204,-447.257"/>
<polygon fill="midnightblue" stroke="midnightblue" points="915.541,-450.521 924.27,-444.516 913.702,-443.767 915.541,-450.521"/>
</g>
<!-- Node4&#45;&gt;Node3 -->
<g id="edge4" class="edge"><title>Node4&#45;&gt;Node3</title>
<path fill="none" stroke="midnightblue" d="M392.551,-369.393C377.825,-361.877 358.267,-349.571 347,-333 326.087,-302.243 328,-288.694 328,-251.5 328,-251.5 328,-251.5 328,-132 328,-94.0345 336.272,-78.2977 367,-56 405.731,-27.8947 546.747,-16.5572 613.071,-12.704"/>
<polygon fill="midnightblue" stroke="midnightblue" points="613.633,-16.1783 623.423,-12.1285 613.244,-9.1891 613.633,-16.1783"/>
</g>
<!-- Node5 -->
<g id="node5" class="node"><title>Node5</title>
<g id="a_node5"><a xlink:href="pca9534_8h.html" target="_top" xlink:title="driver/pca9534.h">
<polygon fill="white" stroke="black" points="356.5,-308 356.5,-327 443.5,-327 443.5,-308 356.5,-308"/>
<text text-anchor="middle" x="400" y="-315" font-family="Helvetica,sans-Serif" font-size="10.00">driver/pca9534.h</text>
</a>
</g>
</g>
<!-- Node4&#45;&gt;Node5 -->
<g id="edge5" class="edge"><title>Node4&#45;&gt;Node5</title>
<path fill="none" stroke="midnightblue" d="M410.281,-369.475C408.57,-360.992 405.89,-347.704 403.695,-336.822"/>
<polygon fill="midnightblue" stroke="midnightblue" points="407.124,-336.12 401.716,-327.009 400.262,-337.504 407.124,-336.12"/>
</g>
<!-- Node10 -->
<g id="node10" class="node"><title>Node10</title>
<g id="a_node10"><a xlink:href="timer_8h.html" target="_top" xlink:title="driver/timer.h">
<polygon fill="white" stroke="black" points="767,-179.5 767,-198.5 839,-198.5 839,-179.5 767,-179.5"/>
<text text-anchor="middle" x="803" y="-186.5" font-family="Helvetica,sans-Serif" font-size="10.00">driver/timer.h</text>
</a>
</g>
</g>
<!-- Node4&#45;&gt;Node10 -->
<g id="edge20" class="edge"><title>Node4&#45;&gt;Node10</title>
<path fill="none" stroke="midnightblue" d="M443.743,-373.831C481.354,-368.09 545.303,-355.774 596,-333 673.135,-298.35 751.985,-234.328 785.845,-205.173"/>
<polygon fill="midnightblue" stroke="midnightblue" points="788.209,-207.756 793.456,-198.551 783.614,-202.475 788.209,-207.756"/>
</g>
<!-- Node13 -->
<g id="node13" class="node"><title>Node13</title>
<g id="a_node13"><a xlink:href="lcd__commands_8h.html" target="_top" xlink:title="driver/include/lcd\l_commands.h">
<polygon fill="white" stroke="black" points="210.5,-302.5 210.5,-332.5 299.5,-332.5 299.5,-302.5 210.5,-302.5"/>
<text text-anchor="start" x="218.5" y="-320.5" font-family="Helvetica,sans-Serif" font-size="10.00">driver/include/lcd</text>
<text text-anchor="middle" x="255" y="-309.5" font-family="Helvetica,sans-Serif" font-size="10.00">_commands.h</text>
</a>
</g>
</g>
<!-- Node4&#45;&gt;Node13 -->
<g id="edge18" class="edge"><title>Node4&#45;&gt;Node13</title>
<path fill="none" stroke="midnightblue" d="M389.506,-369.475C366.652,-360.814 330.585,-347.145 301.55,-336.141"/>
<polygon fill="midnightblue" stroke="midnightblue" points="302.593,-332.794 292.002,-332.523 300.112,-339.34 302.593,-332.794"/>
</g>
<!-- Node14 -->
<g id="node14" class="node"><title>Node14</title>
<g id="a_node14"><a xlink:href="radio__pin__mapping_8h.html" target="_top" xlink:title="settings/radio_pin\l_mapping.h">
<polygon fill="white" stroke="black" points="971.5,-235.5 971.5,-265.5 1064.5,-265.5 1064.5,-235.5 971.5,-235.5"/>
<text text-anchor="start" x="979.5" y="-253.5" font-family="Helvetica,sans-Serif" font-size="10.00">settings/radio_pin</text>
<text text-anchor="middle" x="1018" y="-242.5" font-family="Helvetica,sans-Serif" font-size="10.00">_mapping.h</text>
</a>
</g>
</g>
<!-- Node4&#45;&gt;Node14 -->
<g id="edge19" class="edge"><title>Node4&#45;&gt;Node14</title>
<path fill="none" stroke="midnightblue" d="M443.525,-376.954C553.369,-373.1 915.036,-358.572 960,-333 982.753,-320.059 998.82,-294.104 1008.19,-274.946"/>
<polygon fill="midnightblue" stroke="midnightblue" points="1011.46,-276.199 1012.47,-265.652 1005.11,-273.267 1011.46,-276.199"/>
</g>
<!-- Node5&#45;&gt;Node3 -->
<g id="edge6" class="edge"><title>Node5&#45;&gt;Node3</title>
<path fill="none" stroke="midnightblue" d="M396.441,-307.774C388.494,-287.477 370,-235.368 370,-190 370,-190 370,-190 370,-132 370,-97.1827 363.499,-79.7054 389,-56 420.994,-26.2589 549.958,-15.8347 612.983,-12.4682"/>
<polygon fill="midnightblue" stroke="midnightblue" points="613.416,-15.9509 623.227,-11.9524 613.064,-8.95974 613.416,-15.9509"/>
</g>
<!-- Node6 -->
<g id="node6" class="node"><title>Node6</title>
<g id="a_node6"><a xlink:href="i2c_8h.html" target="_top" xlink:title="I2C implemtation for MSP430G2553, interrupt based. &#160;&#160;This implemtation based on examples from Texas I...">
<polygon fill="white" stroke="black" points="570.5,-241 570.5,-260 633.5,-260 633.5,-241 570.5,-241"/>
<text text-anchor="middle" x="602" y="-248" font-family="Helvetica,sans-Serif" font-size="10.00">driver/i2c.h</text>
</a>
</g>
</g>
<!-- Node5&#45;&gt;Node6 -->
<g id="edge7" class="edge"><title>Node5&#45;&gt;Node6</title>
<path fill="none" stroke="midnightblue" d="M426.824,-307.869C462.54,-296.376 525.836,-276.008 565.769,-263.159"/>
<polygon fill="midnightblue" stroke="midnightblue" points="566.94,-266.459 575.387,-260.064 564.795,-259.795 566.94,-266.459"/>
</g>
<!-- Node6&#45;&gt;Node3 -->
<g id="edge8" class="edge"><title>Node6&#45;&gt;Node3</title>
<path fill="none" stroke="midnightblue" d="M595.557,-240.553C586.252,-226.433 571.473,-198.579 584,-179 604.578,-146.839 641.422,-175.161 662,-143 684.587,-107.698 668.018,-55.9382 656.526,-28.9187"/>
<polygon fill="midnightblue" stroke="midnightblue" points="659.613,-27.2495 652.322,-19.563 653.228,-30.1189 659.613,-27.2495"/>
</g>
<!-- Node7 -->
<g id="node7" class="node"><title>Node7</title>
<polygon fill="white" stroke="#bfbfbf" points="856.5,-123.5 856.5,-142.5 915.5,-142.5 915.5,-123.5 856.5,-123.5"/>
<text text-anchor="middle" x="886" y="-130.5" font-family="Helvetica,sans-Serif" font-size="10.00">msp430.h</text>
</g>
<!-- Node6&#45;&gt;Node7 -->
<g id="edge9" class="edge"><title>Node6&#45;&gt;Node7</title>
<path fill="none" stroke="midnightblue" d="M623.547,-240.886C647.38,-231.217 686.804,-214.808 720,-199 737.231,-190.794 740.506,-186.63 758,-179 787.735,-166.031 822.521,-153.993 848.318,-145.637"/>
<polygon fill="midnightblue" stroke="midnightblue" points="849.627,-148.893 858.084,-142.51 847.493,-142.226 849.627,-148.893"/>
</g>
<!-- Node8 -->
<g id="node8" class="node"><title>Node8</title>
<polygon fill="white" stroke="#bfbfbf" points="593,-179.5 593,-198.5 641,-198.5 641,-179.5 593,-179.5"/>
<text text-anchor="middle" x="617" y="-186.5" font-family="Helvetica,sans-Serif" font-size="10.00">stdlib.h</text>
</g>
<!-- Node6&#45;&gt;Node8 -->
<g id="edge10" class="edge"><title>Node6&#45;&gt;Node8</title>
<path fill="none" stroke="midnightblue" d="M604.149,-240.975C606.288,-232.492 609.638,-219.204 612.381,-208.322"/>
<polygon fill="midnightblue" stroke="midnightblue" points="615.804,-209.061 614.855,-198.509 609.016,-207.35 615.804,-209.061"/>
</g>
<!-- Node9 -->
<g id="node9" class="node"><title>Node9</title>
<polygon fill="white" stroke="#bfbfbf" points="659,-179.5 659,-198.5 711,-198.5 711,-179.5 659,-179.5"/>
<text text-anchor="middle" x="685" y="-186.5" font-family="Helvetica,sans-Serif" font-size="10.00">stdarg.h</text>
</g>
<!-- Node6&#45;&gt;Node9 -->
<g id="edge11" class="edge"><title>Node6&#45;&gt;Node9</title>
<path fill="none" stroke="midnightblue" d="M613.892,-240.975C627.205,-231.431 649,-215.807 664.957,-204.368"/>
<polygon fill="midnightblue" stroke="midnightblue" points="667.042,-207.18 673.13,-198.509 662.964,-201.491 667.042,-207.18"/>
</g>
<!-- Node6&#45;&gt;Node10 -->
<g id="edge12" class="edge"><title>Node6&#45;&gt;Node10</title>
<path fill="none" stroke="midnightblue" d="M628.725,-240.963C635.037,-238.978 641.749,-236.892 648,-235 687.083,-223.169 731.897,-210.225 763.253,-201.27"/>
<polygon fill="midnightblue" stroke="midnightblue" points="764.279,-204.617 772.936,-198.509 762.36,-197.885 764.279,-204.617"/>
</g>
<!-- Node10&#45;&gt;Node3 -->
<g id="edge14" class="edge"><title>Node10&#45;&gt;Node3</title>
<path fill="none" stroke="midnightblue" d="M797.034,-179.194C782.003,-157.282 740.853,-98.9805 700,-56 689.847,-45.3184 677.395,-34.4753 667.222,-26.11"/>
<polygon fill="midnightblue" stroke="midnightblue" points="669.292,-23.283 659.313,-19.7238 664.895,-28.7292 669.292,-23.283"/>
</g>
<!-- Node10&#45;&gt;Node7 -->
<g id="edge13" class="edge"><title>Node10&#45;&gt;Node7</title>
<path fill="none" stroke="midnightblue" d="M816.335,-179.324C829.162,-170.979 848.785,-158.212 863.94,-148.352"/>
<polygon fill="midnightblue" stroke="midnightblue" points="866.224,-151.042 872.698,-142.655 862.407,-145.174 866.224,-151.042"/>
</g>
<!-- Node11 -->
<g id="node11" class="node"><title>Node11</title>
<g id="a_node11"><a xlink:href="radio__configuration_8h.html" target="_top" xlink:title="settings/radio_configuration.h">
<polygon fill="white" stroke="black" points="476.5,-123.5 476.5,-142.5 619.5,-142.5 619.5,-123.5 476.5,-123.5"/>
<text text-anchor="middle" x="548" y="-130.5" font-family="Helvetica,sans-Serif" font-size="10.00">settings/radio_configuration.h</text>
</a>
</g>
</g>
<!-- Node10&#45;&gt;Node11 -->
<g id="edge15" class="edge"><title>Node10&#45;&gt;Node11</title>
<path fill="none" stroke="midnightblue" d="M766.736,-180.32C722.612,-170.977 647.876,-155.15 598.232,-144.637"/>
<polygon fill="midnightblue" stroke="midnightblue" points="598.855,-141.192 588.347,-142.544 597.405,-148.04 598.855,-141.192"/>
</g>
<!-- Node12 -->
<g id="node12" class="node"><title>Node12</title>
<g id="a_node12"><a xlink:href="si4735__cmd__prop_8h.html" target="_top" xlink:title="driver/include/si4735\l_cmd_prop.h">
<polygon fill="white" stroke="black" points="398,-56.5 398,-86.5 502,-86.5 502,-56.5 398,-56.5"/>
<text text-anchor="start" x="406" y="-74.5" font-family="Helvetica,sans-Serif" font-size="10.00">driver/include/si4735</text>
<text text-anchor="middle" x="450" y="-63.5" font-family="Helvetica,sans-Serif" font-size="10.00">_cmd_prop.h</text>
</a>
</g>
</g>
<!-- Node11&#45;&gt;Node12 -->
<g id="edge16" class="edge"><title>Node11&#45;&gt;Node12</title>
<path fill="none" stroke="midnightblue" d="M533.959,-123.475C520.438,-115.266 499.507,-102.558 481.927,-91.8845"/>
<polygon fill="midnightblue" stroke="midnightblue" points="483.461,-88.721 473.097,-86.523 479.828,-94.7046 483.461,-88.721"/>
</g>
<!-- Node12&#45;&gt;Node3 -->
<g id="edge17" class="edge"><title>Node12&#45;&gt;Node3</title>
<path fill="none" stroke="midnightblue" d="M496.673,-56.4747C532.471,-45.717 581.08,-31.1099 613.442,-21.3848"/>
<polygon fill="midnightblue" stroke="midnightblue" points="614.772,-24.6398 623.342,-18.4099 612.758,-17.936 614.772,-24.6398"/>
</g>
<!-- Node15&#45;&gt;Node2 -->
<g id="edge57" class="edge"><title>Node15&#45;&gt;Node2</title>
<path fill="none" stroke="midnightblue" d="M776.131,-444.751C777.657,-451.858 778.104,-462.136 777.472,-471.101"/>
<polygon fill="midnightblue" stroke="midnightblue" points="773.993,-470.713 776.166,-481.083 780.934,-471.622 773.993,-470.713"/>
</g>
<!-- Node15&#45;&gt;Node3 -->
<g id="edge22" class="edge"><title>Node15&#45;&gt;Node3</title>
<path fill="none" stroke="midnightblue" d="M730.243,-432.903C594.706,-429.024 164.474,-414.788 108,-389 67.8344,-370.659 38,-362.655 38,-318.5 38,-318.5 38,-318.5 38,-132 38,-97.1827 30.3906,-78.4541 57,-56 99.559,-20.087 492.706,-12.7334 613.116,-11.3187"/>
<polygon fill="midnightblue" stroke="midnightblue" points="613.295,-14.817 623.256,-11.2062 613.218,-7.81742 613.295,-14.817"/>
</g>
<!-- Node15&#45;&gt;Node4 -->
<g id="edge44" class="edge"><title>Node15&#45;&gt;Node4</title>
<path fill="none" stroke="midnightblue" d="M730.381,-428.826C670.59,-421.058 555.427,-405.524 458,-389 456.546,-388.753 455.067,-388.497 453.574,-388.232"/>
<polygon fill="midnightblue" stroke="midnightblue" points="454.103,-384.771 443.635,-386.407 452.839,-391.656 454.103,-384.771"/>
</g>
<!-- Node15&#45;&gt;Node10 -->
<g id="edge50" class="edge"><title>Node15&#45;&gt;Node10</title>
<path fill="none" stroke="midnightblue" d="M772.139,-425.316C776.746,-390.185 794.066,-258.119 800.539,-208.763"/>
<polygon fill="midnightblue" stroke="midnightblue" points="804.045,-208.95 801.875,-198.58 797.104,-208.04 804.045,-208.95"/>
</g>
<!-- Node15&#45;&gt;Node11 -->
<g id="edge58" class="edge"><title>Node15&#45;&gt;Node11</title>
<path fill="none" stroke="midnightblue" d="M759.391,-425.436C715.249,-392.818 560.022,-277.603 554,-266 535.045,-229.476 539.707,-179.329 544.196,-152.582"/>
<polygon fill="midnightblue" stroke="midnightblue" points="547.654,-153.13 546.04,-142.659 540.772,-151.851 547.654,-153.13"/>
</g>
<!-- Node15&#45;&gt;Node12 -->
<g id="edge33" class="edge"><title>Node15&#45;&gt;Node12</title>
<path fill="none" stroke="midnightblue" d="M730.253,-429.861C670.267,-421.692 558.067,-398.199 491,-333 425.875,-269.689 437.065,-148.059 445.4,-96.5218"/>
<polygon fill="midnightblue" stroke="midnightblue" points="448.855,-97.084 447.107,-86.6343 441.957,-95.8932 448.855,-97.084"/>
</g>
<!-- Node16 -->
<g id="node16" class="node"><title>Node16</title>
<g id="a_node16"><a xlink:href="pca9530_8h.html" target="_top" xlink:title="driver/pca9530.h">
<polygon fill="white" stroke="black" points="500.5,-308 500.5,-327 587.5,-327 587.5,-308 500.5,-308"/>
<text text-anchor="middle" x="544" y="-315" font-family="Helvetica,sans-Serif" font-size="10.00">driver/pca9530.h</text>
</a>
</g>
</g>
<!-- Node15&#45;&gt;Node16 -->
<g id="edge23" class="edge"><title>Node15&#45;&gt;Node16</title>
<path fill="none" stroke="midnightblue" d="M737.287,-425.465C710.127,-417.88 671.426,-405.447 640,-389 610.424,-373.521 579.974,-349.53 561.514,-333.917"/>
<polygon fill="midnightblue" stroke="midnightblue" points="563.561,-331.061 553.696,-327.196 558.998,-336.369 563.561,-331.061"/>
</g>
<!-- Node17 -->
<g id="node17" class="node"><title>Node17</title>
<g id="a_node17"><a xlink:href="log__exp__table_8h.html" target="_top" xlink:title="libs/log_exp_table.h">
<polygon fill="white" stroke="black" points="66.5,-62 66.5,-81 169.5,-81 169.5,-62 66.5,-62"/>
<text text-anchor="middle" x="118" y="-69" font-family="Helvetica,sans-Serif" font-size="10.00">libs/log_exp_table.h</text>
</a>
</g>
</g>
<!-- Node15&#45;&gt;Node17 -->
<g id="edge26" class="edge"><title>Node15&#45;&gt;Node17</title>
<path fill="none" stroke="midnightblue" d="M730.469,-432.801C618.188,-429.157 304.892,-416.727 206,-389 142.713,-371.256 76,-384.227 76,-318.5 76,-318.5 76,-318.5 76,-188 76,-151.364 94.8941,-111.914 107.337,-89.9058"/>
<polygon fill="midnightblue" stroke="midnightblue" points="110.466,-91.4899 112.509,-81.094 104.429,-87.9465 110.466,-91.4899"/>
</g>
<!-- Node18 -->
<g id="node18" class="node"><title>Node18</title>
<g id="a_node18"><a xlink:href="si4735_8h.html" target="_top" xlink:title="driver/si4735.h">
<polygon fill="white" stroke="black" points="682.5,-308 682.5,-327 761.5,-327 761.5,-308 682.5,-308"/>
<text text-anchor="middle" x="722" y="-315" font-family="Helvetica,sans-Serif" font-size="10.00">driver/si4735.h</text>
</a>
</g>
</g>
<!-- Node15&#45;&gt;Node18 -->
<g id="edge28" class="edge"><title>Node15&#45;&gt;Node18</title>
<path fill="none" stroke="midnightblue" d="M767.317,-425.319C759.371,-406.59 740.474,-362.046 729.76,-336.792"/>
<polygon fill="midnightblue" stroke="midnightblue" points="732.853,-335.121 725.726,-327.282 726.409,-337.855 732.853,-335.121"/>
</g>
<!-- Node19 -->
<g id="node19" class="node"><title>Node19</title>
<g id="a_node19"><a xlink:href="external__interrupthandler_8h.html" target="_top" xlink:title="driver/external_interrupthandler.h">
<polygon fill="white" stroke="black" points="1046.5,-308 1046.5,-327 1203.5,-327 1203.5,-308 1046.5,-308"/>
<text text-anchor="middle" x="1125" y="-315" font-family="Helvetica,sans-Serif" font-size="10.00">driver/external_interrupthandler.h</text>
</a>
</g>
</g>
<!-- Node15&#45;&gt;Node19 -->
<g id="edge34" class="edge"><title>Node15&#45;&gt;Node19</title>
<path fill="none" stroke="midnightblue" d="M797.318,-425.413C859.782,-405.033 1017.09,-353.709 1088.6,-330.376"/>
<polygon fill="midnightblue" stroke="midnightblue" points="1090.09,-333.573 1098.51,-327.143 1087.92,-326.918 1090.09,-333.573"/>
</g>
<!-- Node20 -->
<g id="node20" class="node"><title>Node20</title>
<g id="a_node20"><a xlink:href="tpa2016d2_8h.html" target="_top" xlink:title="driver/tpa2016d2.h">
<polygon fill="white" stroke="black" points="856.5,-308 856.5,-327 951.5,-327 951.5,-308 856.5,-308"/>
<text text-anchor="middle" x="904" y="-315" font-family="Helvetica,sans-Serif" font-size="10.00">driver/tpa2016d2.h</text>
</a>
</g>
</g>
<!-- Node15&#45;&gt;Node20 -->
<g id="edge38" class="edge"><title>Node15&#45;&gt;Node20</title>
<path fill="none" stroke="midnightblue" d="M780.997,-425.319C803.43,-405.837 858.026,-358.425 886.33,-333.845"/>
<polygon fill="midnightblue" stroke="midnightblue" points="888.632,-336.482 893.887,-327.282 884.042,-331.196 888.632,-336.482"/>
</g>
<!-- Node21 -->
<g id="node21" class="node"><title>Node21</title>
<g id="a_node21"><a xlink:href="flash_8h.html" target="_top" xlink:title="driver/flash.h">
<polygon fill="white" stroke="black" points="267.5,-369.5 267.5,-388.5 338.5,-388.5 338.5,-369.5 267.5,-369.5"/>
<text text-anchor="middle" x="303" y="-376.5" font-family="Helvetica,sans-Serif" font-size="10.00">driver/flash.h</text>
</a>
</g>
</g>
<!-- Node15&#45;&gt;Node21 -->
<g id="edge45" class="edge"><title>Node15&#45;&gt;Node21</title>
<path fill="none" stroke="midnightblue" d="M730.372,-429.695C658.058,-421.973 502.273,-405.07 371,-389 363.767,-388.115 356.108,-387.138 348.638,-386.165"/>
<polygon fill="midnightblue" stroke="midnightblue" points="348.999,-382.683 338.628,-384.849 348.086,-389.623 348.999,-382.683"/>
</g>
<!-- Node15&#45;&gt;Node22 -->
<g id="edge67" class="edge"><title>Node15&#45;&gt;Node22</title>
<path fill="none" stroke="midnightblue" d="M730.406,-432.587C625.285,-428.588 346.247,-415.702 258,-389 216.627,-376.481 173.536,-349.67 149.108,-332.957"/>
<polygon fill="midnightblue" stroke="midnightblue" points="150.907,-329.944 140.702,-327.097 146.904,-335.687 150.907,-329.944"/>
</g>
<!-- Node15&#45;&gt;Node23 -->
<g id="edge51" class="edge"><title>Node15&#45;&gt;Node23</title>
<path fill="none" stroke="midnightblue" d="M811.577,-426.032C859.861,-416.551 940.588,-400.699 993.565,-390.296"/>
<polygon fill="midnightblue" stroke="midnightblue" points="994.308,-393.717 1003.45,-388.356 992.959,-386.849 994.308,-393.717"/>
</g>
<!-- Node15&#45;&gt;Node24 -->
<g id="edge56" class="edge"><title>Node15&#45;&gt;Node24</title>
<path fill="none" stroke="midnightblue" d="M811.711,-429.693C827.963,-428.069 846.855,-426.302 864,-425 1153.39,-403.018 1227,-415.522 1516,-389 1517.27,-388.883 1518.55,-388.762 1519.84,-388.635"/>
<polygon fill="midnightblue" stroke="midnightblue" points="1520.3,-392.107 1529.88,-387.581 1519.56,-385.145 1520.3,-392.107"/>
</g>
<!-- Node25 -->
<g id="node25" class="node"><title>Node25</title>
<g id="a_node25"><a xlink:href="station__list_8h.html" target="_top" xlink:title="system/station_list.h">
<polygon fill="white" stroke="black" points="1135.5,-369.5 1135.5,-388.5 1242.5,-388.5 1242.5,-369.5 1135.5,-369.5"/>
<text text-anchor="middle" x="1189" y="-376.5" font-family="Helvetica,sans-Serif" font-size="10.00">system/station_list.h</text>
</a>
</g>
</g>
<!-- Node15&#45;&gt;Node25 -->
<g id="edge59" class="edge"><title>Node15&#45;&gt;Node25</title>
<path fill="none" stroke="midnightblue" d="M811.841,-428.724C884.856,-419.291 1038.25,-399.475 1125.24,-388.236"/>
<polygon fill="midnightblue" stroke="midnightblue" points="1125.79,-391.696 1135.26,-386.943 1124.89,-384.753 1125.79,-391.696"/>
</g>
<!-- Node27 -->
<g id="node27" class="node"><title>Node27</title>
<g id="a_node27"><a xlink:href="radio__display_8h.html" target="_top" xlink:title="system/radio_display.h">
<polygon fill="white" stroke="black" points="1299.5,-369.5 1299.5,-388.5 1416.5,-388.5 1416.5,-369.5 1299.5,-369.5"/>
<text text-anchor="middle" x="1358" y="-376.5" font-family="Helvetica,sans-Serif" font-size="10.00">system/radio_display.h</text>
</a>
</g>
</g>
<!-- Node15&#45;&gt;Node27 -->
<g id="edge64" class="edge"><title>Node15&#45;&gt;Node27</title>
<path fill="none" stroke="midnightblue" d="M811.586,-429.133C825.353,-427.764 840.784,-426.296 855,-425 1042.02,-407.955 1089.22,-408.493 1276,-389 1280.33,-388.548 1284.81,-388.056 1289.33,-387.544"/>
<polygon fill="midnightblue" stroke="midnightblue" points="1289.73,-391.021 1299.27,-386.397 1288.93,-384.067 1289.73,-391.021"/>
</g>
<!-- Node28 -->
<g id="node28" class="node"><title>Node28</title>
<g id="a_node28"><a xlink:href="time_8h.html" target="_top" xlink:title="system/time.h">
<polygon fill="white" stroke="black" points="1492.5,-241 1492.5,-260 1571.5,-260 1571.5,-241 1492.5,-241"/>
<text text-anchor="middle" x="1532" y="-248" font-family="Helvetica,sans-Serif" font-size="10.00">system/time.h</text>
</a>
</g>
</g>
<!-- Node15&#45;&gt;Node28 -->
<g id="edge68" class="edge"><title>Node15&#45;&gt;Node28</title>
<path fill="none" stroke="midnightblue" d="M811.653,-429.4C825.973,-427.871 842.19,-426.244 857,-425 983.032,-414.416 1310.47,-442.654 1425,-389 1476.93,-364.675 1510.62,-300.977 1524.61,-269.557"/>
<polygon fill="midnightblue" stroke="midnightblue" points="1527.88,-270.813 1528.6,-260.242 1521.45,-268.058 1527.88,-270.813"/>
</g>
<!-- Node16&#45;&gt;Node3 -->
<g id="edge24" class="edge"><title>Node16&#45;&gt;Node3</title>
<path fill="none" stroke="midnightblue" d="M524.142,-307.9C507.854,-299.689 485.785,-285.65 475,-266 444.372,-210.198 436.017,-178.606 467,-123 475.75,-107.296 575.78,-50.7526 623.264,-24.5302"/>
<polygon fill="midnightblue" stroke="midnightblue" points="625.21,-27.4541 632.283,-19.5656 621.835,-21.3218 625.21,-27.4541"/>
</g>
<!-- Node16&#45;&gt;Node6 -->
<g id="edge25" class="edge"><title>Node16&#45;&gt;Node6</title>
<path fill="none" stroke="midnightblue" d="M551.822,-307.734C560.953,-297.5 576.244,-280.364 587.551,-267.692"/>
<polygon fill="midnightblue" stroke="midnightblue" points="590.255,-269.919 594.302,-260.127 585.032,-265.258 590.255,-269.919"/>
</g>
<!-- Node17&#45;&gt;Node3 -->
<g id="edge27" class="edge"><title>Node17&#45;&gt;Node3</title>
<path fill="none" stroke="midnightblue" d="M153.132,-61.9652C163.066,-59.7746 173.918,-57.5905 184,-56 343.197,-30.885 535.481,-17.6138 613.052,-12.9571"/>
<polygon fill="midnightblue" stroke="midnightblue" points="613.444,-16.4401 623.22,-12.3569 613.032,-9.45229 613.444,-16.4401"/>
</g>
<!-- Node18&#45;&gt;Node3 -->
<g id="edge29" class="edge"><title>Node18&#45;&gt;Node3</title>
<path fill="none" stroke="midnightblue" d="M691.532,-307.946C645.974,-295.014 564.977,-271.416 561,-266 547.357,-247.423 574.051,-181.768 576,-179 592.183,-156.017 613.121,-166.848 628,-143 650.115,-107.554 651.003,-56.5831 649.592,-29.5221"/>
<polygon fill="midnightblue" stroke="midnightblue" points="653.081,-29.2391 648.902,-19.5033 646.097,-29.7202 653.081,-29.2391"/>
</g>
<!-- Node18&#45;&gt;Node6 -->
<g id="edge30" class="edge"><title>Node18&#45;&gt;Node6</title>
<path fill="none" stroke="midnightblue" d="M705.816,-307.734C685.574,-296.769 650.703,-277.881 627.014,-265.049"/>
<polygon fill="midnightblue" stroke="midnightblue" points="628.387,-261.813 617.927,-260.127 625.053,-267.968 628.387,-261.813"/>
</g>
<!-- Node18&#45;&gt;Node10 -->
<g id="edge31" class="edge"><title>Node18&#45;&gt;Node10</title>
<path fill="none" stroke="midnightblue" d="M727.567,-307.805C740.804,-287.133 774.357,-234.732 791.911,-207.318"/>
<polygon fill="midnightblue" stroke="midnightblue" points="794.949,-209.065 797.394,-198.756 789.054,-205.29 794.949,-209.065"/>
</g>
<!-- Node18&#45;&gt;Node14 -->
<g id="edge32" class="edge"><title>Node18&#45;&gt;Node14</title>
<path fill="none" stroke="midnightblue" d="M761.001,-307.936C812.274,-296.676 902.71,-276.817 961.481,-263.911"/>
<polygon fill="midnightblue" stroke="midnightblue" points="962.333,-267.308 971.35,-261.744 960.832,-260.471 962.333,-267.308"/>
</g>
<!-- Node19&#45;&gt;Node3 -->
<g id="edge36" class="edge"><title>Node19&#45;&gt;Node3</title>
<path fill="none" stroke="midnightblue" d="M1133.74,-307.883C1152.31,-288.608 1194,-239.783 1194,-190 1194,-190 1194,-190 1194,-132 1194,-26.7968 802.737,-12.9987 682.636,-11.2414"/>
<polygon fill="midnightblue" stroke="midnightblue" points="682.565,-7.74032 672.521,-11.113 682.476,-14.7398 682.565,-7.74032"/>
</g>
<!-- Node19&#45;&gt;Node7 -->
<g id="edge35" class="edge"><title>Node19&#45;&gt;Node7</title>
<path fill="none" stroke="midnightblue" d="M1121.3,-307.88C1114.05,-291.816 1096.6,-256.944 1073,-235 1027.16,-192.381 959.97,-161.898 919.845,-146.18"/>
<polygon fill="midnightblue" stroke="midnightblue" points="920.847,-142.815 910.257,-142.503 918.341,-149.351 920.847,-142.815"/>
</g>
<!-- Node19&#45;&gt;Node14 -->
<g id="edge37" class="edge"><title>Node19&#45;&gt;Node14</title>
<path fill="none" stroke="midnightblue" d="M1110.57,-307.734C1095.07,-298.316 1069.94,-283.051 1049.77,-270.801"/>
<polygon fill="midnightblue" stroke="midnightblue" points="1051.56,-267.79 1041.19,-265.589 1047.92,-273.772 1051.56,-267.79"/>
</g>
<!-- Node20&#45;&gt;Node3 -->
<g id="edge40" class="edge"><title>Node20&#45;&gt;Node3</title>
<path fill="none" stroke="midnightblue" d="M908.496,-307.835C922.884,-278.775 964.558,-183.228 924,-123 869.231,-41.6686 744.178,-19.3743 683.004,-13.2809"/>
<polygon fill="midnightblue" stroke="midnightblue" points="682.98,-9.76447 672.705,-12.3492 682.349,-16.736 682.98,-9.76447"/>
</g>
<!-- Node20&#45;&gt;Node6 -->
<g id="edge41" class="edge"><title>Node20&#45;&gt;Node6</title>
<path fill="none" stroke="midnightblue" d="M864.208,-307.936C806.943,-295.61 701.794,-272.979 643.561,-260.445"/>
<polygon fill="midnightblue" stroke="midnightblue" points="644.112,-256.984 633.599,-258.301 642.639,-263.827 644.112,-256.984"/>
</g>
<!-- Node20&#45;&gt;Node7 -->
<g id="edge39" class="edge"><title>Node20&#45;&gt;Node7</title>
<path fill="none" stroke="midnightblue" d="M903.132,-307.698C900.37,-279.693 891.742,-192.213 887.89,-153.16"/>
<polygon fill="midnightblue" stroke="midnightblue" points="891.324,-152.322 886.859,-142.714 884.358,-153.009 891.324,-152.322"/>
</g>
<!-- Node20&#45;&gt;Node10 -->
<g id="edge43" class="edge"><title>Node20&#45;&gt;Node10</title>
<path fill="none" stroke="midnightblue" d="M897.058,-307.805C880.409,-286.952 837.982,-233.815 816.258,-206.605"/>
<polygon fill="midnightblue" stroke="midnightblue" points="818.965,-204.387 809.991,-198.756 813.495,-208.754 818.965,-204.387"/>
</g>
<!-- Node20&#45;&gt;Node14 -->
<g id="edge42" class="edge"><title>Node20&#45;&gt;Node14</title>
<path fill="none" stroke="midnightblue" d="M919.375,-307.734C935.966,-298.274 962.904,-282.914 984.438,-270.636"/>
<polygon fill="midnightblue" stroke="midnightblue" points="986.337,-273.583 993.29,-265.589 982.869,-267.502 986.337,-273.583"/>
</g>
<!-- Node21&#45;&gt;Node3 -->
<g id="edge46" class="edge"><title>Node21&#45;&gt;Node3</title>
<path fill="none" stroke="midnightblue" d="M267.261,-372.394C244.086,-366.705 215.585,-355.376 201,-333 193.477,-321.458 198.921,-315.62 201,-302 208.868,-250.445 236,-242.152 236,-190 236,-190 236,-190 236,-132 236,-77.2323 282.625,-77.4914 333,-56 428.388,-15.3047 553.269,-10.0955 613.092,-10.2114"/>
<polygon fill="midnightblue" stroke="midnightblue" points="613.119,-13.7116 623.144,-10.2834 613.169,-6.71179 613.119,-13.7116"/>
</g>
<!-- Node21&#45;&gt;Node7 -->
<g id="edge49" class="edge"><title>Node21&#45;&gt;Node7</title>
<path fill="none" stroke="midnightblue" d="M338.61,-373.003C349.038,-371.617 360.466,-370.172 371,-369 459.481,-359.157 694.881,-380.78 770,-333 837.237,-290.233 870.084,-193.475 881.34,-152.688"/>
<polygon fill="midnightblue" stroke="midnightblue" points="884.793,-153.321 883.953,-142.76 878.023,-151.54 884.793,-153.321"/>
</g>
<!-- Node21&#45;&gt;Node22 -->
<g id="edge47" class="edge"><title>Node21&#45;&gt;Node22</title>
<path fill="none" stroke="midnightblue" d="M276.523,-369.471C249.238,-360.611 205.514,-346.222 168,-333 165.758,-332.21 163.448,-331.383 161.125,-330.543"/>
<polygon fill="midnightblue" stroke="midnightblue" points="162.231,-327.22 151.637,-327.066 159.822,-333.793 162.231,-327.22"/>
</g>
<!-- Node22&#45;&gt;Node3 -->
<g id="edge48" class="edge"><title>Node22&#45;&gt;Node3</title>
<path fill="none" stroke="midnightblue" d="M137.739,-307.883C156.306,-288.608 198,-239.783 198,-190 198,-190 198,-190 198,-132 198,-96.578 194.57,-78.4127 222,-56 252.079,-31.4226 516.779,-16.9899 613.125,-12.5125"/>
<polygon fill="midnightblue" stroke="midnightblue" points="613.399,-16.0037 623.229,-12.0509 613.08,-9.01097 613.399,-16.0037"/>
</g>
<!-- Node23&#45;&gt;Node3 -->
<g id="edge52" class="edge"><title>Node23&#45;&gt;Node3</title>
<path fill="none" stroke="midnightblue" d="M1088.81,-371.707C1135.84,-364.072 1207.57,-350.078 1229,-333 1260.71,-307.728 1270,-292.047 1270,-251.5 1270,-251.5 1270,-251.5 1270,-132 1270,-11.4886 814.426,-8.62569 683.06,-10.3052"/>
<polygon fill="midnightblue" stroke="midnightblue" points="682.715,-6.80976 672.767,-10.4551 682.817,-13.809 682.715,-6.80976"/>
</g>
<!-- Node23&#45;&gt;Node7 -->
<g id="edge53" class="edge"><title>Node23&#45;&gt;Node7</title>
<path fill="none" stroke="midnightblue" d="M1088.74,-372.339C1132.79,-365.525 1197.08,-352.506 1212,-333 1220.37,-322.057 1218.55,-314.119 1212,-302 1153.83,-194.437 999.463,-153.711 925.972,-140.076"/>
<polygon fill="midnightblue" stroke="midnightblue" points="926.195,-136.561 915.737,-138.256 924.97,-143.453 926.195,-136.561"/>
</g>
<!-- Node23&#45;&gt;Node14 -->
<g id="edge54" class="edge"><title>Node23&#45;&gt;Node14</title>
<path fill="none" stroke="midnightblue" d="M1044.08,-369.305C1039.87,-350.298 1029.72,-304.47 1023.4,-275.9"/>
<polygon fill="midnightblue" stroke="midnightblue" points="1026.76,-274.895 1021.18,-265.888 1019.93,-276.408 1026.76,-274.895"/>
</g>
<!-- Node23&#45;&gt;Node19 -->
<g id="edge55" class="edge"><title>Node23&#45;&gt;Node19</title>
<path fill="none" stroke="midnightblue" d="M1057.32,-369.475C1069.87,-360.02 1090.35,-344.596 1105.5,-333.187"/>
<polygon fill="midnightblue" stroke="midnightblue" points="1107.82,-335.821 1113.7,-327.009 1103.61,-330.23 1107.82,-335.821"/>
</g>
<!-- Node25&#45;&gt;Node3 -->
<g id="edge60" class="edge"><title>Node25&#45;&gt;Node3</title>
<path fill="none" stroke="midnightblue" d="M1206.82,-369.494C1240.01,-352.261 1308,-309.844 1308,-251.5 1308,-251.5 1308,-251.5 1308,-132 1308,-83.2791 1273.45,-75.9408 1229,-56 1130.51,-11.8193 792.515,-10.0263 682.738,-10.6532"/>
<polygon fill="midnightblue" stroke="midnightblue" points="682.524,-7.15447 672.548,-10.7224 682.572,-14.1543 682.524,-7.15447"/>
</g>
<!-- Node26 -->
<g id="node26" class="node"><title>Node26</title>
<g id="a_node26"><a xlink:href="station__list__struct_8h.html" target="_top" xlink:title="system/station_list\l_struct.h">
<polygon fill="white" stroke="black" points="1336.5,-302.5 1336.5,-332.5 1435.5,-332.5 1435.5,-302.5 1336.5,-302.5"/>
<text text-anchor="start" x="1344.5" y="-320.5" font-family="Helvetica,sans-Serif" font-size="10.00">system/station_list</text>
<text text-anchor="middle" x="1386" y="-309.5" font-family="Helvetica,sans-Serif" font-size="10.00">_struct.h</text>
</a>
</g>
</g>
<!-- Node25&#45;&gt;Node26 -->
<g id="edge61" class="edge"><title>Node25&#45;&gt;Node26</title>
<path fill="none" stroke="midnightblue" d="M1217.23,-369.475C1246.52,-360.626 1293.13,-346.549 1329.95,-335.428"/>
<polygon fill="midnightblue" stroke="midnightblue" points="1331.01,-338.765 1339.57,-332.523 1328.99,-332.064 1331.01,-338.765"/>
</g>
<!-- Node26&#45;&gt;Node3 -->
<g id="edge62" class="edge"><title>Node26&#45;&gt;Node3</title>
<path fill="none" stroke="midnightblue" d="M1382.24,-302.198C1376.44,-278.879 1366,-231.134 1366,-190 1366,-190 1366,-190 1366,-132 1366,-92.9698 1355.14,-76.6109 1322,-56 1267.51,-22.117 813.62,-13.279 683.024,-11.4273"/>
<polygon fill="midnightblue" stroke="midnightblue" points="682.839,-7.92458 672.792,-11.2873 682.743,-14.9239 682.839,-7.92458"/>
</g>
<!-- Node26&#45;&gt;Node15 -->
<g id="edge63" class="edge"><title>Node26&#45;&gt;Node15</title>
<path fill="none" stroke="midnightblue" d="M1359.04,-332.66C1320.07,-353.121 1252.44,-388.574 1251,-389 1085.32,-437.901 1035.97,-408.68 864,-425 850.359,-426.294 835.595,-427.715 821.934,-429.036"/>
<polygon fill="midnightblue" stroke="midnightblue" points="821.355,-425.576 811.74,-430.024 822.031,-432.543 821.355,-425.576"/>
</g>
<!-- Node27&#45;&gt;Node3 -->
<g id="edge65" class="edge"><title>Node27&#45;&gt;Node3</title>
<path fill="none" stroke="midnightblue" d="M1387.66,-369.497C1406.48,-362.611 1429.86,-351.039 1444,-333 1467.01,-303.643 1464,-288.797 1464,-251.5 1464,-251.5 1464,-251.5 1464,-132 1464,-72.2111 1409.52,-75.4906 1353,-56 1226.96,-12.538 806.515,-10.4413 682.632,-10.7966"/>
<polygon fill="midnightblue" stroke="midnightblue" points="682.558,-7.29677 672.571,-10.833 682.583,-14.2967 682.558,-7.29677"/>
</g>
<!-- Node27&#45;&gt;Node15 -->
<g id="edge66" class="edge"><title>Node27&#45;&gt;Node15</title>
<path fill="none" stroke="midnightblue" d="M1299.4,-388.425C1297.58,-388.622 1295.78,-388.814 1294,-389 1107.22,-408.493 1060.02,-407.955 873,-425 856.412,-426.512 838.167,-428.259 821.684,-429.809"/>
<polygon fill="midnightblue" stroke="midnightblue" points="821.31,-426.329 811.679,-430.745 821.962,-433.299 821.31,-426.329"/>
</g>
<!-- Node28&#45;&gt;Node3 -->
<g id="edge69" class="edge"><title>Node28&#45;&gt;Node3</title>
<path fill="none" stroke="midnightblue" d="M1532.73,-240.694C1534.78,-209.469 1537.02,-103.378 1478,-56 1446.54,-30.7472 836.658,-15.2741 682.941,-11.7651"/>
<polygon fill="midnightblue" stroke="midnightblue" points="682.752,-8.26005 672.675,-11.5332 682.594,-15.2583 682.752,-8.26005"/>
</g>
<!-- Node29&#45;&gt;Node2 -->
<g id="edge73" class="edge"><title>Node29&#45;&gt;Node2</title>
<path fill="none" stroke="midnightblue" d="M934.43,-444.516C904.341,-453.743 853.117,-468.507 815.957,-478.699"/>
<polygon fill="midnightblue" stroke="midnightblue" points="814.607,-475.439 805.878,-481.444 816.446,-482.193 814.607,-475.439"/>
</g>
</g>
</svg>
        <g id="navigator" transform="translate(0 0)" fill="#404254">
                <rect fill="#f2f5e9" fill-opacity="0.5" stroke="#606060" stroke-width=".5" x="0" y="0" width="60" height="60"/>
                <use id="zoomplus" xlink:href="#zoomPlus" x="17" y="9" onmousedown="handleZoom(evt,'in')"/>
                <use id="zoomminus" xlink:href="#zoomMin" x="42" y="9" onmousedown="handleZoom(evt,'out')"/>
                <use id="reset" xlink:href="#resetDef" x="30" y="36" onmousedown="handleReset()"/>
                <g id="arrowUp" xlink:href="#dirArrow" transform="translate(30 24)" onmousedown="handlePan(0,-1)">
                  <use xlink:href="#rim" fill="#404040">
                        <set attributeName="fill" to="#808080" begin="arrowUp.mouseover" end="arrowUp.mouseout"/>
                  </use>
                  <path fill="none" stroke="white" stroke-width="1.5" d="M0,-3.0v7 M-2.5,-0.5L0,-3.0L2.5,-0.5"/>
                </g>
                <g id="arrowRight" xlink:href="#dirArrow" transform="rotate(90) translate(36 -43)" onmousedown="handlePan(1,0)">
                  <use xlink:href="#rim" fill="#404040">
                        <set attributeName="fill" to="#808080" begin="arrowRight.mouseover" end="arrowRight.mouseout"/>
                  </use>
                  <path fill="none" stroke="white" stroke-width="1.5" d="M0,-3.0v7 M-2.5,-0.5L0,-3.0L2.5,-0.5"/>
                </g>
                <g id="arrowDown" xlink:href="#dirArrow" transform="rotate(180) translate(-30 -48)" onmousedown="handlePan(0,1)">
                  <use xlink:href="#rim" fill="#404040">
                        <set attributeName="fill" to="#808080" begin="arrowDown.mouseover" end="arrowDown.mouseout"/>
                  </use>
                  <path fill="none" stroke="white" stroke-width="1.5" d="M0,-3.0v7 M-2.5,-0.5L0,-3.0L2.5,-0.5"/>
                </g>
                <g id="arrowLeft" xlink:href="#dirArrow" transform="rotate(270) translate(-36 17)" onmousedown="handlePan(-1,0)">
                  <use xlink:href="#rim" fill="#404040">
                        <set attributeName="fill" to="#808080" begin="arrowLeft.mouseover" end="arrowLeft.mouseout"/>
                  </use>
                  <path fill="none" stroke="white" stroke-width="1.5" d="M0,-3.0v7 M-2.5,-0.5L0,-3.0L2.5,-0.5"/>
                </g>
        </g>
        <svg viewBox="0 0 15 15" width="100%" height="30px" preserveAspectRatio="xMaxYMin meet">
         <g id="arrow_out" transform="scale(0.3 0.3)">
          <a xlink:href="menu_8c__incl_org.svg" target="_base">
           <rect id="button" ry="5" rx="5" y="6" x="6" height="38" width="38"
                fill="#f2f5e9" fill-opacity="0.5" stroke="#606060" stroke-width="1.0"/>
           <path id="arrow"
             d="M 11.500037,31.436501 C 11.940474,20.09759 22.043105,11.32322 32.158766,21.979434 L 37.068811,17.246167 C 37.068811,17.246167 37.088388,32 37.088388,32 L 22.160133,31.978069 C 22.160133,31.978069 26.997745,27.140456 26.997745,27.140456 C 18.528582,18.264221 13.291696,25.230495 11.500037,31.436501 z"
             style="fill:#404040;"/>
          </a>
         </g>
        </svg>
</svg>
