<?xml version="1.0" encoding="UTF-8" standalone="no"?>
<!DOCTYPE svg PUBLIC "-//W3C//DTD SVG 1.1//EN"
 "http://www.w3.org/Graphics/SVG/1.1/DTD/svg11.dtd">
<!-- Generated by graphviz version 2.38.0 (20140413.2041)
 -->
<!-- Title: menu_function Pages: 1 -->
<svg width="1095pt" height="199pt"
 viewBox="0.00 0.00 1095.00 199.00" xmlns="http://www.w3.org/2000/svg" xmlns:xlink="http://www.w3.org/1999/xlink">
<g id="graph0" class="graph" transform="scale(1 1) rotate(0) translate(4 195)">
<title>menu_function</title>
<polygon fill="white" stroke="none" points="-4,4 -4,-195 1091,-195 1091,4 -4,4"/>
<!-- Node1 -->
<g id="node1" class="node"><title>Node1</title>
<polygon fill="#bfbfbf" stroke="black" points="0,-120.5 0,-139.5 80,-139.5 80,-120.5 0,-120.5"/>
<text text-anchor="middle" x="40" y="-127.5" font-family="Helvetica,sans-Serif" font-size="10.00">menu_function</text>
</g>
<!-- Node2 -->
<g id="node2" class="node"><title>Node2</title>
<g id="a_node2"><a xlink:href="menu_2src_2menu_8c.html#a024aeffbbf4583410c047ad3a6c80946" target="_top" xlink:title="menu_scroll_settings">
<polygon fill="white" stroke="black" points="116,-144.5 116,-163.5 225,-163.5 225,-144.5 116,-144.5"/>
<text text-anchor="middle" x="170.5" y="-151.5" font-family="Helvetica,sans-Serif" font-size="10.00">menu_scroll_settings</text>
</a>
</g>
</g>
<!-- Node1&#45;&gt;Node2 -->
<g id="edge1" class="edge"><title>Node1&#45;&gt;Node2</title>
<path fill="none" stroke="midnightblue" d="M80.2525,-137.331C89.2362,-139.009 98.9925,-140.831 108.646,-142.634"/>
<polygon fill="midnightblue" stroke="midnightblue" points="108.16,-146.104 118.633,-144.499 109.445,-139.223 108.16,-146.104"/>
</g>
<!-- Node12 -->
<g id="node12" class="node"><title>Node12</title>
<g id="a_node12"><a xlink:href="radio_8c.html#a921f25c9a84ad0ee0715bc7f5720ade4" target="_top" xlink:title="radio_main">
<polygon fill="white" stroke="black" points="138.5,-97.5 138.5,-116.5 202.5,-116.5 202.5,-97.5 138.5,-97.5"/>
<text text-anchor="middle" x="170.5" y="-104.5" font-family="Helvetica,sans-Serif" font-size="10.00">radio_main</text>
</a>
</g>
</g>
<!-- Node1&#45;&gt;Node12 -->
<g id="edge13" class="edge"><title>Node1&#45;&gt;Node12</title>
<path fill="none" stroke="midnightblue" d="M80.2525,-122.974C95.3646,-120.269 112.663,-117.173 127.981,-114.431"/>
<polygon fill="midnightblue" stroke="midnightblue" points="128.993,-117.806 138.219,-112.599 127.759,-110.916 128.993,-117.806"/>
</g>
<!-- Node3 -->
<g id="node3" class="node"><title>Node3</title>
<g id="a_node3"><a xlink:href="menu_2src_2menu_8c.html#a503ed2007daa6f20b2f748eedbcb8494" target="_top" xlink:title="menu_scroll">
<polygon fill="white" stroke="black" points="281.5,-149.5 281.5,-168.5 350.5,-168.5 350.5,-149.5 281.5,-149.5"/>
<text text-anchor="middle" x="316" y="-156.5" font-family="Helvetica,sans-Serif" font-size="10.00">menu_scroll</text>
</a>
</g>
</g>
<!-- Node2&#45;&gt;Node3 -->
<g id="edge2" class="edge"><title>Node2&#45;&gt;Node3</title>
<path fill="none" stroke="midnightblue" d="M225.342,-155.876C240.445,-156.402 256.679,-156.968 271.127,-157.471"/>
<polygon fill="midnightblue" stroke="midnightblue" points="271.175,-160.975 281.29,-157.825 271.418,-153.979 271.175,-160.975"/>
</g>
<!-- Node4 -->
<g id="node4" class="node"><title>Node4</title>
<g id="a_node4"><a xlink:href="lcd_8h.html#acd63fb85d212730fa4fcbcbeeccd231e" target="_top" xlink:title="lcd_create_view">
<polygon fill="white" stroke="black" points="418,-152.5 418,-171.5 503,-171.5 503,-152.5 418,-152.5"/>
<text text-anchor="middle" x="460.5" y="-159.5" font-family="Helvetica,sans-Serif" font-size="10.00">lcd_create_view</text>
</a>
</g>
</g>
<!-- Node3&#45;&gt;Node4 -->
<g id="edge3" class="edge"><title>Node3&#45;&gt;Node4</title>
<path fill="none" stroke="midnightblue" d="M350.771,-159.711C367.793,-160.069 388.806,-160.512 407.807,-160.912"/>
<polygon fill="midnightblue" stroke="midnightblue" points="407.751,-164.411 417.822,-161.123 407.898,-157.413 407.751,-164.411"/>
</g>
<!-- Node5 -->
<g id="node5" class="node"><title>Node5</title>
<g id="a_node5"><a xlink:href="lcd_8c.html#a2a4df97ebc5b396233aa31765228ef42" target="_top" xlink:title="lcd_set_courser">
<polygon fill="white" stroke="black" points="550,-171.5 550,-190.5 636,-190.5 636,-171.5 550,-171.5"/>
<text text-anchor="middle" x="593" y="-178.5" font-family="Helvetica,sans-Serif" font-size="10.00">lcd_set_courser</text>
</a>
</g>
</g>
<!-- Node4&#45;&gt;Node5 -->
<g id="edge4" class="edge"><title>Node4&#45;&gt;Node5</title>
<path fill="none" stroke="midnightblue" d="M503.15,-168.064C514.805,-169.761 527.621,-171.627 539.804,-173.401"/>
<polygon fill="midnightblue" stroke="midnightblue" points="539.45,-176.886 549.85,-174.863 540.459,-169.959 539.45,-176.886"/>
</g>
<!-- Node11 -->
<g id="node11" class="node"><title>Node11</title>
<g id="a_node11"><a xlink:href="lcd_8c.html#aa6e1aa2ef9b677e16d8198df683429ec" target="_top" xlink:title="lcd_write_string">
<polygon fill="white" stroke="black" points="672,-133.5 672,-152.5 756,-152.5 756,-133.5 672,-133.5"/>
<text text-anchor="middle" x="714" y="-140.5" font-family="Helvetica,sans-Serif" font-size="10.00">lcd_write_string</text>
</a>
</g>
</g>
<!-- Node4&#45;&gt;Node11 -->
<g id="edge11" class="edge"><title>Node4&#45;&gt;Node11</title>
<path fill="none" stroke="midnightblue" d="M503.03,-158.863C546.482,-155.58 614.764,-150.421 661.59,-146.884"/>
<polygon fill="midnightblue" stroke="midnightblue" points="662.118,-150.354 671.826,-146.111 661.591,-143.374 662.118,-150.354"/>
</g>
<!-- Node6 -->
<g id="node6" class="node"><title>Node6</title>
<g id="a_node6"><a xlink:href="lcd_8c.html#a250728451a22259562d3f01a12bbd77b" target="_top" xlink:title="lcd_command">
<polygon fill="white" stroke="black" points="675.5,-171.5 675.5,-190.5 752.5,-190.5 752.5,-171.5 675.5,-171.5"/>
<text text-anchor="middle" x="714" y="-178.5" font-family="Helvetica,sans-Serif" font-size="10.00">lcd_command</text>
</a>
</g>
</g>
<!-- Node5&#45;&gt;Node6 -->
<g id="edge5" class="edge"><title>Node5&#45;&gt;Node6</title>
<path fill="none" stroke="midnightblue" d="M636.29,-181C645.611,-181 655.549,-181 665.075,-181"/>
<polygon fill="midnightblue" stroke="midnightblue" points="665.202,-184.5 675.202,-181 665.202,-177.5 665.202,-184.5"/>
</g>
<!-- Node7 -->
<g id="node7" class="node"><title>Node7</title>
<g id="a_node7"><a xlink:href="i2c_8h.html#a6691e5911f539e1e8178c6e983e8079a" target="_top" xlink:title="Transmits I2C commands with a variable length to a I2C slave. ">
<polygon fill="white" stroke="black" points="792,-133.5 792,-152.5 864,-152.5 864,-133.5 792,-133.5"/>
<text text-anchor="middle" x="828" y="-140.5" font-family="Helvetica,sans-Serif" font-size="10.00">i2c_write_var</text>
</a>
</g>
</g>
<!-- Node6&#45;&gt;Node7 -->
<g id="edge6" class="edge"><title>Node6&#45;&gt;Node7</title>
<path fill="none" stroke="midnightblue" d="M743.262,-171.411C757.19,-166.686 774.18,-160.921 789.207,-155.823"/>
<polygon fill="midnightblue" stroke="midnightblue" points="790.401,-159.113 798.747,-152.586 788.152,-152.485 790.401,-159.113"/>
</g>
<!-- Node10 -->
<g id="node10" class="node"><title>Node10</title>
<g id="a_node10"><a xlink:href="timer_8c.html#a276d5cb665b9f8b2c79e53e2f2c5b4f0" target="_top" xlink:title="_delay_ms">
<polygon fill="white" stroke="black" points="903.5,-171.5 903.5,-190.5 967.5,-190.5 967.5,-171.5 903.5,-171.5"/>
<text text-anchor="middle" x="935.5" y="-178.5" font-family="Helvetica,sans-Serif" font-size="10.00">_delay_ms</text>
</a>
</g>
</g>
<!-- Node6&#45;&gt;Node10 -->
<g id="edge9" class="edge"><title>Node6&#45;&gt;Node10</title>
<path fill="none" stroke="midnightblue" d="M752.733,-181C791.861,-181 852.853,-181 893.237,-181"/>
<polygon fill="midnightblue" stroke="midnightblue" points="893.287,-184.5 903.287,-181 893.287,-177.5 893.287,-184.5"/>
</g>
<!-- Node8 -->
<g id="node8" class="node"><title>Node8</title>
<g id="a_node8"><a xlink:href="i2c_8c.html#ae0625b97d3437bcaca4ac4b96dd01978" target="_top" xlink:title="Transmits I2C command array to a I2C slave. ">
<polygon fill="white" stroke="black" points="900,-133.5 900,-152.5 971,-152.5 971,-133.5 900,-133.5"/>
<text text-anchor="middle" x="935.5" y="-140.5" font-family="Helvetica,sans-Serif" font-size="10.00">i2c_write_arr</text>
</a>
</g>
</g>
<!-- Node7&#45;&gt;Node8 -->
<g id="edge7" class="edge"><title>Node7&#45;&gt;Node8</title>
<path fill="none" stroke="midnightblue" d="M864.13,-143C872.312,-143 881.133,-143 889.671,-143"/>
<polygon fill="midnightblue" stroke="midnightblue" points="889.882,-146.5 899.882,-143 889.882,-139.5 889.882,-146.5"/>
</g>
<!-- Node9 -->
<g id="node9" class="node"><title>Node9</title>
<g id="a_node9"><a xlink:href="timer_8c.html#a3c56af3315c2461dec5ced585a5f84db" target="_top" xlink:title="_delay_ten_us">
<polygon fill="white" stroke="black" points="1007,-152.5 1007,-171.5 1087,-171.5 1087,-152.5 1007,-152.5"/>
<text text-anchor="middle" x="1047" y="-159.5" font-family="Helvetica,sans-Serif" font-size="10.00">_delay_ten_us</text>
</a>
</g>
</g>
<!-- Node8&#45;&gt;Node9 -->
<g id="edge8" class="edge"><title>Node8&#45;&gt;Node9</title>
<path fill="none" stroke="midnightblue" d="M971.146,-149.012C979.253,-150.418 988.042,-151.943 996.651,-153.437"/>
<polygon fill="midnightblue" stroke="midnightblue" points="996.172,-156.906 1006.62,-155.167 997.368,-150.009 996.172,-156.906"/>
</g>
<!-- Node10&#45;&gt;Node9 -->
<g id="edge10" class="edge"><title>Node10&#45;&gt;Node9</title>
<path fill="none" stroke="midnightblue" d="M967.585,-175.606C976.595,-174.043 986.664,-172.296 996.505,-170.588"/>
<polygon fill="midnightblue" stroke="midnightblue" points="997.368,-173.991 1006.62,-168.833 996.172,-167.094 997.368,-173.991"/>
</g>
<!-- Node11&#45;&gt;Node7 -->
<g id="edge12" class="edge"><title>Node11&#45;&gt;Node7</title>
<path fill="none" stroke="midnightblue" d="M756.069,-143C764.413,-143 773.234,-143 781.715,-143"/>
<polygon fill="midnightblue" stroke="midnightblue" points="781.836,-146.5 791.836,-143 781.836,-139.5 781.836,-146.5"/>
</g>
<!-- Node13 -->
<g id="node13" class="node"><title>Node13</title>
<g id="a_node13"><a xlink:href="radio_8c.html#a51f5be293265eb7d6106c9181b357f96" target="_top" xlink:title="radio_display_handler">
<polygon fill="white" stroke="black" points="261,-78.5 261,-97.5 371,-97.5 371,-78.5 261,-78.5"/>
<text text-anchor="middle" x="316" y="-85.5" font-family="Helvetica,sans-Serif" font-size="10.00">radio_display_handler</text>
</a>
</g>
</g>
<!-- Node12&#45;&gt;Node13 -->
<g id="edge14" class="edge"><title>Node12&#45;&gt;Node13</title>
<path fill="none" stroke="midnightblue" d="M202.637,-102.877C216.7,-101.015 233.865,-98.7426 250.505,-96.5395"/>
<polygon fill="midnightblue" stroke="midnightblue" points="251.311,-99.9634 260.765,-95.181 250.392,-93.0239 251.311,-99.9634"/>
</g>
<!-- Node13&#45;&gt;Node4 -->
<g id="edge16" class="edge"><title>Node13&#45;&gt;Node4</title>
<path fill="none" stroke="midnightblue" d="M330.843,-97.6789C348.101,-109.455 378.776,-129.439 407,-143 411.306,-145.069 415.899,-147.045 420.51,-148.888"/>
<polygon fill="midnightblue" stroke="midnightblue" points="419.322,-152.181 429.913,-152.47 421.814,-145.639 419.322,-152.181"/>
</g>
<!-- Node14 -->
<g id="node14" class="node"><title>Node14</title>
<g id="a_node14"><a xlink:href="time_8c.html#a38be5ccb6a78c3b5cebed5ff341ed4f9" target="_top" xlink:title="date_to_str">
<polygon fill="white" stroke="black" points="428,-76.5 428,-95.5 493,-95.5 493,-76.5 428,-76.5"/>
<text text-anchor="middle" x="460.5" y="-83.5" font-family="Helvetica,sans-Serif" font-size="10.00">date_to_str</text>
</a>
</g>
</g>
<!-- Node13&#45;&gt;Node14 -->
<g id="edge15" class="edge"><title>Node13&#45;&gt;Node14</title>
<path fill="none" stroke="midnightblue" d="M371.28,-87.2382C386.596,-87.0232 403.024,-86.7927 417.501,-86.5895"/>
<polygon fill="midnightblue" stroke="midnightblue" points="417.705,-90.087 427.655,-86.447 417.606,-83.0877 417.705,-90.087"/>
</g>
<!-- Node15 -->
<g id="node15" class="node"><title>Node15</title>
<g id="a_node15"><a xlink:href="radio_8c.html#a391fc5fe58716d2c794685bcf12bbda5" target="_top" xlink:title="radio_value_to_string">
<polygon fill="white" stroke="black" points="407,-38.5 407,-57.5 514,-57.5 514,-38.5 407,-38.5"/>
<text text-anchor="middle" x="460.5" y="-45.5" font-family="Helvetica,sans-Serif" font-size="10.00">radio_value_to_string</text>
</a>
</g>
</g>
<!-- Node13&#45;&gt;Node15 -->
<g id="edge17" class="edge"><title>Node13&#45;&gt;Node15</title>
<path fill="none" stroke="midnightblue" d="M351.132,-78.419C370.52,-72.9767 394.996,-66.1064 415.779,-60.2726"/>
<polygon fill="midnightblue" stroke="midnightblue" points="416.964,-63.5752 425.646,-57.5028 415.072,-56.8357 416.964,-63.5752"/>
</g>
<!-- Node16 -->
<g id="node16" class="node"><title>Node16</title>
<g id="a_node16"><a xlink:href="radio_8c.html#a132f2b55edd4f21141501c9e9a1c7b00" target="_top" xlink:title="radio_freq_to_string">
<polygon fill="white" stroke="black" points="410,-0.5 410,-19.5 511,-19.5 511,-0.5 410,-0.5"/>
<text text-anchor="middle" x="460.5" y="-7.5" font-family="Helvetica,sans-Serif" font-size="10.00">radio_freq_to_string</text>
</a>
</g>
</g>
<!-- Node13&#45;&gt;Node16 -->
<g id="edge18" class="edge"><title>Node13&#45;&gt;Node16</title>
<path fill="none" stroke="midnightblue" d="M329.546,-78.4103C346.438,-65.8256 377.758,-43.6251 407,-29 411.06,-26.9696 415.391,-25.0463 419.758,-23.2588"/>
<polygon fill="midnightblue" stroke="midnightblue" points="421.222,-26.4454 429.286,-19.5738 418.697,-19.9167 421.222,-26.4454"/>
</g>
<!-- Node17 -->
<g id="node17" class="node"><title>Node17</title>
<g id="a_node17"><a xlink:href="time_8c.html#a12eef8136a835e1bbe52bcf02789e706" target="_top" xlink:title="time_to_str">
<polygon fill="white" stroke="black" points="428,-114.5 428,-133.5 493,-133.5 493,-114.5 428,-114.5"/>
<text text-anchor="middle" x="460.5" y="-121.5" font-family="Helvetica,sans-Serif" font-size="10.00">time_to_str</text>
</a>
</g>
</g>
<!-- Node13&#45;&gt;Node17 -->
<g id="edge19" class="edge"><title>Node13&#45;&gt;Node17</title>
<path fill="none" stroke="midnightblue" d="M354.813,-97.5528C374.281,-102.471 398.057,-108.477 418.027,-113.523"/>
<polygon fill="midnightblue" stroke="midnightblue" points="417.231,-116.931 427.783,-115.987 418.945,-110.145 417.231,-116.931"/>
</g>
</g>
</svg>
