<?xml version="1.0" encoding="UTF-8" standalone="no"?>
<!DOCTYPE svg PUBLIC "-//W3C//DTD SVG 1.1//EN"
 "http://www.w3.org/Graphics/SVG/1.1/DTD/svg11.dtd">
<!-- Generated by graphviz version 2.38.0 (20140413.2041)
 -->
<!-- Title: D:/GIT/fhradiov2/menu/src/menu.c Pages: 1 -->
<!--zoomable 576 -->
<svg id="main" version="1.1" xmlns="http://www.w3.org/2000/svg" xmlns:xlink="http://www.w3.org/1999/xlink" xml:space="preserve" onload="init(evt)">
<style type="text/css"><![CDATA[
.edge:hover path { stroke: red; }
.edge:hover polygon { stroke: red; fill: red; }
]]></style>
<script type="text/javascript"><![CDATA[
var edges = document.getElementsByTagName('g');
if (edges && edges.length) {
  for (var i=0;i<edges.length;i++) {
    if (edges[i].id.substr(0,4)=='edge') {
      edges[i].setAttribute('class','edge');
    }
  }
}
]]></script>
        <defs>
                <circle id="rim" cx="0" cy="0" r="7"/>
                <circle id="rim2" cx="0" cy="0" r="3.5"/>
                <g id="zoomPlus">
                        <use xlink:href="#rim" fill="#404040">
                                <set attributeName="fill" to="#808080" begin="zoomplus.mouseover" end="zoomplus.mouseout"/>
                        </use>
                        <path d="M-4,0h8M0,-4v8" fill="none" stroke="white" stroke-width="1.5" pointer-events="none"/>
                </g>
                <g id="zoomMin">
                        <use xlink:href="#rim" fill="#404040">
                                <set attributeName="fill" to="#808080" begin="zoomminus.mouseover" end="zoomminus.mouseout"/>
                        </use>
                        <path d="M-4,0h8" fill="none" stroke="white" stroke-width="1.5" pointer-events="none"/>
                </g>
                <g id="dirArrow">
                        <path fill="none" stroke="white" stroke-width="1.5" d="M0,-3.0v7 M-2.5,-0.5L0,-3.0L2.5,-0.5"/>
                </g>
               <g id="resetDef">
                       <use xlink:href="#rim2" fill="#404040">
                               <set attributeName="fill" to="#808080" begin="reset.mouseover" end="reset.mouseout"/>
                       </use>
               </g>
        </defs>

<script type="text/javascript">
var viewWidth = 1404;
var viewHeight = 576;
var sectionId = 'dynsection-0';
</script>
<script xlink:href="svgpan.js"/>
<svg id="graph" class="graph">
<g id="viewport">
<title>D:/GIT/fhradiov2/menu/src/menu.c</title>
<polygon fill="white" stroke="none" points="-4,4 -4,-572 1400,-572 1400,4 -4,4"/>
<!-- Node1 -->
<g id="node1" class="node"><title>Node1</title>
<polygon fill="#bfbfbf" stroke="black" points="558,-537.5 558,-567.5 670,-567.5 670,-537.5 558,-537.5"/>
<text text-anchor="start" x="566" y="-555.5" font-family="Helvetica,sans-Serif" font-size="10.00">D:/GIT/fhradiov2/menu</text>
<text text-anchor="middle" x="614" y="-544.5" font-family="Helvetica,sans-Serif" font-size="10.00">/src/menu.c</text>
</g>
<!-- Node2 -->
<g id="node2" class="node"><title>Node2</title>
<g id="a_node2"><a xlink:href="menu_2menu_8h.html" target="_top" xlink:title="menu/menu.h">
<polygon fill="white" stroke="black" points="576,-481.5 576,-500.5 652,-500.5 652,-481.5 576,-481.5"/>
<text text-anchor="middle" x="614" y="-488.5" font-family="Helvetica,sans-Serif" font-size="10.00">menu/menu.h</text>
</a>
</g>
</g>
<!-- Node1&#45;&gt;Node2 -->
<g id="edge1" class="edge"><title>Node1&#45;&gt;Node2</title>
<path fill="none" stroke="midnightblue" d="M614,-537.399C614,-529.466 614,-519.458 614,-510.858"/>
<polygon fill="midnightblue" stroke="midnightblue" points="617.5,-510.658 614,-500.658 610.5,-510.658 617.5,-510.658"/>
</g>
<!-- Node3 -->
<g id="node3" class="node"><title>Node3</title>
<polygon fill="white" stroke="#bfbfbf" points="609.5,-0.5 609.5,-19.5 658.5,-19.5 658.5,-0.5 609.5,-0.5"/>
<text text-anchor="middle" x="634" y="-7.5" font-family="Helvetica,sans-Serif" font-size="10.00">stdint.h</text>
</g>
<!-- Node2&#45;&gt;Node3 -->
<g id="edge2" class="edge"><title>Node2&#45;&gt;Node3</title>
<path fill="none" stroke="midnightblue" d="M575.592,-487.21C441.172,-476.938 0,-438.75 0,-380 0,-380 0,-380 0,-132 0,-92.9698 10.9535,-76.7674 44,-56 91.0173,-26.4529 479.512,-14.7156 599.101,-11.7816"/>
<polygon fill="midnightblue" stroke="midnightblue" points="599.265,-15.2788 609.178,-11.5397 599.097,-8.28077 599.265,-15.2788"/>
</g>
<!-- Node4 -->
<g id="node4" class="node"><title>Node4</title>
<g id="a_node4"><a xlink:href="lcd_8h.html" target="_top" xlink:title="driver/lcd.h">
<polygon fill="white" stroke="black" points="340.5,-369.5 340.5,-388.5 403.5,-388.5 403.5,-369.5 340.5,-369.5"/>
<text text-anchor="middle" x="372" y="-376.5" font-family="Helvetica,sans-Serif" font-size="10.00">driver/lcd.h</text>
</a>
</g>
</g>
<!-- Node2&#45;&gt;Node4 -->
<g id="edge3" class="edge"><title>Node2&#45;&gt;Node4</title>
<path fill="none" stroke="midnightblue" d="M595.011,-481.368C552.6,-462.091 449.998,-415.454 400.137,-392.789"/>
<polygon fill="midnightblue" stroke="midnightblue" points="401.453,-389.543 390.901,-388.591 398.556,-395.916 401.453,-389.543"/>
</g>
<!-- Node15 -->
<g id="node15" class="node"><title>Node15</title>
<g id="a_node15"><a xlink:href="radio_8h.html" target="_top" xlink:title="system/radio.h">
<polygon fill="white" stroke="black" points="573.5,-425.5 573.5,-444.5 654.5,-444.5 654.5,-425.5 573.5,-425.5"/>
<text text-anchor="middle" x="614" y="-432.5" font-family="Helvetica,sans-Serif" font-size="10.00">system/radio.h</text>
</a>
</g>
</g>
<!-- Node2&#45;&gt;Node15 -->
<g id="edge21" class="edge"><title>Node2&#45;&gt;Node15</title>
<path fill="none" stroke="midnightblue" d="M608.834,-481.083C607.324,-473.927 606.894,-463.635 607.542,-454.691"/>
<polygon fill="midnightblue" stroke="midnightblue" points="611.015,-455.126 608.869,-444.751 604.077,-454.2 611.015,-455.126"/>
</g>
<!-- Node24 -->
<g id="node24" class="node"><title>Node24</title>
<g id="a_node24"><a xlink:href="language_8h.html" target="_top" xlink:title="menu/lang/language.h">
<polygon fill="white" stroke="black" points="1284,-369.5 1284,-388.5 1396,-388.5 1396,-369.5 1284,-369.5"/>
<text text-anchor="middle" x="1340" y="-376.5" font-family="Helvetica,sans-Serif" font-size="10.00">menu/lang/language.h</text>
</a>
</g>
</g>
<!-- Node2&#45;&gt;Node24 -->
<g id="edge60" class="edge"><title>Node2&#45;&gt;Node24</title>
<path fill="none" stroke="midnightblue" d="M622.228,-481.268C636.72,-466.555 668.454,-437.236 702,-425 820.819,-381.662 1144.1,-401.07 1270,-389 1271.27,-388.878 1272.55,-388.752 1273.84,-388.621"/>
<polygon fill="midnightblue" stroke="midnightblue" points="1274.3,-392.091 1283.87,-387.54 1273.55,-385.131 1274.3,-392.091"/>
</g>
<!-- Node26 -->
<g id="node26" class="node"><title>Node26</title>
<g id="a_node26"><a xlink:href="menu__struct_8h.html" target="_top" xlink:title="menu/menu_struct.h">
<polygon fill="white" stroke="black" points="711,-425.5 711,-444.5 817,-444.5 817,-425.5 711,-425.5"/>
<text text-anchor="middle" x="764" y="-432.5" font-family="Helvetica,sans-Serif" font-size="10.00">menu/menu_struct.h</text>
</a>
</g>
</g>
<!-- Node2&#45;&gt;Node26 -->
<g id="edge61" class="edge"><title>Node2&#45;&gt;Node26</title>
<path fill="none" stroke="midnightblue" d="M632.679,-481.444C655.921,-472.359 695.778,-457.939 725.58,-447.783"/>
<polygon fill="midnightblue" stroke="midnightblue" points="726.907,-451.029 735.263,-444.516 724.669,-444.397 726.907,-451.029"/>
</g>
<!-- Node4&#45;&gt;Node3 -->
<g id="edge4" class="edge"><title>Node4&#45;&gt;Node3</title>
<path fill="none" stroke="midnightblue" d="M340.148,-375.928C276.326,-371.281 135.434,-358.393 95,-333 57.5675,-309.492 38,-295.702 38,-251.5 38,-251.5 38,-251.5 38,-132 38,-93.4075 47.5818,-76.9391 80,-56 123.533,-27.8819 484.109,-15.2668 598.986,-11.9359"/>
<polygon fill="midnightblue" stroke="midnightblue" points="599.421,-15.425 609.317,-11.6423 599.222,-8.42785 599.421,-15.425"/>
</g>
<!-- Node5 -->
<g id="node5" class="node"><title>Node5</title>
<g id="a_node5"><a xlink:href="pca9534_8h.html" target="_top" xlink:title="driver/pca9534.h">
<polygon fill="white" stroke="black" points="211.5,-308 211.5,-327 298.5,-327 298.5,-308 211.5,-308"/>
<text text-anchor="middle" x="255" y="-315" font-family="Helvetica,sans-Serif" font-size="10.00">driver/pca9534.h</text>
</a>
</g>
</g>
<!-- Node4&#45;&gt;Node5 -->
<g id="edge5" class="edge"><title>Node4&#45;&gt;Node5</title>
<path fill="none" stroke="midnightblue" d="M355.237,-369.475C335.775,-359.578 303.455,-343.142 280.789,-331.615"/>
<polygon fill="midnightblue" stroke="midnightblue" points="282.232,-328.422 271.732,-327.009 279.059,-334.662 282.232,-328.422"/>
</g>
<!-- Node10 -->
<g id="node10" class="node"><title>Node10</title>
<g id="a_node10"><a xlink:href="timer_8h.html" target="_top" xlink:title="driver/timer.h">
<polygon fill="white" stroke="black" points="598,-179.5 598,-198.5 670,-198.5 670,-179.5 598,-179.5"/>
<text text-anchor="middle" x="634" y="-186.5" font-family="Helvetica,sans-Serif" font-size="10.00">driver/timer.h</text>
</a>
</g>
</g>
<!-- Node4&#45;&gt;Node10 -->
<g id="edge20" class="edge"><title>Node4&#45;&gt;Node10</title>
<path fill="none" stroke="midnightblue" d="M384.015,-369.242C414.827,-346.799 499.21,-285.447 570,-235 584.42,-224.724 600.749,-213.245 613.304,-204.453"/>
<polygon fill="midnightblue" stroke="midnightblue" points="615.51,-207.181 621.698,-198.581 611.498,-201.445 615.51,-207.181"/>
</g>
<!-- Node13 -->
<g id="node13" class="node"><title>Node13</title>
<g id="a_node13"><a xlink:href="lcd__commands_8h.html" target="_top" xlink:title="driver/include/lcd\l_commands.h">
<polygon fill="white" stroke="black" points="104.5,-302.5 104.5,-332.5 193.5,-332.5 193.5,-302.5 104.5,-302.5"/>
<text text-anchor="start" x="112.5" y="-320.5" font-family="Helvetica,sans-Serif" font-size="10.00">driver/include/lcd</text>
<text text-anchor="middle" x="149" y="-309.5" font-family="Helvetica,sans-Serif" font-size="10.00">_commands.h</text>
</a>
</g>
</g>
<!-- Node4&#45;&gt;Node13 -->
<g id="edge18" class="edge"><title>Node4&#45;&gt;Node13</title>
<path fill="none" stroke="midnightblue" d="M340.334,-369.702C308.178,-361.256 256.687,-347.683 203.477,-333.387"/>
<polygon fill="midnightblue" stroke="midnightblue" points="204.092,-329.928 193.526,-330.71 202.273,-336.688 204.092,-329.928"/>
</g>
<!-- Node14 -->
<g id="node14" class="node"><title>Node14</title>
<g id="a_node14"><a xlink:href="settings_2radio__pin__mapping_8h.html" target="_top" xlink:title="settings/radio_pin\l_mapping.h">
<polygon fill="white" stroke="black" points="802.5,-235.5 802.5,-265.5 895.5,-265.5 895.5,-235.5 802.5,-235.5"/>
<text text-anchor="start" x="810.5" y="-253.5" font-family="Helvetica,sans-Serif" font-size="10.00">settings/radio_pin</text>
<text text-anchor="middle" x="849" y="-242.5" font-family="Helvetica,sans-Serif" font-size="10.00">_mapping.h</text>
</a>
</g>
</g>
<!-- Node4&#45;&gt;Node14 -->
<g id="edge19" class="edge"><title>Node4&#45;&gt;Node14</title>
<path fill="none" stroke="midnightblue" d="M403.51,-377.329C486.671,-375.114 710.116,-366.155 775,-333 801.004,-319.712 822.329,-293.251 835.297,-274.077"/>
<polygon fill="midnightblue" stroke="midnightblue" points="838.294,-275.887 840.814,-265.596 832.427,-272.07 838.294,-275.887"/>
</g>
<!-- Node5&#45;&gt;Node3 -->
<g id="edge6" class="edge"><title>Node5&#45;&gt;Node3</title>
<path fill="none" stroke="midnightblue" d="M253.738,-307.933C250.849,-287.548 244,-234.53 244,-190 244,-190 244,-190 244,-132 244,-90.0429 263.902,-77.3859 300,-56 350.018,-26.3668 523.65,-15.6235 598.838,-12.2996"/>
<polygon fill="midnightblue" stroke="midnightblue" points="599.348,-15.7813 609.191,-11.8617 599.052,-8.78755 599.348,-15.7813"/>
</g>
<!-- Node6 -->
<g id="node6" class="node"><title>Node6</title>
<g id="a_node6"><a xlink:href="i2c_8h.html" target="_top" xlink:title="I2C implemtation for MSP430G2553, interrupt based. &#160;&#160;This implemtation based on examples from Texas I...">
<polygon fill="white" stroke="black" points="416.5,-241 416.5,-260 479.5,-260 479.5,-241 416.5,-241"/>
<text text-anchor="middle" x="448" y="-248" font-family="Helvetica,sans-Serif" font-size="10.00">driver/i2c.h</text>
</a>
</g>
</g>
<!-- Node5&#45;&gt;Node6 -->
<g id="edge7" class="edge"><title>Node5&#45;&gt;Node6</title>
<path fill="none" stroke="midnightblue" d="M280.629,-307.869C314.609,-296.424 374.717,-276.181 412.897,-263.322"/>
<polygon fill="midnightblue" stroke="midnightblue" points="414.213,-266.572 422.572,-260.064 411.978,-259.939 414.213,-266.572"/>
</g>
<!-- Node6&#45;&gt;Node3 -->
<g id="edge8" class="edge"><title>Node6&#45;&gt;Node3</title>
<path fill="none" stroke="midnightblue" d="M432.339,-240.989C398.321,-221.345 322.911,-170.854 351,-123 402.203,-35.7684 535.068,-16.3692 598.839,-12.1327"/>
<polygon fill="midnightblue" stroke="midnightblue" points="599.4,-15.6064 609.183,-11.5395 598.999,-8.61786 599.4,-15.6064"/>
</g>
<!-- Node7 -->
<g id="node7" class="node"><title>Node7</title>
<polygon fill="white" stroke="#bfbfbf" points="831.5,-123.5 831.5,-142.5 890.5,-142.5 890.5,-123.5 831.5,-123.5"/>
<text text-anchor="middle" x="861" y="-130.5" font-family="Helvetica,sans-Serif" font-size="10.00">msp430.h</text>
</g>
<!-- Node6&#45;&gt;Node7 -->
<g id="edge9" class="edge"><title>Node6&#45;&gt;Node7</title>
<path fill="none" stroke="midnightblue" d="M461.808,-240.822C486.393,-225.784 539.799,-194.967 589,-179 669.028,-153.029 767.397,-141.507 821.188,-136.836"/>
<polygon fill="midnightblue" stroke="midnightblue" points="821.658,-140.309 831.333,-135.991 821.077,-133.333 821.658,-140.309"/>
</g>
<!-- Node8 -->
<g id="node8" class="node"><title>Node8</title>
<polygon fill="white" stroke="#bfbfbf" points="386,-179.5 386,-198.5 434,-198.5 434,-179.5 386,-179.5"/>
<text text-anchor="middle" x="410" y="-186.5" font-family="Helvetica,sans-Serif" font-size="10.00">stdlib.h</text>
</g>
<!-- Node6&#45;&gt;Node8 -->
<g id="edge10" class="edge"><title>Node6&#45;&gt;Node8</title>
<path fill="none" stroke="midnightblue" d="M442.556,-240.975C436.912,-232.138 427.939,-218.089 420.841,-206.975"/>
<polygon fill="midnightblue" stroke="midnightblue" points="423.767,-205.053 415.434,-198.509 417.867,-208.821 423.767,-205.053"/>
</g>
<!-- Node9 -->
<g id="node9" class="node"><title>Node9</title>
<polygon fill="white" stroke="#bfbfbf" points="452,-179.5 452,-198.5 504,-198.5 504,-179.5 452,-179.5"/>
<text text-anchor="middle" x="478" y="-186.5" font-family="Helvetica,sans-Serif" font-size="10.00">stdarg.h</text>
</g>
<!-- Node6&#45;&gt;Node9 -->
<g id="edge11" class="edge"><title>Node6&#45;&gt;Node9</title>
<path fill="none" stroke="midnightblue" d="M452.298,-240.975C456.665,-232.315 463.555,-218.649 469.103,-207.645"/>
<polygon fill="midnightblue" stroke="midnightblue" points="472.333,-209.014 473.71,-198.509 466.082,-205.863 472.333,-209.014"/>
</g>
<!-- Node6&#45;&gt;Node10 -->
<g id="edge12" class="edge"><title>Node6&#45;&gt;Node10</title>
<path fill="none" stroke="midnightblue" d="M474.649,-240.975C506.969,-230.636 561.597,-213.161 597.733,-201.602"/>
<polygon fill="midnightblue" stroke="midnightblue" points="598.942,-204.89 607.4,-198.509 596.809,-198.222 598.942,-204.89"/>
</g>
<!-- Node10&#45;&gt;Node3 -->
<g id="edge14" class="edge"><title>Node10&#45;&gt;Node3</title>
<path fill="none" stroke="midnightblue" d="M634,-179.463C634,-152.428 634,-68.2392 634,-30.109"/>
<polygon fill="midnightblue" stroke="midnightblue" points="637.5,-29.8683 634,-19.8684 630.5,-29.8684 637.5,-29.8683"/>
</g>
<!-- Node10&#45;&gt;Node7 -->
<g id="edge13" class="edge"><title>Node10&#45;&gt;Node7</title>
<path fill="none" stroke="midnightblue" d="M669.969,-179.444C711.287,-169.615 778.863,-153.539 821.58,-143.377"/>
<polygon fill="midnightblue" stroke="midnightblue" points="822.43,-146.773 831.348,-141.054 820.81,-139.963 822.43,-146.773"/>
</g>
<!-- Node11 -->
<g id="node11" class="node"><title>Node11</title>
<g id="a_node11"><a xlink:href="radio__configuration_8h.html" target="_top" xlink:title="settings/radio_configuration.h">
<polygon fill="white" stroke="black" points="360.5,-123.5 360.5,-142.5 503.5,-142.5 503.5,-123.5 360.5,-123.5"/>
<text text-anchor="middle" x="432" y="-130.5" font-family="Helvetica,sans-Serif" font-size="10.00">settings/radio_configuration.h</text>
</a>
</g>
</g>
<!-- Node10&#45;&gt;Node11 -->
<g id="edge15" class="edge"><title>Node10&#45;&gt;Node11</title>
<path fill="none" stroke="midnightblue" d="M601.992,-179.444C567.271,-170.162 511.712,-155.309 473.623,-145.127"/>
<polygon fill="midnightblue" stroke="midnightblue" points="474.422,-141.718 463.858,-142.516 472.615,-148.48 474.422,-141.718"/>
</g>
<!-- Node12 -->
<g id="node12" class="node"><title>Node12</title>
<g id="a_node12"><a xlink:href="si4735__cmd__prop_8h.html" target="_top" xlink:title="driver/include/si4735\l_cmd_prop.h">
<polygon fill="white" stroke="black" points="480,-56.5 480,-86.5 584,-86.5 584,-56.5 480,-56.5"/>
<text text-anchor="start" x="488" y="-74.5" font-family="Helvetica,sans-Serif" font-size="10.00">driver/include/si4735</text>
<text text-anchor="middle" x="532" y="-63.5" font-family="Helvetica,sans-Serif" font-size="10.00">_cmd_prop.h</text>
</a>
</g>
</g>
<!-- Node11&#45;&gt;Node12 -->
<g id="edge16" class="edge"><title>Node11&#45;&gt;Node12</title>
<path fill="none" stroke="midnightblue" d="M446.328,-123.475C460.124,-115.266 481.482,-102.558 499.421,-91.8845"/>
<polygon fill="midnightblue" stroke="midnightblue" points="501.628,-94.6442 508.432,-86.523 498.048,-88.6285 501.628,-94.6442"/>
</g>
<!-- Node12&#45;&gt;Node3 -->
<g id="edge17" class="edge"><title>Node12&#45;&gt;Node3</title>
<path fill="none" stroke="midnightblue" d="M556.173,-56.3993C572.522,-46.8619 594.015,-34.3248 610.27,-24.8422"/>
<polygon fill="midnightblue" stroke="midnightblue" points="612.284,-27.7198 619.158,-19.6578 608.757,-21.6733 612.284,-27.7198"/>
</g>
<!-- Node15&#45;&gt;Node2 -->
<g id="edge56" class="edge"><title>Node15&#45;&gt;Node2</title>
<path fill="none" stroke="midnightblue" d="M619.131,-444.751C620.657,-451.858 621.104,-462.136 620.472,-471.101"/>
<polygon fill="midnightblue" stroke="midnightblue" points="616.993,-470.713 619.166,-481.083 623.934,-471.622 616.993,-470.713"/>
</g>
<!-- Node15&#45;&gt;Node3 -->
<g id="edge22" class="edge"><title>Node15&#45;&gt;Node3</title>
<path fill="none" stroke="midnightblue" d="M654.54,-426.065C657.06,-425.675 659.562,-425.316 662,-425 772.258,-410.733 1056.76,-427.667 1161,-389 1210.3,-370.713 1256,-371.078 1256,-318.5 1256,-318.5 1256,-318.5 1256,-132 1256,-11.4886 800.426,-8.62569 669.06,-10.3052"/>
<polygon fill="midnightblue" stroke="midnightblue" points="668.715,-6.80976 658.767,-10.4551 668.817,-13.809 668.715,-6.80976"/>
</g>
<!-- Node15&#45;&gt;Node4 -->
<g id="edge44" class="edge"><title>Node15&#45;&gt;Node4</title>
<path fill="none" stroke="midnightblue" d="M575.654,-425.444C531.42,-415.573 458.956,-399.403 413.45,-389.249"/>
<polygon fill="midnightblue" stroke="midnightblue" points="414.133,-385.816 403.611,-387.054 412.609,-392.648 414.133,-385.816"/>
</g>
<!-- Node15&#45;&gt;Node10 -->
<g id="edge49" class="edge"><title>Node15&#45;&gt;Node10</title>
<path fill="none" stroke="midnightblue" d="M606.582,-425.2C589.83,-404.228 551.54,-349.508 565,-302 575.622,-264.508 602.736,-227.24 619.64,-206.552"/>
<polygon fill="midnightblue" stroke="midnightblue" points="622.44,-208.66 626.182,-198.748 617.075,-204.163 622.44,-208.66"/>
</g>
<!-- Node15&#45;&gt;Node11 -->
<g id="edge57" class="edge"><title>Node15&#45;&gt;Node11</title>
<path fill="none" stroke="midnightblue" d="M574.301,-425.487C549.381,-418.685 517.609,-407.209 494,-389 440.979,-348.106 440.172,-324.165 407,-266 386.737,-230.471 359.485,-215.961 377,-179 383.128,-166.068 394.994,-155.617 406.141,-148.053"/>
<polygon fill="midnightblue" stroke="midnightblue" points="408.195,-150.896 414.802,-142.614 404.472,-144.968 408.195,-150.896"/>
</g>
<!-- Node15&#45;&gt;Node12 -->
<g id="edge33" class="edge"><title>Node15&#45;&gt;Node12</title>
<path fill="none" stroke="midnightblue" d="M602.34,-425.354C592.163,-417.153 577.831,-403.894 570,-389 518.436,-290.93 524.283,-152.677 529.281,-97.0725"/>
<polygon fill="midnightblue" stroke="midnightblue" points="532.795,-97.0897 530.282,-86.7972 525.828,-96.4104 532.795,-97.0897"/>
</g>
<!-- Node16 -->
<g id="node16" class="node"><title>Node16</title>
<g id="a_node16"><a xlink:href="pca9530_8h.html" target="_top" xlink:title="driver/pca9530.h">
<polygon fill="white" stroke="black" points="316.5,-308 316.5,-327 403.5,-327 403.5,-308 316.5,-308"/>
<text text-anchor="middle" x="360" y="-315" font-family="Helvetica,sans-Serif" font-size="10.00">driver/pca9530.h</text>
</a>
</g>
</g>
<!-- Node15&#45;&gt;Node16 -->
<g id="edge23" class="edge"><title>Node15&#45;&gt;Node16</title>
<path fill="none" stroke="midnightblue" d="M573.273,-426.574C540.477,-419.624 493.781,-407.505 456,-389 425.997,-374.305 395.628,-350.079 377.305,-334.204"/>
<polygon fill="midnightblue" stroke="midnightblue" points="379.144,-331.158 369.332,-327.161 374.509,-336.405 379.144,-331.158"/>
</g>
<!-- Node17 -->
<g id="node17" class="node"><title>Node17</title>
<g id="a_node17"><a xlink:href="log__exp__table_8h.html" target="_top" xlink:title="libs/log_exp_table.h">
<polygon fill="white" stroke="black" points="89.5,-62 89.5,-81 192.5,-81 192.5,-62 89.5,-62"/>
<text text-anchor="middle" x="141" y="-69" font-family="Helvetica,sans-Serif" font-size="10.00">libs/log_exp_table.h</text>
</a>
</g>
</g>
<!-- Node15&#45;&gt;Node17 -->
<g id="edge26" class="edge"><title>Node15&#45;&gt;Node17</title>
<path fill="none" stroke="midnightblue" d="M573.121,-433.925C447.571,-432.607 76,-420.121 76,-318.5 76,-318.5 76,-318.5 76,-188 76,-148.187 105.695,-109.428 124.943,-88.4862"/>
<polygon fill="midnightblue" stroke="midnightblue" points="127.592,-90.7796 131.962,-81.1278 122.527,-85.948 127.592,-90.7796"/>
</g>
<!-- Node18 -->
<g id="node18" class="node"><title>Node18</title>
<g id="a_node18"><a xlink:href="si4735_8h.html" target="_top" xlink:title="driver/si4735.h">
<polygon fill="white" stroke="black" points="574.5,-308 574.5,-327 653.5,-327 653.5,-308 574.5,-308"/>
<text text-anchor="middle" x="614" y="-315" font-family="Helvetica,sans-Serif" font-size="10.00">driver/si4735.h</text>
</a>
</g>
</g>
<!-- Node15&#45;&gt;Node18 -->
<g id="edge28" class="edge"><title>Node15&#45;&gt;Node18</title>
<path fill="none" stroke="midnightblue" d="M614,-425.319C614,-406.757 614,-362.839 614,-337.473"/>
<polygon fill="midnightblue" stroke="midnightblue" points="617.5,-337.282 614,-327.282 610.5,-337.282 617.5,-337.282"/>
</g>
<!-- Node19 -->
<g id="node19" class="node"><title>Node19</title>
<g id="a_node19"><a xlink:href="external__interrupthandler_8h.html" target="_top" xlink:title="driver/external_interrupthandler.h">
<polygon fill="white" stroke="black" points="861.5,-308 861.5,-327 1018.5,-327 1018.5,-308 861.5,-308"/>
<text text-anchor="middle" x="940" y="-315" font-family="Helvetica,sans-Serif" font-size="10.00">driver/external_interrupthandler.h</text>
</a>
</g>
</g>
<!-- Node15&#45;&gt;Node19 -->
<g id="edge34" class="edge"><title>Node15&#45;&gt;Node19</title>
<path fill="none" stroke="midnightblue" d="M638.237,-425.413C695.642,-405.075 840.029,-353.919 906.074,-330.52"/>
<polygon fill="midnightblue" stroke="midnightblue" points="907.347,-333.782 915.604,-327.143 905.009,-327.184 907.347,-333.782"/>
</g>
<!-- Node20 -->
<g id="node20" class="node"><title>Node20</title>
<g id="a_node20"><a xlink:href="tpa2016d2_8h.html" target="_top" xlink:title="driver/tpa2016d2.h">
<polygon fill="white" stroke="black" points="671.5,-308 671.5,-327 766.5,-327 766.5,-308 671.5,-308"/>
<text text-anchor="middle" x="719" y="-315" font-family="Helvetica,sans-Serif" font-size="10.00">driver/tpa2016d2.h</text>
</a>
</g>
</g>
<!-- Node15&#45;&gt;Node20 -->
<g id="edge38" class="edge"><title>Node15&#45;&gt;Node20</title>
<path fill="none" stroke="midnightblue" d="M621.892,-425.319C639.375,-406.088 681.599,-359.641 704.177,-334.805"/>
<polygon fill="midnightblue" stroke="midnightblue" points="706.879,-337.036 711.016,-327.282 701.7,-332.327 706.879,-337.036"/>
</g>
<!-- Node21 -->
<g id="node21" class="node"><title>Node21</title>
<g id="a_node21"><a xlink:href="flash_8h.html" target="_top" xlink:title="driver/flash.h">
<polygon fill="white" stroke="black" points="1078.5,-179.5 1078.5,-198.5 1149.5,-198.5 1149.5,-179.5 1078.5,-179.5"/>
<text text-anchor="middle" x="1114" y="-186.5" font-family="Helvetica,sans-Serif" font-size="10.00">driver/flash.h</text>
</a>
</g>
</g>
<!-- Node15&#45;&gt;Node21 -->
<g id="edge45" class="edge"><title>Node15&#45;&gt;Node21</title>
<path fill="none" stroke="midnightblue" d="M654.555,-426.171C657.071,-425.755 659.568,-425.361 662,-425 807.505,-403.43 850.202,-431.579 991,-389 1042.75,-373.349 1068.54,-377.671 1099,-333 1124.82,-295.129 1121.32,-238.014 1117.27,-208.746"/>
<polygon fill="midnightblue" stroke="midnightblue" points="1120.7,-208.013 1115.7,-198.672 1113.79,-209.093 1120.7,-208.013"/>
</g>
<!-- Node23 -->
<g id="node23" class="node"><title>Node23</title>
<g id="a_node23"><a xlink:href="encoder_8h.html" target="_top" xlink:title="driver/encoder.h">
<polygon fill="white" stroke="black" points="897.5,-369.5 897.5,-388.5 982.5,-388.5 982.5,-369.5 897.5,-369.5"/>
<text text-anchor="middle" x="940" y="-376.5" font-family="Helvetica,sans-Serif" font-size="10.00">driver/encoder.h</text>
</a>
</g>
</g>
<!-- Node15&#45;&gt;Node23 -->
<g id="edge50" class="edge"><title>Node15&#45;&gt;Node23</title>
<path fill="none" stroke="midnightblue" d="M654.629,-427.27C713.441,-417.528 822.34,-399.49 887.274,-388.734"/>
<polygon fill="midnightblue" stroke="midnightblue" points="888.01,-392.16 897.304,-387.072 886.866,-385.254 888.01,-392.16"/>
</g>
<!-- Node15&#45;&gt;Node24 -->
<g id="edge55" class="edge"><title>Node15&#45;&gt;Node24</title>
<path fill="none" stroke="midnightblue" d="M654.783,-426.85C659.566,-426.153 664.384,-425.515 669,-425 934.943,-395.355 1003.59,-414.076 1270,-389 1271.27,-388.881 1272.55,-388.756 1273.84,-388.627"/>
<polygon fill="midnightblue" stroke="midnightblue" points="1274.3,-392.098 1283.87,-387.558 1273.56,-385.137 1274.3,-392.098"/>
</g>
<!-- Node25 -->
<g id="node25" class="node"><title>Node25</title>
<g id="a_node25"><a xlink:href="time_8h.html" target="_top" xlink:title="system/time.h">
<polygon fill="white" stroke="black" points="1148.5,-241 1148.5,-260 1227.5,-260 1227.5,-241 1148.5,-241"/>
<text text-anchor="middle" x="1188" y="-248" font-family="Helvetica,sans-Serif" font-size="10.00">system/time.h</text>
</a>
</g>
</g>
<!-- Node15&#45;&gt;Node25 -->
<g id="edge58" class="edge"><title>Node15&#45;&gt;Node25</title>
<path fill="none" stroke="midnightblue" d="M654.541,-426.075C657.061,-425.683 659.562,-425.32 662,-425 714.479,-418.113 1094.72,-420.848 1137,-389 1174.87,-360.473 1184.63,-300.696 1187.14,-270.224"/>
<polygon fill="midnightblue" stroke="midnightblue" points="1190.64,-270.311 1187.79,-260.107 1183.65,-269.862 1190.64,-270.311"/>
</g>
<!-- Node16&#45;&gt;Node3 -->
<g id="edge24" class="edge"><title>Node16&#45;&gt;Node3</title>
<path fill="none" stroke="midnightblue" d="M349.803,-307.829C328.66,-288.821 282,-241.086 282,-190 282,-190 282,-190 282,-132 282,-77.5814 328.351,-78.2802 378,-56 451.99,-22.7963 548.26,-14.0345 599.063,-11.761"/>
<polygon fill="midnightblue" stroke="midnightblue" points="599.333,-15.2533 609.19,-11.3679 599.061,-8.25854 599.333,-15.2533"/>
</g>
<!-- Node16&#45;&gt;Node6 -->
<g id="edge25" class="edge"><title>Node16&#45;&gt;Node6</title>
<path fill="none" stroke="midnightblue" d="M371.868,-307.734C386.25,-297.111 410.704,-279.049 428.012,-266.264"/>
<polygon fill="midnightblue" stroke="midnightblue" points="430.356,-268.884 436.32,-260.127 426.197,-263.253 430.356,-268.884"/>
</g>
<!-- Node17&#45;&gt;Node3 -->
<g id="edge27" class="edge"><title>Node17&#45;&gt;Node3</title>
<path fill="none" stroke="midnightblue" d="M190.829,-61.926C203.58,-59.8574 217.282,-57.7432 230,-56 366.335,-37.3133 529.366,-20.9861 599.33,-14.2653"/>
<polygon fill="midnightblue" stroke="midnightblue" points="599.731,-17.743 609.353,-13.3072 599.065,-10.7747 599.731,-17.743"/>
</g>
<!-- Node18&#45;&gt;Node3 -->
<g id="edge29" class="edge"><title>Node18&#45;&gt;Node3</title>
<path fill="none" stroke="midnightblue" d="M625.329,-307.715C648.257,-288.849 698,-241.935 698,-190 698,-190 698,-190 698,-132 698,-90.4605 668.162,-49.2352 649.233,-27.2614"/>
<polygon fill="midnightblue" stroke="midnightblue" points="651.638,-24.7002 642.367,-19.5728 646.417,-29.3629 651.638,-24.7002"/>
</g>
<!-- Node18&#45;&gt;Node6 -->
<g id="edge30" class="edge"><title>Node18&#45;&gt;Node6</title>
<path fill="none" stroke="midnightblue" d="M591.956,-307.869C563.103,-296.571 512.347,-276.696 479.459,-263.818"/>
<polygon fill="midnightblue" stroke="midnightblue" points="480.458,-260.451 469.87,-260.064 477.906,-266.969 480.458,-260.451"/>
</g>
<!-- Node18&#45;&gt;Node10 -->
<g id="edge31" class="edge"><title>Node18&#45;&gt;Node10</title>
<path fill="none" stroke="midnightblue" d="M615.375,-307.805C618.586,-287.494 626.64,-236.553 631.031,-208.777"/>
<polygon fill="midnightblue" stroke="midnightblue" points="634.511,-209.18 632.616,-198.756 627.597,-208.086 634.511,-209.18"/>
</g>
<!-- Node18&#45;&gt;Node14 -->
<g id="edge32" class="edge"><title>Node18&#45;&gt;Node14</title>
<path fill="none" stroke="midnightblue" d="M641.879,-307.926C648.465,-305.943 655.472,-303.867 662,-302 705.591,-289.533 755.135,-276.19 792.271,-266.353"/>
<polygon fill="midnightblue" stroke="midnightblue" points="793.627,-269.614 802.4,-263.675 791.838,-262.847 793.627,-269.614"/>
</g>
<!-- Node19&#45;&gt;Node3 -->
<g id="edge36" class="edge"><title>Node19&#45;&gt;Node3</title>
<path fill="none" stroke="midnightblue" d="M948.359,-307.81C966.119,-288.391 1006,-239.295 1006,-190 1006,-190 1006,-190 1006,-132 1006,-61.4566 761.027,-25.7228 668.671,-14.7577"/>
<polygon fill="midnightblue" stroke="midnightblue" points="669.033,-11.2762 658.696,-13.5997 668.226,-18.2296 669.033,-11.2762"/>
</g>
<!-- Node19&#45;&gt;Node7 -->
<g id="edge35" class="edge"><title>Node19&#45;&gt;Node7</title>
<path fill="none" stroke="midnightblue" d="M936.19,-307.698C923.963,-279.452 885.544,-190.7 868.861,-152.161"/>
<polygon fill="midnightblue" stroke="midnightblue" points="871.957,-150.501 864.772,-142.714 865.533,-153.282 871.957,-150.501"/>
</g>
<!-- Node19&#45;&gt;Node14 -->
<g id="edge37" class="edge"><title>Node19&#45;&gt;Node14</title>
<path fill="none" stroke="midnightblue" d="M927.727,-307.734C914.838,-298.527 894.126,-283.733 877.181,-271.629"/>
<polygon fill="midnightblue" stroke="midnightblue" points="878.896,-268.553 868.725,-265.589 874.828,-274.25 878.896,-268.553"/>
</g>
<!-- Node20&#45;&gt;Node3 -->
<g id="edge40" class="edge"><title>Node20&#45;&gt;Node3</title>
<path fill="none" stroke="midnightblue" d="M720.95,-307.964C725.415,-287.645 736,-234.762 736,-190 736,-190 736,-190 736,-132 736,-83.9445 688.386,-45.0719 658.221,-25.2665"/>
<polygon fill="midnightblue" stroke="midnightblue" points="659.814,-22.1323 649.492,-19.743 656.071,-28.0477 659.814,-22.1323"/>
</g>
<!-- Node20&#45;&gt;Node6 -->
<g id="edge41" class="edge"><title>Node20&#45;&gt;Node6</title>
<path fill="none" stroke="midnightblue" d="M685.87,-307.969C678.049,-305.983 669.736,-303.896 662,-302 602.105,-287.316 532.584,-271.054 489.437,-261.054"/>
<polygon fill="midnightblue" stroke="midnightblue" points="490.119,-257.619 479.587,-258.773 488.54,-264.439 490.119,-257.619"/>
</g>
<!-- Node20&#45;&gt;Node7 -->
<g id="edge39" class="edge"><title>Node20&#45;&gt;Node7</title>
<path fill="none" stroke="midnightblue" d="M725.849,-307.698C748.108,-279.09 818.661,-188.415 848.003,-150.703"/>
<polygon fill="midnightblue" stroke="midnightblue" points="850.841,-152.756 854.22,-142.714 845.316,-148.457 850.841,-152.756"/>
</g>
<!-- Node20&#45;&gt;Node10 -->
<g id="edge43" class="edge"><title>Node20&#45;&gt;Node10</title>
<path fill="none" stroke="midnightblue" d="M713.158,-307.805C699.267,-287.133 664.057,-234.732 645.636,-207.318"/>
<polygon fill="midnightblue" stroke="midnightblue" points="648.366,-205.104 639.883,-198.756 642.555,-209.008 648.366,-205.104"/>
</g>
<!-- Node20&#45;&gt;Node14 -->
<g id="edge42" class="edge"><title>Node20&#45;&gt;Node14</title>
<path fill="none" stroke="midnightblue" d="M736.263,-307.869C755.371,-298.315 786.745,-282.627 811.551,-270.225"/>
<polygon fill="midnightblue" stroke="midnightblue" points="813.318,-273.254 820.697,-265.652 810.187,-266.993 813.318,-273.254"/>
</g>
<!-- Node21&#45;&gt;Node3 -->
<g id="edge46" class="edge"><title>Node21&#45;&gt;Node3</title>
<path fill="none" stroke="midnightblue" d="M1120.26,-179.345C1128.62,-166.655 1141.45,-142.403 1133,-123 1115.55,-82.9229 1100.78,-74.1116 1061,-56 991.162,-24.2057 757.483,-14.446 668.661,-11.8431"/>
<polygon fill="midnightblue" stroke="midnightblue" points="668.662,-8.34187 658.568,-11.5602 668.466,-15.3391 668.662,-8.34187"/>
</g>
<!-- Node21&#45;&gt;Node7 -->
<g id="edge48" class="edge"><title>Node21&#45;&gt;Node7</title>
<path fill="none" stroke="midnightblue" d="M1078.29,-180.378C1031.36,-170.362 949.215,-152.828 900.486,-142.428"/>
<polygon fill="midnightblue" stroke="midnightblue" points="901.13,-138.986 890.619,-140.322 899.669,-145.832 901.13,-138.986"/>
</g>
<!-- Node22 -->
<g id="node22" class="node"><title>Node22</title>
<polygon fill="white" stroke="#bfbfbf" points="1075.5,-123.5 1075.5,-142.5 1124.5,-142.5 1124.5,-123.5 1075.5,-123.5"/>
<text text-anchor="middle" x="1100" y="-130.5" font-family="Helvetica,sans-Serif" font-size="10.00">string.h</text>
</g>
<!-- Node21&#45;&gt;Node22 -->
<g id="edge47" class="edge"><title>Node21&#45;&gt;Node22</title>
<path fill="none" stroke="midnightblue" d="M1111.69,-179.083C1109.83,-171.927 1107.16,-161.635 1104.85,-152.691"/>
<polygon fill="midnightblue" stroke="midnightblue" points="1108.17,-151.553 1102.27,-142.751 1101.39,-153.309 1108.17,-151.553"/>
</g>
<!-- Node23&#45;&gt;Node3 -->
<g id="edge51" class="edge"><title>Node23&#45;&gt;Node3</title>
<path fill="none" stroke="midnightblue" d="M968.744,-369.477C996.412,-360.623 1035.3,-346.237 1044,-333 1070.09,-293.281 1138.17,-347.712 1020,-123 999.35,-83.7323 986.15,-74.8781 946,-56 897.362,-33.1306 739.691,-18.8639 668.932,-13.4618"/>
<polygon fill="midnightblue" stroke="midnightblue" points="668.982,-9.95579 658.748,-12.6999 668.459,-16.9363 668.982,-9.95579"/>
</g>
<!-- Node23&#45;&gt;Node7 -->
<g id="edge52" class="edge"><title>Node23&#45;&gt;Node7</title>
<path fill="none" stroke="midnightblue" d="M975.013,-369.445C993.934,-362.844 1015.68,-351.594 1027,-333 1034.16,-321.231 1032.23,-314.745 1027,-302 997.652,-230.544 921.597,-173.274 883.475,-148.01"/>
<polygon fill="midnightblue" stroke="midnightblue" points="885.374,-145.07 875.081,-142.56 881.562,-150.941 885.374,-145.07"/>
</g>
<!-- Node23&#45;&gt;Node14 -->
<g id="edge53" class="edge"><title>Node23&#45;&gt;Node14</title>
<path fill="none" stroke="midnightblue" d="M904.854,-369.391C885.805,-362.772 863.805,-351.522 852,-333 841.223,-316.092 841.451,-292.952 843.807,-275.648"/>
<polygon fill="midnightblue" stroke="midnightblue" points="847.267,-276.177 845.469,-265.736 840.363,-275.019 847.267,-276.177"/>
</g>
<!-- Node23&#45;&gt;Node19 -->
<g id="edge54" class="edge"><title>Node23&#45;&gt;Node19</title>
<path fill="none" stroke="midnightblue" d="M940,-369.475C940,-361.08 940,-347.981 940,-337.163"/>
<polygon fill="midnightblue" stroke="midnightblue" points="943.5,-337.009 940,-327.009 936.5,-337.009 943.5,-337.009"/>
</g>
<!-- Node25&#45;&gt;Node3 -->
<g id="edge59" class="edge"><title>Node25&#45;&gt;Node3</title>
<path fill="none" stroke="midnightblue" d="M1187.38,-240.607C1184.57,-208.14 1169.91,-95.8217 1100,-56 1026.47,-14.1144 764.257,-10.5952 668.949,-10.7404"/>
<polygon fill="midnightblue" stroke="midnightblue" points="668.683,-7.24114 658.693,-10.7716 668.704,-14.2411 668.683,-7.24114"/>
</g>
<!-- Node26&#45;&gt;Node2 -->
<g id="edge62" class="edge"><title>Node26&#45;&gt;Node2</title>
<path fill="none" stroke="midnightblue" d="M745.423,-444.516C722.23,-453.585 682.383,-468.004 652.551,-478.172"/>
<polygon fill="midnightblue" stroke="midnightblue" points="651.213,-474.93 642.857,-481.444 653.451,-481.562 651.213,-474.93"/>
</g>
</g>
</svg>
        <g id="navigator" transform="translate(0 0)" fill="#404254">
                <rect fill="#f2f5e9" fill-opacity="0.5" stroke="#606060" stroke-width=".5" x="0" y="0" width="60" height="60"/>
                <use id="zoomplus" xlink:href="#zoomPlus" x="17" y="9" onmousedown="handleZoom(evt,'in')"/>
                <use id="zoomminus" xlink:href="#zoomMin" x="42" y="9" onmousedown="handleZoom(evt,'out')"/>
                <use id="reset" xlink:href="#resetDef" x="30" y="36" onmousedown="handleReset()"/>
                <g id="arrowUp" xlink:href="#dirArrow" transform="translate(30 24)" onmousedown="handlePan(0,-1)">
                  <use xlink:href="#rim" fill="#404040">
                        <set attributeName="fill" to="#808080" begin="arrowUp.mouseover" end="arrowUp.mouseout"/>
                  </use>
                  <path fill="none" stroke="white" stroke-width="1.5" d="M0,-3.0v7 M-2.5,-0.5L0,-3.0L2.5,-0.5"/>
                </g>
                <g id="arrowRight" xlink:href="#dirArrow" transform="rotate(90) translate(36 -43)" onmousedown="handlePan(1,0)">
                  <use xlink:href="#rim" fill="#404040">
                        <set attributeName="fill" to="#808080" begin="arrowRight.mouseover" end="arrowRight.mouseout"/>
                  </use>
                  <path fill="none" stroke="white" stroke-width="1.5" d="M0,-3.0v7 M-2.5,-0.5L0,-3.0L2.5,-0.5"/>
                </g>
                <g id="arrowDown" xlink:href="#dirArrow" transform="rotate(180) translate(-30 -48)" onmousedown="handlePan(0,1)">
                  <use xlink:href="#rim" fill="#404040">
                        <set attributeName="fill" to="#808080" begin="arrowDown.mouseover" end="arrowDown.mouseout"/>
                  </use>
                  <path fill="none" stroke="white" stroke-width="1.5" d="M0,-3.0v7 M-2.5,-0.5L0,-3.0L2.5,-0.5"/>
                </g>
                <g id="arrowLeft" xlink:href="#dirArrow" transform="rotate(270) translate(-36 17)" onmousedown="handlePan(-1,0)">
                  <use xlink:href="#rim" fill="#404040">
                        <set attributeName="fill" to="#808080" begin="arrowLeft.mouseover" end="arrowLeft.mouseout"/>
                  </use>
                  <path fill="none" stroke="white" stroke-width="1.5" d="M0,-3.0v7 M-2.5,-0.5L0,-3.0L2.5,-0.5"/>
                </g>
        </g>
        <svg viewBox="0 0 15 15" width="100%" height="30px" preserveAspectRatio="xMaxYMin meet">
         <g id="arrow_out" transform="scale(0.3 0.3)">
          <a xlink:href="menu_2src_2menu_8c__incl_org.svg" target="_base">
           <rect id="button" ry="5" rx="5" y="6" x="6" height="38" width="38"
                fill="#f2f5e9" fill-opacity="0.5" stroke="#606060" stroke-width="1.0"/>
           <path id="arrow"
             d="M 11.500037,31.436501 C 11.940474,20.09759 22.043105,11.32322 32.158766,21.979434 L 37.068811,17.246167 C 37.068811,17.246167 37.088388,32 37.088388,32 L 22.160133,31.978069 C 22.160133,31.978069 26.997745,27.140456 26.997745,27.140456 C 18.528582,18.264221 13.291696,25.230495 11.500037,31.436501 z"
             style="fill:#404040;"/>
          </a>
         </g>
        </svg>
</svg>
