<?xml version="1.0" encoding="UTF-8" standalone="no"?>
<!DOCTYPE svg PUBLIC "-//W3C//DTD SVG 1.1//EN"
 "http://www.w3.org/Graphics/SVG/1.1/DTD/svg11.dtd">
<!-- Generated by graphviz version 2.38.0 (20140413.2041)
 -->
<!-- Title: D:/GIT/fhradiov2/menu/menu_struct.h Pages: 1 -->
<!--zoomable 441 -->
<svg id="main" version="1.1" xmlns="http://www.w3.org/2000/svg" xmlns:xlink="http://www.w3.org/1999/xlink" xml:space="preserve" onload="init(evt)">
<style type="text/css"><![CDATA[
.edge:hover path { stroke: red; }
.edge:hover polygon { stroke: red; fill: red; }
]]></style>
<script type="text/javascript"><![CDATA[
var edges = document.getElementsByTagName('g');
if (edges && edges.length) {
  for (var i=0;i<edges.length;i++) {
    if (edges[i].id.substr(0,4)=='edge') {
      edges[i].setAttribute('class','edge');
    }
  }
}
]]></script>
        <defs>
                <circle id="rim" cx="0" cy="0" r="7"/>
                <circle id="rim2" cx="0" cy="0" r="3.5"/>
                <g id="zoomPlus">
                        <use xlink:href="#rim" fill="#404040">
                                <set attributeName="fill" to="#808080" begin="zoomplus.mouseover" end="zoomplus.mouseout"/>
                        </use>
                        <path d="M-4,0h8M0,-4v8" fill="none" stroke="white" stroke-width="1.5" pointer-events="none"/>
                </g>
                <g id="zoomMin">
                        <use xlink:href="#rim" fill="#404040">
                                <set attributeName="fill" to="#808080" begin="zoomminus.mouseover" end="zoomminus.mouseout"/>
                        </use>
                        <path d="M-4,0h8" fill="none" stroke="white" stroke-width="1.5" pointer-events="none"/>
                </g>
                <g id="dirArrow">
                        <path fill="none" stroke="white" stroke-width="1.5" d="M0,-3.0v7 M-2.5,-0.5L0,-3.0L2.5,-0.5"/>
                </g>
               <g id="resetDef">
                       <use xlink:href="#rim2" fill="#404040">
                               <set attributeName="fill" to="#808080" begin="reset.mouseover" end="reset.mouseout"/>
                       </use>
               </g>
        </defs>

<script type="text/javascript">
var viewWidth = 1055;
var viewHeight = 441;
var sectionId = 'dynsection-1';
</script>
<script xlink:href="svgpan.js"/>
<svg id="graph" class="graph">
<g id="viewport">
<title>D:/GIT/fhradiov2/menu/menu_struct.h</title>
<polygon fill="white" stroke="none" points="-4,4 -4,-437 1050.5,-437 1050.5,4 -4,4"/>
<!-- Node1 -->
<g id="node1" class="node"><title>Node1</title>
<polygon fill="#bfbfbf" stroke="black" points="346,-402.5 346,-432.5 458,-432.5 458,-402.5 346,-402.5"/>
<text text-anchor="start" x="354" y="-420.5" font-family="Helvetica,sans-Serif" font-size="10.00">D:/GIT/fhradiov2/menu</text>
<text text-anchor="middle" x="402" y="-409.5" font-family="Helvetica,sans-Serif" font-size="10.00">/menu_struct.h</text>
</g>
<!-- Node2 -->
<g id="node2" class="node"><title>Node2</title>
<g id="a_node2"><a xlink:href="menu_8h.html" target="_top" xlink:title="D:/GIT/fhradiov2/menu\l/menu.h">
<polygon fill="white" stroke="black" points="346,-335.5 346,-365.5 458,-365.5 458,-335.5 346,-335.5"/>
<text text-anchor="start" x="354" y="-353.5" font-family="Helvetica,sans-Serif" font-size="10.00">D:/GIT/fhradiov2/menu</text>
<text text-anchor="middle" x="402" y="-342.5" font-family="Helvetica,sans-Serif" font-size="10.00">/menu.h</text>
</a>
</g>
</g>
<!-- Node1&#45;&gt;Node2 -->
<g id="edge1" class="edge"><title>Node1&#45;&gt;Node2</title>
<path fill="none" stroke="midnightblue" d="M395.455,-392.403C395.005,-383.37 395.296,-373.408 396.325,-365.577"/>
<polygon fill="midnightblue" stroke="midnightblue" points="391.97,-392.736 396.322,-402.396 398.944,-392.131 391.97,-392.736"/>
</g>
<!-- Node21 -->
<g id="node21" class="node"><title>Node21</title>
<g id="a_node21"><a xlink:href="menu__struct_8c.html" target="_top" xlink:title="D:/GIT/fhradiov2/menu\l/src/menu_struct.c">
<polygon fill="white" stroke="black" points="476,-335.5 476,-365.5 588,-365.5 588,-335.5 476,-335.5"/>
<text text-anchor="start" x="484" y="-353.5" font-family="Helvetica,sans-Serif" font-size="10.00">D:/GIT/fhradiov2/menu</text>
<text text-anchor="middle" x="532" y="-342.5" font-family="Helvetica,sans-Serif" font-size="10.00">/src/menu_struct.c</text>
</a>
</g>
</g>
<!-- Node1&#45;&gt;Node21 -->
<g id="edge30" class="edge"><title>Node1&#45;&gt;Node21</title>
<path fill="none" stroke="midnightblue" d="M439.293,-397.853C459.848,-387.576 484.95,-375.025 503.847,-365.577"/>
<polygon fill="midnightblue" stroke="midnightblue" points="437.587,-394.793 430.208,-402.396 440.718,-401.054 437.587,-394.793"/>
</g>
<!-- Node2&#45;&gt;Node1 -->
<g id="edge2" class="edge"><title>Node2&#45;&gt;Node1</title>
<path fill="none" stroke="midnightblue" d="M408.544,-375.565C408.995,-384.596 408.706,-394.56 407.678,-402.396"/>
<polygon fill="midnightblue" stroke="midnightblue" points="412.028,-375.236 407.675,-365.577 405.055,-375.842 412.028,-375.236"/>
</g>
<!-- Node3 -->
<g id="node3" class="node"><title>Node3</title>
<g id="a_node3"><a xlink:href="menu_8c.html" target="_top" xlink:title="D:/GIT/fhradiov2/menu\l/src/menu.c">
<polygon fill="white" stroke="black" points="0,-268.5 0,-298.5 112,-298.5 112,-268.5 0,-268.5"/>
<text text-anchor="start" x="8" y="-286.5" font-family="Helvetica,sans-Serif" font-size="10.00">D:/GIT/fhradiov2/menu</text>
<text text-anchor="middle" x="56" y="-275.5" font-family="Helvetica,sans-Serif" font-size="10.00">/src/menu.c</text>
</a>
</g>
</g>
<!-- Node2&#45;&gt;Node3 -->
<g id="edge3" class="edge"><title>Node2&#45;&gt;Node3</title>
<path fill="none" stroke="midnightblue" d="M335.76,-337.827C279.8,-327.858 197.566,-312.957 126,-299 121.493,-298.121 116.826,-297.193 112.141,-296.249"/>
<polygon fill="midnightblue" stroke="midnightblue" points="335.437,-341.324 345.895,-339.629 336.663,-334.432 335.437,-341.324"/>
</g>
<!-- Node4 -->
<g id="node4" class="node"><title>Node4</title>
<g id="a_node4"><a xlink:href="radio_8h.html" target="_top" xlink:title="D:/GIT/fhradiov2/radio\l/radio.h">
<polygon fill="white" stroke="black" points="610.5,-268.5 610.5,-298.5 719.5,-298.5 719.5,-268.5 610.5,-268.5"/>
<text text-anchor="start" x="618.5" y="-286.5" font-family="Helvetica,sans-Serif" font-size="10.00">D:/GIT/fhradiov2/radio</text>
<text text-anchor="middle" x="665" y="-275.5" font-family="Helvetica,sans-Serif" font-size="10.00">/radio.h</text>
</a>
</g>
</g>
<!-- Node2&#45;&gt;Node4 -->
<g id="edge4" class="edge"><title>Node2&#45;&gt;Node4</title>
<path fill="none" stroke="midnightblue" d="M462.918,-332.97C507.52,-321.648 567.442,-306.885 610.479,-296.641"/>
<polygon fill="midnightblue" stroke="midnightblue" points="461.902,-329.617 453.075,-335.476 463.63,-336.4 461.902,-329.617"/>
</g>
<!-- Node10 -->
<g id="node10" class="node"><title>Node10</title>
<g id="a_node10"><a xlink:href="handler_8h.html" target="_top" xlink:title="D:/GIT/fhradiov2/system\l/handler.h">
<polygon fill="white" stroke="black" points="291,-134.5 291,-164.5 411,-164.5 411,-134.5 291,-134.5"/>
<text text-anchor="start" x="299" y="-152.5" font-family="Helvetica,sans-Serif" font-size="10.00">D:/GIT/fhradiov2/system</text>
<text text-anchor="middle" x="351" y="-141.5" font-family="Helvetica,sans-Serif" font-size="10.00">/handler.h</text>
</a>
</g>
</g>
<!-- Node2&#45;&gt;Node10 -->
<g id="edge29" class="edge"><title>Node2&#45;&gt;Node10</title>
<path fill="none" stroke="midnightblue" d="M336.166,-337.74C278.321,-323.547 197.544,-293.45 159,-232 151.679,-220.328 150.587,-211.911 159,-201 163.183,-195.575 236.235,-177.408 290.995,-164.42"/>
<polygon fill="midnightblue" stroke="midnightblue" points="335.426,-341.161 345.962,-340.046 337.03,-334.348 335.426,-341.161"/>
</g>
<!-- Node4&#45;&gt;Node2 -->
<g id="edge5" class="edge"><title>Node4&#45;&gt;Node2</title>
<path fill="none" stroke="midnightblue" d="M604.008,-301.049C559.981,-312.225 501.052,-326.747 458.167,-336.967"/>
<polygon fill="midnightblue" stroke="midnightblue" points="604.902,-304.433 613.729,-298.574 603.174,-297.65 604.902,-304.433"/>
</g>
<!-- Node5 -->
<g id="node5" class="node"><title>Node5</title>
<g id="a_node5"><a xlink:href="radio__display_8h.html" target="_top" xlink:title="D:/GIT/fhradiov2/radio\l/radio_display.h">
<polygon fill="white" stroke="black" points="610.5,-201.5 610.5,-231.5 719.5,-231.5 719.5,-201.5 610.5,-201.5"/>
<text text-anchor="start" x="618.5" y="-219.5" font-family="Helvetica,sans-Serif" font-size="10.00">D:/GIT/fhradiov2/radio</text>
<text text-anchor="middle" x="665" y="-208.5" font-family="Helvetica,sans-Serif" font-size="10.00">/radio_display.h</text>
</a>
</g>
</g>
<!-- Node4&#45;&gt;Node5 -->
<g id="edge6" class="edge"><title>Node4&#45;&gt;Node5</title>
<path fill="none" stroke="midnightblue" d="M658.455,-258.403C658.005,-249.37 658.296,-239.408 659.325,-231.577"/>
<polygon fill="midnightblue" stroke="midnightblue" points="654.97,-258.736 659.322,-268.396 661.944,-258.131 654.97,-258.736"/>
</g>
<!-- Node7 -->
<g id="node7" class="node"><title>Node7</title>
<g id="a_node7"><a xlink:href="radio__settings_8h.html" target="_top" xlink:title="D:/GIT/fhradiov2/radio\l/radio_settings.h">
<polygon fill="white" stroke="black" points="937.5,-67.5 937.5,-97.5 1046.5,-97.5 1046.5,-67.5 937.5,-67.5"/>
<text text-anchor="start" x="945.5" y="-85.5" font-family="Helvetica,sans-Serif" font-size="10.00">D:/GIT/fhradiov2/radio</text>
<text text-anchor="middle" x="992" y="-74.5" font-family="Helvetica,sans-Serif" font-size="10.00">/radio_settings.h</text>
</a>
</g>
</g>
<!-- Node4&#45;&gt;Node7 -->
<g id="edge9" class="edge"><title>Node4&#45;&gt;Node7</title>
<path fill="none" stroke="midnightblue" d="M729.733,-278.051C776.922,-272.485 840.953,-259.993 891,-232 926.94,-211.897 933.591,-200.178 955,-165 968.223,-143.273 976.231,-114.463 982.756,-97.5574"/>
<polygon fill="midnightblue" stroke="midnightblue" points="729.185,-274.59 719.63,-279.168 729.954,-281.548 729.185,-274.59"/>
</g>
<!-- Node9 -->
<g id="node9" class="node"><title>Node9</title>
<g id="a_node9"><a xlink:href="radio_8c.html" target="_top" xlink:title="D:/GIT/fhradiov2/radio\l/src/radio.c">
<polygon fill="white" stroke="black" points="306.5,-201.5 306.5,-231.5 415.5,-231.5 415.5,-201.5 306.5,-201.5"/>
<text text-anchor="start" x="314.5" y="-219.5" font-family="Helvetica,sans-Serif" font-size="10.00">D:/GIT/fhradiov2/radio</text>
<text text-anchor="middle" x="361" y="-208.5" font-family="Helvetica,sans-Serif" font-size="10.00">/src/radio.c</text>
</a>
</g>
</g>
<!-- Node4&#45;&gt;Node9 -->
<g id="edge12" class="edge"><title>Node4&#45;&gt;Node9</title>
<path fill="none" stroke="midnightblue" d="M600.317,-268.67C545.359,-256.919 467.354,-240.24 415.517,-229.157"/>
<polygon fill="midnightblue" stroke="midnightblue" points="599.789,-272.136 610.3,-270.804 601.253,-265.291 599.789,-272.136"/>
</g>
<!-- Node4&#45;&gt;Node10 -->
<g id="edge13" class="edge"><title>Node4&#45;&gt;Node10</title>
<path fill="none" stroke="midnightblue" d="M599.97,-273.495C559.122,-266.111 506.185,-253.304 463,-232 443.143,-222.204 441.781,-214.195 424,-201 406.798,-188.235 386.755,-174.444 372.027,-164.504"/>
<polygon fill="midnightblue" stroke="midnightblue" points="599.628,-276.988 610.081,-275.257 600.83,-270.092 599.628,-276.988"/>
</g>
<!-- Node13 -->
<g id="node13" class="node"><title>Node13</title>
<g id="a_node13"><a xlink:href="rds_8h.html" target="_top" xlink:title="D:/GIT/fhradiov2/system\l/rds.h">
<polygon fill="white" stroke="black" points="168,-201.5 168,-231.5 288,-231.5 288,-201.5 168,-201.5"/>
<text text-anchor="start" x="176" y="-219.5" font-family="Helvetica,sans-Serif" font-size="10.00">D:/GIT/fhradiov2/system</text>
<text text-anchor="middle" x="228" y="-208.5" font-family="Helvetica,sans-Serif" font-size="10.00">/rds.h</text>
</a>
</g>
</g>
<!-- Node4&#45;&gt;Node13 -->
<g id="edge16" class="edge"><title>Node4&#45;&gt;Node13</title>
<path fill="none" stroke="midnightblue" d="M600.201,-275.015C526.523,-266.178 402.743,-250.342 297,-232 294.105,-231.498 291.147,-230.963 288.163,-230.404"/>
<polygon fill="midnightblue" stroke="midnightblue" points="599.913,-278.506 610.258,-276.215 600.743,-271.555 599.913,-278.506"/>
</g>
<!-- Node15 -->
<g id="node15" class="node"><title>Node15</title>
<g id="a_node15"><a xlink:href="rsq_8h.html" target="_top" xlink:title="D:/GIT/fhradiov2/system\l/rsq.h">
<polygon fill="white" stroke="black" points="472,-201.5 472,-231.5 592,-231.5 592,-201.5 472,-201.5"/>
<text text-anchor="start" x="480" y="-219.5" font-family="Helvetica,sans-Serif" font-size="10.00">D:/GIT/fhradiov2/system</text>
<text text-anchor="middle" x="532" y="-208.5" font-family="Helvetica,sans-Serif" font-size="10.00">/rsq.h</text>
</a>
</g>
</g>
<!-- Node4&#45;&gt;Node15 -->
<g id="edge19" class="edge"><title>Node4&#45;&gt;Node15</title>
<path fill="none" stroke="midnightblue" d="M627.13,-263.992C606.049,-253.689 580.223,-241.068 560.803,-231.577"/>
<polygon fill="midnightblue" stroke="midnightblue" points="625.62,-267.15 636.141,-268.396 628.693,-260.86 625.62,-267.15"/>
</g>
<!-- Node17 -->
<g id="node17" class="node"><title>Node17</title>
<g id="a_node17"><a xlink:href="station__list_8h.html" target="_top" xlink:title="D:/GIT/fhradiov2/system\l/station_list.h">
<polygon fill="white" stroke="black" points="835,-134.5 835,-164.5 955,-164.5 955,-134.5 835,-134.5"/>
<text text-anchor="start" x="843" y="-152.5" font-family="Helvetica,sans-Serif" font-size="10.00">D:/GIT/fhradiov2/system</text>
<text text-anchor="middle" x="895" y="-141.5" font-family="Helvetica,sans-Serif" font-size="10.00">/station_list.h</text>
</a>
</g>
</g>
<!-- Node4&#45;&gt;Node17 -->
<g id="edge22" class="edge"><title>Node4&#45;&gt;Node17</title>
<path fill="none" stroke="midnightblue" d="M729.525,-281.056C770.884,-276.524 823.059,-264.06 858,-232 877.181,-214.4 883.223,-183.074 887.952,-164.812"/>
<polygon fill="midnightblue" stroke="midnightblue" points="729.148,-277.576 719.531,-282.022 729.821,-284.544 729.148,-277.576"/>
</g>
<!-- Node19 -->
<g id="node19" class="node"><title>Node19</title>
<g id="a_node19"><a xlink:href="station__list__struct_8h.html" target="_top" xlink:title="D:/GIT/fhradiov2/system\l/station_list_struct.h">
<polygon fill="white" stroke="black" points="738,-201.5 738,-231.5 858,-231.5 858,-201.5 738,-201.5"/>
<text text-anchor="start" x="746" y="-219.5" font-family="Helvetica,sans-Serif" font-size="10.00">D:/GIT/fhradiov2/system</text>
<text text-anchor="middle" x="798" y="-208.5" font-family="Helvetica,sans-Serif" font-size="10.00">/station_list_struct.h</text>
</a>
</g>
</g>
<!-- Node4&#45;&gt;Node19 -->
<g id="edge26" class="edge"><title>Node4&#45;&gt;Node19</title>
<path fill="none" stroke="midnightblue" d="M702.87,-263.992C723.951,-253.689 749.777,-241.068 769.197,-231.577"/>
<polygon fill="midnightblue" stroke="midnightblue" points="701.307,-260.86 693.859,-268.396 704.38,-267.15 701.307,-260.86"/>
</g>
<!-- Node5&#45;&gt;Node4 -->
<g id="edge7" class="edge"><title>Node5&#45;&gt;Node4</title>
<path fill="none" stroke="midnightblue" d="M671.544,-241.565C671.995,-250.596 671.706,-260.56 670.678,-268.396"/>
<polygon fill="midnightblue" stroke="midnightblue" points="675.028,-241.236 670.675,-231.577 668.055,-241.842 675.028,-241.236"/>
</g>
<!-- Node6 -->
<g id="node6" class="node"><title>Node6</title>
<g id="a_node6"><a xlink:href="radio__display_8c.html" target="_top" xlink:title="D:/GIT/fhradiov2/radio\l/src/radio_display.c">
<polygon fill="white" stroke="black" points="567.5,-134.5 567.5,-164.5 676.5,-164.5 676.5,-134.5 567.5,-134.5"/>
<text text-anchor="start" x="575.5" y="-152.5" font-family="Helvetica,sans-Serif" font-size="10.00">D:/GIT/fhradiov2/radio</text>
<text text-anchor="middle" x="622" y="-141.5" font-family="Helvetica,sans-Serif" font-size="10.00">/src/radio_display.c</text>
</a>
</g>
</g>
<!-- Node5&#45;&gt;Node6 -->
<g id="edge8" class="edge"><title>Node5&#45;&gt;Node6</title>
<path fill="none" stroke="midnightblue" d="M650.027,-192.867C643.804,-183.459 636.774,-172.833 631.312,-164.577"/>
<polygon fill="midnightblue" stroke="midnightblue" points="647.233,-194.987 655.67,-201.396 653.071,-191.125 647.233,-194.987"/>
</g>
<!-- Node7&#45;&gt;Node4 -->
<g id="edge10" class="edge"><title>Node7&#45;&gt;Node4</title>
<path fill="none" stroke="midnightblue" d="M994.164,-107.713C991.185,-124.588 983.847,-147.177 973,-165 951.591,-200.178 944.94,-211.897 909,-232 850,-265.001 771.566,-276.458 719.64,-280.422"/>
<polygon fill="midnightblue" stroke="midnightblue" points="997.665,-107.925 995.484,-97.5574 990.724,-107.022 997.665,-107.925"/>
</g>
<!-- Node8 -->
<g id="node8" class="node"><title>Node8</title>
<g id="a_node8"><a xlink:href="radio__settings_8c.html" target="_top" xlink:title="D:/GIT/fhradiov2/radio\l/src/radio_settings.c">
<polygon fill="white" stroke="black" points="937.5,-0.5 937.5,-30.5 1046.5,-30.5 1046.5,-0.5 937.5,-0.5"/>
<text text-anchor="start" x="945.5" y="-18.5" font-family="Helvetica,sans-Serif" font-size="10.00">D:/GIT/fhradiov2/radio</text>
<text text-anchor="middle" x="992" y="-7.5" font-family="Helvetica,sans-Serif" font-size="10.00">/src/radio_settings.c</text>
</a>
</g>
</g>
<!-- Node7&#45;&gt;Node8 -->
<g id="edge11" class="edge"><title>Node7&#45;&gt;Node8</title>
<path fill="none" stroke="midnightblue" d="M992,-57.1081C992,-48.1539 992,-38.3227 992,-30.5765"/>
<polygon fill="midnightblue" stroke="midnightblue" points="988.5,-57.3959 992,-67.396 995.5,-57.396 988.5,-57.3959"/>
</g>
<!-- Node11 -->
<g id="node11" class="node"><title>Node11</title>
<g id="a_node11"><a xlink:href="main_8c.html" target="_top" xlink:title="D:/GIT/fhradiov2/main.c">
<polygon fill="white" stroke="black" points="224.5,-73 224.5,-92 341.5,-92 341.5,-73 224.5,-73"/>
<text text-anchor="middle" x="283" y="-80" font-family="Helvetica,sans-Serif" font-size="10.00">D:/GIT/fhradiov2/main.c</text>
</a>
</g>
</g>
<!-- Node10&#45;&gt;Node11 -->
<g id="edge14" class="edge"><title>Node10&#45;&gt;Node11</title>
<path fill="none" stroke="midnightblue" d="M328.858,-127.335C316.373,-115.401 301.45,-101.136 292.096,-92.1945"/>
<polygon fill="midnightblue" stroke="midnightblue" points="326.598,-130.016 336.245,-134.396 331.435,-124.956 326.598,-130.016"/>
</g>
<!-- Node12 -->
<g id="node12" class="node"><title>Node12</title>
<g id="a_node12"><a xlink:href="handler_8c.html" target="_top" xlink:title="D:/GIT/fhradiov2/system\l/src/handler.c">
<polygon fill="white" stroke="black" points="360,-67.5 360,-97.5 480,-97.5 480,-67.5 360,-67.5"/>
<text text-anchor="start" x="368" y="-85.5" font-family="Helvetica,sans-Serif" font-size="10.00">D:/GIT/fhradiov2/system</text>
<text text-anchor="middle" x="420" y="-74.5" font-family="Helvetica,sans-Serif" font-size="10.00">/src/handler.c</text>
</a>
</g>
</g>
<!-- Node10&#45;&gt;Node12 -->
<g id="edge15" class="edge"><title>Node10&#45;&gt;Node12</title>
<path fill="none" stroke="midnightblue" d="M373.492,-127.311C383.843,-117.561 395.84,-106.259 405.057,-97.5765"/>
<polygon fill="midnightblue" stroke="midnightblue" points="370.851,-124.991 365.972,-134.396 375.651,-130.087 370.851,-124.991"/>
</g>
<!-- Node13&#45;&gt;Node10 -->
<g id="edge17" class="edge"><title>Node13&#45;&gt;Node10</title>
<path fill="none" stroke="midnightblue" d="M263.548,-196.714C282.947,-186.463 306.564,-173.983 324.363,-164.577"/>
<polygon fill="midnightblue" stroke="midnightblue" points="261.895,-193.629 254.689,-201.396 265.166,-199.818 261.895,-193.629"/>
</g>
<!-- Node14 -->
<g id="node14" class="node"><title>Node14</title>
<g id="a_node14"><a xlink:href="rds_8c.html" target="_top" xlink:title="D:/GIT/fhradiov2/system\l/src/rds.c">
<polygon fill="white" stroke="black" points="153,-134.5 153,-164.5 273,-164.5 273,-134.5 153,-134.5"/>
<text text-anchor="start" x="161" y="-152.5" font-family="Helvetica,sans-Serif" font-size="10.00">D:/GIT/fhradiov2/system</text>
<text text-anchor="middle" x="213" y="-141.5" font-family="Helvetica,sans-Serif" font-size="10.00">/src/rds.c</text>
</a>
</g>
</g>
<!-- Node13&#45;&gt;Node14 -->
<g id="edge18" class="edge"><title>Node13&#45;&gt;Node14</title>
<path fill="none" stroke="midnightblue" d="M222.439,-191.403C220.355,-182.37 218.056,-172.408 216.248,-164.577"/>
<polygon fill="midnightblue" stroke="midnightblue" points="219.086,-192.439 224.745,-201.396 225.907,-190.865 219.086,-192.439"/>
</g>
<!-- Node15&#45;&gt;Node10 -->
<g id="edge20" class="edge"><title>Node15&#45;&gt;Node10</title>
<path fill="none" stroke="midnightblue" d="M483.145,-197.955C453.988,-187.485 417.457,-174.366 390.198,-164.577"/>
<polygon fill="midnightblue" stroke="midnightblue" points="482.131,-201.31 492.726,-201.396 484.497,-194.722 482.131,-201.31"/>
</g>
<!-- Node16 -->
<g id="node16" class="node"><title>Node16</title>
<g id="a_node16"><a xlink:href="rsq_8c.html" target="_top" xlink:title="D:/GIT/fhradiov2/system\l/src/rsq.c">
<polygon fill="white" stroke="black" points="429,-134.5 429,-164.5 549,-164.5 549,-134.5 429,-134.5"/>
<text text-anchor="start" x="437" y="-152.5" font-family="Helvetica,sans-Serif" font-size="10.00">D:/GIT/fhradiov2/system</text>
<text text-anchor="middle" x="489" y="-141.5" font-family="Helvetica,sans-Serif" font-size="10.00">/src/rsq.c</text>
</a>
</g>
</g>
<!-- Node15&#45;&gt;Node16 -->
<g id="edge21" class="edge"><title>Node15&#45;&gt;Node16</title>
<path fill="none" stroke="midnightblue" d="M517.027,-192.867C510.804,-183.459 503.774,-172.833 498.312,-164.577"/>
<polygon fill="midnightblue" stroke="midnightblue" points="514.233,-194.987 522.67,-201.396 520.071,-191.125 514.233,-194.987"/>
</g>
<!-- Node17&#45;&gt;Node4 -->
<g id="edge23" class="edge"><title>Node17&#45;&gt;Node4</title>
<path fill="none" stroke="midnightblue" d="M900.146,-174.993C898.823,-193.21 891.959,-217.356 876,-232 833.916,-270.614 766.833,-280.8 719.525,-282.941"/>
<polygon fill="midnightblue" stroke="midnightblue" points="903.649,-174.863 900.3,-164.812 896.65,-174.758 903.649,-174.863"/>
</g>
<!-- Node17&#45;&gt;Node7 -->
<g id="edge24" class="edge"><title>Node17&#45;&gt;Node7</title>
<path fill="none" stroke="midnightblue" d="M924.497,-128.734C939.507,-118.676 957.401,-106.685 970.994,-97.5765"/>
<polygon fill="midnightblue" stroke="midnightblue" points="922.406,-125.922 916.048,-134.396 926.303,-131.737 922.406,-125.922"/>
</g>
<!-- Node18 -->
<g id="node18" class="node"><title>Node18</title>
<g id="a_node18"><a xlink:href="station__list_8c.html" target="_top" xlink:title="D:/GIT/fhradiov2/system\l/src/station_list.c">
<polygon fill="white" stroke="black" points="799,-67.5 799,-97.5 919,-97.5 919,-67.5 799,-67.5"/>
<text text-anchor="start" x="807" y="-85.5" font-family="Helvetica,sans-Serif" font-size="10.00">D:/GIT/fhradiov2/system</text>
<text text-anchor="middle" x="859" y="-74.5" font-family="Helvetica,sans-Serif" font-size="10.00">/src/station_list.c</text>
</a>
</g>
</g>
<!-- Node17&#45;&gt;Node18 -->
<g id="edge25" class="edge"><title>Node17&#45;&gt;Node18</title>
<path fill="none" stroke="midnightblue" d="M882.303,-125.576C877.133,-116.241 871.322,-105.748 866.796,-97.5765"/>
<polygon fill="midnightblue" stroke="midnightblue" points="879.282,-127.344 887.189,-134.396 885.405,-123.952 879.282,-127.344"/>
</g>
<!-- Node19&#45;&gt;Node17 -->
<g id="edge28" class="edge"><title>Node19&#45;&gt;Node17</title>
<path fill="none" stroke="midnightblue" d="M827.497,-195.734C842.507,-185.676 860.401,-173.685 873.994,-164.577"/>
<polygon fill="midnightblue" stroke="midnightblue" points="825.406,-192.922 819.048,-201.396 829.303,-198.737 825.406,-192.922"/>
</g>
<!-- Node20 -->
<g id="node20" class="node"><title>Node20</title>
<g id="a_node20"><a xlink:href="station__list__struct_8c.html" target="_top" xlink:title="D:/GIT/fhradiov2/system\l/src/station_list_struct.c">
<polygon fill="white" stroke="black" points="695,-134.5 695,-164.5 817,-164.5 817,-134.5 695,-134.5"/>
<text text-anchor="start" x="703" y="-152.5" font-family="Helvetica,sans-Serif" font-size="10.00">D:/GIT/fhradiov2/system</text>
<text text-anchor="middle" x="756" y="-141.5" font-family="Helvetica,sans-Serif" font-size="10.00">/src/station_list_struct.c</text>
</a>
</g>
</g>
<!-- Node19&#45;&gt;Node20 -->
<g id="edge27" class="edge"><title>Node19&#45;&gt;Node20</title>
<path fill="none" stroke="midnightblue" d="M783.376,-192.867C777.297,-183.459 770.431,-172.833 765.096,-164.577"/>
<polygon fill="midnightblue" stroke="midnightblue" points="780.52,-194.896 788.887,-201.396 786.399,-191.097 780.52,-194.896"/>
</g>
</g>
</svg>
        <g id="navigator" transform="translate(0 0)" fill="#404254">
                <rect fill="#f2f5e9" fill-opacity="0.5" stroke="#606060" stroke-width=".5" x="0" y="0" width="60" height="60"/>
                <use id="zoomplus" xlink:href="#zoomPlus" x="17" y="9" onmousedown="handleZoom(evt,'in')"/>
                <use id="zoomminus" xlink:href="#zoomMin" x="42" y="9" onmousedown="handleZoom(evt,'out')"/>
                <use id="reset" xlink:href="#resetDef" x="30" y="36" onmousedown="handleReset()"/>
                <g id="arrowUp" xlink:href="#dirArrow" transform="translate(30 24)" onmousedown="handlePan(0,-1)">
                  <use xlink:href="#rim" fill="#404040">
                        <set attributeName="fill" to="#808080" begin="arrowUp.mouseover" end="arrowUp.mouseout"/>
                  </use>
                  <path fill="none" stroke="white" stroke-width="1.5" d="M0,-3.0v7 M-2.5,-0.5L0,-3.0L2.5,-0.5"/>
                </g>
                <g id="arrowRight" xlink:href="#dirArrow" transform="rotate(90) translate(36 -43)" onmousedown="handlePan(1,0)">
                  <use xlink:href="#rim" fill="#404040">
                        <set attributeName="fill" to="#808080" begin="arrowRight.mouseover" end="arrowRight.mouseout"/>
                  </use>
                  <path fill="none" stroke="white" stroke-width="1.5" d="M0,-3.0v7 M-2.5,-0.5L0,-3.0L2.5,-0.5"/>
                </g>
                <g id="arrowDown" xlink:href="#dirArrow" transform="rotate(180) translate(-30 -48)" onmousedown="handlePan(0,1)">
                  <use xlink:href="#rim" fill="#404040">
                        <set attributeName="fill" to="#808080" begin="arrowDown.mouseover" end="arrowDown.mouseout"/>
                  </use>
                  <path fill="none" stroke="white" stroke-width="1.5" d="M0,-3.0v7 M-2.5,-0.5L0,-3.0L2.5,-0.5"/>
                </g>
                <g id="arrowLeft" xlink:href="#dirArrow" transform="rotate(270) translate(-36 17)" onmousedown="handlePan(-1,0)">
                  <use xlink:href="#rim" fill="#404040">
                        <set attributeName="fill" to="#808080" begin="arrowLeft.mouseover" end="arrowLeft.mouseout"/>
                  </use>
                  <path fill="none" stroke="white" stroke-width="1.5" d="M0,-3.0v7 M-2.5,-0.5L0,-3.0L2.5,-0.5"/>
                </g>
        </g>
        <svg viewBox="0 0 15 15" width="100%" height="30px" preserveAspectRatio="xMaxYMin meet">
         <g id="arrow_out" transform="scale(0.3 0.3)">
          <a xlink:href="menu__struct_8h__dep__incl_org.svg" target="_base">
           <rect id="button" ry="5" rx="5" y="6" x="6" height="38" width="38"
                fill="#f2f5e9" fill-opacity="0.5" stroke="#606060" stroke-width="1.0"/>
           <path id="arrow"
             d="M 11.500037,31.436501 C 11.940474,20.09759 22.043105,11.32322 32.158766,21.979434 L 37.068811,17.246167 C 37.068811,17.246167 37.088388,32 37.088388,32 L 22.160133,31.978069 C 22.160133,31.978069 26.997745,27.140456 26.997745,27.140456 C 18.528582,18.264221 13.291696,25.230495 11.500037,31.436501 z"
             style="fill:#404040;"/>
          </a>
         </g>
        </svg>
</svg>
