<?xml version="1.0" encoding="UTF-8" standalone="no"?>
<!DOCTYPE svg PUBLIC "-//W3C//DTD SVG 1.1//EN"
 "http://www.w3.org/Graphics/SVG/1.1/DTD/svg11.dtd">
<!-- Generated by graphviz version 2.38.0 (20140413.2041)
 -->
<!-- Title: D:/GIT/fhradiov2/menu/menu.h Pages: 1 -->
<svg width="1152pt" height="374pt"
 viewBox="0.00 0.00 1151.50 374.00" xmlns="http://www.w3.org/2000/svg" xmlns:xlink="http://www.w3.org/1999/xlink">
<g id="graph0" class="graph" transform="scale(1 1) rotate(0) translate(4 370)">
<title>D:/GIT/fhradiov2/menu/menu.h</title>
<polygon fill="white" stroke="none" points="-4,4 -4,-370 1147.5,-370 1147.5,4 -4,4"/>
<!-- Node1 -->
<g id="node1" class="node"><title>Node1</title>
<polygon fill="#bfbfbf" stroke="black" points="172,-335.5 172,-365.5 284,-365.5 284,-335.5 172,-335.5"/>
<text text-anchor="start" x="180" y="-353.5" font-family="Helvetica,sans-Serif" font-size="10.00">D:/GIT/fhradiov2/menu</text>
<text text-anchor="middle" x="228" y="-342.5" font-family="Helvetica,sans-Serif" font-size="10.00">/menu.h</text>
</g>
<!-- Node2 -->
<g id="node2" class="node"><title>Node2</title>
<g id="a_node2"><a xlink:href="menu__struct_8h.html" target="_top" xlink:title="D:/GIT/fhradiov2/menu\l/menu_struct.h">
<polygon fill="white" stroke="black" points="0,-268.5 0,-298.5 112,-298.5 112,-268.5 0,-268.5"/>
<text text-anchor="start" x="8" y="-286.5" font-family="Helvetica,sans-Serif" font-size="10.00">D:/GIT/fhradiov2/menu</text>
<text text-anchor="middle" x="56" y="-275.5" font-family="Helvetica,sans-Serif" font-size="10.00">/menu_struct.h</text>
</a>
</g>
</g>
<!-- Node1&#45;&gt;Node2 -->
<g id="edge1" class="edge"><title>Node1&#45;&gt;Node2</title>
<path fill="none" stroke="midnightblue" d="M175.504,-331.955C146.774,-321.485 112.19,-308.366 87.5738,-298.577"/>
<polygon fill="midnightblue" stroke="midnightblue" points="174.406,-335.28 185,-335.396 176.791,-328.699 174.406,-335.28"/>
</g>
<!-- Node4 -->
<g id="node4" class="node"><title>Node4</title>
<g id="a_node4"><a xlink:href="menu_8c.html" target="_top" xlink:title="D:/GIT/fhradiov2/menu\l/src/menu.c">
<polygon fill="white" stroke="black" points="130,-268.5 130,-298.5 242,-298.5 242,-268.5 130,-268.5"/>
<text text-anchor="start" x="138" y="-286.5" font-family="Helvetica,sans-Serif" font-size="10.00">D:/GIT/fhradiov2/menu</text>
<text text-anchor="middle" x="186" y="-275.5" font-family="Helvetica,sans-Serif" font-size="10.00">/src/menu.c</text>
</a>
</g>
</g>
<!-- Node1&#45;&gt;Node4 -->
<g id="edge4" class="edge"><title>Node1&#45;&gt;Node4</title>
<path fill="none" stroke="midnightblue" d="M213.376,-326.867C207.297,-317.459 200.431,-306.833 195.096,-298.577"/>
<polygon fill="midnightblue" stroke="midnightblue" points="210.52,-328.896 218.887,-335.396 216.399,-325.097 210.52,-328.896"/>
</g>
<!-- Node5 -->
<g id="node5" class="node"><title>Node5</title>
<g id="a_node5"><a xlink:href="radio_8h.html" target="_top" xlink:title="D:/GIT/fhradiov2/radio\l/radio.h">
<polygon fill="white" stroke="black" points="612.5,-268.5 612.5,-298.5 721.5,-298.5 721.5,-268.5 612.5,-268.5"/>
<text text-anchor="start" x="620.5" y="-286.5" font-family="Helvetica,sans-Serif" font-size="10.00">D:/GIT/fhradiov2/radio</text>
<text text-anchor="middle" x="667" y="-275.5" font-family="Helvetica,sans-Serif" font-size="10.00">/radio.h</text>
</a>
</g>
</g>
<!-- Node1&#45;&gt;Node5 -->
<g id="edge5" class="edge"><title>Node1&#45;&gt;Node5</title>
<path fill="none" stroke="midnightblue" d="M294.196,-338.938C380.975,-325.742 531.45,-303.494 612.189,-291.95"/>
<polygon fill="midnightblue" stroke="midnightblue" points="293.555,-335.496 284.196,-340.462 294.609,-342.416 293.555,-335.496"/>
</g>
<!-- Node11 -->
<g id="node11" class="node"><title>Node11</title>
<g id="a_node11"><a xlink:href="handler_8h.html" target="_top" xlink:title="D:/GIT/fhradiov2/system\l/handler.h">
<polygon fill="white" stroke="black" points="296,-134.5 296,-164.5 416,-164.5 416,-134.5 296,-134.5"/>
<text text-anchor="start" x="304" y="-152.5" font-family="Helvetica,sans-Serif" font-size="10.00">D:/GIT/fhradiov2/system</text>
<text text-anchor="middle" x="356" y="-141.5" font-family="Helvetica,sans-Serif" font-size="10.00">/handler.h</text>
</a>
</g>
</g>
<!-- Node1&#45;&gt;Node11 -->
<g id="edge30" class="edge"><title>Node1&#45;&gt;Node11</title>
<path fill="none" stroke="midnightblue" d="M238.975,-326.146C242.879,-317.647 247.237,-307.934 251,-299 269.133,-255.948 260.825,-238.262 289,-201 300.245,-186.128 316.995,-173.503 330.934,-164.596"/>
<polygon fill="midnightblue" stroke="midnightblue" points="235.694,-324.902 234.663,-335.447 242.044,-327.846 235.694,-324.902"/>
</g>
<!-- Node2&#45;&gt;Node1 -->
<g id="edge2" class="edge"><title>Node2&#45;&gt;Node1</title>
<path fill="none" stroke="midnightblue" d="M108.415,-302.015C137.134,-312.481 171.722,-325.601 196.357,-335.396"/>
<polygon fill="midnightblue" stroke="midnightblue" points="109.518,-298.692 98.9234,-298.577 107.133,-305.274 109.518,-298.692"/>
</g>
<!-- Node3 -->
<g id="node3" class="node"><title>Node3</title>
<g id="a_node3"><a xlink:href="menu__struct_8c.html" target="_top" xlink:title="D:/GIT/fhradiov2/menu\l/src/menu_struct.c">
<polygon fill="white" stroke="black" points="0,-201.5 0,-231.5 112,-231.5 112,-201.5 0,-201.5"/>
<text text-anchor="start" x="8" y="-219.5" font-family="Helvetica,sans-Serif" font-size="10.00">D:/GIT/fhradiov2/menu</text>
<text text-anchor="middle" x="56" y="-208.5" font-family="Helvetica,sans-Serif" font-size="10.00">/src/menu_struct.c</text>
</a>
</g>
</g>
<!-- Node2&#45;&gt;Node3 -->
<g id="edge3" class="edge"><title>Node2&#45;&gt;Node3</title>
<path fill="none" stroke="midnightblue" d="M56,-258.108C56,-249.154 56,-239.323 56,-231.577"/>
<polygon fill="midnightblue" stroke="midnightblue" points="52.5001,-258.396 56,-268.396 59.5001,-258.396 52.5001,-258.396"/>
</g>
<!-- Node5&#45;&gt;Node1 -->
<g id="edge6" class="edge"><title>Node5&#45;&gt;Node1</title>
<path fill="none" stroke="midnightblue" d="M602.399,-294.819C516.367,-307.91 365.753,-330.183 284.189,-341.853"/>
<polygon fill="midnightblue" stroke="midnightblue" points="602.948,-298.276 612.306,-293.309 601.893,-291.356 602.948,-298.276"/>
</g>
<!-- Node6 -->
<g id="node6" class="node"><title>Node6</title>
<g id="a_node6"><a xlink:href="radio__display_8h.html" target="_top" xlink:title="D:/GIT/fhradiov2/radio\l/radio_display.h">
<polygon fill="white" stroke="black" points="612.5,-201.5 612.5,-231.5 721.5,-231.5 721.5,-201.5 612.5,-201.5"/>
<text text-anchor="start" x="620.5" y="-219.5" font-family="Helvetica,sans-Serif" font-size="10.00">D:/GIT/fhradiov2/radio</text>
<text text-anchor="middle" x="667" y="-208.5" font-family="Helvetica,sans-Serif" font-size="10.00">/radio_display.h</text>
</a>
</g>
</g>
<!-- Node5&#45;&gt;Node6 -->
<g id="edge7" class="edge"><title>Node5&#45;&gt;Node6</title>
<path fill="none" stroke="midnightblue" d="M660.455,-258.403C660.005,-249.37 660.296,-239.408 661.325,-231.577"/>
<polygon fill="midnightblue" stroke="midnightblue" points="656.97,-258.736 661.322,-268.396 663.944,-258.131 656.97,-258.736"/>
</g>
<!-- Node8 -->
<g id="node8" class="node"><title>Node8</title>
<g id="a_node8"><a xlink:href="radio__settings_8h.html" target="_top" xlink:title="D:/GIT/fhradiov2/radio\l/radio_settings.h">
<polygon fill="white" stroke="black" points="942.5,-67.5 942.5,-97.5 1051.5,-97.5 1051.5,-67.5 942.5,-67.5"/>
<text text-anchor="start" x="950.5" y="-85.5" font-family="Helvetica,sans-Serif" font-size="10.00">D:/GIT/fhradiov2/radio</text>
<text text-anchor="middle" x="997" y="-74.5" font-family="Helvetica,sans-Serif" font-size="10.00">/radio_settings.h</text>
</a>
</g>
</g>
<!-- Node5&#45;&gt;Node8 -->
<g id="edge10" class="edge"><title>Node5&#45;&gt;Node8</title>
<path fill="none" stroke="midnightblue" d="M732.008,-277.622C779.062,-271.867 842.806,-259.326 893,-232 929.986,-211.864 937.696,-200.721 960,-165 973.47,-143.426 981.398,-114.565 987.839,-97.6091"/>
<polygon fill="midnightblue" stroke="midnightblue" points="731.466,-274.162 721.932,-278.783 732.267,-281.116 731.466,-274.162"/>
</g>
<!-- Node10 -->
<g id="node10" class="node"><title>Node10</title>
<g id="a_node10"><a xlink:href="radio_8c.html" target="_top" xlink:title="D:/GIT/fhradiov2/radio\l/src/radio.c">
<polygon fill="white" stroke="black" points="1034.5,-201.5 1034.5,-231.5 1143.5,-231.5 1143.5,-201.5 1034.5,-201.5"/>
<text text-anchor="start" x="1042.5" y="-219.5" font-family="Helvetica,sans-Serif" font-size="10.00">D:/GIT/fhradiov2/radio</text>
<text text-anchor="middle" x="1089" y="-208.5" font-family="Helvetica,sans-Serif" font-size="10.00">/src/radio.c</text>
</a>
</g>
</g>
<!-- Node5&#45;&gt;Node10 -->
<g id="edge13" class="edge"><title>Node5&#45;&gt;Node10</title>
<path fill="none" stroke="midnightblue" d="M731.726,-274.524C802.674,-265.483 919.761,-249.683 1020,-232 1024.7,-231.171 1029.57,-230.257 1034.45,-229.305"/>
<polygon fill="midnightblue" stroke="midnightblue" points="731.08,-271.078 721.6,-275.808 731.961,-278.022 731.08,-271.078"/>
</g>
<!-- Node5&#45;&gt;Node11 -->
<g id="edge14" class="edge"><title>Node5&#45;&gt;Node11</title>
<path fill="none" stroke="midnightblue" d="M602.56,-273.806C561.584,-266.516 508.289,-253.698 465,-232 445.515,-222.233 444.335,-214.213 427,-201 410.278,-188.254 390.783,-174.461 376.457,-164.516"/>
<polygon fill="midnightblue" stroke="midnightblue" points="601.984,-277.258 612.432,-275.498 603.167,-270.358 601.984,-277.258"/>
</g>
<!-- Node14 -->
<g id="node14" class="node"><title>Node14</title>
<g id="a_node14"><a xlink:href="rds_8h.html" target="_top" xlink:title="D:/GIT/fhradiov2/system\l/rds.h">
<polygon fill="white" stroke="black" points="298,-201.5 298,-231.5 418,-231.5 418,-201.5 298,-201.5"/>
<text text-anchor="start" x="306" y="-219.5" font-family="Helvetica,sans-Serif" font-size="10.00">D:/GIT/fhradiov2/system</text>
<text text-anchor="middle" x="358" y="-208.5" font-family="Helvetica,sans-Serif" font-size="10.00">/rds.h</text>
</a>
</g>
</g>
<!-- Node5&#45;&gt;Node14 -->
<g id="edge17" class="edge"><title>Node5&#45;&gt;Node14</title>
<path fill="none" stroke="midnightblue" d="M602.602,-268.953C548.28,-257.526 471.114,-241.294 418.057,-230.133"/>
<polygon fill="midnightblue" stroke="midnightblue" points="601.962,-272.395 612.468,-271.029 603.403,-265.545 601.962,-272.395"/>
</g>
<!-- Node16 -->
<g id="node16" class="node"><title>Node16</title>
<g id="a_node16"><a xlink:href="rsq_8h.html" target="_top" xlink:title="D:/GIT/fhradiov2/system\l/rsq.h">
<polygon fill="white" stroke="black" points="474,-201.5 474,-231.5 594,-231.5 594,-201.5 474,-201.5"/>
<text text-anchor="start" x="482" y="-219.5" font-family="Helvetica,sans-Serif" font-size="10.00">D:/GIT/fhradiov2/system</text>
<text text-anchor="middle" x="534" y="-208.5" font-family="Helvetica,sans-Serif" font-size="10.00">/rsq.h</text>
</a>
</g>
</g>
<!-- Node5&#45;&gt;Node16 -->
<g id="edge20" class="edge"><title>Node5&#45;&gt;Node16</title>
<path fill="none" stroke="midnightblue" d="M629.13,-263.992C608.049,-253.689 582.223,-241.068 562.803,-231.577"/>
<polygon fill="midnightblue" stroke="midnightblue" points="627.62,-267.15 638.141,-268.396 630.693,-260.86 627.62,-267.15"/>
</g>
<!-- Node18 -->
<g id="node18" class="node"><title>Node18</title>
<g id="a_node18"><a xlink:href="station__list_8h.html" target="_top" xlink:title="D:/GIT/fhradiov2/system\l/station_list.h">
<polygon fill="white" stroke="black" points="840,-134.5 840,-164.5 960,-164.5 960,-134.5 840,-134.5"/>
<text text-anchor="start" x="848" y="-152.5" font-family="Helvetica,sans-Serif" font-size="10.00">D:/GIT/fhradiov2/system</text>
<text text-anchor="middle" x="900" y="-141.5" font-family="Helvetica,sans-Serif" font-size="10.00">/station_list.h</text>
</a>
</g>
</g>
<!-- Node5&#45;&gt;Node18 -->
<g id="edge23" class="edge"><title>Node5&#45;&gt;Node18</title>
<path fill="none" stroke="midnightblue" d="M731.853,-280.568C772.967,-275.824 824.741,-263.31 860,-232 879.809,-214.409 887.022,-182.783 892.478,-164.531"/>
<polygon fill="midnightblue" stroke="midnightblue" points="731.238,-277.112 721.647,-281.613 731.952,-284.076 731.238,-277.112"/>
</g>
<!-- Node20 -->
<g id="node20" class="node"><title>Node20</title>
<g id="a_node20"><a xlink:href="station__list__struct_8h.html" target="_top" xlink:title="D:/GIT/fhradiov2/system\l/station_list_struct.h">
<polygon fill="white" stroke="black" points="740,-201.5 740,-231.5 860,-231.5 860,-201.5 740,-201.5"/>
<text text-anchor="start" x="748" y="-219.5" font-family="Helvetica,sans-Serif" font-size="10.00">D:/GIT/fhradiov2/system</text>
<text text-anchor="middle" x="800" y="-208.5" font-family="Helvetica,sans-Serif" font-size="10.00">/station_list_struct.h</text>
</a>
</g>
</g>
<!-- Node5&#45;&gt;Node20 -->
<g id="edge27" class="edge"><title>Node5&#45;&gt;Node20</title>
<path fill="none" stroke="midnightblue" d="M704.87,-263.992C725.951,-253.689 751.777,-241.068 771.197,-231.577"/>
<polygon fill="midnightblue" stroke="midnightblue" points="703.307,-260.86 695.859,-268.396 706.38,-267.15 703.307,-260.86"/>
</g>
<!-- Node6&#45;&gt;Node5 -->
<g id="edge8" class="edge"><title>Node6&#45;&gt;Node5</title>
<path fill="none" stroke="midnightblue" d="M673.544,-241.565C673.995,-250.596 673.706,-260.56 672.678,-268.396"/>
<polygon fill="midnightblue" stroke="midnightblue" points="677.028,-241.236 672.675,-231.577 670.055,-241.842 677.028,-241.236"/>
</g>
<!-- Node7 -->
<g id="node7" class="node"><title>Node7</title>
<g id="a_node7"><a xlink:href="radio__display_8c.html" target="_top" xlink:title="D:/GIT/fhradiov2/radio\l/src/radio_display.c">
<polygon fill="white" stroke="black" points="572.5,-134.5 572.5,-164.5 681.5,-164.5 681.5,-134.5 572.5,-134.5"/>
<text text-anchor="start" x="580.5" y="-152.5" font-family="Helvetica,sans-Serif" font-size="10.00">D:/GIT/fhradiov2/radio</text>
<text text-anchor="middle" x="627" y="-141.5" font-family="Helvetica,sans-Serif" font-size="10.00">/src/radio_display.c</text>
</a>
</g>
</g>
<!-- Node6&#45;&gt;Node7 -->
<g id="edge9" class="edge"><title>Node6&#45;&gt;Node7</title>
<path fill="none" stroke="midnightblue" d="M653.072,-192.867C647.283,-183.459 640.744,-172.833 635.662,-164.577"/>
<polygon fill="midnightblue" stroke="midnightblue" points="650.099,-194.714 658.321,-201.396 656.06,-191.045 650.099,-194.714"/>
</g>
<!-- Node8&#45;&gt;Node5 -->
<g id="edge11" class="edge"><title>Node8&#45;&gt;Node5</title>
<path fill="none" stroke="midnightblue" d="M999.29,-107.791C996.37,-124.702 989.05,-147.303 978,-165 955.696,-200.721 947.986,-211.864 911,-232 851.809,-264.224 773.774,-275.888 721.969,-280.109"/>
<polygon fill="midnightblue" stroke="midnightblue" points="1002.8,-107.967 1000.57,-97.6091 995.85,-107.095 1002.8,-107.967"/>
</g>
<!-- Node9 -->
<g id="node9" class="node"><title>Node9</title>
<g id="a_node9"><a xlink:href="radio__settings_8c.html" target="_top" xlink:title="D:/GIT/fhradiov2/radio\l/src/radio_settings.c">
<polygon fill="white" stroke="black" points="942.5,-0.5 942.5,-30.5 1051.5,-30.5 1051.5,-0.5 942.5,-0.5"/>
<text text-anchor="start" x="950.5" y="-18.5" font-family="Helvetica,sans-Serif" font-size="10.00">D:/GIT/fhradiov2/radio</text>
<text text-anchor="middle" x="997" y="-7.5" font-family="Helvetica,sans-Serif" font-size="10.00">/src/radio_settings.c</text>
</a>
</g>
</g>
<!-- Node8&#45;&gt;Node9 -->
<g id="edge12" class="edge"><title>Node8&#45;&gt;Node9</title>
<path fill="none" stroke="midnightblue" d="M997,-57.1081C997,-48.1539 997,-38.3227 997,-30.5765"/>
<polygon fill="midnightblue" stroke="midnightblue" points="993.5,-57.3959 997,-67.396 1000.5,-57.396 993.5,-57.3959"/>
</g>
<!-- Node12 -->
<g id="node12" class="node"><title>Node12</title>
<g id="a_node12"><a xlink:href="main_8c.html" target="_top" xlink:title="D:/GIT/fhradiov2/main.c">
<polygon fill="white" stroke="black" points="229.5,-73 229.5,-92 346.5,-92 346.5,-73 229.5,-73"/>
<text text-anchor="middle" x="288" y="-80" font-family="Helvetica,sans-Serif" font-size="10.00">D:/GIT/fhradiov2/main.c</text>
</a>
</g>
</g>
<!-- Node11&#45;&gt;Node12 -->
<g id="edge15" class="edge"><title>Node11&#45;&gt;Node12</title>
<path fill="none" stroke="midnightblue" d="M333.858,-127.335C321.373,-115.401 306.45,-101.136 297.096,-92.1945"/>
<polygon fill="midnightblue" stroke="midnightblue" points="331.598,-130.016 341.245,-134.396 336.435,-124.956 331.598,-130.016"/>
</g>
<!-- Node13 -->
<g id="node13" class="node"><title>Node13</title>
<g id="a_node13"><a xlink:href="handler_8c.html" target="_top" xlink:title="D:/GIT/fhradiov2/system\l/src/handler.c">
<polygon fill="white" stroke="black" points="365,-67.5 365,-97.5 485,-97.5 485,-67.5 365,-67.5"/>
<text text-anchor="start" x="373" y="-85.5" font-family="Helvetica,sans-Serif" font-size="10.00">D:/GIT/fhradiov2/system</text>
<text text-anchor="middle" x="425" y="-74.5" font-family="Helvetica,sans-Serif" font-size="10.00">/src/handler.c</text>
</a>
</g>
</g>
<!-- Node11&#45;&gt;Node13 -->
<g id="edge16" class="edge"><title>Node11&#45;&gt;Node13</title>
<path fill="none" stroke="midnightblue" d="M378.492,-127.311C388.843,-117.561 400.84,-106.259 410.057,-97.5765"/>
<polygon fill="midnightblue" stroke="midnightblue" points="375.851,-124.991 370.972,-134.396 380.651,-130.087 375.851,-124.991"/>
</g>
<!-- Node14&#45;&gt;Node11 -->
<g id="edge18" class="edge"><title>Node14&#45;&gt;Node11</title>
<path fill="none" stroke="midnightblue" d="M357.249,-191.108C356.974,-182.154 356.671,-172.323 356.433,-164.577"/>
<polygon fill="midnightblue" stroke="midnightblue" points="353.76,-191.508 357.566,-201.396 360.757,-191.293 353.76,-191.508"/>
</g>
<!-- Node15 -->
<g id="node15" class="node"><title>Node15</title>
<g id="a_node15"><a xlink:href="rds_8c.html" target="_top" xlink:title="D:/GIT/fhradiov2/system\l/src/rds.c">
<polygon fill="white" stroke="black" points="158,-134.5 158,-164.5 278,-164.5 278,-134.5 158,-134.5"/>
<text text-anchor="start" x="166" y="-152.5" font-family="Helvetica,sans-Serif" font-size="10.00">D:/GIT/fhradiov2/system</text>
<text text-anchor="middle" x="218" y="-141.5" font-family="Helvetica,sans-Serif" font-size="10.00">/src/rds.c</text>
</a>
</g>
</g>
<!-- Node14&#45;&gt;Node15 -->
<g id="edge19" class="edge"><title>Node14&#45;&gt;Node15</title>
<path fill="none" stroke="midnightblue" d="M318.435,-197.131C296.19,-186.802 268.853,-174.11 248.319,-164.577"/>
<polygon fill="midnightblue" stroke="midnightblue" points="317.078,-200.359 327.622,-201.396 320.026,-194.01 317.078,-200.359"/>
</g>
<!-- Node16&#45;&gt;Node11 -->
<g id="edge21" class="edge"><title>Node16&#45;&gt;Node11</title>
<path fill="none" stroke="midnightblue" d="M485.954,-197.955C457.281,-187.485 421.355,-174.366 394.548,-164.577"/>
<polygon fill="midnightblue" stroke="midnightblue" points="484.783,-201.253 495.377,-201.396 487.184,-194.678 484.783,-201.253"/>
</g>
<!-- Node17 -->
<g id="node17" class="node"><title>Node17</title>
<g id="a_node17"><a xlink:href="rsq_8c.html" target="_top" xlink:title="D:/GIT/fhradiov2/system\l/src/rsq.c">
<polygon fill="white" stroke="black" points="434,-134.5 434,-164.5 554,-164.5 554,-134.5 434,-134.5"/>
<text text-anchor="start" x="442" y="-152.5" font-family="Helvetica,sans-Serif" font-size="10.00">D:/GIT/fhradiov2/system</text>
<text text-anchor="middle" x="494" y="-141.5" font-family="Helvetica,sans-Serif" font-size="10.00">/src/rsq.c</text>
</a>
</g>
</g>
<!-- Node16&#45;&gt;Node17 -->
<g id="edge22" class="edge"><title>Node16&#45;&gt;Node17</title>
<path fill="none" stroke="midnightblue" d="M520.072,-192.867C514.283,-183.459 507.744,-172.833 502.662,-164.577"/>
<polygon fill="midnightblue" stroke="midnightblue" points="517.099,-194.714 525.321,-201.396 523.06,-191.045 517.099,-194.714"/>
</g>
<!-- Node18&#45;&gt;Node5 -->
<g id="edge24" class="edge"><title>Node18&#45;&gt;Node5</title>
<path fill="none" stroke="midnightblue" d="M904.216,-174.731C902.243,-193.012 894.482,-217.364 878,-232 835.428,-269.804 768.78,-280.206 721.699,-282.615"/>
<polygon fill="midnightblue" stroke="midnightblue" points="907.723,-174.694 904.728,-164.531 900.731,-174.343 907.723,-174.694"/>
</g>
<!-- Node18&#45;&gt;Node8 -->
<g id="edge25" class="edge"><title>Node18&#45;&gt;Node8</title>
<path fill="none" stroke="midnightblue" d="M929.497,-128.734C944.507,-118.676 962.401,-106.685 975.994,-97.5765"/>
<polygon fill="midnightblue" stroke="midnightblue" points="927.406,-125.922 921.048,-134.396 931.303,-131.737 927.406,-125.922"/>
</g>
<!-- Node19 -->
<g id="node19" class="node"><title>Node19</title>
<g id="a_node19"><a xlink:href="station__list_8c.html" target="_top" xlink:title="D:/GIT/fhradiov2/system\l/src/station_list.c">
<polygon fill="white" stroke="black" points="804,-67.5 804,-97.5 924,-97.5 924,-67.5 804,-67.5"/>
<text text-anchor="start" x="812" y="-85.5" font-family="Helvetica,sans-Serif" font-size="10.00">D:/GIT/fhradiov2/system</text>
<text text-anchor="middle" x="864" y="-74.5" font-family="Helvetica,sans-Serif" font-size="10.00">/src/station_list.c</text>
</a>
</g>
</g>
<!-- Node18&#45;&gt;Node19 -->
<g id="edge26" class="edge"><title>Node18&#45;&gt;Node19</title>
<path fill="none" stroke="midnightblue" d="M887.303,-125.576C882.133,-116.241 876.322,-105.748 871.796,-97.5765"/>
<polygon fill="midnightblue" stroke="midnightblue" points="884.282,-127.344 892.189,-134.396 890.405,-123.952 884.282,-127.344"/>
</g>
<!-- Node20&#45;&gt;Node18 -->
<g id="edge29" class="edge"><title>Node20&#45;&gt;Node18</title>
<path fill="none" stroke="midnightblue" d="M830.41,-195.734C845.884,-185.676 864.331,-173.685 878.344,-164.577"/>
<polygon fill="midnightblue" stroke="midnightblue" points="828.175,-193.011 821.699,-201.396 831.99,-198.881 828.175,-193.011"/>
</g>
<!-- Node21 -->
<g id="node21" class="node"><title>Node21</title>
<g id="a_node21"><a xlink:href="station__list__struct_8c.html" target="_top" xlink:title="D:/GIT/fhradiov2/system\l/src/station_list_struct.c">
<polygon fill="white" stroke="black" points="700,-134.5 700,-164.5 822,-164.5 822,-134.5 700,-134.5"/>
<text text-anchor="start" x="708" y="-152.5" font-family="Helvetica,sans-Serif" font-size="10.00">D:/GIT/fhradiov2/system</text>
<text text-anchor="middle" x="761" y="-141.5" font-family="Helvetica,sans-Serif" font-size="10.00">/src/station_list_struct.c</text>
</a>
</g>
</g>
<!-- Node20&#45;&gt;Node21 -->
<g id="edge28" class="edge"><title>Node20&#45;&gt;Node21</title>
<path fill="none" stroke="midnightblue" d="M786.245,-192.576C780.644,-183.241 774.349,-172.748 769.446,-164.577"/>
<polygon fill="midnightblue" stroke="midnightblue" points="783.391,-194.622 791.538,-201.396 789.394,-191.02 783.391,-194.622"/>
</g>
</g>
</svg>
