<?xml version="1.0" encoding="UTF-8" standalone="no"?>
<!DOCTYPE svg PUBLIC "-//W3C//DTD SVG 1.1//EN"
 "http://www.w3.org/Graphics/SVG/1.1/DTD/svg11.dtd">
<!-- Generated by graphviz version 2.38.0 (20140413.2041)
 -->
<!-- Title: menu/menu_struct.h Pages: 1 -->
<svg width="252pt" height="140pt"
 viewBox="0.00 0.00 252.00 140.00" xmlns="http://www.w3.org/2000/svg" xmlns:xlink="http://www.w3.org/1999/xlink">
<g id="graph0" class="graph" transform="scale(1 1) rotate(0) translate(4 136)">
<title>menu/menu_struct.h</title>
<polygon fill="white" stroke="none" points="-4,4 -4,-136 248,-136 248,4 -4,4"/>
<!-- Node1 -->
<g id="node1" class="node"><title>Node1</title>
<polygon fill="#bfbfbf" stroke="black" points="13,-112.5 13,-131.5 119,-131.5 119,-112.5 13,-112.5"/>
<text text-anchor="middle" x="66" y="-119.5" font-family="Helvetica,sans-Serif" font-size="10.00">menu/menu_struct.h</text>
</g>
<!-- Node2 -->
<g id="node2" class="node"><title>Node2</title>
<g id="a_node2"><a xlink:href="menu_2menu_8h.html" target="_top" xlink:title="menu/menu.h">
<polygon fill="white" stroke="black" points="28,-56.5 28,-75.5 104,-75.5 104,-56.5 28,-56.5"/>
<text text-anchor="middle" x="66" y="-63.5" font-family="Helvetica,sans-Serif" font-size="10.00">menu/menu.h</text>
</a>
</g>
</g>
<!-- Node1&#45;&gt;Node2 -->
<g id="edge1" class="edge"><title>Node1&#45;&gt;Node2</title>
<path fill="none" stroke="midnightblue" d="M59.5276,-102.101C58.8956,-93.1357 59.3427,-82.8579 60.869,-75.7511"/>
<polygon fill="midnightblue" stroke="midnightblue" points="56.0658,-102.622 60.8337,-112.083 63.0067,-101.713 56.0658,-102.622"/>
</g>
<!-- Node5 -->
<g id="node5" class="node"><title>Node5</title>
<g id="a_node5"><a xlink:href="menu__struct_8c.html" target="_top" xlink:title="menu/src/menu_struct.c">
<polygon fill="white" stroke="black" points="122,-56.5 122,-75.5 244,-75.5 244,-56.5 122,-56.5"/>
<text text-anchor="middle" x="183" y="-63.5" font-family="Helvetica,sans-Serif" font-size="10.00">menu/src/menu_struct.c</text>
</a>
</g>
</g>
<!-- Node1&#45;&gt;Node5 -->
<g id="edge5" class="edge"><title>Node1&#45;&gt;Node5</title>
<path fill="none" stroke="midnightblue" d="M93.6638,-108.232C115.549,-98.1312 145.497,-84.3091 164.548,-75.5164"/>
<polygon fill="midnightblue" stroke="midnightblue" points="92.1519,-105.075 84.539,-112.444 95.0853,-111.431 92.1519,-105.075"/>
</g>
<!-- Node2&#45;&gt;Node1 -->
<g id="edge3" class="edge"><title>Node2&#45;&gt;Node1</title>
<path fill="none" stroke="midnightblue" d="M72.4575,-85.6911C73.1062,-94.6353 72.6758,-104.927 71.1663,-112.083"/>
<polygon fill="midnightblue" stroke="midnightblue" points="75.9231,-85.2002 71.131,-75.7511 68.9846,-86.1262 75.9231,-85.2002"/>
</g>
<!-- Node3 -->
<g id="node3" class="node"><title>Node3</title>
<g id="a_node3"><a xlink:href="main_8c.html" target="_top" xlink:title="main.c">
<polygon fill="white" stroke="black" points="0,-0.5 0,-19.5 46,-19.5 46,-0.5 0,-0.5"/>
<text text-anchor="middle" x="23" y="-7.5" font-family="Helvetica,sans-Serif" font-size="10.00">main.c</text>
</a>
</g>
</g>
<!-- Node2&#45;&gt;Node3 -->
<g id="edge2" class="edge"><title>Node2&#45;&gt;Node3</title>
<path fill="none" stroke="midnightblue" d="M52.5776,-48.144C45.0858,-38.7357 36.0629,-27.4046 29.9685,-19.7511"/>
<polygon fill="midnightblue" stroke="midnightblue" points="49.9321,-50.4404 58.8994,-56.083 55.4081,-46.0799 49.9321,-50.4404"/>
</g>
<!-- Node4 -->
<g id="node4" class="node"><title>Node4</title>
<g id="a_node4"><a xlink:href="menu_2src_2menu_8c.html" target="_top" xlink:title="menu/src/menu.c">
<polygon fill="white" stroke="black" points="64,-0.5 64,-19.5 156,-19.5 156,-0.5 64,-0.5"/>
<text text-anchor="middle" x="110" y="-7.5" font-family="Helvetica,sans-Serif" font-size="10.00">menu/src/menu.c</text>
</a>
</g>
</g>
<!-- Node2&#45;&gt;Node4 -->
<g id="edge4" class="edge"><title>Node2&#45;&gt;Node4</title>
<path fill="none" stroke="midnightblue" d="M79.7345,-48.144C87.4005,-38.7357 96.6333,-27.4046 102.869,-19.7511"/>
<polygon fill="midnightblue" stroke="midnightblue" points="76.8691,-46.1198 73.2657,-56.083 82.2958,-50.5415 76.8691,-46.1198"/>
</g>
</g>
</svg>
