<?xml version="1.0" encoding="UTF-8" standalone="no"?>
<!DOCTYPE svg PUBLIC "-//W3C//DTD SVG 1.1//EN"
 "http://www.w3.org/Graphics/SVG/1.1/DTD/svg11.dtd">
<!-- Generated by graphviz version 2.38.0 (20140413.2041)
 -->
<!-- Title: D:/GIT/fhradiov2/menu/menu.h Pages: 1 -->
<svg width="1054pt" height="307pt"
 viewBox="0.00 0.00 1054.00 307.00" xmlns="http://www.w3.org/2000/svg" xmlns:xlink="http://www.w3.org/1999/xlink">
<g id="graph0" class="graph" transform="scale(1 1) rotate(0) translate(4 303)">
<title>D:/GIT/fhradiov2/menu/menu.h</title>
<polygon fill="white" stroke="none" points="-4,4 -4,-303 1050,-303 1050,4 -4,4"/>
<!-- Node1 -->
<g id="node1" class="node"><title>Node1</title>
<polygon fill="#bfbfbf" stroke="black" points="762,-268.5 762,-298.5 874,-298.5 874,-268.5 762,-268.5"/>
<text text-anchor="start" x="770" y="-286.5" font-family="Helvetica,sans-Serif" font-size="10.00">D:/GIT/fhradiov2/menu</text>
<text text-anchor="middle" x="818" y="-275.5" font-family="Helvetica,sans-Serif" font-size="10.00">/menu.h</text>
</g>
<!-- Node2 -->
<g id="node2" class="node"><title>Node2</title>
<g id="a_node2"><a xlink:href="main_8c.html" target="_top" xlink:title="D:/GIT/fhradiov2/main.c">
<polygon fill="white" stroke="black" points="590.5,-73 590.5,-92 707.5,-92 707.5,-73 590.5,-73"/>
<text text-anchor="middle" x="649" y="-80" font-family="Helvetica,sans-Serif" font-size="10.00">D:/GIT/fhradiov2/main.c</text>
</a>
</g>
</g>
<!-- Node1&#45;&gt;Node2 -->
<g id="edge1" class="edge"><title>Node1&#45;&gt;Node2</title>
<path fill="none" stroke="midnightblue" d="M807.025,-259.146C803.121,-250.647 798.763,-240.934 795,-232 776.867,-188.948 788.9,-168.128 757,-134 737.071,-112.679 706.332,-99.5245 682.737,-92.0088"/>
<polygon fill="midnightblue" stroke="midnightblue" points="803.956,-260.846 811.337,-268.447 810.306,-257.902 803.956,-260.846"/>
</g>
<!-- Node3 -->
<g id="node3" class="node"><title>Node3</title>
<g id="a_node3"><a xlink:href="menu__struct_8h.html" target="_top" xlink:title="D:/GIT/fhradiov2/menu\l/menu_struct.h">
<polygon fill="white" stroke="black" points="804,-201.5 804,-231.5 916,-231.5 916,-201.5 804,-201.5"/>
<text text-anchor="start" x="812" y="-219.5" font-family="Helvetica,sans-Serif" font-size="10.00">D:/GIT/fhradiov2/menu</text>
<text text-anchor="middle" x="860" y="-208.5" font-family="Helvetica,sans-Serif" font-size="10.00">/menu_struct.h</text>
</a>
</g>
</g>
<!-- Node1&#45;&gt;Node3 -->
<g id="edge2" class="edge"><title>Node1&#45;&gt;Node3</title>
<path fill="none" stroke="midnightblue" d="M826.33,-259.576C831.826,-250.241 838.875,-239.748 845.23,-231.577"/>
<polygon fill="midnightblue" stroke="midnightblue" points="823.227,-257.954 821.435,-268.396 829.348,-261.351 823.227,-257.954"/>
</g>
<!-- Node5 -->
<g id="node5" class="node"><title>Node5</title>
<g id="a_node5"><a xlink:href="menu_8c.html" target="_top" xlink:title="D:/GIT/fhradiov2/menu\l/src/menu.c">
<polygon fill="white" stroke="black" points="934,-201.5 934,-231.5 1046,-231.5 1046,-201.5 934,-201.5"/>
<text text-anchor="start" x="942" y="-219.5" font-family="Helvetica,sans-Serif" font-size="10.00">D:/GIT/fhradiov2/menu</text>
<text text-anchor="middle" x="990" y="-208.5" font-family="Helvetica,sans-Serif" font-size="10.00">/src/menu.c</text>
</a>
</g>
</g>
<!-- Node1&#45;&gt;Node5 -->
<g id="edge5" class="edge"><title>Node1&#45;&gt;Node5</title>
<path fill="none" stroke="midnightblue" d="M864.788,-264.819C892.435,-254.371 926.96,-241.323 952.751,-231.577"/>
<polygon fill="midnightblue" stroke="midnightblue" points="863.438,-261.587 855.321,-268.396 865.913,-268.135 863.438,-261.587"/>
</g>
<!-- Node6 -->
<g id="node6" class="node"><title>Node6</title>
<g id="a_node6"><a xlink:href="radio_8h.html" target="_top" xlink:title="D:/GIT/fhradiov2/system\l/radio.h">
<polygon fill="white" stroke="black" points="408,-201.5 408,-231.5 528,-231.5 528,-201.5 408,-201.5"/>
<text text-anchor="start" x="416" y="-219.5" font-family="Helvetica,sans-Serif" font-size="10.00">D:/GIT/fhradiov2/system</text>
<text text-anchor="middle" x="468" y="-208.5" font-family="Helvetica,sans-Serif" font-size="10.00">/radio.h</text>
</a>
</g>
</g>
<!-- Node1&#45;&gt;Node6 -->
<g id="edge6" class="edge"><title>Node1&#45;&gt;Node6</title>
<path fill="none" stroke="midnightblue" d="M751.733,-271.172C687.265,-259.558 590.296,-241.557 528.033,-229.652"/>
<polygon fill="midnightblue" stroke="midnightblue" points="751.329,-274.655 761.79,-272.979 752.567,-267.765 751.329,-274.655"/>
</g>
<!-- Node3&#45;&gt;Node1 -->
<g id="edge3" class="edge"><title>Node3&#45;&gt;Node1</title>
<path fill="none" stroke="midnightblue" d="M851.688,-240.393C846.196,-249.725 839.148,-260.219 832.792,-268.396"/>
<polygon fill="midnightblue" stroke="midnightblue" points="854.789,-242.019 856.579,-231.577 848.668,-238.623 854.789,-242.019"/>
</g>
<!-- Node4 -->
<g id="node4" class="node"><title>Node4</title>
<g id="a_node4"><a xlink:href="menu__struct_8c.html" target="_top" xlink:title="D:/GIT/fhradiov2/menu\l/src/menu_struct.c">
<polygon fill="white" stroke="black" points="804,-134.5 804,-164.5 916,-164.5 916,-134.5 804,-134.5"/>
<text text-anchor="start" x="812" y="-152.5" font-family="Helvetica,sans-Serif" font-size="10.00">D:/GIT/fhradiov2/menu</text>
<text text-anchor="middle" x="860" y="-141.5" font-family="Helvetica,sans-Serif" font-size="10.00">/src/menu_struct.c</text>
</a>
</g>
</g>
<!-- Node3&#45;&gt;Node4 -->
<g id="edge4" class="edge"><title>Node3&#45;&gt;Node4</title>
<path fill="none" stroke="midnightblue" d="M860,-191.108C860,-182.154 860,-172.323 860,-164.577"/>
<polygon fill="midnightblue" stroke="midnightblue" points="856.5,-191.396 860,-201.396 863.5,-191.396 856.5,-191.396"/>
</g>
<!-- Node6&#45;&gt;Node1 -->
<g id="edge8" class="edge"><title>Node6&#45;&gt;Node1</title>
<path fill="none" stroke="midnightblue" d="M537.906,-229.485C603.743,-241.365 700.999,-259.433 761.913,-271.103"/>
<polygon fill="midnightblue" stroke="midnightblue" points="538.486,-226.033 528.024,-227.706 537.246,-232.922 538.486,-226.033"/>
</g>
<!-- Node6&#45;&gt;Node2 -->
<g id="edge7" class="edge"><title>Node6&#45;&gt;Node2</title>
<path fill="none" stroke="midnightblue" d="M520.604,-197.804C540.631,-189.625 562.954,-178.658 581,-165 609.212,-143.648 633.356,-108.48 643.665,-92.2309"/>
<polygon fill="midnightblue" stroke="midnightblue" points="519.305,-194.554 511.288,-201.48 521.875,-201.065 519.305,-194.554"/>
</g>
<!-- Node7 -->
<g id="node7" class="node"><title>Node7</title>
<g id="a_node7"><a xlink:href="radio__display_8h.html" target="_top" xlink:title="D:/GIT/fhradiov2/system\l/radio_display.h">
<polygon fill="white" stroke="black" points="0,-134.5 0,-164.5 120,-164.5 120,-134.5 0,-134.5"/>
<text text-anchor="start" x="8" y="-152.5" font-family="Helvetica,sans-Serif" font-size="10.00">D:/GIT/fhradiov2/system</text>
<text text-anchor="middle" x="60" y="-141.5" font-family="Helvetica,sans-Serif" font-size="10.00">/radio_display.h</text>
</a>
</g>
</g>
<!-- Node6&#45;&gt;Node7 -->
<g id="edge9" class="edge"><title>Node6&#45;&gt;Node7</title>
<path fill="none" stroke="midnightblue" d="M397.698,-207.167C327.101,-197.96 215.597,-182.15 120,-165 119.157,-164.849 118.308,-164.695 117.455,-164.539"/>
<polygon fill="midnightblue" stroke="midnightblue" points="397.444,-210.663 407.811,-208.477 398.343,-203.721 397.444,-210.663"/>
</g>
<!-- Node9 -->
<g id="node9" class="node"><title>Node9</title>
<g id="a_node9"><a xlink:href="rds_8h.html" target="_top" xlink:title="D:/GIT/fhradiov2/system\l/rds.h">
<polygon fill="white" stroke="black" points="452,-134.5 452,-164.5 572,-164.5 572,-134.5 452,-134.5"/>
<text text-anchor="start" x="460" y="-152.5" font-family="Helvetica,sans-Serif" font-size="10.00">D:/GIT/fhradiov2/system</text>
<text text-anchor="middle" x="512" y="-141.5" font-family="Helvetica,sans-Serif" font-size="10.00">/rds.h</text>
</a>
</g>
</g>
<!-- Node6&#45;&gt;Node9 -->
<g id="edge12" class="edge"><title>Node6&#45;&gt;Node9</title>
<path fill="none" stroke="midnightblue" d="M483.321,-192.867C489.689,-183.459 496.882,-172.833 502.471,-164.577"/>
<polygon fill="midnightblue" stroke="midnightblue" points="480.255,-191.153 477.547,-201.396 486.051,-195.077 480.255,-191.153"/>
</g>
<!-- Node11 -->
<g id="node11" class="node"><title>Node11</title>
<g id="a_node11"><a xlink:href="rsq_8h.html" target="_top" xlink:title="D:/GIT/fhradiov2/system\l/rsq.h">
<polygon fill="white" stroke="black" points="628,-134.5 628,-164.5 748,-164.5 748,-134.5 628,-134.5"/>
<text text-anchor="start" x="636" y="-152.5" font-family="Helvetica,sans-Serif" font-size="10.00">D:/GIT/fhradiov2/system</text>
<text text-anchor="middle" x="688" y="-141.5" font-family="Helvetica,sans-Serif" font-size="10.00">/rsq.h</text>
</a>
</g>
</g>
<!-- Node6&#45;&gt;Node11 -->
<g id="edge15" class="edge"><title>Node6&#45;&gt;Node11</title>
<path fill="none" stroke="midnightblue" d="M525.269,-198.58C561.001,-188.022 606.457,-174.592 640.24,-164.611"/>
<polygon fill="midnightblue" stroke="midnightblue" points="524.064,-195.286 515.466,-201.476 526.048,-201.999 524.064,-195.286"/>
</g>
<!-- Node13 -->
<g id="node13" class="node"><title>Node13</title>
<g id="a_node13"><a xlink:href="radio_8c.html" target="_top" xlink:title="D:/GIT/fhradiov2/system\l/src/radio.c">
<polygon fill="white" stroke="black" points="138,-134.5 138,-164.5 258,-164.5 258,-134.5 138,-134.5"/>
<text text-anchor="start" x="146" y="-152.5" font-family="Helvetica,sans-Serif" font-size="10.00">D:/GIT/fhradiov2/system</text>
<text text-anchor="middle" x="198" y="-141.5" font-family="Helvetica,sans-Serif" font-size="10.00">/src/radio.c</text>
</a>
</g>
</g>
<!-- Node6&#45;&gt;Node13 -->
<g id="edge18" class="edge"><title>Node6&#45;&gt;Node13</title>
<path fill="none" stroke="midnightblue" d="M399.954,-199.119C355.774,-188.483 298.784,-174.763 256.615,-164.611"/>
<polygon fill="midnightblue" stroke="midnightblue" points="399.205,-202.538 409.746,-201.476 400.843,-195.733 399.205,-202.538"/>
</g>
<!-- Node14 -->
<g id="node14" class="node"><title>Node14</title>
<g id="a_node14"><a xlink:href="station__list__struct_8h.html" target="_top" xlink:title="D:/GIT/fhradiov2/system\l/station_list_struct.h">
<polygon fill="white" stroke="black" points="276,-134.5 276,-164.5 396,-164.5 396,-134.5 276,-134.5"/>
<text text-anchor="start" x="284" y="-152.5" font-family="Helvetica,sans-Serif" font-size="10.00">D:/GIT/fhradiov2/system</text>
<text text-anchor="middle" x="336" y="-141.5" font-family="Helvetica,sans-Serif" font-size="10.00">/station_list_struct.h</text>
</a>
</g>
</g>
<!-- Node6&#45;&gt;Node14 -->
<g id="edge19" class="edge"><title>Node6&#45;&gt;Node14</title>
<path fill="none" stroke="midnightblue" d="M430.133,-196.853C409.262,-186.576 383.774,-174.025 364.586,-164.577"/>
<polygon fill="midnightblue" stroke="midnightblue" points="428.84,-200.118 439.358,-201.396 431.933,-193.838 428.84,-200.118"/>
</g>
<!-- Node7&#45;&gt;Node6 -->
<g id="edge10" class="edge"><title>Node7&#45;&gt;Node6</title>
<path fill="none" stroke="midnightblue" d="M130.002,-163.523C132.706,-164.035 135.379,-164.53 138,-165 232.003,-181.863 341.386,-197.432 407.696,-206.7"/>
<polygon fill="midnightblue" stroke="midnightblue" points="130.603,-160.074 120.119,-161.607 129.271,-166.946 130.603,-160.074"/>
</g>
<!-- Node8 -->
<g id="node8" class="node"><title>Node8</title>
<g id="a_node8"><a xlink:href="radio__display_8c.html" target="_top" xlink:title="D:/GIT/fhradiov2/system\l/src/radio_display.c">
<polygon fill="white" stroke="black" points="0,-67.5 0,-97.5 120,-97.5 120,-67.5 0,-67.5"/>
<text text-anchor="start" x="8" y="-85.5" font-family="Helvetica,sans-Serif" font-size="10.00">D:/GIT/fhradiov2/system</text>
<text text-anchor="middle" x="60" y="-74.5" font-family="Helvetica,sans-Serif" font-size="10.00">/src/radio_display.c</text>
</a>
</g>
</g>
<!-- Node7&#45;&gt;Node8 -->
<g id="edge11" class="edge"><title>Node7&#45;&gt;Node8</title>
<path fill="none" stroke="midnightblue" d="M60,-124.108C60,-115.154 60,-105.323 60,-97.5765"/>
<polygon fill="midnightblue" stroke="midnightblue" points="56.5001,-124.396 60,-134.396 63.5001,-124.396 56.5001,-124.396"/>
</g>
<!-- Node9&#45;&gt;Node2 -->
<g id="edge13" class="edge"><title>Node9&#45;&gt;Node2</title>
<path fill="none" stroke="midnightblue" d="M551.061,-129.967C577.378,-117.481 610.855,-101.598 631.07,-92.007"/>
<polygon fill="midnightblue" stroke="midnightblue" points="549.261,-126.947 541.727,-134.396 552.262,-133.272 549.261,-126.947"/>
</g>
<!-- Node10 -->
<g id="node10" class="node"><title>Node10</title>
<g id="a_node10"><a xlink:href="rds_8c.html" target="_top" xlink:title="D:/GIT/fhradiov2/system\l/src/rds.c">
<polygon fill="white" stroke="black" points="452,-67.5 452,-97.5 572,-97.5 572,-67.5 452,-67.5"/>
<text text-anchor="start" x="460" y="-85.5" font-family="Helvetica,sans-Serif" font-size="10.00">D:/GIT/fhradiov2/system</text>
<text text-anchor="middle" x="512" y="-74.5" font-family="Helvetica,sans-Serif" font-size="10.00">/src/rds.c</text>
</a>
</g>
</g>
<!-- Node9&#45;&gt;Node10 -->
<g id="edge14" class="edge"><title>Node9&#45;&gt;Node10</title>
<path fill="none" stroke="midnightblue" d="M512,-124.108C512,-115.154 512,-105.323 512,-97.5765"/>
<polygon fill="midnightblue" stroke="midnightblue" points="508.5,-124.396 512,-134.396 515.5,-124.396 508.5,-124.396"/>
</g>
<!-- Node11&#45;&gt;Node2 -->
<g id="edge16" class="edge"><title>Node11&#45;&gt;Node2</title>
<path fill="none" stroke="midnightblue" d="M674.279,-125.632C667.34,-114.067 659.328,-100.714 654.217,-92.1945"/>
<polygon fill="midnightblue" stroke="midnightblue" points="671.391,-127.622 679.538,-134.396 677.394,-124.02 671.391,-127.622"/>
</g>
<!-- Node12 -->
<g id="node12" class="node"><title>Node12</title>
<g id="a_node12"><a xlink:href="rsq_8c.html" target="_top" xlink:title="D:/GIT/fhradiov2/system\l/src/rsq.c">
<polygon fill="white" stroke="black" points="726,-67.5 726,-97.5 846,-97.5 846,-67.5 726,-67.5"/>
<text text-anchor="start" x="734" y="-85.5" font-family="Helvetica,sans-Serif" font-size="10.00">D:/GIT/fhradiov2/system</text>
<text text-anchor="middle" x="786" y="-74.5" font-family="Helvetica,sans-Serif" font-size="10.00">/src/rsq.c</text>
</a>
</g>
</g>
<!-- Node11&#45;&gt;Node12 -->
<g id="edge17" class="edge"><title>Node11&#45;&gt;Node12</title>
<path fill="none" stroke="midnightblue" d="M717.802,-128.734C732.966,-118.676 751.045,-106.685 764.777,-97.5765"/>
<polygon fill="midnightblue" stroke="midnightblue" points="715.664,-125.952 709.265,-134.396 719.533,-131.785 715.664,-125.952"/>
</g>
<!-- Node15 -->
<g id="node15" class="node"><title>Node15</title>
<g id="a_node15"><a xlink:href="station__list__struct_8c.html" target="_top" xlink:title="D:/GIT/fhradiov2/system\l/src/station_list_struct.c">
<polygon fill="white" stroke="black" points="174,-67.5 174,-97.5 296,-97.5 296,-67.5 174,-67.5"/>
<text text-anchor="start" x="182" y="-85.5" font-family="Helvetica,sans-Serif" font-size="10.00">D:/GIT/fhradiov2/system</text>
<text text-anchor="middle" x="235" y="-74.5" font-family="Helvetica,sans-Serif" font-size="10.00">/src/station_list_struct.c</text>
</a>
</g>
</g>
<!-- Node14&#45;&gt;Node15 -->
<g id="edge20" class="edge"><title>Node14&#45;&gt;Node15</title>
<path fill="none" stroke="midnightblue" d="M305.286,-128.734C289.657,-118.676 271.025,-106.685 256.873,-97.5765"/>
<polygon fill="midnightblue" stroke="midnightblue" points="303.781,-131.927 314.085,-134.396 307.57,-126.041 303.781,-131.927"/>
</g>
<!-- Node16 -->
<g id="node16" class="node"><title>Node16</title>
<g id="a_node16"><a xlink:href="station__list_8h.html" target="_top" xlink:title="D:/GIT/fhradiov2/system\l/station_list.h">
<polygon fill="white" stroke="black" points="314,-67.5 314,-97.5 434,-97.5 434,-67.5 314,-67.5"/>
<text text-anchor="start" x="322" y="-85.5" font-family="Helvetica,sans-Serif" font-size="10.00">D:/GIT/fhradiov2/system</text>
<text text-anchor="middle" x="374" y="-74.5" font-family="Helvetica,sans-Serif" font-size="10.00">/station_list.h</text>
</a>
</g>
</g>
<!-- Node14&#45;&gt;Node16 -->
<g id="edge21" class="edge"><title>Node14&#45;&gt;Node16</title>
<path fill="none" stroke="midnightblue" d="M349.402,-125.576C354.859,-116.241 360.993,-105.748 365.771,-97.5765"/>
<polygon fill="midnightblue" stroke="midnightblue" points="346.271,-123.997 344.245,-134.396 352.314,-127.529 346.271,-123.997"/>
</g>
<!-- Node16&#45;&gt;Node6 -->
<g id="edge22" class="edge"><title>Node16&#45;&gt;Node6</title>
<path fill="none" stroke="midnightblue" d="M389.802,-105.689C409.226,-132.966 441.615,-178.448 457.94,-201.374"/>
<polygon fill="midnightblue" stroke="midnightblue" points="392.639,-103.64 383.987,-97.5247 386.937,-107.701 392.639,-103.64"/>
</g>
<!-- Node17 -->
<g id="node17" class="node"><title>Node17</title>
<g id="a_node17"><a xlink:href="station__list_8c.html" target="_top" xlink:title="D:/GIT/fhradiov2/system\l/src/station_list.c">
<polygon fill="white" stroke="black" points="314,-0.5 314,-30.5 434,-30.5 434,-0.5 314,-0.5"/>
<text text-anchor="start" x="322" y="-18.5" font-family="Helvetica,sans-Serif" font-size="10.00">D:/GIT/fhradiov2/system</text>
<text text-anchor="middle" x="374" y="-7.5" font-family="Helvetica,sans-Serif" font-size="10.00">/src/station_list.c</text>
</a>
</g>
</g>
<!-- Node16&#45;&gt;Node17 -->
<g id="edge23" class="edge"><title>Node16&#45;&gt;Node17</title>
<path fill="none" stroke="midnightblue" d="M374,-57.1081C374,-48.1539 374,-38.3227 374,-30.5765"/>
<polygon fill="midnightblue" stroke="midnightblue" points="370.5,-57.3959 374,-67.396 377.5,-57.396 370.5,-57.3959"/>
</g>
</g>
</svg>
