<?xml version="1.0" encoding="UTF-8" standalone="no"?>
<!DOCTYPE svg PUBLIC "-//W3C//DTD SVG 1.1//EN"
 "http://www.w3.org/Graphics/SVG/1.1/DTD/svg11.dtd">
<!-- Generated by graphviz version 2.38.0 (20140413.2041)
 -->
<!-- Title: menu/src/menu_struct.c Pages: 1 -->
<svg width="449pt" height="554pt"
 viewBox="0.00 0.00 448.50 554.00" xmlns="http://www.w3.org/2000/svg" xmlns:xlink="http://www.w3.org/1999/xlink">
<g id="graph0" class="graph" transform="scale(1 1) rotate(0) translate(4 550)">
<title>menu/src/menu_struct.c</title>
<polygon fill="white" stroke="none" points="-4,4 -4,-550 444.5,-550 444.5,4 -4,4"/>
<!-- Node1 -->
<g id="node1" class="node"><title>Node1</title>
<polygon fill="#bfbfbf" stroke="black" points="115,-526.5 115,-545.5 237,-545.5 237,-526.5 115,-526.5"/>
<text text-anchor="middle" x="176" y="-533.5" font-family="Helvetica,sans-Serif" font-size="10.00">menu/src/menu_struct.c</text>
</g>
<!-- Node2 -->
<g id="node2" class="node"><title>Node2</title>
<g id="a_node2"><a xlink:href="menu__struct_8h.html" target="_top" xlink:title="menu/menu_struct.h">
<polygon fill="white" stroke="black" points="123,-470.5 123,-489.5 229,-489.5 229,-470.5 123,-470.5"/>
<text text-anchor="middle" x="176" y="-477.5" font-family="Helvetica,sans-Serif" font-size="10.00">menu/menu_struct.h</text>
</a>
</g>
</g>
<!-- Node1&#45;&gt;Node2 -->
<g id="edge1" class="edge"><title>Node1&#45;&gt;Node2</title>
<path fill="none" stroke="midnightblue" d="M176,-526.083C176,-519.006 176,-508.861 176,-499.986"/>
<polygon fill="midnightblue" stroke="midnightblue" points="179.5,-499.751 176,-489.751 172.5,-499.751 179.5,-499.751"/>
</g>
<!-- Node3 -->
<g id="node3" class="node"><title>Node3</title>
<g id="a_node3"><a xlink:href="menu_2menu_8h.html" target="_top" xlink:title="menu.h">
<polygon fill="white" stroke="black" points="151.5,-414.5 151.5,-433.5 200.5,-433.5 200.5,-414.5 151.5,-414.5"/>
<text text-anchor="middle" x="176" y="-421.5" font-family="Helvetica,sans-Serif" font-size="10.00">menu.h</text>
</a>
</g>
</g>
<!-- Node2&#45;&gt;Node3 -->
<g id="edge2" class="edge"><title>Node2&#45;&gt;Node3</title>
<path fill="none" stroke="midnightblue" d="M170.834,-470.083C169.324,-462.927 168.894,-452.635 169.542,-443.691"/>
<polygon fill="midnightblue" stroke="midnightblue" points="173.015,-444.126 170.869,-433.751 166.077,-443.2 173.015,-444.126"/>
</g>
<!-- Node3&#45;&gt;Node2 -->
<g id="edge23" class="edge"><title>Node3&#45;&gt;Node2</title>
<path fill="none" stroke="midnightblue" d="M181.131,-433.751C182.657,-440.858 183.104,-451.136 182.472,-460.101"/>
<polygon fill="midnightblue" stroke="midnightblue" points="178.993,-459.713 181.166,-470.083 185.934,-460.622 178.993,-459.713"/>
</g>
<!-- Node4 -->
<g id="node4" class="node"><title>Node4</title>
<polygon fill="white" stroke="#bfbfbf" points="70.5,-0.5 70.5,-19.5 119.5,-19.5 119.5,-0.5 70.5,-0.5"/>
<text text-anchor="middle" x="95" y="-7.5" font-family="Helvetica,sans-Serif" font-size="10.00">stdint.h</text>
</g>
<!-- Node3&#45;&gt;Node4 -->
<g id="edge3" class="edge"><title>Node3&#45;&gt;Node4</title>
<path fill="none" stroke="midnightblue" d="M151.157,-418.668C102.642,-408.631 0,-378.951 0,-307.5 0,-307.5 0,-307.5 0,-132 0,-85.2465 44.4213,-45.8551 72.5127,-25.6189"/>
<polygon fill="midnightblue" stroke="midnightblue" points="74.7654,-28.3157 80.9824,-19.7367 70.7724,-22.5662 74.7654,-28.3157"/>
</g>
<!-- Node5 -->
<g id="node5" class="node"><title>Node5</title>
<g id="a_node5"><a xlink:href="lcd_8h.html" target="_top" xlink:title="driver/lcd.h">
<polygon fill="white" stroke="black" points="144.5,-358.5 144.5,-377.5 207.5,-377.5 207.5,-358.5 144.5,-358.5"/>
<text text-anchor="middle" x="176" y="-365.5" font-family="Helvetica,sans-Serif" font-size="10.00">driver/lcd.h</text>
</a>
</g>
</g>
<!-- Node3&#45;&gt;Node5 -->
<g id="edge4" class="edge"><title>Node3&#45;&gt;Node5</title>
<path fill="none" stroke="midnightblue" d="M176,-414.083C176,-407.006 176,-396.861 176,-387.986"/>
<polygon fill="midnightblue" stroke="midnightblue" points="179.5,-387.751 176,-377.751 172.5,-387.751 179.5,-387.751"/>
</g>
<!-- Node16 -->
<g id="node16" class="node"><title>Node16</title>
<g id="a_node16"><a xlink:href="language_8h.html" target="_top" xlink:title="menu/lang/language.h">
<polygon fill="white" stroke="black" points="226,-358.5 226,-377.5 338,-377.5 338,-358.5 226,-358.5"/>
<text text-anchor="middle" x="282" y="-365.5" font-family="Helvetica,sans-Serif" font-size="10.00">menu/lang/language.h</text>
</a>
</g>
</g>
<!-- Node3&#45;&gt;Node16 -->
<g id="edge22" class="edge"><title>Node3&#45;&gt;Node16</title>
<path fill="none" stroke="midnightblue" d="M193.031,-414.324C210.03,-405.664 236.376,-392.242 255.993,-382.249"/>
<polygon fill="midnightblue" stroke="midnightblue" points="257.69,-385.312 265.012,-377.655 254.512,-379.075 257.69,-385.312"/>
</g>
<!-- Node5&#45;&gt;Node4 -->
<g id="edge5" class="edge"><title>Node5&#45;&gt;Node4</title>
<path fill="none" stroke="midnightblue" d="M151.646,-358.479C112.029,-342.882 38,-305.744 38,-246 38,-246 38,-246 38,-132 38,-91.5899 64.3397,-50.2056 81.2087,-27.8451"/>
<polygon fill="midnightblue" stroke="midnightblue" points="84.1451,-29.7719 87.5482,-19.7384 78.631,-25.4597 84.1451,-29.7719"/>
</g>
<!-- Node6 -->
<g id="node6" class="node"><title>Node6</title>
<g id="a_node6"><a xlink:href="pca9534_8h.html" target="_top" xlink:title="driver/pca9534.h">
<polygon fill="white" stroke="black" points="96.5,-297 96.5,-316 183.5,-316 183.5,-297 96.5,-297"/>
<text text-anchor="middle" x="140" y="-304" font-family="Helvetica,sans-Serif" font-size="10.00">driver/pca9534.h</text>
</a>
</g>
</g>
<!-- Node5&#45;&gt;Node6 -->
<g id="edge6" class="edge"><title>Node5&#45;&gt;Node6</title>
<path fill="none" stroke="midnightblue" d="M170.842,-358.475C165.549,-349.727 157.165,-335.869 150.473,-324.809"/>
<polygon fill="midnightblue" stroke="midnightblue" points="153.32,-322.753 145.148,-316.009 147.33,-326.377 153.32,-322.753"/>
</g>
<!-- Node11 -->
<g id="node11" class="node"><title>Node11</title>
<g id="a_node11"><a xlink:href="timer_8h.html" target="_top" xlink:title="driver/timer.h">
<polygon fill="white" stroke="black" points="316,-179.5 316,-198.5 388,-198.5 388,-179.5 316,-179.5"/>
<text text-anchor="middle" x="352" y="-186.5" font-family="Helvetica,sans-Serif" font-size="10.00">driver/timer.h</text>
</a>
</g>
</g>
<!-- Node5&#45;&gt;Node11 -->
<g id="edge21" class="edge"><title>Node5&#45;&gt;Node11</title>
<path fill="none" stroke="midnightblue" d="M181.452,-358.028C190.663,-343.232 210.332,-313.148 231,-291 262.924,-256.79 306.187,-223.218 331.398,-204.696"/>
<polygon fill="midnightblue" stroke="midnightblue" points="333.783,-207.289 339.815,-198.579 329.667,-201.627 333.783,-207.289"/>
</g>
<!-- Node14 -->
<g id="node14" class="node"><title>Node14</title>
<g id="a_node14"><a xlink:href="lcd__commands_8h.html" target="_top" xlink:title="driver/include/lcd\l_commands.h">
<polygon fill="white" stroke="black" points="240.5,-291.5 240.5,-321.5 329.5,-321.5 329.5,-291.5 240.5,-291.5"/>
<text text-anchor="start" x="248.5" y="-309.5" font-family="Helvetica,sans-Serif" font-size="10.00">driver/include/lcd</text>
<text text-anchor="middle" x="285" y="-298.5" font-family="Helvetica,sans-Serif" font-size="10.00">_commands.h</text>
</a>
</g>
</g>
<!-- Node5&#45;&gt;Node14 -->
<g id="edge19" class="edge"><title>Node5&#45;&gt;Node14</title>
<path fill="none" stroke="midnightblue" d="M191.617,-358.475C206.862,-350.153 230.578,-337.207 250.294,-326.445"/>
<polygon fill="midnightblue" stroke="midnightblue" points="252.21,-329.386 259.311,-321.523 248.856,-323.242 252.21,-329.386"/>
</g>
<!-- Node15 -->
<g id="node15" class="node"><title>Node15</title>
<g id="a_node15"><a xlink:href="settings_2radio__pin__mapping_8h.html" target="_top" xlink:title="settings/radio_pin\l_mapping.h">
<polygon fill="white" stroke="black" points="347.5,-291.5 347.5,-321.5 440.5,-321.5 440.5,-291.5 347.5,-291.5"/>
<text text-anchor="start" x="355.5" y="-309.5" font-family="Helvetica,sans-Serif" font-size="10.00">settings/radio_pin</text>
<text text-anchor="middle" x="394" y="-298.5" font-family="Helvetica,sans-Serif" font-size="10.00">_mapping.h</text>
</a>
</g>
</g>
<!-- Node5&#45;&gt;Node15 -->
<g id="edge20" class="edge"><title>Node5&#45;&gt;Node15</title>
<path fill="none" stroke="midnightblue" d="M207.234,-358.475C241.131,-349.223 295.965,-334.257 337.47,-322.929"/>
<polygon fill="midnightblue" stroke="midnightblue" points="338.452,-326.289 347.177,-320.28 336.608,-319.536 338.452,-326.289"/>
</g>
<!-- Node6&#45;&gt;Node4 -->
<g id="edge7" class="edge"><title>Node6&#45;&gt;Node4</title>
<path fill="none" stroke="midnightblue" d="M131.101,-296.845C113.516,-278.766 76,-234.932 76,-190 76,-190 76,-190 76,-132 76,-95.2858 84.6425,-53.0556 90.2698,-29.4499"/>
<polygon fill="midnightblue" stroke="midnightblue" points="93.67,-30.2793 92.6702,-19.7318 86.8743,-28.6007 93.67,-30.2793"/>
</g>
<!-- Node7 -->
<g id="node7" class="node"><title>Node7</title>
<g id="a_node7"><a xlink:href="i2c_8h.html" target="_top" xlink:title="I2C implemtation for MSP430G2553, interrupt based. &#160;&#160;This implemtation based on examples from Texas I...">
<polygon fill="white" stroke="black" points="120.5,-235.5 120.5,-254.5 183.5,-254.5 183.5,-235.5 120.5,-235.5"/>
<text text-anchor="middle" x="152" y="-242.5" font-family="Helvetica,sans-Serif" font-size="10.00">driver/i2c.h</text>
</a>
</g>
</g>
<!-- Node6&#45;&gt;Node7 -->
<g id="edge8" class="edge"><title>Node6&#45;&gt;Node7</title>
<path fill="none" stroke="midnightblue" d="M141.719,-296.975C143.43,-288.492 146.11,-275.204 148.305,-264.322"/>
<polygon fill="midnightblue" stroke="midnightblue" points="151.738,-265.004 150.284,-254.509 144.876,-263.62 151.738,-265.004"/>
</g>
<!-- Node7&#45;&gt;Node4 -->
<g id="edge9" class="edge"><title>Node7&#45;&gt;Node4</title>
<path fill="none" stroke="midnightblue" d="M149.904,-235.431C141.648,-201.683 111.261,-77.4702 99.5989,-29.7991"/>
<polygon fill="midnightblue" stroke="midnightblue" points="102.952,-28.7776 97.1762,-19.8958 96.1528,-30.441 102.952,-28.7776"/>
</g>
<!-- Node8 -->
<g id="node8" class="node"><title>Node8</title>
<polygon fill="white" stroke="#bfbfbf" points="153.5,-123.5 153.5,-142.5 212.5,-142.5 212.5,-123.5 153.5,-123.5"/>
<text text-anchor="middle" x="183" y="-130.5" font-family="Helvetica,sans-Serif" font-size="10.00">msp430.h</text>
</g>
<!-- Node7&#45;&gt;Node8 -->
<g id="edge10" class="edge"><title>Node7&#45;&gt;Node8</title>
<path fill="none" stroke="midnightblue" d="M154.433,-235.368C159.458,-217.537 171.08,-176.295 177.851,-152.272"/>
<polygon fill="midnightblue" stroke="midnightblue" points="181.235,-153.166 180.579,-142.591 174.497,-151.267 181.235,-153.166"/>
</g>
<!-- Node9 -->
<g id="node9" class="node"><title>Node9</title>
<polygon fill="white" stroke="#bfbfbf" points="180,-179.5 180,-198.5 228,-198.5 228,-179.5 180,-179.5"/>
<text text-anchor="middle" x="204" y="-186.5" font-family="Helvetica,sans-Serif" font-size="10.00">stdlib.h</text>
</g>
<!-- Node7&#45;&gt;Node9 -->
<g id="edge11" class="edge"><title>Node7&#45;&gt;Node9</title>
<path fill="none" stroke="midnightblue" d="M160.587,-235.083C168.159,-227.22 179.378,-215.569 188.514,-206.081"/>
<polygon fill="midnightblue" stroke="midnightblue" points="191.158,-208.382 195.573,-198.751 186.115,-203.527 191.158,-208.382"/>
</g>
<!-- Node10 -->
<g id="node10" class="node"><title>Node10</title>
<polygon fill="white" stroke="#bfbfbf" points="246,-179.5 246,-198.5 298,-198.5 298,-179.5 246,-179.5"/>
<text text-anchor="middle" x="272" y="-186.5" font-family="Helvetica,sans-Serif" font-size="10.00">stdarg.h</text>
</g>
<!-- Node7&#45;&gt;Node10 -->
<g id="edge12" class="edge"><title>Node7&#45;&gt;Node10</title>
<path fill="none" stroke="midnightblue" d="M171.014,-235.444C190.588,-226.636 221.308,-212.812 243.729,-202.722"/>
<polygon fill="midnightblue" stroke="midnightblue" points="245.392,-205.812 253.075,-198.516 242.519,-199.428 245.392,-205.812"/>
</g>
<!-- Node7&#45;&gt;Node11 -->
<g id="edge13" class="edge"><title>Node7&#45;&gt;Node11</title>
<path fill="none" stroke="midnightblue" d="M183.691,-235.444C218.068,-226.162 273.077,-211.309 310.789,-201.127"/>
<polygon fill="midnightblue" stroke="midnightblue" points="311.716,-204.502 320.458,-198.516 309.891,-197.744 311.716,-204.502"/>
</g>
<!-- Node11&#45;&gt;Node4 -->
<g id="edge15" class="edge"><title>Node11&#45;&gt;Node4</title>
<path fill="none" stroke="midnightblue" d="M334.159,-179.484C316.827,-170.971 289.982,-157.145 268,-143 208.469,-104.692 143.399,-51.7423 112.793,-26.1097"/>
<polygon fill="midnightblue" stroke="midnightblue" points="115.012,-23.4025 105.108,-19.6392 110.504,-28.7573 115.012,-23.4025"/>
</g>
<!-- Node11&#45;&gt;Node8 -->
<g id="edge14" class="edge"><title>Node11&#45;&gt;Node8</title>
<path fill="none" stroke="midnightblue" d="M325.221,-179.444C296.667,-170.32 251.267,-155.813 219.463,-145.651"/>
<polygon fill="midnightblue" stroke="midnightblue" points="220.244,-142.226 209.653,-142.516 218.114,-148.894 220.244,-142.226"/>
</g>
<!-- Node12 -->
<g id="node12" class="node"><title>Node12</title>
<g id="a_node12"><a xlink:href="radio__configuration_8h.html" target="_top" xlink:title="settings/radio_configuration.h">
<polygon fill="white" stroke="black" points="277.5,-123.5 277.5,-142.5 420.5,-142.5 420.5,-123.5 277.5,-123.5"/>
<text text-anchor="middle" x="349" y="-130.5" font-family="Helvetica,sans-Serif" font-size="10.00">settings/radio_configuration.h</text>
</a>
</g>
</g>
<!-- Node11&#45;&gt;Node12 -->
<g id="edge16" class="edge"><title>Node11&#45;&gt;Node12</title>
<path fill="none" stroke="midnightblue" d="M351.505,-179.083C351.111,-172.006 350.548,-161.861 350.055,-152.986"/>
<polygon fill="midnightblue" stroke="midnightblue" points="353.536,-152.542 349.486,-142.751 346.546,-152.93 353.536,-152.542"/>
</g>
<!-- Node13 -->
<g id="node13" class="node"><title>Node13</title>
<g id="a_node13"><a xlink:href="si4735__cmd__prop_8h.html" target="_top" xlink:title="driver/include/si4735\l_cmd_prop.h">
<polygon fill="white" stroke="black" points="285,-56.5 285,-86.5 389,-86.5 389,-56.5 285,-56.5"/>
<text text-anchor="start" x="293" y="-74.5" font-family="Helvetica,sans-Serif" font-size="10.00">driver/include/si4735</text>
<text text-anchor="middle" x="337" y="-63.5" font-family="Helvetica,sans-Serif" font-size="10.00">_cmd_prop.h</text>
</a>
</g>
</g>
<!-- Node12&#45;&gt;Node13 -->
<g id="edge17" class="edge"><title>Node12&#45;&gt;Node13</title>
<path fill="none" stroke="midnightblue" d="M347.281,-123.475C345.853,-116.396 343.75,-105.97 341.818,-96.3896"/>
<polygon fill="midnightblue" stroke="midnightblue" points="345.236,-95.6336 339.828,-86.523 338.374,-97.0176 345.236,-95.6336"/>
</g>
<!-- Node13&#45;&gt;Node4 -->
<g id="edge18" class="edge"><title>Node13&#45;&gt;Node4</title>
<path fill="none" stroke="midnightblue" d="M284.788,-57.6626C237.877,-46.1289 170.311,-29.5166 129.727,-19.5383"/>
<polygon fill="midnightblue" stroke="midnightblue" points="130.32,-16.0799 119.774,-17.0911 128.649,-22.8775 130.32,-16.0799"/>
</g>
</g>
</svg>
