<?xml version="1.0" encoding="UTF-8" standalone="no"?>
<!DOCTYPE svg PUBLIC "-//W3C//DTD SVG 1.1//EN"
 "http://www.w3.org/Graphics/SVG/1.1/DTD/svg11.dtd">
<!-- Generated by graphviz version 2.38.0 (20140413.2041)
 -->
<!-- Title: D:/GIT/fhradiov2/menu/menu_struct.h Pages: 1 -->
<svg width="872pt" height="374pt"
 viewBox="0.00 0.00 872.35 374.00" xmlns="http://www.w3.org/2000/svg" xmlns:xlink="http://www.w3.org/1999/xlink">
<g id="graph0" class="graph" transform="scale(1 1) rotate(0) translate(4 370)">
<title>D:/GIT/fhradiov2/menu/menu_struct.h</title>
<polygon fill="white" stroke="none" points="-4,4 -4,-370 868.355,-370 868.355,4 -4,4"/>
<!-- Node1 -->
<g id="node1" class="node"><title>Node1</title>
<polygon fill="#bfbfbf" stroke="black" points="333.355,-335.5 333.355,-365.5 445.355,-365.5 445.355,-335.5 333.355,-335.5"/>
<text text-anchor="start" x="341.355" y="-353.5" font-family="Helvetica,sans-Serif" font-size="10.00">D:/GIT/fhradiov2/menu</text>
<text text-anchor="middle" x="389.355" y="-342.5" font-family="Helvetica,sans-Serif" font-size="10.00">/menu_struct.h</text>
</g>
<!-- Node2 -->
<g id="node2" class="node"><title>Node2</title>
<g id="a_node2"><a xlink:href="menu_8h.html" target="_top" xlink:title="D:/GIT/fhradiov2/menu\l/menu.h">
<polygon fill="white" stroke="black" points="333.355,-268.5 333.355,-298.5 445.355,-298.5 445.355,-268.5 333.355,-268.5"/>
<text text-anchor="start" x="341.355" y="-286.5" font-family="Helvetica,sans-Serif" font-size="10.00">D:/GIT/fhradiov2/menu</text>
<text text-anchor="middle" x="389.355" y="-275.5" font-family="Helvetica,sans-Serif" font-size="10.00">/menu.h</text>
</a>
</g>
</g>
<!-- Node1&#45;&gt;Node2 -->
<g id="edge1" class="edge"><title>Node1&#45;&gt;Node2</title>
<path fill="none" stroke="midnightblue" d="M382.81,-325.403C382.36,-316.37 382.651,-306.408 383.68,-298.577"/>
<polygon fill="midnightblue" stroke="midnightblue" points="379.325,-325.736 383.676,-335.396 386.299,-325.131 379.325,-325.736"/>
</g>
<!-- Node17 -->
<g id="node17" class="node"><title>Node17</title>
<g id="a_node17"><a xlink:href="menu__struct_8c.html" target="_top" xlink:title="D:/GIT/fhradiov2/menu\l/src/menu_struct.c">
<polygon fill="white" stroke="black" points="463.355,-268.5 463.355,-298.5 575.355,-298.5 575.355,-268.5 463.355,-268.5"/>
<text text-anchor="start" x="471.355" y="-286.5" font-family="Helvetica,sans-Serif" font-size="10.00">D:/GIT/fhradiov2/menu</text>
<text text-anchor="middle" x="519.355" y="-275.5" font-family="Helvetica,sans-Serif" font-size="10.00">/src/menu_struct.c</text>
</a>
</g>
</g>
<!-- Node1&#45;&gt;Node17 -->
<g id="edge23" class="edge"><title>Node1&#45;&gt;Node17</title>
<path fill="none" stroke="midnightblue" d="M426.648,-330.853C447.203,-320.576 472.305,-308.025 491.202,-298.577"/>
<polygon fill="midnightblue" stroke="midnightblue" points="424.942,-327.793 417.563,-335.396 428.073,-334.054 424.942,-327.793"/>
</g>
<!-- Node2&#45;&gt;Node1 -->
<g id="edge3" class="edge"><title>Node2&#45;&gt;Node1</title>
<path fill="none" stroke="midnightblue" d="M395.899,-308.565C396.35,-317.596 396.061,-327.56 395.033,-335.396"/>
<polygon fill="midnightblue" stroke="midnightblue" points="399.383,-308.236 395.03,-298.577 392.41,-308.842 399.383,-308.236"/>
</g>
<!-- Node3 -->
<g id="node3" class="node"><title>Node3</title>
<g id="a_node3"><a xlink:href="main_8c.html" target="_top" xlink:title="D:/GIT/fhradiov2/main.c">
<polygon fill="white" stroke="black" points="173.855,-73 173.855,-92 290.855,-92 290.855,-73 173.855,-73"/>
<text text-anchor="middle" x="232.355" y="-80" font-family="Helvetica,sans-Serif" font-size="10.00">D:/GIT/fhradiov2/main.c</text>
</a>
</g>
</g>
<!-- Node2&#45;&gt;Node3 -->
<g id="edge2" class="edge"><title>Node2&#45;&gt;Node3</title>
<path fill="none" stroke="midnightblue" d="M323.253,-271.829C224.051,-254.315 44.2277,-216.234 6.35491,-165 -1.83507,-153.921 -2.25992,-144.752 6.35491,-134 12.0581,-126.882 123.275,-104.473 187.524,-92.0327"/>
<polygon fill="midnightblue" stroke="midnightblue" points="322.727,-275.29 333.179,-273.561 323.93,-268.395 322.727,-275.29"/>
</g>
<!-- Node4 -->
<g id="node4" class="node"><title>Node4</title>
<g id="a_node4"><a xlink:href="menu_8c.html" target="_top" xlink:title="D:/GIT/fhradiov2/menu\l/src/menu.c">
<polygon fill="white" stroke="black" points="467.355,-201.5 467.355,-231.5 579.355,-231.5 579.355,-201.5 467.355,-201.5"/>
<text text-anchor="start" x="475.355" y="-219.5" font-family="Helvetica,sans-Serif" font-size="10.00">D:/GIT/fhradiov2/menu</text>
<text text-anchor="middle" x="523.355" y="-208.5" font-family="Helvetica,sans-Serif" font-size="10.00">/src/menu.c</text>
</a>
</g>
</g>
<!-- Node2&#45;&gt;Node4 -->
<g id="edge4" class="edge"><title>Node2&#45;&gt;Node4</title>
<path fill="none" stroke="midnightblue" d="M427.51,-263.992C448.749,-253.689 474.769,-241.068 494.336,-231.577"/>
<polygon fill="midnightblue" stroke="midnightblue" points="425.901,-260.882 418.431,-268.396 428.956,-267.181 425.901,-260.882"/>
</g>
<!-- Node5 -->
<g id="node5" class="node"><title>Node5</title>
<g id="a_node5"><a xlink:href="radio_8h.html" target="_top" xlink:title="D:/GIT/fhradiov2/system\l/radio.h">
<polygon fill="white" stroke="black" points="329.355,-201.5 329.355,-231.5 449.355,-231.5 449.355,-201.5 329.355,-201.5"/>
<text text-anchor="start" x="337.355" y="-219.5" font-family="Helvetica,sans-Serif" font-size="10.00">D:/GIT/fhradiov2/system</text>
<text text-anchor="middle" x="389.355" y="-208.5" font-family="Helvetica,sans-Serif" font-size="10.00">/radio.h</text>
</a>
</g>
</g>
<!-- Node2&#45;&gt;Node5 -->
<g id="edge5" class="edge"><title>Node2&#45;&gt;Node5</title>
<path fill="none" stroke="midnightblue" d="M382.81,-258.403C382.36,-249.37 382.651,-239.408 383.68,-231.577"/>
<polygon fill="midnightblue" stroke="midnightblue" points="379.325,-258.736 383.676,-268.396 386.299,-258.131 379.325,-258.736"/>
</g>
<!-- Node5&#45;&gt;Node2 -->
<g id="edge7" class="edge"><title>Node5&#45;&gt;Node2</title>
<path fill="none" stroke="midnightblue" d="M395.899,-241.565C396.35,-250.596 396.061,-260.56 395.033,-268.396"/>
<polygon fill="midnightblue" stroke="midnightblue" points="399.383,-241.236 395.03,-231.577 392.41,-241.842 399.383,-241.236"/>
</g>
<!-- Node5&#45;&gt;Node3 -->
<g id="edge6" class="edge"><title>Node5&#45;&gt;Node3</title>
<path fill="none" stroke="midnightblue" d="M360.365,-195.413C347.813,-186.429 333.105,-175.511 320.355,-165 290.148,-140.098 256.849,-107.817 241.289,-92.4252"/>
<polygon fill="midnightblue" stroke="midnightblue" points="358.478,-198.366 368.66,-201.295 362.527,-192.655 358.478,-198.366"/>
</g>
<!-- Node6 -->
<g id="node6" class="node"><title>Node6</title>
<g id="a_node6"><a xlink:href="radio__display_8h.html" target="_top" xlink:title="D:/GIT/fhradiov2/system\l/radio_display.h">
<polygon fill="white" stroke="black" points="467.355,-134.5 467.355,-164.5 587.355,-164.5 587.355,-134.5 467.355,-134.5"/>
<text text-anchor="start" x="475.355" y="-152.5" font-family="Helvetica,sans-Serif" font-size="10.00">D:/GIT/fhradiov2/system</text>
<text text-anchor="middle" x="527.355" y="-141.5" font-family="Helvetica,sans-Serif" font-size="10.00">/radio_display.h</text>
</a>
</g>
</g>
<!-- Node5&#45;&gt;Node6 -->
<g id="edge8" class="edge"><title>Node5&#45;&gt;Node6</title>
<path fill="none" stroke="midnightblue" d="M422.771,-196.853C443.68,-186.576 470.492,-174.025 491.795,-164.577"/>
<polygon fill="midnightblue" stroke="midnightblue" points="421.021,-193.814 413.62,-201.396 424.134,-200.084 421.021,-193.814"/>
</g>
<!-- Node8 -->
<g id="node8" class="node"><title>Node8</title>
<g id="a_node8"><a xlink:href="rds_8h.html" target="_top" xlink:title="D:/GIT/fhradiov2/system\l/rds.h">
<polygon fill="white" stroke="black" points="329.355,-134.5 329.355,-164.5 449.355,-164.5 449.355,-134.5 329.355,-134.5"/>
<text text-anchor="start" x="337.355" y="-152.5" font-family="Helvetica,sans-Serif" font-size="10.00">D:/GIT/fhradiov2/system</text>
<text text-anchor="middle" x="389.355" y="-141.5" font-family="Helvetica,sans-Serif" font-size="10.00">/rds.h</text>
</a>
</g>
</g>
<!-- Node5&#45;&gt;Node8 -->
<g id="edge11" class="edge"><title>Node5&#45;&gt;Node8</title>
<path fill="none" stroke="midnightblue" d="M389.355,-191.108C389.355,-182.154 389.355,-172.323 389.355,-164.577"/>
<polygon fill="midnightblue" stroke="midnightblue" points="385.855,-191.396 389.355,-201.396 392.855,-191.396 385.855,-191.396"/>
</g>
<!-- Node10 -->
<g id="node10" class="node"><title>Node10</title>
<g id="a_node10"><a xlink:href="rsq_8h.html" target="_top" xlink:title="D:/GIT/fhradiov2/system\l/rsq.h">
<polygon fill="white" stroke="black" points="15.3549,-134.5 15.3549,-164.5 135.355,-164.5 135.355,-134.5 15.3549,-134.5"/>
<text text-anchor="start" x="23.3549" y="-152.5" font-family="Helvetica,sans-Serif" font-size="10.00">D:/GIT/fhradiov2/system</text>
<text text-anchor="middle" x="75.3549" y="-141.5" font-family="Helvetica,sans-Serif" font-size="10.00">/rsq.h</text>
</a>
</g>
</g>
<!-- Node5&#45;&gt;Node10 -->
<g id="edge14" class="edge"><title>Node5&#45;&gt;Node10</title>
<path fill="none" stroke="midnightblue" d="M319.318,-201.138C270.311,-191.071 203.325,-177.274 144.355,-165 141.479,-164.401 138.535,-163.788 135.563,-163.167"/>
<polygon fill="midnightblue" stroke="midnightblue" points="318.682,-204.581 329.182,-203.164 320.091,-197.724 318.682,-204.581"/>
</g>
<!-- Node12 -->
<g id="node12" class="node"><title>Node12</title>
<g id="a_node12"><a xlink:href="radio_8c.html" target="_top" xlink:title="D:/GIT/fhradiov2/system\l/src/radio.c">
<polygon fill="white" stroke="black" points="153.355,-134.5 153.355,-164.5 273.355,-164.5 273.355,-134.5 153.355,-134.5"/>
<text text-anchor="start" x="161.355" y="-152.5" font-family="Helvetica,sans-Serif" font-size="10.00">D:/GIT/fhradiov2/system</text>
<text text-anchor="middle" x="213.355" y="-141.5" font-family="Helvetica,sans-Serif" font-size="10.00">/src/radio.c</text>
</a>
</g>
</g>
<!-- Node5&#45;&gt;Node12 -->
<g id="edge17" class="edge"><title>Node5&#45;&gt;Node12</title>
<path fill="none" stroke="midnightblue" d="M341.479,-197.819C313.189,-187.371 277.86,-174.323 251.47,-164.577"/>
<polygon fill="midnightblue" stroke="midnightblue" points="340.572,-201.215 351.166,-201.396 342.997,-194.648 340.572,-201.215"/>
</g>
<!-- Node13 -->
<g id="node13" class="node"><title>Node13</title>
<g id="a_node13"><a xlink:href="station__list__struct_8h.html" target="_top" xlink:title="D:/GIT/fhradiov2/system\l/station_list_struct.h">
<polygon fill="white" stroke="black" points="605.355,-134.5 605.355,-164.5 725.355,-164.5 725.355,-134.5 605.355,-134.5"/>
<text text-anchor="start" x="613.355" y="-152.5" font-family="Helvetica,sans-Serif" font-size="10.00">D:/GIT/fhradiov2/system</text>
<text text-anchor="middle" x="665.355" y="-141.5" font-family="Helvetica,sans-Serif" font-size="10.00">/station_list_struct.h</text>
</a>
</g>
</g>
<!-- Node5&#45;&gt;Node13 -->
<g id="edge18" class="edge"><title>Node5&#45;&gt;Node13</title>
<path fill="none" stroke="midnightblue" d="M458.913,-199.119C504.075,-188.483 562.331,-174.763 605.438,-164.611"/>
<polygon fill="midnightblue" stroke="midnightblue" points="457.834,-195.777 448.903,-201.476 459.439,-202.59 457.834,-195.777"/>
</g>
<!-- Node6&#45;&gt;Node5 -->
<g id="edge9" class="edge"><title>Node6&#45;&gt;Node5</title>
<path fill="none" stroke="midnightblue" d="M494,-169.117C473.102,-179.39 446.29,-191.941 424.977,-201.396"/>
<polygon fill="midnightblue" stroke="midnightblue" points="495.744,-172.159 503.144,-164.577 492.631,-165.889 495.744,-172.159"/>
</g>
<!-- Node7 -->
<g id="node7" class="node"><title>Node7</title>
<g id="a_node7"><a xlink:href="radio__display_8c.html" target="_top" xlink:title="D:/GIT/fhradiov2/system\l/src/radio_display.c">
<polygon fill="white" stroke="black" points="466.355,-67.5 466.355,-97.5 586.355,-97.5 586.355,-67.5 466.355,-67.5"/>
<text text-anchor="start" x="474.355" y="-85.5" font-family="Helvetica,sans-Serif" font-size="10.00">D:/GIT/fhradiov2/system</text>
<text text-anchor="middle" x="526.355" y="-74.5" font-family="Helvetica,sans-Serif" font-size="10.00">/src/radio_display.c</text>
</a>
</g>
</g>
<!-- Node6&#45;&gt;Node7 -->
<g id="edge10" class="edge"><title>Node6&#45;&gt;Node7</title>
<path fill="none" stroke="midnightblue" d="M526.98,-124.108C526.842,-115.154 526.691,-105.323 526.571,-97.5765"/>
<polygon fill="midnightblue" stroke="midnightblue" points="523.484,-124.451 527.138,-134.396 530.484,-124.343 523.484,-124.451"/>
</g>
<!-- Node8&#45;&gt;Node3 -->
<g id="edge12" class="edge"><title>Node8&#45;&gt;Node3</title>
<path fill="none" stroke="midnightblue" d="M345.778,-130.458C315.444,-117.9 276.373,-101.724 252.903,-92.007"/>
<polygon fill="midnightblue" stroke="midnightblue" points="344.71,-133.804 355.288,-134.396 347.388,-127.337 344.71,-133.804"/>
</g>
<!-- Node9 -->
<g id="node9" class="node"><title>Node9</title>
<g id="a_node9"><a xlink:href="rds_8c.html" target="_top" xlink:title="D:/GIT/fhradiov2/system\l/src/rds.c">
<polygon fill="white" stroke="black" points="328.355,-67.5 328.355,-97.5 448.355,-97.5 448.355,-67.5 328.355,-67.5"/>
<text text-anchor="start" x="336.355" y="-85.5" font-family="Helvetica,sans-Serif" font-size="10.00">D:/GIT/fhradiov2/system</text>
<text text-anchor="middle" x="388.355" y="-74.5" font-family="Helvetica,sans-Serif" font-size="10.00">/src/rds.c</text>
</a>
</g>
</g>
<!-- Node8&#45;&gt;Node9 -->
<g id="edge13" class="edge"><title>Node8&#45;&gt;Node9</title>
<path fill="none" stroke="midnightblue" d="M388.98,-124.108C388.842,-115.154 388.691,-105.323 388.571,-97.5765"/>
<polygon fill="midnightblue" stroke="midnightblue" points="385.484,-124.451 389.138,-134.396 392.484,-124.343 385.484,-124.451"/>
</g>
<!-- Node10&#45;&gt;Node3 -->
<g id="edge15" class="edge"><title>Node10&#45;&gt;Node3</title>
<path fill="none" stroke="midnightblue" d="M118.932,-130.458C149.265,-117.9 188.337,-101.724 211.807,-92.007"/>
<polygon fill="midnightblue" stroke="midnightblue" points="117.322,-127.337 109.422,-134.396 120,-133.804 117.322,-127.337"/>
</g>
<!-- Node11 -->
<g id="node11" class="node"><title>Node11</title>
<g id="a_node11"><a xlink:href="rsq_8c.html" target="_top" xlink:title="D:/GIT/fhradiov2/system\l/src/rsq.c">
<polygon fill="white" stroke="black" points="15.3549,-67.5 15.3549,-97.5 135.355,-97.5 135.355,-67.5 15.3549,-67.5"/>
<text text-anchor="start" x="23.3549" y="-85.5" font-family="Helvetica,sans-Serif" font-size="10.00">D:/GIT/fhradiov2/system</text>
<text text-anchor="middle" x="75.3549" y="-74.5" font-family="Helvetica,sans-Serif" font-size="10.00">/src/rsq.c</text>
</a>
</g>
</g>
<!-- Node10&#45;&gt;Node11 -->
<g id="edge16" class="edge"><title>Node10&#45;&gt;Node11</title>
<path fill="none" stroke="midnightblue" d="M75.3549,-124.108C75.3549,-115.154 75.3549,-105.323 75.3549,-97.5765"/>
<polygon fill="midnightblue" stroke="midnightblue" points="71.855,-124.396 75.3549,-134.396 78.855,-124.396 71.855,-124.396"/>
</g>
<!-- Node14 -->
<g id="node14" class="node"><title>Node14</title>
<g id="a_node14"><a xlink:href="station__list__struct_8c.html" target="_top" xlink:title="D:/GIT/fhradiov2/system\l/src/station_list_struct.c">
<polygon fill="white" stroke="black" points="604.355,-67.5 604.355,-97.5 726.355,-97.5 726.355,-67.5 604.355,-67.5"/>
<text text-anchor="start" x="612.355" y="-85.5" font-family="Helvetica,sans-Serif" font-size="10.00">D:/GIT/fhradiov2/system</text>
<text text-anchor="middle" x="665.355" y="-74.5" font-family="Helvetica,sans-Serif" font-size="10.00">/src/station_list_struct.c</text>
</a>
</g>
</g>
<!-- Node13&#45;&gt;Node14 -->
<g id="edge19" class="edge"><title>Node13&#45;&gt;Node14</title>
<path fill="none" stroke="midnightblue" d="M665.355,-124.108C665.355,-115.154 665.355,-105.323 665.355,-97.5765"/>
<polygon fill="midnightblue" stroke="midnightblue" points="661.855,-124.396 665.355,-134.396 668.855,-124.396 661.855,-124.396"/>
</g>
<!-- Node15 -->
<g id="node15" class="node"><title>Node15</title>
<g id="a_node15"><a xlink:href="station__list_8h.html" target="_top" xlink:title="D:/GIT/fhradiov2/system\l/station_list.h">
<polygon fill="white" stroke="black" points="744.355,-67.5 744.355,-97.5 864.355,-97.5 864.355,-67.5 744.355,-67.5"/>
<text text-anchor="start" x="752.355" y="-85.5" font-family="Helvetica,sans-Serif" font-size="10.00">D:/GIT/fhradiov2/system</text>
<text text-anchor="middle" x="804.355" y="-74.5" font-family="Helvetica,sans-Serif" font-size="10.00">/station_list.h</text>
</a>
</g>
</g>
<!-- Node13&#45;&gt;Node15 -->
<g id="edge20" class="edge"><title>Node13&#45;&gt;Node15</title>
<path fill="none" stroke="midnightblue" d="M704.637,-130.131C726.723,-119.802 753.865,-107.11 774.253,-97.5765"/>
<polygon fill="midnightblue" stroke="midnightblue" points="703.092,-126.989 695.516,-134.396 706.057,-133.33 703.092,-126.989"/>
</g>
<!-- Node15&#45;&gt;Node5 -->
<g id="edge21" class="edge"><title>Node15&#45;&gt;Node5</title>
<path fill="none" stroke="midnightblue" d="M791.459,-106.209C779.327,-125.279 759.315,-151.512 734.355,-165 625.523,-223.811 580.31,-180.264 458.355,-201 455.459,-201.492 452.499,-202.02 449.513,-202.572"/>
<polygon fill="midnightblue" stroke="midnightblue" points="794.546,-107.869 796.769,-97.5097 788.571,-104.222 794.546,-107.869"/>
</g>
<!-- Node16 -->
<g id="node16" class="node"><title>Node16</title>
<g id="a_node16"><a xlink:href="station__list_8c.html" target="_top" xlink:title="D:/GIT/fhradiov2/system\l/src/station_list.c">
<polygon fill="white" stroke="black" points="744.355,-0.5 744.355,-30.5 864.355,-30.5 864.355,-0.5 744.355,-0.5"/>
<text text-anchor="start" x="752.355" y="-18.5" font-family="Helvetica,sans-Serif" font-size="10.00">D:/GIT/fhradiov2/system</text>
<text text-anchor="middle" x="804.355" y="-7.5" font-family="Helvetica,sans-Serif" font-size="10.00">/src/station_list.c</text>
</a>
</g>
</g>
<!-- Node15&#45;&gt;Node16 -->
<g id="edge22" class="edge"><title>Node15&#45;&gt;Node16</title>
<path fill="none" stroke="midnightblue" d="M804.355,-57.1081C804.355,-48.1539 804.355,-38.3227 804.355,-30.5765"/>
<polygon fill="midnightblue" stroke="midnightblue" points="800.855,-57.3959 804.355,-67.396 807.855,-57.396 800.855,-57.3959"/>
</g>
</g>
</svg>
