<?xml version="1.0" encoding="UTF-8" standalone="no"?>
<!DOCTYPE svg PUBLIC "-//W3C//DTD SVG 1.1//EN"
 "http://www.w3.org/Graphics/SVG/1.1/DTD/svg11.dtd">
<!-- Generated by graphviz version 2.38.0 (20140413.2041)
 -->
<!-- Title: menu/menu.h Pages: 1 -->
<svg width="288pt" height="140pt"
 viewBox="0.00 0.00 288.00 140.00" xmlns="http://www.w3.org/2000/svg" xmlns:xlink="http://www.w3.org/1999/xlink">
<g id="graph0" class="graph" transform="scale(1 1) rotate(0) translate(4 136)">
<title>menu/menu.h</title>
<polygon fill="white" stroke="none" points="-4,4 -4,-136 284,-136 284,4 -4,4"/>
<!-- Node1 -->
<g id="node1" class="node"><title>Node1</title>
<polygon fill="#bfbfbf" stroke="black" points="79,-112.5 79,-131.5 155,-131.5 155,-112.5 79,-112.5"/>
<text text-anchor="middle" x="117" y="-119.5" font-family="Helvetica,sans-Serif" font-size="10.00">menu/menu.h</text>
</g>
<!-- Node2 -->
<g id="node2" class="node"><title>Node2</title>
<g id="a_node2"><a xlink:href="main_8c.html" target="_top" xlink:title="main.c">
<polygon fill="white" stroke="black" points="0,-56.5 0,-75.5 46,-75.5 46,-56.5 0,-56.5"/>
<text text-anchor="middle" x="23" y="-63.5" font-family="Helvetica,sans-Serif" font-size="10.00">main.c</text>
</a>
</g>
</g>
<!-- Node1&#45;&gt;Node2 -->
<g id="edge1" class="edge"><title>Node1&#45;&gt;Node2</title>
<path fill="none" stroke="midnightblue" d="M92.9384,-107.177C75.6411,-97.2407 52.8523,-84.1492 38.0652,-75.6545"/>
<polygon fill="midnightblue" stroke="midnightblue" points="91.4828,-110.378 101.897,-112.324 94.9697,-104.308 91.4828,-110.378"/>
</g>
<!-- Node3 -->
<g id="node3" class="node"><title>Node3</title>
<g id="a_node3"><a xlink:href="menu__struct_8h.html" target="_top" xlink:title="menu/menu_struct.h">
<polygon fill="white" stroke="black" points="64,-56.5 64,-75.5 170,-75.5 170,-56.5 64,-56.5"/>
<text text-anchor="middle" x="117" y="-63.5" font-family="Helvetica,sans-Serif" font-size="10.00">menu/menu_struct.h</text>
</a>
</g>
</g>
<!-- Node1&#45;&gt;Node3 -->
<g id="edge2" class="edge"><title>Node1&#45;&gt;Node3</title>
<path fill="none" stroke="midnightblue" d="M110.528,-102.101C109.896,-93.1357 110.343,-82.8579 111.869,-75.7511"/>
<polygon fill="midnightblue" stroke="midnightblue" points="107.066,-102.622 111.834,-112.083 114.007,-101.713 107.066,-102.622"/>
</g>
<!-- Node5 -->
<g id="node5" class="node"><title>Node5</title>
<g id="a_node5"><a xlink:href="menu_2src_2menu_8c.html" target="_top" xlink:title="menu/src/menu.c">
<polygon fill="white" stroke="black" points="188,-56.5 188,-75.5 280,-75.5 280,-56.5 188,-56.5"/>
<text text-anchor="middle" x="234" y="-63.5" font-family="Helvetica,sans-Serif" font-size="10.00">menu/src/menu.c</text>
</a>
</g>
</g>
<!-- Node1&#45;&gt;Node5 -->
<g id="edge5" class="edge"><title>Node1&#45;&gt;Node5</title>
<path fill="none" stroke="midnightblue" d="M144.664,-108.232C166.549,-98.1312 196.497,-84.3091 215.548,-75.5164"/>
<polygon fill="midnightblue" stroke="midnightblue" points="143.152,-105.075 135.539,-112.444 146.085,-111.431 143.152,-105.075"/>
</g>
<!-- Node3&#45;&gt;Node1 -->
<g id="edge3" class="edge"><title>Node3&#45;&gt;Node1</title>
<path fill="none" stroke="midnightblue" d="M123.458,-85.6911C124.106,-94.6353 123.676,-104.927 122.166,-112.083"/>
<polygon fill="midnightblue" stroke="midnightblue" points="126.923,-85.2002 122.131,-75.7511 119.985,-86.1262 126.923,-85.2002"/>
</g>
<!-- Node4 -->
<g id="node4" class="node"><title>Node4</title>
<g id="a_node4"><a xlink:href="menu__struct_8c.html" target="_top" xlink:title="menu/src/menu_struct.c">
<polygon fill="white" stroke="black" points="56,-0.5 56,-19.5 178,-19.5 178,-0.5 56,-0.5"/>
<text text-anchor="middle" x="117" y="-7.5" font-family="Helvetica,sans-Serif" font-size="10.00">menu/src/menu_struct.c</text>
</a>
</g>
</g>
<!-- Node3&#45;&gt;Node4 -->
<g id="edge4" class="edge"><title>Node3&#45;&gt;Node4</title>
<path fill="none" stroke="midnightblue" d="M117,-45.8045C117,-36.9102 117,-26.7798 117,-19.7511"/>
<polygon fill="midnightblue" stroke="midnightblue" points="113.5,-46.083 117,-56.083 120.5,-46.083 113.5,-46.083"/>
</g>
</g>
</svg>
