<?xml version="1.0" encoding="UTF-8" standalone="no"?>
<!DOCTYPE svg PUBLIC "-//W3C//DTD SVG 1.1//EN"
 "http://www.w3.org/Graphics/SVG/1.1/DTD/svg11.dtd">
<!-- Generated by graphviz version 2.38.0 (20140413.2041)
 -->
<!-- Title: menu_scroll Pages: 1 -->
<svg width="771pt" height="66pt"
 viewBox="0.00 0.00 771.00 66.00" xmlns="http://www.w3.org/2000/svg" xmlns:xlink="http://www.w3.org/1999/xlink">
<g id="graph0" class="graph" transform="scale(1 1) rotate(0) translate(4 62)">
<title>menu_scroll</title>
<polygon fill="white" stroke="none" points="-4,4 -4,-62 767,-62 767,4 -4,4"/>
<!-- Node1 -->
<g id="node1" class="node"><title>Node1</title>
<polygon fill="#bfbfbf" stroke="black" points="0,-19.5 0,-38.5 69,-38.5 69,-19.5 0,-19.5"/>
<text text-anchor="middle" x="34.5" y="-26.5" font-family="Helvetica,sans-Serif" font-size="10.00">menu_scroll</text>
</g>
<!-- Node2 -->
<g id="node2" class="node"><title>Node2</title>
<g id="a_node2"><a xlink:href="lcd_8h.html#acd63fb85d212730fa4fcbcbeeccd231e" target="_top" xlink:title="lcd_create_view">
<polygon fill="white" stroke="black" points="105,-19.5 105,-38.5 190,-38.5 190,-19.5 105,-19.5"/>
<text text-anchor="middle" x="147.5" y="-26.5" font-family="Helvetica,sans-Serif" font-size="10.00">lcd_create_view</text>
</a>
</g>
</g>
<!-- Node1&#45;&gt;Node2 -->
<g id="edge1" class="edge"><title>Node1&#45;&gt;Node2</title>
<path fill="none" stroke="midnightblue" d="M69.1049,-29C77.1767,-29 85.9844,-29 94.6716,-29"/>
<polygon fill="midnightblue" stroke="midnightblue" points="94.763,-32.5001 104.763,-29 94.763,-25.5001 94.763,-32.5001"/>
</g>
<!-- Node3 -->
<g id="node3" class="node"><title>Node3</title>
<g id="a_node3"><a xlink:href="lcd_8c.html#a2a4df97ebc5b396233aa31765228ef42" target="_top" xlink:title="lcd_set_courser">
<polygon fill="white" stroke="black" points="226,-38.5 226,-57.5 312,-57.5 312,-38.5 226,-38.5"/>
<text text-anchor="middle" x="269" y="-45.5" font-family="Helvetica,sans-Serif" font-size="10.00">lcd_set_courser</text>
</a>
</g>
</g>
<!-- Node2&#45;&gt;Node3 -->
<g id="edge2" class="edge"><title>Node2&#45;&gt;Node3</title>
<path fill="none" stroke="midnightblue" d="M190.295,-35.6453C198.43,-36.9386 207.054,-38.3098 215.483,-39.65"/>
<polygon fill="midnightblue" stroke="midnightblue" points="215.196,-43.1483 225.622,-41.262 216.295,-36.2351 215.196,-43.1483"/>
</g>
<!-- Node9 -->
<g id="node9" class="node"><title>Node9</title>
<g id="a_node9"><a xlink:href="lcd_8c.html#aa6e1aa2ef9b677e16d8198df683429ec" target="_top" xlink:title="lcd_write_string">
<polygon fill="white" stroke="black" points="348,-0.5 348,-19.5 432,-19.5 432,-0.5 348,-0.5"/>
<text text-anchor="middle" x="390" y="-7.5" font-family="Helvetica,sans-Serif" font-size="10.00">lcd_write_string</text>
</a>
</g>
</g>
<!-- Node2&#45;&gt;Node9 -->
<g id="edge9" class="edge"><title>Node2&#45;&gt;Node9</title>
<path fill="none" stroke="midnightblue" d="M190.117,-25.7121C231.066,-22.4771 293.678,-17.5307 337.687,-14.0538"/>
<polygon fill="midnightblue" stroke="midnightblue" points="338.199,-17.5244 347.892,-13.2476 337.647,-10.5461 338.199,-17.5244"/>
</g>
<!-- Node4 -->
<g id="node4" class="node"><title>Node4</title>
<g id="a_node4"><a xlink:href="lcd_8c.html#a250728451a22259562d3f01a12bbd77b" target="_top" xlink:title="lcd_command">
<polygon fill="white" stroke="black" points="351.5,-38.5 351.5,-57.5 428.5,-57.5 428.5,-38.5 351.5,-38.5"/>
<text text-anchor="middle" x="390" y="-45.5" font-family="Helvetica,sans-Serif" font-size="10.00">lcd_command</text>
</a>
</g>
</g>
<!-- Node3&#45;&gt;Node4 -->
<g id="edge3" class="edge"><title>Node3&#45;&gt;Node4</title>
<path fill="none" stroke="midnightblue" d="M312.29,-48C321.611,-48 331.549,-48 341.075,-48"/>
<polygon fill="midnightblue" stroke="midnightblue" points="341.202,-51.5001 351.202,-48 341.202,-44.5001 341.202,-51.5001"/>
</g>
<!-- Node5 -->
<g id="node5" class="node"><title>Node5</title>
<g id="a_node5"><a xlink:href="i2c_8h.html#a6691e5911f539e1e8178c6e983e8079a" target="_top" xlink:title="Transmits I2C commands with a variable length to a I2C slave. ">
<polygon fill="white" stroke="black" points="468,-0.5 468,-19.5 540,-19.5 540,-0.5 468,-0.5"/>
<text text-anchor="middle" x="504" y="-7.5" font-family="Helvetica,sans-Serif" font-size="10.00">i2c_write_var</text>
</a>
</g>
</g>
<!-- Node4&#45;&gt;Node5 -->
<g id="edge4" class="edge"><title>Node4&#45;&gt;Node5</title>
<path fill="none" stroke="midnightblue" d="M419.262,-38.411C433.19,-33.6856 450.18,-27.9211 465.207,-22.8226"/>
<polygon fill="midnightblue" stroke="midnightblue" points="466.401,-26.1134 474.747,-19.5859 464.152,-19.4845 466.401,-26.1134"/>
</g>
<!-- Node8 -->
<g id="node8" class="node"><title>Node8</title>
<g id="a_node8"><a xlink:href="timer_8c.html#a276d5cb665b9f8b2c79e53e2f2c5b4f0" target="_top" xlink:title="_delay_ms">
<polygon fill="white" stroke="black" points="579.5,-38.5 579.5,-57.5 643.5,-57.5 643.5,-38.5 579.5,-38.5"/>
<text text-anchor="middle" x="611.5" y="-45.5" font-family="Helvetica,sans-Serif" font-size="10.00">_delay_ms</text>
</a>
</g>
</g>
<!-- Node4&#45;&gt;Node8 -->
<g id="edge7" class="edge"><title>Node4&#45;&gt;Node8</title>
<path fill="none" stroke="midnightblue" d="M428.733,-48C467.861,-48 528.853,-48 569.237,-48"/>
<polygon fill="midnightblue" stroke="midnightblue" points="569.287,-51.5001 579.287,-48 569.287,-44.5001 569.287,-51.5001"/>
</g>
<!-- Node6 -->
<g id="node6" class="node"><title>Node6</title>
<g id="a_node6"><a xlink:href="i2c_8c.html#ae0625b97d3437bcaca4ac4b96dd01978" target="_top" xlink:title="Transmits I2C command array to a I2C slave. ">
<polygon fill="white" stroke="black" points="576,-0.5 576,-19.5 647,-19.5 647,-0.5 576,-0.5"/>
<text text-anchor="middle" x="611.5" y="-7.5" font-family="Helvetica,sans-Serif" font-size="10.00">i2c_write_arr</text>
</a>
</g>
</g>
<!-- Node5&#45;&gt;Node6 -->
<g id="edge5" class="edge"><title>Node5&#45;&gt;Node6</title>
<path fill="none" stroke="midnightblue" d="M540.13,-10C548.312,-10 557.133,-10 565.671,-10"/>
<polygon fill="midnightblue" stroke="midnightblue" points="565.882,-13.5001 575.882,-10 565.882,-6.5001 565.882,-13.5001"/>
</g>
<!-- Node7 -->
<g id="node7" class="node"><title>Node7</title>
<g id="a_node7"><a xlink:href="timer_8c.html#a3c56af3315c2461dec5ced585a5f84db" target="_top" xlink:title="_delay_ten_us">
<polygon fill="white" stroke="black" points="683,-19.5 683,-38.5 763,-38.5 763,-19.5 683,-19.5"/>
<text text-anchor="middle" x="723" y="-26.5" font-family="Helvetica,sans-Serif" font-size="10.00">_delay_ten_us</text>
</a>
</g>
</g>
<!-- Node6&#45;&gt;Node7 -->
<g id="edge6" class="edge"><title>Node6&#45;&gt;Node7</title>
<path fill="none" stroke="midnightblue" d="M647.146,-16.0117C655.253,-17.4183 664.042,-18.9433 672.651,-20.4371"/>
<polygon fill="midnightblue" stroke="midnightblue" points="672.172,-23.9062 682.623,-22.1674 673.368,-17.0092 672.172,-23.9062"/>
</g>
<!-- Node8&#45;&gt;Node7 -->
<g id="edge8" class="edge"><title>Node8&#45;&gt;Node7</title>
<path fill="none" stroke="midnightblue" d="M643.585,-42.6062C652.595,-41.0428 662.664,-39.2957 672.505,-37.5882"/>
<polygon fill="midnightblue" stroke="midnightblue" points="673.368,-40.9908 682.623,-35.8326 672.172,-34.0938 673.368,-40.9908"/>
</g>
<!-- Node9&#45;&gt;Node5 -->
<g id="edge10" class="edge"><title>Node9&#45;&gt;Node5</title>
<path fill="none" stroke="midnightblue" d="M432.069,-10C440.413,-10 449.234,-10 457.715,-10"/>
<polygon fill="midnightblue" stroke="midnightblue" points="457.836,-13.5001 467.836,-10 457.836,-6.5001 457.836,-13.5001"/>
</g>
</g>
</svg>
