<?xml version="1.0" encoding="UTF-8" standalone="no"?>
<!DOCTYPE svg PUBLIC "-//W3C//DTD SVG 1.1//EN"
 "http://www.w3.org/Graphics/SVG/1.1/DTD/svg11.dtd">
<!-- Generated by graphviz version 2.38.0 (20140413.2041)
 -->
<!-- Title: menu_scroll Pages: 1 -->
<svg width="525pt" height="28pt"
 viewBox="0.00 0.00 525.00 28.00" xmlns="http://www.w3.org/2000/svg" xmlns:xlink="http://www.w3.org/1999/xlink">
<g id="graph0" class="graph" transform="scale(1 1) rotate(0) translate(4 24)">
<title>menu_scroll</title>
<polygon fill="white" stroke="none" points="-4,4 -4,-24 521,-24 521,4 -4,4"/>
<!-- Node1 -->
<g id="node1" class="node"><title>Node1</title>
<polygon fill="#bfbfbf" stroke="black" points="0,-0.5 0,-19.5 69,-19.5 69,-0.5 0,-0.5"/>
<text text-anchor="middle" x="34.5" y="-7.5" font-family="Helvetica,sans-Serif" font-size="10.00">menu_scroll</text>
</g>
<!-- Node2 -->
<g id="node2" class="node"><title>Node2</title>
<g id="a_node2"><a xlink:href="menu_2src_2menu_8c.html#a024aeffbbf4583410c047ad3a6c80946" target="_top" xlink:title="menu_scroll_settings">
<polygon fill="white" stroke="black" points="105,-0.5 105,-19.5 214,-19.5 214,-0.5 105,-0.5"/>
<text text-anchor="middle" x="159.5" y="-7.5" font-family="Helvetica,sans-Serif" font-size="10.00">menu_scroll_settings</text>
</a>
</g>
</g>
<!-- Node1&#45;&gt;Node2 -->
<g id="edge1" class="edge"><title>Node1&#45;&gt;Node2</title>
<path fill="none" stroke="midnightblue" d="M79.2125,-10C87.4225,-10 96.0951,-10 104.573,-10"/>
<polygon fill="midnightblue" stroke="midnightblue" points="79.1103,-6.5001 69.1103,-10 79.1103,-13.5001 79.1103,-6.5001"/>
</g>
<!-- Node3 -->
<g id="node3" class="node"><title>Node3</title>
<g id="a_node3"><a xlink:href="menu_2src_2menu_8c.html#a6e158a5dda1d308b5a56ee88538eb0fc" target="_top" xlink:title="menu_function">
<polygon fill="white" stroke="black" points="250,-0.5 250,-19.5 330,-19.5 330,-0.5 250,-0.5"/>
<text text-anchor="middle" x="290" y="-7.5" font-family="Helvetica,sans-Serif" font-size="10.00">menu_function</text>
</a>
</g>
</g>
<!-- Node2&#45;&gt;Node3 -->
<g id="edge2" class="edge"><title>Node2&#45;&gt;Node3</title>
<path fill="none" stroke="midnightblue" d="M224.428,-10C233.133,-10 241.846,-10 249.928,-10"/>
<polygon fill="midnightblue" stroke="midnightblue" points="224.251,-6.5001 214.251,-10 224.251,-13.5001 224.251,-6.5001"/>
</g>
<!-- Node4 -->
<g id="node4" class="node"><title>Node4</title>
<g id="a_node4"><a xlink:href="menu_2src_2menu_8c.html#a8509849c574fb30136ac9ec88081d47c" target="_top" xlink:title="menu_handler">
<polygon fill="white" stroke="black" points="366,-0.5 366,-19.5 443,-19.5 443,-0.5 366,-0.5"/>
<text text-anchor="middle" x="404.5" y="-7.5" font-family="Helvetica,sans-Serif" font-size="10.00">menu_handler</text>
</a>
</g>
</g>
<!-- Node3&#45;&gt;Node4 -->
<g id="edge3" class="edge"><title>Node3&#45;&gt;Node4</title>
<path fill="none" stroke="midnightblue" d="M340.262,-10C348.783,-10 357.52,-10 365.676,-10"/>
<polygon fill="midnightblue" stroke="midnightblue" points="340.031,-6.5001 330.031,-10 340.031,-13.5001 340.031,-6.5001"/>
</g>
<!-- Node5 -->
<g id="node5" class="node"><title>Node5</title>
<g id="a_node5"><a xlink:href="main_8c.html#a840291bc02cba5474a4cb46a9b9566fe" target="_top" xlink:title="main">
<polygon fill="white" stroke="black" points="479,-0.5 479,-19.5 517,-19.5 517,-0.5 479,-0.5"/>
<text text-anchor="middle" x="498" y="-7.5" font-family="Helvetica,sans-Serif" font-size="10.00">main</text>
</a>
</g>
</g>
<!-- Node4&#45;&gt;Node5 -->
<g id="edge4" class="edge"><title>Node4&#45;&gt;Node5</title>
<path fill="none" stroke="midnightblue" d="M453.362,-10C462.347,-10 471.223,-10 478.601,-10"/>
<polygon fill="midnightblue" stroke="midnightblue" points="453.245,-6.5001 443.245,-10 453.245,-13.5001 453.245,-6.5001"/>
</g>
</g>
</svg>
