<?xml version="1.0" encoding="UTF-8" standalone="no"?>
<!DOCTYPE svg PUBLIC "-//W3C//DTD SVG 1.1//EN"
 "http://www.w3.org/Graphics/SVG/1.1/DTD/svg11.dtd">
<!-- Generated by graphviz version 2.38.0 (20140413.2041)
 -->
<!-- Title: D:/GIT/fhradiov2/driver/src/opt3001.c Pages: 1 -->
<svg width="357pt" height="386pt"
 viewBox="0.00 0.00 356.50 386.00" xmlns="http://www.w3.org/2000/svg" xmlns:xlink="http://www.w3.org/1999/xlink">
<g id="graph0" class="graph" transform="scale(1 1) rotate(0) translate(4 382)">
<title>D:/GIT/fhradiov2/driver/src/opt3001.c</title>
<polygon fill="white" stroke="none" points="-4,4 -4,-382 352.5,-382 352.5,4 -4,4"/>
<!-- Node1 -->
<g id="node1" class="node"><title>Node1</title>
<polygon fill="#bfbfbf" stroke="black" points="0,-347.5 0,-377.5 110,-377.5 110,-347.5 0,-347.5"/>
<text text-anchor="start" x="8" y="-365.5" font-family="Helvetica,sans-Serif" font-size="10.00">D:/GIT/fhradiov2/driver</text>
<text text-anchor="middle" x="55" y="-354.5" font-family="Helvetica,sans-Serif" font-size="10.00">/src/opt3001.c</text>
</g>
<!-- Node2 -->
<g id="node2" class="node"><title>Node2</title>
<g id="a_node2"><a xlink:href="opt3001_8h.html" target="_top" xlink:title="driver/opt3001.h">
<polygon fill="white" stroke="black" points="12.5,-291.5 12.5,-310.5 97.5,-310.5 97.5,-291.5 12.5,-291.5"/>
<text text-anchor="middle" x="55" y="-298.5" font-family="Helvetica,sans-Serif" font-size="10.00">driver/opt3001.h</text>
</a>
</g>
</g>
<!-- Node1&#45;&gt;Node2 -->
<g id="edge1" class="edge"><title>Node1&#45;&gt;Node2</title>
<path fill="none" stroke="midnightblue" d="M55,-347.399C55,-339.466 55,-329.458 55,-320.858"/>
<polygon fill="midnightblue" stroke="midnightblue" points="58.5001,-320.658 55,-310.658 51.5001,-320.658 58.5001,-320.658"/>
</g>
<!-- Node3 -->
<g id="node3" class="node"><title>Node3</title>
<polygon fill="white" stroke="#bfbfbf" points="83.5,-0.5 83.5,-19.5 132.5,-19.5 132.5,-0.5 83.5,-0.5"/>
<text text-anchor="middle" x="108" y="-7.5" font-family="Helvetica,sans-Serif" font-size="10.00">stdint.h</text>
</g>
<!-- Node2&#45;&gt;Node3 -->
<g id="edge2" class="edge"><title>Node2&#45;&gt;Node3</title>
<path fill="none" stroke="midnightblue" d="M47.6929,-291.231C33.591,-273.385 4,-231.047 4,-190 4,-190 4,-190 4,-132 4,-83.5508 52.5472,-44.8225 83.304,-25.148"/>
<polygon fill="midnightblue" stroke="midnightblue" points="85.5268,-27.8895 92.2046,-19.6641 81.8549,-21.9298 85.5268,-27.8895"/>
</g>
<!-- Node4 -->
<g id="node4" class="node"><title>Node4</title>
<g id="a_node4"><a xlink:href="i2c_8h.html" target="_top" xlink:title="I2C implemtation for MSP430G2553, interrupt based. &#160;&#160;This implemtation based on examples from Texas I...">
<polygon fill="white" stroke="black" points="74.5,-235.5 74.5,-254.5 137.5,-254.5 137.5,-235.5 74.5,-235.5"/>
<text text-anchor="middle" x="106" y="-242.5" font-family="Helvetica,sans-Serif" font-size="10.00">driver/i2c.h</text>
</a>
</g>
</g>
<!-- Node2&#45;&gt;Node4 -->
<g id="edge3" class="edge"><title>Node2&#45;&gt;Node4</title>
<path fill="none" stroke="midnightblue" d="M63.4216,-291.083C70.8482,-283.22 81.8517,-271.569 90.8122,-262.081"/>
<polygon fill="midnightblue" stroke="midnightblue" points="93.4134,-264.424 97.7351,-254.751 88.3243,-259.618 93.4134,-264.424"/>
</g>
<!-- Node4&#45;&gt;Node3 -->
<g id="edge4" class="edge"><title>Node4&#45;&gt;Node3</title>
<path fill="none" stroke="midnightblue" d="M102.004,-235.33C94.3359,-218.159 77.802,-178.421 72,-143 65.1493,-101.177 85.3341,-53.5337 98.1975,-28.4981"/>
<polygon fill="midnightblue" stroke="midnightblue" points="101.374,-29.98 103.008,-19.5118 95.2026,-26.6765 101.374,-29.98"/>
</g>
<!-- Node5 -->
<g id="node5" class="node"><title>Node5</title>
<polygon fill="white" stroke="#bfbfbf" points="81.5,-123.5 81.5,-142.5 140.5,-142.5 140.5,-123.5 81.5,-123.5"/>
<text text-anchor="middle" x="111" y="-130.5" font-family="Helvetica,sans-Serif" font-size="10.00">msp430.h</text>
</g>
<!-- Node4&#45;&gt;Node5 -->
<g id="edge5" class="edge"><title>Node4&#45;&gt;Node5</title>
<path fill="none" stroke="midnightblue" d="M103.715,-235.153C100.785,-222.632 96.375,-199.032 99,-179 100.156,-170.181 102.534,-160.633 104.87,-152.61"/>
<polygon fill="midnightblue" stroke="midnightblue" points="108.285,-153.415 107.912,-142.827 101.601,-151.337 108.285,-153.415"/>
</g>
<!-- Node6 -->
<g id="node6" class="node"><title>Node6</title>
<polygon fill="white" stroke="#bfbfbf" points="108,-179.5 108,-198.5 156,-198.5 156,-179.5 108,-179.5"/>
<text text-anchor="middle" x="132" y="-186.5" font-family="Helvetica,sans-Serif" font-size="10.00">stdlib.h</text>
</g>
<!-- Node4&#45;&gt;Node6 -->
<g id="edge6" class="edge"><title>Node4&#45;&gt;Node6</title>
<path fill="none" stroke="midnightblue" d="M110.293,-235.083C113.852,-227.691 119.022,-216.953 123.424,-207.811"/>
<polygon fill="midnightblue" stroke="midnightblue" points="126.602,-209.279 127.787,-198.751 120.295,-206.243 126.602,-209.279"/>
</g>
<!-- Node7 -->
<g id="node7" class="node"><title>Node7</title>
<polygon fill="white" stroke="#bfbfbf" points="174,-179.5 174,-198.5 226,-198.5 226,-179.5 174,-179.5"/>
<text text-anchor="middle" x="200" y="-186.5" font-family="Helvetica,sans-Serif" font-size="10.00">stdarg.h</text>
</g>
<!-- Node4&#45;&gt;Node7 -->
<g id="edge7" class="edge"><title>Node4&#45;&gt;Node7</title>
<path fill="none" stroke="midnightblue" d="M121.103,-235.324C135.903,-226.822 158.694,-213.729 175.982,-203.797"/>
<polygon fill="midnightblue" stroke="midnightblue" points="178.007,-206.671 184.935,-198.655 174.52,-200.601 178.007,-206.671"/>
</g>
<!-- Node8 -->
<g id="node8" class="node"><title>Node8</title>
<g id="a_node8"><a xlink:href="timer_8h.html" target="_top" xlink:title="driver/timer.h">
<polygon fill="white" stroke="black" points="244,-179.5 244,-198.5 316,-198.5 316,-179.5 244,-179.5"/>
<text text-anchor="middle" x="280" y="-186.5" font-family="Helvetica,sans-Serif" font-size="10.00">driver/timer.h</text>
</a>
</g>
</g>
<!-- Node4&#45;&gt;Node8 -->
<g id="edge8" class="edge"><title>Node4&#45;&gt;Node8</title>
<path fill="none" stroke="midnightblue" d="M133.571,-235.444C163.097,-226.28 210.118,-211.688 242.883,-201.519"/>
<polygon fill="midnightblue" stroke="midnightblue" points="244.045,-204.823 252.558,-198.516 241.97,-198.138 244.045,-204.823"/>
</g>
<!-- Node8&#45;&gt;Node3 -->
<g id="edge10" class="edge"><title>Node8&#45;&gt;Node3</title>
<path fill="none" stroke="midnightblue" d="M257.075,-179.365C239.028,-171.761 214.004,-159.35 196,-143 158.756,-109.177 129.858,-56.4167 116.358,-28.9641"/>
<polygon fill="midnightblue" stroke="midnightblue" points="119.432,-27.2785 111.953,-19.774 113.119,-30.3044 119.432,-27.2785"/>
</g>
<!-- Node8&#45;&gt;Node5 -->
<g id="edge9" class="edge"><title>Node8&#45;&gt;Node5</title>
<path fill="none" stroke="midnightblue" d="M253.221,-179.444C224.667,-170.32 179.267,-155.813 147.463,-145.651"/>
<polygon fill="midnightblue" stroke="midnightblue" points="148.244,-142.226 137.653,-142.516 146.114,-148.894 148.244,-142.226"/>
</g>
<!-- Node9 -->
<g id="node9" class="node"><title>Node9</title>
<g id="a_node9"><a xlink:href="radio__configuration_8h.html" target="_top" xlink:title="settings/radio_configuration.h">
<polygon fill="white" stroke="black" points="205.5,-123.5 205.5,-142.5 348.5,-142.5 348.5,-123.5 205.5,-123.5"/>
<text text-anchor="middle" x="277" y="-130.5" font-family="Helvetica,sans-Serif" font-size="10.00">settings/radio_configuration.h</text>
</a>
</g>
</g>
<!-- Node8&#45;&gt;Node9 -->
<g id="edge11" class="edge"><title>Node8&#45;&gt;Node9</title>
<path fill="none" stroke="midnightblue" d="M279.505,-179.083C279.111,-172.006 278.548,-161.861 278.055,-152.986"/>
<polygon fill="midnightblue" stroke="midnightblue" points="281.536,-152.542 277.486,-142.751 274.546,-152.93 281.536,-152.542"/>
</g>
<!-- Node10 -->
<g id="node10" class="node"><title>Node10</title>
<g id="a_node10"><a xlink:href="si4735__cmd__prop_8h.html" target="_top" xlink:title="driver/include/si4735\l_cmd_prop.h">
<polygon fill="white" stroke="black" points="212,-56.5 212,-86.5 316,-86.5 316,-56.5 212,-56.5"/>
<text text-anchor="start" x="220" y="-74.5" font-family="Helvetica,sans-Serif" font-size="10.00">driver/include/si4735</text>
<text text-anchor="middle" x="264" y="-63.5" font-family="Helvetica,sans-Serif" font-size="10.00">_cmd_prop.h</text>
</a>
</g>
</g>
<!-- Node9&#45;&gt;Node10 -->
<g id="edge12" class="edge"><title>Node9&#45;&gt;Node10</title>
<path fill="none" stroke="midnightblue" d="M275.137,-123.475C273.591,-116.396 271.313,-105.97 269.22,-96.3896"/>
<polygon fill="midnightblue" stroke="midnightblue" points="272.618,-95.5454 267.064,-86.523 265.779,-97.0396 272.618,-95.5454"/>
</g>
<!-- Node10&#45;&gt;Node3 -->
<g id="edge13" class="edge"><title>Node10&#45;&gt;Node3</title>
<path fill="none" stroke="midnightblue" d="M227.03,-56.3993C200.622,-46.3271 165.443,-32.9093 140.188,-23.2769"/>
<polygon fill="midnightblue" stroke="midnightblue" points="141.29,-19.9513 130.699,-19.6578 138.796,-26.4917 141.29,-19.9513"/>
</g>
</g>
</svg>
