<?xml version="1.0" encoding="UTF-8" standalone="no"?>
<!DOCTYPE svg PUBLIC "-//W3C//DTD SVG 1.1//EN"
 "http://www.w3.org/Graphics/SVG/1.1/DTD/svg11.dtd">
<!-- Generated by graphviz version 2.38.0 (20140413.2041)
 -->
<!-- Title: driver/src/pca9534.c Pages: 1 -->
<svg width="354pt" height="375pt"
 viewBox="0.00 0.00 353.50 375.00" xmlns="http://www.w3.org/2000/svg" xmlns:xlink="http://www.w3.org/1999/xlink">
<g id="graph0" class="graph" transform="scale(1 1) rotate(0) translate(4 371)">
<title>driver/src/pca9534.c</title>
<polygon fill="white" stroke="none" points="-4,4 -4,-371 349.5,-371 349.5,4 -4,4"/>
<!-- Node1 -->
<g id="node1" class="node"><title>Node1</title>
<polygon fill="#bfbfbf" stroke="black" points="0,-347.5 0,-366.5 104,-366.5 104,-347.5 0,-347.5"/>
<text text-anchor="middle" x="52" y="-354.5" font-family="Helvetica,sans-Serif" font-size="10.00">driver/src/pca9534.c</text>
</g>
<!-- Node2 -->
<g id="node2" class="node"><title>Node2</title>
<g id="a_node2"><a xlink:href="pca9534_8h.html" target="_top" xlink:title="driver/pca9534.h">
<polygon fill="white" stroke="black" points="8.5,-291.5 8.5,-310.5 95.5,-310.5 95.5,-291.5 8.5,-291.5"/>
<text text-anchor="middle" x="52" y="-298.5" font-family="Helvetica,sans-Serif" font-size="10.00">driver/pca9534.h</text>
</a>
</g>
</g>
<!-- Node1&#45;&gt;Node2 -->
<g id="edge1" class="edge"><title>Node1&#45;&gt;Node2</title>
<path fill="none" stroke="midnightblue" d="M52,-347.083C52,-340.006 52,-329.861 52,-320.986"/>
<polygon fill="midnightblue" stroke="midnightblue" points="55.5001,-320.751 52,-310.751 48.5001,-320.751 55.5001,-320.751"/>
</g>
<!-- Node3 -->
<g id="node3" class="node"><title>Node3</title>
<polygon fill="white" stroke="#bfbfbf" points="80.5,-0.5 80.5,-19.5 129.5,-19.5 129.5,-0.5 80.5,-0.5"/>
<text text-anchor="middle" x="105" y="-7.5" font-family="Helvetica,sans-Serif" font-size="10.00">stdint.h</text>
</g>
<!-- Node2&#45;&gt;Node3 -->
<g id="edge2" class="edge"><title>Node2&#45;&gt;Node3</title>
<path fill="none" stroke="midnightblue" d="M44.6929,-291.231C30.591,-273.385 1,-231.047 1,-190 1,-190 1,-190 1,-132 1,-83.5508 49.5472,-44.8225 80.304,-25.148"/>
<polygon fill="midnightblue" stroke="midnightblue" points="82.5268,-27.8895 89.2046,-19.6641 78.8549,-21.9298 82.5268,-27.8895"/>
</g>
<!-- Node4 -->
<g id="node4" class="node"><title>Node4</title>
<g id="a_node4"><a xlink:href="i2c_8h.html" target="_top" xlink:title="I2C implemtation for MSP430G2553, interrupt based. &#160;&#160;This implemtation based on examples from Texas I...">
<polygon fill="white" stroke="black" points="71.5,-235.5 71.5,-254.5 134.5,-254.5 134.5,-235.5 71.5,-235.5"/>
<text text-anchor="middle" x="103" y="-242.5" font-family="Helvetica,sans-Serif" font-size="10.00">driver/i2c.h</text>
</a>
</g>
</g>
<!-- Node2&#45;&gt;Node4 -->
<g id="edge3" class="edge"><title>Node2&#45;&gt;Node4</title>
<path fill="none" stroke="midnightblue" d="M60.4216,-291.083C67.8482,-283.22 78.8517,-271.569 87.8122,-262.081"/>
<polygon fill="midnightblue" stroke="midnightblue" points="90.4134,-264.424 94.7351,-254.751 85.3243,-259.618 90.4134,-264.424"/>
</g>
<!-- Node4&#45;&gt;Node3 -->
<g id="edge4" class="edge"><title>Node4&#45;&gt;Node3</title>
<path fill="none" stroke="midnightblue" d="M99.0041,-235.33C91.3359,-218.159 74.802,-178.421 69,-143 62.1493,-101.177 82.3341,-53.5337 95.1975,-28.4981"/>
<polygon fill="midnightblue" stroke="midnightblue" points="98.3741,-29.98 100.008,-19.5118 92.2026,-26.6765 98.3741,-29.98"/>
</g>
<!-- Node5 -->
<g id="node5" class="node"><title>Node5</title>
<polygon fill="white" stroke="#bfbfbf" points="78.5,-123.5 78.5,-142.5 137.5,-142.5 137.5,-123.5 78.5,-123.5"/>
<text text-anchor="middle" x="108" y="-130.5" font-family="Helvetica,sans-Serif" font-size="10.00">msp430.h</text>
</g>
<!-- Node4&#45;&gt;Node5 -->
<g id="edge5" class="edge"><title>Node4&#45;&gt;Node5</title>
<path fill="none" stroke="midnightblue" d="M100.715,-235.153C97.7846,-222.632 93.375,-199.032 96,-179 97.1556,-170.181 99.5337,-160.633 101.87,-152.61"/>
<polygon fill="midnightblue" stroke="midnightblue" points="105.285,-153.415 104.912,-142.827 98.6009,-151.337 105.285,-153.415"/>
</g>
<!-- Node6 -->
<g id="node6" class="node"><title>Node6</title>
<polygon fill="white" stroke="#bfbfbf" points="105,-179.5 105,-198.5 153,-198.5 153,-179.5 105,-179.5"/>
<text text-anchor="middle" x="129" y="-186.5" font-family="Helvetica,sans-Serif" font-size="10.00">stdlib.h</text>
</g>
<!-- Node4&#45;&gt;Node6 -->
<g id="edge6" class="edge"><title>Node4&#45;&gt;Node6</title>
<path fill="none" stroke="midnightblue" d="M107.293,-235.083C110.852,-227.691 116.022,-216.953 120.424,-207.811"/>
<polygon fill="midnightblue" stroke="midnightblue" points="123.602,-209.279 124.787,-198.751 117.295,-206.243 123.602,-209.279"/>
</g>
<!-- Node7 -->
<g id="node7" class="node"><title>Node7</title>
<polygon fill="white" stroke="#bfbfbf" points="171,-179.5 171,-198.5 223,-198.5 223,-179.5 171,-179.5"/>
<text text-anchor="middle" x="197" y="-186.5" font-family="Helvetica,sans-Serif" font-size="10.00">stdarg.h</text>
</g>
<!-- Node4&#45;&gt;Node7 -->
<g id="edge7" class="edge"><title>Node4&#45;&gt;Node7</title>
<path fill="none" stroke="midnightblue" d="M118.103,-235.324C132.903,-226.822 155.694,-213.729 172.982,-203.797"/>
<polygon fill="midnightblue" stroke="midnightblue" points="175.007,-206.671 181.935,-198.655 171.52,-200.601 175.007,-206.671"/>
</g>
<!-- Node8 -->
<g id="node8" class="node"><title>Node8</title>
<g id="a_node8"><a xlink:href="timer_8h.html" target="_top" xlink:title="driver/timer.h">
<polygon fill="white" stroke="black" points="241,-179.5 241,-198.5 313,-198.5 313,-179.5 241,-179.5"/>
<text text-anchor="middle" x="277" y="-186.5" font-family="Helvetica,sans-Serif" font-size="10.00">driver/timer.h</text>
</a>
</g>
</g>
<!-- Node4&#45;&gt;Node8 -->
<g id="edge8" class="edge"><title>Node4&#45;&gt;Node8</title>
<path fill="none" stroke="midnightblue" d="M130.571,-235.444C160.097,-226.28 207.118,-211.688 239.883,-201.519"/>
<polygon fill="midnightblue" stroke="midnightblue" points="241.045,-204.823 249.558,-198.516 238.97,-198.138 241.045,-204.823"/>
</g>
<!-- Node8&#45;&gt;Node3 -->
<g id="edge10" class="edge"><title>Node8&#45;&gt;Node3</title>
<path fill="none" stroke="midnightblue" d="M254.075,-179.365C236.028,-171.761 211.004,-159.35 193,-143 155.756,-109.177 126.858,-56.4167 113.358,-28.9641"/>
<polygon fill="midnightblue" stroke="midnightblue" points="116.432,-27.2785 108.953,-19.774 110.119,-30.3044 116.432,-27.2785"/>
</g>
<!-- Node8&#45;&gt;Node5 -->
<g id="edge9" class="edge"><title>Node8&#45;&gt;Node5</title>
<path fill="none" stroke="midnightblue" d="M250.221,-179.444C221.667,-170.32 176.267,-155.813 144.463,-145.651"/>
<polygon fill="midnightblue" stroke="midnightblue" points="145.244,-142.226 134.653,-142.516 143.114,-148.894 145.244,-142.226"/>
</g>
<!-- Node9 -->
<g id="node9" class="node"><title>Node9</title>
<g id="a_node9"><a xlink:href="radio__configuration_8h.html" target="_top" xlink:title="settings/radio_configuration.h">
<polygon fill="white" stroke="black" points="202.5,-123.5 202.5,-142.5 345.5,-142.5 345.5,-123.5 202.5,-123.5"/>
<text text-anchor="middle" x="274" y="-130.5" font-family="Helvetica,sans-Serif" font-size="10.00">settings/radio_configuration.h</text>
</a>
</g>
</g>
<!-- Node8&#45;&gt;Node9 -->
<g id="edge11" class="edge"><title>Node8&#45;&gt;Node9</title>
<path fill="none" stroke="midnightblue" d="M276.505,-179.083C276.111,-172.006 275.548,-161.861 275.055,-152.986"/>
<polygon fill="midnightblue" stroke="midnightblue" points="278.536,-152.542 274.486,-142.751 271.546,-152.93 278.536,-152.542"/>
</g>
<!-- Node10 -->
<g id="node10" class="node"><title>Node10</title>
<g id="a_node10"><a xlink:href="si4735__cmd__prop_8h.html" target="_top" xlink:title="driver/include/si4735\l_cmd_prop.h">
<polygon fill="white" stroke="black" points="209,-56.5 209,-86.5 313,-86.5 313,-56.5 209,-56.5"/>
<text text-anchor="start" x="217" y="-74.5" font-family="Helvetica,sans-Serif" font-size="10.00">driver/include/si4735</text>
<text text-anchor="middle" x="261" y="-63.5" font-family="Helvetica,sans-Serif" font-size="10.00">_cmd_prop.h</text>
</a>
</g>
</g>
<!-- Node9&#45;&gt;Node10 -->
<g id="edge12" class="edge"><title>Node9&#45;&gt;Node10</title>
<path fill="none" stroke="midnightblue" d="M272.137,-123.475C270.591,-116.396 268.313,-105.97 266.22,-96.3896"/>
<polygon fill="midnightblue" stroke="midnightblue" points="269.618,-95.5454 264.064,-86.523 262.779,-97.0396 269.618,-95.5454"/>
</g>
<!-- Node10&#45;&gt;Node3 -->
<g id="edge13" class="edge"><title>Node10&#45;&gt;Node3</title>
<path fill="none" stroke="midnightblue" d="M224.03,-56.3993C197.622,-46.3271 162.443,-32.9093 137.188,-23.2769"/>
<polygon fill="midnightblue" stroke="midnightblue" points="138.29,-19.9513 127.699,-19.6578 135.796,-26.4917 138.29,-19.9513"/>
</g>
</g>
</svg>
