<?xml version="1.0" encoding="UTF-8" standalone="no"?>
<!DOCTYPE svg PUBLIC "-//W3C//DTD SVG 1.1//EN"
 "http://www.w3.org/Graphics/SVG/1.1/DTD/svg11.dtd">
<!-- Generated by graphviz version 2.38.0 (20140413.2041)
 -->
<!-- Title: driver/pca9530.h Pages: 1 -->
<svg width="279pt" height="140pt"
 viewBox="0.00 0.00 279.00 140.00" xmlns="http://www.w3.org/2000/svg" xmlns:xlink="http://www.w3.org/1999/xlink">
<g id="graph0" class="graph" transform="scale(1 1) rotate(0) translate(4 136)">
<title>driver/pca9530.h</title>
<polygon fill="white" stroke="none" points="-4,4 -4,-136 275,-136 275,4 -4,4"/>
<!-- Node1 -->
<g id="node1" class="node"><title>Node1</title>
<polygon fill="#bfbfbf" stroke="black" points="88.5,-112.5 88.5,-131.5 175.5,-131.5 175.5,-112.5 88.5,-112.5"/>
<text text-anchor="middle" x="132" y="-119.5" font-family="Helvetica,sans-Serif" font-size="10.00">driver/pca9530.h</text>
</g>
<!-- Node2 -->
<g id="node2" class="node"><title>Node2</title>
<g id="a_node2"><a xlink:href="pca9530_8c.html" target="_top" xlink:title="driver/src/pca9530.c">
<polygon fill="white" stroke="black" points="0,-56.5 0,-75.5 104,-75.5 104,-56.5 0,-56.5"/>
<text text-anchor="middle" x="52" y="-63.5" font-family="Helvetica,sans-Serif" font-size="10.00">driver/src/pca9530.c</text>
</a>
</g>
</g>
<!-- Node1&#45;&gt;Node2 -->
<g id="edge1" class="edge"><title>Node1&#45;&gt;Node2</title>
<path fill="none" stroke="midnightblue" d="M110.699,-106.622C96.085,-96.7574 77.1732,-83.9919 64.8215,-75.6545"/>
<polygon fill="midnightblue" stroke="midnightblue" points="108.9,-109.63 119.147,-112.324 112.816,-103.828 108.9,-109.63"/>
</g>
<!-- Node3 -->
<g id="node3" class="node"><title>Node3</title>
<g id="a_node3"><a xlink:href="main_8c.html" target="_top" xlink:title="main.c">
<polygon fill="white" stroke="black" points="109,-0.5 109,-19.5 155,-19.5 155,-0.5 109,-0.5"/>
<text text-anchor="middle" x="132" y="-7.5" font-family="Helvetica,sans-Serif" font-size="10.00">main.c</text>
</a>
</g>
</g>
<!-- Node1&#45;&gt;Node3 -->
<g id="edge2" class="edge"><title>Node1&#45;&gt;Node3</title>
<path fill="none" stroke="midnightblue" d="M132,-102.348C132,-78.2538 132,-37.3079 132,-19.5914"/>
<polygon fill="midnightblue" stroke="midnightblue" points="128.5,-102.368 132,-112.368 135.5,-102.369 128.5,-102.368"/>
</g>
<!-- Node4 -->
<g id="node4" class="node"><title>Node4</title>
<g id="a_node4"><a xlink:href="radio_8h.html" target="_top" xlink:title="system/radio.h">
<polygon fill="white" stroke="black" points="160.5,-56.5 160.5,-75.5 241.5,-75.5 241.5,-56.5 160.5,-56.5"/>
<text text-anchor="middle" x="201" y="-63.5" font-family="Helvetica,sans-Serif" font-size="10.00">system/radio.h</text>
</a>
</g>
</g>
<!-- Node1&#45;&gt;Node4 -->
<g id="edge3" class="edge"><title>Node1&#45;&gt;Node4</title>
<path fill="none" stroke="midnightblue" d="M151.038,-106.101C163.456,-96.3824 179.243,-84.0269 189.712,-75.8339"/>
<polygon fill="midnightblue" stroke="midnightblue" points="148.804,-103.405 143.086,-112.324 153.118,-108.917 148.804,-103.405"/>
</g>
<!-- Node4&#45;&gt;Node3 -->
<g id="edge4" class="edge"><title>Node4&#45;&gt;Node3</title>
<path fill="none" stroke="midnightblue" d="M181.962,-50.1008C169.544,-40.3824 153.757,-28.0269 143.288,-19.8339"/>
<polygon fill="midnightblue" stroke="midnightblue" points="179.882,-52.9171 189.914,-56.324 184.196,-47.4046 179.882,-52.9171"/>
</g>
<!-- Node5 -->
<g id="node5" class="node"><title>Node5</title>
<g id="a_node5"><a xlink:href="radio_8c.html" target="_top" xlink:title="system/src/radio.c">
<polygon fill="white" stroke="black" points="173,-0.5 173,-19.5 271,-19.5 271,-0.5 173,-0.5"/>
<text text-anchor="middle" x="222" y="-7.5" font-family="Helvetica,sans-Serif" font-size="10.00">system/src/radio.c</text>
</a>
</g>
</g>
<!-- Node4&#45;&gt;Node5 -->
<g id="edge5" class="edge"><title>Node4&#45;&gt;Node5</title>
<path fill="none" stroke="midnightblue" d="M208.121,-46.6897C211.66,-37.589 215.772,-27.0141 218.597,-19.7511"/>
<polygon fill="midnightblue" stroke="midnightblue" points="204.83,-45.4944 204.468,-56.083 211.354,-48.0315 204.83,-45.4944"/>
</g>
</g>
</svg>
