<?xml version="1.0" encoding="UTF-8" standalone="no"?>
<!DOCTYPE svg PUBLIC "-//W3C//DTD SVG 1.1//EN"
 "http://www.w3.org/Graphics/SVG/1.1/DTD/svg11.dtd">
<!-- Generated by graphviz version 2.38.0 (20140413.2041)
 -->
<!-- Title: D:/GIT/fhradiov2/driver/pca9530.h Pages: 1 -->
<svg width="1150pt" height="307pt"
 viewBox="0.00 0.00 1150.00 307.00" xmlns="http://www.w3.org/2000/svg" xmlns:xlink="http://www.w3.org/1999/xlink">
<g id="graph0" class="graph" transform="scale(1 1) rotate(0) translate(4 303)">
<title>D:/GIT/fhradiov2/driver/pca9530.h</title>
<polygon fill="white" stroke="none" points="-4,4 -4,-303 1146,-303 1146,4 -4,4"/>
<!-- Node1 -->
<g id="node1" class="node"><title>Node1</title>
<polygon fill="#bfbfbf" stroke="black" points="223,-268.5 223,-298.5 333,-298.5 333,-268.5 223,-268.5"/>
<text text-anchor="start" x="231" y="-286.5" font-family="Helvetica,sans-Serif" font-size="10.00">D:/GIT/fhradiov2/driver</text>
<text text-anchor="middle" x="278" y="-275.5" font-family="Helvetica,sans-Serif" font-size="10.00">/pca9530.h</text>
</g>
<!-- Node2 -->
<g id="node2" class="node"><title>Node2</title>
<g id="a_node2"><a xlink:href="pca9530_8c.html" target="_top" xlink:title="D:/GIT/fhradiov2/driver\l/src/pca9530.c">
<polygon fill="white" stroke="black" points="140,-201.5 140,-231.5 250,-231.5 250,-201.5 140,-201.5"/>
<text text-anchor="start" x="148" y="-219.5" font-family="Helvetica,sans-Serif" font-size="10.00">D:/GIT/fhradiov2/driver</text>
<text text-anchor="middle" x="195" y="-208.5" font-family="Helvetica,sans-Serif" font-size="10.00">/src/pca9530.c</text>
</a>
</g>
</g>
<!-- Node1&#45;&gt;Node2 -->
<g id="edge1" class="edge"><title>Node1&#45;&gt;Node2</title>
<path fill="none" stroke="midnightblue" d="M252.037,-262.168C239.345,-252.228 224.388,-240.514 212.975,-231.577"/>
<polygon fill="midnightblue" stroke="midnightblue" points="249.959,-264.986 259.99,-268.396 254.275,-259.475 249.959,-264.986"/>
</g>
<!-- Node3 -->
<g id="node3" class="node"><title>Node3</title>
<g id="a_node3"><a xlink:href="main_8c.html" target="_top" xlink:title="D:/GIT/fhradiov2/main.c">
<polygon fill="white" stroke="black" points="260.5,-73 260.5,-92 377.5,-92 377.5,-73 260.5,-73"/>
<text text-anchor="middle" x="319" y="-80" font-family="Helvetica,sans-Serif" font-size="10.00">D:/GIT/fhradiov2/main.c</text>
</a>
</g>
</g>
<!-- Node1&#45;&gt;Node3 -->
<g id="edge2" class="edge"><title>Node1&#45;&gt;Node3</title>
<path fill="none" stroke="midnightblue" d="M282.997,-258.244C292.149,-213.823 311.209,-121.314 317.175,-92.3601"/>
<polygon fill="midnightblue" stroke="midnightblue" points="279.539,-257.688 280.949,-268.188 286.395,-259.1 279.539,-257.688"/>
</g>
<!-- Node4 -->
<g id="node4" class="node"><title>Node4</title>
<g id="a_node4"><a xlink:href="radio_8h.html" target="_top" xlink:title="D:/GIT/fhradiov2/system\l/radio.h">
<polygon fill="white" stroke="black" points="482,-201.5 482,-231.5 602,-231.5 602,-201.5 482,-201.5"/>
<text text-anchor="start" x="490" y="-219.5" font-family="Helvetica,sans-Serif" font-size="10.00">D:/GIT/fhradiov2/system</text>
<text text-anchor="middle" x="542" y="-208.5" font-family="Helvetica,sans-Serif" font-size="10.00">/radio.h</text>
</a>
</g>
</g>
<!-- Node1&#45;&gt;Node4 -->
<g id="edge3" class="edge"><title>Node1&#45;&gt;Node4</title>
<path fill="none" stroke="midnightblue" d="M342.92,-266.516C386.365,-255.819 443.013,-241.872 484.768,-231.591"/>
<polygon fill="midnightblue" stroke="midnightblue" points="341.895,-263.164 333.022,-268.953 343.568,-269.961 341.895,-263.164"/>
</g>
<!-- Node4&#45;&gt;Node3 -->
<g id="edge4" class="edge"><title>Node4&#45;&gt;Node3</title>
<path fill="none" stroke="midnightblue" d="M471.868,-206.565C419.48,-198.439 353.817,-184.692 335,-165 315.774,-144.88 316.443,-108.775 317.937,-92.2225"/>
<polygon fill="midnightblue" stroke="midnightblue" points="471.406,-210.034 481.816,-208.066 472.45,-203.113 471.406,-210.034"/>
</g>
<!-- Node5 -->
<g id="node5" class="node"><title>Node5</title>
<g id="a_node5"><a xlink:href="menu_8h.html" target="_top" xlink:title="D:/GIT/fhradiov2/menu\l/menu.h">
<polygon fill="white" stroke="black" points="133,-134.5 133,-164.5 245,-164.5 245,-134.5 133,-134.5"/>
<text text-anchor="start" x="141" y="-152.5" font-family="Helvetica,sans-Serif" font-size="10.00">D:/GIT/fhradiov2/menu</text>
<text text-anchor="middle" x="189" y="-141.5" font-family="Helvetica,sans-Serif" font-size="10.00">/menu.h</text>
</a>
</g>
</g>
<!-- Node4&#45;&gt;Node5 -->
<g id="edge5" class="edge"><title>Node4&#45;&gt;Node5</title>
<path fill="none" stroke="midnightblue" d="M471.787,-203.56C405.187,-191.642 306.515,-173.466 245.026,-161.785"/>
<polygon fill="midnightblue" stroke="midnightblue" points="471.322,-207.032 481.781,-205.344 472.552,-200.141 471.322,-207.032"/>
</g>
<!-- Node9 -->
<g id="node9" class="node"><title>Node9</title>
<g id="a_node9"><a xlink:href="radio__display_8h.html" target="_top" xlink:title="D:/GIT/fhradiov2/system\l/radio_display.h">
<polygon fill="white" stroke="black" points="758,-134.5 758,-164.5 878,-164.5 878,-134.5 758,-134.5"/>
<text text-anchor="start" x="766" y="-152.5" font-family="Helvetica,sans-Serif" font-size="10.00">D:/GIT/fhradiov2/system</text>
<text text-anchor="middle" x="818" y="-141.5" font-family="Helvetica,sans-Serif" font-size="10.00">/radio_display.h</text>
</a>
</g>
</g>
<!-- Node4&#45;&gt;Node9 -->
<g id="edge12" class="edge"><title>Node4&#45;&gt;Node9</title>
<path fill="none" stroke="midnightblue" d="M605.696,-199.097C651.482,-188.033 712.747,-173.639 757.735,-163.395"/>
<polygon fill="midnightblue" stroke="midnightblue" points="604.775,-195.719 595.88,-201.476 606.423,-202.522 604.775,-195.719"/>
</g>
<!-- Node11 -->
<g id="node11" class="node"><title>Node11</title>
<g id="a_node11"><a xlink:href="rds_8h.html" target="_top" xlink:title="D:/GIT/fhradiov2/system\l/rds.h">
<polygon fill="white" stroke="black" points="344,-134.5 344,-164.5 464,-164.5 464,-134.5 344,-134.5"/>
<text text-anchor="start" x="352" y="-152.5" font-family="Helvetica,sans-Serif" font-size="10.00">D:/GIT/fhradiov2/system</text>
<text text-anchor="middle" x="404" y="-141.5" font-family="Helvetica,sans-Serif" font-size="10.00">/rds.h</text>
</a>
</g>
</g>
<!-- Node4&#45;&gt;Node11 -->
<g id="edge15" class="edge"><title>Node4&#45;&gt;Node11</title>
<path fill="none" stroke="midnightblue" d="M503,-197.131C481.073,-186.802 454.126,-174.11 433.886,-164.577"/>
<polygon fill="midnightblue" stroke="midnightblue" points="501.518,-200.301 512.056,-201.396 504.501,-193.968 501.518,-200.301"/>
</g>
<!-- Node13 -->
<g id="node13" class="node"><title>Node13</title>
<g id="a_node13"><a xlink:href="rsq_8h.html" target="_top" xlink:title="D:/GIT/fhradiov2/system\l/rsq.h">
<polygon fill="white" stroke="black" points="482,-134.5 482,-164.5 602,-164.5 602,-134.5 482,-134.5"/>
<text text-anchor="start" x="490" y="-152.5" font-family="Helvetica,sans-Serif" font-size="10.00">D:/GIT/fhradiov2/system</text>
<text text-anchor="middle" x="542" y="-141.5" font-family="Helvetica,sans-Serif" font-size="10.00">/rsq.h</text>
</a>
</g>
</g>
<!-- Node4&#45;&gt;Node13 -->
<g id="edge18" class="edge"><title>Node4&#45;&gt;Node13</title>
<path fill="none" stroke="midnightblue" d="M542,-191.108C542,-182.154 542,-172.323 542,-164.577"/>
<polygon fill="midnightblue" stroke="midnightblue" points="538.5,-191.396 542,-201.396 545.5,-191.396 538.5,-191.396"/>
</g>
<!-- Node15 -->
<g id="node15" class="node"><title>Node15</title>
<g id="a_node15"><a xlink:href="radio_8c.html" target="_top" xlink:title="D:/GIT/fhradiov2/system\l/src/radio.c">
<polygon fill="white" stroke="black" points="620,-134.5 620,-164.5 740,-164.5 740,-134.5 620,-134.5"/>
<text text-anchor="start" x="628" y="-152.5" font-family="Helvetica,sans-Serif" font-size="10.00">D:/GIT/fhradiov2/system</text>
<text text-anchor="middle" x="680" y="-141.5" font-family="Helvetica,sans-Serif" font-size="10.00">/src/radio.c</text>
</a>
</g>
</g>
<!-- Node4&#45;&gt;Node15 -->
<g id="edge21" class="edge"><title>Node4&#45;&gt;Node15</title>
<path fill="none" stroke="midnightblue" d="M581,-197.131C602.927,-186.802 629.874,-174.11 650.114,-164.577"/>
<polygon fill="midnightblue" stroke="midnightblue" points="579.499,-193.968 571.944,-201.396 582.482,-200.301 579.499,-193.968"/>
</g>
<!-- Node16 -->
<g id="node16" class="node"><title>Node16</title>
<g id="a_node16"><a xlink:href="station__list__struct_8h.html" target="_top" xlink:title="D:/GIT/fhradiov2/system\l/station_list_struct.h">
<polygon fill="white" stroke="black" points="896,-134.5 896,-164.5 1016,-164.5 1016,-134.5 896,-134.5"/>
<text text-anchor="start" x="904" y="-152.5" font-family="Helvetica,sans-Serif" font-size="10.00">D:/GIT/fhradiov2/system</text>
<text text-anchor="middle" x="956" y="-141.5" font-family="Helvetica,sans-Serif" font-size="10.00">/station_list_struct.h</text>
</a>
</g>
</g>
<!-- Node4&#45;&gt;Node16 -->
<g id="edge22" class="edge"><title>Node4&#45;&gt;Node16</title>
<path fill="none" stroke="midnightblue" d="M612.019,-206.542C681.866,-197.302 792.139,-181.893 887,-165 889.892,-164.485 892.849,-163.939 895.832,-163.372"/>
<polygon fill="midnightblue" stroke="midnightblue" points="611.471,-203.084 602.014,-207.86 612.386,-210.024 611.471,-203.084"/>
</g>
<!-- Node5&#45;&gt;Node3 -->
<g id="edge6" class="edge"><title>Node5&#45;&gt;Node3</title>
<path fill="none" stroke="midnightblue" d="M226.394,-129.803C251.316,-117.342 282.888,-101.556 301.986,-92.007"/>
<polygon fill="midnightblue" stroke="midnightblue" points="224.587,-126.793 217.208,-134.396 227.718,-133.054 224.587,-126.793"/>
</g>
<!-- Node5&#45;&gt;Node4 -->
<g id="edge11" class="edge"><title>Node5&#45;&gt;Node4</title>
<path fill="none" stroke="midnightblue" d="M255.276,-161.737C320.421,-173.373 418.857,-191.49 481.819,-203.426"/>
<polygon fill="midnightblue" stroke="midnightblue" points="255.576,-158.235 245.118,-159.927 254.349,-165.127 255.576,-158.235"/>
</g>
<!-- Node6 -->
<g id="node6" class="node"><title>Node6</title>
<g id="a_node6"><a xlink:href="menu__struct_8h.html" target="_top" xlink:title="D:/GIT/fhradiov2/menu\l/menu_struct.h">
<polygon fill="white" stroke="black" points="130,-67.5 130,-97.5 242,-97.5 242,-67.5 130,-67.5"/>
<text text-anchor="start" x="138" y="-85.5" font-family="Helvetica,sans-Serif" font-size="10.00">D:/GIT/fhradiov2/menu</text>
<text text-anchor="middle" x="186" y="-74.5" font-family="Helvetica,sans-Serif" font-size="10.00">/menu_struct.h</text>
</a>
</g>
</g>
<!-- Node5&#45;&gt;Node6 -->
<g id="edge7" class="edge"><title>Node5&#45;&gt;Node6</title>
<path fill="none" stroke="midnightblue" d="M181.342,-124.403C180.476,-115.37 180.307,-105.408 180.975,-97.5765"/>
<polygon fill="midnightblue" stroke="midnightblue" points="177.884,-124.944 182.671,-134.396 184.823,-124.022 177.884,-124.944"/>
</g>
<!-- Node8 -->
<g id="node8" class="node"><title>Node8</title>
<g id="a_node8"><a xlink:href="menu_8c.html" target="_top" xlink:title="D:/GIT/fhradiov2/menu\l/src/menu.c">
<polygon fill="white" stroke="black" points="0,-67.5 0,-97.5 112,-97.5 112,-67.5 0,-67.5"/>
<text text-anchor="start" x="8" y="-85.5" font-family="Helvetica,sans-Serif" font-size="10.00">D:/GIT/fhradiov2/menu</text>
<text text-anchor="middle" x="56" y="-74.5" font-family="Helvetica,sans-Serif" font-size="10.00">/src/menu.c</text>
</a>
</g>
</g>
<!-- Node5&#45;&gt;Node8 -->
<g id="edge10" class="edge"><title>Node5&#45;&gt;Node8</title>
<path fill="none" stroke="midnightblue" d="M151.13,-129.992C130.049,-119.689 104.223,-107.068 84.8027,-97.5765"/>
<polygon fill="midnightblue" stroke="midnightblue" points="149.62,-133.15 160.141,-134.396 152.693,-126.86 149.62,-133.15"/>
</g>
<!-- Node6&#45;&gt;Node5 -->
<g id="edge8" class="edge"><title>Node6&#45;&gt;Node5</title>
<path fill="none" stroke="midnightblue" d="M193.654,-107.565C194.522,-116.596 194.694,-126.56 194.027,-134.396"/>
<polygon fill="midnightblue" stroke="midnightblue" points="197.114,-107.027 192.324,-97.5765 190.175,-107.951 197.114,-107.027"/>
</g>
<!-- Node7 -->
<g id="node7" class="node"><title>Node7</title>
<g id="a_node7"><a xlink:href="menu__struct_8c.html" target="_top" xlink:title="D:/GIT/fhradiov2/menu\l/src/menu_struct.c">
<polygon fill="white" stroke="black" points="130,-0.5 130,-30.5 242,-30.5 242,-0.5 130,-0.5"/>
<text text-anchor="start" x="138" y="-18.5" font-family="Helvetica,sans-Serif" font-size="10.00">D:/GIT/fhradiov2/menu</text>
<text text-anchor="middle" x="186" y="-7.5" font-family="Helvetica,sans-Serif" font-size="10.00">/src/menu_struct.c</text>
</a>
</g>
</g>
<!-- Node6&#45;&gt;Node7 -->
<g id="edge9" class="edge"><title>Node6&#45;&gt;Node7</title>
<path fill="none" stroke="midnightblue" d="M186,-57.1081C186,-48.1539 186,-38.3227 186,-30.5765"/>
<polygon fill="midnightblue" stroke="midnightblue" points="182.5,-57.3959 186,-67.396 189.5,-57.396 182.5,-57.3959"/>
</g>
<!-- Node9&#45;&gt;Node4 -->
<g id="edge13" class="edge"><title>Node9&#45;&gt;Node4</title>
<path fill="none" stroke="midnightblue" d="M754.164,-166.937C708.314,-178.015 646.995,-192.421 602.032,-202.658"/>
<polygon fill="midnightblue" stroke="midnightblue" points="755.099,-170.311 763.994,-164.555 753.451,-163.508 755.099,-170.311"/>
</g>
<!-- Node10 -->
<g id="node10" class="node"><title>Node10</title>
<g id="a_node10"><a xlink:href="radio__display_8c.html" target="_top" xlink:title="D:/GIT/fhradiov2/system\l/src/radio_display.c">
<polygon fill="white" stroke="black" points="744,-67.5 744,-97.5 864,-97.5 864,-67.5 744,-67.5"/>
<text text-anchor="start" x="752" y="-85.5" font-family="Helvetica,sans-Serif" font-size="10.00">D:/GIT/fhradiov2/system</text>
<text text-anchor="middle" x="804" y="-74.5" font-family="Helvetica,sans-Serif" font-size="10.00">/src/radio_display.c</text>
</a>
</g>
</g>
<!-- Node9&#45;&gt;Node10 -->
<g id="edge14" class="edge"><title>Node9&#45;&gt;Node10</title>
<path fill="none" stroke="midnightblue" d="M812.81,-124.403C810.864,-115.37 808.719,-105.408 807.032,-97.5765"/>
<polygon fill="midnightblue" stroke="midnightblue" points="809.435,-125.357 814.962,-134.396 816.278,-123.883 809.435,-125.357"/>
</g>
<!-- Node11&#45;&gt;Node3 -->
<g id="edge16" class="edge"><title>Node11&#45;&gt;Node3</title>
<path fill="none" stroke="midnightblue" d="M377.203,-128.008C361.423,-115.941 342.283,-101.305 330.37,-92.1945"/>
<polygon fill="midnightblue" stroke="midnightblue" points="375.487,-131.102 385.556,-134.396 379.739,-125.541 375.487,-131.102"/>
</g>
<!-- Node12 -->
<g id="node12" class="node"><title>Node12</title>
<g id="a_node12"><a xlink:href="rds_8c.html" target="_top" xlink:title="D:/GIT/fhradiov2/system\l/src/rds.c">
<polygon fill="white" stroke="black" points="396,-67.5 396,-97.5 516,-97.5 516,-67.5 396,-67.5"/>
<text text-anchor="start" x="404" y="-85.5" font-family="Helvetica,sans-Serif" font-size="10.00">D:/GIT/fhradiov2/system</text>
<text text-anchor="middle" x="456" y="-74.5" font-family="Helvetica,sans-Serif" font-size="10.00">/src/rds.c</text>
</a>
</g>
</g>
<!-- Node11&#45;&gt;Node12 -->
<g id="edge17" class="edge"><title>Node11&#45;&gt;Node12</title>
<path fill="none" stroke="midnightblue" d="M421.642,-126.447C429.281,-116.899 437.997,-106.004 444.739,-97.5765"/>
<polygon fill="midnightblue" stroke="midnightblue" points="418.797,-124.401 415.283,-134.396 424.263,-128.774 418.797,-124.401"/>
</g>
<!-- Node13&#45;&gt;Node3 -->
<g id="edge19" class="edge"><title>Node13&#45;&gt;Node3</title>
<path fill="none" stroke="midnightblue" d="M484.262,-131.671C440.679,-118.967 382.689,-102.064 348.26,-92.0287"/>
<polygon fill="midnightblue" stroke="midnightblue" points="483.307,-135.038 493.887,-134.476 485.266,-128.317 483.307,-135.038"/>
</g>
<!-- Node14 -->
<g id="node14" class="node"><title>Node14</title>
<g id="a_node14"><a xlink:href="rsq_8c.html" target="_top" xlink:title="D:/GIT/fhradiov2/system\l/src/rsq.c">
<polygon fill="white" stroke="black" points="534,-67.5 534,-97.5 654,-97.5 654,-67.5 534,-67.5"/>
<text text-anchor="start" x="542" y="-85.5" font-family="Helvetica,sans-Serif" font-size="10.00">D:/GIT/fhradiov2/system</text>
<text text-anchor="middle" x="594" y="-74.5" font-family="Helvetica,sans-Serif" font-size="10.00">/src/rsq.c</text>
</a>
</g>
</g>
<!-- Node13&#45;&gt;Node14 -->
<g id="edge20" class="edge"><title>Node13&#45;&gt;Node14</title>
<path fill="none" stroke="midnightblue" d="M559.642,-126.447C567.281,-116.899 575.997,-106.004 582.739,-97.5765"/>
<polygon fill="midnightblue" stroke="midnightblue" points="556.797,-124.401 553.283,-134.396 562.263,-128.774 556.797,-124.401"/>
</g>
<!-- Node17 -->
<g id="node17" class="node"><title>Node17</title>
<g id="a_node17"><a xlink:href="station__list__struct_8c.html" target="_top" xlink:title="D:/GIT/fhradiov2/system\l/src/station_list_struct.c">
<polygon fill="white" stroke="black" points="882,-67.5 882,-97.5 1004,-97.5 1004,-67.5 882,-67.5"/>
<text text-anchor="start" x="890" y="-85.5" font-family="Helvetica,sans-Serif" font-size="10.00">D:/GIT/fhradiov2/system</text>
<text text-anchor="middle" x="943" y="-74.5" font-family="Helvetica,sans-Serif" font-size="10.00">/src/station_list_struct.c</text>
</a>
</g>
</g>
<!-- Node16&#45;&gt;Node17 -->
<g id="edge23" class="edge"><title>Node16&#45;&gt;Node17</title>
<path fill="none" stroke="midnightblue" d="M951.181,-124.403C949.374,-115.37 947.382,-105.408 945.815,-97.5765"/>
<polygon fill="midnightblue" stroke="midnightblue" points="947.786,-125.277 953.179,-134.396 954.65,-123.904 947.786,-125.277"/>
</g>
<!-- Node18 -->
<g id="node18" class="node"><title>Node18</title>
<g id="a_node18"><a xlink:href="station__list_8h.html" target="_top" xlink:title="D:/GIT/fhradiov2/system\l/station_list.h">
<polygon fill="white" stroke="black" points="1022,-67.5 1022,-97.5 1142,-97.5 1142,-67.5 1022,-67.5"/>
<text text-anchor="start" x="1030" y="-85.5" font-family="Helvetica,sans-Serif" font-size="10.00">D:/GIT/fhradiov2/system</text>
<text text-anchor="middle" x="1082" y="-74.5" font-family="Helvetica,sans-Serif" font-size="10.00">/station_list.h</text>
</a>
</g>
</g>
<!-- Node16&#45;&gt;Node18 -->
<g id="edge24" class="edge"><title>Node16&#45;&gt;Node18</title>
<path fill="none" stroke="midnightblue" d="M992.415,-129.714C1012.29,-119.463 1036.48,-106.983 1054.71,-97.5765"/>
<polygon fill="midnightblue" stroke="midnightblue" points="990.623,-126.701 983.34,-134.396 993.832,-132.922 990.623,-126.701"/>
</g>
<!-- Node18&#45;&gt;Node4 -->
<g id="edge25" class="edge"><title>Node18&#45;&gt;Node4</title>
<path fill="none" stroke="midnightblue" d="M1072.39,-106.81C1063.2,-125.884 1047.42,-151.791 1025,-165 954.807,-206.347 715.352,-214.047 602.181,-215.338"/>
<polygon fill="midnightblue" stroke="midnightblue" points="1075.64,-108.114 1076.59,-97.5622 1069.27,-105.218 1075.64,-108.114"/>
</g>
<!-- Node19 -->
<g id="node19" class="node"><title>Node19</title>
<g id="a_node19"><a xlink:href="station__list_8c.html" target="_top" xlink:title="D:/GIT/fhradiov2/system\l/src/station_list.c">
<polygon fill="white" stroke="black" points="1022,-0.5 1022,-30.5 1142,-30.5 1142,-0.5 1022,-0.5"/>
<text text-anchor="start" x="1030" y="-18.5" font-family="Helvetica,sans-Serif" font-size="10.00">D:/GIT/fhradiov2/system</text>
<text text-anchor="middle" x="1082" y="-7.5" font-family="Helvetica,sans-Serif" font-size="10.00">/src/station_list.c</text>
</a>
</g>
</g>
<!-- Node18&#45;&gt;Node19 -->
<g id="edge26" class="edge"><title>Node18&#45;&gt;Node19</title>
<path fill="none" stroke="midnightblue" d="M1082,-57.1081C1082,-48.1539 1082,-38.3227 1082,-30.5765"/>
<polygon fill="midnightblue" stroke="midnightblue" points="1078.5,-57.3959 1082,-67.396 1085.5,-57.396 1078.5,-57.3959"/>
</g>
</g>
</svg>
