<?xml version="1.0" encoding="UTF-8" standalone="no"?>
<!DOCTYPE svg PUBLIC "-//W3C//DTD SVG 1.1//EN"
 "http://www.w3.org/Graphics/SVG/1.1/DTD/svg11.dtd">
<!-- Generated by graphviz version 2.38.0 (20140413.2041)
 -->
<!-- Title: pca9530_set_pwm Pages: 1 -->
<svg width="646pt" height="104pt"
 viewBox="0.00 0.00 646.00 104.00" xmlns="http://www.w3.org/2000/svg" xmlns:xlink="http://www.w3.org/1999/xlink">
<g id="graph0" class="graph" transform="scale(1 1) rotate(0) translate(4 100)">
<title>pca9530_set_pwm</title>
<polygon fill="white" stroke="none" points="-4,4 -4,-100 642,-100 642,4 -4,4"/>
<!-- Node1 -->
<g id="node1" class="node"><title>Node1</title>
<polygon fill="#bfbfbf" stroke="black" points="0,-38.5 0,-57.5 98,-57.5 98,-38.5 0,-38.5"/>
<text text-anchor="middle" x="49" y="-45.5" font-family="Helvetica,sans-Serif" font-size="10.00">pca9530_set_pwm</text>
</g>
<!-- Node2 -->
<g id="node2" class="node"><title>Node2</title>
<g id="a_node2"><a xlink:href="pca9530_8c.html#ae2f44601e0bbf4c0b7bbdb127def81c3" target="_top" xlink:title="pca9530_init">
<polygon fill="white" stroke="black" points="142.5,-76.5 142.5,-95.5 213.5,-95.5 213.5,-76.5 142.5,-76.5"/>
<text text-anchor="middle" x="178" y="-83.5" font-family="Helvetica,sans-Serif" font-size="10.00">pca9530_init</text>
</a>
</g>
</g>
<!-- Node1&#45;&gt;Node2 -->
<g id="edge1" class="edge"><title>Node1&#45;&gt;Node2</title>
<path fill="none" stroke="midnightblue" d="M91.8943,-60.5353C109.171,-65.7048 128.871,-71.5991 144.963,-76.4141"/>
<polygon fill="midnightblue" stroke="midnightblue" points="92.6311,-57.1025 82.0475,-57.589 90.6245,-63.8088 92.6311,-57.1025"/>
</g>
<!-- Node3 -->
<g id="node3" class="node"><title>Node3</title>
<g id="a_node3"><a xlink:href="radio_8c.html#a3a1de7e31aabba6e408a633c130e618a" target="_top" xlink:title="radio_init">
<polygon fill="white" stroke="black" points="268.5,-38.5 268.5,-57.5 324.5,-57.5 324.5,-38.5 268.5,-38.5"/>
<text text-anchor="middle" x="296.5" y="-45.5" font-family="Helvetica,sans-Serif" font-size="10.00">radio_init</text>
</a>
</g>
</g>
<!-- Node1&#45;&gt;Node3 -->
<g id="edge4" class="edge"><title>Node1&#45;&gt;Node3</title>
<path fill="none" stroke="midnightblue" d="M108.363,-48C158.974,-48 229.955,-48 268.317,-48"/>
<polygon fill="midnightblue" stroke="midnightblue" points="108.21,-44.5001 98.21,-48 108.21,-51.5001 108.21,-44.5001"/>
</g>
<!-- Node5 -->
<g id="node5" class="node"><title>Node5</title>
<g id="a_node5"><a xlink:href="radio_8c.html#a9dd33606330e2225b425000341cf4688" target="_top" xlink:title="radio_brightness">
<polygon fill="white" stroke="black" points="134,-0.5 134,-19.5 222,-19.5 222,-0.5 134,-0.5"/>
<text text-anchor="middle" x="178" y="-7.5" font-family="Helvetica,sans-Serif" font-size="10.00">radio_brightness</text>
</a>
</g>
</g>
<!-- Node1&#45;&gt;Node5 -->
<g id="edge5" class="edge"><title>Node1&#45;&gt;Node5</title>
<path fill="none" stroke="midnightblue" d="M91.8943,-35.4647C109.171,-30.2952 128.871,-24.4009 144.963,-19.5859"/>
<polygon fill="midnightblue" stroke="midnightblue" points="90.6245,-32.1912 82.0475,-38.411 92.6311,-38.8975 90.6245,-32.1912"/>
</g>
<!-- Node2&#45;&gt;Node3 -->
<g id="edge2" class="edge"><title>Node2&#45;&gt;Node3</title>
<path fill="none" stroke="midnightblue" d="M218.25,-73.1974C234.627,-67.8557 253.253,-61.7801 268.112,-56.9333"/>
<polygon fill="midnightblue" stroke="midnightblue" points="216.82,-69.9825 208.398,-76.411 218.99,-76.6374 216.82,-69.9825"/>
</g>
<!-- Node4 -->
<g id="node4" class="node"><title>Node4</title>
<g id="a_node4"><a xlink:href="main_8c.html#a840291bc02cba5474a4cb46a9b9566fe" target="_top" xlink:title="main">
<polygon fill="white" stroke="black" points="600,-19.5 600,-38.5 638,-38.5 638,-19.5 600,-19.5"/>
<text text-anchor="middle" x="619" y="-26.5" font-family="Helvetica,sans-Serif" font-size="10.00">main</text>
</a>
</g>
</g>
<!-- Node3&#45;&gt;Node4 -->
<g id="edge3" class="edge"><title>Node3&#45;&gt;Node4</title>
<path fill="none" stroke="midnightblue" d="M334.956,-45.7795C404.019,-41.6853 549.013,-33.0897 599.889,-30.0737"/>
<polygon fill="midnightblue" stroke="midnightblue" points="334.325,-42.3107 324.549,-46.3964 334.739,-49.2984 334.325,-42.3107"/>
</g>
<!-- Node6 -->
<g id="node6" class="node"><title>Node6</title>
<g id="a_node6"><a xlink:href="radio_8c.html#a832a684fc60104296fc975a7608f92b4" target="_top" xlink:title="radio_settings">
<polygon fill="white" stroke="black" points="258,-0.5 258,-19.5 335,-19.5 335,-0.5 258,-0.5"/>
<text text-anchor="middle" x="296.5" y="-7.5" font-family="Helvetica,sans-Serif" font-size="10.00">radio_settings</text>
</a>
</g>
</g>
<!-- Node5&#45;&gt;Node6 -->
<g id="edge6" class="edge"><title>Node5&#45;&gt;Node6</title>
<path fill="none" stroke="midnightblue" d="M232.168,-10C240.887,-10 249.76,-10 257.996,-10"/>
<polygon fill="midnightblue" stroke="midnightblue" points="232.049,-6.5001 222.049,-10 232.049,-13.5001 232.049,-6.5001"/>
</g>
<!-- Node7 -->
<g id="node7" class="node"><title>Node7</title>
<g id="a_node7"><a xlink:href="menu_8c.html#a5d9c190838195d7872fc7067269e20fa" target="_top" xlink:title="menu_function">
<polygon fill="white" stroke="black" points="371,-0.5 371,-19.5 451,-19.5 451,-0.5 371,-0.5"/>
<text text-anchor="middle" x="411" y="-7.5" font-family="Helvetica,sans-Serif" font-size="10.00">menu_function</text>
</a>
</g>
</g>
<!-- Node6&#45;&gt;Node7 -->
<g id="edge7" class="edge"><title>Node6&#45;&gt;Node7</title>
<path fill="none" stroke="midnightblue" d="M345.474,-10C353.985,-10 362.755,-10 370.981,-10"/>
<polygon fill="midnightblue" stroke="midnightblue" points="345.274,-6.5001 335.274,-10 345.274,-13.5001 345.274,-6.5001"/>
</g>
<!-- Node8 -->
<g id="node8" class="node"><title>Node8</title>
<g id="a_node8"><a xlink:href="menu_8c.html#aaf2a075d3159f7eeab42012941a3437f" target="_top" xlink:title="menu_handler">
<polygon fill="white" stroke="black" points="487,-0.5 487,-19.5 564,-19.5 564,-0.5 487,-0.5"/>
<text text-anchor="middle" x="525.5" y="-7.5" font-family="Helvetica,sans-Serif" font-size="10.00">menu_handler</text>
</a>
</g>
</g>
<!-- Node7&#45;&gt;Node8 -->
<g id="edge8" class="edge"><title>Node7&#45;&gt;Node8</title>
<path fill="none" stroke="midnightblue" d="M461.262,-10C469.783,-10 478.52,-10 486.676,-10"/>
<polygon fill="midnightblue" stroke="midnightblue" points="461.031,-6.5001 451.031,-10 461.031,-13.5001 461.031,-6.5001"/>
</g>
<!-- Node8&#45;&gt;Node4 -->
<g id="edge9" class="edge"><title>Node8&#45;&gt;Node4</title>
<path fill="none" stroke="midnightblue" d="M574.072,-19.8783C583.156,-21.7646 592.144,-23.631 599.601,-25.1793"/>
<polygon fill="midnightblue" stroke="midnightblue" points="574.748,-16.444 564.245,-17.8377 573.324,-23.2978 574.748,-16.444"/>
</g>
</g>
</svg>
