<?xml version="1.0" encoding="UTF-8" standalone="no"?>
<!DOCTYPE svg PUBLIC "-//W3C//DTD SVG 1.1//EN"
 "http://www.w3.org/Graphics/SVG/1.1/DTD/svg11.dtd">
<!-- Generated by graphviz version 2.38.0 (20140413.2041)
 -->
<!-- Title: pca9530_config_leds Pages: 1 -->
<svg width="477pt" height="66pt"
 viewBox="0.00 0.00 477.00 66.00" xmlns="http://www.w3.org/2000/svg" xmlns:xlink="http://www.w3.org/1999/xlink">
<g id="graph0" class="graph" transform="scale(1 1) rotate(0) translate(4 62)">
<title>pca9530_config_leds</title>
<polygon fill="white" stroke="none" points="-4,4 -4,-62 473,-62 473,4 -4,4"/>
<!-- Node1 -->
<g id="node1" class="node"><title>Node1</title>
<polygon fill="#bfbfbf" stroke="black" points="0,-19.5 0,-38.5 107,-38.5 107,-19.5 0,-19.5"/>
<text text-anchor="middle" x="53.5" y="-26.5" font-family="Helvetica,sans-Serif" font-size="10.00">pca9530_config_leds</text>
</g>
<!-- Node2 -->
<g id="node2" class="node"><title>Node2</title>
<g id="a_node2"><a xlink:href="pca9530_8c.html#ae2f44601e0bbf4c0b7bbdb127def81c3" target="_top" xlink:title="pca9530_init">
<polygon fill="white" stroke="black" points="151.5,-38.5 151.5,-57.5 222.5,-57.5 222.5,-38.5 151.5,-38.5"/>
<text text-anchor="middle" x="187" y="-45.5" font-family="Helvetica,sans-Serif" font-size="10.00">pca9530_init</text>
</a>
</g>
</g>
<!-- Node1&#45;&gt;Node2 -->
<g id="edge1" class="edge"><title>Node1&#45;&gt;Node2</title>
<path fill="none" stroke="midnightblue" d="M117.435,-38.0933C129.127,-39.7826 140.938,-41.4892 151.385,-42.9987"/>
<polygon fill="midnightblue" stroke="midnightblue" points="117.626,-34.5846 107.228,-36.6185 116.625,-41.5127 117.626,-34.5846"/>
</g>
<!-- Node5 -->
<g id="node5" class="node"><title>Node5</title>
<g id="a_node5"><a xlink:href="radio_8c.html#a8d795d5e8b1acf8b2d97bfee82d90ca1" target="_top" xlink:title="radio_brightness">
<polygon fill="white" stroke="black" points="143,-0.5 143,-19.5 231,-19.5 231,-0.5 143,-0.5"/>
<text text-anchor="middle" x="187" y="-7.5" font-family="Helvetica,sans-Serif" font-size="10.00">radio_brightness</text>
</a>
</g>
</g>
<!-- Node1&#45;&gt;Node5 -->
<g id="edge4" class="edge"><title>Node1&#45;&gt;Node5</title>
<path fill="none" stroke="midnightblue" d="M117.34,-19.9205C126.011,-18.6676 134.749,-17.4051 142.951,-16.2201"/>
<polygon fill="midnightblue" stroke="midnightblue" points="116.625,-16.4873 107.228,-21.3815 117.626,-23.4154 116.625,-16.4873"/>
</g>
<!-- Node3 -->
<g id="node3" class="node"><title>Node3</title>
<g id="a_node3"><a xlink:href="radio_8c.html#a3a1de7e31aabba6e408a633c130e618a" target="_top" xlink:title="Initiales the radio. ">
<polygon fill="white" stroke="black" points="303,-38.5 303,-57.5 359,-57.5 359,-38.5 303,-38.5"/>
<text text-anchor="middle" x="331" y="-45.5" font-family="Helvetica,sans-Serif" font-size="10.00">radio_init</text>
</a>
</g>
</g>
<!-- Node2&#45;&gt;Node3 -->
<g id="edge2" class="edge"><title>Node2&#45;&gt;Node3</title>
<path fill="none" stroke="midnightblue" d="M232.931,-48C255.853,-48 282.985,-48 302.729,-48"/>
<polygon fill="midnightblue" stroke="midnightblue" points="232.737,-44.5001 222.737,-48 232.737,-51.5001 232.737,-44.5001"/>
</g>
<!-- Node4 -->
<g id="node4" class="node"><title>Node4</title>
<g id="a_node4"><a xlink:href="main_8c.html#a840291bc02cba5474a4cb46a9b9566fe" target="_top" xlink:title="Main function. ">
<polygon fill="white" stroke="black" points="431,-38.5 431,-57.5 469,-57.5 469,-38.5 431,-38.5"/>
<text text-anchor="middle" x="450" y="-45.5" font-family="Helvetica,sans-Serif" font-size="10.00">main</text>
</a>
</g>
</g>
<!-- Node3&#45;&gt;Node4 -->
<g id="edge3" class="edge"><title>Node3&#45;&gt;Node4</title>
<path fill="none" stroke="midnightblue" d="M369.146,-48C389.7,-48 414.331,-48 430.751,-48"/>
<polygon fill="midnightblue" stroke="midnightblue" points="369.136,-44.5001 359.136,-48 369.136,-51.5001 369.136,-44.5001"/>
</g>
<!-- Node5&#45;&gt;Node3 -->
<g id="edge5" class="edge"><title>Node5&#45;&gt;Node3</title>
<path fill="none" stroke="midnightblue" d="M233.637,-22.2126C256.395,-28.3029 283.156,-35.4643 302.695,-40.6929"/>
<polygon fill="midnightblue" stroke="midnightblue" points="234.397,-18.7931 223.833,-19.589 232.588,-25.5552 234.397,-18.7931"/>
</g>
<!-- Node6 -->
<g id="node6" class="node"><title>Node6</title>
<g id="a_node6"><a xlink:href="radio__settings_8c.html#a2d04f2363bf944b4700b71e0f96ee16f" target="_top" xlink:title="Sets the brightness. ">
<polygon fill="white" stroke="black" points="267,-0.5 267,-19.5 395,-19.5 395,-0.5 267,-0.5"/>
<text text-anchor="middle" x="331" y="-7.5" font-family="Helvetica,sans-Serif" font-size="10.00">radio_settings_brightness</text>
</a>
</g>
</g>
<!-- Node5&#45;&gt;Node6 -->
<g id="edge6" class="edge"><title>Node5&#45;&gt;Node6</title>
<path fill="none" stroke="midnightblue" d="M241.578,-10C249.801,-10 258.356,-10 266.764,-10"/>
<polygon fill="midnightblue" stroke="midnightblue" points="241.376,-6.5001 231.376,-10 241.376,-13.5001 241.376,-6.5001"/>
</g>
</g>
</svg>
