<?xml version="1.0" encoding="UTF-8" standalone="no"?>
<!DOCTYPE svg PUBLIC "-//W3C//DTD SVG 1.1//EN"
 "http://www.w3.org/Graphics/SVG/1.1/DTD/svg11.dtd">
<!-- Generated by graphviz version 2.38.0 (20140413.2041)
 -->
<!-- Title: D:/GIT/fhradiov2/driver/src/pca9530.c Pages: 1 -->
<svg width="353pt" height="397pt"
 viewBox="0.00 0.00 352.50 397.00" xmlns="http://www.w3.org/2000/svg" xmlns:xlink="http://www.w3.org/1999/xlink">
<g id="graph0" class="graph" transform="scale(1 1) rotate(0) translate(4 393)">
<title>D:/GIT/fhradiov2/driver/src/pca9530.c</title>
<polygon fill="white" stroke="none" points="-4,4 -4,-393 348.5,-393 348.5,4 -4,4"/>
<!-- Node1 -->
<g id="node1" class="node"><title>Node1</title>
<polygon fill="#bfbfbf" stroke="black" points="50,-358.5 50,-388.5 160,-388.5 160,-358.5 50,-358.5"/>
<text text-anchor="start" x="58" y="-376.5" font-family="Helvetica,sans-Serif" font-size="10.00">D:/GIT/fhradiov2/driver</text>
<text text-anchor="middle" x="105" y="-365.5" font-family="Helvetica,sans-Serif" font-size="10.00">/src/pca9530.c</text>
</g>
<!-- Node2 -->
<g id="node2" class="node"><title>Node2</title>
<g id="a_node2"><a xlink:href="pca9530_8h.html" target="_top" xlink:title="driver/pca9530.h">
<polygon fill="white" stroke="black" points="7.5,-297 7.5,-316 94.5,-316 94.5,-297 7.5,-297"/>
<text text-anchor="middle" x="51" y="-304" font-family="Helvetica,sans-Serif" font-size="10.00">driver/pca9530.h</text>
</a>
</g>
</g>
<!-- Node1&#45;&gt;Node2 -->
<g id="edge1" class="edge"><title>Node1&#45;&gt;Node2</title>
<path fill="none" stroke="midnightblue" d="M93.2828,-358.396C84.863,-348.261 73.4867,-334.567 64.6552,-323.937"/>
<polygon fill="midnightblue" stroke="midnightblue" points="67.3056,-321.65 58.2232,-316.195 61.9212,-326.123 67.3056,-321.65"/>
</g>
<!-- Node11 -->
<g id="node11" class="node"><title>Node11</title>
<g id="a_node11"><a xlink:href="radio__pin__mapping_8h.html" target="_top" xlink:title="settings/radio_pin\l_mapping.h">
<polygon fill="white" stroke="black" points="112.5,-291.5 112.5,-321.5 205.5,-321.5 205.5,-291.5 112.5,-291.5"/>
<text text-anchor="start" x="120.5" y="-309.5" font-family="Helvetica,sans-Serif" font-size="10.00">settings/radio_pin</text>
<text text-anchor="middle" x="159" y="-298.5" font-family="Helvetica,sans-Serif" font-size="10.00">_mapping.h</text>
</a>
</g>
</g>
<!-- Node1&#45;&gt;Node11 -->
<g id="edge14" class="edge"><title>Node1&#45;&gt;Node11</title>
<path fill="none" stroke="midnightblue" d="M116.717,-358.396C123.723,-349.963 132.775,-339.067 140.705,-329.522"/>
<polygon fill="midnightblue" stroke="midnightblue" points="143.608,-331.505 147.306,-321.577 138.223,-327.032 143.608,-331.505"/>
</g>
<!-- Node3 -->
<g id="node3" class="node"><title>Node3</title>
<polygon fill="white" stroke="#bfbfbf" points="79.5,-0.5 79.5,-19.5 128.5,-19.5 128.5,-0.5 79.5,-0.5"/>
<text text-anchor="middle" x="104" y="-7.5" font-family="Helvetica,sans-Serif" font-size="10.00">stdint.h</text>
</g>
<!-- Node2&#45;&gt;Node3 -->
<g id="edge2" class="edge"><title>Node2&#45;&gt;Node3</title>
<path fill="none" stroke="midnightblue" d="M44.1219,-296.804C30.2011,-278.301 0,-233.182 0,-190 0,-190 0,-190 0,-132 0,-83.5508 48.5472,-44.8225 79.304,-25.148"/>
<polygon fill="midnightblue" stroke="midnightblue" points="81.5268,-27.8895 88.2046,-19.6641 77.8549,-21.9298 81.5268,-27.8895"/>
</g>
<!-- Node4 -->
<g id="node4" class="node"><title>Node4</title>
<g id="a_node4"><a xlink:href="i2c_8h.html" target="_top" xlink:title="I2C implemtation for MSP430G2553, interrupt based. &#160;&#160;This implemtation based on examples from Texas I...">
<polygon fill="white" stroke="black" points="70.5,-235.5 70.5,-254.5 133.5,-254.5 133.5,-235.5 70.5,-235.5"/>
<text text-anchor="middle" x="102" y="-242.5" font-family="Helvetica,sans-Serif" font-size="10.00">driver/i2c.h</text>
</a>
</g>
</g>
<!-- Node2&#45;&gt;Node4 -->
<g id="edge3" class="edge"><title>Node2&#45;&gt;Node4</title>
<path fill="none" stroke="midnightblue" d="M58.3071,-296.975C66.0328,-287.962 78.4075,-273.525 88.0184,-262.312"/>
<polygon fill="midnightblue" stroke="midnightblue" points="90.856,-264.379 94.7065,-254.509 85.5411,-259.824 90.856,-264.379"/>
</g>
<!-- Node4&#45;&gt;Node3 -->
<g id="edge4" class="edge"><title>Node4&#45;&gt;Node3</title>
<path fill="none" stroke="midnightblue" d="M98.0041,-235.33C90.3359,-218.159 73.802,-178.421 68,-143 61.1493,-101.177 81.3341,-53.5337 94.1975,-28.4981"/>
<polygon fill="midnightblue" stroke="midnightblue" points="97.3741,-29.98 99.0075,-19.5118 91.2026,-26.6765 97.3741,-29.98"/>
</g>
<!-- Node5 -->
<g id="node5" class="node"><title>Node5</title>
<polygon fill="white" stroke="#bfbfbf" points="77.5,-123.5 77.5,-142.5 136.5,-142.5 136.5,-123.5 77.5,-123.5"/>
<text text-anchor="middle" x="107" y="-130.5" font-family="Helvetica,sans-Serif" font-size="10.00">msp430.h</text>
</g>
<!-- Node4&#45;&gt;Node5 -->
<g id="edge5" class="edge"><title>Node4&#45;&gt;Node5</title>
<path fill="none" stroke="midnightblue" d="M99.7154,-235.153C96.7846,-222.632 92.375,-199.032 95,-179 96.1556,-170.181 98.5337,-160.633 100.87,-152.61"/>
<polygon fill="midnightblue" stroke="midnightblue" points="104.285,-153.415 103.912,-142.827 97.6009,-151.337 104.285,-153.415"/>
</g>
<!-- Node6 -->
<g id="node6" class="node"><title>Node6</title>
<polygon fill="white" stroke="#bfbfbf" points="104,-179.5 104,-198.5 152,-198.5 152,-179.5 104,-179.5"/>
<text text-anchor="middle" x="128" y="-186.5" font-family="Helvetica,sans-Serif" font-size="10.00">stdlib.h</text>
</g>
<!-- Node4&#45;&gt;Node6 -->
<g id="edge6" class="edge"><title>Node4&#45;&gt;Node6</title>
<path fill="none" stroke="midnightblue" d="M106.293,-235.083C109.852,-227.691 115.022,-216.953 119.424,-207.811"/>
<polygon fill="midnightblue" stroke="midnightblue" points="122.602,-209.279 123.787,-198.751 116.295,-206.243 122.602,-209.279"/>
</g>
<!-- Node7 -->
<g id="node7" class="node"><title>Node7</title>
<polygon fill="white" stroke="#bfbfbf" points="170,-179.5 170,-198.5 222,-198.5 222,-179.5 170,-179.5"/>
<text text-anchor="middle" x="196" y="-186.5" font-family="Helvetica,sans-Serif" font-size="10.00">stdarg.h</text>
</g>
<!-- Node4&#45;&gt;Node7 -->
<g id="edge7" class="edge"><title>Node4&#45;&gt;Node7</title>
<path fill="none" stroke="midnightblue" d="M117.103,-235.324C131.903,-226.822 154.694,-213.729 171.982,-203.797"/>
<polygon fill="midnightblue" stroke="midnightblue" points="174.007,-206.671 180.935,-198.655 170.52,-200.601 174.007,-206.671"/>
</g>
<!-- Node8 -->
<g id="node8" class="node"><title>Node8</title>
<g id="a_node8"><a xlink:href="timer_8h.html" target="_top" xlink:title="driver/timer.h">
<polygon fill="white" stroke="black" points="240,-179.5 240,-198.5 312,-198.5 312,-179.5 240,-179.5"/>
<text text-anchor="middle" x="276" y="-186.5" font-family="Helvetica,sans-Serif" font-size="10.00">driver/timer.h</text>
</a>
</g>
</g>
<!-- Node4&#45;&gt;Node8 -->
<g id="edge8" class="edge"><title>Node4&#45;&gt;Node8</title>
<path fill="none" stroke="midnightblue" d="M129.571,-235.444C159.097,-226.28 206.118,-211.688 238.883,-201.519"/>
<polygon fill="midnightblue" stroke="midnightblue" points="240.045,-204.823 248.558,-198.516 237.97,-198.138 240.045,-204.823"/>
</g>
<!-- Node8&#45;&gt;Node3 -->
<g id="edge10" class="edge"><title>Node8&#45;&gt;Node3</title>
<path fill="none" stroke="midnightblue" d="M253.075,-179.365C235.028,-171.761 210.004,-159.35 192,-143 154.756,-109.177 125.858,-56.4167 112.358,-28.9641"/>
<polygon fill="midnightblue" stroke="midnightblue" points="115.432,-27.2785 107.953,-19.774 109.119,-30.3044 115.432,-27.2785"/>
</g>
<!-- Node8&#45;&gt;Node5 -->
<g id="edge9" class="edge"><title>Node8&#45;&gt;Node5</title>
<path fill="none" stroke="midnightblue" d="M249.221,-179.444C220.667,-170.32 175.267,-155.813 143.463,-145.651"/>
<polygon fill="midnightblue" stroke="midnightblue" points="144.244,-142.226 133.653,-142.516 142.114,-148.894 144.244,-142.226"/>
</g>
<!-- Node9 -->
<g id="node9" class="node"><title>Node9</title>
<g id="a_node9"><a xlink:href="radio__configuration_8h.html" target="_top" xlink:title="settings/radio_configuration.h">
<polygon fill="white" stroke="black" points="201.5,-123.5 201.5,-142.5 344.5,-142.5 344.5,-123.5 201.5,-123.5"/>
<text text-anchor="middle" x="273" y="-130.5" font-family="Helvetica,sans-Serif" font-size="10.00">settings/radio_configuration.h</text>
</a>
</g>
</g>
<!-- Node8&#45;&gt;Node9 -->
<g id="edge11" class="edge"><title>Node8&#45;&gt;Node9</title>
<path fill="none" stroke="midnightblue" d="M275.505,-179.083C275.111,-172.006 274.548,-161.861 274.055,-152.986"/>
<polygon fill="midnightblue" stroke="midnightblue" points="277.536,-152.542 273.486,-142.751 270.546,-152.93 277.536,-152.542"/>
</g>
<!-- Node10 -->
<g id="node10" class="node"><title>Node10</title>
<g id="a_node10"><a xlink:href="si4735__cmd__prop_8h.html" target="_top" xlink:title="driver/include/si4735\l_cmd_prop.h">
<polygon fill="white" stroke="black" points="208,-56.5 208,-86.5 312,-86.5 312,-56.5 208,-56.5"/>
<text text-anchor="start" x="216" y="-74.5" font-family="Helvetica,sans-Serif" font-size="10.00">driver/include/si4735</text>
<text text-anchor="middle" x="260" y="-63.5" font-family="Helvetica,sans-Serif" font-size="10.00">_cmd_prop.h</text>
</a>
</g>
</g>
<!-- Node9&#45;&gt;Node10 -->
<g id="edge12" class="edge"><title>Node9&#45;&gt;Node10</title>
<path fill="none" stroke="midnightblue" d="M271.137,-123.475C269.591,-116.396 267.313,-105.97 265.22,-96.3896"/>
<polygon fill="midnightblue" stroke="midnightblue" points="268.618,-95.5454 263.064,-86.523 261.779,-97.0396 268.618,-95.5454"/>
</g>
<!-- Node10&#45;&gt;Node3 -->
<g id="edge13" class="edge"><title>Node10&#45;&gt;Node3</title>
<path fill="none" stroke="midnightblue" d="M223.03,-56.3993C196.622,-46.3271 161.443,-32.9093 136.188,-23.2769"/>
<polygon fill="midnightblue" stroke="midnightblue" points="137.29,-19.9513 126.699,-19.6578 134.796,-26.4917 137.29,-19.9513"/>
</g>
</g>
</svg>
