<?xml version="1.0" encoding="UTF-8" standalone="no"?>
<!DOCTYPE svg PUBLIC "-//W3C//DTD SVG 1.1//EN"
 "http://www.w3.org/Graphics/SVG/1.1/DTD/svg11.dtd">
<!-- Generated by graphviz version 2.38.0 (20140413.2041)
 -->
<!-- Title: radio_store_station Pages: 1 -->
<svg width="346pt" height="66pt"
 viewBox="0.00 0.00 346.00 66.00" xmlns="http://www.w3.org/2000/svg" xmlns:xlink="http://www.w3.org/1999/xlink">
<g id="graph0" class="graph" transform="scale(1 1) rotate(0) translate(4 62)">
<title>radio_store_station</title>
<polygon fill="white" stroke="none" points="-4,4 -4,-62 342,-62 342,4 -4,4"/>
<!-- Node1 -->
<g id="node1" class="node"><title>Node1</title>
<polygon fill="#bfbfbf" stroke="black" points="0,-19.5 0,-38.5 99,-38.5 99,-19.5 0,-19.5"/>
<text text-anchor="middle" x="49.5" y="-26.5" font-family="Helvetica,sans-Serif" font-size="10.00">radio_store_station</text>
</g>
<!-- Node2 -->
<g id="node2" class="node"><title>Node2</title>
<g id="a_node2"><a xlink:href="flash_8h.html#aece8757a70bfb964ca3de0302924c3fd" target="_top" xlink:title="store_data_to_flash">
<polygon fill="white" stroke="black" points="135,-19.5 135,-38.5 236,-38.5 236,-19.5 135,-19.5"/>
<text text-anchor="middle" x="185.5" y="-26.5" font-family="Helvetica,sans-Serif" font-size="10.00">store_data_to_flash</text>
</a>
</g>
</g>
<!-- Node1&#45;&gt;Node2 -->
<g id="edge1" class="edge"><title>Node1&#45;&gt;Node2</title>
<path fill="none" stroke="midnightblue" d="M99.2561,-29C107.449,-29 116.036,-29 124.474,-29"/>
<polygon fill="midnightblue" stroke="midnightblue" points="124.655,-32.5001 134.655,-29 124.655,-25.5001 124.655,-32.5001"/>
</g>
<!-- Node3 -->
<g id="node3" class="node"><title>Node3</title>
<g id="a_node3"><a xlink:href="flash_8c.html#a410eac820c90fe099aa8ed2600d133ce" target="_top" xlink:title="read_flash">
<polygon fill="white" stroke="black" points="274.5,-38.5 274.5,-57.5 335.5,-57.5 335.5,-38.5 274.5,-38.5"/>
<text text-anchor="middle" x="305" y="-45.5" font-family="Helvetica,sans-Serif" font-size="10.00">read_flash</text>
</a>
</g>
</g>
<!-- Node2&#45;&gt;Node3 -->
<g id="edge2" class="edge"><title>Node2&#45;&gt;Node3</title>
<path fill="none" stroke="midnightblue" d="M236.331,-37.0577C245.592,-38.5552 255.155,-40.1017 264.072,-41.5436"/>
<polygon fill="midnightblue" stroke="midnightblue" points="263.756,-45.0378 274.186,-43.179 264.873,-38.1275 263.756,-45.0378"/>
</g>
<!-- Node4 -->
<g id="node4" class="node"><title>Node4</title>
<g id="a_node4"><a xlink:href="flash_8c.html#ac9bcd5ed27bda651ccaa0b4a39730202" target="_top" xlink:title="erase_flash">
<polygon fill="white" stroke="black" points="272,-0.5 272,-19.5 338,-19.5 338,-0.5 272,-0.5"/>
<text text-anchor="middle" x="305" y="-7.5" font-family="Helvetica,sans-Serif" font-size="10.00">erase_flash</text>
</a>
</g>
</g>
<!-- Node2&#45;&gt;Node4 -->
<g id="edge3" class="edge"><title>Node2&#45;&gt;Node4</title>
<path fill="none" stroke="midnightblue" d="M236.331,-20.9423C244.775,-19.5769 253.47,-18.1708 261.698,-16.8403"/>
<polygon fill="midnightblue" stroke="midnightblue" points="262.502,-20.2559 271.815,-15.2044 261.384,-13.3456 262.502,-20.2559"/>
</g>
</g>
</svg>
