<?xml version="1.0" encoding="UTF-8" standalone="no"?>
<!DOCTYPE svg PUBLIC "-//W3C//DTD SVG 1.1//EN"
 "http://www.w3.org/Graphics/SVG/1.1/DTD/svg11.dtd">
<!-- Generated by graphviz version 2.38.0 (20140413.2041)
 -->
<!-- Title: radio_auto_search Pages: 1 -->
<svg width="892pt" height="392pt"
 viewBox="0.00 0.00 892.00 392.00" xmlns="http://www.w3.org/2000/svg" xmlns:xlink="http://www.w3.org/1999/xlink">
<g id="graph0" class="graph" transform="scale(1 1) rotate(0) translate(4 388)">
<title>radio_auto_search</title>
<polygon fill="white" stroke="none" points="-4,4 -4,-388 888,-388 888,4 -4,4"/>
<!-- Node1 -->
<g id="node1" class="node"><title>Node1</title>
<polygon fill="#bfbfbf" stroke="black" points="0,-117.5 0,-136.5 96,-136.5 96,-117.5 0,-117.5"/>
<text text-anchor="middle" x="48" y="-124.5" font-family="Helvetica,sans-Serif" font-size="10.00">radio_auto_search</text>
</g>
<!-- Node2 -->
<g id="node2" class="node"><title>Node2</title>
<g id="a_node2"><a xlink:href="radio_8c.html#aee6321b512830d482a2fc164cf11f9e9" target="_top" xlink:title="Seeking all radio channels. ">
<polygon fill="white" stroke="black" points="279,-288.5 279,-307.5 356,-307.5 356,-288.5 279,-288.5"/>
<text text-anchor="middle" x="317.5" y="-295.5" font-family="Helvetica,sans-Serif" font-size="10.00">radio_seeking</text>
</a>
</g>
</g>
<!-- Node1&#45;&gt;Node2 -->
<g id="edge1" class="edge"><title>Node1&#45;&gt;Node2</title>
<path fill="none" stroke="midnightblue" d="M58.0032,-136.777C72.5294,-152.18 102.502,-182.451 132,-203 181.661,-237.595 245.593,-267.694 283.682,-284.302"/>
<polygon fill="midnightblue" stroke="midnightblue" points="282.677,-287.68 293.246,-288.424 285.448,-281.252 282.677,-287.68"/>
</g>
<!-- Node12 -->
<g id="node12" class="node"><title>Node12</title>
<g id="a_node12"><a xlink:href="timer_8c.html#a276d5cb665b9f8b2c79e53e2f2c5b4f0" target="_top" xlink:title="_delay_ms">
<polygon fill="white" stroke="black" points="577,-174.5 577,-193.5 641,-193.5 641,-174.5 577,-174.5"/>
<text text-anchor="middle" x="609" y="-181.5" font-family="Helvetica,sans-Serif" font-size="10.00">_delay_ms</text>
</a>
</g>
</g>
<!-- Node1&#45;&gt;Node12 -->
<g id="edge23" class="edge"><title>Node1&#45;&gt;Node12</title>
<path fill="none" stroke="midnightblue" d="M96.134,-128.692C181.339,-132.217 366.502,-142.017 521,-165 536.012,-167.233 552.305,-170.548 566.688,-173.786"/>
<polygon fill="midnightblue" stroke="midnightblue" points="566.247,-177.276 576.778,-176.114 567.821,-170.455 566.247,-177.276"/>
</g>
<!-- Node13 -->
<g id="node13" class="node"><title>Node13</title>
<g id="a_node13"><a xlink:href="lcd_8h.html#acd63fb85d212730fa4fcbcbeeccd231e" target="_top" xlink:title="lcd_create_view">
<polygon fill="white" stroke="black" points="139,-174.5 139,-193.5 224,-193.5 224,-174.5 139,-174.5"/>
<text text-anchor="middle" x="181.5" y="-181.5" font-family="Helvetica,sans-Serif" font-size="10.00">lcd_create_view</text>
</a>
</g>
</g>
<!-- Node1&#45;&gt;Node13 -->
<g id="edge15" class="edge"><title>Node1&#45;&gt;Node13</title>
<path fill="none" stroke="midnightblue" d="M71.0101,-136.541C92.3448,-145.788 124.924,-159.91 149.002,-170.347"/>
<polygon fill="midnightblue" stroke="midnightblue" points="147.851,-173.663 158.418,-174.428 150.635,-167.24 147.851,-173.663"/>
</g>
<!-- Node17 -->
<g id="node17" class="node"><title>Node17</title>
<g id="a_node17"><a xlink:href="string_8c.html#a82b1b882cf97ff40344f87bd1473e9d0" target="_top" xlink:title="string_int_to_array">
<polygon fill="white" stroke="black" points="133,-98.5 133,-117.5 230,-117.5 230,-98.5 133,-98.5"/>
<text text-anchor="middle" x="181.5" y="-105.5" font-family="Helvetica,sans-Serif" font-size="10.00">string_int_to_array</text>
</a>
</g>
</g>
<!-- Node1&#45;&gt;Node17 -->
<g id="edge22" class="edge"><title>Node1&#45;&gt;Node17</title>
<path fill="none" stroke="midnightblue" d="M96.1031,-120.194C104.777,-118.941 113.924,-117.619 122.867,-116.327"/>
<polygon fill="midnightblue" stroke="midnightblue" points="123.444,-119.78 132.841,-114.886 122.443,-112.852 123.444,-119.78"/>
</g>
<!-- Node18 -->
<g id="node18" class="node"><title>Node18</title>
<g id="a_node18"><a xlink:href="radio_8c.html#a1c031719ba892045c773dc035058870f" target="_top" xlink:title="Updates the current RDS data . ">
<polygon fill="white" stroke="black" points="149,-60.5 149,-79.5 214,-79.5 214,-60.5 149,-60.5"/>
<text text-anchor="middle" x="181.5" y="-67.5" font-family="Helvetica,sans-Serif" font-size="10.00">rds_update</text>
</a>
</g>
</g>
<!-- Node1&#45;&gt;Node18 -->
<g id="edge24" class="edge"><title>Node1&#45;&gt;Node18</title>
<path fill="none" stroke="midnightblue" d="M68.9864,-117.469C85.712,-109.585 110.263,-98.2252 132,-89 136.448,-87.1121 141.153,-85.1845 145.813,-83.316"/>
<polygon fill="midnightblue" stroke="midnightblue" points="147.207,-86.5283 155.219,-79.5953 144.633,-80.019 147.207,-86.5283"/>
</g>
<!-- Node19 -->
<g id="node19" class="node"><title>Node19</title>
<g id="a_node19"><a xlink:href="radio_8c.html#a5e5300f73411d8e90a928adf42d2a6ed" target="_top" xlink:title="Store one radio station. ">
<polygon fill="white" stroke="black" points="132,-22.5 132,-41.5 231,-41.5 231,-22.5 132,-22.5"/>
<text text-anchor="middle" x="181.5" y="-29.5" font-family="Helvetica,sans-Serif" font-size="10.00">radio_store_station</text>
</a>
</g>
</g>
<!-- Node1&#45;&gt;Node19 -->
<g id="edge25" class="edge"><title>Node1&#45;&gt;Node19</title>
<path fill="none" stroke="midnightblue" d="M57.3059,-117.372C71.3192,-101.633 101.16,-70.2232 132,-51 135.007,-49.1254 138.231,-47.3795 141.533,-45.7669"/>
<polygon fill="midnightblue" stroke="midnightblue" points="143.225,-48.8446 150.936,-41.5785 140.377,-42.4502 143.225,-48.8446"/>
</g>
<!-- Node3 -->
<g id="node3" class="node"><title>Node3</title>
<g id="a_node3"><a xlink:href="external__interrupthandler_8h.html#a345dfb9a7e177c5da6eb9dc5b3c82bc9" target="_top" xlink:title="ext_interrupt_enable">
<polygon fill="white" stroke="black" points="410.5,-364.5 410.5,-383.5 514.5,-383.5 514.5,-364.5 410.5,-364.5"/>
<text text-anchor="middle" x="462.5" y="-371.5" font-family="Helvetica,sans-Serif" font-size="10.00">ext_interrupt_enable</text>
</a>
</g>
</g>
<!-- Node2&#45;&gt;Node3 -->
<g id="edge2" class="edge"><title>Node2&#45;&gt;Node3</title>
<path fill="none" stroke="midnightblue" d="M330.609,-307.611C346.626,-319.954 376.097,-341.398 404,-355 408.377,-357.134 413.052,-359.117 417.774,-360.935"/>
<polygon fill="midnightblue" stroke="midnightblue" points="416.858,-364.325 427.452,-364.428 419.235,-357.741 416.858,-364.325"/>
</g>
<!-- Node4 -->
<g id="node4" class="node"><title>Node4</title>
<g id="a_node4"><a xlink:href="si4735_8h.html#a339846da787fb5a496df9252ca7dc9a5" target="_top" xlink:title="si4735_fm_seek_start">
<polygon fill="white" stroke="black" points="406.5,-326.5 406.5,-345.5 518.5,-345.5 518.5,-326.5 406.5,-326.5"/>
<text text-anchor="middle" x="462.5" y="-333.5" font-family="Helvetica,sans-Serif" font-size="10.00">si4735_fm_seek_start</text>
</a>
</g>
</g>
<!-- Node2&#45;&gt;Node4 -->
<g id="edge3" class="edge"><title>Node2&#45;&gt;Node4</title>
<path fill="none" stroke="midnightblue" d="M354.585,-307.589C373.13,-312.517 395.926,-318.575 415.699,-323.829"/>
<polygon fill="midnightblue" stroke="midnightblue" points="414.863,-327.228 425.427,-326.414 416.661,-320.463 414.863,-327.228"/>
</g>
<!-- Node10 -->
<g id="node10" class="node"><title>Node10</title>
<g id="a_node10"><a xlink:href="external__interrupthandler_8h.html#a67fb5781413cf5c193be332cc6e52209" target="_top" xlink:title="ext_interrupt_disable">
<polygon fill="white" stroke="black" points="409,-250.5 409,-269.5 516,-269.5 516,-250.5 409,-250.5"/>
<text text-anchor="middle" x="462.5" y="-257.5" font-family="Helvetica,sans-Serif" font-size="10.00">ext_interrupt_disable</text>
</a>
</g>
</g>
<!-- Node2&#45;&gt;Node10 -->
<g id="edge9" class="edge"><title>Node2&#45;&gt;Node10</title>
<path fill="none" stroke="midnightblue" d="M354.585,-288.411C373.13,-283.483 395.926,-277.425 415.699,-272.171"/>
<polygon fill="midnightblue" stroke="midnightblue" points="416.661,-275.537 425.427,-269.586 414.863,-268.772 416.661,-275.537"/>
</g>
<!-- Node11 -->
<g id="node11" class="node"><title>Node11</title>
<g id="a_node11"><a xlink:href="si4735_8h.html#ad8b515f4991303f8cac978410d736a03" target="_top" xlink:title="si4735_fm_tune_status">
<polygon fill="white" stroke="black" points="404,-288.5 404,-307.5 521,-307.5 521,-288.5 404,-288.5"/>
<text text-anchor="middle" x="462.5" y="-295.5" font-family="Helvetica,sans-Serif" font-size="10.00">si4735_fm_tune_status</text>
</a>
</g>
</g>
<!-- Node2&#45;&gt;Node11 -->
<g id="edge10" class="edge"><title>Node2&#45;&gt;Node11</title>
<path fill="none" stroke="midnightblue" d="M356.072,-298C367.629,-298 380.726,-298 393.663,-298"/>
<polygon fill="midnightblue" stroke="midnightblue" points="393.971,-301.5 403.971,-298 393.971,-294.5 393.971,-301.5"/>
</g>
<!-- Node5 -->
<g id="node5" class="node"><title>Node5</title>
<g id="a_node5"><a xlink:href="i2c_8h.html#a6691e5911f539e1e8178c6e983e8079a" target="_top" xlink:title="Transmits I2C commands with a variable length to a I2C slave. ">
<polygon fill="white" stroke="black" points="573,-212.5 573,-231.5 645,-231.5 645,-212.5 573,-212.5"/>
<text text-anchor="middle" x="609" y="-219.5" font-family="Helvetica,sans-Serif" font-size="10.00">i2c_write_var</text>
</a>
</g>
</g>
<!-- Node4&#45;&gt;Node5 -->
<g id="edge4" class="edge"><title>Node4&#45;&gt;Node5</title>
<path fill="none" stroke="midnightblue" d="M501.575,-326.48C508.329,-323.951 515.086,-320.826 521,-317 525.339,-314.193 568.784,-265.895 592.59,-239.274"/>
<polygon fill="midnightblue" stroke="midnightblue" points="595.23,-241.573 599.282,-231.783 590.01,-236.909 595.23,-241.573"/>
</g>
<!-- Node8 -->
<g id="node8" class="node"><title>Node8</title>
<g id="a_node8"><a xlink:href="si4735_8c.html#aad8341b5b19aa8f962a6b9b940d77960" target="_top" xlink:title="si4735_get_interrupt">
<polygon fill="white" stroke="black" points="557,-326.5 557,-345.5 661,-345.5 661,-326.5 557,-326.5"/>
<text text-anchor="middle" x="609" y="-333.5" font-family="Helvetica,sans-Serif" font-size="10.00">si4735_get_interrupt</text>
</a>
</g>
</g>
<!-- Node4&#45;&gt;Node8 -->
<g id="edge7" class="edge"><title>Node4&#45;&gt;Node8</title>
<path fill="none" stroke="midnightblue" d="M518.541,-336C527.796,-336 537.45,-336 546.848,-336"/>
<polygon fill="midnightblue" stroke="midnightblue" points="546.913,-339.5 556.913,-336 546.913,-332.5 546.913,-339.5"/>
</g>
<!-- Node9 -->
<g id="node9" class="node"><title>Node9</title>
<g id="a_node9"><a xlink:href="i2c_8h.html#a6dd896b0c82d1aa91a1a8155b41c4566" target="_top" xlink:title="Receives I2C commands until a NACK is received or received RxBytes. ">
<polygon fill="white" stroke="black" points="582.5,-288.5 582.5,-307.5 635.5,-307.5 635.5,-288.5 582.5,-288.5"/>
<text text-anchor="middle" x="609" y="-295.5" font-family="Helvetica,sans-Serif" font-size="10.00">i2c_read</text>
</a>
</g>
</g>
<!-- Node4&#45;&gt;Node9 -->
<g id="edge8" class="edge"><title>Node4&#45;&gt;Node9</title>
<path fill="none" stroke="midnightblue" d="M499.963,-326.411C522.194,-320.565 550.471,-313.129 572.52,-307.33"/>
<polygon fill="midnightblue" stroke="midnightblue" points="573.697,-310.64 582.478,-304.712 571.917,-303.87 573.697,-310.64"/>
</g>
<!-- Node6 -->
<g id="node6" class="node"><title>Node6</title>
<g id="a_node6"><a xlink:href="i2c_8c.html#ae0625b97d3437bcaca4ac4b96dd01978" target="_top" xlink:title="Transmits I2C command array to a I2C slave. ">
<polygon fill="white" stroke="black" points="697,-212.5 697,-231.5 768,-231.5 768,-212.5 697,-212.5"/>
<text text-anchor="middle" x="732.5" y="-219.5" font-family="Helvetica,sans-Serif" font-size="10.00">i2c_write_arr</text>
</a>
</g>
</g>
<!-- Node5&#45;&gt;Node6 -->
<g id="edge5" class="edge"><title>Node5&#45;&gt;Node6</title>
<path fill="none" stroke="midnightblue" d="M645.143,-222C658.1,-222 672.959,-222 686.657,-222"/>
<polygon fill="midnightblue" stroke="midnightblue" points="686.856,-225.5 696.856,-222 686.856,-218.5 686.856,-225.5"/>
</g>
<!-- Node7 -->
<g id="node7" class="node"><title>Node7</title>
<g id="a_node7"><a xlink:href="timer_8c.html#a3c56af3315c2461dec5ced585a5f84db" target="_top" xlink:title="_delay_ten_us">
<polygon fill="white" stroke="black" points="804,-193.5 804,-212.5 884,-212.5 884,-193.5 804,-193.5"/>
<text text-anchor="middle" x="844" y="-200.5" font-family="Helvetica,sans-Serif" font-size="10.00">_delay_ten_us</text>
</a>
</g>
</g>
<!-- Node6&#45;&gt;Node7 -->
<g id="edge6" class="edge"><title>Node6&#45;&gt;Node7</title>
<path fill="none" stroke="midnightblue" d="M768.146,-215.988C776.253,-214.582 785.042,-213.057 793.651,-211.563"/>
<polygon fill="midnightblue" stroke="midnightblue" points="794.368,-214.991 803.623,-209.833 793.172,-208.094 794.368,-214.991"/>
</g>
<!-- Node11&#45;&gt;Node5 -->
<g id="edge11" class="edge"><title>Node11&#45;&gt;Node5</title>
<path fill="none" stroke="midnightblue" d="M497.225,-288.488C505.18,-285.801 513.52,-282.609 521,-279 545.097,-267.373 570.445,-250.11 587.523,-237.63"/>
<polygon fill="midnightblue" stroke="midnightblue" points="589.708,-240.367 595.65,-231.595 585.535,-234.747 589.708,-240.367"/>
</g>
<!-- Node11&#45;&gt;Node9 -->
<g id="edge14" class="edge"><title>Node11&#45;&gt;Node9</title>
<path fill="none" stroke="midnightblue" d="M521.025,-298C538.291,-298 556.728,-298 572.164,-298"/>
<polygon fill="midnightblue" stroke="midnightblue" points="572.319,-301.5 582.319,-298 572.318,-294.5 572.319,-301.5"/>
</g>
<!-- Node11&#45;&gt;Node12 -->
<g id="edge12" class="edge"><title>Node11&#45;&gt;Node12</title>
<path fill="none" stroke="midnightblue" d="M505.871,-288.469C511.355,-286.001 516.588,-282.899 521,-279 549.006,-254.249 529.463,-228.271 557,-203 560.172,-200.089 563.83,-197.613 567.701,-195.508"/>
<polygon fill="midnightblue" stroke="midnightblue" points="569.364,-198.596 576.991,-191.243 566.443,-192.234 569.364,-198.596"/>
</g>
<!-- Node12&#45;&gt;Node7 -->
<g id="edge13" class="edge"><title>Node12&#45;&gt;Node7</title>
<path fill="none" stroke="midnightblue" d="M641.423,-186.562C680.572,-189.755 747.903,-195.245 793.888,-198.995"/>
<polygon fill="midnightblue" stroke="midnightblue" points="793.682,-202.49 803.933,-199.814 794.251,-195.513 793.682,-202.49"/>
</g>
<!-- Node14 -->
<g id="node14" class="node"><title>Node14</title>
<g id="a_node14"><a xlink:href="lcd_8c.html#a2a4df97ebc5b396233aa31765228ef42" target="_top" xlink:title="lcd_set_courser">
<polygon fill="white" stroke="black" points="274.5,-174.5 274.5,-193.5 360.5,-193.5 360.5,-174.5 274.5,-174.5"/>
<text text-anchor="middle" x="317.5" y="-181.5" font-family="Helvetica,sans-Serif" font-size="10.00">lcd_set_courser</text>
</a>
</g>
</g>
<!-- Node13&#45;&gt;Node14 -->
<g id="edge16" class="edge"><title>Node13&#45;&gt;Node14</title>
<path fill="none" stroke="midnightblue" d="M224.164,-184C236.773,-184 250.787,-184 264.009,-184"/>
<polygon fill="midnightblue" stroke="midnightblue" points="264.4,-187.5 274.4,-184 264.4,-180.5 264.4,-187.5"/>
</g>
<!-- Node16 -->
<g id="node16" class="node"><title>Node16</title>
<g id="a_node16"><a xlink:href="lcd_8c.html#aa6e1aa2ef9b677e16d8198df683429ec" target="_top" xlink:title="lcd_write_string">
<polygon fill="white" stroke="black" points="275.5,-212.5 275.5,-231.5 359.5,-231.5 359.5,-212.5 275.5,-212.5"/>
<text text-anchor="middle" x="317.5" y="-219.5" font-family="Helvetica,sans-Serif" font-size="10.00">lcd_write_string</text>
</a>
</g>
</g>
<!-- Node13&#45;&gt;Node16 -->
<g id="edge20" class="edge"><title>Node13&#45;&gt;Node16</title>
<path fill="none" stroke="midnightblue" d="M216.314,-193.589C233.533,-198.472 254.664,-204.464 273.073,-209.685"/>
<polygon fill="midnightblue" stroke="midnightblue" points="272.121,-213.053 282.697,-212.414 274.031,-206.319 272.121,-213.053"/>
</g>
<!-- Node15 -->
<g id="node15" class="node"><title>Node15</title>
<g id="a_node15"><a xlink:href="lcd_8c.html#a250728451a22259562d3f01a12bbd77b" target="_top" xlink:title="lcd_command">
<polygon fill="white" stroke="black" points="424,-174.5 424,-193.5 501,-193.5 501,-174.5 424,-174.5"/>
<text text-anchor="middle" x="462.5" y="-181.5" font-family="Helvetica,sans-Serif" font-size="10.00">lcd_command</text>
</a>
</g>
</g>
<!-- Node14&#45;&gt;Node15 -->
<g id="edge17" class="edge"><title>Node14&#45;&gt;Node15</title>
<path fill="none" stroke="midnightblue" d="M360.631,-184C377.142,-184 396.181,-184 413.24,-184"/>
<polygon fill="midnightblue" stroke="midnightblue" points="413.566,-187.5 423.566,-184 413.566,-180.5 413.566,-187.5"/>
</g>
<!-- Node15&#45;&gt;Node5 -->
<g id="edge18" class="edge"><title>Node15&#45;&gt;Node5</title>
<path fill="none" stroke="midnightblue" d="M499.963,-193.589C518.989,-198.592 542.443,-204.76 562.632,-210.069"/>
<polygon fill="midnightblue" stroke="midnightblue" points="561.986,-213.518 572.547,-212.677 563.766,-206.749 561.986,-213.518"/>
</g>
<!-- Node15&#45;&gt;Node12 -->
<g id="edge19" class="edge"><title>Node15&#45;&gt;Node12</title>
<path fill="none" stroke="midnightblue" d="M501.088,-184C521.262,-184 546.16,-184 566.852,-184"/>
<polygon fill="midnightblue" stroke="midnightblue" points="566.936,-187.5 576.936,-184 566.936,-180.5 566.936,-187.5"/>
</g>
<!-- Node16&#45;&gt;Node5 -->
<g id="edge21" class="edge"><title>Node16&#45;&gt;Node5</title>
<path fill="none" stroke="midnightblue" d="M359.671,-222C413.346,-222 506.924,-222 562.603,-222"/>
<polygon fill="midnightblue" stroke="midnightblue" points="562.876,-225.5 572.876,-222 562.876,-218.5 562.876,-225.5"/>
</g>
<!-- Node20 -->
<g id="node20" class="node"><title>Node20</title>
<g id="a_node20"><a xlink:href="string_8c.html#a0e45f80d2057e44647b21fd530fe185d" target="_top" xlink:title="string_fixedpoint_to\l_array">
<polygon fill="white" stroke="black" points="267,-39 267,-69 368,-69 368,-39 267,-39"/>
<text text-anchor="start" x="275" y="-57" font-family="Helvetica,sans-Serif" font-size="10.00">string_fixedpoint_to</text>
<text text-anchor="middle" x="317.5" y="-46" font-family="Helvetica,sans-Serif" font-size="10.00">_array</text>
</a>
</g>
</g>
<!-- Node19&#45;&gt;Node20 -->
<g id="edge26" class="edge"><title>Node19&#45;&gt;Node20</title>
<path fill="none" stroke="midnightblue" d="M231.256,-40.0047C239.539,-41.3646 248.225,-42.7906 256.752,-44.1906"/>
<polygon fill="midnightblue" stroke="midnightblue" points="256.22,-47.6501 266.655,-45.8166 257.355,-40.7426 256.22,-47.6501"/>
</g>
<!-- Node21 -->
<g id="node21" class="node"><title>Node21</title>
<g id="a_node21"><a xlink:href="flash_8h.html#a936ded19cea6a94beca2b32349a9ac2c" target="_top" xlink:title="flash_store">
<polygon fill="white" stroke="black" points="285.5,-0.5 285.5,-19.5 349.5,-19.5 349.5,-0.5 285.5,-0.5"/>
<text text-anchor="middle" x="317.5" y="-7.5" font-family="Helvetica,sans-Serif" font-size="10.00">flash_store</text>
</a>
</g>
</g>
<!-- Node19&#45;&gt;Node21 -->
<g id="edge27" class="edge"><title>Node19&#45;&gt;Node21</title>
<path fill="none" stroke="midnightblue" d="M231.256,-23.9953C245.687,-21.626 261.34,-19.0561 275.248,-16.7728"/>
<polygon fill="midnightblue" stroke="midnightblue" points="276.193,-20.1646 285.493,-15.0906 275.058,-13.2571 276.193,-20.1646"/>
</g>
<!-- Node22 -->
<g id="node22" class="node"><title>Node22</title>
<g id="a_node22"><a xlink:href="flash_8c.html#ad9d8a7cadb959b139fea7654d539714a" target="_top" xlink:title="flash_read">
<polygon fill="white" stroke="black" points="432,-0.5 432,-19.5 493,-19.5 493,-0.5 432,-0.5"/>
<text text-anchor="middle" x="462.5" y="-7.5" font-family="Helvetica,sans-Serif" font-size="10.00">flash_read</text>
</a>
</g>
</g>
<!-- Node21&#45;&gt;Node22 -->
<g id="edge28" class="edge"><title>Node21&#45;&gt;Node22</title>
<path fill="none" stroke="midnightblue" d="M349.529,-10C370.757,-10 399.081,-10 421.93,-10"/>
<polygon fill="midnightblue" stroke="midnightblue" points="421.998,-13.5001 431.998,-10 421.998,-6.5001 421.998,-13.5001"/>
</g>
</g>
</svg>
