<?xml version="1.0" encoding="UTF-8" standalone="no"?>
<!DOCTYPE svg PUBLIC "-//W3C//DTD SVG 1.1//EN"
 "http://www.w3.org/Graphics/SVG/1.1/DTD/svg11.dtd">
<!-- Generated by graphviz version 2.38.0 (20140413.2041)
 -->
<!-- Title: radio_seeking Pages: 1 -->
<svg width="601pt" height="142pt"
 viewBox="0.00 0.00 601.00 142.00" xmlns="http://www.w3.org/2000/svg" xmlns:xlink="http://www.w3.org/1999/xlink">
<g id="graph0" class="graph" transform="scale(1 1) rotate(0) translate(4 138)">
<title>radio_seeking</title>
<polygon fill="white" stroke="none" points="-4,4 -4,-138 597,-138 597,4 -4,4"/>
<!-- Node1 -->
<g id="node1" class="node"><title>Node1</title>
<polygon fill="#bfbfbf" stroke="black" points="0,-57.5 0,-76.5 77,-76.5 77,-57.5 0,-57.5"/>
<text text-anchor="middle" x="38.5" y="-64.5" font-family="Helvetica,sans-Serif" font-size="10.00">radio_seeking</text>
</g>
<!-- Node2 -->
<g id="node2" class="node"><title>Node2</title>
<g id="a_node2"><a xlink:href="external__interrupthandler_8h.html#a345dfb9a7e177c5da6eb9dc5b3c82bc9" target="_top" xlink:title="ext_interrupt_enable">
<polygon fill="white" stroke="black" points="119.5,-114.5 119.5,-133.5 223.5,-133.5 223.5,-114.5 119.5,-114.5"/>
<text text-anchor="middle" x="171.5" y="-121.5" font-family="Helvetica,sans-Serif" font-size="10.00">ext_interrupt_enable</text>
</a>
</g>
</g>
<!-- Node1&#45;&gt;Node2 -->
<g id="edge1" class="edge"><title>Node1&#45;&gt;Node2</title>
<path fill="none" stroke="midnightblue" d="M56.0701,-76.5274C70.7354,-84.7252 92.8732,-96.5344 113,-105 118.088,-107.14 123.507,-109.201 128.908,-111.126"/>
<polygon fill="midnightblue" stroke="midnightblue" points="127.939,-114.494 138.534,-114.431 130.213,-107.874 127.939,-114.494"/>
</g>
<!-- Node3 -->
<g id="node3" class="node"><title>Node3</title>
<g id="a_node3"><a xlink:href="si4735_8h.html#a339846da787fb5a496df9252ca7dc9a5" target="_top" xlink:title="si4735_fm_seek_start">
<polygon fill="white" stroke="black" points="115.5,-76.5 115.5,-95.5 227.5,-95.5 227.5,-76.5 115.5,-76.5"/>
<text text-anchor="middle" x="171.5" y="-83.5" font-family="Helvetica,sans-Serif" font-size="10.00">si4735_fm_seek_start</text>
</a>
</g>
</g>
<!-- Node1&#45;&gt;Node3 -->
<g id="edge2" class="edge"><title>Node1&#45;&gt;Node3</title>
<path fill="none" stroke="midnightblue" d="M77.0393,-72.4446C85.9053,-73.7305 95.6127,-75.1385 105.311,-76.5451"/>
<polygon fill="midnightblue" stroke="midnightblue" points="104.98,-80.0336 115.379,-78.0053 105.985,-73.1061 104.98,-80.0336"/>
</g>
<!-- Node9 -->
<g id="node9" class="node"><title>Node9</title>
<g id="a_node9"><a xlink:href="si4735_8h.html#ad8b515f4991303f8cac978410d736a03" target="_top" xlink:title="si4735_fm_tune_status">
<polygon fill="white" stroke="black" points="113,-38.5 113,-57.5 230,-57.5 230,-38.5 113,-38.5"/>
<text text-anchor="middle" x="171.5" y="-45.5" font-family="Helvetica,sans-Serif" font-size="10.00">si4735_fm_tune_status</text>
</a>
</g>
</g>
<!-- Node1&#45;&gt;Node9 -->
<g id="edge8" class="edge"><title>Node1&#45;&gt;Node9</title>
<path fill="none" stroke="midnightblue" d="M77.0393,-61.5554C85.1693,-60.3762 94.0069,-59.0944 102.896,-57.8051"/>
<polygon fill="midnightblue" stroke="midnightblue" points="103.525,-61.2506 112.919,-56.3514 102.521,-54.3231 103.525,-61.2506"/>
</g>
<!-- Node10 -->
<g id="node10" class="node"><title>Node10</title>
<g id="a_node10"><a xlink:href="external__interrupthandler_8h.html#a67fb5781413cf5c193be332cc6e52209" target="_top" xlink:title="ext_interrupt_disable">
<polygon fill="white" stroke="black" points="118,-0.5 118,-19.5 225,-19.5 225,-0.5 118,-0.5"/>
<text text-anchor="middle" x="171.5" y="-7.5" font-family="Helvetica,sans-Serif" font-size="10.00">ext_interrupt_disable</text>
</a>
</g>
</g>
<!-- Node1&#45;&gt;Node10 -->
<g id="edge12" class="edge"><title>Node1&#45;&gt;Node10</title>
<path fill="none" stroke="midnightblue" d="M56.0701,-57.4726C70.7354,-49.2748 92.8732,-37.4656 113,-29 118.088,-26.86 123.507,-24.7986 128.908,-22.8737"/>
<polygon fill="midnightblue" stroke="midnightblue" points="130.213,-26.1263 138.534,-19.5685 127.939,-19.5057 130.213,-26.1263"/>
</g>
<!-- Node4 -->
<g id="node4" class="node"><title>Node4</title>
<g id="a_node4"><a xlink:href="i2c_8h.html#a6691e5911f539e1e8178c6e983e8079a" target="_top" xlink:title="Transmits I2C commands with a variable length to a I2C slave. ">
<polygon fill="white" stroke="black" points="282,-95.5 282,-114.5 354,-114.5 354,-95.5 282,-95.5"/>
<text text-anchor="middle" x="318" y="-102.5" font-family="Helvetica,sans-Serif" font-size="10.00">i2c_write_var</text>
</a>
</g>
</g>
<!-- Node3&#45;&gt;Node4 -->
<g id="edge3" class="edge"><title>Node3&#45;&gt;Node4</title>
<path fill="none" stroke="midnightblue" d="M227.541,-93.2373C242.032,-95.1427 257.504,-97.177 271.435,-99.0088"/>
<polygon fill="midnightblue" stroke="midnightblue" points="271.376,-102.531 281.747,-100.365 272.288,-95.5907 271.376,-102.531"/>
</g>
<!-- Node7 -->
<g id="node7" class="node"><title>Node7</title>
<g id="a_node7"><a xlink:href="si4735_8c.html#aad8341b5b19aa8f962a6b9b940d77960" target="_top" xlink:title="si4735_get_interrupt">
<polygon fill="white" stroke="black" points="266,-57.5 266,-76.5 370,-76.5 370,-57.5 266,-57.5"/>
<text text-anchor="middle" x="318" y="-64.5" font-family="Helvetica,sans-Serif" font-size="10.00">si4735_get_interrupt</text>
</a>
</g>
</g>
<!-- Node3&#45;&gt;Node7 -->
<g id="edge6" class="edge"><title>Node3&#45;&gt;Node7</title>
<path fill="none" stroke="midnightblue" d="M227.541,-78.7627C236.796,-77.5459 246.45,-76.2765 255.848,-75.0408"/>
<polygon fill="midnightblue" stroke="midnightblue" points="256.455,-78.4912 265.913,-73.7173 255.542,-71.5509 256.455,-78.4912"/>
</g>
<!-- Node8 -->
<g id="node8" class="node"><title>Node8</title>
<g id="a_node8"><a xlink:href="i2c_8h.html#a6dd896b0c82d1aa91a1a8155b41c4566" target="_top" xlink:title="Receives I2C commands until a NACK is received or received RxBytes. ">
<polygon fill="white" stroke="black" points="291.5,-19.5 291.5,-38.5 344.5,-38.5 344.5,-19.5 291.5,-19.5"/>
<text text-anchor="middle" x="318" y="-26.5" font-family="Helvetica,sans-Serif" font-size="10.00">i2c_read</text>
</a>
</g>
</g>
<!-- Node3&#45;&gt;Node8 -->
<g id="edge7" class="edge"><title>Node3&#45;&gt;Node8</title>
<path fill="none" stroke="midnightblue" d="M204.486,-76.4781C212.89,-73.6929 221.874,-70.4584 230,-67 246.647,-59.9151 249.489,-55.3956 266,-48 271.066,-45.7308 276.493,-43.5025 281.848,-41.4157"/>
<polygon fill="midnightblue" stroke="midnightblue" points="283.202,-44.6459 291.317,-37.8344 280.725,-38.0986 283.202,-44.6459"/>
</g>
<!-- Node5 -->
<g id="node5" class="node"><title>Node5</title>
<g id="a_node5"><a xlink:href="i2c_8c.html#ae0625b97d3437bcaca4ac4b96dd01978" target="_top" xlink:title="Transmits I2C command array to a I2C slave. ">
<polygon fill="white" stroke="black" points="406,-95.5 406,-114.5 477,-114.5 477,-95.5 406,-95.5"/>
<text text-anchor="middle" x="441.5" y="-102.5" font-family="Helvetica,sans-Serif" font-size="10.00">i2c_write_arr</text>
</a>
</g>
</g>
<!-- Node4&#45;&gt;Node5 -->
<g id="edge4" class="edge"><title>Node4&#45;&gt;Node5</title>
<path fill="none" stroke="midnightblue" d="M354.143,-105C367.1,-105 381.959,-105 395.657,-105"/>
<polygon fill="midnightblue" stroke="midnightblue" points="395.856,-108.5 405.856,-105 395.856,-101.5 395.856,-108.5"/>
</g>
<!-- Node6 -->
<g id="node6" class="node"><title>Node6</title>
<g id="a_node6"><a xlink:href="timer_8c.html#a3c56af3315c2461dec5ced585a5f84db" target="_top" xlink:title="_delay_ten_us">
<polygon fill="white" stroke="black" points="513,-95.5 513,-114.5 593,-114.5 593,-95.5 513,-95.5"/>
<text text-anchor="middle" x="553" y="-102.5" font-family="Helvetica,sans-Serif" font-size="10.00">_delay_ten_us</text>
</a>
</g>
</g>
<!-- Node5&#45;&gt;Node6 -->
<g id="edge5" class="edge"><title>Node5&#45;&gt;Node6</title>
<path fill="none" stroke="midnightblue" d="M477.146,-105C485.165,-105 493.851,-105 502.37,-105"/>
<polygon fill="midnightblue" stroke="midnightblue" points="502.623,-108.5 512.623,-105 502.623,-101.5 502.623,-108.5"/>
</g>
<!-- Node9&#45;&gt;Node4 -->
<g id="edge9" class="edge"><title>Node9&#45;&gt;Node4</title>
<path fill="none" stroke="midnightblue" d="M204.486,-57.5219C212.89,-60.3071 221.874,-63.5416 230,-67 246.647,-74.0849 249.489,-78.6044 266,-86 270.454,-87.9952 275.188,-89.9588 279.906,-91.8224"/>
<polygon fill="midnightblue" stroke="midnightblue" points="278.885,-95.1792 289.475,-95.485 281.387,-88.6417 278.885,-95.1792"/>
</g>
<!-- Node9&#45;&gt;Node7 -->
<g id="edge10" class="edge"><title>Node9&#45;&gt;Node7</title>
<path fill="none" stroke="midnightblue" d="M230.025,-55.5639C238.511,-56.6796 247.279,-57.8325 255.835,-58.9575"/>
<polygon fill="midnightblue" stroke="midnightblue" points="255.38,-62.4278 265.751,-60.2614 256.293,-55.4875 255.38,-62.4278"/>
</g>
<!-- Node9&#45;&gt;Node8 -->
<g id="edge11" class="edge"><title>Node9&#45;&gt;Node8</title>
<path fill="none" stroke="midnightblue" d="M230.025,-40.4361C247.291,-38.1659 265.728,-35.7416 281.164,-33.7121"/>
<polygon fill="midnightblue" stroke="midnightblue" points="281.86,-37.1507 291.319,-32.3768 280.948,-30.2104 281.86,-37.1507"/>
</g>
</g>
</svg>
