<?xml version="1.0" encoding="UTF-8" standalone="no"?>
<!DOCTYPE svg PUBLIC "-//W3C//DTD SVG 1.1//EN"
 "http://www.w3.org/Graphics/SVG/1.1/DTD/svg11.dtd">
<!-- Generated by graphviz version 2.38.0 (20140413.2041)
 -->
<!-- Title: radio_store_station Pages: 1 -->
<svg width="792pt" height="104pt"
 viewBox="0.00 0.00 792.00 104.00" xmlns="http://www.w3.org/2000/svg" xmlns:xlink="http://www.w3.org/1999/xlink">
<g id="graph0" class="graph" transform="scale(1 1) rotate(0) translate(4 100)">
<title>radio_store_station</title>
<polygon fill="white" stroke="none" points="-4,4 -4,-100 788,-100 788,4 -4,4"/>
<!-- Node1 -->
<g id="node1" class="node"><title>Node1</title>
<polygon fill="#bfbfbf" stroke="black" points="0,-57.5 0,-76.5 99,-76.5 99,-57.5 0,-57.5"/>
<text text-anchor="middle" x="49.5" y="-64.5" font-family="Helvetica,sans-Serif" font-size="10.00">radio_store_station</text>
</g>
<!-- Node2 -->
<g id="node2" class="node"><title>Node2</title>
<g id="a_node2"><a xlink:href="radio_8c.html#ac96da2886aec92b299b27b500761564c" target="_top" xlink:title="radio_auto_search">
<polygon fill="white" stroke="black" points="272,-76.5 272,-95.5 368,-95.5 368,-76.5 272,-76.5"/>
<text text-anchor="middle" x="320" y="-83.5" font-family="Helvetica,sans-Serif" font-size="10.00">radio_auto_search</text>
</a>
</g>
</g>
<!-- Node1&#45;&gt;Node2 -->
<g id="edge1" class="edge"><title>Node1&#45;&gt;Node2</title>
<path fill="none" stroke="midnightblue" d="M109.207,-71.1543C157.937,-74.6026 226.352,-79.4439 271.64,-82.6486"/>
<polygon fill="midnightblue" stroke="midnightblue" points="109.345,-67.6554 99.1233,-70.4408 108.851,-74.638 109.345,-67.6554"/>
</g>
<!-- Node7 -->
<g id="node7" class="node"><title>Node7</title>
<g id="a_node7"><a xlink:href="station__list_8h.html#a5b16204c2b6824ce89364d614f074b20" target="_top" xlink:title="station_list_handler">
<polygon fill="white" stroke="black" points="135,-38.5 135,-57.5 236,-57.5 236,-38.5 135,-38.5"/>
<text text-anchor="middle" x="185.5" y="-45.5" font-family="Helvetica,sans-Serif" font-size="10.00">station_list_handler</text>
</a>
</g>
</g>
<!-- Node1&#45;&gt;Node7 -->
<g id="edge6" class="edge"><title>Node1&#45;&gt;Node7</title>
<path fill="none" stroke="midnightblue" d="M109.409,-58.6473C117.832,-57.4529 126.429,-56.234 134.655,-55.0675"/>
<polygon fill="midnightblue" stroke="midnightblue" points="108.666,-55.2175 99.2561,-60.0868 109.648,-62.1482 108.666,-55.2175"/>
</g>
<!-- Node3 -->
<g id="node3" class="node"><title>Node3</title>
<g id="a_node3"><a xlink:href="radio_8c.html#a832a684fc60104296fc975a7608f92b4" target="_top" xlink:title="radio_settings">
<polygon fill="white" stroke="black" points="404,-38.5 404,-57.5 481,-57.5 481,-38.5 404,-38.5"/>
<text text-anchor="middle" x="442.5" y="-45.5" font-family="Helvetica,sans-Serif" font-size="10.00">radio_settings</text>
</a>
</g>
</g>
<!-- Node2&#45;&gt;Node3 -->
<g id="edge2" class="edge"><title>Node2&#45;&gt;Node3</title>
<path fill="none" stroke="midnightblue" d="M361.21,-73.3196C377.492,-68.1852 395.977,-62.3559 411.102,-57.5859"/>
<polygon fill="midnightblue" stroke="midnightblue" points="359.892,-70.0654 351.407,-76.411 361.997,-76.7414 359.892,-70.0654"/>
</g>
<!-- Node4 -->
<g id="node4" class="node"><title>Node4</title>
<g id="a_node4"><a xlink:href="menu_8c.html#a5d9c190838195d7872fc7067269e20fa" target="_top" xlink:title="menu_function">
<polygon fill="white" stroke="black" points="517,-38.5 517,-57.5 597,-57.5 597,-38.5 517,-38.5"/>
<text text-anchor="middle" x="557" y="-45.5" font-family="Helvetica,sans-Serif" font-size="10.00">menu_function</text>
</a>
</g>
</g>
<!-- Node3&#45;&gt;Node4 -->
<g id="edge3" class="edge"><title>Node3&#45;&gt;Node4</title>
<path fill="none" stroke="midnightblue" d="M491.474,-48C499.985,-48 508.755,-48 516.981,-48"/>
<polygon fill="midnightblue" stroke="midnightblue" points="491.274,-44.5001 481.274,-48 491.274,-51.5001 491.274,-44.5001"/>
</g>
<!-- Node5 -->
<g id="node5" class="node"><title>Node5</title>
<g id="a_node5"><a xlink:href="menu_8c.html#aaf2a075d3159f7eeab42012941a3437f" target="_top" xlink:title="menu_handler">
<polygon fill="white" stroke="black" points="633,-38.5 633,-57.5 710,-57.5 710,-38.5 633,-38.5"/>
<text text-anchor="middle" x="671.5" y="-45.5" font-family="Helvetica,sans-Serif" font-size="10.00">menu_handler</text>
</a>
</g>
</g>
<!-- Node4&#45;&gt;Node5 -->
<g id="edge4" class="edge"><title>Node4&#45;&gt;Node5</title>
<path fill="none" stroke="midnightblue" d="M607.262,-48C615.783,-48 624.52,-48 632.676,-48"/>
<polygon fill="midnightblue" stroke="midnightblue" points="607.031,-44.5001 597.031,-48 607.031,-51.5001 607.031,-44.5001"/>
</g>
<!-- Node6 -->
<g id="node6" class="node"><title>Node6</title>
<g id="a_node6"><a xlink:href="main_8c.html#a840291bc02cba5474a4cb46a9b9566fe" target="_top" xlink:title="main">
<polygon fill="white" stroke="black" points="746,-38.5 746,-57.5 784,-57.5 784,-38.5 746,-38.5"/>
<text text-anchor="middle" x="765" y="-45.5" font-family="Helvetica,sans-Serif" font-size="10.00">main</text>
</a>
</g>
</g>
<!-- Node5&#45;&gt;Node6 -->
<g id="edge5" class="edge"><title>Node5&#45;&gt;Node6</title>
<path fill="none" stroke="midnightblue" d="M720.362,-48C729.347,-48 738.223,-48 745.601,-48"/>
<polygon fill="midnightblue" stroke="midnightblue" points="720.245,-44.5001 710.245,-48 720.245,-51.5001 720.245,-44.5001"/>
</g>
<!-- Node7&#45;&gt;Node3 -->
<g id="edge7" class="edge"><title>Node7&#45;&gt;Node3</title>
<path fill="none" stroke="midnightblue" d="M246.374,-48C295.11,-48 362.396,-48 403.871,-48"/>
<polygon fill="midnightblue" stroke="midnightblue" points="246.272,-44.5001 236.272,-48 246.272,-51.5001 246.272,-44.5001"/>
</g>
<!-- Node8 -->
<g id="node8" class="node"><title>Node8</title>
<g id="a_node8"><a xlink:href="radio_8c.html#aae41d271062b3f94cccf4fb5996b04a2" target="_top" xlink:title="radio_frequency">
<polygon fill="white" stroke="black" points="277.5,-0.5 277.5,-19.5 362.5,-19.5 362.5,-0.5 277.5,-0.5"/>
<text text-anchor="middle" x="320" y="-7.5" font-family="Helvetica,sans-Serif" font-size="10.00">radio_frequency</text>
</a>
</g>
</g>
<!-- Node7&#45;&gt;Node8 -->
<g id="edge8" class="edge"><title>Node7&#45;&gt;Node8</title>
<path fill="none" stroke="midnightblue" d="M229.704,-35.6094C247.849,-30.4055 268.629,-24.4459 285.575,-19.5859"/>
<polygon fill="midnightblue" stroke="midnightblue" points="228.583,-32.2898 219.935,-38.411 230.513,-39.0185 228.583,-32.2898"/>
</g>
<!-- Node8&#45;&gt;Node3 -->
<g id="edge9" class="edge"><title>Node8&#45;&gt;Node3</title>
<path fill="none" stroke="midnightblue" d="M361.21,-22.6804C377.492,-27.8148 395.977,-33.6441 411.102,-38.4141"/>
<polygon fill="midnightblue" stroke="midnightblue" points="361.997,-19.2586 351.407,-19.589 359.892,-25.9346 361.997,-19.2586"/>
</g>
</g>
</svg>
