<?xml version="1.0" encoding="UTF-8" standalone="no"?>
<!DOCTYPE svg PUBLIC "-//W3C//DTD SVG 1.1//EN"
 "http://www.w3.org/Graphics/SVG/1.1/DTD/svg11.dtd">
<!-- Generated by graphviz version 2.38.0 (20140413.2041)
 -->
<!-- Title: D:/GIT/fhradiov2/radio/radio_settings.h Pages: 1 -->
<svg width="1088pt" height="307pt"
 viewBox="0.00 0.00 1088.00 307.00" xmlns="http://www.w3.org/2000/svg" xmlns:xlink="http://www.w3.org/1999/xlink">
<g id="graph0" class="graph" transform="scale(1 1) rotate(0) translate(4 303)">
<title>D:/GIT/fhradiov2/radio/radio_settings.h</title>
<polygon fill="white" stroke="none" points="-4,4 -4,-303 1084,-303 1084,4 -4,4"/>
<!-- Node1 -->
<g id="node1" class="node"><title>Node1</title>
<polygon fill="#bfbfbf" stroke="black" points="739.5,-268.5 739.5,-298.5 848.5,-298.5 848.5,-268.5 739.5,-268.5"/>
<text text-anchor="start" x="747.5" y="-286.5" font-family="Helvetica,sans-Serif" font-size="10.00">D:/GIT/fhradiov2/radio</text>
<text text-anchor="middle" x="794" y="-275.5" font-family="Helvetica,sans-Serif" font-size="10.00">/radio_settings.h</text>
</g>
<!-- Node2 -->
<g id="node2" class="node"><title>Node2</title>
<g id="a_node2"><a xlink:href="radio_8h.html" target="_top" xlink:title="D:/GIT/fhradiov2/radio\l/radio.h">
<polygon fill="white" stroke="black" points="606.5,-201.5 606.5,-231.5 715.5,-231.5 715.5,-201.5 606.5,-201.5"/>
<text text-anchor="start" x="614.5" y="-219.5" font-family="Helvetica,sans-Serif" font-size="10.00">D:/GIT/fhradiov2/radio</text>
<text text-anchor="middle" x="661" y="-208.5" font-family="Helvetica,sans-Serif" font-size="10.00">/radio.h</text>
</a>
</g>
</g>
<!-- Node1&#45;&gt;Node2 -->
<g id="edge1" class="edge"><title>Node1&#45;&gt;Node2</title>
<path fill="none" stroke="midnightblue" d="M750.266,-264.131C728.195,-253.802 702.382,-241.11 684.128,-231.577"/>
<polygon fill="midnightblue" stroke="midnightblue" points="748.918,-267.364 759.463,-268.396 751.863,-261.013 748.918,-267.364"/>
</g>
<!-- Node21 -->
<g id="node21" class="node"><title>Node21</title>
<g id="a_node21"><a xlink:href="radio__settings_8c.html" target="_top" xlink:title="D:/GIT/fhradiov2/radio\l/src/radio_settings.c">
<polygon fill="white" stroke="black" points="955.5,-201.5 955.5,-231.5 1064.5,-231.5 1064.5,-201.5 955.5,-201.5"/>
<text text-anchor="start" x="963.5" y="-219.5" font-family="Helvetica,sans-Serif" font-size="10.00">D:/GIT/fhradiov2/radio</text>
<text text-anchor="middle" x="1010" y="-208.5" font-family="Helvetica,sans-Serif" font-size="10.00">/src/radio_settings.c</text>
</a>
</g>
</g>
<!-- Node1&#45;&gt;Node21 -->
<g id="edge30" class="edge"><title>Node1&#45;&gt;Node21</title>
<path fill="none" stroke="midnightblue" d="M850.227,-265.58C885.31,-255.022 929.94,-241.592 963.108,-231.611"/>
<polygon fill="midnightblue" stroke="midnightblue" points="849.17,-262.243 840.603,-268.476 851.187,-268.946 849.17,-262.243"/>
</g>
<!-- Node2&#45;&gt;Node1 -->
<g id="edge14" class="edge"><title>Node2&#45;&gt;Node1</title>
<path fill="none" stroke="midnightblue" d="M704.671,-235.84C726.734,-246.163 752.551,-258.856 770.819,-268.396"/>
<polygon fill="midnightblue" stroke="midnightblue" points="706.022,-232.608 695.478,-231.577 703.077,-238.959 706.022,-232.608"/>
</g>
<!-- Node3 -->
<g id="node3" class="node"><title>Node3</title>
<g id="a_node3"><a xlink:href="menu_8h.html" target="_top" xlink:title="D:/GIT/fhradiov2/menu\l/menu.h">
<polygon fill="white" stroke="black" points="146,-134.5 146,-164.5 258,-164.5 258,-134.5 146,-134.5"/>
<text text-anchor="start" x="154" y="-152.5" font-family="Helvetica,sans-Serif" font-size="10.00">D:/GIT/fhradiov2/menu</text>
<text text-anchor="middle" x="202" y="-141.5" font-family="Helvetica,sans-Serif" font-size="10.00">/menu.h</text>
</a>
</g>
</g>
<!-- Node2&#45;&gt;Node3 -->
<g id="edge2" class="edge"><title>Node2&#45;&gt;Node3</title>
<path fill="none" stroke="midnightblue" d="M596.533,-208.215C520.342,-198.883 390.14,-181.888 279,-165 272.264,-163.976 265.238,-162.865 258.283,-161.727"/>
<polygon fill="midnightblue" stroke="midnightblue" points="596.113,-211.69 606.463,-209.425 596.959,-204.741 596.113,-211.69"/>
</g>
<!-- Node7 -->
<g id="node7" class="node"><title>Node7</title>
<g id="a_node7"><a xlink:href="handler_8h.html" target="_top" xlink:title="D:/GIT/fhradiov2/system\l/handler.h">
<polygon fill="white" stroke="black" points="260,-67.5 260,-97.5 380,-97.5 380,-67.5 260,-67.5"/>
<text text-anchor="start" x="268" y="-85.5" font-family="Helvetica,sans-Serif" font-size="10.00">D:/GIT/fhradiov2/system</text>
<text text-anchor="middle" x="320" y="-74.5" font-family="Helvetica,sans-Serif" font-size="10.00">/handler.h</text>
</a>
</g>
</g>
<!-- Node2&#45;&gt;Node7 -->
<g id="edge16" class="edge"><title>Node2&#45;&gt;Node7</title>
<path fill="none" stroke="midnightblue" d="M596.278,-215.453C507.809,-213.86 356.066,-205.158 321,-165 304.805,-146.454 310.163,-115.468 315.257,-97.5203"/>
<polygon fill="midnightblue" stroke="midnightblue" points="596.425,-218.955 606.478,-215.61 596.533,-211.956 596.425,-218.955"/>
</g>
<!-- Node10 -->
<g id="node10" class="node"><title>Node10</title>
<g id="a_node10"><a xlink:href="radio__display_8h.html" target="_top" xlink:title="D:/GIT/fhradiov2/radio\l/radio_display.h">
<polygon fill="white" stroke="black" points="606.5,-134.5 606.5,-164.5 715.5,-164.5 715.5,-134.5 606.5,-134.5"/>
<text text-anchor="start" x="614.5" y="-152.5" font-family="Helvetica,sans-Serif" font-size="10.00">D:/GIT/fhradiov2/radio</text>
<text text-anchor="middle" x="661" y="-141.5" font-family="Helvetica,sans-Serif" font-size="10.00">/radio_display.h</text>
</a>
</g>
</g>
<!-- Node2&#45;&gt;Node10 -->
<g id="edge11" class="edge"><title>Node2&#45;&gt;Node10</title>
<path fill="none" stroke="midnightblue" d="M654.455,-191.403C654.005,-182.37 654.296,-172.408 655.325,-164.577"/>
<polygon fill="midnightblue" stroke="midnightblue" points="650.97,-191.736 655.322,-201.396 657.944,-191.131 650.97,-191.736"/>
</g>
<!-- Node12 -->
<g id="node12" class="node"><title>Node12</title>
<g id="a_node12"><a xlink:href="radio_8c.html" target="_top" xlink:title="D:/GIT/fhradiov2/radio\l/src/radio.c">
<polygon fill="white" stroke="black" points="733.5,-134.5 733.5,-164.5 842.5,-164.5 842.5,-134.5 733.5,-134.5"/>
<text text-anchor="start" x="741.5" y="-152.5" font-family="Helvetica,sans-Serif" font-size="10.00">D:/GIT/fhradiov2/radio</text>
<text text-anchor="middle" x="788" y="-141.5" font-family="Helvetica,sans-Serif" font-size="10.00">/src/radio.c</text>
</a>
</g>
</g>
<!-- Node2&#45;&gt;Node12 -->
<g id="edge15" class="edge"><title>Node2&#45;&gt;Node12</title>
<path fill="none" stroke="midnightblue" d="M697.704,-196.714C717.734,-186.463 742.119,-173.983 760.497,-164.577"/>
<polygon fill="midnightblue" stroke="midnightblue" points="695.864,-193.724 688.557,-201.396 699.054,-199.956 695.864,-193.724"/>
</g>
<!-- Node13 -->
<g id="node13" class="node"><title>Node13</title>
<g id="a_node13"><a xlink:href="rds_8h.html" target="_top" xlink:title="D:/GIT/fhradiov2/system\l/rds.h">
<polygon fill="white" stroke="black" points="330,-134.5 330,-164.5 450,-164.5 450,-134.5 330,-134.5"/>
<text text-anchor="start" x="338" y="-152.5" font-family="Helvetica,sans-Serif" font-size="10.00">D:/GIT/fhradiov2/system</text>
<text text-anchor="middle" x="390" y="-141.5" font-family="Helvetica,sans-Serif" font-size="10.00">/rds.h</text>
</a>
</g>
</g>
<!-- Node2&#45;&gt;Node13 -->
<g id="edge17" class="edge"><title>Node2&#45;&gt;Node13</title>
<path fill="none" stroke="midnightblue" d="M596.559,-200.044C551.655,-189.273 492.231,-175.02 448.652,-164.568"/>
<polygon fill="midnightblue" stroke="midnightblue" points="595.945,-203.495 606.485,-202.424 597.577,-196.689 595.945,-203.495"/>
</g>
<!-- Node15 -->
<g id="node15" class="node"><title>Node15</title>
<g id="a_node15"><a xlink:href="rsq_8h.html" target="_top" xlink:title="D:/GIT/fhradiov2/system\l/rsq.h">
<polygon fill="white" stroke="black" points="468,-134.5 468,-164.5 588,-164.5 588,-134.5 468,-134.5"/>
<text text-anchor="start" x="476" y="-152.5" font-family="Helvetica,sans-Serif" font-size="10.00">D:/GIT/fhradiov2/system</text>
<text text-anchor="middle" x="528" y="-141.5" font-family="Helvetica,sans-Serif" font-size="10.00">/rsq.h</text>
</a>
</g>
</g>
<!-- Node2&#45;&gt;Node15 -->
<g id="edge20" class="edge"><title>Node2&#45;&gt;Node15</title>
<path fill="none" stroke="midnightblue" d="M623.13,-196.992C602.049,-186.689 576.223,-174.068 556.803,-164.577"/>
<polygon fill="midnightblue" stroke="midnightblue" points="621.62,-200.15 632.141,-201.396 624.693,-193.86 621.62,-200.15"/>
</g>
<!-- Node17 -->
<g id="node17" class="node"><title>Node17</title>
<g id="a_node17"><a xlink:href="station__list_8h.html" target="_top" xlink:title="D:/GIT/fhradiov2/system\l/station_list.h">
<polygon fill="white" stroke="black" points="820,-67.5 820,-97.5 940,-97.5 940,-67.5 820,-67.5"/>
<text text-anchor="start" x="828" y="-85.5" font-family="Helvetica,sans-Serif" font-size="10.00">D:/GIT/fhradiov2/system</text>
<text text-anchor="middle" x="880" y="-74.5" font-family="Helvetica,sans-Serif" font-size="10.00">/station_list.h</text>
</a>
</g>
</g>
<!-- Node2&#45;&gt;Node17 -->
<g id="edge23" class="edge"><title>Node2&#45;&gt;Node17</title>
<path fill="none" stroke="midnightblue" d="M725.629,-212.227C763.684,-206.87 810.313,-194.187 842,-165 861.221,-147.296 867.71,-116.007 872.722,-97.7794"/>
<polygon fill="midnightblue" stroke="midnightblue" points="725.129,-208.762 715.649,-213.494 726.01,-215.706 725.129,-208.762"/>
</g>
<!-- Node19 -->
<g id="node19" class="node"><title>Node19</title>
<g id="a_node19"><a xlink:href="station__list__struct_8h.html" target="_top" xlink:title="D:/GIT/fhradiov2/system\l/station_list_struct.h">
<polygon fill="white" stroke="black" points="955,-134.5 955,-164.5 1075,-164.5 1075,-134.5 955,-134.5"/>
<text text-anchor="start" x="963" y="-152.5" font-family="Helvetica,sans-Serif" font-size="10.00">D:/GIT/fhradiov2/system</text>
<text text-anchor="middle" x="1015" y="-141.5" font-family="Helvetica,sans-Serif" font-size="10.00">/station_list_struct.h</text>
</a>
</g>
</g>
<!-- Node2&#45;&gt;Node19 -->
<g id="edge27" class="edge"><title>Node2&#45;&gt;Node19</title>
<path fill="none" stroke="midnightblue" d="M725.711,-203.618C791.029,-191.625 891.099,-173.25 954.769,-161.559"/>
<polygon fill="midnightblue" stroke="midnightblue" points="724.74,-200.238 715.537,-205.486 726.004,-207.123 724.74,-200.238"/>
</g>
<!-- Node3&#45;&gt;Node2 -->
<g id="edge7" class="edge"><title>Node3&#45;&gt;Node2</title>
<path fill="none" stroke="midnightblue" d="M268.38,-160.461C278.015,-162.032 287.779,-163.599 297,-165 406.669,-181.665 534.9,-198.433 606.233,-207.841"/>
<polygon fill="midnightblue" stroke="midnightblue" points="268.847,-156.991 258.413,-158.829 267.716,-163.899 268.847,-156.991"/>
</g>
<!-- Node4 -->
<g id="node4" class="node"><title>Node4</title>
<g id="a_node4"><a xlink:href="menu__struct_8h.html" target="_top" xlink:title="D:/GIT/fhradiov2/menu\l/menu_struct.h">
<polygon fill="white" stroke="black" points="0,-67.5 0,-97.5 112,-97.5 112,-67.5 0,-67.5"/>
<text text-anchor="start" x="8" y="-85.5" font-family="Helvetica,sans-Serif" font-size="10.00">D:/GIT/fhradiov2/menu</text>
<text text-anchor="middle" x="56" y="-74.5" font-family="Helvetica,sans-Serif" font-size="10.00">/menu_struct.h</text>
</a>
</g>
</g>
<!-- Node3&#45;&gt;Node4 -->
<g id="edge3" class="edge"><title>Node3&#45;&gt;Node4</title>
<path fill="none" stroke="midnightblue" d="M155.237,-130.407C130.962,-120.029 102.284,-107.195 81.9432,-97.5765"/>
<polygon fill="midnightblue" stroke="midnightblue" points="154.069,-133.713 164.642,-134.396 156.803,-127.269 154.069,-133.713"/>
</g>
<!-- Node6 -->
<g id="node6" class="node"><title>Node6</title>
<g id="a_node6"><a xlink:href="menu_8c.html" target="_top" xlink:title="D:/GIT/fhradiov2/menu\l/src/menu.c">
<polygon fill="white" stroke="black" points="130,-67.5 130,-97.5 242,-97.5 242,-67.5 130,-67.5"/>
<text text-anchor="start" x="138" y="-85.5" font-family="Helvetica,sans-Serif" font-size="10.00">D:/GIT/fhradiov2/menu</text>
<text text-anchor="middle" x="186" y="-74.5" font-family="Helvetica,sans-Serif" font-size="10.00">/src/menu.c</text>
</a>
</g>
</g>
<!-- Node3&#45;&gt;Node6 -->
<g id="edge6" class="edge"><title>Node3&#45;&gt;Node6</title>
<path fill="none" stroke="midnightblue" d="M196.068,-124.403C193.845,-115.37 191.393,-105.408 189.465,-97.5765"/>
<polygon fill="midnightblue" stroke="midnightblue" points="192.739,-125.522 198.528,-134.396 199.537,-123.849 192.739,-125.522"/>
</g>
<!-- Node3&#45;&gt;Node7 -->
<g id="edge8" class="edge"><title>Node3&#45;&gt;Node7</title>
<path fill="none" stroke="midnightblue" d="M236.61,-129.435C255.123,-119.237 277.525,-106.897 294.446,-97.5765"/>
<polygon fill="midnightblue" stroke="midnightblue" points="234.675,-126.505 227.604,-134.396 238.052,-132.637 234.675,-126.505"/>
</g>
<!-- Node4&#45;&gt;Node3 -->
<g id="edge4" class="edge"><title>Node4&#45;&gt;Node3</title>
<path fill="none" stroke="midnightblue" d="M102.693,-101.564C126.96,-111.936 155.642,-124.771 175.999,-134.396"/>
<polygon fill="midnightblue" stroke="midnightblue" points="103.866,-98.2592 93.2928,-97.5765 101.132,-104.703 103.866,-98.2592"/>
</g>
<!-- Node5 -->
<g id="node5" class="node"><title>Node5</title>
<g id="a_node5"><a xlink:href="menu__struct_8c.html" target="_top" xlink:title="D:/GIT/fhradiov2/menu\l/src/menu_struct.c">
<polygon fill="white" stroke="black" points="0,-0.5 0,-30.5 112,-30.5 112,-0.5 0,-0.5"/>
<text text-anchor="start" x="8" y="-18.5" font-family="Helvetica,sans-Serif" font-size="10.00">D:/GIT/fhradiov2/menu</text>
<text text-anchor="middle" x="56" y="-7.5" font-family="Helvetica,sans-Serif" font-size="10.00">/src/menu_struct.c</text>
</a>
</g>
</g>
<!-- Node4&#45;&gt;Node5 -->
<g id="edge5" class="edge"><title>Node4&#45;&gt;Node5</title>
<path fill="none" stroke="midnightblue" d="M56,-57.1081C56,-48.1539 56,-38.3227 56,-30.5765"/>
<polygon fill="midnightblue" stroke="midnightblue" points="52.5001,-57.3959 56,-67.396 59.5001,-57.396 52.5001,-57.3959"/>
</g>
<!-- Node8 -->
<g id="node8" class="node"><title>Node8</title>
<g id="a_node8"><a xlink:href="main_8c.html" target="_top" xlink:title="D:/GIT/fhradiov2/main.c">
<polygon fill="white" stroke="black" points="196.5,-6 196.5,-25 313.5,-25 313.5,-6 196.5,-6"/>
<text text-anchor="middle" x="255" y="-13" font-family="Helvetica,sans-Serif" font-size="10.00">D:/GIT/fhradiov2/main.c</text>
</a>
</g>
</g>
<!-- Node7&#45;&gt;Node8 -->
<g id="edge9" class="edge"><title>Node7&#45;&gt;Node8</title>
<path fill="none" stroke="midnightblue" d="M298.497,-59.9967C286.632,-48.1323 272.552,-34.0516 263.695,-25.1945"/>
<polygon fill="midnightblue" stroke="midnightblue" points="296.35,-62.7998 305.896,-67.396 301.3,-57.85 296.35,-62.7998"/>
</g>
<!-- Node9 -->
<g id="node9" class="node"><title>Node9</title>
<g id="a_node9"><a xlink:href="handler_8c.html" target="_top" xlink:title="D:/GIT/fhradiov2/system\l/src/handler.c">
<polygon fill="white" stroke="black" points="332,-0.5 332,-30.5 452,-30.5 452,-0.5 332,-0.5"/>
<text text-anchor="start" x="340" y="-18.5" font-family="Helvetica,sans-Serif" font-size="10.00">D:/GIT/fhradiov2/system</text>
<text text-anchor="middle" x="392" y="-7.5" font-family="Helvetica,sans-Serif" font-size="10.00">/src/handler.c</text>
</a>
</g>
</g>
<!-- Node7&#45;&gt;Node9 -->
<g id="edge10" class="edge"><title>Node7&#45;&gt;Node9</title>
<path fill="none" stroke="midnightblue" d="M343.153,-60.5978C354.025,-50.7831 366.696,-39.3442 376.408,-30.5765"/>
<polygon fill="midnightblue" stroke="midnightblue" points="340.7,-58.097 335.623,-67.396 345.391,-63.2929 340.7,-58.097"/>
</g>
<!-- Node10&#45;&gt;Node2 -->
<g id="edge12" class="edge"><title>Node10&#45;&gt;Node2</title>
<path fill="none" stroke="midnightblue" d="M667.544,-174.565C667.995,-183.596 667.706,-193.56 666.678,-201.396"/>
<polygon fill="midnightblue" stroke="midnightblue" points="671.028,-174.236 666.675,-164.577 664.055,-174.842 671.028,-174.236"/>
</g>
<!-- Node11 -->
<g id="node11" class="node"><title>Node11</title>
<g id="a_node11"><a xlink:href="radio__display_8c.html" target="_top" xlink:title="D:/GIT/fhradiov2/radio\l/src/radio_display.c">
<polygon fill="white" stroke="black" points="674.5,-67.5 674.5,-97.5 783.5,-97.5 783.5,-67.5 674.5,-67.5"/>
<text text-anchor="start" x="682.5" y="-85.5" font-family="Helvetica,sans-Serif" font-size="10.00">D:/GIT/fhradiov2/radio</text>
<text text-anchor="middle" x="729" y="-74.5" font-family="Helvetica,sans-Serif" font-size="10.00">/src/radio_display.c</text>
</a>
</g>
</g>
<!-- Node10&#45;&gt;Node11 -->
<g id="edge13" class="edge"><title>Node10&#45;&gt;Node11</title>
<path fill="none" stroke="midnightblue" d="M683.166,-127.311C693.367,-117.561 705.191,-106.259 714.274,-97.5765"/>
<polygon fill="midnightblue" stroke="midnightblue" points="680.565,-124.956 675.755,-134.396 685.402,-130.016 680.565,-124.956"/>
</g>
<!-- Node13&#45;&gt;Node7 -->
<g id="edge18" class="edge"><title>Node13&#45;&gt;Node7</title>
<path fill="none" stroke="midnightblue" d="M367.182,-127.311C356.681,-117.561 344.51,-106.259 335.159,-97.5765"/>
<polygon fill="midnightblue" stroke="midnightblue" points="365.101,-130.156 374.811,-134.396 369.865,-125.027 365.101,-130.156"/>
</g>
<!-- Node14 -->
<g id="node14" class="node"><title>Node14</title>
<g id="a_node14"><a xlink:href="rds_8c.html" target="_top" xlink:title="D:/GIT/fhradiov2/system\l/src/rds.c">
<polygon fill="white" stroke="black" points="398,-67.5 398,-97.5 518,-97.5 518,-67.5 398,-67.5"/>
<text text-anchor="start" x="406" y="-85.5" font-family="Helvetica,sans-Serif" font-size="10.00">D:/GIT/fhradiov2/system</text>
<text text-anchor="middle" x="458" y="-74.5" font-family="Helvetica,sans-Serif" font-size="10.00">/src/rds.c</text>
</a>
</g>
</g>
<!-- Node13&#45;&gt;Node14 -->
<g id="edge19" class="edge"><title>Node13&#45;&gt;Node14</title>
<path fill="none" stroke="midnightblue" d="M412.166,-127.311C422.367,-117.561 434.191,-106.259 443.274,-97.5765"/>
<polygon fill="midnightblue" stroke="midnightblue" points="409.565,-124.956 404.755,-134.396 414.402,-130.016 409.565,-124.956"/>
</g>
<!-- Node15&#45;&gt;Node7 -->
<g id="edge21" class="edge"><title>Node15&#45;&gt;Node7</title>
<path fill="none" stroke="midnightblue" d="M473.422,-131.444C439.705,-120.908 396.958,-107.549 365.155,-97.6109"/>
<polygon fill="midnightblue" stroke="midnightblue" points="472.534,-134.834 483.123,-134.476 474.622,-128.152 472.534,-134.834"/>
</g>
<!-- Node16 -->
<g id="node16" class="node"><title>Node16</title>
<g id="a_node16"><a xlink:href="rsq_8c.html" target="_top" xlink:title="D:/GIT/fhradiov2/system\l/src/rsq.c">
<polygon fill="white" stroke="black" points="536,-67.5 536,-97.5 656,-97.5 656,-67.5 536,-67.5"/>
<text text-anchor="start" x="544" y="-85.5" font-family="Helvetica,sans-Serif" font-size="10.00">D:/GIT/fhradiov2/system</text>
<text text-anchor="middle" x="596" y="-74.5" font-family="Helvetica,sans-Serif" font-size="10.00">/src/rsq.c</text>
</a>
</g>
</g>
<!-- Node15&#45;&gt;Node16 -->
<g id="edge22" class="edge"><title>Node15&#45;&gt;Node16</title>
<path fill="none" stroke="midnightblue" d="M550.166,-127.311C560.367,-117.561 572.191,-106.259 581.274,-97.5765"/>
<polygon fill="midnightblue" stroke="midnightblue" points="547.565,-124.956 542.755,-134.396 552.402,-130.016 547.565,-124.956"/>
</g>
<!-- Node17&#45;&gt;Node1 -->
<g id="edge25" class="edge"><title>Node17&#45;&gt;Node1</title>
<path fill="none" stroke="midnightblue" d="M885.778,-107.751C888.628,-124.309 890.267,-146.51 884,-165 869.317,-208.317 831.541,-248.203 809.885,-268.487"/>
<polygon fill="midnightblue" stroke="midnightblue" points="889.179,-106.909 883.801,-97.7801 882.313,-108.27 889.179,-106.909"/>
</g>
<!-- Node17&#45;&gt;Node2 -->
<g id="edge24" class="edge"><title>Node17&#45;&gt;Node2</title>
<path fill="none" stroke="midnightblue" d="M884.763,-107.944C883.171,-126.135 875.992,-150.269 860,-165 821.214,-200.727 760.04,-211.724 715.65,-214.828"/>
<polygon fill="midnightblue" stroke="midnightblue" points="888.266,-107.881 885.07,-97.7794 881.269,-107.669 888.266,-107.881"/>
</g>
<!-- Node18 -->
<g id="node18" class="node"><title>Node18</title>
<g id="a_node18"><a xlink:href="station__list_8c.html" target="_top" xlink:title="D:/GIT/fhradiov2/system\l/src/station_list.c">
<polygon fill="white" stroke="black" points="820,-0.5 820,-30.5 940,-30.5 940,-0.5 820,-0.5"/>
<text text-anchor="start" x="828" y="-18.5" font-family="Helvetica,sans-Serif" font-size="10.00">D:/GIT/fhradiov2/system</text>
<text text-anchor="middle" x="880" y="-7.5" font-family="Helvetica,sans-Serif" font-size="10.00">/src/station_list.c</text>
</a>
</g>
</g>
<!-- Node17&#45;&gt;Node18 -->
<g id="edge26" class="edge"><title>Node17&#45;&gt;Node18</title>
<path fill="none" stroke="midnightblue" d="M880,-57.1081C880,-48.1539 880,-38.3227 880,-30.5765"/>
<polygon fill="midnightblue" stroke="midnightblue" points="876.5,-57.3959 880,-67.396 883.5,-57.396 876.5,-57.3959"/>
</g>
<!-- Node19&#45;&gt;Node17 -->
<g id="edge29" class="edge"><title>Node19&#45;&gt;Node17</title>
<path fill="none" stroke="midnightblue" d="M976.56,-129.992C955.162,-119.689 928.948,-107.068 909.236,-97.5765"/>
<polygon fill="midnightblue" stroke="midnightblue" points="975.179,-133.211 985.707,-134.396 978.215,-126.904 975.179,-133.211"/>
</g>
<!-- Node20 -->
<g id="node20" class="node"><title>Node20</title>
<g id="a_node20"><a xlink:href="station__list__struct_8c.html" target="_top" xlink:title="D:/GIT/fhradiov2/system\l/src/station_list_struct.c">
<polygon fill="white" stroke="black" points="958,-67.5 958,-97.5 1080,-97.5 1080,-67.5 958,-67.5"/>
<text text-anchor="start" x="966" y="-85.5" font-family="Helvetica,sans-Serif" font-size="10.00">D:/GIT/fhradiov2/system</text>
<text text-anchor="middle" x="1019" y="-74.5" font-family="Helvetica,sans-Serif" font-size="10.00">/src/station_list_struct.c</text>
</a>
</g>
</g>
<!-- Node19&#45;&gt;Node20 -->
<g id="edge28" class="edge"><title>Node19&#45;&gt;Node20</title>
<path fill="none" stroke="midnightblue" d="M1016.48,-124.403C1017.04,-115.37 1017.65,-105.408 1018.13,-97.5765"/>
<polygon fill="midnightblue" stroke="midnightblue" points="1012.99,-124.2 1015.87,-134.396 1019.98,-124.63 1012.99,-124.2"/>
</g>
</g>
</svg>
