<?xml version="1.0" encoding="UTF-8" standalone="no"?>
<!DOCTYPE svg PUBLIC "-//W3C//DTD SVG 1.1//EN"
 "http://www.w3.org/Graphics/SVG/1.1/DTD/svg11.dtd">
<!-- Generated by graphviz version 2.38.0 (20140413.2041)
 -->
<!-- Title: radio_store_settings Pages: 1 -->
<!--zoomable 294 -->
<svg id="main" version="1.1" xmlns="http://www.w3.org/2000/svg" xmlns:xlink="http://www.w3.org/1999/xlink" xml:space="preserve" onload="init(evt)">
<style type="text/css"><![CDATA[
.edge:hover path { stroke: red; }
.edge:hover polygon { stroke: red; fill: red; }
]]></style>
<script type="text/javascript"><![CDATA[
var edges = document.getElementsByTagName('g');
if (edges && edges.length) {
  for (var i=0;i<edges.length;i++) {
    if (edges[i].id.substr(0,4)=='edge') {
      edges[i].setAttribute('class','edge');
    }
  }
}
]]></script>
        <defs>
                <circle id="rim" cx="0" cy="0" r="7"/>
                <circle id="rim2" cx="0" cy="0" r="3.5"/>
                <g id="zoomPlus">
                        <use xlink:href="#rim" fill="#404040">
                                <set attributeName="fill" to="#808080" begin="zoomplus.mouseover" end="zoomplus.mouseout"/>
                        </use>
                        <path d="M-4,0h8M0,-4v8" fill="none" stroke="white" stroke-width="1.5" pointer-events="none"/>
                </g>
                <g id="zoomMin">
                        <use xlink:href="#rim" fill="#404040">
                                <set attributeName="fill" to="#808080" begin="zoomminus.mouseover" end="zoomminus.mouseout"/>
                        </use>
                        <path d="M-4,0h8" fill="none" stroke="white" stroke-width="1.5" pointer-events="none"/>
                </g>
                <g id="dirArrow">
                        <path fill="none" stroke="white" stroke-width="1.5" d="M0,-3.0v7 M-2.5,-0.5L0,-3.0L2.5,-0.5"/>
                </g>
               <g id="resetDef">
                       <use xlink:href="#rim2" fill="#404040">
                               <set attributeName="fill" to="#808080" begin="reset.mouseover" end="reset.mouseout"/>
                       </use>
               </g>
        </defs>

<script type="text/javascript">
var viewWidth = 805;
var viewHeight = 294;
var sectionId = 'dynsection-27';
</script>
<script xlink:href="svgpan.js"/>
<svg id="graph" class="graph">
<g id="viewport">
<title>radio_store_settings</title>
<polygon fill="white" stroke="none" points="-4,4 -4,-290 801,-290 801,4 -4,4"/>
<!-- Node1 -->
<g id="node1" class="node"><title>Node1</title>
<polygon fill="#bfbfbf" stroke="black" points="0,-133.5 0,-152.5 104,-152.5 104,-133.5 0,-133.5"/>
<text text-anchor="middle" x="52" y="-140.5" font-family="Helvetica,sans-Serif" font-size="10.00">radio_store_settings</text>
</g>
<!-- Node2 -->
<g id="node2" class="node"><title>Node2</title>
<g id="a_node2"><a xlink:href="radio_8c.html#a9dd33606330e2225b425000341cf4688" target="_top" xlink:title="radio_brightness">
<polygon fill="white" stroke="black" points="285,-266.5 285,-285.5 373,-285.5 373,-266.5 285,-266.5"/>
<text text-anchor="middle" x="329" y="-273.5" font-family="Helvetica,sans-Serif" font-size="10.00">radio_brightness</text>
</a>
</g>
</g>
<!-- Node1&#45;&gt;Node2 -->
<g id="edge1" class="edge"><title>Node1&#45;&gt;Node2</title>
<path fill="none" stroke="midnightblue" d="M62.1453,-161.88C75.4577,-187.102 102.713,-231.042 140,-252 184.746,-277.151 244.769,-280.561 284.835,-279.388"/>
<polygon fill="midnightblue" stroke="midnightblue" points="65.0961,-159.961 57.447,-152.63 58.8549,-163.131 65.0961,-159.961"/>
</g>
<!-- Node3 -->
<g id="node3" class="node"><title>Node3</title>
<g id="a_node3"><a xlink:href="radio_8c.html#a832a684fc60104296fc975a7608f92b4" target="_top" xlink:title="radio_settings">
<polygon fill="white" stroke="black" points="417,-114.5 417,-133.5 494,-133.5 494,-114.5 417,-114.5"/>
<text text-anchor="middle" x="455.5" y="-121.5" font-family="Helvetica,sans-Serif" font-size="10.00">radio_settings</text>
</a>
</g>
</g>
<!-- Node1&#45;&gt;Node3 -->
<g id="edge16" class="edge"><title>Node1&#45;&gt;Node3</title>
<path fill="none" stroke="midnightblue" d="M71.4123,-159.349C88.087,-173.16 113.962,-192.209 140,-202 240.506,-239.795 284.602,-266.3 381,-219 418.067,-200.812 441.764,-153.929 450.599,-133.619"/>
<polygon fill="midnightblue" stroke="midnightblue" points="73.4625,-156.498 63.5789,-152.681 68.9252,-161.828 73.4625,-156.498"/>
</g>
<!-- Node7 -->
<g id="node7" class="node"><title>Node7</title>
<g id="a_node7"><a xlink:href="radio_8c.html#aaf3f53dfebe8da71fbe4c457ffda6714" target="_top" xlink:title="radio_contrast">
<polygon fill="white" stroke="black" points="290,-190.5 290,-209.5 368,-209.5 368,-190.5 290,-190.5"/>
<text text-anchor="middle" x="329" y="-197.5" font-family="Helvetica,sans-Serif" font-size="10.00">radio_contrast</text>
</a>
</g>
</g>
<!-- Node1&#45;&gt;Node7 -->
<g id="edge6" class="edge"><title>Node1&#45;&gt;Node7</title>
<path fill="none" stroke="midnightblue" d="M79.6184,-157.213C96.4546,-165.543 118.942,-175.482 140,-181 190.774,-194.304 251.518,-198.4 289.936,-199.601"/>
<polygon fill="midnightblue" stroke="midnightblue" points="80.9133,-153.946 70.4121,-152.541 77.7451,-160.188 80.9133,-153.946"/>
</g>
<!-- Node8 -->
<g id="node8" class="node"><title>Node8</title>
<g id="a_node8"><a xlink:href="radio_8c.html#afce06a210fd84b9acb905e8ab81feaeb" target="_top" xlink:title="radio_volume">
<polygon fill="white" stroke="black" points="154,-152.5 154,-171.5 227,-171.5 227,-152.5 154,-152.5"/>
<text text-anchor="middle" x="190.5" y="-159.5" font-family="Helvetica,sans-Serif" font-size="10.00">radio_volume</text>
</a>
</g>
</g>
<!-- Node1&#45;&gt;Node8 -->
<g id="edge8" class="edge"><title>Node1&#45;&gt;Node8</title>
<path fill="none" stroke="midnightblue" d="M114.406,-151.547C127.868,-153.421 141.69,-155.345 153.746,-157.023"/>
<polygon fill="midnightblue" stroke="midnightblue" points="114.603,-148.041 104.216,-150.129 113.638,-154.974 114.603,-148.041"/>
</g>
<!-- Node9 -->
<g id="node9" class="node"><title>Node9</title>
<g id="a_node9"><a xlink:href="radio_8c.html#afb3cb0ce160c3403d9306d936667fb64" target="_top" xlink:title="radio_source_select">
<polygon fill="white" stroke="black" points="277,-0.5 277,-19.5 381,-19.5 381,-0.5 277,-0.5"/>
<text text-anchor="middle" x="329" y="-7.5" font-family="Helvetica,sans-Serif" font-size="10.00">radio_source_select</text>
</a>
</g>
</g>
<!-- Node1&#45;&gt;Node9 -->
<g id="edge10" class="edge"><title>Node1&#45;&gt;Node9</title>
<path fill="none" stroke="midnightblue" d="M61.4647,-123.869C74.2688,-97.4657 101.248,-50.6672 140,-29 181.805,-5.62583 237.074,-2.73295 276.853,-4.56249"/>
<polygon fill="midnightblue" stroke="midnightblue" points="58.1687,-122.656 57.1206,-133.199 64.5145,-125.611 58.1687,-122.656"/>
</g>
<!-- Node11 -->
<g id="node11" class="node"><title>Node11</title>
<g id="a_node11"><a xlink:href="radio_8c.html#aaaca9764d77849b9d1aeae47e691bf75" target="_top" xlink:title="radio_equalizer">
<polygon fill="white" stroke="black" points="149.5,-38.5 149.5,-57.5 231.5,-57.5 231.5,-38.5 149.5,-38.5"/>
<text text-anchor="middle" x="190.5" y="-45.5" font-family="Helvetica,sans-Serif" font-size="10.00">radio_equalizer</text>
</a>
</g>
</g>
<!-- Node1&#45;&gt;Node11 -->
<g id="edge14" class="edge"><title>Node1&#45;&gt;Node11</title>
<path fill="none" stroke="midnightblue" d="M70.5858,-126.571C87.5248,-111.265 114.295,-88.4023 140,-72 148.373,-66.6571 158.113,-61.6943 166.726,-57.6847"/>
<polygon fill="midnightblue" stroke="midnightblue" points="68.1207,-124.083 63.1079,-133.416 72.8473,-129.246 68.1207,-124.083"/>
</g>
<!-- Node12 -->
<g id="node12" class="node"><title>Node12</title>
<g id="a_node12"><a xlink:href="radio_8c.html#aae41d271062b3f94cccf4fb5996b04a2" target="_top" xlink:title="radio_frequency">
<polygon fill="white" stroke="black" points="286.5,-76.5 286.5,-95.5 371.5,-95.5 371.5,-76.5 286.5,-76.5"/>
<text text-anchor="middle" x="329" y="-83.5" font-family="Helvetica,sans-Serif" font-size="10.00">radio_frequency</text>
</a>
</g>
</g>
<!-- Node1&#45;&gt;Node12 -->
<g id="edge17" class="edge"><title>Node1&#45;&gt;Node12</title>
<path fill="none" stroke="midnightblue" d="M79.6184,-128.787C96.4546,-120.457 118.942,-110.518 140,-105 189.187,-92.1116 247.731,-87.865 286.27,-86.5203"/>
<polygon fill="midnightblue" stroke="midnightblue" points="77.7451,-125.812 70.4121,-133.459 80.9133,-132.054 77.7451,-125.812"/>
</g>
<!-- Node13 -->
<g id="node13" class="node"><title>Node13</title>
<g id="a_node13"><a xlink:href="station__list_8h.html#a5b16204c2b6824ce89364d614f074b20" target="_top" xlink:title="station_list_handler">
<polygon fill="white" stroke="black" points="140,-114.5 140,-133.5 241,-133.5 241,-114.5 140,-114.5"/>
<text text-anchor="middle" x="190.5" y="-121.5" font-family="Helvetica,sans-Serif" font-size="10.00">station_list_handler</text>
</a>
</g>
</g>
<!-- Node1&#45;&gt;Node13 -->
<g id="edge19" class="edge"><title>Node1&#45;&gt;Node13</title>
<path fill="none" stroke="midnightblue" d="M114.181,-134.484C122.756,-133.29 131.482,-132.076 139.809,-130.917"/>
<polygon fill="midnightblue" stroke="midnightblue" points="113.638,-131.026 104.216,-135.871 114.603,-137.959 113.638,-131.026"/>
</g>
<!-- Node2&#45;&gt;Node3 -->
<g id="edge2" class="edge"><title>Node2&#45;&gt;Node3</title>
<path fill="none" stroke="midnightblue" d="M367.139,-261.874C372.116,-259.053 376.908,-255.772 381,-252 419.25,-216.744 443.054,-156.915 451.272,-133.654"/>
<polygon fill="midnightblue" stroke="midnightblue" points="365.424,-258.819 358.089,-266.463 368.59,-265.062 365.424,-258.819"/>
</g>
<!-- Node4 -->
<g id="node4" class="node"><title>Node4</title>
<g id="a_node4"><a xlink:href="menu_8c.html#a5d9c190838195d7872fc7067269e20fa" target="_top" xlink:title="menu_function">
<polygon fill="white" stroke="black" points="530,-111.5 530,-130.5 610,-130.5 610,-111.5 530,-111.5"/>
<text text-anchor="middle" x="570" y="-118.5" font-family="Helvetica,sans-Serif" font-size="10.00">menu_function</text>
</a>
</g>
</g>
<!-- Node3&#45;&gt;Node4 -->
<g id="edge3" class="edge"><title>Node3&#45;&gt;Node4</title>
<path fill="none" stroke="midnightblue" d="M504.474,-122.721C512.985,-122.494 521.755,-122.26 529.981,-122.041"/>
<polygon fill="midnightblue" stroke="midnightblue" points="504.177,-119.227 494.274,-122.993 504.364,-126.225 504.177,-119.227"/>
</g>
<!-- Node5 -->
<g id="node5" class="node"><title>Node5</title>
<g id="a_node5"><a xlink:href="menu_8c.html#aaf2a075d3159f7eeab42012941a3437f" target="_top" xlink:title="menu_handler">
<polygon fill="white" stroke="black" points="646,-92.5 646,-111.5 723,-111.5 723,-92.5 646,-92.5"/>
<text text-anchor="middle" x="684.5" y="-99.5" font-family="Helvetica,sans-Serif" font-size="10.00">menu_handler</text>
</a>
</g>
</g>
<!-- Node4&#45;&gt;Node5 -->
<g id="edge4" class="edge"><title>Node4&#45;&gt;Node5</title>
<path fill="none" stroke="midnightblue" d="M619.982,-112.728C628.59,-111.274 637.43,-109.781 645.676,-108.388"/>
<polygon fill="midnightblue" stroke="midnightblue" points="619.309,-109.292 610.031,-114.408 620.475,-116.194 619.309,-109.292"/>
</g>
<!-- Node6 -->
<g id="node6" class="node"><title>Node6</title>
<g id="a_node6"><a xlink:href="main_8c.html#a840291bc02cba5474a4cb46a9b9566fe" target="_top" xlink:title="main">
<polygon fill="white" stroke="black" points="759,-68.5 759,-87.5 797,-87.5 797,-68.5 759,-68.5"/>
<text text-anchor="middle" x="778" y="-75.5" font-family="Helvetica,sans-Serif" font-size="10.00">main</text>
</a>
</g>
</g>
<!-- Node5&#45;&gt;Node6 -->
<g id="edge5" class="edge"><title>Node5&#45;&gt;Node6</title>
<path fill="none" stroke="midnightblue" d="M731.845,-89.844C741.418,-87.333 750.956,-84.8311 758.783,-82.7782"/>
<polygon fill="midnightblue" stroke="midnightblue" points="730.711,-86.5229 721.926,-92.4456 732.487,-93.2939 730.711,-86.5229"/>
</g>
<!-- Node7&#45;&gt;Node3 -->
<g id="edge7" class="edge"><title>Node7&#45;&gt;Node3</title>
<path fill="none" stroke="midnightblue" d="M361.763,-186.112C368.236,-182.989 374.922,-179.543 381,-176 403.687,-162.775 428.251,-144.513 442.458,-133.521"/>
<polygon fill="midnightblue" stroke="midnightblue" points="360.101,-183.025 352.526,-190.432 363.067,-189.366 360.101,-183.025"/>
</g>
<!-- Node8&#45;&gt;Node3 -->
<g id="edge9" class="edge"><title>Node8&#45;&gt;Node3</title>
<path fill="none" stroke="midnightblue" d="M237.571,-156.978C276.015,-152.592 332.2,-145.73 381,-138 392.675,-136.151 405.337,-133.847 416.81,-131.646"/>
<polygon fill="midnightblue" stroke="midnightblue" points="236.762,-153.547 227.219,-158.148 237.548,-160.502 236.762,-153.547"/>
</g>
<!-- Node9&#45;&gt;Node3 -->
<g id="edge13" class="edge"><title>Node9&#45;&gt;Node3</title>
<path fill="none" stroke="midnightblue" d="M365.198,-24.0063C370.736,-26.9182 376.207,-30.2578 381,-34 411.53,-57.8368 437.609,-96.5434 448.74,-114.407"/>
<polygon fill="midnightblue" stroke="midnightblue" points="366.45,-20.7235 355.924,-19.5139 363.398,-27.0233 366.45,-20.7235"/>
</g>
<!-- Node10 -->
<g id="node10" class="node"><title>Node10</title>
<g id="a_node10"><a xlink:href="radio_8c.html#a3a1de7e31aabba6e408a633c130e618a" target="_top" xlink:title="radio_init">
<polygon fill="white" stroke="black" points="542,-40.5 542,-59.5 598,-59.5 598,-40.5 542,-40.5"/>
<text text-anchor="middle" x="570" y="-47.5" font-family="Helvetica,sans-Serif" font-size="10.00">radio_init</text>
</a>
</g>
</g>
<!-- Node9&#45;&gt;Node10 -->
<g id="edge11" class="edge"><title>Node9&#45;&gt;Node10</title>
<path fill="none" stroke="midnightblue" d="M391.372,-20.2715C439.991,-28.4085 505.58,-39.3858 541.919,-45.4676"/>
<polygon fill="midnightblue" stroke="midnightblue" points="391.712,-16.7798 381.271,-18.581 390.557,-23.6838 391.712,-16.7798"/>
</g>
<!-- Node10&#45;&gt;Node6 -->
<g id="edge12" class="edge"><title>Node10&#45;&gt;Node6</title>
<path fill="none" stroke="midnightblue" d="M608.491,-55.0958C653.013,-61.1474 725.452,-70.9935 758.954,-75.5471"/>
<polygon fill="midnightblue" stroke="midnightblue" points="608.736,-51.597 598.355,-53.7182 607.793,-58.5332 608.736,-51.597"/>
</g>
<!-- Node11&#45;&gt;Node3 -->
<g id="edge15" class="edge"><title>Node11&#45;&gt;Node3</title>
<path fill="none" stroke="midnightblue" d="M241.968,-45.5954C281.215,-45.4662 336.32,-49.1657 381,-67 407.695,-77.6556 432.802,-101.05 445.623,-114.317"/>
<polygon fill="midnightblue" stroke="midnightblue" points="241.803,-42.097 231.845,-45.7144 241.885,-49.0965 241.803,-42.097"/>
</g>
<!-- Node12&#45;&gt;Node3 -->
<g id="edge18" class="edge"><title>Node12&#45;&gt;Node3</title>
<path fill="none" stroke="midnightblue" d="M371.07,-98.5353C388.006,-103.705 407.318,-109.599 423.093,-114.414"/>
<polygon fill="midnightblue" stroke="midnightblue" points="372.003,-95.1608 361.417,-95.589 369.959,-101.856 372.003,-95.1608"/>
</g>
<!-- Node13&#45;&gt;Node3 -->
<g id="edge20" class="edge"><title>Node13&#45;&gt;Node3</title>
<path fill="none" stroke="midnightblue" d="M251.478,-124C302.321,-124 373.665,-124 416.839,-124"/>
<polygon fill="midnightblue" stroke="midnightblue" points="251.278,-120.5 241.277,-124 251.277,-127.5 251.278,-120.5"/>
</g>
<!-- Node13&#45;&gt;Node12 -->
<g id="edge21" class="edge"><title>Node13&#45;&gt;Node12</title>
<path fill="none" stroke="midnightblue" d="M235.749,-111.682C254.503,-106.461 276.028,-100.468 293.566,-95.5859"/>
<polygon fill="midnightblue" stroke="midnightblue" points="234.64,-108.357 225.945,-114.411 236.517,-115.101 234.64,-108.357"/>
</g>
</g>
</svg>
        <g id="navigator" transform="translate(0 0)" fill="#404254">
                <rect fill="#f2f5e9" fill-opacity="0.5" stroke="#606060" stroke-width=".5" x="0" y="0" width="60" height="60"/>
                <use id="zoomplus" xlink:href="#zoomPlus" x="17" y="9" onmousedown="handleZoom(evt,'in')"/>
                <use id="zoomminus" xlink:href="#zoomMin" x="42" y="9" onmousedown="handleZoom(evt,'out')"/>
                <use id="reset" xlink:href="#resetDef" x="30" y="36" onmousedown="handleReset()"/>
                <g id="arrowUp" xlink:href="#dirArrow" transform="translate(30 24)" onmousedown="handlePan(0,-1)">
                  <use xlink:href="#rim" fill="#404040">
                        <set attributeName="fill" to="#808080" begin="arrowUp.mouseover" end="arrowUp.mouseout"/>
                  </use>
                  <path fill="none" stroke="white" stroke-width="1.5" d="M0,-3.0v7 M-2.5,-0.5L0,-3.0L2.5,-0.5"/>
                </g>
                <g id="arrowRight" xlink:href="#dirArrow" transform="rotate(90) translate(36 -43)" onmousedown="handlePan(1,0)">
                  <use xlink:href="#rim" fill="#404040">
                        <set attributeName="fill" to="#808080" begin="arrowRight.mouseover" end="arrowRight.mouseout"/>
                  </use>
                  <path fill="none" stroke="white" stroke-width="1.5" d="M0,-3.0v7 M-2.5,-0.5L0,-3.0L2.5,-0.5"/>
                </g>
                <g id="arrowDown" xlink:href="#dirArrow" transform="rotate(180) translate(-30 -48)" onmousedown="handlePan(0,1)">
                  <use xlink:href="#rim" fill="#404040">
                        <set attributeName="fill" to="#808080" begin="arrowDown.mouseover" end="arrowDown.mouseout"/>
                  </use>
                  <path fill="none" stroke="white" stroke-width="1.5" d="M0,-3.0v7 M-2.5,-0.5L0,-3.0L2.5,-0.5"/>
                </g>
                <g id="arrowLeft" xlink:href="#dirArrow" transform="rotate(270) translate(-36 17)" onmousedown="handlePan(-1,0)">
                  <use xlink:href="#rim" fill="#404040">
                        <set attributeName="fill" to="#808080" begin="arrowLeft.mouseover" end="arrowLeft.mouseout"/>
                  </use>
                  <path fill="none" stroke="white" stroke-width="1.5" d="M0,-3.0v7 M-2.5,-0.5L0,-3.0L2.5,-0.5"/>
                </g>
        </g>
        <svg viewBox="0 0 15 15" width="100%" height="30px" preserveAspectRatio="xMaxYMin meet">
         <g id="arrow_out" transform="scale(0.3 0.3)">
          <a xlink:href="radio_8c_a477656bb91c200d15ddbe6cffcd04c53_icgraph_org.svg" target="_base">
           <rect id="button" ry="5" rx="5" y="6" x="6" height="38" width="38"
                fill="#f2f5e9" fill-opacity="0.5" stroke="#606060" stroke-width="1.0"/>
           <path id="arrow"
             d="M 11.500037,31.436501 C 11.940474,20.09759 22.043105,11.32322 32.158766,21.979434 L 37.068811,17.246167 C 37.068811,17.246167 37.088388,32 37.088388,32 L 22.160133,31.978069 C 22.160133,31.978069 26.997745,27.140456 26.997745,27.140456 C 18.528582,18.264221 13.291696,25.230495 11.500037,31.436501 z"
             style="fill:#404040;"/>
          </a>
         </g>
        </svg>
</svg>
