<?xml version="1.0" encoding="UTF-8" standalone="no"?>
<!DOCTYPE svg PUBLIC "-//W3C//DTD SVG 1.1//EN"
 "http://www.w3.org/Graphics/SVG/1.1/DTD/svg11.dtd">
<!-- Generated by graphviz version 2.38.0 (20140413.2041)
 -->
<!-- Title: radio_display_speaker Pages: 1 -->
<!--zoomable 85 -->
<svg id="main" version="1.1" xmlns="http://www.w3.org/2000/svg" xmlns:xlink="http://www.w3.org/1999/xlink" xml:space="preserve" onload="init(evt)">
<style type="text/css"><![CDATA[
.edge:hover path { stroke: red; }
.edge:hover polygon { stroke: red; fill: red; }
]]></style>
<script type="text/javascript"><![CDATA[
var edges = document.getElementsByTagName('g');
if (edges && edges.length) {
  for (var i=0;i<edges.length;i++) {
    if (edges[i].id.substr(0,4)=='edge') {
      edges[i].setAttribute('class','edge');
    }
  }
}
]]></script>
        <defs>
                <circle id="rim" cx="0" cy="0" r="7"/>
                <circle id="rim2" cx="0" cy="0" r="3.5"/>
                <g id="zoomPlus">
                        <use xlink:href="#rim" fill="#404040">
                                <set attributeName="fill" to="#808080" begin="zoomplus.mouseover" end="zoomplus.mouseout"/>
                        </use>
                        <path d="M-4,0h8M0,-4v8" fill="none" stroke="white" stroke-width="1.5" pointer-events="none"/>
                </g>
                <g id="zoomMin">
                        <use xlink:href="#rim" fill="#404040">
                                <set attributeName="fill" to="#808080" begin="zoomminus.mouseover" end="zoomminus.mouseout"/>
                        </use>
                        <path d="M-4,0h8" fill="none" stroke="white" stroke-width="1.5" pointer-events="none"/>
                </g>
                <g id="dirArrow">
                        <path fill="none" stroke="white" stroke-width="1.5" d="M0,-3.0v7 M-2.5,-0.5L0,-3.0L2.5,-0.5"/>
                </g>
               <g id="resetDef">
                       <use xlink:href="#rim2" fill="#404040">
                               <set attributeName="fill" to="#808080" begin="reset.mouseover" end="reset.mouseout"/>
                       </use>
               </g>
        </defs>

<script type="text/javascript">
var viewWidth = 827;
var viewHeight = 85;
var sectionId = 'dynsection-9';
</script>
<script xlink:href="svgpan.js"/>
<svg id="graph" class="graph">
<g id="viewport">
<title>radio_display_speaker</title>
<polygon fill="white" stroke="none" points="-4,4 -4,-81 823,-81 823,4 -4,4"/>
<!-- Node1 -->
<g id="node1" class="node"><title>Node1</title>
<polygon fill="#bfbfbf" stroke="black" points="0,-19.5 0,-38.5 113,-38.5 113,-19.5 0,-19.5"/>
<text text-anchor="middle" x="56.5" y="-26.5" font-family="Helvetica,sans-Serif" font-size="10.00">radio_display_speaker</text>
</g>
<!-- Node2 -->
<g id="node2" class="node"><title>Node2</title>
<g id="a_node2"><a xlink:href="lcd_8h.html#acd63fb85d212730fa4fcbcbeeccd231e" target="_top" xlink:title="lcd_create_view">
<polygon fill="white" stroke="black" points="155,-38.5 155,-57.5 240,-57.5 240,-38.5 155,-38.5"/>
<text text-anchor="middle" x="197.5" y="-45.5" font-family="Helvetica,sans-Serif" font-size="10.00">lcd_create_view</text>
</a>
</g>
</g>
<!-- Node1&#45;&gt;Node2 -->
<g id="edge1" class="edge"><title>Node1&#45;&gt;Node2</title>
<path fill="none" stroke="midnightblue" d="M113.236,-36.6185C123.659,-38.0433 134.512,-39.5268 144.806,-40.934"/>
<polygon fill="midnightblue" stroke="midnightblue" points="144.496,-44.424 154.878,-42.3106 145.444,-37.4885 144.496,-44.424"/>
</g>
<!-- Node10 -->
<g id="node10" class="node"><title>Node10</title>
<g id="a_node10"><a xlink:href="string_8c.html#a82b1b882cf97ff40344f87bd1473e9d0" target="_top" xlink:title="string_int_to_array">
<polygon fill="white" stroke="black" points="149,-0.5 149,-19.5 246,-19.5 246,-0.5 149,-0.5"/>
<text text-anchor="middle" x="197.5" y="-7.5" font-family="Helvetica,sans-Serif" font-size="10.00">string_int_to_array</text>
</a>
</g>
</g>
<!-- Node1&#45;&gt;Node10 -->
<g id="edge11" class="edge"><title>Node1&#45;&gt;Node10</title>
<path fill="none" stroke="midnightblue" d="M113.236,-21.3815C121.612,-20.2364 130.267,-19.0534 138.686,-17.9026"/>
<polygon fill="midnightblue" stroke="midnightblue" points="139.37,-21.3418 148.804,-16.5196 138.422,-14.4063 139.37,-21.3418"/>
</g>
<!-- Node3 -->
<g id="node3" class="node"><title>Node3</title>
<g id="a_node3"><a xlink:href="lcd_8c.html#a2a4df97ebc5b396233aa31765228ef42" target="_top" xlink:title="lcd_set_courser">
<polygon fill="white" stroke="black" points="282,-57.5 282,-76.5 368,-76.5 368,-57.5 282,-57.5"/>
<text text-anchor="middle" x="325" y="-64.5" font-family="Helvetica,sans-Serif" font-size="10.00">lcd_set_courser</text>
</a>
</g>
</g>
<!-- Node2&#45;&gt;Node3 -->
<g id="edge2" class="edge"><title>Node2&#45;&gt;Node3</title>
<path fill="none" stroke="midnightblue" d="M240.29,-54.3267C250.448,-55.8647 261.435,-57.528 272.002,-59.1279"/>
<polygon fill="midnightblue" stroke="midnightblue" points="271.554,-62.5997 281.965,-60.6361 272.602,-55.6786 271.554,-62.5997"/>
</g>
<!-- Node9 -->
<g id="node9" class="node"><title>Node9</title>
<g id="a_node9"><a xlink:href="lcd_8c.html#aa6e1aa2ef9b677e16d8198df683429ec" target="_top" xlink:title="lcd_write_string">
<polygon fill="white" stroke="black" points="404,-19.5 404,-38.5 488,-38.5 488,-19.5 404,-19.5"/>
<text text-anchor="middle" x="446" y="-26.5" font-family="Helvetica,sans-Serif" font-size="10.00">lcd_write_string</text>
</a>
</g>
</g>
<!-- Node2&#45;&gt;Node9 -->
<g id="edge9" class="edge"><title>Node2&#45;&gt;Node9</title>
<path fill="none" stroke="midnightblue" d="M240.037,-44.7984C282.387,-41.5341 348.164,-36.464 393.731,-32.9517"/>
<polygon fill="midnightblue" stroke="midnightblue" points="394.003,-36.4413 403.705,-32.183 393.465,-29.462 394.003,-36.4413"/>
</g>
<!-- Node4 -->
<g id="node4" class="node"><title>Node4</title>
<g id="a_node4"><a xlink:href="lcd_8c.html#a250728451a22259562d3f01a12bbd77b" target="_top" xlink:title="lcd_command">
<polygon fill="white" stroke="black" points="407.5,-57.5 407.5,-76.5 484.5,-76.5 484.5,-57.5 407.5,-57.5"/>
<text text-anchor="middle" x="446" y="-64.5" font-family="Helvetica,sans-Serif" font-size="10.00">lcd_command</text>
</a>
</g>
</g>
<!-- Node3&#45;&gt;Node4 -->
<g id="edge3" class="edge"><title>Node3&#45;&gt;Node4</title>
<path fill="none" stroke="midnightblue" d="M368.29,-67C377.611,-67 387.549,-67 397.075,-67"/>
<polygon fill="midnightblue" stroke="midnightblue" points="397.202,-70.5001 407.202,-67 397.202,-63.5001 397.202,-70.5001"/>
</g>
<!-- Node5 -->
<g id="node5" class="node"><title>Node5</title>
<g id="a_node5"><a xlink:href="i2c_8h.html#a6691e5911f539e1e8178c6e983e8079a" target="_top" xlink:title="Transmits I2C commands with a variable length to a I2C slave. ">
<polygon fill="white" stroke="black" points="524,-19.5 524,-38.5 596,-38.5 596,-19.5 524,-19.5"/>
<text text-anchor="middle" x="560" y="-26.5" font-family="Helvetica,sans-Serif" font-size="10.00">i2c_write_var</text>
</a>
</g>
</g>
<!-- Node4&#45;&gt;Node5 -->
<g id="edge4" class="edge"><title>Node4&#45;&gt;Node5</title>
<path fill="none" stroke="midnightblue" d="M475.262,-57.411C489.19,-52.6856 506.18,-46.9211 521.207,-41.8226"/>
<polygon fill="midnightblue" stroke="midnightblue" points="522.401,-45.1134 530.747,-38.5859 520.152,-38.4845 522.401,-45.1134"/>
</g>
<!-- Node8 -->
<g id="node8" class="node"><title>Node8</title>
<g id="a_node8"><a xlink:href="timer_8c.html#a276d5cb665b9f8b2c79e53e2f2c5b4f0" target="_top" xlink:title="_delay_ms">
<polygon fill="white" stroke="black" points="635.5,-57.5 635.5,-76.5 699.5,-76.5 699.5,-57.5 635.5,-57.5"/>
<text text-anchor="middle" x="667.5" y="-64.5" font-family="Helvetica,sans-Serif" font-size="10.00">_delay_ms</text>
</a>
</g>
</g>
<!-- Node4&#45;&gt;Node8 -->
<g id="edge7" class="edge"><title>Node4&#45;&gt;Node8</title>
<path fill="none" stroke="midnightblue" d="M484.733,-67C523.861,-67 584.853,-67 625.237,-67"/>
<polygon fill="midnightblue" stroke="midnightblue" points="625.287,-70.5001 635.287,-67 625.287,-63.5001 625.287,-70.5001"/>
</g>
<!-- Node6 -->
<g id="node6" class="node"><title>Node6</title>
<g id="a_node6"><a xlink:href="i2c_8c.html#ae0625b97d3437bcaca4ac4b96dd01978" target="_top" xlink:title="Transmits I2C command array to a I2C slave. ">
<polygon fill="white" stroke="black" points="632,-19.5 632,-38.5 703,-38.5 703,-19.5 632,-19.5"/>
<text text-anchor="middle" x="667.5" y="-26.5" font-family="Helvetica,sans-Serif" font-size="10.00">i2c_write_arr</text>
</a>
</g>
</g>
<!-- Node5&#45;&gt;Node6 -->
<g id="edge5" class="edge"><title>Node5&#45;&gt;Node6</title>
<path fill="none" stroke="midnightblue" d="M596.13,-29C604.312,-29 613.133,-29 621.671,-29"/>
<polygon fill="midnightblue" stroke="midnightblue" points="621.882,-32.5001 631.882,-29 621.882,-25.5001 621.882,-32.5001"/>
</g>
<!-- Node7 -->
<g id="node7" class="node"><title>Node7</title>
<g id="a_node7"><a xlink:href="timer_8c.html#a3c56af3315c2461dec5ced585a5f84db" target="_top" xlink:title="_delay_ten_us">
<polygon fill="white" stroke="black" points="739,-38.5 739,-57.5 819,-57.5 819,-38.5 739,-38.5"/>
<text text-anchor="middle" x="779" y="-45.5" font-family="Helvetica,sans-Serif" font-size="10.00">_delay_ten_us</text>
</a>
</g>
</g>
<!-- Node6&#45;&gt;Node7 -->
<g id="edge6" class="edge"><title>Node6&#45;&gt;Node7</title>
<path fill="none" stroke="midnightblue" d="M703.146,-35.0117C711.253,-36.4183 720.042,-37.9433 728.651,-39.4371"/>
<polygon fill="midnightblue" stroke="midnightblue" points="728.172,-42.9062 738.623,-41.1674 729.368,-36.0092 728.172,-42.9062"/>
</g>
<!-- Node8&#45;&gt;Node7 -->
<g id="edge8" class="edge"><title>Node8&#45;&gt;Node7</title>
<path fill="none" stroke="midnightblue" d="M699.585,-61.6062C708.595,-60.0428 718.664,-58.2957 728.505,-56.5882"/>
<polygon fill="midnightblue" stroke="midnightblue" points="729.368,-59.9908 738.623,-54.8326 728.172,-53.0938 729.368,-59.9908"/>
</g>
<!-- Node9&#45;&gt;Node5 -->
<g id="edge10" class="edge"><title>Node9&#45;&gt;Node5</title>
<path fill="none" stroke="midnightblue" d="M488.069,-29C496.413,-29 505.234,-29 513.715,-29"/>
<polygon fill="midnightblue" stroke="midnightblue" points="513.836,-32.5001 523.836,-29 513.836,-25.5001 513.836,-32.5001"/>
</g>
</g>
</svg>
        <g id="navigator" transform="translate(0 0)" fill="#404254">
                <rect fill="#f2f5e9" fill-opacity="0.5" stroke="#606060" stroke-width=".5" x="0" y="0" width="60" height="60"/>
                <use id="zoomplus" xlink:href="#zoomPlus" x="17" y="9" onmousedown="handleZoom(evt,'in')"/>
                <use id="zoomminus" xlink:href="#zoomMin" x="42" y="9" onmousedown="handleZoom(evt,'out')"/>
                <use id="reset" xlink:href="#resetDef" x="30" y="36" onmousedown="handleReset()"/>
                <g id="arrowUp" xlink:href="#dirArrow" transform="translate(30 24)" onmousedown="handlePan(0,-1)">
                  <use xlink:href="#rim" fill="#404040">
                        <set attributeName="fill" to="#808080" begin="arrowUp.mouseover" end="arrowUp.mouseout"/>
                  </use>
                  <path fill="none" stroke="white" stroke-width="1.5" d="M0,-3.0v7 M-2.5,-0.5L0,-3.0L2.5,-0.5"/>
                </g>
                <g id="arrowRight" xlink:href="#dirArrow" transform="rotate(90) translate(36 -43)" onmousedown="handlePan(1,0)">
                  <use xlink:href="#rim" fill="#404040">
                        <set attributeName="fill" to="#808080" begin="arrowRight.mouseover" end="arrowRight.mouseout"/>
                  </use>
                  <path fill="none" stroke="white" stroke-width="1.5" d="M0,-3.0v7 M-2.5,-0.5L0,-3.0L2.5,-0.5"/>
                </g>
                <g id="arrowDown" xlink:href="#dirArrow" transform="rotate(180) translate(-30 -48)" onmousedown="handlePan(0,1)">
                  <use xlink:href="#rim" fill="#404040">
                        <set attributeName="fill" to="#808080" begin="arrowDown.mouseover" end="arrowDown.mouseout"/>
                  </use>
                  <path fill="none" stroke="white" stroke-width="1.5" d="M0,-3.0v7 M-2.5,-0.5L0,-3.0L2.5,-0.5"/>
                </g>
                <g id="arrowLeft" xlink:href="#dirArrow" transform="rotate(270) translate(-36 17)" onmousedown="handlePan(-1,0)">
                  <use xlink:href="#rim" fill="#404040">
                        <set attributeName="fill" to="#808080" begin="arrowLeft.mouseover" end="arrowLeft.mouseout"/>
                  </use>
                  <path fill="none" stroke="white" stroke-width="1.5" d="M0,-3.0v7 M-2.5,-0.5L0,-3.0L2.5,-0.5"/>
                </g>
        </g>
        <svg viewBox="0 0 15 15" width="100%" height="30px" preserveAspectRatio="xMaxYMin meet">
         <g id="arrow_out" transform="scale(0.3 0.3)">
          <a xlink:href="radio__display_8c_ac056d01b161ce2b8c286190f619c94f8_cgraph_org.svg" target="_base">
           <rect id="button" ry="5" rx="5" y="6" x="6" height="38" width="38"
                fill="#f2f5e9" fill-opacity="0.5" stroke="#606060" stroke-width="1.0"/>
           <path id="arrow"
             d="M 11.500037,31.436501 C 11.940474,20.09759 22.043105,11.32322 32.158766,21.979434 L 37.068811,17.246167 C 37.068811,17.246167 37.088388,32 37.088388,32 L 22.160133,31.978069 C 22.160133,31.978069 26.997745,27.140456 26.997745,27.140456 C 18.528582,18.264221 13.291696,25.230495 11.500037,31.436501 z"
             style="fill:#404040;"/>
          </a>
         </g>
        </svg>
</svg>
