<?xml version="1.0" encoding="UTF-8" standalone="no"?>
<!DOCTYPE svg PUBLIC "-//W3C//DTD SVG 1.1//EN"
 "http://www.w3.org/Graphics/SVG/1.1/DTD/svg11.dtd">
<!-- Generated by graphviz version 2.38.0 (20140413.2041)
 -->
<!-- Title: radio_set_volume Pages: 1 -->
<svg width="625pt" height="104pt"
 viewBox="0.00 0.00 625.00 104.00" xmlns="http://www.w3.org/2000/svg" xmlns:xlink="http://www.w3.org/1999/xlink">
<g id="graph0" class="graph" transform="scale(1 1) rotate(0) translate(4 100)">
<title>radio_set_volume</title>
<polygon fill="white" stroke="none" points="-4,4 -4,-100 621,-100 621,4 -4,4"/>
<!-- Node1 -->
<g id="node1" class="node"><title>Node1</title>
<polygon fill="#bfbfbf" stroke="black" points="0,-38.5 0,-57.5 92,-57.5 92,-38.5 0,-38.5"/>
<text text-anchor="middle" x="46" y="-45.5" font-family="Helvetica,sans-Serif" font-size="10.00">radio_set_volume</text>
</g>
<!-- Node2 -->
<g id="node2" class="node"><title>Node2</title>
<g id="a_node2"><a xlink:href="radio_8c.html#a3a1de7e31aabba6e408a633c130e618a" target="_top" xlink:title="radio_init">
<polygon fill="white" stroke="black" points="247.5,-76.5 247.5,-95.5 303.5,-95.5 303.5,-76.5 247.5,-76.5"/>
<text text-anchor="middle" x="275.5" y="-83.5" font-family="Helvetica,sans-Serif" font-size="10.00">radio_init</text>
</a>
</g>
</g>
<!-- Node1&#45;&gt;Node2 -->
<g id="edge1" class="edge"><title>Node1&#45;&gt;Node2</title>
<path fill="none" stroke="midnightblue" d="M94.2334,-59.9293C105.269,-62.4799 117.01,-65.0038 128,-67 169.384,-74.5173 217.868,-80.2006 247.372,-83.3147"/>
<polygon fill="midnightblue" stroke="midnightblue" points="94.8751,-56.4847 84.3385,-57.5938 93.267,-63.2975 94.8751,-56.4847"/>
</g>
<!-- Node4 -->
<g id="node4" class="node"><title>Node4</title>
<g id="a_node4"><a xlink:href="radio_8c.html#afce06a210fd84b9acb905e8ab81feaeb" target="_top" xlink:title="radio_volume">
<polygon fill="white" stroke="black" points="128,-38.5 128,-57.5 201,-57.5 201,-38.5 128,-38.5"/>
<text text-anchor="middle" x="164.5" y="-45.5" font-family="Helvetica,sans-Serif" font-size="10.00">radio_volume</text>
</a>
</g>
</g>
<!-- Node1&#45;&gt;Node4 -->
<g id="edge3" class="edge"><title>Node1&#45;&gt;Node4</title>
<path fill="none" stroke="midnightblue" d="M102.228,-48C110.98,-48 119.824,-48 127.966,-48"/>
<polygon fill="midnightblue" stroke="midnightblue" points="102.042,-44.5001 92.0419,-48 102.042,-51.5001 102.042,-44.5001"/>
</g>
<!-- Node8 -->
<g id="node8" class="node"><title>Node8</title>
<g id="a_node8"><a xlink:href="radio_8c.html#a5f7fcd9e9755fb5e22175a4ad74a5456" target="_top" xlink:title="radio_main">
<polygon fill="white" stroke="black" points="132.5,-0.5 132.5,-19.5 196.5,-19.5 196.5,-0.5 132.5,-0.5"/>
<text text-anchor="middle" x="164.5" y="-7.5" font-family="Helvetica,sans-Serif" font-size="10.00">radio_main</text>
</a>
</g>
</g>
<!-- Node1&#45;&gt;Node8 -->
<g id="edge8" class="edge"><title>Node1&#45;&gt;Node8</title>
<path fill="none" stroke="midnightblue" d="M86.3216,-35.1741C101.953,-30.0753 119.626,-24.3109 134.112,-19.5859"/>
<polygon fill="midnightblue" stroke="midnightblue" points="84.8195,-31.9825 76.3979,-38.411 86.9903,-38.6374 84.8195,-31.9825"/>
</g>
<!-- Node3 -->
<g id="node3" class="node"><title>Node3</title>
<g id="a_node3"><a xlink:href="main_8c.html#a840291bc02cba5474a4cb46a9b9566fe" target="_top" xlink:title="main">
<polygon fill="white" stroke="black" points="579,-57.5 579,-76.5 617,-76.5 617,-57.5 579,-57.5"/>
<text text-anchor="middle" x="598" y="-64.5" font-family="Helvetica,sans-Serif" font-size="10.00">main</text>
</a>
</g>
</g>
<!-- Node2&#45;&gt;Node3 -->
<g id="edge2" class="edge"><title>Node2&#45;&gt;Node3</title>
<path fill="none" stroke="midnightblue" d="M313.956,-83.7795C383.019,-79.6853 528.013,-71.0897 578.889,-68.0737"/>
<polygon fill="midnightblue" stroke="midnightblue" points="313.325,-80.3107 303.549,-84.3964 313.739,-87.2984 313.325,-80.3107"/>
</g>
<!-- Node5 -->
<g id="node5" class="node"><title>Node5</title>
<g id="a_node5"><a xlink:href="radio_8c.html#a832a684fc60104296fc975a7608f92b4" target="_top" xlink:title="radio_settings">
<polygon fill="white" stroke="black" points="237,-38.5 237,-57.5 314,-57.5 314,-38.5 237,-38.5"/>
<text text-anchor="middle" x="275.5" y="-45.5" font-family="Helvetica,sans-Serif" font-size="10.00">radio_settings</text>
</a>
</g>
</g>
<!-- Node4&#45;&gt;Node5 -->
<g id="edge4" class="edge"><title>Node4&#45;&gt;Node5</title>
<path fill="none" stroke="midnightblue" d="M211.355,-48C219.852,-48 228.637,-48 236.855,-48"/>
<polygon fill="midnightblue" stroke="midnightblue" points="211.191,-44.5001 201.191,-48 211.191,-51.5001 211.191,-44.5001"/>
</g>
<!-- Node6 -->
<g id="node6" class="node"><title>Node6</title>
<g id="a_node6"><a xlink:href="menu_8c.html#a5d9c190838195d7872fc7067269e20fa" target="_top" xlink:title="menu_function">
<polygon fill="white" stroke="black" points="350,-38.5 350,-57.5 430,-57.5 430,-38.5 350,-38.5"/>
<text text-anchor="middle" x="390" y="-45.5" font-family="Helvetica,sans-Serif" font-size="10.00">menu_function</text>
</a>
</g>
</g>
<!-- Node5&#45;&gt;Node6 -->
<g id="edge5" class="edge"><title>Node5&#45;&gt;Node6</title>
<path fill="none" stroke="midnightblue" d="M324.474,-48C332.985,-48 341.755,-48 349.981,-48"/>
<polygon fill="midnightblue" stroke="midnightblue" points="324.274,-44.5001 314.274,-48 324.274,-51.5001 324.274,-44.5001"/>
</g>
<!-- Node7 -->
<g id="node7" class="node"><title>Node7</title>
<g id="a_node7"><a xlink:href="menu_8c.html#aaf2a075d3159f7eeab42012941a3437f" target="_top" xlink:title="menu_handler">
<polygon fill="white" stroke="black" points="466,-38.5 466,-57.5 543,-57.5 543,-38.5 466,-38.5"/>
<text text-anchor="middle" x="504.5" y="-45.5" font-family="Helvetica,sans-Serif" font-size="10.00">menu_handler</text>
</a>
</g>
</g>
<!-- Node6&#45;&gt;Node7 -->
<g id="edge6" class="edge"><title>Node6&#45;&gt;Node7</title>
<path fill="none" stroke="midnightblue" d="M440.262,-48C448.783,-48 457.52,-48 465.676,-48"/>
<polygon fill="midnightblue" stroke="midnightblue" points="440.031,-44.5001 430.031,-48 440.031,-51.5001 440.031,-44.5001"/>
</g>
<!-- Node7&#45;&gt;Node3 -->
<g id="edge7" class="edge"><title>Node7&#45;&gt;Node3</title>
<path fill="none" stroke="midnightblue" d="M553.072,-57.8783C562.156,-59.7646 571.144,-61.631 578.601,-63.1793"/>
<polygon fill="midnightblue" stroke="midnightblue" points="553.748,-54.444 543.245,-55.8377 552.324,-61.2978 553.748,-54.444"/>
</g>
<!-- Node8&#45;&gt;Node6 -->
<g id="edge9" class="edge"><title>Node8&#45;&gt;Node6</title>
<path fill="none" stroke="midnightblue" d="M206.752,-13.9256C236.669,-17.1007 278.024,-22.1675 314,-29 327.46,-31.5564 342.101,-35.0919 354.844,-38.4205"/>
<polygon fill="midnightblue" stroke="midnightblue" points="206.981,-10.4308 196.674,-12.8816 206.26,-17.3935 206.981,-10.4308"/>
</g>
</g>
</svg>
