<?xml version="1.0" encoding="UTF-8" standalone="no"?>
<!DOCTYPE svg PUBLIC "-//W3C//DTD SVG 1.1//EN"
 "http://www.w3.org/Graphics/SVG/1.1/DTD/svg11.dtd">
<!-- Generated by graphviz version 2.38.0 (20140413.2041)
 -->
<!-- Title: D:/GIT/fhradiov2/system/radio_display.h Pages: 1 -->
<!--zoomable 307 -->
<svg id="main" version="1.1" xmlns="http://www.w3.org/2000/svg" xmlns:xlink="http://www.w3.org/1999/xlink" xml:space="preserve" onload="init(evt)">
<style type="text/css"><![CDATA[
.edge:hover path { stroke: red; }
.edge:hover polygon { stroke: red; fill: red; }
]]></style>
<script type="text/javascript"><![CDATA[
var edges = document.getElementsByTagName('g');
if (edges && edges.length) {
  for (var i=0;i<edges.length;i++) {
    if (edges[i].id.substr(0,4)=='edge') {
      edges[i].setAttribute('class','edge');
    }
  }
}
]]></script>
        <defs>
                <circle id="rim" cx="0" cy="0" r="7"/>
                <circle id="rim2" cx="0" cy="0" r="3.5"/>
                <g id="zoomPlus">
                        <use xlink:href="#rim" fill="#404040">
                                <set attributeName="fill" to="#808080" begin="zoomplus.mouseover" end="zoomplus.mouseout"/>
                        </use>
                        <path d="M-4,0h8M0,-4v8" fill="none" stroke="white" stroke-width="1.5" pointer-events="none"/>
                </g>
                <g id="zoomMin">
                        <use xlink:href="#rim" fill="#404040">
                                <set attributeName="fill" to="#808080" begin="zoomminus.mouseover" end="zoomminus.mouseout"/>
                        </use>
                        <path d="M-4,0h8" fill="none" stroke="white" stroke-width="1.5" pointer-events="none"/>
                </g>
                <g id="dirArrow">
                        <path fill="none" stroke="white" stroke-width="1.5" d="M0,-3.0v7 M-2.5,-0.5L0,-3.0L2.5,-0.5"/>
                </g>
               <g id="resetDef">
                       <use xlink:href="#rim2" fill="#404040">
                               <set attributeName="fill" to="#808080" begin="reset.mouseover" end="reset.mouseout"/>
                       </use>
               </g>
        </defs>

<script type="text/javascript">
var viewWidth = 940;
var viewHeight = 307;
var sectionId = 'dynsection-1';
</script>
<script xlink:href="svgpan.js"/>
<svg id="graph" class="graph">
<g id="viewport">
<title>D:/GIT/fhradiov2/system/radio_display.h</title>
<polygon fill="white" stroke="none" points="-4,4 -4,-303 936,-303 936,4 -4,4"/>
<!-- Node1 -->
<g id="node1" class="node"><title>Node1</title>
<polygon fill="#bfbfbf" stroke="black" points="371,-268.5 371,-298.5 491,-298.5 491,-268.5 371,-268.5"/>
<text text-anchor="start" x="379" y="-286.5" font-family="Helvetica,sans-Serif" font-size="10.00">D:/GIT/fhradiov2/system</text>
<text text-anchor="middle" x="431" y="-275.5" font-family="Helvetica,sans-Serif" font-size="10.00">/radio_display.h</text>
</g>
<!-- Node2 -->
<g id="node2" class="node"><title>Node2</title>
<g id="a_node2"><a xlink:href="radio_8h.html" target="_top" xlink:title="D:/GIT/fhradiov2/system\l/radio.h">
<polygon fill="white" stroke="black" points="371,-201.5 371,-231.5 491,-231.5 491,-201.5 371,-201.5"/>
<text text-anchor="start" x="379" y="-219.5" font-family="Helvetica,sans-Serif" font-size="10.00">D:/GIT/fhradiov2/system</text>
<text text-anchor="middle" x="431" y="-208.5" font-family="Helvetica,sans-Serif" font-size="10.00">/radio.h</text>
</a>
</g>
</g>
<!-- Node1&#45;&gt;Node2 -->
<g id="edge1" class="edge"><title>Node1&#45;&gt;Node2</title>
<path fill="none" stroke="midnightblue" d="M424.455,-258.403C424.005,-249.37 424.296,-239.408 425.325,-231.577"/>
<polygon fill="midnightblue" stroke="midnightblue" points="420.97,-258.736 425.322,-268.396 427.944,-258.131 420.97,-258.736"/>
</g>
<!-- Node17 -->
<g id="node17" class="node"><title>Node17</title>
<g id="a_node17"><a xlink:href="radio__display_8c.html" target="_top" xlink:title="D:/GIT/fhradiov2/system\l/src/radio_display.c">
<polygon fill="white" stroke="black" points="509,-201.5 509,-231.5 629,-231.5 629,-201.5 509,-201.5"/>
<text text-anchor="start" x="517" y="-219.5" font-family="Helvetica,sans-Serif" font-size="10.00">D:/GIT/fhradiov2/system</text>
<text text-anchor="middle" x="569" y="-208.5" font-family="Helvetica,sans-Serif" font-size="10.00">/src/radio_display.c</text>
</a>
</g>
</g>
<!-- Node1&#45;&gt;Node17 -->
<g id="edge23" class="edge"><title>Node1&#45;&gt;Node17</title>
<path fill="none" stroke="midnightblue" d="M470,-264.131C491.927,-253.802 518.874,-241.11 539.114,-231.577"/>
<polygon fill="midnightblue" stroke="midnightblue" points="468.499,-260.968 460.944,-268.396 471.482,-267.301 468.499,-260.968"/>
</g>
<!-- Node2&#45;&gt;Node1 -->
<g id="edge10" class="edge"><title>Node2&#45;&gt;Node1</title>
<path fill="none" stroke="midnightblue" d="M437.544,-241.565C437.995,-250.596 437.706,-260.56 436.678,-268.396"/>
<polygon fill="midnightblue" stroke="midnightblue" points="441.028,-241.236 436.675,-231.577 434.055,-241.842 441.028,-241.236"/>
</g>
<!-- Node3 -->
<g id="node3" class="node"><title>Node3</title>
<g id="a_node3"><a xlink:href="main_8c.html" target="_top" xlink:title="D:/GIT/fhradiov2/main.c">
<polygon fill="white" stroke="black" points="260.5,-73 260.5,-92 377.5,-92 377.5,-73 260.5,-73"/>
<text text-anchor="middle" x="319" y="-80" font-family="Helvetica,sans-Serif" font-size="10.00">D:/GIT/fhradiov2/main.c</text>
</a>
</g>
</g>
<!-- Node2&#45;&gt;Node3 -->
<g id="edge2" class="edge"><title>Node2&#45;&gt;Node3</title>
<path fill="none" stroke="midnightblue" d="M360.956,-206.802C335.237,-199.833 308.616,-187.343 293,-165 276.75,-141.749 299.221,-107.825 311.68,-92.0975"/>
<polygon fill="midnightblue" stroke="midnightblue" points="360.197,-210.219 370.744,-209.211 361.871,-203.422 360.197,-210.219"/>
</g>
<!-- Node4 -->
<g id="node4" class="node"><title>Node4</title>
<g id="a_node4"><a xlink:href="menu_8h.html" target="_top" xlink:title="D:/GIT/fhradiov2/menu\l/menu.h">
<polygon fill="white" stroke="black" points="131,-134.5 131,-164.5 243,-164.5 243,-134.5 131,-134.5"/>
<text text-anchor="start" x="139" y="-152.5" font-family="Helvetica,sans-Serif" font-size="10.00">D:/GIT/fhradiov2/menu</text>
<text text-anchor="middle" x="187" y="-141.5" font-family="Helvetica,sans-Serif" font-size="10.00">/menu.h</text>
</a>
</g>
</g>
<!-- Node2&#45;&gt;Node4 -->
<g id="edge3" class="edge"><title>Node2&#45;&gt;Node4</title>
<path fill="none" stroke="midnightblue" d="M362.779,-198.917C321.833,-188.31 270.837,-174.699 234.291,-164.611"/>
<polygon fill="midnightblue" stroke="midnightblue" points="362.131,-202.365 372.688,-201.476 363.881,-195.587 362.131,-202.365"/>
</g>
<!-- Node8 -->
<g id="node8" class="node"><title>Node8</title>
<g id="a_node8"><a xlink:href="rds_8h.html" target="_top" xlink:title="D:/GIT/fhradiov2/system\l/rds.h">
<polygon fill="white" stroke="black" points="302,-134.5 302,-164.5 422,-164.5 422,-134.5 302,-134.5"/>
<text text-anchor="start" x="310" y="-152.5" font-family="Helvetica,sans-Serif" font-size="10.00">D:/GIT/fhradiov2/system</text>
<text text-anchor="middle" x="362" y="-141.5" font-family="Helvetica,sans-Serif" font-size="10.00">/rds.h</text>
</a>
</g>
</g>
<!-- Node2&#45;&gt;Node8 -->
<g id="edge11" class="edge"><title>Node2&#45;&gt;Node8</title>
<path fill="none" stroke="midnightblue" d="M408.508,-194.311C398.157,-184.561 386.16,-173.259 376.943,-164.577"/>
<polygon fill="midnightblue" stroke="midnightblue" points="406.349,-197.087 416.028,-201.396 411.149,-191.991 406.349,-197.087"/>
</g>
<!-- Node10 -->
<g id="node10" class="node"><title>Node10</title>
<g id="a_node10"><a xlink:href="rsq_8h.html" target="_top" xlink:title="D:/GIT/fhradiov2/system\l/rsq.h">
<polygon fill="white" stroke="black" points="440,-134.5 440,-164.5 560,-164.5 560,-134.5 440,-134.5"/>
<text text-anchor="start" x="448" y="-152.5" font-family="Helvetica,sans-Serif" font-size="10.00">D:/GIT/fhradiov2/system</text>
<text text-anchor="middle" x="500" y="-141.5" font-family="Helvetica,sans-Serif" font-size="10.00">/rsq.h</text>
</a>
</g>
</g>
<!-- Node2&#45;&gt;Node10 -->
<g id="edge14" class="edge"><title>Node2&#45;&gt;Node10</title>
<path fill="none" stroke="midnightblue" d="M453.492,-194.311C463.843,-184.561 475.84,-173.259 485.057,-164.577"/>
<polygon fill="midnightblue" stroke="midnightblue" points="450.851,-191.991 445.972,-201.396 455.651,-197.087 450.851,-191.991"/>
</g>
<!-- Node12 -->
<g id="node12" class="node"><title>Node12</title>
<g id="a_node12"><a xlink:href="radio_8c.html" target="_top" xlink:title="D:/GIT/fhradiov2/system\l/src/radio.c">
<polygon fill="white" stroke="black" points="578,-134.5 578,-164.5 698,-164.5 698,-134.5 578,-134.5"/>
<text text-anchor="start" x="586" y="-152.5" font-family="Helvetica,sans-Serif" font-size="10.00">D:/GIT/fhradiov2/system</text>
<text text-anchor="middle" x="638" y="-141.5" font-family="Helvetica,sans-Serif" font-size="10.00">/src/radio.c</text>
</a>
</g>
</g>
<!-- Node2&#45;&gt;Node12 -->
<g id="edge17" class="edge"><title>Node2&#45;&gt;Node12</title>
<path fill="none" stroke="midnightblue" d="M485.316,-198.444C518.871,-187.908 561.412,-174.549 593.062,-164.611"/>
<polygon fill="midnightblue" stroke="midnightblue" points="484.153,-195.141 475.661,-201.476 486.25,-201.819 484.153,-195.141"/>
</g>
<!-- Node13 -->
<g id="node13" class="node"><title>Node13</title>
<g id="a_node13"><a xlink:href="station__list__struct_8h.html" target="_top" xlink:title="D:/GIT/fhradiov2/system\l/station_list_struct.h">
<polygon fill="white" stroke="black" points="716,-134.5 716,-164.5 836,-164.5 836,-134.5 716,-134.5"/>
<text text-anchor="start" x="724" y="-152.5" font-family="Helvetica,sans-Serif" font-size="10.00">D:/GIT/fhradiov2/system</text>
<text text-anchor="middle" x="776" y="-141.5" font-family="Helvetica,sans-Serif" font-size="10.00">/station_list_struct.h</text>
</a>
</g>
</g>
<!-- Node2&#45;&gt;Node13 -->
<g id="edge18" class="edge"><title>Node2&#45;&gt;Node13</title>
<path fill="none" stroke="midnightblue" d="M501.229,-200.805C593.398,-183.322 618.428,-182.003 707,-165 709.885,-164.446 712.836,-163.869 715.814,-163.277"/>
<polygon fill="midnightblue" stroke="midnightblue" points="500.352,-197.409 491.186,-202.723 501.665,-204.285 500.352,-197.409"/>
</g>
<!-- Node4&#45;&gt;Node2 -->
<g id="edge9" class="edge"><title>Node4&#45;&gt;Node2</title>
<path fill="none" stroke="midnightblue" d="M252.797,-166.455C294.255,-177.179 346.733,-191.18 384.024,-201.476"/>
<polygon fill="midnightblue" stroke="midnightblue" points="253.61,-163.05 243.053,-163.943 251.862,-169.829 253.61,-163.05"/>
</g>
<!-- Node4&#45;&gt;Node3 -->
<g id="edge4" class="edge"><title>Node4&#45;&gt;Node3</title>
<path fill="none" stroke="midnightblue" d="M224.636,-129.967C249.992,-117.481 282.247,-101.598 301.724,-92.007"/>
<polygon fill="midnightblue" stroke="midnightblue" points="223.067,-126.838 215.642,-134.396 226.16,-133.118 223.067,-126.838"/>
</g>
<!-- Node5 -->
<g id="node5" class="node"><title>Node5</title>
<g id="a_node5"><a xlink:href="menu__struct_8h.html" target="_top" xlink:title="D:/GIT/fhradiov2/menu\l/menu_struct.h">
<polygon fill="white" stroke="black" points="130,-67.5 130,-97.5 242,-97.5 242,-67.5 130,-67.5"/>
<text text-anchor="start" x="138" y="-85.5" font-family="Helvetica,sans-Serif" font-size="10.00">D:/GIT/fhradiov2/menu</text>
<text text-anchor="middle" x="186" y="-74.5" font-family="Helvetica,sans-Serif" font-size="10.00">/menu_struct.h</text>
</a>
</g>
</g>
<!-- Node4&#45;&gt;Node5 -->
<g id="edge5" class="edge"><title>Node4&#45;&gt;Node5</title>
<path fill="none" stroke="midnightblue" d="M180.084,-124.403C179.496,-115.37 179.633,-105.408 180.542,-97.5765"/>
<polygon fill="midnightblue" stroke="midnightblue" points="176.607,-124.803 181.105,-134.396 183.57,-124.092 176.607,-124.803"/>
</g>
<!-- Node7 -->
<g id="node7" class="node"><title>Node7</title>
<g id="a_node7"><a xlink:href="menu_8c.html" target="_top" xlink:title="D:/GIT/fhradiov2/menu\l/src/menu.c">
<polygon fill="white" stroke="black" points="0,-67.5 0,-97.5 112,-97.5 112,-67.5 0,-67.5"/>
<text text-anchor="start" x="8" y="-85.5" font-family="Helvetica,sans-Serif" font-size="10.00">D:/GIT/fhradiov2/menu</text>
<text text-anchor="middle" x="56" y="-74.5" font-family="Helvetica,sans-Serif" font-size="10.00">/src/menu.c</text>
</a>
</g>
</g>
<!-- Node4&#45;&gt;Node7 -->
<g id="edge8" class="edge"><title>Node4&#45;&gt;Node7</title>
<path fill="none" stroke="midnightblue" d="M149.42,-129.853C128.707,-119.576 103.412,-107.025 84.3696,-97.5765"/>
<polygon fill="midnightblue" stroke="midnightblue" points="148.061,-133.086 158.575,-134.396 151.173,-126.816 148.061,-133.086"/>
</g>
<!-- Node5&#45;&gt;Node4 -->
<g id="edge6" class="edge"><title>Node5&#45;&gt;Node4</title>
<path fill="none" stroke="midnightblue" d="M192.914,-107.565C193.504,-116.596 193.369,-126.56 192.461,-134.396"/>
<polygon fill="midnightblue" stroke="midnightblue" points="196.392,-107.168 191.891,-97.5765 189.428,-107.881 196.392,-107.168"/>
</g>
<!-- Node6 -->
<g id="node6" class="node"><title>Node6</title>
<g id="a_node6"><a xlink:href="menu__struct_8c.html" target="_top" xlink:title="D:/GIT/fhradiov2/menu\l/src/menu_struct.c">
<polygon fill="white" stroke="black" points="130,-0.5 130,-30.5 242,-30.5 242,-0.5 130,-0.5"/>
<text text-anchor="start" x="138" y="-18.5" font-family="Helvetica,sans-Serif" font-size="10.00">D:/GIT/fhradiov2/menu</text>
<text text-anchor="middle" x="186" y="-7.5" font-family="Helvetica,sans-Serif" font-size="10.00">/src/menu_struct.c</text>
</a>
</g>
</g>
<!-- Node5&#45;&gt;Node6 -->
<g id="edge7" class="edge"><title>Node5&#45;&gt;Node6</title>
<path fill="none" stroke="midnightblue" d="M186,-57.1081C186,-48.1539 186,-38.3227 186,-30.5765"/>
<polygon fill="midnightblue" stroke="midnightblue" points="182.5,-57.3959 186,-67.396 189.5,-57.396 182.5,-57.3959"/>
</g>
<!-- Node8&#45;&gt;Node3 -->
<g id="edge12" class="edge"><title>Node8&#45;&gt;Node3</title>
<path fill="none" stroke="midnightblue" d="M347.098,-125.974C339.397,-114.332 330.444,-100.799 324.752,-92.1945"/>
<polygon fill="midnightblue" stroke="midnightblue" points="344.233,-127.987 352.67,-134.396 350.071,-124.125 344.233,-127.987"/>
</g>
<!-- Node9 -->
<g id="node9" class="node"><title>Node9</title>
<g id="a_node9"><a xlink:href="rds_8c.html" target="_top" xlink:title="D:/GIT/fhradiov2/system\l/src/rds.c">
<polygon fill="white" stroke="black" points="396,-67.5 396,-97.5 516,-97.5 516,-67.5 396,-67.5"/>
<text text-anchor="start" x="404" y="-85.5" font-family="Helvetica,sans-Serif" font-size="10.00">D:/GIT/fhradiov2/system</text>
<text text-anchor="middle" x="456" y="-74.5" font-family="Helvetica,sans-Serif" font-size="10.00">/src/rds.c</text>
</a>
</g>
</g>
<!-- Node8&#45;&gt;Node9 -->
<g id="edge13" class="edge"><title>Node8&#45;&gt;Node9</title>
<path fill="none" stroke="midnightblue" d="M390.994,-128.451C405.455,-118.452 422.595,-106.6 435.643,-97.5765"/>
<polygon fill="midnightblue" stroke="midnightblue" points="388.631,-125.83 382.397,-134.396 392.612,-131.587 388.631,-125.83"/>
</g>
<!-- Node10&#45;&gt;Node3 -->
<g id="edge15" class="edge"><title>Node10&#45;&gt;Node3</title>
<path fill="none" stroke="midnightblue" d="M451.119,-130.946C415.964,-118.321 370.098,-101.85 342.689,-92.007"/>
<polygon fill="midnightblue" stroke="midnightblue" points="450.131,-134.31 460.726,-134.396 452.497,-127.722 450.131,-134.31"/>
</g>
<!-- Node11 -->
<g id="node11" class="node"><title>Node11</title>
<g id="a_node11"><a xlink:href="rsq_8c.html" target="_top" xlink:title="D:/GIT/fhradiov2/system\l/src/rsq.c">
<polygon fill="white" stroke="black" points="534,-67.5 534,-97.5 654,-97.5 654,-67.5 534,-67.5"/>
<text text-anchor="start" x="542" y="-85.5" font-family="Helvetica,sans-Serif" font-size="10.00">D:/GIT/fhradiov2/system</text>
<text text-anchor="middle" x="594" y="-74.5" font-family="Helvetica,sans-Serif" font-size="10.00">/src/rsq.c</text>
</a>
</g>
</g>
<!-- Node10&#45;&gt;Node11 -->
<g id="edge16" class="edge"><title>Node10&#45;&gt;Node11</title>
<path fill="none" stroke="midnightblue" d="M528.994,-128.451C543.455,-118.452 560.595,-106.6 573.643,-97.5765"/>
<polygon fill="midnightblue" stroke="midnightblue" points="526.631,-125.83 520.397,-134.396 530.612,-131.587 526.631,-125.83"/>
</g>
<!-- Node14 -->
<g id="node14" class="node"><title>Node14</title>
<g id="a_node14"><a xlink:href="station__list__struct_8c.html" target="_top" xlink:title="D:/GIT/fhradiov2/system\l/src/station_list_struct.c">
<polygon fill="white" stroke="black" points="672,-67.5 672,-97.5 794,-97.5 794,-67.5 672,-67.5"/>
<text text-anchor="start" x="680" y="-85.5" font-family="Helvetica,sans-Serif" font-size="10.00">D:/GIT/fhradiov2/system</text>
<text text-anchor="middle" x="733" y="-74.5" font-family="Helvetica,sans-Serif" font-size="10.00">/src/station_list_struct.c</text>
</a>
</g>
</g>
<!-- Node13&#45;&gt;Node14 -->
<g id="edge19" class="edge"><title>Node13&#45;&gt;Node14</title>
<path fill="none" stroke="midnightblue" d="M761.027,-125.867C754.804,-116.459 747.774,-105.833 742.312,-97.5765"/>
<polygon fill="midnightblue" stroke="midnightblue" points="758.233,-127.987 766.67,-134.396 764.071,-124.125 758.233,-127.987"/>
</g>
<!-- Node15 -->
<g id="node15" class="node"><title>Node15</title>
<g id="a_node15"><a xlink:href="station__list_8h.html" target="_top" xlink:title="D:/GIT/fhradiov2/system\l/station_list.h">
<polygon fill="white" stroke="black" points="812,-67.5 812,-97.5 932,-97.5 932,-67.5 812,-67.5"/>
<text text-anchor="start" x="820" y="-85.5" font-family="Helvetica,sans-Serif" font-size="10.00">D:/GIT/fhradiov2/system</text>
<text text-anchor="middle" x="872" y="-74.5" font-family="Helvetica,sans-Serif" font-size="10.00">/station_list.h</text>
</a>
</g>
</g>
<!-- Node13&#45;&gt;Node15 -->
<g id="edge20" class="edge"><title>Node13&#45;&gt;Node15</title>
<path fill="none" stroke="midnightblue" d="M805.193,-128.734C820.048,-118.676 837.758,-106.685 851.21,-97.5765"/>
<polygon fill="midnightblue" stroke="midnightblue" points="803.149,-125.891 796.831,-134.396 807.073,-131.688 803.149,-125.891"/>
</g>
<!-- Node15&#45;&gt;Node2 -->
<g id="edge21" class="edge"><title>Node15&#45;&gt;Node2</title>
<path fill="none" stroke="midnightblue" d="M870.775,-107.726C868.452,-126.39 862.087,-151.255 845,-165 784.938,-213.315 576.152,-189.058 500,-201 497.098,-201.455 494.133,-201.952 491.143,-202.48"/>
<polygon fill="midnightblue" stroke="midnightblue" points="874.277,-107.868 871.726,-97.5853 867.308,-107.215 874.277,-107.868"/>
</g>
<!-- Node16 -->
<g id="node16" class="node"><title>Node16</title>
<g id="a_node16"><a xlink:href="station__list_8c.html" target="_top" xlink:title="D:/GIT/fhradiov2/system\l/src/station_list.c">
<polygon fill="white" stroke="black" points="812,-0.5 812,-30.5 932,-30.5 932,-0.5 812,-0.5"/>
<text text-anchor="start" x="820" y="-18.5" font-family="Helvetica,sans-Serif" font-size="10.00">D:/GIT/fhradiov2/system</text>
<text text-anchor="middle" x="872" y="-7.5" font-family="Helvetica,sans-Serif" font-size="10.00">/src/station_list.c</text>
</a>
</g>
</g>
<!-- Node15&#45;&gt;Node16 -->
<g id="edge22" class="edge"><title>Node15&#45;&gt;Node16</title>
<path fill="none" stroke="midnightblue" d="M872,-57.1081C872,-48.1539 872,-38.3227 872,-30.5765"/>
<polygon fill="midnightblue" stroke="midnightblue" points="868.5,-57.3959 872,-67.396 875.5,-57.396 868.5,-57.3959"/>
</g>
</g>
</svg>
        <g id="navigator" transform="translate(0 0)" fill="#404254">
                <rect fill="#f2f5e9" fill-opacity="0.5" stroke="#606060" stroke-width=".5" x="0" y="0" width="60" height="60"/>
                <use id="zoomplus" xlink:href="#zoomPlus" x="17" y="9" onmousedown="handleZoom(evt,'in')"/>
                <use id="zoomminus" xlink:href="#zoomMin" x="42" y="9" onmousedown="handleZoom(evt,'out')"/>
                <use id="reset" xlink:href="#resetDef" x="30" y="36" onmousedown="handleReset()"/>
                <g id="arrowUp" xlink:href="#dirArrow" transform="translate(30 24)" onmousedown="handlePan(0,-1)">
                  <use xlink:href="#rim" fill="#404040">
                        <set attributeName="fill" to="#808080" begin="arrowUp.mouseover" end="arrowUp.mouseout"/>
                  </use>
                  <path fill="none" stroke="white" stroke-width="1.5" d="M0,-3.0v7 M-2.5,-0.5L0,-3.0L2.5,-0.5"/>
                </g>
                <g id="arrowRight" xlink:href="#dirArrow" transform="rotate(90) translate(36 -43)" onmousedown="handlePan(1,0)">
                  <use xlink:href="#rim" fill="#404040">
                        <set attributeName="fill" to="#808080" begin="arrowRight.mouseover" end="arrowRight.mouseout"/>
                  </use>
                  <path fill="none" stroke="white" stroke-width="1.5" d="M0,-3.0v7 M-2.5,-0.5L0,-3.0L2.5,-0.5"/>
                </g>
                <g id="arrowDown" xlink:href="#dirArrow" transform="rotate(180) translate(-30 -48)" onmousedown="handlePan(0,1)">
                  <use xlink:href="#rim" fill="#404040">
                        <set attributeName="fill" to="#808080" begin="arrowDown.mouseover" end="arrowDown.mouseout"/>
                  </use>
                  <path fill="none" stroke="white" stroke-width="1.5" d="M0,-3.0v7 M-2.5,-0.5L0,-3.0L2.5,-0.5"/>
                </g>
                <g id="arrowLeft" xlink:href="#dirArrow" transform="rotate(270) translate(-36 17)" onmousedown="handlePan(-1,0)">
                  <use xlink:href="#rim" fill="#404040">
                        <set attributeName="fill" to="#808080" begin="arrowLeft.mouseover" end="arrowLeft.mouseout"/>
                  </use>
                  <path fill="none" stroke="white" stroke-width="1.5" d="M0,-3.0v7 M-2.5,-0.5L0,-3.0L2.5,-0.5"/>
                </g>
        </g>
        <svg viewBox="0 0 15 15" width="100%" height="30px" preserveAspectRatio="xMaxYMin meet">
         <g id="arrow_out" transform="scale(0.3 0.3)">
          <a xlink:href="radio__display_8h__dep__incl_org.svg" target="_base">
           <rect id="button" ry="5" rx="5" y="6" x="6" height="38" width="38"
                fill="#f2f5e9" fill-opacity="0.5" stroke="#606060" stroke-width="1.0"/>
           <path id="arrow"
             d="M 11.500037,31.436501 C 11.940474,20.09759 22.043105,11.32322 32.158766,21.979434 L 37.068811,17.246167 C 37.068811,17.246167 37.088388,32 37.088388,32 L 22.160133,31.978069 C 22.160133,31.978069 26.997745,27.140456 26.997745,27.140456 C 18.528582,18.264221 13.291696,25.230495 11.500037,31.436501 z"
             style="fill:#404040;"/>
          </a>
         </g>
        </svg>
</svg>
