<?xml version="1.0" encoding="UTF-8" standalone="no"?>
<!DOCTYPE svg PUBLIC "-//W3C//DTD SVG 1.1//EN"
 "http://www.w3.org/Graphics/SVG/1.1/DTD/svg11.dtd">
<!-- Generated by graphviz version 2.38.0 (20140413.2041)
 -->
<!-- Title: radio_main Pages: 1 -->
<!--zoomable 420 -->
<svg id="main" version="1.1" xmlns="http://www.w3.org/2000/svg" xmlns:xlink="http://www.w3.org/1999/xlink" xml:space="preserve" onload="init(evt)">
<style type="text/css"><![CDATA[
.edge:hover path { stroke: red; }
.edge:hover polygon { stroke: red; fill: red; }
]]></style>
<script type="text/javascript"><![CDATA[
var edges = document.getElementsByTagName('g');
if (edges && edges.length) {
  for (var i=0;i<edges.length;i++) {
    if (edges[i].id.substr(0,4)=='edge') {
      edges[i].setAttribute('class','edge');
    }
  }
}
]]></script>
        <defs>
                <circle id="rim" cx="0" cy="0" r="7"/>
                <circle id="rim2" cx="0" cy="0" r="3.5"/>
                <g id="zoomPlus">
                        <use xlink:href="#rim" fill="#404040">
                                <set attributeName="fill" to="#808080" begin="zoomplus.mouseover" end="zoomplus.mouseout"/>
                        </use>
                        <path d="M-4,0h8M0,-4v8" fill="none" stroke="white" stroke-width="1.5" pointer-events="none"/>
                </g>
                <g id="zoomMin">
                        <use xlink:href="#rim" fill="#404040">
                                <set attributeName="fill" to="#808080" begin="zoomminus.mouseover" end="zoomminus.mouseout"/>
                        </use>
                        <path d="M-4,0h8" fill="none" stroke="white" stroke-width="1.5" pointer-events="none"/>
                </g>
                <g id="dirArrow">
                        <path fill="none" stroke="white" stroke-width="1.5" d="M0,-3.0v7 M-2.5,-0.5L0,-3.0L2.5,-0.5"/>
                </g>
               <g id="resetDef">
                       <use xlink:href="#rim2" fill="#404040">
                               <set attributeName="fill" to="#808080" begin="reset.mouseover" end="reset.mouseout"/>
                       </use>
               </g>
        </defs>

<script type="text/javascript">
var viewWidth = 1139;
var viewHeight = 420;
var sectionId = 'dynsection-15';
</script>
<script xlink:href="svgpan.js"/>
<svg id="graph" class="graph">
<g id="viewport">
<title>radio_main</title>
<polygon fill="white" stroke="none" points="-4,4 -4,-416 1135,-416 1135,4 -4,4"/>
<!-- Node1 -->
<g id="node1" class="node"><title>Node1</title>
<polygon fill="#bfbfbf" stroke="black" points="0,-316.5 0,-335.5 64,-335.5 64,-316.5 0,-316.5"/>
<text text-anchor="middle" x="32" y="-323.5" font-family="Helvetica,sans-Serif" font-size="10.00">radio_main</text>
</g>
<!-- Node2 -->
<g id="node2" class="node"><title>Node2</title>
<g id="a_node2"><a xlink:href="radio_8c.html#aead0d199e23b8cc254924b96b017210b" target="_top" xlink:title="radio_set_volume">
<polygon fill="white" stroke="black" points="533,-316.5 533,-335.5 625,-335.5 625,-316.5 533,-316.5"/>
<text text-anchor="middle" x="579" y="-323.5" font-family="Helvetica,sans-Serif" font-size="10.00">radio_set_volume</text>
</a>
</g>
</g>
<!-- Node1&#45;&gt;Node2 -->
<g id="edge1" class="edge"><title>Node1&#45;&gt;Node2</title>
<path fill="none" stroke="midnightblue" d="M64.259,-326C153.309,-326 409.184,-326 522.664,-326"/>
<polygon fill="midnightblue" stroke="midnightblue" points="522.866,-329.5 532.866,-326 522.866,-322.5 522.866,-329.5"/>
</g>
<!-- Node11 -->
<g id="node11" class="node"><title>Node11</title>
<g id="a_node11"><a xlink:href="radio_8c.html#a6d652e9d0f1c54bfe9ec73fe2605b706" target="_top" xlink:title="radio_tune_freq">
<polygon fill="white" stroke="black" points="537.5,-354.5 537.5,-373.5 620.5,-373.5 620.5,-354.5 537.5,-354.5"/>
<text text-anchor="middle" x="579" y="-361.5" font-family="Helvetica,sans-Serif" font-size="10.00">radio_tune_freq</text>
</a>
</g>
</g>
<!-- Node1&#45;&gt;Node11 -->
<g id="edge11" class="edge"><title>Node1&#45;&gt;Node11</title>
<path fill="none" stroke="midnightblue" d="M64.1873,-333.569C75.4126,-336.014 88.2142,-338.482 100,-340 254.62,-359.913 439.353,-363.529 527.006,-364.04"/>
<polygon fill="midnightblue" stroke="midnightblue" points="527.189,-367.541 537.205,-364.088 527.222,-360.541 527.189,-367.541"/>
</g>
<!-- Node14 -->
<g id="node14" class="node"><title>Node14</title>
<g id="a_node14"><a xlink:href="radio__display_8h.html#aa568d26c43f1503a5f31c86aab080591" target="_top" xlink:title="radio_display_handler">
<polygon fill="white" stroke="black" points="100,-164.5 100,-183.5 210,-183.5 210,-164.5 100,-164.5"/>
<text text-anchor="middle" x="155" y="-171.5" font-family="Helvetica,sans-Serif" font-size="10.00">radio_display_handler</text>
</a>
</g>
</g>
<!-- Node1&#45;&gt;Node14 -->
<g id="edge18" class="edge"><title>Node1&#45;&gt;Node14</title>
<path fill="none" stroke="midnightblue" d="M40.5691,-316.492C60.4316,-291.54 114.281,-223.894 139.983,-191.608"/>
<polygon fill="midnightblue" stroke="midnightblue" points="142.944,-193.508 146.434,-183.505 137.467,-189.149 142.944,-193.508"/>
</g>
<!-- Node3 -->
<g id="node3" class="node"><title>Node3</title>
<g id="a_node3"><a xlink:href="external__interrupthandler_8h.html#a345dfb9a7e177c5da6eb9dc5b3c82bc9" target="_top" xlink:title="ext_interrupt_enable">
<polygon fill="white" stroke="black" points="662.5,-354.5 662.5,-373.5 766.5,-373.5 766.5,-354.5 662.5,-354.5"/>
<text text-anchor="middle" x="714.5" y="-361.5" font-family="Helvetica,sans-Serif" font-size="10.00">ext_interrupt_enable</text>
</a>
</g>
</g>
<!-- Node2&#45;&gt;Node3 -->
<g id="edge2" class="edge"><title>Node2&#45;&gt;Node3</title>
<path fill="none" stroke="midnightblue" d="M613.688,-335.589C630.763,-340.449 651.7,-346.409 669.982,-351.613"/>
<polygon fill="midnightblue" stroke="midnightblue" points="669.247,-355.043 679.823,-354.414 671.163,-348.31 669.247,-355.043"/>
</g>
<!-- Node4 -->
<g id="node4" class="node"><title>Node4</title>
<g id="a_node4"><a xlink:href="si4735_8h.html#aadc29a91f13cd5ebe239b23c7e5370dc" target="_top" xlink:title="si4735_set_property">
<polygon fill="white" stroke="black" points="662.5,-278.5 662.5,-297.5 766.5,-297.5 766.5,-278.5 662.5,-278.5"/>
<text text-anchor="middle" x="714.5" y="-285.5" font-family="Helvetica,sans-Serif" font-size="10.00">si4735_set_property</text>
</a>
</g>
</g>
<!-- Node2&#45;&gt;Node4 -->
<g id="edge3" class="edge"><title>Node2&#45;&gt;Node4</title>
<path fill="none" stroke="midnightblue" d="M613.688,-316.411C630.763,-311.551 651.7,-305.591 669.982,-300.387"/>
<polygon fill="midnightblue" stroke="midnightblue" points="671.163,-303.69 679.823,-297.586 669.247,-296.957 671.163,-303.69"/>
</g>
<!-- Node9 -->
<g id="node9" class="node"><title>Node9</title>
<g id="a_node9"><a xlink:href="external__interrupthandler_8h.html#a67fb5781413cf5c193be332cc6e52209" target="_top" xlink:title="ext_interrupt_disable">
<polygon fill="white" stroke="black" points="661,-316.5 661,-335.5 768,-335.5 768,-316.5 661,-316.5"/>
<text text-anchor="middle" x="714.5" y="-323.5" font-family="Helvetica,sans-Serif" font-size="10.00">ext_interrupt_disable</text>
</a>
</g>
</g>
<!-- Node2&#45;&gt;Node9 -->
<g id="edge8" class="edge"><title>Node2&#45;&gt;Node9</title>
<path fill="none" stroke="midnightblue" d="M625.197,-326C633.461,-326 642.219,-326 650.883,-326"/>
<polygon fill="midnightblue" stroke="midnightblue" points="650.977,-329.5 660.977,-326 650.977,-322.5 650.977,-329.5"/>
</g>
<!-- Node10 -->
<g id="node10" class="node"><title>Node10</title>
<g id="a_node10"><a xlink:href="timer_8c.html#a276d5cb665b9f8b2c79e53e2f2c5b4f0" target="_top" xlink:title="_delay_ms">
<polygon fill="white" stroke="black" points="824,-202.5 824,-221.5 888,-221.5 888,-202.5 824,-202.5"/>
<text text-anchor="middle" x="856" y="-209.5" font-family="Helvetica,sans-Serif" font-size="10.00">_delay_ms</text>
</a>
</g>
</g>
<!-- Node2&#45;&gt;Node10 -->
<g id="edge9" class="edge"><title>Node2&#45;&gt;Node10</title>
<path fill="none" stroke="midnightblue" d="M591.056,-316.419C605.998,-303.91 633.897,-282.075 661,-269 711.172,-244.796 773.686,-228.697 813.963,-219.955"/>
<polygon fill="midnightblue" stroke="midnightblue" points="814.896,-223.335 823.953,-217.839 813.445,-216.487 814.896,-223.335"/>
</g>
<!-- Node5 -->
<g id="node5" class="node"><title>Node5</title>
<g id="a_node5"><a xlink:href="i2c_8h.html#a6691e5911f539e1e8178c6e983e8079a" target="_top" xlink:title="Transmits I2C commands with a variable length to a I2C slave. ">
<polygon fill="white" stroke="black" points="820,-240.5 820,-259.5 892,-259.5 892,-240.5 820,-240.5"/>
<text text-anchor="middle" x="856" y="-247.5" font-family="Helvetica,sans-Serif" font-size="10.00">i2c_write_var</text>
</a>
</g>
</g>
<!-- Node4&#45;&gt;Node5 -->
<g id="edge4" class="edge"><title>Node4&#45;&gt;Node5</title>
<path fill="none" stroke="midnightblue" d="M750.702,-278.411C768.71,-273.506 790.828,-267.48 810.056,-262.243"/>
<polygon fill="midnightblue" stroke="midnightblue" points="811.081,-265.591 819.81,-259.586 809.241,-258.837 811.081,-265.591"/>
</g>
<!-- Node8 -->
<g id="node8" class="node"><title>Node8</title>
<g id="a_node8"><a xlink:href="si4735_8c.html#aad8341b5b19aa8f962a6b9b940d77960" target="_top" xlink:title="si4735_get_interrupt">
<polygon fill="white" stroke="black" points="804,-316.5 804,-335.5 908,-335.5 908,-316.5 804,-316.5"/>
<text text-anchor="middle" x="856" y="-323.5" font-family="Helvetica,sans-Serif" font-size="10.00">si4735_get_interrupt</text>
</a>
</g>
</g>
<!-- Node4&#45;&gt;Node8 -->
<g id="edge7" class="edge"><title>Node4&#45;&gt;Node8</title>
<path fill="none" stroke="midnightblue" d="M750.702,-297.589C768.71,-302.494 790.828,-308.52 810.056,-313.757"/>
<polygon fill="midnightblue" stroke="midnightblue" points="809.241,-317.163 819.81,-316.414 811.081,-310.409 809.241,-317.163"/>
</g>
<!-- Node6 -->
<g id="node6" class="node"><title>Node6</title>
<g id="a_node6"><a xlink:href="i2c_8c.html#ae0625b97d3437bcaca4ac4b96dd01978" target="_top" xlink:title="Transmits I2C command array to a I2C slave. ">
<polygon fill="white" stroke="black" points="944,-240.5 944,-259.5 1015,-259.5 1015,-240.5 944,-240.5"/>
<text text-anchor="middle" x="979.5" y="-247.5" font-family="Helvetica,sans-Serif" font-size="10.00">i2c_write_arr</text>
</a>
</g>
</g>
<!-- Node5&#45;&gt;Node6 -->
<g id="edge5" class="edge"><title>Node5&#45;&gt;Node6</title>
<path fill="none" stroke="midnightblue" d="M892.143,-250C905.1,-250 919.959,-250 933.657,-250"/>
<polygon fill="midnightblue" stroke="midnightblue" points="933.856,-253.5 943.856,-250 933.856,-246.5 933.856,-253.5"/>
</g>
<!-- Node7 -->
<g id="node7" class="node"><title>Node7</title>
<g id="a_node7"><a xlink:href="timer_8c.html#a3c56af3315c2461dec5ced585a5f84db" target="_top" xlink:title="_delay_ten_us">
<polygon fill="white" stroke="black" points="1051,-221.5 1051,-240.5 1131,-240.5 1131,-221.5 1051,-221.5"/>
<text text-anchor="middle" x="1091" y="-228.5" font-family="Helvetica,sans-Serif" font-size="10.00">_delay_ten_us</text>
</a>
</g>
</g>
<!-- Node6&#45;&gt;Node7 -->
<g id="edge6" class="edge"><title>Node6&#45;&gt;Node7</title>
<path fill="none" stroke="midnightblue" d="M1015.15,-243.988C1023.25,-242.582 1032.04,-241.057 1040.65,-239.563"/>
<polygon fill="midnightblue" stroke="midnightblue" points="1041.37,-242.991 1050.62,-237.833 1040.17,-236.094 1041.37,-242.991"/>
</g>
<!-- Node10&#45;&gt;Node7 -->
<g id="edge10" class="edge"><title>Node10&#45;&gt;Node7</title>
<path fill="none" stroke="midnightblue" d="M888.423,-214.562C927.572,-217.755 994.903,-223.245 1040.89,-226.995"/>
<polygon fill="midnightblue" stroke="midnightblue" points="1040.68,-230.49 1050.93,-227.814 1041.25,-223.513 1040.68,-230.49"/>
</g>
<!-- Node11&#45;&gt;Node3 -->
<g id="edge12" class="edge"><title>Node11&#45;&gt;Node3</title>
<path fill="none" stroke="midnightblue" d="M620.78,-364C630.658,-364 641.436,-364 652.035,-364"/>
<polygon fill="midnightblue" stroke="midnightblue" points="652.106,-367.5 662.106,-364 652.106,-360.5 652.106,-367.5"/>
</g>
<!-- Node11&#45;&gt;Node9 -->
<g id="edge17" class="edge"><title>Node11&#45;&gt;Node9</title>
<path fill="none" stroke="midnightblue" d="M613.688,-354.411C630.763,-349.551 651.7,-343.591 669.982,-338.387"/>
<polygon fill="midnightblue" stroke="midnightblue" points="671.163,-341.69 679.823,-335.586 669.247,-334.957 671.163,-341.69"/>
</g>
<!-- Node12 -->
<g id="node12" class="node"><title>Node12</title>
<g id="a_node12"><a xlink:href="si4735_8h.html#af82ec28b536b1258ea4178108c61d5e9" target="_top" xlink:title="si4735_fm_tune_freq">
<polygon fill="white" stroke="black" points="661.5,-392.5 661.5,-411.5 767.5,-411.5 767.5,-392.5 661.5,-392.5"/>
<text text-anchor="middle" x="714.5" y="-399.5" font-family="Helvetica,sans-Serif" font-size="10.00">si4735_fm_tune_freq</text>
</a>
</g>
</g>
<!-- Node11&#45;&gt;Node12 -->
<g id="edge13" class="edge"><title>Node11&#45;&gt;Node12</title>
<path fill="none" stroke="midnightblue" d="M613.688,-373.589C630.763,-378.449 651.7,-384.409 669.982,-389.613"/>
<polygon fill="midnightblue" stroke="midnightblue" points="669.247,-393.043 679.823,-392.414 671.163,-386.31 669.247,-393.043"/>
</g>
<!-- Node12&#45;&gt;Node5 -->
<g id="edge14" class="edge"><title>Node12&#45;&gt;Node5</title>
<path fill="none" stroke="midnightblue" d="M753.402,-392.397C758.699,-389.93 763.768,-386.847 768,-383 795.655,-357.858 783.326,-338.137 804,-307 813.693,-292.401 826.946,-277.707 837.512,-266.894"/>
<polygon fill="midnightblue" stroke="midnightblue" points="840.045,-269.31 844.641,-259.764 835.095,-264.361 840.045,-269.31"/>
</g>
<!-- Node12&#45;&gt;Node8 -->
<g id="edge15" class="edge"><title>Node12&#45;&gt;Node8</title>
<path fill="none" stroke="midnightblue" d="M745.713,-392.425C753.143,-389.702 760.977,-386.511 768,-383 791.794,-371.104 817.014,-354.023 834.139,-341.664"/>
<polygon fill="midnightblue" stroke="midnightblue" points="836.305,-344.416 842.306,-335.684 832.17,-338.768 836.305,-344.416"/>
</g>
<!-- Node13 -->
<g id="node13" class="node"><title>Node13</title>
<g id="a_node13"><a xlink:href="i2c_8h.html#a6dd896b0c82d1aa91a1a8155b41c4566" target="_top" xlink:title="Receives I2C commands until a NACK is received or received RxBytes. ">
<polygon fill="white" stroke="black" points="829.5,-392.5 829.5,-411.5 882.5,-411.5 882.5,-392.5 829.5,-392.5"/>
<text text-anchor="middle" x="856" y="-399.5" font-family="Helvetica,sans-Serif" font-size="10.00">i2c_read</text>
</a>
</g>
</g>
<!-- Node12&#45;&gt;Node13 -->
<g id="edge16" class="edge"><title>Node12&#45;&gt;Node13</title>
<path fill="none" stroke="midnightblue" d="M767.842,-402C784.927,-402 803.502,-402 819.097,-402"/>
<polygon fill="midnightblue" stroke="midnightblue" points="819.363,-405.5 829.363,-402 819.363,-398.5 819.363,-405.5"/>
</g>
<!-- Node15 -->
<g id="node15" class="node"><title>Node15</title>
<g id="a_node15"><a xlink:href="radio__display_8c.html#af1021ae1d01d874fb72c3ce3d1b29ad9" target="_top" xlink:title="radio_display_rds">
<polygon fill="white" stroke="black" points="256.5,-278.5 256.5,-297.5 348.5,-297.5 348.5,-278.5 256.5,-278.5"/>
<text text-anchor="middle" x="302.5" y="-285.5" font-family="Helvetica,sans-Serif" font-size="10.00">radio_display_rds</text>
</a>
</g>
</g>
<!-- Node14&#45;&gt;Node15 -->
<g id="edge19" class="edge"><title>Node14&#45;&gt;Node15</title>
<path fill="none" stroke="midnightblue" d="M162.546,-183.532C176.019,-202.466 208.729,-245.051 246,-269 249.141,-271.018 252.52,-272.848 256.005,-274.502"/>
<polygon fill="midnightblue" stroke="midnightblue" points="254.813,-277.798 265.386,-278.478 257.545,-271.353 254.813,-277.798"/>
</g>
<!-- Node16 -->
<g id="node16" class="node"><title>Node16</title>
<g id="a_node16"><a xlink:href="lcd_8h.html#acd63fb85d212730fa4fcbcbeeccd231e" target="_top" xlink:title="lcd_create_view">
<polygon fill="white" stroke="black" points="403.5,-192.5 403.5,-211.5 488.5,-211.5 488.5,-192.5 403.5,-192.5"/>
<text text-anchor="middle" x="446" y="-199.5" font-family="Helvetica,sans-Serif" font-size="10.00">lcd_create_view</text>
</a>
</g>
</g>
<!-- Node14&#45;&gt;Node16 -->
<g id="edge34" class="edge"><title>Node14&#45;&gt;Node16</title>
<path fill="none" stroke="midnightblue" d="M210.297,-178.919C251.19,-182.664 308.629,-188.007 359,-193 370.094,-194.1 381.99,-195.319 393.287,-196.495"/>
<polygon fill="midnightblue" stroke="midnightblue" points="393.144,-199.999 403.454,-197.559 393.873,-193.037 393.144,-199.999"/>
</g>
<!-- Node21 -->
<g id="node21" class="node"><title>Node21</title>
<g id="a_node21"><a xlink:href="radio__display_8c.html#aa113a6affc99d406e8c73fc800648cb3" target="_top" xlink:title="radio_display_rsq">
<polygon fill="white" stroke="black" points="256.5,-38.5 256.5,-57.5 348.5,-57.5 348.5,-38.5 256.5,-38.5"/>
<text text-anchor="middle" x="302.5" y="-45.5" font-family="Helvetica,sans-Serif" font-size="10.00">radio_display_rsq</text>
</a>
</g>
</g>
<!-- Node14&#45;&gt;Node21 -->
<g id="edge28" class="edge"><title>Node14&#45;&gt;Node21</title>
<path fill="none" stroke="midnightblue" d="M161.66,-164.195C174.195,-143.317 206.35,-94.1641 246,-67 248.859,-65.0411 251.939,-63.2673 255.13,-61.6639"/>
<polygon fill="midnightblue" stroke="midnightblue" points="256.606,-64.8383 264.328,-57.5846 253.768,-58.4394 256.606,-64.8383"/>
</g>
<!-- Node23 -->
<g id="node23" class="node"><title>Node23</title>
<g id="a_node23"><a xlink:href="radio__display_8c.html#ab985392609874befae589a4e4ad57c86" target="_top" xlink:title="radio_display_pipty">
<polygon fill="white" stroke="black" points="252.5,-240.5 252.5,-259.5 352.5,-259.5 352.5,-240.5 252.5,-240.5"/>
<text text-anchor="middle" x="302.5" y="-247.5" font-family="Helvetica,sans-Serif" font-size="10.00">radio_display_pipty</text>
</a>
</g>
</g>
<!-- Node14&#45;&gt;Node23 -->
<g id="edge31" class="edge"><title>Node14&#45;&gt;Node23</title>
<path fill="none" stroke="midnightblue" d="M168.855,-183.515C185.833,-195.752 216.983,-217.083 246,-231 250.362,-233.092 255.016,-235.062 259.703,-236.883"/>
<polygon fill="midnightblue" stroke="midnightblue" points="258.696,-240.241 269.289,-240.403 261.109,-233.67 258.696,-240.241"/>
</g>
<!-- Node25 -->
<g id="node25" class="node"><title>Node25</title>
<g id="a_node25"><a xlink:href="string_8c.html#a0e45f80d2057e44647b21fd530fe185d" target="_top" xlink:title="string_fixedpoint_to\l_array">
<polygon fill="white" stroke="black" points="252,-115 252,-145 353,-145 353,-115 252,-115"/>
<text text-anchor="start" x="260" y="-133" font-family="Helvetica,sans-Serif" font-size="10.00">string_fixedpoint_to</text>
<text text-anchor="middle" x="302.5" y="-122" font-family="Helvetica,sans-Serif" font-size="10.00">_array</text>
</a>
</g>
</g>
<!-- Node14&#45;&gt;Node25 -->
<g id="edge35" class="edge"><title>Node14&#45;&gt;Node25</title>
<path fill="none" stroke="midnightblue" d="M187.571,-164.453C203.585,-159.61 223.569,-153.567 242.308,-147.9"/>
<polygon fill="midnightblue" stroke="midnightblue" points="243.407,-151.224 251.966,-144.979 241.381,-144.524 243.407,-151.224"/>
</g>
<!-- Node26 -->
<g id="node26" class="node"><title>Node26</title>
<g id="a_node26"><a xlink:href="radio__display_8c.html#ac056d01b161ce2b8c286190f619c94f8" target="_top" xlink:title="radio_display_speaker">
<polygon fill="white" stroke="black" points="246,-0.5 246,-19.5 359,-19.5 359,-0.5 246,-0.5"/>
<text text-anchor="middle" x="302.5" y="-7.5" font-family="Helvetica,sans-Serif" font-size="10.00">radio_display_speaker</text>
</a>
</g>
</g>
<!-- Node14&#45;&gt;Node26 -->
<g id="edge36" class="edge"><title>Node14&#45;&gt;Node26</title>
<path fill="none" stroke="midnightblue" d="M159.357,-164.296C168.791,-138.431 198.025,-67.2092 246,-29 248.278,-27.1858 250.739,-25.5398 253.315,-24.0471"/>
<polygon fill="midnightblue" stroke="midnightblue" points="255.004,-27.1164 262.411,-19.5408 251.896,-20.844 255.004,-27.1164"/>
</g>
<!-- Node27 -->
<g id="node27" class="node"><title>Node27</title>
<g id="a_node27"><a xlink:href="menu_8h.html#a503ed2007daa6f20b2f748eedbcb8494" target="_top" xlink:title="menu_scroll">
<polygon fill="white" stroke="black" points="268,-202.5 268,-221.5 337,-221.5 337,-202.5 268,-202.5"/>
<text text-anchor="middle" x="302.5" y="-209.5" font-family="Helvetica,sans-Serif" font-size="10.00">menu_scroll</text>
</a>
</g>
</g>
<!-- Node14&#45;&gt;Node27 -->
<g id="edge39" class="edge"><title>Node14&#45;&gt;Node27</title>
<path fill="none" stroke="midnightblue" d="M192.716,-183.589C212.539,-188.766 237.137,-195.191 257.926,-200.62"/>
<polygon fill="midnightblue" stroke="midnightblue" points="257.228,-204.055 267.788,-203.195 258.997,-197.282 257.228,-204.055"/>
</g>
<!-- Node28 -->
<g id="node28" class="node"><title>Node28</title>
<g id="a_node28"><a xlink:href="time_8c.html#aa90db1275cec05113ad9a5041f6f8293" target="_top" xlink:title="time_time_to_array">
<polygon fill="white" stroke="black" points="252.5,-76.5 252.5,-95.5 352.5,-95.5 352.5,-76.5 252.5,-76.5"/>
<text text-anchor="middle" x="302.5" y="-83.5" font-family="Helvetica,sans-Serif" font-size="10.00">time_time_to_array</text>
</a>
</g>
</g>
<!-- Node14&#45;&gt;Node28 -->
<g id="edge41" class="edge"><title>Node14&#45;&gt;Node28</title>
<path fill="none" stroke="midnightblue" d="M166.296,-164.28C182.252,-149.66 214.416,-121.926 246,-105 249.944,-102.886 254.169,-100.939 258.463,-99.1619"/>
<polygon fill="midnightblue" stroke="midnightblue" points="259.804,-102.396 267.889,-95.548 257.298,-95.8599 259.804,-102.396"/>
</g>
<!-- Node15&#45;&gt;Node16 -->
<g id="edge20" class="edge"><title>Node15&#45;&gt;Node16</title>
<path fill="none" stroke="midnightblue" d="M339.614,-278.478C346.331,-275.93 353.088,-272.799 359,-269 378.572,-256.424 376.75,-245.429 395,-231 401.642,-225.749 409.337,-220.809 416.67,-216.545"/>
<polygon fill="midnightblue" stroke="midnightblue" points="418.628,-219.461 425.657,-211.534 415.219,-213.347 418.628,-219.461"/>
</g>
<!-- Node20 -->
<g id="node20" class="node"><title>Node20</title>
<g id="a_node20"><a xlink:href="time_8c.html#a4c9e3c34eea90bf15a804da6ee4ad638" target="_top" xlink:title="time_date_to_array">
<polygon fill="white" stroke="black" points="396,-278.5 396,-297.5 496,-297.5 496,-278.5 396,-278.5"/>
<text text-anchor="middle" x="446" y="-285.5" font-family="Helvetica,sans-Serif" font-size="10.00">time_date_to_array</text>
</a>
</g>
</g>
<!-- Node15&#45;&gt;Node20 -->
<g id="edge27" class="edge"><title>Node15&#45;&gt;Node20</title>
<path fill="none" stroke="midnightblue" d="M348.661,-288C360.414,-288 373.255,-288 385.621,-288"/>
<polygon fill="midnightblue" stroke="midnightblue" points="385.862,-291.5 395.862,-288 385.862,-284.5 385.862,-291.5"/>
</g>
<!-- Node17 -->
<g id="node17" class="node"><title>Node17</title>
<g id="a_node17"><a xlink:href="lcd_8c.html#a2a4df97ebc5b396233aa31765228ef42" target="_top" xlink:title="lcd_set_courser">
<polygon fill="white" stroke="black" points="536,-173.5 536,-192.5 622,-192.5 622,-173.5 536,-173.5"/>
<text text-anchor="middle" x="579" y="-180.5" font-family="Helvetica,sans-Serif" font-size="10.00">lcd_set_courser</text>
</a>
</g>
</g>
<!-- Node16&#45;&gt;Node17 -->
<g id="edge21" class="edge"><title>Node16&#45;&gt;Node17</title>
<path fill="none" stroke="midnightblue" d="M488.809,-195.936C500.509,-194.239 513.375,-192.373 525.604,-190.599"/>
<polygon fill="midnightblue" stroke="midnightblue" points="526.294,-194.036 535.689,-189.137 525.29,-187.108 526.294,-194.036"/>
</g>
<!-- Node19 -->
<g id="node19" class="node"><title>Node19</title>
<g id="a_node19"><a xlink:href="lcd_8c.html#aa6e1aa2ef9b677e16d8198df683429ec" target="_top" xlink:title="lcd_write_string">
<polygon fill="white" stroke="black" points="537,-221.5 537,-240.5 621,-240.5 621,-221.5 537,-221.5"/>
<text text-anchor="middle" x="579" y="-228.5" font-family="Helvetica,sans-Serif" font-size="10.00">lcd_write_string</text>
</a>
</g>
</g>
<!-- Node16&#45;&gt;Node19 -->
<g id="edge25" class="edge"><title>Node16&#45;&gt;Node19</title>
<path fill="none" stroke="midnightblue" d="M488.809,-211.256C500.863,-213.924 514.153,-216.866 526.711,-219.646"/>
<polygon fill="midnightblue" stroke="midnightblue" points="526.067,-223.088 536.587,-221.832 527.58,-216.254 526.067,-223.088"/>
</g>
<!-- Node18 -->
<g id="node18" class="node"><title>Node18</title>
<g id="a_node18"><a xlink:href="lcd_8c.html#a250728451a22259562d3f01a12bbd77b" target="_top" xlink:title="lcd_command">
<polygon fill="white" stroke="black" points="676,-164.5 676,-183.5 753,-183.5 753,-164.5 676,-164.5"/>
<text text-anchor="middle" x="714.5" y="-171.5" font-family="Helvetica,sans-Serif" font-size="10.00">lcd_command</text>
</a>
</g>
</g>
<!-- Node17&#45;&gt;Node18 -->
<g id="edge22" class="edge"><title>Node17&#45;&gt;Node18</title>
<path fill="none" stroke="midnightblue" d="M622.24,-180.152C636.009,-179.224 651.394,-178.187 665.551,-177.233"/>
<polygon fill="midnightblue" stroke="midnightblue" points="665.859,-180.72 675.601,-176.555 665.389,-173.736 665.859,-180.72"/>
</g>
<!-- Node18&#45;&gt;Node5 -->
<g id="edge23" class="edge"><title>Node18&#45;&gt;Node5</title>
<path fill="none" stroke="midnightblue" d="M728.462,-183.624C745.254,-195.787 775.732,-216.839 804,-231 808.005,-233.006 812.275,-234.921 816.576,-236.709"/>
<polygon fill="midnightblue" stroke="midnightblue" points="815.36,-239.992 825.946,-240.409 817.93,-233.481 815.36,-239.992"/>
</g>
<!-- Node18&#45;&gt;Node10 -->
<g id="edge24" class="edge"><title>Node18&#45;&gt;Node10</title>
<path fill="none" stroke="midnightblue" d="M750.702,-183.589C769.897,-188.818 793.763,-195.319 813.819,-200.782"/>
<polygon fill="midnightblue" stroke="midnightblue" points="813.049,-204.2 823.617,-203.451 814.889,-197.446 813.049,-204.2"/>
</g>
<!-- Node19&#45;&gt;Node5 -->
<g id="edge26" class="edge"><title>Node19&#45;&gt;Node5</title>
<path fill="none" stroke="midnightblue" d="M621.17,-233.844C671.74,-237.338 757.244,-243.246 809.653,-246.867"/>
<polygon fill="midnightblue" stroke="midnightblue" points="809.455,-250.362 819.673,-247.559 809.938,-243.378 809.455,-250.362"/>
</g>
<!-- Node21&#45;&gt;Node16 -->
<g id="edge30" class="edge"><title>Node21&#45;&gt;Node16</title>
<path fill="none" stroke="midnightblue" d="M342.55,-57.5905C348.411,-60.0684 354.118,-63.1582 359,-67 398.872,-98.376 425.615,-153.665 437.675,-182.798"/>
<polygon fill="midnightblue" stroke="midnightblue" points="434.492,-184.266 441.451,-192.256 440.993,-181.671 434.492,-184.266"/>
</g>
<!-- Node22 -->
<g id="node22" class="node"><title>Node22</title>
<g id="a_node22"><a xlink:href="string_8c.html#a82b1b882cf97ff40344f87bd1473e9d0" target="_top" xlink:title="string_int_to_array">
<polygon fill="white" stroke="black" points="397.5,-19.5 397.5,-38.5 494.5,-38.5 494.5,-19.5 397.5,-19.5"/>
<text text-anchor="middle" x="446" y="-26.5" font-family="Helvetica,sans-Serif" font-size="10.00">string_int_to_array</text>
</a>
</g>
</g>
<!-- Node21&#45;&gt;Node22 -->
<g id="edge29" class="edge"><title>Node21&#45;&gt;Node22</title>
<path fill="none" stroke="midnightblue" d="M348.661,-41.936C360.914,-40.2907 374.351,-38.4864 387.198,-36.7614"/>
<polygon fill="midnightblue" stroke="midnightblue" points="387.896,-40.1992 397.341,-35.3994 386.964,-33.2615 387.896,-40.1992"/>
</g>
<!-- Node23&#45;&gt;Node16 -->
<g id="edge33" class="edge"><title>Node23&#45;&gt;Node16</title>
<path fill="none" stroke="midnightblue" d="M331.795,-240.402C353.389,-233.077 383.357,-222.911 407.035,-214.879"/>
<polygon fill="midnightblue" stroke="midnightblue" points="408.409,-218.109 416.754,-211.582 406.16,-211.48 408.409,-218.109"/>
</g>
<!-- Node24 -->
<g id="node24" class="node"><title>Node24</title>
<g id="a_node24"><a xlink:href="string_8c.html#a29d88799b460e9bf31c5b6bcd3cd5ba3" target="_top" xlink:title="string_hex_to_array">
<polygon fill="white" stroke="black" points="395,-240.5 395,-259.5 497,-259.5 497,-240.5 395,-240.5"/>
<text text-anchor="middle" x="446" y="-247.5" font-family="Helvetica,sans-Serif" font-size="10.00">string_hex_to_array</text>
</a>
</g>
</g>
<!-- Node23&#45;&gt;Node24 -->
<g id="edge32" class="edge"><title>Node23&#45;&gt;Node24</title>
<path fill="none" stroke="midnightblue" d="M352.593,-250C362.876,-250 373.835,-250 384.478,-250"/>
<polygon fill="midnightblue" stroke="midnightblue" points="384.554,-253.5 394.553,-250 384.553,-246.5 384.554,-253.5"/>
</g>
<!-- Node26&#45;&gt;Node16 -->
<g id="edge37" class="edge"><title>Node26&#45;&gt;Node16</title>
<path fill="none" stroke="midnightblue" d="M343.772,-19.5289C349.28,-22.0021 354.558,-25.1066 359,-29 407.025,-71.0918 431.184,-146.266 440.413,-182.031"/>
<polygon fill="midnightblue" stroke="midnightblue" points="437.117,-183.287 442.896,-192.167 443.916,-181.621 437.117,-183.287"/>
</g>
<!-- Node26&#45;&gt;Node22 -->
<g id="edge38" class="edge"><title>Node26&#45;&gt;Node22</title>
<path fill="none" stroke="midnightblue" d="M359.018,-17.4548C368.343,-18.7069 378.039,-20.0088 387.415,-21.2677"/>
<polygon fill="midnightblue" stroke="midnightblue" points="387.054,-24.7505 397.43,-22.6126 387.985,-17.8128 387.054,-24.7505"/>
</g>
<!-- Node27&#45;&gt;Node16 -->
<g id="edge40" class="edge"><title>Node27&#45;&gt;Node16</title>
<path fill="none" stroke="midnightblue" d="M337.034,-209.63C353.79,-208.446 374.44,-206.987 393.178,-205.662"/>
<polygon fill="midnightblue" stroke="midnightblue" points="393.626,-209.14 403.354,-204.943 393.132,-202.157 393.626,-209.14"/>
</g>
</g>
</svg>
        <g id="navigator" transform="translate(0 0)" fill="#404254">
                <rect fill="#f2f5e9" fill-opacity="0.5" stroke="#606060" stroke-width=".5" x="0" y="0" width="60" height="60"/>
                <use id="zoomplus" xlink:href="#zoomPlus" x="17" y="9" onmousedown="handleZoom(evt,'in')"/>
                <use id="zoomminus" xlink:href="#zoomMin" x="42" y="9" onmousedown="handleZoom(evt,'out')"/>
                <use id="reset" xlink:href="#resetDef" x="30" y="36" onmousedown="handleReset()"/>
                <g id="arrowUp" xlink:href="#dirArrow" transform="translate(30 24)" onmousedown="handlePan(0,-1)">
                  <use xlink:href="#rim" fill="#404040">
                        <set attributeName="fill" to="#808080" begin="arrowUp.mouseover" end="arrowUp.mouseout"/>
                  </use>
                  <path fill="none" stroke="white" stroke-width="1.5" d="M0,-3.0v7 M-2.5,-0.5L0,-3.0L2.5,-0.5"/>
                </g>
                <g id="arrowRight" xlink:href="#dirArrow" transform="rotate(90) translate(36 -43)" onmousedown="handlePan(1,0)">
                  <use xlink:href="#rim" fill="#404040">
                        <set attributeName="fill" to="#808080" begin="arrowRight.mouseover" end="arrowRight.mouseout"/>
                  </use>
                  <path fill="none" stroke="white" stroke-width="1.5" d="M0,-3.0v7 M-2.5,-0.5L0,-3.0L2.5,-0.5"/>
                </g>
                <g id="arrowDown" xlink:href="#dirArrow" transform="rotate(180) translate(-30 -48)" onmousedown="handlePan(0,1)">
                  <use xlink:href="#rim" fill="#404040">
                        <set attributeName="fill" to="#808080" begin="arrowDown.mouseover" end="arrowDown.mouseout"/>
                  </use>
                  <path fill="none" stroke="white" stroke-width="1.5" d="M0,-3.0v7 M-2.5,-0.5L0,-3.0L2.5,-0.5"/>
                </g>
                <g id="arrowLeft" xlink:href="#dirArrow" transform="rotate(270) translate(-36 17)" onmousedown="handlePan(-1,0)">
                  <use xlink:href="#rim" fill="#404040">
                        <set attributeName="fill" to="#808080" begin="arrowLeft.mouseover" end="arrowLeft.mouseout"/>
                  </use>
                  <path fill="none" stroke="white" stroke-width="1.5" d="M0,-3.0v7 M-2.5,-0.5L0,-3.0L2.5,-0.5"/>
                </g>
        </g>
        <svg viewBox="0 0 15 15" width="100%" height="30px" preserveAspectRatio="xMaxYMin meet">
         <g id="arrow_out" transform="scale(0.3 0.3)">
          <a xlink:href="radio_8c_a5f7fcd9e9755fb5e22175a4ad74a5456_cgraph_org.svg" target="_base">
           <rect id="button" ry="5" rx="5" y="6" x="6" height="38" width="38"
                fill="#f2f5e9" fill-opacity="0.5" stroke="#606060" stroke-width="1.0"/>
           <path id="arrow"
             d="M 11.500037,31.436501 C 11.940474,20.09759 22.043105,11.32322 32.158766,21.979434 L 37.068811,17.246167 C 37.068811,17.246167 37.088388,32 37.088388,32 L 22.160133,31.978069 C 22.160133,31.978069 26.997745,27.140456 26.997745,27.140456 C 18.528582,18.264221 13.291696,25.230495 11.500037,31.436501 z"
             style="fill:#404040;"/>
          </a>
         </g>
        </svg>
</svg>
