<?xml version="1.0" encoding="UTF-8" standalone="no"?>
<!DOCTYPE svg PUBLIC "-//W3C//DTD SVG 1.1//EN"
 "http://www.w3.org/Graphics/SVG/1.1/DTD/svg11.dtd">
<!-- Generated by graphviz version 2.38.0 (20140413.2041)
 -->
<!-- Title: radio_brightness Pages: 1 -->
<svg width="1082pt" height="208pt"
 viewBox="0.00 0.00 1082.00 208.00" xmlns="http://www.w3.org/2000/svg" xmlns:xlink="http://www.w3.org/1999/xlink">
<g id="graph0" class="graph" transform="scale(1 1) rotate(0) translate(4 204)">
<title>radio_brightness</title>
<polygon fill="white" stroke="none" points="-4,4 -4,-204 1078,-204 1078,4 -4,4"/>
<!-- Node1 -->
<g id="node1" class="node"><title>Node1</title>
<polygon fill="#bfbfbf" stroke="black" points="0,-123.5 0,-142.5 88,-142.5 88,-123.5 0,-123.5"/>
<text text-anchor="middle" x="44" y="-130.5" font-family="Helvetica,sans-Serif" font-size="10.00">radio_brightness</text>
</g>
<!-- Node2 -->
<g id="node2" class="node"><title>Node2</title>
<g id="a_node2"><a xlink:href="pca9530_8h.html#a07bd06dbfcb216eedc1969aa04e19b53" target="_top" xlink:title="pca9530_set_pwm">
<polygon fill="white" stroke="black" points="645,-171.5 645,-190.5 743,-190.5 743,-171.5 645,-171.5"/>
<text text-anchor="middle" x="694" y="-178.5" font-family="Helvetica,sans-Serif" font-size="10.00">pca9530_set_pwm</text>
</a>
</g>
</g>
<!-- Node1&#45;&gt;Node2 -->
<g id="edge1" class="edge"><title>Node1&#45;&gt;Node2</title>
<path fill="none" stroke="midnightblue" d="M67.7736,-142.599C113.855,-161.126 221.829,-200 316.5,-200 316.5,-200 316.5,-200 445.5,-200 510.411,-200 584.618,-193.423 634.712,-188.008"/>
<polygon fill="midnightblue" stroke="midnightblue" points="635.153,-191.48 644.711,-186.908 634.388,-184.522 635.153,-191.48"/>
</g>
<!-- Node6 -->
<g id="node6" class="node"><title>Node6</title>
<g id="a_node6"><a xlink:href="radio_8c.html#a477656bb91c200d15ddbe6cffcd04c53" target="_top" xlink:title="radio_store_settings">
<polygon fill="white" stroke="black" points="126.5,-123.5 126.5,-142.5 230.5,-142.5 230.5,-123.5 126.5,-123.5"/>
<text text-anchor="middle" x="178.5" y="-130.5" font-family="Helvetica,sans-Serif" font-size="10.00">radio_store_settings</text>
</a>
</g>
</g>
<!-- Node1&#45;&gt;Node6 -->
<g id="edge5" class="edge"><title>Node1&#45;&gt;Node6</title>
<path fill="none" stroke="midnightblue" d="M88.019,-133C97.0088,-133 106.652,-133 116.16,-133"/>
<polygon fill="midnightblue" stroke="midnightblue" points="116.386,-136.5 126.386,-133 116.386,-129.5 116.386,-136.5"/>
</g>
<!-- Node10 -->
<g id="node10" class="node"><title>Node10</title>
<g id="a_node10"><a xlink:href="menu_8h.html#a5621c1bf312de029f43808bf02dc52e3" target="_top" xlink:title="menu_scroll_settings">
<polygon fill="white" stroke="black" points="124,-66.5 124,-85.5 233,-85.5 233,-66.5 124,-66.5"/>
<text text-anchor="middle" x="178.5" y="-73.5" font-family="Helvetica,sans-Serif" font-size="10.00">menu_scroll_settings</text>
</a>
</g>
</g>
<!-- Node1&#45;&gt;Node10 -->
<g id="edge9" class="edge"><title>Node1&#45;&gt;Node10</title>
<path fill="none" stroke="midnightblue" d="M67.1775,-123.459C88.6745,-114.212 121.502,-100.09 145.762,-89.6532"/>
<polygon fill="midnightblue" stroke="midnightblue" points="147.447,-92.7386 155.25,-85.5716 144.681,-86.3083 147.447,-92.7386"/>
</g>
<!-- Node3 -->
<g id="node3" class="node"><title>Node3</title>
<g id="a_node3"><a xlink:href="i2c_8h.html#a6691e5911f539e1e8178c6e983e8079a" target="_top" xlink:title="Transmits I2C commands with a variable length to a I2C slave. ">
<polygon fill="white" stroke="black" points="779,-114.5 779,-133.5 851,-133.5 851,-114.5 779,-114.5"/>
<text text-anchor="middle" x="815" y="-121.5" font-family="Helvetica,sans-Serif" font-size="10.00">i2c_write_var</text>
</a>
</g>
</g>
<!-- Node2&#45;&gt;Node3 -->
<g id="edge2" class="edge"><title>Node2&#45;&gt;Node3</title>
<path fill="none" stroke="midnightblue" d="M714.918,-171.459C734.053,-162.294 763.184,-148.341 784.913,-137.932"/>
<polygon fill="midnightblue" stroke="midnightblue" points="786.51,-141.048 794.017,-133.572 783.486,-134.735 786.51,-141.048"/>
</g>
<!-- Node4 -->
<g id="node4" class="node"><title>Node4</title>
<g id="a_node4"><a xlink:href="i2c_8c.html#ae0625b97d3437bcaca4ac4b96dd01978" target="_top" xlink:title="Transmits I2C command array to a I2C slave. ">
<polygon fill="white" stroke="black" points="887,-114.5 887,-133.5 958,-133.5 958,-114.5 887,-114.5"/>
<text text-anchor="middle" x="922.5" y="-121.5" font-family="Helvetica,sans-Serif" font-size="10.00">i2c_write_arr</text>
</a>
</g>
</g>
<!-- Node3&#45;&gt;Node4 -->
<g id="edge3" class="edge"><title>Node3&#45;&gt;Node4</title>
<path fill="none" stroke="midnightblue" d="M851.13,-124C859.312,-124 868.133,-124 876.671,-124"/>
<polygon fill="midnightblue" stroke="midnightblue" points="876.882,-127.5 886.882,-124 876.882,-120.5 876.882,-127.5"/>
</g>
<!-- Node5 -->
<g id="node5" class="node"><title>Node5</title>
<g id="a_node5"><a xlink:href="timer_8c.html#a3c56af3315c2461dec5ced585a5f84db" target="_top" xlink:title="_delay_ten_us">
<polygon fill="white" stroke="black" points="994,-95.5 994,-114.5 1074,-114.5 1074,-95.5 994,-95.5"/>
<text text-anchor="middle" x="1034" y="-102.5" font-family="Helvetica,sans-Serif" font-size="10.00">_delay_ten_us</text>
</a>
</g>
</g>
<!-- Node4&#45;&gt;Node5 -->
<g id="edge4" class="edge"><title>Node4&#45;&gt;Node5</title>
<path fill="none" stroke="midnightblue" d="M958.146,-117.988C966.253,-116.582 975.042,-115.057 983.651,-113.563"/>
<polygon fill="midnightblue" stroke="midnightblue" points="984.368,-116.991 993.623,-111.833 983.172,-110.094 984.368,-116.991"/>
</g>
<!-- Node7 -->
<g id="node7" class="node"><title>Node7</title>
<g id="a_node7"><a xlink:href="flash_8h.html#ad9d8a7cadb959b139fea7654d539714a" target="_top" xlink:title="flash_read">
<polygon fill="white" stroke="black" points="287,-152.5 287,-171.5 348,-171.5 348,-152.5 287,-152.5"/>
<text text-anchor="middle" x="317.5" y="-159.5" font-family="Helvetica,sans-Serif" font-size="10.00">flash_read</text>
</a>
</g>
</g>
<!-- Node6&#45;&gt;Node7 -->
<g id="edge6" class="edge"><title>Node6&#45;&gt;Node7</title>
<path fill="none" stroke="midnightblue" d="M224.739,-142.576C241.649,-146.156 260.706,-150.19 277.053,-153.65"/>
<polygon fill="midnightblue" stroke="midnightblue" points="276.33,-157.074 286.838,-155.721 277.779,-150.226 276.33,-157.074"/>
</g>
<!-- Node8 -->
<g id="node8" class="node"><title>Node8</title>
<g id="a_node8"><a xlink:href="flash_8h.html#a936ded19cea6a94beca2b32349a9ac2c" target="_top" xlink:title="flash_store">
<polygon fill="white" stroke="black" points="285.5,-114.5 285.5,-133.5 349.5,-133.5 349.5,-114.5 285.5,-114.5"/>
<text text-anchor="middle" x="317.5" y="-121.5" font-family="Helvetica,sans-Serif" font-size="10.00">flash_store</text>
</a>
</g>
</g>
<!-- Node6&#45;&gt;Node8 -->
<g id="edge7" class="edge"><title>Node6&#45;&gt;Node8</title>
<path fill="none" stroke="midnightblue" d="M230.514,-129.649C245.185,-128.685 261.002,-127.646 275.022,-126.725"/>
<polygon fill="midnightblue" stroke="midnightblue" points="275.594,-130.195 285.343,-126.047 275.135,-123.21 275.594,-130.195"/>
</g>
<!-- Node9 -->
<g id="node9" class="node"><title>Node9</title>
<g id="a_node9"><a xlink:href="flash_8c.html#ad9d8a7cadb959b139fea7654d539714a" target="_top" xlink:title="flash_read">
<polygon fill="white" stroke="black" points="414,-114.5 414,-133.5 475,-133.5 475,-114.5 414,-114.5"/>
<text text-anchor="middle" x="444.5" y="-121.5" font-family="Helvetica,sans-Serif" font-size="10.00">flash_read</text>
</a>
</g>
</g>
<!-- Node8&#45;&gt;Node9 -->
<g id="edge8" class="edge"><title>Node8&#45;&gt;Node9</title>
<path fill="none" stroke="midnightblue" d="M349.72,-124C366.009,-124 386.116,-124 403.53,-124"/>
<polygon fill="midnightblue" stroke="midnightblue" points="403.966,-127.5 413.966,-124 403.966,-120.5 403.966,-127.5"/>
</g>
<!-- Node11 -->
<g id="node11" class="node"><title>Node11</title>
<g id="a_node11"><a xlink:href="lcd_8h.html#acd63fb85d212730fa4fcbcbeeccd231e" target="_top" xlink:title="lcd_create_view">
<polygon fill="white" stroke="black" points="402,-76.5 402,-95.5 487,-95.5 487,-76.5 402,-76.5"/>
<text text-anchor="middle" x="444.5" y="-83.5" font-family="Helvetica,sans-Serif" font-size="10.00">lcd_create_view</text>
</a>
</g>
</g>
<!-- Node10&#45;&gt;Node11 -->
<g id="edge10" class="edge"><title>Node10&#45;&gt;Node11</title>
<path fill="none" stroke="midnightblue" d="M233.243,-78.0357C279.636,-79.793 346.214,-82.3149 391.955,-84.0475"/>
<polygon fill="midnightblue" stroke="midnightblue" points="391.833,-87.5453 401.958,-84.4264 392.098,-80.5503 391.833,-87.5453"/>
</g>
<!-- Node16 -->
<g id="node16" class="node"><title>Node16</title>
<g id="a_node16"><a xlink:href="string_8c.html#a82b1b882cf97ff40344f87bd1473e9d0" target="_top" xlink:title="string_int_to_array">
<polygon fill="white" stroke="black" points="269,-38.5 269,-57.5 366,-57.5 366,-38.5 269,-38.5"/>
<text text-anchor="middle" x="317.5" y="-45.5" font-family="Helvetica,sans-Serif" font-size="10.00">string_int_to_array</text>
</a>
</g>
</g>
<!-- Node10&#45;&gt;Node16 -->
<g id="edge18" class="edge"><title>Node10&#45;&gt;Node16</title>
<path fill="none" stroke="midnightblue" d="M226.264,-66.4423C237.066,-64.2347 248.671,-61.8628 259.844,-59.5794"/>
<polygon fill="midnightblue" stroke="midnightblue" points="260.85,-62.9462 269.946,-57.5146 259.448,-56.088 260.85,-62.9462"/>
</g>
<!-- Node17 -->
<g id="node17" class="node"><title>Node17</title>
<g id="a_node17"><a xlink:href="menu_8c.html#a503ed2007daa6f20b2f748eedbcb8494" target="_top" xlink:title="menu_scroll">
<polygon fill="white" stroke="black" points="283,-0.5 283,-19.5 352,-19.5 352,-0.5 283,-0.5"/>
<text text-anchor="middle" x="317.5" y="-7.5" font-family="Helvetica,sans-Serif" font-size="10.00">menu_scroll</text>
</a>
</g>
</g>
<!-- Node10&#45;&gt;Node17 -->
<g id="edge19" class="edge"><title>Node10&#45;&gt;Node17</title>
<path fill="none" stroke="midnightblue" d="M196.396,-66.4583C214.199,-56.5638 243.181,-40.9048 269,-29 273.103,-27.108 277.452,-25.2176 281.786,-23.4029"/>
<polygon fill="midnightblue" stroke="midnightblue" points="283.215,-26.6001 291.15,-19.5799 280.569,-20.1194 283.215,-26.6001"/>
</g>
<!-- Node12 -->
<g id="node12" class="node"><title>Node12</title>
<g id="a_node12"><a xlink:href="lcd_8c.html#a2a4df97ebc5b396233aa31765228ef42" target="_top" xlink:title="lcd_set_courser">
<polygon fill="white" stroke="black" points="523,-76.5 523,-95.5 609,-95.5 609,-76.5 523,-76.5"/>
<text text-anchor="middle" x="566" y="-83.5" font-family="Helvetica,sans-Serif" font-size="10.00">lcd_set_courser</text>
</a>
</g>
</g>
<!-- Node11&#45;&gt;Node12 -->
<g id="edge11" class="edge"><title>Node11&#45;&gt;Node12</title>
<path fill="none" stroke="midnightblue" d="M487.295,-86C495.43,-86 504.054,-86 512.483,-86"/>
<polygon fill="midnightblue" stroke="midnightblue" points="512.622,-89.5001 522.622,-86 512.622,-82.5001 512.622,-89.5001"/>
</g>
<!-- Node15 -->
<g id="node15" class="node"><title>Node15</title>
<g id="a_node15"><a xlink:href="lcd_8c.html#aa6e1aa2ef9b677e16d8198df683429ec" target="_top" xlink:title="lcd_write_string">
<polygon fill="white" stroke="black" points="524,-114.5 524,-133.5 608,-133.5 608,-114.5 524,-114.5"/>
<text text-anchor="middle" x="566" y="-121.5" font-family="Helvetica,sans-Serif" font-size="10.00">lcd_write_string</text>
</a>
</g>
</g>
<!-- Node11&#45;&gt;Node15 -->
<g id="edge16" class="edge"><title>Node11&#45;&gt;Node15</title>
<path fill="none" stroke="midnightblue" d="M475.655,-95.589C490.657,-100.359 508.988,-106.189 525.134,-111.323"/>
<polygon fill="midnightblue" stroke="midnightblue" points="524.264,-114.719 534.855,-114.414 526.386,-108.048 524.264,-114.719"/>
</g>
<!-- Node13 -->
<g id="node13" class="node"><title>Node13</title>
<g id="a_node13"><a xlink:href="lcd_8c.html#a250728451a22259562d3f01a12bbd77b" target="_top" xlink:title="lcd_command">
<polygon fill="white" stroke="black" points="655.5,-76.5 655.5,-95.5 732.5,-95.5 732.5,-76.5 655.5,-76.5"/>
<text text-anchor="middle" x="694" y="-83.5" font-family="Helvetica,sans-Serif" font-size="10.00">lcd_command</text>
</a>
</g>
</g>
<!-- Node12&#45;&gt;Node13 -->
<g id="edge12" class="edge"><title>Node12&#45;&gt;Node13</title>
<path fill="none" stroke="midnightblue" d="M609.307,-86C620.808,-86 633.345,-86 645.13,-86"/>
<polygon fill="midnightblue" stroke="midnightblue" points="645.249,-89.5001 655.249,-86 645.249,-82.5001 645.249,-89.5001"/>
</g>
<!-- Node13&#45;&gt;Node3 -->
<g id="edge13" class="edge"><title>Node13&#45;&gt;Node3</title>
<path fill="none" stroke="midnightblue" d="M725.029,-95.589C739.968,-100.359 758.223,-106.189 774.301,-111.323"/>
<polygon fill="midnightblue" stroke="midnightblue" points="773.39,-114.706 783.981,-114.414 775.519,-108.038 773.39,-114.706"/>
</g>
<!-- Node14 -->
<g id="node14" class="node"><title>Node14</title>
<g id="a_node14"><a xlink:href="timer_8c.html#a276d5cb665b9f8b2c79e53e2f2c5b4f0" target="_top" xlink:title="_delay_ms">
<polygon fill="white" stroke="black" points="890.5,-76.5 890.5,-95.5 954.5,-95.5 954.5,-76.5 890.5,-76.5"/>
<text text-anchor="middle" x="922.5" y="-83.5" font-family="Helvetica,sans-Serif" font-size="10.00">_delay_ms</text>
</a>
</g>
</g>
<!-- Node13&#45;&gt;Node14 -->
<g id="edge14" class="edge"><title>Node13&#45;&gt;Node14</title>
<path fill="none" stroke="midnightblue" d="M732.656,-86C773.36,-86 838.041,-86 880.135,-86"/>
<polygon fill="midnightblue" stroke="midnightblue" points="880.322,-89.5001 890.322,-86 880.322,-82.5001 880.322,-89.5001"/>
</g>
<!-- Node14&#45;&gt;Node5 -->
<g id="edge15" class="edge"><title>Node14&#45;&gt;Node5</title>
<path fill="none" stroke="midnightblue" d="M954.585,-91.3938C963.595,-92.9572 973.664,-94.7043 983.505,-96.4118"/>
<polygon fill="midnightblue" stroke="midnightblue" points="983.172,-99.9062 993.623,-98.1674 984.368,-93.0092 983.172,-99.9062"/>
</g>
<!-- Node15&#45;&gt;Node3 -->
<g id="edge17" class="edge"><title>Node15&#45;&gt;Node3</title>
<path fill="none" stroke="midnightblue" d="M608.064,-124C652.353,-124 722.671,-124 768.582,-124"/>
<polygon fill="midnightblue" stroke="midnightblue" points="768.843,-127.5 778.843,-124 768.842,-120.5 768.843,-127.5"/>
</g>
<!-- Node17&#45;&gt;Node11 -->
<g id="edge20" class="edge"><title>Node17&#45;&gt;Node11</title>
<path fill="none" stroke="midnightblue" d="M346.177,-19.6983C352.822,-22.3979 359.79,-25.5479 366,-29 387.112,-40.7351 409.103,-57.4017 424.243,-69.6831"/>
<polygon fill="midnightblue" stroke="midnightblue" points="422.366,-72.6722 432.307,-76.3371 426.821,-67.273 422.366,-72.6722"/>
</g>
</g>
</svg>
