<?xml version="1.0" encoding="UTF-8" standalone="no"?>
<!DOCTYPE svg PUBLIC "-//W3C//DTD SVG 1.1//EN"
 "http://www.w3.org/Graphics/SVG/1.1/DTD/svg11.dtd">
<!-- Generated by graphviz version 2.38.0 (20140413.2041)
 -->
<!-- Title: D:/GIT/fhradiov2/system/src/radio.c Pages: 1 -->
<!--zoomable 587 -->
<svg id="main" version="1.1" xmlns="http://www.w3.org/2000/svg" xmlns:xlink="http://www.w3.org/1999/xlink" xml:space="preserve" onload="init(evt)">
<style type="text/css"><![CDATA[
.edge:hover path { stroke: red; }
.edge:hover polygon { stroke: red; fill: red; }
]]></style>
<script type="text/javascript"><![CDATA[
var edges = document.getElementsByTagName('g');
if (edges && edges.length) {
  for (var i=0;i<edges.length;i++) {
    if (edges[i].id.substr(0,4)=='edge') {
      edges[i].setAttribute('class','edge');
    }
  }
}
]]></script>
        <defs>
                <circle id="rim" cx="0" cy="0" r="7"/>
                <circle id="rim2" cx="0" cy="0" r="3.5"/>
                <g id="zoomPlus">
                        <use xlink:href="#rim" fill="#404040">
                                <set attributeName="fill" to="#808080" begin="zoomplus.mouseover" end="zoomplus.mouseout"/>
                        </use>
                        <path d="M-4,0h8M0,-4v8" fill="none" stroke="white" stroke-width="1.5" pointer-events="none"/>
                </g>
                <g id="zoomMin">
                        <use xlink:href="#rim" fill="#404040">
                                <set attributeName="fill" to="#808080" begin="zoomminus.mouseover" end="zoomminus.mouseout"/>
                        </use>
                        <path d="M-4,0h8" fill="none" stroke="white" stroke-width="1.5" pointer-events="none"/>
                </g>
                <g id="dirArrow">
                        <path fill="none" stroke="white" stroke-width="1.5" d="M0,-3.0v7 M-2.5,-0.5L0,-3.0L2.5,-0.5"/>
                </g>
               <g id="resetDef">
                       <use xlink:href="#rim2" fill="#404040">
                               <set attributeName="fill" to="#808080" begin="reset.mouseover" end="reset.mouseout"/>
                       </use>
               </g>
        </defs>

<script type="text/javascript">
var viewWidth = 1802;
var viewHeight = 587;
var sectionId = 'dynsection-0';
</script>
<script xlink:href="svgpan.js"/>
<svg id="graph" class="graph">
<g id="viewport">
<title>D:/GIT/fhradiov2/system/src/radio.c</title>
<polygon fill="white" stroke="none" points="-4,4 -4,-583 1798.49,-583 1798.49,4 -4,4"/>
<!-- Node1 -->
<g id="node1" class="node"><title>Node1</title>
<polygon fill="#bfbfbf" stroke="black" points="976.985,-548.5 976.985,-578.5 1096.99,-578.5 1096.99,-548.5 976.985,-548.5"/>
<text text-anchor="start" x="984.985" y="-566.5" font-family="Helvetica,sans-Serif" font-size="10.00">D:/GIT/fhradiov2/system</text>
<text text-anchor="middle" x="1036.99" y="-555.5" font-family="Helvetica,sans-Serif" font-size="10.00">/src/radio.c</text>
</g>
<!-- Node2 -->
<g id="node2" class="node"><title>Node2</title>
<g id="a_node2"><a xlink:href="radio_8h.html" target="_top" xlink:title="system/radio.h">
<polygon fill="white" stroke="black" points="996.485,-492.5 996.485,-511.5 1077.49,-511.5 1077.49,-492.5 996.485,-492.5"/>
<text text-anchor="middle" x="1036.99" y="-499.5" font-family="Helvetica,sans-Serif" font-size="10.00">system/radio.h</text>
</a>
</g>
</g>
<!-- Node1&#45;&gt;Node2 -->
<g id="edge1" class="edge"><title>Node1&#45;&gt;Node2</title>
<path fill="none" stroke="midnightblue" d="M1036.99,-548.399C1036.99,-540.466 1036.99,-530.458 1036.99,-521.858"/>
<polygon fill="midnightblue" stroke="midnightblue" points="1040.49,-521.658 1036.99,-511.658 1033.49,-521.658 1040.49,-521.658"/>
</g>
<!-- Node3 -->
<g id="node3" class="node"><title>Node3</title>
<polygon fill="white" stroke="#bfbfbf" points="971.485,-0.5 971.485,-19.5 1020.49,-19.5 1020.49,-0.5 971.485,-0.5"/>
<text text-anchor="middle" x="995.985" y="-7.5" font-family="Helvetica,sans-Serif" font-size="10.00">stdint.h</text>
</g>
<!-- Node2&#45;&gt;Node3 -->
<g id="edge2" class="edge"><title>Node2&#45;&gt;Node3</title>
<path fill="none" stroke="midnightblue" d="M996.351,-500.245C828.991,-496.97 197.852,-482.929 112.985,-456 57.2798,-438.324 1.98546,-443.943 1.98546,-385.5 1.98546,-385.5 1.98546,-385.5 1.98546,-132 1.98546,-97.1827 -5.95638,-78.0541 20.9855,-56 58.0921,-25.6251 792.098,-13.7808 961.371,-11.4476"/>
<polygon fill="midnightblue" stroke="midnightblue" points="961.519,-14.946 971.471,-11.3105 961.424,-7.94665 961.519,-14.946"/>
</g>
<!-- Node4 -->
<g id="node4" class="node"><title>Node4</title>
<g id="a_node4"><a xlink:href="pca9530_8h.html" target="_top" xlink:title="driver/pca9530.h">
<polygon fill="white" stroke="black" points="224.485,-308 224.485,-327 311.485,-327 311.485,-308 224.485,-308"/>
<text text-anchor="middle" x="267.985" y="-315" font-family="Helvetica,sans-Serif" font-size="10.00">driver/pca9530.h</text>
</a>
</g>
</g>
<!-- Node2&#45;&gt;Node4 -->
<g id="edge3" class="edge"><title>Node2&#45;&gt;Node4</title>
<path fill="none" stroke="midnightblue" d="M996.437,-499.824C864.653,-495.771 453.821,-481.224 399.985,-456 342.934,-429.269 297.73,-366.243 278.309,-335.696"/>
<polygon fill="midnightblue" stroke="midnightblue" points="281.168,-333.665 272.927,-327.006 275.217,-337.351 281.168,-333.665"/>
</g>
<!-- Node9 -->
<g id="node9" class="node"><title>Node9</title>
<g id="a_node9"><a xlink:href="timer_8h.html" target="_top" xlink:title="driver/timer.h">
<polygon fill="white" stroke="black" points="527.985,-179.5 527.985,-198.5 599.985,-198.5 599.985,-179.5 527.985,-179.5"/>
<text text-anchor="middle" x="563.985" y="-186.5" font-family="Helvetica,sans-Serif" font-size="10.00">driver/timer.h</text>
</a>
</g>
</g>
<!-- Node2&#45;&gt;Node9 -->
<g id="edge47" class="edge"><title>Node2&#45;&gt;Node9</title>
<path fill="none" stroke="midnightblue" d="M996.304,-495.168C878.526,-477.355 541.71,-419.552 479.985,-333 467.096,-314.925 482.112,-249.597 491.985,-235 501.606,-220.778 517.378,-210.181 531.712,-202.856"/>
<polygon fill="midnightblue" stroke="midnightblue" points="533.32,-205.967 540.845,-198.509 530.311,-199.646 533.32,-205.967"/>
</g>
<!-- Node10 -->
<g id="node10" class="node"><title>Node10</title>
<g id="a_node10"><a xlink:href="radio__configuration_8h.html" target="_top" xlink:title="settings/radio_configuration.h">
<polygon fill="white" stroke="black" points="186.485,-123.5 186.485,-142.5 329.485,-142.5 329.485,-123.5 186.485,-123.5"/>
<text text-anchor="middle" x="257.985" y="-130.5" font-family="Helvetica,sans-Serif" font-size="10.00">settings/radio_configuration.h</text>
</a>
</g>
</g>
<!-- Node2&#45;&gt;Node10 -->
<g id="edge63" class="edge"><title>Node2&#45;&gt;Node10</title>
<path fill="none" stroke="midnightblue" d="M996.292,-500.02C870.014,-496.703 486.063,-484.482 364.985,-456 285.763,-437.364 195.985,-466.885 195.985,-385.5 195.985,-385.5 195.985,-385.5 195.985,-249.5 195.985,-210.295 224.06,-171.553 242.425,-150.404"/>
<polygon fill="midnightblue" stroke="midnightblue" points="245.267,-152.479 249.365,-142.709 240.068,-147.791 245.267,-152.479"/>
</g>
<!-- Node11 -->
<g id="node11" class="node"><title>Node11</title>
<g id="a_node11"><a xlink:href="si4735__cmd__prop_8h.html" target="_top" xlink:title="driver/include/si4735\l_cmd_prop.h">
<polygon fill="white" stroke="black" points="205.985,-56.5 205.985,-86.5 309.985,-86.5 309.985,-56.5 205.985,-56.5"/>
<text text-anchor="start" x="213.985" y="-74.5" font-family="Helvetica,sans-Serif" font-size="10.00">driver/include/si4735</text>
<text text-anchor="middle" x="257.985" y="-63.5" font-family="Helvetica,sans-Serif" font-size="10.00">_cmd_prop.h</text>
</a>
</g>
</g>
<!-- Node2&#45;&gt;Node11 -->
<g id="edge23" class="edge"><title>Node2&#45;&gt;Node11</title>
<path fill="none" stroke="midnightblue" d="M996.438,-500.597C841.242,-498.806 290.142,-490.084 219.985,-456 182.454,-437.766 157.985,-427.226 157.985,-385.5 157.985,-385.5 157.985,-385.5 157.985,-188 157.985,-157.902 158.798,-146.981 176.985,-123 186.843,-110.002 201.096,-99.5336 214.906,-91.5708"/>
<polygon fill="midnightblue" stroke="midnightblue" points="216.754,-94.5502 223.868,-86.6986 213.41,-88.4005 216.754,-94.5502"/>
</g>
<!-- Node12 -->
<g id="node12" class="node"><title>Node12</title>
<g id="a_node12"><a xlink:href="log__exp__table_8h.html" target="_top" xlink:title="libs/log_exp_table.h">
<polygon fill="white" stroke="black" points="30.4855,-62 30.4855,-81 133.485,-81 133.485,-62 30.4855,-62"/>
<text text-anchor="middle" x="81.9855" y="-69" font-family="Helvetica,sans-Serif" font-size="10.00">libs/log_exp_table.h</text>
</a>
</g>
</g>
<!-- Node2&#45;&gt;Node12 -->
<g id="edge16" class="edge"><title>Node2&#45;&gt;Node12</title>
<path fill="none" stroke="midnightblue" d="M996.315,-500.21C836.614,-496.924 257.424,-483.222 179.985,-456 129.367,-438.206 81.9855,-439.155 81.9855,-385.5 81.9855,-385.5 81.9855,-385.5 81.9855,-188 81.9855,-153.864 81.9855,-114.052 81.9855,-91.2092"/>
<polygon fill="midnightblue" stroke="midnightblue" points="85.4856,-91.1934 81.9855,-81.1934 78.4856,-91.1934 85.4856,-91.1934"/>
</g>
<!-- Node13 -->
<g id="node13" class="node"><title>Node13</title>
<g id="a_node13"><a xlink:href="si4735_8h.html" target="_top" xlink:title="driver/si4735.h">
<polygon fill="white" stroke="black" points="329.485,-308 329.485,-327 408.485,-327 408.485,-308 329.485,-308"/>
<text text-anchor="middle" x="368.985" y="-315" font-family="Helvetica,sans-Serif" font-size="10.00">driver/si4735.h</text>
</a>
</g>
</g>
<!-- Node2&#45;&gt;Node13 -->
<g id="edge18" class="edge"><title>Node2&#45;&gt;Node13</title>
<path fill="none" stroke="midnightblue" d="M996.091,-500.495C866.221,-498.553 468.972,-489.874 422.985,-456 384.534,-427.677 373.45,-367.808 370.264,-337.27"/>
<polygon fill="midnightblue" stroke="midnightblue" points="373.736,-336.791 369.389,-327.129 366.762,-337.393 373.736,-336.791"/>
</g>
<!-- Node15 -->
<g id="node15" class="node"><title>Node15</title>
<g id="a_node15"><a xlink:href="external__interrupthandler_8h.html" target="_top" xlink:title="driver/external_interrupthandler.h">
<polygon fill="white" stroke="black" points="982.485,-308 982.485,-327 1139.49,-327 1139.49,-308 982.485,-308"/>
<text text-anchor="middle" x="1060.99" y="-315" font-family="Helvetica,sans-Serif" font-size="10.00">driver/external_interrupthandler.h</text>
</a>
</g>
</g>
<!-- Node2&#45;&gt;Node15 -->
<g id="edge24" class="edge"><title>Node2&#45;&gt;Node15</title>
<path fill="none" stroke="midnightblue" d="M1031.82,-492.325C1019.67,-470.713 991.616,-413.041 1009.99,-369 1016.02,-354.521 1028.46,-342.068 1039.54,-333.152"/>
<polygon fill="midnightblue" stroke="midnightblue" points="1041.75,-335.868 1047.62,-327.047 1037.53,-330.283 1041.75,-335.868"/>
</g>
<!-- Node16 -->
<g id="node16" class="node"><title>Node16</title>
<g id="a_node16"><a xlink:href="tpa2016d2_8h.html" target="_top" xlink:title="driver/tpa2016d2.h">
<polygon fill="white" stroke="black" points="608.485,-308 608.485,-327 703.485,-327 703.485,-308 608.485,-308"/>
<text text-anchor="middle" x="655.985" y="-315" font-family="Helvetica,sans-Serif" font-size="10.00">driver/tpa2016d2.h</text>
</a>
</g>
</g>
<!-- Node2&#45;&gt;Node16 -->
<g id="edge28" class="edge"><title>Node2&#45;&gt;Node16</title>
<path fill="none" stroke="midnightblue" d="M1004,-492.483C951.151,-478.044 845.199,-445.8 763.985,-400 729.458,-380.529 693.523,-351.314 673.038,-333.663"/>
<polygon fill="midnightblue" stroke="midnightblue" points="675.331,-331.018 665.495,-327.081 670.728,-336.292 675.331,-331.018"/>
</g>
<!-- Node17 -->
<g id="node17" class="node"><title>Node17</title>
<g id="a_node17"><a xlink:href="lcd_8h.html" target="_top" xlink:title="driver/lcd.h">
<polygon fill="white" stroke="black" points="773.485,-375 773.485,-394 836.485,-394 836.485,-375 773.485,-375"/>
<text text-anchor="middle" x="804.985" y="-382" font-family="Helvetica,sans-Serif" font-size="10.00">driver/lcd.h</text>
</a>
</g>
</g>
<!-- Node2&#45;&gt;Node17 -->
<g id="edge34" class="edge"><title>Node2&#45;&gt;Node17</title>
<path fill="none" stroke="midnightblue" d="M1019.55,-492.319C979.226,-472.245 879.335,-422.515 831.433,-398.667"/>
<polygon fill="midnightblue" stroke="midnightblue" points="832.821,-395.448 822.309,-394.124 829.701,-401.714 832.821,-395.448"/>
</g>
<!-- Node20 -->
<g id="node20" class="node"><title>Node20</title>
<g id="a_node20"><a xlink:href="flash_8h.html" target="_top" xlink:title="driver/flash.h">
<polygon fill="white" stroke="black" points="1065.49,-436.5 1065.49,-455.5 1136.49,-455.5 1136.49,-436.5 1065.49,-436.5"/>
<text text-anchor="middle" x="1100.99" y="-443.5" font-family="Helvetica,sans-Serif" font-size="10.00">driver/flash.h</text>
</a>
</g>
</g>
<!-- Node2&#45;&gt;Node20 -->
<g id="edge42" class="edge"><title>Node2&#45;&gt;Node20</title>
<path fill="none" stroke="midnightblue" d="M1047.27,-492.324C1056.82,-484.263 1071.27,-472.077 1082.77,-462.369"/>
<polygon fill="midnightblue" stroke="midnightblue" points="1085.13,-464.958 1090.52,-455.834 1080.62,-459.608 1085.13,-464.958"/>
</g>
<!-- Node21 -->
<g id="node21" class="node"><title>Node21</title>
<g id="a_node21"><a xlink:href="string_8h.html" target="_top" xlink:title="string.h">
<polygon fill="white" stroke="black" points="1161.49,-375 1161.49,-394 1210.49,-394 1210.49,-375 1161.49,-375"/>
<text text-anchor="middle" x="1185.99" y="-382" font-family="Helvetica,sans-Serif" font-size="10.00">string.h</text>
</a>
</g>
</g>
<!-- Node2&#45;&gt;Node21 -->
<g id="edge72" class="edge"><title>Node2&#45;&gt;Node21</title>
<path fill="none" stroke="midnightblue" d="M1072.74,-492.454C1095.45,-485.596 1124.36,-474.07 1144.99,-456 1161.25,-441.748 1172.71,-419.404 1179.3,-403.699"/>
<polygon fill="midnightblue" stroke="midnightblue" points="1182.68,-404.655 1183.08,-394.067 1176.17,-402.094 1182.68,-404.655"/>
</g>
<!-- Node22 -->
<g id="node22" class="node"><title>Node22</title>
<g id="a_node22"><a xlink:href="encoder_8h.html" target="_top" xlink:title="driver/encoder.h">
<polygon fill="white" stroke="black" points="1019.49,-375 1019.49,-394 1104.49,-394 1104.49,-375 1019.49,-375"/>
<text text-anchor="middle" x="1061.99" y="-382" font-family="Helvetica,sans-Serif" font-size="10.00">driver/encoder.h</text>
</a>
</g>
</g>
<!-- Node2&#45;&gt;Node22 -->
<g id="edge48" class="edge"><title>Node2&#45;&gt;Node22</title>
<path fill="none" stroke="midnightblue" d="M1038.86,-492.319C1042.9,-473.673 1052.47,-429.443 1057.95,-404.132"/>
<polygon fill="midnightblue" stroke="midnightblue" points="1061.39,-404.796 1060.08,-394.282 1054.55,-403.315 1061.39,-404.796"/>
</g>
<!-- Node23 -->
<g id="node23" class="node"><title>Node23</title>
<g id="a_node23"><a xlink:href="language_8h.html" target="_top" xlink:title="menu/lang/language.h">
<polygon fill="white" stroke="black" points="1390.99,-375 1390.99,-394 1502.99,-394 1502.99,-375 1390.99,-375"/>
<text text-anchor="middle" x="1446.99" y="-382" font-family="Helvetica,sans-Serif" font-size="10.00">menu/lang/language.h</text>
</a>
</g>
</g>
<!-- Node2&#45;&gt;Node23 -->
<g id="edge53" class="edge"><title>Node2&#45;&gt;Node23</title>
<path fill="none" stroke="midnightblue" d="M1077.69,-496.065C1126.1,-489.587 1209.05,-476.563 1277.99,-456 1329.89,-440.517 1387.56,-414.416 1420.33,-398.689"/>
<polygon fill="midnightblue" stroke="midnightblue" points="1422.2,-401.674 1429.67,-394.164 1419.15,-395.375 1422.2,-401.674"/>
</g>
<!-- Node24 -->
<g id="node24" class="node"><title>Node24</title>
<g id="a_node24"><a xlink:href="menu_8h.html" target="_top" xlink:title="menu/menu.h">
<polygon fill="white" stroke="black" points="1192.99,-436.5 1192.99,-455.5 1268.99,-455.5 1268.99,-436.5 1192.99,-436.5"/>
<text text-anchor="middle" x="1230.99" y="-443.5" font-family="Helvetica,sans-Serif" font-size="10.00">menu/menu.h</text>
</a>
</g>
</g>
<!-- Node2&#45;&gt;Node24 -->
<g id="edge54" class="edge"><title>Node2&#45;&gt;Node24</title>
<path fill="none" stroke="midnightblue" d="M1062.64,-492.444C1093.95,-483.162 1147.14,-468.309 1185.43,-458.127"/>
<polygon fill="midnightblue" stroke="midnightblue" points="1186.54,-461.455 1195.31,-455.516 1184.75,-454.687 1186.54,-461.455"/>
</g>
<!-- Node26 -->
<g id="node26" class="node"><title>Node26</title>
<g id="a_node26"><a xlink:href="station__list_8h.html" target="_top" xlink:title="system/station_list.h">
<polygon fill="white" stroke="black" points="1421.49,-436.5 1421.49,-455.5 1528.49,-455.5 1528.49,-436.5 1421.49,-436.5"/>
<text text-anchor="middle" x="1474.99" y="-443.5" font-family="Helvetica,sans-Serif" font-size="10.00">system/station_list.h</text>
</a>
</g>
</g>
<!-- Node2&#45;&gt;Node26 -->
<g id="edge64" class="edge"><title>Node2&#45;&gt;Node26</title>
<path fill="none" stroke="midnightblue" d="M1077.8,-495.968C1154.35,-486.53 1320,-466.107 1411.34,-454.847"/>
<polygon fill="midnightblue" stroke="midnightblue" points="1411.79,-458.318 1421.29,-453.62 1410.93,-451.37 1411.79,-458.318"/>
</g>
<!-- Node28 -->
<g id="node28" class="node"><title>Node28</title>
<g id="a_node28"><a xlink:href="radio__display_8h.html" target="_top" xlink:title="system/radio_display.h">
<polygon fill="white" stroke="black" points="1585.49,-436.5 1585.49,-455.5 1702.49,-455.5 1702.49,-436.5 1585.49,-436.5"/>
<text text-anchor="middle" x="1643.99" y="-443.5" font-family="Helvetica,sans-Serif" font-size="10.00">system/radio_display.h</text>
</a>
</g>
</g>
<!-- Node2&#45;&gt;Node28 -->
<g id="edge69" class="edge"><title>Node2&#45;&gt;Node28</title>
<path fill="none" stroke="midnightblue" d="M1077.73,-497.741C1166.15,-491.031 1381.53,-474.72 1561.99,-456 1566.32,-455.551 1570.79,-455.061 1575.31,-454.55"/>
<polygon fill="midnightblue" stroke="midnightblue" points="1575.72,-458.027 1585.25,-453.405 1574.92,-451.073 1575.72,-458.027"/>
</g>
<!-- Node29 -->
<g id="node29" class="node"><title>Node29</title>
<g id="a_node29"><a xlink:href="time_8h.html" target="_top" xlink:title="system/time.h">
<polygon fill="white" stroke="black" points="1715.49,-241 1715.49,-260 1794.49,-260 1794.49,-241 1715.49,-241"/>
<text text-anchor="middle" x="1754.99" y="-248" font-family="Helvetica,sans-Serif" font-size="10.00">system/time.h</text>
</a>
</g>
</g>
<!-- Node2&#45;&gt;Node29 -->
<g id="edge73" class="edge"><title>Node2&#45;&gt;Node29</title>
<path fill="none" stroke="midnightblue" d="M1077.7,-501.081C1216.18,-500.977 1663.07,-497.412 1710.99,-456 1765.73,-408.678 1761.91,-311.123 1757.53,-270.207"/>
<polygon fill="midnightblue" stroke="midnightblue" points="1761,-269.765 1756.32,-260.258 1754.05,-270.606 1761,-269.765"/>
</g>
<!-- Node4&#45;&gt;Node3 -->
<g id="edge4" class="edge"><title>Node4&#45;&gt;Node3</title>
<path fill="none" stroke="midnightblue" d="M260.661,-307.86C229.711,-270.372 114.953,-120.789 196.985,-56 257.549,-8.16717 814.87,-9.4668 961.025,-10.6444"/>
<polygon fill="midnightblue" stroke="midnightblue" points="961.182,-14.1458 971.211,-10.7318 961.242,-7.14606 961.182,-14.1458"/>
</g>
<!-- Node5 -->
<g id="node5" class="node"><title>Node5</title>
<g id="a_node5"><a xlink:href="i2c_8h.html" target="_top" xlink:title="I2C implemtation for MSP430G2553, interrupt based. &#160;&#160;This implemtation based on examples from Texas I...">
<polygon fill="white" stroke="black" points="316.485,-241 316.485,-260 379.485,-260 379.485,-241 316.485,-241"/>
<text text-anchor="middle" x="347.985" y="-248" font-family="Helvetica,sans-Serif" font-size="10.00">driver/i2c.h</text>
</a>
</g>
</g>
<!-- Node4&#45;&gt;Node5 -->
<g id="edge5" class="edge"><title>Node4&#45;&gt;Node5</title>
<path fill="none" stroke="midnightblue" d="M278.775,-307.734C291.729,-297.208 313.672,-279.379 329.379,-266.617"/>
<polygon fill="midnightblue" stroke="midnightblue" points="331.813,-269.15 337.367,-260.127 327.399,-263.717 331.813,-269.15"/>
</g>
<!-- Node5&#45;&gt;Node3 -->
<g id="edge6" class="edge"><title>Node5&#45;&gt;Node3</title>
<path fill="none" stroke="midnightblue" d="M354.958,-240.727C381.043,-208.676 476.929,-97.6255 584.985,-56 653.546,-29.5892 875.27,-16.6423 961.361,-12.5147"/>
<polygon fill="midnightblue" stroke="midnightblue" points="961.579,-16.0084 971.404,-12.0439 961.251,-9.01606 961.579,-16.0084"/>
</g>
<!-- Node6 -->
<g id="node6" class="node"><title>Node6</title>
<polygon fill="white" stroke="#bfbfbf" points="806.485,-123.5 806.485,-142.5 865.485,-142.5 865.485,-123.5 806.485,-123.5"/>
<text text-anchor="middle" x="835.985" y="-130.5" font-family="Helvetica,sans-Serif" font-size="10.00">msp430.h</text>
</g>
<!-- Node5&#45;&gt;Node6 -->
<g id="edge7" class="edge"><title>Node5&#45;&gt;Node6</title>
<path fill="none" stroke="midnightblue" d="M373.36,-240.901C400.401,-231.499 444.286,-215.551 480.985,-199 498.383,-191.154 500.826,-184.872 518.985,-179 615.282,-147.862 734.948,-138.253 796.034,-135.301"/>
<polygon fill="midnightblue" stroke="midnightblue" points="796.553,-138.781 806.386,-134.837 796.24,-131.788 796.553,-138.781"/>
</g>
<!-- Node7 -->
<g id="node7" class="node"><title>Node7</title>
<polygon fill="white" stroke="#bfbfbf" points="423.985,-179.5 423.985,-198.5 471.985,-198.5 471.985,-179.5 423.985,-179.5"/>
<text text-anchor="middle" x="447.985" y="-186.5" font-family="Helvetica,sans-Serif" font-size="10.00">stdlib.h</text>
</g>
<!-- Node5&#45;&gt;Node7 -->
<g id="edge8" class="edge"><title>Node5&#45;&gt;Node7</title>
<path fill="none" stroke="midnightblue" d="M362.313,-240.975C378.65,-231.255 405.588,-215.227 424.898,-203.737"/>
<polygon fill="midnightblue" stroke="midnightblue" points="426.88,-206.63 433.684,-198.509 423.301,-200.615 426.88,-206.63"/>
</g>
<!-- Node8 -->
<g id="node8" class="node"><title>Node8</title>
<polygon fill="white" stroke="#bfbfbf" points="315.985,-179.5 315.985,-198.5 367.985,-198.5 367.985,-179.5 315.985,-179.5"/>
<text text-anchor="middle" x="341.985" y="-186.5" font-family="Helvetica,sans-Serif" font-size="10.00">stdarg.h</text>
</g>
<!-- Node5&#45;&gt;Node8 -->
<g id="edge9" class="edge"><title>Node5&#45;&gt;Node8</title>
<path fill="none" stroke="midnightblue" d="M347.126,-240.975C346.279,-232.58 344.958,-219.481 343.867,-208.663"/>
<polygon fill="midnightblue" stroke="midnightblue" points="347.329,-208.107 342.844,-198.509 340.365,-208.81 347.329,-208.107"/>
</g>
<!-- Node5&#45;&gt;Node9 -->
<g id="edge10" class="edge"><title>Node5&#45;&gt;Node9</title>
<path fill="none" stroke="midnightblue" d="M374.678,-240.855C380.991,-238.874 387.712,-236.818 393.985,-235 436.688,-222.625 485.818,-209.768 520.245,-200.981"/>
<polygon fill="midnightblue" stroke="midnightblue" points="521.161,-204.359 529.99,-198.502 519.436,-197.575 521.161,-204.359"/>
</g>
<!-- Node9&#45;&gt;Node3 -->
<g id="edge12" class="edge"><title>Node9&#45;&gt;Node3</title>
<path fill="none" stroke="midnightblue" d="M564.341,-179.473C565.837,-155.555 573.619,-87.5225 613.985,-56 667.55,-14.1716 877.428,-10.4104 961.189,-10.6252"/>
<polygon fill="midnightblue" stroke="midnightblue" points="961.206,-14.1252 971.222,-10.6719 961.239,-7.1253 961.206,-14.1252"/>
</g>
<!-- Node9&#45;&gt;Node6 -->
<g id="edge11" class="edge"><title>Node9&#45;&gt;Node6</title>
<path fill="none" stroke="midnightblue" d="M600.105,-180.829C651.045,-170.716 743.65,-152.331 796.404,-141.858"/>
<polygon fill="midnightblue" stroke="midnightblue" points="797.272,-145.254 806.399,-139.874 795.909,-138.388 797.272,-145.254"/>
</g>
<!-- Node9&#45;&gt;Node10 -->
<g id="edge13" class="edge"><title>Node9&#45;&gt;Node10</title>
<path fill="none" stroke="midnightblue" d="M527.984,-181.647C475.829,-172.443 378.684,-155.3 316.248,-144.282"/>
<polygon fill="midnightblue" stroke="midnightblue" points="316.613,-140.792 306.157,-142.501 315.396,-147.685 316.613,-140.792"/>
</g>
<!-- Node10&#45;&gt;Node11 -->
<g id="edge14" class="edge"><title>Node10&#45;&gt;Node11</title>
<path fill="none" stroke="midnightblue" d="M257.985,-123.475C257.985,-116.471 257.985,-106.192 257.985,-96.6956"/>
<polygon fill="midnightblue" stroke="midnightblue" points="261.486,-96.5229 257.985,-86.523 254.486,-96.523 261.486,-96.5229"/>
</g>
<!-- Node11&#45;&gt;Node3 -->
<g id="edge15" class="edge"><title>Node11&#45;&gt;Node3</title>
<path fill="none" stroke="midnightblue" d="M310.168,-60.8591C321.3,-59.039 333.009,-57.3009 343.985,-56 578.841,-28.1645 863.485,-15.8248 961.149,-12.2003"/>
<polygon fill="midnightblue" stroke="midnightblue" points="961.466,-15.6912 971.332,-11.8291 961.211,-8.69584 961.466,-15.6912"/>
</g>
<!-- Node12&#45;&gt;Node3 -->
<g id="edge17" class="edge"><title>Node12&#45;&gt;Node3</title>
<path fill="none" stroke="midnightblue" d="M115.711,-61.9799C126.009,-59.6795 137.406,-57.433 147.985,-56 461.435,-13.5406 845.121,-10.6431 961.146,-10.8178"/>
<polygon fill="midnightblue" stroke="midnightblue" points="961.211,-14.3179 971.22,-10.8421 961.228,-7.31791 961.211,-14.3179"/>
</g>
<!-- Node13&#45;&gt;Node3 -->
<g id="edge19" class="edge"><title>Node13&#45;&gt;Node3</title>
<path fill="none" stroke="midnightblue" d="M351.38,-307.87C336.468,-299.476 316.102,-285.184 306.985,-266 290.389,-231.076 287.519,-212.409 306.985,-179 334.891,-131.106 471.12,-72.6642 523.985,-56 605.628,-30.265 866.158,-16.6437 961.017,-12.4393"/>
<polygon fill="midnightblue" stroke="midnightblue" points="961.388,-15.9266 971.226,-11.995 961.084,-8.93321 961.388,-15.9266"/>
</g>
<!-- Node13&#45;&gt;Node5 -->
<g id="edge20" class="edge"><title>Node13&#45;&gt;Node5</title>
<path fill="none" stroke="midnightblue" d="M366.153,-307.734C363.036,-298.085 357.936,-282.3 353.932,-269.906"/>
<polygon fill="midnightblue" stroke="midnightblue" points="357.178,-268.567 350.773,-260.127 350.517,-270.719 357.178,-268.567"/>
</g>
<!-- Node13&#45;&gt;Node9 -->
<g id="edge21" class="edge"><title>Node13&#45;&gt;Node9</title>
<path fill="none" stroke="midnightblue" d="M373.452,-307.769C382.358,-291.202 403.907,-255.073 431.985,-235 457.485,-216.771 490.951,-205.471 517.806,-198.754"/>
<polygon fill="midnightblue" stroke="midnightblue" points="518.82,-202.11 527.744,-196.398 517.206,-195.299 518.82,-202.11"/>
</g>
<!-- Node14 -->
<g id="node14" class="node"><title>Node14</title>
<g id="a_node14"><a xlink:href="radio__pin__mapping_8h.html" target="_top" xlink:title="settings/radio_pin\l_mapping.h">
<polygon fill="white" stroke="black" points="760.485,-235.5 760.485,-265.5 853.485,-265.5 853.485,-235.5 760.485,-235.5"/>
<text text-anchor="start" x="768.485" y="-253.5" font-family="Helvetica,sans-Serif" font-size="10.00">settings/radio_pin</text>
<text text-anchor="middle" x="806.985" y="-242.5" font-family="Helvetica,sans-Serif" font-size="10.00">_mapping.h</text>
</a>
</g>
</g>
<!-- Node13&#45;&gt;Node14 -->
<g id="edge22" class="edge"><title>Node13&#45;&gt;Node14</title>
<path fill="none" stroke="midnightblue" d="M408.628,-310.617C486.591,-299.047 660.098,-273.298 750.206,-259.926"/>
<polygon fill="midnightblue" stroke="midnightblue" points="750.864,-263.367 760.242,-258.437 749.837,-256.443 750.864,-263.367"/>
</g>
<!-- Node15&#45;&gt;Node3 -->
<g id="edge26" class="edge"><title>Node15&#45;&gt;Node3</title>
<path fill="none" stroke="midnightblue" d="M1059.38,-307.947C1055.7,-287.591 1046.99,-234.634 1046.99,-190 1046.99,-190 1046.99,-190 1046.99,-132 1046.99,-92.3053 1023.39,-50.63 1008.3,-28.0328"/>
<polygon fill="midnightblue" stroke="midnightblue" points="1011.01,-25.807 1002.44,-19.5777 1005.26,-29.7917 1011.01,-25.807"/>
</g>
<!-- Node15&#45;&gt;Node6 -->
<g id="edge25" class="edge"><title>Node15&#45;&gt;Node6</title>
<path fill="none" stroke="midnightblue" d="M1055.03,-307.998C1038.34,-284.659 988.69,-218.699 933.985,-179 914.801,-165.078 890.622,-153.92 871.081,-146.197"/>
<polygon fill="midnightblue" stroke="midnightblue" points="872.211,-142.882 861.621,-142.58 869.712,-149.42 872.211,-142.882"/>
</g>
<!-- Node15&#45;&gt;Node14 -->
<g id="edge27" class="edge"><title>Node15&#45;&gt;Node14</title>
<path fill="none" stroke="midnightblue" d="M1027.52,-307.936C985.842,-297.27 914.011,-278.889 863.684,-266.01"/>
<polygon fill="midnightblue" stroke="midnightblue" points="864.477,-262.6 853.921,-263.511 862.741,-269.381 864.477,-262.6"/>
</g>
<!-- Node16&#45;&gt;Node3 -->
<g id="edge30" class="edge"><title>Node16&#45;&gt;Node3</title>
<path fill="none" stroke="midnightblue" d="M660.494,-307.875C670.56,-287.789 693.985,-236.092 693.985,-190 693.985,-190 693.985,-190 693.985,-132 693.985,-74.9716 881.893,-32.6241 961.264,-17.2805"/>
<polygon fill="midnightblue" stroke="midnightblue" points="962.101,-20.6841 971.272,-15.3782 960.794,-13.8073 962.101,-20.6841"/>
</g>
<!-- Node16&#45;&gt;Node5 -->
<g id="edge31" class="edge"><title>Node16&#45;&gt;Node5</title>
<path fill="none" stroke="midnightblue" d="M623.5,-307.934C615.504,-305.909 606.951,-303.813 598.985,-302 525.748,-285.328 439.834,-268.663 389.888,-259.259"/>
<polygon fill="midnightblue" stroke="midnightblue" points="390.267,-255.769 379.793,-257.365 388.976,-262.649 390.267,-255.769"/>
</g>
<!-- Node16&#45;&gt;Node6 -->
<g id="edge29" class="edge"><title>Node16&#45;&gt;Node6</title>
<path fill="none" stroke="midnightblue" d="M665.272,-307.643C675.739,-297.624 693.219,-280.777 707.985,-266 749.138,-224.817 796.621,-175.316 820.528,-150.252"/>
<polygon fill="midnightblue" stroke="midnightblue" points="823.324,-152.391 827.688,-142.736 818.256,-147.562 823.324,-152.391"/>
</g>
<!-- Node16&#45;&gt;Node9 -->
<g id="edge33" class="edge"><title>Node16&#45;&gt;Node9</title>
<path fill="none" stroke="midnightblue" d="M649.662,-307.805C634.562,-287.043 596.185,-234.274 576.32,-206.96"/>
<polygon fill="midnightblue" stroke="midnightblue" points="579.066,-204.784 570.353,-198.756 573.404,-208.902 579.066,-204.784"/>
</g>
<!-- Node16&#45;&gt;Node14 -->
<g id="edge32" class="edge"><title>Node16&#45;&gt;Node14</title>
<path fill="none" stroke="midnightblue" d="M676.037,-307.869C698.597,-298.157 735.878,-282.109 764.903,-269.615"/>
<polygon fill="midnightblue" stroke="midnightblue" points="766.596,-272.697 774.397,-265.528 763.828,-266.267 766.596,-272.697"/>
</g>
<!-- Node17&#45;&gt;Node3 -->
<g id="edge35" class="edge"><title>Node17&#45;&gt;Node3</title>
<path fill="none" stroke="midnightblue" d="M816.423,-374.913C828.134,-365.64 846.237,-349.909 857.985,-333 930.407,-228.765 976.459,-80.4938 991.008,-29.2489"/>
<polygon fill="midnightblue" stroke="midnightblue" points="994.386,-30.164 993.7,-19.5914 987.643,-28.2845 994.386,-30.164"/>
</g>
<!-- Node17&#45;&gt;Node9 -->
<g id="edge41" class="edge"><title>Node17&#45;&gt;Node9</title>
<path fill="none" stroke="midnightblue" d="M773.289,-383.311C701.44,-382.142 529.651,-374.924 493.985,-333 459.787,-292.801 515.543,-233.017 546.093,-205.225"/>
<polygon fill="midnightblue" stroke="midnightblue" points="548.432,-207.829 553.596,-198.578 543.79,-202.589 548.432,-207.829"/>
</g>
<!-- Node17&#45;&gt;Node14 -->
<g id="edge40" class="edge"><title>Node17&#45;&gt;Node14</title>
<path fill="none" stroke="midnightblue" d="M790.604,-374.978C777.5,-366.292 759.008,-351.486 750.985,-333 745.501,-320.361 745.386,-314.589 750.985,-302 756.223,-290.225 765.712,-280.039 775.409,-271.961"/>
<polygon fill="midnightblue" stroke="midnightblue" points="777.753,-274.573 783.515,-265.682 773.466,-269.039 777.753,-274.573"/>
</g>
<!-- Node18 -->
<g id="node18" class="node"><title>Node18</title>
<g id="a_node18"><a xlink:href="pca9534_8h.html" target="_top" xlink:title="driver/pca9534.h">
<polygon fill="white" stroke="black" points="503.485,-308 503.485,-327 590.485,-327 590.485,-308 503.485,-308"/>
<text text-anchor="middle" x="546.985" y="-315" font-family="Helvetica,sans-Serif" font-size="10.00">driver/pca9534.h</text>
</a>
</g>
</g>
<!-- Node17&#45;&gt;Node18 -->
<g id="edge36" class="edge"><title>Node17&#45;&gt;Node18</title>
<path fill="none" stroke="midnightblue" d="M773.146,-376.024C732.603,-366.428 660.432,-349.094 598.985,-333 594.957,-331.945 590.76,-330.819 586.574,-329.679"/>
<polygon fill="midnightblue" stroke="midnightblue" points="587.484,-326.299 576.914,-327.019 585.626,-333.048 587.484,-326.299"/>
</g>
<!-- Node19 -->
<g id="node19" class="node"><title>Node19</title>
<g id="a_node19"><a xlink:href="lcd__commands_8h.html" target="_top" xlink:title="driver/include/lcd\l_commands.h">
<polygon fill="white" stroke="black" points="760.485,-302.5 760.485,-332.5 849.485,-332.5 849.485,-302.5 760.485,-302.5"/>
<text text-anchor="start" x="768.485" y="-320.5" font-family="Helvetica,sans-Serif" font-size="10.00">driver/include/lcd</text>
<text text-anchor="middle" x="804.985" y="-309.5" font-family="Helvetica,sans-Serif" font-size="10.00">_commands.h</text>
</a>
</g>
</g>
<!-- Node17&#45;&gt;Node19 -->
<g id="edge39" class="edge"><title>Node17&#45;&gt;Node19</title>
<path fill="none" stroke="midnightblue" d="M804.985,-374.734C804.985,-366.541 804.985,-353.923 804.985,-342.714"/>
<polygon fill="midnightblue" stroke="midnightblue" points="808.486,-342.589 804.985,-332.589 801.486,-342.589 808.486,-342.589"/>
</g>
<!-- Node18&#45;&gt;Node3 -->
<g id="edge37" class="edge"><title>Node18&#45;&gt;Node3</title>
<path fill="none" stroke="midnightblue" d="M551.853,-307.919C575.533,-266.493 679.747,-87.8711 733.985,-56 771.976,-33.676 899.064,-19.6182 961.194,-13.9156"/>
<polygon fill="midnightblue" stroke="midnightblue" points="961.648,-17.3891 971.295,-13.0098 961.023,-10.417 961.648,-17.3891"/>
</g>
<!-- Node18&#45;&gt;Node5 -->
<g id="edge38" class="edge"><title>Node18&#45;&gt;Node5</title>
<path fill="none" stroke="midnightblue" d="M520.56,-307.869C485.449,-296.4 423.282,-276.094 383.929,-263.24"/>
<polygon fill="midnightblue" stroke="midnightblue" points="384.796,-259.842 374.203,-260.064 382.623,-266.496 384.796,-259.842"/>
</g>
<!-- Node20&#45;&gt;Node3 -->
<g id="edge43" class="edge"><title>Node20&#45;&gt;Node3</title>
<path fill="none" stroke="midnightblue" d="M1105.97,-436.042C1114.4,-421.265 1132.48,-391.207 1151.99,-369 1167.99,-350.779 1177.28,-351.474 1192.99,-333 1220.67,-300.448 1243.99,-294.23 1243.99,-251.5 1243.99,-251.5 1243.99,-251.5 1243.99,-132 1243.99,-38.3233 1099.3,-17.1569 1030.95,-12.3842"/>
<polygon fill="midnightblue" stroke="midnightblue" points="1030.87,-8.87249 1020.67,-11.7503 1030.44,-15.8592 1030.87,-8.87249"/>
</g>
<!-- Node20&#45;&gt;Node6 -->
<g id="edge46" class="edge"><title>Node20&#45;&gt;Node6</title>
<path fill="none" stroke="midnightblue" d="M1074.88,-436.365C1055.39,-428.971 1028.98,-416.837 1009.99,-400 924.944,-324.6 864.116,-198.352 843.584,-151.876"/>
<polygon fill="midnightblue" stroke="midnightblue" points="846.719,-150.309 839.527,-142.529 840.298,-153.096 846.719,-150.309"/>
</g>
<!-- Node20&#45;&gt;Node21 -->
<g id="edge44" class="edge"><title>Node20&#45;&gt;Node21</title>
<path fill="none" stroke="midnightblue" d="M1113.16,-436.475C1126.8,-426.931 1149.12,-411.307 1165.46,-399.868"/>
<polygon fill="midnightblue" stroke="midnightblue" points="1167.64,-402.611 1173.83,-394.009 1163.63,-396.876 1167.64,-402.611"/>
</g>
<!-- Node21&#45;&gt;Node3 -->
<g id="edge45" class="edge"><title>Node21&#45;&gt;Node3</title>
<path fill="none" stroke="midnightblue" d="M1204.64,-374.934C1221,-366.494 1244.27,-352.099 1257.99,-333 1280.01,-302.329 1281.99,-289.26 1281.99,-251.5 1281.99,-251.5 1281.99,-251.5 1281.99,-132 1281.99,-96.578 1284.67,-79.2902 1257.99,-56 1224.62,-26.8838 1094.06,-16.1331 1030.76,-12.5747"/>
<polygon fill="midnightblue" stroke="midnightblue" points="1030.66,-9.06423 1020.49,-12.0272 1030.29,-16.0543 1030.66,-9.06423"/>
</g>
<!-- Node22&#45;&gt;Node3 -->
<g id="edge49" class="edge"><title>Node22&#45;&gt;Node3</title>
<path fill="none" stroke="midnightblue" d="M1091.25,-374.871C1113.72,-367.004 1144.32,-353.455 1164.99,-333 1193.8,-304.476 1205.99,-292.047 1205.99,-251.5 1205.99,-251.5 1205.99,-251.5 1205.99,-132 1205.99,-52.0165 1090.2,-24.0999 1030.58,-15.0267"/>
<polygon fill="midnightblue" stroke="midnightblue" points="1030.88,-11.534 1020.49,-13.589 1029.89,-18.4641 1030.88,-11.534"/>
</g>
<!-- Node22&#45;&gt;Node6 -->
<g id="edge50" class="edge"><title>Node22&#45;&gt;Node6</title>
<path fill="none" stroke="midnightblue" d="M1091.11,-374.91C1111,-367.355 1135.86,-354.187 1147.99,-333 1154.83,-321.043 1154.54,-314.119 1147.99,-302 1092.2,-198.844 946.5,-156.162 875.721,-141.091"/>
<polygon fill="midnightblue" stroke="midnightblue" points="876.341,-137.645 865.841,-139.063 874.933,-144.502 876.341,-137.645"/>
</g>
<!-- Node22&#45;&gt;Node14 -->
<g id="edge51" class="edge"><title>Node22&#45;&gt;Node14</title>
<path fill="none" stroke="midnightblue" d="M1045.25,-374.839C1004.51,-353.748 899.385,-299.33 843.375,-270.337"/>
<polygon fill="midnightblue" stroke="midnightblue" points="844.659,-267.06 834.169,-265.572 841.441,-273.277 844.659,-267.06"/>
</g>
<!-- Node22&#45;&gt;Node15 -->
<g id="edge52" class="edge"><title>Node22&#45;&gt;Node15</title>
<path fill="none" stroke="midnightblue" d="M1061.85,-374.734C1061.7,-365.183 1061.46,-349.618 1061.27,-337.283"/>
<polygon fill="midnightblue" stroke="midnightblue" points="1064.77,-337.072 1061.12,-327.127 1057.77,-337.18 1064.77,-337.072"/>
</g>
<!-- Node24&#45;&gt;Node2 -->
<g id="edge57" class="edge"><title>Node24&#45;&gt;Node2</title>
<path fill="none" stroke="midnightblue" d="M1205.47,-455.516C1174.22,-464.782 1121.04,-479.633 1082.71,-489.829"/>
<polygon fill="midnightblue" stroke="midnightblue" points="1081.59,-486.505 1072.81,-492.444 1083.38,-493.272 1081.59,-486.505"/>
</g>
<!-- Node24&#45;&gt;Node3 -->
<g id="edge55" class="edge"><title>Node24&#45;&gt;Node3</title>
<path fill="none" stroke="midnightblue" d="M1233.37,-436.308C1237.47,-421.914 1246.54,-392.395 1257.99,-369 1283.93,-315.959 1319.99,-310.546 1319.99,-251.5 1319.99,-251.5 1319.99,-251.5 1319.99,-132 1319.99,-94.432 1313.19,-78.3338 1282.99,-56 1243.53,-26.828 1098.23,-16.0042 1030.8,-12.4901"/>
<polygon fill="midnightblue" stroke="midnightblue" points="1030.83,-8.98757 1020.67,-11.9871 1030.48,-15.979 1030.83,-8.98757"/>
</g>
<!-- Node24&#45;&gt;Node17 -->
<g id="edge56" class="edge"><title>Node24&#45;&gt;Node17</title>
<path fill="none" stroke="midnightblue" d="M1192.81,-439.667C1113.1,-428.534 929.541,-402.897 846.789,-391.339"/>
<polygon fill="midnightblue" stroke="midnightblue" points="847.128,-387.852 836.74,-389.935 846.16,-394.785 847.128,-387.852"/>
</g>
<!-- Node24&#45;&gt;Node21 -->
<g id="edge62" class="edge"><title>Node24&#45;&gt;Node21</title>
<path fill="none" stroke="midnightblue" d="M1224.54,-436.475C1217.79,-427.55 1207.02,-413.307 1198.57,-402.143"/>
<polygon fill="midnightblue" stroke="midnightblue" points="1201.24,-399.874 1192.42,-394.009 1195.66,-404.096 1201.24,-399.874"/>
</g>
<!-- Node24&#45;&gt;Node22 -->
<g id="edge58" class="edge"><title>Node24&#45;&gt;Node22</title>
<path fill="none" stroke="midnightblue" d="M1206.77,-436.475C1177.66,-426.225 1128.62,-408.959 1095.78,-397.399"/>
<polygon fill="midnightblue" stroke="midnightblue" points="1096.75,-394.029 1086.15,-394.009 1094.42,-400.631 1096.75,-394.029"/>
</g>
<!-- Node24&#45;&gt;Node23 -->
<g id="edge59" class="edge"><title>Node24&#45;&gt;Node23</title>
<path fill="none" stroke="midnightblue" d="M1261.93,-436.475C1299.87,-426.026 1364.26,-408.287 1406.21,-396.733"/>
<polygon fill="midnightblue" stroke="midnightblue" points="1407.38,-400.039 1416.1,-394.009 1405.52,-393.291 1407.38,-400.039"/>
</g>
<!-- Node25 -->
<g id="node25" class="node"><title>Node25</title>
<g id="a_node25"><a xlink:href="menu__struct_8h.html" target="_top" xlink:title="menu/menu_struct.h">
<polygon fill="white" stroke="black" points="1266.99,-375 1266.99,-394 1372.99,-394 1372.99,-375 1266.99,-375"/>
<text text-anchor="middle" x="1319.99" y="-382" font-family="Helvetica,sans-Serif" font-size="10.00">menu/menu_struct.h</text>
</a>
</g>
</g>
<!-- Node24&#45;&gt;Node25 -->
<g id="edge60" class="edge"><title>Node24&#45;&gt;Node25</title>
<path fill="none" stroke="midnightblue" d="M1238.84,-436.475C1251.26,-426.755 1274.93,-410.727 1293.64,-399.237"/>
<polygon fill="midnightblue" stroke="midnightblue" points="1295.59,-402.155 1302.36,-394.009 1291.98,-396.152 1295.59,-402.155"/>
</g>
<!-- Node25&#45;&gt;Node24 -->
<g id="edge61" class="edge"><title>Node25&#45;&gt;Node24</title>
<path fill="none" stroke="midnightblue" d="M1312.15,-394.009C1299.75,-403.723 1276.07,-419.75 1257.36,-431.244"/>
<polygon fill="midnightblue" stroke="midnightblue" points="1255.41,-428.329 1248.64,-436.475 1259.01,-434.332 1255.41,-428.329"/>
</g>
<!-- Node26&#45;&gt;Node3 -->
<g id="edge65" class="edge"><title>Node26&#45;&gt;Node3</title>
<path fill="none" stroke="midnightblue" d="M1484.31,-436.241C1492.79,-427.763 1505,-414.148 1511.99,-400 1528.45,-366.649 1530.99,-355.694 1530.99,-318.5 1530.99,-318.5 1530.99,-318.5 1530.99,-132 1530.99,-29.0472 1149.32,-13.6871 1030.72,-11.3993"/>
<polygon fill="midnightblue" stroke="midnightblue" points="1030.78,-7.89988 1020.72,-11.2259 1030.65,-14.8988 1030.78,-7.89988"/>
</g>
<!-- Node27 -->
<g id="node27" class="node"><title>Node27</title>
<g id="a_node27"><a xlink:href="station__list__struct_8h.html" target="_top" xlink:title="system/station_list\l_struct.h">
<polygon fill="white" stroke="black" points="1559.49,-369.5 1559.49,-399.5 1658.49,-399.5 1658.49,-369.5 1559.49,-369.5"/>
<text text-anchor="start" x="1567.49" y="-387.5" font-family="Helvetica,sans-Serif" font-size="10.00">system/station_list</text>
<text text-anchor="middle" x="1608.99" y="-376.5" font-family="Helvetica,sans-Serif" font-size="10.00">_struct.h</text>
</a>
</g>
</g>
<!-- Node26&#45;&gt;Node27 -->
<g id="edge66" class="edge"><title>Node26&#45;&gt;Node27</title>
<path fill="none" stroke="midnightblue" d="M1494.18,-436.475C1513.35,-427.965 1543.41,-414.619 1567.96,-403.718"/>
<polygon fill="midnightblue" stroke="midnightblue" points="1569.69,-406.78 1577.4,-399.523 1566.84,-400.382 1569.69,-406.78"/>
</g>
<!-- Node27&#45;&gt;Node2 -->
<g id="edge68" class="edge"><title>Node27&#45;&gt;Node2</title>
<path fill="none" stroke="midnightblue" d="M1599.43,-399.51C1587.15,-416.221 1564.15,-443.466 1536.99,-456 1458.12,-492.392 1198.96,-499.394 1088.06,-500.711"/>
<polygon fill="midnightblue" stroke="midnightblue" points="1087.77,-497.214 1077.81,-500.821 1087.84,-504.213 1087.77,-497.214"/>
</g>
<!-- Node27&#45;&gt;Node3 -->
<g id="edge67" class="edge"><title>Node27&#45;&gt;Node3</title>
<path fill="none" stroke="midnightblue" d="M1605.41,-369.347C1599.66,-345.298 1588.99,-294.843 1588.99,-251.5 1588.99,-251.5 1588.99,-251.5 1588.99,-132 1588.99,-92.9698 1577.97,-76.8609 1544.99,-56 1501.63,-28.5804 1145.24,-15.511 1031.05,-11.9995"/>
<polygon fill="midnightblue" stroke="midnightblue" points="1030.87,-8.49276 1020.77,-11.6894 1030.66,-15.4896 1030.87,-8.49276"/>
</g>
<!-- Node28&#45;&gt;Node2 -->
<g id="edge71" class="edge"><title>Node28&#45;&gt;Node2</title>
<path fill="none" stroke="midnightblue" d="M1585.38,-455.428C1583.57,-455.624 1581.76,-455.816 1579.99,-456 1399.4,-474.734 1183.84,-491.054 1087.57,-497.756"/>
<polygon fill="midnightblue" stroke="midnightblue" points="1087.27,-494.268 1077.53,-498.45 1087.75,-501.252 1087.27,-494.268"/>
</g>
<!-- Node28&#45;&gt;Node3 -->
<g id="edge70" class="edge"><title>Node28&#45;&gt;Node3</title>
<path fill="none" stroke="midnightblue" d="M1649.09,-436.448C1660.48,-416.517 1686.99,-365.124 1686.99,-318.5 1686.99,-318.5 1686.99,-318.5 1686.99,-132 1686.99,-72.2111 1632.37,-75.8769 1575.99,-56 1474.47,-20.2153 1139.91,-12.8242 1030.76,-11.3525"/>
<polygon fill="midnightblue" stroke="midnightblue" points="1030.67,-7.85112 1020.62,-11.2243 1030.58,-14.8506 1030.67,-7.85112"/>
</g>
<!-- Node29&#45;&gt;Node3 -->
<g id="edge74" class="edge"><title>Node29&#45;&gt;Node3</title>
<path fill="none" stroke="midnightblue" d="M1755.7,-240.714C1757.7,-209.555 1759.78,-103.66 1700.99,-56 1648.58,-13.5143 1165.41,-10.8185 1030.71,-10.8994"/>
<polygon fill="midnightblue" stroke="midnightblue" points="1030.54,-7.39949 1020.54,-10.9113 1030.55,-14.3995 1030.54,-7.39949"/>
</g>
</g>
</svg>
        <g id="navigator" transform="translate(0 0)" fill="#404254">
                <rect fill="#f2f5e9" fill-opacity="0.5" stroke="#606060" stroke-width=".5" x="0" y="0" width="60" height="60"/>
                <use id="zoomplus" xlink:href="#zoomPlus" x="17" y="9" onmousedown="handleZoom(evt,'in')"/>
                <use id="zoomminus" xlink:href="#zoomMin" x="42" y="9" onmousedown="handleZoom(evt,'out')"/>
                <use id="reset" xlink:href="#resetDef" x="30" y="36" onmousedown="handleReset()"/>
                <g id="arrowUp" xlink:href="#dirArrow" transform="translate(30 24)" onmousedown="handlePan(0,-1)">
                  <use xlink:href="#rim" fill="#404040">
                        <set attributeName="fill" to="#808080" begin="arrowUp.mouseover" end="arrowUp.mouseout"/>
                  </use>
                  <path fill="none" stroke="white" stroke-width="1.5" d="M0,-3.0v7 M-2.5,-0.5L0,-3.0L2.5,-0.5"/>
                </g>
                <g id="arrowRight" xlink:href="#dirArrow" transform="rotate(90) translate(36 -43)" onmousedown="handlePan(1,0)">
                  <use xlink:href="#rim" fill="#404040">
                        <set attributeName="fill" to="#808080" begin="arrowRight.mouseover" end="arrowRight.mouseout"/>
                  </use>
                  <path fill="none" stroke="white" stroke-width="1.5" d="M0,-3.0v7 M-2.5,-0.5L0,-3.0L2.5,-0.5"/>
                </g>
                <g id="arrowDown" xlink:href="#dirArrow" transform="rotate(180) translate(-30 -48)" onmousedown="handlePan(0,1)">
                  <use xlink:href="#rim" fill="#404040">
                        <set attributeName="fill" to="#808080" begin="arrowDown.mouseover" end="arrowDown.mouseout"/>
                  </use>
                  <path fill="none" stroke="white" stroke-width="1.5" d="M0,-3.0v7 M-2.5,-0.5L0,-3.0L2.5,-0.5"/>
                </g>
                <g id="arrowLeft" xlink:href="#dirArrow" transform="rotate(270) translate(-36 17)" onmousedown="handlePan(-1,0)">
                  <use xlink:href="#rim" fill="#404040">
                        <set attributeName="fill" to="#808080" begin="arrowLeft.mouseover" end="arrowLeft.mouseout"/>
                  </use>
                  <path fill="none" stroke="white" stroke-width="1.5" d="M0,-3.0v7 M-2.5,-0.5L0,-3.0L2.5,-0.5"/>
                </g>
        </g>
        <svg viewBox="0 0 15 15" width="100%" height="30px" preserveAspectRatio="xMaxYMin meet">
         <g id="arrow_out" transform="scale(0.3 0.3)">
          <a xlink:href="radio_8c__incl_org.svg" target="_base">
           <rect id="button" ry="5" rx="5" y="6" x="6" height="38" width="38"
                fill="#f2f5e9" fill-opacity="0.5" stroke="#606060" stroke-width="1.0"/>
           <path id="arrow"
             d="M 11.500037,31.436501 C 11.940474,20.09759 22.043105,11.32322 32.158766,21.979434 L 37.068811,17.246167 C 37.068811,17.246167 37.088388,32 37.088388,32 L 22.160133,31.978069 C 22.160133,31.978069 26.997745,27.140456 26.997745,27.140456 C 18.528582,18.264221 13.291696,25.230495 11.500037,31.436501 z"
             style="fill:#404040;"/>
          </a>
         </g>
        </svg>
</svg>
