<?xml version="1.0" encoding="UTF-8" standalone="no"?>
<!DOCTYPE svg PUBLIC "-//W3C//DTD SVG 1.1//EN"
 "http://www.w3.org/Graphics/SVG/1.1/DTD/svg11.dtd">
<!-- Generated by graphviz version 2.38.0 (20140413.2041)
 -->
<!-- Title: settings/radio_configuration.h Pages: 1 -->
<!--zoomable 420 -->
<svg id="main" version="1.1" xmlns="http://www.w3.org/2000/svg" xmlns:xlink="http://www.w3.org/1999/xlink" xml:space="preserve" onload="init(evt)">
<style type="text/css"><![CDATA[
.edge:hover path { stroke: red; }
.edge:hover polygon { stroke: red; fill: red; }
]]></style>
<script type="text/javascript"><![CDATA[
var edges = document.getElementsByTagName('g');
if (edges && edges.length) {
  for (var i=0;i<edges.length;i++) {
    if (edges[i].id.substr(0,4)=='edge') {
      edges[i].setAttribute('class','edge');
    }
  }
}
]]></script>
        <defs>
                <circle id="rim" cx="0" cy="0" r="7"/>
                <circle id="rim2" cx="0" cy="0" r="3.5"/>
                <g id="zoomPlus">
                        <use xlink:href="#rim" fill="#404040">
                                <set attributeName="fill" to="#808080" begin="zoomplus.mouseover" end="zoomplus.mouseout"/>
                        </use>
                        <path d="M-4,0h8M0,-4v8" fill="none" stroke="white" stroke-width="1.5" pointer-events="none"/>
                </g>
                <g id="zoomMin">
                        <use xlink:href="#rim" fill="#404040">
                                <set attributeName="fill" to="#808080" begin="zoomminus.mouseover" end="zoomminus.mouseout"/>
                        </use>
                        <path d="M-4,0h8" fill="none" stroke="white" stroke-width="1.5" pointer-events="none"/>
                </g>
                <g id="dirArrow">
                        <path fill="none" stroke="white" stroke-width="1.5" d="M0,-3.0v7 M-2.5,-0.5L0,-3.0L2.5,-0.5"/>
                </g>
               <g id="resetDef">
                       <use xlink:href="#rim2" fill="#404040">
                               <set attributeName="fill" to="#808080" begin="reset.mouseover" end="reset.mouseout"/>
                       </use>
               </g>
        </defs>

<script type="text/javascript">
var viewWidth = 1065;
var viewHeight = 420;
var sectionId = 'dynsection-1';
</script>
<script xlink:href="svgpan.js"/>
<svg id="graph" class="graph">
<g id="viewport">
<title>settings/radio_configuration.h</title>
<polygon fill="white" stroke="none" points="-4,4 -4,-416 1061.5,-416 1061.5,4 -4,4"/>
<!-- Node1 -->
<g id="node1" class="node"><title>Node1</title>
<polygon fill="#bfbfbf" stroke="black" points="909.5,-392.5 909.5,-411.5 1052.5,-411.5 1052.5,-392.5 909.5,-392.5"/>
<text text-anchor="middle" x="981" y="-399.5" font-family="Helvetica,sans-Serif" font-size="10.00">settings/radio_configuration.h</text>
</g>
<!-- Node2 -->
<g id="node2" class="node"><title>Node2</title>
<g id="a_node2"><a xlink:href="timer_8h.html" target="_top" xlink:title="driver/timer.h">
<polygon fill="white" stroke="black" points="481,-336.5 481,-355.5 553,-355.5 553,-336.5 481,-336.5"/>
<text text-anchor="middle" x="517" y="-343.5" font-family="Helvetica,sans-Serif" font-size="10.00">driver/timer.h</text>
</a>
</g>
</g>
<!-- Node1&#45;&gt;Node2 -->
<g id="edge1" class="edge"><title>Node1&#45;&gt;Node2</title>
<path fill="none" stroke="midnightblue" d="M899.298,-391.492C797.21,-379.611 626.956,-359.797 553.058,-351.196"/>
<polygon fill="midnightblue" stroke="midnightblue" points="898.926,-394.972 909.263,-392.651 899.735,-388.019 898.926,-394.972"/>
</g>
<!-- Node12 -->
<g id="node12" class="node"><title>Node12</title>
<g id="a_node12"><a xlink:href="radio_8h.html" target="_top" xlink:title="system/radio.h">
<polygon fill="white" stroke="black" points="857.5,-112.5 857.5,-131.5 938.5,-131.5 938.5,-112.5 857.5,-112.5"/>
<text text-anchor="middle" x="898" y="-119.5" font-family="Helvetica,sans-Serif" font-size="10.00">system/radio.h</text>
</a>
</g>
</g>
<!-- Node1&#45;&gt;Node12 -->
<g id="edge43" class="edge"><title>Node1&#45;&gt;Node12</title>
<path fill="none" stroke="midnightblue" d="M1000.52,-385.846C1023.04,-366.496 1057,-330.724 1057,-291 1057,-291 1057,-291 1057,-233 1057,-202.902 1059,-189.564 1038,-168 1011.91,-141.203 969.83,-130.339 938.608,-125.948"/>
<polygon fill="midnightblue" stroke="midnightblue" points="998.024,-383.366 992.543,-392.433 1002.48,-388.764 998.024,-383.366"/>
</g>
<!-- Node18 -->
<g id="node18" class="node"><title>Node18</title>
<g id="a_node18"><a xlink:href="si4735_8c.html" target="_top" xlink:title="driver/src/si4735.c">
<polygon fill="white" stroke="black" points="933.5,-168.5 933.5,-187.5 1028.5,-187.5 1028.5,-168.5 933.5,-168.5"/>
<text text-anchor="middle" x="981" y="-175.5" font-family="Helvetica,sans-Serif" font-size="10.00">driver/src/si4735.c</text>
</a>
</g>
</g>
<!-- Node1&#45;&gt;Node18 -->
<g id="edge42" class="edge"><title>Node1&#45;&gt;Node18</title>
<path fill="none" stroke="midnightblue" d="M981,-382.295C981,-336.644 981,-220.854 981,-187.884"/>
<polygon fill="midnightblue" stroke="midnightblue" points="977.5,-382.297 981,-392.297 984.5,-382.297 977.5,-382.297"/>
</g>
<!-- Node3 -->
<g id="node3" class="node"><title>Node3</title>
<g id="a_node3"><a xlink:href="i2c_8h.html" target="_top" xlink:title="I2C implemtation for MSP430G2553, interrupt based. &#160;&#160;This implemtation based on examples from Texas I...">
<polygon fill="white" stroke="black" points="537.5,-280.5 537.5,-299.5 600.5,-299.5 600.5,-280.5 537.5,-280.5"/>
<text text-anchor="middle" x="569" y="-287.5" font-family="Helvetica,sans-Serif" font-size="10.00">driver/i2c.h</text>
</a>
</g>
</g>
<!-- Node2&#45;&gt;Node3 -->
<g id="edge2" class="edge"><title>Node2&#45;&gt;Node3</title>
<path fill="none" stroke="midnightblue" d="M532.679,-328.718C541.845,-319.2 553.053,-307.561 560.573,-299.751"/>
<polygon fill="midnightblue" stroke="midnightblue" points="530.002,-326.452 525.587,-336.083 535.044,-331.308 530.002,-326.452"/>
</g>
<!-- Node5 -->
<g id="node5" class="node"><title>Node5</title>
<g id="a_node5"><a xlink:href="lcd_8h.html" target="_top" xlink:title="driver/lcd.h">
<polygon fill="white" stroke="black" points="417.5,-168.5 417.5,-187.5 480.5,-187.5 480.5,-168.5 417.5,-168.5"/>
<text text-anchor="middle" x="449" y="-175.5" font-family="Helvetica,sans-Serif" font-size="10.00">driver/lcd.h</text>
</a>
</g>
</g>
<!-- Node2&#45;&gt;Node5 -->
<g id="edge33" class="edge"><title>Node2&#45;&gt;Node5</title>
<path fill="none" stroke="midnightblue" d="M505.546,-327.831C493.04,-308.318 473.294,-275.13 462,-244 454.935,-224.527 451.378,-200.303 449.889,-187.636"/>
<polygon fill="midnightblue" stroke="midnightblue" points="502.638,-329.78 511.034,-336.242 508.501,-325.954 502.638,-329.78"/>
</g>
<!-- Node7 -->
<g id="node7" class="node"><title>Node7</title>
<g id="a_node7"><a xlink:href="main_8c.html" target="_top" xlink:title="main.c">
<polygon fill="white" stroke="black" points="432,-56.5 432,-75.5 478,-75.5 478,-56.5 432,-56.5"/>
<text text-anchor="middle" x="455" y="-63.5" font-family="Helvetica,sans-Serif" font-size="10.00">main.c</text>
</a>
</g>
</g>
<!-- Node2&#45;&gt;Node7 -->
<g id="edge37" class="edge"><title>Node2&#45;&gt;Node7</title>
<path fill="none" stroke="midnightblue" d="M470.521,-343.992C386.895,-341.382 215.192,-332.155 166,-300 137.8,-281.567 127,-268.69 127,-235 127,-235 127,-235 127,-177 127,-112.584 357.276,-78.8885 431.936,-69.6565"/>
<polygon fill="midnightblue" stroke="midnightblue" points="470.653,-347.497 480.751,-344.291 470.858,-340.5 470.653,-347.497"/>
</g>
<!-- Node2&#45;&gt;Node12 -->
<g id="edge38" class="edge"><title>Node2&#45;&gt;Node12</title>
<path fill="none" stroke="midnightblue" d="M563.274,-344.337C621.039,-342.033 721.873,-333.09 801,-300 839.709,-283.813 854.934,-279.686 877,-244 899.763,-207.188 899.63,-152.673 898.599,-131.678"/>
<polygon fill="midnightblue" stroke="midnightblue" points="562.876,-340.848 553.003,-344.694 563.119,-347.844 562.876,-340.848"/>
</g>
<!-- Node17 -->
<g id="node17" class="node"><title>Node17</title>
<g id="a_node17"><a xlink:href="si4735_8h.html" target="_top" xlink:title="driver/si4735.h">
<polygon fill="white" stroke="black" points="789.5,-224.5 789.5,-243.5 868.5,-243.5 868.5,-224.5 789.5,-224.5"/>
<text text-anchor="middle" x="829" y="-231.5" font-family="Helvetica,sans-Serif" font-size="10.00">driver/si4735.h</text>
</a>
</g>
</g>
<!-- Node2&#45;&gt;Node17 -->
<g id="edge34" class="edge"><title>Node2&#45;&gt;Node17</title>
<path fill="none" stroke="midnightblue" d="M563.39,-340.776C627.639,-334.278 739.783,-320.405 775,-300 798.611,-286.32 816.419,-258.206 824.392,-243.854"/>
<polygon fill="midnightblue" stroke="midnightblue" points="562.733,-337.324 553.127,-341.793 563.423,-344.29 562.733,-337.324"/>
</g>
<!-- Node19 -->
<g id="node19" class="node"><title>Node19</title>
<g id="a_node19"><a xlink:href="rds_8h.html" target="_top" xlink:title="system/rds.h">
<polygon fill="white" stroke="black" points="727,-168.5 727,-187.5 801,-187.5 801,-168.5 727,-168.5"/>
<text text-anchor="middle" x="764" y="-175.5" font-family="Helvetica,sans-Serif" font-size="10.00">system/rds.h</text>
</a>
</g>
</g>
<!-- Node2&#45;&gt;Node19 -->
<g id="edge41" class="edge"><title>Node2&#45;&gt;Node19</title>
<path fill="none" stroke="midnightblue" d="M550.751,-332.806C591.874,-316.823 662.038,-285.829 712,-244 732.167,-227.116 749.942,-201.386 758.532,-187.921"/>
<polygon fill="midnightblue" stroke="midnightblue" points="549.293,-329.616 541.198,-336.451 551.789,-336.156 549.293,-329.616"/>
</g>
<!-- Node22 -->
<g id="node22" class="node"><title>Node22</title>
<g id="a_node22"><a xlink:href="tpa2016d2_8h.html" target="_top" xlink:title="driver/tpa2016d2.h">
<polygon fill="white" stroke="black" points="281.5,-224.5 281.5,-243.5 376.5,-243.5 376.5,-224.5 281.5,-224.5"/>
<text text-anchor="middle" x="329" y="-231.5" font-family="Helvetica,sans-Serif" font-size="10.00">driver/tpa2016d2.h</text>
</a>
</g>
</g>
<!-- Node2&#45;&gt;Node22 -->
<g id="edge36" class="edge"><title>Node2&#45;&gt;Node22</title>
<path fill="none" stroke="midnightblue" d="M470.721,-339.404C423.423,-332.684 354.495,-319.782 337,-300 323.14,-284.329 325.071,-257.606 327.254,-243.814"/>
<polygon fill="midnightblue" stroke="midnightblue" points="470.37,-342.889 480.754,-340.784 471.324,-335.954 470.37,-342.889"/>
</g>
<!-- Node24 -->
<g id="node24" class="node"><title>Node24</title>
<g id="a_node24"><a xlink:href="timer_8c.html" target="_top" xlink:title="driver/src/timer.c">
<polygon fill="white" stroke="black" points="346.5,-280.5 346.5,-299.5 435.5,-299.5 435.5,-280.5 346.5,-280.5"/>
<text text-anchor="middle" x="391" y="-287.5" font-family="Helvetica,sans-Serif" font-size="10.00">driver/src/timer.c</text>
</a>
</g>
</g>
<!-- Node2&#45;&gt;Node24 -->
<g id="edge35" class="edge"><title>Node2&#45;&gt;Node24</title>
<path fill="none" stroke="midnightblue" d="M487.84,-332.503C464.219,-322.38 431.572,-308.388 410.872,-299.516"/>
<polygon fill="midnightblue" stroke="midnightblue" points="486.465,-335.721 497.035,-336.444 489.222,-329.287 486.465,-335.721"/>
</g>
<!-- Node25 -->
<g id="node25" class="node"><title>Node25</title>
<g id="a_node25"><a xlink:href="handler_8h.html" target="_top" xlink:title="system/handler.h">
<polygon fill="white" stroke="black" points="175,-280.5 175,-299.5 267,-299.5 267,-280.5 175,-280.5"/>
<text text-anchor="middle" x="221" y="-287.5" font-family="Helvetica,sans-Serif" font-size="10.00">system/handler.h</text>
</a>
</g>
</g>
<!-- Node2&#45;&gt;Node25 -->
<g id="edge39" class="edge"><title>Node2&#45;&gt;Node25</title>
<path fill="none" stroke="midnightblue" d="M470.781,-336.568C415.226,-326.433 322.568,-309.529 267.077,-299.406"/>
<polygon fill="midnightblue" stroke="midnightblue" points="470.239,-340.027 480.705,-338.379 471.495,-333.141 470.239,-340.027"/>
</g>
<!-- Node4 -->
<g id="node4" class="node"><title>Node4</title>
<g id="a_node4"><a xlink:href="pca9534_8h.html" target="_top" xlink:title="driver/pca9534.h">
<polygon fill="white" stroke="black" points="569.5,-224.5 569.5,-243.5 656.5,-243.5 656.5,-224.5 569.5,-224.5"/>
<text text-anchor="middle" x="613" y="-231.5" font-family="Helvetica,sans-Serif" font-size="10.00">driver/pca9534.h</text>
</a>
</g>
</g>
<!-- Node3&#45;&gt;Node4 -->
<g id="edge3" class="edge"><title>Node3&#45;&gt;Node4</title>
<path fill="none" stroke="midnightblue" d="M582.735,-272.144C590.401,-262.736 599.633,-251.405 605.869,-243.751"/>
<polygon fill="midnightblue" stroke="midnightblue" points="579.869,-270.12 576.266,-280.083 585.296,-274.541 579.869,-270.12"/>
</g>
<!-- Node3&#45;&gt;Node7 -->
<g id="edge31" class="edge"><title>Node3&#45;&gt;Node7</title>
<path fill="none" stroke="midnightblue" d="M527.674,-277.851C487.237,-264.311 428.786,-236.963 408,-188 394.796,-156.897 392.409,-142.935 406,-112 412.969,-96.1383 428.594,-83.415 440.339,-75.598"/>
<polygon fill="midnightblue" stroke="midnightblue" points="526.687,-281.21 537.278,-280.923 528.819,-274.543 526.687,-281.21"/>
</g>
<!-- Node15 -->
<g id="node15" class="node"><title>Node15</title>
<g id="a_node15"><a xlink:href="pca9530_8h.html" target="_top" xlink:title="driver/pca9530.h">
<polygon fill="white" stroke="black" points="621.5,-168.5 621.5,-187.5 708.5,-187.5 708.5,-168.5 621.5,-168.5"/>
<text text-anchor="middle" x="665" y="-175.5" font-family="Helvetica,sans-Serif" font-size="10.00">driver/pca9530.h</text>
</a>
</g>
</g>
<!-- Node3&#45;&gt;Node15 -->
<g id="edge17" class="edge"><title>Node3&#45;&gt;Node15</title>
<path fill="none" stroke="midnightblue" d="M610.455,-280.502C630.574,-274.066 652.95,-262.956 665,-244 676.018,-226.667 671.37,-201.126 667.762,-187.809"/>
<polygon fill="midnightblue" stroke="midnightblue" points="609.443,-277.151 600.815,-283.299 611.394,-283.873 609.443,-277.151"/>
</g>
<!-- Node3&#45;&gt;Node17 -->
<g id="edge21" class="edge"><title>Node3&#45;&gt;Node17</title>
<path fill="none" stroke="midnightblue" d="M610.589,-280.362C659.686,-270.165 740.756,-253.328 789.103,-243.286"/>
<polygon fill="midnightblue" stroke="midnightblue" points="609.7,-276.972 600.621,-282.433 611.124,-283.826 609.7,-276.972"/>
</g>
<!-- Node3&#45;&gt;Node19 -->
<g id="edge32" class="edge"><title>Node3&#45;&gt;Node19</title>
<path fill="none" stroke="midnightblue" d="M606.931,-277.242C629.759,-269.394 658.957,-257.961 683,-244 711.69,-227.34 740.983,-201.05 755.191,-187.579"/>
<polygon fill="midnightblue" stroke="midnightblue" points="605.622,-273.99 597.253,-280.487 607.847,-280.627 605.622,-273.99"/>
</g>
<!-- Node21 -->
<g id="node21" class="node"><title>Node21</title>
<g id="a_node21"><a xlink:href="i2c_8c.html" target="_top" xlink:title="driver/src/i2c.c">
<polygon fill="white" stroke="black" points="471,-224.5 471,-243.5 551,-243.5 551,-224.5 471,-224.5"/>
<text text-anchor="middle" x="511" y="-231.5" font-family="Helvetica,sans-Serif" font-size="10.00">driver/src/i2c.c</text>
</a>
</g>
</g>
<!-- Node3&#45;&gt;Node21 -->
<g id="edge27" class="edge"><title>Node3&#45;&gt;Node21</title>
<path fill="none" stroke="midnightblue" d="M552.087,-273.253C541.797,-263.673 529.034,-251.791 520.488,-243.834"/>
<polygon fill="midnightblue" stroke="midnightblue" points="549.977,-276.071 559.681,-280.324 554.747,-270.948 549.977,-276.071"/>
</g>
<!-- Node3&#45;&gt;Node22 -->
<g id="edge28" class="edge"><title>Node3&#45;&gt;Node22</title>
<path fill="none" stroke="midnightblue" d="M527.352,-279.629C482.16,-269.461 410.629,-253.366 366.943,-243.537"/>
<polygon fill="midnightblue" stroke="midnightblue" points="526.605,-283.049 537.13,-281.829 528.142,-276.219 526.605,-283.049"/>
</g>
<!-- Node4&#45;&gt;Node5 -->
<g id="edge4" class="edge"><title>Node4&#45;&gt;Node5</title>
<path fill="none" stroke="midnightblue" d="M577.48,-221.304C546.578,-211.129 502.527,-196.625 474.865,-187.516"/>
<polygon fill="midnightblue" stroke="midnightblue" points="576.421,-224.64 587.014,-224.444 578.61,-217.992 576.421,-224.64"/>
</g>
<!-- Node14 -->
<g id="node14" class="node"><title>Node14</title>
<g id="a_node14"><a xlink:href="pca9534_8c.html" target="_top" xlink:title="driver/src/pca9534.c">
<polygon fill="white" stroke="black" points="499,-168.5 499,-187.5 603,-187.5 603,-168.5 499,-168.5"/>
<text text-anchor="middle" x="551" y="-175.5" font-family="Helvetica,sans-Serif" font-size="10.00">driver/src/pca9534.c</text>
</a>
</g>
</g>
<!-- Node4&#45;&gt;Node14 -->
<g id="edge16" class="edge"><title>Node4&#45;&gt;Node14</title>
<path fill="none" stroke="midnightblue" d="M595.246,-217.537C584.192,-207.909 570.369,-195.869 561.143,-187.834"/>
<polygon fill="midnightblue" stroke="midnightblue" points="593.199,-220.395 603.039,-224.324 597.797,-215.117 593.199,-220.395"/>
</g>
<!-- Node6 -->
<g id="node6" class="node"><title>Node6</title>
<g id="a_node6"><a xlink:href="lcd_8c.html" target="_top" xlink:title="driver/src/lcd.c">
<polygon fill="white" stroke="black" points="415,-112.5 415,-131.5 495,-131.5 495,-112.5 415,-112.5"/>
<text text-anchor="middle" x="455" y="-119.5" font-family="Helvetica,sans-Serif" font-size="10.00">driver/src/lcd.c</text>
</a>
</g>
</g>
<!-- Node5&#45;&gt;Node6 -->
<g id="edge5" class="edge"><title>Node5&#45;&gt;Node6</title>
<path fill="none" stroke="midnightblue" d="M451.1,-158.101C452.096,-149.136 453.238,-138.858 454.028,-131.751"/>
<polygon fill="midnightblue" stroke="midnightblue" points="447.617,-157.758 449.991,-168.083 454.574,-158.531 447.617,-157.758"/>
</g>
<!-- Node5&#45;&gt;Node7 -->
<g id="edge6" class="edge"><title>Node5&#45;&gt;Node7</title>
<path fill="none" stroke="midnightblue" d="M474.859,-162.947C486.006,-155.383 497.872,-144.932 504,-132 514.591,-109.651 487.804,-87.483 469.793,-75.6919"/>
<polygon fill="midnightblue" stroke="midnightblue" points="472.805,-160.104 466.198,-168.386 476.528,-166.032 472.805,-160.104"/>
</g>
<!-- Node8 -->
<g id="node8" class="node"><title>Node8</title>
<g id="a_node8"><a xlink:href="menu_2menu_8h.html" target="_top" xlink:title="menu/menu.h">
<polygon fill="white" stroke="black" points="23,-112.5 23,-131.5 99,-131.5 99,-112.5 23,-112.5"/>
<text text-anchor="middle" x="61" y="-119.5" font-family="Helvetica,sans-Serif" font-size="10.00">menu/menu.h</text>
</a>
</g>
</g>
<!-- Node5&#45;&gt;Node8 -->
<g id="edge7" class="edge"><title>Node5&#45;&gt;Node8</title>
<path fill="none" stroke="midnightblue" d="M407.112,-171.17C331.238,-160.61 172.167,-138.472 99.1356,-128.308"/>
<polygon fill="midnightblue" stroke="midnightblue" points="406.861,-174.669 417.248,-172.581 407.826,-167.736 406.861,-174.669"/>
</g>
<!-- Node5&#45;&gt;Node12 -->
<g id="edge13" class="edge"><title>Node5&#45;&gt;Node12</title>
<path fill="none" stroke="midnightblue" d="M490.911,-168.133C553.709,-159.176 767.142,-136.666 857.367,-127.233"/>
<polygon fill="midnightblue" stroke="midnightblue" points="490.077,-164.719 480.72,-169.688 491.134,-171.639 490.077,-164.719"/>
</g>
<!-- Node8&#45;&gt;Node7 -->
<g id="edge8" class="edge"><title>Node8&#45;&gt;Node7</title>
<path fill="none" stroke="midnightblue" d="M109.134,-112.598C110.436,-112.394 111.726,-112.194 113,-112 232.593,-93.7903 376.389,-76.2999 431.732,-69.7314"/>
<polygon fill="midnightblue" stroke="midnightblue" points="108.338,-109.181 99.0264,-114.235 109.457,-116.091 108.338,-109.181"/>
</g>
<!-- Node9 -->
<g id="node9" class="node"><title>Node9</title>
<g id="a_node9"><a xlink:href="menu__struct_8h.html" target="_top" xlink:title="menu/menu_struct.h">
<polygon fill="white" stroke="black" points="8,-56.5 8,-75.5 114,-75.5 114,-56.5 8,-56.5"/>
<text text-anchor="middle" x="61" y="-63.5" font-family="Helvetica,sans-Serif" font-size="10.00">menu/menu_struct.h</text>
</a>
</g>
</g>
<!-- Node8&#45;&gt;Node9 -->
<g id="edge9" class="edge"><title>Node8&#45;&gt;Node9</title>
<path fill="none" stroke="midnightblue" d="M54.5276,-102.101C53.8956,-93.1357 54.3427,-82.8579 55.869,-75.7511"/>
<polygon fill="midnightblue" stroke="midnightblue" points="51.0658,-102.622 55.8337,-112.083 58.0067,-101.713 51.0658,-102.622"/>
</g>
<!-- Node11 -->
<g id="node11" class="node"><title>Node11</title>
<g id="a_node11"><a xlink:href="menu_2src_2menu_8c.html" target="_top" xlink:title="menu/src/menu.c">
<polygon fill="white" stroke="black" points="132,-56.5 132,-75.5 224,-75.5 224,-56.5 132,-56.5"/>
<text text-anchor="middle" x="178" y="-63.5" font-family="Helvetica,sans-Serif" font-size="10.00">menu/src/menu.c</text>
</a>
</g>
</g>
<!-- Node8&#45;&gt;Node11 -->
<g id="edge12" class="edge"><title>Node8&#45;&gt;Node11</title>
<path fill="none" stroke="midnightblue" d="M88.6638,-108.232C110.549,-98.1312 140.497,-84.3091 159.548,-75.5164"/>
<polygon fill="midnightblue" stroke="midnightblue" points="87.1519,-105.075 79.539,-112.444 90.0853,-111.431 87.1519,-105.075"/>
</g>
<!-- Node9&#45;&gt;Node8 -->
<g id="edge10" class="edge"><title>Node9&#45;&gt;Node8</title>
<path fill="none" stroke="midnightblue" d="M67.4575,-85.6911C68.1062,-94.6353 67.6758,-104.927 66.1663,-112.083"/>
<polygon fill="midnightblue" stroke="midnightblue" points="70.9231,-85.2002 66.131,-75.7511 63.9846,-86.1262 70.9231,-85.2002"/>
</g>
<!-- Node10 -->
<g id="node10" class="node"><title>Node10</title>
<g id="a_node10"><a xlink:href="menu__struct_8c.html" target="_top" xlink:title="menu/src/menu_struct.c">
<polygon fill="white" stroke="black" points="0,-0.5 0,-19.5 122,-19.5 122,-0.5 0,-0.5"/>
<text text-anchor="middle" x="61" y="-7.5" font-family="Helvetica,sans-Serif" font-size="10.00">menu/src/menu_struct.c</text>
</a>
</g>
</g>
<!-- Node9&#45;&gt;Node10 -->
<g id="edge11" class="edge"><title>Node9&#45;&gt;Node10</title>
<path fill="none" stroke="midnightblue" d="M61,-45.8045C61,-36.9102 61,-26.7798 61,-19.7511"/>
<polygon fill="midnightblue" stroke="midnightblue" points="57.5001,-46.083 61,-56.083 64.5001,-46.083 57.5001,-46.083"/>
</g>
<!-- Node12&#45;&gt;Node7 -->
<g id="edge14" class="edge"><title>Node12&#45;&gt;Node7</title>
<path fill="none" stroke="midnightblue" d="M847.458,-112.636C845.956,-112.418 844.467,-112.205 843,-112 704.986,-92.7153 538.529,-75.3944 478.227,-69.3112"/>
<polygon fill="midnightblue" stroke="midnightblue" points="847.073,-116.118 857.484,-114.15 848.118,-109.196 847.073,-116.118"/>
</g>
<!-- Node13 -->
<g id="node13" class="node"><title>Node13</title>
<g id="a_node13"><a xlink:href="radio_8c.html" target="_top" xlink:title="system/src/radio.c">
<polygon fill="white" stroke="black" points="849,-56.5 849,-75.5 947,-75.5 947,-56.5 849,-56.5"/>
<text text-anchor="middle" x="898" y="-63.5" font-family="Helvetica,sans-Serif" font-size="10.00">system/src/radio.c</text>
</a>
</g>
</g>
<!-- Node12&#45;&gt;Node13 -->
<g id="edge15" class="edge"><title>Node12&#45;&gt;Node13</title>
<path fill="none" stroke="midnightblue" d="M898,-101.805C898,-92.9102 898,-82.7798 898,-75.7511"/>
<polygon fill="midnightblue" stroke="midnightblue" points="894.5,-102.083 898,-112.083 901.5,-102.083 894.5,-102.083"/>
</g>
<!-- Node15&#45;&gt;Node7 -->
<g id="edge19" class="edge"><title>Node15&#45;&gt;Node7</title>
<path fill="none" stroke="midnightblue" d="M670.356,-158.55C673.297,-144.255 674.496,-124.794 664,-112 640.635,-83.52 527.847,-72.1509 478.359,-68.4804"/>
<polygon fill="midnightblue" stroke="midnightblue" points="666.954,-157.728 667.933,-168.277 673.746,-159.42 666.954,-157.728"/>
</g>
<!-- Node15&#45;&gt;Node12 -->
<g id="edge20" class="edge"><title>Node15&#45;&gt;Node12</title>
<path fill="none" stroke="midnightblue" d="M711.803,-166.153C755.827,-155.95 820.847,-140.881 861.253,-131.516"/>
<polygon fill="midnightblue" stroke="midnightblue" points="710.871,-162.776 701.92,-168.444 712.452,-169.595 710.871,-162.776"/>
</g>
<!-- Node16 -->
<g id="node16" class="node"><title>Node16</title>
<g id="a_node16"><a xlink:href="pca9530_8c.html" target="_top" xlink:title="driver/src/pca9530.c">
<polygon fill="white" stroke="black" points="551,-112.5 551,-131.5 655,-131.5 655,-112.5 551,-112.5"/>
<text text-anchor="middle" x="603" y="-119.5" font-family="Helvetica,sans-Serif" font-size="10.00">driver/src/pca9530.c</text>
</a>
</g>
</g>
<!-- Node15&#45;&gt;Node16 -->
<g id="edge18" class="edge"><title>Node15&#45;&gt;Node16</title>
<path fill="none" stroke="midnightblue" d="M647.246,-161.537C636.192,-151.909 622.369,-139.869 613.143,-131.834"/>
<polygon fill="midnightblue" stroke="midnightblue" points="645.199,-164.395 655.039,-168.324 649.797,-159.117 645.199,-164.395"/>
</g>
<!-- Node17&#45;&gt;Node7 -->
<g id="edge23" class="edge"><title>Node17&#45;&gt;Node7</title>
<path fill="none" stroke="midnightblue" d="M832.218,-214.499C835.695,-187.786 837.502,-138.698 810,-112 762.638,-66.0227 549.299,-65.3686 478.164,-66.4738"/>
<polygon fill="midnightblue" stroke="midnightblue" points="828.748,-214.035 830.706,-224.447 835.669,-215.087 828.748,-214.035"/>
</g>
<!-- Node17&#45;&gt;Node12 -->
<g id="edge24" class="edge"><title>Node17&#45;&gt;Node12</title>
<path fill="none" stroke="midnightblue" d="M839.89,-215.64C854.879,-191.744 881.297,-149.629 892.611,-131.591"/>
<polygon fill="midnightblue" stroke="midnightblue" points="836.763,-214.037 834.414,-224.368 842.693,-217.757 836.763,-214.037"/>
</g>
<!-- Node17&#45;&gt;Node18 -->
<g id="edge22" class="edge"><title>Node17&#45;&gt;Node18</title>
<path fill="none" stroke="midnightblue" d="M862.668,-221.039C891.268,-210.879 931.612,-196.546 957.028,-187.516"/>
<polygon fill="midnightblue" stroke="midnightblue" points="861.336,-217.798 853.085,-224.444 863.68,-224.394 861.336,-217.798"/>
</g>
<!-- Node17&#45;&gt;Node19 -->
<g id="edge25" class="edge"><title>Node17&#45;&gt;Node19</title>
<path fill="none" stroke="midnightblue" d="M810.727,-217.82C799.082,-208.145 784.401,-195.948 774.633,-187.834"/>
<polygon fill="midnightblue" stroke="midnightblue" points="808.628,-220.626 818.557,-224.324 813.101,-215.242 808.628,-220.626"/>
</g>
<!-- Node20 -->
<g id="node20" class="node"><title>Node20</title>
<g id="a_node20"><a xlink:href="rds_8c.html" target="_top" xlink:title="system/src/rds.c">
<polygon fill="white" stroke="black" points="711,-112.5 711,-131.5 801,-131.5 801,-112.5 711,-112.5"/>
<text text-anchor="middle" x="756" y="-119.5" font-family="Helvetica,sans-Serif" font-size="10.00">system/src/rds.c</text>
</a>
</g>
</g>
<!-- Node19&#45;&gt;Node20 -->
<g id="edge26" class="edge"><title>Node19&#45;&gt;Node20</title>
<path fill="none" stroke="midnightblue" d="M761.2,-158.101C759.872,-149.136 758.349,-138.858 757.296,-131.751"/>
<polygon fill="midnightblue" stroke="midnightblue" points="757.751,-158.704 762.679,-168.083 764.676,-157.678 757.751,-158.704"/>
</g>
<!-- Node22&#45;&gt;Node7 -->
<g id="edge30" class="edge"><title>Node22&#45;&gt;Node7</title>
<path fill="none" stroke="midnightblue" d="M287.819,-221.212C257.721,-210.328 224.635,-192.193 240,-168 283.223,-99.9411 385.816,-76.9289 431.894,-69.8531"/>
<polygon fill="midnightblue" stroke="midnightblue" points="286.826,-224.571 297.421,-224.489 289.087,-217.946 286.826,-224.571"/>
</g>
<!-- Node23 -->
<g id="node23" class="node"><title>Node23</title>
<g id="a_node23"><a xlink:href="tpa2016d2_8c.html" target="_top" xlink:title="driver/src/tpa2016d2.c">
<polygon fill="white" stroke="black" points="249,-168.5 249,-187.5 361,-187.5 361,-168.5 249,-168.5"/>
<text text-anchor="middle" x="305" y="-175.5" font-family="Helvetica,sans-Serif" font-size="10.00">driver/src/tpa2016d2.c</text>
</a>
</g>
</g>
<!-- Node22&#45;&gt;Node23 -->
<g id="edge29" class="edge"><title>Node22&#45;&gt;Node23</title>
<path fill="none" stroke="midnightblue" d="M320.862,-214.69C316.817,-205.589 312.117,-195.014 308.889,-187.751"/>
<polygon fill="midnightblue" stroke="midnightblue" points="317.777,-216.366 325.037,-224.083 324.174,-213.523 317.777,-216.366"/>
</g>
<!-- Node26 -->
<g id="node26" class="node"><title>Node26</title>
<g id="a_node26"><a xlink:href="handler_8c.html" target="_top" xlink:title="system/src/handler.c">
<polygon fill="white" stroke="black" points="155,-224.5 155,-243.5 263,-243.5 263,-224.5 155,-224.5"/>
<text text-anchor="middle" x="209" y="-231.5" font-family="Helvetica,sans-Serif" font-size="10.00">system/src/handler.c</text>
</a>
</g>
</g>
<!-- Node25&#45;&gt;Node26 -->
<g id="edge40" class="edge"><title>Node25&#45;&gt;Node26</title>
<path fill="none" stroke="midnightblue" d="M216.8,-270.101C214.808,-261.136 212.524,-250.858 210.945,-243.751"/>
<polygon fill="midnightblue" stroke="midnightblue" points="213.432,-271.08 219.018,-280.083 220.266,-269.562 213.432,-271.08"/>
</g>
</g>
</svg>
        <g id="navigator" transform="translate(0 0)" fill="#404254">
                <rect fill="#f2f5e9" fill-opacity="0.5" stroke="#606060" stroke-width=".5" x="0" y="0" width="60" height="60"/>
                <use id="zoomplus" xlink:href="#zoomPlus" x="17" y="9" onmousedown="handleZoom(evt,'in')"/>
                <use id="zoomminus" xlink:href="#zoomMin" x="42" y="9" onmousedown="handleZoom(evt,'out')"/>
                <use id="reset" xlink:href="#resetDef" x="30" y="36" onmousedown="handleReset()"/>
                <g id="arrowUp" xlink:href="#dirArrow" transform="translate(30 24)" onmousedown="handlePan(0,-1)">
                  <use xlink:href="#rim" fill="#404040">
                        <set attributeName="fill" to="#808080" begin="arrowUp.mouseover" end="arrowUp.mouseout"/>
                  </use>
                  <path fill="none" stroke="white" stroke-width="1.5" d="M0,-3.0v7 M-2.5,-0.5L0,-3.0L2.5,-0.5"/>
                </g>
                <g id="arrowRight" xlink:href="#dirArrow" transform="rotate(90) translate(36 -43)" onmousedown="handlePan(1,0)">
                  <use xlink:href="#rim" fill="#404040">
                        <set attributeName="fill" to="#808080" begin="arrowRight.mouseover" end="arrowRight.mouseout"/>
                  </use>
                  <path fill="none" stroke="white" stroke-width="1.5" d="M0,-3.0v7 M-2.5,-0.5L0,-3.0L2.5,-0.5"/>
                </g>
                <g id="arrowDown" xlink:href="#dirArrow" transform="rotate(180) translate(-30 -48)" onmousedown="handlePan(0,1)">
                  <use xlink:href="#rim" fill="#404040">
                        <set attributeName="fill" to="#808080" begin="arrowDown.mouseover" end="arrowDown.mouseout"/>
                  </use>
                  <path fill="none" stroke="white" stroke-width="1.5" d="M0,-3.0v7 M-2.5,-0.5L0,-3.0L2.5,-0.5"/>
                </g>
                <g id="arrowLeft" xlink:href="#dirArrow" transform="rotate(270) translate(-36 17)" onmousedown="handlePan(-1,0)">
                  <use xlink:href="#rim" fill="#404040">
                        <set attributeName="fill" to="#808080" begin="arrowLeft.mouseover" end="arrowLeft.mouseout"/>
                  </use>
                  <path fill="none" stroke="white" stroke-width="1.5" d="M0,-3.0v7 M-2.5,-0.5L0,-3.0L2.5,-0.5"/>
                </g>
        </g>
        <svg viewBox="0 0 15 15" width="100%" height="30px" preserveAspectRatio="xMaxYMin meet">
         <g id="arrow_out" transform="scale(0.3 0.3)">
          <a xlink:href="radio__configuration_8h__dep__incl_org.svg" target="_base">
           <rect id="button" ry="5" rx="5" y="6" x="6" height="38" width="38"
                fill="#f2f5e9" fill-opacity="0.5" stroke="#606060" stroke-width="1.0"/>
           <path id="arrow"
             d="M 11.500037,31.436501 C 11.940474,20.09759 22.043105,11.32322 32.158766,21.979434 L 37.068811,17.246167 C 37.068811,17.246167 37.088388,32 37.088388,32 L 22.160133,31.978069 C 22.160133,31.978069 26.997745,27.140456 26.997745,27.140456 C 18.528582,18.264221 13.291696,25.230495 11.500037,31.436501 z"
             style="fill:#404040;"/>
          </a>
         </g>
        </svg>
</svg>
