<?xml version="1.0" encoding="UTF-8" standalone="no"?>
<!DOCTYPE svg PUBLIC "-//W3C//DTD SVG 1.1//EN"
 "http://www.w3.org/Graphics/SVG/1.1/DTD/svg11.dtd">
<!-- Generated by graphviz version 2.38.0 (20140413.2041)
 -->
<!-- Title: radio_display_pipty Pages: 1 -->
<!--zoomable 85 -->
<svg id="main" version="1.1" xmlns="http://www.w3.org/2000/svg" xmlns:xlink="http://www.w3.org/1999/xlink" xml:space="preserve" onload="init(evt)">
<style type="text/css"><![CDATA[
.edge:hover path { stroke: red; }
.edge:hover polygon { stroke: red; fill: red; }
]]></style>
<script type="text/javascript"><![CDATA[
var edges = document.getElementsByTagName('g');
if (edges && edges.length) {
  for (var i=0;i<edges.length;i++) {
    if (edges[i].id.substr(0,4)=='edge') {
      edges[i].setAttribute('class','edge');
    }
  }
}
]]></script>
        <defs>
                <circle id="rim" cx="0" cy="0" r="7"/>
                <circle id="rim2" cx="0" cy="0" r="3.5"/>
                <g id="zoomPlus">
                        <use xlink:href="#rim" fill="#404040">
                                <set attributeName="fill" to="#808080" begin="zoomplus.mouseover" end="zoomplus.mouseout"/>
                        </use>
                        <path d="M-4,0h8M0,-4v8" fill="none" stroke="white" stroke-width="1.5" pointer-events="none"/>
                </g>
                <g id="zoomMin">
                        <use xlink:href="#rim" fill="#404040">
                                <set attributeName="fill" to="#808080" begin="zoomminus.mouseover" end="zoomminus.mouseout"/>
                        </use>
                        <path d="M-4,0h8" fill="none" stroke="white" stroke-width="1.5" pointer-events="none"/>
                </g>
                <g id="dirArrow">
                        <path fill="none" stroke="white" stroke-width="1.5" d="M0,-3.0v7 M-2.5,-0.5L0,-3.0L2.5,-0.5"/>
                </g>
               <g id="resetDef">
                       <use xlink:href="#rim2" fill="#404040">
                               <set attributeName="fill" to="#808080" begin="reset.mouseover" end="reset.mouseout"/>
                       </use>
               </g>
        </defs>

<script type="text/javascript">
var viewWidth = 819;
var viewHeight = 85;
var sectionId = 'dynsection-3';
</script>
<script xlink:href="svgpan.js"/>
<svg id="graph" class="graph">
<g id="viewport">
<title>radio_display_pipty</title>
<polygon fill="white" stroke="none" points="-4,4 -4,-81 815,-81 815,4 -4,4"/>
<!-- Node1 -->
<g id="node1" class="node"><title>Node1</title>
<polygon fill="#bfbfbf" stroke="black" points="0,-38.5 0,-57.5 100,-57.5 100,-38.5 0,-38.5"/>
<text text-anchor="middle" x="50" y="-45.5" font-family="Helvetica,sans-Serif" font-size="10.00">radio_display_pipty</text>
</g>
<!-- Node2 -->
<g id="node2" class="node"><title>Node2</title>
<g id="a_node2"><a xlink:href="string_8c.html#a29d88799b460e9bf31c5b6bcd3cd5ba3" target="_top" xlink:title="string_hex_to_array">
<polygon fill="white" stroke="black" points="136,-57.5 136,-76.5 238,-76.5 238,-57.5 136,-57.5"/>
<text text-anchor="middle" x="187" y="-64.5" font-family="Helvetica,sans-Serif" font-size="10.00">string_hex_to_array</text>
</a>
</g>
</g>
<!-- Node1&#45;&gt;Node2 -->
<g id="edge1" class="edge"><title>Node1&#45;&gt;Node2</title>
<path fill="none" stroke="midnightblue" d="M100.12,-54.9132C108.465,-56.0876 117.215,-57.3192 125.806,-58.5282"/>
<polygon fill="midnightblue" stroke="midnightblue" points="125.393,-62.0046 135.783,-59.9325 126.369,-55.0729 125.393,-62.0046"/>
</g>
<!-- Node3 -->
<g id="node3" class="node"><title>Node3</title>
<g id="a_node3"><a xlink:href="lcd_8h.html#acd63fb85d212730fa4fcbcbeeccd231e" target="_top" xlink:title="lcd_create_view">
<polygon fill="white" stroke="black" points="144.5,-19.5 144.5,-38.5 229.5,-38.5 229.5,-19.5 144.5,-19.5"/>
<text text-anchor="middle" x="187" y="-26.5" font-family="Helvetica,sans-Serif" font-size="10.00">lcd_create_view</text>
</a>
</g>
</g>
<!-- Node1&#45;&gt;Node3 -->
<g id="edge2" class="edge"><title>Node1&#45;&gt;Node3</title>
<path fill="none" stroke="midnightblue" d="M100.12,-41.0868C111.202,-39.5271 123,-37.8666 134.189,-36.2919"/>
<polygon fill="midnightblue" stroke="midnightblue" points="134.841,-39.7347 144.256,-34.8751 133.866,-32.803 134.841,-39.7347"/>
</g>
<!-- Node4 -->
<g id="node4" class="node"><title>Node4</title>
<g id="a_node4"><a xlink:href="lcd_8c.html#a2a4df97ebc5b396233aa31765228ef42" target="_top" xlink:title="lcd_set_courser">
<polygon fill="white" stroke="black" points="274,-38.5 274,-57.5 360,-57.5 360,-38.5 274,-38.5"/>
<text text-anchor="middle" x="317" y="-45.5" font-family="Helvetica,sans-Serif" font-size="10.00">lcd_set_courser</text>
</a>
</g>
</g>
<!-- Node3&#45;&gt;Node4 -->
<g id="edge3" class="edge"><title>Node3&#45;&gt;Node4</title>
<path fill="none" stroke="midnightblue" d="M229.558,-35.1688C240.4,-36.7782 252.227,-38.5337 263.554,-40.2151"/>
<polygon fill="midnightblue" stroke="midnightblue" points="263.368,-43.7257 273.773,-41.732 264.396,-36.8016 263.368,-43.7257"/>
</g>
<!-- Node10 -->
<g id="node10" class="node"><title>Node10</title>
<g id="a_node10"><a xlink:href="lcd_8c.html#aa6e1aa2ef9b677e16d8198df683429ec" target="_top" xlink:title="lcd_write_string">
<polygon fill="white" stroke="black" points="396,-0.5 396,-19.5 480,-19.5 480,-0.5 396,-0.5"/>
<text text-anchor="middle" x="438" y="-7.5" font-family="Helvetica,sans-Serif" font-size="10.00">lcd_write_string</text>
</a>
</g>
</g>
<!-- Node3&#45;&gt;Node10 -->
<g id="edge10" class="edge"><title>Node3&#45;&gt;Node10</title>
<path fill="none" stroke="midnightblue" d="M229.677,-25.8198C272.538,-22.5493 339.366,-17.45 385.507,-13.9292"/>
<polygon fill="midnightblue" stroke="midnightblue" points="385.897,-17.4097 395.602,-13.1589 385.365,-10.43 385.897,-17.4097"/>
</g>
<!-- Node5 -->
<g id="node5" class="node"><title>Node5</title>
<g id="a_node5"><a xlink:href="lcd_8c.html#a250728451a22259562d3f01a12bbd77b" target="_top" xlink:title="lcd_command">
<polygon fill="white" stroke="black" points="399.5,-38.5 399.5,-57.5 476.5,-57.5 476.5,-38.5 399.5,-38.5"/>
<text text-anchor="middle" x="438" y="-45.5" font-family="Helvetica,sans-Serif" font-size="10.00">lcd_command</text>
</a>
</g>
</g>
<!-- Node4&#45;&gt;Node5 -->
<g id="edge4" class="edge"><title>Node4&#45;&gt;Node5</title>
<path fill="none" stroke="midnightblue" d="M360.29,-48C369.611,-48 379.549,-48 389.075,-48"/>
<polygon fill="midnightblue" stroke="midnightblue" points="389.202,-51.5001 399.202,-48 389.202,-44.5001 389.202,-51.5001"/>
</g>
<!-- Node6 -->
<g id="node6" class="node"><title>Node6</title>
<g id="a_node6"><a xlink:href="i2c_8h.html#a6691e5911f539e1e8178c6e983e8079a" target="_top" xlink:title="Transmits I2C commands with a variable length to a I2C slave. ">
<polygon fill="white" stroke="black" points="516,-0.5 516,-19.5 588,-19.5 588,-0.5 516,-0.5"/>
<text text-anchor="middle" x="552" y="-7.5" font-family="Helvetica,sans-Serif" font-size="10.00">i2c_write_var</text>
</a>
</g>
</g>
<!-- Node5&#45;&gt;Node6 -->
<g id="edge5" class="edge"><title>Node5&#45;&gt;Node6</title>
<path fill="none" stroke="midnightblue" d="M467.262,-38.411C481.19,-33.6856 498.18,-27.9211 513.207,-22.8226"/>
<polygon fill="midnightblue" stroke="midnightblue" points="514.401,-26.1134 522.747,-19.5859 512.152,-19.4845 514.401,-26.1134"/>
</g>
<!-- Node9 -->
<g id="node9" class="node"><title>Node9</title>
<g id="a_node9"><a xlink:href="timer_8c.html#a276d5cb665b9f8b2c79e53e2f2c5b4f0" target="_top" xlink:title="_delay_ms">
<polygon fill="white" stroke="black" points="627.5,-38.5 627.5,-57.5 691.5,-57.5 691.5,-38.5 627.5,-38.5"/>
<text text-anchor="middle" x="659.5" y="-45.5" font-family="Helvetica,sans-Serif" font-size="10.00">_delay_ms</text>
</a>
</g>
</g>
<!-- Node5&#45;&gt;Node9 -->
<g id="edge8" class="edge"><title>Node5&#45;&gt;Node9</title>
<path fill="none" stroke="midnightblue" d="M476.733,-48C515.861,-48 576.853,-48 617.237,-48"/>
<polygon fill="midnightblue" stroke="midnightblue" points="617.287,-51.5001 627.287,-48 617.287,-44.5001 617.287,-51.5001"/>
</g>
<!-- Node7 -->
<g id="node7" class="node"><title>Node7</title>
<g id="a_node7"><a xlink:href="i2c_8c.html#ae0625b97d3437bcaca4ac4b96dd01978" target="_top" xlink:title="Transmits I2C command array to a I2C slave. ">
<polygon fill="white" stroke="black" points="624,-0.5 624,-19.5 695,-19.5 695,-0.5 624,-0.5"/>
<text text-anchor="middle" x="659.5" y="-7.5" font-family="Helvetica,sans-Serif" font-size="10.00">i2c_write_arr</text>
</a>
</g>
</g>
<!-- Node6&#45;&gt;Node7 -->
<g id="edge6" class="edge"><title>Node6&#45;&gt;Node7</title>
<path fill="none" stroke="midnightblue" d="M588.13,-10C596.312,-10 605.133,-10 613.671,-10"/>
<polygon fill="midnightblue" stroke="midnightblue" points="613.882,-13.5001 623.882,-10 613.882,-6.5001 613.882,-13.5001"/>
</g>
<!-- Node8 -->
<g id="node8" class="node"><title>Node8</title>
<g id="a_node8"><a xlink:href="timer_8c.html#a3c56af3315c2461dec5ced585a5f84db" target="_top" xlink:title="_delay_ten_us">
<polygon fill="white" stroke="black" points="731,-19.5 731,-38.5 811,-38.5 811,-19.5 731,-19.5"/>
<text text-anchor="middle" x="771" y="-26.5" font-family="Helvetica,sans-Serif" font-size="10.00">_delay_ten_us</text>
</a>
</g>
</g>
<!-- Node7&#45;&gt;Node8 -->
<g id="edge7" class="edge"><title>Node7&#45;&gt;Node8</title>
<path fill="none" stroke="midnightblue" d="M695.146,-16.0117C703.253,-17.4183 712.042,-18.9433 720.651,-20.4371"/>
<polygon fill="midnightblue" stroke="midnightblue" points="720.172,-23.9062 730.623,-22.1674 721.368,-17.0092 720.172,-23.9062"/>
</g>
<!-- Node9&#45;&gt;Node8 -->
<g id="edge9" class="edge"><title>Node9&#45;&gt;Node8</title>
<path fill="none" stroke="midnightblue" d="M691.585,-42.6062C700.595,-41.0428 710.664,-39.2957 720.505,-37.5882"/>
<polygon fill="midnightblue" stroke="midnightblue" points="721.368,-40.9908 730.623,-35.8326 720.172,-34.0938 721.368,-40.9908"/>
</g>
<!-- Node10&#45;&gt;Node6 -->
<g id="edge11" class="edge"><title>Node10&#45;&gt;Node6</title>
<path fill="none" stroke="midnightblue" d="M480.069,-10C488.413,-10 497.234,-10 505.715,-10"/>
<polygon fill="midnightblue" stroke="midnightblue" points="505.836,-13.5001 515.836,-10 505.836,-6.5001 505.836,-13.5001"/>
</g>
</g>
</svg>
        <g id="navigator" transform="translate(0 0)" fill="#404254">
                <rect fill="#f2f5e9" fill-opacity="0.5" stroke="#606060" stroke-width=".5" x="0" y="0" width="60" height="60"/>
                <use id="zoomplus" xlink:href="#zoomPlus" x="17" y="9" onmousedown="handleZoom(evt,'in')"/>
                <use id="zoomminus" xlink:href="#zoomMin" x="42" y="9" onmousedown="handleZoom(evt,'out')"/>
                <use id="reset" xlink:href="#resetDef" x="30" y="36" onmousedown="handleReset()"/>
                <g id="arrowUp" xlink:href="#dirArrow" transform="translate(30 24)" onmousedown="handlePan(0,-1)">
                  <use xlink:href="#rim" fill="#404040">
                        <set attributeName="fill" to="#808080" begin="arrowUp.mouseover" end="arrowUp.mouseout"/>
                  </use>
                  <path fill="none" stroke="white" stroke-width="1.5" d="M0,-3.0v7 M-2.5,-0.5L0,-3.0L2.5,-0.5"/>
                </g>
                <g id="arrowRight" xlink:href="#dirArrow" transform="rotate(90) translate(36 -43)" onmousedown="handlePan(1,0)">
                  <use xlink:href="#rim" fill="#404040">
                        <set attributeName="fill" to="#808080" begin="arrowRight.mouseover" end="arrowRight.mouseout"/>
                  </use>
                  <path fill="none" stroke="white" stroke-width="1.5" d="M0,-3.0v7 M-2.5,-0.5L0,-3.0L2.5,-0.5"/>
                </g>
                <g id="arrowDown" xlink:href="#dirArrow" transform="rotate(180) translate(-30 -48)" onmousedown="handlePan(0,1)">
                  <use xlink:href="#rim" fill="#404040">
                        <set attributeName="fill" to="#808080" begin="arrowDown.mouseover" end="arrowDown.mouseout"/>
                  </use>
                  <path fill="none" stroke="white" stroke-width="1.5" d="M0,-3.0v7 M-2.5,-0.5L0,-3.0L2.5,-0.5"/>
                </g>
                <g id="arrowLeft" xlink:href="#dirArrow" transform="rotate(270) translate(-36 17)" onmousedown="handlePan(-1,0)">
                  <use xlink:href="#rim" fill="#404040">
                        <set attributeName="fill" to="#808080" begin="arrowLeft.mouseover" end="arrowLeft.mouseout"/>
                  </use>
                  <path fill="none" stroke="white" stroke-width="1.5" d="M0,-3.0v7 M-2.5,-0.5L0,-3.0L2.5,-0.5"/>
                </g>
        </g>
        <svg viewBox="0 0 15 15" width="100%" height="30px" preserveAspectRatio="xMaxYMin meet">
         <g id="arrow_out" transform="scale(0.3 0.3)">
          <a xlink:href="radio__display_8c_ab985392609874befae589a4e4ad57c86_cgraph_org.svg" target="_base">
           <rect id="button" ry="5" rx="5" y="6" x="6" height="38" width="38"
                fill="#f2f5e9" fill-opacity="0.5" stroke="#606060" stroke-width="1.0"/>
           <path id="arrow"
             d="M 11.500037,31.436501 C 11.940474,20.09759 22.043105,11.32322 32.158766,21.979434 L 37.068811,17.246167 C 37.068811,17.246167 37.088388,32 37.088388,32 L 22.160133,31.978069 C 22.160133,31.978069 26.997745,27.140456 26.997745,27.140456 C 18.528582,18.264221 13.291696,25.230495 11.500037,31.436501 z"
             style="fill:#404040;"/>
          </a>
         </g>
        </svg>
</svg>
