<?xml version="1.0" encoding="UTF-8" standalone="no"?>
<!DOCTYPE svg PUBLIC "-//W3C//DTD SVG 1.1//EN"
 "http://www.w3.org/Graphics/SVG/1.1/DTD/svg11.dtd">
<!-- Generated by graphviz version 2.38.0 (20140413.2041)
 -->
<!-- Title: radio_tune_freq Pages: 1 -->
<!--zoomable 104 -->
<svg id="main" version="1.1" xmlns="http://www.w3.org/2000/svg" xmlns:xlink="http://www.w3.org/1999/xlink" xml:space="preserve" onload="init(evt)">
<style type="text/css"><![CDATA[
.edge:hover path { stroke: red; }
.edge:hover polygon { stroke: red; fill: red; }
]]></style>
<script type="text/javascript"><![CDATA[
var edges = document.getElementsByTagName('g');
if (edges && edges.length) {
  for (var i=0;i<edges.length;i++) {
    if (edges[i].id.substr(0,4)=='edge') {
      edges[i].setAttribute('class','edge');
    }
  }
}
]]></script>
        <defs>
                <circle id="rim" cx="0" cy="0" r="7"/>
                <circle id="rim2" cx="0" cy="0" r="3.5"/>
                <g id="zoomPlus">
                        <use xlink:href="#rim" fill="#404040">
                                <set attributeName="fill" to="#808080" begin="zoomplus.mouseover" end="zoomplus.mouseout"/>
                        </use>
                        <path d="M-4,0h8M0,-4v8" fill="none" stroke="white" stroke-width="1.5" pointer-events="none"/>
                </g>
                <g id="zoomMin">
                        <use xlink:href="#rim" fill="#404040">
                                <set attributeName="fill" to="#808080" begin="zoomminus.mouseover" end="zoomminus.mouseout"/>
                        </use>
                        <path d="M-4,0h8" fill="none" stroke="white" stroke-width="1.5" pointer-events="none"/>
                </g>
                <g id="dirArrow">
                        <path fill="none" stroke="white" stroke-width="1.5" d="M0,-3.0v7 M-2.5,-0.5L0,-3.0L2.5,-0.5"/>
                </g>
               <g id="resetDef">
                       <use xlink:href="#rim2" fill="#404040">
                               <set attributeName="fill" to="#808080" begin="reset.mouseover" end="reset.mouseout"/>
                       </use>
               </g>
        </defs>

<script type="text/javascript">
var viewWidth = 596;
var viewHeight = 104;
var sectionId = 'dynsection-9';
</script>
<script xlink:href="svgpan.js"/>
<svg id="graph" class="graph">
<g id="viewport">
<title>radio_tune_freq</title>
<polygon fill="white" stroke="none" points="-4,4 -4,-100 592,-100 592,4 -4,4"/>
<!-- Node1 -->
<g id="node1" class="node"><title>Node1</title>
<polygon fill="#bfbfbf" stroke="black" points="0,-38.5 0,-57.5 83,-57.5 83,-38.5 0,-38.5"/>
<text text-anchor="middle" x="41.5" y="-45.5" font-family="Helvetica,sans-Serif" font-size="10.00">radio_tune_freq</text>
</g>
<!-- Node2 -->
<g id="node2" class="node"><title>Node2</title>
<g id="a_node2"><a xlink:href="si4735_8h.html#af82ec28b536b1258ea4178108c61d5e9" target="_top" xlink:title="si4735_fm_tune_freq">
<polygon fill="white" stroke="black" points="119,-38.5 119,-57.5 225,-57.5 225,-38.5 119,-38.5"/>
<text text-anchor="middle" x="172" y="-45.5" font-family="Helvetica,sans-Serif" font-size="10.00">si4735_fm_tune_freq</text>
</a>
</g>
</g>
<!-- Node1&#45;&gt;Node2 -->
<g id="edge1" class="edge"><title>Node1&#45;&gt;Node2</title>
<path fill="none" stroke="midnightblue" d="M83.1582,-48C91.2969,-48 100.022,-48 108.7,-48"/>
<polygon fill="midnightblue" stroke="midnightblue" points="108.827,-51.5001 118.827,-48 108.827,-44.5001 108.827,-51.5001"/>
</g>
<!-- Node3 -->
<g id="node3" class="node"><title>Node3</title>
<g id="a_node3"><a xlink:href="i2c_8h.html#a6691e5911f539e1e8178c6e983e8079a" target="_top" xlink:title="Transmits I2C commands with a variable length to a I2C slave. ">
<polygon fill="white" stroke="black" points="277,-76.5 277,-95.5 349,-95.5 349,-76.5 277,-76.5"/>
<text text-anchor="middle" x="313" y="-83.5" font-family="Helvetica,sans-Serif" font-size="10.00">i2c_write_var</text>
</a>
</g>
</g>
<!-- Node2&#45;&gt;Node3 -->
<g id="edge2" class="edge"><title>Node2&#45;&gt;Node3</title>
<path fill="none" stroke="midnightblue" d="M208.076,-57.589C226.019,-62.4944 248.058,-68.5196 267.217,-73.7571"/>
<polygon fill="midnightblue" stroke="midnightblue" points="266.367,-77.1531 276.936,-76.4141 268.213,-70.4008 266.367,-77.1531"/>
</g>
<!-- Node6 -->
<g id="node6" class="node"><title>Node6</title>
<g id="a_node6"><a xlink:href="si4735_8c.html#aad8341b5b19aa8f962a6b9b940d77960" target="_top" xlink:title="si4735_get_interrupt">
<polygon fill="white" stroke="black" points="261,-38.5 261,-57.5 365,-57.5 365,-38.5 261,-38.5"/>
<text text-anchor="middle" x="313" y="-45.5" font-family="Helvetica,sans-Serif" font-size="10.00">si4735_get_interrupt</text>
</a>
</g>
</g>
<!-- Node2&#45;&gt;Node6 -->
<g id="edge5" class="edge"><title>Node2&#45;&gt;Node6</title>
<path fill="none" stroke="midnightblue" d="M225.154,-48C233.479,-48 242.158,-48 250.671,-48"/>
<polygon fill="midnightblue" stroke="midnightblue" points="250.938,-51.5001 260.938,-48 250.938,-44.5001 250.938,-51.5001"/>
</g>
<!-- Node7 -->
<g id="node7" class="node"><title>Node7</title>
<g id="a_node7"><a xlink:href="i2c_8h.html#a6dd896b0c82d1aa91a1a8155b41c4566" target="_top" xlink:title="Receives I2C commands until a NACK is received or received RxBytes. ">
<polygon fill="white" stroke="black" points="286.5,-0.5 286.5,-19.5 339.5,-19.5 339.5,-0.5 286.5,-0.5"/>
<text text-anchor="middle" x="313" y="-7.5" font-family="Helvetica,sans-Serif" font-size="10.00">i2c_read</text>
</a>
</g>
</g>
<!-- Node2&#45;&gt;Node7 -->
<g id="edge6" class="edge"><title>Node2&#45;&gt;Node7</title>
<path fill="none" stroke="midnightblue" d="M208.076,-38.411C228.948,-32.7048 255.363,-25.4834 276.339,-19.7492"/>
<polygon fill="midnightblue" stroke="midnightblue" points="277.427,-23.08 286.15,-17.0668 275.581,-16.3278 277.427,-23.08"/>
</g>
<!-- Node4 -->
<g id="node4" class="node"><title>Node4</title>
<g id="a_node4"><a xlink:href="i2c_8c.html#ae0625b97d3437bcaca4ac4b96dd01978" target="_top" xlink:title="Transmits I2C command array to a I2C slave. ">
<polygon fill="white" stroke="black" points="401,-76.5 401,-95.5 472,-95.5 472,-76.5 401,-76.5"/>
<text text-anchor="middle" x="436.5" y="-83.5" font-family="Helvetica,sans-Serif" font-size="10.00">i2c_write_arr</text>
</a>
</g>
</g>
<!-- Node3&#45;&gt;Node4 -->
<g id="edge3" class="edge"><title>Node3&#45;&gt;Node4</title>
<path fill="none" stroke="midnightblue" d="M349.143,-86C362.1,-86 376.959,-86 390.657,-86"/>
<polygon fill="midnightblue" stroke="midnightblue" points="390.856,-89.5001 400.856,-86 390.856,-82.5001 390.856,-89.5001"/>
</g>
<!-- Node5 -->
<g id="node5" class="node"><title>Node5</title>
<g id="a_node5"><a xlink:href="timer_8c.html#a3c56af3315c2461dec5ced585a5f84db" target="_top" xlink:title="_delay_ten_us">
<polygon fill="white" stroke="black" points="508,-76.5 508,-95.5 588,-95.5 588,-76.5 508,-76.5"/>
<text text-anchor="middle" x="548" y="-83.5" font-family="Helvetica,sans-Serif" font-size="10.00">_delay_ten_us</text>
</a>
</g>
</g>
<!-- Node4&#45;&gt;Node5 -->
<g id="edge4" class="edge"><title>Node4&#45;&gt;Node5</title>
<path fill="none" stroke="midnightblue" d="M472.146,-86C480.165,-86 488.851,-86 497.37,-86"/>
<polygon fill="midnightblue" stroke="midnightblue" points="497.623,-89.5001 507.623,-86 497.623,-82.5001 497.623,-89.5001"/>
</g>
</g>
</svg>
        <g id="navigator" transform="translate(0 0)" fill="#404254">
                <rect fill="#f2f5e9" fill-opacity="0.5" stroke="#606060" stroke-width=".5" x="0" y="0" width="60" height="60"/>
                <use id="zoomplus" xlink:href="#zoomPlus" x="17" y="9" onmousedown="handleZoom(evt,'in')"/>
                <use id="zoomminus" xlink:href="#zoomMin" x="42" y="9" onmousedown="handleZoom(evt,'out')"/>
                <use id="reset" xlink:href="#resetDef" x="30" y="36" onmousedown="handleReset()"/>
                <g id="arrowUp" xlink:href="#dirArrow" transform="translate(30 24)" onmousedown="handlePan(0,-1)">
                  <use xlink:href="#rim" fill="#404040">
                        <set attributeName="fill" to="#808080" begin="arrowUp.mouseover" end="arrowUp.mouseout"/>
                  </use>
                  <path fill="none" stroke="white" stroke-width="1.5" d="M0,-3.0v7 M-2.5,-0.5L0,-3.0L2.5,-0.5"/>
                </g>
                <g id="arrowRight" xlink:href="#dirArrow" transform="rotate(90) translate(36 -43)" onmousedown="handlePan(1,0)">
                  <use xlink:href="#rim" fill="#404040">
                        <set attributeName="fill" to="#808080" begin="arrowRight.mouseover" end="arrowRight.mouseout"/>
                  </use>
                  <path fill="none" stroke="white" stroke-width="1.5" d="M0,-3.0v7 M-2.5,-0.5L0,-3.0L2.5,-0.5"/>
                </g>
                <g id="arrowDown" xlink:href="#dirArrow" transform="rotate(180) translate(-30 -48)" onmousedown="handlePan(0,1)">
                  <use xlink:href="#rim" fill="#404040">
                        <set attributeName="fill" to="#808080" begin="arrowDown.mouseover" end="arrowDown.mouseout"/>
                  </use>
                  <path fill="none" stroke="white" stroke-width="1.5" d="M0,-3.0v7 M-2.5,-0.5L0,-3.0L2.5,-0.5"/>
                </g>
                <g id="arrowLeft" xlink:href="#dirArrow" transform="rotate(270) translate(-36 17)" onmousedown="handlePan(-1,0)">
                  <use xlink:href="#rim" fill="#404040">
                        <set attributeName="fill" to="#808080" begin="arrowLeft.mouseover" end="arrowLeft.mouseout"/>
                  </use>
                  <path fill="none" stroke="white" stroke-width="1.5" d="M0,-3.0v7 M-2.5,-0.5L0,-3.0L2.5,-0.5"/>
                </g>
        </g>
        <svg viewBox="0 0 15 15" width="100%" height="30px" preserveAspectRatio="xMaxYMin meet">
         <g id="arrow_out" transform="scale(0.3 0.3)">
          <a xlink:href="radio_8h_a6d652e9d0f1c54bfe9ec73fe2605b706_cgraph_org.svg" target="_base">
           <rect id="button" ry="5" rx="5" y="6" x="6" height="38" width="38"
                fill="#f2f5e9" fill-opacity="0.5" stroke="#606060" stroke-width="1.0"/>
           <path id="arrow"
             d="M 11.500037,31.436501 C 11.940474,20.09759 22.043105,11.32322 32.158766,21.979434 L 37.068811,17.246167 C 37.068811,17.246167 37.088388,32 37.088388,32 L 22.160133,31.978069 C 22.160133,31.978069 26.997745,27.140456 26.997745,27.140456 C 18.528582,18.264221 13.291696,25.230495 11.500037,31.436501 z"
             style="fill:#404040;"/>
          </a>
         </g>
        </svg>
</svg>
