<?xml version="1.0" encoding="UTF-8" standalone="no"?>
<!DOCTYPE svg PUBLIC "-//W3C//DTD SVG 1.1//EN"
 "http://www.w3.org/Graphics/SVG/1.1/DTD/svg11.dtd">
<!-- Generated by graphviz version 2.38.0 (20140413.2041)
 -->
<!-- Title: system/src/radio.c Pages: 1 -->
<svg width="1264pt" height="509pt"
 viewBox="0.00 0.00 1264.37 509.00" xmlns="http://www.w3.org/2000/svg" xmlns:xlink="http://www.w3.org/1999/xlink">
<g id="graph0" class="graph" transform="scale(1 1) rotate(0) translate(4 505)">
<title>system/src/radio.c</title>
<polygon fill="white" stroke="none" points="-4,4 -4,-505 1260.37,-505 1260.37,4 -4,4"/>
<!-- Node1 -->
<g id="node1" class="node"><title>Node1</title>
<polygon fill="#bfbfbf" stroke="black" points="392.872,-481.5 392.872,-500.5 490.872,-500.5 490.872,-481.5 392.872,-481.5"/>
<text text-anchor="middle" x="441.872" y="-488.5" font-family="Helvetica,sans-Serif" font-size="10.00">system/src/radio.c</text>
</g>
<!-- Node2 -->
<g id="node2" class="node"><title>Node2</title>
<g id="a_node2"><a xlink:href="radio_8h.html" target="_top" xlink:title="system/radio.h">
<polygon fill="white" stroke="black" points="401.372,-425.5 401.372,-444.5 482.372,-444.5 482.372,-425.5 401.372,-425.5"/>
<text text-anchor="middle" x="441.872" y="-432.5" font-family="Helvetica,sans-Serif" font-size="10.00">system/radio.h</text>
</a>
</g>
</g>
<!-- Node1&#45;&gt;Node2 -->
<g id="edge1" class="edge"><title>Node1&#45;&gt;Node2</title>
<path fill="none" stroke="midnightblue" d="M441.872,-481.083C441.872,-474.006 441.872,-463.861 441.872,-454.986"/>
<polygon fill="midnightblue" stroke="midnightblue" points="445.372,-454.751 441.872,-444.751 438.372,-454.751 445.372,-454.751"/>
</g>
<!-- Node3 -->
<g id="node3" class="node"><title>Node3</title>
<polygon fill="white" stroke="#bfbfbf" points="513.372,-0.5 513.372,-19.5 562.372,-19.5 562.372,-0.5 513.372,-0.5"/>
<text text-anchor="middle" x="537.872" y="-7.5" font-family="Helvetica,sans-Serif" font-size="10.00">stdint.h</text>
</g>
<!-- Node2&#45;&gt;Node3 -->
<g id="edge2" class="edge"><title>Node2&#45;&gt;Node3</title>
<path fill="none" stroke="midnightblue" d="M401.266,-432.004C292.341,-425.549 1.87187,-400.636 1.87187,-318.5 1.87187,-318.5 1.87187,-318.5 1.87187,-132 1.87187,-97.1827 -5.61561,-78.5978 20.8719,-56 57.4791,-24.7686 393.035,-14.3246 503.091,-11.7233"/>
<polygon fill="midnightblue" stroke="midnightblue" points="503.399,-15.2173 513.316,-11.489 503.238,-8.2191 503.399,-15.2173"/>
</g>
<!-- Node4 -->
<g id="node4" class="node"><title>Node4</title>
<g id="a_node4"><a xlink:href="pca9530_8h.html" target="_top" xlink:title="driver/pca9530.h">
<polygon fill="white" stroke="black" points="258.372,-308 258.372,-327 345.372,-327 345.372,-308 258.372,-308"/>
<text text-anchor="middle" x="301.872" y="-315" font-family="Helvetica,sans-Serif" font-size="10.00">driver/pca9530.h</text>
</a>
</g>
</g>
<!-- Node2&#45;&gt;Node4 -->
<g id="edge3" class="edge"><title>Node2&#45;&gt;Node4</title>
<path fill="none" stroke="midnightblue" d="M431.349,-425.319C407.735,-405.837 350.265,-358.425 320.472,-333.845"/>
<polygon fill="midnightblue" stroke="midnightblue" points="322.458,-330.946 312.517,-327.282 318.003,-336.346 322.458,-330.946"/>
</g>
<!-- Node9 -->
<g id="node9" class="node"><title>Node9</title>
<g id="a_node9"><a xlink:href="timer_8h.html" target="_top" xlink:title="driver/timer.h">
<polygon fill="white" stroke="black" points="333.872,-179.5 333.872,-198.5 405.872,-198.5 405.872,-179.5 333.872,-179.5"/>
<text text-anchor="middle" x="369.872" y="-186.5" font-family="Helvetica,sans-Serif" font-size="10.00">driver/timer.h</text>
</a>
</g>
</g>
<!-- Node2&#45;&gt;Node9 -->
<g id="edge40" class="edge"><title>Node2&#45;&gt;Node9</title>
<path fill="none" stroke="midnightblue" d="M401.209,-425.773C355.043,-414.021 281.871,-387.513 248.872,-333 216.955,-280.274 298.61,-227.242 343.172,-203.255"/>
<polygon fill="midnightblue" stroke="midnightblue" points="344.837,-206.334 352.064,-198.588 341.583,-200.136 344.837,-206.334"/>
</g>
<!-- Node10 -->
<g id="node10" class="node"><title>Node10</title>
<g id="a_node10"><a xlink:href="radio__configuration_8h.html" target="_top" xlink:title="settings/radio_configuration.h">
<polygon fill="white" stroke="black" points="224.372,-123.5 224.372,-142.5 367.372,-142.5 367.372,-123.5 224.372,-123.5"/>
<text text-anchor="middle" x="295.872" y="-130.5" font-family="Helvetica,sans-Serif" font-size="10.00">settings/radio_configuration.h</text>
</a>
</g>
</g>
<!-- Node2&#45;&gt;Node10 -->
<g id="edge47" class="edge"><title>Node2&#45;&gt;Node10</title>
<path fill="none" stroke="midnightblue" d="M401.262,-430.725C365.68,-426.146 313.994,-415.187 276.872,-389 252.088,-371.517 246.955,-361.938 237.872,-333 216.888,-266.153 261.369,-185.882 283.877,-151.27"/>
<polygon fill="midnightblue" stroke="midnightblue" points="286.914,-153.024 289.569,-142.767 281.097,-149.13 286.914,-153.024"/>
</g>
<!-- Node11 -->
<g id="node11" class="node"><title>Node11</title>
<g id="a_node11"><a xlink:href="si4735__cmd__prop_8h.html" target="_top" xlink:title="driver/include/si4735\l_cmd_prop.h">
<polygon fill="white" stroke="black" points="243.872,-56.5 243.872,-86.5 347.872,-86.5 347.872,-56.5 243.872,-56.5"/>
<text text-anchor="start" x="251.872" y="-74.5" font-family="Helvetica,sans-Serif" font-size="10.00">driver/include/si4735</text>
<text text-anchor="middle" x="295.872" y="-63.5" font-family="Helvetica,sans-Serif" font-size="10.00">_cmd_prop.h</text>
</a>
</g>
</g>
<!-- Node2&#45;&gt;Node11 -->
<g id="edge23" class="edge"><title>Node2&#45;&gt;Node11</title>
<path fill="none" stroke="midnightblue" d="M401.09,-428.161C314.445,-414.607 119.872,-377.593 119.872,-318.5 119.872,-318.5 119.872,-318.5 119.872,-249.5 119.872,-173.258 202.999,-118.211 254.995,-91.2368"/>
<polygon fill="midnightblue" stroke="midnightblue" points="256.655,-94.3195 264,-86.6832 253.496,-88.0728 256.655,-94.3195"/>
</g>
<!-- Node12 -->
<g id="node12" class="node"><title>Node12</title>
<g id="a_node12"><a xlink:href="log__exp__table_8h.html" target="_top" xlink:title="libs/log_exp_table.h">
<polygon fill="white" stroke="black" points="30.3719,-62 30.3719,-81 133.372,-81 133.372,-62 30.3719,-62"/>
<text text-anchor="middle" x="81.8719" y="-69" font-family="Helvetica,sans-Serif" font-size="10.00">libs/log_exp_table.h</text>
</a>
</g>
</g>
<!-- Node2&#45;&gt;Node12 -->
<g id="edge16" class="edge"><title>Node2&#45;&gt;Node12</title>
<path fill="none" stroke="midnightblue" d="M401.324,-433.62C346.516,-431.724 246.802,-423.327 169.872,-389 124.107,-368.579 81.8719,-368.614 81.8719,-318.5 81.8719,-318.5 81.8719,-318.5 81.8719,-188 81.8719,-153.864 81.8719,-114.052 81.8719,-91.2092"/>
<polygon fill="midnightblue" stroke="midnightblue" points="85.372,-91.1934 81.8719,-81.1934 78.372,-91.1934 85.372,-91.1934"/>
</g>
<!-- Node13 -->
<g id="node13" class="node"><title>Node13</title>
<g id="a_node13"><a xlink:href="si4735_8h.html" target="_top" xlink:title="driver/si4735.h">
<polygon fill="white" stroke="black" points="402.372,-308 402.372,-327 481.372,-327 481.372,-308 402.372,-308"/>
<text text-anchor="middle" x="441.872" y="-315" font-family="Helvetica,sans-Serif" font-size="10.00">driver/si4735.h</text>
</a>
</g>
</g>
<!-- Node2&#45;&gt;Node13 -->
<g id="edge18" class="edge"><title>Node2&#45;&gt;Node13</title>
<path fill="none" stroke="midnightblue" d="M441.872,-425.319C441.872,-406.757 441.872,-362.839 441.872,-337.473"/>
<polygon fill="midnightblue" stroke="midnightblue" points="445.372,-337.282 441.872,-327.282 438.372,-337.282 445.372,-337.282"/>
</g>
<!-- Node15 -->
<g id="node15" class="node"><title>Node15</title>
<g id="a_node15"><a xlink:href="external__interrupthandler_8h.html" target="_top" xlink:title="driver/external_interrupthandler.h">
<polygon fill="white" stroke="black" points="826.372,-308 826.372,-327 983.372,-327 983.372,-308 826.372,-308"/>
<text text-anchor="middle" x="904.872" y="-315" font-family="Helvetica,sans-Serif" font-size="10.00">driver/external_interrupthandler.h</text>
</a>
</g>
</g>
<!-- Node2&#45;&gt;Node15 -->
<g id="edge24" class="edge"><title>Node2&#45;&gt;Node15</title>
<path fill="none" stroke="midnightblue" d="M480.434,-425.465C519.831,-416.659 582.733,-402.364 636.872,-389 717.444,-369.11 811.117,-344.015 863.651,-329.76"/>
<polygon fill="midnightblue" stroke="midnightblue" points="864.861,-333.058 873.594,-327.059 863.026,-326.303 864.861,-333.058"/>
</g>
<!-- Node16 -->
<g id="node16" class="node"><title>Node16</title>
<g id="a_node16"><a xlink:href="lcd_8h.html" target="_top" xlink:title="driver/lcd.h">
<polygon fill="white" stroke="black" points="565.372,-369.5 565.372,-388.5 628.372,-388.5 628.372,-369.5 565.372,-369.5"/>
<text text-anchor="middle" x="596.872" y="-376.5" font-family="Helvetica,sans-Serif" font-size="10.00">driver/lcd.h</text>
</a>
</g>
</g>
<!-- Node2&#45;&gt;Node16 -->
<g id="edge28" class="edge"><title>Node2&#45;&gt;Node16</title>
<path fill="none" stroke="midnightblue" d="M466.432,-425.444C492.394,-416.399 533.54,-402.064 562.669,-391.916"/>
<polygon fill="midnightblue" stroke="midnightblue" points="564.135,-395.112 572.427,-388.516 561.832,-388.501 564.135,-395.112"/>
</g>
<!-- Node19 -->
<g id="node19" class="node"><title>Node19</title>
<g id="a_node19"><a xlink:href="flash_8h.html" target="_top" xlink:title="driver/flash.h">
<polygon fill="white" stroke="black" points="1078.37,-179.5 1078.37,-198.5 1149.37,-198.5 1149.37,-179.5 1078.37,-179.5"/>
<text text-anchor="middle" x="1113.87" y="-186.5" font-family="Helvetica,sans-Serif" font-size="10.00">driver/flash.h</text>
</a>
</g>
</g>
<!-- Node2&#45;&gt;Node19 -->
<g id="edge36" class="edge"><title>Node2&#45;&gt;Node19</title>
<path fill="none" stroke="midnightblue" d="M482.512,-432.483C587.76,-428.23 867.166,-414.781 955.872,-389 1007.79,-373.91 1028.45,-373.848 1063.87,-333 1095.51,-296.515 1107.49,-238.797 1111.73,-209.078"/>
<polygon fill="midnightblue" stroke="midnightblue" points="1115.24,-209.201 1113.04,-198.838 1108.3,-208.314 1115.24,-209.201"/>
</g>
<!-- Node21 -->
<g id="node21" class="node"><title>Node21</title>
<g id="a_node21"><a xlink:href="encoder_8h.html" target="_top" xlink:title="driver/encoder.h">
<polygon fill="white" stroke="black" points="862.372,-369.5 862.372,-388.5 947.372,-388.5 947.372,-369.5 862.372,-369.5"/>
<text text-anchor="middle" x="904.872" y="-376.5" font-family="Helvetica,sans-Serif" font-size="10.00">driver/encoder.h</text>
</a>
</g>
</g>
<!-- Node2&#45;&gt;Node21 -->
<g id="edge41" class="edge"><title>Node2&#45;&gt;Node21</title>
<path fill="none" stroke="midnightblue" d="M482.554,-429.255C566.461,-419.469 758.669,-397.052 852.036,-386.162"/>
<polygon fill="midnightblue" stroke="midnightblue" points="852.582,-389.622 862.109,-384.987 851.771,-382.67 852.582,-389.622"/>
</g>
<!-- Node22 -->
<g id="node22" class="node"><title>Node22</title>
<g id="a_node22"><a xlink:href="language_8h.html" target="_top" xlink:title="menu/lang/language.h">
<polygon fill="white" stroke="black" points="1107.87,-369.5 1107.87,-388.5 1219.87,-388.5 1219.87,-369.5 1107.87,-369.5"/>
<text text-anchor="middle" x="1163.87" y="-376.5" font-family="Helvetica,sans-Serif" font-size="10.00">menu/lang/language.h</text>
</a>
</g>
</g>
<!-- Node2&#45;&gt;Node22 -->
<g id="edge46" class="edge"><title>Node2&#45;&gt;Node22</title>
<path fill="none" stroke="midnightblue" d="M482.38,-432.037C584.908,-426.886 862.961,-411.793 1093.87,-389 1095.14,-388.875 1096.42,-388.745 1097.71,-388.611"/>
<polygon fill="midnightblue" stroke="midnightblue" points="1098.18,-392.08 1107.74,-387.513 1097.42,-385.122 1098.18,-392.08"/>
</g>
<!-- Node23 -->
<g id="node23" class="node"><title>Node23</title>
<g id="a_node23"><a xlink:href="time_8h.html" target="_top" xlink:title="system/time.h">
<polygon fill="white" stroke="black" points="1177.37,-241 1177.37,-260 1256.37,-260 1256.37,-241 1177.37,-241"/>
<text text-anchor="middle" x="1216.87" y="-248" font-family="Helvetica,sans-Serif" font-size="10.00">system/time.h</text>
</a>
</g>
</g>
<!-- Node2&#45;&gt;Node23 -->
<g id="edge48" class="edge"><title>Node2&#45;&gt;Node23</title>
<path fill="none" stroke="midnightblue" d="M482.383,-433.209C639.745,-429.944 1203.02,-416.377 1228.87,-389 1259.5,-356.573 1239.24,-298.607 1225.91,-269.385"/>
<polygon fill="midnightblue" stroke="midnightblue" points="1228.9,-267.523 1221.41,-260.02 1222.58,-270.551 1228.9,-267.523"/>
</g>
<!-- Node4&#45;&gt;Node3 -->
<g id="edge4" class="edge"><title>Node4&#45;&gt;Node3</title>
<path fill="none" stroke="midnightblue" d="M294.696,-307.781C264.934,-270.592 156.353,-124.047 234.872,-56 274.341,-21.7947 431.614,-13.5872 502.685,-11.6196"/>
<polygon fill="midnightblue" stroke="midnightblue" points="503.012,-15.1126 512.922,-11.3632 502.837,-8.11475 503.012,-15.1126"/>
</g>
<!-- Node5 -->
<g id="node5" class="node"><title>Node5</title>
<g id="a_node5"><a xlink:href="i2c_8h.html" target="_top" xlink:title="I2C implemtation for MSP430G2553, interrupt based. &#160;&#160;This implemtation based on examples from Texas I...">
<polygon fill="white" stroke="black" points="488.372,-241 488.372,-260 551.372,-260 551.372,-241 488.372,-241"/>
<text text-anchor="middle" x="519.872" y="-248" font-family="Helvetica,sans-Serif" font-size="10.00">driver/i2c.h</text>
</a>
</g>
</g>
<!-- Node4&#45;&gt;Node5 -->
<g id="edge5" class="edge"><title>Node4&#45;&gt;Node5</title>
<path fill="none" stroke="midnightblue" d="M330.821,-307.869C369.529,-296.327 438.255,-275.835 481.317,-262.996"/>
<polygon fill="midnightblue" stroke="midnightblue" points="482.568,-266.275 491.151,-260.064 480.567,-259.567 482.568,-266.275"/>
</g>
<!-- Node5&#45;&gt;Node3 -->
<g id="edge6" class="edge"><title>Node5&#45;&gt;Node3</title>
<path fill="none" stroke="midnightblue" d="M520.534,-240.729C523.153,-206.029 532.823,-77.8919 536.469,-29.5882"/>
<polygon fill="midnightblue" stroke="midnightblue" points="539.96,-29.8345 537.223,-19.5994 532.98,-29.3076 539.96,-29.8345"/>
</g>
<!-- Node6 -->
<g id="node6" class="node"><title>Node6</title>
<polygon fill="white" stroke="#bfbfbf" points="900.372,-123.5 900.372,-142.5 959.372,-142.5 959.372,-123.5 900.372,-123.5"/>
<text text-anchor="middle" x="929.872" y="-130.5" font-family="Helvetica,sans-Serif" font-size="10.00">msp430.h</text>
</g>
<!-- Node5&#45;&gt;Node6 -->
<g id="edge7" class="edge"><title>Node5&#45;&gt;Node6</title>
<path fill="none" stroke="midnightblue" d="M550.354,-240.913C623.5,-220.307 808.934,-168.069 890.428,-145.112"/>
<polygon fill="midnightblue" stroke="midnightblue" points="891.621,-148.412 900.297,-142.331 889.723,-141.674 891.621,-148.412"/>
</g>
<!-- Node7 -->
<g id="node7" class="node"><title>Node7</title>
<polygon fill="white" stroke="#bfbfbf" points="461.872,-179.5 461.872,-198.5 509.872,-198.5 509.872,-179.5 461.872,-179.5"/>
<text text-anchor="middle" x="485.872" y="-186.5" font-family="Helvetica,sans-Serif" font-size="10.00">stdlib.h</text>
</g>
<!-- Node5&#45;&gt;Node7 -->
<g id="edge8" class="edge"><title>Node5&#45;&gt;Node7</title>
<path fill="none" stroke="midnightblue" d="M515.001,-240.975C510.001,-232.227 502.083,-218.369 495.763,-207.309"/>
<polygon fill="midnightblue" stroke="midnightblue" points="498.735,-205.455 490.734,-198.509 492.657,-208.928 498.735,-205.455"/>
</g>
<!-- Node8 -->
<g id="node8" class="node"><title>Node8</title>
<polygon fill="white" stroke="#bfbfbf" points="565.872,-179.5 565.872,-198.5 617.872,-198.5 617.872,-179.5 565.872,-179.5"/>
<text text-anchor="middle" x="591.872" y="-186.5" font-family="Helvetica,sans-Serif" font-size="10.00">stdarg.h</text>
</g>
<!-- Node5&#45;&gt;Node8 -->
<g id="edge9" class="edge"><title>Node5&#45;&gt;Node8</title>
<path fill="none" stroke="midnightblue" d="M530.188,-240.975C541.522,-231.608 559.945,-216.384 573.711,-205.008"/>
<polygon fill="midnightblue" stroke="midnightblue" points="576.096,-207.577 581.575,-198.509 571.637,-202.181 576.096,-207.577"/>
</g>
<!-- Node5&#45;&gt;Node9 -->
<g id="edge10" class="edge"><title>Node5&#45;&gt;Node9</title>
<path fill="none" stroke="midnightblue" d="M498.381,-240.975C472.762,-230.813 429.762,-213.756 400.627,-202.2"/>
<polygon fill="midnightblue" stroke="midnightblue" points="401.909,-198.943 391.323,-198.509 399.328,-205.45 401.909,-198.943"/>
</g>
<!-- Node9&#45;&gt;Node3 -->
<g id="edge12" class="edge"><title>Node9&#45;&gt;Node3</title>
<path fill="none" stroke="midnightblue" d="M370.728,-179.29C373.465,-156.051 384.043,-91.9094 419.872,-56 442.293,-33.5287 477.096,-22.0816 503.104,-16.3765"/>
<polygon fill="midnightblue" stroke="midnightblue" points="503.833,-19.7999 512.946,-14.3958 502.452,-12.9375 503.833,-19.7999"/>
</g>
<!-- Node9&#45;&gt;Node6 -->
<g id="edge11" class="edge"><title>Node9&#45;&gt;Node6</title>
<path fill="none" stroke="midnightblue" d="M406.222,-183.947C420.729,-182.359 437.586,-180.55 452.872,-179 615.001,-162.563 808.34,-144.929 890.168,-137.557"/>
<polygon fill="midnightblue" stroke="midnightblue" points="890.627,-141.03 900.273,-136.648 890,-134.058 890.627,-141.03"/>
</g>
<!-- Node9&#45;&gt;Node10 -->
<g id="edge13" class="edge"><title>Node9&#45;&gt;Node10</title>
<path fill="none" stroke="midnightblue" d="M357.982,-179.324C346.722,-171.107 329.585,-158.602 316.163,-148.807"/>
<polygon fill="midnightblue" stroke="midnightblue" points="318.119,-145.901 307.978,-142.834 313.992,-151.556 318.119,-145.901"/>
</g>
<!-- Node10&#45;&gt;Node11 -->
<g id="edge14" class="edge"><title>Node10&#45;&gt;Node11</title>
<path fill="none" stroke="midnightblue" d="M295.872,-123.475C295.872,-116.471 295.872,-106.192 295.872,-96.6956"/>
<polygon fill="midnightblue" stroke="midnightblue" points="299.372,-96.5229 295.872,-86.523 292.372,-96.523 299.372,-96.5229"/>
</g>
<!-- Node11&#45;&gt;Node3 -->
<g id="edge15" class="edge"><title>Node11&#45;&gt;Node3</title>
<path fill="none" stroke="midnightblue" d="M348.084,-57.6626C394.995,-46.1289 462.56,-29.5166 503.145,-19.5383"/>
<polygon fill="midnightblue" stroke="midnightblue" points="504.223,-22.8775 513.098,-17.0911 502.552,-16.0799 504.223,-22.8775"/>
</g>
<!-- Node12&#45;&gt;Node3 -->
<g id="edge17" class="edge"><title>Node12&#45;&gt;Node3</title>
<path fill="none" stroke="midnightblue" d="M117.71,-61.934C127.456,-59.7942 138.036,-57.6435 147.872,-56 278.048,-34.2478 434.431,-19.6558 502.895,-13.8375"/>
<polygon fill="midnightblue" stroke="midnightblue" points="503.438,-17.3042 513.11,-12.9793 502.852,-10.3288 503.438,-17.3042"/>
</g>
<!-- Node13&#45;&gt;Node3 -->
<g id="edge19" class="edge"><title>Node13&#45;&gt;Node3</title>
<path fill="none" stroke="midnightblue" d="M441.425,-307.93C440.523,-286.002 439.583,-226.26 452.872,-179 469.407,-120.196 507.096,-57.7212 526.243,-28.2697"/>
<polygon fill="midnightblue" stroke="midnightblue" points="529.378,-29.8741 531.969,-19.6008 523.537,-26.0163 529.378,-29.8741"/>
</g>
<!-- Node13&#45;&gt;Node5 -->
<g id="edge20" class="edge"><title>Node13&#45;&gt;Node5</title>
<path fill="none" stroke="midnightblue" d="M452.391,-307.734C465.022,-297.208 486.417,-279.379 501.731,-266.617"/>
<polygon fill="midnightblue" stroke="midnightblue" points="504.078,-269.218 509.519,-260.127 499.596,-263.84 504.078,-269.218"/>
</g>
<!-- Node13&#45;&gt;Node9 -->
<g id="edge21" class="edge"><title>Node13&#45;&gt;Node9</title>
<path fill="none" stroke="midnightblue" d="M436.923,-307.805C425.208,-287.223 395.592,-235.189 379.934,-207.678"/>
<polygon fill="midnightblue" stroke="midnightblue" points="382.844,-205.715 374.855,-198.756 376.76,-209.178 382.844,-205.715"/>
</g>
<!-- Node14 -->
<g id="node14" class="node"><title>Node14</title>
<g id="a_node14"><a xlink:href="settings_2radio__pin__mapping_8h.html" target="_top" xlink:title="settings/radio_pin\l_mapping.h">
<polygon fill="white" stroke="black" points="750.372,-235.5 750.372,-265.5 843.372,-265.5 843.372,-235.5 750.372,-235.5"/>
<text text-anchor="start" x="758.372" y="-253.5" font-family="Helvetica,sans-Serif" font-size="10.00">settings/radio_pin</text>
<text text-anchor="middle" x="796.872" y="-242.5" font-family="Helvetica,sans-Serif" font-size="10.00">_mapping.h</text>
</a>
</g>
</g>
<!-- Node13&#45;&gt;Node14 -->
<g id="edge22" class="edge"><title>Node13&#45;&gt;Node14</title>
<path fill="none" stroke="midnightblue" d="M467.863,-307.975C474.951,-305.835 482.664,-303.674 489.872,-302 576.344,-281.917 678.319,-266.806 740.251,-258.561"/>
<polygon fill="midnightblue" stroke="midnightblue" points="740.756,-262.025 750.213,-257.248 739.841,-255.085 740.756,-262.025"/>
</g>
<!-- Node15&#45;&gt;Node3 -->
<g id="edge26" class="edge"><title>Node15&#45;&gt;Node3</title>
<path fill="none" stroke="midnightblue" d="M900.957,-307.809C892.215,-287.586 871.872,-235.621 871.872,-190 871.872,-190 871.872,-190 871.872,-132 871.872,-68.7991 657.795,-29.2398 572.418,-15.976"/>
<polygon fill="midnightblue" stroke="midnightblue" points="572.845,-12.5007 562.432,-14.4538 571.79,-19.4208 572.845,-12.5007"/>
</g>
<!-- Node15&#45;&gt;Node6 -->
<g id="edge25" class="edge"><title>Node15&#45;&gt;Node6</title>
<path fill="none" stroke="midnightblue" d="M906.078,-307.698C909.93,-279.573 922.001,-191.458 927.316,-152.657"/>
<polygon fill="midnightblue" stroke="midnightblue" points="930.789,-153.097 928.678,-142.714 923.853,-152.146 930.789,-153.097"/>
</g>
<!-- Node15&#45;&gt;Node14 -->
<g id="edge27" class="edge"><title>Node15&#45;&gt;Node14</title>
<path fill="none" stroke="midnightblue" d="M890.307,-307.734C874.658,-298.316 849.295,-283.051 828.941,-270.801"/>
<polygon fill="midnightblue" stroke="midnightblue" points="830.654,-267.747 820.281,-265.589 827.044,-273.744 830.654,-267.747"/>
</g>
<!-- Node16&#45;&gt;Node3 -->
<g id="edge29" class="edge"><title>Node16&#45;&gt;Node3</title>
<path fill="none" stroke="midnightblue" d="M623.984,-369.464C651.465,-360.292 691.386,-345.366 701.872,-333 725.992,-304.553 721.872,-288.797 721.872,-251.5 721.872,-251.5 721.872,-251.5 721.872,-132 721.872,-61.389 626.106,-29.6838 572.751,-17.4992"/>
<polygon fill="midnightblue" stroke="midnightblue" points="573.202,-14.0155 562.687,-15.3168 571.718,-20.8566 573.202,-14.0155"/>
</g>
<!-- Node16&#45;&gt;Node9 -->
<g id="edge35" class="edge"><title>Node16&#45;&gt;Node9</title>
<path fill="none" stroke="midnightblue" d="M565.062,-375.289C513.747,-370.237 416.087,-357.594 392.872,-333 360.883,-299.113 363.156,-239.348 366.849,-208.931"/>
<polygon fill="midnightblue" stroke="midnightblue" points="370.343,-209.215 368.265,-198.826 363.411,-208.243 370.343,-209.215"/>
</g>
<!-- Node16&#45;&gt;Node14 -->
<g id="edge34" class="edge"><title>Node16&#45;&gt;Node14</title>
<path fill="none" stroke="midnightblue" d="M628.623,-373.407C658.536,-367.839 703.477,-356.161 735.872,-333 757.175,-317.77 774.253,-292.867 784.86,-274.591"/>
<polygon fill="midnightblue" stroke="midnightblue" points="787.991,-276.162 789.805,-265.724 781.878,-272.753 787.991,-276.162"/>
</g>
<!-- Node17 -->
<g id="node17" class="node"><title>Node17</title>
<g id="a_node17"><a xlink:href="pca9534_8h.html" target="_top" xlink:title="driver/pca9534.h">
<polygon fill="white" stroke="black" points="606.372,-308 606.372,-327 693.372,-327 693.372,-308 606.372,-308"/>
<text text-anchor="middle" x="649.872" y="-315" font-family="Helvetica,sans-Serif" font-size="10.00">driver/pca9534.h</text>
</a>
</g>
</g>
<!-- Node16&#45;&gt;Node17 -->
<g id="edge30" class="edge"><title>Node16&#45;&gt;Node17</title>
<path fill="none" stroke="midnightblue" d="M604.465,-369.475C612.573,-360.373 625.607,-345.741 635.635,-334.483"/>
<polygon fill="midnightblue" stroke="midnightblue" points="638.254,-336.804 642.292,-327.009 633.027,-332.148 638.254,-336.804"/>
</g>
<!-- Node18 -->
<g id="node18" class="node"><title>Node18</title>
<g id="a_node18"><a xlink:href="lcd__commands_8h.html" target="_top" xlink:title="driver/include/lcd\l_commands.h">
<polygon fill="white" stroke="black" points="499.372,-302.5 499.372,-332.5 588.372,-332.5 588.372,-302.5 499.372,-302.5"/>
<text text-anchor="start" x="507.372" y="-320.5" font-family="Helvetica,sans-Serif" font-size="10.00">driver/include/lcd</text>
<text text-anchor="middle" x="543.872" y="-309.5" font-family="Helvetica,sans-Serif" font-size="10.00">_commands.h</text>
</a>
</g>
</g>
<!-- Node16&#45;&gt;Node18 -->
<g id="edge33" class="edge"><title>Node16&#45;&gt;Node18</title>
<path fill="none" stroke="midnightblue" d="M589.278,-369.475C582.503,-361.869 572.286,-350.399 563.259,-340.265"/>
<polygon fill="midnightblue" stroke="midnightblue" points="565.628,-337.662 556.363,-332.523 560.401,-342.318 565.628,-337.662"/>
</g>
<!-- Node17&#45;&gt;Node3 -->
<g id="edge31" class="edge"><title>Node17&#45;&gt;Node3</title>
<path fill="none" stroke="midnightblue" d="M653.906,-307.822C662.912,-287.624 683.872,-235.71 683.872,-190 683.872,-190 683.872,-190 683.872,-132 683.872,-74.2762 615.379,-38.8614 572.219,-22.2752"/>
<polygon fill="midnightblue" stroke="midnightblue" points="573.232,-18.9184 562.639,-18.7404 570.809,-25.4856 573.232,-18.9184"/>
</g>
<!-- Node17&#45;&gt;Node5 -->
<g id="edge32" class="edge"><title>Node17&#45;&gt;Node5</title>
<path fill="none" stroke="midnightblue" d="M632.609,-307.869C610.561,-296.845 572.183,-277.655 546.407,-264.768"/>
<polygon fill="midnightblue" stroke="midnightblue" points="547.716,-261.509 537.206,-260.167 544.585,-267.77 547.716,-261.509"/>
</g>
<!-- Node19&#45;&gt;Node3 -->
<g id="edge37" class="edge"><title>Node19&#45;&gt;Node3</title>
<path fill="none" stroke="midnightblue" d="M1111.88,-179.41C1105.48,-152.666 1084.7,-71.7326 1063.87,-56 1024.77,-26.4581 683.859,-14.8687 572.731,-11.8546"/>
<polygon fill="midnightblue" stroke="midnightblue" points="572.503,-8.34741 562.414,-11.5817 572.318,-15.345 572.503,-8.34741"/>
</g>
<!-- Node19&#45;&gt;Node6 -->
<g id="edge39" class="edge"><title>Node19&#45;&gt;Node6</title>
<path fill="none" stroke="midnightblue" d="M1084.72,-179.444C1053.36,-170.241 1003.34,-155.562 968.675,-145.388"/>
<polygon fill="midnightblue" stroke="midnightblue" points="969.472,-141.974 958.891,-142.516 967.501,-148.691 969.472,-141.974"/>
</g>
<!-- Node20 -->
<g id="node20" class="node"><title>Node20</title>
<polygon fill="white" stroke="#bfbfbf" points="1116.37,-123.5 1116.37,-142.5 1165.37,-142.5 1165.37,-123.5 1116.37,-123.5"/>
<text text-anchor="middle" x="1140.87" y="-130.5" font-family="Helvetica,sans-Serif" font-size="10.00">string.h</text>
</g>
<!-- Node19&#45;&gt;Node20 -->
<g id="edge38" class="edge"><title>Node19&#45;&gt;Node20</title>
<path fill="none" stroke="midnightblue" d="M1118.33,-179.083C1122.03,-171.691 1127.4,-160.953 1131.97,-151.811"/>
<polygon fill="midnightblue" stroke="midnightblue" points="1135.15,-153.261 1136.5,-142.751 1128.89,-150.13 1135.15,-153.261"/>
</g>
<!-- Node21&#45;&gt;Node3 -->
<g id="edge42" class="edge"><title>Node21&#45;&gt;Node3</title>
<path fill="none" stroke="midnightblue" d="M942.631,-369.462C965.068,-362.749 992.779,-351.377 1011.87,-333 1040.67,-305.284 1049.87,-291.466 1049.87,-251.5 1049.87,-251.5 1049.87,-251.5 1049.87,-132 1049.87,-33.6847 687.8,-15.1552 572.614,-11.7479"/>
<polygon fill="midnightblue" stroke="midnightblue" points="572.659,-8.24794 562.567,-11.4711 572.466,-15.2453 572.659,-8.24794"/>
</g>
<!-- Node21&#45;&gt;Node6 -->
<g id="edge43" class="edge"><title>Node21&#45;&gt;Node6</title>
<path fill="none" stroke="midnightblue" d="M939.885,-369.445C958.806,-362.844 980.556,-351.594 991.872,-333 1029.16,-271.732 971.544,-186.048 943.628,-150.481"/>
<polygon fill="midnightblue" stroke="midnightblue" points="946.247,-148.153 937.246,-142.564 940.797,-152.546 946.247,-148.153"/>
</g>
<!-- Node21&#45;&gt;Node14 -->
<g id="edge44" class="edge"><title>Node21&#45;&gt;Node14</title>
<path fill="none" stroke="midnightblue" d="M873.684,-369.367C854.581,-362.516 831.139,-351.032 816.872,-333 803.995,-316.726 799.256,-293.331 797.586,-275.777"/>
<polygon fill="midnightblue" stroke="midnightblue" points="801.072,-275.456 796.896,-265.719 794.088,-275.934 801.072,-275.456"/>
</g>
<!-- Node21&#45;&gt;Node15 -->
<g id="edge45" class="edge"><title>Node21&#45;&gt;Node15</title>
<path fill="none" stroke="midnightblue" d="M904.872,-369.475C904.872,-361.08 904.872,-347.981 904.872,-337.163"/>
<polygon fill="midnightblue" stroke="midnightblue" points="908.372,-337.009 904.872,-327.009 901.372,-337.009 908.372,-337.009"/>
</g>
<!-- Node23&#45;&gt;Node3 -->
<g id="edge49" class="edge"><title>Node23&#45;&gt;Node3</title>
<path fill="none" stroke="midnightblue" d="M1215.67,-240.735C1212.32,-218.993 1201.3,-161.559 1173.87,-123 1145.79,-83.5179 1133.01,-73.5999 1087.87,-56 993.268,-19.117 678.251,-12.461 572.689,-11.2624"/>
<polygon fill="midnightblue" stroke="midnightblue" points="572.607,-7.7615 562.571,-11.1573 572.534,-14.7611 572.607,-7.7615"/>
</g>
</g>
</svg>
