<?xml version="1.0" encoding="UTF-8" standalone="no"?>
<!DOCTYPE svg PUBLIC "-//W3C//DTD SVG 1.1//EN"
 "http://www.w3.org/Graphics/SVG/1.1/DTD/svg11.dtd">
<!-- Generated by graphviz version 2.38.0 (20140413.2041)
 -->
<!-- Title: radio_auto_search Pages: 1 -->
<svg width="733pt" height="203pt"
 viewBox="0.00 0.00 733.00 202.87" xmlns="http://www.w3.org/2000/svg" xmlns:xlink="http://www.w3.org/1999/xlink">
<g id="graph0" class="graph" transform="scale(1 1) rotate(0) translate(4 198.875)">
<title>radio_auto_search</title>
<polygon fill="white" stroke="none" points="-4,4 -4,-198.875 729,-198.875 729,4 -4,4"/>
<!-- Node1 -->
<g id="node1" class="node"><title>Node1</title>
<polygon fill="#bfbfbf" stroke="black" points="0,-80.3746 0,-99.3746 96,-99.3746 96,-80.3746 0,-80.3746"/>
<text text-anchor="middle" x="48" y="-87.3746" font-family="Helvetica,sans-Serif" font-size="10.00">radio_auto_search</text>
</g>
<!-- Node2 -->
<g id="node2" class="node"><title>Node2</title>
<g id="a_node2"><a xlink:href="si4735_8h.html#af82ec28b536b1258ea4178108c61d5e9" target="_top" xlink:title="si4735_fm_tune_freq">
<polygon fill="white" stroke="black" points="250.5,-175.375 250.5,-194.375 356.5,-194.375 356.5,-175.375 250.5,-175.375"/>
<text text-anchor="middle" x="303.5" y="-182.375" font-family="Helvetica,sans-Serif" font-size="10.00">si4735_fm_tune_freq</text>
</a>
</g>
</g>
<!-- Node1&#45;&gt;Node2 -->
<g id="edge1" class="edge"><title>Node1&#45;&gt;Node2</title>
<path fill="none" stroke="midnightblue" d="M72.3882,-99.387C108.992,-114.174 182.136,-143.317 245,-165.875 250.705,-167.922 256.758,-170.011 262.711,-172.019"/>
<polygon fill="midnightblue" stroke="midnightblue" points="261.964,-175.459 272.558,-175.3 264.177,-168.818 261.964,-175.459"/>
</g>
<!-- Node8 -->
<g id="node8" class="node"><title>Node8</title>
<g id="a_node8"><a xlink:href="radio_8c.html#aee6321b512830d482a2fc164cf11f9e9" target="_top" xlink:title="radio_seeking">
<polygon fill="white" stroke="black" points="132,-80.3746 132,-99.3746 209,-99.3746 209,-80.3746 132,-80.3746"/>
<text text-anchor="middle" x="170.5" y="-87.3746" font-family="Helvetica,sans-Serif" font-size="10.00">radio_seeking</text>
</a>
</g>
</g>
<!-- Node1&#45;&gt;Node8 -->
<g id="edge7" class="edge"><title>Node1&#45;&gt;Node8</title>
<path fill="none" stroke="midnightblue" d="M96.2789,-89.8746C104.531,-89.8746 113.124,-89.8746 121.398,-89.8746"/>
<polygon fill="midnightblue" stroke="midnightblue" points="121.659,-93.3747 131.659,-89.8746 121.658,-86.3747 121.659,-93.3747"/>
</g>
<!-- Node13 -->
<g id="node13" class="node"><title>Node13</title>
<g id="a_node13"><a xlink:href="timer_8c.html#a276d5cb665b9f8b2c79e53e2f2c5b4f0" target="_top" xlink:title="_delay_ms">
<polygon fill="white" stroke="black" points="541.5,-23.3746 541.5,-42.3746 605.5,-42.3746 605.5,-23.3746 541.5,-23.3746"/>
<text text-anchor="middle" x="573.5" y="-30.3746" font-family="Helvetica,sans-Serif" font-size="10.00">_delay_ms</text>
</a>
</g>
</g>
<!-- Node1&#45;&gt;Node13 -->
<g id="edge18" class="edge"><title>Node1&#45;&gt;Node13</title>
<path fill="none" stroke="midnightblue" d="M66.9738,-80.2799C100.706,-62.8789 176.301,-26.7275 245,-13.8746 357.274,7.13089 388.766,1.11645 502,-13.8746 512.666,-15.2867 524.009,-17.8509 534.407,-20.6481"/>
<polygon fill="midnightblue" stroke="midnightblue" points="533.46,-24.0173 544.035,-23.3714 535.365,-17.2816 533.46,-24.0173"/>
</g>
<!-- Node3 -->
<g id="node3" class="node"><title>Node3</title>
<g id="a_node3"><a xlink:href="i2c_8h.html#a6691e5911f539e1e8178c6e983e8079a" target="_top" xlink:title="Transmits I2C commands with a variable length to a I2C slave. ">
<polygon fill="white" stroke="black" points="414,-99.3746 414,-118.375 486,-118.375 486,-99.3746 414,-99.3746"/>
<text text-anchor="middle" x="450" y="-106.375" font-family="Helvetica,sans-Serif" font-size="10.00">i2c_write_var</text>
</a>
</g>
</g>
<!-- Node2&#45;&gt;Node3 -->
<g id="edge2" class="edge"><title>Node2&#45;&gt;Node3</title>
<path fill="none" stroke="midnightblue" d="M338.225,-175.362C346.18,-172.675 354.52,-169.484 362,-165.875 386.097,-154.247 411.445,-136.984 428.523,-124.505"/>
<polygon fill="midnightblue" stroke="midnightblue" points="430.708,-127.242 436.65,-118.47 426.535,-121.622 430.708,-127.242"/>
</g>
<!-- Node6 -->
<g id="node6" class="node"><title>Node6</title>
<g id="a_node6"><a xlink:href="si4735_8c.html#aad8341b5b19aa8f962a6b9b940d77960" target="_top" xlink:title="si4735_get_interrupt">
<polygon fill="white" stroke="black" points="398,-61.3746 398,-80.3746 502,-80.3746 502,-61.3746 398,-61.3746"/>
<text text-anchor="middle" x="450" y="-68.3746" font-family="Helvetica,sans-Serif" font-size="10.00">si4735_get_interrupt</text>
</a>
</g>
</g>
<!-- Node2&#45;&gt;Node6 -->
<g id="edge5" class="edge"><title>Node2&#45;&gt;Node6</title>
<path fill="none" stroke="midnightblue" d="M346.871,-175.343C352.355,-172.876 357.588,-169.773 362,-165.875 390.006,-141.124 370.463,-115.146 398,-89.8746 399.697,-88.3174 401.533,-86.8844 403.466,-85.5662"/>
<polygon fill="midnightblue" stroke="midnightblue" points="405.456,-88.462 412.437,-80.4919 402.009,-82.3693 405.456,-88.462"/>
</g>
<!-- Node7 -->
<g id="node7" class="node"><title>Node7</title>
<g id="a_node7"><a xlink:href="i2c_8h.html#a6dd896b0c82d1aa91a1a8155b41c4566" target="_top" xlink:title="Receives I2C commands until a NACK is received or received RxBytes. ">
<polygon fill="white" stroke="black" points="423.5,-23.3746 423.5,-42.3746 476.5,-42.3746 476.5,-23.3746 423.5,-23.3746"/>
<text text-anchor="middle" x="450" y="-30.3746" font-family="Helvetica,sans-Serif" font-size="10.00">i2c_read</text>
</a>
</g>
</g>
<!-- Node2&#45;&gt;Node7 -->
<g id="edge6" class="edge"><title>Node2&#45;&gt;Node7</title>
<path fill="none" stroke="midnightblue" d="M348.531,-175.321C353.507,-172.86 358.16,-169.766 362,-165.875 399.321,-128.056 361.395,-90.3863 398,-51.8746 402.4,-47.2454 408.032,-43.7362 413.939,-41.0782"/>
<polygon fill="midnightblue" stroke="midnightblue" points="415.175,-44.3526 423.309,-37.5635 412.717,-37.7985 415.175,-44.3526"/>
</g>
<!-- Node4 -->
<g id="node4" class="node"><title>Node4</title>
<g id="a_node4"><a xlink:href="i2c_8c.html#ae0625b97d3437bcaca4ac4b96dd01978" target="_top" xlink:title="Transmits I2C command array to a I2C slave. ">
<polygon fill="white" stroke="black" points="538,-80.3746 538,-99.3746 609,-99.3746 609,-80.3746 538,-80.3746"/>
<text text-anchor="middle" x="573.5" y="-87.3746" font-family="Helvetica,sans-Serif" font-size="10.00">i2c_write_arr</text>
</a>
</g>
</g>
<!-- Node3&#45;&gt;Node4 -->
<g id="edge3" class="edge"><title>Node3&#45;&gt;Node4</title>
<path fill="none" stroke="midnightblue" d="M486.143,-103.379C499.1,-101.353 513.959,-99.0292 527.657,-96.887"/>
<polygon fill="midnightblue" stroke="midnightblue" points="528.517,-100.295 537.856,-95.2922 527.435,-93.3794 528.517,-100.295"/>
</g>
<!-- Node5 -->
<g id="node5" class="node"><title>Node5</title>
<g id="a_node5"><a xlink:href="timer_8c.html#a3c56af3315c2461dec5ced585a5f84db" target="_top" xlink:title="_delay_ten_us">
<polygon fill="white" stroke="black" points="645,-51.3746 645,-70.3746 725,-70.3746 725,-51.3746 645,-51.3746"/>
<text text-anchor="middle" x="685" y="-58.3746" font-family="Helvetica,sans-Serif" font-size="10.00">_delay_ten_us</text>
</a>
</g>
</g>
<!-- Node4&#45;&gt;Node5 -->
<g id="edge4" class="edge"><title>Node4&#45;&gt;Node5</title>
<path fill="none" stroke="midnightblue" d="M609.146,-80.6988C618.354,-78.2603 628.443,-75.5885 638.148,-73.0182"/>
<polygon fill="midnightblue" stroke="midnightblue" points="639.299,-76.334 648.07,-70.3904 637.507,-69.5672 639.299,-76.334"/>
</g>
<!-- Node9 -->
<g id="node9" class="node"><title>Node9</title>
<g id="a_node9"><a xlink:href="external__interrupthandler_8h.html#a345dfb9a7e177c5da6eb9dc5b3c82bc9" target="_top" xlink:title="ext_interrupt_enable">
<polygon fill="white" stroke="black" points="251.5,-137.375 251.5,-156.375 355.5,-156.375 355.5,-137.375 251.5,-137.375"/>
<text text-anchor="middle" x="303.5" y="-144.375" font-family="Helvetica,sans-Serif" font-size="10.00">ext_interrupt_enable</text>
</a>
</g>
</g>
<!-- Node8&#45;&gt;Node9 -->
<g id="edge8" class="edge"><title>Node8&#45;&gt;Node9</title>
<path fill="none" stroke="midnightblue" d="M188.07,-99.402C202.735,-107.6 224.873,-119.409 245,-127.875 250.088,-130.015 255.507,-132.076 260.908,-134.001"/>
<polygon fill="midnightblue" stroke="midnightblue" points="259.939,-137.369 270.534,-137.306 262.213,-130.748 259.939,-137.369"/>
</g>
<!-- Node10 -->
<g id="node10" class="node"><title>Node10</title>
<g id="a_node10"><a xlink:href="si4735_8h.html#a339846da787fb5a496df9252ca7dc9a5" target="_top" xlink:title="si4735_fm_seek_start">
<polygon fill="white" stroke="black" points="247.5,-61.3746 247.5,-80.3746 359.5,-80.3746 359.5,-61.3746 247.5,-61.3746"/>
<text text-anchor="middle" x="303.5" y="-68.3746" font-family="Helvetica,sans-Serif" font-size="10.00">si4735_fm_seek_start</text>
</a>
</g>
</g>
<!-- Node8&#45;&gt;Node10 -->
<g id="edge9" class="edge"><title>Node8&#45;&gt;Node10</title>
<path fill="none" stroke="midnightblue" d="M209.039,-84.43C217.905,-83.1441 227.613,-81.7361 237.311,-80.3295"/>
<polygon fill="midnightblue" stroke="midnightblue" points="237.985,-83.7685 247.379,-78.8693 236.98,-76.841 237.985,-83.7685"/>
</g>
<!-- Node11 -->
<g id="node11" class="node"><title>Node11</title>
<g id="a_node11"><a xlink:href="si4735_8h.html#ad8b515f4991303f8cac978410d736a03" target="_top" xlink:title="si4735_fm_tune_status">
<polygon fill="white" stroke="black" points="245,-23.3746 245,-42.3746 362,-42.3746 362,-23.3746 245,-23.3746"/>
<text text-anchor="middle" x="303.5" y="-30.3746" font-family="Helvetica,sans-Serif" font-size="10.00">si4735_fm_tune_status</text>
</a>
</g>
</g>
<!-- Node8&#45;&gt;Node11 -->
<g id="edge13" class="edge"><title>Node8&#45;&gt;Node11</title>
<path fill="none" stroke="midnightblue" d="M188.07,-80.3472C202.735,-72.1494 224.873,-60.3402 245,-51.8746 250.088,-49.7346 255.507,-47.6732 260.908,-45.7483"/>
<polygon fill="midnightblue" stroke="midnightblue" points="262.213,-49.001 270.534,-42.4431 259.939,-42.3804 262.213,-49.001"/>
</g>
<!-- Node12 -->
<g id="node12" class="node"><title>Node12</title>
<g id="a_node12"><a xlink:href="external__interrupthandler_8h.html#a67fb5781413cf5c193be332cc6e52209" target="_top" xlink:title="ext_interrupt_disable">
<polygon fill="white" stroke="black" points="250,-99.3746 250,-118.375 357,-118.375 357,-99.3746 250,-99.3746"/>
<text text-anchor="middle" x="303.5" y="-106.375" font-family="Helvetica,sans-Serif" font-size="10.00">ext_interrupt_disable</text>
</a>
</g>
</g>
<!-- Node8&#45;&gt;Node12 -->
<g id="edge17" class="edge"><title>Node8&#45;&gt;Node12</title>
<path fill="none" stroke="midnightblue" d="M209.039,-95.3193C218.665,-96.7153 229.282,-98.2553 239.803,-99.7812"/>
<polygon fill="midnightblue" stroke="midnightblue" points="239.426,-103.263 249.825,-101.235 240.431,-96.3355 239.426,-103.263"/>
</g>
<!-- Node10&#45;&gt;Node3 -->
<g id="edge10" class="edge"><title>Node10&#45;&gt;Node3</title>
<path fill="none" stroke="midnightblue" d="M340.963,-80.4636C359.989,-85.4668 383.443,-91.6347 403.632,-96.9438"/>
<polygon fill="midnightblue" stroke="midnightblue" points="402.986,-100.393 413.547,-99.5514 404.766,-93.6231 402.986,-100.393"/>
</g>
<!-- Node10&#45;&gt;Node6 -->
<g id="edge11" class="edge"><title>Node10&#45;&gt;Node6</title>
<path fill="none" stroke="midnightblue" d="M359.541,-70.8746C368.796,-70.8746 378.45,-70.8746 387.848,-70.8746"/>
<polygon fill="midnightblue" stroke="midnightblue" points="387.913,-74.3747 397.913,-70.8746 387.913,-67.3747 387.913,-74.3747"/>
</g>
<!-- Node10&#45;&gt;Node7 -->
<g id="edge12" class="edge"><title>Node10&#45;&gt;Node7</title>
<path fill="none" stroke="midnightblue" d="M340.963,-61.2856C363.194,-55.4396 391.471,-48.0032 413.52,-42.205"/>
<polygon fill="midnightblue" stroke="midnightblue" points="414.697,-45.5145 423.478,-39.5862 412.917,-38.7447 414.697,-45.5145"/>
</g>
<!-- Node11&#45;&gt;Node3 -->
<g id="edge14" class="edge"><title>Node11&#45;&gt;Node3</title>
<path fill="none" stroke="midnightblue" d="M342.523,-42.4769C349.281,-44.9975 356.054,-48.0985 362,-51.8746 381.639,-64.3461 378.598,-77.0373 398,-89.8746 400.925,-91.8102 404.075,-93.584 407.322,-95.2022"/>
<polygon fill="midnightblue" stroke="midnightblue" points="406.068,-98.4753 416.626,-99.3558 408.922,-92.0833 406.068,-98.4753"/>
</g>
<!-- Node11&#45;&gt;Node6 -->
<g id="edge15" class="edge"><title>Node11&#45;&gt;Node6</title>
<path fill="none" stroke="midnightblue" d="M340.963,-42.4636C359.774,-47.4104 382.915,-53.4958 402.947,-58.7639"/>
<polygon fill="midnightblue" stroke="midnightblue" points="402.237,-62.1961 412.799,-61.3546 404.018,-55.4263 402.237,-62.1961"/>
</g>
<!-- Node11&#45;&gt;Node7 -->
<g id="edge16" class="edge"><title>Node11&#45;&gt;Node7</title>
<path fill="none" stroke="midnightblue" d="M362.025,-32.8746C379.291,-32.8746 397.728,-32.8746 413.164,-32.8746"/>
<polygon fill="midnightblue" stroke="midnightblue" points="413.319,-36.3747 423.319,-32.8746 413.318,-29.3747 413.319,-36.3747"/>
</g>
<!-- Node13&#45;&gt;Node5 -->
<g id="edge19" class="edge"><title>Node13&#45;&gt;Node5</title>
<path fill="none" stroke="midnightblue" d="M605.585,-40.8234C615.264,-43.2984 626.165,-46.0858 636.692,-48.7775"/>
<polygon fill="midnightblue" stroke="midnightblue" points="636.062,-52.2292 646.618,-51.3157 637.797,-45.4474 636.062,-52.2292"/>
</g>
</g>
</svg>
