<?xml version="1.0" encoding="UTF-8" standalone="no"?>
<!DOCTYPE svg PUBLIC "-//W3C//DTD SVG 1.1//EN"
 "http://www.w3.org/Graphics/SVG/1.1/DTD/svg11.dtd">
<!-- Generated by graphviz version 2.38.0 (20140413.2041)
 -->
<!-- Title: radio_settings_view Pages: 1 -->
<svg width="446pt" height="66pt"
 viewBox="0.00 0.00 446.00 66.00" xmlns="http://www.w3.org/2000/svg" xmlns:xlink="http://www.w3.org/1999/xlink">
<g id="graph0" class="graph" transform="scale(1 1) rotate(0) translate(4 62)">
<title>radio_settings_view</title>
<polygon fill="white" stroke="none" points="-4,4 -4,-62 442,-62 442,4 -4,4"/>
<!-- Node1 -->
<g id="node1" class="node"><title>Node1</title>
<polygon fill="#bfbfbf" stroke="black" points="0,-19.5 0,-38.5 101,-38.5 101,-19.5 0,-19.5"/>
<text text-anchor="middle" x="50.5" y="-26.5" font-family="Helvetica,sans-Serif" font-size="10.00">radio_settings_view</text>
</g>
<!-- Node2 -->
<g id="node2" class="node"><title>Node2</title>
<g id="a_node2"><a xlink:href="radio_8h.html#a477656bb91c200d15ddbe6cffcd04c53" target="_top" xlink:title="Store the current settings. ">
<polygon fill="white" stroke="black" points="137,-19.5 137,-38.5 241,-38.5 241,-19.5 137,-19.5"/>
<text text-anchor="middle" x="189" y="-26.5" font-family="Helvetica,sans-Serif" font-size="10.00">radio_store_settings</text>
</a>
</g>
</g>
<!-- Node1&#45;&gt;Node2 -->
<g id="edge1" class="edge"><title>Node1&#45;&gt;Node2</title>
<path fill="none" stroke="midnightblue" d="M101.166,-29C109.403,-29 118.032,-29 126.519,-29"/>
<polygon fill="midnightblue" stroke="midnightblue" points="126.766,-32.5001 136.766,-29 126.766,-25.5001 126.766,-32.5001"/>
</g>
<!-- Node3 -->
<g id="node3" class="node"><title>Node3</title>
<g id="a_node3"><a xlink:href="flash_8h.html#ad9d8a7cadb959b139fea7654d539714a" target="_top" xlink:title="flash_read">
<polygon fill="white" stroke="black" points="278.5,-38.5 278.5,-57.5 339.5,-57.5 339.5,-38.5 278.5,-38.5"/>
<text text-anchor="middle" x="309" y="-45.5" font-family="Helvetica,sans-Serif" font-size="10.00">flash_read</text>
</a>
</g>
</g>
<!-- Node2&#45;&gt;Node3 -->
<g id="edge2" class="edge"><title>Node2&#45;&gt;Node3</title>
<path fill="none" stroke="midnightblue" d="M241.07,-37.2232C250.203,-38.6937 259.594,-40.2058 268.346,-41.6151"/>
<polygon fill="midnightblue" stroke="midnightblue" points="267.844,-45.0793 278.274,-43.2135 268.957,-38.1683 267.844,-45.0793"/>
</g>
<!-- Node4 -->
<g id="node4" class="node"><title>Node4</title>
<g id="a_node4"><a xlink:href="flash_8h.html#a936ded19cea6a94beca2b32349a9ac2c" target="_top" xlink:title="flash_store">
<polygon fill="white" stroke="black" points="277,-0.5 277,-19.5 341,-19.5 341,-0.5 277,-0.5"/>
<text text-anchor="middle" x="309" y="-7.5" font-family="Helvetica,sans-Serif" font-size="10.00">flash_store</text>
</a>
</g>
</g>
<!-- Node2&#45;&gt;Node4 -->
<g id="edge3" class="edge"><title>Node2&#45;&gt;Node4</title>
<path fill="none" stroke="midnightblue" d="M241.07,-20.7768C249.75,-19.3793 258.662,-17.9443 267.038,-16.5956"/>
<polygon fill="midnightblue" stroke="midnightblue" points="267.62,-20.047 276.937,-15.0017 266.507,-13.136 267.62,-20.047"/>
</g>
<!-- Node5 -->
<g id="node5" class="node"><title>Node5</title>
<g id="a_node5"><a xlink:href="flash_8c.html#ad9d8a7cadb959b139fea7654d539714a" target="_top" xlink:title="flash_read">
<polygon fill="white" stroke="black" points="377,-0.5 377,-19.5 438,-19.5 438,-0.5 377,-0.5"/>
<text text-anchor="middle" x="407.5" y="-7.5" font-family="Helvetica,sans-Serif" font-size="10.00">flash_read</text>
</a>
</g>
</g>
<!-- Node4&#45;&gt;Node5 -->
<g id="edge4" class="edge"><title>Node4&#45;&gt;Node5</title>
<path fill="none" stroke="midnightblue" d="M341.064,-10C349.212,-10 358.112,-10 366.649,-10"/>
<polygon fill="midnightblue" stroke="midnightblue" points="366.809,-13.5001 376.809,-10 366.809,-6.5001 366.809,-13.5001"/>
</g>
</g>
</svg>
