<?xml version="1.0" encoding="UTF-8" standalone="no"?>
<!DOCTYPE svg PUBLIC "-//W3C//DTD SVG 1.1//EN"
 "http://www.w3.org/Graphics/SVG/1.1/DTD/svg11.dtd">
<!-- Generated by graphviz version 2.38.0 (20140413.2041)
 -->
<!-- Title: radio_auto_search Pages: 1 -->
<svg width="892pt" height="550pt"
 viewBox="0.00 0.00 892.00 550.00" xmlns="http://www.w3.org/2000/svg" xmlns:xlink="http://www.w3.org/1999/xlink">
<g id="graph0" class="graph" transform="scale(1 1) rotate(0) translate(4 546)">
<title>radio_auto_search</title>
<polygon fill="white" stroke="none" points="-4,4 -4,-546 888,-546 888,4 -4,4"/>
<!-- Node1 -->
<g id="node1" class="node"><title>Node1</title>
<polygon fill="#bfbfbf" stroke="black" points="0,-123.5 0,-142.5 96,-142.5 96,-123.5 0,-123.5"/>
<text text-anchor="middle" x="48" y="-130.5" font-family="Helvetica,sans-Serif" font-size="10.00">radio_auto_search</text>
</g>
<!-- Node2 -->
<g id="node2" class="node"><title>Node2</title>
<g id="a_node2"><a xlink:href="radio_8c.html#aee6321b512830d482a2fc164cf11f9e9" target="_top" xlink:title="radio_seeking">
<polygon fill="white" stroke="black" points="279,-408.5 279,-427.5 356,-427.5 356,-408.5 279,-408.5"/>
<text text-anchor="middle" x="317.5" y="-415.5" font-family="Helvetica,sans-Serif" font-size="10.00">radio_seeking</text>
</a>
</g>
</g>
<!-- Node1&#45;&gt;Node2 -->
<g id="edge1" class="edge"><title>Node1&#45;&gt;Node2</title>
<path fill="none" stroke="midnightblue" d="M57.9255,-142.76C73.0865,-159.32 104.868,-193.954 132,-223 193.59,-288.934 267.54,-366.662 299.933,-400.64"/>
<polygon fill="midnightblue" stroke="midnightblue" points="297.807,-403.481 307.241,-408.302 302.872,-398.65 297.807,-403.481"/>
</g>
<!-- Node12 -->
<g id="node12" class="node"><title>Node12</title>
<g id="a_node12"><a xlink:href="lcd_8h.html#acd63fb85d212730fa4fcbcbeeccd231e" target="_top" xlink:title="lcd_create_view">
<polygon fill="white" stroke="black" points="139,-142.5 139,-161.5 224,-161.5 224,-142.5 139,-142.5"/>
<text text-anchor="middle" x="181.5" y="-149.5" font-family="Helvetica,sans-Serif" font-size="10.00">lcd_create_view</text>
</a>
</g>
</g>
<!-- Node1&#45;&gt;Node12 -->
<g id="edge14" class="edge"><title>Node1&#45;&gt;Node12</title>
<path fill="none" stroke="midnightblue" d="M96.1031,-139.806C106.714,-141.339 118.032,-142.974 128.819,-144.533"/>
<polygon fill="midnightblue" stroke="midnightblue" points="128.561,-148.032 138.959,-145.998 129.562,-141.104 128.561,-148.032"/>
</g>
<!-- Node15 -->
<g id="node15" class="node"><title>Node15</title>
<g id="a_node15"><a xlink:href="timer_8c.html#a276d5cb665b9f8b2c79e53e2f2c5b4f0" target="_top" xlink:title="_delay_ms">
<polygon fill="white" stroke="black" points="577,-142.5 577,-161.5 641,-161.5 641,-142.5 577,-142.5"/>
<text text-anchor="middle" x="609" y="-149.5" font-family="Helvetica,sans-Serif" font-size="10.00">_delay_ms</text>
</a>
</g>
</g>
<!-- Node1&#45;&gt;Node15 -->
<g id="edge23" class="edge"><title>Node1&#45;&gt;Node15</title>
<path fill="none" stroke="midnightblue" d="M96.0747,-129.669C181.186,-124.386 366.204,-116.294 521,-133 536.09,-134.629 552.401,-137.802 566.777,-141.096"/>
<polygon fill="midnightblue" stroke="midnightblue" points="566.319,-144.585 576.857,-143.496 567.94,-137.775 566.319,-144.585"/>
</g>
<!-- Node17 -->
<g id="node17" class="node"><title>Node17</title>
<g id="a_node17"><a xlink:href="string_8c.html#a82b1b882cf97ff40344f87bd1473e9d0" target="_top" xlink:title="string_int_to_array">
<polygon fill="white" stroke="black" points="133,-66.5 133,-85.5 230,-85.5 230,-66.5 133,-66.5"/>
<text text-anchor="middle" x="181.5" y="-73.5" font-family="Helvetica,sans-Serif" font-size="10.00">string_int_to_array</text>
</a>
</g>
</g>
<!-- Node1&#45;&gt;Node17 -->
<g id="edge22" class="edge"><title>Node1&#45;&gt;Node17</title>
<path fill="none" stroke="midnightblue" d="M71.0101,-123.459C92.3448,-114.212 124.924,-100.09 149.002,-89.6532"/>
<polygon fill="midnightblue" stroke="midnightblue" points="150.635,-92.7601 158.418,-85.5716 147.851,-86.3375 150.635,-92.7601"/>
</g>
<!-- Node18 -->
<g id="node18" class="node"><title>Node18</title>
<g id="a_node18"><a xlink:href="radio_8c.html#a1c031719ba892045c773dc035058870f" target="_top" xlink:title="rds_update">
<polygon fill="white" stroke="black" points="285,-275.5 285,-294.5 350,-294.5 350,-275.5 285,-275.5"/>
<text text-anchor="middle" x="317.5" y="-282.5" font-family="Helvetica,sans-Serif" font-size="10.00">rds_update</text>
</a>
</g>
</g>
<!-- Node1&#45;&gt;Node18 -->
<g id="edge24" class="edge"><title>Node1&#45;&gt;Node18</title>
<path fill="none" stroke="midnightblue" d="M65.7333,-142.508C111.052,-168.259 236.401,-239.486 290.778,-270.384"/>
<polygon fill="midnightblue" stroke="midnightblue" points="289.349,-273.598 299.773,-275.495 292.808,-267.512 289.349,-273.598"/>
</g>
<!-- Node22 -->
<g id="node22" class="node"><title>Node22</title>
<g id="a_node22"><a xlink:href="radio_8c.html#a5e5300f73411d8e90a928adf42d2a6ed" target="_top" xlink:title="radio_store_station">
<polygon fill="white" stroke="black" points="132,-28.5 132,-47.5 231,-47.5 231,-28.5 132,-28.5"/>
<text text-anchor="middle" x="181.5" y="-35.5" font-family="Helvetica,sans-Serif" font-size="10.00">radio_store_station</text>
</a>
</g>
</g>
<!-- Node1&#45;&gt;Node22 -->
<g id="edge33" class="edge"><title>Node1&#45;&gt;Node22</title>
<path fill="none" stroke="midnightblue" d="M57.3059,-123.372C71.3192,-107.633 101.16,-76.2232 132,-57 135.007,-55.1254 138.231,-53.3795 141.533,-51.7669"/>
<polygon fill="midnightblue" stroke="midnightblue" points="143.225,-54.8446 150.936,-47.5785 140.377,-48.4502 143.225,-54.8446"/>
</g>
<!-- Node3 -->
<g id="node3" class="node"><title>Node3</title>
<g id="a_node3"><a xlink:href="external__interrupthandler_8h.html#a345dfb9a7e177c5da6eb9dc5b3c82bc9" target="_top" xlink:title="ext_interrupt_enable">
<polygon fill="white" stroke="black" points="410.5,-484.5 410.5,-503.5 514.5,-503.5 514.5,-484.5 410.5,-484.5"/>
<text text-anchor="middle" x="462.5" y="-491.5" font-family="Helvetica,sans-Serif" font-size="10.00">ext_interrupt_enable</text>
</a>
</g>
</g>
<!-- Node2&#45;&gt;Node3 -->
<g id="edge2" class="edge"><title>Node2&#45;&gt;Node3</title>
<path fill="none" stroke="midnightblue" d="M332.643,-427.515C349.296,-438.501 377.989,-456.758 404,-470 411.253,-473.692 419.208,-477.287 426.828,-480.523"/>
<polygon fill="midnightblue" stroke="midnightblue" points="425.642,-483.82 436.221,-484.41 428.319,-477.352 425.642,-483.82"/>
</g>
<!-- Node4 -->
<g id="node4" class="node"><title>Node4</title>
<g id="a_node4"><a xlink:href="si4735_8h.html#a339846da787fb5a496df9252ca7dc9a5" target="_top" xlink:title="si4735_fm_seek_start">
<polygon fill="white" stroke="black" points="406.5,-370.5 406.5,-389.5 518.5,-389.5 518.5,-370.5 406.5,-370.5"/>
<text text-anchor="middle" x="462.5" y="-377.5" font-family="Helvetica,sans-Serif" font-size="10.00">si4735_fm_seek_start</text>
</a>
</g>
</g>
<!-- Node2&#45;&gt;Node4 -->
<g id="edge3" class="edge"><title>Node2&#45;&gt;Node4</title>
<path fill="none" stroke="midnightblue" d="M354.585,-408.411C373.13,-403.483 395.926,-397.425 415.699,-392.171"/>
<polygon fill="midnightblue" stroke="midnightblue" points="416.661,-395.537 425.427,-389.586 414.863,-388.772 416.661,-395.537"/>
</g>
<!-- Node10 -->
<g id="node10" class="node"><title>Node10</title>
<g id="a_node10"><a xlink:href="si4735_8h.html#ad8b515f4991303f8cac978410d736a03" target="_top" xlink:title="si4735_fm_tune_status">
<polygon fill="white" stroke="black" points="404,-408.5 404,-427.5 521,-427.5 521,-408.5 404,-408.5"/>
<text text-anchor="middle" x="462.5" y="-415.5" font-family="Helvetica,sans-Serif" font-size="10.00">si4735_fm_tune_status</text>
</a>
</g>
</g>
<!-- Node2&#45;&gt;Node10 -->
<g id="edge9" class="edge"><title>Node2&#45;&gt;Node10</title>
<path fill="none" stroke="midnightblue" d="M356.072,-418C367.629,-418 380.726,-418 393.663,-418"/>
<polygon fill="midnightblue" stroke="midnightblue" points="393.971,-421.5 403.971,-418 393.971,-414.5 393.971,-421.5"/>
</g>
<!-- Node11 -->
<g id="node11" class="node"><title>Node11</title>
<g id="a_node11"><a xlink:href="external__interrupthandler_8h.html#a67fb5781413cf5c193be332cc6e52209" target="_top" xlink:title="ext_interrupt_disable">
<polygon fill="white" stroke="black" points="409,-522.5 409,-541.5 516,-541.5 516,-522.5 409,-522.5"/>
<text text-anchor="middle" x="462.5" y="-529.5" font-family="Helvetica,sans-Serif" font-size="10.00">ext_interrupt_disable</text>
</a>
</g>
</g>
<!-- Node2&#45;&gt;Node11 -->
<g id="edge13" class="edge"><title>Node2&#45;&gt;Node11</title>
<path fill="none" stroke="midnightblue" d="M324.579,-427.581C337.127,-446.604 367.773,-489.34 404,-513 407.086,-515.016 410.406,-516.836 413.837,-518.476"/>
<polygon fill="midnightblue" stroke="midnightblue" points="412.523,-521.72 423.095,-522.408 415.259,-515.277 412.523,-521.72"/>
</g>
<!-- Node5 -->
<g id="node5" class="node"><title>Node5</title>
<g id="a_node5"><a xlink:href="i2c_8h.html#a6691e5911f539e1e8178c6e983e8079a" target="_top" xlink:title="Transmits I2C commands with a variable length to a I2C slave. ">
<polygon fill="white" stroke="black" points="573,-275.5 573,-294.5 645,-294.5 645,-275.5 573,-275.5"/>
<text text-anchor="middle" x="609" y="-282.5" font-family="Helvetica,sans-Serif" font-size="10.00">i2c_write_var</text>
</a>
</g>
</g>
<!-- Node4&#45;&gt;Node5 -->
<g id="edge4" class="edge"><title>Node4&#45;&gt;Node5</title>
<path fill="none" stroke="midnightblue" d="M478.151,-370.368C503.25,-353.867 554.666,-320.064 584.721,-300.304"/>
<polygon fill="midnightblue" stroke="midnightblue" points="586.877,-303.076 593.311,-294.657 583.032,-297.226 586.877,-303.076"/>
</g>
<!-- Node8 -->
<g id="node8" class="node"><title>Node8</title>
<g id="a_node8"><a xlink:href="si4735_8c.html#aad8341b5b19aa8f962a6b9b940d77960" target="_top" xlink:title="si4735_get_interrupt">
<polygon fill="white" stroke="black" points="557,-389.5 557,-408.5 661,-408.5 661,-389.5 557,-389.5"/>
<text text-anchor="middle" x="609" y="-396.5" font-family="Helvetica,sans-Serif" font-size="10.00">si4735_get_interrupt</text>
</a>
</g>
</g>
<!-- Node4&#45;&gt;Node8 -->
<g id="edge7" class="edge"><title>Node4&#45;&gt;Node8</title>
<path fill="none" stroke="midnightblue" d="M518.541,-387.237C527.796,-388.454 537.45,-389.724 546.848,-390.959"/>
<polygon fill="midnightblue" stroke="midnightblue" points="546.542,-394.449 556.913,-392.283 547.455,-387.509 546.542,-394.449"/>
</g>
<!-- Node9 -->
<g id="node9" class="node"><title>Node9</title>
<g id="a_node9"><a xlink:href="i2c_8h.html#a6dd896b0c82d1aa91a1a8155b41c4566" target="_top" xlink:title="Receives I2C commands until a NACK is received or received RxBytes. ">
<polygon fill="white" stroke="black" points="582.5,-341.5 582.5,-360.5 635.5,-360.5 635.5,-341.5 582.5,-341.5"/>
<text text-anchor="middle" x="609" y="-348.5" font-family="Helvetica,sans-Serif" font-size="10.00">i2c_read</text>
</a>
</g>
</g>
<!-- Node4&#45;&gt;Node9 -->
<g id="edge8" class="edge"><title>Node4&#45;&gt;Node9</title>
<path fill="none" stroke="midnightblue" d="M511.215,-370.424C531.099,-366.433 553.796,-361.878 572.21,-358.183"/>
<polygon fill="midnightblue" stroke="midnightblue" points="573.113,-361.571 582.229,-356.172 571.736,-354.708 573.113,-361.571"/>
</g>
<!-- Node6 -->
<g id="node6" class="node"><title>Node6</title>
<g id="a_node6"><a xlink:href="i2c_8c.html#ae0625b97d3437bcaca4ac4b96dd01978" target="_top" xlink:title="Transmits I2C command array to a I2C slave. ">
<polygon fill="white" stroke="black" points="697,-275.5 697,-294.5 768,-294.5 768,-275.5 697,-275.5"/>
<text text-anchor="middle" x="732.5" y="-282.5" font-family="Helvetica,sans-Serif" font-size="10.00">i2c_write_arr</text>
</a>
</g>
</g>
<!-- Node5&#45;&gt;Node6 -->
<g id="edge5" class="edge"><title>Node5&#45;&gt;Node6</title>
<path fill="none" stroke="midnightblue" d="M645.143,-285C658.1,-285 672.959,-285 686.657,-285"/>
<polygon fill="midnightblue" stroke="midnightblue" points="686.856,-288.5 696.856,-285 686.856,-281.5 686.856,-288.5"/>
</g>
<!-- Node7 -->
<g id="node7" class="node"><title>Node7</title>
<g id="a_node7"><a xlink:href="timer_8c.html#a3c56af3315c2461dec5ced585a5f84db" target="_top" xlink:title="_delay_ten_us">
<polygon fill="white" stroke="black" points="804,-275.5 804,-294.5 884,-294.5 884,-275.5 804,-275.5"/>
<text text-anchor="middle" x="844" y="-282.5" font-family="Helvetica,sans-Serif" font-size="10.00">_delay_ten_us</text>
</a>
</g>
</g>
<!-- Node6&#45;&gt;Node7 -->
<g id="edge6" class="edge"><title>Node6&#45;&gt;Node7</title>
<path fill="none" stroke="midnightblue" d="M768.146,-285C776.165,-285 784.851,-285 793.37,-285"/>
<polygon fill="midnightblue" stroke="midnightblue" points="793.623,-288.5 803.623,-285 793.623,-281.5 793.623,-288.5"/>
</g>
<!-- Node10&#45;&gt;Node5 -->
<g id="edge10" class="edge"><title>Node10&#45;&gt;Node5</title>
<path fill="none" stroke="midnightblue" d="M505.398,-408.392C511.014,-405.933 516.411,-402.853 521,-399 546.889,-377.263 536.284,-358.713 557,-332 565.762,-320.701 577.369,-309.772 587.296,-301.3"/>
<polygon fill="midnightblue" stroke="midnightblue" points="589.669,-303.88 595.141,-294.807 585.206,-298.487 589.669,-303.88"/>
</g>
<!-- Node10&#45;&gt;Node8 -->
<g id="edge11" class="edge"><title>Node10&#45;&gt;Node8</title>
<path fill="none" stroke="midnightblue" d="M521.025,-410.436C529.511,-409.32 538.279,-408.167 546.835,-407.042"/>
<polygon fill="midnightblue" stroke="midnightblue" points="547.293,-410.512 556.751,-405.739 546.38,-403.572 547.293,-410.512"/>
</g>
<!-- Node10&#45;&gt;Node9 -->
<g id="edge12" class="edge"><title>Node10&#45;&gt;Node9</title>
<path fill="none" stroke="midnightblue" d="M495.83,-408.48C504.147,-405.716 513.003,-402.492 521,-399 527.246,-396.273 558.931,-378.623 582.269,-365.513"/>
<polygon fill="midnightblue" stroke="midnightblue" points="584.043,-368.53 591.042,-360.577 580.611,-362.429 584.043,-368.53"/>
</g>
<!-- Node13 -->
<g id="node13" class="node"><title>Node13</title>
<g id="a_node13"><a xlink:href="lcd_8c.html#a2a4df97ebc5b396233aa31765228ef42" target="_top" xlink:title="lcd_set_courser">
<polygon fill="white" stroke="black" points="274.5,-142.5 274.5,-161.5 360.5,-161.5 360.5,-142.5 274.5,-142.5"/>
<text text-anchor="middle" x="317.5" y="-149.5" font-family="Helvetica,sans-Serif" font-size="10.00">lcd_set_courser</text>
</a>
</g>
</g>
<!-- Node12&#45;&gt;Node13 -->
<g id="edge15" class="edge"><title>Node12&#45;&gt;Node13</title>
<path fill="none" stroke="midnightblue" d="M224.164,-152C236.773,-152 250.787,-152 264.009,-152"/>
<polygon fill="midnightblue" stroke="midnightblue" points="264.4,-155.5 274.4,-152 264.4,-148.5 264.4,-155.5"/>
</g>
<!-- Node16 -->
<g id="node16" class="node"><title>Node16</title>
<g id="a_node16"><a xlink:href="lcd_8c.html#aa6e1aa2ef9b677e16d8198df683429ec" target="_top" xlink:title="lcd_write_string">
<polygon fill="white" stroke="black" points="275.5,-180.5 275.5,-199.5 359.5,-199.5 359.5,-180.5 275.5,-180.5"/>
<text text-anchor="middle" x="317.5" y="-187.5" font-family="Helvetica,sans-Serif" font-size="10.00">lcd_write_string</text>
</a>
</g>
</g>
<!-- Node12&#45;&gt;Node16 -->
<g id="edge20" class="edge"><title>Node12&#45;&gt;Node16</title>
<path fill="none" stroke="midnightblue" d="M216.314,-161.589C233.533,-166.472 254.664,-172.464 273.073,-177.685"/>
<polygon fill="midnightblue" stroke="midnightblue" points="272.121,-181.053 282.697,-180.414 274.031,-174.319 272.121,-181.053"/>
</g>
<!-- Node14 -->
<g id="node14" class="node"><title>Node14</title>
<g id="a_node14"><a xlink:href="lcd_8c.html#a250728451a22259562d3f01a12bbd77b" target="_top" xlink:title="lcd_command">
<polygon fill="white" stroke="black" points="424,-142.5 424,-161.5 501,-161.5 501,-142.5 424,-142.5"/>
<text text-anchor="middle" x="462.5" y="-149.5" font-family="Helvetica,sans-Serif" font-size="10.00">lcd_command</text>
</a>
</g>
</g>
<!-- Node13&#45;&gt;Node14 -->
<g id="edge16" class="edge"><title>Node13&#45;&gt;Node14</title>
<path fill="none" stroke="midnightblue" d="M360.631,-152C377.142,-152 396.181,-152 413.24,-152"/>
<polygon fill="midnightblue" stroke="midnightblue" points="413.566,-155.5 423.566,-152 413.566,-148.5 413.566,-155.5"/>
</g>
<!-- Node14&#45;&gt;Node5 -->
<g id="edge17" class="edge"><title>Node14&#45;&gt;Node5</title>
<path fill="none" stroke="midnightblue" d="M497.474,-161.57C505.863,-165.107 514.342,-169.816 521,-176 546.924,-200.077 534.211,-219.936 557,-247 564.254,-255.615 573.824,-263.398 582.713,-269.643"/>
<polygon fill="midnightblue" stroke="midnightblue" points="581.003,-272.71 591.263,-275.351 584.889,-266.888 581.003,-272.71"/>
</g>
<!-- Node14&#45;&gt;Node15 -->
<g id="edge18" class="edge"><title>Node14&#45;&gt;Node15</title>
<path fill="none" stroke="midnightblue" d="M501.088,-152C521.262,-152 546.16,-152 566.852,-152"/>
<polygon fill="midnightblue" stroke="midnightblue" points="566.936,-155.5 576.936,-152 566.936,-148.5 566.936,-155.5"/>
</g>
<!-- Node15&#45;&gt;Node7 -->
<g id="edge19" class="edge"><title>Node15&#45;&gt;Node7</title>
<path fill="none" stroke="midnightblue" d="M626.757,-161.565C666.962,-184.515 769.123,-242.83 817.218,-270.283"/>
<polygon fill="midnightblue" stroke="midnightblue" points="815.662,-273.425 826.082,-275.343 819.132,-267.346 815.662,-273.425"/>
</g>
<!-- Node16&#45;&gt;Node5 -->
<g id="edge21" class="edge"><title>Node16&#45;&gt;Node5</title>
<path fill="none" stroke="midnightblue" d="M359.553,-185.678C402.137,-183.006 469.566,-183.965 521,-209 541.918,-219.182 539.608,-231.548 557,-247 565.883,-254.892 576.309,-262.863 585.412,-269.453"/>
<polygon fill="midnightblue" stroke="midnightblue" points="583.461,-272.361 593.64,-275.3 587.516,-266.654 583.461,-272.361"/>
</g>
<!-- Node18&#45;&gt;Node5 -->
<g id="edge28" class="edge"><title>Node18&#45;&gt;Node5</title>
<path fill="none" stroke="midnightblue" d="M350.033,-285C401.46,-285 503.579,-285 562.741,-285"/>
<polygon fill="midnightblue" stroke="midnightblue" points="562.913,-288.5 572.913,-285 562.913,-281.5 562.913,-288.5"/>
</g>
<!-- Node18&#45;&gt;Node7 -->
<g id="edge32" class="edge"><title>Node18&#45;&gt;Node7</title>
<path fill="none" stroke="midnightblue" d="M322.391,-294.611C335.077,-325.417 376.035,-420.645 404,-437 448.887,-463.252 469.118,-440.504 521,-437 583.65,-432.768 602.756,-441.465 661,-418 729.643,-390.345 796.183,-330.976 826.273,-301.835"/>
<polygon fill="midnightblue" stroke="midnightblue" points="828.761,-304.296 833.441,-294.791 823.855,-299.303 828.761,-304.296"/>
</g>
<!-- Node18&#45;&gt;Node9 -->
<g id="edge29" class="edge"><title>Node18&#45;&gt;Node9</title>
<path fill="none" stroke="midnightblue" d="M335.966,-294.521C352.871,-303.308 379.472,-316.018 404,-323 461.566,-339.386 531.091,-346.315 572.31,-349.149"/>
<polygon fill="midnightblue" stroke="midnightblue" points="572.199,-352.649 582.404,-349.799 572.65,-345.663 572.199,-352.649"/>
</g>
<!-- Node19 -->
<g id="node19" class="node"><title>Node19</title>
<g id="a_node19"><a xlink:href="rds_8c.html#ad4168f8a33d30a3526e416da5997baa9" target="_top" xlink:title="rds_triggered">
<polygon fill="white" stroke="black" points="426,-294.5 426,-313.5 499,-313.5 499,-294.5 426,-294.5"/>
<text text-anchor="middle" x="462.5" y="-301.5" font-family="Helvetica,sans-Serif" font-size="10.00">rds_triggered</text>
</a>
</g>
</g>
<!-- Node18&#45;&gt;Node19 -->
<g id="edge25" class="edge"><title>Node18&#45;&gt;Node19</title>
<path fill="none" stroke="midnightblue" d="M350.236,-289.217C369.47,-291.772 394.333,-295.076 415.675,-297.911"/>
<polygon fill="midnightblue" stroke="midnightblue" points="415.456,-301.413 425.83,-299.261 416.378,-294.474 415.456,-301.413"/>
</g>
<!-- Node20 -->
<g id="node20" class="node"><title>Node20</title>
<g id="a_node20"><a xlink:href="rds_8c.html#a33e5a772a8a82d668cc39ebfd4ba37a4" target="_top" xlink:title="rds_group_4A">
<polygon fill="white" stroke="black" points="424,-218.5 424,-237.5 501,-237.5 501,-218.5 424,-218.5"/>
<text text-anchor="middle" x="462.5" y="-225.5" font-family="Helvetica,sans-Serif" font-size="10.00">rds_group_4A</text>
</a>
</g>
</g>
<!-- Node18&#45;&gt;Node20 -->
<g id="edge30" class="edge"><title>Node18&#45;&gt;Node20</title>
<path fill="none" stroke="midnightblue" d="M342.435,-275.459C365.842,-266.13 401.695,-251.838 427.943,-241.376"/>
<polygon fill="midnightblue" stroke="midnightblue" points="429.494,-244.526 437.487,-237.572 426.902,-238.023 429.494,-244.526"/>
</g>
<!-- Node19&#45;&gt;Node5 -->
<g id="edge26" class="edge"><title>Node19&#45;&gt;Node5</title>
<path fill="none" stroke="midnightblue" d="M499.219,-299.303C518.38,-296.784 542.193,-293.653 562.649,-290.963"/>
<polygon fill="midnightblue" stroke="midnightblue" points="563.233,-294.416 572.692,-289.643 562.321,-287.476 563.233,-294.416"/>
</g>
<!-- Node19&#45;&gt;Node9 -->
<g id="edge27" class="edge"><title>Node19&#45;&gt;Node9</title>
<path fill="none" stroke="midnightblue" d="M492.742,-313.511C515.791,-321.008 548.021,-331.491 572.541,-339.467"/>
<polygon fill="midnightblue" stroke="midnightblue" points="571.6,-342.841 582.192,-342.606 573.765,-336.184 571.6,-342.841"/>
</g>
<!-- Node21 -->
<g id="node21" class="node"><title>Node21</title>
<g id="a_node21"><a xlink:href="time_8c.html#a6b341bdccd1c2c5503da84093f12e145" target="_top" xlink:title="time_set_time">
<polygon fill="white" stroke="black" points="570,-218.5 570,-237.5 648,-237.5 648,-218.5 570,-218.5"/>
<text text-anchor="middle" x="609" y="-225.5" font-family="Helvetica,sans-Serif" font-size="10.00">time_set_time</text>
</a>
</g>
</g>
<!-- Node20&#45;&gt;Node21 -->
<g id="edge31" class="edge"><title>Node20&#45;&gt;Node21</title>
<path fill="none" stroke="midnightblue" d="M501.088,-228C519.022,-228 540.689,-228 559.816,-228"/>
<polygon fill="midnightblue" stroke="midnightblue" points="559.846,-231.5 569.846,-228 559.846,-224.5 559.846,-231.5"/>
</g>
<!-- Node23 -->
<g id="node23" class="node"><title>Node23</title>
<g id="a_node23"><a xlink:href="string_8c.html#a0e45f80d2057e44647b21fd530fe185d" target="_top" xlink:title="string_fixedpoint_to\l_array">
<polygon fill="white" stroke="black" points="267,-39 267,-69 368,-69 368,-39 267,-39"/>
<text text-anchor="start" x="275" y="-57" font-family="Helvetica,sans-Serif" font-size="10.00">string_fixedpoint_to</text>
<text text-anchor="middle" x="317.5" y="-46" font-family="Helvetica,sans-Serif" font-size="10.00">_array</text>
</a>
</g>
</g>
<!-- Node22&#45;&gt;Node23 -->
<g id="edge34" class="edge"><title>Node22&#45;&gt;Node23</title>
<path fill="none" stroke="midnightblue" d="M231.256,-43.8216C239.449,-44.7999 248.036,-45.8252 256.474,-46.8327"/>
<polygon fill="midnightblue" stroke="midnightblue" points="256.311,-50.338 266.655,-48.0484 257.141,-43.3874 256.311,-50.338"/>
</g>
<!-- Node24 -->
<g id="node24" class="node"><title>Node24</title>
<g id="a_node24"><a xlink:href="flash_8h.html#a936ded19cea6a94beca2b32349a9ac2c" target="_top" xlink:title="flash_store">
<polygon fill="white" stroke="black" points="285.5,-0.5 285.5,-19.5 349.5,-19.5 349.5,-0.5 285.5,-0.5"/>
<text text-anchor="middle" x="317.5" y="-7.5" font-family="Helvetica,sans-Serif" font-size="10.00">flash_store</text>
</a>
</g>
</g>
<!-- Node22&#45;&gt;Node24 -->
<g id="edge35" class="edge"><title>Node22&#45;&gt;Node24</title>
<path fill="none" stroke="midnightblue" d="M228.24,-28.4423C243.518,-25.25 260.44,-21.714 275.347,-18.5992"/>
<polygon fill="midnightblue" stroke="midnightblue" points="276.227,-21.991 285.3,-16.5195 274.795,-15.1389 276.227,-21.991"/>
</g>
<!-- Node25 -->
<g id="node25" class="node"><title>Node25</title>
<g id="a_node25"><a xlink:href="flash_8c.html#ad9d8a7cadb959b139fea7654d539714a" target="_top" xlink:title="flash_read">
<polygon fill="white" stroke="black" points="432,-0.5 432,-19.5 493,-19.5 493,-0.5 432,-0.5"/>
<text text-anchor="middle" x="462.5" y="-7.5" font-family="Helvetica,sans-Serif" font-size="10.00">flash_read</text>
</a>
</g>
</g>
<!-- Node24&#45;&gt;Node25 -->
<g id="edge36" class="edge"><title>Node24&#45;&gt;Node25</title>
<path fill="none" stroke="midnightblue" d="M349.529,-10C370.757,-10 399.081,-10 421.93,-10"/>
<polygon fill="midnightblue" stroke="midnightblue" points="421.998,-13.5001 431.998,-10 421.998,-6.5001 421.998,-13.5001"/>
</g>
</g>
</svg>
