<?xml version="1.0" encoding="UTF-8" standalone="no"?>
<!DOCTYPE svg PUBLIC "-//W3C//DTD SVG 1.1//EN"
 "http://www.w3.org/Graphics/SVG/1.1/DTD/svg11.dtd">
<!-- Generated by graphviz version 2.38.0 (20140413.2041)
 -->
<!-- Title: radio_settings_equalizer Pages: 1 -->
<svg width="632pt" height="104pt"
 viewBox="0.00 0.00 632.00 104.00" xmlns="http://www.w3.org/2000/svg" xmlns:xlink="http://www.w3.org/1999/xlink">
<g id="graph0" class="graph" transform="scale(1 1) rotate(0) translate(4 100)">
<title>radio_settings_equalizer</title>
<polygon fill="white" stroke="none" points="-4,4 -4,-100 628,-100 628,4 -4,4"/>
<!-- Node1 -->
<g id="node1" class="node"><title>Node1</title>
<polygon fill="#bfbfbf" stroke="black" points="0,-57.5 0,-76.5 122,-76.5 122,-57.5 0,-57.5"/>
<text text-anchor="middle" x="61" y="-64.5" font-family="Helvetica,sans-Serif" font-size="10.00">radio_settings_equalizer</text>
</g>
<!-- Node2 -->
<g id="node2" class="node"><title>Node2</title>
<g id="a_node2"><a xlink:href="tpa2016d2_8c.html#a721d219e9bfdf0b5b266ff3f952772fd" target="_top" xlink:title="tpa2016d2_equalizer_mode">
<polygon fill="white" stroke="black" points="158,-76.5 158,-95.5 293,-95.5 293,-76.5 158,-76.5"/>
<text text-anchor="middle" x="225.5" y="-83.5" font-family="Helvetica,sans-Serif" font-size="10.00">tpa2016d2_equalizer_mode</text>
</a>
</g>
</g>
<!-- Node1&#45;&gt;Node2 -->
<g id="edge1" class="edge"><title>Node1&#45;&gt;Node2</title>
<path fill="none" stroke="midnightblue" d="M122.047,-74.0209C130.43,-75.0011 139.137,-76.019 147.775,-77.029"/>
<polygon fill="midnightblue" stroke="midnightblue" points="147.521,-80.5232 157.86,-78.2083 148.334,-73.5705 147.521,-80.5232"/>
</g>
<!-- Node6 -->
<g id="node6" class="node"><title>Node6</title>
<g id="a_node6"><a xlink:href="radio_8h.html#a477656bb91c200d15ddbe6cffcd04c53" target="_top" xlink:title="Store the current settings. ">
<polygon fill="white" stroke="black" points="173.5,-38.5 173.5,-57.5 277.5,-57.5 277.5,-38.5 173.5,-38.5"/>
<text text-anchor="middle" x="225.5" y="-45.5" font-family="Helvetica,sans-Serif" font-size="10.00">radio_store_settings</text>
</a>
</g>
</g>
<!-- Node1&#45;&gt;Node6 -->
<g id="edge5" class="edge"><title>Node1&#45;&gt;Node6</title>
<path fill="none" stroke="midnightblue" d="M122.047,-59.9791C135.448,-58.4123 149.676,-56.7487 163.129,-55.1757"/>
<polygon fill="midnightblue" stroke="midnightblue" points="163.713,-58.6313 173.239,-53.9936 162.9,-51.6787 163.713,-58.6313"/>
</g>
<!-- Node3 -->
<g id="node3" class="node"><title>Node3</title>
<g id="a_node3"><a xlink:href="i2c_8h.html#a6691e5911f539e1e8178c6e983e8079a" target="_top" xlink:title="Transmits I2C commands with a variable length to a I2C slave. ">
<polygon fill="white" stroke="black" points="329,-76.5 329,-95.5 401,-95.5 401,-76.5 329,-76.5"/>
<text text-anchor="middle" x="365" y="-83.5" font-family="Helvetica,sans-Serif" font-size="10.00">i2c_write_var</text>
</a>
</g>
</g>
<!-- Node2&#45;&gt;Node3 -->
<g id="edge2" class="edge"><title>Node2&#45;&gt;Node3</title>
<path fill="none" stroke="midnightblue" d="M293.236,-86C301.896,-86 310.599,-86 318.793,-86"/>
<polygon fill="midnightblue" stroke="midnightblue" points="318.861,-89.5001 328.861,-86 318.861,-82.5001 318.861,-89.5001"/>
</g>
<!-- Node4 -->
<g id="node4" class="node"><title>Node4</title>
<g id="a_node4"><a xlink:href="i2c_8c.html#ae0625b97d3437bcaca4ac4b96dd01978" target="_top" xlink:title="Transmits I2C command array to a I2C slave. ">
<polygon fill="white" stroke="black" points="437,-76.5 437,-95.5 508,-95.5 508,-76.5 437,-76.5"/>
<text text-anchor="middle" x="472.5" y="-83.5" font-family="Helvetica,sans-Serif" font-size="10.00">i2c_write_arr</text>
</a>
</g>
</g>
<!-- Node3&#45;&gt;Node4 -->
<g id="edge3" class="edge"><title>Node3&#45;&gt;Node4</title>
<path fill="none" stroke="midnightblue" d="M401.13,-86C409.312,-86 418.133,-86 426.671,-86"/>
<polygon fill="midnightblue" stroke="midnightblue" points="426.882,-89.5001 436.882,-86 426.882,-82.5001 426.882,-89.5001"/>
</g>
<!-- Node5 -->
<g id="node5" class="node"><title>Node5</title>
<g id="a_node5"><a xlink:href="timer_8c.html#a3c56af3315c2461dec5ced585a5f84db" target="_top" xlink:title="_delay_ten_us">
<polygon fill="white" stroke="black" points="544,-76.5 544,-95.5 624,-95.5 624,-76.5 544,-76.5"/>
<text text-anchor="middle" x="584" y="-83.5" font-family="Helvetica,sans-Serif" font-size="10.00">_delay_ten_us</text>
</a>
</g>
</g>
<!-- Node4&#45;&gt;Node5 -->
<g id="edge4" class="edge"><title>Node4&#45;&gt;Node5</title>
<path fill="none" stroke="midnightblue" d="M508.146,-86C516.165,-86 524.851,-86 533.37,-86"/>
<polygon fill="midnightblue" stroke="midnightblue" points="533.623,-89.5001 543.623,-86 533.623,-82.5001 533.623,-89.5001"/>
</g>
<!-- Node7 -->
<g id="node7" class="node"><title>Node7</title>
<g id="a_node7"><a xlink:href="flash_8h.html#ad9d8a7cadb959b139fea7654d539714a" target="_top" xlink:title="flash_read">
<polygon fill="white" stroke="black" points="334.5,-38.5 334.5,-57.5 395.5,-57.5 395.5,-38.5 334.5,-38.5"/>
<text text-anchor="middle" x="365" y="-45.5" font-family="Helvetica,sans-Serif" font-size="10.00">flash_read</text>
</a>
</g>
</g>
<!-- Node6&#45;&gt;Node7 -->
<g id="edge6" class="edge"><title>Node6&#45;&gt;Node7</title>
<path fill="none" stroke="midnightblue" d="M277.7,-48C293.06,-48 309.673,-48 324.183,-48"/>
<polygon fill="midnightblue" stroke="midnightblue" points="324.329,-51.5001 334.329,-48 324.329,-44.5001 324.329,-51.5001"/>
</g>
<!-- Node8 -->
<g id="node8" class="node"><title>Node8</title>
<g id="a_node8"><a xlink:href="flash_8h.html#a936ded19cea6a94beca2b32349a9ac2c" target="_top" xlink:title="flash_store">
<polygon fill="white" stroke="black" points="333,-0.5 333,-19.5 397,-19.5 397,-0.5 333,-0.5"/>
<text text-anchor="middle" x="365" y="-7.5" font-family="Helvetica,sans-Serif" font-size="10.00">flash_store</text>
</a>
</g>
</g>
<!-- Node6&#45;&gt;Node8 -->
<g id="edge7" class="edge"><title>Node6&#45;&gt;Node8</title>
<path fill="none" stroke="midnightblue" d="M261.197,-38.411C279.895,-33.2434 303.09,-26.8333 322.713,-21.4104"/>
<polygon fill="midnightblue" stroke="midnightblue" points="323.899,-24.7137 332.606,-18.6763 322.035,-17.9666 323.899,-24.7137"/>
</g>
<!-- Node9 -->
<g id="node9" class="node"><title>Node9</title>
<g id="a_node9"><a xlink:href="flash_8c.html#ad9d8a7cadb959b139fea7654d539714a" target="_top" xlink:title="flash_read">
<polygon fill="white" stroke="black" points="442,-0.5 442,-19.5 503,-19.5 503,-0.5 442,-0.5"/>
<text text-anchor="middle" x="472.5" y="-7.5" font-family="Helvetica,sans-Serif" font-size="10.00">flash_read</text>
</a>
</g>
</g>
<!-- Node8&#45;&gt;Node9 -->
<g id="edge8" class="edge"><title>Node8&#45;&gt;Node9</title>
<path fill="none" stroke="midnightblue" d="M397.083,-10C407.879,-10 420.141,-10 431.552,-10"/>
<polygon fill="midnightblue" stroke="midnightblue" points="431.726,-13.5001 441.726,-10 431.726,-6.5001 431.726,-13.5001"/>
</g>
</g>
</svg>
