<?xml version="1.0" encoding="UTF-8" standalone="no"?>
<!DOCTYPE svg PUBLIC "-//W3C//DTD SVG 1.1//EN"
 "http://www.w3.org/Graphics/SVG/1.1/DTD/svg11.dtd">
<!-- Generated by graphviz version 2.38.0 (20140413.2041)
 -->
<!-- Title: system/src/rds.c Pages: 1 -->
<svg width="507pt" height="442pt"
 viewBox="0.00 0.00 506.50 442.00" xmlns="http://www.w3.org/2000/svg" xmlns:xlink="http://www.w3.org/1999/xlink">
<g id="graph0" class="graph" transform="scale(1 1) rotate(0) translate(4 438)">
<title>system/src/rds.c</title>
<polygon fill="white" stroke="none" points="-4,4 -4,-438 502.5,-438 502.5,4 -4,4"/>
<!-- Node1 -->
<g id="node1" class="node"><title>Node1</title>
<polygon fill="#bfbfbf" stroke="black" points="196,-414.5 196,-433.5 286,-433.5 286,-414.5 196,-414.5"/>
<text text-anchor="middle" x="241" y="-421.5" font-family="Helvetica,sans-Serif" font-size="10.00">system/src/rds.c</text>
</g>
<!-- Node2 -->
<g id="node2" class="node"><title>Node2</title>
<g id="a_node2"><a xlink:href="rds_8h.html" target="_top" xlink:title="system/rds.h">
<polygon fill="white" stroke="black" points="204,-358.5 204,-377.5 278,-377.5 278,-358.5 204,-358.5"/>
<text text-anchor="middle" x="241" y="-365.5" font-family="Helvetica,sans-Serif" font-size="10.00">system/rds.h</text>
</a>
</g>
</g>
<!-- Node1&#45;&gt;Node2 -->
<g id="edge1" class="edge"><title>Node1&#45;&gt;Node2</title>
<path fill="none" stroke="midnightblue" d="M241,-414.083C241,-407.006 241,-396.861 241,-387.986"/>
<polygon fill="midnightblue" stroke="midnightblue" points="244.5,-387.751 241,-377.751 237.5,-387.751 244.5,-387.751"/>
</g>
<!-- Node3 -->
<g id="node3" class="node"><title>Node3</title>
<polygon fill="white" stroke="#bfbfbf" points="179.5,-0.5 179.5,-19.5 228.5,-19.5 228.5,-0.5 179.5,-0.5"/>
<text text-anchor="middle" x="204" y="-7.5" font-family="Helvetica,sans-Serif" font-size="10.00">stdint.h</text>
</g>
<!-- Node2&#45;&gt;Node3 -->
<g id="edge2" class="edge"><title>Node2&#45;&gt;Node3</title>
<path fill="none" stroke="midnightblue" d="M203.872,-365.692C136.269,-361.116 0,-340.815 0,-251.5 0,-251.5 0,-251.5 0,-132 0,-54.2756 110.9,-25.3864 169.165,-15.572"/>
<polygon fill="midnightblue" stroke="midnightblue" points="170.063,-18.9736 179.393,-13.954 168.969,-12.0596 170.063,-18.9736"/>
</g>
<!-- Node4 -->
<g id="node4" class="node"><title>Node4</title>
<g id="a_node4"><a xlink:href="i2c_8h.html" target="_top" xlink:title="I2C implemtation for MSP430G2553, interrupt based. &#160;&#160;This implemtation based on examples from Texas I...">
<polygon fill="white" stroke="black" points="178.5,-241 178.5,-260 241.5,-260 241.5,-241 178.5,-241"/>
<text text-anchor="middle" x="210" y="-248" font-family="Helvetica,sans-Serif" font-size="10.00">driver/i2c.h</text>
</a>
</g>
</g>
<!-- Node2&#45;&gt;Node4 -->
<g id="edge3" class="edge"><title>Node2&#45;&gt;Node4</title>
<path fill="none" stroke="midnightblue" d="M238.67,-358.319C233.666,-339.673 221.794,-295.443 215.001,-270.132"/>
<polygon fill="midnightblue" stroke="midnightblue" points="218.33,-269.033 212.357,-260.282 211.569,-270.847 218.33,-269.033"/>
</g>
<!-- Node8 -->
<g id="node8" class="node"><title>Node8</title>
<g id="a_node8"><a xlink:href="timer_8h.html" target="_top" xlink:title="driver/timer.h">
<polygon fill="white" stroke="black" points="278,-179.5 278,-198.5 350,-198.5 350,-179.5 278,-179.5"/>
<text text-anchor="middle" x="314" y="-186.5" font-family="Helvetica,sans-Serif" font-size="10.00">driver/timer.h</text>
</a>
</g>
</g>
<!-- Node2&#45;&gt;Node8 -->
<g id="edge21" class="edge"><title>Node2&#45;&gt;Node8</title>
<path fill="none" stroke="midnightblue" d="M244.521,-358.463C255.767,-331.195 290.993,-245.783 306.521,-208.133"/>
<polygon fill="midnightblue" stroke="midnightblue" points="309.765,-209.447 310.342,-198.868 303.294,-206.779 309.765,-209.447"/>
</g>
<!-- Node11 -->
<g id="node11" class="node"><title>Node11</title>
<g id="a_node11"><a xlink:href="si4735_8h.html" target="_top" xlink:title="driver/si4735.h">
<polygon fill="white" stroke="black" points="133.5,-302.5 133.5,-321.5 212.5,-321.5 212.5,-302.5 133.5,-302.5"/>
<text text-anchor="middle" x="173" y="-309.5" font-family="Helvetica,sans-Serif" font-size="10.00">driver/si4735.h</text>
</a>
</g>
</g>
<!-- Node2&#45;&gt;Node11 -->
<g id="edge14" class="edge"><title>Node2&#45;&gt;Node11</title>
<path fill="none" stroke="midnightblue" d="M230.075,-358.324C219.825,-350.185 204.279,-337.839 191.999,-328.087"/>
<polygon fill="midnightblue" stroke="midnightblue" points="194.132,-325.312 184.124,-321.834 189.779,-330.794 194.132,-325.312"/>
</g>
<!-- Node13 -->
<g id="node13" class="node"><title>Node13</title>
<g id="a_node13"><a xlink:href="time_8h.html" target="_top" xlink:title="system/time.h">
<polygon fill="white" stroke="black" points="419.5,-62 419.5,-81 498.5,-81 498.5,-62 419.5,-62"/>
<text text-anchor="middle" x="459" y="-69" font-family="Helvetica,sans-Serif" font-size="10.00">system/time.h</text>
</a>
</g>
</g>
<!-- Node2&#45;&gt;Node13 -->
<g id="edge19" class="edge"><title>Node2&#45;&gt;Node13</title>
<path fill="none" stroke="midnightblue" d="M278.49,-364.221C341.542,-357.283 462,-333.322 462,-251.5 462,-251.5 462,-251.5 462,-188 462,-153.852 460.673,-114.045 459.784,-91.2053"/>
<polygon fill="midnightblue" stroke="midnightblue" points="463.281,-91.0419 459.38,-81.1914 456.287,-91.3245 463.281,-91.0419"/>
</g>
<!-- Node4&#45;&gt;Node3 -->
<g id="edge4" class="edge"><title>Node4&#45;&gt;Node3</title>
<path fill="none" stroke="midnightblue" d="M198.583,-240.929C187.594,-231.895 171.688,-216.558 165,-199 142.096,-138.87 175.906,-62.5303 193.925,-28.6136"/>
<polygon fill="midnightblue" stroke="midnightblue" points="197.177,-29.9635 198.93,-19.5146 191.043,-26.5899 197.177,-29.9635"/>
</g>
<!-- Node5 -->
<g id="node5" class="node"><title>Node5</title>
<polygon fill="white" stroke="#bfbfbf" points="174.5,-123.5 174.5,-142.5 233.5,-142.5 233.5,-123.5 174.5,-123.5"/>
<text text-anchor="middle" x="204" y="-130.5" font-family="Helvetica,sans-Serif" font-size="10.00">msp430.h</text>
</g>
<!-- Node4&#45;&gt;Node5 -->
<g id="edge5" class="edge"><title>Node4&#45;&gt;Node5</title>
<path fill="none" stroke="midnightblue" d="M215.805,-240.848C223.973,-227.583 237.204,-201.4 231,-179 228.208,-168.921 222.491,-158.832 217.033,-150.769"/>
<polygon fill="midnightblue" stroke="midnightblue" points="219.847,-148.688 211.151,-142.636 214.175,-152.79 219.847,-148.688"/>
</g>
<!-- Node6 -->
<g id="node6" class="node"><title>Node6</title>
<polygon fill="white" stroke="#bfbfbf" points="174,-179.5 174,-198.5 222,-198.5 222,-179.5 174,-179.5"/>
<text text-anchor="middle" x="198" y="-186.5" font-family="Helvetica,sans-Serif" font-size="10.00">stdlib.h</text>
</g>
<!-- Node4&#45;&gt;Node6 -->
<g id="edge6" class="edge"><title>Node4&#45;&gt;Node6</title>
<path fill="none" stroke="midnightblue" d="M208.281,-240.975C206.57,-232.492 203.89,-219.204 201.695,-208.322"/>
<polygon fill="midnightblue" stroke="midnightblue" points="205.124,-207.62 199.716,-198.509 198.262,-209.004 205.124,-207.62"/>
</g>
<!-- Node7 -->
<g id="node7" class="node"><title>Node7</title>
<polygon fill="white" stroke="#bfbfbf" points="66,-179.5 66,-198.5 118,-198.5 118,-179.5 66,-179.5"/>
<text text-anchor="middle" x="92" y="-186.5" font-family="Helvetica,sans-Serif" font-size="10.00">stdarg.h</text>
</g>
<!-- Node4&#45;&gt;Node7 -->
<g id="edge7" class="edge"><title>Node4&#45;&gt;Node7</title>
<path fill="none" stroke="midnightblue" d="M193.093,-240.975C173.466,-231.078 140.869,-214.642 118.01,-203.115"/>
<polygon fill="midnightblue" stroke="midnightblue" points="119.38,-199.886 108.875,-198.509 116.228,-206.137 119.38,-199.886"/>
</g>
<!-- Node4&#45;&gt;Node8 -->
<g id="edge8" class="edge"><title>Node4&#45;&gt;Node8</title>
<path fill="none" stroke="midnightblue" d="M224.901,-240.975C241.968,-231.211 270.161,-215.081 290.262,-203.581"/>
<polygon fill="midnightblue" stroke="midnightblue" points="292.185,-206.513 299.127,-198.509 288.709,-200.437 292.185,-206.513"/>
</g>
<!-- Node8&#45;&gt;Node3 -->
<g id="edge10" class="edge"><title>Node8&#45;&gt;Node3</title>
<path fill="none" stroke="midnightblue" d="M307.145,-179.23C300.266,-170.3 289.5,-155.962 281,-143 254.799,-103.044 227.355,-53.9789 213.384,-28.3949"/>
<polygon fill="midnightblue" stroke="midnightblue" points="216.415,-26.6418 208.567,-19.5241 210.263,-29.9823 216.415,-26.6418"/>
</g>
<!-- Node8&#45;&gt;Node5 -->
<g id="edge9" class="edge"><title>Node8&#45;&gt;Node5</title>
<path fill="none" stroke="midnightblue" d="M296.327,-179.324C278.606,-170.625 251.097,-157.12 230.712,-147.113"/>
<polygon fill="midnightblue" stroke="midnightblue" points="232.149,-143.919 221.63,-142.655 229.064,-150.203 232.149,-143.919"/>
</g>
<!-- Node9 -->
<g id="node9" class="node"><title>Node9</title>
<g id="a_node9"><a xlink:href="radio__configuration_8h.html" target="_top" xlink:title="settings/radio_configuration.h">
<polygon fill="white" stroke="black" points="290.5,-123.5 290.5,-142.5 433.5,-142.5 433.5,-123.5 290.5,-123.5"/>
<text text-anchor="middle" x="362" y="-130.5" font-family="Helvetica,sans-Serif" font-size="10.00">settings/radio_configuration.h</text>
</a>
</g>
</g>
<!-- Node8&#45;&gt;Node9 -->
<g id="edge11" class="edge"><title>Node8&#45;&gt;Node9</title>
<path fill="none" stroke="midnightblue" d="M321.926,-179.083C328.846,-171.298 339.065,-159.801 347.452,-150.367"/>
<polygon fill="midnightblue" stroke="midnightblue" points="350.194,-152.55 354.221,-142.751 344.962,-147.9 350.194,-152.55"/>
</g>
<!-- Node10 -->
<g id="node10" class="node"><title>Node10</title>
<g id="a_node10"><a xlink:href="si4735__cmd__prop_8h.html" target="_top" xlink:title="driver/include/si4735\l_cmd_prop.h">
<polygon fill="white" stroke="black" points="295,-56.5 295,-86.5 399,-86.5 399,-56.5 295,-56.5"/>
<text text-anchor="start" x="303" y="-74.5" font-family="Helvetica,sans-Serif" font-size="10.00">driver/include/si4735</text>
<text text-anchor="middle" x="347" y="-63.5" font-family="Helvetica,sans-Serif" font-size="10.00">_cmd_prop.h</text>
</a>
</g>
</g>
<!-- Node9&#45;&gt;Node10 -->
<g id="edge12" class="edge"><title>Node9&#45;&gt;Node10</title>
<path fill="none" stroke="midnightblue" d="M359.851,-123.475C358.066,-116.396 355.438,-105.97 353.023,-96.3896"/>
<polygon fill="midnightblue" stroke="midnightblue" points="356.374,-95.364 350.535,-86.523 349.586,-97.0752 356.374,-95.364"/>
</g>
<!-- Node10&#45;&gt;Node3 -->
<g id="edge13" class="edge"><title>Node10&#45;&gt;Node3</title>
<path fill="none" stroke="midnightblue" d="M313.111,-56.3993C289.118,-46.4163 257.226,-33.1465 234.123,-23.5335"/>
<polygon fill="midnightblue" stroke="midnightblue" points="235.385,-20.268 224.808,-19.6578 232.696,-26.7308 235.385,-20.268"/>
</g>
<!-- Node11&#45;&gt;Node3 -->
<g id="edge15" class="edge"><title>Node11&#45;&gt;Node3</title>
<path fill="none" stroke="midnightblue" d="M133.39,-304.895C108.406,-299.03 77.3201,-287.695 58,-266 34.7711,-239.916 38,-224.928 38,-190 38,-190 38,-190 38,-132 38,-67.5746 120.662,-33.8211 169.323,-19.5329"/>
<polygon fill="midnightblue" stroke="midnightblue" points="170.466,-22.8473 179.148,-16.7753 168.574,-16.1077 170.466,-22.8473"/>
</g>
<!-- Node11&#45;&gt;Node4 -->
<g id="edge16" class="edge"><title>Node11&#45;&gt;Node4</title>
<path fill="none" stroke="midnightblue" d="M178.301,-302.475C183.741,-293.727 192.359,-279.869 199.236,-268.809"/>
<polygon fill="midnightblue" stroke="midnightblue" points="202.4,-270.349 204.709,-260.009 196.456,-266.653 202.4,-270.349"/>
</g>
<!-- Node11&#45;&gt;Node8 -->
<g id="edge17" class="edge"><title>Node11&#45;&gt;Node8</title>
<path fill="none" stroke="midnightblue" d="M191.564,-302.419C207.915,-294.353 231.879,-281.259 250,-266 270.736,-248.538 290.132,-223.874 302.018,-207.431"/>
<polygon fill="midnightblue" stroke="midnightblue" points="305.193,-209.004 308.103,-198.817 299.475,-204.966 305.193,-209.004"/>
</g>
<!-- Node12 -->
<g id="node12" class="node"><title>Node12</title>
<g id="a_node12"><a xlink:href="settings_2radio__pin__mapping_8h.html" target="_top" xlink:title="settings/radio_pin\l_mapping.h">
<polygon fill="white" stroke="black" points="67.5,-235.5 67.5,-265.5 160.5,-265.5 160.5,-235.5 67.5,-235.5"/>
<text text-anchor="start" x="75.5" y="-253.5" font-family="Helvetica,sans-Serif" font-size="10.00">settings/radio_pin</text>
<text text-anchor="middle" x="114" y="-242.5" font-family="Helvetica,sans-Serif" font-size="10.00">_mapping.h</text>
</a>
</g>
</g>
<!-- Node11&#45;&gt;Node12 -->
<g id="edge18" class="edge"><title>Node11&#45;&gt;Node12</title>
<path fill="none" stroke="midnightblue" d="M164.547,-302.475C156.855,-294.718 145.179,-282.943 134.987,-272.665"/>
<polygon fill="midnightblue" stroke="midnightblue" points="137.432,-270.159 127.905,-265.523 132.461,-275.088 137.432,-270.159"/>
</g>
<!-- Node13&#45;&gt;Node3 -->
<g id="edge20" class="edge"><title>Node13&#45;&gt;Node3</title>
<path fill="none" stroke="midnightblue" d="M430.222,-61.9925C422.99,-59.9446 415.23,-57.8234 408,-56 348.798,-41.0687 279.241,-26.3153 238.549,-17.9627"/>
<polygon fill="midnightblue" stroke="midnightblue" points="239.103,-14.5036 228.605,-15.9311 237.702,-21.362 239.103,-14.5036"/>
</g>
</g>
</svg>
