<?xml version="1.0" encoding="UTF-8" standalone="no"?>
<!DOCTYPE svg PUBLIC "-//W3C//DTD SVG 1.1//EN"
 "http://www.w3.org/Graphics/SVG/1.1/DTD/svg11.dtd">
<!-- Generated by graphviz version 2.38.0 (20140413.2041)
 -->
<!-- Title: rds_update Pages: 1 -->
<svg width="517pt" height="158pt"
 viewBox="0.00 0.00 517.00 158.14" xmlns="http://www.w3.org/2000/svg" xmlns:xlink="http://www.w3.org/1999/xlink">
<g id="graph0" class="graph" transform="scale(1 1) rotate(0) translate(4 154.137)">
<title>rds_update</title>
<polygon fill="white" stroke="none" points="-4,4 -4,-154.137 513,-154.137 513,4 -4,4"/>
<!-- Node1 -->
<g id="node1" class="node"><title>Node1</title>
<polygon fill="#bfbfbf" stroke="black" points="0,-76.5 0,-95.5 65,-95.5 65,-76.5 0,-76.5"/>
<text text-anchor="middle" x="32.5" y="-83.5" font-family="Helvetica,sans-Serif" font-size="10.00">rds_update</text>
</g>
<!-- Node2 -->
<g id="node2" class="node"><title>Node2</title>
<g id="a_node2"><a xlink:href="rds_8c.html#ad4168f8a33d30a3526e416da5997baa9" target="_top" xlink:title="rds_triggered">
<polygon fill="white" stroke="black" points="103,-114.5 103,-133.5 176,-133.5 176,-114.5 103,-114.5"/>
<text text-anchor="middle" x="139.5" y="-121.5" font-family="Helvetica,sans-Serif" font-size="10.00">rds_triggered</text>
</a>
</g>
</g>
<!-- Node1&#45;&gt;Node2 -->
<g id="edge1" class="edge"><title>Node1&#45;&gt;Node2</title>
<path fill="none" stroke="midnightblue" d="M59.9959,-95.589C72.8043,-100.224 88.3753,-105.86 102.262,-110.885"/>
<polygon fill="midnightblue" stroke="midnightblue" points="101.418,-114.302 112.013,-114.414 103.8,-107.72 101.418,-114.302"/>
</g>
<!-- Node3 -->
<g id="node3" class="node"><title>Node3</title>
<g id="a_node3"><a xlink:href="i2c_8h.html#a6691e5911f539e1e8178c6e983e8079a" target="_top" xlink:title="Transmits I2C commands with a variable length to a I2C slave. ">
<polygon fill="white" stroke="black" points="214,-114.5 214,-133.5 286,-133.5 286,-114.5 214,-114.5"/>
<text text-anchor="middle" x="250" y="-121.5" font-family="Helvetica,sans-Serif" font-size="10.00">i2c_write_var</text>
</a>
</g>
</g>
<!-- Node1&#45;&gt;Node3 -->
<g id="edge6" class="edge"><title>Node1&#45;&gt;Node3</title>
<path fill="none" stroke="midnightblue" d="M40.9593,-95.5808C52.2338,-109.189 75.0713,-133.517 101,-143 138.815,-156.83 185.268,-146.863 215.931,-136.897"/>
<polygon fill="midnightblue" stroke="midnightblue" points="217.364,-140.105 225.689,-133.551 215.094,-133.483 217.364,-140.105"/>
</g>
<!-- Node5 -->
<g id="node5" class="node"><title>Node5</title>
<g id="a_node5"><a xlink:href="timer_8c.html#a3c56af3315c2461dec5ced585a5f84db" target="_top" xlink:title="_delay_ten_us">
<polygon fill="white" stroke="black" points="429,-66.5 429,-85.5 509,-85.5 509,-66.5 429,-66.5"/>
<text text-anchor="middle" x="469" y="-73.5" font-family="Helvetica,sans-Serif" font-size="10.00">_delay_ten_us</text>
</a>
</g>
</g>
<!-- Node1&#45;&gt;Node5 -->
<g id="edge10" class="edge"><title>Node1&#45;&gt;Node5</title>
<path fill="none" stroke="midnightblue" d="M65.0486,-81.6652C101.014,-76.9599 161.608,-69.7499 214,-67 285.112,-63.2676 367.506,-67.8176 418.698,-71.6909"/>
<polygon fill="midnightblue" stroke="midnightblue" points="418.579,-75.1921 428.82,-72.4788 419.122,-68.2132 418.579,-75.1921"/>
</g>
<!-- Node6 -->
<g id="node6" class="node"><title>Node6</title>
<g id="a_node6"><a xlink:href="i2c_8h.html#a6dd896b0c82d1aa91a1a8155b41c4566" target="_top" xlink:title="Receives I2C commands until a NACK is received or received RxBytes. ">
<polygon fill="white" stroke="black" points="223.5,-76.5 223.5,-95.5 276.5,-95.5 276.5,-76.5 223.5,-76.5"/>
<text text-anchor="middle" x="250" y="-83.5" font-family="Helvetica,sans-Serif" font-size="10.00">i2c_read</text>
</a>
</g>
</g>
<!-- Node1&#45;&gt;Node6 -->
<g id="edge7" class="edge"><title>Node1&#45;&gt;Node6</title>
<path fill="none" stroke="midnightblue" d="M65.2978,-86C104.825,-86 172.099,-86 213.34,-86"/>
<polygon fill="midnightblue" stroke="midnightblue" points="213.483,-89.5001 223.483,-86 213.483,-82.5001 213.483,-89.5001"/>
</g>
<!-- Node7 -->
<g id="node7" class="node"><title>Node7</title>
<g id="a_node7"><a xlink:href="rds_8c.html#a33e5a772a8a82d668cc39ebfd4ba37a4" target="_top" xlink:title="rds_group_4A">
<polygon fill="white" stroke="black" points="101,-0.5 101,-19.5 178,-19.5 178,-0.5 101,-0.5"/>
<text text-anchor="middle" x="139.5" y="-7.5" font-family="Helvetica,sans-Serif" font-size="10.00">rds_group_4A</text>
</a>
</g>
</g>
<!-- Node1&#45;&gt;Node7 -->
<g id="edge8" class="edge"><title>Node1&#45;&gt;Node7</title>
<path fill="none" stroke="midnightblue" d="M45.2142,-76.4754C58.4944,-65.7961 80.9129,-48.125 101,-34 105.315,-30.9655 109.995,-27.8432 114.538,-24.8955"/>
<polygon fill="midnightblue" stroke="midnightblue" points="116.428,-27.8416 122.975,-19.5115 112.662,-21.9409 116.428,-27.8416"/>
</g>
<!-- Node2&#45;&gt;Node3 -->
<g id="edge2" class="edge"><title>Node2&#45;&gt;Node3</title>
<path fill="none" stroke="midnightblue" d="M176.027,-124C184.828,-124 194.379,-124 203.581,-124"/>
<polygon fill="midnightblue" stroke="midnightblue" points="203.764,-127.5 213.764,-124 203.764,-120.5 203.764,-127.5"/>
</g>
<!-- Node2&#45;&gt;Node6 -->
<g id="edge5" class="edge"><title>Node2&#45;&gt;Node6</title>
<path fill="none" stroke="midnightblue" d="M167.879,-114.411C181.886,-109.505 199.091,-103.48 214.046,-98.2418"/>
<polygon fill="midnightblue" stroke="midnightblue" points="215.212,-101.542 223.493,-94.9333 212.898,-94.9356 215.212,-101.542"/>
</g>
<!-- Node4 -->
<g id="node4" class="node"><title>Node4</title>
<g id="a_node4"><a xlink:href="i2c_8c.html#ae0625b97d3437bcaca4ac4b96dd01978" target="_top" xlink:title="Transmits I2C command array to a I2C slave. ">
<polygon fill="white" stroke="black" points="322,-95.5 322,-114.5 393,-114.5 393,-95.5 322,-95.5"/>
<text text-anchor="middle" x="357.5" y="-102.5" font-family="Helvetica,sans-Serif" font-size="10.00">i2c_write_arr</text>
</a>
</g>
</g>
<!-- Node3&#45;&gt;Node4 -->
<g id="edge3" class="edge"><title>Node3&#45;&gt;Node4</title>
<path fill="none" stroke="midnightblue" d="M286.13,-117.673C294.402,-116.184 303.327,-114.576 311.952,-113.023"/>
<polygon fill="midnightblue" stroke="midnightblue" points="312.661,-116.452 321.882,-111.234 311.42,-109.562 312.661,-116.452"/>
</g>
<!-- Node4&#45;&gt;Node5 -->
<g id="edge4" class="edge"><title>Node4&#45;&gt;Node5</title>
<path fill="none" stroke="midnightblue" d="M393.146,-95.8242C402.354,-93.3857 412.443,-90.7139 422.148,-88.1435"/>
<polygon fill="midnightblue" stroke="midnightblue" points="423.299,-91.4593 432.07,-85.5158 421.507,-84.6926 423.299,-91.4593"/>
</g>
<!-- Node8 -->
<g id="node8" class="node"><title>Node8</title>
<g id="a_node8"><a xlink:href="time_8c.html#a5db7b4e6e4e991e6730a118bff927c39" target="_top" xlink:title="time_set">
<polygon fill="white" stroke="black" points="223,-0.5 223,-19.5 277,-19.5 277,-0.5 223,-0.5"/>
<text text-anchor="middle" x="250" y="-7.5" font-family="Helvetica,sans-Serif" font-size="10.00">time_set</text>
</a>
</g>
</g>
<!-- Node7&#45;&gt;Node8 -->
<g id="edge9" class="edge"><title>Node7&#45;&gt;Node8</title>
<path fill="none" stroke="midnightblue" d="M178.144,-10C189.275,-10 201.44,-10 212.498,-10"/>
<polygon fill="midnightblue" stroke="midnightblue" points="212.692,-13.5001 222.692,-10 212.692,-6.5001 212.692,-13.5001"/>
</g>
</g>
</svg>
