<?xml version="1.0" encoding="UTF-8" standalone="no"?>
<!DOCTYPE svg PUBLIC "-//W3C//DTD SVG 1.1//EN"
 "http://www.w3.org/Graphics/SVG/1.1/DTD/svg11.dtd">
<!-- Generated by graphviz version 2.38.0 (20140413.2041)
 -->
<!-- Title: D:/GIT/fhradiov2/system/rsq.h Pages: 1 -->
<svg width="1830pt" height="587pt"
 viewBox="0.00 0.00 1829.50 587.00" xmlns="http://www.w3.org/2000/svg" xmlns:xlink="http://www.w3.org/1999/xlink">
<g id="graph0" class="graph" transform="scale(1 1) rotate(0) translate(4 583)">
<title>D:/GIT/fhradiov2/system/rsq.h</title>
<polygon fill="white" stroke="none" points="-4,4 -4,-583 1825.5,-583 1825.5,4 -4,4"/>
<!-- Node1 -->
<g id="node1" class="node"><title>Node1</title>
<polygon fill="#bfbfbf" stroke="black" points="41,-548.5 41,-578.5 161,-578.5 161,-548.5 41,-548.5"/>
<text text-anchor="start" x="49" y="-566.5" font-family="Helvetica,sans-Serif" font-size="10.00">D:/GIT/fhradiov2/system</text>
<text text-anchor="middle" x="101" y="-555.5" font-family="Helvetica,sans-Serif" font-size="10.00">/rsq.h</text>
</g>
<!-- Node2 -->
<g id="node2" class="node"><title>Node2</title>
<polygon fill="white" stroke="#bfbfbf" points="1042.5,-0.5 1042.5,-19.5 1091.5,-19.5 1091.5,-0.5 1042.5,-0.5"/>
<text text-anchor="middle" x="1067" y="-7.5" font-family="Helvetica,sans-Serif" font-size="10.00">stdint.h</text>
</g>
<!-- Node1&#45;&gt;Node2 -->
<g id="edge1" class="edge"><title>Node1&#45;&gt;Node2</title>
<path fill="none" stroke="midnightblue" d="M76.0337,-548.482C46.1247,-529.628 0,-493.083 0,-447 0,-447 0,-447 0,-132 0,-88.9646 21.701,-75.6275 60,-56 147.912,-10.9466 864.12,-10.3608 1031.92,-10.8499"/>
<polygon fill="midnightblue" stroke="midnightblue" points="1032.15,-14.3506 1042.17,-10.8832 1032.18,-7.35063 1032.15,-14.3506"/>
</g>
<!-- Node3 -->
<g id="node3" class="node"><title>Node3</title>
<g id="a_node3"><a xlink:href="si4735_8h.html" target="_top" xlink:title="driver/si4735.h">
<polygon fill="white" stroke="black" points="171.5,-308 171.5,-327 250.5,-327 250.5,-308 171.5,-308"/>
<text text-anchor="middle" x="211" y="-315" font-family="Helvetica,sans-Serif" font-size="10.00">driver/si4735.h</text>
</a>
</g>
</g>
<!-- Node1&#45;&gt;Node3 -->
<g id="edge2" class="edge"><title>Node1&#45;&gt;Node3</title>
<path fill="none" stroke="midnightblue" d="M107.39,-548.327C126.317,-506.343 182.07,-382.672 202.968,-336.317"/>
<polygon fill="midnightblue" stroke="midnightblue" points="206.161,-337.75 207.08,-327.195 199.779,-334.873 206.161,-337.75"/>
</g>
<!-- Node4 -->
<g id="node4" class="node"><title>Node4</title>
<g id="a_node4"><a xlink:href="i2c_8h.html" target="_top" xlink:title="I2C implemtation for MSP430G2553, interrupt based. &#160;&#160;This implemtation based on examples from Texas I...">
<polygon fill="white" stroke="black" points="149.5,-241 149.5,-260 212.5,-260 212.5,-241 149.5,-241"/>
<text text-anchor="middle" x="181" y="-248" font-family="Helvetica,sans-Serif" font-size="10.00">driver/i2c.h</text>
</a>
</g>
</g>
<!-- Node1&#45;&gt;Node4 -->
<g id="edge17" class="edge"><title>Node1&#45;&gt;Node4</title>
<path fill="none" stroke="midnightblue" d="M87.0183,-548.19C68.4579,-527.615 38,-487.657 38,-447 38,-447 38,-447 38,-383.5 38,-346.306 32.8537,-330.29 57,-302 77.7407,-277.7 111.953,-264.936 139.193,-258.326"/>
<polygon fill="midnightblue" stroke="midnightblue" points="140.251,-261.676 149.249,-256.082 138.727,-254.844 140.251,-261.676"/>
</g>
<!-- Node12 -->
<g id="node12" class="node"><title>Node12</title>
<g id="a_node12"><a xlink:href="radio_8h.html" target="_top" xlink:title="system/radio.h">
<polygon fill="white" stroke="black" points="1015.5,-492.5 1015.5,-511.5 1096.5,-511.5 1096.5,-492.5 1015.5,-492.5"/>
<text text-anchor="middle" x="1056" y="-499.5" font-family="Helvetica,sans-Serif" font-size="10.00">system/radio.h</text>
</a>
</g>
</g>
<!-- Node1&#45;&gt;Node12 -->
<g id="edge18" class="edge"><title>Node1&#45;&gt;Node12</title>
<path fill="none" stroke="midnightblue" d="M161.101,-558.755C335.972,-547.86 842.412,-516.307 1005.06,-506.174"/>
<polygon fill="midnightblue" stroke="midnightblue" points="1005.51,-509.653 1015.27,-505.538 1005.07,-502.666 1005.51,-509.653"/>
</g>
<!-- Node3&#45;&gt;Node2 -->
<g id="edge3" class="edge"><title>Node3&#45;&gt;Node2</title>
<path fill="none" stroke="midnightblue" d="M192.471,-307.986C158.342,-290.883 89,-248.887 89,-190 89,-190 89,-190 89,-132 89,-50.8575 176.229,-75.4733 255,-56 405.63,-18.7622 896.183,-12.2955 1031.91,-11.2112"/>
<polygon fill="midnightblue" stroke="midnightblue" points="1032.17,-14.7094 1042.15,-11.1344 1032.12,-7.70961 1032.17,-14.7094"/>
</g>
<!-- Node3&#45;&gt;Node4 -->
<g id="edge4" class="edge"><title>Node3&#45;&gt;Node4</title>
<path fill="none" stroke="midnightblue" d="M206.954,-307.734C202.456,-297.988 195.068,-281.981 189.322,-269.532"/>
<polygon fill="midnightblue" stroke="midnightblue" points="192.35,-267.74 184.982,-260.127 185.995,-270.674 192.35,-267.74"/>
</g>
<!-- Node8 -->
<g id="node8" class="node"><title>Node8</title>
<g id="a_node8"><a xlink:href="timer_8h.html" target="_top" xlink:title="driver/timer.h">
<polygon fill="white" stroke="black" points="329,-179.5 329,-198.5 401,-198.5 401,-179.5 329,-179.5"/>
<text text-anchor="middle" x="365" y="-186.5" font-family="Helvetica,sans-Serif" font-size="10.00">driver/timer.h</text>
</a>
</g>
</g>
<!-- Node3&#45;&gt;Node8 -->
<g id="edge15" class="edge"><title>Node3&#45;&gt;Node8</title>
<path fill="none" stroke="midnightblue" d="M214.781,-307.722C222.207,-291.394 240.164,-256.1 265,-235 282.501,-220.132 305.71,-209.285 325.364,-201.97"/>
<polygon fill="midnightblue" stroke="midnightblue" points="326.72,-205.202 334.976,-198.562 324.381,-198.605 326.72,-205.202"/>
</g>
<!-- Node11 -->
<g id="node11" class="node"><title>Node11</title>
<g id="a_node11"><a xlink:href="radio__pin__mapping_8h.html" target="_top" xlink:title="settings/radio_pin\l_mapping.h">
<polygon fill="white" stroke="black" points="673.5,-235.5 673.5,-265.5 766.5,-265.5 766.5,-235.5 673.5,-235.5"/>
<text text-anchor="start" x="681.5" y="-253.5" font-family="Helvetica,sans-Serif" font-size="10.00">settings/radio_pin</text>
<text text-anchor="middle" x="720" y="-242.5" font-family="Helvetica,sans-Serif" font-size="10.00">_mapping.h</text>
</a>
</g>
</g>
<!-- Node3&#45;&gt;Node11 -->
<g id="edge16" class="edge"><title>Node3&#45;&gt;Node11</title>
<path fill="none" stroke="midnightblue" d="M250.517,-311.454C340.146,-300.008 559.131,-272.043 663.235,-258.749"/>
<polygon fill="midnightblue" stroke="midnightblue" points="663.768,-262.209 673.244,-257.471 662.881,-255.266 663.768,-262.209"/>
</g>
<!-- Node4&#45;&gt;Node2 -->
<g id="edge5" class="edge"><title>Node4&#45;&gt;Node2</title>
<path fill="none" stroke="midnightblue" d="M171.14,-240.998C156.705,-227.488 132.888,-200.454 146,-179 208.506,-76.7295 270.477,-87.946 386,-56 509.604,-21.8196 911.087,-13.2685 1032.14,-11.4426"/>
<polygon fill="midnightblue" stroke="midnightblue" points="1032.37,-14.9397 1042.32,-11.2952 1032.27,-7.94048 1032.37,-14.9397"/>
</g>
<!-- Node5 -->
<g id="node5" class="node"><title>Node5</title>
<polygon fill="white" stroke="#bfbfbf" points="466.5,-123.5 466.5,-142.5 525.5,-142.5 525.5,-123.5 466.5,-123.5"/>
<text text-anchor="middle" x="496" y="-130.5" font-family="Helvetica,sans-Serif" font-size="10.00">msp430.h</text>
</g>
<!-- Node4&#45;&gt;Node5 -->
<g id="edge6" class="edge"><title>Node4&#45;&gt;Node5</title>
<path fill="none" stroke="midnightblue" d="M198.572,-240.852C218.766,-230.882 252.871,-213.946 282,-199 298.981,-190.287 302.188,-185.855 320,-179 365.408,-161.524 420.003,-148.769 456.223,-141.391"/>
<polygon fill="midnightblue" stroke="midnightblue" points="457.263,-144.753 466.385,-139.364 455.894,-137.888 457.263,-144.753"/>
</g>
<!-- Node6 -->
<g id="node6" class="node"><title>Node6</title>
<polygon fill="white" stroke="#bfbfbf" points="225,-179.5 225,-198.5 273,-198.5 273,-179.5 225,-179.5"/>
<text text-anchor="middle" x="249" y="-186.5" font-family="Helvetica,sans-Serif" font-size="10.00">stdlib.h</text>
</g>
<!-- Node4&#45;&gt;Node6 -->
<g id="edge7" class="edge"><title>Node4&#45;&gt;Node6</title>
<path fill="none" stroke="midnightblue" d="M190.743,-240.975C201.347,-231.697 218.519,-216.671 231.479,-205.331"/>
<polygon fill="midnightblue" stroke="midnightblue" points="234.054,-207.728 239.275,-198.509 229.445,-202.46 234.054,-207.728"/>
</g>
<!-- Node7 -->
<g id="node7" class="node"><title>Node7</title>
<polygon fill="white" stroke="#bfbfbf" points="155,-179.5 155,-198.5 207,-198.5 207,-179.5 155,-179.5"/>
<text text-anchor="middle" x="181" y="-186.5" font-family="Helvetica,sans-Serif" font-size="10.00">stdarg.h</text>
</g>
<!-- Node4&#45;&gt;Node7 -->
<g id="edge8" class="edge"><title>Node4&#45;&gt;Node7</title>
<path fill="none" stroke="midnightblue" d="M181,-240.975C181,-232.58 181,-219.481 181,-208.663"/>
<polygon fill="midnightblue" stroke="midnightblue" points="184.5,-208.509 181,-198.509 177.5,-208.509 184.5,-208.509"/>
</g>
<!-- Node4&#45;&gt;Node8 -->
<g id="edge9" class="edge"><title>Node4&#45;&gt;Node8</title>
<path fill="none" stroke="midnightblue" d="M207.363,-240.975C239.335,-230.636 293.376,-213.161 329.122,-201.602"/>
<polygon fill="midnightblue" stroke="midnightblue" points="330.248,-204.916 338.686,-198.509 328.094,-198.256 330.248,-204.916"/>
</g>
<!-- Node8&#45;&gt;Node2 -->
<g id="edge11" class="edge"><title>Node8&#45;&gt;Node2</title>
<path fill="none" stroke="midnightblue" d="M365.279,-179.374C366.576,-155.194 373.883,-86.5375 415,-56 464.726,-19.0688 903.994,-12.3999 1032.09,-11.2372"/>
<polygon fill="midnightblue" stroke="midnightblue" points="1032.17,-14.7368 1042.14,-11.1517 1032.11,-7.73702 1032.17,-14.7368"/>
</g>
<!-- Node8&#45;&gt;Node5 -->
<g id="edge10" class="edge"><title>Node8&#45;&gt;Node5</title>
<path fill="none" stroke="midnightblue" d="M385.757,-179.444C407.316,-170.557 441.263,-156.563 465.794,-146.451"/>
<polygon fill="midnightblue" stroke="midnightblue" points="467.428,-149.563 475.34,-142.516 464.761,-143.092 467.428,-149.563"/>
</g>
<!-- Node9 -->
<g id="node9" class="node"><title>Node9</title>
<g id="a_node9"><a xlink:href="radio__configuration_8h.html" target="_top" xlink:title="settings/radio_configuration.h">
<polygon fill="white" stroke="black" points="1190.5,-123.5 1190.5,-142.5 1333.5,-142.5 1333.5,-123.5 1190.5,-123.5"/>
<text text-anchor="middle" x="1262" y="-130.5" font-family="Helvetica,sans-Serif" font-size="10.00">settings/radio_configuration.h</text>
</a>
</g>
</g>
<!-- Node8&#45;&gt;Node9 -->
<g id="edge12" class="edge"><title>Node8&#45;&gt;Node9</title>
<path fill="none" stroke="midnightblue" d="M401.274,-185.816C533.551,-177.853 992.075,-150.25 1180.34,-138.916"/>
<polygon fill="midnightblue" stroke="midnightblue" points="1180.69,-142.402 1190.46,-138.307 1180.27,-135.414 1180.69,-142.402"/>
</g>
<!-- Node10 -->
<g id="node10" class="node"><title>Node10</title>
<g id="a_node10"><a xlink:href="si4735__cmd__prop_8h.html" target="_top" xlink:title="driver/include/si4735\l_cmd_prop.h">
<polygon fill="white" stroke="black" points="1210,-56.5 1210,-86.5 1314,-86.5 1314,-56.5 1210,-56.5"/>
<text text-anchor="start" x="1218" y="-74.5" font-family="Helvetica,sans-Serif" font-size="10.00">driver/include/si4735</text>
<text text-anchor="middle" x="1262" y="-63.5" font-family="Helvetica,sans-Serif" font-size="10.00">_cmd_prop.h</text>
</a>
</g>
</g>
<!-- Node9&#45;&gt;Node10 -->
<g id="edge13" class="edge"><title>Node9&#45;&gt;Node10</title>
<path fill="none" stroke="midnightblue" d="M1262,-123.475C1262,-116.471 1262,-106.192 1262,-96.6956"/>
<polygon fill="midnightblue" stroke="midnightblue" points="1265.5,-96.5229 1262,-86.523 1258.5,-96.523 1265.5,-96.5229"/>
</g>
<!-- Node10&#45;&gt;Node2 -->
<g id="edge14" class="edge"><title>Node10&#45;&gt;Node2</title>
<path fill="none" stroke="midnightblue" d="M1215.79,-56.3993C1180.73,-45.7012 1133.3,-31.2286 1101.5,-21.5266"/>
<polygon fill="midnightblue" stroke="midnightblue" points="1102.35,-18.1259 1091.76,-18.5551 1100.3,-24.8212 1102.35,-18.1259"/>
</g>
<!-- Node12&#45;&gt;Node2 -->
<g id="edge19" class="edge"><title>Node12&#45;&gt;Node2</title>
<path fill="none" stroke="midnightblue" d="M1096.51,-500.2C1223.27,-497.389 1606.69,-486.431 1653,-456 1682.57,-436.567 1690,-420.886 1690,-385.5 1690,-385.5 1690,-385.5 1690,-132 1690,-11.3019 1233.69,-8.57186 1102.12,-10.2936"/>
<polygon fill="midnightblue" stroke="midnightblue" points="1101.75,-6.79847 1091.81,-10.4468 1101.86,-13.7977 1101.75,-6.79847"/>
</g>
<!-- Node12&#45;&gt;Node3 -->
<g id="edge25" class="edge"><title>Node12&#45;&gt;Node3</title>
<path fill="none" stroke="midnightblue" d="M1015.29,-501.219C862.118,-501.701 326.032,-500.191 265,-456 226.319,-427.992 215.339,-367.979 212.227,-337.34"/>
<polygon fill="midnightblue" stroke="midnightblue" points="215.698,-336.838 211.379,-327.164 208.722,-337.42 215.698,-336.838"/>
</g>
<!-- Node12&#45;&gt;Node8 -->
<g id="edge50" class="edge"><title>Node12&#45;&gt;Node8</title>
<path fill="none" stroke="midnightblue" d="M1015.32,-499.29C855.446,-492.038 279,-460.678 279,-385.5 279,-385.5 279,-385.5 279,-316.5 279,-269.497 320.108,-227.021 345.482,-205.279"/>
<polygon fill="midnightblue" stroke="midnightblue" points="347.93,-207.796 353.402,-198.724 343.466,-202.404 347.93,-207.796"/>
</g>
<!-- Node12&#45;&gt;Node9 -->
<g id="edge66" class="edge"><title>Node12&#45;&gt;Node9</title>
<path fill="none" stroke="midnightblue" d="M1096.7,-496.089C1152.3,-487.158 1251.2,-462.944 1305,-400 1329.17,-371.727 1324,-355.694 1324,-318.5 1324,-318.5 1324,-318.5 1324,-249.5 1324,-210.295 1295.93,-171.553 1277.56,-150.404"/>
<polygon fill="midnightblue" stroke="midnightblue" points="1279.92,-147.791 1270.62,-142.709 1274.72,-152.479 1279.92,-147.791"/>
</g>
<!-- Node12&#45;&gt;Node10 -->
<g id="edge26" class="edge"><title>Node12&#45;&gt;Node10</title>
<path fill="none" stroke="midnightblue" d="M1096.83,-497.893C1139.64,-493.328 1207.94,-482.279 1261,-456 1328.95,-422.347 1362,-394.326 1362,-318.5 1362,-318.5 1362,-318.5 1362,-188 1362,-157.902 1361.19,-146.981 1343,-123 1333.14,-110.002 1318.89,-99.5336 1305.08,-91.5708"/>
<polygon fill="midnightblue" stroke="midnightblue" points="1306.58,-88.4005 1296.12,-86.6986 1303.23,-94.5502 1306.58,-88.4005"/>
</g>
<!-- Node13 -->
<g id="node13" class="node"><title>Node13</title>
<g id="a_node13"><a xlink:href="pca9530_8h.html" target="_top" xlink:title="driver/pca9530.h">
<polygon fill="white" stroke="black" points="66.5,-308 66.5,-327 153.5,-327 153.5,-308 66.5,-308"/>
<text text-anchor="middle" x="110" y="-315" font-family="Helvetica,sans-Serif" font-size="10.00">driver/pca9530.h</text>
</a>
</g>
</g>
<!-- Node12&#45;&gt;Node13 -->
<g id="edge20" class="edge"><title>Node12&#45;&gt;Node13</title>
<path fill="none" stroke="midnightblue" d="M1015.38,-500.493C860.557,-498.326 312.58,-488.414 242,-456 184.745,-429.706 139.641,-366.468 120.283,-335.782"/>
<polygon fill="midnightblue" stroke="midnightblue" points="123.137,-333.74 114.92,-327.051 117.172,-337.404 123.137,-333.74"/>
</g>
<!-- Node14 -->
<g id="node14" class="node"><title>Node14</title>
<g id="a_node14"><a xlink:href="log__exp__table_8h.html" target="_top" xlink:title="libs/log_exp_table.h">
<polygon fill="white" stroke="black" points="1718.5,-62 1718.5,-81 1821.5,-81 1821.5,-62 1718.5,-62"/>
<text text-anchor="middle" x="1770" y="-69" font-family="Helvetica,sans-Serif" font-size="10.00">libs/log_exp_table.h</text>
</a>
</g>
</g>
<!-- Node12&#45;&gt;Node14 -->
<g id="edge23" class="edge"><title>Node12&#45;&gt;Node14</title>
<path fill="none" stroke="midnightblue" d="M1096.53,-500.289C1230.25,-497.656 1651.89,-486.956 1704,-456 1735.96,-437.016 1749,-422.672 1749,-385.5 1749,-385.5 1749,-385.5 1749,-188 1749,-153.304 1758.29,-113.677 1764.51,-91.0207"/>
<polygon fill="midnightblue" stroke="midnightblue" points="1767.96,-91.6727 1767.34,-81.0961 1761.23,-89.752 1767.96,-91.6727"/>
</g>
<!-- Node15 -->
<g id="node15" class="node"><title>Node15</title>
<g id="a_node15"><a xlink:href="external__interrupthandler_8h.html" target="_top" xlink:title="driver/external_interrupthandler.h">
<polygon fill="white" stroke="black" points="786.5,-308 786.5,-327 943.5,-327 943.5,-308 786.5,-308"/>
<text text-anchor="middle" x="865" y="-315" font-family="Helvetica,sans-Serif" font-size="10.00">driver/external_interrupthandler.h</text>
</a>
</g>
</g>
<!-- Node12&#45;&gt;Node15 -->
<g id="edge27" class="edge"><title>Node12&#45;&gt;Node15</title>
<path fill="none" stroke="midnightblue" d="M1015.45,-500.466C953.209,-497.071 837.682,-479.812 803,-400 797.509,-387.364 797.086,-381.444 803,-369 810.407,-353.413 825.241,-341.056 838.541,-332.467"/>
<polygon fill="midnightblue" stroke="midnightblue" points="840.637,-335.29 847.394,-327.13 837.023,-329.296 840.637,-335.29"/>
</g>
<!-- Node16 -->
<g id="node16" class="node"><title>Node16</title>
<g id="a_node16"><a xlink:href="tpa2016d2_8h.html" target="_top" xlink:title="driver/tpa2016d2.h">
<polygon fill="white" stroke="black" points="345.5,-308 345.5,-327 440.5,-327 440.5,-308 345.5,-308"/>
<text text-anchor="middle" x="393" y="-315" font-family="Helvetica,sans-Serif" font-size="10.00">driver/tpa2016d2.h</text>
</a>
</g>
</g>
<!-- Node12&#45;&gt;Node16 -->
<g id="edge31" class="edge"><title>Node12&#45;&gt;Node16</title>
<path fill="none" stroke="midnightblue" d="M1015.19,-498.158C895.806,-489.229 549.739,-458.776 455,-400 430.029,-384.508 411.457,-355.045 401.431,-336.11"/>
<polygon fill="midnightblue" stroke="midnightblue" points="404.495,-334.415 396.865,-327.064 398.246,-337.568 404.495,-334.415"/>
</g>
<!-- Node17 -->
<g id="node17" class="node"><title>Node17</title>
<g id="a_node17"><a xlink:href="lcd_8h.html" target="_top" xlink:title="driver/lcd.h">
<polygon fill="white" stroke="black" points="688.5,-375 688.5,-394 751.5,-394 751.5,-375 688.5,-375"/>
<text text-anchor="middle" x="720" y="-382" font-family="Helvetica,sans-Serif" font-size="10.00">driver/lcd.h</text>
</a>
</g>
</g>
<!-- Node12&#45;&gt;Node17 -->
<g id="edge37" class="edge"><title>Node12&#45;&gt;Node17</title>
<path fill="none" stroke="midnightblue" d="M1015.23,-498.471C946.296,-493.562 810.263,-480.963 770,-456 749.934,-443.559 735.646,-419.779 727.613,-403.298"/>
<polygon fill="midnightblue" stroke="midnightblue" points="730.769,-401.782 723.425,-394.146 724.404,-404.696 730.769,-401.782"/>
</g>
<!-- Node20 -->
<g id="node20" class="node"><title>Node20</title>
<g id="a_node20"><a xlink:href="flash_8h.html" target="_top" xlink:title="driver/flash.h">
<polygon fill="white" stroke="black" points="890.5,-436.5 890.5,-455.5 961.5,-455.5 961.5,-436.5 890.5,-436.5"/>
<text text-anchor="middle" x="926" y="-443.5" font-family="Helvetica,sans-Serif" font-size="10.00">driver/flash.h</text>
</a>
</g>
</g>
<!-- Node12&#45;&gt;Node20 -->
<g id="edge45" class="edge"><title>Node12&#45;&gt;Node20</title>
<path fill="none" stroke="midnightblue" d="M1035.4,-492.444C1014.01,-483.557 980.319,-469.563 955.976,-459.451"/>
<polygon fill="midnightblue" stroke="midnightblue" points="957.08,-456.12 946.503,-455.516 954.395,-462.585 957.08,-456.12"/>
</g>
<!-- Node21 -->
<g id="node21" class="node"><title>Node21</title>
<g id="a_node21"><a xlink:href="string_8h.html" target="_top" xlink:title="string.h">
<polygon fill="white" stroke="black" points="954.5,-375 954.5,-394 1003.5,-394 1003.5,-375 954.5,-375"/>
<text text-anchor="middle" x="979" y="-382" font-family="Helvetica,sans-Serif" font-size="10.00">string.h</text>
</a>
</g>
</g>
<!-- Node12&#45;&gt;Node21 -->
<g id="edge75" class="edge"><title>Node12&#45;&gt;Node21</title>
<path fill="none" stroke="midnightblue" d="M1044.67,-492.402C1034.28,-484.036 1019.02,-470.498 1009,-456 997.803,-439.798 989.522,-418.754 984.531,-403.889"/>
<polygon fill="midnightblue" stroke="midnightblue" points="987.851,-402.782 981.482,-394.315 981.181,-404.906 987.851,-402.782"/>
</g>
<!-- Node22 -->
<g id="node22" class="node"><title>Node22</title>
<g id="a_node22"><a xlink:href="encoder_8h.html" target="_top" xlink:title="driver/encoder.h">
<polygon fill="white" stroke="black" points="812.5,-375 812.5,-394 897.5,-394 897.5,-375 812.5,-375"/>
<text text-anchor="middle" x="855" y="-382" font-family="Helvetica,sans-Serif" font-size="10.00">driver/encoder.h</text>
</a>
</g>
</g>
<!-- Node12&#45;&gt;Node22 -->
<g id="edge51" class="edge"><title>Node12&#45;&gt;Node22</title>
<path fill="none" stroke="midnightblue" d="M1015.24,-500.893C976.19,-498.636 917.899,-489.328 881,-456 866.354,-442.772 859.939,-420.558 857.14,-404.599"/>
<polygon fill="midnightblue" stroke="midnightblue" points="860.549,-403.708 855.676,-394.301 853.619,-404.694 860.549,-403.708"/>
</g>
<!-- Node23 -->
<g id="node23" class="node"><title>Node23</title>
<g id="a_node23"><a xlink:href="language_8h.html" target="_top" xlink:title="menu/lang/language.h">
<polygon fill="white" stroke="black" points="1184,-375 1184,-394 1296,-394 1296,-375 1184,-375"/>
<text text-anchor="middle" x="1240" y="-382" font-family="Helvetica,sans-Serif" font-size="10.00">menu/lang/language.h</text>
</a>
</g>
</g>
<!-- Node12&#45;&gt;Node23 -->
<g id="edge56" class="edge"><title>Node12&#45;&gt;Node23</title>
<path fill="none" stroke="midnightblue" d="M1069.83,-492.319C1101.4,-472.503 1179,-423.789 1217.54,-399.599"/>
<polygon fill="midnightblue" stroke="midnightblue" points="1219.4,-402.563 1226.01,-394.282 1215.68,-396.634 1219.4,-402.563"/>
</g>
<!-- Node24 -->
<g id="node24" class="node"><title>Node24</title>
<g id="a_node24"><a xlink:href="menu_8h.html" target="_top" xlink:title="menu/menu.h">
<polygon fill="white" stroke="black" points="1018,-436.5 1018,-455.5 1094,-455.5 1094,-436.5 1018,-436.5"/>
<text text-anchor="middle" x="1056" y="-443.5" font-family="Helvetica,sans-Serif" font-size="10.00">menu/menu.h</text>
</a>
</g>
</g>
<!-- Node12&#45;&gt;Node24 -->
<g id="edge57" class="edge"><title>Node12&#45;&gt;Node24</title>
<path fill="none" stroke="midnightblue" d="M1050.83,-492.083C1049.32,-484.927 1048.89,-474.635 1049.54,-465.691"/>
<polygon fill="midnightblue" stroke="midnightblue" points="1053.02,-466.126 1050.87,-455.751 1046.08,-465.2 1053.02,-466.126"/>
</g>
<!-- Node26 -->
<g id="node26" class="node"><title>Node26</title>
<g id="a_node26"><a xlink:href="station__list_8h.html" target="_top" xlink:title="system/station_list.h">
<polygon fill="white" stroke="black" points="1342.5,-436.5 1342.5,-455.5 1449.5,-455.5 1449.5,-436.5 1342.5,-436.5"/>
<text text-anchor="middle" x="1396" y="-443.5" font-family="Helvetica,sans-Serif" font-size="10.00">system/station_list.h</text>
</a>
</g>
</g>
<!-- Node12&#45;&gt;Node26 -->
<g id="edge67" class="edge"><title>Node12&#45;&gt;Node26</title>
<path fill="none" stroke="midnightblue" d="M1096.67,-494.54C1155.14,-485.254 1263.47,-468.048 1332.53,-457.081"/>
<polygon fill="midnightblue" stroke="midnightblue" points="1333.09,-460.535 1342.42,-455.509 1332,-453.621 1333.09,-460.535"/>
</g>
<!-- Node28 -->
<g id="node28" class="node"><title>Node28</title>
<g id="a_node28"><a xlink:href="radio__display_8h.html" target="_top" xlink:title="system/radio_display.h">
<polygon fill="white" stroke="black" points="1506.5,-436.5 1506.5,-455.5 1623.5,-455.5 1623.5,-436.5 1506.5,-436.5"/>
<text text-anchor="middle" x="1565" y="-443.5" font-family="Helvetica,sans-Serif" font-size="10.00">system/radio_display.h</text>
</a>
</g>
</g>
<!-- Node12&#45;&gt;Node28 -->
<g id="edge72" class="edge"><title>Node12&#45;&gt;Node28</title>
<path fill="none" stroke="midnightblue" d="M1096.72,-496.538C1172.79,-488.776 1341.04,-472.076 1483,-456 1487.33,-455.51 1491.8,-454.991 1496.32,-454.459"/>
<polygon fill="midnightblue" stroke="midnightblue" points="1496.74,-457.934 1506.25,-453.28 1495.91,-450.982 1496.74,-457.934"/>
</g>
<!-- Node29 -->
<g id="node29" class="node"><title>Node29</title>
<g id="a_node29"><a xlink:href="time_8h.html" target="_top" xlink:title="system/time.h">
<polygon fill="white" stroke="black" points="1582.5,-241 1582.5,-260 1661.5,-260 1661.5,-241 1582.5,-241"/>
<text text-anchor="middle" x="1622" y="-248" font-family="Helvetica,sans-Serif" font-size="10.00">system/time.h</text>
</a>
</g>
</g>
<!-- Node12&#45;&gt;Node29 -->
<g id="edge76" class="edge"><title>Node12&#45;&gt;Node29</title>
<path fill="none" stroke="midnightblue" d="M1096.73,-500.94C1222.23,-500.335 1596.71,-495.231 1633,-456 1681.09,-404.009 1647.68,-309.109 1630.49,-269.556"/>
<polygon fill="midnightblue" stroke="midnightblue" points="1633.64,-268.027 1626.34,-260.349 1627.26,-270.904 1633.64,-268.027"/>
</g>
<!-- Node13&#45;&gt;Node2 -->
<g id="edge21" class="edge"><title>Node13&#45;&gt;Node2</title>
<path fill="none" stroke="midnightblue" d="M102.765,-307.946C87.0107,-288.413 51,-238.466 51,-190 51,-190 51,-190 51,-132 51,-90.8199 67.9456,-75.8968 104,-56 186.456,-10.4962 868.332,-10.2218 1031.85,-10.8193"/>
<polygon fill="midnightblue" stroke="midnightblue" points="1032.28,-14.321 1042.29,-10.8614 1032.3,-7.32104 1032.28,-14.321"/>
</g>
<!-- Node13&#45;&gt;Node4 -->
<g id="edge22" class="edge"><title>Node13&#45;&gt;Node4</title>
<path fill="none" stroke="midnightblue" d="M119.575,-307.734C130.966,-297.305 150.187,-279.709 164.099,-266.973"/>
<polygon fill="midnightblue" stroke="midnightblue" points="166.564,-269.461 171.576,-260.127 161.837,-264.298 166.564,-269.461"/>
</g>
<!-- Node14&#45;&gt;Node2 -->
<g id="edge24" class="edge"><title>Node14&#45;&gt;Node2</title>
<path fill="none" stroke="midnightblue" d="M1735.58,-61.9439C1725.46,-59.6992 1714.33,-57.4921 1704,-56 1475.82,-23.0537 1198.01,-13.9394 1101.78,-11.6787"/>
<polygon fill="midnightblue" stroke="midnightblue" points="1101.81,-8.17865 1091.73,-11.4525 1101.65,-15.1769 1101.81,-8.17865"/>
</g>
<!-- Node15&#45;&gt;Node2 -->
<g id="edge29" class="edge"><title>Node15&#45;&gt;Node2</title>
<path fill="none" stroke="midnightblue" d="M868.203,-307.742C875.355,-287.379 892,-235.138 892,-190 892,-190 892,-190 892,-132 892,-64.4421 981.327,-31.6546 1032.34,-18.4382"/>
<polygon fill="midnightblue" stroke="midnightblue" points="1033.43,-21.7751 1042.3,-15.9804 1031.75,-14.9791 1033.43,-21.7751"/>
</g>
<!-- Node15&#45;&gt;Node5 -->
<g id="edge28" class="edge"><title>Node15&#45;&gt;Node5</title>
<path fill="none" stroke="midnightblue" d="M857.44,-307.678C842.965,-291.276 809.68,-255.864 775,-235 696.254,-187.625 591.771,-157.231 535.662,-143.156"/>
<polygon fill="midnightblue" stroke="midnightblue" points="536.312,-139.712 525.765,-140.718 534.637,-146.509 536.312,-139.712"/>
</g>
<!-- Node15&#45;&gt;Node11 -->
<g id="edge30" class="edge"><title>Node15&#45;&gt;Node11</title>
<path fill="none" stroke="midnightblue" d="M845.745,-307.869C824.176,-298.199 788.593,-282.249 760.774,-269.778"/>
<polygon fill="midnightblue" stroke="midnightblue" points="761.85,-266.425 751.293,-265.528 758.987,-272.812 761.85,-266.425"/>
</g>
<!-- Node16&#45;&gt;Node2 -->
<g id="edge33" class="edge"><title>Node16&#45;&gt;Node2</title>
<path fill="none" stroke="midnightblue" d="M397.271,-307.847C406.807,-287.704 429,-235.896 429,-190 429,-190 429,-190 429,-132 429,-32.3245 542.845,-78.2733 640,-56 783.005,-23.2154 958.516,-14.2429 1032.02,-11.8465"/>
<polygon fill="midnightblue" stroke="midnightblue" points="1032.22,-15.3421 1042.11,-11.5386 1032.01,-8.3454 1032.22,-15.3421"/>
</g>
<!-- Node16&#45;&gt;Node4 -->
<g id="edge34" class="edge"><title>Node16&#45;&gt;Node4</title>
<path fill="none" stroke="midnightblue" d="M364.848,-307.869C327.205,-296.327 260.371,-275.835 218.493,-262.996"/>
<polygon fill="midnightblue" stroke="midnightblue" points="219.517,-259.649 208.931,-260.064 217.465,-266.341 219.517,-259.649"/>
</g>
<!-- Node16&#45;&gt;Node5 -->
<g id="edge32" class="edge"><title>Node16&#45;&gt;Node5</title>
<path fill="none" stroke="midnightblue" d="M403.835,-307.831C414.92,-298.491 432.028,-282.706 443,-266 467.317,-228.975 483.578,-179.029 491.133,-152.447"/>
<polygon fill="midnightblue" stroke="midnightblue" points="494.567,-153.161 493.837,-142.591 487.816,-151.309 494.567,-153.161"/>
</g>
<!-- Node16&#45;&gt;Node8 -->
<g id="edge36" class="edge"><title>Node16&#45;&gt;Node8</title>
<path fill="none" stroke="midnightblue" d="M391.075,-307.805C386.58,-287.494 375.304,-236.553 369.156,-208.777"/>
<polygon fill="midnightblue" stroke="midnightblue" points="372.517,-207.763 366.938,-198.756 365.682,-209.276 372.517,-207.763"/>
</g>
<!-- Node16&#45;&gt;Node11 -->
<g id="edge35" class="edge"><title>Node16&#45;&gt;Node11</title>
<path fill="none" stroke="midnightblue" d="M436.086,-307.936C494.444,-296.335 598.728,-275.606 663.363,-262.758"/>
<polygon fill="midnightblue" stroke="midnightblue" points="664.258,-266.149 673.383,-260.766 662.893,-259.283 664.258,-266.149"/>
</g>
<!-- Node17&#45;&gt;Node2 -->
<g id="edge38" class="edge"><title>Node17&#45;&gt;Node2</title>
<path fill="none" stroke="midnightblue" d="M751.539,-377.549C813.288,-365.773 944.784,-340.029 952,-333 978.718,-306.976 972,-288.797 972,-251.5 972,-251.5 972,-251.5 972,-132 972,-85.2465 1016.42,-45.8551 1044.51,-25.6189"/>
<polygon fill="midnightblue" stroke="midnightblue" points="1046.77,-28.3157 1052.98,-19.7367 1042.77,-22.5662 1046.77,-28.3157"/>
</g>
<!-- Node17&#45;&gt;Node8 -->
<g id="edge44" class="edge"><title>Node17&#45;&gt;Node8</title>
<path fill="none" stroke="midnightblue" d="M688.265,-381.689C600.45,-376.358 359.167,-359.413 336,-333 304.635,-297.24 334.884,-237.004 353.235,-207.437"/>
<polygon fill="midnightblue" stroke="midnightblue" points="356.414,-208.966 358.896,-198.665 350.533,-205.17 356.414,-208.966"/>
</g>
<!-- Node17&#45;&gt;Node11 -->
<g id="edge43" class="edge"><title>Node17&#45;&gt;Node11</title>
<path fill="none" stroke="midnightblue" d="M720,-374.839C720,-355.019 720,-305.769 720,-275.844"/>
<polygon fill="midnightblue" stroke="midnightblue" points="723.5,-275.783 720,-265.783 716.5,-275.783 723.5,-275.783"/>
</g>
<!-- Node18 -->
<g id="node18" class="node"><title>Node18</title>
<g id="a_node18"><a xlink:href="pca9534_8h.html" target="_top" xlink:title="driver/pca9534.h">
<polygon fill="white" stroke="black" points="497.5,-308 497.5,-327 584.5,-327 584.5,-308 497.5,-308"/>
<text text-anchor="middle" x="541" y="-315" font-family="Helvetica,sans-Serif" font-size="10.00">driver/pca9534.h</text>
</a>
</g>
</g>
<!-- Node17&#45;&gt;Node18 -->
<g id="edge39" class="edge"><title>Node17&#45;&gt;Node18</title>
<path fill="none" stroke="midnightblue" d="M696.23,-374.869C664.849,-363.473 609.441,-343.353 574.01,-330.487"/>
<polygon fill="midnightblue" stroke="midnightblue" points="575.177,-327.187 564.583,-327.064 572.788,-333.767 575.177,-327.187"/>
</g>
<!-- Node19 -->
<g id="node19" class="node"><title>Node19</title>
<g id="a_node19"><a xlink:href="lcd__commands_8h.html" target="_top" xlink:title="driver/include/lcd\l_commands.h">
<polygon fill="white" stroke="black" points="602.5,-302.5 602.5,-332.5 691.5,-332.5 691.5,-302.5 602.5,-302.5"/>
<text text-anchor="start" x="610.5" y="-320.5" font-family="Helvetica,sans-Serif" font-size="10.00">driver/include/lcd</text>
<text text-anchor="middle" x="647" y="-309.5" font-family="Helvetica,sans-Serif" font-size="10.00">_commands.h</text>
</a>
</g>
</g>
<!-- Node17&#45;&gt;Node19 -->
<g id="edge42" class="edge"><title>Node17&#45;&gt;Node19</title>
<path fill="none" stroke="midnightblue" d="M710.155,-374.734C700.005,-365.696 683.808,-351.274 670.358,-339.298"/>
<polygon fill="midnightblue" stroke="midnightblue" points="672.619,-336.625 662.823,-332.589 667.964,-341.853 672.619,-336.625"/>
</g>
<!-- Node18&#45;&gt;Node2 -->
<g id="edge40" class="edge"><title>Node18&#45;&gt;Node2</title>
<path fill="none" stroke="midnightblue" d="M548.979,-307.74C565.931,-288.181 604,-238.824 604,-190 604,-190 604,-190 604,-132 604,-43.4549 924.982,-18.4745 1032.43,-12.5929"/>
<polygon fill="midnightblue" stroke="midnightblue" points="1032.63,-16.0872 1042.43,-12.0672 1032.26,-9.09688 1032.63,-16.0872"/>
</g>
<!-- Node18&#45;&gt;Node4 -->
<g id="edge41" class="edge"><title>Node18&#45;&gt;Node4</title>
<path fill="none" stroke="midnightblue" d="M497.217,-308.595C427.349,-295.98 291.542,-271.459 222.888,-259.063"/>
<polygon fill="midnightblue" stroke="midnightblue" points="223.326,-255.586 212.864,-257.253 222.083,-262.474 223.326,-255.586"/>
</g>
<!-- Node20&#45;&gt;Node2 -->
<g id="edge46" class="edge"><title>Node20&#45;&gt;Node2</title>
<path fill="none" stroke="midnightblue" d="M925.764,-436.345C925.811,-420.936 928.083,-388.534 945,-369 972.664,-337.057 1000.44,-359.939 1033,-333 1066.29,-305.455 1086,-294.708 1086,-251.5 1086,-251.5 1086,-251.5 1086,-132 1086,-95.2858 1077.36,-53.0556 1071.73,-29.4499"/>
<polygon fill="midnightblue" stroke="midnightblue" points="1075.13,-28.6007 1069.33,-19.7318 1068.33,-30.2793 1075.13,-28.6007"/>
</g>
<!-- Node20&#45;&gt;Node5 -->
<g id="edge49" class="edge"><title>Node20&#45;&gt;Node5</title>
<path fill="none" stroke="midnightblue" d="M890.212,-441.652C794.228,-431.831 535.153,-399.511 488,-333 482.839,-325.721 491.205,-200.763 494.637,-152.662"/>
<polygon fill="midnightblue" stroke="midnightblue" points="498.129,-152.902 495.358,-142.676 491.147,-152.398 498.129,-152.902"/>
</g>
<!-- Node20&#45;&gt;Node21 -->
<g id="edge47" class="edge"><title>Node20&#45;&gt;Node21</title>
<path fill="none" stroke="midnightblue" d="M933.594,-436.475C941.701,-427.373 954.735,-412.741 964.763,-401.483"/>
<polygon fill="midnightblue" stroke="midnightblue" points="967.383,-403.804 971.42,-394.009 962.156,-399.148 967.383,-403.804"/>
</g>
<!-- Node21&#45;&gt;Node2 -->
<g id="edge48" class="edge"><title>Node21&#45;&gt;Node2</title>
<path fill="none" stroke="midnightblue" d="M1000.95,-374.906C1034.86,-361.547 1096.49,-336.919 1100,-333 1125.21,-304.885 1124,-289.26 1124,-251.5 1124,-251.5 1124,-251.5 1124,-132 1124,-96.578 1116.02,-87.5921 1100,-56 1094.92,-45.9742 1087.66,-35.7923 1081.25,-27.6554"/>
<polygon fill="midnightblue" stroke="midnightblue" points="1083.8,-25.2532 1074.76,-19.7327 1078.39,-29.6876 1083.8,-25.2532"/>
</g>
<!-- Node22&#45;&gt;Node2 -->
<g id="edge52" class="edge"><title>Node22&#45;&gt;Node2</title>
<path fill="none" stroke="midnightblue" d="M888.907,-374.983C926.898,-364.922 985.47,-347.693 1003,-333 1034.71,-306.421 1048,-292.877 1048,-251.5 1048,-251.5 1048,-251.5 1048,-132 1048,-95.2858 1056.64,-53.0556 1062.27,-29.4499"/>
<polygon fill="midnightblue" stroke="midnightblue" points="1065.67,-30.2793 1064.67,-19.7318 1058.87,-28.6007 1065.67,-30.2793"/>
</g>
<!-- Node22&#45;&gt;Node5 -->
<g id="edge53" class="edge"><title>Node22&#45;&gt;Node5</title>
<path fill="none" stroke="midnightblue" d="M889.534,-374.92C924.417,-365.472 974.725,-349.43 986,-333 993.796,-321.64 993.627,-313.474 986,-302 884.407,-149.17 633.428,-133.241 535.775,-133.068"/>
<polygon fill="midnightblue" stroke="midnightblue" points="535.712,-129.568 525.726,-133.106 535.739,-136.568 535.712,-129.568"/>
</g>
<!-- Node22&#45;&gt;Node11 -->
<g id="edge54" class="edge"><title>Node22&#45;&gt;Node11</title>
<path fill="none" stroke="midnightblue" d="M837.841,-374.915C821.077,-365.978 795.459,-350.81 777,-333 759.072,-315.702 743.247,-292.014 732.849,-274.634"/>
<polygon fill="midnightblue" stroke="midnightblue" points="735.708,-272.589 727.652,-265.708 729.659,-276.111 735.708,-272.589"/>
</g>
<!-- Node22&#45;&gt;Node15 -->
<g id="edge55" class="edge"><title>Node22&#45;&gt;Node15</title>
<path fill="none" stroke="midnightblue" d="M856.349,-374.734C857.818,-365.183 860.213,-349.618 862.11,-337.283"/>
<polygon fill="midnightblue" stroke="midnightblue" points="865.611,-337.543 863.673,-327.127 858.693,-336.479 865.611,-337.543"/>
</g>
<!-- Node24&#45;&gt;Node2 -->
<g id="edge58" class="edge"><title>Node24&#45;&gt;Node2</title>
<path fill="none" stroke="midnightblue" d="M1052.35,-436.23C1046.72,-421.202 1037.87,-390.11 1051,-369 1070.1,-338.28 1098.7,-358.858 1124,-333 1151.95,-304.433 1162,-291.466 1162,-251.5 1162,-251.5 1162,-251.5 1162,-132 1162,-85.2465 1117.58,-45.8551 1089.49,-25.6189"/>
<polygon fill="midnightblue" stroke="midnightblue" points="1091.23,-22.5662 1081.02,-19.7367 1087.23,-28.3157 1091.23,-22.5662"/>
</g>
<!-- Node24&#45;&gt;Node12 -->
<g id="edge60" class="edge"><title>Node24&#45;&gt;Node12</title>
<path fill="none" stroke="midnightblue" d="M1061.13,-455.751C1062.66,-462.858 1063.1,-473.136 1062.47,-482.101"/>
<polygon fill="midnightblue" stroke="midnightblue" points="1058.99,-481.713 1061.17,-492.083 1065.93,-482.622 1058.99,-481.713"/>
</g>
<!-- Node24&#45;&gt;Node17 -->
<g id="edge59" class="edge"><title>Node24&#45;&gt;Node17</title>
<path fill="none" stroke="midnightblue" d="M1017.78,-438.233C954.272,-426.986 827.489,-404.534 761.727,-392.889"/>
<polygon fill="midnightblue" stroke="midnightblue" points="762.173,-389.414 751.716,-391.116 760.952,-396.307 762.173,-389.414"/>
</g>
<!-- Node24&#45;&gt;Node21 -->
<g id="edge65" class="edge"><title>Node24&#45;&gt;Node21</title>
<path fill="none" stroke="midnightblue" d="M1044.97,-436.475C1032.73,-427.02 1012.77,-411.596 998.007,-400.187"/>
<polygon fill="midnightblue" stroke="midnightblue" points="1000.06,-397.354 990.012,-394.009 995.785,-402.893 1000.06,-397.354"/>
</g>
<!-- Node24&#45;&gt;Node22 -->
<g id="edge61" class="edge"><title>Node24&#45;&gt;Node22</title>
<path fill="none" stroke="midnightblue" d="M1027.2,-436.475C992.126,-426.092 932.737,-408.512 893.693,-396.954"/>
<polygon fill="midnightblue" stroke="midnightblue" points="894.327,-393.492 883.745,-394.009 892.34,-400.204 894.327,-393.492"/>
</g>
<!-- Node24&#45;&gt;Node23 -->
<g id="edge62" class="edge"><title>Node24&#45;&gt;Node23</title>
<path fill="none" stroke="midnightblue" d="M1082.36,-436.475C1114.34,-426.136 1168.38,-408.661 1204.12,-397.102"/>
<polygon fill="midnightblue" stroke="midnightblue" points="1205.25,-400.416 1213.69,-394.009 1203.09,-393.756 1205.25,-400.416"/>
</g>
<!-- Node25 -->
<g id="node25" class="node"><title>Node25</title>
<g id="a_node25"><a xlink:href="menu__struct_8h.html" target="_top" xlink:title="menu/menu_struct.h">
<polygon fill="white" stroke="black" points="1060,-375 1060,-394 1166,-394 1166,-375 1060,-375"/>
<text text-anchor="middle" x="1113" y="-382" font-family="Helvetica,sans-Serif" font-size="10.00">menu/menu_struct.h</text>
</a>
</g>
</g>
<!-- Node24&#45;&gt;Node25 -->
<g id="edge63" class="edge"><title>Node24&#45;&gt;Node25</title>
<path fill="none" stroke="midnightblue" d="M1059.27,-436.475C1066.13,-427.197 1080.16,-412.171 1092.32,-400.831"/>
<polygon fill="midnightblue" stroke="midnightblue" points="1094.83,-403.284 1099.95,-394.009 1090.16,-398.067 1094.83,-403.284"/>
</g>
<!-- Node25&#45;&gt;Node24 -->
<g id="edge64" class="edge"><title>Node25&#45;&gt;Node24</title>
<path fill="none" stroke="midnightblue" d="M1109.75,-394.009C1102.89,-403.281 1088.86,-418.306 1076.7,-429.65"/>
<polygon fill="midnightblue" stroke="midnightblue" points="1074.19,-427.199 1069.07,-436.475 1078.85,-432.416 1074.19,-427.199"/>
</g>
<!-- Node26&#45;&gt;Node2 -->
<g id="edge68" class="edge"><title>Node26&#45;&gt;Node2</title>
<path fill="none" stroke="midnightblue" d="M1396.46,-436.414C1397.51,-415.986 1400,-362.885 1400,-318.5 1400,-318.5 1400,-318.5 1400,-132 1400,-83.9157 1365.73,-78.052 1323,-56 1250.75,-18.7105 1153.38,-11.6201 1102.05,-10.691"/>
<polygon fill="midnightblue" stroke="midnightblue" points="1101.86,-7.18879 1091.82,-10.5776 1101.78,-14.1884 1101.86,-7.18879"/>
</g>
<!-- Node27 -->
<g id="node27" class="node"><title>Node27</title>
<g id="a_node27"><a xlink:href="station__list__struct_8h.html" target="_top" xlink:title="system/station_list\l_struct.h">
<polygon fill="white" stroke="black" points="1428.5,-369.5 1428.5,-399.5 1527.5,-399.5 1527.5,-369.5 1428.5,-369.5"/>
<text text-anchor="start" x="1436.5" y="-387.5" font-family="Helvetica,sans-Serif" font-size="10.00">system/station_list</text>
<text text-anchor="middle" x="1478" y="-376.5" font-family="Helvetica,sans-Serif" font-size="10.00">_struct.h</text>
</a>
</g>
</g>
<!-- Node26&#45;&gt;Node27 -->
<g id="edge69" class="edge"><title>Node26&#45;&gt;Node27</title>
<path fill="none" stroke="midnightblue" d="M1407.75,-436.475C1418.85,-428.417 1435.93,-416.023 1450.47,-405.474"/>
<polygon fill="midnightblue" stroke="midnightblue" points="1452.64,-408.229 1458.67,-399.523 1448.52,-402.563 1452.64,-408.229"/>
</g>
<!-- Node27&#45;&gt;Node2 -->
<g id="edge70" class="edge"><title>Node27&#45;&gt;Node2</title>
<path fill="none" stroke="midnightblue" d="M1474.42,-369.347C1468.67,-345.298 1458,-294.843 1458,-251.5 1458,-251.5 1458,-251.5 1458,-132 1458,-92.9698 1446.49,-77.6332 1414,-56 1363.35,-22.2745 1179.49,-13.7755 1101.91,-11.674"/>
<polygon fill="midnightblue" stroke="midnightblue" points="1101.78,-8.16969 1091.69,-11.4179 1101.6,-15.1675 1101.78,-8.16969"/>
</g>
<!-- Node27&#45;&gt;Node12 -->
<g id="edge71" class="edge"><title>Node27&#45;&gt;Node12</title>
<path fill="none" stroke="midnightblue" d="M1478.54,-399.558C1478.33,-415.791 1475.26,-442.046 1459,-456 1432.76,-478.527 1209.36,-492.985 1106.94,-498.488"/>
<polygon fill="midnightblue" stroke="midnightblue" points="1106.62,-495 1096.82,-499.023 1106.99,-501.99 1106.62,-495"/>
</g>
<!-- Node28&#45;&gt;Node2 -->
<g id="edge73" class="edge"><title>Node28&#45;&gt;Node2</title>
<path fill="none" stroke="midnightblue" d="M1564.34,-436.198C1561.98,-403.594 1554,-286.6 1554,-190 1554,-190 1554,-190 1554,-132 1554,-38.7416 1213.39,-16.84 1101.88,-12.1686"/>
<polygon fill="midnightblue" stroke="midnightblue" points="1101.95,-8.66887 1091.82,-11.7685 1101.67,-15.6633 1101.95,-8.66887"/>
</g>
<!-- Node28&#45;&gt;Node12 -->
<g id="edge74" class="edge"><title>Node28&#45;&gt;Node12</title>
<path fill="none" stroke="midnightblue" d="M1506.39,-455.383C1504.58,-455.593 1502.78,-455.799 1501,-456 1358.51,-472.135 1189.55,-488.899 1106.71,-496.623"/>
<polygon fill="midnightblue" stroke="midnightblue" points="1106.19,-493.156 1096.56,-497.564 1106.84,-500.126 1106.19,-493.156"/>
</g>
<!-- Node29&#45;&gt;Node2 -->
<g id="edge77" class="edge"><title>Node29&#45;&gt;Node2</title>
<path fill="none" stroke="midnightblue" d="M1622.67,-240.767C1624.52,-209.785 1626.17,-104.415 1568,-56 1532.27,-26.2644 1209.43,-14.8637 1101.77,-11.8682"/>
<polygon fill="midnightblue" stroke="midnightblue" points="1101.84,-8.3689 1091.75,-11.5966 1101.65,-15.3663 1101.84,-8.3689"/>
</g>
</g>
</svg>
