<?xml version="1.0" encoding="UTF-8" standalone="no"?>
<!DOCTYPE svg PUBLIC "-//W3C//DTD SVG 1.1//EN"
 "http://www.w3.org/Graphics/SVG/1.1/DTD/svg11.dtd">
<!-- Generated by graphviz version 2.38.0 (20140413.2041)
 -->
<!-- Title: rsq_update Pages: 1 -->
<svg width="231pt" height="28pt"
 viewBox="0.00 0.00 231.00 28.00" xmlns="http://www.w3.org/2000/svg" xmlns:xlink="http://www.w3.org/1999/xlink">
<g id="graph0" class="graph" transform="scale(1 1) rotate(0) translate(4 24)">
<title>rsq_update</title>
<polygon fill="white" stroke="none" points="-4,4 -4,-24 227,-24 227,4 -4,4"/>
<!-- Node1 -->
<g id="node1" class="node"><title>Node1</title>
<polygon fill="#bfbfbf" stroke="black" points="0,-0.5 0,-19.5 65,-19.5 65,-0.5 0,-0.5"/>
<text text-anchor="middle" x="32.5" y="-7.5" font-family="Helvetica,sans-Serif" font-size="10.00">rsq_update</text>
</g>
<!-- Node2 -->
<g id="node2" class="node"><title>Node2</title>
<g id="a_node2"><a xlink:href="handler_8c.html#a4f639cde11f5cab70d795fd2f75c9d22" target="_top" xlink:title="Handler for menu, RDS, time, the encoders and rsq. ">
<polygon fill="white" stroke="black" points="101,-0.5 101,-19.5 149,-19.5 149,-0.5 101,-0.5"/>
<text text-anchor="middle" x="125" y="-7.5" font-family="Helvetica,sans-Serif" font-size="10.00">handler</text>
</a>
</g>
</g>
<!-- Node1&#45;&gt;Node2 -->
<g id="edge1" class="edge"><title>Node1&#45;&gt;Node2</title>
<path fill="none" stroke="midnightblue" d="M75.2833,-10C84.0493,-10 92.9897,-10 100.778,-10"/>
<polygon fill="midnightblue" stroke="midnightblue" points="75.1525,-6.5001 65.1525,-10 75.1525,-13.5001 75.1525,-6.5001"/>
</g>
<!-- Node3 -->
<g id="node3" class="node"><title>Node3</title>
<g id="a_node3"><a xlink:href="main_8c.html#a840291bc02cba5474a4cb46a9b9566fe" target="_top" xlink:title="Main function. ">
<polygon fill="white" stroke="black" points="185,-0.5 185,-19.5 223,-19.5 223,-0.5 185,-0.5"/>
<text text-anchor="middle" x="204" y="-7.5" font-family="Helvetica,sans-Serif" font-size="10.00">main</text>
</a>
</g>
</g>
<!-- Node2&#45;&gt;Node3 -->
<g id="edge2" class="edge"><title>Node2&#45;&gt;Node3</title>
<path fill="none" stroke="midnightblue" d="M159.352,-10C167.996,-10 176.993,-10 184.557,-10"/>
<polygon fill="midnightblue" stroke="midnightblue" points="159.103,-6.5001 149.103,-10 159.103,-13.5001 159.103,-6.5001"/>
</g>
</g>
</svg>
