<?xml version="1.0" encoding="UTF-8" standalone="no"?>
<!DOCTYPE svg PUBLIC "-//W3C//DTD SVG 1.1//EN"
 "http://www.w3.org/Graphics/SVG/1.1/DTD/svg11.dtd">
<!-- Generated by graphviz version 2.38.0 (20140413.2041)
 -->
<!-- Title: si4735_fm_tune_status Pages: 1 -->
<svg width="786pt" height="47pt"
 viewBox="0.00 0.00 786.00 47.00" xmlns="http://www.w3.org/2000/svg" xmlns:xlink="http://www.w3.org/1999/xlink">
<g id="graph0" class="graph" transform="scale(1 1) rotate(0) translate(4 43)">
<title>si4735_fm_tune_status</title>
<polygon fill="white" stroke="none" points="-4,4 -4,-43 782,-43 782,4 -4,4"/>
<!-- Node1 -->
<g id="node1" class="node"><title>Node1</title>
<polygon fill="#bfbfbf" stroke="black" points="0,-19.5 0,-38.5 117,-38.5 117,-19.5 0,-19.5"/>
<text text-anchor="middle" x="58.5" y="-26.5" font-family="Helvetica,sans-Serif" font-size="10.00">si4735_fm_tune_status</text>
</g>
<!-- Node2 -->
<g id="node2" class="node"><title>Node2</title>
<g id="a_node2"><a xlink:href="radio_8c.html#aee6321b512830d482a2fc164cf11f9e9" target="_top" xlink:title="radio_seeking">
<polygon fill="white" stroke="black" points="153,-19.5 153,-38.5 230,-38.5 230,-19.5 153,-19.5"/>
<text text-anchor="middle" x="191.5" y="-26.5" font-family="Helvetica,sans-Serif" font-size="10.00">radio_seeking</text>
</a>
</g>
</g>
<!-- Node1&#45;&gt;Node2 -->
<g id="edge1" class="edge"><title>Node1&#45;&gt;Node2</title>
<path fill="none" stroke="midnightblue" d="M127.565,-29C136.282,-29 144.939,-29 152.917,-29"/>
<polygon fill="midnightblue" stroke="midnightblue" points="127.34,-25.5001 117.34,-29 127.34,-32.5001 127.34,-25.5001"/>
</g>
<!-- Node3 -->
<g id="node3" class="node"><title>Node3</title>
<g id="a_node3"><a xlink:href="radio_8c.html#a832a684fc60104296fc975a7608f92b4" target="_top" xlink:title="radio_settings">
<polygon fill="white" stroke="black" points="398,-19.5 398,-38.5 475,-38.5 475,-19.5 398,-19.5"/>
<text text-anchor="middle" x="436.5" y="-26.5" font-family="Helvetica,sans-Serif" font-size="10.00">radio_settings</text>
</a>
</g>
</g>
<!-- Node2&#45;&gt;Node3 -->
<g id="edge2" class="edge"><title>Node2&#45;&gt;Node3</title>
<path fill="none" stroke="midnightblue" d="M240.253,-29C286.37,-29 355.287,-29 397.709,-29"/>
<polygon fill="midnightblue" stroke="midnightblue" points="240.202,-25.5001 230.202,-29 240.202,-32.5001 240.202,-25.5001"/>
</g>
<!-- Node7 -->
<g id="node7" class="node"><title>Node7</title>
<g id="a_node7"><a xlink:href="radio_8c.html#ac96da2886aec92b299b27b500761564c" target="_top" xlink:title="radio_auto_search">
<polygon fill="white" stroke="black" points="266,-0.5 266,-19.5 362,-19.5 362,-0.5 266,-0.5"/>
<text text-anchor="middle" x="314" y="-7.5" font-family="Helvetica,sans-Serif" font-size="10.00">radio_auto_search</text>
</a>
</g>
</g>
<!-- Node2&#45;&gt;Node7 -->
<g id="edge6" class="edge"><title>Node2&#45;&gt;Node7</title>
<path fill="none" stroke="midnightblue" d="M240.249,-21.4711C248.581,-20.1573 257.247,-18.7909 265.571,-17.4784"/>
<polygon fill="midnightblue" stroke="midnightblue" points="239.629,-18.0255 230.296,-23.0404 240.719,-24.9401 239.629,-18.0255"/>
</g>
<!-- Node4 -->
<g id="node4" class="node"><title>Node4</title>
<g id="a_node4"><a xlink:href="menu_8c.html#a5d9c190838195d7872fc7067269e20fa" target="_top" xlink:title="menu_function">
<polygon fill="white" stroke="black" points="511,-19.5 511,-38.5 591,-38.5 591,-19.5 511,-19.5"/>
<text text-anchor="middle" x="551" y="-26.5" font-family="Helvetica,sans-Serif" font-size="10.00">menu_function</text>
</a>
</g>
</g>
<!-- Node3&#45;&gt;Node4 -->
<g id="edge3" class="edge"><title>Node3&#45;&gt;Node4</title>
<path fill="none" stroke="midnightblue" d="M485.474,-29C493.985,-29 502.755,-29 510.981,-29"/>
<polygon fill="midnightblue" stroke="midnightblue" points="485.274,-25.5001 475.274,-29 485.274,-32.5001 485.274,-25.5001"/>
</g>
<!-- Node5 -->
<g id="node5" class="node"><title>Node5</title>
<g id="a_node5"><a xlink:href="menu_8c.html#aaf2a075d3159f7eeab42012941a3437f" target="_top" xlink:title="menu_handler">
<polygon fill="white" stroke="black" points="627,-19.5 627,-38.5 704,-38.5 704,-19.5 627,-19.5"/>
<text text-anchor="middle" x="665.5" y="-26.5" font-family="Helvetica,sans-Serif" font-size="10.00">menu_handler</text>
</a>
</g>
</g>
<!-- Node4&#45;&gt;Node5 -->
<g id="edge4" class="edge"><title>Node4&#45;&gt;Node5</title>
<path fill="none" stroke="midnightblue" d="M601.262,-29C609.783,-29 618.52,-29 626.676,-29"/>
<polygon fill="midnightblue" stroke="midnightblue" points="601.031,-25.5001 591.031,-29 601.031,-32.5001 601.031,-25.5001"/>
</g>
<!-- Node6 -->
<g id="node6" class="node"><title>Node6</title>
<g id="a_node6"><a xlink:href="main_8c.html#a840291bc02cba5474a4cb46a9b9566fe" target="_top" xlink:title="main">
<polygon fill="white" stroke="black" points="740,-19.5 740,-38.5 778,-38.5 778,-19.5 740,-19.5"/>
<text text-anchor="middle" x="759" y="-26.5" font-family="Helvetica,sans-Serif" font-size="10.00">main</text>
</a>
</g>
</g>
<!-- Node5&#45;&gt;Node6 -->
<g id="edge5" class="edge"><title>Node5&#45;&gt;Node6</title>
<path fill="none" stroke="midnightblue" d="M714.362,-29C723.347,-29 732.223,-29 739.601,-29"/>
<polygon fill="midnightblue" stroke="midnightblue" points="714.245,-25.5001 704.245,-29 714.245,-32.5001 714.245,-25.5001"/>
</g>
<!-- Node7&#45;&gt;Node3 -->
<g id="edge7" class="edge"><title>Node7&#45;&gt;Node3</title>
<path fill="none" stroke="midnightblue" d="M372.303,-19.0353C380.909,-20.3923 389.596,-21.762 397.659,-23.0333"/>
<polygon fill="midnightblue" stroke="midnightblue" points="372.702,-15.5551 362.279,-17.4548 371.612,-22.4697 372.702,-15.5551"/>
</g>
</g>
</svg>
