<?xml version="1.0" encoding="UTF-8" standalone="no"?>
<!DOCTYPE svg PUBLIC "-//W3C//DTD SVG 1.1//EN"
 "http://www.w3.org/Graphics/SVG/1.1/DTD/svg11.dtd">
<!-- Generated by graphviz version 2.38.0 (20140413.2041)
 -->
<!-- Title: si4735_fm_seek_start Pages: 1 -->
<svg width="781pt" height="104pt"
 viewBox="0.00 0.00 781.00 104.00" xmlns="http://www.w3.org/2000/svg" xmlns:xlink="http://www.w3.org/1999/xlink">
<g id="graph0" class="graph" transform="scale(1 1) rotate(0) translate(4 100)">
<title>si4735_fm_seek_start</title>
<polygon fill="white" stroke="none" points="-4,4 -4,-100 777,-100 777,4 -4,4"/>
<!-- Node1 -->
<g id="node1" class="node"><title>Node1</title>
<polygon fill="#bfbfbf" stroke="black" points="0,-57.5 0,-76.5 112,-76.5 112,-57.5 0,-57.5"/>
<text text-anchor="middle" x="56" y="-64.5" font-family="Helvetica,sans-Serif" font-size="10.00">si4735_fm_seek_start</text>
</g>
<!-- Node2 -->
<g id="node2" class="node"><title>Node2</title>
<g id="a_node2"><a xlink:href="si4735_8c.html#a876518b974a7128391e2ff86a597218f" target="_top" xlink:title="SI4735_INIT">
<polygon fill="white" stroke="black" points="152.5,-76.5 152.5,-95.5 220.5,-95.5 220.5,-76.5 152.5,-76.5"/>
<text text-anchor="middle" x="186.5" y="-83.5" font-family="Helvetica,sans-Serif" font-size="10.00">SI4735_INIT</text>
</a>
</g>
</g>
<!-- Node1&#45;&gt;Node2 -->
<g id="edge1" class="edge"><title>Node1&#45;&gt;Node2</title>
<path fill="none" stroke="midnightblue" d="M122.187,-76.6386C132.587,-78.1763 142.955,-79.7093 152.199,-81.0761"/>
<polygon fill="midnightblue" stroke="midnightblue" points="122.646,-73.1684 112.241,-75.168 121.622,-80.0931 122.646,-73.1684"/>
</g>
<!-- Node5 -->
<g id="node5" class="node"><title>Node5</title>
<g id="a_node5"><a xlink:href="radio_8c.html#aee6321b512830d482a2fc164cf11f9e9" target="_top" xlink:title="radio_seeking">
<polygon fill="white" stroke="black" points="148,-38.5 148,-57.5 225,-57.5 225,-38.5 148,-38.5"/>
<text text-anchor="middle" x="186.5" y="-45.5" font-family="Helvetica,sans-Serif" font-size="10.00">radio_seeking</text>
</a>
</g>
</g>
<!-- Node1&#45;&gt;Node5 -->
<g id="edge4" class="edge"><title>Node1&#45;&gt;Node5</title>
<path fill="none" stroke="midnightblue" d="M122.406,-57.3291C131.086,-56.0457 139.738,-54.7664 147.727,-53.5851"/>
<polygon fill="midnightblue" stroke="midnightblue" points="121.622,-53.9069 112.241,-58.832 122.646,-60.8316 121.622,-53.9069"/>
</g>
<!-- Node3 -->
<g id="node3" class="node"><title>Node3</title>
<g id="a_node3"><a xlink:href="radio_8c.html#a3a1de7e31aabba6e408a633c130e618a" target="_top" xlink:title="radio_init">
<polygon fill="white" stroke="black" points="403.5,-76.5 403.5,-95.5 459.5,-95.5 459.5,-76.5 403.5,-76.5"/>
<text text-anchor="middle" x="431.5" y="-83.5" font-family="Helvetica,sans-Serif" font-size="10.00">radio_init</text>
</a>
</g>
</g>
<!-- Node2&#45;&gt;Node3 -->
<g id="edge2" class="edge"><title>Node2&#45;&gt;Node3</title>
<path fill="none" stroke="midnightblue" d="M230.684,-86C280.595,-86 361.231,-86 403.178,-86"/>
<polygon fill="midnightblue" stroke="midnightblue" points="230.525,-82.5001 220.525,-86 230.525,-89.5001 230.525,-82.5001"/>
</g>
<!-- Node4 -->
<g id="node4" class="node"><title>Node4</title>
<g id="a_node4"><a xlink:href="main_8c.html#a840291bc02cba5474a4cb46a9b9566fe" target="_top" xlink:title="main">
<polygon fill="white" stroke="black" points="735,-57.5 735,-76.5 773,-76.5 773,-57.5 735,-57.5"/>
<text text-anchor="middle" x="754" y="-64.5" font-family="Helvetica,sans-Serif" font-size="10.00">main</text>
</a>
</g>
</g>
<!-- Node3&#45;&gt;Node4 -->
<g id="edge3" class="edge"><title>Node3&#45;&gt;Node4</title>
<path fill="none" stroke="midnightblue" d="M469.956,-83.7795C539.019,-79.6853 684.013,-71.0897 734.889,-68.0737"/>
<polygon fill="midnightblue" stroke="midnightblue" points="469.325,-80.3107 459.549,-84.3964 469.739,-87.2984 469.325,-80.3107"/>
</g>
<!-- Node6 -->
<g id="node6" class="node"><title>Node6</title>
<g id="a_node6"><a xlink:href="radio_8c.html#a832a684fc60104296fc975a7608f92b4" target="_top" xlink:title="radio_settings">
<polygon fill="white" stroke="black" points="393,-38.5 393,-57.5 470,-57.5 470,-38.5 393,-38.5"/>
<text text-anchor="middle" x="431.5" y="-45.5" font-family="Helvetica,sans-Serif" font-size="10.00">radio_settings</text>
</a>
</g>
</g>
<!-- Node5&#45;&gt;Node6 -->
<g id="edge5" class="edge"><title>Node5&#45;&gt;Node6</title>
<path fill="none" stroke="midnightblue" d="M235.253,-48C281.37,-48 350.287,-48 392.709,-48"/>
<polygon fill="midnightblue" stroke="midnightblue" points="235.202,-44.5001 225.202,-48 235.202,-51.5001 235.202,-44.5001"/>
</g>
<!-- Node9 -->
<g id="node9" class="node"><title>Node9</title>
<g id="a_node9"><a xlink:href="radio_8c.html#ac96da2886aec92b299b27b500761564c" target="_top" xlink:title="radio_auto_search">
<polygon fill="white" stroke="black" points="261,-0.5 261,-19.5 357,-19.5 357,-0.5 261,-0.5"/>
<text text-anchor="middle" x="309" y="-7.5" font-family="Helvetica,sans-Serif" font-size="10.00">radio_auto_search</text>
</a>
</g>
</g>
<!-- Node5&#45;&gt;Node9 -->
<g id="edge9" class="edge"><title>Node5&#45;&gt;Node9</title>
<path fill="none" stroke="midnightblue" d="M227.71,-35.3196C243.992,-30.1852 262.477,-24.3559 277.602,-19.5859"/>
<polygon fill="midnightblue" stroke="midnightblue" points="226.392,-32.0654 217.907,-38.411 228.497,-38.7414 226.392,-32.0654"/>
</g>
<!-- Node7 -->
<g id="node7" class="node"><title>Node7</title>
<g id="a_node7"><a xlink:href="menu_8c.html#a5d9c190838195d7872fc7067269e20fa" target="_top" xlink:title="menu_function">
<polygon fill="white" stroke="black" points="506,-38.5 506,-57.5 586,-57.5 586,-38.5 506,-38.5"/>
<text text-anchor="middle" x="546" y="-45.5" font-family="Helvetica,sans-Serif" font-size="10.00">menu_function</text>
</a>
</g>
</g>
<!-- Node6&#45;&gt;Node7 -->
<g id="edge6" class="edge"><title>Node6&#45;&gt;Node7</title>
<path fill="none" stroke="midnightblue" d="M480.474,-48C488.985,-48 497.755,-48 505.981,-48"/>
<polygon fill="midnightblue" stroke="midnightblue" points="480.274,-44.5001 470.274,-48 480.274,-51.5001 480.274,-44.5001"/>
</g>
<!-- Node8 -->
<g id="node8" class="node"><title>Node8</title>
<g id="a_node8"><a xlink:href="menu_8c.html#aaf2a075d3159f7eeab42012941a3437f" target="_top" xlink:title="menu_handler">
<polygon fill="white" stroke="black" points="622,-38.5 622,-57.5 699,-57.5 699,-38.5 622,-38.5"/>
<text text-anchor="middle" x="660.5" y="-45.5" font-family="Helvetica,sans-Serif" font-size="10.00">menu_handler</text>
</a>
</g>
</g>
<!-- Node7&#45;&gt;Node8 -->
<g id="edge7" class="edge"><title>Node7&#45;&gt;Node8</title>
<path fill="none" stroke="midnightblue" d="M596.262,-48C604.783,-48 613.52,-48 621.676,-48"/>
<polygon fill="midnightblue" stroke="midnightblue" points="596.031,-44.5001 586.031,-48 596.031,-51.5001 596.031,-44.5001"/>
</g>
<!-- Node8&#45;&gt;Node4 -->
<g id="edge8" class="edge"><title>Node8&#45;&gt;Node4</title>
<path fill="none" stroke="midnightblue" d="M709.072,-57.8783C718.156,-59.7646 727.144,-61.631 734.601,-63.1793"/>
<polygon fill="midnightblue" stroke="midnightblue" points="709.748,-54.444 699.245,-55.8377 708.324,-61.2978 709.748,-54.444"/>
</g>
<!-- Node9&#45;&gt;Node6 -->
<g id="edge10" class="edge"><title>Node9&#45;&gt;Node6</title>
<path fill="none" stroke="midnightblue" d="M350.21,-22.6804C366.492,-27.8148 384.977,-33.6441 400.102,-38.4141"/>
<polygon fill="midnightblue" stroke="midnightblue" points="350.997,-19.2586 340.407,-19.589 348.892,-25.9346 350.997,-19.2586"/>
</g>
</g>
</svg>
