<?xml version="1.0" encoding="UTF-8" standalone="no"?>
<!DOCTYPE svg PUBLIC "-//W3C//DTD SVG 1.1//EN"
 "http://www.w3.org/Graphics/SVG/1.1/DTD/svg11.dtd">
<!-- Generated by graphviz version 2.38.0 (20140413.2041)
 -->
<!-- Title: si4735_fm_tune_freq Pages: 1 -->
<!--zoomable 142 -->
<svg id="main" version="1.1" xmlns="http://www.w3.org/2000/svg" xmlns:xlink="http://www.w3.org/1999/xlink" xml:space="preserve" onload="init(evt)">
<style type="text/css"><![CDATA[
.edge:hover path { stroke: red; }
.edge:hover polygon { stroke: red; fill: red; }
]]></style>
<script type="text/javascript"><![CDATA[
var edges = document.getElementsByTagName('g');
if (edges && edges.length) {
  for (var i=0;i<edges.length;i++) {
    if (edges[i].id.substr(0,4)=='edge') {
      edges[i].setAttribute('class','edge');
    }
  }
}
]]></script>
        <defs>
                <circle id="rim" cx="0" cy="0" r="7"/>
                <circle id="rim2" cx="0" cy="0" r="3.5"/>
                <g id="zoomPlus">
                        <use xlink:href="#rim" fill="#404040">
                                <set attributeName="fill" to="#808080" begin="zoomplus.mouseover" end="zoomplus.mouseout"/>
                        </use>
                        <path d="M-4,0h8M0,-4v8" fill="none" stroke="white" stroke-width="1.5" pointer-events="none"/>
                </g>
                <g id="zoomMin">
                        <use xlink:href="#rim" fill="#404040">
                                <set attributeName="fill" to="#808080" begin="zoomminus.mouseover" end="zoomminus.mouseout"/>
                        </use>
                        <path d="M-4,0h8" fill="none" stroke="white" stroke-width="1.5" pointer-events="none"/>
                </g>
                <g id="dirArrow">
                        <path fill="none" stroke="white" stroke-width="1.5" d="M0,-3.0v7 M-2.5,-0.5L0,-3.0L2.5,-0.5"/>
                </g>
               <g id="resetDef">
                       <use xlink:href="#rim2" fill="#404040">
                               <set attributeName="fill" to="#808080" begin="reset.mouseover" end="reset.mouseout"/>
                       </use>
               </g>
        </defs>

<script type="text/javascript">
var viewWidth = 907;
var viewHeight = 142;
var sectionId = 'dynsection-11';
</script>
<script xlink:href="svgpan.js"/>
<svg id="graph" class="graph">
<g id="viewport">
<title>si4735_fm_tune_freq</title>
<polygon fill="white" stroke="none" points="-4,4 -4,-138 903,-138 903,4 -4,4"/>
<!-- Node1 -->
<g id="node1" class="node"><title>Node1</title>
<polygon fill="#bfbfbf" stroke="black" points="0,-95.5 0,-114.5 106,-114.5 106,-95.5 0,-95.5"/>
<text text-anchor="middle" x="53" y="-102.5" font-family="Helvetica,sans-Serif" font-size="10.00">si4735_fm_tune_freq</text>
</g>
<!-- Node2 -->
<g id="node2" class="node"><title>Node2</title>
<g id="a_node2"><a xlink:href="si4735_8c.html#a876518b974a7128391e2ff86a597218f" target="_top" xlink:title="SI4735_INIT">
<polygon fill="white" stroke="black" points="149.5,-114.5 149.5,-133.5 217.5,-133.5 217.5,-114.5 149.5,-114.5"/>
<text text-anchor="middle" x="183.5" y="-121.5" font-family="Helvetica,sans-Serif" font-size="10.00">SI4735_INIT</text>
</a>
</g>
</g>
<!-- Node1&#45;&gt;Node2 -->
<g id="edge1" class="edge"><title>Node1&#45;&gt;Node2</title>
<path fill="none" stroke="midnightblue" d="M116.279,-114.209C127.739,-115.903 139.283,-117.61 149.45,-119.113"/>
<polygon fill="midnightblue" stroke="midnightblue" points="116.67,-110.728 106.266,-112.728 115.646,-117.653 116.67,-110.728"/>
</g>
<!-- Node5 -->
<g id="node5" class="node"><title>Node5</title>
<g id="a_node5"><a xlink:href="radio_8c.html#a6d652e9d0f1c54bfe9ec73fe2605b706" target="_top" xlink:title="radio_tune_freq">
<polygon fill="white" stroke="black" points="142,-76.5 142,-95.5 225,-95.5 225,-76.5 142,-76.5"/>
<text text-anchor="middle" x="183.5" y="-83.5" font-family="Helvetica,sans-Serif" font-size="10.00">radio_tune_freq</text>
</a>
</g>
</g>
<!-- Node1&#45;&gt;Node5 -->
<g id="edge4" class="edge"><title>Node1&#45;&gt;Node5</title>
<path fill="none" stroke="midnightblue" d="M116.328,-95.7842C124.95,-94.5094 133.617,-93.2278 141.709,-92.0313"/>
<polygon fill="midnightblue" stroke="midnightblue" points="115.646,-92.3468 106.266,-97.272 116.67,-99.2715 115.646,-92.3468"/>
</g>
<!-- Node3 -->
<g id="node3" class="node"><title>Node3</title>
<g id="a_node3"><a xlink:href="radio_8c.html#a3a1de7e31aabba6e408a633c130e618a" target="_top" xlink:title="radio_init">
<polygon fill="white" stroke="black" points="412.5,-114.5 412.5,-133.5 468.5,-133.5 468.5,-114.5 412.5,-114.5"/>
<text text-anchor="middle" x="440.5" y="-121.5" font-family="Helvetica,sans-Serif" font-size="10.00">radio_init</text>
</a>
</g>
</g>
<!-- Node2&#45;&gt;Node3 -->
<g id="edge2" class="edge"><title>Node2&#45;&gt;Node3</title>
<path fill="none" stroke="midnightblue" d="M227.639,-124C280.407,-124 368.146,-124 412.321,-124"/>
<polygon fill="midnightblue" stroke="midnightblue" points="227.575,-120.5 217.575,-124 227.575,-127.5 227.575,-120.5"/>
</g>
<!-- Node4 -->
<g id="node4" class="node"><title>Node4</title>
<g id="a_node4"><a xlink:href="main_8c.html#a840291bc02cba5474a4cb46a9b9566fe" target="_top" xlink:title="main">
<polygon fill="white" stroke="black" points="861,-95.5 861,-114.5 899,-114.5 899,-95.5 861,-95.5"/>
<text text-anchor="middle" x="880" y="-102.5" font-family="Helvetica,sans-Serif" font-size="10.00">main</text>
</a>
</g>
</g>
<!-- Node3&#45;&gt;Node4 -->
<g id="edge3" class="edge"><title>Node3&#45;&gt;Node4</title>
<path fill="none" stroke="midnightblue" d="M478.542,-122.391C568.346,-118.491 795.116,-108.643 860.869,-105.787"/>
<polygon fill="midnightblue" stroke="midnightblue" points="478.376,-118.895 468.537,-122.826 478.68,-125.889 478.376,-118.895"/>
</g>
<!-- Node6 -->
<g id="node6" class="node"><title>Node6</title>
<g id="a_node6"><a xlink:href="radio_8c.html#a5f7fcd9e9755fb5e22175a4ad74a5456" target="_top" xlink:title="radio_main">
<polygon fill="white" stroke="black" points="525.5,-76.5 525.5,-95.5 589.5,-95.5 589.5,-76.5 525.5,-76.5"/>
<text text-anchor="middle" x="557.5" y="-83.5" font-family="Helvetica,sans-Serif" font-size="10.00">radio_main</text>
</a>
</g>
</g>
<!-- Node5&#45;&gt;Node6 -->
<g id="edge5" class="edge"><title>Node5&#45;&gt;Node6</title>
<path fill="none" stroke="midnightblue" d="M235.117,-86C313.318,-86 461.181,-86 525.412,-86"/>
<polygon fill="midnightblue" stroke="midnightblue" points="235.019,-82.5001 225.019,-86 235.019,-89.5001 235.019,-82.5001"/>
</g>
<!-- Node9 -->
<g id="node9" class="node"><title>Node9</title>
<g id="a_node9"><a xlink:href="station__list_8h.html#a5b16204c2b6824ce89364d614f074b20" target="_top" xlink:title="station_list_handler">
<polygon fill="white" stroke="black" points="261,-38.5 261,-57.5 362,-57.5 362,-38.5 261,-38.5"/>
<text text-anchor="middle" x="311.5" y="-45.5" font-family="Helvetica,sans-Serif" font-size="10.00">station_list_handler</text>
</a>
</g>
</g>
<!-- Node5&#45;&gt;Node9 -->
<g id="edge9" class="edge"><title>Node5&#45;&gt;Node9</title>
<path fill="none" stroke="midnightblue" d="M226.064,-73.4647C243.205,-68.2952 262.75,-62.4009 278.715,-57.5859"/>
<polygon fill="midnightblue" stroke="midnightblue" points="224.859,-70.1726 216.295,-76.411 226.88,-76.8744 224.859,-70.1726"/>
</g>
<!-- Node7 -->
<g id="node7" class="node"><title>Node7</title>
<g id="a_node7"><a xlink:href="menu_8c.html#a5d9c190838195d7872fc7067269e20fa" target="_top" xlink:title="menu_function">
<polygon fill="white" stroke="black" points="632,-76.5 632,-95.5 712,-95.5 712,-76.5 632,-76.5"/>
<text text-anchor="middle" x="672" y="-83.5" font-family="Helvetica,sans-Serif" font-size="10.00">menu_function</text>
</a>
</g>
</g>
<!-- Node6&#45;&gt;Node7 -->
<g id="edge6" class="edge"><title>Node6&#45;&gt;Node7</title>
<path fill="none" stroke="midnightblue" d="M599.661,-86C610.091,-86 621.269,-86 631.609,-86"/>
<polygon fill="midnightblue" stroke="midnightblue" points="599.539,-82.5001 589.539,-86 599.539,-89.5001 599.539,-82.5001"/>
</g>
<!-- Node8 -->
<g id="node8" class="node"><title>Node8</title>
<g id="a_node8"><a xlink:href="menu_8c.html#aaf2a075d3159f7eeab42012941a3437f" target="_top" xlink:title="menu_handler">
<polygon fill="white" stroke="black" points="748,-76.5 748,-95.5 825,-95.5 825,-76.5 748,-76.5"/>
<text text-anchor="middle" x="786.5" y="-83.5" font-family="Helvetica,sans-Serif" font-size="10.00">menu_handler</text>
</a>
</g>
</g>
<!-- Node7&#45;&gt;Node8 -->
<g id="edge7" class="edge"><title>Node7&#45;&gt;Node8</title>
<path fill="none" stroke="midnightblue" d="M722.262,-86C730.783,-86 739.52,-86 747.676,-86"/>
<polygon fill="midnightblue" stroke="midnightblue" points="722.031,-82.5001 712.031,-86 722.031,-89.5001 722.031,-82.5001"/>
</g>
<!-- Node8&#45;&gt;Node4 -->
<g id="edge8" class="edge"><title>Node8&#45;&gt;Node4</title>
<path fill="none" stroke="midnightblue" d="M835.072,-95.8783C844.156,-97.7646 853.144,-99.631 860.601,-101.179"/>
<polygon fill="midnightblue" stroke="midnightblue" points="835.748,-92.444 825.245,-93.8377 834.324,-99.2978 835.748,-92.444"/>
</g>
<!-- Node10 -->
<g id="node10" class="node"><title>Node10</title>
<g id="a_node10"><a xlink:href="radio_8c.html#a832a684fc60104296fc975a7608f92b4" target="_top" xlink:title="radio_settings">
<polygon fill="white" stroke="black" points="519,-38.5 519,-57.5 596,-57.5 596,-38.5 519,-38.5"/>
<text text-anchor="middle" x="557.5" y="-45.5" font-family="Helvetica,sans-Serif" font-size="10.00">radio_settings</text>
</a>
</g>
</g>
<!-- Node9&#45;&gt;Node10 -->
<g id="edge10" class="edge"><title>Node9&#45;&gt;Node10</title>
<path fill="none" stroke="midnightblue" d="M372.266,-48C418.039,-48 479.774,-48 518.865,-48"/>
<polygon fill="midnightblue" stroke="midnightblue" points="372.171,-44.5001 362.171,-48 372.171,-51.5001 372.171,-44.5001"/>
</g>
<!-- Node11 -->
<g id="node11" class="node"><title>Node11</title>
<g id="a_node11"><a xlink:href="radio_8c.html#aae41d271062b3f94cccf4fb5996b04a2" target="_top" xlink:title="radio_frequency">
<polygon fill="white" stroke="black" points="398,-0.5 398,-19.5 483,-19.5 483,-0.5 398,-0.5"/>
<text text-anchor="middle" x="440.5" y="-7.5" font-family="Helvetica,sans-Serif" font-size="10.00">radio_frequency</text>
</a>
</g>
</g>
<!-- Node9&#45;&gt;Node11 -->
<g id="edge12" class="edge"><title>Node9&#45;&gt;Node11</title>
<path fill="none" stroke="midnightblue" d="M354.394,-35.4647C371.671,-30.2952 391.371,-24.4009 407.463,-19.5859"/>
<polygon fill="midnightblue" stroke="midnightblue" points="353.124,-32.1912 344.547,-38.411 355.131,-38.8975 353.124,-32.1912"/>
</g>
<!-- Node10&#45;&gt;Node7 -->
<g id="edge11" class="edge"><title>Node10&#45;&gt;Node7</title>
<path fill="none" stroke="midnightblue" d="M596.471,-60.8259C611.567,-65.9247 628.632,-71.6891 642.621,-76.4141"/>
<polygon fill="midnightblue" stroke="midnightblue" points="597.483,-57.4733 586.889,-57.589 595.243,-64.1052 597.483,-57.4733"/>
</g>
<!-- Node11&#45;&gt;Node10 -->
<g id="edge13" class="edge"><title>Node11&#45;&gt;Node10</title>
<path fill="none" stroke="midnightblue" d="M480.315,-22.8259C495.746,-27.9247 513.191,-33.6891 527.49,-38.4141"/>
<polygon fill="midnightblue" stroke="midnightblue" points="481.113,-19.4033 470.519,-19.589 478.916,-26.0498 481.113,-19.4033"/>
</g>
</g>
</svg>
        <g id="navigator" transform="translate(0 0)" fill="#404254">
                <rect fill="#f2f5e9" fill-opacity="0.5" stroke="#606060" stroke-width=".5" x="0" y="0" width="60" height="60"/>
                <use id="zoomplus" xlink:href="#zoomPlus" x="17" y="9" onmousedown="handleZoom(evt,'in')"/>
                <use id="zoomminus" xlink:href="#zoomMin" x="42" y="9" onmousedown="handleZoom(evt,'out')"/>
                <use id="reset" xlink:href="#resetDef" x="30" y="36" onmousedown="handleReset()"/>
                <g id="arrowUp" xlink:href="#dirArrow" transform="translate(30 24)" onmousedown="handlePan(0,-1)">
                  <use xlink:href="#rim" fill="#404040">
                        <set attributeName="fill" to="#808080" begin="arrowUp.mouseover" end="arrowUp.mouseout"/>
                  </use>
                  <path fill="none" stroke="white" stroke-width="1.5" d="M0,-3.0v7 M-2.5,-0.5L0,-3.0L2.5,-0.5"/>
                </g>
                <g id="arrowRight" xlink:href="#dirArrow" transform="rotate(90) translate(36 -43)" onmousedown="handlePan(1,0)">
                  <use xlink:href="#rim" fill="#404040">
                        <set attributeName="fill" to="#808080" begin="arrowRight.mouseover" end="arrowRight.mouseout"/>
                  </use>
                  <path fill="none" stroke="white" stroke-width="1.5" d="M0,-3.0v7 M-2.5,-0.5L0,-3.0L2.5,-0.5"/>
                </g>
                <g id="arrowDown" xlink:href="#dirArrow" transform="rotate(180) translate(-30 -48)" onmousedown="handlePan(0,1)">
                  <use xlink:href="#rim" fill="#404040">
                        <set attributeName="fill" to="#808080" begin="arrowDown.mouseover" end="arrowDown.mouseout"/>
                  </use>
                  <path fill="none" stroke="white" stroke-width="1.5" d="M0,-3.0v7 M-2.5,-0.5L0,-3.0L2.5,-0.5"/>
                </g>
                <g id="arrowLeft" xlink:href="#dirArrow" transform="rotate(270) translate(-36 17)" onmousedown="handlePan(-1,0)">
                  <use xlink:href="#rim" fill="#404040">
                        <set attributeName="fill" to="#808080" begin="arrowLeft.mouseover" end="arrowLeft.mouseout"/>
                  </use>
                  <path fill="none" stroke="white" stroke-width="1.5" d="M0,-3.0v7 M-2.5,-0.5L0,-3.0L2.5,-0.5"/>
                </g>
        </g>
        <svg viewBox="0 0 15 15" width="100%" height="30px" preserveAspectRatio="xMaxYMin meet">
         <g id="arrow_out" transform="scale(0.3 0.3)">
          <a xlink:href="si4735_8c_af82ec28b536b1258ea4178108c61d5e9_icgraph_org.svg" target="_base">
           <rect id="button" ry="5" rx="5" y="6" x="6" height="38" width="38"
                fill="#f2f5e9" fill-opacity="0.5" stroke="#606060" stroke-width="1.0"/>
           <path id="arrow"
             d="M 11.500037,31.436501 C 11.940474,20.09759 22.043105,11.32322 32.158766,21.979434 L 37.068811,17.246167 C 37.068811,17.246167 37.088388,32 37.088388,32 L 22.160133,31.978069 C 22.160133,31.978069 26.997745,27.140456 26.997745,27.140456 C 18.528582,18.264221 13.291696,25.230495 11.500037,31.436501 z"
             style="fill:#404040;"/>
          </a>
         </g>
        </svg>
</svg>
