<?xml version="1.0" encoding="UTF-8" standalone="no"?>
<!DOCTYPE svg PUBLIC "-//W3C//DTD SVG 1.1//EN"
 "http://www.w3.org/Graphics/SVG/1.1/DTD/svg11.dtd">
<!-- Generated by graphviz version 2.38.0 (20140413.2041)
 -->
<!-- Title: D:/GIT/fhradiov2/driver/include/si4735_cmd_prop.h Pages: 1 -->
<!--zoomable 642 -->
<svg id="main" version="1.1" xmlns="http://www.w3.org/2000/svg" xmlns:xlink="http://www.w3.org/1999/xlink" xml:space="preserve" onload="init(evt)">
<style type="text/css"><![CDATA[
.edge:hover path { stroke: red; }
.edge:hover polygon { stroke: red; fill: red; }
]]></style>
<script type="text/javascript"><![CDATA[
var edges = document.getElementsByTagName('g');
if (edges && edges.length) {
  for (var i=0;i<edges.length;i++) {
    if (edges[i].id.substr(0,4)=='edge') {
      edges[i].setAttribute('class','edge');
    }
  }
}
]]></script>
        <defs>
                <circle id="rim" cx="0" cy="0" r="7"/>
                <circle id="rim2" cx="0" cy="0" r="3.5"/>
                <g id="zoomPlus">
                        <use xlink:href="#rim" fill="#404040">
                                <set attributeName="fill" to="#808080" begin="zoomplus.mouseover" end="zoomplus.mouseout"/>
                        </use>
                        <path d="M-4,0h8M0,-4v8" fill="none" stroke="white" stroke-width="1.5" pointer-events="none"/>
                </g>
                <g id="zoomMin">
                        <use xlink:href="#rim" fill="#404040">
                                <set attributeName="fill" to="#808080" begin="zoomminus.mouseover" end="zoomminus.mouseout"/>
                        </use>
                        <path d="M-4,0h8" fill="none" stroke="white" stroke-width="1.5" pointer-events="none"/>
                </g>
                <g id="dirArrow">
                        <path fill="none" stroke="white" stroke-width="1.5" d="M0,-3.0v7 M-2.5,-0.5L0,-3.0L2.5,-0.5"/>
                </g>
               <g id="resetDef">
                       <use xlink:href="#rim2" fill="#404040">
                               <set attributeName="fill" to="#808080" begin="reset.mouseover" end="reset.mouseout"/>
                       </use>
               </g>
        </defs>

<script type="text/javascript">
var viewWidth = 1570;
var viewHeight = 642;
var sectionId = 'dynsection-1';
</script>
<script xlink:href="svgpan.js"/>
<svg id="graph" class="graph">
<g id="viewport">
<title>D:/GIT/fhradiov2/driver/include/si4735_cmd_prop.h</title>
<polygon fill="white" stroke="none" points="-4,4 -4,-638 1566,-638 1566,4 -4,4"/>
<!-- Node1 -->
<g id="node1" class="node"><title>Node1</title>
<polygon fill="#bfbfbf" stroke="black" points="796,-603.5 796,-633.5 934,-633.5 934,-603.5 796,-603.5"/>
<text text-anchor="start" x="804" y="-621.5" font-family="Helvetica,sans-Serif" font-size="10.00">D:/GIT/fhradiov2/driver</text>
<text text-anchor="middle" x="865" y="-610.5" font-family="Helvetica,sans-Serif" font-size="10.00">/include/si4735_cmd_prop.h</text>
</g>
<!-- Node2 -->
<g id="node2" class="node"><title>Node2</title>
<g id="a_node2"><a xlink:href="si4735_8c.html" target="_top" xlink:title="D:/GIT/fhradiov2/driver\l/src/si4735.c">
<polygon fill="white" stroke="black" points="0,-268.5 0,-298.5 110,-298.5 110,-268.5 0,-268.5"/>
<text text-anchor="start" x="8" y="-286.5" font-family="Helvetica,sans-Serif" font-size="10.00">D:/GIT/fhradiov2/driver</text>
<text text-anchor="middle" x="55" y="-275.5" font-family="Helvetica,sans-Serif" font-size="10.00">/src/si4735.c</text>
</a>
</g>
</g>
<!-- Node1&#45;&gt;Node2 -->
<g id="edge1" class="edge"><title>Node1&#45;&gt;Node2</title>
<path fill="none" stroke="midnightblue" d="M785.633,-612.823C581.834,-599.756 56,-558.928 56,-485.5 56,-485.5 56,-485.5 56,-416.5 56,-373.645 55.4664,-322.965 55.1788,-298.759"/>
<polygon fill="midnightblue" stroke="midnightblue" points="785.474,-616.319 795.675,-613.461 785.917,-609.333 785.474,-616.319"/>
</g>
<!-- Node3 -->
<g id="node3" class="node"><title>Node3</title>
<g id="a_node3"><a xlink:href="radio__configuration_8h.html" target="_top" xlink:title="D:/GIT/fhradiov2/settings\l/radio_configuration.h">
<polygon fill="white" stroke="black" points="804,-536.5 804,-566.5 926,-566.5 926,-536.5 804,-536.5"/>
<text text-anchor="start" x="812" y="-554.5" font-family="Helvetica,sans-Serif" font-size="10.00">D:/GIT/fhradiov2/settings</text>
<text text-anchor="middle" x="865" y="-543.5" font-family="Helvetica,sans-Serif" font-size="10.00">/radio_configuration.h</text>
</a>
</g>
</g>
<!-- Node1&#45;&gt;Node3 -->
<g id="edge2" class="edge"><title>Node1&#45;&gt;Node3</title>
<path fill="none" stroke="midnightblue" d="M865,-593.108C865,-584.154 865,-574.323 865,-566.577"/>
<polygon fill="midnightblue" stroke="midnightblue" points="861.5,-593.396 865,-603.396 868.5,-593.396 861.5,-593.396"/>
</g>
<!-- Node11 -->
<g id="node11" class="node"><title>Node11</title>
<g id="a_node11"><a xlink:href="radio_8h.html" target="_top" xlink:title="D:/GIT/fhradiov2/system\l/radio.h">
<polygon fill="white" stroke="black" points="1031,-201.5 1031,-231.5 1151,-231.5 1151,-201.5 1031,-201.5"/>
<text text-anchor="start" x="1039" y="-219.5" font-family="Helvetica,sans-Serif" font-size="10.00">D:/GIT/fhradiov2/system</text>
<text text-anchor="middle" x="1091" y="-208.5" font-family="Helvetica,sans-Serif" font-size="10.00">/radio.h</text>
</a>
</g>
</g>
<!-- Node1&#45;&gt;Node11 -->
<g id="edge66" class="edge"><title>Node1&#45;&gt;Node11</title>
<path fill="none" stroke="midnightblue" d="M944.006,-608.867C1065.17,-593.402 1283,-555.82 1283,-485.5 1283,-485.5 1283,-485.5 1283,-349.5 1283,-284.273 1206.82,-248.845 1150.44,-231.556"/>
<polygon fill="midnightblue" stroke="midnightblue" points="943.511,-605.402 934.024,-610.119 944.382,-612.347 943.511,-605.402"/>
</g>
<!-- Node3&#45;&gt;Node2 -->
<g id="edge3" class="edge"><title>Node3&#45;&gt;Node2</title>
<path fill="none" stroke="midnightblue" d="M793.939,-547.654C629.331,-539.761 227.94,-512.646 123,-433 100.074,-415.6 70.749,-332.419 59.5891,-298.722"/>
<polygon fill="midnightblue" stroke="midnightblue" points="793.809,-551.152 803.962,-548.125 794.137,-544.159 793.809,-551.152"/>
</g>
<!-- Node4 -->
<g id="node4" class="node"><title>Node4</title>
<g id="a_node4"><a xlink:href="timer_8h.html" target="_top" xlink:title="D:/GIT/fhradiov2/driver\l/timer.h">
<polygon fill="white" stroke="black" points="810,-469.5 810,-499.5 920,-499.5 920,-469.5 810,-469.5"/>
<text text-anchor="start" x="818" y="-487.5" font-family="Helvetica,sans-Serif" font-size="10.00">D:/GIT/fhradiov2/driver</text>
<text text-anchor="middle" x="865" y="-476.5" font-family="Helvetica,sans-Serif" font-size="10.00">/timer.h</text>
</a>
</g>
</g>
<!-- Node3&#45;&gt;Node4 -->
<g id="edge4" class="edge"><title>Node3&#45;&gt;Node4</title>
<path fill="none" stroke="midnightblue" d="M865,-526.108C865,-517.154 865,-507.323 865,-499.577"/>
<polygon fill="midnightblue" stroke="midnightblue" points="861.5,-526.396 865,-536.396 868.5,-526.396 861.5,-526.396"/>
</g>
<!-- Node3&#45;&gt;Node11 -->
<g id="edge65" class="edge"><title>Node3&#45;&gt;Node11</title>
<path fill="none" stroke="midnightblue" d="M936.087,-540.64C1046.08,-523.363 1245,-483.177 1245,-418.5 1245,-418.5 1245,-418.5 1245,-349.5 1245,-289.285 1176.29,-250.617 1130.66,-231.578"/>
<polygon fill="midnightblue" stroke="midnightblue" points="935.401,-537.204 926.054,-542.191 936.471,-544.122 935.401,-537.204"/>
</g>
<!-- Node5 -->
<g id="node5" class="node"><title>Node5</title>
<g id="a_node5"><a xlink:href="i2c_8h.html" target="_top" xlink:title="I2C implemtation for MSP430G2553, interrupt based. &#160;&#160;This implemtation based on examples from Texas I...">
<polygon fill="white" stroke="black" points="593,-402.5 593,-432.5 703,-432.5 703,-402.5 593,-402.5"/>
<text text-anchor="start" x="601" y="-420.5" font-family="Helvetica,sans-Serif" font-size="10.00">D:/GIT/fhradiov2/driver</text>
<text text-anchor="middle" x="648" y="-409.5" font-family="Helvetica,sans-Serif" font-size="10.00">/i2c.h</text>
</a>
</g>
</g>
<!-- Node4&#45;&gt;Node5 -->
<g id="edge5" class="edge"><title>Node4&#45;&gt;Node5</title>
<path fill="none" stroke="midnightblue" d="M808.512,-466.58C773.267,-456.022 728.431,-442.592 695.109,-432.611"/>
<polygon fill="midnightblue" stroke="midnightblue" points="807.598,-469.959 818.181,-469.476 809.606,-463.254 807.598,-469.959"/>
</g>
<!-- Node10 -->
<g id="node10" class="node"><title>Node10</title>
<g id="a_node10"><a xlink:href="main_8c.html" target="_top" xlink:title="D:/GIT/fhradiov2/main.c">
<polygon fill="white" stroke="black" points="452.5,-73 452.5,-92 569.5,-92 569.5,-73 452.5,-73"/>
<text text-anchor="middle" x="511" y="-80" font-family="Helvetica,sans-Serif" font-size="10.00">D:/GIT/fhradiov2/main.c</text>
</a>
</g>
</g>
<!-- Node4&#45;&gt;Node10 -->
<g id="edge60" class="edge"><title>Node4&#45;&gt;Node10</title>
<path fill="none" stroke="midnightblue" d="M799.466,-484.164C637.277,-484.142 225.236,-473.344 156,-366 138.077,-338.212 76.5127,-239.787 178,-134 196.697,-114.511 361.841,-96.8501 452.319,-88.529"/>
<polygon fill="midnightblue" stroke="midnightblue" points="799.786,-487.664 809.781,-484.151 799.777,-480.664 799.786,-487.664"/>
</g>
<!-- Node4&#45;&gt;Node11 -->
<g id="edge63" class="edge"><title>Node4&#45;&gt;Node11</title>
<path fill="none" stroke="midnightblue" d="M930.268,-482.908C1014.89,-480.596 1155.51,-470.967 1188,-433 1236.41,-376.43 1205.25,-326.35 1159,-268 1147.31,-253.25 1130.31,-240.625 1116.23,-231.687"/>
<polygon fill="midnightblue" stroke="midnightblue" points="930.148,-479.41 920.237,-483.156 930.32,-486.408 930.148,-479.41"/>
</g>
<!-- Node18 -->
<g id="node18" class="node"><title>Node18</title>
<g id="a_node18"><a xlink:href="rds_8h.html" target="_top" xlink:title="D:/GIT/fhradiov2/system\l/rds.h">
<polygon fill="white" stroke="black" points="687,-134.5 687,-164.5 807,-164.5 807,-134.5 687,-134.5"/>
<text text-anchor="start" x="695" y="-152.5" font-family="Helvetica,sans-Serif" font-size="10.00">D:/GIT/fhradiov2/system</text>
<text text-anchor="middle" x="747" y="-141.5" font-family="Helvetica,sans-Serif" font-size="10.00">/rds.h</text>
</a>
</g>
</g>
<!-- Node4&#45;&gt;Node18 -->
<g id="edge64" class="edge"><title>Node4&#45;&gt;Node18</title>
<path fill="none" stroke="midnightblue" d="M870.119,-459.49C873.71,-443.197 878.785,-421.208 884,-402 900.045,-342.909 930.245,-327.55 916,-268 908.231,-235.524 906.893,-223.258 882,-201 868.756,-189.157 828.668,-174.915 795.591,-164.579"/>
<polygon fill="midnightblue" stroke="midnightblue" points="866.694,-458.772 867.987,-469.288 873.534,-460.261 866.694,-458.772"/>
</g>
<!-- Node28 -->
<g id="node28" class="node"><title>Node28</title>
<g id="a_node28"><a xlink:href="lcd_8h.html" target="_top" xlink:title="D:/GIT/fhradiov2/driver\l/lcd.h">
<polygon fill="white" stroke="black" points="359,-268.5 359,-298.5 469,-298.5 469,-268.5 359,-268.5"/>
<text text-anchor="start" x="367" y="-286.5" font-family="Helvetica,sans-Serif" font-size="10.00">D:/GIT/fhradiov2/driver</text>
<text text-anchor="middle" x="414" y="-275.5" font-family="Helvetica,sans-Serif" font-size="10.00">/lcd.h</text>
</a>
</g>
</g>
<!-- Node4&#45;&gt;Node28 -->
<g id="edge56" class="edge"><title>Node4&#45;&gt;Node28</title>
<path fill="none" stroke="midnightblue" d="M799.617,-476.821C685.351,-463.579 457.314,-429.627 414,-366 400.305,-345.882 405.013,-316.007 409.577,-298.568"/>
<polygon fill="midnightblue" stroke="midnightblue" points="799.312,-480.309 809.644,-477.964 800.104,-473.354 799.312,-480.309"/>
</g>
<!-- Node31 -->
<g id="node31" class="node"><title>Node31</title>
<g id="a_node31"><a xlink:href="si4735_8h.html" target="_top" xlink:title="D:/GIT/fhradiov2/driver\l/si4735.h">
<polygon fill="white" stroke="black" points="165,-335.5 165,-365.5 275,-365.5 275,-335.5 165,-335.5"/>
<text text-anchor="start" x="173" y="-353.5" font-family="Helvetica,sans-Serif" font-size="10.00">D:/GIT/fhradiov2/driver</text>
<text text-anchor="middle" x="220" y="-342.5" font-family="Helvetica,sans-Serif" font-size="10.00">/si4735.h</text>
</a>
</g>
</g>
<!-- Node4&#45;&gt;Node31 -->
<g id="edge57" class="edge"><title>Node4&#45;&gt;Node31</title>
<path fill="none" stroke="midnightblue" d="M799.413,-484.133C704.977,-483.383 526.102,-475.714 381,-433 327.805,-417.341 271.204,-384.375 241.336,-365.52"/>
<polygon fill="midnightblue" stroke="midnightblue" points="799.652,-487.634 809.672,-484.19 799.691,-480.634 799.652,-487.634"/>
</g>
<!-- Node33 -->
<g id="node33" class="node"><title>Node33</title>
<g id="a_node33"><a xlink:href="tpa2016d2_8h.html" target="_top" xlink:title="D:/GIT/fhradiov2/driver\l/tpa2016d2.h">
<polygon fill="white" stroke="black" points="931,-335.5 931,-365.5 1041,-365.5 1041,-335.5 931,-335.5"/>
<text text-anchor="start" x="939" y="-353.5" font-family="Helvetica,sans-Serif" font-size="10.00">D:/GIT/fhradiov2/driver</text>
<text text-anchor="middle" x="986" y="-342.5" font-family="Helvetica,sans-Serif" font-size="10.00">/tpa2016d2.h</text>
</a>
</g>
</g>
<!-- Node4&#45;&gt;Node33 -->
<g id="edge59" class="edge"><title>Node4&#45;&gt;Node33</title>
<path fill="none" stroke="midnightblue" d="M930.177,-478.054C960.244,-471.895 993.337,-459.146 1012,-433 1026.76,-412.329 1010.2,-382.91 997.576,-365.652"/>
<polygon fill="midnightblue" stroke="midnightblue" points="929.326,-474.651 920.122,-479.899 930.589,-481.536 929.326,-474.651"/>
</g>
<!-- Node35 -->
<g id="node35" class="node"><title>Node35</title>
<g id="a_node35"><a xlink:href="timer_8c.html" target="_top" xlink:title="D:/GIT/fhradiov2/driver\l/src/timer.c">
<polygon fill="white" stroke="black" points="893,-402.5 893,-432.5 1003,-432.5 1003,-402.5 893,-402.5"/>
<text text-anchor="start" x="901" y="-420.5" font-family="Helvetica,sans-Serif" font-size="10.00">D:/GIT/fhradiov2/driver</text>
<text text-anchor="middle" x="948" y="-409.5" font-family="Helvetica,sans-Serif" font-size="10.00">/src/timer.c</text>
</a>
</g>
</g>
<!-- Node4&#45;&gt;Node35 -->
<g id="edge58" class="edge"><title>Node4&#45;&gt;Node35</title>
<path fill="none" stroke="midnightblue" d="M890.963,-463.168C903.655,-453.228 918.612,-441.514 930.025,-432.577"/>
<polygon fill="midnightblue" stroke="midnightblue" points="888.725,-460.475 883.01,-469.396 893.041,-465.986 888.725,-460.475"/>
</g>
<!-- Node36 -->
<g id="node36" class="node"><title>Node36</title>
<g id="a_node36"><a xlink:href="handler_8h.html" target="_top" xlink:title="D:/GIT/fhradiov2/system\l/handler.h">
<polygon fill="white" stroke="black" points="1059,-402.5 1059,-432.5 1179,-432.5 1179,-402.5 1059,-402.5"/>
<text text-anchor="start" x="1067" y="-420.5" font-family="Helvetica,sans-Serif" font-size="10.00">D:/GIT/fhradiov2/system</text>
<text text-anchor="middle" x="1119" y="-409.5" font-family="Helvetica,sans-Serif" font-size="10.00">/handler.h</text>
</a>
</g>
</g>
<!-- Node4&#45;&gt;Node36 -->
<g id="edge61" class="edge"><title>Node4&#45;&gt;Node36</title>
<path fill="none" stroke="midnightblue" d="M929.538,-466.984C971.026,-456.367 1024.36,-442.72 1063.86,-432.611"/>
<polygon fill="midnightblue" stroke="midnightblue" points="928.622,-463.606 919.802,-469.476 930.357,-470.387 928.622,-463.606"/>
</g>
<!-- Node6 -->
<g id="node6" class="node"><title>Node6</title>
<g id="a_node6"><a xlink:href="opt3001_8h.html" target="_top" xlink:title="D:/GIT/fhradiov2/driver\l/opt3001.h">
<polygon fill="white" stroke="black" points="724,-335.5 724,-365.5 834,-365.5 834,-335.5 724,-335.5"/>
<text text-anchor="start" x="732" y="-353.5" font-family="Helvetica,sans-Serif" font-size="10.00">D:/GIT/fhradiov2/driver</text>
<text text-anchor="middle" x="779" y="-342.5" font-family="Helvetica,sans-Serif" font-size="10.00">/opt3001.h</text>
</a>
</g>
</g>
<!-- Node5&#45;&gt;Node6 -->
<g id="edge6" class="edge"><title>Node5&#45;&gt;Node6</title>
<path fill="none" stroke="midnightblue" d="M685.58,-397.853C706.293,-387.576 731.588,-375.025 750.63,-365.577"/>
<polygon fill="midnightblue" stroke="midnightblue" points="683.827,-394.816 676.425,-402.396 686.939,-401.086 683.827,-394.816"/>
</g>
<!-- Node8 -->
<g id="node8" class="node"><title>Node8</title>
<g id="a_node8"><a xlink:href="pca9530_8h.html" target="_top" xlink:title="D:/GIT/fhradiov2/driver\l/pca9530.h">
<polygon fill="white" stroke="black" points="615,-268.5 615,-298.5 725,-298.5 725,-268.5 615,-268.5"/>
<text text-anchor="start" x="623" y="-286.5" font-family="Helvetica,sans-Serif" font-size="10.00">D:/GIT/fhradiov2/driver</text>
<text text-anchor="middle" x="670" y="-275.5" font-family="Helvetica,sans-Serif" font-size="10.00">/pca9530.h</text>
</a>
</g>
</g>
<!-- Node5&#45;&gt;Node8 -->
<g id="edge8" class="edge"><title>Node5&#45;&gt;Node8</title>
<path fill="none" stroke="midnightblue" d="M660.473,-393.321C664.327,-384.957 668.065,-375.286 670,-366 674.849,-342.729 673.334,-314.902 671.719,-298.521"/>
<polygon fill="midnightblue" stroke="midnightblue" points="657.263,-391.919 655.998,-402.438 663.546,-395.004 657.263,-391.919"/>
</g>
<!-- Node5&#45;&gt;Node10 -->
<g id="edge53" class="edge"><title>Node5&#45;&gt;Node10</title>
<path fill="none" stroke="midnightblue" d="M582.732,-415.418C506.219,-409.998 385.349,-387.182 350,-299 313.074,-206.885 448.385,-119.209 495.435,-92.0731"/>
<polygon fill="midnightblue" stroke="midnightblue" points="582.558,-418.914 592.758,-416.048 582.997,-411.928 582.558,-418.914"/>
</g>
<!-- Node5&#45;&gt;Node18 -->
<g id="edge54" class="edge"><title>Node5&#45;&gt;Node18</title>
<path fill="none" stroke="midnightblue" d="M713.391,-410.399C778.62,-400.139 872.912,-372.644 900,-299 923.321,-235.597 835.635,-187.123 783.361,-164.515"/>
<polygon fill="midnightblue" stroke="midnightblue" points="712.569,-406.982 703.186,-411.902 713.59,-413.908 712.569,-406.982"/>
</g>
<!-- Node20 -->
<g id="node20" class="node"><title>Node20</title>
<g id="a_node20"><a xlink:href="rsq_8h.html" target="_top" xlink:title="D:/GIT/fhradiov2/system\l/rsq.h">
<polygon fill="white" stroke="black" points="207,-134.5 207,-164.5 327,-164.5 327,-134.5 207,-134.5"/>
<text text-anchor="start" x="215" y="-152.5" font-family="Helvetica,sans-Serif" font-size="10.00">D:/GIT/fhradiov2/system</text>
<text text-anchor="middle" x="267" y="-141.5" font-family="Helvetica,sans-Serif" font-size="10.00">/rsq.h</text>
</a>
</g>
</g>
<!-- Node5&#45;&gt;Node20 -->
<g id="edge55" class="edge"><title>Node5&#45;&gt;Node20</title>
<path fill="none" stroke="midnightblue" d="M582.932,-414.39C500.256,-410.369 363.851,-398.823 327,-366 266.679,-312.272 264.77,-203.589 266.175,-164.721"/>
<polygon fill="midnightblue" stroke="midnightblue" points="582.834,-417.889 592.985,-414.854 583.157,-410.896 582.834,-417.889"/>
</g>
<!-- Node27 -->
<g id="node27" class="node"><title>Node27</title>
<g id="a_node27"><a xlink:href="pca9534_8h.html" target="_top" xlink:title="D:/GIT/fhradiov2/driver\l/pca9534.h">
<polygon fill="white" stroke="black" points="551,-335.5 551,-365.5 661,-365.5 661,-335.5 551,-335.5"/>
<text text-anchor="start" x="559" y="-353.5" font-family="Helvetica,sans-Serif" font-size="10.00">D:/GIT/fhradiov2/driver</text>
<text text-anchor="middle" x="606" y="-342.5" font-family="Helvetica,sans-Serif" font-size="10.00">/pca9534.h</text>
</a>
</g>
</g>
<!-- Node5&#45;&gt;Node27 -->
<g id="edge35" class="edge"><title>Node5&#45;&gt;Node27</title>
<path fill="none" stroke="midnightblue" d="M633.376,-393.867C627.297,-384.459 620.431,-373.833 615.096,-365.577"/>
<polygon fill="midnightblue" stroke="midnightblue" points="630.52,-395.896 638.887,-402.396 636.399,-392.097 630.52,-395.896"/>
</g>
<!-- Node5&#45;&gt;Node31 -->
<g id="edge42" class="edge"><title>Node5&#45;&gt;Node31</title>
<path fill="none" stroke="midnightblue" d="M582.483,-408.63C510.356,-399.653 391.077,-383.884 289,-366 284.539,-365.218 279.926,-364.36 275.298,-363.463"/>
<polygon fill="midnightblue" stroke="midnightblue" points="582.42,-412.149 592.775,-409.905 583.281,-405.202 582.42,-412.149"/>
</g>
<!-- Node32 -->
<g id="node32" class="node"><title>Node32</title>
<g id="a_node32"><a xlink:href="i2c_8c.html" target="_top" xlink:title="D:/GIT/fhradiov2/driver\l/src/i2c.c">
<polygon fill="white" stroke="black" points="423,-335.5 423,-365.5 533,-365.5 533,-335.5 423,-335.5"/>
<text text-anchor="start" x="431" y="-353.5" font-family="Helvetica,sans-Serif" font-size="10.00">D:/GIT/fhradiov2/driver</text>
<text text-anchor="middle" x="478" y="-342.5" font-family="Helvetica,sans-Serif" font-size="10.00">/src/i2c.c</text>
</a>
</g>
</g>
<!-- Node5&#45;&gt;Node32 -->
<g id="edge48" class="edge"><title>Node5&#45;&gt;Node32</title>
<path fill="none" stroke="midnightblue" d="M601.756,-398.819C574.431,-388.371 540.307,-375.323 514.815,-365.577"/>
<polygon fill="midnightblue" stroke="midnightblue" points="600.522,-402.094 611.113,-402.396 603.022,-395.555 600.522,-402.094"/>
</g>
<!-- Node5&#45;&gt;Node33 -->
<g id="edge49" class="edge"><title>Node5&#45;&gt;Node33</title>
<path fill="none" stroke="midnightblue" d="M712.927,-404.014C776.19,-391.848 871.314,-373.555 930.966,-362.084"/>
<polygon fill="midnightblue" stroke="midnightblue" points="712.217,-400.586 703.058,-405.912 713.539,-407.46 712.217,-400.586"/>
</g>
<!-- Node7 -->
<g id="node7" class="node"><title>Node7</title>
<g id="a_node7"><a xlink:href="opt3001_8c.html" target="_top" xlink:title="D:/GIT/fhradiov2/driver\l/src/opt3001.c">
<polygon fill="white" stroke="black" points="781,-268.5 781,-298.5 891,-298.5 891,-268.5 781,-268.5"/>
<text text-anchor="start" x="789" y="-286.5" font-family="Helvetica,sans-Serif" font-size="10.00">D:/GIT/fhradiov2/driver</text>
<text text-anchor="middle" x="836" y="-275.5" font-family="Helvetica,sans-Serif" font-size="10.00">/src/opt3001.c</text>
</a>
</g>
</g>
<!-- Node6&#45;&gt;Node7 -->
<g id="edge7" class="edge"><title>Node6&#45;&gt;Node7</title>
<path fill="none" stroke="midnightblue" d="M798.085,-327.736C806.519,-318.119 816.191,-307.089 823.656,-298.577"/>
<polygon fill="midnightblue" stroke="midnightblue" points="795.33,-325.57 791.368,-335.396 800.593,-330.185 795.33,-325.57"/>
</g>
<!-- Node9 -->
<g id="node9" class="node"><title>Node9</title>
<g id="a_node9"><a xlink:href="pca9530_8c.html" target="_top" xlink:title="D:/GIT/fhradiov2/driver\l/src/pca9530.c">
<polygon fill="white" stroke="black" points="643,-201.5 643,-231.5 753,-231.5 753,-201.5 643,-201.5"/>
<text text-anchor="start" x="651" y="-219.5" font-family="Helvetica,sans-Serif" font-size="10.00">D:/GIT/fhradiov2/driver</text>
<text text-anchor="middle" x="698" y="-208.5" font-family="Helvetica,sans-Serif" font-size="10.00">/src/pca9530.c</text>
</a>
</g>
</g>
<!-- Node8&#45;&gt;Node9 -->
<g id="edge9" class="edge"><title>Node8&#45;&gt;Node9</title>
<path fill="none" stroke="midnightblue" d="M680.127,-258.991C684.084,-249.804 688.489,-239.578 691.936,-231.577"/>
<polygon fill="midnightblue" stroke="midnightblue" points="676.817,-257.827 676.076,-268.396 683.246,-260.597 676.817,-257.827"/>
</g>
<!-- Node8&#45;&gt;Node10 -->
<g id="edge10" class="edge"><title>Node8&#45;&gt;Node10</title>
<path fill="none" stroke="midnightblue" d="M652.17,-260.184C617.327,-216.575 541.556,-121.742 518.079,-92.3601"/>
<polygon fill="midnightblue" stroke="midnightblue" points="649.589,-262.561 658.565,-268.188 655.057,-258.191 649.589,-262.561"/>
</g>
<!-- Node8&#45;&gt;Node11 -->
<g id="edge11" class="edge"><title>Node8&#45;&gt;Node11</title>
<path fill="none" stroke="midnightblue" d="M735.204,-268.682C736.479,-268.449 737.746,-268.222 739,-268 840.985,-249.988 960.457,-233.898 1030.71,-224.945"/>
<polygon fill="midnightblue" stroke="midnightblue" points="734.478,-265.257 725.301,-270.551 735.776,-272.135 734.478,-265.257"/>
</g>
<!-- Node11&#45;&gt;Node10 -->
<g id="edge12" class="edge"><title>Node11&#45;&gt;Node10</title>
<path fill="none" stroke="midnightblue" d="M1020.84,-200.616C973.19,-189.955 914.843,-175.659 892,-165 870.65,-155.038 870.822,-142.88 849,-134 799.54,-113.873 652.531,-97.083 569.604,-88.888"/>
<polygon fill="midnightblue" stroke="midnightblue" points="1020.3,-204.082 1030.82,-202.833 1021.82,-197.249 1020.3,-204.082"/>
</g>
<!-- Node12 -->
<g id="node12" class="node"><title>Node12</title>
<g id="a_node12"><a xlink:href="menu_8h.html" target="_top" xlink:title="D:/GIT/fhradiov2/menu\l/menu.h">
<polygon fill="white" stroke="black" points="901,-134.5 901,-164.5 1013,-164.5 1013,-134.5 901,-134.5"/>
<text text-anchor="start" x="909" y="-152.5" font-family="Helvetica,sans-Serif" font-size="10.00">D:/GIT/fhradiov2/menu</text>
<text text-anchor="middle" x="957" y="-141.5" font-family="Helvetica,sans-Serif" font-size="10.00">/menu.h</text>
</a>
</g>
</g>
<!-- Node11&#45;&gt;Node12 -->
<g id="edge13" class="edge"><title>Node11&#45;&gt;Node12</title>
<path fill="none" stroke="midnightblue" d="M1046.98,-197.131C1024.75,-186.802 998.745,-174.11 980.344,-164.577"/>
<polygon fill="midnightblue" stroke="midnightblue" points="1045.7,-200.392 1056.25,-201.396 1048.63,-194.034 1045.7,-200.392"/>
</g>
<!-- Node16 -->
<g id="node16" class="node"><title>Node16</title>
<g id="a_node16"><a xlink:href="radio__display_8h.html" target="_top" xlink:title="D:/GIT/fhradiov2/system\l/radio_display.h">
<polygon fill="white" stroke="black" points="1169,-134.5 1169,-164.5 1289,-164.5 1289,-134.5 1169,-134.5"/>
<text text-anchor="start" x="1177" y="-152.5" font-family="Helvetica,sans-Serif" font-size="10.00">D:/GIT/fhradiov2/system</text>
<text text-anchor="middle" x="1229" y="-141.5" font-family="Helvetica,sans-Serif" font-size="10.00">/radio_display.h</text>
</a>
</g>
</g>
<!-- Node11&#45;&gt;Node16 -->
<g id="edge20" class="edge"><title>Node11&#45;&gt;Node16</title>
<path fill="none" stroke="midnightblue" d="M1124.42,-196.853C1145.32,-186.576 1172.14,-174.025 1193.44,-164.577"/>
<polygon fill="midnightblue" stroke="midnightblue" points="1122.67,-193.814 1115.27,-201.396 1125.78,-200.084 1122.67,-193.814"/>
</g>
<!-- Node11&#45;&gt;Node18 -->
<g id="edge23" class="edge"><title>Node11&#45;&gt;Node18</title>
<path fill="none" stroke="midnightblue" d="M1020.85,-202.246C958.023,-190.374 866.847,-173.146 807.245,-161.883"/>
<polygon fill="midnightblue" stroke="midnightblue" points="1020.21,-205.686 1030.69,-204.103 1021.51,-198.808 1020.21,-205.686"/>
</g>
<!-- Node11&#45;&gt;Node20 -->
<g id="edge26" class="edge"><title>Node11&#45;&gt;Node20</title>
<path fill="none" stroke="midnightblue" d="M1020.59,-209.946C861.413,-197.389 476.143,-166.998 327.189,-155.248"/>
<polygon fill="midnightblue" stroke="midnightblue" points="1020.5,-213.449 1030.74,-210.747 1021.05,-206.471 1020.5,-213.449"/>
</g>
<!-- Node22 -->
<g id="node22" class="node"><title>Node22</title>
<g id="a_node22"><a xlink:href="radio_8c.html" target="_top" xlink:title="D:/GIT/fhradiov2/system\l/src/radio.c">
<polygon fill="white" stroke="black" points="1031,-134.5 1031,-164.5 1151,-164.5 1151,-134.5 1031,-134.5"/>
<text text-anchor="start" x="1039" y="-152.5" font-family="Helvetica,sans-Serif" font-size="10.00">D:/GIT/fhradiov2/system</text>
<text text-anchor="middle" x="1091" y="-141.5" font-family="Helvetica,sans-Serif" font-size="10.00">/src/radio.c</text>
</a>
</g>
</g>
<!-- Node11&#45;&gt;Node22 -->
<g id="edge29" class="edge"><title>Node11&#45;&gt;Node22</title>
<path fill="none" stroke="midnightblue" d="M1091,-191.108C1091,-182.154 1091,-172.323 1091,-164.577"/>
<polygon fill="midnightblue" stroke="midnightblue" points="1087.5,-191.396 1091,-201.396 1094.5,-191.396 1087.5,-191.396"/>
</g>
<!-- Node23 -->
<g id="node23" class="node"><title>Node23</title>
<g id="a_node23"><a xlink:href="station__list__struct_8h.html" target="_top" xlink:title="D:/GIT/fhradiov2/system\l/station_list_struct.h">
<polygon fill="white" stroke="black" points="1307,-134.5 1307,-164.5 1427,-164.5 1427,-134.5 1307,-134.5"/>
<text text-anchor="start" x="1315" y="-152.5" font-family="Helvetica,sans-Serif" font-size="10.00">D:/GIT/fhradiov2/system</text>
<text text-anchor="middle" x="1367" y="-141.5" font-family="Helvetica,sans-Serif" font-size="10.00">/station_list_struct.h</text>
</a>
</g>
</g>
<!-- Node11&#45;&gt;Node23 -->
<g id="edge30" class="edge"><title>Node11&#45;&gt;Node23</title>
<path fill="none" stroke="midnightblue" d="M1160.56,-199.119C1205.72,-188.483 1263.98,-174.763 1307.08,-164.611"/>
<polygon fill="midnightblue" stroke="midnightblue" points="1159.48,-195.777 1150.55,-201.476 1161.08,-202.59 1159.48,-195.777"/>
</g>
<!-- Node12&#45;&gt;Node10 -->
<g id="edge14" class="edge"><title>Node12&#45;&gt;Node10</title>
<path fill="none" stroke="midnightblue" d="M890.853,-134.669C889.558,-134.44 888.273,-134.217 887,-134 775.326,-114.959 643.981,-98.7078 569.81,-90.093"/>
<polygon fill="midnightblue" stroke="midnightblue" points="890.434,-138.151 900.902,-136.516 891.699,-131.266 890.434,-138.151"/>
</g>
<!-- Node12&#45;&gt;Node11 -->
<g id="edge19" class="edge"><title>Node12&#45;&gt;Node11</title>
<path fill="none" stroke="midnightblue" d="M1000.95,-168.84C1023.18,-179.163 1049.19,-191.856 1067.6,-201.396"/>
<polygon fill="midnightblue" stroke="midnightblue" points="1002.24,-165.58 991.694,-164.577 999.314,-171.938 1002.24,-165.58"/>
</g>
<!-- Node13 -->
<g id="node13" class="node"><title>Node13</title>
<g id="a_node13"><a xlink:href="menu__struct_8h.html" target="_top" xlink:title="D:/GIT/fhradiov2/menu\l/menu_struct.h">
<polygon fill="white" stroke="black" points="901,-67.5 901,-97.5 1013,-97.5 1013,-67.5 901,-67.5"/>
<text text-anchor="start" x="909" y="-85.5" font-family="Helvetica,sans-Serif" font-size="10.00">D:/GIT/fhradiov2/menu</text>
<text text-anchor="middle" x="957" y="-74.5" font-family="Helvetica,sans-Serif" font-size="10.00">/menu_struct.h</text>
</a>
</g>
</g>
<!-- Node12&#45;&gt;Node13 -->
<g id="edge15" class="edge"><title>Node12&#45;&gt;Node13</title>
<path fill="none" stroke="midnightblue" d="M950.455,-124.403C950.005,-115.37 950.296,-105.408 951.325,-97.5765"/>
<polygon fill="midnightblue" stroke="midnightblue" points="946.97,-124.736 951.322,-134.396 953.944,-124.131 946.97,-124.736"/>
</g>
<!-- Node15 -->
<g id="node15" class="node"><title>Node15</title>
<g id="a_node15"><a xlink:href="menu_8c.html" target="_top" xlink:title="D:/GIT/fhradiov2/menu\l/src/menu.c">
<polygon fill="white" stroke="black" points="1031,-67.5 1031,-97.5 1143,-97.5 1143,-67.5 1031,-67.5"/>
<text text-anchor="start" x="1039" y="-85.5" font-family="Helvetica,sans-Serif" font-size="10.00">D:/GIT/fhradiov2/menu</text>
<text text-anchor="middle" x="1087" y="-74.5" font-family="Helvetica,sans-Serif" font-size="10.00">/src/menu.c</text>
</a>
</g>
</g>
<!-- Node12&#45;&gt;Node15 -->
<g id="edge18" class="edge"><title>Node12&#45;&gt;Node15</title>
<path fill="none" stroke="midnightblue" d="M994.293,-129.853C1014.85,-119.576 1039.95,-107.025 1058.85,-97.5765"/>
<polygon fill="midnightblue" stroke="midnightblue" points="992.587,-126.793 985.208,-134.396 995.718,-133.054 992.587,-126.793"/>
</g>
<!-- Node13&#45;&gt;Node12 -->
<g id="edge16" class="edge"><title>Node13&#45;&gt;Node12</title>
<path fill="none" stroke="midnightblue" d="M963.544,-107.565C963.995,-116.596 963.706,-126.56 962.678,-134.396"/>
<polygon fill="midnightblue" stroke="midnightblue" points="967.028,-107.236 962.675,-97.5765 960.055,-107.842 967.028,-107.236"/>
</g>
<!-- Node14 -->
<g id="node14" class="node"><title>Node14</title>
<g id="a_node14"><a xlink:href="menu__struct_8c.html" target="_top" xlink:title="D:/GIT/fhradiov2/menu\l/src/menu_struct.c">
<polygon fill="white" stroke="black" points="901,-0.5 901,-30.5 1013,-30.5 1013,-0.5 901,-0.5"/>
<text text-anchor="start" x="909" y="-18.5" font-family="Helvetica,sans-Serif" font-size="10.00">D:/GIT/fhradiov2/menu</text>
<text text-anchor="middle" x="957" y="-7.5" font-family="Helvetica,sans-Serif" font-size="10.00">/src/menu_struct.c</text>
</a>
</g>
</g>
<!-- Node13&#45;&gt;Node14 -->
<g id="edge17" class="edge"><title>Node13&#45;&gt;Node14</title>
<path fill="none" stroke="midnightblue" d="M957,-57.1081C957,-48.1539 957,-38.3227 957,-30.5765"/>
<polygon fill="midnightblue" stroke="midnightblue" points="953.5,-57.3959 957,-67.396 960.5,-57.396 953.5,-57.3959"/>
</g>
<!-- Node16&#45;&gt;Node11 -->
<g id="edge21" class="edge"><title>Node16&#45;&gt;Node11</title>
<path fill="none" stroke="midnightblue" d="M1195.64,-169.117C1174.75,-179.39 1147.94,-191.941 1126.62,-201.396"/>
<polygon fill="midnightblue" stroke="midnightblue" points="1197.39,-172.159 1204.79,-164.577 1194.28,-165.889 1197.39,-172.159"/>
</g>
<!-- Node17 -->
<g id="node17" class="node"><title>Node17</title>
<g id="a_node17"><a xlink:href="radio__display_8c.html" target="_top" xlink:title="D:/GIT/fhradiov2/system\l/src/radio_display.c">
<polygon fill="white" stroke="black" points="1164,-67.5 1164,-97.5 1284,-97.5 1284,-67.5 1164,-67.5"/>
<text text-anchor="start" x="1172" y="-85.5" font-family="Helvetica,sans-Serif" font-size="10.00">D:/GIT/fhradiov2/system</text>
<text text-anchor="middle" x="1224" y="-74.5" font-family="Helvetica,sans-Serif" font-size="10.00">/src/radio_display.c</text>
</a>
</g>
</g>
<!-- Node16&#45;&gt;Node17 -->
<g id="edge22" class="edge"><title>Node16&#45;&gt;Node17</title>
<path fill="none" stroke="midnightblue" d="M1227.15,-124.403C1226.45,-115.37 1225.69,-105.408 1225.08,-97.5765"/>
<polygon fill="midnightblue" stroke="midnightblue" points="1223.66,-124.694 1227.92,-134.396 1230.64,-124.157 1223.66,-124.694"/>
</g>
<!-- Node18&#45;&gt;Node10 -->
<g id="edge24" class="edge"><title>Node18&#45;&gt;Node10</title>
<path fill="none" stroke="midnightblue" d="M686.187,-131.751C640.03,-119.038 578.478,-102.085 541.966,-92.0287"/>
<polygon fill="midnightblue" stroke="midnightblue" points="685.512,-135.195 696.082,-134.476 687.37,-128.446 685.512,-135.195"/>
</g>
<!-- Node19 -->
<g id="node19" class="node"><title>Node19</title>
<g id="a_node19"><a xlink:href="rds_8c.html" target="_top" xlink:title="D:/GIT/fhradiov2/system\l/src/rds.c">
<polygon fill="white" stroke="black" points="687,-67.5 687,-97.5 807,-97.5 807,-67.5 687,-67.5"/>
<text text-anchor="start" x="695" y="-85.5" font-family="Helvetica,sans-Serif" font-size="10.00">D:/GIT/fhradiov2/system</text>
<text text-anchor="middle" x="747" y="-74.5" font-family="Helvetica,sans-Serif" font-size="10.00">/src/rds.c</text>
</a>
</g>
</g>
<!-- Node18&#45;&gt;Node19 -->
<g id="edge25" class="edge"><title>Node18&#45;&gt;Node19</title>
<path fill="none" stroke="midnightblue" d="M747,-124.108C747,-115.154 747,-105.323 747,-97.5765"/>
<polygon fill="midnightblue" stroke="midnightblue" points="743.5,-124.396 747,-134.396 750.5,-124.396 743.5,-124.396"/>
</g>
<!-- Node20&#45;&gt;Node10 -->
<g id="edge27" class="edge"><title>Node20&#45;&gt;Node10</title>
<path fill="none" stroke="midnightblue" d="M329.575,-131.83C377.329,-119.109 441.155,-102.106 478.985,-92.0287"/>
<polygon fill="midnightblue" stroke="midnightblue" points="328.406,-128.52 319.644,-134.476 330.208,-135.284 328.406,-128.52"/>
</g>
<!-- Node21 -->
<g id="node21" class="node"><title>Node21</title>
<g id="a_node21"><a xlink:href="rsq_8c.html" target="_top" xlink:title="D:/GIT/fhradiov2/system\l/src/rsq.c">
<polygon fill="white" stroke="black" points="207,-67.5 207,-97.5 327,-97.5 327,-67.5 207,-67.5"/>
<text text-anchor="start" x="215" y="-85.5" font-family="Helvetica,sans-Serif" font-size="10.00">D:/GIT/fhradiov2/system</text>
<text text-anchor="middle" x="267" y="-74.5" font-family="Helvetica,sans-Serif" font-size="10.00">/src/rsq.c</text>
</a>
</g>
</g>
<!-- Node20&#45;&gt;Node21 -->
<g id="edge28" class="edge"><title>Node20&#45;&gt;Node21</title>
<path fill="none" stroke="midnightblue" d="M267,-124.108C267,-115.154 267,-105.323 267,-97.5765"/>
<polygon fill="midnightblue" stroke="midnightblue" points="263.5,-124.396 267,-134.396 270.5,-124.396 263.5,-124.396"/>
</g>
<!-- Node24 -->
<g id="node24" class="node"><title>Node24</title>
<g id="a_node24"><a xlink:href="station__list__struct_8c.html" target="_top" xlink:title="D:/GIT/fhradiov2/system\l/src/station_list_struct.c">
<polygon fill="white" stroke="black" points="1302,-67.5 1302,-97.5 1424,-97.5 1424,-67.5 1302,-67.5"/>
<text text-anchor="start" x="1310" y="-85.5" font-family="Helvetica,sans-Serif" font-size="10.00">D:/GIT/fhradiov2/system</text>
<text text-anchor="middle" x="1363" y="-74.5" font-family="Helvetica,sans-Serif" font-size="10.00">/src/station_list_struct.c</text>
</a>
</g>
</g>
<!-- Node23&#45;&gt;Node24 -->
<g id="edge31" class="edge"><title>Node23&#45;&gt;Node24</title>
<path fill="none" stroke="midnightblue" d="M1365.52,-124.403C1364.96,-115.37 1364.35,-105.408 1363.87,-97.5765"/>
<polygon fill="midnightblue" stroke="midnightblue" points="1362.02,-124.63 1366.13,-134.396 1369.01,-124.2 1362.02,-124.63"/>
</g>
<!-- Node25 -->
<g id="node25" class="node"><title>Node25</title>
<g id="a_node25"><a xlink:href="station__list_8h.html" target="_top" xlink:title="D:/GIT/fhradiov2/system\l/station_list.h">
<polygon fill="white" stroke="black" points="1442,-67.5 1442,-97.5 1562,-97.5 1562,-67.5 1442,-67.5"/>
<text text-anchor="start" x="1450" y="-85.5" font-family="Helvetica,sans-Serif" font-size="10.00">D:/GIT/fhradiov2/system</text>
<text text-anchor="middle" x="1502" y="-74.5" font-family="Helvetica,sans-Serif" font-size="10.00">/station_list.h</text>
</a>
</g>
</g>
<!-- Node23&#45;&gt;Node25 -->
<g id="edge32" class="edge"><title>Node23&#45;&gt;Node25</title>
<path fill="none" stroke="midnightblue" d="M1405.44,-129.992C1426.84,-119.689 1453.05,-107.068 1472.76,-97.5765"/>
<polygon fill="midnightblue" stroke="midnightblue" points="1403.78,-126.904 1396.29,-134.396 1406.82,-133.211 1403.78,-126.904"/>
</g>
<!-- Node25&#45;&gt;Node11 -->
<g id="edge33" class="edge"><title>Node25&#45;&gt;Node11</title>
<path fill="none" stroke="midnightblue" d="M1489.76,-106.683C1478.45,-125.634 1459.82,-151.433 1436,-165 1388.59,-192 1236.91,-206.014 1151.29,-211.944"/>
<polygon fill="midnightblue" stroke="midnightblue" points="1492.93,-108.177 1494.85,-97.7564 1486.85,-104.708 1492.93,-108.177"/>
</g>
<!-- Node26 -->
<g id="node26" class="node"><title>Node26</title>
<g id="a_node26"><a xlink:href="station__list_8c.html" target="_top" xlink:title="D:/GIT/fhradiov2/system\l/src/station_list.c">
<polygon fill="white" stroke="black" points="1442,-0.5 1442,-30.5 1562,-30.5 1562,-0.5 1442,-0.5"/>
<text text-anchor="start" x="1450" y="-18.5" font-family="Helvetica,sans-Serif" font-size="10.00">D:/GIT/fhradiov2/system</text>
<text text-anchor="middle" x="1502" y="-7.5" font-family="Helvetica,sans-Serif" font-size="10.00">/src/station_list.c</text>
</a>
</g>
</g>
<!-- Node25&#45;&gt;Node26 -->
<g id="edge34" class="edge"><title>Node25&#45;&gt;Node26</title>
<path fill="none" stroke="midnightblue" d="M1502,-57.1081C1502,-48.1539 1502,-38.3227 1502,-30.5765"/>
<polygon fill="midnightblue" stroke="midnightblue" points="1498.5,-57.3959 1502,-67.396 1505.5,-57.396 1498.5,-57.3959"/>
</g>
<!-- Node27&#45;&gt;Node28 -->
<g id="edge36" class="edge"><title>Node27&#45;&gt;Node28</title>
<path fill="none" stroke="midnightblue" d="M554.578,-332.092C523.584,-321.599 484.621,-308.408 455.58,-298.577"/>
<polygon fill="midnightblue" stroke="midnightblue" points="553.745,-335.504 564.339,-335.396 555.989,-328.874 553.745,-335.504"/>
</g>
<!-- Node30 -->
<g id="node30" class="node"><title>Node30</title>
<g id="a_node30"><a xlink:href="pca9534_8c.html" target="_top" xlink:title="D:/GIT/fhradiov2/driver\l/src/pca9534.c">
<polygon fill="white" stroke="black" points="487,-268.5 487,-298.5 597,-298.5 597,-268.5 487,-268.5"/>
<text text-anchor="start" x="495" y="-286.5" font-family="Helvetica,sans-Serif" font-size="10.00">D:/GIT/fhradiov2/driver</text>
<text text-anchor="middle" x="542" y="-275.5" font-family="Helvetica,sans-Serif" font-size="10.00">/src/pca9534.c</text>
</a>
</g>
</g>
<!-- Node27&#45;&gt;Node30 -->
<g id="edge41" class="edge"><title>Node27&#45;&gt;Node30</title>
<path fill="none" stroke="midnightblue" d="M584.855,-328.024C575.319,-318.34 564.325,-307.174 555.86,-298.577"/>
<polygon fill="midnightblue" stroke="midnightblue" points="582.603,-330.726 592.113,-335.396 587.591,-325.815 582.603,-330.726"/>
</g>
<!-- Node28&#45;&gt;Node10 -->
<g id="edge38" class="edge"><title>Node28&#45;&gt;Node10</title>
<path fill="none" stroke="midnightblue" d="M416.112,-258.432C418.192,-241.792 422.239,-219.422 430,-201 448.949,-156.018 486.701,-110.685 503.095,-92.1788"/>
<polygon fill="midnightblue" stroke="midnightblue" points="412.625,-258.118 415.01,-268.441 419.583,-258.884 412.625,-258.118"/>
</g>
<!-- Node28&#45;&gt;Node11 -->
<g id="edge40" class="edge"><title>Node28&#45;&gt;Node11</title>
<path fill="none" stroke="midnightblue" d="M479.239,-267.956C686.804,-236.685 922.111,-224.149 1030.63,-219.657"/>
<polygon fill="midnightblue" stroke="midnightblue" points="478.422,-264.54 469.064,-269.508 479.477,-271.46 478.422,-264.54"/>
</g>
<!-- Node28&#45;&gt;Node12 -->
<g id="edge39" class="edge"><title>Node28&#45;&gt;Node12</title>
<path fill="none" stroke="midnightblue" d="M465.606,-265.101C493.149,-255.64 527.552,-243.54 558,-232 592.112,-219.071 598.854,-210.772 634,-201 725.594,-175.533 835.607,-161.773 900.723,-155.302"/>
<polygon fill="midnightblue" stroke="midnightblue" points="464.117,-261.912 455.789,-268.462 466.384,-268.535 464.117,-261.912"/>
</g>
<!-- Node29 -->
<g id="node29" class="node"><title>Node29</title>
<g id="a_node29"><a xlink:href="lcd_8c.html" target="_top" xlink:title="D:/GIT/fhradiov2/driver\l/src/lcd.c">
<polygon fill="white" stroke="black" points="439,-201.5 439,-231.5 549,-231.5 549,-201.5 439,-201.5"/>
<text text-anchor="start" x="447" y="-219.5" font-family="Helvetica,sans-Serif" font-size="10.00">D:/GIT/fhradiov2/driver</text>
<text text-anchor="middle" x="494" y="-208.5" font-family="Helvetica,sans-Serif" font-size="10.00">/src/lcd.c</text>
</a>
</g>
</g>
<!-- Node28&#45;&gt;Node29 -->
<g id="edge37" class="edge"><title>Node28&#45;&gt;Node29</title>
<path fill="none" stroke="midnightblue" d="M439.375,-261.883C451.532,-252.005 465.779,-240.429 476.675,-231.577"/>
<polygon fill="midnightblue" stroke="midnightblue" points="436.913,-259.374 431.359,-268.396 441.327,-264.806 436.913,-259.374"/>
</g>
<!-- Node31&#45;&gt;Node2 -->
<g id="edge43" class="edge"><title>Node31&#45;&gt;Node2</title>
<path fill="none" stroke="midnightblue" d="M174.768,-331.682C148.306,-321.257 115.366,-308.281 90.7327,-298.577"/>
<polygon fill="midnightblue" stroke="midnightblue" points="173.611,-334.987 184.197,-335.396 176.176,-328.474 173.611,-334.987"/>
</g>
<!-- Node31&#45;&gt;Node10 -->
<g id="edge44" class="edge"><title>Node31&#45;&gt;Node10</title>
<path fill="none" stroke="midnightblue" d="M207.798,-326.164C186.983,-282.746 151.175,-188.986 198,-134 214.282,-114.88 366.42,-97.3563 452.439,-88.8698"/>
<polygon fill="midnightblue" stroke="midnightblue" points="204.772,-327.94 212.343,-335.351 211.046,-324.836 204.772,-327.94"/>
</g>
<!-- Node31&#45;&gt;Node11 -->
<g id="edge45" class="edge"><title>Node31&#45;&gt;Node11</title>
<path fill="none" stroke="midnightblue" d="M285.337,-344.092C419.143,-332.877 713.55,-307.433 734,-299 754.15,-290.691 752.104,-276.9 772,-268 856.453,-230.22 964.56,-220.162 1030.75,-217.785"/>
<polygon fill="midnightblue" stroke="midnightblue" points="284.887,-340.617 275.214,-344.939 285.471,-347.593 284.887,-340.617"/>
</g>
<!-- Node31&#45;&gt;Node18 -->
<g id="edge46" class="edge"><title>Node31&#45;&gt;Node18</title>
<path fill="none" stroke="midnightblue" d="M242.387,-328.264C278.647,-295.2 353.875,-232.002 430,-201 514.903,-166.423 621.584,-155.431 686.997,-151.991"/>
<polygon fill="midnightblue" stroke="midnightblue" points="239.821,-325.868 234.845,-335.221 244.568,-331.013 239.821,-325.868"/>
</g>
<!-- Node31&#45;&gt;Node20 -->
<g id="edge47" class="edge"><title>Node31&#45;&gt;Node20</title>
<path fill="none" stroke="midnightblue" d="M225.724,-325.266C235.637,-283.291 255.704,-198.327 263.651,-164.682"/>
<polygon fill="midnightblue" stroke="midnightblue" points="222.272,-324.652 223.38,-335.188 229.085,-326.261 222.272,-324.652"/>
</g>
<!-- Node33&#45;&gt;Node10 -->
<g id="edge51" class="edge"><title>Node33&#45;&gt;Node10</title>
<path fill="none" stroke="midnightblue" d="M991.041,-325.395C996.279,-293.192 1000.12,-236.126 971,-201 934.916,-157.48 898.046,-193.117 849,-165 831.542,-154.992 834.039,-142.918 816,-134 773.72,-113.099 645.741,-97.0944 569.66,-89.1145"/>
<polygon fill="midnightblue" stroke="midnightblue" points="987.586,-324.832 989.257,-335.295 994.475,-326.074 987.586,-324.832"/>
</g>
<!-- Node33&#45;&gt;Node11 -->
<g id="edge52" class="edge"><title>Node33&#45;&gt;Node11</title>
<path fill="none" stroke="midnightblue" d="M1049.23,-332.816C1089.86,-321.458 1136.13,-307.072 1142,-299 1158.49,-276.323 1131.38,-248.31 1110.78,-231.731"/>
<polygon fill="midnightblue" stroke="midnightblue" points="1048.29,-329.443 1039.59,-335.484 1050.16,-336.19 1048.29,-329.443"/>
</g>
<!-- Node34 -->
<g id="node34" class="node"><title>Node34</title>
<g id="a_node34"><a xlink:href="tpa2016d2_8c.html" target="_top" xlink:title="D:/GIT/fhradiov2/driver\l/src/tpa2016d2.c">
<polygon fill="white" stroke="black" points="1023,-268.5 1023,-298.5 1133,-298.5 1133,-268.5 1023,-268.5"/>
<text text-anchor="start" x="1031" y="-286.5" font-family="Helvetica,sans-Serif" font-size="10.00">D:/GIT/fhradiov2/driver</text>
<text text-anchor="middle" x="1078" y="-275.5" font-family="Helvetica,sans-Serif" font-size="10.00">/src/tpa2016d2.c</text>
</a>
</g>
</g>
<!-- Node33&#45;&gt;Node34 -->
<g id="edge50" class="edge"><title>Node33&#45;&gt;Node34</title>
<path fill="none" stroke="midnightblue" d="M1014.38,-329.451C1028.53,-319.452 1045.31,-307.6 1058.08,-298.577"/>
<polygon fill="midnightblue" stroke="midnightblue" points="1012.11,-326.767 1005.96,-335.396 1016.15,-332.484 1012.11,-326.767"/>
</g>
<!-- Node37 -->
<g id="node37" class="node"><title>Node37</title>
<g id="a_node37"><a xlink:href="handler_8c.html" target="_top" xlink:title="D:/GIT/fhradiov2/system\l/src/handler.c">
<polygon fill="white" stroke="black" points="1059,-335.5 1059,-365.5 1179,-365.5 1179,-335.5 1059,-335.5"/>
<text text-anchor="start" x="1067" y="-353.5" font-family="Helvetica,sans-Serif" font-size="10.00">D:/GIT/fhradiov2/system</text>
<text text-anchor="middle" x="1119" y="-342.5" font-family="Helvetica,sans-Serif" font-size="10.00">/src/handler.c</text>
</a>
</g>
</g>
<!-- Node36&#45;&gt;Node37 -->
<g id="edge62" class="edge"><title>Node36&#45;&gt;Node37</title>
<path fill="none" stroke="midnightblue" d="M1119,-392.108C1119,-383.154 1119,-373.323 1119,-365.577"/>
<polygon fill="midnightblue" stroke="midnightblue" points="1115.5,-392.396 1119,-402.396 1122.5,-392.396 1115.5,-392.396"/>
</g>
</g>
</svg>
        <g id="navigator" transform="translate(0 0)" fill="#404254">
                <rect fill="#f2f5e9" fill-opacity="0.5" stroke="#606060" stroke-width=".5" x="0" y="0" width="60" height="60"/>
                <use id="zoomplus" xlink:href="#zoomPlus" x="17" y="9" onmousedown="handleZoom(evt,'in')"/>
                <use id="zoomminus" xlink:href="#zoomMin" x="42" y="9" onmousedown="handleZoom(evt,'out')"/>
                <use id="reset" xlink:href="#resetDef" x="30" y="36" onmousedown="handleReset()"/>
                <g id="arrowUp" xlink:href="#dirArrow" transform="translate(30 24)" onmousedown="handlePan(0,-1)">
                  <use xlink:href="#rim" fill="#404040">
                        <set attributeName="fill" to="#808080" begin="arrowUp.mouseover" end="arrowUp.mouseout"/>
                  </use>
                  <path fill="none" stroke="white" stroke-width="1.5" d="M0,-3.0v7 M-2.5,-0.5L0,-3.0L2.5,-0.5"/>
                </g>
                <g id="arrowRight" xlink:href="#dirArrow" transform="rotate(90) translate(36 -43)" onmousedown="handlePan(1,0)">
                  <use xlink:href="#rim" fill="#404040">
                        <set attributeName="fill" to="#808080" begin="arrowRight.mouseover" end="arrowRight.mouseout"/>
                  </use>
                  <path fill="none" stroke="white" stroke-width="1.5" d="M0,-3.0v7 M-2.5,-0.5L0,-3.0L2.5,-0.5"/>
                </g>
                <g id="arrowDown" xlink:href="#dirArrow" transform="rotate(180) translate(-30 -48)" onmousedown="handlePan(0,1)">
                  <use xlink:href="#rim" fill="#404040">
                        <set attributeName="fill" to="#808080" begin="arrowDown.mouseover" end="arrowDown.mouseout"/>
                  </use>
                  <path fill="none" stroke="white" stroke-width="1.5" d="M0,-3.0v7 M-2.5,-0.5L0,-3.0L2.5,-0.5"/>
                </g>
                <g id="arrowLeft" xlink:href="#dirArrow" transform="rotate(270) translate(-36 17)" onmousedown="handlePan(-1,0)">
                  <use xlink:href="#rim" fill="#404040">
                        <set attributeName="fill" to="#808080" begin="arrowLeft.mouseover" end="arrowLeft.mouseout"/>
                  </use>
                  <path fill="none" stroke="white" stroke-width="1.5" d="M0,-3.0v7 M-2.5,-0.5L0,-3.0L2.5,-0.5"/>
                </g>
        </g>
        <svg viewBox="0 0 15 15" width="100%" height="30px" preserveAspectRatio="xMaxYMin meet">
         <g id="arrow_out" transform="scale(0.3 0.3)">
          <a xlink:href="si4735__cmd__prop_8h__dep__incl_org.svg" target="_base">
           <rect id="button" ry="5" rx="5" y="6" x="6" height="38" width="38"
                fill="#f2f5e9" fill-opacity="0.5" stroke="#606060" stroke-width="1.0"/>
           <path id="arrow"
             d="M 11.500037,31.436501 C 11.940474,20.09759 22.043105,11.32322 32.158766,21.979434 L 37.068811,17.246167 C 37.068811,17.246167 37.088388,32 37.088388,32 L 22.160133,31.978069 C 22.160133,31.978069 26.997745,27.140456 26.997745,27.140456 C 18.528582,18.264221 13.291696,25.230495 11.500037,31.436501 z"
             style="fill:#404040;"/>
          </a>
         </g>
        </svg>
</svg>
