<?xml version="1.0" encoding="UTF-8" standalone="no"?>
<!DOCTYPE svg PUBLIC "-//W3C//DTD SVG 1.1//EN"
 "http://www.w3.org/Graphics/SVG/1.1/DTD/svg11.dtd">
<!-- Generated by graphviz version 2.38.0 (20140413.2041)
 -->
<!-- Title: driver/include/si4735_cmd_prop.h Pages: 1 -->
<!--zoomable 487 -->
<svg id="main" version="1.1" xmlns="http://www.w3.org/2000/svg" xmlns:xlink="http://www.w3.org/1999/xlink" xml:space="preserve" onload="init(evt)">
<style type="text/css"><![CDATA[
.edge:hover path { stroke: red; }
.edge:hover polygon { stroke: red; fill: red; }
]]></style>
<script type="text/javascript"><![CDATA[
var edges = document.getElementsByTagName('g');
if (edges && edges.length) {
  for (var i=0;i<edges.length;i++) {
    if (edges[i].id.substr(0,4)=='edge') {
      edges[i].setAttribute('class','edge');
    }
  }
}
]]></script>
        <defs>
                <circle id="rim" cx="0" cy="0" r="7"/>
                <circle id="rim2" cx="0" cy="0" r="3.5"/>
                <g id="zoomPlus">
                        <use xlink:href="#rim" fill="#404040">
                                <set attributeName="fill" to="#808080" begin="zoomplus.mouseover" end="zoomplus.mouseout"/>
                        </use>
                        <path d="M-4,0h8M0,-4v8" fill="none" stroke="white" stroke-width="1.5" pointer-events="none"/>
                </g>
                <g id="zoomMin">
                        <use xlink:href="#rim" fill="#404040">
                                <set attributeName="fill" to="#808080" begin="zoomminus.mouseover" end="zoomminus.mouseout"/>
                        </use>
                        <path d="M-4,0h8" fill="none" stroke="white" stroke-width="1.5" pointer-events="none"/>
                </g>
                <g id="dirArrow">
                        <path fill="none" stroke="white" stroke-width="1.5" d="M0,-3.0v7 M-2.5,-0.5L0,-3.0L2.5,-0.5"/>
                </g>
               <g id="resetDef">
                       <use xlink:href="#rim2" fill="#404040">
                               <set attributeName="fill" to="#808080" begin="reset.mouseover" end="reset.mouseout"/>
                       </use>
               </g>
        </defs>

<script type="text/javascript">
var viewWidth = 1197;
var viewHeight = 487;
var sectionId = 'dynsection-1';
</script>
<script xlink:href="svgpan.js"/>
<svg id="graph" class="graph">
<g id="viewport">
<title>driver/include/si4735_cmd_prop.h</title>
<polygon fill="white" stroke="none" points="-4,4 -4,-483 1192.67,-483 1192.67,4 -4,4"/>
<!-- Node1 -->
<g id="node1" class="node"><title>Node1</title>
<polygon fill="#bfbfbf" stroke="black" points="1084,-448.5 1084,-478.5 1188,-478.5 1188,-448.5 1084,-448.5"/>
<text text-anchor="start" x="1092" y="-466.5" font-family="Helvetica,sans-Serif" font-size="10.00">driver/include/si4735</text>
<text text-anchor="middle" x="1136" y="-455.5" font-family="Helvetica,sans-Serif" font-size="10.00">_cmd_prop.h</text>
</g>
<!-- Node2 -->
<g id="node2" class="node"><title>Node2</title>
<g id="a_node2"><a xlink:href="radio__configuration_8h.html" target="_top" xlink:title="settings/radio_configuration.h">
<polygon fill="white" stroke="black" points="964.5,-392.5 964.5,-411.5 1107.5,-411.5 1107.5,-392.5 964.5,-392.5"/>
<text text-anchor="middle" x="1036" y="-399.5" font-family="Helvetica,sans-Serif" font-size="10.00">settings/radio_configuration.h</text>
</a>
</g>
</g>
<!-- Node1&#45;&gt;Node2 -->
<g id="edge1" class="edge"><title>Node1&#45;&gt;Node2</title>
<path fill="none" stroke="midnightblue" d="M1103.34,-443.069C1085.52,-432.462 1064.33,-419.859 1050.55,-411.658"/>
<polygon fill="midnightblue" stroke="midnightblue" points="1101.92,-446.294 1112.3,-448.399 1105.5,-440.278 1101.92,-446.294"/>
</g>
<!-- Node13 -->
<g id="node13" class="node"><title>Node13</title>
<g id="a_node13"><a xlink:href="radio_8h.html" target="_top" xlink:title="system/radio.h">
<polygon fill="white" stroke="black" points="950.5,-112.5 950.5,-131.5 1031.5,-131.5 1031.5,-112.5 950.5,-112.5"/>
<text text-anchor="middle" x="991" y="-119.5" font-family="Helvetica,sans-Serif" font-size="10.00">system/radio.h</text>
</a>
</g>
</g>
<!-- Node1&#45;&gt;Node13 -->
<g id="edge46" class="edge"><title>Node1&#45;&gt;Node13</title>
<path fill="none" stroke="midnightblue" d="M1152.97,-440.042C1168.14,-417.69 1188,-381.79 1188,-347 1188,-347 1188,-347 1188,-233 1188,-202.902 1190.67,-188.888 1169,-168 1132.28,-132.606 1071.93,-123.877 1031.83,-122.307"/>
<polygon fill="midnightblue" stroke="midnightblue" points="1149.93,-438.281 1147.03,-448.471 1155.65,-442.314 1149.93,-438.281"/>
</g>
<!-- Node19 -->
<g id="node19" class="node"><title>Node19</title>
<g id="a_node19"><a xlink:href="si4735_8c.html" target="_top" xlink:title="driver/src/si4735.c">
<polygon fill="white" stroke="black" points="1064.5,-168.5 1064.5,-187.5 1159.5,-187.5 1159.5,-168.5 1064.5,-168.5"/>
<text text-anchor="middle" x="1112" y="-175.5" font-family="Helvetica,sans-Serif" font-size="10.00">driver/src/si4735.c</text>
</a>
</g>
</g>
<!-- Node1&#45;&gt;Node19 -->
<g id="edge45" class="edge"><title>Node1&#45;&gt;Node19</title>
<path fill="none" stroke="midnightblue" d="M1136,-438.217C1136,-414.845 1136,-378.505 1136,-347 1136,-347 1136,-347 1136,-289 1136,-250.493 1121.79,-206.111 1115.24,-187.699"/>
<polygon fill="midnightblue" stroke="midnightblue" points="1132.5,-438.275 1136,-448.275 1139.5,-438.275 1132.5,-438.275"/>
</g>
<!-- Node3 -->
<g id="node3" class="node"><title>Node3</title>
<g id="a_node3"><a xlink:href="timer_8h.html" target="_top" xlink:title="driver/timer.h">
<polygon fill="white" stroke="black" points="560,-336.5 560,-355.5 632,-355.5 632,-336.5 560,-336.5"/>
<text text-anchor="middle" x="596" y="-343.5" font-family="Helvetica,sans-Serif" font-size="10.00">driver/timer.h</text>
</a>
</g>
</g>
<!-- Node2&#45;&gt;Node3 -->
<g id="edge2" class="edge"><title>Node2&#45;&gt;Node3</title>
<path fill="none" stroke="midnightblue" d="M956.309,-391.22C860.154,-379.419 702.632,-360.087 632.111,-351.432"/>
<polygon fill="midnightblue" stroke="midnightblue" points="955.929,-394.699 966.281,-392.444 956.782,-387.751 955.929,-394.699"/>
</g>
<!-- Node2&#45;&gt;Node13 -->
<g id="edge44" class="edge"><title>Node2&#45;&gt;Node13</title>
<path fill="none" stroke="midnightblue" d="M1036,-382.251C1036,-360.357 1036,-323.052 1036,-291 1036,-291 1036,-291 1036,-233 1036,-192.558 1009.62,-149.563 997.257,-131.63"/>
<polygon fill="midnightblue" stroke="midnightblue" points="1032.5,-382.442 1036,-392.442 1039.5,-382.442 1032.5,-382.442"/>
</g>
<!-- Node2&#45;&gt;Node19 -->
<g id="edge43" class="edge"><title>Node2&#45;&gt;Node19</title>
<path fill="none" stroke="midnightblue" d="M1042.3,-382.585C1057.86,-337.135 1097.65,-220.924 1108.96,-187.884"/>
<polygon fill="midnightblue" stroke="midnightblue" points="1038.91,-381.703 1038.98,-392.297 1045.53,-383.97 1038.91,-381.703"/>
</g>
<!-- Node4 -->
<g id="node4" class="node"><title>Node4</title>
<g id="a_node4"><a xlink:href="i2c_8h.html" target="_top" xlink:title="I2C implemtation for MSP430G2553, interrupt based. &#160;&#160;This implemtation based on examples from Texas I...">
<polygon fill="white" stroke="black" points="686.5,-280.5 686.5,-299.5 749.5,-299.5 749.5,-280.5 686.5,-280.5"/>
<text text-anchor="middle" x="718" y="-287.5" font-family="Helvetica,sans-Serif" font-size="10.00">driver/i2c.h</text>
</a>
</g>
</g>
<!-- Node3&#45;&gt;Node4 -->
<g id="edge3" class="edge"><title>Node3&#45;&gt;Node4</title>
<path fill="none" stroke="midnightblue" d="M624.539,-332.368C647.386,-322.255 678.805,-308.349 698.759,-299.516"/>
<polygon fill="midnightblue" stroke="midnightblue" points="623.059,-329.196 615.331,-336.444 625.892,-335.597 623.059,-329.196"/>
</g>
<!-- Node6 -->
<g id="node6" class="node"><title>Node6</title>
<g id="a_node6"><a xlink:href="lcd_8h.html" target="_top" xlink:title="driver/lcd.h">
<polygon fill="white" stroke="black" points="409.5,-168.5 409.5,-187.5 472.5,-187.5 472.5,-168.5 409.5,-168.5"/>
<text text-anchor="middle" x="441" y="-175.5" font-family="Helvetica,sans-Serif" font-size="10.00">driver/lcd.h</text>
</a>
</g>
</g>
<!-- Node3&#45;&gt;Node6 -->
<g id="edge34" class="edge"><title>Node3&#45;&gt;Node6</title>
<path fill="none" stroke="midnightblue" d="M549.365,-343.365C498.803,-340.032 416.793,-330.006 353,-300 317.881,-283.482 302.435,-279.157 286,-244 282.236,-235.948 280.662,-231.108 286,-224 293.53,-213.973 366.31,-195.967 409.411,-186.043"/>
<polygon fill="midnightblue" stroke="midnightblue" points="549.468,-346.877 559.659,-343.979 549.885,-339.889 549.468,-346.877"/>
</g>
<!-- Node8 -->
<g id="node8" class="node"><title>Node8</title>
<g id="a_node8"><a xlink:href="main_8c.html" target="_top" xlink:title="main.c">
<polygon fill="white" stroke="black" points="535,-56.5 535,-75.5 581,-75.5 581,-56.5 535,-56.5"/>
<text text-anchor="middle" x="558" y="-63.5" font-family="Helvetica,sans-Serif" font-size="10.00">main.c</text>
</a>
</g>
</g>
<!-- Node3&#45;&gt;Node8 -->
<g id="edge38" class="edge"><title>Node3&#45;&gt;Node8</title>
<path fill="none" stroke="midnightblue" d="M549.371,-344.819C491.203,-343.011 389.811,-334.576 311,-300 268.413,-281.316 229,-281.506 229,-235 229,-235 229,-235 229,-177 229,-112.408 459.978,-78.8312 534.865,-69.6426"/>
<polygon fill="midnightblue" stroke="midnightblue" points="549.627,-348.327 559.714,-345.084 549.807,-341.329 549.627,-348.327"/>
</g>
<!-- Node3&#45;&gt;Node13 -->
<g id="edge39" class="edge"><title>Node3&#45;&gt;Node13</title>
<path fill="none" stroke="midnightblue" d="M642.324,-339.566C734.676,-327.703 936.51,-296.285 979,-244 1006.16,-210.58 997.654,-153.587 993.078,-131.812"/>
<polygon fill="midnightblue" stroke="midnightblue" points="641.632,-336.125 632.149,-340.85 642.509,-343.07 641.632,-336.125"/>
</g>
<!-- Node18 -->
<g id="node18" class="node"><title>Node18</title>
<g id="a_node18"><a xlink:href="si4735_8h.html" target="_top" xlink:title="driver/si4735.h">
<polygon fill="white" stroke="black" points="890.5,-224.5 890.5,-243.5 969.5,-243.5 969.5,-224.5 890.5,-224.5"/>
<text text-anchor="middle" x="930" y="-231.5" font-family="Helvetica,sans-Serif" font-size="10.00">driver/si4735.h</text>
</a>
</g>
</g>
<!-- Node3&#45;&gt;Node18 -->
<g id="edge35" class="edge"><title>Node3&#45;&gt;Node18</title>
<path fill="none" stroke="midnightblue" d="M640.417,-333.941C673.381,-325.444 719.302,-312.993 759,-300 814.086,-281.97 877.536,-256.613 909.429,-243.539"/>
<polygon fill="midnightblue" stroke="midnightblue" points="639.443,-330.578 630.624,-336.448 641.179,-337.359 639.443,-330.578"/>
</g>
<!-- Node20 -->
<g id="node20" class="node"><title>Node20</title>
<g id="a_node20"><a xlink:href="rds_8h.html" target="_top" xlink:title="system/rds.h">
<polygon fill="white" stroke="black" points="689,-168.5 689,-187.5 763,-187.5 763,-168.5 689,-168.5"/>
<text text-anchor="middle" x="726" y="-175.5" font-family="Helvetica,sans-Serif" font-size="10.00">system/rds.h</text>
</a>
</g>
</g>
<!-- Node3&#45;&gt;Node20 -->
<g id="edge42" class="edge"><title>Node3&#45;&gt;Node20</title>
<path fill="none" stroke="midnightblue" d="M609.499,-327.763C637.043,-292.592 698.844,-213.676 719.29,-187.568"/>
<polygon fill="midnightblue" stroke="midnightblue" points="606.399,-326.044 602.989,-336.075 611.911,-330.36 606.399,-326.044"/>
</g>
<!-- Node23 -->
<g id="node23" class="node"><title>Node23</title>
<g id="a_node23"><a xlink:href="tpa2016d2_8h.html" target="_top" xlink:title="driver/tpa2016d2.h">
<polygon fill="white" stroke="black" points="421.5,-224.5 421.5,-243.5 516.5,-243.5 516.5,-224.5 421.5,-224.5"/>
<text text-anchor="middle" x="469" y="-231.5" font-family="Helvetica,sans-Serif" font-size="10.00">driver/tpa2016d2.h</text>
</a>
</g>
</g>
<!-- Node3&#45;&gt;Node23 -->
<g id="edge37" class="edge"><title>Node3&#45;&gt;Node23</title>
<path fill="none" stroke="midnightblue" d="M578.469,-329.816C551.42,-306.387 500.392,-262.19 478.919,-243.591"/>
<polygon fill="midnightblue" stroke="midnightblue" points="576.184,-332.467 586.035,-336.368 580.767,-327.176 576.184,-332.467"/>
</g>
<!-- Node25 -->
<g id="node25" class="node"><title>Node25</title>
<g id="a_node25"><a xlink:href="timer_8c.html" target="_top" xlink:title="driver/src/timer.c">
<polygon fill="white" stroke="black" points="111.5,-280.5 111.5,-299.5 200.5,-299.5 200.5,-280.5 111.5,-280.5"/>
<text text-anchor="middle" x="156" y="-287.5" font-family="Helvetica,sans-Serif" font-size="10.00">driver/src/timer.c</text>
</a>
</g>
</g>
<!-- Node3&#45;&gt;Node25 -->
<g id="edge36" class="edge"><title>Node3&#45;&gt;Node25</title>
<path fill="none" stroke="midnightblue" d="M549.912,-340.065C478.207,-332.273 335.631,-316.32 215,-300 210.379,-299.375 205.56,-298.691 200.755,-297.99"/>
<polygon fill="midnightblue" stroke="midnightblue" points="549.647,-343.557 559.966,-341.155 550.401,-336.598 549.647,-343.557"/>
</g>
<!-- Node26 -->
<g id="node26" class="node"><title>Node26</title>
<g id="a_node26"><a xlink:href="handler_8h.html" target="_top" xlink:title="system/handler.h">
<polygon fill="white" stroke="black" points="362,-280.5 362,-299.5 454,-299.5 454,-280.5 362,-280.5"/>
<text text-anchor="middle" x="408" y="-287.5" font-family="Helvetica,sans-Serif" font-size="10.00">system/handler.h</text>
</a>
</g>
</g>
<!-- Node3&#45;&gt;Node26 -->
<g id="edge40" class="edge"><title>Node3&#45;&gt;Node26</title>
<path fill="none" stroke="midnightblue" d="M556.199,-333.568C520.734,-323.381 469.634,-308.703 437.65,-299.516"/>
<polygon fill="midnightblue" stroke="midnightblue" points="555.633,-337.047 566.211,-336.444 557.566,-330.319 555.633,-337.047"/>
</g>
<!-- Node5 -->
<g id="node5" class="node"><title>Node5</title>
<g id="a_node5"><a xlink:href="pca9534_8h.html" target="_top" xlink:title="driver/pca9534.h">
<polygon fill="white" stroke="black" points="534.5,-224.5 534.5,-243.5 621.5,-243.5 621.5,-224.5 534.5,-224.5"/>
<text text-anchor="middle" x="578" y="-231.5" font-family="Helvetica,sans-Serif" font-size="10.00">driver/pca9534.h</text>
</a>
</g>
</g>
<!-- Node4&#45;&gt;Node5 -->
<g id="edge4" class="edge"><title>Node4&#45;&gt;Node5</title>
<path fill="none" stroke="midnightblue" d="M686.298,-276.772C660,-266.629 623.284,-252.467 600.08,-243.516"/>
<polygon fill="midnightblue" stroke="midnightblue" points="685.227,-280.11 695.817,-280.444 687.746,-273.579 685.227,-280.11"/>
</g>
<!-- Node4&#45;&gt;Node8 -->
<g id="edge32" class="edge"><title>Node4&#45;&gt;Node8</title>
<path fill="none" stroke="midnightblue" d="M708.037,-271.561C694.136,-247.614 667.723,-203.481 642,-168 616.03,-132.179 581.181,-92.6468 565.825,-75.5996"/>
<polygon fill="midnightblue" stroke="midnightblue" points="705.01,-273.318 713.036,-280.235 711.075,-269.823 705.01,-273.318"/>
</g>
<!-- Node16 -->
<g id="node16" class="node"><title>Node16</title>
<g id="a_node16"><a xlink:href="pca9530_8h.html" target="_top" xlink:title="driver/pca9530.h">
<polygon fill="white" stroke="black" points="794.5,-168.5 794.5,-187.5 881.5,-187.5 881.5,-168.5 794.5,-168.5"/>
<text text-anchor="middle" x="838" y="-175.5" font-family="Helvetica,sans-Serif" font-size="10.00">driver/pca9530.h</text>
</a>
</g>
</g>
<!-- Node4&#45;&gt;Node16 -->
<g id="edge18" class="edge"><title>Node4&#45;&gt;Node16</title>
<path fill="none" stroke="midnightblue" d="M733.317,-272.806C746.226,-259.374 765.362,-239.962 783,-224 797.636,-210.754 815.461,-196.488 826.772,-187.65"/>
<polygon fill="midnightblue" stroke="midnightblue" points="730.526,-270.661 726.153,-280.312 735.589,-275.494 730.526,-270.661"/>
</g>
<!-- Node4&#45;&gt;Node18 -->
<g id="edge22" class="edge"><title>Node4&#45;&gt;Node18</title>
<path fill="none" stroke="midnightblue" d="M759.448,-278.443C799.415,-268.262 859.156,-253.045 896.29,-243.587"/>
<polygon fill="midnightblue" stroke="midnightblue" points="758.565,-275.056 749.739,-280.916 760.293,-281.839 758.565,-275.056"/>
</g>
<!-- Node4&#45;&gt;Node20 -->
<g id="edge33" class="edge"><title>Node4&#45;&gt;Node20</title>
<path fill="none" stroke="midnightblue" d="M719.357,-270.348C721.109,-246.254 724.087,-205.308 725.375,-187.591"/>
<polygon fill="midnightblue" stroke="midnightblue" points="715.862,-270.141 718.628,-280.368 722.844,-270.649 715.862,-270.141"/>
</g>
<!-- Node22 -->
<g id="node22" class="node"><title>Node22</title>
<g id="a_node22"><a xlink:href="i2c_8c.html" target="_top" xlink:title="driver/src/i2c.c">
<polygon fill="white" stroke="black" points="792,-224.5 792,-243.5 872,-243.5 872,-224.5 792,-224.5"/>
<text text-anchor="middle" x="832" y="-231.5" font-family="Helvetica,sans-Serif" font-size="10.00">driver/src/i2c.c</text>
</a>
</g>
</g>
<!-- Node4&#45;&gt;Node22 -->
<g id="edge28" class="edge"><title>Node4&#45;&gt;Node22</title>
<path fill="none" stroke="midnightblue" d="M745.242,-276.096C766.54,-266.007 795.542,-252.27 814.021,-243.516"/>
<polygon fill="midnightblue" stroke="midnightblue" points="743.603,-273 736.064,-280.444 746.599,-279.326 743.603,-273"/>
</g>
<!-- Node4&#45;&gt;Node23 -->
<g id="edge29" class="edge"><title>Node4&#45;&gt;Node23</title>
<path fill="none" stroke="midnightblue" d="M676.667,-280.036C629.943,-269.903 554.421,-253.525 508.476,-243.561"/>
<polygon fill="midnightblue" stroke="midnightblue" points="675.949,-283.462 686.464,-282.161 677.433,-276.621 675.949,-283.462"/>
</g>
<!-- Node5&#45;&gt;Node6 -->
<g id="edge5" class="edge"><title>Node5&#45;&gt;Node6</title>
<path fill="none" stroke="midnightblue" d="M546.977,-220.772C521.243,-210.629 485.314,-196.467 462.606,-187.516"/>
<polygon fill="midnightblue" stroke="midnightblue" points="545.705,-224.033 556.292,-224.444 548.272,-217.52 545.705,-224.033"/>
</g>
<!-- Node15 -->
<g id="node15" class="node"><title>Node15</title>
<g id="a_node15"><a xlink:href="pca9534_8c.html" target="_top" xlink:title="driver/src/pca9534.c">
<polygon fill="white" stroke="black" points="529,-168.5 529,-187.5 633,-187.5 633,-168.5 529,-168.5"/>
<text text-anchor="middle" x="581" y="-175.5" font-family="Helvetica,sans-Serif" font-size="10.00">driver/src/pca9534.c</text>
</a>
</g>
</g>
<!-- Node5&#45;&gt;Node15 -->
<g id="edge17" class="edge"><title>Node5&#45;&gt;Node15</title>
<path fill="none" stroke="midnightblue" d="M579.066,-213.805C579.561,-204.91 580.123,-194.78 580.514,-187.751"/>
<polygon fill="midnightblue" stroke="midnightblue" points="575.556,-213.904 578.495,-224.083 582.545,-214.293 575.556,-213.904"/>
</g>
<!-- Node7 -->
<g id="node7" class="node"><title>Node7</title>
<g id="a_node7"><a xlink:href="lcd_8c.html" target="_top" xlink:title="driver/src/lcd.c">
<polygon fill="white" stroke="black" points="355,-112.5 355,-131.5 435,-131.5 435,-112.5 355,-112.5"/>
<text text-anchor="middle" x="395" y="-119.5" font-family="Helvetica,sans-Serif" font-size="10.00">driver/src/lcd.c</text>
</a>
</g>
</g>
<!-- Node6&#45;&gt;Node7 -->
<g id="edge6" class="edge"><title>Node6&#45;&gt;Node7</title>
<path fill="none" stroke="midnightblue" d="M426.886,-160.431C418.824,-150.967 409.041,-139.483 402.455,-131.751"/>
<polygon fill="midnightblue" stroke="midnightblue" points="424.255,-162.74 433.404,-168.083 429.584,-158.201 424.255,-162.74"/>
</g>
<!-- Node6&#45;&gt;Node8 -->
<g id="edge7" class="edge"><title>Node6&#45;&gt;Node8</title>
<path fill="none" stroke="midnightblue" d="M450.998,-159.141C459.384,-145.21 472.323,-125.947 487,-112 503.186,-96.6189 525.385,-83.5494 540.629,-75.5223"/>
<polygon fill="midnightblue" stroke="midnightblue" points="447.737,-157.787 445.737,-168.191 453.789,-161.305 447.737,-157.787"/>
</g>
<!-- Node9 -->
<g id="node9" class="node"><title>Node9</title>
<g id="a_node9"><a xlink:href="menu_2menu_8h.html" target="_top" xlink:title="menu/menu.h">
<polygon fill="white" stroke="black" points="125,-112.5 125,-131.5 201,-131.5 201,-112.5 125,-112.5"/>
<text text-anchor="middle" x="163" y="-119.5" font-family="Helvetica,sans-Serif" font-size="10.00">menu/menu.h</text>
</a>
</g>
</g>
<!-- Node6&#45;&gt;Node9 -->
<g id="edge8" class="edge"><title>Node6&#45;&gt;Node9</title>
<path fill="none" stroke="midnightblue" d="M399.014,-167.845C323.069,-152.389 246.128,-138.108 201.24,-129.915"/>
<polygon fill="midnightblue" stroke="midnightblue" points="398.737,-171.361 409.235,-169.934 400.138,-164.502 398.737,-171.361"/>
</g>
<!-- Node6&#45;&gt;Node13 -->
<g id="edge14" class="edge"><title>Node6&#45;&gt;Node13</title>
<path fill="none" stroke="midnightblue" d="M482.733,-172.102C494.757,-170.73 507.895,-169.268 520,-168 679.104,-151.338 868.715,-133.984 950.339,-126.634"/>
<polygon fill="midnightblue" stroke="midnightblue" points="482.043,-168.658 472.508,-173.278 482.843,-175.612 482.043,-168.658"/>
</g>
<!-- Node9&#45;&gt;Node8 -->
<g id="edge9" class="edge"><title>Node9&#45;&gt;Node8</title>
<path fill="none" stroke="midnightblue" d="M211.134,-112.598C212.436,-112.393 213.726,-112.194 215,-112 334.94,-93.7606 479.158,-76.2874 534.664,-69.7274"/>
<polygon fill="midnightblue" stroke="midnightblue" points="210.338,-109.181 201.026,-114.234 211.457,-116.091 210.338,-109.181"/>
</g>
<!-- Node10 -->
<g id="node10" class="node"><title>Node10</title>
<g id="a_node10"><a xlink:href="menu__struct_8h.html" target="_top" xlink:title="menu/menu_struct.h">
<polygon fill="white" stroke="black" points="110,-56.5 110,-75.5 216,-75.5 216,-56.5 110,-56.5"/>
<text text-anchor="middle" x="163" y="-63.5" font-family="Helvetica,sans-Serif" font-size="10.00">menu/menu_struct.h</text>
</a>
</g>
</g>
<!-- Node9&#45;&gt;Node10 -->
<g id="edge10" class="edge"><title>Node9&#45;&gt;Node10</title>
<path fill="none" stroke="midnightblue" d="M156.528,-102.101C155.896,-93.1357 156.343,-82.8579 157.869,-75.7511"/>
<polygon fill="midnightblue" stroke="midnightblue" points="153.066,-102.622 157.834,-112.083 160.007,-101.713 153.066,-102.622"/>
</g>
<!-- Node12 -->
<g id="node12" class="node"><title>Node12</title>
<g id="a_node12"><a xlink:href="menu_2src_2menu_8c.html" target="_top" xlink:title="menu/src/menu.c">
<polygon fill="white" stroke="black" points="0,-56.5 0,-75.5 92,-75.5 92,-56.5 0,-56.5"/>
<text text-anchor="middle" x="46" y="-63.5" font-family="Helvetica,sans-Serif" font-size="10.00">menu/src/menu.c</text>
</a>
</g>
</g>
<!-- Node9&#45;&gt;Node12 -->
<g id="edge13" class="edge"><title>Node9&#45;&gt;Node12</title>
<path fill="none" stroke="midnightblue" d="M135.336,-108.232C113.451,-98.1312 83.5032,-84.3091 64.4523,-75.5164"/>
<polygon fill="midnightblue" stroke="midnightblue" points="133.915,-111.431 144.461,-112.444 136.848,-105.075 133.915,-111.431"/>
</g>
<!-- Node10&#45;&gt;Node9 -->
<g id="edge11" class="edge"><title>Node10&#45;&gt;Node9</title>
<path fill="none" stroke="midnightblue" d="M169.458,-85.6911C170.106,-94.6353 169.676,-104.927 168.166,-112.083"/>
<polygon fill="midnightblue" stroke="midnightblue" points="172.923,-85.2002 168.131,-75.7511 165.985,-86.1262 172.923,-85.2002"/>
</g>
<!-- Node11 -->
<g id="node11" class="node"><title>Node11</title>
<g id="a_node11"><a xlink:href="menu__struct_8c.html" target="_top" xlink:title="menu/src/menu_struct.c">
<polygon fill="white" stroke="black" points="102,-0.5 102,-19.5 224,-19.5 224,-0.5 102,-0.5"/>
<text text-anchor="middle" x="163" y="-7.5" font-family="Helvetica,sans-Serif" font-size="10.00">menu/src/menu_struct.c</text>
</a>
</g>
</g>
<!-- Node10&#45;&gt;Node11 -->
<g id="edge12" class="edge"><title>Node10&#45;&gt;Node11</title>
<path fill="none" stroke="midnightblue" d="M163,-45.8045C163,-36.9102 163,-26.7798 163,-19.7511"/>
<polygon fill="midnightblue" stroke="midnightblue" points="159.5,-46.083 163,-56.083 166.5,-46.083 159.5,-46.083"/>
</g>
<!-- Node13&#45;&gt;Node8 -->
<g id="edge15" class="edge"><title>Node13&#45;&gt;Node8</title>
<path fill="none" stroke="midnightblue" d="M940.457,-112.642C938.955,-112.422 937.467,-112.207 936,-112 801.851,-93.0483 640.157,-75.5927 581.057,-69.3898"/>
<polygon fill="midnightblue" stroke="midnightblue" points="940.07,-116.124 950.482,-114.164 941.12,-109.203 940.07,-116.124"/>
</g>
<!-- Node14 -->
<g id="node14" class="node"><title>Node14</title>
<g id="a_node14"><a xlink:href="radio_8c.html" target="_top" xlink:title="system/src/radio.c">
<polygon fill="white" stroke="black" points="942,-56.5 942,-75.5 1040,-75.5 1040,-56.5 942,-56.5"/>
<text text-anchor="middle" x="991" y="-63.5" font-family="Helvetica,sans-Serif" font-size="10.00">system/src/radio.c</text>
</a>
</g>
</g>
<!-- Node13&#45;&gt;Node14 -->
<g id="edge16" class="edge"><title>Node13&#45;&gt;Node14</title>
<path fill="none" stroke="midnightblue" d="M991,-101.805C991,-92.9102 991,-82.7798 991,-75.7511"/>
<polygon fill="midnightblue" stroke="midnightblue" points="987.5,-102.083 991,-112.083 994.5,-102.083 987.5,-102.083"/>
</g>
<!-- Node16&#45;&gt;Node8 -->
<g id="edge20" class="edge"><title>Node16&#45;&gt;Node8</title>
<path fill="none" stroke="midnightblue" d="M853.728,-160.531C865.327,-146.371 877.155,-126.067 865,-112 828.107,-69.3048 645.996,-66.3526 581.055,-66.6888"/>
<polygon fill="midnightblue" stroke="midnightblue" points="851.08,-158.242 847.109,-168.064 856.339,-162.863 851.08,-158.242"/>
</g>
<!-- Node16&#45;&gt;Node13 -->
<g id="edge21" class="edge"><title>Node16&#45;&gt;Node13</title>
<path fill="none" stroke="midnightblue" d="M871.889,-165.039C900.677,-154.879 941.287,-140.546 966.87,-131.516"/>
<polygon fill="midnightblue" stroke="midnightblue" points="870.508,-161.815 862.243,-168.444 872.838,-168.416 870.508,-161.815"/>
</g>
<!-- Node17 -->
<g id="node17" class="node"><title>Node17</title>
<g id="a_node17"><a xlink:href="pca9530_8c.html" target="_top" xlink:title="driver/src/pca9530.c">
<polygon fill="white" stroke="black" points="752,-112.5 752,-131.5 856,-131.5 856,-112.5 752,-112.5"/>
<text text-anchor="middle" x="804" y="-119.5" font-family="Helvetica,sans-Serif" font-size="10.00">driver/src/pca9530.c</text>
</a>
</g>
</g>
<!-- Node16&#45;&gt;Node17 -->
<g id="edge19" class="edge"><title>Node16&#45;&gt;Node17</title>
<path fill="none" stroke="midnightblue" d="M827.023,-159.566C821.173,-150.275 814.23,-139.248 809.51,-131.751"/>
<polygon fill="midnightblue" stroke="midnightblue" points="824.096,-161.486 832.386,-168.083 830.019,-157.756 824.096,-161.486"/>
</g>
<!-- Node18&#45;&gt;Node8 -->
<g id="edge24" class="edge"><title>Node18&#45;&gt;Node8</title>
<path fill="none" stroke="midnightblue" d="M928.131,-214.085C924.358,-186.852 913.217,-137.119 881,-112 834.229,-75.5335 647.692,-68.6154 581.47,-67.3053"/>
<polygon fill="midnightblue" stroke="midnightblue" points="924.682,-214.723 929.336,-224.241 931.633,-213.898 924.682,-214.723"/>
</g>
<!-- Node18&#45;&gt;Node13 -->
<g id="edge25" class="edge"><title>Node18&#45;&gt;Node13</title>
<path fill="none" stroke="midnightblue" d="M939.804,-215.32C953.086,-191.37 976.278,-149.548 986.236,-131.591"/>
<polygon fill="midnightblue" stroke="midnightblue" points="936.575,-213.926 934.787,-224.368 942.697,-217.321 936.575,-213.926"/>
</g>
<!-- Node18&#45;&gt;Node19 -->
<g id="edge23" class="edge"><title>Node18&#45;&gt;Node19</title>
<path fill="none" stroke="midnightblue" d="M968.531,-221.568C1002.86,-211.381 1052.33,-196.703 1083.3,-187.516"/>
<polygon fill="midnightblue" stroke="midnightblue" points="967.43,-218.244 958.838,-224.444 969.421,-224.954 967.43,-218.244"/>
</g>
<!-- Node18&#45;&gt;Node20 -->
<g id="edge26" class="edge"><title>Node18&#45;&gt;Node20</title>
<path fill="none" stroke="midnightblue" d="M887.799,-221.829C849.282,-211.633 793.178,-196.782 758.173,-187.516"/>
<polygon fill="midnightblue" stroke="midnightblue" points="887.113,-225.268 897.676,-224.444 888.904,-218.501 887.113,-225.268"/>
</g>
<!-- Node21 -->
<g id="node21" class="node"><title>Node21</title>
<g id="a_node21"><a xlink:href="rds_8c.html" target="_top" xlink:title="system/src/rds.c">
<polygon fill="white" stroke="black" points="644,-112.5 644,-131.5 734,-131.5 734,-112.5 644,-112.5"/>
<text text-anchor="middle" x="689" y="-119.5" font-family="Helvetica,sans-Serif" font-size="10.00">system/src/rds.c</text>
</a>
</g>
</g>
<!-- Node20&#45;&gt;Node21 -->
<g id="edge27" class="edge"><title>Node20&#45;&gt;Node21</title>
<path fill="none" stroke="midnightblue" d="M714.054,-159.566C707.688,-150.275 700.133,-139.248 694.996,-131.751"/>
<polygon fill="midnightblue" stroke="midnightblue" points="711.351,-161.812 719.89,-168.083 717.125,-157.855 711.351,-161.812"/>
</g>
<!-- Node23&#45;&gt;Node8 -->
<g id="edge31" class="edge"><title>Node23&#45;&gt;Node8</title>
<path fill="none" stroke="midnightblue" d="M478.728,-214.856C497.817,-179.252 539.528,-101.453 553.406,-75.5681"/>
<polygon fill="midnightblue" stroke="midnightblue" points="475.426,-213.608 473.785,-224.075 481.595,-216.916 475.426,-213.608"/>
</g>
<!-- Node24 -->
<g id="node24" class="node"><title>Node24</title>
<g id="a_node24"><a xlink:href="tpa2016d2_8c.html" target="_top" xlink:title="driver/src/tpa2016d2.c">
<polygon fill="white" stroke="black" points="279,-168.5 279,-187.5 391,-187.5 391,-168.5 279,-168.5"/>
<text text-anchor="middle" x="335" y="-175.5" font-family="Helvetica,sans-Serif" font-size="10.00">driver/src/tpa2016d2.c</text>
</a>
</g>
</g>
<!-- Node23&#45;&gt;Node24 -->
<g id="edge30" class="edge"><title>Node23&#45;&gt;Node24</title>
<path fill="none" stroke="midnightblue" d="M438.323,-220.638C413.177,-210.504 378.246,-196.427 356.133,-187.516"/>
<polygon fill="midnightblue" stroke="midnightblue" points="437.184,-223.952 447.767,-224.444 439.8,-217.459 437.184,-223.952"/>
</g>
<!-- Node27 -->
<g id="node27" class="node"><title>Node27</title>
<g id="a_node27"><a xlink:href="handler_8c.html" target="_top" xlink:title="system/src/handler.c">
<polygon fill="white" stroke="black" points="295,-224.5 295,-243.5 403,-243.5 403,-224.5 295,-224.5"/>
<text text-anchor="middle" x="349" y="-231.5" font-family="Helvetica,sans-Serif" font-size="10.00">system/src/handler.c</text>
</a>
</g>
</g>
<!-- Node26&#45;&gt;Node27 -->
<g id="edge41" class="edge"><title>Node26&#45;&gt;Node27</title>
<path fill="none" stroke="midnightblue" d="M391.105,-273.537C380.585,-263.909 367.431,-251.869 358.652,-243.834"/>
<polygon fill="midnightblue" stroke="midnightblue" points="388.781,-276.154 398.521,-280.324 393.507,-270.99 388.781,-276.154"/>
</g>
</g>
</svg>
        <g id="navigator" transform="translate(0 0)" fill="#404254">
                <rect fill="#f2f5e9" fill-opacity="0.5" stroke="#606060" stroke-width=".5" x="0" y="0" width="60" height="60"/>
                <use id="zoomplus" xlink:href="#zoomPlus" x="17" y="9" onmousedown="handleZoom(evt,'in')"/>
                <use id="zoomminus" xlink:href="#zoomMin" x="42" y="9" onmousedown="handleZoom(evt,'out')"/>
                <use id="reset" xlink:href="#resetDef" x="30" y="36" onmousedown="handleReset()"/>
                <g id="arrowUp" xlink:href="#dirArrow" transform="translate(30 24)" onmousedown="handlePan(0,-1)">
                  <use xlink:href="#rim" fill="#404040">
                        <set attributeName="fill" to="#808080" begin="arrowUp.mouseover" end="arrowUp.mouseout"/>
                  </use>
                  <path fill="none" stroke="white" stroke-width="1.5" d="M0,-3.0v7 M-2.5,-0.5L0,-3.0L2.5,-0.5"/>
                </g>
                <g id="arrowRight" xlink:href="#dirArrow" transform="rotate(90) translate(36 -43)" onmousedown="handlePan(1,0)">
                  <use xlink:href="#rim" fill="#404040">
                        <set attributeName="fill" to="#808080" begin="arrowRight.mouseover" end="arrowRight.mouseout"/>
                  </use>
                  <path fill="none" stroke="white" stroke-width="1.5" d="M0,-3.0v7 M-2.5,-0.5L0,-3.0L2.5,-0.5"/>
                </g>
                <g id="arrowDown" xlink:href="#dirArrow" transform="rotate(180) translate(-30 -48)" onmousedown="handlePan(0,1)">
                  <use xlink:href="#rim" fill="#404040">
                        <set attributeName="fill" to="#808080" begin="arrowDown.mouseover" end="arrowDown.mouseout"/>
                  </use>
                  <path fill="none" stroke="white" stroke-width="1.5" d="M0,-3.0v7 M-2.5,-0.5L0,-3.0L2.5,-0.5"/>
                </g>
                <g id="arrowLeft" xlink:href="#dirArrow" transform="rotate(270) translate(-36 17)" onmousedown="handlePan(-1,0)">
                  <use xlink:href="#rim" fill="#404040">
                        <set attributeName="fill" to="#808080" begin="arrowLeft.mouseover" end="arrowLeft.mouseout"/>
                  </use>
                  <path fill="none" stroke="white" stroke-width="1.5" d="M0,-3.0v7 M-2.5,-0.5L0,-3.0L2.5,-0.5"/>
                </g>
        </g>
        <svg viewBox="0 0 15 15" width="100%" height="30px" preserveAspectRatio="xMaxYMin meet">
         <g id="arrow_out" transform="scale(0.3 0.3)">
          <a xlink:href="si4735__cmd__prop_8h__dep__incl_org.svg" target="_base">
           <rect id="button" ry="5" rx="5" y="6" x="6" height="38" width="38"
                fill="#f2f5e9" fill-opacity="0.5" stroke="#606060" stroke-width="1.0"/>
           <path id="arrow"
             d="M 11.500037,31.436501 C 11.940474,20.09759 22.043105,11.32322 32.158766,21.979434 L 37.068811,17.246167 C 37.068811,17.246167 37.088388,32 37.088388,32 L 22.160133,31.978069 C 22.160133,31.978069 26.997745,27.140456 26.997745,27.140456 C 18.528582,18.264221 13.291696,25.230495 11.500037,31.436501 z"
             style="fill:#404040;"/>
          </a>
         </g>
        </svg>
</svg>
