<?xml version="1.0" encoding="UTF-8" standalone="no"?>
<!DOCTYPE svg PUBLIC "-//W3C//DTD SVG 1.1//EN"
 "http://www.w3.org/Graphics/SVG/1.1/DTD/svg11.dtd">
<!-- Generated by graphviz version 2.38.0 (20140413.2041)
 -->
<!-- Title: si4735_get_interrupt Pages: 1 -->
<svg width="853pt" height="278pt"
 viewBox="0.00 0.00 853.00 277.74" xmlns="http://www.w3.org/2000/svg" xmlns:xlink="http://www.w3.org/1999/xlink">
<g id="graph0" class="graph" transform="scale(1 1) rotate(0) translate(4 273.743)">
<title>si4735_get_interrupt</title>
<polygon fill="white" stroke="none" points="-4,4 -4,-273.743 849,-273.743 849,4 -4,4"/>
<!-- Node1 -->
<g id="node1" class="node"><title>Node1</title>
<polygon fill="#bfbfbf" stroke="black" points="0,-95.5 0,-114.5 104,-114.5 104,-95.5 0,-95.5"/>
<text text-anchor="middle" x="52" y="-102.5" font-family="Helvetica,sans-Serif" font-size="10.00">si4735_get_interrupt</text>
</g>
<!-- Node2 -->
<g id="node2" class="node"><title>Node2</title>
<g id="a_node2"><a xlink:href="si4735_8c.html#af82ec28b536b1258ea4178108c61d5e9" target="_top" xlink:title="si4735_fm_tune_freq">
<polygon fill="white" stroke="black" points="299,-76.5 299,-95.5 405,-95.5 405,-76.5 299,-76.5"/>
<text text-anchor="middle" x="352" y="-83.5" font-family="Helvetica,sans-Serif" font-size="10.00">si4735_fm_tune_freq</text>
</a>
</g>
</g>
<!-- Node1&#45;&gt;Node2 -->
<g id="edge1" class="edge"><title>Node1&#45;&gt;Node2</title>
<path fill="none" stroke="midnightblue" d="M114.441,-101.083C168.893,-97.6108 247.525,-92.5974 298.942,-89.3191"/>
<polygon fill="midnightblue" stroke="midnightblue" points="113.985,-97.6045 104.228,-101.734 114.43,-104.59 113.985,-97.6045"/>
</g>
<!-- Node3 -->
<g id="node3" class="node"><title>Node3</title>
<g id="a_node3"><a xlink:href="si4735_8c.html#a876518b974a7128391e2ff86a597218f" target="_top" xlink:title="SI4735_INIT">
<polygon fill="white" stroke="black" points="459.5,-152.5 459.5,-171.5 527.5,-171.5 527.5,-152.5 459.5,-152.5"/>
<text text-anchor="middle" x="493.5" y="-159.5" font-family="Helvetica,sans-Serif" font-size="10.00">SI4735_INIT</text>
</a>
</g>
</g>
<!-- Node1&#45;&gt;Node3 -->
<g id="edge30" class="edge"><title>Node1&#45;&gt;Node3</title>
<path fill="none" stroke="midnightblue" d="M114.238,-112.942C208.481,-125.165 385.861,-148.17 459.33,-157.698"/>
<polygon fill="midnightblue" stroke="midnightblue" points="114.644,-109.465 104.276,-111.65 113.743,-116.407 114.644,-109.465"/>
</g>
<!-- Node12 -->
<g id="node12" class="node"><title>Node12</title>
<g id="a_node12"><a xlink:href="si4735_8c.html#aadc29a91f13cd5ebe239b23c7e5370dc" target="_top" xlink:title="si4735_set_property">
<polygon fill="white" stroke="black" points="144,-190.5 144,-209.5 248,-209.5 248,-190.5 144,-190.5"/>
<text text-anchor="middle" x="196" y="-197.5" font-family="Helvetica,sans-Serif" font-size="10.00">si4735_set_property</text>
</a>
</g>
</g>
<!-- Node1&#45;&gt;Node12 -->
<g id="edge13" class="edge"><title>Node1&#45;&gt;Node12</title>
<path fill="none" stroke="midnightblue" d="M75.8302,-120.274C105.344,-140.019 155.873,-173.824 180.565,-190.343"/>
<polygon fill="midnightblue" stroke="midnightblue" points="77.6549,-117.283 67.3972,-114.632 73.7625,-123.101 77.6549,-117.283"/>
</g>
<!-- Node17 -->
<g id="node17" class="node"><title>Node17</title>
<g id="a_node17"><a xlink:href="si4735_8c.html#a339846da787fb5a496df9252ca7dc9a5" target="_top" xlink:title="si4735_fm_seek_start">
<polygon fill="white" stroke="black" points="140,-38.5 140,-57.5 252,-57.5 252,-38.5 140,-38.5"/>
<text text-anchor="middle" x="196" y="-45.5" font-family="Helvetica,sans-Serif" font-size="10.00">si4735_fm_seek_start</text>
</a>
</g>
</g>
<!-- Node1&#45;&gt;Node17 -->
<g id="edge24" class="edge"><title>Node1&#45;&gt;Node17</title>
<path fill="none" stroke="midnightblue" d="M86.2352,-91.6591C112.279,-81.205 147.884,-66.9126 171.155,-57.5716"/>
<polygon fill="midnightblue" stroke="midnightblue" points="84.744,-88.4862 76.7676,-95.4595 87.3517,-94.9823 84.744,-88.4862"/>
</g>
<!-- Node2&#45;&gt;Node3 -->
<g id="edge2" class="edge"><title>Node2&#45;&gt;Node3</title>
<path fill="none" stroke="midnightblue" d="M394.963,-99.4278C402.208,-102.457 409.495,-105.985 416,-110 434.47,-121.4 433.968,-130.919 452,-143 457.162,-146.458 463.053,-149.611 468.713,-152.311"/>
<polygon fill="midnightblue" stroke="midnightblue" points="395.773,-95.9867 385.184,-95.6084 393.226,-102.507 395.773,-95.9867"/>
</g>
<!-- Node7 -->
<g id="node7" class="node"><title>Node7</title>
<g id="a_node7"><a xlink:href="radio_8c.html#a6d652e9d0f1c54bfe9ec73fe2605b706" target="_top" xlink:title="Tune the frequency. ">
<polygon fill="white" stroke="black" points="452,-114.5 452,-133.5 535,-133.5 535,-114.5 452,-114.5"/>
<text text-anchor="middle" x="493.5" y="-121.5" font-family="Helvetica,sans-Serif" font-size="10.00">radio_tune_freq</text>
</a>
</g>
</g>
<!-- Node2&#45;&gt;Node7 -->
<g id="edge6" class="edge"><title>Node2&#45;&gt;Node7</title>
<path fill="none" stroke="midnightblue" d="M397.956,-98.2462C417.185,-103.484 439.303,-109.509 457.31,-114.414"/>
<polygon fill="midnightblue" stroke="midnightblue" points="398.77,-94.8404 388.202,-95.589 396.93,-101.594 398.77,-94.8404"/>
</g>
<!-- Node4 -->
<g id="node4" class="node"><title>Node4</title>
<g id="a_node4"><a xlink:href="radio_8c.html#a3a1de7e31aabba6e408a633c130e618a" target="_top" xlink:title="Initiales the radio. ">
<polygon fill="white" stroke="black" points="599.5,-114.5 599.5,-133.5 655.5,-133.5 655.5,-114.5 599.5,-114.5"/>
<text text-anchor="middle" x="627.5" y="-121.5" font-family="Helvetica,sans-Serif" font-size="10.00">radio_init</text>
</a>
</g>
</g>
<!-- Node3&#45;&gt;Node4 -->
<g id="edge3" class="edge"><title>Node3&#45;&gt;Node4</title>
<path fill="none" stroke="midnightblue" d="M537.503,-149.62C557.878,-143.755 581.595,-136.927 599.419,-131.796"/>
<polygon fill="midnightblue" stroke="midnightblue" points="536.451,-146.281 527.809,-152.411 538.387,-153.008 536.451,-146.281"/>
</g>
<!-- Node6 -->
<g id="node6" class="node"><title>Node6</title>
<g id="a_node6"><a xlink:href="radio_8c.html#a5d08cbff96aee4274e785b49a98f14cd" target="_top" xlink:title="Turn radio to standby. ">
<polygon fill="white" stroke="black" points="586,-190.5 586,-209.5 669,-209.5 669,-190.5 586,-190.5"/>
<text text-anchor="middle" x="627.5" y="-197.5" font-family="Helvetica,sans-Serif" font-size="10.00">radio_stand_by</text>
</a>
</g>
</g>
<!-- Node3&#45;&gt;Node6 -->
<g id="edge5" class="edge"><title>Node3&#45;&gt;Node6</title>
<path fill="none" stroke="midnightblue" d="M537.541,-174.391C555.618,-179.594 576.319,-185.554 593.201,-190.414"/>
<polygon fill="midnightblue" stroke="midnightblue" points="538.387,-170.992 527.809,-171.589 536.451,-177.719 538.387,-170.992"/>
</g>
<!-- Node5 -->
<g id="node5" class="node"><title>Node5</title>
<g id="a_node5"><a xlink:href="main_8c.html#a840291bc02cba5474a4cb46a9b9566fe" target="_top" xlink:title="Main function. ">
<polygon fill="white" stroke="black" points="763.5,-114.5 763.5,-133.5 801.5,-133.5 801.5,-114.5 763.5,-114.5"/>
<text text-anchor="middle" x="782.5" y="-121.5" font-family="Helvetica,sans-Serif" font-size="10.00">main</text>
</a>
</g>
</g>
<!-- Node4&#45;&gt;Node5 -->
<g id="edge4" class="edge"><title>Node4&#45;&gt;Node5</title>
<path fill="none" stroke="midnightblue" d="M665.509,-124C696.497,-124 739.396,-124 763.389,-124"/>
<polygon fill="midnightblue" stroke="midnightblue" points="665.501,-120.5 655.501,-124 665.501,-127.5 665.501,-120.5"/>
</g>
<!-- Node7&#45;&gt;Node4 -->
<g id="edge7" class="edge"><title>Node7&#45;&gt;Node4</title>
<path fill="none" stroke="midnightblue" d="M545.415,-124C563.687,-124 583.589,-124 599.103,-124"/>
<polygon fill="midnightblue" stroke="midnightblue" points="545.181,-120.5 535.181,-124 545.181,-127.5 545.181,-120.5"/>
</g>
<!-- Node7&#45;&gt;Node6 -->
<g id="edge9" class="edge"><title>Node7&#45;&gt;Node6</title>
<path fill="none" stroke="midnightblue" d="M527.938,-138.431C530.392,-139.867 532.775,-141.393 535,-143 553.859,-156.622 551.428,-168.424 571,-181 576.912,-184.799 583.669,-187.93 590.386,-190.478"/>
<polygon fill="midnightblue" stroke="midnightblue" points="529.364,-135.226 518.889,-133.639 526.088,-141.412 529.364,-135.226"/>
</g>
<!-- Node8 -->
<g id="node8" class="node"><title>Node8</title>
<g id="a_node8"><a xlink:href="radio_8c.html#a841443a7db6e1c9caef95f3b7af5761f" target="_top" xlink:title="Radio main. ">
<polygon fill="white" stroke="black" points="595.5,-152.5 595.5,-171.5 659.5,-171.5 659.5,-152.5 595.5,-152.5"/>
<text text-anchor="middle" x="627.5" y="-159.5" font-family="Helvetica,sans-Serif" font-size="10.00">radio_main</text>
</a>
</g>
</g>
<!-- Node7&#45;&gt;Node8 -->
<g id="edge8" class="edge"><title>Node7&#45;&gt;Node8</title>
<path fill="none" stroke="midnightblue" d="M537.664,-136.426C556.53,-141.857 578.235,-148.106 595.468,-153.067"/>
<polygon fill="midnightblue" stroke="midnightblue" points="538.387,-132.992 527.809,-133.589 536.451,-139.719 538.387,-132.992"/>
</g>
<!-- Node9 -->
<g id="node9" class="node"><title>Node9</title>
<g id="a_node9"><a xlink:href="station__list_8h.html#a14396edaefab23c83e16fea65cc5db9d" target="_top" xlink:title="Handler to select the current station. ">
<polygon fill="white" stroke="black" points="577,-76.5 577,-95.5 678,-95.5 678,-76.5 577,-76.5"/>
<text text-anchor="middle" x="627.5" y="-83.5" font-family="Helvetica,sans-Serif" font-size="10.00">station_list_handler</text>
</a>
</g>
</g>
<!-- Node7&#45;&gt;Node9 -->
<g id="edge10" class="edge"><title>Node7&#45;&gt;Node9</title>
<path fill="none" stroke="midnightblue" d="M537.541,-111.609C555.618,-106.406 576.319,-100.446 593.201,-95.5859"/>
<polygon fill="midnightblue" stroke="midnightblue" points="536.451,-108.281 527.809,-114.411 538.387,-115.008 536.451,-108.281"/>
</g>
<!-- Node10 -->
<g id="node10" class="node"><title>Node10</title>
<g id="a_node10"><a xlink:href="radio__settings_8c.html#ab424f802ddd3a0570afec524d4f2091b" target="_top" xlink:title="Sets the frequency. ">
<polygon fill="white" stroke="black" points="720,-76.5 720,-95.5 845,-95.5 845,-76.5 720,-76.5"/>
<text text-anchor="middle" x="782.5" y="-83.5" font-family="Helvetica,sans-Serif" font-size="10.00">radio_settings_frequency</text>
</a>
</g>
</g>
<!-- Node9&#45;&gt;Node10 -->
<g id="edge11" class="edge"><title>Node9&#45;&gt;Node10</title>
<path fill="none" stroke="midnightblue" d="M688.323,-86C698.643,-86 709.389,-86 719.758,-86"/>
<polygon fill="midnightblue" stroke="midnightblue" points="688.175,-82.5001 678.175,-86 688.175,-89.5001 688.175,-82.5001"/>
</g>
<!-- Node11 -->
<g id="node11" class="node"><title>Node11</title>
<g id="a_node11"><a xlink:href="radio__settings_8c.html#a90d48a01d9b0ad794fb9416a2ce8f85e" target="_top" xlink:title="Seeks the next station/all available. ">
<polygon fill="white" stroke="black" points="726.5,-38.5 726.5,-57.5 838.5,-57.5 838.5,-38.5 726.5,-38.5"/>
<text text-anchor="middle" x="782.5" y="-45.5" font-family="Helvetica,sans-Serif" font-size="10.00">radio_settings_station</text>
</a>
</g>
</g>
<!-- Node9&#45;&gt;Node11 -->
<g id="edge12" class="edge"><title>Node9&#45;&gt;Node11</title>
<path fill="none" stroke="midnightblue" d="M676.977,-73.96C698.352,-68.6512 723.113,-62.5012 743.169,-57.5201"/>
<polygon fill="midnightblue" stroke="midnightblue" points="675.97,-70.6037 667.108,-76.411 677.657,-77.3973 675.97,-70.6037"/>
</g>
<!-- Node12&#45;&gt;Node3 -->
<g id="edge18" class="edge"><title>Node12&#45;&gt;Node3</title>
<path fill="none" stroke="midnightblue" d="M247.417,-188.413C260.573,-185.681 274.773,-182.989 288,-181 348.118,-171.961 418.869,-166.534 459.422,-163.918"/>
<polygon fill="midnightblue" stroke="midnightblue" points="246.647,-184.998 237.592,-190.499 248.101,-191.846 246.647,-184.998"/>
</g>
<!-- Node13 -->
<g id="node13" class="node"><title>Node13</title>
<g id="a_node13"><a xlink:href="si4735_8c.html#a6f18c3d05bcb57296aad95c0be535f73" target="_top" xlink:title="si4735_configure_rds">
<polygon fill="white" stroke="black" points="298,-228.5 298,-247.5 406,-247.5 406,-228.5 298,-228.5"/>
<text text-anchor="middle" x="352" y="-235.5" font-family="Helvetica,sans-Serif" font-size="10.00">si4735_configure_rds</text>
</a>
</g>
</g>
<!-- Node12&#45;&gt;Node13 -->
<g id="edge14" class="edge"><title>Node12&#45;&gt;Node13</title>
<path fill="none" stroke="midnightblue" d="M245.794,-212.04C267.308,-217.349 292.232,-223.499 312.419,-228.48"/>
<polygon fill="midnightblue" stroke="midnightblue" points="246.408,-208.587 235.861,-209.589 244.731,-215.383 246.408,-208.587"/>
</g>
<!-- Node14 -->
<g id="node14" class="node"><title>Node14</title>
<g id="a_node14"><a xlink:href="si4735_8c.html#af6037be0045d62ab73bf8e6c3802bd8e" target="_top" xlink:title="si4735_configure_seeking">
<polygon fill="white" stroke="black" points="288,-190.5 288,-209.5 416,-209.5 416,-190.5 288,-190.5"/>
<text text-anchor="middle" x="352" y="-197.5" font-family="Helvetica,sans-Serif" font-size="10.00">si4735_configure_seeking</text>
</a>
</g>
</g>
<!-- Node12&#45;&gt;Node14 -->
<g id="edge16" class="edge"><title>Node12&#45;&gt;Node14</title>
<path fill="none" stroke="midnightblue" d="M258.582,-200C268.226,-200 278.207,-200 287.885,-200"/>
<polygon fill="midnightblue" stroke="midnightblue" points="258.28,-196.5 248.28,-200 258.28,-203.5 258.28,-196.5"/>
</g>
<!-- Node15 -->
<g id="node15" class="node"><title>Node15</title>
<g id="a_node15"><a xlink:href="radio_8c.html#ae11dbe9ea82d3ae65b6e80a4e6e995f8" target="_top" xlink:title="Set the volume. ">
<polygon fill="white" stroke="black" points="457,-190.5 457,-209.5 530,-209.5 530,-190.5 457,-190.5"/>
<text text-anchor="middle" x="493.5" y="-197.5" font-family="Helvetica,sans-Serif" font-size="10.00">radio_volume</text>
</a>
</g>
</g>
<!-- Node12&#45;&gt;Node15 -->
<g id="edge19" class="edge"><title>Node12&#45;&gt;Node15</title>
<path fill="none" stroke="midnightblue" d="M215.931,-216.355C233.337,-230.233 260.537,-249.109 288,-257 342.677,-272.71 362.002,-274.905 416,-257 444.298,-247.617 470.622,-223.249 483.758,-209.607"/>
<polygon fill="midnightblue" stroke="midnightblue" points="217.716,-213.292 207.772,-209.638 213.267,-218.696 217.716,-213.292"/>
</g>
<!-- Node13&#45;&gt;Node3 -->
<g id="edge15" class="edge"><title>Node13&#45;&gt;Node3</title>
<path fill="none" stroke="midnightblue" d="M405.181,-224.661C408.947,-222.979 412.597,-221.099 416,-219 435.801,-206.787 433.141,-194.622 452,-181 456.911,-177.453 462.589,-174.303 468.111,-171.639"/>
<polygon fill="midnightblue" stroke="midnightblue" points="403.656,-221.501 395.655,-228.446 406.241,-228.006 403.656,-221.501"/>
</g>
<!-- Node14&#45;&gt;Node3 -->
<g id="edge17" class="edge"><title>Node14&#45;&gt;Node3</title>
<path fill="none" stroke="midnightblue" d="M397.991,-187.744C417.901,-182.321 440.904,-176.055 459.23,-171.063"/>
<polygon fill="midnightblue" stroke="midnightblue" points="396.93,-184.406 388.202,-190.411 398.77,-191.16 396.93,-184.406"/>
</g>
<!-- Node15&#45;&gt;Node4 -->
<g id="edge20" class="edge"><title>Node15&#45;&gt;Node4</title>
<path fill="none" stroke="midnightblue" d="M527.938,-185.569C530.392,-184.133 532.775,-182.607 535,-181 553.859,-167.378 551.428,-155.576 571,-143 579.568,-137.495 589.911,-133.391 599.335,-130.434"/>
<polygon fill="midnightblue" stroke="midnightblue" points="526.088,-182.588 518.889,-190.361 529.364,-188.774 526.088,-182.588"/>
</g>
<!-- Node15&#45;&gt;Node6 -->
<g id="edge22" class="edge"><title>Node15&#45;&gt;Node6</title>
<path fill="none" stroke="midnightblue" d="M540.592,-200C555.249,-200 571.352,-200 585.616,-200"/>
<polygon fill="midnightblue" stroke="midnightblue" points="540.221,-196.5 530.221,-200 540.221,-203.5 540.221,-196.5"/>
</g>
<!-- Node15&#45;&gt;Node8 -->
<g id="edge21" class="edge"><title>Node15&#45;&gt;Node8</title>
<path fill="none" stroke="midnightblue" d="M537.664,-187.574C556.53,-182.143 578.235,-175.894 595.468,-170.933"/>
<polygon fill="midnightblue" stroke="midnightblue" points="536.451,-184.281 527.809,-190.411 538.387,-191.008 536.451,-184.281"/>
</g>
<!-- Node16 -->
<g id="node16" class="node"><title>Node16</title>
<g id="a_node16"><a xlink:href="radio__settings_8c.html#aba6a09ed7091ec65d2cbf4cd9a9a75f4" target="_top" xlink:title="Sets the volume. ">
<polygon fill="white" stroke="black" points="571,-228.5 571,-247.5 684,-247.5 684,-228.5 571,-228.5"/>
<text text-anchor="middle" x="627.5" y="-235.5" font-family="Helvetica,sans-Serif" font-size="10.00">radio_settings_volume</text>
</a>
</g>
</g>
<!-- Node15&#45;&gt;Node16 -->
<g id="edge23" class="edge"><title>Node15&#45;&gt;Node16</title>
<path fill="none" stroke="midnightblue" d="M537.541,-212.391C555.618,-217.594 576.319,-223.554 593.201,-228.414"/>
<polygon fill="midnightblue" stroke="midnightblue" points="538.387,-208.992 527.809,-209.589 536.451,-215.719 538.387,-208.992"/>
</g>
<!-- Node18 -->
<g id="node18" class="node"><title>Node18</title>
<g id="a_node18"><a xlink:href="radio_8c.html#aee6321b512830d482a2fc164cf11f9e9" target="_top" xlink:title="Seeking all radio channels. ">
<polygon fill="white" stroke="black" points="455,-38.5 455,-57.5 532,-57.5 532,-38.5 455,-38.5"/>
<text text-anchor="middle" x="493.5" y="-45.5" font-family="Helvetica,sans-Serif" font-size="10.00">radio_seeking</text>
</a>
</g>
</g>
<!-- Node17&#45;&gt;Node18 -->
<g id="edge25" class="edge"><title>Node17&#45;&gt;Node18</title>
<path fill="none" stroke="midnightblue" d="M262.588,-48C321.685,-48 406.494,-48 454.874,-48"/>
<polygon fill="midnightblue" stroke="midnightblue" points="262.235,-44.5001 252.235,-48 262.235,-51.5001 262.235,-44.5001"/>
</g>
<!-- Node18&#45;&gt;Node4 -->
<g id="edge26" class="edge"><title>Node18&#45;&gt;Node4</title>
<path fill="none" stroke="midnightblue" d="M513.053,-64.4229C527.898,-76.8973 549.689,-93.7666 571,-105 579.829,-109.654 590.032,-113.529 599.262,-116.54"/>
<polygon fill="midnightblue" stroke="midnightblue" points="515.04,-61.5161 505.171,-57.6619 510.483,-66.8292 515.04,-61.5161"/>
</g>
<!-- Node18&#45;&gt;Node11 -->
<g id="edge29" class="edge"><title>Node18&#45;&gt;Node11</title>
<path fill="none" stroke="midnightblue" d="M542.054,-48C592.719,-48 672.832,-48 726.259,-48"/>
<polygon fill="midnightblue" stroke="midnightblue" points="542.02,-44.5001 532.02,-48 542.02,-51.5001 542.02,-44.5001"/>
</g>
<!-- Node19 -->
<g id="node19" class="node"><title>Node19</title>
<g id="a_node19"><a xlink:href="radio_8c.html#ac96da2886aec92b299b27b500761564c" target="_top" xlink:title="Auto Search for radio stations. ">
<polygon fill="white" stroke="black" points="579.5,-0.5 579.5,-19.5 675.5,-19.5 675.5,-0.5 579.5,-0.5"/>
<text text-anchor="middle" x="627.5" y="-7.5" font-family="Helvetica,sans-Serif" font-size="10.00">radio_auto_search</text>
</a>
</g>
</g>
<!-- Node18&#45;&gt;Node19 -->
<g id="edge27" class="edge"><title>Node18&#45;&gt;Node19</title>
<path fill="none" stroke="midnightblue" d="M537.541,-35.6094C555.618,-30.4055 576.319,-24.4459 593.201,-19.5859"/>
<polygon fill="midnightblue" stroke="midnightblue" points="536.451,-32.2811 527.809,-38.411 538.387,-39.0079 536.451,-32.2811"/>
</g>
<!-- Node19&#45;&gt;Node11 -->
<g id="edge28" class="edge"><title>Node19&#45;&gt;Node11</title>
<path fill="none" stroke="midnightblue" d="M676.977,-22.04C698.352,-27.3488 723.113,-33.4988 743.169,-38.4799"/>
<polygon fill="midnightblue" stroke="midnightblue" points="677.657,-18.6027 667.108,-19.589 675.97,-25.3963 677.657,-18.6027"/>
</g>
</g>
</svg>
