<?xml version="1.0" encoding="UTF-8" standalone="no"?>
<!DOCTYPE svg PUBLIC "-//W3C//DTD SVG 1.1//EN"
 "http://www.w3.org/Graphics/SVG/1.1/DTD/svg11.dtd">
<!-- Generated by graphviz version 2.38.0 (20140413.2041)
 -->
<!-- Title: SI4735_INIT Pages: 1 -->
<svg width="751pt" height="484pt"
 viewBox="0.00 0.00 751.00 484.00" xmlns="http://www.w3.org/2000/svg" xmlns:xlink="http://www.w3.org/1999/xlink">
<g id="graph0" class="graph" transform="scale(1 1) rotate(0) translate(4 480)">
<title>SI4735_INIT</title>
<polygon fill="white" stroke="none" points="-4,4 -4,-480 747,-480 747,4 -4,4"/>
<!-- Node1 -->
<g id="node1" class="node"><title>Node1</title>
<polygon fill="#bfbfbf" stroke="black" points="0,-228.5 0,-247.5 68,-247.5 68,-228.5 0,-228.5"/>
<text text-anchor="middle" x="34" y="-235.5" font-family="Helvetica,sans-Serif" font-size="10.00">SI4735_INIT</text>
</g>
<!-- Node2 -->
<g id="node2" class="node"><title>Node2</title>
<g id="a_node2"><a xlink:href="external__interrupthandler_8h.html#a1685394f9610006097ec45181e59563b" target="_top" xlink:title="ext_interrupt_create">
<polygon fill="white" stroke="black" points="116.5,-456.5 116.5,-475.5 219.5,-475.5 219.5,-456.5 116.5,-456.5"/>
<text text-anchor="middle" x="168" y="-463.5" font-family="Helvetica,sans-Serif" font-size="10.00">ext_interrupt_create</text>
</a>
</g>
</g>
<!-- Node1&#45;&gt;Node2 -->
<g id="edge1" class="edge"><title>Node1&#45;&gt;Node2</title>
<path fill="none" stroke="midnightblue" d="M35.2149,-247.954C36.4843,-281.22 45.1593,-389.668 104,-447 105.629,-448.587 107.385,-450.042 109.239,-451.376"/>
<polygon fill="midnightblue" stroke="midnightblue" points="107.513,-454.421 117.905,-456.484 111.068,-448.391 107.513,-454.421"/>
</g>
<!-- Node3 -->
<g id="node3" class="node"><title>Node3</title>
<g id="a_node3"><a xlink:href="si4735_8c.html#a08ce8e479825a0951c15968d2b14a222" target="_top" xlink:title="si4735_interrupt">
<polygon fill="white" stroke="black" points="125,-418.5 125,-437.5 211,-437.5 211,-418.5 125,-418.5"/>
<text text-anchor="middle" x="168" y="-425.5" font-family="Helvetica,sans-Serif" font-size="10.00">si4735_interrupt</text>
</a>
</g>
</g>
<!-- Node1&#45;&gt;Node3 -->
<g id="edge2" class="edge"><title>Node1&#45;&gt;Node3</title>
<path fill="none" stroke="midnightblue" d="M36.3271,-247.732C40.6664,-275.893 56.9667,-358.355 104,-404 108.042,-407.923 112.791,-411.219 117.838,-413.985"/>
<polygon fill="midnightblue" stroke="midnightblue" points="116.622,-417.282 127.156,-418.413 119.626,-410.96 116.622,-417.282"/>
</g>
<!-- Node4 -->
<g id="node4" class="node"><title>Node4</title>
<g id="a_node4"><a xlink:href="timer_8c.html#a3c56af3315c2461dec5ced585a5f84db" target="_top" xlink:title="_delay_ten_us">
<polygon fill="white" stroke="black" points="663,-342.5 663,-361.5 743,-361.5 743,-342.5 663,-342.5"/>
<text text-anchor="middle" x="703" y="-349.5" font-family="Helvetica,sans-Serif" font-size="10.00">_delay_ten_us</text>
</a>
</g>
</g>
<!-- Node1&#45;&gt;Node4 -->
<g id="edge3" class="edge"><title>Node1&#45;&gt;Node4</title>
<path fill="none" stroke="midnightblue" d="M37.9386,-247.7C45.1801,-269.824 66.104,-324.093 104,-350 185.681,-405.839 224.056,-390 323,-390 323,-390 323,-390 469,-390 539.728,-390 557.464,-383.933 627,-371 637.201,-369.103 648.075,-366.62 658.287,-364.079"/>
<polygon fill="midnightblue" stroke="midnightblue" points="659.407,-367.405 668.229,-361.537 657.673,-360.623 659.407,-367.405"/>
</g>
<!-- Node5 -->
<g id="node5" class="node"><title>Node5</title>
<g id="a_node5"><a xlink:href="timer_8c.html#a276d5cb665b9f8b2c79e53e2f2c5b4f0" target="_top" xlink:title="_delay_ms">
<polygon fill="white" stroke="black" points="559.5,-342.5 559.5,-361.5 623.5,-361.5 623.5,-342.5 559.5,-342.5"/>
<text text-anchor="middle" x="591.5" y="-349.5" font-family="Helvetica,sans-Serif" font-size="10.00">_delay_ms</text>
</a>
</g>
</g>
<!-- Node1&#45;&gt;Node5 -->
<g id="edge4" class="edge"><title>Node1&#45;&gt;Node5</title>
<path fill="none" stroke="midnightblue" d="M40.3023,-247.748C50.2396,-264.935 73.4502,-300.292 104,-316 252.736,-392.475 461.488,-372.389 549.164,-359.207"/>
<polygon fill="midnightblue" stroke="midnightblue" points="549.9,-362.635 559.244,-357.641 548.825,-355.718 549.9,-362.635"/>
</g>
<!-- Node6 -->
<g id="node6" class="node"><title>Node6</title>
<g id="a_node6"><a xlink:href="external__interrupthandler_8h.html#a345dfb9a7e177c5da6eb9dc5b3c82bc9" target="_top" xlink:title="ext_interrupt_enable">
<polygon fill="white" stroke="black" points="116,-38.5 116,-57.5 220,-57.5 220,-38.5 116,-38.5"/>
<text text-anchor="middle" x="168" y="-45.5" font-family="Helvetica,sans-Serif" font-size="10.00">ext_interrupt_enable</text>
</a>
</g>
</g>
<!-- Node1&#45;&gt;Node6 -->
<g id="edge6" class="edge"><title>Node1&#45;&gt;Node6</title>
<path fill="none" stroke="midnightblue" d="M36.3271,-228.268C40.6664,-200.107 56.9667,-117.645 104,-72 108.042,-68.0772 112.791,-64.7811 117.838,-62.0148"/>
<polygon fill="midnightblue" stroke="midnightblue" points="119.626,-65.04 127.156,-57.5865 116.622,-58.7176 119.626,-65.04"/>
</g>
<!-- Node7 -->
<g id="node7" class="node"><title>Node7</title>
<g id="a_node7"><a xlink:href="i2c_8h.html#a6691e5911f539e1e8178c6e983e8079a" target="_top" xlink:title="Transmits I2C commands with a variable length to a I2C slave. ">
<polygon fill="white" stroke="black" points="432,-266.5 432,-285.5 504,-285.5 504,-266.5 432,-266.5"/>
<text text-anchor="middle" x="468" y="-273.5" font-family="Helvetica,sans-Serif" font-size="10.00">i2c_write_var</text>
</a>
</g>
</g>
<!-- Node1&#45;&gt;Node7 -->
<g id="edge7" class="edge"><title>Node1&#45;&gt;Node7</title>
<path fill="none" stroke="midnightblue" d="M68.1883,-245.672C79.4959,-248.035 92.2483,-250.427 104,-252 217.727,-267.227 352.853,-272.929 421.731,-274.956"/>
<polygon fill="midnightblue" stroke="midnightblue" points="421.708,-278.457 431.802,-275.24 421.905,-271.46 421.708,-278.457"/>
</g>
<!-- Node9 -->
<g id="node9" class="node"><title>Node9</title>
<g id="a_node9"><a xlink:href="si4735_8c.html#aad8341b5b19aa8f962a6b9b940d77960" target="_top" xlink:title="si4735_get_interrupt">
<polygon fill="white" stroke="black" points="416,-209.5 416,-228.5 520,-228.5 520,-209.5 416,-209.5"/>
<text text-anchor="middle" x="468" y="-216.5" font-family="Helvetica,sans-Serif" font-size="10.00">si4735_get_interrupt</text>
</a>
</g>
</g>
<!-- Node1&#45;&gt;Node9 -->
<g id="edge10" class="edge"><title>Node1&#45;&gt;Node9</title>
<path fill="none" stroke="midnightblue" d="M36.5586,-228.321C41.2713,-202.664 57.9856,-132.966 104,-105 222.95,-32.7056 392.033,-156.673 448.117,-202.782"/>
<polygon fill="midnightblue" stroke="midnightblue" points="446.205,-205.745 456.123,-209.471 450.694,-200.373 446.205,-205.745"/>
</g>
<!-- Node10 -->
<g id="node10" class="node"><title>Node10</title>
<g id="a_node10"><a xlink:href="si4735_8c.html#aadc29a91f13cd5ebe239b23c7e5370dc" target="_top" xlink:title="si4735_set_property">
<polygon fill="white" stroke="black" points="272,-190.5 272,-209.5 376,-209.5 376,-190.5 272,-190.5"/>
<text text-anchor="middle" x="324" y="-197.5" font-family="Helvetica,sans-Serif" font-size="10.00">si4735_set_property</text>
</a>
</g>
</g>
<!-- Node1&#45;&gt;Node10 -->
<g id="edge11" class="edge"><title>Node1&#45;&gt;Node10</title>
<path fill="none" stroke="midnightblue" d="M42.6745,-228.414C54.261,-214.8 77.6818,-190.465 104,-181 164.97,-159.074 241.39,-174.586 285.953,-187.523"/>
<polygon fill="midnightblue" stroke="midnightblue" points="285.18,-190.946 295.764,-190.481 287.2,-184.244 285.18,-190.946"/>
</g>
<!-- Node11 -->
<g id="node11" class="node"><title>Node11</title>
<g id="a_node11"><a xlink:href="si4735_8c.html#a9ef54c7d16dee6f0878f06847caa43d1" target="_top" xlink:title="si4735_configure_rds">
<polygon fill="white" stroke="black" points="114,-114.5 114,-133.5 222,-133.5 222,-114.5 114,-114.5"/>
<text text-anchor="middle" x="168" y="-121.5" font-family="Helvetica,sans-Serif" font-size="10.00">si4735_configure_rds</text>
</a>
</g>
</g>
<!-- Node1&#45;&gt;Node11 -->
<g id="edge14" class="edge"><title>Node1&#45;&gt;Node11</title>
<path fill="none" stroke="midnightblue" d="M39.9435,-228.456C49.7847,-210.328 73.529,-170.703 104,-148 109.486,-143.912 115.751,-140.44 122.154,-137.515"/>
<polygon fill="midnightblue" stroke="midnightblue" points="123.663,-140.679 131.558,-133.614 120.981,-134.213 123.663,-140.679"/>
</g>
<!-- Node12 -->
<g id="node12" class="node"><title>Node12</title>
<g id="a_node12"><a xlink:href="si4735_8c.html#af82ec28b536b1258ea4178108c61d5e9" target="_top" xlink:title="si4735_fm_tune_freq">
<polygon fill="white" stroke="black" points="271,-228.5 271,-247.5 377,-247.5 377,-228.5 271,-228.5"/>
<text text-anchor="middle" x="324" y="-235.5" font-family="Helvetica,sans-Serif" font-size="10.00">si4735_fm_tune_freq</text>
</a>
</g>
</g>
<!-- Node1&#45;&gt;Node12 -->
<g id="edge16" class="edge"><title>Node1&#45;&gt;Node12</title>
<path fill="none" stroke="midnightblue" d="M68.0373,-238C114.87,-238 201.433,-238 260.585,-238"/>
<polygon fill="midnightblue" stroke="midnightblue" points="260.929,-241.5 270.929,-238 260.929,-234.5 260.929,-241.5"/>
</g>
<!-- Node14 -->
<g id="node14" class="node"><title>Node14</title>
<g id="a_node14"><a xlink:href="si4735_8c.html#af6037be0045d62ab73bf8e6c3802bd8e" target="_top" xlink:title="si4735_configure_seeking">
<polygon fill="white" stroke="black" points="104,-190.5 104,-209.5 232,-209.5 232,-190.5 104,-190.5"/>
<text text-anchor="middle" x="168" y="-197.5" font-family="Helvetica,sans-Serif" font-size="10.00">si4735_configure_seeking</text>
</a>
</g>
</g>
<!-- Node1&#45;&gt;Node14 -->
<g id="edge20" class="edge"><title>Node1&#45;&gt;Node14</title>
<path fill="none" stroke="midnightblue" d="M68.3092,-228.411C85.1928,-223.551 105.895,-217.591 123.971,-212.387"/>
<polygon fill="midnightblue" stroke="midnightblue" points="125.06,-215.716 133.701,-209.586 123.123,-208.989 125.06,-215.716"/>
</g>
<!-- Node15 -->
<g id="node15" class="node"><title>Node15</title>
<g id="a_node15"><a xlink:href="si4735_8c.html#a339846da787fb5a496df9252ca7dc9a5" target="_top" xlink:title="si4735_fm_seek_start">
<polygon fill="white" stroke="black" points="268,-304.5 268,-323.5 380,-323.5 380,-304.5 268,-304.5"/>
<text text-anchor="middle" x="324" y="-311.5" font-family="Helvetica,sans-Serif" font-size="10.00">si4735_fm_seek_start</text>
</a>
</g>
</g>
<!-- Node1&#45;&gt;Node15 -->
<g id="edge22" class="edge"><title>Node1&#45;&gt;Node15</title>
<path fill="none" stroke="midnightblue" d="M44.235,-247.627C56.5806,-259.814 79.7375,-280.38 104,-290 153.149,-309.488 213.074,-314.927 257.806,-315.808"/>
<polygon fill="midnightblue" stroke="midnightblue" points="257.928,-319.31 267.971,-315.936 258.015,-312.31 257.928,-319.31"/>
</g>
<!-- Node16 -->
<g id="node16" class="node"><title>Node16</title>
<g id="a_node16"><a xlink:href="external__interrupthandler_8h.html#a67fb5781413cf5c193be332cc6e52209" target="_top" xlink:title="ext_interrupt_disable">
<polygon fill="white" stroke="black" points="114.5,-0.5 114.5,-19.5 221.5,-19.5 221.5,-0.5 114.5,-0.5"/>
<text text-anchor="middle" x="168" y="-7.5" font-family="Helvetica,sans-Serif" font-size="10.00">ext_interrupt_disable</text>
</a>
</g>
</g>
<!-- Node1&#45;&gt;Node16 -->
<g id="edge26" class="edge"><title>Node1&#45;&gt;Node16</title>
<path fill="none" stroke="midnightblue" d="M35.2149,-228.046C36.4843,-194.78 45.1593,-86.3324 104,-29 105.629,-27.413 107.385,-25.9579 109.239,-24.6238"/>
<polygon fill="midnightblue" stroke="midnightblue" points="111.068,-27.6091 117.905,-19.5157 107.513,-21.5788 111.068,-27.6091"/>
</g>
<!-- Node5&#45;&gt;Node4 -->
<g id="edge5" class="edge"><title>Node5&#45;&gt;Node4</title>
<path fill="none" stroke="midnightblue" d="M623.585,-352C632.595,-352 642.664,-352 652.505,-352"/>
<polygon fill="midnightblue" stroke="midnightblue" points="652.623,-355.5 662.623,-352 652.623,-348.5 652.623,-355.5"/>
</g>
<!-- Node8 -->
<g id="node8" class="node"><title>Node8</title>
<g id="a_node8"><a xlink:href="i2c_8c.html#ae0625b97d3437bcaca4ac4b96dd01978" target="_top" xlink:title="Transmits I2C command array to a I2C slave. ">
<polygon fill="white" stroke="black" points="556,-285.5 556,-304.5 627,-304.5 627,-285.5 556,-285.5"/>
<text text-anchor="middle" x="591.5" y="-292.5" font-family="Helvetica,sans-Serif" font-size="10.00">i2c_write_arr</text>
</a>
</g>
</g>
<!-- Node7&#45;&gt;Node8 -->
<g id="edge8" class="edge"><title>Node7&#45;&gt;Node8</title>
<path fill="none" stroke="midnightblue" d="M504.143,-281.496C517.1,-283.522 531.959,-285.845 545.657,-287.988"/>
<polygon fill="midnightblue" stroke="midnightblue" points="545.435,-291.495 555.856,-289.582 546.517,-284.579 545.435,-291.495"/>
</g>
<!-- Node8&#45;&gt;Node4 -->
<g id="edge9" class="edge"><title>Node8&#45;&gt;Node4</title>
<path fill="none" stroke="midnightblue" d="M611.075,-304.669C628.563,-313.773 654.964,-327.516 674.82,-337.851"/>
<polygon fill="midnightblue" stroke="midnightblue" points="673.213,-340.961 683.699,-342.474 676.445,-334.752 673.213,-340.961"/>
</g>
<!-- Node10&#45;&gt;Node7 -->
<g id="edge12" class="edge"><title>Node10&#45;&gt;Node7</title>
<path fill="none" stroke="midnightblue" d="M356.956,-209.544C364.653,-212.248 372.745,-215.439 380,-219 404.018,-230.79 429.379,-248.027 446.481,-260.456"/>
<polygon fill="midnightblue" stroke="midnightblue" points="444.497,-263.342 454.621,-266.463 448.653,-257.709 444.497,-263.342"/>
</g>
<!-- Node10&#45;&gt;Node9 -->
<g id="edge13" class="edge"><title>Node10&#45;&gt;Node9</title>
<path fill="none" stroke="midnightblue" d="M376.265,-206.859C385.817,-208.137 395.886,-209.485 405.703,-210.798"/>
<polygon fill="midnightblue" stroke="midnightblue" points="405.434,-214.293 415.81,-212.151 406.363,-207.355 405.434,-214.293"/>
</g>
<!-- Node11&#45;&gt;Node10 -->
<g id="edge15" class="edge"><title>Node11&#45;&gt;Node10</title>
<path fill="none" stroke="midnightblue" d="M196.988,-133.602C208.054,-137.672 220.783,-142.698 232,-148 255.535,-159.125 281.185,-174.055 299.236,-185.064"/>
<polygon fill="midnightblue" stroke="midnightblue" points="297.581,-188.155 307.931,-190.422 301.254,-182.196 297.581,-188.155"/>
</g>
<!-- Node12&#45;&gt;Node7 -->
<g id="edge17" class="edge"><title>Node12&#45;&gt;Node7</title>
<path fill="none" stroke="midnightblue" d="M360.833,-247.589C379.388,-252.555 402.231,-258.667 421.968,-263.949"/>
<polygon fill="midnightblue" stroke="midnightblue" points="421.106,-267.342 431.671,-266.546 422.915,-260.58 421.106,-267.342"/>
</g>
<!-- Node12&#45;&gt;Node9 -->
<g id="edge18" class="edge"><title>Node12&#45;&gt;Node9</title>
<path fill="none" stroke="midnightblue" d="M377.069,-231.033C386.469,-229.775 396.346,-228.454 405.973,-227.166"/>
<polygon fill="midnightblue" stroke="midnightblue" points="406.438,-230.635 415.885,-225.839 405.509,-223.697 406.438,-230.635"/>
</g>
<!-- Node13 -->
<g id="node13" class="node"><title>Node13</title>
<g id="a_node13"><a xlink:href="i2c_8h.html#a6dd896b0c82d1aa91a1a8155b41c4566" target="_top" xlink:title="Receives I2C commands until a NACK is received or received RxBytes. ">
<polygon fill="white" stroke="black" points="441.5,-304.5 441.5,-323.5 494.5,-323.5 494.5,-304.5 441.5,-304.5"/>
<text text-anchor="middle" x="468" y="-311.5" font-family="Helvetica,sans-Serif" font-size="10.00">i2c_read</text>
</a>
</g>
</g>
<!-- Node12&#45;&gt;Node13 -->
<g id="edge19" class="edge"><title>Node12&#45;&gt;Node13</title>
<path fill="none" stroke="midnightblue" d="M338.373,-247.592C355.686,-259.721 387.075,-280.737 416,-295 421.032,-297.481 426.473,-299.833 431.863,-301.983"/>
<polygon fill="midnightblue" stroke="midnightblue" points="430.819,-305.331 441.41,-305.618 433.31,-298.789 430.819,-305.331"/>
</g>
<!-- Node14&#45;&gt;Node10 -->
<g id="edge21" class="edge"><title>Node14&#45;&gt;Node10</title>
<path fill="none" stroke="midnightblue" d="M232.082,-200C241.72,-200 251.659,-200 261.268,-200"/>
<polygon fill="midnightblue" stroke="midnightblue" points="261.535,-203.5 271.535,-200 261.535,-196.5 261.535,-203.5"/>
</g>
<!-- Node15&#45;&gt;Node7 -->
<g id="edge23" class="edge"><title>Node15&#45;&gt;Node7</title>
<path fill="none" stroke="midnightblue" d="M360.833,-304.411C379.388,-299.445 402.231,-293.333 421.968,-288.051"/>
<polygon fill="midnightblue" stroke="midnightblue" points="422.915,-291.42 431.671,-285.454 421.106,-284.658 422.915,-291.42"/>
</g>
<!-- Node15&#45;&gt;Node9 -->
<g id="edge24" class="edge"><title>Node15&#45;&gt;Node9</title>
<path fill="none" stroke="midnightblue" d="M339.397,-304.368C364.062,-287.867 414.588,-254.064 444.124,-234.304"/>
<polygon fill="midnightblue" stroke="midnightblue" points="446.199,-237.127 452.565,-228.657 442.307,-231.309 446.199,-237.127"/>
</g>
<!-- Node15&#45;&gt;Node13 -->
<g id="edge25" class="edge"><title>Node15&#45;&gt;Node13</title>
<path fill="none" stroke="midnightblue" d="M380.308,-314C397.391,-314 415.75,-314 431.156,-314"/>
<polygon fill="midnightblue" stroke="midnightblue" points="431.298,-317.5 441.298,-314 431.298,-310.5 431.298,-317.5"/>
</g>
</g>
</svg>
