<?xml version="1.0" encoding="UTF-8" standalone="no"?>
<!DOCTYPE svg PUBLIC "-//W3C//DTD SVG 1.1//EN"
 "http://www.w3.org/Graphics/SVG/1.1/DTD/svg11.dtd">
<!-- Generated by graphviz version 2.38.0 (20140413.2041)
 -->
<!-- Title: si4735_fm_tune_freq Pages: 1 -->
<svg width="320pt" height="104pt"
 viewBox="0.00 0.00 320.00 104.00" xmlns="http://www.w3.org/2000/svg" xmlns:xlink="http://www.w3.org/1999/xlink">
<g id="graph0" class="graph" transform="scale(1 1) rotate(0) translate(4 100)">
<title>si4735_fm_tune_freq</title>
<polygon fill="white" stroke="none" points="-4,4 -4,-100 316,-100 316,4 -4,4"/>
<!-- Node1 -->
<g id="node1" class="node"><title>Node1</title>
<polygon fill="#bfbfbf" stroke="black" points="0,-38.5 0,-57.5 106,-57.5 106,-38.5 0,-38.5"/>
<text text-anchor="middle" x="53" y="-45.5" font-family="Helvetica,sans-Serif" font-size="10.00">si4735_fm_tune_freq</text>
</g>
<!-- Node2 -->
<g id="node2" class="node"><title>Node2</title>
<g id="a_node2"><a xlink:href="si4735_8c.html#a876518b974a7128391e2ff86a597218f" target="_top" xlink:title="SI4735_INIT">
<polygon fill="white" stroke="black" points="156,-76.5 156,-95.5 224,-95.5 224,-76.5 156,-76.5"/>
<text text-anchor="middle" x="190" y="-83.5" font-family="Helvetica,sans-Serif" font-size="10.00">SI4735_INIT</text>
</a>
</g>
</g>
<!-- Node1&#45;&gt;Node2 -->
<g id="edge1" class="edge"><title>Node1&#45;&gt;Node2</title>
<path fill="none" stroke="midnightblue" d="M97.9152,-60.3613C116.762,-65.6663 138.414,-71.761 155.878,-76.6768"/>
<polygon fill="midnightblue" stroke="midnightblue" points="98.6405,-56.9295 88.0662,-57.589 96.7438,-63.6677 98.6405,-56.9295"/>
</g>
<!-- Node4 -->
<g id="node4" class="node"><title>Node4</title>
<g id="a_node4"><a xlink:href="radio_8c.html#a6d652e9d0f1c54bfe9ec73fe2605b706" target="_top" xlink:title="radio_tune_freq">
<polygon fill="white" stroke="black" points="148.5,-38.5 148.5,-57.5 231.5,-57.5 231.5,-38.5 148.5,-38.5"/>
<text text-anchor="middle" x="190" y="-45.5" font-family="Helvetica,sans-Serif" font-size="10.00">radio_tune_freq</text>
</a>
</g>
</g>
<!-- Node1&#45;&gt;Node4 -->
<g id="edge3" class="edge"><title>Node1&#45;&gt;Node4</title>
<path fill="none" stroke="midnightblue" d="M116.455,-48C127.25,-48 138.218,-48 148.247,-48"/>
<polygon fill="midnightblue" stroke="midnightblue" points="116.195,-44.5001 106.195,-48 116.194,-51.5001 116.195,-44.5001"/>
</g>
<!-- Node5 -->
<g id="node5" class="node"><title>Node5</title>
<g id="a_node5"><a xlink:href="radio_8c.html#ac96da2886aec92b299b27b500761564c" target="_top" xlink:title="radio_auto_search">
<polygon fill="white" stroke="black" points="142,-0.5 142,-19.5 238,-19.5 238,-0.5 142,-0.5"/>
<text text-anchor="middle" x="190" y="-7.5" font-family="Helvetica,sans-Serif" font-size="10.00">radio_auto_search</text>
</a>
</g>
</g>
<!-- Node1&#45;&gt;Node5 -->
<g id="edge4" class="edge"><title>Node1&#45;&gt;Node5</title>
<path fill="none" stroke="midnightblue" d="M97.7625,-35.6817C116.311,-30.4607 137.599,-24.4684 154.945,-19.5859"/>
<polygon fill="midnightblue" stroke="midnightblue" points="96.7438,-32.3323 88.0662,-38.411 98.6405,-39.0705 96.7438,-32.3323"/>
</g>
<!-- Node3 -->
<g id="node3" class="node"><title>Node3</title>
<g id="a_node3"><a xlink:href="main_8c.html#a840291bc02cba5474a4cb46a9b9566fe" target="_top" xlink:title="main">
<polygon fill="white" stroke="black" points="274,-76.5 274,-95.5 312,-95.5 312,-76.5 274,-76.5"/>
<text text-anchor="middle" x="293" y="-83.5" font-family="Helvetica,sans-Serif" font-size="10.00">main</text>
</a>
</g>
</g>
<!-- Node2&#45;&gt;Node3 -->
<g id="edge2" class="edge"><title>Node2&#45;&gt;Node3</title>
<path fill="none" stroke="midnightblue" d="M234.45,-86C248.299,-86 262.87,-86 273.885,-86"/>
<polygon fill="midnightblue" stroke="midnightblue" points="234.071,-82.5001 224.071,-86 234.071,-89.5001 234.071,-82.5001"/>
</g>
</g>
</svg>
