<?xml version="1.0" encoding="UTF-8" standalone="no"?>
<!DOCTYPE svg PUBLIC "-//W3C//DTD SVG 1.1//EN"
 "http://www.w3.org/Graphics/SVG/1.1/DTD/svg11.dtd">
<!-- Generated by graphviz version 2.38.0 (20140413.2041)
 -->
<!-- Title: si4735_configure_seeking Pages: 1 -->
<!--zoomable 66 -->
<svg id="main" version="1.1" xmlns="http://www.w3.org/2000/svg" xmlns:xlink="http://www.w3.org/1999/xlink" xml:space="preserve" onload="init(evt)">
<style type="text/css"><![CDATA[
.edge:hover path { stroke: red; }
.edge:hover polygon { stroke: red; fill: red; }
]]></style>
<script type="text/javascript"><![CDATA[
var edges = document.getElementsByTagName('g');
if (edges && edges.length) {
  for (var i=0;i<edges.length;i++) {
    if (edges[i].id.substr(0,4)=='edge') {
      edges[i].setAttribute('class','edge');
    }
  }
}
]]></script>
        <defs>
                <circle id="rim" cx="0" cy="0" r="7"/>
                <circle id="rim2" cx="0" cy="0" r="3.5"/>
                <g id="zoomPlus">
                        <use xlink:href="#rim" fill="#404040">
                                <set attributeName="fill" to="#808080" begin="zoomplus.mouseover" end="zoomplus.mouseout"/>
                        </use>
                        <path d="M-4,0h8M0,-4v8" fill="none" stroke="white" stroke-width="1.5" pointer-events="none"/>
                </g>
                <g id="zoomMin">
                        <use xlink:href="#rim" fill="#404040">
                                <set attributeName="fill" to="#808080" begin="zoomminus.mouseover" end="zoomminus.mouseout"/>
                        </use>
                        <path d="M-4,0h8" fill="none" stroke="white" stroke-width="1.5" pointer-events="none"/>
                </g>
                <g id="dirArrow">
                        <path fill="none" stroke="white" stroke-width="1.5" d="M0,-3.0v7 M-2.5,-0.5L0,-3.0L2.5,-0.5"/>
                </g>
               <g id="resetDef">
                       <use xlink:href="#rim2" fill="#404040">
                               <set attributeName="fill" to="#808080" begin="reset.mouseover" end="reset.mouseout"/>
                       </use>
               </g>
        </defs>

<script type="text/javascript">
var viewWidth = 639;
var viewHeight = 66;
var sectionId = 'dynsection-3';
</script>
<script xlink:href="svgpan.js"/>
<svg id="graph" class="graph">
<g id="viewport">
<title>si4735_configure_seeking</title>
<polygon fill="white" stroke="none" points="-4,4 -4,-62 635,-62 635,4 -4,4"/>
<!-- Node1 -->
<g id="node1" class="node"><title>Node1</title>
<polygon fill="#bfbfbf" stroke="black" points="0,-19.5 0,-38.5 128,-38.5 128,-19.5 0,-19.5"/>
<text text-anchor="middle" x="64" y="-26.5" font-family="Helvetica,sans-Serif" font-size="10.00">si4735_configure_seeking</text>
</g>
<!-- Node2 -->
<g id="node2" class="node"><title>Node2</title>
<g id="a_node2"><a xlink:href="si4735_8c.html#aadc29a91f13cd5ebe239b23c7e5370dc" target="_top" xlink:title="si4735_set_property">
<polygon fill="white" stroke="black" points="164,-19.5 164,-38.5 268,-38.5 268,-19.5 164,-19.5"/>
<text text-anchor="middle" x="216" y="-26.5" font-family="Helvetica,sans-Serif" font-size="10.00">si4735_set_property</text>
</a>
</g>
</g>
<!-- Node1&#45;&gt;Node2 -->
<g id="edge1" class="edge"><title>Node1&#45;&gt;Node2</title>
<path fill="none" stroke="midnightblue" d="M128.179,-29C136.603,-29 145.232,-29 153.625,-29"/>
<polygon fill="midnightblue" stroke="midnightblue" points="153.716,-32.5001 163.716,-29 153.716,-25.5001 153.716,-32.5001"/>
</g>
<!-- Node3 -->
<g id="node3" class="node"><title>Node3</title>
<g id="a_node3"><a xlink:href="i2c_8h.html#a6691e5911f539e1e8178c6e983e8079a" target="_top" xlink:title="Transmits I2C commands with a variable length to a I2C slave. ">
<polygon fill="white" stroke="black" points="320,-38.5 320,-57.5 392,-57.5 392,-38.5 320,-38.5"/>
<text text-anchor="middle" x="356" y="-45.5" font-family="Helvetica,sans-Serif" font-size="10.00">i2c_write_var</text>
</a>
</g>
</g>
<!-- Node2&#45;&gt;Node3 -->
<g id="edge2" class="edge"><title>Node2&#45;&gt;Node3</title>
<path fill="none" stroke="midnightblue" d="M268.386,-36.0749C281.931,-37.9397 296.446,-39.9382 309.647,-41.7558"/>
<polygon fill="midnightblue" stroke="midnightblue" points="309.525,-45.2719 319.909,-43.1686 310.48,-38.3373 309.525,-45.2719"/>
</g>
<!-- Node6 -->
<g id="node6" class="node"><title>Node6</title>
<g id="a_node6"><a xlink:href="si4735_8c.html#aad8341b5b19aa8f962a6b9b940d77960" target="_top" xlink:title="si4735_get_interrupt">
<polygon fill="white" stroke="black" points="304,-0.5 304,-19.5 408,-19.5 408,-0.5 304,-0.5"/>
<text text-anchor="middle" x="356" y="-7.5" font-family="Helvetica,sans-Serif" font-size="10.00">si4735_get_interrupt</text>
</a>
</g>
</g>
<!-- Node2&#45;&gt;Node6 -->
<g id="edge5" class="edge"><title>Node2&#45;&gt;Node6</title>
<path fill="none" stroke="midnightblue" d="M268.386,-21.9251C276.558,-20.8 285.083,-19.6262 293.46,-18.4729"/>
<polygon fill="midnightblue" stroke="midnightblue" points="294.142,-21.9121 303.571,-17.0808 293.187,-14.9775 294.142,-21.9121"/>
</g>
<!-- Node4 -->
<g id="node4" class="node"><title>Node4</title>
<g id="a_node4"><a xlink:href="i2c_8c.html#ae0625b97d3437bcaca4ac4b96dd01978" target="_top" xlink:title="Transmits I2C command array to a I2C slave. ">
<polygon fill="white" stroke="black" points="444,-38.5 444,-57.5 515,-57.5 515,-38.5 444,-38.5"/>
<text text-anchor="middle" x="479.5" y="-45.5" font-family="Helvetica,sans-Serif" font-size="10.00">i2c_write_arr</text>
</a>
</g>
</g>
<!-- Node3&#45;&gt;Node4 -->
<g id="edge3" class="edge"><title>Node3&#45;&gt;Node4</title>
<path fill="none" stroke="midnightblue" d="M392.143,-48C405.1,-48 419.959,-48 433.657,-48"/>
<polygon fill="midnightblue" stroke="midnightblue" points="433.856,-51.5001 443.856,-48 433.856,-44.5001 433.856,-51.5001"/>
</g>
<!-- Node5 -->
<g id="node5" class="node"><title>Node5</title>
<g id="a_node5"><a xlink:href="timer_8c.html#a3c56af3315c2461dec5ced585a5f84db" target="_top" xlink:title="_delay_ten_us">
<polygon fill="white" stroke="black" points="551,-38.5 551,-57.5 631,-57.5 631,-38.5 551,-38.5"/>
<text text-anchor="middle" x="591" y="-45.5" font-family="Helvetica,sans-Serif" font-size="10.00">_delay_ten_us</text>
</a>
</g>
</g>
<!-- Node4&#45;&gt;Node5 -->
<g id="edge4" class="edge"><title>Node4&#45;&gt;Node5</title>
<path fill="none" stroke="midnightblue" d="M515.146,-48C523.165,-48 531.851,-48 540.37,-48"/>
<polygon fill="midnightblue" stroke="midnightblue" points="540.623,-51.5001 550.623,-48 540.623,-44.5001 540.623,-51.5001"/>
</g>
</g>
</svg>
        <g id="navigator" transform="translate(0 0)" fill="#404254">
                <rect fill="#f2f5e9" fill-opacity="0.5" stroke="#606060" stroke-width=".5" x="0" y="0" width="60" height="60"/>
                <use id="zoomplus" xlink:href="#zoomPlus" x="17" y="9" onmousedown="handleZoom(evt,'in')"/>
                <use id="zoomminus" xlink:href="#zoomMin" x="42" y="9" onmousedown="handleZoom(evt,'out')"/>
                <use id="reset" xlink:href="#resetDef" x="30" y="36" onmousedown="handleReset()"/>
                <g id="arrowUp" xlink:href="#dirArrow" transform="translate(30 24)" onmousedown="handlePan(0,-1)">
                  <use xlink:href="#rim" fill="#404040">
                        <set attributeName="fill" to="#808080" begin="arrowUp.mouseover" end="arrowUp.mouseout"/>
                  </use>
                  <path fill="none" stroke="white" stroke-width="1.5" d="M0,-3.0v7 M-2.5,-0.5L0,-3.0L2.5,-0.5"/>
                </g>
                <g id="arrowRight" xlink:href="#dirArrow" transform="rotate(90) translate(36 -43)" onmousedown="handlePan(1,0)">
                  <use xlink:href="#rim" fill="#404040">
                        <set attributeName="fill" to="#808080" begin="arrowRight.mouseover" end="arrowRight.mouseout"/>
                  </use>
                  <path fill="none" stroke="white" stroke-width="1.5" d="M0,-3.0v7 M-2.5,-0.5L0,-3.0L2.5,-0.5"/>
                </g>
                <g id="arrowDown" xlink:href="#dirArrow" transform="rotate(180) translate(-30 -48)" onmousedown="handlePan(0,1)">
                  <use xlink:href="#rim" fill="#404040">
                        <set attributeName="fill" to="#808080" begin="arrowDown.mouseover" end="arrowDown.mouseout"/>
                  </use>
                  <path fill="none" stroke="white" stroke-width="1.5" d="M0,-3.0v7 M-2.5,-0.5L0,-3.0L2.5,-0.5"/>
                </g>
                <g id="arrowLeft" xlink:href="#dirArrow" transform="rotate(270) translate(-36 17)" onmousedown="handlePan(-1,0)">
                  <use xlink:href="#rim" fill="#404040">
                        <set attributeName="fill" to="#808080" begin="arrowLeft.mouseover" end="arrowLeft.mouseout"/>
                  </use>
                  <path fill="none" stroke="white" stroke-width="1.5" d="M0,-3.0v7 M-2.5,-0.5L0,-3.0L2.5,-0.5"/>
                </g>
        </g>
        <svg viewBox="0 0 15 15" width="100%" height="30px" preserveAspectRatio="xMaxYMin meet">
         <g id="arrow_out" transform="scale(0.3 0.3)">
          <a xlink:href="si4735_8c_af6037be0045d62ab73bf8e6c3802bd8e_cgraph_org.svg" target="_base">
           <rect id="button" ry="5" rx="5" y="6" x="6" height="38" width="38"
                fill="#f2f5e9" fill-opacity="0.5" stroke="#606060" stroke-width="1.0"/>
           <path id="arrow"
             d="M 11.500037,31.436501 C 11.940474,20.09759 22.043105,11.32322 32.158766,21.979434 L 37.068811,17.246167 C 37.068811,17.246167 37.088388,32 37.088388,32 L 22.160133,31.978069 C 22.160133,31.978069 26.997745,27.140456 26.997745,27.140456 C 18.528582,18.264221 13.291696,25.230495 11.500037,31.436501 z"
             style="fill:#404040;"/>
          </a>
         </g>
        </svg>
</svg>
