<?xml version="1.0" encoding="UTF-8" standalone="no"?>
<!DOCTYPE svg PUBLIC "-//W3C//DTD SVG 1.1//EN"
 "http://www.w3.org/Graphics/SVG/1.1/DTD/svg11.dtd">
<!-- Generated by graphviz version 2.38.0 (20140413.2041)
 -->
<!-- Title: si4735_fm_seek_start Pages: 1 -->
<svg width="513pt" height="85pt"
 viewBox="0.00 0.00 513.00 85.00" xmlns="http://www.w3.org/2000/svg" xmlns:xlink="http://www.w3.org/1999/xlink">
<g id="graph0" class="graph" transform="scale(1 1) rotate(0) translate(4 81)">
<title>si4735_fm_seek_start</title>
<polygon fill="white" stroke="none" points="-4,4 -4,-81 509,-81 509,4 -4,4"/>
<!-- Node1 -->
<g id="node1" class="node"><title>Node1</title>
<polygon fill="#bfbfbf" stroke="black" points="0,-19.5 0,-38.5 112,-38.5 112,-19.5 0,-19.5"/>
<text text-anchor="middle" x="56" y="-26.5" font-family="Helvetica,sans-Serif" font-size="10.00">si4735_fm_seek_start</text>
</g>
<!-- Node2 -->
<g id="node2" class="node"><title>Node2</title>
<g id="a_node2"><a xlink:href="radio_8c.html#aee6321b512830d482a2fc164cf11f9e9" target="_top" xlink:title="Seeking all radio channels. ">
<polygon fill="white" stroke="black" points="148,-19.5 148,-38.5 225,-38.5 225,-19.5 148,-19.5"/>
<text text-anchor="middle" x="186.5" y="-26.5" font-family="Helvetica,sans-Serif" font-size="10.00">radio_seeking</text>
</a>
</g>
</g>
<!-- Node1&#45;&gt;Node2 -->
<g id="edge1" class="edge"><title>Node1&#45;&gt;Node2</title>
<path fill="none" stroke="midnightblue" d="M122.406,-29C131.086,-29 139.738,-29 147.727,-29"/>
<polygon fill="midnightblue" stroke="midnightblue" points="122.241,-25.5001 112.241,-29 122.241,-32.5001 122.241,-25.5001"/>
</g>
<!-- Node3 -->
<g id="node3" class="node"><title>Node3</title>
<g id="a_node3"><a xlink:href="radio_8c.html#a3a1de7e31aabba6e408a633c130e618a" target="_top" xlink:title="Initiales the radio. ">
<polygon fill="white" stroke="black" points="281,-57.5 281,-76.5 337,-76.5 337,-57.5 281,-57.5"/>
<text text-anchor="middle" x="309" y="-64.5" font-family="Helvetica,sans-Serif" font-size="10.00">radio_init</text>
</a>
</g>
</g>
<!-- Node2&#45;&gt;Node3 -->
<g id="edge2" class="edge"><title>Node2&#45;&gt;Node3</title>
<path fill="none" stroke="midnightblue" d="M227.84,-41.7215C245.292,-47.2248 265.254,-53.5199 280.892,-58.4513"/>
<polygon fill="midnightblue" stroke="midnightblue" points="228.497,-38.2586 217.907,-38.589 226.392,-44.9346 228.497,-38.2586"/>
</g>
<!-- Node5 -->
<g id="node5" class="node"><title>Node5</title>
<g id="a_node5"><a xlink:href="radio_8c.html#ac96da2886aec92b299b27b500761564c" target="_top" xlink:title="Auto Search for radio stations. ">
<polygon fill="white" stroke="black" points="261,-19.5 261,-38.5 357,-38.5 357,-19.5 261,-19.5"/>
<text text-anchor="middle" x="309" y="-26.5" font-family="Helvetica,sans-Serif" font-size="10.00">radio_auto_search</text>
</a>
</g>
</g>
<!-- Node2&#45;&gt;Node5 -->
<g id="edge4" class="edge"><title>Node2&#45;&gt;Node5</title>
<path fill="none" stroke="midnightblue" d="M235.524,-29C243.772,-29 252.339,-29 260.571,-29"/>
<polygon fill="midnightblue" stroke="midnightblue" points="235.296,-25.5001 225.296,-29 235.296,-32.5001 235.296,-25.5001"/>
</g>
<!-- Node6 -->
<g id="node6" class="node"><title>Node6</title>
<g id="a_node6"><a xlink:href="radio__settings_8c.html#a90d48a01d9b0ad794fb9416a2ce8f85e" target="_top" xlink:title="Seeks the next station/all available. ">
<polygon fill="white" stroke="black" points="393,-0.5 393,-19.5 505,-19.5 505,-0.5 393,-0.5"/>
<text text-anchor="middle" x="449" y="-7.5" font-family="Helvetica,sans-Serif" font-size="10.00">radio_settings_station</text>
</a>
</g>
</g>
<!-- Node2&#45;&gt;Node6 -->
<g id="edge6" class="edge"><title>Node2&#45;&gt;Node6</title>
<path fill="none" stroke="midnightblue" d="M226.909,-16.8588C237.841,-14.028 249.789,-11.4257 261,-10 305.122,-4.38936 355.575,-4.78385 392.947,-6.36296"/>
<polygon fill="midnightblue" stroke="midnightblue" points="225.937,-13.4959 217.205,-19.4956 227.773,-20.251 225.937,-13.4959"/>
</g>
<!-- Node4 -->
<g id="node4" class="node"><title>Node4</title>
<g id="a_node4"><a xlink:href="main_8c.html#a840291bc02cba5474a4cb46a9b9566fe" target="_top" xlink:title="Main function. ">
<polygon fill="white" stroke="black" points="430,-57.5 430,-76.5 468,-76.5 468,-57.5 430,-57.5"/>
<text text-anchor="middle" x="449" y="-64.5" font-family="Helvetica,sans-Serif" font-size="10.00">main</text>
</a>
</g>
</g>
<!-- Node3&#45;&gt;Node4 -->
<g id="edge3" class="edge"><title>Node3&#45;&gt;Node4</title>
<path fill="none" stroke="midnightblue" d="M347.4,-67C374.045,-67 408.708,-67 429.608,-67"/>
<polygon fill="midnightblue" stroke="midnightblue" points="347.264,-63.5001 337.264,-67 347.264,-70.5001 347.264,-63.5001"/>
</g>
<!-- Node5&#45;&gt;Node6 -->
<g id="edge5" class="edge"><title>Node5&#45;&gt;Node6</title>
<path fill="none" stroke="midnightblue" d="M367.18,-21.1274C375.565,-19.9729 384.19,-18.7854 392.54,-17.6359"/>
<polygon fill="midnightblue" stroke="midnightblue" points="366.535,-17.6831 357.106,-22.5144 367.49,-24.6177 366.535,-17.6831"/>
</g>
</g>
</svg>
