<?xml version="1.0" encoding="UTF-8" standalone="no"?>
<!DOCTYPE svg PUBLIC "-//W3C//DTD SVG 1.1//EN"
 "http://www.w3.org/Graphics/SVG/1.1/DTD/svg11.dtd">
<!-- Generated by graphviz version 2.38.0 (20140413.2041)
 -->
<!-- Title: si4735_fm_seek_start Pages: 1 -->
<svg width="365pt" height="66pt"
 viewBox="0.00 0.00 365.00 66.00" xmlns="http://www.w3.org/2000/svg" xmlns:xlink="http://www.w3.org/1999/xlink">
<g id="graph0" class="graph" transform="scale(1 1) rotate(0) translate(4 62)">
<title>si4735_fm_seek_start</title>
<polygon fill="white" stroke="none" points="-4,4 -4,-62 361,-62 361,4 -4,4"/>
<!-- Node1 -->
<g id="node1" class="node"><title>Node1</title>
<polygon fill="#bfbfbf" stroke="black" points="0,-19.5 0,-38.5 112,-38.5 112,-19.5 0,-19.5"/>
<text text-anchor="middle" x="56" y="-26.5" font-family="Helvetica,sans-Serif" font-size="10.00">si4735_fm_seek_start</text>
</g>
<!-- Node2 -->
<g id="node2" class="node"><title>Node2</title>
<g id="a_node2"><a xlink:href="si4735_8c.html#a876518b974a7128391e2ff86a597218f" target="_top" xlink:title="SI4735_INIT">
<polygon fill="white" stroke="black" points="152.5,-38.5 152.5,-57.5 220.5,-57.5 220.5,-38.5 152.5,-38.5"/>
<text text-anchor="middle" x="186.5" y="-45.5" font-family="Helvetica,sans-Serif" font-size="10.00">SI4735_INIT</text>
</a>
</g>
</g>
<!-- Node1&#45;&gt;Node2 -->
<g id="edge1" class="edge"><title>Node1&#45;&gt;Node2</title>
<path fill="none" stroke="midnightblue" d="M122.187,-38.6386C132.587,-40.1763 142.955,-41.7093 152.199,-43.0761"/>
<polygon fill="midnightblue" stroke="midnightblue" points="122.646,-35.1684 112.241,-37.168 121.622,-42.0931 122.646,-35.1684"/>
</g>
<!-- Node4 -->
<g id="node4" class="node"><title>Node4</title>
<g id="a_node4"><a xlink:href="radio_8c.html#aee6321b512830d482a2fc164cf11f9e9" target="_top" xlink:title="radio_seeking">
<polygon fill="white" stroke="black" points="148,-0.5 148,-19.5 225,-19.5 225,-0.5 148,-0.5"/>
<text text-anchor="middle" x="186.5" y="-7.5" font-family="Helvetica,sans-Serif" font-size="10.00">radio_seeking</text>
</a>
</g>
</g>
<!-- Node1&#45;&gt;Node4 -->
<g id="edge3" class="edge"><title>Node1&#45;&gt;Node4</title>
<path fill="none" stroke="midnightblue" d="M122.406,-19.3291C131.086,-18.0457 139.738,-16.7664 147.727,-15.5851"/>
<polygon fill="midnightblue" stroke="midnightblue" points="121.622,-15.9069 112.241,-20.832 122.646,-22.8316 121.622,-15.9069"/>
</g>
<!-- Node3 -->
<g id="node3" class="node"><title>Node3</title>
<g id="a_node3"><a xlink:href="main_8c.html#a840291bc02cba5474a4cb46a9b9566fe" target="_top" xlink:title="main">
<polygon fill="white" stroke="black" points="290,-38.5 290,-57.5 328,-57.5 328,-38.5 290,-38.5"/>
<text text-anchor="middle" x="309" y="-45.5" font-family="Helvetica,sans-Serif" font-size="10.00">main</text>
</a>
</g>
</g>
<!-- Node2&#45;&gt;Node3 -->
<g id="edge2" class="edge"><title>Node2&#45;&gt;Node3</title>
<path fill="none" stroke="midnightblue" d="M230.752,-48C251.065,-48 274.186,-48 289.797,-48"/>
<polygon fill="midnightblue" stroke="midnightblue" points="230.746,-44.5001 220.746,-48 230.746,-51.5001 230.746,-44.5001"/>
</g>
<!-- Node5 -->
<g id="node5" class="node"><title>Node5</title>
<g id="a_node5"><a xlink:href="radio_8c.html#ac96da2886aec92b299b27b500761564c" target="_top" xlink:title="radio_auto_search">
<polygon fill="white" stroke="black" points="261,-0.5 261,-19.5 357,-19.5 357,-0.5 261,-0.5"/>
<text text-anchor="middle" x="309" y="-7.5" font-family="Helvetica,sans-Serif" font-size="10.00">radio_auto_search</text>
</a>
</g>
</g>
<!-- Node4&#45;&gt;Node5 -->
<g id="edge4" class="edge"><title>Node4&#45;&gt;Node5</title>
<path fill="none" stroke="midnightblue" d="M235.524,-10C243.772,-10 252.339,-10 260.571,-10"/>
<polygon fill="midnightblue" stroke="midnightblue" points="235.296,-6.5001 225.296,-10 235.296,-13.5001 235.296,-6.5001"/>
</g>
</g>
</svg>
