<?xml version="1.0" encoding="UTF-8" standalone="no"?>
<!DOCTYPE svg PUBLIC "-//W3C//DTD SVG 1.1//EN"
 "http://www.w3.org/Graphics/SVG/1.1/DTD/svg11.dtd">
<!-- Generated by graphviz version 2.38.0 (20140413.2041)
 -->
<!-- Title: si4735_set_property Pages: 1 -->
<svg width="454pt" height="142pt"
 viewBox="0.00 0.00 454.00 142.00" xmlns="http://www.w3.org/2000/svg" xmlns:xlink="http://www.w3.org/1999/xlink">
<g id="graph0" class="graph" transform="scale(1 1) rotate(0) translate(4 138)">
<title>si4735_set_property</title>
<polygon fill="white" stroke="none" points="-4,4 -4,-138 450,-138 450,4 -4,4"/>
<!-- Node1 -->
<g id="node1" class="node"><title>Node1</title>
<polygon fill="#bfbfbf" stroke="black" points="0,-57.5 0,-76.5 104,-76.5 104,-57.5 0,-57.5"/>
<text text-anchor="middle" x="52" y="-64.5" font-family="Helvetica,sans-Serif" font-size="10.00">si4735_set_property</text>
</g>
<!-- Node2 -->
<g id="node2" class="node"><title>Node2</title>
<g id="a_node2"><a xlink:href="si4735_8c.html#a9ef54c7d16dee6f0878f06847caa43d1" target="_top" xlink:title="si4735_configure_rds">
<polygon fill="white" stroke="black" points="150,-114.5 150,-133.5 258,-133.5 258,-114.5 150,-114.5"/>
<text text-anchor="middle" x="204" y="-121.5" font-family="Helvetica,sans-Serif" font-size="10.00">si4735_configure_rds</text>
</a>
</g>
</g>
<!-- Node1&#45;&gt;Node2 -->
<g id="edge1" class="edge"><title>Node1&#45;&gt;Node2</title>
<path fill="none" stroke="midnightblue" d="M87.7446,-80.203C115.287,-90.669 153.122,-105.046 177.811,-114.428"/>
<polygon fill="midnightblue" stroke="midnightblue" points="88.6978,-76.821 78.1066,-76.5405 86.2112,-83.3645 88.6978,-76.821"/>
</g>
<!-- Node3 -->
<g id="node3" class="node"><title>Node3</title>
<g id="a_node3"><a xlink:href="si4735_8c.html#a876518b974a7128391e2ff86a597218f" target="_top" xlink:title="SI4735_INIT">
<polygon fill="white" stroke="black" points="304,-76.5 304,-95.5 372,-95.5 372,-76.5 304,-76.5"/>
<text text-anchor="middle" x="338" y="-83.5" font-family="Helvetica,sans-Serif" font-size="10.00">SI4735_INIT</text>
</a>
</g>
</g>
<!-- Node1&#45;&gt;Node3 -->
<g id="edge6" class="edge"><title>Node1&#45;&gt;Node3</title>
<path fill="none" stroke="midnightblue" d="M114.244,-71.0973C172.25,-74.978 257.188,-80.6604 303.629,-83.7674"/>
<polygon fill="midnightblue" stroke="midnightblue" points="114.313,-67.5942 104.102,-70.4188 113.846,-74.5786 114.313,-67.5942"/>
</g>
<!-- Node5 -->
<g id="node5" class="node"><title>Node5</title>
<g id="a_node5"><a xlink:href="si4735_8c.html#af6037be0045d62ab73bf8e6c3802bd8e" target="_top" xlink:title="si4735_configure_seeking">
<polygon fill="white" stroke="black" points="140,-38.5 140,-57.5 268,-57.5 268,-38.5 140,-38.5"/>
<text text-anchor="middle" x="204" y="-45.5" font-family="Helvetica,sans-Serif" font-size="10.00">si4735_configure_seeking</text>
</a>
</g>
</g>
<!-- Node1&#45;&gt;Node5 -->
<g id="edge4" class="edge"><title>Node1&#45;&gt;Node5</title>
<path fill="none" stroke="midnightblue" d="M114.315,-59.2334C122.727,-58.1679 131.377,-57.0722 139.822,-56.0025"/>
<polygon fill="midnightblue" stroke="midnightblue" points="113.683,-55.7855 104.202,-60.5144 114.563,-62.73 113.683,-55.7855"/>
</g>
<!-- Node6 -->
<g id="node6" class="node"><title>Node6</title>
<g id="a_node6"><a xlink:href="radio_8c.html#afb52516b50bf1098e28be670e369b6cd" target="_top" xlink:title="radio_volume">
<polygon fill="white" stroke="black" points="167.5,-0.5 167.5,-19.5 240.5,-19.5 240.5,-0.5 167.5,-0.5"/>
<text text-anchor="middle" x="204" y="-7.5" font-family="Helvetica,sans-Serif" font-size="10.00">radio_volume</text>
</a>
</g>
</g>
<!-- Node1&#45;&gt;Node6 -->
<g id="edge7" class="edge"><title>Node1&#45;&gt;Node6</title>
<path fill="none" stroke="midnightblue" d="M82.3504,-53.1404C99.0514,-45.5181 120.473,-36.18 140,-29 149.221,-25.6094 159.357,-22.3526 168.751,-19.5224"/>
<polygon fill="midnightblue" stroke="midnightblue" points="80.7277,-50.0345 73.1127,-57.4008 83.6593,-56.391 80.7277,-50.0345"/>
</g>
<!-- Node2&#45;&gt;Node3 -->
<g id="edge2" class="edge"><title>Node2&#45;&gt;Node3</title>
<path fill="none" stroke="midnightblue" d="M248.041,-111.609C266.118,-106.406 286.819,-100.446 303.701,-95.5859"/>
<polygon fill="midnightblue" stroke="midnightblue" points="246.951,-108.281 238.309,-114.411 248.887,-115.008 246.951,-108.281"/>
</g>
<!-- Node4 -->
<g id="node4" class="node"><title>Node4</title>
<g id="a_node4"><a xlink:href="main_8c.html#a840291bc02cba5474a4cb46a9b9566fe" target="_top" xlink:title="main">
<polygon fill="white" stroke="black" points="408,-76.5 408,-95.5 446,-95.5 446,-76.5 408,-76.5"/>
<text text-anchor="middle" x="427" y="-83.5" font-family="Helvetica,sans-Serif" font-size="10.00">main</text>
</a>
</g>
</g>
<!-- Node3&#45;&gt;Node4 -->
<g id="edge3" class="edge"><title>Node3&#45;&gt;Node4</title>
<path fill="none" stroke="midnightblue" d="M382.458,-86C391.452,-86 400.447,-86 407.908,-86"/>
<polygon fill="midnightblue" stroke="midnightblue" points="382.388,-82.5001 372.388,-86 382.388,-89.5001 382.388,-82.5001"/>
</g>
<!-- Node5&#45;&gt;Node3 -->
<g id="edge5" class="edge"><title>Node5&#45;&gt;Node3</title>
<path fill="none" stroke="midnightblue" d="M248.041,-60.3906C266.118,-65.5945 286.819,-71.5541 303.701,-76.4141"/>
<polygon fill="midnightblue" stroke="midnightblue" points="248.887,-56.9921 238.309,-57.589 246.951,-63.7189 248.887,-56.9921"/>
</g>
</g>
</svg>
