<?xml version="1.0" encoding="UTF-8" standalone="no"?>
<!DOCTYPE svg PUBLIC "-//W3C//DTD SVG 1.1//EN"
 "http://www.w3.org/Graphics/SVG/1.1/DTD/svg11.dtd">
<!-- Generated by graphviz version 2.38.0 (20140413.2041)
 -->
<!-- Title: driver/si4735.h Pages: 1 -->
<svg width="370pt" height="140pt"
 viewBox="0.00 0.00 369.50 140.00" xmlns="http://www.w3.org/2000/svg" xmlns:xlink="http://www.w3.org/1999/xlink">
<g id="graph0" class="graph" transform="scale(1 1) rotate(0) translate(4 136)">
<title>driver/si4735.h</title>
<polygon fill="white" stroke="none" points="-4,4 -4,-136 365.5,-136 365.5,4 -4,4"/>
<!-- Node1 -->
<g id="node1" class="node"><title>Node1</title>
<polygon fill="#bfbfbf" stroke="black" points="118,-112.5 118,-131.5 197,-131.5 197,-112.5 118,-112.5"/>
<text text-anchor="middle" x="157.5" y="-119.5" font-family="Helvetica,sans-Serif" font-size="10.00">driver/si4735.h</text>
</g>
<!-- Node2 -->
<g id="node2" class="node"><title>Node2</title>
<g id="a_node2"><a xlink:href="si4735_8c.html" target="_top" xlink:title="driver/src/si4735.c">
<polygon fill="white" stroke="black" points="0,-56.5 0,-75.5 95,-75.5 95,-56.5 0,-56.5"/>
<text text-anchor="middle" x="47.5" y="-63.5" font-family="Helvetica,sans-Serif" font-size="10.00">driver/src/si4735.c</text>
</a>
</g>
</g>
<!-- Node1&#45;&gt;Node2 -->
<g id="edge1" class="edge"><title>Node1&#45;&gt;Node2</title>
<path fill="none" stroke="midnightblue" d="M130.738,-107.862C110.341,-97.8492 82.8341,-84.3458 65.1295,-75.6545"/>
<polygon fill="midnightblue" stroke="midnightblue" points="129.308,-111.059 139.827,-112.324 132.392,-104.775 129.308,-111.059"/>
</g>
<!-- Node3 -->
<g id="node3" class="node"><title>Node3</title>
<g id="a_node3"><a xlink:href="main_8c.html" target="_top" xlink:title="main.c">
<polygon fill="white" stroke="black" points="91.5,-0.5 91.5,-19.5 137.5,-19.5 137.5,-0.5 91.5,-0.5"/>
<text text-anchor="middle" x="114.5" y="-7.5" font-family="Helvetica,sans-Serif" font-size="10.00">main.c</text>
</a>
</g>
</g>
<!-- Node1&#45;&gt;Node3 -->
<g id="edge2" class="edge"><title>Node1&#45;&gt;Node3</title>
<path fill="none" stroke="midnightblue" d="M150.463,-102.998C141.081,-78.9968 124.847,-37.4683 117.858,-19.5914"/>
<polygon fill="midnightblue" stroke="midnightblue" points="147.225,-104.329 154.126,-112.368 153.745,-101.78 147.225,-104.329"/>
</g>
<!-- Node4 -->
<g id="node4" class="node"><title>Node4</title>
<g id="a_node4"><a xlink:href="radio_8h.html" target="_top" xlink:title="system/radio.h">
<polygon fill="white" stroke="black" points="152,-56.5 152,-75.5 233,-75.5 233,-56.5 152,-56.5"/>
<text text-anchor="middle" x="192.5" y="-63.5" font-family="Helvetica,sans-Serif" font-size="10.00">system/radio.h</text>
</a>
</g>
</g>
<!-- Node1&#45;&gt;Node4 -->
<g id="edge3" class="edge"><title>Node1&#45;&gt;Node4</title>
<path fill="none" stroke="midnightblue" d="M168.8,-103.566C174.822,-94.2747 181.969,-83.2484 186.828,-75.7511"/>
<polygon fill="midnightblue" stroke="midnightblue" points="165.781,-101.788 163.28,-112.083 171.656,-105.595 165.781,-101.788"/>
</g>
<!-- Node6 -->
<g id="node6" class="node"><title>Node6</title>
<g id="a_node6"><a xlink:href="rds_8h.html" target="_top" xlink:title="system/rds.h">
<polygon fill="white" stroke="black" points="269.5,-56.5 269.5,-75.5 343.5,-75.5 343.5,-56.5 269.5,-56.5"/>
<text text-anchor="middle" x="306.5" y="-63.5" font-family="Helvetica,sans-Serif" font-size="10.00">system/rds.h</text>
</a>
</g>
</g>
<!-- Node1&#45;&gt;Node6 -->
<g id="edge6" class="edge"><title>Node1&#45;&gt;Node6</title>
<path fill="none" stroke="midnightblue" d="M190.871,-108.906C218.884,-98.7536 258.196,-84.5063 283.001,-75.5164"/>
<polygon fill="midnightblue" stroke="midnightblue" points="189.319,-105.746 181.109,-112.444 191.704,-112.327 189.319,-105.746"/>
</g>
<!-- Node4&#45;&gt;Node3 -->
<g id="edge4" class="edge"><title>Node4&#45;&gt;Node3</title>
<path fill="none" stroke="midnightblue" d="M171.732,-50.6221C157.483,-40.7574 139.044,-27.9919 127.001,-19.6545"/>
<polygon fill="midnightblue" stroke="midnightblue" points="169.754,-53.5095 179.968,-56.324 173.738,-47.7541 169.754,-53.5095"/>
</g>
<!-- Node5 -->
<g id="node5" class="node"><title>Node5</title>
<g id="a_node5"><a xlink:href="radio_8c.html" target="_top" xlink:title="system/src/radio.c">
<polygon fill="white" stroke="black" points="155.5,-0.5 155.5,-19.5 253.5,-19.5 253.5,-0.5 155.5,-0.5"/>
<text text-anchor="middle" x="204.5" y="-7.5" font-family="Helvetica,sans-Serif" font-size="10.00">system/src/radio.c</text>
</a>
</g>
</g>
<!-- Node4&#45;&gt;Node5 -->
<g id="edge5" class="edge"><title>Node4&#45;&gt;Node5</title>
<path fill="none" stroke="midnightblue" d="M196.7,-46.1005C198.692,-37.1357 200.976,-26.8579 202.555,-19.7511"/>
<polygon fill="midnightblue" stroke="midnightblue" points="193.234,-45.5618 194.482,-56.083 200.068,-47.0804 193.234,-45.5618"/>
</g>
<!-- Node7 -->
<g id="node7" class="node"><title>Node7</title>
<g id="a_node7"><a xlink:href="rds_8c.html" target="_top" xlink:title="system/src/rds.c">
<polygon fill="white" stroke="black" points="271.5,-0.5 271.5,-19.5 361.5,-19.5 361.5,-0.5 271.5,-0.5"/>
<text text-anchor="middle" x="316.5" y="-7.5" font-family="Helvetica,sans-Serif" font-size="10.00">system/src/rds.c</text>
</a>
</g>
</g>
<!-- Node6&#45;&gt;Node7 -->
<g id="edge7" class="edge"><title>Node6&#45;&gt;Node7</title>
<path fill="none" stroke="midnightblue" d="M310,-46.1005C311.66,-37.1357 313.563,-26.8579 314.879,-19.7511"/>
<polygon fill="midnightblue" stroke="midnightblue" points="306.531,-45.6128 308.151,-56.083 313.414,-46.8875 306.531,-45.6128"/>
</g>
</g>
</svg>
