<?xml version="1.0" encoding="UTF-8" standalone="no"?>
<!DOCTYPE svg PUBLIC "-//W3C//DTD SVG 1.1//EN"
 "http://www.w3.org/Graphics/SVG/1.1/DTD/svg11.dtd">
<!-- Generated by graphviz version 2.38.0 (20140413.2041)
 -->
<!-- Title: si4735_fm_tune_status Pages: 1 -->
<svg width="370pt" height="28pt"
 viewBox="0.00 0.00 370.00 28.00" xmlns="http://www.w3.org/2000/svg" xmlns:xlink="http://www.w3.org/1999/xlink">
<g id="graph0" class="graph" transform="scale(1 1) rotate(0) translate(4 24)">
<title>si4735_fm_tune_status</title>
<polygon fill="white" stroke="none" points="-4,4 -4,-24 366,-24 366,4 -4,4"/>
<!-- Node1 -->
<g id="node1" class="node"><title>Node1</title>
<polygon fill="#bfbfbf" stroke="black" points="0,-0.5 0,-19.5 117,-19.5 117,-0.5 0,-0.5"/>
<text text-anchor="middle" x="58.5" y="-7.5" font-family="Helvetica,sans-Serif" font-size="10.00">si4735_fm_tune_status</text>
</g>
<!-- Node2 -->
<g id="node2" class="node"><title>Node2</title>
<g id="a_node2"><a xlink:href="radio_8c.html#aee6321b512830d482a2fc164cf11f9e9" target="_top" xlink:title="radio_seeking">
<polygon fill="white" stroke="black" points="153,-0.5 153,-19.5 230,-19.5 230,-0.5 153,-0.5"/>
<text text-anchor="middle" x="191.5" y="-7.5" font-family="Helvetica,sans-Serif" font-size="10.00">radio_seeking</text>
</a>
</g>
</g>
<!-- Node1&#45;&gt;Node2 -->
<g id="edge1" class="edge"><title>Node1&#45;&gt;Node2</title>
<path fill="none" stroke="midnightblue" d="M127.565,-10C136.282,-10 144.939,-10 152.917,-10"/>
<polygon fill="midnightblue" stroke="midnightblue" points="127.34,-6.5001 117.34,-10 127.34,-13.5001 127.34,-6.5001"/>
</g>
<!-- Node3 -->
<g id="node3" class="node"><title>Node3</title>
<g id="a_node3"><a xlink:href="radio_8c.html#ac96da2886aec92b299b27b500761564c" target="_top" xlink:title="radio_auto_search">
<polygon fill="white" stroke="black" points="266,-0.5 266,-19.5 362,-19.5 362,-0.5 266,-0.5"/>
<text text-anchor="middle" x="314" y="-7.5" font-family="Helvetica,sans-Serif" font-size="10.00">radio_auto_search</text>
</a>
</g>
</g>
<!-- Node2&#45;&gt;Node3 -->
<g id="edge2" class="edge"><title>Node2&#45;&gt;Node3</title>
<path fill="none" stroke="midnightblue" d="M240.524,-10C248.772,-10 257.339,-10 265.571,-10"/>
<polygon fill="midnightblue" stroke="midnightblue" points="240.296,-6.5001 230.296,-10 240.296,-13.5001 240.296,-6.5001"/>
</g>
</g>
</svg>
