<?xml version="1.0" encoding="UTF-8" standalone="no"?>
<!DOCTYPE svg PUBLIC "-//W3C//DTD SVG 1.1//EN"
 "http://www.w3.org/Graphics/SVG/1.1/DTD/svg11.dtd">
<!-- Generated by graphviz version 2.38.0 (20140413.2041)
 -->
<!-- Title: si4735_get_interrupt Pages: 1 -->
<!--zoomable 355 -->
<svg id="main" version="1.1" xmlns="http://www.w3.org/2000/svg" xmlns:xlink="http://www.w3.org/1999/xlink" xml:space="preserve" onload="init(evt)">
<style type="text/css"><![CDATA[
.edge:hover path { stroke: red; }
.edge:hover polygon { stroke: red; fill: red; }
]]></style>
<script type="text/javascript"><![CDATA[
var edges = document.getElementsByTagName('g');
if (edges && edges.length) {
  for (var i=0;i<edges.length;i++) {
    if (edges[i].id.substr(0,4)=='edge') {
      edges[i].setAttribute('class','edge');
    }
  }
}
]]></script>
        <defs>
                <circle id="rim" cx="0" cy="0" r="7"/>
                <circle id="rim2" cx="0" cy="0" r="3.5"/>
                <g id="zoomPlus">
                        <use xlink:href="#rim" fill="#404040">
                                <set attributeName="fill" to="#808080" begin="zoomplus.mouseover" end="zoomplus.mouseout"/>
                        </use>
                        <path d="M-4,0h8M0,-4v8" fill="none" stroke="white" stroke-width="1.5" pointer-events="none"/>
                </g>
                <g id="zoomMin">
                        <use xlink:href="#rim" fill="#404040">
                                <set attributeName="fill" to="#808080" begin="zoomminus.mouseover" end="zoomminus.mouseout"/>
                        </use>
                        <path d="M-4,0h8" fill="none" stroke="white" stroke-width="1.5" pointer-events="none"/>
                </g>
                <g id="dirArrow">
                        <path fill="none" stroke="white" stroke-width="1.5" d="M0,-3.0v7 M-2.5,-0.5L0,-3.0L2.5,-0.5"/>
                </g>
               <g id="resetDef">
                       <use xlink:href="#rim2" fill="#404040">
                               <set attributeName="fill" to="#808080" begin="reset.mouseover" end="reset.mouseout"/>
                       </use>
               </g>
        </defs>

<script type="text/javascript">
var viewWidth = 1114;
var viewHeight = 355;
var sectionId = 'dynsection-15';
</script>
<script xlink:href="svgpan.js"/>
<svg id="graph" class="graph">
<g id="viewport">
<title>si4735_get_interrupt</title>
<polygon fill="white" stroke="none" points="-4,4 -4,-351.188 1110,-351.188 1110,4 -4,4"/>
<!-- Node1 -->
<g id="node1" class="node"><title>Node1</title>
<polygon fill="#bfbfbf" stroke="black" points="0,-175.688 0,-194.688 104,-194.688 104,-175.688 0,-175.688"/>
<text text-anchor="middle" x="52" y="-182.688" font-family="Helvetica,sans-Serif" font-size="10.00">si4735_get_interrupt</text>
</g>
<!-- Node2 -->
<g id="node2" class="node"><title>Node2</title>
<g id="a_node2"><a xlink:href="si4735_8c.html#ad8b515f4991303f8cac978410d736a03" target="_top" xlink:title="si4735_fm_tune_status">
<polygon fill="white" stroke="black" points="140,-279.688 140,-298.688 257,-298.688 257,-279.688 140,-279.688"/>
<text text-anchor="middle" x="198.5" y="-286.688" font-family="Helvetica,sans-Serif" font-size="10.00">si4735_fm_tune_status</text>
</a>
</g>
</g>
<!-- Node1&#45;&gt;Node2 -->
<g id="edge1" class="edge"><title>Node1&#45;&gt;Node2</title>
<path fill="none" stroke="midnightblue" d="M71.1351,-201.464C88.2762,-216.484 115.019,-238.996 140,-256.188 152.611,-264.866 167.638,-273.434 179.167,-279.664"/>
<polygon fill="midnightblue" stroke="midnightblue" points="73.351,-198.751 63.5415,-194.748 68.7137,-203.994 73.351,-198.751"/>
</g>
<!-- Node9 -->
<g id="node9" class="node"><title>Node9</title>
<g id="a_node9"><a xlink:href="si4735_8c.html#af82ec28b536b1258ea4178108c61d5e9" target="_top" xlink:title="si4735_fm_tune_freq">
<polygon fill="white" stroke="black" points="145.5,-175.688 145.5,-194.688 251.5,-194.688 251.5,-175.688 145.5,-175.688"/>
<text text-anchor="middle" x="198.5" y="-182.688" font-family="Helvetica,sans-Serif" font-size="10.00">si4735_fm_tune_freq</text>
</a>
</g>
</g>
<!-- Node1&#45;&gt;Node9 -->
<g id="edge9" class="edge"><title>Node1&#45;&gt;Node9</title>
<path fill="none" stroke="midnightblue" d="M114.492,-185.188C124.763,-185.188 135.33,-185.188 145.339,-185.188"/>
<polygon fill="midnightblue" stroke="midnightblue" points="114.352,-181.688 104.352,-185.188 114.352,-188.688 114.352,-181.688"/>
</g>
<!-- Node10 -->
<g id="node10" class="node"><title>Node10</title>
<g id="a_node10"><a xlink:href="si4735_8c.html#a876518b974a7128391e2ff86a597218f" target="_top" xlink:title="SI4735_INIT">
<polygon fill="white" stroke="black" points="473.5,-99.6876 473.5,-118.688 541.5,-118.688 541.5,-99.6876 473.5,-99.6876"/>
<text text-anchor="middle" x="507.5" y="-106.688" font-family="Helvetica,sans-Serif" font-size="10.00">SI4735_INIT</text>
</a>
</g>
</g>
<!-- Node1&#45;&gt;Node10 -->
<g id="edge34" class="edge"><title>Node1&#45;&gt;Node10</title>
<path fill="none" stroke="midnightblue" d="M66.0973,-167.282C81.8532,-146.683 109.959,-112.797 140,-90.1876 200.665,-44.5295 219.081,-31.5354 293,-14.1876 348.384,-1.1897 369.032,8.95699 421,-14.1876 461.134,-32.0619 490.332,-79.1164 501.503,-99.5205"/>
<polygon fill="midnightblue" stroke="midnightblue" points="63.1517,-165.376 59.9476,-175.475 68.7501,-169.578 63.1517,-165.376"/>
</g>
<!-- Node16 -->
<g id="node16" class="node"><title>Node16</title>
<g id="a_node16"><a xlink:href="si4735_8c.html#aadc29a91f13cd5ebe239b23c7e5370dc" target="_top" xlink:title="si4735_set_property">
<polygon fill="white" stroke="black" points="146.5,-99.6876 146.5,-118.688 250.5,-118.688 250.5,-99.6876 146.5,-99.6876"/>
<text text-anchor="middle" x="198.5" y="-106.688" font-family="Helvetica,sans-Serif" font-size="10.00">si4735_set_property</text>
</a>
</g>
</g>
<!-- Node1&#45;&gt;Node16 -->
<g id="edge20" class="edge"><title>Node1&#45;&gt;Node16</title>
<path fill="none" stroke="midnightblue" d="M80.4838,-170.732C109.513,-155.464 154.455,-131.827 179.348,-118.735"/>
<polygon fill="midnightblue" stroke="midnightblue" points="78.5223,-167.809 71.301,-175.562 81.7808,-174.005 78.5223,-167.809"/>
</g>
<!-- Node21 -->
<g id="node21" class="node"><title>Node21</title>
<g id="a_node21"><a xlink:href="si4735_8c.html#a339846da787fb5a496df9252ca7dc9a5" target="_top" xlink:title="si4735_fm_seek_start">
<polygon fill="white" stroke="black" points="301,-251.688 301,-270.688 413,-270.688 413,-251.688 301,-251.688"/>
<text text-anchor="middle" x="357" y="-258.688" font-family="Helvetica,sans-Serif" font-size="10.00">si4735_fm_seek_start</text>
</a>
</g>
</g>
<!-- Node1&#45;&gt;Node21 -->
<g id="edge31" class="edge"><title>Node1&#45;&gt;Node21</title>
<path fill="none" stroke="midnightblue" d="M101.064,-197.243C161.159,-212.317 262.81,-237.813 317.849,-251.618"/>
<polygon fill="midnightblue" stroke="midnightblue" points="101.619,-193.774 91.0684,-194.736 99.9164,-200.564 101.619,-193.774"/>
</g>
<!-- Node3 -->
<g id="node3" class="node"><title>Node3</title>
<g id="a_node3"><a xlink:href="radio_8c.html#aee6321b512830d482a2fc164cf11f9e9" target="_top" xlink:title="radio_seeking">
<polygon fill="white" stroke="black" points="469,-289.688 469,-308.688 546,-308.688 546,-289.688 469,-289.688"/>
<text text-anchor="middle" x="507.5" y="-296.688" font-family="Helvetica,sans-Serif" font-size="10.00">radio_seeking</text>
</a>
</g>
</g>
<!-- Node2&#45;&gt;Node3 -->
<g id="edge2" class="edge"><title>Node2&#45;&gt;Node3</title>
<path fill="none" stroke="midnightblue" d="M267.332,-291.397C329.331,-293.417 418.76,-296.33 468.849,-297.961"/>
<polygon fill="midnightblue" stroke="midnightblue" points="267.353,-287.896 257.244,-291.069 267.125,-294.892 267.353,-287.896"/>
</g>
<!-- Node4 -->
<g id="node4" class="node"><title>Node4</title>
<g id="a_node4"><a xlink:href="radio_8c.html#a832a684fc60104296fc975a7608f92b4" target="_top" xlink:title="radio_settings">
<polygon fill="white" stroke="black" points="726,-232.688 726,-251.688 803,-251.688 803,-232.688 726,-232.688"/>
<text text-anchor="middle" x="764.5" y="-239.688" font-family="Helvetica,sans-Serif" font-size="10.00">radio_settings</text>
</a>
</g>
</g>
<!-- Node3&#45;&gt;Node4 -->
<g id="edge3" class="edge"><title>Node3&#45;&gt;Node4</title>
<path fill="none" stroke="midnightblue" d="M556.196,-299.005C593.363,-297.723 645.886,-293.387 690,-280.188 711.744,-273.682 734.646,-260.731 748.993,-251.77"/>
<polygon fill="midnightblue" stroke="midnightblue" points="556.037,-295.508 546.14,-299.291 556.236,-302.506 556.037,-295.508"/>
</g>
<!-- Node8 -->
<g id="node8" class="node"><title>Node8</title>
<g id="a_node8"><a xlink:href="radio_8c.html#ac96da2886aec92b299b27b500761564c" target="_top" xlink:title="radio_auto_search">
<polygon fill="white" stroke="black" points="594,-327.688 594,-346.688 690,-346.688 690,-327.688 594,-327.688"/>
<text text-anchor="middle" x="642" y="-334.688" font-family="Helvetica,sans-Serif" font-size="10.00">radio_auto_search</text>
</a>
</g>
</g>
<!-- Node3&#45;&gt;Node8 -->
<g id="edge7" class="edge"><title>Node3&#45;&gt;Node8</title>
<path fill="none" stroke="midnightblue" d="M551.704,-311.578C569.849,-316.782 590.629,-322.742 607.575,-327.602"/>
<polygon fill="midnightblue" stroke="midnightblue" points="552.513,-308.169 541.935,-308.777 550.583,-314.898 552.513,-308.169"/>
</g>
<!-- Node5 -->
<g id="node5" class="node"><title>Node5</title>
<g id="a_node5"><a xlink:href="menu_8c.html#a5d9c190838195d7872fc7067269e20fa" target="_top" xlink:title="menu_function">
<polygon fill="white" stroke="black" points="839,-137.688 839,-156.688 919,-156.688 919,-137.688 839,-137.688"/>
<text text-anchor="middle" x="879" y="-144.688" font-family="Helvetica,sans-Serif" font-size="10.00">menu_function</text>
</a>
</g>
</g>
<!-- Node4&#45;&gt;Node5 -->
<g id="edge4" class="edge"><title>Node4&#45;&gt;Node5</title>
<path fill="none" stroke="midnightblue" d="M785.047,-225.682C808.624,-205.771 847.472,-172.967 866.615,-156.802"/>
<polygon fill="midnightblue" stroke="midnightblue" points="782.498,-223.253 777.116,-232.379 787.014,-228.601 782.498,-223.253"/>
</g>
<!-- Node6 -->
<g id="node6" class="node"><title>Node6</title>
<g id="a_node6"><a xlink:href="menu_8c.html#aaf2a075d3159f7eeab42012941a3437f" target="_top" xlink:title="menu_handler">
<polygon fill="white" stroke="black" points="955,-137.688 955,-156.688 1032,-156.688 1032,-137.688 955,-137.688"/>
<text text-anchor="middle" x="993.5" y="-144.688" font-family="Helvetica,sans-Serif" font-size="10.00">menu_handler</text>
</a>
</g>
</g>
<!-- Node5&#45;&gt;Node6 -->
<g id="edge5" class="edge"><title>Node5&#45;&gt;Node6</title>
<path fill="none" stroke="midnightblue" d="M929.262,-147.188C937.783,-147.188 946.52,-147.188 954.676,-147.188"/>
<polygon fill="midnightblue" stroke="midnightblue" points="929.031,-143.688 919.031,-147.188 929.031,-150.688 929.031,-143.688"/>
</g>
<!-- Node7 -->
<g id="node7" class="node"><title>Node7</title>
<g id="a_node7"><a xlink:href="main_8c.html#a840291bc02cba5474a4cb46a9b9566fe" target="_top" xlink:title="main">
<polygon fill="white" stroke="black" points="1068,-118.688 1068,-137.688 1106,-137.688 1106,-118.688 1068,-118.688"/>
<text text-anchor="middle" x="1087" y="-125.688" font-family="Helvetica,sans-Serif" font-size="10.00">main</text>
</a>
</g>
</g>
<!-- Node6&#45;&gt;Node7 -->
<g id="edge6" class="edge"><title>Node6&#45;&gt;Node7</title>
<path fill="none" stroke="midnightblue" d="M1042.07,-137.309C1051.16,-135.423 1060.14,-133.557 1067.6,-132.008"/>
<polygon fill="midnightblue" stroke="midnightblue" points="1041.32,-133.89 1032.24,-139.35 1042.75,-140.744 1041.32,-133.89"/>
</g>
<!-- Node8&#45;&gt;Node4 -->
<g id="edge8" class="edge"><title>Node8&#45;&gt;Node4</title>
<path fill="none" stroke="midnightblue" d="M674.27,-322.869C679.681,-319.933 685.128,-316.667 690,-313.188 716.278,-294.423 742.341,-266.454 755.213,-251.852"/>
<polygon fill="midnightblue" stroke="midnightblue" points="672.599,-319.793 665.305,-327.477 675.799,-326.019 672.599,-319.793"/>
</g>
<!-- Node9&#45;&gt;Node10 -->
<g id="edge10" class="edge"><title>Node9&#45;&gt;Node10</title>
<path fill="none" stroke="midnightblue" d="M248.155,-173.143C311.149,-157.548 419.262,-130.784 473.474,-117.363"/>
<polygon fill="midnightblue" stroke="midnightblue" points="246.937,-169.839 238.071,-175.639 248.619,-176.633 246.937,-169.839"/>
</g>
<!-- Node12 -->
<g id="node12" class="node"><title>Node12</title>
<g id="a_node12"><a xlink:href="radio_8c.html#a6d652e9d0f1c54bfe9ec73fe2605b706" target="_top" xlink:title="radio_tune_freq">
<polygon fill="white" stroke="black" points="315.5,-213.688 315.5,-232.688 398.5,-232.688 398.5,-213.688 315.5,-213.688"/>
<text text-anchor="middle" x="357" y="-220.688" font-family="Helvetica,sans-Serif" font-size="10.00">radio_tune_freq</text>
</a>
</g>
</g>
<!-- Node9&#45;&gt;Node12 -->
<g id="edge13" class="edge"><title>Node9&#45;&gt;Node12</title>
<path fill="none" stroke="midnightblue" d="M248.789,-197.156C270.72,-202.481 296.185,-208.664 316.792,-213.668"/>
<polygon fill="midnightblue" stroke="midnightblue" points="249.535,-193.735 238.992,-194.777 247.883,-200.537 249.535,-193.735"/>
</g>
<!-- Node11 -->
<g id="node11" class="node"><title>Node11</title>
<g id="a_node11"><a xlink:href="radio_8c.html#a3a1de7e31aabba6e408a633c130e618a" target="_top" xlink:title="radio_init">
<polygon fill="white" stroke="black" points="614,-99.6876 614,-118.688 670,-118.688 670,-99.6876 614,-99.6876"/>
<text text-anchor="middle" x="642" y="-106.688" font-family="Helvetica,sans-Serif" font-size="10.00">radio_init</text>
</a>
</g>
</g>
<!-- Node10&#45;&gt;Node11 -->
<g id="edge11" class="edge"><title>Node10&#45;&gt;Node11</title>
<path fill="none" stroke="midnightblue" d="M551.608,-109.188C572.02,-109.188 595.784,-109.188 613.678,-109.188"/>
<polygon fill="midnightblue" stroke="midnightblue" points="551.594,-105.688 541.594,-109.188 551.594,-112.688 551.594,-105.688"/>
</g>
<!-- Node11&#45;&gt;Node7 -->
<g id="edge12" class="edge"><title>Node11&#45;&gt;Node7</title>
<path fill="none" stroke="midnightblue" d="M680.139,-110.78C770.801,-114.669 1000.88,-124.537 1067.6,-127.398"/>
<polygon fill="midnightblue" stroke="midnightblue" points="680.186,-107.279 670.045,-110.348 679.886,-114.273 680.186,-107.279"/>
</g>
<!-- Node13 -->
<g id="node13" class="node"><title>Node13</title>
<g id="a_node13"><a xlink:href="radio_8c.html#a5f7fcd9e9755fb5e22175a4ad74a5456" target="_top" xlink:title="radio_main">
<polygon fill="white" stroke="black" points="610,-137.688 610,-156.688 674,-156.688 674,-137.688 610,-137.688"/>
<text text-anchor="middle" x="642" y="-144.688" font-family="Helvetica,sans-Serif" font-size="10.00">radio_main</text>
</a>
</g>
</g>
<!-- Node12&#45;&gt;Node13 -->
<g id="edge14" class="edge"><title>Node12&#45;&gt;Node13</title>
<path fill="none" stroke="midnightblue" d="M403.516,-210.964C461.353,-195.432 559.663,-169.031 609.714,-155.59"/>
<polygon fill="midnightblue" stroke="midnightblue" points="402.306,-207.665 393.556,-213.639 404.121,-214.426 402.306,-207.665"/>
</g>
<!-- Node14 -->
<g id="node14" class="node"><title>Node14</title>
<g id="a_node14"><a xlink:href="station__list_8h.html#a5b16204c2b6824ce89364d614f074b20" target="_top" xlink:title="station_list_handler">
<polygon fill="white" stroke="black" points="457,-213.688 457,-232.688 558,-232.688 558,-213.688 457,-213.688"/>
<text text-anchor="middle" x="507.5" y="-220.688" font-family="Helvetica,sans-Serif" font-size="10.00">station_list_handler</text>
</a>
</g>
</g>
<!-- Node12&#45;&gt;Node14 -->
<g id="edge16" class="edge"><title>Node12&#45;&gt;Node14</title>
<path fill="none" stroke="midnightblue" d="M408.592,-223.188C424.223,-223.188 441.416,-223.188 456.974,-223.188"/>
<polygon fill="midnightblue" stroke="midnightblue" points="408.578,-219.688 398.578,-223.188 408.578,-226.688 408.578,-219.688"/>
</g>
<!-- Node13&#45;&gt;Node5 -->
<g id="edge15" class="edge"><title>Node13&#45;&gt;Node5</title>
<path fill="none" stroke="midnightblue" d="M684.462,-147.188C728.053,-147.188 796.118,-147.188 838.828,-147.188"/>
<polygon fill="midnightblue" stroke="midnightblue" points="684.206,-143.688 674.206,-147.188 684.206,-150.688 684.206,-143.688"/>
</g>
<!-- Node14&#45;&gt;Node4 -->
<g id="edge17" class="edge"><title>Node14&#45;&gt;Node4</title>
<path fill="none" stroke="midnightblue" d="M568.374,-227.649C617.11,-231.28 684.396,-236.294 725.871,-239.384"/>
<polygon fill="midnightblue" stroke="midnightblue" points="568.504,-224.149 558.272,-226.896 567.984,-231.13 568.504,-224.149"/>
</g>
<!-- Node15 -->
<g id="node15" class="node"><title>Node15</title>
<g id="a_node15"><a xlink:href="radio_8c.html#aae41d271062b3f94cccf4fb5996b04a2" target="_top" xlink:title="radio_frequency">
<polygon fill="white" stroke="black" points="599.5,-251.688 599.5,-270.688 684.5,-270.688 684.5,-251.688 599.5,-251.688"/>
<text text-anchor="middle" x="642" y="-258.688" font-family="Helvetica,sans-Serif" font-size="10.00">radio_frequency</text>
</a>
</g>
</g>
<!-- Node14&#45;&gt;Node15 -->
<g id="edge18" class="edge"><title>Node14&#45;&gt;Node15</title>
<path fill="none" stroke="midnightblue" d="M551.704,-235.578C569.849,-240.782 590.629,-246.742 607.575,-251.602"/>
<polygon fill="midnightblue" stroke="midnightblue" points="552.513,-232.169 541.935,-232.777 550.583,-238.898 552.513,-232.169"/>
</g>
<!-- Node15&#45;&gt;Node4 -->
<g id="edge19" class="edge"><title>Node15&#45;&gt;Node4</title>
<path fill="none" stroke="midnightblue" d="M695.002,-252.988C705.355,-251.356 716.038,-249.671 725.799,-248.132"/>
<polygon fill="midnightblue" stroke="midnightblue" points="694.14,-249.581 684.807,-254.596 695.23,-256.495 694.14,-249.581"/>
</g>
<!-- Node16&#45;&gt;Node10 -->
<g id="edge25" class="edge"><title>Node16&#45;&gt;Node10</title>
<path fill="none" stroke="midnightblue" d="M247.265,-97.5631C261.852,-94.5329 278.002,-91.696 293,-90.1876 349.603,-84.4946 364.451,-83.9801 421,-90.1876 438.533,-92.1123 457.732,-96.1939 473.487,-100.082"/>
<polygon fill="midnightblue" stroke="midnightblue" points="246.487,-94.1503 237.448,-99.6779 247.961,-100.993 246.487,-94.1503"/>
</g>
<!-- Node17 -->
<g id="node17" class="node"><title>Node17</title>
<g id="a_node17"><a xlink:href="si4735_8c.html#a9ef54c7d16dee6f0878f06847caa43d1" target="_top" xlink:title="si4735_configure_rds">
<polygon fill="white" stroke="black" points="303,-23.6876 303,-42.6876 411,-42.6876 411,-23.6876 303,-23.6876"/>
<text text-anchor="middle" x="357" y="-30.6876" font-family="Helvetica,sans-Serif" font-size="10.00">si4735_configure_rds</text>
</a>
</g>
</g>
<!-- Node16&#45;&gt;Node17 -->
<g id="edge21" class="edge"><title>Node16&#45;&gt;Node17</title>
<path fill="none" stroke="midnightblue" d="M223.716,-94.4556C242.303,-83.4607 268.8,-68.4555 293,-57.1876 304.353,-51.9013 317.222,-46.8413 328.356,-42.7419"/>
<polygon fill="midnightblue" stroke="midnightblue" points="221.813,-91.5156 215.021,-99.6476 225.401,-97.5256 221.813,-91.5156"/>
</g>
<!-- Node18 -->
<g id="node18" class="node"><title>Node18</title>
<g id="a_node18"><a xlink:href="si4735_8c.html#af6037be0045d62ab73bf8e6c3802bd8e" target="_top" xlink:title="si4735_configure_seeking">
<polygon fill="white" stroke="black" points="293,-99.6876 293,-118.688 421,-118.688 421,-99.6876 293,-99.6876"/>
<text text-anchor="middle" x="357" y="-106.688" font-family="Helvetica,sans-Serif" font-size="10.00">si4735_configure_seeking</text>
</a>
</g>
</g>
<!-- Node16&#45;&gt;Node18 -->
<g id="edge23" class="edge"><title>Node16&#45;&gt;Node18</title>
<path fill="none" stroke="midnightblue" d="M261.038,-109.188C271.501,-109.188 282.382,-109.188 292.885,-109.188"/>
<polygon fill="midnightblue" stroke="midnightblue" points="260.744,-105.688 250.744,-109.188 260.744,-112.688 260.744,-105.688"/>
</g>
<!-- Node19 -->
<g id="node19" class="node"><title>Node19</title>
<g id="a_node19"><a xlink:href="radio_8c.html#aead0d199e23b8cc254924b96b017210b" target="_top" xlink:title="radio_set_volume">
<polygon fill="white" stroke="black" points="461.5,-137.688 461.5,-156.688 553.5,-156.688 553.5,-137.688 461.5,-137.688"/>
<text text-anchor="middle" x="507.5" y="-144.688" font-family="Helvetica,sans-Serif" font-size="10.00">radio_set_volume</text>
</a>
</g>
</g>
<!-- Node16&#45;&gt;Node19 -->
<g id="edge26" class="edge"><title>Node16&#45;&gt;Node19</title>
<path fill="none" stroke="midnightblue" d="M251.309,-120.789C264.828,-123.521 279.416,-126.209 293,-128.188 350.814,-136.607 418.016,-141.846 461.346,-144.638"/>
<polygon fill="midnightblue" stroke="midnightblue" points="251.716,-117.299 241.215,-118.702 250.3,-124.154 251.716,-117.299"/>
</g>
<!-- Node17&#45;&gt;Node10 -->
<g id="edge22" class="edge"><title>Node17&#45;&gt;Node10</title>
<path fill="none" stroke="midnightblue" d="M395.966,-46.3664C404.335,-49.6247 413.066,-53.3042 421,-57.1876 447.215,-70.0196 475.845,-88.4041 492.43,-99.5272"/>
<polygon fill="midnightblue" stroke="midnightblue" points="396.97,-43.0041 386.378,-42.7479 394.498,-49.5533 396.97,-43.0041"/>
</g>
<!-- Node18&#45;&gt;Node10 -->
<g id="edge24" class="edge"><title>Node18&#45;&gt;Node10</title>
<path fill="none" stroke="midnightblue" d="M431.492,-109.188C446.106,-109.188 460.759,-109.188 473.187,-109.188"/>
<polygon fill="midnightblue" stroke="midnightblue" points="431.408,-105.688 421.408,-109.188 431.408,-112.688 431.408,-105.688"/>
</g>
<!-- Node19&#45;&gt;Node11 -->
<g id="edge27" class="edge"><title>Node19&#45;&gt;Node11</title>
<path fill="none" stroke="midnightblue" d="M551.665,-134.808C572.118,-128.943 595.925,-122.115 613.817,-116.984"/>
<polygon fill="midnightblue" stroke="midnightblue" points="550.583,-131.477 541.935,-137.599 552.513,-138.206 550.583,-131.477"/>
</g>
<!-- Node19&#45;&gt;Node13 -->
<g id="edge30" class="edge"><title>Node19&#45;&gt;Node13</title>
<path fill="none" stroke="midnightblue" d="M563.867,-147.188C579.536,-147.188 596.039,-147.188 609.742,-147.188"/>
<polygon fill="midnightblue" stroke="midnightblue" points="563.728,-143.688 553.728,-147.188 563.728,-150.688 563.728,-143.688"/>
</g>
<!-- Node20 -->
<g id="node20" class="node"><title>Node20</title>
<g id="a_node20"><a xlink:href="radio_8c.html#afce06a210fd84b9acb905e8ab81feaeb" target="_top" xlink:title="radio_volume">
<polygon fill="white" stroke="black" points="605.5,-175.688 605.5,-194.688 678.5,-194.688 678.5,-175.688 605.5,-175.688"/>
<text text-anchor="middle" x="642" y="-182.688" font-family="Helvetica,sans-Serif" font-size="10.00">radio_volume</text>
</a>
</g>
</g>
<!-- Node19&#45;&gt;Node20 -->
<g id="edge28" class="edge"><title>Node19&#45;&gt;Node20</title>
<path fill="none" stroke="midnightblue" d="M551.704,-159.578C569.849,-164.782 590.629,-170.742 607.575,-175.602"/>
<polygon fill="midnightblue" stroke="midnightblue" points="552.513,-156.169 541.935,-156.777 550.583,-162.898 552.513,-156.169"/>
</g>
<!-- Node20&#45;&gt;Node4 -->
<g id="edge29" class="edge"><title>Node20&#45;&gt;Node4</title>
<path fill="none" stroke="midnightblue" d="M672.379,-199.085C694.365,-209.485 723.866,-223.44 743.265,-232.616"/>
<polygon fill="midnightblue" stroke="midnightblue" points="673.705,-195.84 663.169,-194.728 670.712,-202.168 673.705,-195.84"/>
</g>
<!-- Node21&#45;&gt;Node3 -->
<g id="edge33" class="edge"><title>Node21&#45;&gt;Node3</title>
<path fill="none" stroke="midnightblue" d="M405.333,-273.3C426.015,-278.592 449.919,-284.709 469.297,-289.668"/>
<polygon fill="midnightblue" stroke="midnightblue" points="406.028,-269.865 395.473,-270.777 404.293,-276.646 406.028,-269.865"/>
</g>
<!-- Node21&#45;&gt;Node10 -->
<g id="edge32" class="edge"><title>Node21&#45;&gt;Node10</title>
<path fill="none" stroke="midnightblue" d="M416.315,-246.202C417.967,-244.968 419.537,-243.632 421,-242.188 458.813,-204.861 420.585,-166.88 457,-128.188 461.479,-123.428 467.281,-119.847 473.328,-117.157"/>
<polygon fill="midnightblue" stroke="midnightblue" points="414.195,-243.394 407.457,-251.57 417.823,-249.38 414.195,-243.394"/>
</g>
</g>
</svg>
        <g id="navigator" transform="translate(0 0)" fill="#404254">
                <rect fill="#f2f5e9" fill-opacity="0.5" stroke="#606060" stroke-width=".5" x="0" y="0" width="60" height="60"/>
                <use id="zoomplus" xlink:href="#zoomPlus" x="17" y="9" onmousedown="handleZoom(evt,'in')"/>
                <use id="zoomminus" xlink:href="#zoomMin" x="42" y="9" onmousedown="handleZoom(evt,'out')"/>
                <use id="reset" xlink:href="#resetDef" x="30" y="36" onmousedown="handleReset()"/>
                <g id="arrowUp" xlink:href="#dirArrow" transform="translate(30 24)" onmousedown="handlePan(0,-1)">
                  <use xlink:href="#rim" fill="#404040">
                        <set attributeName="fill" to="#808080" begin="arrowUp.mouseover" end="arrowUp.mouseout"/>
                  </use>
                  <path fill="none" stroke="white" stroke-width="1.5" d="M0,-3.0v7 M-2.5,-0.5L0,-3.0L2.5,-0.5"/>
                </g>
                <g id="arrowRight" xlink:href="#dirArrow" transform="rotate(90) translate(36 -43)" onmousedown="handlePan(1,0)">
                  <use xlink:href="#rim" fill="#404040">
                        <set attributeName="fill" to="#808080" begin="arrowRight.mouseover" end="arrowRight.mouseout"/>
                  </use>
                  <path fill="none" stroke="white" stroke-width="1.5" d="M0,-3.0v7 M-2.5,-0.5L0,-3.0L2.5,-0.5"/>
                </g>
                <g id="arrowDown" xlink:href="#dirArrow" transform="rotate(180) translate(-30 -48)" onmousedown="handlePan(0,1)">
                  <use xlink:href="#rim" fill="#404040">
                        <set attributeName="fill" to="#808080" begin="arrowDown.mouseover" end="arrowDown.mouseout"/>
                  </use>
                  <path fill="none" stroke="white" stroke-width="1.5" d="M0,-3.0v7 M-2.5,-0.5L0,-3.0L2.5,-0.5"/>
                </g>
                <g id="arrowLeft" xlink:href="#dirArrow" transform="rotate(270) translate(-36 17)" onmousedown="handlePan(-1,0)">
                  <use xlink:href="#rim" fill="#404040">
                        <set attributeName="fill" to="#808080" begin="arrowLeft.mouseover" end="arrowLeft.mouseout"/>
                  </use>
                  <path fill="none" stroke="white" stroke-width="1.5" d="M0,-3.0v7 M-2.5,-0.5L0,-3.0L2.5,-0.5"/>
                </g>
        </g>
        <svg viewBox="0 0 15 15" width="100%" height="30px" preserveAspectRatio="xMaxYMin meet">
         <g id="arrow_out" transform="scale(0.3 0.3)">
          <a xlink:href="si4735_8c_aad8341b5b19aa8f962a6b9b940d77960_icgraph_org.svg" target="_base">
           <rect id="button" ry="5" rx="5" y="6" x="6" height="38" width="38"
                fill="#f2f5e9" fill-opacity="0.5" stroke="#606060" stroke-width="1.0"/>
           <path id="arrow"
             d="M 11.500037,31.436501 C 11.940474,20.09759 22.043105,11.32322 32.158766,21.979434 L 37.068811,17.246167 C 37.068811,17.246167 37.088388,32 37.088388,32 L 22.160133,31.978069 C 22.160133,31.978069 26.997745,27.140456 26.997745,27.140456 C 18.528582,18.264221 13.291696,25.230495 11.500037,31.436501 z"
             style="fill:#404040;"/>
          </a>
         </g>
        </svg>
</svg>
