<?xml version="1.0" encoding="UTF-8" standalone="no"?>
<!DOCTYPE svg PUBLIC "-//W3C//DTD SVG 1.1//EN"
 "http://www.w3.org/Graphics/SVG/1.1/DTD/svg11.dtd">
<!-- Generated by graphviz version 2.38.0 (20140413.2041)
 -->
<!-- Title: D:/GIT/fhradiov2/driver/si4735.h Pages: 1 -->
<svg width="1078pt" height="307pt"
 viewBox="0.00 0.00 1078.00 307.00" xmlns="http://www.w3.org/2000/svg" xmlns:xlink="http://www.w3.org/1999/xlink">
<g id="graph0" class="graph" transform="scale(1 1) rotate(0) translate(4 303)">
<title>D:/GIT/fhradiov2/driver/si4735.h</title>
<polygon fill="white" stroke="none" points="-4,4 -4,-303 1074,-303 1074,4 -4,4"/>
<!-- Node1 -->
<g id="node1" class="node"><title>Node1</title>
<polygon fill="#bfbfbf" stroke="black" points="228,-268.5 228,-298.5 338,-298.5 338,-268.5 228,-268.5"/>
<text text-anchor="start" x="236" y="-286.5" font-family="Helvetica,sans-Serif" font-size="10.00">D:/GIT/fhradiov2/driver</text>
<text text-anchor="middle" x="283" y="-275.5" font-family="Helvetica,sans-Serif" font-size="10.00">/si4735.h</text>
</g>
<!-- Node2 -->
<g id="node2" class="node"><title>Node2</title>
<g id="a_node2"><a xlink:href="si4735_8c.html" target="_top" xlink:title="D:/GIT/fhradiov2/driver\l/src/si4735.c">
<polygon fill="white" stroke="black" points="107,-201.5 107,-231.5 217,-231.5 217,-201.5 107,-201.5"/>
<text text-anchor="start" x="115" y="-219.5" font-family="Helvetica,sans-Serif" font-size="10.00">D:/GIT/fhradiov2/driver</text>
<text text-anchor="middle" x="162" y="-208.5" font-family="Helvetica,sans-Serif" font-size="10.00">/src/si4735.c</text>
</a>
</g>
</g>
<!-- Node1&#45;&gt;Node2 -->
<g id="edge1" class="edge"><title>Node1&#45;&gt;Node2</title>
<path fill="none" stroke="midnightblue" d="M247.77,-263.575C228.737,-253.35 205.635,-240.94 188.204,-231.577"/>
<polygon fill="midnightblue" stroke="midnightblue" points="246.279,-266.747 256.745,-268.396 249.592,-260.58 246.279,-266.747"/>
</g>
<!-- Node3 -->
<g id="node3" class="node"><title>Node3</title>
<g id="a_node3"><a xlink:href="main_8c.html" target="_top" xlink:title="D:/GIT/fhradiov2/main.c">
<polygon fill="white" stroke="black" points="276.5,-73 276.5,-92 393.5,-92 393.5,-73 276.5,-73"/>
<text text-anchor="middle" x="335" y="-80" font-family="Helvetica,sans-Serif" font-size="10.00">D:/GIT/fhradiov2/main.c</text>
</a>
</g>
</g>
<!-- Node1&#45;&gt;Node3 -->
<g id="edge2" class="edge"><title>Node1&#45;&gt;Node3</title>
<path fill="none" stroke="midnightblue" d="M293.881,-259.003C304.18,-235.678 319.192,-198.64 327,-165 333.043,-138.964 334.525,-107.215 334.886,-92.1851"/>
<polygon fill="midnightblue" stroke="midnightblue" points="290.564,-257.847 289.657,-268.402 296.949,-260.716 290.564,-257.847"/>
</g>
<!-- Node4 -->
<g id="node4" class="node"><title>Node4</title>
<g id="a_node4"><a xlink:href="radio_8h.html" target="_top" xlink:title="D:/GIT/fhradiov2/system\l/radio.h">
<polygon fill="white" stroke="black" points="408,-201.5 408,-231.5 528,-231.5 528,-201.5 408,-201.5"/>
<text text-anchor="start" x="416" y="-219.5" font-family="Helvetica,sans-Serif" font-size="10.00">D:/GIT/fhradiov2/system</text>
<text text-anchor="middle" x="468" y="-208.5" font-family="Helvetica,sans-Serif" font-size="10.00">/radio.h</text>
</a>
</g>
</g>
<!-- Node1&#45;&gt;Node4 -->
<g id="edge3" class="edge"><title>Node1&#45;&gt;Node4</title>
<path fill="none" stroke="midnightblue" d="M332.935,-264.955C362.736,-254.485 400.075,-241.366 427.936,-231.577"/>
<polygon fill="midnightblue" stroke="midnightblue" points="331.417,-261.779 323.142,-268.396 333.737,-268.383 331.417,-261.779"/>
</g>
<!-- Node11 -->
<g id="node11" class="node"><title>Node11</title>
<g id="a_node11"><a xlink:href="rds_8h.html" target="_top" xlink:title="D:/GIT/fhradiov2/system\l/rds.h">
<polygon fill="white" stroke="black" points="60,-134.5 60,-164.5 180,-164.5 180,-134.5 60,-134.5"/>
<text text-anchor="start" x="68" y="-152.5" font-family="Helvetica,sans-Serif" font-size="10.00">D:/GIT/fhradiov2/system</text>
<text text-anchor="middle" x="120" y="-141.5" font-family="Helvetica,sans-Serif" font-size="10.00">/rds.h</text>
</a>
</g>
</g>
<!-- Node1&#45;&gt;Node11 -->
<g id="edge27" class="edge"><title>Node1&#45;&gt;Node11</title>
<path fill="none" stroke="midnightblue" d="M271.122,-259.3C261.067,-241.496 245.235,-217.286 226,-201 207.175,-185.062 182.465,-172.909 161.638,-164.523"/>
<polygon fill="midnightblue" stroke="midnightblue" points="268.243,-261.332 276.099,-268.441 274.391,-257.984 268.243,-261.332"/>
</g>
<!-- Node13 -->
<g id="node13" class="node"><title>Node13</title>
<g id="a_node13"><a xlink:href="rsq_8h.html" target="_top" xlink:title="D:/GIT/fhradiov2/system\l/rsq.h">
<polygon fill="white" stroke="black" points="198,-134.5 198,-164.5 318,-164.5 318,-134.5 198,-134.5"/>
<text text-anchor="start" x="206" y="-152.5" font-family="Helvetica,sans-Serif" font-size="10.00">D:/GIT/fhradiov2/system</text>
<text text-anchor="middle" x="258" y="-141.5" font-family="Helvetica,sans-Serif" font-size="10.00">/rsq.h</text>
</a>
</g>
</g>
<!-- Node1&#45;&gt;Node13 -->
<g id="edge28" class="edge"><title>Node1&#45;&gt;Node13</title>
<path fill="none" stroke="midnightblue" d="M278.434,-258.39C273.227,-230.901 264.892,-186.888 260.656,-164.525"/>
<polygon fill="midnightblue" stroke="midnightblue" points="275.025,-259.2 280.325,-268.374 281.902,-257.897 275.025,-259.2"/>
</g>
<!-- Node4&#45;&gt;Node3 -->
<g id="edge4" class="edge"><title>Node4&#45;&gt;Node3</title>
<path fill="none" stroke="midnightblue" d="M439.281,-195.284C427.561,-186.51 414.167,-175.784 403,-165 377.815,-140.677 352.557,-107.565 341.207,-92.1081"/>
<polygon fill="midnightblue" stroke="midnightblue" points="437.334,-198.197 447.464,-201.301 441.481,-192.557 437.334,-198.197"/>
</g>
<!-- Node5 -->
<g id="node5" class="node"><title>Node5</title>
<g id="a_node5"><a xlink:href="menu_8h.html" target="_top" xlink:title="D:/GIT/fhradiov2/menu\l/menu.h">
<polygon fill="white" stroke="black" points="412,-134.5 412,-164.5 524,-164.5 524,-134.5 412,-134.5"/>
<text text-anchor="start" x="420" y="-152.5" font-family="Helvetica,sans-Serif" font-size="10.00">D:/GIT/fhradiov2/menu</text>
<text text-anchor="middle" x="468" y="-141.5" font-family="Helvetica,sans-Serif" font-size="10.00">/menu.h</text>
</a>
</g>
</g>
<!-- Node4&#45;&gt;Node5 -->
<g id="edge5" class="edge"><title>Node4&#45;&gt;Node5</title>
<path fill="none" stroke="midnightblue" d="M461.455,-191.403C461.005,-182.37 461.296,-172.408 462.325,-164.577"/>
<polygon fill="midnightblue" stroke="midnightblue" points="457.97,-191.736 462.322,-201.396 464.944,-191.131 457.97,-191.736"/>
</g>
<!-- Node9 -->
<g id="node9" class="node"><title>Node9</title>
<g id="a_node9"><a xlink:href="radio__display_8h.html" target="_top" xlink:title="D:/GIT/fhradiov2/system\l/radio_display.h">
<polygon fill="white" stroke="black" points="542,-134.5 542,-164.5 662,-164.5 662,-134.5 542,-134.5"/>
<text text-anchor="start" x="550" y="-152.5" font-family="Helvetica,sans-Serif" font-size="10.00">D:/GIT/fhradiov2/system</text>
<text text-anchor="middle" x="602" y="-141.5" font-family="Helvetica,sans-Serif" font-size="10.00">/radio_display.h</text>
</a>
</g>
</g>
<!-- Node4&#45;&gt;Node9 -->
<g id="edge12" class="edge"><title>Node4&#45;&gt;Node9</title>
<path fill="none" stroke="midnightblue" d="M500.543,-196.714C520.779,-186.463 546.678,-173.983 567.306,-164.577"/>
<polygon fill="midnightblue" stroke="midnightblue" points="498.704,-193.724 491.398,-201.396 501.894,-199.955 498.704,-193.724"/>
</g>
<!-- Node4&#45;&gt;Node11 -->
<g id="edge15" class="edge"><title>Node4&#45;&gt;Node11</title>
<path fill="none" stroke="midnightblue" d="M397.873,-203.368C341.388,-193.462 259.981,-178.879 189,-165 186.117,-164.436 183.168,-163.851 180.191,-163.253"/>
<polygon fill="midnightblue" stroke="midnightblue" points="397.316,-206.824 407.77,-205.101 398.523,-199.929 397.316,-206.824"/>
</g>
<!-- Node4&#45;&gt;Node13 -->
<g id="edge18" class="edge"><title>Node4&#45;&gt;Node13</title>
<path fill="none" stroke="midnightblue" d="M412.897,-198.444C378.856,-187.908 335.698,-174.549 303.589,-164.611"/>
<polygon fill="midnightblue" stroke="midnightblue" points="412.104,-201.863 422.692,-201.476 414.174,-195.176 412.104,-201.863"/>
</g>
<!-- Node15 -->
<g id="node15" class="node"><title>Node15</title>
<g id="a_node15"><a xlink:href="radio_8c.html" target="_top" xlink:title="D:/GIT/fhradiov2/system\l/src/radio.c">
<polygon fill="white" stroke="black" points="718,-134.5 718,-164.5 838,-164.5 838,-134.5 718,-134.5"/>
<text text-anchor="start" x="726" y="-152.5" font-family="Helvetica,sans-Serif" font-size="10.00">D:/GIT/fhradiov2/system</text>
<text text-anchor="middle" x="778" y="-141.5" font-family="Helvetica,sans-Serif" font-size="10.00">/src/radio.c</text>
</a>
</g>
</g>
<!-- Node4&#45;&gt;Node15 -->
<g id="edge21" class="edge"><title>Node4&#45;&gt;Node15</title>
<path fill="none" stroke="midnightblue" d="M538.002,-200.822C592.127,-189.473 666.269,-173.928 717.765,-163.13"/>
<polygon fill="midnightblue" stroke="midnightblue" points="537.208,-197.413 528.139,-202.89 538.644,-204.264 537.208,-197.413"/>
</g>
<!-- Node16 -->
<g id="node16" class="node"><title>Node16</title>
<g id="a_node16"><a xlink:href="station__list__struct_8h.html" target="_top" xlink:title="D:/GIT/fhradiov2/system\l/station_list_struct.h">
<polygon fill="white" stroke="black" points="856,-134.5 856,-164.5 976,-164.5 976,-134.5 856,-134.5"/>
<text text-anchor="start" x="864" y="-152.5" font-family="Helvetica,sans-Serif" font-size="10.00">D:/GIT/fhradiov2/system</text>
<text text-anchor="middle" x="916" y="-141.5" font-family="Helvetica,sans-Serif" font-size="10.00">/station_list_struct.h</text>
</a>
</g>
</g>
<!-- Node4&#45;&gt;Node16 -->
<g id="edge22" class="edge"><title>Node4&#45;&gt;Node16</title>
<path fill="none" stroke="midnightblue" d="M538.241,-207.732C614.504,-198.927 739.773,-183.384 847,-165 849.896,-164.504 852.855,-163.973 855.84,-163.418"/>
<polygon fill="midnightblue" stroke="midnightblue" points="537.807,-204.258 528.272,-208.876 538.606,-211.213 537.807,-204.258"/>
</g>
<!-- Node5&#45;&gt;Node3 -->
<g id="edge6" class="edge"><title>Node5&#45;&gt;Node3</title>
<path fill="none" stroke="midnightblue" d="M430.079,-129.967C404.53,-117.481 372.031,-101.598 352.407,-92.007"/>
<polygon fill="midnightblue" stroke="midnightblue" points="428.62,-133.15 439.141,-134.396 431.693,-126.86 428.62,-133.15"/>
</g>
<!-- Node5&#45;&gt;Node4 -->
<g id="edge11" class="edge"><title>Node5&#45;&gt;Node4</title>
<path fill="none" stroke="midnightblue" d="M474.544,-174.565C474.995,-183.596 474.706,-193.56 473.678,-201.396"/>
<polygon fill="midnightblue" stroke="midnightblue" points="478.028,-174.236 473.675,-164.577 471.055,-174.842 478.028,-174.236"/>
</g>
<!-- Node6 -->
<g id="node6" class="node"><title>Node6</title>
<g id="a_node6"><a xlink:href="menu__struct_8h.html" target="_top" xlink:title="D:/GIT/fhradiov2/menu\l/menu_struct.h">
<polygon fill="white" stroke="black" points="412,-67.5 412,-97.5 524,-97.5 524,-67.5 412,-67.5"/>
<text text-anchor="start" x="420" y="-85.5" font-family="Helvetica,sans-Serif" font-size="10.00">D:/GIT/fhradiov2/menu</text>
<text text-anchor="middle" x="468" y="-74.5" font-family="Helvetica,sans-Serif" font-size="10.00">/menu_struct.h</text>
</a>
</g>
</g>
<!-- Node5&#45;&gt;Node6 -->
<g id="edge7" class="edge"><title>Node5&#45;&gt;Node6</title>
<path fill="none" stroke="midnightblue" d="M461.455,-124.403C461.005,-115.37 461.296,-105.408 462.325,-97.5765"/>
<polygon fill="midnightblue" stroke="midnightblue" points="457.97,-124.736 462.322,-134.396 464.944,-124.131 457.97,-124.736"/>
</g>
<!-- Node8 -->
<g id="node8" class="node"><title>Node8</title>
<g id="a_node8"><a xlink:href="menu_8c.html" target="_top" xlink:title="D:/GIT/fhradiov2/menu\l/src/menu.c">
<polygon fill="white" stroke="black" points="542,-67.5 542,-97.5 654,-97.5 654,-67.5 542,-67.5"/>
<text text-anchor="start" x="550" y="-85.5" font-family="Helvetica,sans-Serif" font-size="10.00">D:/GIT/fhradiov2/menu</text>
<text text-anchor="middle" x="598" y="-74.5" font-family="Helvetica,sans-Serif" font-size="10.00">/src/menu.c</text>
</a>
</g>
</g>
<!-- Node5&#45;&gt;Node8 -->
<g id="edge10" class="edge"><title>Node5&#45;&gt;Node8</title>
<path fill="none" stroke="midnightblue" d="M505.293,-129.853C525.848,-119.576 550.95,-107.025 569.847,-97.5765"/>
<polygon fill="midnightblue" stroke="midnightblue" points="503.587,-126.793 496.208,-134.396 506.718,-133.054 503.587,-126.793"/>
</g>
<!-- Node6&#45;&gt;Node5 -->
<g id="edge8" class="edge"><title>Node6&#45;&gt;Node5</title>
<path fill="none" stroke="midnightblue" d="M474.544,-107.565C474.995,-116.596 474.706,-126.56 473.678,-134.396"/>
<polygon fill="midnightblue" stroke="midnightblue" points="478.028,-107.236 473.675,-97.5765 471.055,-107.842 478.028,-107.236"/>
</g>
<!-- Node7 -->
<g id="node7" class="node"><title>Node7</title>
<g id="a_node7"><a xlink:href="menu__struct_8c.html" target="_top" xlink:title="D:/GIT/fhradiov2/menu\l/src/menu_struct.c">
<polygon fill="white" stroke="black" points="412,-0.5 412,-30.5 524,-30.5 524,-0.5 412,-0.5"/>
<text text-anchor="start" x="420" y="-18.5" font-family="Helvetica,sans-Serif" font-size="10.00">D:/GIT/fhradiov2/menu</text>
<text text-anchor="middle" x="468" y="-7.5" font-family="Helvetica,sans-Serif" font-size="10.00">/src/menu_struct.c</text>
</a>
</g>
</g>
<!-- Node6&#45;&gt;Node7 -->
<g id="edge9" class="edge"><title>Node6&#45;&gt;Node7</title>
<path fill="none" stroke="midnightblue" d="M468,-57.1081C468,-48.1539 468,-38.3227 468,-30.5765"/>
<polygon fill="midnightblue" stroke="midnightblue" points="464.5,-57.3959 468,-67.396 471.5,-57.396 464.5,-57.3959"/>
</g>
<!-- Node9&#45;&gt;Node4 -->
<g id="edge13" class="edge"><title>Node9&#45;&gt;Node4</title>
<path fill="none" stroke="midnightblue" d="M569.516,-169.256C549.291,-179.503 523.392,-191.984 502.754,-201.396"/>
<polygon fill="midnightblue" stroke="midnightblue" points="571.349,-172.249 578.656,-164.577 568.159,-166.019 571.349,-172.249"/>
</g>
<!-- Node10 -->
<g id="node10" class="node"><title>Node10</title>
<g id="a_node10"><a xlink:href="radio__display_8c.html" target="_top" xlink:title="D:/GIT/fhradiov2/system\l/src/radio_display.c">
<polygon fill="white" stroke="black" points="672,-67.5 672,-97.5 792,-97.5 792,-67.5 672,-67.5"/>
<text text-anchor="start" x="680" y="-85.5" font-family="Helvetica,sans-Serif" font-size="10.00">D:/GIT/fhradiov2/system</text>
<text text-anchor="middle" x="732" y="-74.5" font-family="Helvetica,sans-Serif" font-size="10.00">/src/radio_display.c</text>
</a>
</g>
</g>
<!-- Node9&#45;&gt;Node10 -->
<g id="edge14" class="edge"><title>Node9&#45;&gt;Node10</title>
<path fill="none" stroke="midnightblue" d="M639.293,-129.853C659.848,-119.576 684.95,-107.025 703.847,-97.5765"/>
<polygon fill="midnightblue" stroke="midnightblue" points="637.587,-126.793 630.208,-134.396 640.718,-133.054 637.587,-126.793"/>
</g>
<!-- Node11&#45;&gt;Node3 -->
<g id="edge16" class="edge"><title>Node11&#45;&gt;Node3</title>
<path fill="none" stroke="midnightblue" d="M176.197,-131.51C218.156,-118.825 273.735,-102.022 306.79,-92.0287"/>
<polygon fill="midnightblue" stroke="midnightblue" points="174.946,-128.232 166.387,-134.476 176.972,-134.932 174.946,-128.232"/>
</g>
<!-- Node12 -->
<g id="node12" class="node"><title>Node12</title>
<g id="a_node12"><a xlink:href="rds_8c.html" target="_top" xlink:title="D:/GIT/fhradiov2/system\l/src/rds.c">
<polygon fill="white" stroke="black" points="0,-67.5 0,-97.5 120,-97.5 120,-67.5 0,-67.5"/>
<text text-anchor="start" x="8" y="-85.5" font-family="Helvetica,sans-Serif" font-size="10.00">D:/GIT/fhradiov2/system</text>
<text text-anchor="middle" x="60" y="-74.5" font-family="Helvetica,sans-Serif" font-size="10.00">/src/rds.c</text>
</a>
</g>
</g>
<!-- Node11&#45;&gt;Node12 -->
<g id="edge17" class="edge"><title>Node11&#45;&gt;Node12</title>
<path fill="none" stroke="midnightblue" d="M100.176,-127.024C91.2368,-117.34 80.9298,-106.174 72.9937,-97.5765"/>
<polygon fill="midnightblue" stroke="midnightblue" points="97.6262,-129.422 106.981,-134.396 102.77,-124.674 97.6262,-129.422"/>
</g>
<!-- Node13&#45;&gt;Node3 -->
<g id="edge19" class="edge"><title>Node13&#45;&gt;Node3</title>
<path fill="none" stroke="midnightblue" d="M282.673,-127.672C296.89,-115.671 314.008,-101.22 324.7,-92.1945"/>
<polygon fill="midnightblue" stroke="midnightblue" points="280.092,-125.271 274.708,-134.396 284.607,-130.62 280.092,-125.271"/>
</g>
<!-- Node14 -->
<g id="node14" class="node"><title>Node14</title>
<g id="a_node14"><a xlink:href="rsq_8c.html" target="_top" xlink:title="D:/GIT/fhradiov2/system\l/src/rsq.c">
<polygon fill="white" stroke="black" points="138,-67.5 138,-97.5 258,-97.5 258,-67.5 138,-67.5"/>
<text text-anchor="start" x="146" y="-85.5" font-family="Helvetica,sans-Serif" font-size="10.00">D:/GIT/fhradiov2/system</text>
<text text-anchor="middle" x="198" y="-74.5" font-family="Helvetica,sans-Serif" font-size="10.00">/src/rsq.c</text>
</a>
</g>
</g>
<!-- Node13&#45;&gt;Node14 -->
<g id="edge20" class="edge"><title>Node13&#45;&gt;Node14</title>
<path fill="none" stroke="midnightblue" d="M238.176,-127.024C229.237,-117.34 218.93,-106.174 210.994,-97.5765"/>
<polygon fill="midnightblue" stroke="midnightblue" points="235.626,-129.422 244.981,-134.396 240.77,-124.674 235.626,-129.422"/>
</g>
<!-- Node17 -->
<g id="node17" class="node"><title>Node17</title>
<g id="a_node17"><a xlink:href="station__list__struct_8c.html" target="_top" xlink:title="D:/GIT/fhradiov2/system\l/src/station_list_struct.c">
<polygon fill="white" stroke="black" points="948,-67.5 948,-97.5 1070,-97.5 1070,-67.5 948,-67.5"/>
<text text-anchor="start" x="956" y="-85.5" font-family="Helvetica,sans-Serif" font-size="10.00">D:/GIT/fhradiov2/system</text>
<text text-anchor="middle" x="1009" y="-74.5" font-family="Helvetica,sans-Serif" font-size="10.00">/src/station_list_struct.c</text>
</a>
</g>
</g>
<!-- Node16&#45;&gt;Node17 -->
<g id="edge23" class="edge"><title>Node16&#45;&gt;Node17</title>
<path fill="none" stroke="midnightblue" d="M944.685,-128.451C958.992,-118.452 975.95,-106.6 988.86,-97.5765"/>
<polygon fill="midnightblue" stroke="midnightblue" points="942.371,-125.798 936.18,-134.396 946.381,-131.536 942.371,-125.798"/>
</g>
<!-- Node18 -->
<g id="node18" class="node"><title>Node18</title>
<g id="a_node18"><a xlink:href="station__list_8h.html" target="_top" xlink:title="D:/GIT/fhradiov2/system\l/station_list.h">
<polygon fill="white" stroke="black" points="810,-67.5 810,-97.5 930,-97.5 930,-67.5 810,-67.5"/>
<text text-anchor="start" x="818" y="-85.5" font-family="Helvetica,sans-Serif" font-size="10.00">D:/GIT/fhradiov2/system</text>
<text text-anchor="middle" x="870" y="-74.5" font-family="Helvetica,sans-Serif" font-size="10.00">/station_list.h</text>
</a>
</g>
</g>
<!-- Node16&#45;&gt;Node18 -->
<g id="edge24" class="edge"><title>Node16&#45;&gt;Node18</title>
<path fill="none" stroke="midnightblue" d="M900.188,-126.157C893.48,-116.679 885.865,-105.919 879.962,-97.5765"/>
<polygon fill="midnightblue" stroke="midnightblue" points="897.385,-128.255 906.019,-134.396 903.099,-124.211 897.385,-128.255"/>
</g>
<!-- Node18&#45;&gt;Node4 -->
<g id="edge25" class="edge"><title>Node18&#45;&gt;Node4</title>
<path fill="none" stroke="midnightblue" d="M800.002,-99.2157C770.845,-107.326 737.268,-118.772 709,-134 689.811,-144.337 690.491,-155.245 671,-165 625.858,-187.594 569.89,-200.541 528.161,-207.655"/>
<polygon fill="midnightblue" stroke="midnightblue" points="800.966,-102.581 809.706,-96.5923 799.139,-95.8233 800.966,-102.581"/>
</g>
<!-- Node19 -->
<g id="node19" class="node"><title>Node19</title>
<g id="a_node19"><a xlink:href="station__list_8c.html" target="_top" xlink:title="D:/GIT/fhradiov2/system\l/src/station_list.c">
<polygon fill="white" stroke="black" points="810,-0.5 810,-30.5 930,-30.5 930,-0.5 810,-0.5"/>
<text text-anchor="start" x="818" y="-18.5" font-family="Helvetica,sans-Serif" font-size="10.00">D:/GIT/fhradiov2/system</text>
<text text-anchor="middle" x="870" y="-7.5" font-family="Helvetica,sans-Serif" font-size="10.00">/src/station_list.c</text>
</a>
</g>
</g>
<!-- Node18&#45;&gt;Node19 -->
<g id="edge26" class="edge"><title>Node18&#45;&gt;Node19</title>
<path fill="none" stroke="midnightblue" d="M870,-57.1081C870,-48.1539 870,-38.3227 870,-30.5765"/>
<polygon fill="midnightblue" stroke="midnightblue" points="866.5,-57.3959 870,-67.396 873.5,-57.396 866.5,-57.3959"/>
</g>
</g>
</svg>
