<?xml version="1.0" encoding="UTF-8" standalone="no"?>
<!DOCTYPE svg PUBLIC "-//W3C//DTD SVG 1.1//EN"
 "http://www.w3.org/Graphics/SVG/1.1/DTD/svg11.dtd">
<!-- Generated by graphviz version 2.38.0 (20140413.2041)
 -->
<!-- Title: D:/GIT/fhradiov2/driver/src/si4735.c Pages: 1 -->
<svg width="554pt" height="397pt"
 viewBox="0.00 0.00 554.00 397.00" xmlns="http://www.w3.org/2000/svg" xmlns:xlink="http://www.w3.org/1999/xlink">
<g id="graph0" class="graph" transform="scale(1 1) rotate(0) translate(4 393)">
<title>D:/GIT/fhradiov2/driver/src/si4735.c</title>
<polygon fill="white" stroke="none" points="-4,4 -4,-393 550,-393 550,4 -4,4"/>
<!-- Node1 -->
<g id="node1" class="node"><title>Node1</title>
<polygon fill="#bfbfbf" stroke="black" points="316,-358.5 316,-388.5 426,-388.5 426,-358.5 316,-358.5"/>
<text text-anchor="start" x="324" y="-376.5" font-family="Helvetica,sans-Serif" font-size="10.00">D:/GIT/fhradiov2/driver</text>
<text text-anchor="middle" x="371" y="-365.5" font-family="Helvetica,sans-Serif" font-size="10.00">/src/si4735.c</text>
</g>
<!-- Node2 -->
<g id="node2" class="node"><title>Node2</title>
<g id="a_node2"><a xlink:href="si4735_8h.html" target="_top" xlink:title="driver/si4735.h">
<polygon fill="white" stroke="black" points="116.5,-302.5 116.5,-321.5 195.5,-321.5 195.5,-302.5 116.5,-302.5"/>
<text text-anchor="middle" x="156" y="-309.5" font-family="Helvetica,sans-Serif" font-size="10.00">driver/si4735.h</text>
</a>
</g>
</g>
<!-- Node1&#45;&gt;Node2 -->
<g id="edge1" class="edge"><title>Node1&#45;&gt;Node2</title>
<path fill="none" stroke="midnightblue" d="M320.32,-358.475C282.58,-348.03 231.729,-333.958 196.64,-324.247"/>
<polygon fill="midnightblue" stroke="midnightblue" points="197.309,-320.8 186.737,-321.506 195.442,-327.547 197.309,-320.8"/>
</g>
<!-- Node9 -->
<g id="node9" class="node"><title>Node9</title>
<g id="a_node9"><a xlink:href="radio__configuration_8h.html" target="_top" xlink:title="settings/radio_configuration.h">
<polygon fill="white" stroke="black" points="374.5,-123.5 374.5,-142.5 517.5,-142.5 517.5,-123.5 374.5,-123.5"/>
<text text-anchor="middle" x="446" y="-130.5" font-family="Helvetica,sans-Serif" font-size="10.00">settings/radio_configuration.h</text>
</a>
</g>
</g>
<!-- Node1&#45;&gt;Node9 -->
<g id="edge17" class="edge"><title>Node1&#45;&gt;Node9</title>
<path fill="none" stroke="midnightblue" d="M380.128,-358.406C386.185,-348.539 393.925,-334.87 399,-322 422.508,-262.387 437.053,-187.411 442.959,-152.931"/>
<polygon fill="midnightblue" stroke="midnightblue" points="446.444,-153.31 444.631,-142.872 439.538,-152.162 446.444,-153.31"/>
</g>
<!-- Node10 -->
<g id="node10" class="node"><title>Node10</title>
<g id="a_node10"><a xlink:href="si4735__cmd__prop_8h.html" target="_top" xlink:title="driver/include/si4735\l_cmd_prop.h">
<polygon fill="white" stroke="black" points="394,-56.5 394,-86.5 498,-86.5 498,-56.5 394,-56.5"/>
<text text-anchor="start" x="402" y="-74.5" font-family="Helvetica,sans-Serif" font-size="10.00">driver/include/si4735</text>
<text text-anchor="middle" x="446" y="-63.5" font-family="Helvetica,sans-Serif" font-size="10.00">_cmd_prop.h</text>
</a>
</g>
</g>
<!-- Node1&#45;&gt;Node10 -->
<g id="edge16" class="edge"><title>Node1&#45;&gt;Node10</title>
<path fill="none" stroke="midnightblue" d="M426.371,-359.147C477.641,-343.09 546,-310.599 546,-251.5 546,-251.5 546,-251.5 546,-188 546,-157.775 544.367,-147.005 526,-123 516.094,-110.052 501.843,-99.5533 488.105,-91.5504"/>
<polygon fill="midnightblue" stroke="midnightblue" points="489.651,-88.4063 479.203,-86.6512 486.276,-94.539 489.651,-88.4063"/>
</g>
<!-- Node12 -->
<g id="node12" class="node"><title>Node12</title>
<g id="a_node12"><a xlink:href="external__interrupthandler_8h.html" target="_top" xlink:title="driver/external_interrupthandler.h">
<polygon fill="white" stroke="black" points="233.5,-302.5 233.5,-321.5 390.5,-321.5 390.5,-302.5 233.5,-302.5"/>
<text text-anchor="middle" x="312" y="-309.5" font-family="Helvetica,sans-Serif" font-size="10.00">driver/external_interrupthandler.h</text>
</a>
</g>
</g>
<!-- Node1&#45;&gt;Node12 -->
<g id="edge18" class="edge"><title>Node1&#45;&gt;Node12</title>
<path fill="none" stroke="midnightblue" d="M357.018,-358.399C348.268,-349.575 336.971,-338.183 327.883,-329.018"/>
<polygon fill="midnightblue" stroke="midnightblue" points="330.112,-326.294 320.585,-321.658 325.141,-331.223 330.112,-326.294"/>
</g>
<!-- Node3 -->
<g id="node3" class="node"><title>Node3</title>
<polygon fill="white" stroke="#bfbfbf" points="283.5,-0.5 283.5,-19.5 332.5,-19.5 332.5,-0.5 283.5,-0.5"/>
<text text-anchor="middle" x="308" y="-7.5" font-family="Helvetica,sans-Serif" font-size="10.00">stdint.h</text>
</g>
<!-- Node2&#45;&gt;Node3 -->
<g id="edge2" class="edge"><title>Node2&#45;&gt;Node3</title>
<path fill="none" stroke="midnightblue" d="M125.179,-302.395C79.7162,-287.603 0,-252.724 0,-190 0,-190 0,-190 0,-132 0,-73.8565 192.55,-32.0132 273.162,-17.0431"/>
<polygon fill="midnightblue" stroke="midnightblue" points="274.107,-20.4286 283.316,-15.1901 272.85,-13.5423 274.107,-20.4286"/>
</g>
<!-- Node4 -->
<g id="node4" class="node"><title>Node4</title>
<g id="a_node4"><a xlink:href="i2c_8h.html" target="_top" xlink:title="I2C implemtation for MSP430G2553, interrupt based. &#160;&#160;This implemtation based on examples from Texas I...">
<polygon fill="white" stroke="black" points="64.5,-241 64.5,-260 127.5,-260 127.5,-241 64.5,-241"/>
<text text-anchor="middle" x="96" y="-248" font-family="Helvetica,sans-Serif" font-size="10.00">driver/i2c.h</text>
</a>
</g>
</g>
<!-- Node2&#45;&gt;Node4 -->
<g id="edge3" class="edge"><title>Node2&#45;&gt;Node4</title>
<path fill="none" stroke="midnightblue" d="M147.403,-302.475C138.136,-293.285 123.183,-278.456 111.788,-267.156"/>
<polygon fill="midnightblue" stroke="midnightblue" points="114.146,-264.565 104.581,-260.009 109.217,-269.536 114.146,-264.565"/>
</g>
<!-- Node8 -->
<g id="node8" class="node"><title>Node8</title>
<g id="a_node8"><a xlink:href="timer_8h.html" target="_top" xlink:title="driver/timer.h">
<polygon fill="white" stroke="black" points="278,-179.5 278,-198.5 350,-198.5 350,-179.5 278,-179.5"/>
<text text-anchor="middle" x="314" y="-186.5" font-family="Helvetica,sans-Serif" font-size="10.00">driver/timer.h</text>
</a>
</g>
</g>
<!-- Node2&#45;&gt;Node8 -->
<g id="edge14" class="edge"><title>Node2&#45;&gt;Node8</title>
<path fill="none" stroke="midnightblue" d="M155.62,-302.216C155.439,-286.601 157.36,-253.884 175,-235 198.879,-209.437 237.369,-198.357 267.798,-193.574"/>
<polygon fill="midnightblue" stroke="midnightblue" points="268.356,-197.03 277.776,-192.181 267.388,-190.097 268.356,-197.03"/>
</g>
<!-- Node11 -->
<g id="node11" class="node"><title>Node11</title>
<g id="a_node11"><a xlink:href="radio__pin__mapping_8h.html" target="_top" xlink:title="settings/radio_pin\l_mapping.h">
<polygon fill="white" stroke="black" points="184.5,-235.5 184.5,-265.5 277.5,-265.5 277.5,-235.5 184.5,-235.5"/>
<text text-anchor="start" x="192.5" y="-253.5" font-family="Helvetica,sans-Serif" font-size="10.00">settings/radio_pin</text>
<text text-anchor="middle" x="231" y="-242.5" font-family="Helvetica,sans-Serif" font-size="10.00">_mapping.h</text>
</a>
</g>
</g>
<!-- Node2&#45;&gt;Node11 -->
<g id="edge15" class="edge"><title>Node2&#45;&gt;Node11</title>
<path fill="none" stroke="midnightblue" d="M166.746,-302.475C176.808,-294.492 192.234,-282.254 205.449,-271.77"/>
<polygon fill="midnightblue" stroke="midnightblue" points="207.665,-274.48 213.324,-265.523 203.315,-268.996 207.665,-274.48"/>
</g>
<!-- Node4&#45;&gt;Node3 -->
<g id="edge4" class="edge"><title>Node4&#45;&gt;Node3</title>
<path fill="none" stroke="midnightblue" d="M85.1018,-240.862C69.7792,-227.615 45.0084,-201.456 57,-179 103.253,-92.3849 216.138,-42.5942 273.429,-22.0994"/>
<polygon fill="midnightblue" stroke="midnightblue" points="274.829,-25.3181 283.121,-18.723 272.526,-18.7078 274.829,-25.3181"/>
</g>
<!-- Node5 -->
<g id="node5" class="node"><title>Node5</title>
<polygon fill="white" stroke="#bfbfbf" points="220.5,-123.5 220.5,-142.5 279.5,-142.5 279.5,-123.5 220.5,-123.5"/>
<text text-anchor="middle" x="250" y="-130.5" font-family="Helvetica,sans-Serif" font-size="10.00">msp430.h</text>
</g>
<!-- Node4&#45;&gt;Node5 -->
<g id="edge5" class="edge"><title>Node4&#45;&gt;Node5</title>
<path fill="none" stroke="midnightblue" d="M117.78,-240.941C138.381,-232.228 169.552,-217.404 193,-199 210.627,-185.165 227.081,-165.36 237.734,-151.253"/>
<polygon fill="midnightblue" stroke="midnightblue" points="240.752,-153.057 243.852,-142.926 235.111,-148.913 240.752,-153.057"/>
</g>
<!-- Node6 -->
<g id="node6" class="node"><title>Node6</title>
<polygon fill="white" stroke="#bfbfbf" points="66,-179.5 66,-198.5 114,-198.5 114,-179.5 66,-179.5"/>
<text text-anchor="middle" x="90" y="-186.5" font-family="Helvetica,sans-Serif" font-size="10.00">stdlib.h</text>
</g>
<!-- Node4&#45;&gt;Node6 -->
<g id="edge6" class="edge"><title>Node4&#45;&gt;Node6</title>
<path fill="none" stroke="midnightblue" d="M95.1403,-240.975C94.2938,-232.58 92.9728,-219.481 91.882,-208.663"/>
<polygon fill="midnightblue" stroke="midnightblue" points="95.3438,-208.107 90.8581,-198.509 88.3791,-208.81 95.3438,-208.107"/>
</g>
<!-- Node7 -->
<g id="node7" class="node"><title>Node7</title>
<polygon fill="white" stroke="#bfbfbf" points="132,-179.5 132,-198.5 184,-198.5 184,-179.5 132,-179.5"/>
<text text-anchor="middle" x="158" y="-186.5" font-family="Helvetica,sans-Serif" font-size="10.00">stdarg.h</text>
</g>
<!-- Node4&#45;&gt;Node7 -->
<g id="edge7" class="edge"><title>Node4&#45;&gt;Node7</title>
<path fill="none" stroke="midnightblue" d="M104.883,-240.975C114.459,-231.785 129.911,-216.956 141.686,-205.656"/>
<polygon fill="midnightblue" stroke="midnightblue" points="144.342,-207.958 149.133,-198.509 139.495,-202.908 144.342,-207.958"/>
</g>
<!-- Node4&#45;&gt;Node8 -->
<g id="edge8" class="edge"><title>Node4&#45;&gt;Node8</title>
<path fill="none" stroke="midnightblue" d="M122.204,-240.994C128.657,-238.967 135.563,-236.855 142,-235 185.056,-222.59 234.59,-209.784 269.41,-201.022"/>
<polygon fill="midnightblue" stroke="midnightblue" points="270.422,-204.377 279.271,-198.55 268.72,-197.587 270.422,-204.377"/>
</g>
<!-- Node8&#45;&gt;Node3 -->
<g id="edge10" class="edge"><title>Node8&#45;&gt;Node3</title>
<path fill="none" stroke="midnightblue" d="M313.711,-179.463C312.794,-152.428 309.94,-68.2392 308.648,-30.109"/>
<polygon fill="midnightblue" stroke="midnightblue" points="312.137,-29.744 308.301,-19.8684 305.142,-29.9812 312.137,-29.744"/>
</g>
<!-- Node8&#45;&gt;Node5 -->
<g id="edge9" class="edge"><title>Node8&#45;&gt;Node5</title>
<path fill="none" stroke="midnightblue" d="M303.717,-179.324C294.164,-171.263 279.72,-159.077 268.216,-149.369"/>
<polygon fill="midnightblue" stroke="midnightblue" points="270.37,-146.608 260.47,-142.834 265.856,-151.958 270.37,-146.608"/>
</g>
<!-- Node8&#45;&gt;Node9 -->
<g id="edge11" class="edge"><title>Node8&#45;&gt;Node9</title>
<path fill="none" stroke="midnightblue" d="M334.916,-179.444C356.736,-170.517 391.15,-156.439 415.892,-146.317"/>
<polygon fill="midnightblue" stroke="midnightblue" points="417.252,-149.542 425.182,-142.516 414.601,-143.063 417.252,-149.542"/>
</g>
<!-- Node9&#45;&gt;Node10 -->
<g id="edge12" class="edge"><title>Node9&#45;&gt;Node10</title>
<path fill="none" stroke="midnightblue" d="M446,-123.475C446,-116.471 446,-106.192 446,-96.6956"/>
<polygon fill="midnightblue" stroke="midnightblue" points="449.5,-96.5229 446,-86.523 442.5,-96.523 449.5,-96.5229"/>
</g>
<!-- Node10&#45;&gt;Node3 -->
<g id="edge13" class="edge"><title>Node10&#45;&gt;Node3</title>
<path fill="none" stroke="midnightblue" d="M413.296,-56.3993C390.245,-46.4608 359.64,-33.2649 337.368,-23.6625"/>
<polygon fill="midnightblue" stroke="midnightblue" points="338.649,-20.4031 328.08,-19.6578 335.877,-26.8311 338.649,-20.4031"/>
</g>
<!-- Node12&#45;&gt;Node3 -->
<g id="edge20" class="edge"><title>Node12&#45;&gt;Node3</title>
<path fill="none" stroke="midnightblue" d="M317.032,-302.385C327.389,-284.095 350.801,-239.725 359,-199 371.823,-135.304 336.674,-61.3265 318.336,-28.3754"/>
<polygon fill="midnightblue" stroke="midnightblue" points="321.269,-26.4545 313.256,-19.5232 315.197,-29.9386 321.269,-26.4545"/>
</g>
<!-- Node12&#45;&gt;Node5 -->
<g id="edge19" class="edge"><title>Node12&#45;&gt;Node5</title>
<path fill="none" stroke="midnightblue" d="M309.418,-302.452C305.058,-288.264 295.751,-259.035 286,-235 279.348,-218.604 275.279,-215.543 269,-199 263.133,-183.543 257.978,-165.454 254.524,-152.288"/>
<polygon fill="midnightblue" stroke="midnightblue" points="257.904,-151.38 252.044,-142.554 251.121,-153.108 257.904,-151.38"/>
</g>
<!-- Node12&#45;&gt;Node11 -->
<g id="edge21" class="edge"><title>Node12&#45;&gt;Node11</title>
<path fill="none" stroke="midnightblue" d="M300.395,-302.475C289.424,-294.417 272.552,-282.023 258.192,-271.474"/>
<polygon fill="midnightblue" stroke="midnightblue" points="260.221,-268.622 250.09,-265.523 256.077,-274.264 260.221,-268.622"/>
</g>
</g>
</svg>
