<?xml version="1.0" encoding="UTF-8" standalone="no"?>
<!DOCTYPE svg PUBLIC "-//W3C//DTD SVG 1.1//EN"
 "http://www.w3.org/Graphics/SVG/1.1/DTD/svg11.dtd">
<!-- Generated by graphviz version 2.38.0 (20140413.2041)
 -->
<!-- Title: D:/GIT/fhradiov2/system/src/station_list.c Pages: 1 -->
<svg width="1618pt" height="699pt"
 viewBox="0.00 0.00 1617.50 699.00" xmlns="http://www.w3.org/2000/svg" xmlns:xlink="http://www.w3.org/1999/xlink">
<g id="graph0" class="graph" transform="scale(1 1) rotate(0) translate(4 695)">
<title>D:/GIT/fhradiov2/system/src/station_list.c</title>
<polygon fill="white" stroke="none" points="-4,4 -4,-695 1613.5,-695 1613.5,4 -4,4"/>
<!-- Node1 -->
<g id="node1" class="node"><title>Node1</title>
<polygon fill="#bfbfbf" stroke="black" points="376,-660.5 376,-690.5 496,-690.5 496,-660.5 376,-660.5"/>
<text text-anchor="start" x="384" y="-678.5" font-family="Helvetica,sans-Serif" font-size="10.00">D:/GIT/fhradiov2/system</text>
<text text-anchor="middle" x="436" y="-667.5" font-family="Helvetica,sans-Serif" font-size="10.00">/src/station_list.c</text>
</g>
<!-- Node2 -->
<g id="node2" class="node"><title>Node2</title>
<g id="a_node2"><a xlink:href="station__list_8h.html" target="_top" xlink:title="system/station_list.h">
<polygon fill="white" stroke="black" points="382.5,-604.5 382.5,-623.5 489.5,-623.5 489.5,-604.5 382.5,-604.5"/>
<text text-anchor="middle" x="436" y="-611.5" font-family="Helvetica,sans-Serif" font-size="10.00">system/station_list.h</text>
</a>
</g>
</g>
<!-- Node1&#45;&gt;Node2 -->
<g id="edge1" class="edge"><title>Node1&#45;&gt;Node2</title>
<path fill="none" stroke="midnightblue" d="M436,-660.399C436,-652.466 436,-642.458 436,-633.858"/>
<polygon fill="midnightblue" stroke="midnightblue" points="439.5,-633.658 436,-623.658 432.5,-633.658 439.5,-633.658"/>
</g>
<!-- Node3 -->
<g id="node3" class="node"><title>Node3</title>
<polygon fill="white" stroke="#bfbfbf" points="909.5,-0.5 909.5,-19.5 958.5,-19.5 958.5,-0.5 909.5,-0.5"/>
<text text-anchor="middle" x="934" y="-7.5" font-family="Helvetica,sans-Serif" font-size="10.00">stdint.h</text>
</g>
<!-- Node2&#45;&gt;Node3 -->
<g id="edge2" class="edge"><title>Node2&#45;&gt;Node3</title>
<path fill="none" stroke="midnightblue" d="M382.101,-609.405C265.448,-600.146 0,-570.457 0,-492 0,-492 0,-492 0,-132 0,-90.8199 16.9889,-75.975 53,-56 127.876,-14.467 744.24,-11.1573 898.902,-10.9844"/>
<polygon fill="midnightblue" stroke="midnightblue" points="899.229,-14.4842 909.226,-10.9768 899.223,-7.48422 899.229,-14.4842"/>
</g>
<!-- Node4 -->
<g id="node4" class="node"><title>Node4</title>
<g id="a_node4"><a xlink:href="station__list__struct_8h.html" target="_top" xlink:title="system/station_list\l_struct.h">
<polygon fill="white" stroke="black" points="386.5,-537.5 386.5,-567.5 485.5,-567.5 485.5,-537.5 386.5,-537.5"/>
<text text-anchor="start" x="394.5" y="-555.5" font-family="Helvetica,sans-Serif" font-size="10.00">system/station_list</text>
<text text-anchor="middle" x="436" y="-544.5" font-family="Helvetica,sans-Serif" font-size="10.00">_struct.h</text>
</a>
</g>
</g>
<!-- Node2&#45;&gt;Node4 -->
<g id="edge3" class="edge"><title>Node2&#45;&gt;Node4</title>
<path fill="none" stroke="midnightblue" d="M436,-604.475C436,-597.471 436,-587.192 436,-577.696"/>
<polygon fill="midnightblue" stroke="midnightblue" points="439.5,-577.523 436,-567.523 432.5,-577.523 439.5,-577.523"/>
</g>
<!-- Node4&#45;&gt;Node3 -->
<g id="edge4" class="edge"><title>Node4&#45;&gt;Node3</title>
<path fill="none" stroke="midnightblue" d="M386.398,-547.593C279.707,-537.822 38,-507.768 38,-436 38,-436 38,-436 38,-132 38,-83.9157 71.0337,-75.4696 115,-56 187.406,-23.9365 752.295,-13.6188 899.186,-11.4643"/>
<polygon fill="midnightblue" stroke="midnightblue" points="899.465,-14.9608 909.414,-11.3177 899.365,-7.96151 899.465,-14.9608"/>
</g>
<!-- Node5 -->
<g id="node5" class="node"><title>Node5</title>
<g id="a_node5"><a xlink:href="radio_8h.html" target="_top" xlink:title="system/radio.h">
<polygon fill="white" stroke="black" points="857.5,-481.5 857.5,-500.5 938.5,-500.5 938.5,-481.5 857.5,-481.5"/>
<text text-anchor="middle" x="898" y="-488.5" font-family="Helvetica,sans-Serif" font-size="10.00">system/radio.h</text>
</a>
</g>
</g>
<!-- Node4&#45;&gt;Node5 -->
<g id="edge5" class="edge"><title>Node4&#45;&gt;Node5</title>
<path fill="none" stroke="midnightblue" d="M485.881,-545.076C574.423,-533.673 758.103,-510.017 847.257,-498.535"/>
<polygon fill="midnightblue" stroke="midnightblue" points="847.92,-501.979 857.391,-497.23 847.026,-495.036 847.92,-501.979"/>
</g>
<!-- Node5&#45;&gt;Node2 -->
<g id="edge68" class="edge"><title>Node5&#45;&gt;Node2</title>
<path fill="none" stroke="midnightblue" d="M865.24,-500.58C783.284,-522.045 569.43,-578.054 478.215,-601.944"/>
<polygon fill="midnightblue" stroke="midnightblue" points="477.274,-598.572 468.487,-604.492 479.047,-605.344 477.274,-598.572"/>
</g>
<!-- Node5&#45;&gt;Node3 -->
<g id="edge6" class="edge"><title>Node5&#45;&gt;Node3</title>
<path fill="none" stroke="midnightblue" d="M938.537,-488.806C1057.33,-485.007 1398.94,-471.843 1441,-445 1469.02,-427.118 1478,-413.241 1478,-380 1478,-380 1478,-380 1478,-132 1478,-77.9292 1433.07,-76.4228 1383,-56 1307.9,-25.3666 1060.57,-14.8487 968.731,-11.9466"/>
<polygon fill="midnightblue" stroke="midnightblue" points="968.676,-8.44336 958.574,-11.6369 968.463,-15.4401 968.676,-8.44336"/>
</g>
<!-- Node6 -->
<g id="node6" class="node"><title>Node6</title>
<g id="a_node6"><a xlink:href="pca9530_8h.html" target="_top" xlink:title="driver/pca9530.h">
<polygon fill="white" stroke="black" points="66.5,-308 66.5,-327 153.5,-327 153.5,-308 66.5,-308"/>
<text text-anchor="middle" x="110" y="-315" font-family="Helvetica,sans-Serif" font-size="10.00">driver/pca9530.h</text>
</a>
</g>
</g>
<!-- Node5&#45;&gt;Node6 -->
<g id="edge7" class="edge"><title>Node5&#45;&gt;Node6</title>
<path fill="none" stroke="midnightblue" d="M857.099,-489.29C742.238,-486.909 418.569,-477.428 318,-445 240.867,-420.129 162.588,-361.545 128.153,-333.705"/>
<polygon fill="midnightblue" stroke="midnightblue" points="130.324,-330.959 120.371,-327.329 125.888,-336.374 130.324,-330.959"/>
</g>
<!-- Node11 -->
<g id="node11" class="node"><title>Node11</title>
<g id="a_node11"><a xlink:href="timer_8h.html" target="_top" xlink:title="driver/timer.h">
<polygon fill="white" stroke="black" points="462,-179.5 462,-198.5 534,-198.5 534,-179.5 462,-179.5"/>
<text text-anchor="middle" x="498" y="-186.5" font-family="Helvetica,sans-Serif" font-size="10.00">driver/timer.h</text>
</a>
</g>
</g>
<!-- Node5&#45;&gt;Node11 -->
<g id="edge51" class="edge"><title>Node5&#45;&gt;Node11</title>
<path fill="none" stroke="midnightblue" d="M857.285,-490.997C762.983,-490.786 530.377,-475.22 435,-333 424.65,-317.566 432.771,-253.637 443,-235 449.979,-222.284 462.148,-211.757 473.268,-204.09"/>
<polygon fill="midnightblue" stroke="midnightblue" points="475.331,-206.924 481.842,-198.567 471.54,-201.04 475.331,-206.924"/>
</g>
<!-- Node12 -->
<g id="node12" class="node"><title>Node12</title>
<g id="a_node12"><a xlink:href="radio__configuration_8h.html" target="_top" xlink:title="settings/radio_configuration.h">
<polygon fill="white" stroke="black" points="1038.5,-123.5 1038.5,-142.5 1181.5,-142.5 1181.5,-123.5 1038.5,-123.5"/>
<text text-anchor="middle" x="1110" y="-130.5" font-family="Helvetica,sans-Serif" font-size="10.00">settings/radio_configuration.h</text>
</a>
</g>
</g>
<!-- Node5&#45;&gt;Node12 -->
<g id="edge67" class="edge"><title>Node5&#45;&gt;Node12</title>
<path fill="none" stroke="midnightblue" d="M938.68,-482.878C987.212,-471.989 1066.38,-446.11 1103,-389 1151.49,-313.391 1127.54,-197.535 1115.5,-152.657"/>
<polygon fill="midnightblue" stroke="midnightblue" points="1118.82,-151.526 1112.74,-142.844 1112.08,-153.418 1118.82,-151.526"/>
</g>
<!-- Node13 -->
<g id="node13" class="node"><title>Node13</title>
<g id="a_node13"><a xlink:href="si4735__cmd__prop_8h.html" target="_top" xlink:title="driver/include/si4735\l_cmd_prop.h">
<polygon fill="white" stroke="black" points="1058,-56.5 1058,-86.5 1162,-86.5 1162,-56.5 1058,-56.5"/>
<text text-anchor="start" x="1066" y="-74.5" font-family="Helvetica,sans-Serif" font-size="10.00">driver/include/si4735</text>
<text text-anchor="middle" x="1110" y="-63.5" font-family="Helvetica,sans-Serif" font-size="10.00">_cmd_prop.h</text>
</a>
</g>
</g>
<!-- Node5&#45;&gt;Node13 -->
<g id="edge27" class="edge"><title>Node5&#45;&gt;Node13</title>
<path fill="none" stroke="midnightblue" d="M938.609,-485.983C975.347,-480.888 1029.84,-469.588 1071,-445 1100.16,-427.583 1105.37,-418.032 1123,-389 1186.28,-284.792 1248.86,-229.764 1190,-123 1182.59,-109.56 1169.93,-99.204 1156.84,-91.4704"/>
<polygon fill="midnightblue" stroke="midnightblue" points="1158.23,-88.2395 1147.77,-86.5298 1154.88,-94.3868 1158.23,-88.2395"/>
</g>
<!-- Node14 -->
<g id="node14" class="node"><title>Node14</title>
<g id="a_node14"><a xlink:href="log__exp__table_8h.html" target="_top" xlink:title="libs/log_exp_table.h">
<polygon fill="white" stroke="black" points="1506.5,-62 1506.5,-81 1609.5,-81 1609.5,-62 1506.5,-62"/>
<text text-anchor="middle" x="1558" y="-69" font-family="Helvetica,sans-Serif" font-size="10.00">libs/log_exp_table.h</text>
</a>
</g>
</g>
<!-- Node5&#45;&gt;Node14 -->
<g id="edge20" class="edge"><title>Node5&#45;&gt;Node14</title>
<path fill="none" stroke="midnightblue" d="M938.602,-488.936C1064.74,-485.352 1444.22,-472.385 1492,-445 1522.48,-427.528 1537,-415.136 1537,-380 1537,-380 1537,-380 1537,-188 1537,-153.304 1546.29,-113.677 1552.51,-91.0207"/>
<polygon fill="midnightblue" stroke="midnightblue" points="1555.96,-91.6727 1555.34,-81.0961 1549.23,-89.752 1555.96,-91.6727"/>
</g>
<!-- Node15 -->
<g id="node15" class="node"><title>Node15</title>
<g id="a_node15"><a xlink:href="si4735_8h.html" target="_top" xlink:title="driver/si4735.h">
<polygon fill="white" stroke="black" points="284.5,-308 284.5,-327 363.5,-327 363.5,-308 284.5,-308"/>
<text text-anchor="middle" x="324" y="-315" font-family="Helvetica,sans-Serif" font-size="10.00">driver/si4735.h</text>
</a>
</g>
</g>
<!-- Node5&#45;&gt;Node15 -->
<g id="edge22" class="edge"><title>Node5&#45;&gt;Node15</title>
<path fill="none" stroke="midnightblue" d="M857.397,-488.866C741.761,-485.31 416.529,-472.905 378,-445 342.645,-419.393 330.247,-365.849 326.048,-337.327"/>
<polygon fill="midnightblue" stroke="midnightblue" points="329.481,-336.577 324.741,-327.101 322.537,-337.464 329.481,-336.577"/>
</g>
<!-- Node17 -->
<g id="node17" class="node"><title>Node17</title>
<g id="a_node17"><a xlink:href="external__interrupthandler_8h.html" target="_top" xlink:title="driver/external_interrupthandler.h">
<polygon fill="white" stroke="black" points="786.5,-308 786.5,-327 943.5,-327 943.5,-308 786.5,-308"/>
<text text-anchor="middle" x="865" y="-315" font-family="Helvetica,sans-Serif" font-size="10.00">driver/external_interrupthandler.h</text>
</a>
</g>
</g>
<!-- Node5&#45;&gt;Node17 -->
<g id="edge28" class="edge"><title>Node5&#45;&gt;Node17</title>
<path fill="none" stroke="midnightblue" d="M885.985,-481.426C865.407,-465.854 824.349,-430.654 811,-389 808.287,-380.535 807.461,-377.154 811,-369 817.456,-354.124 830.691,-341.632 842.442,-332.794"/>
<polygon fill="midnightblue" stroke="midnightblue" points="844.467,-335.648 850.618,-327.022 840.43,-329.93 844.467,-335.648"/>
</g>
<!-- Node18 -->
<g id="node18" class="node"><title>Node18</title>
<g id="a_node18"><a xlink:href="tpa2016d2_8h.html" target="_top" xlink:title="driver/tpa2016d2.h">
<polygon fill="white" stroke="black" points="171.5,-308 171.5,-327 266.5,-327 266.5,-308 171.5,-308"/>
<text text-anchor="middle" x="219" y="-315" font-family="Helvetica,sans-Serif" font-size="10.00">driver/tpa2016d2.h</text>
</a>
</g>
</g>
<!-- Node5&#45;&gt;Node18 -->
<g id="edge32" class="edge"><title>Node5&#45;&gt;Node18</title>
<path fill="none" stroke="midnightblue" d="M857.462,-490.015C747.515,-489.527 445.894,-484.521 356,-445 300.377,-420.546 252.675,-363.954 231.177,-335.492"/>
<polygon fill="midnightblue" stroke="midnightblue" points="233.897,-333.282 225.142,-327.316 228.265,-337.44 233.897,-333.282"/>
</g>
<!-- Node19 -->
<g id="node19" class="node"><title>Node19</title>
<g id="a_node19"><a xlink:href="lcd_8h.html" target="_top" xlink:title="driver/lcd.h">
<polygon fill="white" stroke="black" points="597.5,-369.5 597.5,-388.5 660.5,-388.5 660.5,-369.5 597.5,-369.5"/>
<text text-anchor="middle" x="629" y="-376.5" font-family="Helvetica,sans-Serif" font-size="10.00">driver/lcd.h</text>
</a>
</g>
</g>
<!-- Node5&#45;&gt;Node19 -->
<g id="edge38" class="edge"><title>Node5&#45;&gt;Node19</title>
<path fill="none" stroke="midnightblue" d="M864.57,-481.488C834.784,-473.467 790.271,-460.402 753,-445 716.709,-430.003 676.839,-408.048 652.36,-393.89"/>
<polygon fill="midnightblue" stroke="midnightblue" points="653.871,-390.718 643.47,-388.698 650.341,-396.763 653.871,-390.718"/>
</g>
<!-- Node22 -->
<g id="node22" class="node"><title>Node22</title>
<g id="a_node22"><a xlink:href="flash_8h.html" target="_top" xlink:title="driver/flash.h">
<polygon fill="white" stroke="black" points="1205.5,-425.5 1205.5,-444.5 1276.5,-444.5 1276.5,-425.5 1205.5,-425.5"/>
<text text-anchor="middle" x="1241" y="-432.5" font-family="Helvetica,sans-Serif" font-size="10.00">driver/flash.h</text>
</a>
</g>
</g>
<!-- Node5&#45;&gt;Node22 -->
<g id="edge46" class="edge"><title>Node5&#45;&gt;Node22</title>
<path fill="none" stroke="midnightblue" d="M938.817,-484.07C995.478,-475.76 1101.15,-459.984 1191,-445 1192.44,-444.76 1193.9,-444.513 1195.38,-444.261"/>
<polygon fill="midnightblue" stroke="midnightblue" points="1195.99,-447.709 1205.24,-442.552 1194.79,-440.812 1195.99,-447.709"/>
</g>
<!-- Node23 -->
<g id="node23" class="node"><title>Node23</title>
<g id="a_node23"><a xlink:href="string_8h.html" target="_top" xlink:title="string.h">
<polygon fill="white" stroke="black" points="1188.5,-369.5 1188.5,-388.5 1237.5,-388.5 1237.5,-369.5 1188.5,-369.5"/>
<text text-anchor="middle" x="1213" y="-376.5" font-family="Helvetica,sans-Serif" font-size="10.00">string.h</text>
</a>
</g>
</g>
<!-- Node5&#45;&gt;Node23 -->
<g id="edge72" class="edge"><title>Node5&#45;&gt;Node23</title>
<path fill="none" stroke="midnightblue" d="M938.599,-490.65C991.221,-489.814 1084.36,-482.503 1153,-445 1173.76,-433.659 1191.26,-412.433 1201.91,-397.324"/>
<polygon fill="midnightblue" stroke="midnightblue" points="1204.93,-399.099 1207.62,-388.85 1199.13,-395.186 1204.93,-399.099"/>
</g>
<!-- Node24 -->
<g id="node24" class="node"><title>Node24</title>
<g id="a_node24"><a xlink:href="encoder_8h.html" target="_top" xlink:title="driver/encoder.h">
<polygon fill="white" stroke="black" points="678.5,-369.5 678.5,-388.5 763.5,-388.5 763.5,-369.5 678.5,-369.5"/>
<text text-anchor="middle" x="721" y="-376.5" font-family="Helvetica,sans-Serif" font-size="10.00">driver/encoder.h</text>
</a>
</g>
</g>
<!-- Node5&#45;&gt;Node24 -->
<g id="edge52" class="edge"><title>Node5&#45;&gt;Node24</title>
<path fill="none" stroke="midnightblue" d="M861.927,-481.489C836.871,-474.426 803.533,-462.649 778,-445 759.365,-432.118 742.889,-411.831 732.505,-397.349"/>
<polygon fill="midnightblue" stroke="midnightblue" points="735.165,-395.041 726.599,-388.806 729.407,-399.022 735.165,-395.041"/>
</g>
<!-- Node25 -->
<g id="node25" class="node"><title>Node25</title>
<g id="a_node25"><a xlink:href="language_8h.html" target="_top" xlink:title="menu/lang/language.h">
<polygon fill="white" stroke="black" points="982,-369.5 982,-388.5 1094,-388.5 1094,-369.5 982,-369.5"/>
<text text-anchor="middle" x="1038" y="-376.5" font-family="Helvetica,sans-Serif" font-size="10.00">menu/lang/language.h</text>
</a>
</g>
</g>
<!-- Node5&#45;&gt;Node25 -->
<g id="edge57" class="edge"><title>Node5&#45;&gt;Node25</title>
<path fill="none" stroke="midnightblue" d="M908.986,-481.368C932.805,-462.653 989.444,-418.151 1019.12,-394.832"/>
<polygon fill="midnightblue" stroke="midnightblue" points="1021.36,-397.522 1027.07,-388.591 1017.04,-392.018 1021.36,-397.522"/>
</g>
<!-- Node26 -->
<g id="node26" class="node"><title>Node26</title>
<g id="a_node26"><a xlink:href="menu_8h.html" target="_top" xlink:title="menu/menu.h">
<polygon fill="white" stroke="black" points="860,-425.5 860,-444.5 936,-444.5 936,-425.5 860,-425.5"/>
<text text-anchor="middle" x="898" y="-432.5" font-family="Helvetica,sans-Serif" font-size="10.00">menu/menu.h</text>
</a>
</g>
</g>
<!-- Node5&#45;&gt;Node26 -->
<g id="edge58" class="edge"><title>Node5&#45;&gt;Node26</title>
<path fill="none" stroke="midnightblue" d="M892.834,-481.083C891.324,-473.927 890.894,-463.635 891.542,-454.691"/>
<polygon fill="midnightblue" stroke="midnightblue" points="895.015,-455.126 892.869,-444.751 888.077,-454.2 895.015,-455.126"/>
</g>
<!-- Node28 -->
<g id="node28" class="node"><title>Node28</title>
<g id="a_node28"><a xlink:href="radio__display_8h.html" target="_top" xlink:title="system/radio_display.h">
<polygon fill="white" stroke="black" points="1294.5,-425.5 1294.5,-444.5 1411.5,-444.5 1411.5,-425.5 1294.5,-425.5"/>
<text text-anchor="middle" x="1353" y="-432.5" font-family="Helvetica,sans-Serif" font-size="10.00">system/radio_display.h</text>
</a>
</g>
</g>
<!-- Node5&#45;&gt;Node28 -->
<g id="edge69" class="edge"><title>Node5&#45;&gt;Node28</title>
<path fill="none" stroke="midnightblue" d="M938.781,-484.834C1008.19,-476.703 1153.16,-460.27 1276,-445 1278.68,-444.667 1281.41,-444.323 1284.18,-443.971"/>
<polygon fill="midnightblue" stroke="midnightblue" points="1284.84,-447.416 1294.31,-442.677 1283.95,-440.473 1284.84,-447.416"/>
</g>
<!-- Node29 -->
<g id="node29" class="node"><title>Node29</title>
<g id="a_node29"><a xlink:href="time_8h.html" target="_top" xlink:title="system/time.h">
<polygon fill="white" stroke="black" points="1370.5,-241 1370.5,-260 1449.5,-260 1449.5,-241 1370.5,-241"/>
<text text-anchor="middle" x="1410" y="-248" font-family="Helvetica,sans-Serif" font-size="10.00">system/time.h</text>
</a>
</g>
</g>
<!-- Node5&#45;&gt;Node29 -->
<g id="edge73" class="edge"><title>Node5&#45;&gt;Node29</title>
<path fill="none" stroke="midnightblue" d="M938.541,-489.583C1055.56,-487.963 1387.64,-480.272 1420,-445 1464.9,-396.062 1434.59,-307.514 1418.38,-269.562"/>
<polygon fill="midnightblue" stroke="midnightblue" points="1421.51,-267.993 1414.25,-260.275 1415.11,-270.835 1421.51,-267.993"/>
</g>
<!-- Node6&#45;&gt;Node3 -->
<g id="edge8" class="edge"><title>Node6&#45;&gt;Node3</title>
<path fill="none" stroke="midnightblue" d="M109.771,-307.911C109.245,-287.479 108,-234.368 108,-190 108,-190 108,-190 108,-132 108,-92.5169 120.177,-76.3698 154,-56 218.338,-17.2525 755.177,-11.868 898.787,-11.1204"/>
<polygon fill="midnightblue" stroke="midnightblue" points="899.211,-14.6185 909.195,-11.0709 899.178,-7.61859 899.211,-14.6185"/>
</g>
<!-- Node7 -->
<g id="node7" class="node"><title>Node7</title>
<g id="a_node7"><a xlink:href="i2c_8h.html" target="_top" xlink:title="I2C implemtation for MSP430G2553, interrupt based. &#160;&#160;This implemtation based on examples from Texas I...">
<polygon fill="white" stroke="black" points="250.5,-241 250.5,-260 313.5,-260 313.5,-241 250.5,-241"/>
<text text-anchor="middle" x="282" y="-248" font-family="Helvetica,sans-Serif" font-size="10.00">driver/i2c.h</text>
</a>
</g>
</g>
<!-- Node6&#45;&gt;Node7 -->
<g id="edge9" class="edge"><title>Node6&#45;&gt;Node7</title>
<path fill="none" stroke="midnightblue" d="M132.84,-307.869C162.865,-296.522 215.781,-276.525 249.843,-263.652"/>
<polygon fill="midnightblue" stroke="midnightblue" points="251.222,-266.873 259.339,-260.064 248.748,-260.325 251.222,-266.873"/>
</g>
<!-- Node7&#45;&gt;Node3 -->
<g id="edge10" class="edge"><title>Node7&#45;&gt;Node3</title>
<path fill="none" stroke="midnightblue" d="M278.784,-240.93C274.085,-226.849 267.117,-198.442 279,-179 341.506,-76.7295 404.173,-90.3664 519,-56 655.038,-15.2851 825.95,-10.5339 898.656,-10.5454"/>
<polygon fill="midnightblue" stroke="midnightblue" points="899.047,-14.0467 909.059,-10.5807 899.071,-7.04672 899.047,-14.0467"/>
</g>
<!-- Node8 -->
<g id="node8" class="node"><title>Node8</title>
<polygon fill="white" stroke="#bfbfbf" points="659.5,-123.5 659.5,-142.5 718.5,-142.5 718.5,-123.5 659.5,-123.5"/>
<text text-anchor="middle" x="689" y="-130.5" font-family="Helvetica,sans-Serif" font-size="10.00">msp430.h</text>
</g>
<!-- Node7&#45;&gt;Node8 -->
<g id="edge11" class="edge"><title>Node7&#45;&gt;Node8</title>
<path fill="none" stroke="midnightblue" d="M302.901,-240.968C307.842,-238.983 313.098,-236.896 318,-235 360.887,-218.408 373.011,-217.748 415,-199 432.427,-191.219 434.985,-185.301 453,-179 519.618,-155.701 601.272,-143.542 648.983,-137.976"/>
<polygon fill="midnightblue" stroke="midnightblue" points="649.659,-141.422 659.204,-136.824 648.875,-134.466 649.659,-141.422"/>
</g>
<!-- Node9 -->
<g id="node9" class="node"><title>Node9</title>
<polygon fill="white" stroke="#bfbfbf" points="358,-179.5 358,-198.5 406,-198.5 406,-179.5 358,-179.5"/>
<text text-anchor="middle" x="382" y="-186.5" font-family="Helvetica,sans-Serif" font-size="10.00">stdlib.h</text>
</g>
<!-- Node7&#45;&gt;Node9 -->
<g id="edge12" class="edge"><title>Node7&#45;&gt;Node9</title>
<path fill="none" stroke="midnightblue" d="M296.328,-240.975C312.664,-231.255 339.602,-215.227 358.912,-203.737"/>
<polygon fill="midnightblue" stroke="midnightblue" points="360.895,-206.63 367.699,-198.509 357.315,-200.615 360.895,-206.63"/>
</g>
<!-- Node10 -->
<g id="node10" class="node"><title>Node10</title>
<polygon fill="white" stroke="#bfbfbf" points="288,-179.5 288,-198.5 340,-198.5 340,-179.5 288,-179.5"/>
<text text-anchor="middle" x="314" y="-186.5" font-family="Helvetica,sans-Serif" font-size="10.00">stdarg.h</text>
</g>
<!-- Node7&#45;&gt;Node10 -->
<g id="edge13" class="edge"><title>Node7&#45;&gt;Node10</title>
<path fill="none" stroke="midnightblue" d="M286.585,-240.975C291.242,-232.315 298.592,-218.649 304.51,-207.645"/>
<polygon fill="midnightblue" stroke="midnightblue" points="307.77,-208.974 309.424,-198.509 301.605,-205.658 307.77,-208.974"/>
</g>
<!-- Node7&#45;&gt;Node11 -->
<g id="edge14" class="edge"><title>Node7&#45;&gt;Node11</title>
<path fill="none" stroke="midnightblue" d="M308.693,-240.855C315.006,-238.874 321.727,-236.818 328,-235 370.703,-222.625 419.833,-209.768 454.26,-200.981"/>
<polygon fill="midnightblue" stroke="midnightblue" points="455.176,-204.359 464.005,-198.502 453.45,-197.575 455.176,-204.359"/>
</g>
<!-- Node11&#45;&gt;Node3 -->
<g id="edge16" class="edge"><title>Node11&#45;&gt;Node3</title>
<path fill="none" stroke="midnightblue" d="M498.353,-179.471C499.845,-155.546 507.614,-87.4982 548,-56 602.207,-13.7224 814.708,-10.2384 899.14,-10.5761"/>
<polygon fill="midnightblue" stroke="midnightblue" points="899.227,-14.0766 909.248,-10.6376 899.27,-7.0767 899.227,-14.0766"/>
</g>
<!-- Node11&#45;&gt;Node8 -->
<g id="edge15" class="edge"><title>Node11&#45;&gt;Node8</title>
<path fill="none" stroke="midnightblue" d="M528.265,-179.444C561.051,-170.174 613.489,-155.349 649.5,-145.168"/>
<polygon fill="midnightblue" stroke="midnightblue" points="650.521,-148.516 659.191,-142.428 648.616,-141.78 650.521,-148.516"/>
</g>
<!-- Node11&#45;&gt;Node12 -->
<g id="edge17" class="edge"><title>Node11&#45;&gt;Node12</title>
<path fill="none" stroke="midnightblue" d="M534.451,-184.784C630.693,-176.292 893.444,-153.108 1028.09,-141.228"/>
<polygon fill="midnightblue" stroke="midnightblue" points="1028.69,-144.688 1038.34,-140.323 1028.07,-137.715 1028.69,-144.688"/>
</g>
<!-- Node12&#45;&gt;Node13 -->
<g id="edge18" class="edge"><title>Node12&#45;&gt;Node13</title>
<path fill="none" stroke="midnightblue" d="M1110,-123.475C1110,-116.471 1110,-106.192 1110,-96.6956"/>
<polygon fill="midnightblue" stroke="midnightblue" points="1113.5,-96.5229 1110,-86.523 1106.5,-96.523 1113.5,-96.5229"/>
</g>
<!-- Node13&#45;&gt;Node3 -->
<g id="edge19" class="edge"><title>Node13&#45;&gt;Node3</title>
<path fill="none" stroke="midnightblue" d="M1068.29,-56.3993C1037.74,-46.0705 996.778,-32.2233 968.159,-22.548"/>
<polygon fill="midnightblue" stroke="midnightblue" points="969.182,-19.1994 958.588,-19.3124 966.94,-25.8307 969.182,-19.1994"/>
</g>
<!-- Node14&#45;&gt;Node3 -->
<g id="edge21" class="edge"><title>Node14&#45;&gt;Node3</title>
<path fill="none" stroke="midnightblue" d="M1523.23,-61.9339C1513.2,-59.7164 1502.21,-57.5261 1492,-56 1295.46,-26.624 1056.9,-15.4665 968.832,-12.1651"/>
<polygon fill="midnightblue" stroke="midnightblue" points="968.732,-8.65919 958.611,-11.7922 968.477,-15.6545 968.732,-8.65919"/>
</g>
<!-- Node15&#45;&gt;Node3 -->
<g id="edge23" class="edge"><title>Node15&#45;&gt;Node3</title>
<path fill="none" stroke="midnightblue" d="M300.567,-307.893C260.713,-291.566 184,-252.076 184,-190 184,-190 184,-190 184,-132 184,-33.9952 295.3,-77.1271 391,-56 579.427,-14.4024 812.343,-10.5252 899.203,-10.6666"/>
<polygon fill="midnightblue" stroke="midnightblue" points="899.283,-14.1669 909.296,-10.7029 899.308,-7.1669 899.283,-14.1669"/>
</g>
<!-- Node15&#45;&gt;Node7 -->
<g id="edge24" class="edge"><title>Node15&#45;&gt;Node7</title>
<path fill="none" stroke="midnightblue" d="M318.336,-307.734C311.912,-297.793 301.28,-281.338 293.171,-268.789"/>
<polygon fill="midnightblue" stroke="midnightblue" points="295.941,-266.627 287.575,-260.127 290.062,-270.426 295.941,-266.627"/>
</g>
<!-- Node15&#45;&gt;Node11 -->
<g id="edge25" class="edge"><title>Node15&#45;&gt;Node11</title>
<path fill="none" stroke="midnightblue" d="M330.693,-307.916C343.515,-291.912 373.031,-257.137 404,-235 422.802,-221.561 446.243,-210.329 465.014,-202.449"/>
<polygon fill="midnightblue" stroke="midnightblue" points="466.417,-205.656 474.354,-198.639 463.773,-199.175 466.417,-205.656"/>
</g>
<!-- Node16 -->
<g id="node16" class="node"><title>Node16</title>
<g id="a_node16"><a xlink:href="radio__pin__mapping_8h.html" target="_top" xlink:title="settings/radio_pin\l_mapping.h">
<polygon fill="white" stroke="black" points="590.5,-235.5 590.5,-265.5 683.5,-265.5 683.5,-235.5 590.5,-235.5"/>
<text text-anchor="start" x="598.5" y="-253.5" font-family="Helvetica,sans-Serif" font-size="10.00">settings/radio_pin</text>
<text text-anchor="middle" x="637" y="-242.5" font-family="Helvetica,sans-Serif" font-size="10.00">_mapping.h</text>
</a>
</g>
</g>
<!-- Node15&#45;&gt;Node16 -->
<g id="edge26" class="edge"><title>Node15&#45;&gt;Node16</title>
<path fill="none" stroke="midnightblue" d="M363.642,-308.268C418.414,-296.893 517.555,-276.305 580.193,-263.297"/>
<polygon fill="midnightblue" stroke="midnightblue" points="581.221,-266.658 590.301,-261.198 579.798,-259.804 581.221,-266.658"/>
</g>
<!-- Node17&#45;&gt;Node3 -->
<g id="edge30" class="edge"><title>Node17&#45;&gt;Node3</title>
<path fill="none" stroke="midnightblue" d="M866.835,-307.958C871.038,-287.626 881,-234.716 881,-190 881,-190 881,-190 881,-132 881,-91.8883 905.739,-50.106 921.413,-27.6591"/>
<polygon fill="midnightblue" stroke="midnightblue" points="924.263,-29.6911 927.288,-19.5371 918.591,-25.5889 924.263,-29.6911"/>
</g>
<!-- Node17&#45;&gt;Node8 -->
<g id="edge29" class="edge"><title>Node17&#45;&gt;Node8</title>
<path fill="none" stroke="midnightblue" d="M860.94,-307.72C849.724,-284.24 816.196,-219.069 772,-179 756.976,-165.379 737.089,-154.414 720.547,-146.718"/>
<polygon fill="midnightblue" stroke="midnightblue" points="721.815,-143.451 711.256,-142.569 718.96,-149.843 721.815,-143.451"/>
</g>
<!-- Node17&#45;&gt;Node16 -->
<g id="edge31" class="edge"><title>Node17&#45;&gt;Node16</title>
<path fill="none" stroke="midnightblue" d="M834.723,-307.869C798.799,-297.627 738.152,-280.337 693.477,-267.601"/>
<polygon fill="midnightblue" stroke="midnightblue" points="694.209,-264.17 683.632,-264.794 692.29,-270.902 694.209,-264.17"/>
</g>
<!-- Node18&#45;&gt;Node3 -->
<g id="edge34" class="edge"><title>Node18&#45;&gt;Node3</title>
<path fill="none" stroke="midnightblue" d="M209.754,-307.983C190.111,-288.909 146,-240.459 146,-190 146,-190 146,-190 146,-132 146,-91.8103 160.313,-76.299 195,-56 256.223,-20.1719 761.354,-12.6727 899.305,-11.2867"/>
<polygon fill="midnightblue" stroke="midnightblue" points="899.359,-14.7865 909.325,-11.1905 899.291,-7.78681 899.359,-14.7865"/>
</g>
<!-- Node18&#45;&gt;Node7 -->
<g id="edge35" class="edge"><title>Node18&#45;&gt;Node7</title>
<path fill="none" stroke="midnightblue" d="M227.496,-307.734C237.509,-297.403 254.341,-280.037 266.656,-267.332"/>
<polygon fill="midnightblue" stroke="midnightblue" points="269.192,-269.744 273.638,-260.127 264.165,-264.872 269.192,-269.744"/>
</g>
<!-- Node18&#45;&gt;Node8 -->
<g id="edge33" class="edge"><title>Node18&#45;&gt;Node8</title>
<path fill="none" stroke="midnightblue" d="M219.546,-307.875C221.688,-282.374 231.92,-207.347 279,-179 340.739,-141.827 558.852,-135.29 649.274,-134.194"/>
<polygon fill="midnightblue" stroke="midnightblue" points="649.433,-137.693 659.396,-134.088 649.36,-130.693 649.433,-137.693"/>
</g>
<!-- Node18&#45;&gt;Node11 -->
<g id="edge37" class="edge"><title>Node18&#45;&gt;Node11</title>
<path fill="none" stroke="midnightblue" d="M238.881,-307.959C260.016,-298.605 294.161,-282.697 322,-266 342.204,-253.882 344.053,-245.784 365,-235 393.346,-220.407 427.444,-208.979 454.017,-201.291"/>
<polygon fill="midnightblue" stroke="midnightblue" points="455.132,-204.613 463.805,-198.529 453.231,-197.877 455.132,-204.613"/>
</g>
<!-- Node18&#45;&gt;Node16 -->
<g id="edge36" class="edge"><title>Node18&#45;&gt;Node16</title>
<path fill="none" stroke="midnightblue" d="M249.371,-307.959C257.64,-305.819 266.627,-303.662 275,-302 382.079,-280.741 508.725,-265.248 580.279,-257.373"/>
<polygon fill="midnightblue" stroke="midnightblue" points="580.866,-260.83 590.428,-256.266 580.107,-253.871 580.866,-260.83"/>
</g>
<!-- Node19&#45;&gt;Node3 -->
<g id="edge39" class="edge"><title>Node19&#45;&gt;Node3</title>
<path fill="none" stroke="midnightblue" d="M660.822,-370.554C663.581,-369.995 666.336,-369.468 669,-369 731.439,-358.03 910.096,-380.572 952,-333 972.075,-310.21 945.191,-94.7458 936.527,-29.5802"/>
<polygon fill="midnightblue" stroke="midnightblue" points="939.979,-28.9865 935.178,-19.542 933.041,-29.9192 939.979,-28.9865"/>
</g>
<!-- Node19&#45;&gt;Node11 -->
<g id="edge45" class="edge"><title>Node19&#45;&gt;Node11</title>
<path fill="none" stroke="midnightblue" d="M597.48,-374.731C550.865,-369.173 467.089,-356.168 449,-333 418.556,-294.008 459.512,-234.906 483.227,-206.45"/>
<polygon fill="midnightblue" stroke="midnightblue" points="486.063,-208.521 489.935,-198.659 480.758,-203.954 486.063,-208.521"/>
</g>
<!-- Node19&#45;&gt;Node16 -->
<g id="edge44" class="edge"><title>Node19&#45;&gt;Node16</title>
<path fill="none" stroke="midnightblue" d="M618.838,-369.185C610.092,-360.87 598.1,-347.539 593,-333 588.439,-319.999 588.168,-314.903 593,-302 597.018,-291.272 604.46,-281.322 612.095,-273.14"/>
<polygon fill="midnightblue" stroke="midnightblue" points="614.77,-275.415 619.369,-265.87 609.822,-270.464 614.77,-275.415"/>
</g>
<!-- Node20 -->
<g id="node20" class="node"><title>Node20</title>
<g id="a_node20"><a xlink:href="pca9534_8h.html" target="_top" xlink:title="driver/pca9534.h">
<polygon fill="white" stroke="black" points="458.5,-308 458.5,-327 545.5,-327 545.5,-308 458.5,-308"/>
<text text-anchor="middle" x="502" y="-315" font-family="Helvetica,sans-Serif" font-size="10.00">driver/pca9534.h</text>
</a>
</g>
</g>
<!-- Node19&#45;&gt;Node20 -->
<g id="edge40" class="edge"><title>Node19&#45;&gt;Node20</title>
<path fill="none" stroke="midnightblue" d="M610.804,-369.475C589.491,-359.49 553.969,-342.848 529.337,-331.307"/>
<polygon fill="midnightblue" stroke="midnightblue" points="530.703,-328.082 520.162,-327.009 527.733,-334.421 530.703,-328.082"/>
</g>
<!-- Node21 -->
<g id="node21" class="node"><title>Node21</title>
<g id="a_node21"><a xlink:href="lcd__commands_8h.html" target="_top" xlink:title="driver/include/lcd\l_commands.h">
<polygon fill="white" stroke="black" points="602.5,-302.5 602.5,-332.5 691.5,-332.5 691.5,-302.5 602.5,-302.5"/>
<text text-anchor="start" x="610.5" y="-320.5" font-family="Helvetica,sans-Serif" font-size="10.00">driver/include/lcd</text>
<text text-anchor="middle" x="647" y="-309.5" font-family="Helvetica,sans-Serif" font-size="10.00">_commands.h</text>
</a>
</g>
</g>
<!-- Node19&#45;&gt;Node21 -->
<g id="edge43" class="edge"><title>Node19&#45;&gt;Node21</title>
<path fill="none" stroke="midnightblue" d="M631.579,-369.475C633.721,-362.396 636.874,-351.97 639.773,-342.39"/>
<polygon fill="midnightblue" stroke="midnightblue" points="643.212,-343.108 642.758,-332.523 636.512,-341.081 643.212,-343.108"/>
</g>
<!-- Node20&#45;&gt;Node3 -->
<g id="edge41" class="edge"><title>Node20&#45;&gt;Node3</title>
<path fill="none" stroke="midnightblue" d="M509.357,-307.967C525.379,-288.478 562,-238.614 562,-190 562,-190 562,-190 562,-132 562,-61.4566 806.973,-25.7228 899.329,-14.7577"/>
<polygon fill="midnightblue" stroke="midnightblue" points="899.774,-18.2296 909.304,-13.5997 898.967,-11.2762 899.774,-18.2296"/>
</g>
<!-- Node20&#45;&gt;Node7 -->
<g id="edge42" class="edge"><title>Node20&#45;&gt;Node7</title>
<path fill="none" stroke="midnightblue" d="M472.786,-307.869C433.64,-296.303 364.073,-275.749 320.634,-262.914"/>
<polygon fill="midnightblue" stroke="midnightblue" points="321.567,-259.541 310.985,-260.064 319.583,-266.254 321.567,-259.541"/>
</g>
<!-- Node22&#45;&gt;Node3 -->
<g id="edge47" class="edge"><title>Node22&#45;&gt;Node3</title>
<path fill="none" stroke="midnightblue" d="M1249.76,-425.318C1267.07,-407.189 1304,-363.269 1304,-318.5 1304,-318.5 1304,-318.5 1304,-132 1304,-79.646 1261.58,-77.8394 1214,-56 1131.99,-18.3572 1023.89,-11.5487 969.091,-10.7181"/>
<polygon fill="midnightblue" stroke="midnightblue" points="968.898,-7.21628 958.866,-10.6243 968.833,-14.216 968.898,-7.21628"/>
</g>
<!-- Node22&#45;&gt;Node8 -->
<g id="edge50" class="edge"><title>Node22&#45;&gt;Node8</title>
<path fill="none" stroke="midnightblue" d="M1244.87,-425.149C1250.06,-411.777 1257.39,-386.166 1246,-369 1126,-188.081 996.06,-263.303 796,-179 769.911,-168.006 740.233,-155.527 718.762,-146.503"/>
<polygon fill="midnightblue" stroke="midnightblue" points="720.091,-143.266 709.516,-142.618 717.379,-149.719 720.091,-143.266"/>
</g>
<!-- Node22&#45;&gt;Node23 -->
<g id="edge48" class="edge"><title>Node22&#45;&gt;Node23</title>
<path fill="none" stroke="midnightblue" d="M1236.38,-425.083C1232.54,-417.691 1226.98,-406.953 1222.24,-397.811"/>
<polygon fill="midnightblue" stroke="midnightblue" points="1225.25,-396.018 1217.54,-388.751 1219.03,-399.24 1225.25,-396.018"/>
</g>
<!-- Node23&#45;&gt;Node3 -->
<g id="edge49" class="edge"><title>Node23&#45;&gt;Node3</title>
<path fill="none" stroke="midnightblue" d="M1217.15,-369.334C1226.42,-349.164 1248,-297.302 1248,-251.5 1248,-251.5 1248,-251.5 1248,-132 1248,-83.9157 1213.58,-78.3429 1171,-56 1105.32,-21.5345 1017.09,-13.2192 968.94,-11.3673"/>
<polygon fill="midnightblue" stroke="midnightblue" points="968.835,-7.86243 958.731,-11.0495 968.617,-14.859 968.835,-7.86243"/>
</g>
<!-- Node24&#45;&gt;Node3 -->
<g id="edge53" class="edge"><title>Node24&#45;&gt;Node3</title>
<path fill="none" stroke="midnightblue" d="M763.596,-373.768C834.84,-366.258 971.811,-349.801 986,-333 1025.38,-286.371 961.574,-89.969 940.432,-29.0783"/>
<polygon fill="midnightblue" stroke="midnightblue" points="943.732,-27.9131 937.116,-19.6377 937.127,-30.2325 943.732,-27.9131"/>
</g>
<!-- Node24&#45;&gt;Node8 -->
<g id="edge54" class="edge"><title>Node24&#45;&gt;Node8</title>
<path fill="none" stroke="midnightblue" d="M721.541,-369.082C722.283,-354.858 723.281,-326.17 721,-302 715.806,-246.977 701.247,-183.15 693.688,-152.412"/>
<polygon fill="midnightblue" stroke="midnightblue" points="697.071,-151.514 691.25,-142.662 690.281,-153.212 697.071,-151.514"/>
</g>
<!-- Node24&#45;&gt;Node16 -->
<g id="edge55" class="edge"><title>Node24&#45;&gt;Node16</title>
<path fill="none" stroke="midnightblue" d="M720.338,-369.311C718.845,-354.406 714.154,-323.493 700,-302 692.136,-290.059 680.538,-279.616 669.429,-271.374"/>
<polygon fill="midnightblue" stroke="midnightblue" points="671.291,-268.404 661.099,-265.511 667.262,-274.129 671.291,-268.404"/>
</g>
<!-- Node24&#45;&gt;Node17 -->
<g id="edge56" class="edge"><title>Node24&#45;&gt;Node17</title>
<path fill="none" stroke="midnightblue" d="M741.632,-369.475C766.119,-359.357 807.147,-342.405 835.109,-330.851"/>
<polygon fill="midnightblue" stroke="midnightblue" points="836.501,-334.063 844.407,-327.009 833.828,-327.593 836.501,-334.063"/>
</g>
<!-- Node26&#45;&gt;Node3 -->
<g id="edge59" class="edge"><title>Node26&#45;&gt;Node3</title>
<path fill="none" stroke="midnightblue" d="M908.097,-425.311C933.837,-403.057 1000.29,-344.924 1006,-333 1059.65,-220.982 1024.34,-167.197 969,-56 963.829,-45.6093 956.052,-35.2957 949.14,-27.1688"/>
<polygon fill="midnightblue" stroke="midnightblue" points="951.656,-24.7305 942.397,-19.5797 946.423,-29.38 951.656,-24.7305"/>
</g>
<!-- Node26&#45;&gt;Node5 -->
<g id="edge61" class="edge"><title>Node26&#45;&gt;Node5</title>
<path fill="none" stroke="midnightblue" d="M903.131,-444.751C904.657,-451.858 905.104,-462.136 904.472,-471.101"/>
<polygon fill="midnightblue" stroke="midnightblue" points="900.993,-470.713 903.166,-481.083 907.934,-471.622 900.993,-470.713"/>
</g>
<!-- Node26&#45;&gt;Node19 -->
<g id="edge60" class="edge"><title>Node26&#45;&gt;Node19</title>
<path fill="none" stroke="midnightblue" d="M859.847,-426.833C816.385,-418.595 742.975,-404.461 671.002,-389.384"/>
<polygon fill="midnightblue" stroke="midnightblue" points="671.366,-385.884 660.86,-387.251 669.925,-392.734 671.366,-385.884"/>
</g>
<!-- Node26&#45;&gt;Node23 -->
<g id="edge66" class="edge"><title>Node26&#45;&gt;Node23</title>
<path fill="none" stroke="midnightblue" d="M936.31,-427.433C998.18,-416.826 1119.14,-396.09 1178.49,-385.916"/>
<polygon fill="midnightblue" stroke="midnightblue" points="1179.22,-389.342 1188.49,-384.202 1178.04,-382.442 1179.22,-389.342"/>
</g>
<!-- Node26&#45;&gt;Node24 -->
<g id="edge62" class="edge"><title>Node26&#45;&gt;Node24</title>
<path fill="none" stroke="midnightblue" d="M869.954,-425.444C839.918,-416.28 792.087,-401.688 758.757,-391.519"/>
<polygon fill="midnightblue" stroke="midnightblue" points="759.501,-388.087 748.915,-388.516 757.458,-394.782 759.501,-388.087"/>
</g>
<!-- Node26&#45;&gt;Node25 -->
<g id="edge63" class="edge"><title>Node26&#45;&gt;Node25</title>
<path fill="none" stroke="midnightblue" d="M920.183,-425.444C943.428,-416.478 980.149,-402.314 1006.42,-392.183"/>
<polygon fill="midnightblue" stroke="midnightblue" points="1007.85,-395.381 1015.92,-388.516 1005.33,-388.85 1007.85,-395.381"/>
</g>
<!-- Node27 -->
<g id="node27" class="node"><title>Node27</title>
<g id="a_node27"><a xlink:href="menu__struct_8h.html" target="_top" xlink:title="menu/menu_struct.h">
<polygon fill="white" stroke="black" points="820,-369.5 820,-388.5 926,-388.5 926,-369.5 820,-369.5"/>
<text text-anchor="middle" x="873" y="-376.5" font-family="Helvetica,sans-Serif" font-size="10.00">menu/menu_struct.h</text>
</a>
</g>
</g>
<!-- Node26&#45;&gt;Node27 -->
<g id="edge64" class="edge"><title>Node26&#45;&gt;Node27</title>
<path fill="none" stroke="midnightblue" d="M888.705,-425.083C883.83,-417.849 878.574,-407.409 875.081,-398.397"/>
<polygon fill="midnightblue" stroke="midnightblue" points="878.361,-397.164 871.92,-388.751 871.709,-399.344 878.361,-397.164"/>
</g>
<!-- Node27&#45;&gt;Node26 -->
<g id="edge65" class="edge"><title>Node27&#45;&gt;Node26</title>
<path fill="none" stroke="midnightblue" d="M882.182,-388.751C887.052,-395.936 892.319,-406.362 895.838,-415.396"/>
<polygon fill="midnightblue" stroke="midnightblue" points="892.578,-416.685 899.038,-425.083 899.225,-414.49 892.578,-416.685"/>
</g>
<!-- Node28&#45;&gt;Node3 -->
<g id="edge70" class="edge"><title>Node28&#45;&gt;Node3</title>
<path fill="none" stroke="midnightblue" d="M1351.61,-425.333C1348.65,-406.142 1342,-358.584 1342,-318.5 1342,-318.5 1342,-318.5 1342,-132 1342,-83.2791 1306.85,-77.2354 1263,-56 1211.57,-31.0928 1042.49,-17.7753 968.822,-13.0343"/>
<polygon fill="midnightblue" stroke="midnightblue" points="968.87,-9.53056 958.671,-12.3967 968.431,-16.5168 968.87,-9.53056"/>
</g>
<!-- Node28&#45;&gt;Node5 -->
<g id="edge71" class="edge"><title>Node28&#45;&gt;Node5</title>
<path fill="none" stroke="midnightblue" d="M1297.94,-444.508C1296.61,-444.674 1295.3,-444.838 1294,-445 1170.43,-460.361 1024.46,-476.9 948.854,-484.979"/>
<polygon fill="midnightblue" stroke="midnightblue" points="948.237,-481.525 938.663,-486.062 948.977,-488.485 948.237,-481.525"/>
</g>
<!-- Node29&#45;&gt;Node3 -->
<g id="edge74" class="edge"><title>Node29&#45;&gt;Node3</title>
<path fill="none" stroke="midnightblue" d="M1410.64,-240.8C1412.4,-209.932 1413.77,-104.898 1356,-56 1326.63,-31.1372 1064.15,-16.8849 968.591,-12.4835"/>
<polygon fill="midnightblue" stroke="midnightblue" points="968.717,-8.98574 958.569,-12.03 968.401,-15.9786 968.717,-8.98574"/>
</g>
</g>
</svg>
