<?xml version="1.0" encoding="UTF-8" standalone="no"?>
<!DOCTYPE svg PUBLIC "-//W3C//DTD SVG 1.1//EN"
 "http://www.w3.org/Graphics/SVG/1.1/DTD/svg11.dtd">
<!-- Generated by graphviz version 2.38.0 (20140413.2041)
 -->
<!-- Title: station_list_handler Pages: 1 -->
<svg width="983pt" height="268pt"
 viewBox="0.00 0.00 983.00 268.00" xmlns="http://www.w3.org/2000/svg" xmlns:xlink="http://www.w3.org/1999/xlink">
<g id="graph0" class="graph" transform="scale(1 1) rotate(0) translate(4 264)">
<title>station_list_handler</title>
<polygon fill="white" stroke="none" points="-4,4 -4,-264 979,-264 979,4 -4,4"/>
<!-- Node1 -->
<g id="node1" class="node"><title>Node1</title>
<polygon fill="#bfbfbf" stroke="black" points="0,-102.5 0,-121.5 101,-121.5 101,-102.5 0,-102.5"/>
<text text-anchor="middle" x="50.5" y="-109.5" font-family="Helvetica,sans-Serif" font-size="10.00">station_list_handler</text>
</g>
<!-- Node2 -->
<g id="node2" class="node"><title>Node2</title>
<g id="a_node2"><a xlink:href="radio_8h.html#a5e5300f73411d8e90a928adf42d2a6ed" target="_top" xlink:title="radio_store_station">
<polygon fill="white" stroke="black" points="139.5,-82.5 139.5,-101.5 238.5,-101.5 238.5,-82.5 139.5,-82.5"/>
<text text-anchor="middle" x="189" y="-89.5" font-family="Helvetica,sans-Serif" font-size="10.00">radio_store_station</text>
</a>
</g>
</g>
<!-- Node1&#45;&gt;Node2 -->
<g id="edge1" class="edge"><title>Node1&#45;&gt;Node2</title>
<path fill="none" stroke="midnightblue" d="M101.166,-104.723C110.235,-103.394 119.777,-101.996 129.084,-100.632"/>
<polygon fill="midnightblue" stroke="midnightblue" points="129.669,-104.084 139.056,-99.1712 128.654,-97.158 129.669,-104.084"/>
</g>
<!-- Node6 -->
<g id="node6" class="node"><title>Node6</title>
<g id="a_node6"><a xlink:href="radio_8h.html#a6d652e9d0f1c54bfe9ec73fe2605b706" target="_top" xlink:title="radio_tune_freq">
<polygon fill="white" stroke="black" points="147.5,-183.5 147.5,-202.5 230.5,-202.5 230.5,-183.5 147.5,-183.5"/>
<text text-anchor="middle" x="189" y="-190.5" font-family="Helvetica,sans-Serif" font-size="10.00">radio_tune_freq</text>
</a>
</g>
</g>
<!-- Node1&#45;&gt;Node6 -->
<g id="edge5" class="edge"><title>Node1&#45;&gt;Node6</title>
<path fill="none" stroke="midnightblue" d="M67.6944,-121.61C91.2969,-135.616 135.349,-161.756 163.095,-178.221"/>
<polygon fill="midnightblue" stroke="midnightblue" points="161.441,-181.309 171.827,-183.403 165.013,-175.289 161.441,-181.309"/>
</g>
<!-- Node15 -->
<g id="node15" class="node"><title>Node15</title>
<g id="a_node15"><a xlink:href="radio_8h.html#a477656bb91c200d15ddbe6cffcd04c53" target="_top" xlink:title="radio_store_settings">
<polygon fill="white" stroke="black" points="137,-38.5 137,-57.5 241,-57.5 241,-38.5 137,-38.5"/>
<text text-anchor="middle" x="189" y="-45.5" font-family="Helvetica,sans-Serif" font-size="10.00">radio_store_settings</text>
</a>
</g>
</g>
<!-- Node1&#45;&gt;Node15 -->
<g id="edge14" class="edge"><title>Node1&#45;&gt;Node15</title>
<path fill="none" stroke="midnightblue" d="M71.9354,-102.419C94.8539,-91.6729 132.228,-74.1493 158.356,-61.8992"/>
<polygon fill="midnightblue" stroke="midnightblue" points="159.857,-65.0612 167.425,-57.6469 156.885,-58.7232 159.857,-65.0612"/>
</g>
<!-- Node17 -->
<g id="node17" class="node"><title>Node17</title>
<g id="a_node17"><a xlink:href="station__list_8c.html#a9797d901a4c549c775a7067eebf0a5c2" target="_top" xlink:title="station_list_display">
<polygon fill="white" stroke="black" points="139,-123.5 139,-142.5 239,-142.5 239,-123.5 139,-123.5"/>
<text text-anchor="middle" x="189" y="-130.5" font-family="Helvetica,sans-Serif" font-size="10.00">station_list_display</text>
</a>
</g>
</g>
<!-- Node1&#45;&gt;Node17 -->
<g id="edge17" class="edge"><title>Node1&#45;&gt;Node17</title>
<path fill="none" stroke="midnightblue" d="M101.166,-119.641C110.027,-121.004 119.341,-122.437 128.445,-123.838"/>
<polygon fill="midnightblue" stroke="midnightblue" points="128.184,-127.339 138.6,-125.4 129.248,-120.42 128.184,-127.339"/>
</g>
<!-- Node3 -->
<g id="node3" class="node"><title>Node3</title>
<g id="a_node3"><a xlink:href="string_8c.html#a0e45f80d2057e44647b21fd530fe185d" target="_top" xlink:title="string_fixedpoint_to\l_array">
<polygon fill="white" stroke="black" points="280,-77 280,-107 381,-107 381,-77 280,-77"/>
<text text-anchor="start" x="288" y="-95" font-family="Helvetica,sans-Serif" font-size="10.00">string_fixedpoint_to</text>
<text text-anchor="middle" x="330.5" y="-84" font-family="Helvetica,sans-Serif" font-size="10.00">_array</text>
</a>
</g>
</g>
<!-- Node2&#45;&gt;Node3 -->
<g id="edge2" class="edge"><title>Node2&#45;&gt;Node3</title>
<path fill="none" stroke="midnightblue" d="M238.79,-92C248.69,-92 259.211,-92 269.448,-92"/>
<polygon fill="midnightblue" stroke="midnightblue" points="269.556,-95.5001 279.556,-92 269.556,-88.5001 269.556,-95.5001"/>
</g>
<!-- Node4 -->
<g id="node4" class="node"><title>Node4</title>
<g id="a_node4"><a xlink:href="flash_8h.html#a936ded19cea6a94beca2b32349a9ac2c" target="_top" xlink:title="flash_store">
<polygon fill="white" stroke="black" points="298.5,-38.5 298.5,-57.5 362.5,-57.5 362.5,-38.5 298.5,-38.5"/>
<text text-anchor="middle" x="330.5" y="-45.5" font-family="Helvetica,sans-Serif" font-size="10.00">flash_store</text>
</a>
</g>
</g>
<!-- Node2&#45;&gt;Node4 -->
<g id="edge3" class="edge"><title>Node2&#45;&gt;Node4</title>
<path fill="none" stroke="midnightblue" d="M220.269,-82.4527C240.561,-76.0526 267.499,-67.556 289.546,-60.6021"/>
<polygon fill="midnightblue" stroke="midnightblue" points="290.806,-63.8747 299.29,-57.5287 288.7,-57.1989 290.806,-63.8747"/>
</g>
<!-- Node5 -->
<g id="node5" class="node"><title>Node5</title>
<g id="a_node5"><a xlink:href="flash_8c.html#ad9d8a7cadb959b139fea7654d539714a" target="_top" xlink:title="flash_read">
<polygon fill="white" stroke="black" points="441.5,-38.5 441.5,-57.5 502.5,-57.5 502.5,-38.5 441.5,-38.5"/>
<text text-anchor="middle" x="472" y="-45.5" font-family="Helvetica,sans-Serif" font-size="10.00">flash_read</text>
</a>
</g>
</g>
<!-- Node4&#45;&gt;Node5 -->
<g id="edge4" class="edge"><title>Node4&#45;&gt;Node5</title>
<path fill="none" stroke="midnightblue" d="M362.807,-48C382.964,-48 409.352,-48 431.021,-48"/>
<polygon fill="midnightblue" stroke="midnightblue" points="431.232,-51.5001 441.231,-48 431.231,-44.5001 431.232,-51.5001"/>
</g>
<!-- Node7 -->
<g id="node7" class="node"><title>Node7</title>
<g id="a_node7"><a xlink:href="external__interrupthandler_8h.html#a345dfb9a7e177c5da6eb9dc5b3c82bc9" target="_top" xlink:title="ext_interrupt_enable">
<polygon fill="white" stroke="black" points="278.5,-240.5 278.5,-259.5 382.5,-259.5 382.5,-240.5 278.5,-240.5"/>
<text text-anchor="middle" x="330.5" y="-247.5" font-family="Helvetica,sans-Serif" font-size="10.00">ext_interrupt_enable</text>
</a>
</g>
</g>
<!-- Node6&#45;&gt;Node7 -->
<g id="edge6" class="edge"><title>Node6&#45;&gt;Node7</title>
<path fill="none" stroke="midnightblue" d="M210.936,-202.598C228.459,-210.521 254.189,-221.902 277,-231 281.938,-232.969 287.169,-234.967 292.342,-236.89"/>
<polygon fill="midnightblue" stroke="midnightblue" points="291.531,-240.321 302.125,-240.471 293.937,-233.747 291.531,-240.321"/>
</g>
<!-- Node8 -->
<g id="node8" class="node"><title>Node8</title>
<g id="a_node8"><a xlink:href="si4735_8h.html#af82ec28b536b1258ea4178108c61d5e9" target="_top" xlink:title="si4735_fm_tune_freq">
<polygon fill="white" stroke="black" points="277.5,-202.5 277.5,-221.5 383.5,-221.5 383.5,-202.5 277.5,-202.5"/>
<text text-anchor="middle" x="330.5" y="-209.5" font-family="Helvetica,sans-Serif" font-size="10.00">si4735_fm_tune_freq</text>
</a>
</g>
</g>
<!-- Node6&#45;&gt;Node8 -->
<g id="edge7" class="edge"><title>Node6&#45;&gt;Node8</title>
<path fill="none" stroke="midnightblue" d="M230.724,-198.547C242.096,-200.096 254.721,-201.815 267.039,-203.493"/>
<polygon fill="midnightblue" stroke="midnightblue" points="266.899,-207.006 277.28,-204.888 267.844,-200.07 266.899,-207.006"/>
</g>
<!-- Node14 -->
<g id="node14" class="node"><title>Node14</title>
<g id="a_node14"><a xlink:href="external__interrupthandler_8h.html#a67fb5781413cf5c193be332cc6e52209" target="_top" xlink:title="ext_interrupt_disable">
<polygon fill="white" stroke="black" points="277,-164.5 277,-183.5 384,-183.5 384,-164.5 277,-164.5"/>
<text text-anchor="middle" x="330.5" y="-171.5" font-family="Helvetica,sans-Serif" font-size="10.00">ext_interrupt_disable</text>
</a>
</g>
</g>
<!-- Node6&#45;&gt;Node14 -->
<g id="edge13" class="edge"><title>Node6&#45;&gt;Node14</title>
<path fill="none" stroke="midnightblue" d="M230.724,-187.453C241.97,-185.922 254.442,-184.223 266.631,-182.563"/>
<polygon fill="midnightblue" stroke="midnightblue" points="267.333,-186 276.77,-181.182 266.389,-179.064 267.333,-186"/>
</g>
<!-- Node9 -->
<g id="node9" class="node"><title>Node9</title>
<g id="a_node9"><a xlink:href="i2c_8h.html#a6691e5911f539e1e8178c6e983e8079a" target="_top" xlink:title="Transmits I2C commands with a variable length to a I2C slave. ">
<polygon fill="white" stroke="black" points="680,-126.5 680,-145.5 752,-145.5 752,-126.5 680,-126.5"/>
<text text-anchor="middle" x="716" y="-133.5" font-family="Helvetica,sans-Serif" font-size="10.00">i2c_write_var</text>
</a>
</g>
</g>
<!-- Node8&#45;&gt;Node9 -->
<g id="edge8" class="edge"><title>Node8&#45;&gt;Node9</title>
<path fill="none" stroke="midnightblue" d="M374.187,-202.444C388.699,-199.299 405.03,-195.875 420,-193 519.165,-173.953 545.342,-176.52 644,-155 653.155,-153.003 662.901,-150.588 672.144,-148.16"/>
<polygon fill="midnightblue" stroke="midnightblue" points="673.173,-151.508 681.926,-145.538 671.361,-144.746 673.173,-151.508"/>
</g>
<!-- Node12 -->
<g id="node12" class="node"><title>Node12</title>
<g id="a_node12"><a xlink:href="si4735_8c.html#aad8341b5b19aa8f962a6b9b940d77960" target="_top" xlink:title="si4735_get_interrupt">
<polygon fill="white" stroke="black" points="420,-240.5 420,-259.5 524,-259.5 524,-240.5 420,-240.5"/>
<text text-anchor="middle" x="472" y="-247.5" font-family="Helvetica,sans-Serif" font-size="10.00">si4735_get_interrupt</text>
</a>
</g>
</g>
<!-- Node8&#45;&gt;Node12 -->
<g id="edge11" class="edge"><title>Node8&#45;&gt;Node12</title>
<path fill="none" stroke="midnightblue" d="M366.702,-221.589C384.71,-226.494 406.828,-232.52 426.056,-237.757"/>
<polygon fill="midnightblue" stroke="midnightblue" points="425.241,-241.163 435.81,-240.414 427.081,-234.409 425.241,-241.163"/>
</g>
<!-- Node13 -->
<g id="node13" class="node"><title>Node13</title>
<g id="a_node13"><a xlink:href="i2c_8h.html#a6dd896b0c82d1aa91a1a8155b41c4566" target="_top" xlink:title="Receives I2C commands until a NACK is received or received RxBytes. ">
<polygon fill="white" stroke="black" points="445.5,-202.5 445.5,-221.5 498.5,-221.5 498.5,-202.5 445.5,-202.5"/>
<text text-anchor="middle" x="472" y="-209.5" font-family="Helvetica,sans-Serif" font-size="10.00">i2c_read</text>
</a>
</g>
</g>
<!-- Node8&#45;&gt;Node13 -->
<g id="edge12" class="edge"><title>Node8&#45;&gt;Node13</title>
<path fill="none" stroke="midnightblue" d="M383.842,-212C400.927,-212 419.502,-212 435.097,-212"/>
<polygon fill="midnightblue" stroke="midnightblue" points="435.363,-215.5 445.363,-212 435.363,-208.5 435.363,-215.5"/>
</g>
<!-- Node10 -->
<g id="node10" class="node"><title>Node10</title>
<g id="a_node10"><a xlink:href="i2c_8c.html#ae0625b97d3437bcaca4ac4b96dd01978" target="_top" xlink:title="Transmits I2C command array to a I2C slave. ">
<polygon fill="white" stroke="black" points="788,-126.5 788,-145.5 859,-145.5 859,-126.5 788,-126.5"/>
<text text-anchor="middle" x="823.5" y="-133.5" font-family="Helvetica,sans-Serif" font-size="10.00">i2c_write_arr</text>
</a>
</g>
</g>
<!-- Node9&#45;&gt;Node10 -->
<g id="edge9" class="edge"><title>Node9&#45;&gt;Node10</title>
<path fill="none" stroke="midnightblue" d="M752.13,-136C760.312,-136 769.133,-136 777.671,-136"/>
<polygon fill="midnightblue" stroke="midnightblue" points="777.882,-139.5 787.882,-136 777.882,-132.5 777.882,-139.5"/>
</g>
<!-- Node11 -->
<g id="node11" class="node"><title>Node11</title>
<g id="a_node11"><a xlink:href="timer_8c.html#a3c56af3315c2461dec5ced585a5f84db" target="_top" xlink:title="_delay_ten_us">
<polygon fill="white" stroke="black" points="895,-107.5 895,-126.5 975,-126.5 975,-107.5 895,-107.5"/>
<text text-anchor="middle" x="935" y="-114.5" font-family="Helvetica,sans-Serif" font-size="10.00">_delay_ten_us</text>
</a>
</g>
</g>
<!-- Node10&#45;&gt;Node11 -->
<g id="edge10" class="edge"><title>Node10&#45;&gt;Node11</title>
<path fill="none" stroke="midnightblue" d="M859.146,-129.988C867.253,-128.582 876.042,-127.057 884.651,-125.563"/>
<polygon fill="midnightblue" stroke="midnightblue" points="885.368,-128.991 894.623,-123.833 884.172,-122.094 885.368,-128.991"/>
</g>
<!-- Node15&#45;&gt;Node4 -->
<g id="edge16" class="edge"><title>Node15&#45;&gt;Node4</title>
<path fill="none" stroke="midnightblue" d="M241.153,-48C256.545,-48 273.242,-48 287.933,-48"/>
<polygon fill="midnightblue" stroke="midnightblue" points="288.229,-51.5001 298.229,-48 288.229,-44.5001 288.229,-51.5001"/>
</g>
<!-- Node16 -->
<g id="node16" class="node"><title>Node16</title>
<g id="a_node16"><a xlink:href="flash_8h.html#ad9d8a7cadb959b139fea7654d539714a" target="_top" xlink:title="flash_read">
<polygon fill="white" stroke="black" points="300,-0.5 300,-19.5 361,-19.5 361,-0.5 300,-0.5"/>
<text text-anchor="middle" x="330.5" y="-7.5" font-family="Helvetica,sans-Serif" font-size="10.00">flash_read</text>
</a>
</g>
</g>
<!-- Node15&#45;&gt;Node16 -->
<g id="edge15" class="edge"><title>Node15&#45;&gt;Node16</title>
<path fill="none" stroke="midnightblue" d="M225.202,-38.411C245.04,-33.0071 269.866,-26.2443 290.32,-20.6726"/>
<polygon fill="midnightblue" stroke="midnightblue" points="291.24,-24.0496 299.969,-18.0443 289.401,-17.2957 291.24,-24.0496"/>
</g>
<!-- Node18 -->
<g id="node18" class="node"><title>Node18</title>
<g id="a_node18"><a xlink:href="lcd_8h.html#acd63fb85d212730fa4fcbcbeeccd231e" target="_top" xlink:title="lcd_create_view">
<polygon fill="white" stroke="black" points="288,-126.5 288,-145.5 373,-145.5 373,-126.5 288,-126.5"/>
<text text-anchor="middle" x="330.5" y="-133.5" font-family="Helvetica,sans-Serif" font-size="10.00">lcd_create_view</text>
</a>
</g>
</g>
<!-- Node17&#45;&gt;Node18 -->
<g id="edge18" class="edge"><title>Node17&#45;&gt;Node18</title>
<path fill="none" stroke="midnightblue" d="M239.182,-134.058C251.562,-134.324 264.89,-134.611 277.407,-134.88"/>
<polygon fill="midnightblue" stroke="midnightblue" points="277.618,-138.385 287.691,-135.101 277.769,-131.387 277.618,-138.385"/>
</g>
<!-- Node19 -->
<g id="node19" class="node"><title>Node19</title>
<g id="a_node19"><a xlink:href="lcd_8c.html#a2a4df97ebc5b396233aa31765228ef42" target="_top" xlink:title="lcd_set_courser">
<polygon fill="white" stroke="black" points="429,-88.5 429,-107.5 515,-107.5 515,-88.5 429,-88.5"/>
<text text-anchor="middle" x="472" y="-95.5" font-family="Helvetica,sans-Serif" font-size="10.00">lcd_set_courser</text>
</a>
</g>
</g>
<!-- Node18&#45;&gt;Node19 -->
<g id="edge19" class="edge"><title>Node18&#45;&gt;Node19</title>
<path fill="none" stroke="midnightblue" d="M366.702,-126.411C384.71,-121.506 406.828,-115.48 426.056,-110.243"/>
<polygon fill="midnightblue" stroke="midnightblue" points="427.081,-113.591 435.81,-107.586 425.241,-106.837 427.081,-113.591"/>
</g>
<!-- Node22 -->
<g id="node22" class="node"><title>Node22</title>
<g id="a_node22"><a xlink:href="lcd_8c.html#aa6e1aa2ef9b677e16d8198df683429ec" target="_top" xlink:title="lcd_write_string">
<polygon fill="white" stroke="black" points="560,-126.5 560,-145.5 644,-145.5 644,-126.5 560,-126.5"/>
<text text-anchor="middle" x="602" y="-133.5" font-family="Helvetica,sans-Serif" font-size="10.00">lcd_write_string</text>
</a>
</g>
</g>
<!-- Node18&#45;&gt;Node22 -->
<g id="edge24" class="edge"><title>Node18&#45;&gt;Node22</title>
<path fill="none" stroke="midnightblue" d="M373.019,-136C420.537,-136 498.394,-136 549.675,-136"/>
<polygon fill="midnightblue" stroke="midnightblue" points="549.876,-139.5 559.876,-136 549.876,-132.5 549.876,-139.5"/>
</g>
<!-- Node20 -->
<g id="node20" class="node"><title>Node20</title>
<g id="a_node20"><a xlink:href="lcd_8c.html#a250728451a22259562d3f01a12bbd77b" target="_top" xlink:title="lcd_command">
<polygon fill="white" stroke="black" points="563.5,-88.5 563.5,-107.5 640.5,-107.5 640.5,-88.5 563.5,-88.5"/>
<text text-anchor="middle" x="602" y="-95.5" font-family="Helvetica,sans-Serif" font-size="10.00">lcd_command</text>
</a>
</g>
</g>
<!-- Node19&#45;&gt;Node20 -->
<g id="edge20" class="edge"><title>Node19&#45;&gt;Node20</title>
<path fill="none" stroke="midnightblue" d="M515.267,-98C527.327,-98 540.557,-98 552.936,-98"/>
<polygon fill="midnightblue" stroke="midnightblue" points="553.091,-101.5 563.091,-98 553.091,-94.5001 553.091,-101.5"/>
</g>
<!-- Node20&#45;&gt;Node9 -->
<g id="edge21" class="edge"><title>Node20&#45;&gt;Node9</title>
<path fill="none" stroke="midnightblue" d="M631.262,-107.589C645.19,-112.314 662.18,-118.079 677.207,-123.177"/>
<polygon fill="midnightblue" stroke="midnightblue" points="676.152,-126.515 686.747,-126.414 678.401,-119.887 676.152,-126.515"/>
</g>
<!-- Node21 -->
<g id="node21" class="node"><title>Node21</title>
<g id="a_node21"><a xlink:href="timer_8c.html#a276d5cb665b9f8b2c79e53e2f2c5b4f0" target="_top" xlink:title="_delay_ms">
<polygon fill="white" stroke="black" points="791.5,-88.5 791.5,-107.5 855.5,-107.5 855.5,-88.5 791.5,-88.5"/>
<text text-anchor="middle" x="823.5" y="-95.5" font-family="Helvetica,sans-Serif" font-size="10.00">_delay_ms</text>
</a>
</g>
</g>
<!-- Node20&#45;&gt;Node21 -->
<g id="edge22" class="edge"><title>Node20&#45;&gt;Node21</title>
<path fill="none" stroke="midnightblue" d="M640.733,-98C679.861,-98 740.853,-98 781.237,-98"/>
<polygon fill="midnightblue" stroke="midnightblue" points="781.287,-101.5 791.287,-98 781.287,-94.5001 781.287,-101.5"/>
</g>
<!-- Node21&#45;&gt;Node11 -->
<g id="edge23" class="edge"><title>Node21&#45;&gt;Node11</title>
<path fill="none" stroke="midnightblue" d="M855.585,-103.394C864.595,-104.957 874.664,-106.704 884.505,-108.412"/>
<polygon fill="midnightblue" stroke="midnightblue" points="884.172,-111.906 894.623,-110.167 885.368,-105.009 884.172,-111.906"/>
</g>
<!-- Node22&#45;&gt;Node9 -->
<g id="edge25" class="edge"><title>Node22&#45;&gt;Node9</title>
<path fill="none" stroke="midnightblue" d="M644.069,-136C652.413,-136 661.234,-136 669.715,-136"/>
<polygon fill="midnightblue" stroke="midnightblue" points="669.836,-139.5 679.836,-136 669.836,-132.5 669.836,-139.5"/>
</g>
</g>
</svg>
