<?xml version="1.0" encoding="UTF-8" standalone="no"?>
<!DOCTYPE svg PUBLIC "-//W3C//DTD SVG 1.1//EN"
 "http://www.w3.org/Graphics/SVG/1.1/DTD/svg11.dtd">
<!-- Generated by graphviz version 2.38.0 (20140413.2041)
 -->
<!-- Title: station_list_handler Pages: 1 -->
<svg width="646pt" height="47pt"
 viewBox="0.00 0.00 646.00 47.00" xmlns="http://www.w3.org/2000/svg" xmlns:xlink="http://www.w3.org/1999/xlink">
<g id="graph0" class="graph" transform="scale(1 1) rotate(0) translate(4 43)">
<title>station_list_handler</title>
<polygon fill="white" stroke="none" points="-4,4 -4,-43 642,-43 642,4 -4,4"/>
<!-- Node1 -->
<g id="node1" class="node"><title>Node1</title>
<polygon fill="#bfbfbf" stroke="black" points="0,-19.5 0,-38.5 101,-38.5 101,-19.5 0,-19.5"/>
<text text-anchor="middle" x="50.5" y="-26.5" font-family="Helvetica,sans-Serif" font-size="10.00">station_list_handler</text>
</g>
<!-- Node2 -->
<g id="node2" class="node"><title>Node2</title>
<g id="a_node2"><a xlink:href="radio_8c.html#a832a684fc60104296fc975a7608f92b4" target="_top" xlink:title="radio_settings">
<polygon fill="white" stroke="black" points="258,-19.5 258,-38.5 335,-38.5 335,-19.5 258,-19.5"/>
<text text-anchor="middle" x="296.5" y="-26.5" font-family="Helvetica,sans-Serif" font-size="10.00">radio_settings</text>
</a>
</g>
</g>
<!-- Node1&#45;&gt;Node2 -->
<g id="edge1" class="edge"><title>Node1&#45;&gt;Node2</title>
<path fill="none" stroke="midnightblue" d="M111.266,-29C157.039,-29 218.774,-29 257.865,-29"/>
<polygon fill="midnightblue" stroke="midnightblue" points="111.171,-25.5001 101.171,-29 111.171,-32.5001 111.171,-25.5001"/>
</g>
<!-- Node6 -->
<g id="node6" class="node"><title>Node6</title>
<g id="a_node6"><a xlink:href="radio_8c.html#aae41d271062b3f94cccf4fb5996b04a2" target="_top" xlink:title="radio_frequency">
<polygon fill="white" stroke="black" points="137,-0.5 137,-19.5 222,-19.5 222,-0.5 137,-0.5"/>
<text text-anchor="middle" x="179.5" y="-7.5" font-family="Helvetica,sans-Serif" font-size="10.00">radio_frequency</text>
</a>
</g>
</g>
<!-- Node1&#45;&gt;Node6 -->
<g id="edge5" class="edge"><title>Node1&#45;&gt;Node6</title>
<path fill="none" stroke="midnightblue" d="M111.296,-20.0542C119.853,-18.774 128.5,-17.4803 136.613,-16.2666"/>
<polygon fill="midnightblue" stroke="midnightblue" points="110.701,-16.6041 101.329,-21.5452 111.737,-23.527 110.701,-16.6041"/>
</g>
<!-- Node3 -->
<g id="node3" class="node"><title>Node3</title>
<g id="a_node3"><a xlink:href="menu_8c.html#a5d9c190838195d7872fc7067269e20fa" target="_top" xlink:title="menu_function">
<polygon fill="white" stroke="black" points="371,-19.5 371,-38.5 451,-38.5 451,-19.5 371,-19.5"/>
<text text-anchor="middle" x="411" y="-26.5" font-family="Helvetica,sans-Serif" font-size="10.00">menu_function</text>
</a>
</g>
</g>
<!-- Node2&#45;&gt;Node3 -->
<g id="edge2" class="edge"><title>Node2&#45;&gt;Node3</title>
<path fill="none" stroke="midnightblue" d="M345.474,-29C353.985,-29 362.755,-29 370.981,-29"/>
<polygon fill="midnightblue" stroke="midnightblue" points="345.274,-25.5001 335.274,-29 345.274,-32.5001 345.274,-25.5001"/>
</g>
<!-- Node4 -->
<g id="node4" class="node"><title>Node4</title>
<g id="a_node4"><a xlink:href="menu_8c.html#aaf2a075d3159f7eeab42012941a3437f" target="_top" xlink:title="menu_handler">
<polygon fill="white" stroke="black" points="487,-19.5 487,-38.5 564,-38.5 564,-19.5 487,-19.5"/>
<text text-anchor="middle" x="525.5" y="-26.5" font-family="Helvetica,sans-Serif" font-size="10.00">menu_handler</text>
</a>
</g>
</g>
<!-- Node3&#45;&gt;Node4 -->
<g id="edge3" class="edge"><title>Node3&#45;&gt;Node4</title>
<path fill="none" stroke="midnightblue" d="M461.262,-29C469.783,-29 478.52,-29 486.676,-29"/>
<polygon fill="midnightblue" stroke="midnightblue" points="461.031,-25.5001 451.031,-29 461.031,-32.5001 461.031,-25.5001"/>
</g>
<!-- Node5 -->
<g id="node5" class="node"><title>Node5</title>
<g id="a_node5"><a xlink:href="main_8c.html#a840291bc02cba5474a4cb46a9b9566fe" target="_top" xlink:title="main">
<polygon fill="white" stroke="black" points="600,-19.5 600,-38.5 638,-38.5 638,-19.5 600,-19.5"/>
<text text-anchor="middle" x="619" y="-26.5" font-family="Helvetica,sans-Serif" font-size="10.00">main</text>
</a>
</g>
</g>
<!-- Node4&#45;&gt;Node5 -->
<g id="edge4" class="edge"><title>Node4&#45;&gt;Node5</title>
<path fill="none" stroke="midnightblue" d="M574.362,-29C583.347,-29 592.223,-29 599.601,-29"/>
<polygon fill="midnightblue" stroke="midnightblue" points="574.245,-25.5001 564.245,-29 574.245,-32.5001 574.245,-25.5001"/>
</g>
<!-- Node6&#45;&gt;Node2 -->
<g id="edge6" class="edge"><title>Node6&#45;&gt;Node2</title>
<path fill="none" stroke="midnightblue" d="M232.077,-18.5214C240.759,-19.9558 249.622,-21.4202 257.865,-22.782"/>
<polygon fill="midnightblue" stroke="midnightblue" points="232.454,-15.0364 222.018,-16.8594 231.313,-21.9428 232.454,-15.0364"/>
</g>
</g>
</svg>
