<?xml version="1.0" encoding="UTF-8" standalone="no"?>
<!DOCTYPE svg PUBLIC "-//W3C//DTD SVG 1.1//EN"
 "http://www.w3.org/Graphics/SVG/1.1/DTD/svg11.dtd">
<!-- Generated by graphviz version 2.38.0 (20140413.2041)
 -->
<!-- Title: D:/GIT/fhradiov2/system/station_list_struct.h Pages: 1 -->
<svg width="876pt" height="374pt"
 viewBox="0.00 0.00 876.00 374.00" xmlns="http://www.w3.org/2000/svg" xmlns:xlink="http://www.w3.org/1999/xlink">
<g id="graph0" class="graph" transform="scale(1 1) rotate(0) translate(4 370)">
<title>D:/GIT/fhradiov2/system/station_list_struct.h</title>
<polygon fill="white" stroke="none" points="-4,4 -4,-370 872,-370 872,4 -4,4"/>
<!-- Node1 -->
<g id="node1" class="node"><title>Node1</title>
<polygon fill="#bfbfbf" stroke="black" points="403,-335.5 403,-365.5 523,-365.5 523,-335.5 403,-335.5"/>
<text text-anchor="start" x="411" y="-353.5" font-family="Helvetica,sans-Serif" font-size="10.00">D:/GIT/fhradiov2/system</text>
<text text-anchor="middle" x="463" y="-342.5" font-family="Helvetica,sans-Serif" font-size="10.00">/station_list_struct.h</text>
</g>
<!-- Node2 -->
<g id="node2" class="node"><title>Node2</title>
<g id="a_node2"><a xlink:href="station__list__struct_8c.html" target="_top" xlink:title="D:/GIT/fhradiov2/system\l/src/station_list_struct.c">
<polygon fill="white" stroke="black" points="313,-268.5 313,-298.5 435,-298.5 435,-268.5 313,-268.5"/>
<text text-anchor="start" x="321" y="-286.5" font-family="Helvetica,sans-Serif" font-size="10.00">D:/GIT/fhradiov2/system</text>
<text text-anchor="middle" x="374" y="-275.5" font-family="Helvetica,sans-Serif" font-size="10.00">/src/station_list_struct.c</text>
</a>
</g>
</g>
<!-- Node1&#45;&gt;Node2 -->
<g id="edge1" class="edge"><title>Node1&#45;&gt;Node2</title>
<path fill="none" stroke="midnightblue" d="M435.548,-329.451C421.857,-319.452 405.629,-307.6 393.274,-298.577"/>
<polygon fill="midnightblue" stroke="midnightblue" points="433.548,-332.324 443.688,-335.396 437.677,-326.672 433.548,-332.324"/>
</g>
<!-- Node3 -->
<g id="node3" class="node"><title>Node3</title>
<g id="a_node3"><a xlink:href="station__list_8h.html" target="_top" xlink:title="D:/GIT/fhradiov2/system\l/station_list.h">
<polygon fill="white" stroke="black" points="491,-268.5 491,-298.5 611,-298.5 611,-268.5 491,-268.5"/>
<text text-anchor="start" x="499" y="-286.5" font-family="Helvetica,sans-Serif" font-size="10.00">D:/GIT/fhradiov2/system</text>
<text text-anchor="middle" x="551" y="-275.5" font-family="Helvetica,sans-Serif" font-size="10.00">/station_list.h</text>
</a>
</g>
</g>
<!-- Node1&#45;&gt;Node3 -->
<g id="edge2" class="edge"><title>Node1&#45;&gt;Node3</title>
<path fill="none" stroke="midnightblue" d="M490.143,-329.451C503.681,-319.452 519.727,-307.6 531.943,-298.577"/>
<polygon fill="midnightblue" stroke="midnightblue" points="488.059,-326.639 482.095,-335.396 492.218,-332.27 488.059,-326.639"/>
</g>
<!-- Node4 -->
<g id="node4" class="node"><title>Node4</title>
<g id="a_node4"><a xlink:href="radio_8h.html" target="_top" xlink:title="D:/GIT/fhradiov2/system\l/radio.h">
<polygon fill="white" stroke="black" points="403,-201.5 403,-231.5 523,-231.5 523,-201.5 403,-201.5"/>
<text text-anchor="start" x="411" y="-219.5" font-family="Helvetica,sans-Serif" font-size="10.00">D:/GIT/fhradiov2/system</text>
<text text-anchor="middle" x="463" y="-208.5" font-family="Helvetica,sans-Serif" font-size="10.00">/radio.h</text>
</a>
</g>
</g>
<!-- Node3&#45;&gt;Node4 -->
<g id="edge3" class="edge"><title>Node3&#45;&gt;Node4</title>
<path fill="none" stroke="midnightblue" d="M523.857,-262.451C510.319,-252.452 494.273,-240.6 482.057,-231.577"/>
<polygon fill="midnightblue" stroke="midnightblue" points="521.782,-265.27 531.905,-268.396 525.941,-259.639 521.782,-265.27"/>
</g>
<!-- Node17 -->
<g id="node17" class="node"><title>Node17</title>
<g id="a_node17"><a xlink:href="station__list_8c.html" target="_top" xlink:title="D:/GIT/fhradiov2/system\l/src/station_list.c">
<polygon fill="white" stroke="black" points="541,-201.5 541,-231.5 661,-231.5 661,-201.5 541,-201.5"/>
<text text-anchor="start" x="549" y="-219.5" font-family="Helvetica,sans-Serif" font-size="10.00">D:/GIT/fhradiov2/system</text>
<text text-anchor="middle" x="601" y="-208.5" font-family="Helvetica,sans-Serif" font-size="10.00">/src/station_list.c</text>
</a>
</g>
</g>
<!-- Node3&#45;&gt;Node17 -->
<g id="edge23" class="edge"><title>Node3&#45;&gt;Node17</title>
<path fill="none" stroke="midnightblue" d="M567.964,-260.447C575.309,-250.899 583.689,-240.004 590.172,-231.577"/>
<polygon fill="midnightblue" stroke="midnightblue" points="565.172,-258.336 561.849,-268.396 570.721,-262.604 565.172,-258.336"/>
</g>
<!-- Node4&#45;&gt;Node1 -->
<g id="edge22" class="edge"><title>Node4&#45;&gt;Node1</title>
<path fill="none" stroke="midnightblue" d="M463,-241.851C463,-269.313 463,-313.044 463,-335.374"/>
<polygon fill="midnightblue" stroke="midnightblue" points="466.5,-241.525 463,-231.525 459.5,-241.525 466.5,-241.525"/>
</g>
<!-- Node5 -->
<g id="node5" class="node"><title>Node5</title>
<g id="a_node5"><a xlink:href="main_8c.html" target="_top" xlink:title="D:/GIT/fhradiov2/main.c">
<polygon fill="white" stroke="black" points="260.5,-73 260.5,-92 377.5,-92 377.5,-73 260.5,-73"/>
<text text-anchor="middle" x="319" y="-80" font-family="Helvetica,sans-Serif" font-size="10.00">D:/GIT/fhradiov2/main.c</text>
</a>
</g>
</g>
<!-- Node4&#45;&gt;Node5 -->
<g id="edge4" class="edge"><title>Node4&#45;&gt;Node5</title>
<path fill="none" stroke="midnightblue" d="M392.808,-205.931C367.505,-198.831 341.218,-186.479 325,-165 308.585,-143.261 313.418,-108.287 316.86,-92.1583"/>
<polygon fill="midnightblue" stroke="midnightblue" points="392.25,-209.402 402.806,-208.49 393.986,-202.62 392.25,-209.402"/>
</g>
<!-- Node6 -->
<g id="node6" class="node"><title>Node6</title>
<g id="a_node6"><a xlink:href="menu_8h.html" target="_top" xlink:title="D:/GIT/fhradiov2/menu\l/menu.h">
<polygon fill="white" stroke="black" points="142,-134.5 142,-164.5 254,-164.5 254,-134.5 142,-134.5"/>
<text text-anchor="start" x="150" y="-152.5" font-family="Helvetica,sans-Serif" font-size="10.00">D:/GIT/fhradiov2/menu</text>
<text text-anchor="middle" x="198" y="-141.5" font-family="Helvetica,sans-Serif" font-size="10.00">/menu.h</text>
</a>
</g>
</g>
<!-- Node4&#45;&gt;Node6 -->
<g id="edge5" class="edge"><title>Node4&#45;&gt;Node6</title>
<path fill="none" stroke="midnightblue" d="M392.844,-199.735C347.832,-188.994 290.446,-174.901 249.594,-164.546"/>
<polygon fill="midnightblue" stroke="midnightblue" points="392.293,-203.201 402.831,-202.111 393.913,-196.391 392.293,-203.201"/>
</g>
<!-- Node10 -->
<g id="node10" class="node"><title>Node10</title>
<g id="a_node10"><a xlink:href="radio__display_8h.html" target="_top" xlink:title="D:/GIT/fhradiov2/system\l/radio_display.h">
<polygon fill="white" stroke="black" points="610,-134.5 610,-164.5 730,-164.5 730,-134.5 610,-134.5"/>
<text text-anchor="start" x="618" y="-152.5" font-family="Helvetica,sans-Serif" font-size="10.00">D:/GIT/fhradiov2/system</text>
<text text-anchor="middle" x="670" y="-141.5" font-family="Helvetica,sans-Serif" font-size="10.00">/radio_display.h</text>
</a>
</g>
</g>
<!-- Node4&#45;&gt;Node10 -->
<g id="edge12" class="edge"><title>Node4&#45;&gt;Node10</title>
<path fill="none" stroke="midnightblue" d="M511.962,-198.228C544.395,-187.713 586.753,-174.451 619.497,-164.577"/>
<polygon fill="midnightblue" stroke="midnightblue" points="510.662,-194.97 502.237,-201.396 512.83,-201.626 510.662,-194.97"/>
</g>
<!-- Node12 -->
<g id="node12" class="node"><title>Node12</title>
<g id="a_node12"><a xlink:href="rds_8h.html" target="_top" xlink:title="D:/GIT/fhradiov2/system\l/rds.h">
<polygon fill="white" stroke="black" points="334,-134.5 334,-164.5 454,-164.5 454,-134.5 334,-134.5"/>
<text text-anchor="start" x="342" y="-152.5" font-family="Helvetica,sans-Serif" font-size="10.00">D:/GIT/fhradiov2/system</text>
<text text-anchor="middle" x="394" y="-141.5" font-family="Helvetica,sans-Serif" font-size="10.00">/rds.h</text>
</a>
</g>
</g>
<!-- Node4&#45;&gt;Node12 -->
<g id="edge15" class="edge"><title>Node4&#45;&gt;Node12</title>
<path fill="none" stroke="midnightblue" d="M440.508,-194.311C430.157,-184.561 418.16,-173.259 408.943,-164.577"/>
<polygon fill="midnightblue" stroke="midnightblue" points="438.349,-197.087 448.028,-201.396 443.149,-191.991 438.349,-197.087"/>
</g>
<!-- Node14 -->
<g id="node14" class="node"><title>Node14</title>
<g id="a_node14"><a xlink:href="rsq_8h.html" target="_top" xlink:title="D:/GIT/fhradiov2/system\l/rsq.h">
<polygon fill="white" stroke="black" points="472,-134.5 472,-164.5 592,-164.5 592,-134.5 472,-134.5"/>
<text text-anchor="start" x="480" y="-152.5" font-family="Helvetica,sans-Serif" font-size="10.00">D:/GIT/fhradiov2/system</text>
<text text-anchor="middle" x="532" y="-141.5" font-family="Helvetica,sans-Serif" font-size="10.00">/rsq.h</text>
</a>
</g>
</g>
<!-- Node4&#45;&gt;Node14 -->
<g id="edge18" class="edge"><title>Node4&#45;&gt;Node14</title>
<path fill="none" stroke="midnightblue" d="M485.492,-194.311C495.843,-184.561 507.84,-173.259 517.057,-164.577"/>
<polygon fill="midnightblue" stroke="midnightblue" points="482.851,-191.991 477.972,-201.396 487.651,-197.087 482.851,-191.991"/>
</g>
<!-- Node16 -->
<g id="node16" class="node"><title>Node16</title>
<g id="a_node16"><a xlink:href="radio_8c.html" target="_top" xlink:title="D:/GIT/fhradiov2/system\l/src/radio.c">
<polygon fill="white" stroke="black" points="748,-134.5 748,-164.5 868,-164.5 868,-134.5 748,-134.5"/>
<text text-anchor="start" x="756" y="-152.5" font-family="Helvetica,sans-Serif" font-size="10.00">D:/GIT/fhradiov2/system</text>
<text text-anchor="middle" x="808" y="-141.5" font-family="Helvetica,sans-Serif" font-size="10.00">/src/radio.c</text>
</a>
</g>
</g>
<!-- Node4&#45;&gt;Node16 -->
<g id="edge21" class="edge"><title>Node4&#45;&gt;Node16</title>
<path fill="none" stroke="midnightblue" d="M533.229,-200.805C625.398,-183.322 650.428,-182.003 739,-165 741.885,-164.446 744.836,-163.869 747.814,-163.277"/>
<polygon fill="midnightblue" stroke="midnightblue" points="532.352,-197.409 523.186,-202.723 533.665,-204.285 532.352,-197.409"/>
</g>
<!-- Node6&#45;&gt;Node4 -->
<g id="edge11" class="edge"><title>Node6&#45;&gt;Node4</title>
<path fill="none" stroke="midnightblue" d="M264.054,-165.288C309.666,-176.146 369.385,-190.802 411.493,-201.476"/>
<polygon fill="midnightblue" stroke="midnightblue" points="264.792,-161.866 254.254,-162.962 263.175,-168.676 264.792,-161.866"/>
</g>
<!-- Node6&#45;&gt;Node5 -->
<g id="edge6" class="edge"><title>Node6&#45;&gt;Node5</title>
<path fill="none" stroke="midnightblue" d="M233.112,-129.638C256.261,-117.203 285.467,-101.514 303.164,-92.007"/>
<polygon fill="midnightblue" stroke="midnightblue" points="231.408,-126.58 224.255,-134.396 234.721,-132.747 231.408,-126.58"/>
</g>
<!-- Node7 -->
<g id="node7" class="node"><title>Node7</title>
<g id="a_node7"><a xlink:href="menu__struct_8h.html" target="_top" xlink:title="D:/GIT/fhradiov2/menu\l/menu_struct.h">
<polygon fill="white" stroke="black" points="0,-67.5 0,-97.5 112,-97.5 112,-67.5 0,-67.5"/>
<text text-anchor="start" x="8" y="-85.5" font-family="Helvetica,sans-Serif" font-size="10.00">D:/GIT/fhradiov2/menu</text>
<text text-anchor="middle" x="56" y="-74.5" font-family="Helvetica,sans-Serif" font-size="10.00">/menu_struct.h</text>
</a>
</g>
</g>
<!-- Node6&#45;&gt;Node7 -->
<g id="edge7" class="edge"><title>Node6&#45;&gt;Node7</title>
<path fill="none" stroke="midnightblue" d="M152.037,-130.269C128.468,-119.916 100.739,-107.153 81.0769,-97.5765"/>
<polygon fill="midnightblue" stroke="midnightblue" points="150.944,-133.61 161.51,-134.396 153.74,-127.193 150.944,-133.61"/>
</g>
<!-- Node9 -->
<g id="node9" class="node"><title>Node9</title>
<g id="a_node9"><a xlink:href="menu_8c.html" target="_top" xlink:title="D:/GIT/fhradiov2/menu\l/src/menu.c">
<polygon fill="white" stroke="black" points="130,-67.5 130,-97.5 242,-97.5 242,-67.5 130,-67.5"/>
<text text-anchor="start" x="138" y="-85.5" font-family="Helvetica,sans-Serif" font-size="10.00">D:/GIT/fhradiov2/menu</text>
<text text-anchor="middle" x="186" y="-74.5" font-family="Helvetica,sans-Serif" font-size="10.00">/src/menu.c</text>
</a>
</g>
</g>
<!-- Node6&#45;&gt;Node9 -->
<g id="edge10" class="edge"><title>Node6&#45;&gt;Node9</title>
<path fill="none" stroke="midnightblue" d="M193.551,-124.403C191.884,-115.37 190.045,-105.408 188.599,-97.5765"/>
<polygon fill="midnightblue" stroke="midnightblue" points="190.139,-125.198 195.396,-134.396 197.022,-123.927 190.139,-125.198"/>
</g>
<!-- Node7&#45;&gt;Node6 -->
<g id="edge8" class="edge"><title>Node7&#45;&gt;Node6</title>
<path fill="none" stroke="midnightblue" d="M101.896,-101.702C125.457,-112.05 153.189,-124.814 172.867,-134.396"/>
<polygon fill="midnightblue" stroke="midnightblue" points="102.992,-98.3617 92.4266,-97.5765 100.197,-104.779 102.992,-98.3617"/>
</g>
<!-- Node8 -->
<g id="node8" class="node"><title>Node8</title>
<g id="a_node8"><a xlink:href="menu__struct_8c.html" target="_top" xlink:title="D:/GIT/fhradiov2/menu\l/src/menu_struct.c">
<polygon fill="white" stroke="black" points="0,-0.5 0,-30.5 112,-30.5 112,-0.5 0,-0.5"/>
<text text-anchor="start" x="8" y="-18.5" font-family="Helvetica,sans-Serif" font-size="10.00">D:/GIT/fhradiov2/menu</text>
<text text-anchor="middle" x="56" y="-7.5" font-family="Helvetica,sans-Serif" font-size="10.00">/src/menu_struct.c</text>
</a>
</g>
</g>
<!-- Node7&#45;&gt;Node8 -->
<g id="edge9" class="edge"><title>Node7&#45;&gt;Node8</title>
<path fill="none" stroke="midnightblue" d="M56,-57.1081C56,-48.1539 56,-38.3227 56,-30.5765"/>
<polygon fill="midnightblue" stroke="midnightblue" points="52.5001,-57.3959 56,-67.396 59.5001,-57.396 52.5001,-57.3959"/>
</g>
<!-- Node10&#45;&gt;Node4 -->
<g id="edge13" class="edge"><title>Node10&#45;&gt;Node4</title>
<path fill="none" stroke="midnightblue" d="M621.001,-167.784C588.516,-178.316 546.084,-191.6 513.329,-201.476"/>
<polygon fill="midnightblue" stroke="midnightblue" points="622.317,-171.036 630.741,-164.611 620.149,-164.381 622.317,-171.036"/>
</g>
<!-- Node11 -->
<g id="node11" class="node"><title>Node11</title>
<g id="a_node11"><a xlink:href="radio__display_8c.html" target="_top" xlink:title="D:/GIT/fhradiov2/system\l/src/radio_display.c">
<polygon fill="white" stroke="black" points="672,-67.5 672,-97.5 792,-97.5 792,-67.5 672,-67.5"/>
<text text-anchor="start" x="680" y="-85.5" font-family="Helvetica,sans-Serif" font-size="10.00">D:/GIT/fhradiov2/system</text>
<text text-anchor="middle" x="732" y="-74.5" font-family="Helvetica,sans-Serif" font-size="10.00">/src/radio_display.c</text>
</a>
</g>
</g>
<!-- Node10&#45;&gt;Node11 -->
<g id="edge14" class="edge"><title>Node10&#45;&gt;Node11</title>
<path fill="none" stroke="midnightblue" d="M690.485,-127.024C699.722,-117.34 710.373,-106.174 718.573,-97.5765"/>
<polygon fill="midnightblue" stroke="midnightblue" points="687.823,-124.744 683.453,-134.396 692.888,-129.576 687.823,-124.744"/>
</g>
<!-- Node12&#45;&gt;Node5 -->
<g id="edge16" class="edge"><title>Node12&#45;&gt;Node5</title>
<path fill="none" stroke="midnightblue" d="M369.968,-127.672C356.12,-115.671 339.446,-101.22 329.032,-92.1945"/>
<polygon fill="midnightblue" stroke="midnightblue" points="367.877,-130.492 377.726,-134.396 372.461,-125.202 367.877,-130.492"/>
</g>
<!-- Node13 -->
<g id="node13" class="node"><title>Node13</title>
<g id="a_node13"><a xlink:href="rds_8c.html" target="_top" xlink:title="D:/GIT/fhradiov2/system\l/src/rds.c">
<polygon fill="white" stroke="black" points="396,-67.5 396,-97.5 516,-97.5 516,-67.5 396,-67.5"/>
<text text-anchor="start" x="404" y="-85.5" font-family="Helvetica,sans-Serif" font-size="10.00">D:/GIT/fhradiov2/system</text>
<text text-anchor="middle" x="456" y="-74.5" font-family="Helvetica,sans-Serif" font-size="10.00">/src/rds.c</text>
</a>
</g>
</g>
<!-- Node12&#45;&gt;Node13 -->
<g id="edge17" class="edge"><title>Node12&#45;&gt;Node13</title>
<path fill="none" stroke="midnightblue" d="M414.485,-127.024C423.722,-117.34 434.373,-106.174 442.573,-97.5765"/>
<polygon fill="midnightblue" stroke="midnightblue" points="411.823,-124.744 407.453,-134.396 416.888,-129.576 411.823,-124.744"/>
</g>
<!-- Node14&#45;&gt;Node5 -->
<g id="edge19" class="edge"><title>Node14&#45;&gt;Node5</title>
<path fill="none" stroke="midnightblue" d="M476.326,-131.51C434.758,-118.825 379.695,-102.022 346.948,-92.0287"/>
<polygon fill="midnightblue" stroke="midnightblue" points="475.458,-134.905 486.044,-134.476 477.501,-128.21 475.458,-134.905"/>
</g>
<!-- Node15 -->
<g id="node15" class="node"><title>Node15</title>
<g id="a_node15"><a xlink:href="rsq_8c.html" target="_top" xlink:title="D:/GIT/fhradiov2/system\l/src/rsq.c">
<polygon fill="white" stroke="black" points="534,-67.5 534,-97.5 654,-97.5 654,-67.5 534,-67.5"/>
<text text-anchor="start" x="542" y="-85.5" font-family="Helvetica,sans-Serif" font-size="10.00">D:/GIT/fhradiov2/system</text>
<text text-anchor="middle" x="594" y="-74.5" font-family="Helvetica,sans-Serif" font-size="10.00">/src/rsq.c</text>
</a>
</g>
</g>
<!-- Node14&#45;&gt;Node15 -->
<g id="edge20" class="edge"><title>Node14&#45;&gt;Node15</title>
<path fill="none" stroke="midnightblue" d="M552.485,-127.024C561.722,-117.34 572.373,-106.174 580.573,-97.5765"/>
<polygon fill="midnightblue" stroke="midnightblue" points="549.823,-124.744 545.453,-134.396 554.888,-129.576 549.823,-124.744"/>
</g>
</g>
</svg>
