<?xml version="1.0" encoding="UTF-8" standalone="no"?>
<!DOCTYPE svg PUBLIC "-//W3C//DTD SVG 1.1//EN"
 "http://www.w3.org/Graphics/SVG/1.1/DTD/svg11.dtd">
<!-- Generated by graphviz version 2.38.0 (20140413.2041)
 -->
<!-- Title: D:/GIT/fhradiov2/system/src/station_list_struct.c Pages: 1 -->
<svg width="1617pt" height="643pt"
 viewBox="0.00 0.00 1616.50 643.00" xmlns="http://www.w3.org/2000/svg" xmlns:xlink="http://www.w3.org/1999/xlink">
<g id="graph0" class="graph" transform="scale(1 1) rotate(0) translate(4 639)">
<title>D:/GIT/fhradiov2/system/src/station_list_struct.c</title>
<polygon fill="white" stroke="none" points="-4,4 -4,-639 1612.5,-639 1612.5,4 -4,4"/>
<!-- Node1 -->
<g id="node1" class="node"><title>Node1</title>
<polygon fill="#bfbfbf" stroke="black" points="955,-604.5 955,-634.5 1077,-634.5 1077,-604.5 955,-604.5"/>
<text text-anchor="start" x="963" y="-622.5" font-family="Helvetica,sans-Serif" font-size="10.00">D:/GIT/fhradiov2/system</text>
<text text-anchor="middle" x="1016" y="-611.5" font-family="Helvetica,sans-Serif" font-size="10.00">/src/station_list_struct.c</text>
</g>
<!-- Node2 -->
<g id="node2" class="node"><title>Node2</title>
<g id="a_node2"><a xlink:href="station__list__struct_8h.html" target="_top" xlink:title="system/station_list\l_struct.h">
<polygon fill="white" stroke="black" points="966.5,-537.5 966.5,-567.5 1065.5,-567.5 1065.5,-537.5 966.5,-537.5"/>
<text text-anchor="start" x="974.5" y="-555.5" font-family="Helvetica,sans-Serif" font-size="10.00">system/station_list</text>
<text text-anchor="middle" x="1016" y="-544.5" font-family="Helvetica,sans-Serif" font-size="10.00">_struct.h</text>
</a>
</g>
</g>
<!-- Node1&#45;&gt;Node2 -->
<g id="edge1" class="edge"><title>Node1&#45;&gt;Node2</title>
<path fill="none" stroke="midnightblue" d="M1016,-604.396C1016,-596.645 1016,-586.812 1016,-577.86"/>
<polygon fill="midnightblue" stroke="midnightblue" points="1019.5,-577.576 1016,-567.577 1012.5,-577.577 1019.5,-577.576"/>
</g>
<!-- Node3 -->
<g id="node3" class="node"><title>Node3</title>
<polygon fill="white" stroke="#bfbfbf" points="916.5,-0.5 916.5,-19.5 965.5,-19.5 965.5,-0.5 916.5,-0.5"/>
<text text-anchor="middle" x="941" y="-7.5" font-family="Helvetica,sans-Serif" font-size="10.00">stdint.h</text>
</g>
<!-- Node2&#45;&gt;Node3 -->
<g id="edge2" class="edge"><title>Node2&#45;&gt;Node3</title>
<path fill="none" stroke="midnightblue" d="M966.308,-551.136C762.327,-548.996 0,-534.415 0,-436 0,-436 0,-436 0,-132 0,-84.231 32.3571,-75.421 76,-56 152.727,-21.8565 754.204,-13.0357 906.201,-11.3425"/>
<polygon fill="midnightblue" stroke="midnightblue" points="906.393,-14.8407 916.354,-11.2326 906.317,-7.84111 906.393,-14.8407"/>
</g>
<!-- Node4 -->
<g id="node4" class="node"><title>Node4</title>
<g id="a_node4"><a xlink:href="radio_8h.html" target="_top" xlink:title="system/radio.h">
<polygon fill="white" stroke="black" points="975.5,-481.5 975.5,-500.5 1056.5,-500.5 1056.5,-481.5 975.5,-481.5"/>
<text text-anchor="middle" x="1016" y="-488.5" font-family="Helvetica,sans-Serif" font-size="10.00">system/radio.h</text>
</a>
</g>
</g>
<!-- Node2&#45;&gt;Node4 -->
<g id="edge3" class="edge"><title>Node2&#45;&gt;Node4</title>
<path fill="none" stroke="midnightblue" d="M1016,-537.399C1016,-529.466 1016,-519.458 1016,-510.858"/>
<polygon fill="midnightblue" stroke="midnightblue" points="1019.5,-510.658 1016,-500.658 1012.5,-510.658 1019.5,-510.658"/>
</g>
<!-- Node4&#45;&gt;Node3 -->
<g id="edge4" class="edge"><title>Node4&#45;&gt;Node3</title>
<path fill="none" stroke="midnightblue" d="M1056.57,-487.554C1142.09,-481.984 1334.65,-467.101 1354,-445 1359.86,-438.313 1354.25,-433.885 1354,-425 1351.11,-320.436 1341,-294.604 1341,-190 1341,-190 1341,-190 1341,-132 1341,-88.1259 1316.38,-77.2535 1278,-56 1226.69,-27.5886 1051.96,-16.1702 976.351,-12.4831"/>
<polygon fill="midnightblue" stroke="midnightblue" points="976.094,-8.96725 965.941,-11.9941 975.766,-15.9595 976.094,-8.96725"/>
</g>
<!-- Node5 -->
<g id="node5" class="node"><title>Node5</title>
<g id="a_node5"><a xlink:href="pca9530_8h.html" target="_top" xlink:title="driver/pca9530.h">
<polygon fill="white" stroke="black" points="28.5,-308 28.5,-327 115.5,-327 115.5,-308 28.5,-308"/>
<text text-anchor="middle" x="72" y="-315" font-family="Helvetica,sans-Serif" font-size="10.00">driver/pca9530.h</text>
</a>
</g>
</g>
<!-- Node4&#45;&gt;Node5 -->
<g id="edge5" class="edge"><title>Node4&#45;&gt;Node5</title>
<path fill="none" stroke="midnightblue" d="M975.047,-490.074C840.192,-489.915 411.166,-486.112 280,-445 202.624,-420.748 124.401,-361.797 90.0586,-333.778"/>
<polygon fill="midnightblue" stroke="midnightblue" points="91.8704,-330.734 81.9352,-327.054 87.4071,-336.127 91.8704,-330.734"/>
</g>
<!-- Node10 -->
<g id="node10" class="node"><title>Node10</title>
<g id="a_node10"><a xlink:href="timer_8h.html" target="_top" xlink:title="driver/timer.h">
<polygon fill="white" stroke="black" points="423,-179.5 423,-198.5 495,-198.5 495,-179.5 423,-179.5"/>
<text text-anchor="middle" x="459" y="-186.5" font-family="Helvetica,sans-Serif" font-size="10.00">driver/timer.h</text>
</a>
</g>
</g>
<!-- Node4&#45;&gt;Node10 -->
<g id="edge49" class="edge"><title>Node4&#45;&gt;Node10</title>
<path fill="none" stroke="midnightblue" d="M975.342,-488.398C908.937,-484.989 773.523,-474.716 663,-445 539.125,-411.694 467.955,-439.863 397,-333 387.167,-318.19 393.397,-254.662 404,-235 410.885,-222.233 423.047,-211.701 434.186,-204.045"/>
<polygon fill="midnightblue" stroke="midnightblue" points="436.252,-206.878 442.78,-198.533 432.473,-200.985 436.252,-206.878"/>
</g>
<!-- Node11 -->
<g id="node11" class="node"><title>Node11</title>
<g id="a_node11"><a xlink:href="radio__configuration_8h.html" target="_top" xlink:title="settings/radio_configuration.h">
<polygon fill="white" stroke="black" points="1007.5,-123.5 1007.5,-142.5 1150.5,-142.5 1150.5,-123.5 1007.5,-123.5"/>
<text text-anchor="middle" x="1079" y="-130.5" font-family="Helvetica,sans-Serif" font-size="10.00">settings/radio_configuration.h</text>
</a>
</g>
</g>
<!-- Node4&#45;&gt;Node11 -->
<g id="edge65" class="edge"><title>Node4&#45;&gt;Node11</title>
<path fill="none" stroke="midnightblue" d="M1021.6,-481.254C1032.13,-464.269 1054.69,-425.293 1064,-389 1086.11,-302.828 1082.78,-195.122 1080.3,-152.547"/>
<polygon fill="midnightblue" stroke="midnightblue" points="1083.79,-152.301 1079.66,-142.545 1076.81,-152.748 1083.79,-152.301"/>
</g>
<!-- Node12 -->
<g id="node12" class="node"><title>Node12</title>
<g id="a_node12"><a xlink:href="si4735__cmd__prop_8h.html" target="_top" xlink:title="driver/include/si4735\l_cmd_prop.h">
<polygon fill="white" stroke="black" points="1027,-56.5 1027,-86.5 1131,-86.5 1131,-56.5 1027,-56.5"/>
<text text-anchor="start" x="1035" y="-74.5" font-family="Helvetica,sans-Serif" font-size="10.00">driver/include/si4735</text>
<text text-anchor="middle" x="1079" y="-63.5" font-family="Helvetica,sans-Serif" font-size="10.00">_cmd_prop.h</text>
</a>
</g>
</g>
<!-- Node4&#45;&gt;Node12 -->
<g id="edge25" class="edge"><title>Node4&#45;&gt;Node12</title>
<path fill="none" stroke="midnightblue" d="M1026.4,-481.268C1035.94,-472.808 1049.92,-459.206 1059,-445 1098.35,-383.401 1134.17,-303.462 1159,-143 1160.36,-134.216 1163.29,-130.784 1159,-123 1151.59,-109.56 1138.93,-99.204 1125.84,-91.4704"/>
<polygon fill="midnightblue" stroke="midnightblue" points="1127.23,-88.2395 1116.77,-86.5298 1123.88,-94.3868 1127.23,-88.2395"/>
</g>
<!-- Node13 -->
<g id="node13" class="node"><title>Node13</title>
<g id="a_node13"><a xlink:href="log__exp__table_8h.html" target="_top" xlink:title="libs/log_exp_table.h">
<polygon fill="white" stroke="black" points="1420.5,-62 1420.5,-81 1523.5,-81 1523.5,-62 1420.5,-62"/>
<text text-anchor="middle" x="1472" y="-69" font-family="Helvetica,sans-Serif" font-size="10.00">libs/log_exp_table.h</text>
</a>
</g>
</g>
<!-- Node4&#45;&gt;Node13 -->
<g id="edge18" class="edge"><title>Node4&#45;&gt;Node13</title>
<path fill="none" stroke="midnightblue" d="M1056.66,-487.646C1151.44,-481.834 1381.11,-465.761 1409,-445 1522.42,-360.563 1489.49,-154.175 1476.27,-91.1096"/>
<polygon fill="midnightblue" stroke="midnightblue" points="1479.62,-90.0832 1474.07,-81.0635 1472.79,-91.5808 1479.62,-90.0832"/>
</g>
<!-- Node14 -->
<g id="node14" class="node"><title>Node14</title>
<g id="a_node14"><a xlink:href="si4735_8h.html" target="_top" xlink:title="driver/si4735.h">
<polygon fill="white" stroke="black" points="246.5,-308 246.5,-327 325.5,-327 325.5,-308 246.5,-308"/>
<text text-anchor="middle" x="286" y="-315" font-family="Helvetica,sans-Serif" font-size="10.00">driver/si4735.h</text>
</a>
</g>
</g>
<!-- Node4&#45;&gt;Node14 -->
<g id="edge20" class="edge"><title>Node4&#45;&gt;Node14</title>
<path fill="none" stroke="midnightblue" d="M975.44,-489.739C837.444,-488.519 391.808,-481.744 340,-445 304.393,-419.746 292.103,-366.051 287.986,-337.413"/>
<polygon fill="midnightblue" stroke="midnightblue" points="291.417,-336.636 286.711,-327.144 284.47,-337.499 291.417,-336.636"/>
</g>
<!-- Node16 -->
<g id="node16" class="node"><title>Node16</title>
<g id="a_node16"><a xlink:href="external__interrupthandler_8h.html" target="_top" xlink:title="driver/external_interrupthandler.h">
<polygon fill="white" stroke="black" points="748.5,-308 748.5,-327 905.5,-327 905.5,-308 748.5,-308"/>
<text text-anchor="middle" x="827" y="-315" font-family="Helvetica,sans-Serif" font-size="10.00">driver/external_interrupthandler.h</text>
</a>
</g>
</g>
<!-- Node4&#45;&gt;Node16 -->
<g id="edge26" class="edge"><title>Node4&#45;&gt;Node16</title>
<path fill="none" stroke="midnightblue" d="M975.121,-487.501C917.034,-481.422 813.102,-460.56 772,-389 759.877,-367.893 783.237,-346.194 803.162,-332.547"/>
<polygon fill="midnightblue" stroke="midnightblue" points="805.166,-335.419 811.656,-327.045 801.36,-329.544 805.166,-335.419"/>
</g>
<!-- Node17 -->
<g id="node17" class="node"><title>Node17</title>
<g id="a_node17"><a xlink:href="tpa2016d2_8h.html" target="_top" xlink:title="driver/tpa2016d2.h">
<polygon fill="white" stroke="black" points="133.5,-308 133.5,-327 228.5,-327 228.5,-308 133.5,-308"/>
<text text-anchor="middle" x="181" y="-315" font-family="Helvetica,sans-Serif" font-size="10.00">driver/tpa2016d2.h</text>
</a>
</g>
</g>
<!-- Node4&#45;&gt;Node17 -->
<g id="edge30" class="edge"><title>Node4&#45;&gt;Node17</title>
<path fill="none" stroke="midnightblue" d="M975.104,-488.953C834.805,-485.143 378.339,-470.866 318,-445 261.886,-420.945 214.098,-363.681 192.823,-335.191"/>
<polygon fill="midnightblue" stroke="midnightblue" points="195.591,-333.046 186.869,-327.03 189.936,-337.172 195.591,-333.046"/>
</g>
<!-- Node18 -->
<g id="node18" class="node"><title>Node18</title>
<g id="a_node18"><a xlink:href="lcd_8h.html" target="_top" xlink:title="driver/lcd.h">
<polygon fill="white" stroke="black" points="558.5,-369.5 558.5,-388.5 621.5,-388.5 621.5,-369.5 558.5,-369.5"/>
<text text-anchor="middle" x="590" y="-376.5" font-family="Helvetica,sans-Serif" font-size="10.00">driver/lcd.h</text>
</a>
</g>
</g>
<!-- Node4&#45;&gt;Node18 -->
<g id="edge36" class="edge"><title>Node4&#45;&gt;Node18</title>
<path fill="none" stroke="midnightblue" d="M975.152,-488.374C915.822,-485.033 802.959,-474.966 712,-445 674.37,-432.603 634.539,-409.164 610.994,-394.08"/>
<polygon fill="midnightblue" stroke="midnightblue" points="612.811,-391.087 602.521,-388.56 608.989,-396.952 612.811,-391.087"/>
</g>
<!-- Node21 -->
<g id="node21" class="node"><title>Node21</title>
<g id="a_node21"><a xlink:href="flash_8h.html" target="_top" xlink:title="driver/flash.h">
<polygon fill="white" stroke="black" points="1139.5,-425.5 1139.5,-444.5 1210.5,-444.5 1210.5,-425.5 1139.5,-425.5"/>
<text text-anchor="middle" x="1175" y="-432.5" font-family="Helvetica,sans-Serif" font-size="10.00">driver/flash.h</text>
</a>
</g>
</g>
<!-- Node4&#45;&gt;Node21 -->
<g id="edge44" class="edge"><title>Node4&#45;&gt;Node21</title>
<path fill="none" stroke="midnightblue" d="M1041.19,-481.444C1067.94,-472.359 1110.4,-457.939 1140.31,-447.783"/>
<polygon fill="midnightblue" stroke="midnightblue" points="1141.58,-451.046 1149.92,-444.516 1139.33,-444.418 1141.58,-451.046"/>
</g>
<!-- Node22 -->
<g id="node22" class="node"><title>Node22</title>
<g id="a_node22"><a xlink:href="string_8h.html" target="_top" xlink:title="string.h">
<polygon fill="white" stroke="black" points="1149.5,-369.5 1149.5,-388.5 1198.5,-388.5 1198.5,-369.5 1149.5,-369.5"/>
<text text-anchor="middle" x="1174" y="-376.5" font-family="Helvetica,sans-Serif" font-size="10.00">string.h</text>
</a>
</g>
</g>
<!-- Node4&#45;&gt;Node22 -->
<g id="edge72" class="edge"><title>Node4&#45;&gt;Node22</title>
<path fill="none" stroke="midnightblue" d="M1030.35,-481.351C1044.84,-472.514 1067.77,-458.248 1087,-445 1110.8,-428.604 1137.29,-408.539 1154.71,-395.077"/>
<polygon fill="midnightblue" stroke="midnightblue" points="1157.19,-397.59 1162.94,-388.694 1152.89,-392.06 1157.19,-397.59"/>
</g>
<!-- Node23 -->
<g id="node23" class="node"><title>Node23</title>
<g id="a_node23"><a xlink:href="encoder_8h.html" target="_top" xlink:title="driver/encoder.h">
<polygon fill="white" stroke="black" points="639.5,-369.5 639.5,-388.5 724.5,-388.5 724.5,-369.5 639.5,-369.5"/>
<text text-anchor="middle" x="682" y="-376.5" font-family="Helvetica,sans-Serif" font-size="10.00">driver/encoder.h</text>
</a>
</g>
</g>
<!-- Node4&#45;&gt;Node23 -->
<g id="edge50" class="edge"><title>Node4&#45;&gt;Node23</title>
<path fill="none" stroke="midnightblue" d="M975.43,-486.79C908.629,-480.95 778.9,-467.107 739,-445 718.778,-433.796 702.255,-412.543 692.301,-397.389"/>
<polygon fill="midnightblue" stroke="midnightblue" points="695.251,-395.506 686.977,-388.887 689.318,-399.22 695.251,-395.506"/>
</g>
<!-- Node24 -->
<g id="node24" class="node"><title>Node24</title>
<g id="a_node24"><a xlink:href="language_8h.html" target="_top" xlink:title="menu/lang/language.h">
<polygon fill="white" stroke="black" points="943,-369.5 943,-388.5 1055,-388.5 1055,-369.5 943,-369.5"/>
<text text-anchor="middle" x="999" y="-376.5" font-family="Helvetica,sans-Serif" font-size="10.00">menu/lang/language.h</text>
</a>
</g>
</g>
<!-- Node4&#45;&gt;Node24 -->
<g id="edge55" class="edge"><title>Node4&#45;&gt;Node24</title>
<path fill="none" stroke="midnightblue" d="M1014.67,-481.368C1011.92,-463.617 1005.59,-422.666 1001.87,-398.597"/>
<polygon fill="midnightblue" stroke="midnightblue" points="1005.31,-397.94 1000.33,-388.591 998.396,-399.009 1005.31,-397.94"/>
</g>
<!-- Node25 -->
<g id="node25" class="node"><title>Node25</title>
<g id="a_node25"><a xlink:href="menu_8h.html" target="_top" xlink:title="menu/menu.h">
<polygon fill="white" stroke="black" points="877,-425.5 877,-444.5 953,-444.5 953,-425.5 877,-425.5"/>
<text text-anchor="middle" x="915" y="-432.5" font-family="Helvetica,sans-Serif" font-size="10.00">menu/menu.h</text>
</a>
</g>
</g>
<!-- Node4&#45;&gt;Node25 -->
<g id="edge56" class="edge"><title>Node4&#45;&gt;Node25</title>
<path fill="none" stroke="midnightblue" d="M994.907,-481.444C977.079,-472.912 952.03,-459.675 934.632,-449.683"/>
<polygon fill="midnightblue" stroke="midnightblue" points="936.243,-446.57 925.849,-444.516 932.694,-452.603 936.243,-446.57"/>
</g>
<!-- Node27 -->
<g id="node27" class="node"><title>Node27</title>
<g id="a_node27"><a xlink:href="station__list_8h.html" target="_top" xlink:title="system/station_list.h">
<polygon fill="white" stroke="black" points="1501.5,-425.5 1501.5,-444.5 1608.5,-444.5 1608.5,-425.5 1501.5,-425.5"/>
<text text-anchor="middle" x="1555" y="-432.5" font-family="Helvetica,sans-Serif" font-size="10.00">system/station_list.h</text>
</a>
</g>
</g>
<!-- Node4&#45;&gt;Node27 -->
<g id="edge66" class="edge"><title>Node4&#45;&gt;Node27</title>
<path fill="none" stroke="midnightblue" d="M1056.69,-486.614C1138.36,-479.707 1328.05,-463.105 1487,-445 1488.3,-444.852 1489.61,-444.7 1490.93,-444.546"/>
<polygon fill="midnightblue" stroke="midnightblue" points="1491.69,-447.979 1501.2,-443.304 1490.85,-441.03 1491.69,-447.979"/>
</g>
<!-- Node28 -->
<g id="node28" class="node"><title>Node28</title>
<g id="a_node28"><a xlink:href="radio__display_8h.html" target="_top" xlink:title="system/radio_display.h">
<polygon fill="white" stroke="black" points="1228.5,-425.5 1228.5,-444.5 1345.5,-444.5 1345.5,-425.5 1228.5,-425.5"/>
<text text-anchor="middle" x="1287" y="-432.5" font-family="Helvetica,sans-Serif" font-size="10.00">system/radio_display.h</text>
</a>
</g>
</g>
<!-- Node4&#45;&gt;Node28 -->
<g id="edge69" class="edge"><title>Node4&#45;&gt;Node28</title>
<path fill="none" stroke="midnightblue" d="M1053.85,-481.444C1099.44,-471.944 1176.27,-456.611 1229.25,-446.42"/>
<polygon fill="midnightblue" stroke="midnightblue" points="1230.02,-449.836 1239.18,-444.516 1228.7,-442.961 1230.02,-449.836"/>
</g>
<!-- Node29 -->
<g id="node29" class="node"><title>Node29</title>
<g id="a_node29"><a xlink:href="time_8h.html" target="_top" xlink:title="system/time.h">
<polygon fill="white" stroke="black" points="1369.5,-241 1369.5,-260 1448.5,-260 1448.5,-241 1369.5,-241"/>
<text text-anchor="middle" x="1409" y="-248" font-family="Helvetica,sans-Serif" font-size="10.00">system/time.h</text>
</a>
</g>
</g>
<!-- Node4&#45;&gt;Node29 -->
<g id="edge73" class="edge"><title>Node4&#45;&gt;Node29</title>
<path fill="none" stroke="midnightblue" d="M1056.61,-487.901C1148.26,-482.77 1365,-468.286 1388,-445 1434.68,-397.739 1422.05,-308.951 1413.67,-270.289"/>
<polygon fill="midnightblue" stroke="midnightblue" points="1417.05,-269.343 1411.38,-260.393 1410.23,-270.925 1417.05,-269.343"/>
</g>
<!-- Node5&#45;&gt;Node3 -->
<g id="edge6" class="edge"><title>Node5&#45;&gt;Node3</title>
<path fill="none" stroke="midnightblue" d="M71.6559,-307.912C70.8679,-287.482 69,-234.375 69,-190 69,-190 69,-190 69,-132 69,-92.5169 81.1446,-76.3156 115,-56 183.554,-14.8627 757.808,-11.2431 906.143,-10.9978"/>
<polygon fill="midnightblue" stroke="midnightblue" points="906.468,-14.4975 916.464,-10.9852 906.46,-7.49755 906.468,-14.4975"/>
</g>
<!-- Node6 -->
<g id="node6" class="node"><title>Node6</title>
<g id="a_node6"><a xlink:href="i2c_8h.html" target="_top" xlink:title="I2C implemtation for MSP430G2553, interrupt based. &#160;&#160;This implemtation based on examples from Texas I...">
<polygon fill="white" stroke="black" points="211.5,-241 211.5,-260 274.5,-260 274.5,-241 211.5,-241"/>
<text text-anchor="middle" x="243" y="-248" font-family="Helvetica,sans-Serif" font-size="10.00">driver/i2c.h</text>
</a>
</g>
</g>
<!-- Node5&#45;&gt;Node6 -->
<g id="edge7" class="edge"><title>Node5&#45;&gt;Node6</title>
<path fill="none" stroke="midnightblue" d="M94.7075,-307.869C124.558,-296.522 177.166,-276.525 211.03,-263.652"/>
<polygon fill="midnightblue" stroke="midnightblue" points="212.367,-266.888 220.471,-260.064 209.88,-260.345 212.367,-266.888"/>
</g>
<!-- Node6&#45;&gt;Node3 -->
<g id="edge8" class="edge"><title>Node6&#45;&gt;Node3</title>
<path fill="none" stroke="midnightblue" d="M239.784,-240.93C235.085,-226.849 228.117,-198.442 240,-179 302.506,-76.7295 364.991,-89.7512 480,-56 560.056,-32.5064 813.211,-17.5334 906.254,-12.7036"/>
<polygon fill="midnightblue" stroke="midnightblue" points="906.471,-16.1972 916.279,-12.1905 906.113,-9.20631 906.471,-16.1972"/>
</g>
<!-- Node7 -->
<g id="node7" class="node"><title>Node7</title>
<polygon fill="white" stroke="#bfbfbf" points="620.5,-123.5 620.5,-142.5 679.5,-142.5 679.5,-123.5 620.5,-123.5"/>
<text text-anchor="middle" x="650" y="-130.5" font-family="Helvetica,sans-Serif" font-size="10.00">msp430.h</text>
</g>
<!-- Node6&#45;&gt;Node7 -->
<g id="edge9" class="edge"><title>Node6&#45;&gt;Node7</title>
<path fill="none" stroke="midnightblue" d="M263.901,-240.968C268.842,-238.983 274.098,-236.896 279,-235 321.887,-218.408 334.011,-217.748 376,-199 393.427,-191.219 395.985,-185.301 414,-179 480.618,-155.701 562.272,-143.542 609.983,-137.976"/>
<polygon fill="midnightblue" stroke="midnightblue" points="610.659,-141.422 620.204,-136.824 609.875,-134.466 610.659,-141.422"/>
</g>
<!-- Node8 -->
<g id="node8" class="node"><title>Node8</title>
<polygon fill="white" stroke="#bfbfbf" points="319,-179.5 319,-198.5 367,-198.5 367,-179.5 319,-179.5"/>
<text text-anchor="middle" x="343" y="-186.5" font-family="Helvetica,sans-Serif" font-size="10.00">stdlib.h</text>
</g>
<!-- Node6&#45;&gt;Node8 -->
<g id="edge10" class="edge"><title>Node6&#45;&gt;Node8</title>
<path fill="none" stroke="midnightblue" d="M257.328,-240.975C273.664,-231.255 300.602,-215.227 319.912,-203.737"/>
<polygon fill="midnightblue" stroke="midnightblue" points="321.895,-206.63 328.699,-198.509 318.315,-200.615 321.895,-206.63"/>
</g>
<!-- Node9 -->
<g id="node9" class="node"><title>Node9</title>
<polygon fill="white" stroke="#bfbfbf" points="249,-179.5 249,-198.5 301,-198.5 301,-179.5 249,-179.5"/>
<text text-anchor="middle" x="275" y="-186.5" font-family="Helvetica,sans-Serif" font-size="10.00">stdarg.h</text>
</g>
<!-- Node6&#45;&gt;Node9 -->
<g id="edge11" class="edge"><title>Node6&#45;&gt;Node9</title>
<path fill="none" stroke="midnightblue" d="M247.585,-240.975C252.242,-232.315 259.592,-218.649 265.51,-207.645"/>
<polygon fill="midnightblue" stroke="midnightblue" points="268.77,-208.974 270.424,-198.509 262.605,-205.658 268.77,-208.974"/>
</g>
<!-- Node6&#45;&gt;Node10 -->
<g id="edge12" class="edge"><title>Node6&#45;&gt;Node10</title>
<path fill="none" stroke="midnightblue" d="M269.693,-240.855C276.006,-238.874 282.727,-236.818 289,-235 331.703,-222.625 380.833,-209.768 415.26,-200.981"/>
<polygon fill="midnightblue" stroke="midnightblue" points="416.176,-204.359 425.005,-198.502 414.45,-197.575 416.176,-204.359"/>
</g>
<!-- Node10&#45;&gt;Node3 -->
<g id="edge14" class="edge"><title>Node10&#45;&gt;Node3</title>
<path fill="none" stroke="midnightblue" d="M459.334,-179.446C460.774,-155.455 468.422,-87.2499 509,-56 540.239,-31.942 808.807,-17.1571 906.042,-12.552"/>
<polygon fill="midnightblue" stroke="midnightblue" points="906.407,-16.0389 916.233,-12.0771 906.081,-9.04649 906.407,-16.0389"/>
</g>
<!-- Node10&#45;&gt;Node7 -->
<g id="edge13" class="edge"><title>Node10&#45;&gt;Node7</title>
<path fill="none" stroke="midnightblue" d="M489.265,-179.444C522.051,-170.174 574.489,-155.349 610.5,-145.168"/>
<polygon fill="midnightblue" stroke="midnightblue" points="611.521,-148.516 620.191,-142.428 609.616,-141.78 611.521,-148.516"/>
</g>
<!-- Node10&#45;&gt;Node11 -->
<g id="edge15" class="edge"><title>Node10&#45;&gt;Node11</title>
<path fill="none" stroke="midnightblue" d="M495.014,-184.863C592.085,-176.409 861.013,-152.986 997.412,-141.106"/>
<polygon fill="midnightblue" stroke="midnightblue" points="997.739,-144.591 1007.4,-140.236 997.132,-137.617 997.739,-144.591"/>
</g>
<!-- Node11&#45;&gt;Node12 -->
<g id="edge16" class="edge"><title>Node11&#45;&gt;Node12</title>
<path fill="none" stroke="midnightblue" d="M1079,-123.475C1079,-116.471 1079,-106.192 1079,-96.6956"/>
<polygon fill="midnightblue" stroke="midnightblue" points="1082.5,-96.5229 1079,-86.523 1075.5,-96.523 1082.5,-96.5229"/>
</g>
<!-- Node12&#45;&gt;Node3 -->
<g id="edge17" class="edge"><title>Node12&#45;&gt;Node3</title>
<path fill="none" stroke="midnightblue" d="M1046.3,-56.3993C1023.25,-46.4608 992.64,-33.2649 970.368,-23.6625"/>
<polygon fill="midnightblue" stroke="midnightblue" points="971.649,-20.4031 961.08,-19.6578 968.877,-26.8311 971.649,-20.4031"/>
</g>
<!-- Node13&#45;&gt;Node3 -->
<g id="edge19" class="edge"><title>Node13&#45;&gt;Node3</title>
<path fill="none" stroke="midnightblue" d="M1434.35,-61.9307C1423.91,-59.7657 1412.55,-57.6032 1402,-56 1243.68,-31.9464 1052.72,-18.0854 975.7,-13.1142"/>
<polygon fill="midnightblue" stroke="midnightblue" points="975.805,-9.61392 965.603,-12.4716 975.361,-16.5998 975.805,-9.61392"/>
</g>
<!-- Node14&#45;&gt;Node3 -->
<g id="edge21" class="edge"><title>Node14&#45;&gt;Node3</title>
<path fill="none" stroke="midnightblue" d="M262.4,-307.943C222.261,-291.693 145,-252.321 145,-190 145,-190 145,-190 145,-132 145,-33.9952 256.232,-76.8192 352,-56 558.532,-11.1016 814.255,-9.32919 906.117,-10.3447"/>
<polygon fill="midnightblue" stroke="midnightblue" points="906.2,-13.8459 916.245,-10.4759 906.291,-6.84652 906.2,-13.8459"/>
</g>
<!-- Node14&#45;&gt;Node6 -->
<g id="edge22" class="edge"><title>Node14&#45;&gt;Node6</title>
<path fill="none" stroke="midnightblue" d="M280.201,-307.734C273.624,-297.793 262.739,-281.338 254.437,-268.789"/>
<polygon fill="midnightblue" stroke="midnightblue" points="257.144,-266.536 248.707,-260.127 251.306,-270.399 257.144,-266.536"/>
</g>
<!-- Node14&#45;&gt;Node10 -->
<g id="edge23" class="edge"><title>Node14&#45;&gt;Node10</title>
<path fill="none" stroke="midnightblue" d="M292.585,-307.909C305.207,-291.893 334.289,-257.098 365,-235 383.759,-221.502 407.201,-210.27 425.982,-202.404"/>
<polygon fill="midnightblue" stroke="midnightblue" points="427.384,-205.613 435.329,-198.603 424.747,-199.128 427.384,-205.613"/>
</g>
<!-- Node15 -->
<g id="node15" class="node"><title>Node15</title>
<g id="a_node15"><a xlink:href="radio__pin__mapping_8h.html" target="_top" xlink:title="settings/radio_pin\l_mapping.h">
<polygon fill="white" stroke="black" points="551.5,-235.5 551.5,-265.5 644.5,-265.5 644.5,-235.5 551.5,-235.5"/>
<text text-anchor="start" x="559.5" y="-253.5" font-family="Helvetica,sans-Serif" font-size="10.00">settings/radio_pin</text>
<text text-anchor="middle" x="598" y="-242.5" font-family="Helvetica,sans-Serif" font-size="10.00">_mapping.h</text>
</a>
</g>
</g>
<!-- Node14&#45;&gt;Node15 -->
<g id="edge24" class="edge"><title>Node14&#45;&gt;Node15</title>
<path fill="none" stroke="midnightblue" d="M325.515,-308.268C380.113,-296.893 478.937,-276.305 541.374,-263.297"/>
<polygon fill="midnightblue" stroke="midnightblue" points="542.374,-266.664 551.45,-261.198 540.946,-259.811 542.374,-266.664"/>
</g>
<!-- Node16&#45;&gt;Node3 -->
<g id="edge28" class="edge"><title>Node16&#45;&gt;Node3</title>
<path fill="none" stroke="midnightblue" d="M828.835,-307.958C833.038,-287.626 843,-234.716 843,-190 843,-190 843,-190 843,-132 843,-84.4732 889.222,-45.1565 918.178,-25.1891"/>
<polygon fill="midnightblue" stroke="midnightblue" points="920.153,-28.0791 926.54,-19.6258 916.275,-22.2511 920.153,-28.0791"/>
</g>
<!-- Node16&#45;&gt;Node7 -->
<g id="edge27" class="edge"><title>Node16&#45;&gt;Node7</title>
<path fill="none" stroke="midnightblue" d="M822.951,-307.708C811.763,-284.197 778.296,-218.958 734,-179 718.802,-165.29 698.675,-154.322 681.932,-146.647"/>
<polygon fill="midnightblue" stroke="midnightblue" points="683.092,-143.333 672.529,-142.513 680.275,-149.741 683.092,-143.333"/>
</g>
<!-- Node16&#45;&gt;Node15 -->
<g id="edge29" class="edge"><title>Node16&#45;&gt;Node15</title>
<path fill="none" stroke="midnightblue" d="M796.591,-307.869C760.508,-297.627 699.596,-280.337 654.725,-267.601"/>
<polygon fill="midnightblue" stroke="midnightblue" points="655.413,-264.158 644.837,-264.794 653.501,-270.892 655.413,-264.158"/>
</g>
<!-- Node17&#45;&gt;Node3 -->
<g id="edge32" class="edge"><title>Node17&#45;&gt;Node3</title>
<path fill="none" stroke="midnightblue" d="M171.326,-307.72C151.267,-288.501 107,-240.378 107,-190 107,-190 107,-190 107,-132 107,-91.8103 121.277,-76.2373 156,-56 221.375,-17.8979 762.369,-12.0404 906.066,-11.155"/>
<polygon fill="midnightblue" stroke="midnightblue" points="906.493,-14.6527 916.473,-11.0954 906.453,-7.65278 906.493,-14.6527"/>
</g>
<!-- Node17&#45;&gt;Node6 -->
<g id="edge33" class="edge"><title>Node17&#45;&gt;Node6</title>
<path fill="none" stroke="midnightblue" d="M189.362,-307.734C199.123,-297.5 215.468,-280.364 227.555,-267.692"/>
<polygon fill="midnightblue" stroke="midnightblue" points="230.401,-269.779 234.771,-260.127 225.336,-264.948 230.401,-269.779"/>
</g>
<!-- Node17&#45;&gt;Node7 -->
<g id="edge31" class="edge"><title>Node17&#45;&gt;Node7</title>
<path fill="none" stroke="midnightblue" d="M181.476,-307.869C183.411,-282.348 193.044,-207.272 240,-179 301.739,-141.827 519.852,-135.29 610.274,-134.194"/>
<polygon fill="midnightblue" stroke="midnightblue" points="610.433,-137.693 620.396,-134.088 610.36,-130.693 610.433,-137.693"/>
</g>
<!-- Node17&#45;&gt;Node10 -->
<g id="edge35" class="edge"><title>Node17&#45;&gt;Node10</title>
<path fill="none" stroke="midnightblue" d="M200.68,-307.928C221.603,-298.548 255.411,-282.62 283,-266 303.181,-253.843 305.053,-245.784 326,-235 354.346,-220.407 388.444,-208.979 415.017,-201.291"/>
<polygon fill="midnightblue" stroke="midnightblue" points="416.132,-204.613 424.805,-198.529 414.231,-197.877 416.132,-204.613"/>
</g>
<!-- Node17&#45;&gt;Node15 -->
<g id="edge34" class="edge"><title>Node17&#45;&gt;Node15</title>
<path fill="none" stroke="midnightblue" d="M211.371,-307.961C219.641,-305.821 228.627,-303.664 237,-302 343.637,-280.808 469.73,-265.316 541.14,-257.418"/>
<polygon fill="midnightblue" stroke="midnightblue" points="541.711,-260.876 551.27,-256.308 540.948,-253.918 541.711,-260.876"/>
</g>
<!-- Node18&#45;&gt;Node3 -->
<g id="edge37" class="edge"><title>Node18&#45;&gt;Node3</title>
<path fill="none" stroke="midnightblue" d="M621.822,-370.553C624.581,-369.994 627.336,-369.467 630,-369 692.659,-358.005 869.981,-378.928 914,-333 955.664,-289.53 946.439,-92.5506 942.374,-30.0736"/>
<polygon fill="midnightblue" stroke="midnightblue" points="945.842,-29.4846 941.668,-19.747 938.859,-29.9626 945.842,-29.4846"/>
</g>
<!-- Node18&#45;&gt;Node10 -->
<g id="edge43" class="edge"><title>Node18&#45;&gt;Node10</title>
<path fill="none" stroke="midnightblue" d="M558.271,-374.658C511.838,-369.039 428.93,-355.995 411,-333 380.647,-294.071 421.018,-234.94 444.418,-206.463"/>
<polygon fill="midnightblue" stroke="midnightblue" points="447.233,-208.555 451.038,-198.666 441.897,-204.024 447.233,-208.555"/>
</g>
<!-- Node18&#45;&gt;Node15 -->
<g id="edge42" class="edge"><title>Node18&#45;&gt;Node15</title>
<path fill="none" stroke="midnightblue" d="M580.444,-369.45C571.912,-361.12 560.011,-347.604 555,-333 550.529,-319.968 550.241,-314.93 555,-302 558.979,-291.19 566.413,-281.118 573.996,-272.857"/>
<polygon fill="midnightblue" stroke="midnightblue" points="576.688,-275.111 581.203,-265.527 571.696,-270.204 576.688,-275.111"/>
</g>
<!-- Node19 -->
<g id="node19" class="node"><title>Node19</title>
<g id="a_node19"><a xlink:href="pca9534_8h.html" target="_top" xlink:title="driver/pca9534.h">
<polygon fill="white" stroke="black" points="420.5,-308 420.5,-327 507.5,-327 507.5,-308 420.5,-308"/>
<text text-anchor="middle" x="464" y="-315" font-family="Helvetica,sans-Serif" font-size="10.00">driver/pca9534.h</text>
</a>
</g>
</g>
<!-- Node18&#45;&gt;Node19 -->
<g id="edge38" class="edge"><title>Node18&#45;&gt;Node19</title>
<path fill="none" stroke="midnightblue" d="M571.947,-369.475C550.802,-359.49 515.56,-342.848 491.122,-331.307"/>
<polygon fill="midnightblue" stroke="midnightblue" points="492.556,-328.114 482.019,-327.009 489.567,-334.444 492.556,-328.114"/>
</g>
<!-- Node20 -->
<g id="node20" class="node"><title>Node20</title>
<g id="a_node20"><a xlink:href="lcd__commands_8h.html" target="_top" xlink:title="driver/include/lcd\l_commands.h">
<polygon fill="white" stroke="black" points="564.5,-302.5 564.5,-332.5 653.5,-332.5 653.5,-302.5 564.5,-302.5"/>
<text text-anchor="start" x="572.5" y="-320.5" font-family="Helvetica,sans-Serif" font-size="10.00">driver/include/lcd</text>
<text text-anchor="middle" x="609" y="-309.5" font-family="Helvetica,sans-Serif" font-size="10.00">_commands.h</text>
</a>
</g>
</g>
<!-- Node18&#45;&gt;Node20 -->
<g id="edge41" class="edge"><title>Node18&#45;&gt;Node20</title>
<path fill="none" stroke="midnightblue" d="M592.722,-369.475C595.007,-362.32 598.383,-351.748 601.469,-342.084"/>
<polygon fill="midnightblue" stroke="midnightblue" points="604.814,-343.114 604.522,-332.523 598.146,-340.984 604.814,-343.114"/>
</g>
<!-- Node19&#45;&gt;Node3 -->
<g id="edge39" class="edge"><title>Node19&#45;&gt;Node3</title>
<path fill="none" stroke="midnightblue" d="M471.235,-307.946C486.989,-288.413 523,-238.466 523,-190 523,-190 523,-190 523,-132 523,-52.4558 805.826,-21.9019 906.191,-13.5636"/>
<polygon fill="midnightblue" stroke="midnightblue" points="906.726,-17.0318 916.413,-12.7393 906.164,-10.0545 906.726,-17.0318"/>
</g>
<!-- Node19&#45;&gt;Node6 -->
<g id="edge40" class="edge"><title>Node19&#45;&gt;Node6</title>
<path fill="none" stroke="midnightblue" d="M434.653,-307.869C395.329,-296.303 325.446,-275.749 281.809,-262.914"/>
<polygon fill="midnightblue" stroke="midnightblue" points="282.698,-259.528 272.116,-260.064 280.723,-266.243 282.698,-259.528"/>
</g>
<!-- Node21&#45;&gt;Node3 -->
<g id="edge45" class="edge"><title>Node21&#45;&gt;Node3</title>
<path fill="none" stroke="midnightblue" d="M1188.67,-425.372C1213.85,-408.295 1265,-367.563 1265,-318.5 1265,-318.5 1265,-318.5 1265,-132 1265,-88.6878 1241.33,-77.9689 1204,-56 1165.88,-33.5667 1038.3,-19.5627 975.928,-13.8944"/>
<polygon fill="midnightblue" stroke="midnightblue" points="976.058,-10.3923 965.787,-12.9944 975.439,-17.3649 976.058,-10.3923"/>
</g>
<!-- Node21&#45;&gt;Node7 -->
<g id="edge48" class="edge"><title>Node21&#45;&gt;Node7</title>
<path fill="none" stroke="midnightblue" d="M1185.09,-425.205C1198.61,-412.341 1219.51,-387.873 1207,-369 1086.79,-187.596 795.909,-145.884 689.684,-136.581"/>
<polygon fill="midnightblue" stroke="midnightblue" points="689.955,-133.092 679.7,-135.756 689.378,-140.068 689.955,-133.092"/>
</g>
<!-- Node21&#45;&gt;Node22 -->
<g id="edge46" class="edge"><title>Node21&#45;&gt;Node22</title>
<path fill="none" stroke="midnightblue" d="M1174.83,-425.083C1174.7,-418.006 1174.52,-407.861 1174.35,-398.986"/>
<polygon fill="midnightblue" stroke="midnightblue" points="1177.85,-398.685 1174.16,-388.751 1170.85,-398.814 1177.85,-398.685"/>
</g>
<!-- Node22&#45;&gt;Node3 -->
<g id="edge47" class="edge"><title>Node22&#45;&gt;Node3</title>
<path fill="none" stroke="midnightblue" d="M1179.1,-369.448C1190.49,-349.517 1217,-298.124 1217,-251.5 1217,-251.5 1217,-251.5 1217,-132 1217,-28.0279 1050.68,-12.5627 976.262,-10.847"/>
<polygon fill="midnightblue" stroke="midnightblue" points="976.034,-7.34301 965.98,-10.6847 975.923,-14.3421 976.034,-7.34301"/>
</g>
<!-- Node23&#45;&gt;Node3 -->
<g id="edge51" class="edge"><title>Node23&#45;&gt;Node3</title>
<path fill="none" stroke="midnightblue" d="M724.756,-373.78C796.268,-366.288 933.754,-349.859 948,-333 986.818,-287.064 955.458,-90.9721 944.449,-29.5039"/>
<polygon fill="midnightblue" stroke="midnightblue" points="947.891,-28.8685 942.652,-19.6596 941.005,-30.1256 947.891,-28.8685"/>
</g>
<!-- Node23&#45;&gt;Node7 -->
<g id="edge52" class="edge"><title>Node23&#45;&gt;Node7</title>
<path fill="none" stroke="midnightblue" d="M682.249,-369.374C682.496,-360.316 682.859,-345.659 683,-333 683.153,-319.223 684.334,-315.713 683,-302 677.643,-246.931 662.629,-183.125 654.834,-152.401"/>
<polygon fill="midnightblue" stroke="midnightblue" points="658.207,-151.465 652.32,-142.656 651.429,-153.214 658.207,-151.465"/>
</g>
<!-- Node23&#45;&gt;Node15 -->
<g id="edge53" class="edge"><title>Node23&#45;&gt;Node15</title>
<path fill="none" stroke="midnightblue" d="M681.492,-369.303C680.254,-354.385 676.058,-323.455 662,-302 654.15,-290.019 642.504,-279.619 631.291,-271.421"/>
<polygon fill="midnightblue" stroke="midnightblue" points="633.085,-268.406 622.871,-265.593 629.101,-274.162 633.085,-268.406"/>
</g>
<!-- Node23&#45;&gt;Node16 -->
<g id="edge54" class="edge"><title>Node23&#45;&gt;Node16</title>
<path fill="none" stroke="midnightblue" d="M702.775,-369.475C727.432,-359.357 768.745,-342.405 796.902,-330.851"/>
<polygon fill="midnightblue" stroke="midnightblue" points="798.341,-334.043 806.264,-327.009 795.683,-327.567 798.341,-334.043"/>
</g>
<!-- Node25&#45;&gt;Node3 -->
<g id="edge57" class="edge"><title>Node25&#45;&gt;Node3</title>
<path fill="none" stroke="midnightblue" d="M916.143,-425.48C918.166,-412.54 923.223,-387.485 934,-369 945.24,-349.722 958.809,-352.852 969,-333 1025.23,-223.466 1002.05,-173.417 965,-56 961.936,-46.2897 956.782,-36.2226 952.033,-28.0788"/>
<polygon fill="midnightblue" stroke="midnightblue" points="955.007,-26.2331 946.795,-19.5387 949.04,-29.893 955.007,-26.2331"/>
</g>
<!-- Node25&#45;&gt;Node4 -->
<g id="edge59" class="edge"><title>Node25&#45;&gt;Node4</title>
<path fill="none" stroke="midnightblue" d="M936.297,-444.655C954.029,-453.149 978.804,-466.241 996.124,-476.177"/>
<polygon fill="midnightblue" stroke="midnightblue" points="994.492,-479.278 1004.89,-481.324 998.037,-473.242 994.492,-479.278"/>
</g>
<!-- Node25&#45;&gt;Node18 -->
<g id="edge58" class="edge"><title>Node25&#45;&gt;Node18</title>
<path fill="none" stroke="midnightblue" d="M876.602,-428.742C823.61,-421.31 724.869,-406.829 631.706,-389.238"/>
<polygon fill="midnightblue" stroke="midnightblue" points="632.316,-385.791 621.838,-387.359 631.007,-392.668 632.316,-385.791"/>
</g>
<!-- Node25&#45;&gt;Node22 -->
<g id="edge64" class="edge"><title>Node25&#45;&gt;Node22</title>
<path fill="none" stroke="midnightblue" d="M953.216,-426.032C1003.43,-415.564 1090.88,-397.329 1139.29,-387.238"/>
<polygon fill="midnightblue" stroke="midnightblue" points="1140.2,-390.622 1149.28,-385.154 1138.78,-383.769 1140.2,-390.622"/>
</g>
<!-- Node25&#45;&gt;Node23 -->
<g id="edge60" class="edge"><title>Node25&#45;&gt;Node23</title>
<path fill="none" stroke="midnightblue" d="M878.08,-425.444C837.605,-416.063 772.579,-400.993 728.616,-390.804"/>
<polygon fill="midnightblue" stroke="midnightblue" points="729.279,-387.365 718.747,-388.516 727.698,-394.184 729.279,-387.365"/>
</g>
<!-- Node25&#45;&gt;Node24 -->
<g id="edge61" class="edge"><title>Node25&#45;&gt;Node24</title>
<path fill="none" stroke="midnightblue" d="M928.496,-425.324C941.6,-416.9 961.712,-403.971 977.107,-394.074"/>
<polygon fill="midnightblue" stroke="midnightblue" points="979.018,-397.006 985.537,-388.655 975.233,-391.118 979.018,-397.006"/>
</g>
<!-- Node26 -->
<g id="node26" class="node"><title>Node26</title>
<g id="a_node26"><a xlink:href="menu__struct_8h.html" target="_top" xlink:title="menu/menu_struct.h">
<polygon fill="white" stroke="black" points="781,-369.5 781,-388.5 887,-388.5 887,-369.5 781,-369.5"/>
<text text-anchor="middle" x="834" y="-376.5" font-family="Helvetica,sans-Serif" font-size="10.00">menu/menu_struct.h</text>
</a>
</g>
</g>
<!-- Node25&#45;&gt;Node26 -->
<g id="edge62" class="edge"><title>Node25&#45;&gt;Node26</title>
<path fill="none" stroke="midnightblue" d="M896.871,-425.324C882.9,-417.185 864.044,-404.839 850.503,-395.087"/>
<polygon fill="midnightblue" stroke="midnightblue" points="852.214,-391.998 842.102,-388.834 848.034,-397.613 852.214,-391.998"/>
</g>
<!-- Node26&#45;&gt;Node25 -->
<g id="edge63" class="edge"><title>Node26&#45;&gt;Node25</title>
<path fill="none" stroke="midnightblue" d="M852.092,-388.655C866.137,-396.835 885.135,-409.277 898.703,-419.061"/>
<polygon fill="midnightblue" stroke="midnightblue" points="896.992,-422.151 907.101,-425.324 901.177,-416.54 896.992,-422.151"/>
</g>
<!-- Node27&#45;&gt;Node2 -->
<g id="edge68" class="edge"><title>Node27&#45;&gt;Node2</title>
<path fill="none" stroke="midnightblue" d="M1515.09,-444.552C1421.34,-464.642 1186.6,-514.942 1075.75,-538.696"/>
<polygon fill="midnightblue" stroke="midnightblue" points="1074.79,-535.323 1065.74,-540.841 1076.25,-542.168 1074.79,-535.323"/>
</g>
<!-- Node27&#45;&gt;Node3 -->
<g id="edge67" class="edge"><title>Node27&#45;&gt;Node3</title>
<path fill="none" stroke="midnightblue" d="M1555,-425.307C1555,-406.062 1555,-358.404 1555,-318.5 1555,-318.5 1555,-318.5 1555,-132 1555,-96.7093 1559.52,-78.0933 1532,-56 1488.58,-21.138 1096.03,-13.058 975.822,-11.3939"/>
<polygon fill="midnightblue" stroke="midnightblue" points="975.745,-7.89263 965.7,-11.2602 975.653,-14.892 975.745,-7.89263"/>
</g>
<!-- Node28&#45;&gt;Node3 -->
<g id="edge70" class="edge"><title>Node28&#45;&gt;Node3</title>
<path fill="none" stroke="midnightblue" d="M1289.03,-425.363C1293.33,-406.232 1303,-358.785 1303,-318.5 1303,-318.5 1303,-318.5 1303,-132 1303,-88.4082 1278.88,-77.5727 1241,-56 1196.36,-30.5799 1045.57,-17.7716 976.314,-13.1143"/>
<polygon fill="midnightblue" stroke="midnightblue" points="976.134,-9.5952 965.927,-12.4361 975.678,-16.5803 976.134,-9.5952"/>
</g>
<!-- Node28&#45;&gt;Node4 -->
<g id="edge71" class="edge"><title>Node28&#45;&gt;Node4</title>
<path fill="none" stroke="midnightblue" d="M1249.24,-444.537C1201.58,-454.47 1119.66,-470.8 1066.62,-480.948"/>
<polygon fill="midnightblue" stroke="midnightblue" points="1065.92,-477.52 1056.75,-482.829 1067.23,-484.396 1065.92,-477.52"/>
</g>
<!-- Node29&#45;&gt;Node3 -->
<g id="edge74" class="edge"><title>Node29&#45;&gt;Node3</title>
<path fill="none" stroke="midnightblue" d="M1409.64,-240.804C1411.39,-209.95 1412.72,-104.957 1355,-56 1326.3,-31.6549 1070.39,-17.142 975.875,-12.5731"/>
<polygon fill="midnightblue" stroke="midnightblue" points="975.844,-9.06775 965.689,-12.0892 975.511,-16.0599 975.844,-9.06775"/>
</g>
</g>
</svg>
