<?xml version="1.0" encoding="UTF-8" standalone="no"?>
<!DOCTYPE svg PUBLIC "-//W3C//DTD SVG 1.1//EN"
 "http://www.w3.org/Graphics/SVG/1.1/DTD/svg11.dtd">
<!-- Generated by graphviz version 2.38.0 (20140413.2041)
 -->
<!-- Title: string_fixedpoint_to_array Pages: 1 -->
<svg width="938pt" height="133pt"
 viewBox="0.00 0.00 938.00 133.00" xmlns="http://www.w3.org/2000/svg" xmlns:xlink="http://www.w3.org/1999/xlink">
<g id="graph0" class="graph" transform="scale(1 1) rotate(0) translate(4 129)">
<title>string_fixedpoint_to_array</title>
<polygon fill="white" stroke="none" points="-4,4 -4,-129 934,-129 934,4 -4,4"/>
<!-- Node1 -->
<g id="node1" class="node"><title>Node1</title>
<polygon fill="#bfbfbf" stroke="black" points="0,-14 0,-44 101,-44 101,-14 0,-14"/>
<text text-anchor="start" x="8" y="-32" font-family="Helvetica,sans-Serif" font-size="10.00">string_fixedpoint_to</text>
<text text-anchor="middle" x="50.5" y="-21" font-family="Helvetica,sans-Serif" font-size="10.00">_array</text>
</g>
<!-- Node2 -->
<g id="node2" class="node"><title>Node2</title>
<g id="a_node2"><a xlink:href="radio_8c.html#a5e5300f73411d8e90a928adf42d2a6ed" target="_top" xlink:title="radio_store_station">
<polygon fill="white" stroke="black" points="137,-38.5 137,-57.5 236,-57.5 236,-38.5 137,-38.5"/>
<text text-anchor="middle" x="186.5" y="-45.5" font-family="Helvetica,sans-Serif" font-size="10.00">radio_store_station</text>
</a>
</g>
</g>
<!-- Node1&#45;&gt;Node2 -->
<g id="edge1" class="edge"><title>Node1&#45;&gt;Node2</title>
<path fill="none" stroke="midnightblue" d="M110.974,-37.4329C119.552,-38.6491 128.295,-39.8889 136.634,-41.0713"/>
<polygon fill="midnightblue" stroke="midnightblue" points="111.408,-33.9595 101.016,-36.0209 110.426,-40.8902 111.408,-33.9595"/>
</g>
<!-- Node10 -->
<g id="node10" class="node"><title>Node10</title>
<g id="a_node10"><a xlink:href="radio__display_8c.html#aa568d26c43f1503a5f31c86aab080591" target="_top" xlink:title="radio_display_handler">
<polygon fill="white" stroke="black" points="272,-0.5 272,-19.5 382,-19.5 382,-0.5 272,-0.5"/>
<text text-anchor="middle" x="327" y="-7.5" font-family="Helvetica,sans-Serif" font-size="10.00">radio_display_handler</text>
</a>
</g>
</g>
<!-- Node1&#45;&gt;Node10 -->
<g id="edge11" class="edge"><title>Node1&#45;&gt;Node10</title>
<path fill="none" stroke="midnightblue" d="M111.427,-24.8521C159.275,-21.5401 225.734,-16.9401 271.962,-13.7403"/>
<polygon fill="midnightblue" stroke="midnightblue" points="110.944,-21.377 101.21,-25.5592 111.428,-28.3603 110.944,-21.377"/>
</g>
<!-- Node3 -->
<g id="node3" class="node"><title>Node3</title>
<g id="a_node3"><a xlink:href="radio_8c.html#ac96da2886aec92b299b27b500761564c" target="_top" xlink:title="radio_auto_search">
<polygon fill="white" stroke="black" points="418,-105.5 418,-124.5 514,-124.5 514,-105.5 418,-105.5"/>
<text text-anchor="middle" x="466" y="-112.5" font-family="Helvetica,sans-Serif" font-size="10.00">radio_auto_search</text>
</a>
</g>
</g>
<!-- Node2&#45;&gt;Node3 -->
<g id="edge2" class="edge"><title>Node2&#45;&gt;Node3</title>
<path fill="none" stroke="midnightblue" d="M236.955,-59.9404C290.722,-72.922 375.592,-93.4131 425.223,-105.396"/>
<polygon fill="midnightblue" stroke="midnightblue" points="237.506,-56.4731 226.964,-57.5283 235.863,-63.2776 237.506,-56.4731"/>
</g>
<!-- Node8 -->
<g id="node8" class="node"><title>Node8</title>
<g id="a_node8"><a xlink:href="station__list_8h.html#a5b16204c2b6824ce89364d614f074b20" target="_top" xlink:title="station_list_handler">
<polygon fill="white" stroke="black" points="276.5,-38.5 276.5,-57.5 377.5,-57.5 377.5,-38.5 276.5,-38.5"/>
<text text-anchor="middle" x="327" y="-45.5" font-family="Helvetica,sans-Serif" font-size="10.00">station_list_handler</text>
</a>
</g>
</g>
<!-- Node2&#45;&gt;Node8 -->
<g id="edge7" class="edge"><title>Node2&#45;&gt;Node8</title>
<path fill="none" stroke="midnightblue" d="M246.502,-48C256.396,-48 266.575,-48 276.208,-48"/>
<polygon fill="midnightblue" stroke="midnightblue" points="246.33,-44.5001 236.33,-48 246.33,-51.5001 246.33,-44.5001"/>
</g>
<!-- Node4 -->
<g id="node4" class="node"><title>Node4</title>
<g id="a_node4"><a xlink:href="radio_8c.html#a832a684fc60104296fc975a7608f92b4" target="_top" xlink:title="radio_settings">
<polygon fill="white" stroke="black" points="550,-57.5 550,-76.5 627,-76.5 627,-57.5 550,-57.5"/>
<text text-anchor="middle" x="588.5" y="-64.5" font-family="Helvetica,sans-Serif" font-size="10.00">radio_settings</text>
</a>
</g>
</g>
<!-- Node3&#45;&gt;Node4 -->
<g id="edge3" class="edge"><title>Node3&#45;&gt;Node4</title>
<path fill="none" stroke="midnightblue" d="M500.462,-101.671C520.458,-93.7056 545.396,-83.7718 563.446,-76.5815"/>
<polygon fill="midnightblue" stroke="midnightblue" points="499.09,-98.4496 491.095,-105.402 501.681,-104.953 499.09,-98.4496"/>
</g>
<!-- Node5 -->
<g id="node5" class="node"><title>Node5</title>
<g id="a_node5"><a xlink:href="menu_8c.html#a5d9c190838195d7872fc7067269e20fa" target="_top" xlink:title="menu_function">
<polygon fill="white" stroke="black" points="663,-33.5 663,-52.5 743,-52.5 743,-33.5 663,-33.5"/>
<text text-anchor="middle" x="703" y="-40.5" font-family="Helvetica,sans-Serif" font-size="10.00">menu_function</text>
</a>
</g>
</g>
<!-- Node4&#45;&gt;Node5 -->
<g id="edge4" class="edge"><title>Node4&#45;&gt;Node5</title>
<path fill="none" stroke="midnightblue" d="M637.193,-56.8254C645.792,-54.9909 654.665,-53.0982 662.981,-51.3241"/>
<polygon fill="midnightblue" stroke="midnightblue" points="636.324,-53.4321 627.274,-58.9416 637.784,-60.2781 636.324,-53.4321"/>
</g>
<!-- Node6 -->
<g id="node6" class="node"><title>Node6</title>
<g id="a_node6"><a xlink:href="menu_8c.html#aaf2a075d3159f7eeab42012941a3437f" target="_top" xlink:title="menu_handler">
<polygon fill="white" stroke="black" points="779,-33.5 779,-52.5 856,-52.5 856,-33.5 779,-33.5"/>
<text text-anchor="middle" x="817.5" y="-40.5" font-family="Helvetica,sans-Serif" font-size="10.00">menu_handler</text>
</a>
</g>
</g>
<!-- Node5&#45;&gt;Node6 -->
<g id="edge5" class="edge"><title>Node5&#45;&gt;Node6</title>
<path fill="none" stroke="midnightblue" d="M753.262,-43C761.783,-43 770.52,-43 778.676,-43"/>
<polygon fill="midnightblue" stroke="midnightblue" points="753.031,-39.5001 743.031,-43 753.031,-46.5001 753.031,-39.5001"/>
</g>
<!-- Node7 -->
<g id="node7" class="node"><title>Node7</title>
<g id="a_node7"><a xlink:href="main_8c.html#a840291bc02cba5474a4cb46a9b9566fe" target="_top" xlink:title="main">
<polygon fill="white" stroke="black" points="892,-33.5 892,-52.5 930,-52.5 930,-33.5 892,-33.5"/>
<text text-anchor="middle" x="911" y="-40.5" font-family="Helvetica,sans-Serif" font-size="10.00">main</text>
</a>
</g>
</g>
<!-- Node6&#45;&gt;Node7 -->
<g id="edge6" class="edge"><title>Node6&#45;&gt;Node7</title>
<path fill="none" stroke="midnightblue" d="M866.362,-43C875.347,-43 884.223,-43 891.601,-43"/>
<polygon fill="midnightblue" stroke="midnightblue" points="866.245,-39.5001 856.245,-43 866.245,-46.5001 866.245,-39.5001"/>
</g>
<!-- Node8&#45;&gt;Node4 -->
<g id="edge8" class="edge"><title>Node8&#45;&gt;Node4</title>
<path fill="none" stroke="midnightblue" d="M388.177,-55.1718C398.13,-56.2184 408.348,-57.2082 418,-58 463.23,-61.7104 515.381,-64.2137 549.758,-65.6194"/>
<polygon fill="midnightblue" stroke="midnightblue" points="388.253,-51.6598 377.936,-54.0664 387.502,-58.6194 388.253,-51.6598"/>
</g>
<!-- Node9 -->
<g id="node9" class="node"><title>Node9</title>
<g id="a_node9"><a xlink:href="radio_8c.html#aae41d271062b3f94cccf4fb5996b04a2" target="_top" xlink:title="radio_frequency">
<polygon fill="white" stroke="black" points="423.5,-29.5 423.5,-48.5 508.5,-48.5 508.5,-29.5 423.5,-29.5"/>
<text text-anchor="middle" x="466" y="-36.5" font-family="Helvetica,sans-Serif" font-size="10.00">radio_frequency</text>
</a>
</g>
</g>
<!-- Node8&#45;&gt;Node9 -->
<g id="edge9" class="edge"><title>Node8&#45;&gt;Node9</title>
<path fill="none" stroke="midnightblue" d="M388.095,-44.0522C399.895,-43.277 412.033,-42.4796 423.08,-41.7539"/>
<polygon fill="midnightblue" stroke="midnightblue" points="387.597,-40.5772 377.848,-44.7253 388.056,-47.5622 387.597,-40.5772"/>
</g>
<!-- Node9&#45;&gt;Node4 -->
<g id="edge10" class="edge"><title>Node9&#45;&gt;Node4</title>
<path fill="none" stroke="midnightblue" d="M518.147,-50.8849C528.763,-53.3516 539.765,-55.908 549.793,-58.2381"/>
<polygon fill="midnightblue" stroke="midnightblue" points="518.665,-47.412 508.132,-48.5577 517.081,-54.2303 518.665,-47.412"/>
</g>
<!-- Node11 -->
<g id="node11" class="node"><title>Node11</title>
<g id="a_node11"><a xlink:href="radio_8c.html#a5f7fcd9e9755fb5e22175a4ad74a5456" target="_top" xlink:title="radio_main">
<polygon fill="white" stroke="black" points="556.5,-10.5 556.5,-29.5 620.5,-29.5 620.5,-10.5 556.5,-10.5"/>
<text text-anchor="middle" x="588.5" y="-17.5" font-family="Helvetica,sans-Serif" font-size="10.00">radio_main</text>
</a>
</g>
</g>
<!-- Node10&#45;&gt;Node11 -->
<g id="edge12" class="edge"><title>Node10&#45;&gt;Node11</title>
<path fill="none" stroke="midnightblue" d="M392.256,-12.4762C444.473,-14.4883 515.87,-17.2397 556.275,-18.7967"/>
<polygon fill="midnightblue" stroke="midnightblue" points="392.211,-8.97192 382.084,-12.0842 391.942,-15.9667 392.211,-8.97192"/>
</g>
<!-- Node11&#45;&gt;Node5 -->
<g id="edge13" class="edge"><title>Node11&#45;&gt;Node5</title>
<path fill="none" stroke="midnightblue" d="M630.661,-28.4152C641.091,-30.5475 652.269,-32.8327 662.609,-34.9466"/>
<polygon fill="midnightblue" stroke="midnightblue" points="631.037,-24.9198 620.539,-26.3457 629.635,-31.7779 631.037,-24.9198"/>
</g>
</g>
</svg>
