<?xml version="1.0" encoding="UTF-8" standalone="no"?>
<!DOCTYPE svg PUBLIC "-//W3C//DTD SVG 1.1//EN"
 "http://www.w3.org/Graphics/SVG/1.1/DTD/svg11.dtd">
<!-- Generated by graphviz version 2.38.0 (20140413.2041)
 -->
<!-- Title: string_int_to_array Pages: 1 -->
<svg width="518pt" height="208pt"
 viewBox="0.00 0.00 518.00 208.00" xmlns="http://www.w3.org/2000/svg" xmlns:xlink="http://www.w3.org/1999/xlink">
<g id="graph0" class="graph" transform="scale(1 1) rotate(0) translate(4 204)">
<title>string_int_to_array</title>
<polygon fill="white" stroke="none" points="-4,4 -4,-204 514,-204 514,4 -4,4"/>
<!-- Node1 -->
<g id="node1" class="node"><title>Node1</title>
<polygon fill="#bfbfbf" stroke="black" points="0,-57.5 0,-76.5 97,-76.5 97,-57.5 0,-57.5"/>
<text text-anchor="middle" x="48.5" y="-64.5" font-family="Helvetica,sans-Serif" font-size="10.00">string_int_to_array</text>
</g>
<!-- Node2 -->
<g id="node2" class="node"><title>Node2</title>
<g id="a_node2"><a xlink:href="menu_8c.html#a5621c1bf312de029f43808bf02dc52e3" target="_top" xlink:title="Scroll through the settings. ">
<polygon fill="white" stroke="black" points="135,-133.5 135,-152.5 244,-152.5 244,-133.5 135,-133.5"/>
<text text-anchor="middle" x="189.5" y="-140.5" font-family="Helvetica,sans-Serif" font-size="10.00">menu_scroll_settings</text>
</a>
</g>
</g>
<!-- Node1&#45;&gt;Node2 -->
<g id="edge1" class="edge"><title>Node1&#45;&gt;Node2</title>
<path fill="none" stroke="midnightblue" d="M75.9377,-81.4551C103.862,-96.7232 147.093,-120.36 171.038,-133.453"/>
<polygon fill="midnightblue" stroke="midnightblue" points="77.5577,-78.3519 67.1044,-76.6255 74.1995,-84.4938 77.5577,-78.3519"/>
</g>
<!-- Node6 -->
<g id="node6" class="node"><title>Node6</title>
<g id="a_node6"><a xlink:href="radio_8c.html#ac96da2886aec92b299b27b500761564c" target="_top" xlink:title="Auto Search for radio stations. ">
<polygon fill="white" stroke="black" points="141.5,-76.5 141.5,-95.5 237.5,-95.5 237.5,-76.5 141.5,-76.5"/>
<text text-anchor="middle" x="189.5" y="-83.5" font-family="Helvetica,sans-Serif" font-size="10.00">radio_auto_search</text>
</a>
</g>
</g>
<!-- Node1&#45;&gt;Node6 -->
<g id="edge5" class="edge"><title>Node1&#45;&gt;Node6</title>
<path fill="none" stroke="midnightblue" d="M107.459,-74.9225C118.646,-76.4516 130.243,-78.0368 141.047,-79.5136"/>
<polygon fill="midnightblue" stroke="midnightblue" points="107.718,-71.4254 97.3359,-73.5387 106.77,-78.3609 107.718,-71.4254"/>
</g>
<!-- Node8 -->
<g id="node8" class="node"><title>Node8</title>
<g id="a_node8"><a xlink:href="radio__display_8c.html#ac056d01b161ce2b8c286190f619c94f8" target="_top" xlink:title="Updates the speaker symbol according to the current audio state. ">
<polygon fill="white" stroke="black" points="133,-38.5 133,-57.5 246,-57.5 246,-38.5 133,-38.5"/>
<text text-anchor="middle" x="189.5" y="-45.5" font-family="Helvetica,sans-Serif" font-size="10.00">radio_display_speaker</text>
</a>
</g>
</g>
<!-- Node1&#45;&gt;Node8 -->
<g id="edge7" class="edge"><title>Node1&#45;&gt;Node8</title>
<path fill="none" stroke="midnightblue" d="M107.463,-59.077C115.889,-57.9253 124.547,-56.7418 132.924,-55.5968"/>
<polygon fill="midnightblue" stroke="midnightblue" points="106.77,-55.6391 97.3359,-60.4613 107.718,-62.5746 106.77,-55.6391"/>
</g>
<!-- Node11 -->
<g id="node11" class="node"><title>Node11</title>
<g id="a_node11"><a xlink:href="radio__display_8c.html#aa113a6affc99d406e8c73fc800648cb3" target="_top" xlink:title="Display the RSQ. ">
<polygon fill="white" stroke="black" points="143.5,-0.5 143.5,-19.5 235.5,-19.5 235.5,-0.5 143.5,-0.5"/>
<text text-anchor="middle" x="189.5" y="-7.5" font-family="Helvetica,sans-Serif" font-size="10.00">radio_display_rsq</text>
</a>
</g>
</g>
<!-- Node1&#45;&gt;Node11 -->
<g id="edge10" class="edge"><title>Node1&#45;&gt;Node11</title>
<path fill="none" stroke="midnightblue" d="M78.4845,-52.9696C94.4126,-45.4731 114.616,-36.3101 133,-29 141.328,-25.6885 150.489,-22.4086 158.925,-19.5298"/>
<polygon fill="midnightblue" stroke="midnightblue" points="76.706,-49.9395 69.1739,-57.3905 79.7085,-56.2629 76.706,-49.9395"/>
</g>
<!-- Node3 -->
<g id="node3" class="node"><title>Node3</title>
<g id="a_node3"><a xlink:href="radio__settings_8c.html#a2d04f2363bf944b4700b71e0f96ee16f" target="_top" xlink:title="Sets the brightness. ">
<polygon fill="white" stroke="black" points="282,-180.5 282,-199.5 410,-199.5 410,-180.5 282,-180.5"/>
<text text-anchor="middle" x="346" y="-187.5" font-family="Helvetica,sans-Serif" font-size="10.00">radio_settings_brightness</text>
</a>
</g>
</g>
<!-- Node2&#45;&gt;Node3 -->
<g id="edge2" class="edge"><title>Node2&#45;&gt;Node3</title>
<path fill="none" stroke="midnightblue" d="M231.775,-155.669C247.492,-160.484 265.571,-166.009 282,-171 292.166,-174.088 303.26,-177.44 313.266,-180.457"/>
<polygon fill="midnightblue" stroke="midnightblue" points="232.415,-152.205 221.828,-152.621 230.364,-158.898 232.415,-152.205"/>
</g>
<!-- Node4 -->
<g id="node4" class="node"><title>Node4</title>
<g id="a_node4"><a xlink:href="radio__settings_8c.html#ab8b2e0dbe3fd9644146e798c3e2a3116" target="_top" xlink:title="Sets the contrast. ">
<polygon fill="white" stroke="black" points="287,-142.5 287,-161.5 405,-161.5 405,-142.5 287,-142.5"/>
<text text-anchor="middle" x="346" y="-149.5" font-family="Helvetica,sans-Serif" font-size="10.00">radio_settings_contrast</text>
</a>
</g>
</g>
<!-- Node2&#45;&gt;Node4 -->
<g id="edge3" class="edge"><title>Node2&#45;&gt;Node4</title>
<path fill="none" stroke="midnightblue" d="M254.275,-146.715C265.029,-147.341 276.142,-147.989 286.747,-148.607"/>
<polygon fill="midnightblue" stroke="midnightblue" points="254.29,-143.21 244.103,-146.123 253.883,-150.198 254.29,-143.21"/>
</g>
<!-- Node5 -->
<g id="node5" class="node"><title>Node5</title>
<g id="a_node5"><a xlink:href="radio__settings_8c.html#aba6a09ed7091ec65d2cbf4cd9a9a75f4" target="_top" xlink:title="Sets the volume. ">
<polygon fill="white" stroke="black" points="289.5,-104.5 289.5,-123.5 402.5,-123.5 402.5,-104.5 289.5,-104.5"/>
<text text-anchor="middle" x="346" y="-111.5" font-family="Helvetica,sans-Serif" font-size="10.00">radio_settings_volume</text>
</a>
</g>
</g>
<!-- Node2&#45;&gt;Node5 -->
<g id="edge4" class="edge"><title>Node2&#45;&gt;Node5</title>
<path fill="none" stroke="midnightblue" d="M251.647,-131.522C265.782,-128.869 280.669,-126.075 294.3,-123.517"/>
<polygon fill="midnightblue" stroke="midnightblue" points="250.7,-128.139 241.517,-133.424 251.991,-135.019 250.7,-128.139"/>
</g>
<!-- Node7 -->
<g id="node7" class="node"><title>Node7</title>
<g id="a_node7"><a xlink:href="radio__settings_8c.html#a90d48a01d9b0ad794fb9416a2ce8f85e" target="_top" xlink:title="Seeks the next station/all available. ">
<polygon fill="white" stroke="black" points="290,-66.5 290,-85.5 402,-85.5 402,-66.5 290,-66.5"/>
<text text-anchor="middle" x="346" y="-73.5" font-family="Helvetica,sans-Serif" font-size="10.00">radio_settings_station</text>
</a>
</g>
</g>
<!-- Node6&#45;&gt;Node7 -->
<g id="edge6" class="edge"><title>Node6&#45;&gt;Node7</title>
<path fill="none" stroke="midnightblue" d="M247.99,-82.279C261.722,-81.3902 276.347,-80.4436 289.965,-79.5622"/>
<polygon fill="midnightblue" stroke="midnightblue" points="247.448,-78.8067 237.695,-82.9453 247.9,-85.792 247.448,-78.8067"/>
</g>
<!-- Node9 -->
<g id="node9" class="node"><title>Node9</title>
<g id="a_node9"><a xlink:href="radio__display_8c.html#a43baede098c7b21694b3fda71685fa06" target="_top" xlink:title="Handler for the display. ">
<polygon fill="white" stroke="black" points="291,-14.5 291,-33.5 401,-33.5 401,-14.5 291,-14.5"/>
<text text-anchor="middle" x="346" y="-21.5" font-family="Helvetica,sans-Serif" font-size="10.00">radio_display_handler</text>
</a>
</g>
</g>
<!-- Node8&#45;&gt;Node9 -->
<g id="edge8" class="edge"><title>Node8&#45;&gt;Node9</title>
<path fill="none" stroke="midnightblue" d="M256.291,-37.7801C267.816,-35.9897 279.69,-34.1452 290.855,-32.4109"/>
<polygon fill="midnightblue" stroke="midnightblue" points="255.622,-34.3419 246.278,-39.3354 256.697,-41.2589 255.622,-34.3419"/>
</g>
<!-- Node10 -->
<g id="node10" class="node"><title>Node10</title>
<g id="a_node10"><a xlink:href="radio_8c.html#a841443a7db6e1c9caef95f3b7af5761f" target="_top" xlink:title="Radio main. ">
<polygon fill="white" stroke="black" points="446,-14.5 446,-33.5 510,-33.5 510,-14.5 446,-14.5"/>
<text text-anchor="middle" x="478" y="-21.5" font-family="Helvetica,sans-Serif" font-size="10.00">radio_main</text>
</a>
</g>
</g>
<!-- Node9&#45;&gt;Node10 -->
<g id="edge9" class="edge"><title>Node9&#45;&gt;Node10</title>
<path fill="none" stroke="midnightblue" d="M411.065,-24C423.099,-24 435.177,-24 445.646,-24"/>
<polygon fill="midnightblue" stroke="midnightblue" points="411.002,-20.5001 401.002,-24 411.002,-27.5001 411.002,-20.5001"/>
</g>
<!-- Node11&#45;&gt;Node9 -->
<g id="edge11" class="edge"><title>Node11&#45;&gt;Node9</title>
<path fill="none" stroke="midnightblue" d="M245.569,-14.99C260.276,-16.3228 276.156,-17.7617 290.816,-19.0901"/>
<polygon fill="midnightblue" stroke="midnightblue" points="245.878,-11.5038 235.603,-14.087 245.246,-18.4753 245.878,-11.5038"/>
</g>
</g>
</svg>
