<?xml version="1.0" encoding="UTF-8" standalone="no"?>
<!DOCTYPE svg PUBLIC "-//W3C//DTD SVG 1.1//EN"
 "http://www.w3.org/Graphics/SVG/1.1/DTD/svg11.dtd">
<!-- Generated by graphviz version 2.38.0 (20140413.2041)
 -->
<!-- Title: rds Pages: 1 -->
<svg width="369pt" height="95pt"
 viewBox="0.00 0.00 368.50 95.00" xmlns="http://www.w3.org/2000/svg" xmlns:xlink="http://www.w3.org/1999/xlink">
<g id="graph0" class="graph" transform="scale(1 1) rotate(0) translate(4 91)">
<title>rds</title>
<polygon fill="white" stroke="none" points="-4,4 -4,-91 364.5,-91 364.5,4 -4,4"/>
<!-- Node1 -->
<g id="node1" class="node"><title>Node1</title>
<polygon fill="#bfbfbf" stroke="black" points="177,-0.5 177,-19.5 207,-19.5 207,-0.5 177,-0.5"/>
<text text-anchor="middle" x="192" y="-7.5" font-family="Helvetica,sans-Serif" font-size="10.00">rds</text>
</g>
<!-- Node2 -->
<g id="node2" class="node"><title>Node2</title>
<g id="a_node2"><a xlink:href="structblock__b.html" target="_top" xlink:title="block_b">
<polygon fill="white" stroke="black" points="0,-67.5 0,-86.5 50,-86.5 50,-67.5 0,-67.5"/>
<text text-anchor="middle" x="25" y="-74.5" font-family="Helvetica,sans-Serif" font-size="10.00">block_b</text>
</a>
</g>
</g>
<!-- Node2&#45;&gt;Node1 -->
<g id="edge1" class="edge"><title>Node2&#45;&gt;Node1</title>
<path fill="none" stroke="#9a32cd" stroke-dasharray="5,2" d="M41.8687,-60.9738C51.5448,-53.0776 64.2703,-43.8511 77,-38 110.728,-22.4974 154.25,-15.4193 176.857,-12.6026"/>
<polygon fill="#9a32cd" stroke="#9a32cd" points="39.5916,-58.3158 34.2271,-67.4522 44.1182,-63.6553 39.5916,-58.3158"/>
<text text-anchor="middle" x="95.5" y="-41" font-family="Helvetica,sans-Serif" font-size="10.00"> block_b</text>
</g>
<!-- Node3 -->
<g id="node3" class="node"><title>Node3</title>
<g id="a_node3"><a xlink:href="structstatus.html" target="_top" xlink:title="status">
<polygon fill="white" stroke="black" points="68,-67.5 68,-86.5 112,-86.5 112,-67.5 68,-67.5"/>
<text text-anchor="middle" x="90" y="-74.5" font-family="Helvetica,sans-Serif" font-size="10.00">status</text>
</a>
</g>
</g>
<!-- Node3&#45;&gt;Node1 -->
<g id="edge2" class="edge"><title>Node3&#45;&gt;Node1</title>
<path fill="none" stroke="#9a32cd" stroke-dasharray="5,2" d="M104.931,-59.8949C112.291,-52.5761 121.593,-44.1908 131,-38 145.511,-28.4497 163.96,-20.8214 176.75,-16.1417"/>
<polygon fill="#9a32cd" stroke="#9a32cd" points="102.237,-57.6455 97.7936,-67.2635 107.265,-62.5157 102.237,-57.6455"/>
<text text-anchor="middle" x="146.5" y="-41" font-family="Helvetica,sans-Serif" font-size="10.00"> status</text>
</g>
<!-- Node4 -->
<g id="node4" class="node"><title>Node4</title>
<g id="a_node4"><a xlink:href="structpi.html" target="_top" xlink:title="pi">
<polygon fill="white" stroke="black" points="130.5,-67.5 130.5,-86.5 159.5,-86.5 159.5,-67.5 130.5,-67.5"/>
<text text-anchor="middle" x="145" y="-74.5" font-family="Helvetica,sans-Serif" font-size="10.00">pi</text>
</a>
</g>
</g>
<!-- Node4&#45;&gt;Node1 -->
<g id="edge3" class="edge"><title>Node4&#45;&gt;Node1</title>
<path fill="none" stroke="#9a32cd" stroke-dasharray="5,2" d="M157.362,-58.9037C166.495,-46.2729 178.548,-29.6041 185.762,-19.6273"/>
<polygon fill="#9a32cd" stroke="#9a32cd" points="154.362,-57.0795 151.339,-67.2338 160.034,-61.1811 154.362,-57.0795"/>
<text text-anchor="middle" x="177.5" y="-41" font-family="Helvetica,sans-Serif" font-size="10.00"> pi</text>
</g>
<!-- Node5 -->
<g id="node5" class="node"><title>Node5</title>
<g id="a_node5"><a xlink:href="structfifo.html" target="_top" xlink:title="fifo">
<polygon fill="white" stroke="black" points="177.5,-67.5 177.5,-86.5 206.5,-86.5 206.5,-67.5 177.5,-67.5"/>
<text text-anchor="middle" x="192" y="-74.5" font-family="Helvetica,sans-Serif" font-size="10.00">fifo</text>
</a>
</g>
</g>
<!-- Node5&#45;&gt;Node1 -->
<g id="edge4" class="edge"><title>Node5&#45;&gt;Node1</title>
<path fill="none" stroke="#9a32cd" stroke-dasharray="5,2" d="M192,-57.037C192,-44.6703 192,-29.1198 192,-19.6273"/>
<polygon fill="#9a32cd" stroke="#9a32cd" points="188.5,-57.2338 192,-67.2338 195.5,-57.2338 188.5,-57.2338"/>
<text text-anchor="middle" x="200" y="-41" font-family="Helvetica,sans-Serif" font-size="10.00"> fifo</text>
</g>
<!-- Node6 -->
<g id="node6" class="node"><title>Node6</title>
<g id="a_node6"><a xlink:href="structsync.html" target="_top" xlink:title="sync">
<polygon fill="white" stroke="black" points="225,-67.5 225,-86.5 263,-86.5 263,-67.5 225,-67.5"/>
<text text-anchor="middle" x="244" y="-74.5" font-family="Helvetica,sans-Serif" font-size="10.00">sync</text>
</a>
</g>
</g>
<!-- Node6&#45;&gt;Node1 -->
<g id="edge5" class="edge"><title>Node6&#45;&gt;Node1</title>
<path fill="none" stroke="#9a32cd" stroke-dasharray="5,2" d="M230.616,-59.2705C220.478,-46.5972 206.961,-29.701 198.902,-19.6273"/>
<polygon fill="#9a32cd" stroke="#9a32cd" points="228.007,-61.6115 236.987,-67.2338 233.473,-57.2387 228.007,-61.6115"/>
<text text-anchor="middle" x="234.5" y="-41" font-family="Helvetica,sans-Serif" font-size="10.00"> sync</text>
</g>
<!-- Node7 -->
<g id="node7" class="node"><title>Node7</title>
<g id="a_node7"><a xlink:href="structinfo.html" target="_top" xlink:title="info">
<polygon fill="white" stroke="black" points="281,-67.5 281,-86.5 313,-86.5 313,-67.5 281,-67.5"/>
<text text-anchor="middle" x="297" y="-74.5" font-family="Helvetica,sans-Serif" font-size="10.00">info</text>
</a>
</g>
</g>
<!-- Node7&#45;&gt;Node1 -->
<g id="edge6" class="edge"><title>Node7&#45;&gt;Node1</title>
<path fill="none" stroke="#9a32cd" stroke-dasharray="5,2" d="M280.446,-60.53C272.03,-53.1443 261.401,-44.5184 251,-38 236.873,-29.1469 219.361,-21.506 207.099,-16.6347"/>
<polygon fill="#9a32cd" stroke="#9a32cd" points="278.266,-63.2772 288.035,-67.3783 282.956,-58.0803 278.266,-63.2772"/>
<text text-anchor="middle" x="275.5" y="-41" font-family="Helvetica,sans-Serif" font-size="10.00"> info</text>
</g>
<!-- Node8 -->
<g id="node8" class="node"><title>Node8</title>
<g id="a_node8"><a xlink:href="structerr.html" target="_top" xlink:title="err">
<polygon fill="white" stroke="black" points="331.5,-67.5 331.5,-86.5 360.5,-86.5 360.5,-67.5 331.5,-67.5"/>
<text text-anchor="middle" x="346" y="-74.5" font-family="Helvetica,sans-Serif" font-size="10.00">err</text>
</a>
</g>
</g>
<!-- Node8&#45;&gt;Node1 -->
<g id="edge7" class="edge"><title>Node8&#45;&gt;Node1</title>
<path fill="none" stroke="#9a32cd" stroke-dasharray="5,2" d="M327.115,-61.1979C316.421,-53.399 302.515,-44.194 289,-38 261.508,-25.4004 226.875,-17.4996 207.308,-13.7008"/>
<polygon fill="#9a32cd" stroke="#9a32cd" points="325.166,-64.1113 335.263,-67.3213 329.372,-58.5155 325.166,-64.1113"/>
<text text-anchor="middle" x="316.5" y="-41" font-family="Helvetica,sans-Serif" font-size="10.00"> err</text>
</g>
</g>
</svg>
