<?xml version="1.0" encoding="UTF-8" standalone="no"?>
<!DOCTYPE svg PUBLIC "-//W3C//DTD SVG 1.1//EN"
 "http://www.w3.org/Graphics/SVG/1.1/DTD/svg11.dtd">
<!-- Generated by graphviz version 2.38.0 (20140413.2041)
 -->
<!-- Title: radio Pages: 1 -->
<svg width="226pt" height="95pt"
 viewBox="0.00 0.00 226.00 95.00" xmlns="http://www.w3.org/2000/svg" xmlns:xlink="http://www.w3.org/1999/xlink">
<g id="graph0" class="graph" transform="scale(1 1) rotate(0) translate(4 91)">
<title>radio</title>
<polygon fill="white" stroke="none" points="-4,4 -4,-91 222,-91 222,4 -4,4"/>
<!-- Node1 -->
<g id="node1" class="node"><title>Node1</title>
<polygon fill="#bfbfbf" stroke="black" points="83,-0.5 83,-19.5 121,-19.5 121,-0.5 83,-0.5"/>
<text text-anchor="middle" x="102" y="-7.5" font-family="Helvetica,sans-Serif" font-size="10.00">radio</text>
</g>
<!-- Node2 -->
<g id="node2" class="node"><title>Node2</title>
<g id="a_node2"><a xlink:href="structradio__rsq.html" target="_top" xlink:title="radio_rsq">
<polygon fill="white" stroke="black" points="0,-67.5 0,-86.5 56,-86.5 56,-67.5 0,-67.5"/>
<text text-anchor="middle" x="28" y="-74.5" font-family="Helvetica,sans-Serif" font-size="10.00">radio_rsq</text>
</a>
</g>
</g>
<!-- Node2&#45;&gt;Node1 -->
<g id="edge1" class="edge"><title>Node2&#45;&gt;Node1</title>
<path fill="none" stroke="#9a32cd" stroke-dasharray="5,2" d="M45.8097,-60.3564C60.3577,-47.5777 80.3789,-29.9915 92.1781,-19.6273"/>
<polygon fill="#9a32cd" stroke="#9a32cd" points="43.1834,-58.0047 37.98,-67.2338 47.803,-63.264 43.1834,-58.0047"/>
<text text-anchor="middle" x="78.5" y="-41" font-family="Helvetica,sans-Serif" font-size="10.00"> rsq</text>
</g>
<!-- Node3 -->
<g id="node3" class="node"><title>Node3</title>
<g id="a_node3"><a xlink:href="structradio__rds.html" target="_top" xlink:title="radio_rds">
<polygon fill="white" stroke="black" points="74,-67.5 74,-86.5 130,-86.5 130,-67.5 74,-67.5"/>
<text text-anchor="middle" x="102" y="-74.5" font-family="Helvetica,sans-Serif" font-size="10.00">radio_rds</text>
</a>
</g>
</g>
<!-- Node3&#45;&gt;Node1 -->
<g id="edge2" class="edge"><title>Node3&#45;&gt;Node1</title>
<path fill="none" stroke="#9a32cd" stroke-dasharray="5,2" d="M102,-57.037C102,-44.6703 102,-29.1198 102,-19.6273"/>
<polygon fill="#9a32cd" stroke="#9a32cd" points="98.5001,-57.2338 102,-67.2338 105.5,-57.2338 98.5001,-57.2338"/>
<text text-anchor="middle" x="110.5" y="-41" font-family="Helvetica,sans-Serif" font-size="10.00"> rds</text>
</g>
<!-- Node4 -->
<g id="node4" class="node"><title>Node4</title>
<g id="a_node4"><a xlink:href="structradio__status.html" target="_top" xlink:title="radio_status">
<polygon fill="white" stroke="black" points="148,-67.5 148,-86.5 218,-86.5 218,-67.5 148,-67.5"/>
<text text-anchor="middle" x="183" y="-74.5" font-family="Helvetica,sans-Serif" font-size="10.00">radio_status</text>
</a>
</g>
</g>
<!-- Node4&#45;&gt;Node1 -->
<g id="edge3" class="edge"><title>Node4&#45;&gt;Node1</title>
<path fill="none" stroke="#9a32cd" stroke-dasharray="5,2" d="M163.951,-60.7134C147.992,-47.907 125.787,-30.0884 112.751,-19.6273"/>
<polygon fill="#9a32cd" stroke="#9a32cd" points="162.086,-63.7048 172.076,-67.2338 166.467,-58.2453 162.086,-63.7048"/>
<text text-anchor="middle" x="162.5" y="-41" font-family="Helvetica,sans-Serif" font-size="10.00"> status</text>
</g>
</g>
</svg>
