<?xml version="1.0" encoding="UTF-8" standalone="no"?>
<!DOCTYPE svg PUBLIC "-//W3C//DTD SVG 1.1//EN"
 "http://www.w3.org/Graphics/SVG/1.1/DTD/svg11.dtd">
<!-- Generated by graphviz version 2.38.0 (20140413.2041)
 -->
<!-- Title: menu_entry Pages: 1 -->
<svg width="142pt" height="63pt"
 viewBox="0.00 0.00 142.00 63.00" xmlns="http://www.w3.org/2000/svg" xmlns:xlink="http://www.w3.org/1999/xlink">
<g id="graph0" class="graph" transform="scale(1 1) rotate(0) translate(4 59)">
<title>menu_entry</title>
<polygon fill="white" stroke="none" points="-4,4 -4,-59 138,-59 138,4 -4,4"/>
<!-- Node1 -->
<g id="node1" class="node"><title>Node1</title>
<polygon fill="#bfbfbf" stroke="black" points="0,-18 0,-37 68,-37 68,-18 0,-18"/>
<text text-anchor="middle" x="34" y="-25" font-family="Helvetica,sans-Serif" font-size="10.00">menu_entry</text>
</g>
<!-- Node1&#45;&gt;Node1 -->
<g id="edge1" class="edge"><title>Node1&#45;&gt;Node1</title>
<path fill="none" stroke="#9a32cd" stroke-dasharray="5,2" d="M78.1476,-30.637C82.9245,-30.0349 86,-28.9893 86,-27.5 86,-25.1172 78.1268,-23.8699 68.0085,-23.7582"/>
<polygon fill="#9a32cd" stroke="#9a32cd" points="77.7823,-27.1525 68.0085,-31.2418 78.1992,-34.1401 77.7823,-27.1525"/>
<text text-anchor="middle" x="110" y="-47" font-family="Helvetica,sans-Serif" font-size="10.00"> previous</text>
<text text-anchor="middle" x="110" y="-36" font-family="Helvetica,sans-Serif" font-size="10.00">next</text>
<text text-anchor="middle" x="110" y="-25" font-family="Helvetica,sans-Serif" font-size="10.00">child_short</text>
<text text-anchor="middle" x="110" y="-14" font-family="Helvetica,sans-Serif" font-size="10.00">parent</text>
<text text-anchor="middle" x="110" y="-3" font-family="Helvetica,sans-Serif" font-size="10.00">child_long</text>
</g>
</g>
</svg>
