<?xml version="1.0" encoding="UTF-8" standalone="no"?>
<!DOCTYPE svg PUBLIC "-//W3C//DTD SVG 1.1//EN"
 "http://www.w3.org/Graphics/SVG/1.1/DTD/svg11.dtd">
<!-- Generated by graphviz version 2.38.0 (20140413.2041)
 -->
<!-- Title: time_date_to_array Pages: 1 -->
<svg width="482pt" height="28pt"
 viewBox="0.00 0.00 482.00 28.00" xmlns="http://www.w3.org/2000/svg" xmlns:xlink="http://www.w3.org/1999/xlink">
<g id="graph0" class="graph" transform="scale(1 1) rotate(0) translate(4 24)">
<title>time_date_to_array</title>
<polygon fill="white" stroke="none" points="-4,4 -4,-24 478,-24 478,4 -4,4"/>
<!-- Node1 -->
<g id="node1" class="node"><title>Node1</title>
<polygon fill="#bfbfbf" stroke="black" points="0,-0.5 0,-19.5 100,-19.5 100,-0.5 0,-0.5"/>
<text text-anchor="middle" x="50" y="-7.5" font-family="Helvetica,sans-Serif" font-size="10.00">time_date_to_array</text>
</g>
<!-- Node2 -->
<g id="node2" class="node"><title>Node2</title>
<g id="a_node2"><a xlink:href="radio__display_8c.html#af1021ae1d01d874fb72c3ce3d1b29ad9" target="_top" xlink:title="Displays the RDS data. ">
<polygon fill="white" stroke="black" points="136,-0.5 136,-19.5 228,-19.5 228,-0.5 136,-0.5"/>
<text text-anchor="middle" x="182" y="-7.5" font-family="Helvetica,sans-Serif" font-size="10.00">radio_display_rds</text>
</a>
</g>
</g>
<!-- Node1&#45;&gt;Node2 -->
<g id="edge1" class="edge"><title>Node1&#45;&gt;Node2</title>
<path fill="none" stroke="midnightblue" d="M110.391,-10C118.873,-10 127.483,-10 135.638,-10"/>
<polygon fill="midnightblue" stroke="midnightblue" points="110.147,-6.5001 100.147,-10 110.147,-13.5001 110.147,-6.5001"/>
</g>
<!-- Node3 -->
<g id="node3" class="node"><title>Node3</title>
<g id="a_node3"><a xlink:href="radio__display_8c.html#a43baede098c7b21694b3fda71685fa06" target="_top" xlink:title="Handler for the display. ">
<polygon fill="white" stroke="black" points="264,-0.5 264,-19.5 374,-19.5 374,-0.5 264,-0.5"/>
<text text-anchor="middle" x="319" y="-7.5" font-family="Helvetica,sans-Serif" font-size="10.00">radio_display_handler</text>
</a>
</g>
</g>
<!-- Node2&#45;&gt;Node3 -->
<g id="edge2" class="edge"><title>Node2&#45;&gt;Node3</title>
<path fill="none" stroke="midnightblue" d="M238.359,-10C246.716,-10 255.33,-10 263.665,-10"/>
<polygon fill="midnightblue" stroke="midnightblue" points="238.329,-6.5001 228.329,-10 238.329,-13.5001 238.329,-6.5001"/>
</g>
<!-- Node4 -->
<g id="node4" class="node"><title>Node4</title>
<g id="a_node4"><a xlink:href="radio_8c.html#a841443a7db6e1c9caef95f3b7af5761f" target="_top" xlink:title="Radio main. ">
<polygon fill="white" stroke="black" points="410,-0.5 410,-19.5 474,-19.5 474,-0.5 410,-0.5"/>
<text text-anchor="middle" x="442" y="-7.5" font-family="Helvetica,sans-Serif" font-size="10.00">radio_main</text>
</a>
</g>
</g>
<!-- Node3&#45;&gt;Node4 -->
<g id="edge3" class="edge"><title>Node3&#45;&gt;Node4</title>
<path fill="none" stroke="midnightblue" d="M384.181,-10C393.079,-10 401.871,-10 409.783,-10"/>
<polygon fill="midnightblue" stroke="midnightblue" points="384.13,-6.5001 374.13,-10 384.13,-13.5001 384.13,-6.5001"/>
</g>
</g>
</svg>
