<?xml version="1.0" encoding="UTF-8" standalone="no"?>
<!DOCTYPE svg PUBLIC "-//W3C//DTD SVG 1.1//EN"
 "http://www.w3.org/Graphics/SVG/1.1/DTD/svg11.dtd">
<!-- Generated by graphviz version 2.38.0 (20140413.2041)
 -->
<!-- Title: D:/GIT/fhradiov2/system/src/time.c Pages: 1 -->
<svg width="230pt" height="274pt"
 viewBox="0.00 0.00 230.00 274.00" xmlns="http://www.w3.org/2000/svg" xmlns:xlink="http://www.w3.org/1999/xlink">
<g id="graph0" class="graph" transform="scale(1 1) rotate(0) translate(4 270)">
<title>D:/GIT/fhradiov2/system/src/time.c</title>
<polygon fill="white" stroke="none" points="-4,4 -4,-270 226,-270 226,4 -4,4"/>
<!-- Node1 -->
<g id="node1" class="node"><title>Node1</title>
<polygon fill="#bfbfbf" stroke="black" points="0,-235.5 0,-265.5 120,-265.5 120,-235.5 0,-235.5"/>
<text text-anchor="start" x="8" y="-253.5" font-family="Helvetica,sans-Serif" font-size="10.00">D:/GIT/fhradiov2/system</text>
<text text-anchor="middle" x="60" y="-242.5" font-family="Helvetica,sans-Serif" font-size="10.00">/src/time.c</text>
</g>
<!-- Node2 -->
<g id="node2" class="node"><title>Node2</title>
<g id="a_node2"><a xlink:href="system_2time_8h.html" target="_top" xlink:title="system/time.h">
<polygon fill="white" stroke="black" points="20.5,-179.5 20.5,-198.5 99.5,-198.5 99.5,-179.5 20.5,-179.5"/>
<text text-anchor="middle" x="60" y="-186.5" font-family="Helvetica,sans-Serif" font-size="10.00">system/time.h</text>
</a>
</g>
</g>
<!-- Node1&#45;&gt;Node2 -->
<g id="edge1" class="edge"><title>Node1&#45;&gt;Node2</title>
<path fill="none" stroke="midnightblue" d="M60,-235.399C60,-227.466 60,-217.458 60,-208.858"/>
<polygon fill="midnightblue" stroke="midnightblue" points="63.5001,-208.658 60,-198.658 56.5001,-208.658 63.5001,-208.658"/>
</g>
<!-- Node3 -->
<g id="node3" class="node"><title>Node3</title>
<polygon fill="white" stroke="#bfbfbf" points="25.5,-0.5 25.5,-19.5 74.5,-19.5 74.5,-0.5 25.5,-0.5"/>
<text text-anchor="middle" x="50" y="-7.5" font-family="Helvetica,sans-Serif" font-size="10.00">stdint.h</text>
</g>
<!-- Node2&#45;&gt;Node3 -->
<g id="edge2" class="edge"><title>Node2&#45;&gt;Node3</title>
<path fill="none" stroke="midnightblue" d="M51.5173,-179.234C43.9461,-170.75 33.3964,-157.131 29,-143 17.5136,-106.079 20.6254,-93.7489 29,-56 31.124,-46.426 35.5066,-36.4756 39.7212,-28.3735"/>
<polygon fill="midnightblue" stroke="midnightblue" points="42.8221,-29.9989 44.6159,-19.557 36.7019,-26.6012 42.8221,-29.9989"/>
</g>
<!-- Node4 -->
<g id="node4" class="node"><title>Node4</title>
<g id="a_node4"><a xlink:href="radio__configuration_8h.html" target="_top" xlink:title="settings/radio_configuration.h">
<polygon fill="white" stroke="black" points="38.5,-123.5 38.5,-142.5 181.5,-142.5 181.5,-123.5 38.5,-123.5"/>
<text text-anchor="middle" x="110" y="-130.5" font-family="Helvetica,sans-Serif" font-size="10.00">settings/radio_configuration.h</text>
</a>
</g>
</g>
<!-- Node2&#45;&gt;Node4 -->
<g id="edge3" class="edge"><title>Node2&#45;&gt;Node4</title>
<path fill="none" stroke="midnightblue" d="M68.2565,-179.083C75.4647,-171.298 86.1098,-159.801 94.8458,-150.367"/>
<polygon fill="midnightblue" stroke="midnightblue" points="97.6712,-152.467 101.897,-142.751 92.5349,-147.711 97.6712,-152.467"/>
</g>
<!-- Node5 -->
<g id="node5" class="node"><title>Node5</title>
<g id="a_node5"><a xlink:href="si4735__cmd__prop_8h.html" target="_top" xlink:title="driver/include/si4735\l_cmd_prop.h">
<polygon fill="white" stroke="black" points="38,-56.5 38,-86.5 142,-86.5 142,-56.5 38,-56.5"/>
<text text-anchor="start" x="46" y="-74.5" font-family="Helvetica,sans-Serif" font-size="10.00">driver/include/si4735</text>
<text text-anchor="middle" x="90" y="-63.5" font-family="Helvetica,sans-Serif" font-size="10.00">_cmd_prop.h</text>
</a>
</g>
</g>
<!-- Node4&#45;&gt;Node5 -->
<g id="edge4" class="edge"><title>Node4&#45;&gt;Node5</title>
<path fill="none" stroke="midnightblue" d="M107.134,-123.475C104.73,-116.32 101.176,-105.748 97.9274,-96.0841"/>
<polygon fill="midnightblue" stroke="midnightblue" points="101.217,-94.8866 94.7136,-86.523 94.5822,-97.117 101.217,-94.8866"/>
</g>
<!-- Node6 -->
<g id="node6" class="node"><title>Node6</title>
<g id="a_node6"><a xlink:href="libs_2time_8h.html" target="_top" xlink:title="libs/time.h">
<polygon fill="white" stroke="black" points="160,-62 160,-81 222,-81 222,-62 160,-62"/>
<text text-anchor="middle" x="191" y="-69" font-family="Helvetica,sans-Serif" font-size="10.00">libs/time.h</text>
</a>
</g>
</g>
<!-- Node4&#45;&gt;Node6 -->
<g id="edge6" class="edge"><title>Node4&#45;&gt;Node6</title>
<path fill="none" stroke="midnightblue" d="M121.605,-123.475C134.477,-114.02 155.474,-98.5961 171.006,-87.1871"/>
<polygon fill="midnightblue" stroke="midnightblue" points="173.429,-89.75 179.416,-81.0091 169.285,-84.1085 173.429,-89.75"/>
</g>
<!-- Node5&#45;&gt;Node3 -->
<g id="edge5" class="edge"><title>Node5&#45;&gt;Node3</title>
<path fill="none" stroke="midnightblue" d="M80.5206,-56.3993C74.8279,-47.9315 67.5456,-37.0991 61.5222,-28.1393"/>
<polygon fill="midnightblue" stroke="midnightblue" points="64.3042,-26.0041 55.8204,-19.6578 58.4949,-29.9095 64.3042,-26.0041"/>
</g>
</g>
</svg>
