<?xml version="1.0" encoding="UTF-8" standalone="no"?>
<!DOCTYPE svg PUBLIC "-//W3C//DTD SVG 1.1//EN"
 "http://www.w3.org/Graphics/SVG/1.1/DTD/svg11.dtd">
<!-- Generated by graphviz version 2.38.0 (20140413.2041)
 -->
<!-- Title: system/time.h Pages: 1 -->
<svg width="376pt" height="140pt"
 viewBox="0.00 0.00 375.50 140.00" xmlns="http://www.w3.org/2000/svg" xmlns:xlink="http://www.w3.org/1999/xlink">
<g id="graph0" class="graph" transform="scale(1 1) rotate(0) translate(4 136)">
<title>system/time.h</title>
<polygon fill="white" stroke="none" points="-4,4 -4,-136 371.5,-136 371.5,4 -4,4"/>
<!-- Node1 -->
<g id="node1" class="node"><title>Node1</title>
<polygon fill="#bfbfbf" stroke="black" points="177.5,-112.5 177.5,-131.5 256.5,-131.5 256.5,-112.5 177.5,-112.5"/>
<text text-anchor="middle" x="217" y="-119.5" font-family="Helvetica,sans-Serif" font-size="10.00">system/time.h</text>
</g>
<!-- Node2 -->
<g id="node2" class="node"><title>Node2</title>
<g id="a_node2"><a xlink:href="radio_8h.html" target="_top" xlink:title="system/radio.h">
<polygon fill="white" stroke="black" points="72.5,-56.5 72.5,-75.5 153.5,-75.5 153.5,-56.5 72.5,-56.5"/>
<text text-anchor="middle" x="113" y="-63.5" font-family="Helvetica,sans-Serif" font-size="10.00">system/radio.h</text>
</a>
</g>
</g>
<!-- Node1&#45;&gt;Node2 -->
<g id="edge1" class="edge"><title>Node1&#45;&gt;Node2</title>
<path fill="none" stroke="midnightblue" d="M191.172,-107.59C171.943,-97.6052 146.255,-84.2672 129.668,-75.6545"/>
<polygon fill="midnightblue" stroke="midnightblue" points="189.803,-110.822 200.291,-112.324 193.029,-104.61 189.803,-110.822"/>
</g>
<!-- Node5 -->
<g id="node5" class="node"><title>Node5</title>
<g id="a_node5"><a xlink:href="rds_8h.html" target="_top" xlink:title="system/rds.h">
<polygon fill="white" stroke="black" points="180,-56.5 180,-75.5 254,-75.5 254,-56.5 180,-56.5"/>
<text text-anchor="middle" x="217" y="-63.5" font-family="Helvetica,sans-Serif" font-size="10.00">system/rds.h</text>
</a>
</g>
</g>
<!-- Node1&#45;&gt;Node5 -->
<g id="edge4" class="edge"><title>Node1&#45;&gt;Node5</title>
<path fill="none" stroke="midnightblue" d="M217,-101.805C217,-92.9102 217,-82.7798 217,-75.7511"/>
<polygon fill="midnightblue" stroke="midnightblue" points="213.5,-102.083 217,-112.083 220.5,-102.083 213.5,-102.083"/>
</g>
<!-- Node7 -->
<g id="node7" class="node"><title>Node7</title>
<g id="a_node7"><a xlink:href="time_8c.html" target="_top" xlink:title="system/src/time.c">
<polygon fill="white" stroke="black" points="272.5,-56.5 272.5,-75.5 367.5,-75.5 367.5,-56.5 272.5,-56.5"/>
<text text-anchor="middle" x="320" y="-63.5" font-family="Helvetica,sans-Serif" font-size="10.00">system/src/time.c</text>
</a>
</g>
</g>
<!-- Node1&#45;&gt;Node7 -->
<g id="edge6" class="edge"><title>Node1&#45;&gt;Node7</title>
<path fill="none" stroke="midnightblue" d="M242.579,-107.59C261.623,-97.6052 287.064,-84.2672 303.492,-75.6545"/>
<polygon fill="midnightblue" stroke="midnightblue" points="240.78,-104.581 233.549,-112.324 244.031,-110.78 240.78,-104.581"/>
</g>
<!-- Node3 -->
<g id="node3" class="node"><title>Node3</title>
<g id="a_node3"><a xlink:href="main_8c.html" target="_top" xlink:title="main.c">
<polygon fill="white" stroke="black" points="0,-0.5 0,-19.5 46,-19.5 46,-0.5 0,-0.5"/>
<text text-anchor="middle" x="23" y="-7.5" font-family="Helvetica,sans-Serif" font-size="10.00">main.c</text>
</a>
</g>
</g>
<!-- Node2&#45;&gt;Node3 -->
<g id="edge2" class="edge"><title>Node2&#45;&gt;Node3</title>
<path fill="none" stroke="midnightblue" d="M89.9623,-51.1774C73.4011,-41.2407 51.582,-28.1492 37.4242,-19.6545"/>
<polygon fill="midnightblue" stroke="midnightblue" points="88.1642,-54.1802 98.5399,-56.324 91.7658,-48.1777 88.1642,-54.1802"/>
</g>
<!-- Node4 -->
<g id="node4" class="node"><title>Node4</title>
<g id="a_node4"><a xlink:href="radio_8c.html" target="_top" xlink:title="system/src/radio.c">
<polygon fill="white" stroke="black" points="64,-0.5 64,-19.5 162,-19.5 162,-0.5 64,-0.5"/>
<text text-anchor="middle" x="113" y="-7.5" font-family="Helvetica,sans-Serif" font-size="10.00">system/src/radio.c</text>
</a>
</g>
</g>
<!-- Node2&#45;&gt;Node4 -->
<g id="edge3" class="edge"><title>Node2&#45;&gt;Node4</title>
<path fill="none" stroke="midnightblue" d="M113,-45.8045C113,-36.9102 113,-26.7798 113,-19.7511"/>
<polygon fill="midnightblue" stroke="midnightblue" points="109.5,-46.083 113,-56.083 116.5,-46.083 109.5,-46.083"/>
</g>
<!-- Node6 -->
<g id="node6" class="node"><title>Node6</title>
<g id="a_node6"><a xlink:href="rds_8c.html" target="_top" xlink:title="system/src/rds.c">
<polygon fill="white" stroke="black" points="180,-0.5 180,-19.5 270,-19.5 270,-0.5 180,-0.5"/>
<text text-anchor="middle" x="225" y="-7.5" font-family="Helvetica,sans-Serif" font-size="10.00">system/src/rds.c</text>
</a>
</g>
</g>
<!-- Node5&#45;&gt;Node6 -->
<g id="edge5" class="edge"><title>Node5&#45;&gt;Node6</title>
<path fill="none" stroke="midnightblue" d="M219.8,-46.1005C221.128,-37.1357 222.651,-26.8579 223.704,-19.7511"/>
<polygon fill="midnightblue" stroke="midnightblue" points="216.324,-45.678 218.321,-56.083 223.249,-46.7039 216.324,-45.678"/>
</g>
</g>
</svg>
