<?xml version="1.0" encoding="UTF-8" standalone="no"?>
<!DOCTYPE svg PUBLIC "-//W3C//DTD SVG 1.1//EN"
 "http://www.w3.org/Graphics/SVG/1.1/DTD/svg11.dtd">
<!-- Generated by graphviz version 2.38.0 (20140413.2041)
 -->
<!-- Title: time_set Pages: 1 -->
<svg width="350pt" height="47pt"
 viewBox="0.00 0.00 350.00 47.00" xmlns="http://www.w3.org/2000/svg" xmlns:xlink="http://www.w3.org/1999/xlink">
<g id="graph0" class="graph" transform="scale(1 1) rotate(0) translate(4 43)">
<title>time_set</title>
<polygon fill="white" stroke="none" points="-4,4 -4,-43 346,-43 346,4 -4,4"/>
<!-- Node1 -->
<g id="node1" class="node"><title>Node1</title>
<polygon fill="#bfbfbf" stroke="black" points="0,-19.5 0,-38.5 54,-38.5 54,-19.5 0,-19.5"/>
<text text-anchor="middle" x="27" y="-26.5" font-family="Helvetica,sans-Serif" font-size="10.00">time_set</text>
</g>
<!-- Node2 -->
<g id="node2" class="node"><title>Node2</title>
<g id="a_node2"><a xlink:href="main_8c.html#a840291bc02cba5474a4cb46a9b9566fe" target="_top" xlink:title="main">
<polygon fill="white" stroke="black" points="304,-19.5 304,-38.5 342,-38.5 342,-19.5 304,-19.5"/>
<text text-anchor="middle" x="323" y="-26.5" font-family="Helvetica,sans-Serif" font-size="10.00">main</text>
</a>
</g>
</g>
<!-- Node1&#45;&gt;Node2 -->
<g id="edge1" class="edge"><title>Node1&#45;&gt;Node2</title>
<path fill="none" stroke="midnightblue" d="M64.4147,-29C127.828,-29 256.299,-29 303.805,-29"/>
<polygon fill="midnightblue" stroke="midnightblue" points="64.0906,-25.5001 54.0905,-29 64.0905,-32.5001 64.0906,-25.5001"/>
</g>
<!-- Node3 -->
<g id="node3" class="node"><title>Node3</title>
<g id="a_node3"><a xlink:href="rds_8c.html#a33e5a772a8a82d668cc39ebfd4ba37a4" target="_top" xlink:title="rds_group_4A">
<polygon fill="white" stroke="black" points="90,-0.5 90,-19.5 167,-19.5 167,-0.5 90,-0.5"/>
<text text-anchor="middle" x="128.5" y="-7.5" font-family="Helvetica,sans-Serif" font-size="10.00">rds_group_4A</text>
</a>
</g>
</g>
<!-- Node1&#45;&gt;Node3 -->
<g id="edge2" class="edge"><title>Node1&#45;&gt;Node3</title>
<path fill="none" stroke="midnightblue" d="M64.0545,-22.1152C72.47,-20.5082 81.4526,-18.793 89.9321,-17.1738"/>
<polygon fill="midnightblue" stroke="midnightblue" points="63.3085,-18.6944 54.1425,-24.008 64.6215,-25.5701 63.3085,-18.6944"/>
</g>
<!-- Node4 -->
<g id="node4" class="node"><title>Node4</title>
<g id="a_node4"><a xlink:href="rds_8c.html#a1c031719ba892045c773dc035058870f" target="_top" xlink:title="rds_update">
<polygon fill="white" stroke="black" points="203,-0.5 203,-19.5 268,-19.5 268,-0.5 203,-0.5"/>
<text text-anchor="middle" x="235.5" y="-7.5" font-family="Helvetica,sans-Serif" font-size="10.00">rds_update</text>
</a>
</g>
</g>
<!-- Node3&#45;&gt;Node4 -->
<g id="edge3" class="edge"><title>Node3&#45;&gt;Node4</title>
<path fill="none" stroke="midnightblue" d="M177.138,-10C185.797,-10 194.635,-10 202.697,-10"/>
<polygon fill="midnightblue" stroke="midnightblue" points="177.111,-6.5001 167.111,-10 177.111,-13.5001 177.111,-6.5001"/>
</g>
<!-- Node4&#45;&gt;Node2 -->
<g id="edge4" class="edge"><title>Node4&#45;&gt;Node2</title>
<path fill="none" stroke="midnightblue" d="M278.342,-19.2982C287.298,-21.2884 296.307,-23.2904 303.796,-24.9546"/>
<polygon fill="midnightblue" stroke="midnightblue" points="278.858,-15.8276 268.337,-17.0749 277.34,-22.6609 278.858,-15.8276"/>
</g>
</g>
</svg>
