<?xml version="1.0" encoding="UTF-8" standalone="no"?>
<!DOCTYPE svg PUBLIC "-//W3C//DTD SVG 1.1//EN"
 "http://www.w3.org/Graphics/SVG/1.1/DTD/svg11.dtd">
<!-- Generated by graphviz version 2.38.0 (20140413.2041)
 -->
<!-- Title: driver/timer.h Pages: 1 -->
<svg width="267pt" height="207pt"
 viewBox="0.00 0.00 267.00 207.00" xmlns="http://www.w3.org/2000/svg" xmlns:xlink="http://www.w3.org/1999/xlink">
<g id="graph0" class="graph" transform="scale(1 1) rotate(0) translate(4 203)">
<title>driver/timer.h</title>
<polygon fill="white" stroke="none" points="-4,4 -4,-203 263,-203 263,4 -4,4"/>
<!-- Node1 -->
<g id="node1" class="node"><title>Node1</title>
<polygon fill="#bfbfbf" stroke="black" points="51.5,-179.5 51.5,-198.5 123.5,-198.5 123.5,-179.5 51.5,-179.5"/>
<text text-anchor="middle" x="87.5" y="-186.5" font-family="Helvetica,sans-Serif" font-size="10.00">driver/timer.h</text>
</g>
<!-- Node2 -->
<g id="node2" class="node"><title>Node2</title>
<polygon fill="white" stroke="#bfbfbf" points="0,-123.5 0,-142.5 59,-142.5 59,-123.5 0,-123.5"/>
<text text-anchor="middle" x="29.5" y="-130.5" font-family="Helvetica,sans-Serif" font-size="10.00">msp430.h</text>
</g>
<!-- Node1&#45;&gt;Node2 -->
<g id="edge1" class="edge"><title>Node1&#45;&gt;Node2</title>
<path fill="none" stroke="midnightblue" d="M78.1813,-179.324C69.6074,-171.341 56.6878,-159.313 46.3124,-149.653"/>
<polygon fill="midnightblue" stroke="midnightblue" points="48.6922,-147.086 38.9883,-142.834 43.9223,-152.21 48.6922,-147.086"/>
</g>
<!-- Node3 -->
<g id="node3" class="node"><title>Node3</title>
<polygon fill="white" stroke="#bfbfbf" points="108,-0.5 108,-19.5 157,-19.5 157,-0.5 108,-0.5"/>
<text text-anchor="middle" x="132.5" y="-7.5" font-family="Helvetica,sans-Serif" font-size="10.00">stdint.h</text>
</g>
<!-- Node1&#45;&gt;Node3 -->
<g id="edge2" class="edge"><title>Node1&#45;&gt;Node3</title>
<path fill="none" stroke="midnightblue" d="M89.028,-179.257C92.8347,-157.961 103.386,-101.789 116.5,-56 119.072,-47.0212 122.478,-37.2317 125.486,-29.0833"/>
<polygon fill="midnightblue" stroke="midnightblue" points="128.838,-30.1142 129.108,-19.5228 122.292,-27.6341 128.838,-30.1142"/>
</g>
<!-- Node4 -->
<g id="node4" class="node"><title>Node4</title>
<g id="a_node4"><a xlink:href="radio__configuration_8h.html" target="_top" xlink:title="settings/radio_configuration.h">
<polygon fill="white" stroke="black" points="116,-123.5 116,-142.5 259,-142.5 259,-123.5 116,-123.5"/>
<text text-anchor="middle" x="187.5" y="-130.5" font-family="Helvetica,sans-Serif" font-size="10.00">settings/radio_configuration.h</text>
</a>
</g>
</g>
<!-- Node1&#45;&gt;Node4 -->
<g id="edge3" class="edge"><title>Node1&#45;&gt;Node4</title>
<path fill="none" stroke="midnightblue" d="M103.567,-179.324C119.458,-170.743 144.007,-157.486 162.458,-147.522"/>
<polygon fill="midnightblue" stroke="midnightblue" points="164.337,-150.486 171.473,-142.655 161.011,-144.326 164.337,-150.486"/>
</g>
<!-- Node5 -->
<g id="node5" class="node"><title>Node5</title>
<g id="a_node5"><a xlink:href="si4735__cmd__prop_8h.html" target="_top" xlink:title="driver/include/si4735\l_cmd_prop.h">
<polygon fill="white" stroke="black" points="125.5,-56.5 125.5,-86.5 229.5,-86.5 229.5,-56.5 125.5,-56.5"/>
<text text-anchor="start" x="133.5" y="-74.5" font-family="Helvetica,sans-Serif" font-size="10.00">driver/include/si4735</text>
<text text-anchor="middle" x="177.5" y="-63.5" font-family="Helvetica,sans-Serif" font-size="10.00">_cmd_prop.h</text>
</a>
</g>
</g>
<!-- Node4&#45;&gt;Node5 -->
<g id="edge4" class="edge"><title>Node4&#45;&gt;Node5</title>
<path fill="none" stroke="midnightblue" d="M186.067,-123.475C184.877,-116.396 183.125,-105.97 181.515,-96.3896"/>
<polygon fill="midnightblue" stroke="midnightblue" points="184.966,-95.8045 179.857,-86.523 178.063,-96.9648 184.966,-95.8045"/>
</g>
<!-- Node5&#45;&gt;Node3 -->
<g id="edge5" class="edge"><title>Node5&#45;&gt;Node3</title>
<path fill="none" stroke="midnightblue" d="M166.836,-56.3993C160.364,-47.8424 152.066,-36.8708 145.249,-27.857"/>
<polygon fill="midnightblue" stroke="midnightblue" points="147.872,-25.5223 139.048,-19.6578 142.289,-29.7449 147.872,-25.5223"/>
</g>
</g>
</svg>
