<?xml version="1.0" encoding="UTF-8" standalone="no"?>
<!DOCTYPE svg PUBLIC "-//W3C//DTD SVG 1.1//EN"
 "http://www.w3.org/Graphics/SVG/1.1/DTD/svg11.dtd">
<!-- Generated by graphviz version 2.38.0 (20140413.2041)
 -->
<!-- Title: time_set_time Pages: 1 -->
<svg width="848pt" height="94pt"
 viewBox="0.00 0.00 848.00 94.00" xmlns="http://www.w3.org/2000/svg" xmlns:xlink="http://www.w3.org/1999/xlink">
<g id="graph0" class="graph" transform="scale(1 1) rotate(0) translate(4 90)">
<title>time_set_time</title>
<polygon fill="white" stroke="none" points="-4,4 -4,-90 844,-90 844,4 -4,4"/>
<!-- Node1 -->
<g id="node1" class="node"><title>Node1</title>
<polygon fill="#bfbfbf" stroke="black" points="0,-57.5 0,-76.5 78,-76.5 78,-57.5 0,-57.5"/>
<text text-anchor="middle" x="39" y="-64.5" font-family="Helvetica,sans-Serif" font-size="10.00">time_set_time</text>
</g>
<!-- Node2 -->
<g id="node2" class="node"><title>Node2</title>
<g id="a_node2"><a xlink:href="main_8c.html#a840291bc02cba5474a4cb46a9b9566fe" target="_top" xlink:title="main">
<polygon fill="white" stroke="black" points="802,-38.5 802,-57.5 840,-57.5 840,-38.5 802,-38.5"/>
<text text-anchor="middle" x="821" y="-45.5" font-family="Helvetica,sans-Serif" font-size="10.00">main</text>
</a>
</g>
</g>
<!-- Node1&#45;&gt;Node2 -->
<g id="edge1" class="edge"><title>Node1&#45;&gt;Node2</title>
<path fill="none" stroke="midnightblue" d="M88.3708,-73.6301C132.578,-79.1116 199.807,-86 258.5,-86 258.5,-86 258.5,-86 614,-86 684.371,-86 766.053,-64.2897 801.743,-53.689"/>
<polygon fill="midnightblue" stroke="midnightblue" points="88.5592,-70.1261 78.1989,-72.3431 87.6805,-77.0707 88.5592,-70.1261"/>
</g>
<!-- Node3 -->
<g id="node3" class="node"><title>Node3</title>
<g id="a_node3"><a xlink:href="rds_8c.html#a33e5a772a8a82d668cc39ebfd4ba37a4" target="_top" xlink:title="rds_group_4A">
<polygon fill="white" stroke="black" points="114,-38.5 114,-57.5 191,-57.5 191,-38.5 114,-38.5"/>
<text text-anchor="middle" x="152.5" y="-45.5" font-family="Helvetica,sans-Serif" font-size="10.00">rds_group_4A</text>
</a>
</g>
</g>
<!-- Node1&#45;&gt;Node3 -->
<g id="edge2" class="edge"><title>Node1&#45;&gt;Node3</title>
<path fill="none" stroke="midnightblue" d="M88.0737,-58.8081C96.7466,-57.3302 105.672,-55.8092 113.989,-54.392"/>
<polygon fill="midnightblue" stroke="midnightblue" points="87.3301,-55.3842 78.0601,-60.5144 88.506,-62.2848 87.3301,-55.3842"/>
</g>
<!-- Node4 -->
<g id="node4" class="node"><title>Node4</title>
<g id="a_node4"><a xlink:href="rds_8c.html#a1c031719ba892045c773dc035058870f" target="_top" xlink:title="rds_update">
<polygon fill="white" stroke="black" points="227,-38.5 227,-57.5 292,-57.5 292,-38.5 227,-38.5"/>
<text text-anchor="middle" x="259.5" y="-45.5" font-family="Helvetica,sans-Serif" font-size="10.00">rds_update</text>
</a>
</g>
</g>
<!-- Node3&#45;&gt;Node4 -->
<g id="edge3" class="edge"><title>Node3&#45;&gt;Node4</title>
<path fill="none" stroke="midnightblue" d="M201.138,-48C209.797,-48 218.635,-48 226.697,-48"/>
<polygon fill="midnightblue" stroke="midnightblue" points="201.111,-44.5001 191.111,-48 201.111,-51.5001 201.111,-44.5001"/>
</g>
<!-- Node4&#45;&gt;Node2 -->
<g id="edge4" class="edge"><title>Node4&#45;&gt;Node2</title>
<path fill="none" stroke="midnightblue" d="M302.499,-48C349.872,-48 429.219,-48 497.5,-48 497.5,-48 497.5,-48 614,-48 683.382,-48 765.909,-48 801.813,-48"/>
<polygon fill="midnightblue" stroke="midnightblue" points="302.317,-44.5001 292.317,-48 302.317,-51.5001 302.317,-44.5001"/>
</g>
<!-- Node5 -->
<g id="node5" class="node"><title>Node5</title>
<g id="a_node5"><a xlink:href="radio_8c.html#ac96da2886aec92b299b27b500761564c" target="_top" xlink:title="radio_auto_search">
<polygon fill="white" stroke="black" points="328,-0.5 328,-19.5 424,-19.5 424,-0.5 328,-0.5"/>
<text text-anchor="middle" x="376" y="-7.5" font-family="Helvetica,sans-Serif" font-size="10.00">radio_auto_search</text>
</a>
</g>
</g>
<!-- Node4&#45;&gt;Node5 -->
<g id="edge5" class="edge"><title>Node4&#45;&gt;Node5</title>
<path fill="none" stroke="midnightblue" d="M299.147,-35.1741C314.51,-30.0753 331.879,-24.3109 346.116,-19.5859"/>
<polygon fill="midnightblue" stroke="midnightblue" points="297.782,-31.9392 289.393,-38.411 299.987,-38.5829 297.782,-31.9392"/>
</g>
<!-- Node6 -->
<g id="node6" class="node"><title>Node6</title>
<g id="a_node6"><a xlink:href="radio_8c.html#a832a684fc60104296fc975a7608f92b4" target="_top" xlink:title="radio_settings">
<polygon fill="white" stroke="black" points="460,-0.5 460,-19.5 537,-19.5 537,-0.5 460,-0.5"/>
<text text-anchor="middle" x="498.5" y="-7.5" font-family="Helvetica,sans-Serif" font-size="10.00">radio_settings</text>
</a>
</g>
</g>
<!-- Node5&#45;&gt;Node6 -->
<g id="edge6" class="edge"><title>Node5&#45;&gt;Node6</title>
<path fill="none" stroke="midnightblue" d="M434.303,-10C442.909,-10 451.596,-10 459.659,-10"/>
<polygon fill="midnightblue" stroke="midnightblue" points="434.279,-6.5001 424.279,-10 434.279,-13.5001 434.279,-6.5001"/>
</g>
<!-- Node7 -->
<g id="node7" class="node"><title>Node7</title>
<g id="a_node7"><a xlink:href="menu_8c.html#a5d9c190838195d7872fc7067269e20fa" target="_top" xlink:title="menu_function">
<polygon fill="white" stroke="black" points="573,-0.5 573,-19.5 653,-19.5 653,-0.5 573,-0.5"/>
<text text-anchor="middle" x="613" y="-7.5" font-family="Helvetica,sans-Serif" font-size="10.00">menu_function</text>
</a>
</g>
</g>
<!-- Node6&#45;&gt;Node7 -->
<g id="edge7" class="edge"><title>Node6&#45;&gt;Node7</title>
<path fill="none" stroke="midnightblue" d="M547.474,-10C555.985,-10 564.755,-10 572.981,-10"/>
<polygon fill="midnightblue" stroke="midnightblue" points="547.274,-6.5001 537.274,-10 547.274,-13.5001 547.274,-6.5001"/>
</g>
<!-- Node8 -->
<g id="node8" class="node"><title>Node8</title>
<g id="a_node8"><a xlink:href="menu_8c.html#aaf2a075d3159f7eeab42012941a3437f" target="_top" xlink:title="menu_handler">
<polygon fill="white" stroke="black" points="689,-0.5 689,-19.5 766,-19.5 766,-0.5 689,-0.5"/>
<text text-anchor="middle" x="727.5" y="-7.5" font-family="Helvetica,sans-Serif" font-size="10.00">menu_handler</text>
</a>
</g>
</g>
<!-- Node7&#45;&gt;Node8 -->
<g id="edge8" class="edge"><title>Node7&#45;&gt;Node8</title>
<path fill="none" stroke="midnightblue" d="M663.262,-10C671.783,-10 680.52,-10 688.676,-10"/>
<polygon fill="midnightblue" stroke="midnightblue" points="663.031,-6.5001 653.031,-10 663.031,-13.5001 663.031,-6.5001"/>
</g>
<!-- Node8&#45;&gt;Node2 -->
<g id="edge9" class="edge"><title>Node8&#45;&gt;Node2</title>
<path fill="none" stroke="midnightblue" d="M761.167,-23.5665C774.841,-29.2453 790.217,-35.6311 801.82,-40.4498"/>
<polygon fill="midnightblue" stroke="midnightblue" points="762.167,-20.1921 751.589,-19.589 759.482,-26.6568 762.167,-20.1921"/>
</g>
</g>
</svg>
