<?xml version="1.0" encoding="UTF-8" standalone="no"?>
<!DOCTYPE svg PUBLIC "-//W3C//DTD SVG 1.1//EN"
 "http://www.w3.org/Graphics/SVG/1.1/DTD/svg11.dtd">
<!-- Generated by graphviz version 2.38.0 (20140413.2041)
 -->
<!-- Title: _delay_ms Pages: 1 -->
<svg width="1071pt" height="379pt"
 viewBox="0.00 0.00 1071.00 379.00" xmlns="http://www.w3.org/2000/svg" xmlns:xlink="http://www.w3.org/1999/xlink">
<g id="graph0" class="graph" transform="scale(1 1) rotate(0) translate(4 375)">
<title>_delay_ms</title>
<polygon fill="white" stroke="none" points="-4,4 -4,-375 1067,-375 1067,4 -4,4"/>
<!-- Node1 -->
<g id="node1" class="node"><title>Node1</title>
<polygon fill="#bfbfbf" stroke="black" points="0,-114.5 0,-133.5 64,-133.5 64,-114.5 0,-114.5"/>
<text text-anchor="middle" x="32" y="-121.5" font-family="Helvetica,sans-Serif" font-size="10.00">_delay_ms</text>
</g>
<!-- Node2 -->
<g id="node2" class="node"><title>Node2</title>
<g id="a_node2"><a xlink:href="lcd_8c.html#a312eed1baec275e185dc00b760de1356" target="_top" xlink:title="lcd_init">
<polygon fill="white" stroke="black" points="536.5,-304.5 536.5,-323.5 583.5,-323.5 583.5,-304.5 536.5,-304.5"/>
<text text-anchor="middle" x="560" y="-311.5" font-family="Helvetica,sans-Serif" font-size="10.00">lcd_init</text>
</a>
</g>
</g>
<!-- Node1&#45;&gt;Node2 -->
<g id="edge1" class="edge"><title>Node1&#45;&gt;Node2</title>
<path fill="none" stroke="midnightblue" d="M39.9872,-142.859C49.9578,-167.541 70.397,-210.84 100,-238 147.9,-281.947 169.765,-282.222 232,-301 341.875,-334.153 481.95,-323.081 536.155,-316.934"/>
<polygon fill="midnightblue" stroke="midnightblue" points="43.2434,-141.576 36.3588,-133.523 36.7188,-144.111 43.2434,-141.576"/>
</g>
<!-- Node3 -->
<g id="node3" class="node"><title>Node3</title>
<g id="a_node3"><a xlink:href="main_8c.html#a840291bc02cba5474a4cb46a9b9566fe" target="_top" xlink:title="main">
<polygon fill="white" stroke="black" points="1025,-247.5 1025,-266.5 1063,-266.5 1063,-247.5 1025,-247.5"/>
<text text-anchor="middle" x="1044" y="-254.5" font-family="Helvetica,sans-Serif" font-size="10.00">main</text>
</a>
</g>
</g>
<!-- Node1&#45;&gt;Node3 -->
<g id="edge28" class="edge"><title>Node1&#45;&gt;Node3</title>
<path fill="none" stroke="midnightblue" d="M37.0065,-143.298C44.4437,-174.923 63.0963,-238.236 100,-278 160.317,-342.991 187.832,-371 276.5,-371 276.5,-371 276.5,-371 837,-371 909.307,-371 928.679,-352.871 989,-313 1008.6,-300.042 1026.51,-278.828 1035.96,-266.567"/>
<polygon fill="midnightblue" stroke="midnightblue" points="40.4201,-142.525 34.832,-133.524 33.5872,-144.045 40.4201,-142.525"/>
</g>
<!-- Node4 -->
<g id="node4" class="node"><title>Node4</title>
<g id="a_node4"><a xlink:href="lcd_8c.html#a250728451a22259562d3f01a12bbd77b" target="_top" xlink:title="lcd_command">
<polygon fill="white" stroke="black" points="109.5,-209.5 109.5,-228.5 186.5,-228.5 186.5,-209.5 109.5,-209.5"/>
<text text-anchor="middle" x="148" y="-216.5" font-family="Helvetica,sans-Serif" font-size="10.00">lcd_command</text>
</a>
</g>
</g>
<!-- Node1&#45;&gt;Node4 -->
<g id="edge3" class="edge"><title>Node1&#45;&gt;Node4</title>
<path fill="none" stroke="midnightblue" d="M52.4938,-140.245C76.3538,-160.128 115.98,-193.15 135.463,-209.386"/>
<polygon fill="midnightblue" stroke="midnightblue" points="54.6935,-137.522 44.7706,-133.809 50.2122,-142.9 54.6935,-137.522"/>
</g>
<!-- Node18 -->
<g id="node18" class="node"><title>Node18</title>
<g id="a_node18"><a xlink:href="si4735_8c.html#a876518b974a7128391e2ff86a597218f" target="_top" xlink:title="SI4735_INIT">
<polygon fill="white" stroke="black" points="916.5,-152.5 916.5,-171.5 984.5,-171.5 984.5,-152.5 916.5,-152.5"/>
<text text-anchor="middle" x="950.5" y="-159.5" font-family="Helvetica,sans-Serif" font-size="10.00">SI4735_INIT</text>
</a>
</g>
</g>
<!-- Node1&#45;&gt;Node18 -->
<g id="edge24" class="edge"><title>Node1&#45;&gt;Node18</title>
<path fill="none" stroke="midnightblue" d="M74.2218,-124C122.648,-124 205.411,-124 276.5,-124 276.5,-124 276.5,-124 706.5,-124 782.293,-124 869.804,-142.268 916.346,-153.472"/>
<polygon fill="midnightblue" stroke="midnightblue" points="74.1348,-120.5 64.1348,-124 74.1347,-127.5 74.1348,-120.5"/>
</g>
<!-- Node19 -->
<g id="node19" class="node"><title>Node19</title>
<g id="a_node19"><a xlink:href="tpa2016d2_8h.html#a69f931d3974bd6188f078754326405d3" target="_top" xlink:title="Amplifier_init">
<polygon fill="white" stroke="black" points="669.5,-76.5 669.5,-95.5 741.5,-95.5 741.5,-76.5 669.5,-76.5"/>
<text text-anchor="middle" x="705.5" y="-83.5" font-family="Helvetica,sans-Serif" font-size="10.00">Amplifier_init</text>
</a>
</g>
</g>
<!-- Node1&#45;&gt;Node19 -->
<g id="edge26" class="edge"><title>Node1&#45;&gt;Node19</title>
<path fill="none" stroke="midnightblue" d="M74.0161,-113.626C122.17,-102.374 204.599,-86 276.5,-86 276.5,-86 276.5,-86 415,-86 506.725,-86 614.798,-86 669.294,-86"/>
<polygon fill="midnightblue" stroke="midnightblue" points="73.1963,-110.223 64.2771,-115.941 74.8155,-117.033 73.1963,-110.223"/>
</g>
<!-- Node20 -->
<g id="node20" class="node"><title>Node20</title>
<g id="a_node20"><a xlink:href="radio_8c.html#afb52516b50bf1098e28be670e369b6cd" target="_top" xlink:title="radio_volume">
<polygon fill="white" stroke="black" points="111.5,-38.5 111.5,-57.5 184.5,-57.5 184.5,-38.5 111.5,-38.5"/>
<text text-anchor="middle" x="148" y="-45.5" font-family="Helvetica,sans-Serif" font-size="10.00">radio_volume</text>
</a>
</g>
</g>
<!-- Node1&#45;&gt;Node20 -->
<g id="edge29" class="edge"><title>Node1&#45;&gt;Node20</title>
<path fill="none" stroke="midnightblue" d="M51.7043,-107.943C64.7697,-97.1181 82.8733,-82.8828 100,-72 108.197,-66.7915 117.664,-61.7815 125.944,-57.6987"/>
<polygon fill="midnightblue" stroke="midnightblue" points="49.3119,-105.381 43.9069,-114.494 53.8148,-110.741 49.3119,-105.381"/>
</g>
<!-- Node21 -->
<g id="node21" class="node"><title>Node21</title>
<g id="a_node21"><a xlink:href="radio_8c.html#ac96da2886aec92b299b27b500761564c" target="_top" xlink:title="radio_auto_search">
<polygon fill="white" stroke="black" points="100,-0.5 100,-19.5 196,-19.5 196,-0.5 100,-0.5"/>
<text text-anchor="middle" x="148" y="-7.5" font-family="Helvetica,sans-Serif" font-size="10.00">radio_auto_search</text>
</a>
</g>
</g>
<!-- Node1&#45;&gt;Node21 -->
<g id="edge30" class="edge"><title>Node1&#45;&gt;Node21</title>
<path fill="none" stroke="midnightblue" d="M41.9926,-105.31C53.0075,-84.1813 73.5139,-49.9991 100,-29 104.69,-25.2818 110.204,-22.1983 115.774,-19.6747"/>
<polygon fill="midnightblue" stroke="midnightblue" points="38.8563,-103.757 37.4874,-114.263 45.1092,-106.903 38.8563,-103.757"/>
</g>
<!-- Node2&#45;&gt;Node3 -->
<g id="edge2" class="edge"><title>Node2&#45;&gt;Node3</title>
<path fill="none" stroke="midnightblue" d="M593.881,-317.491C666.925,-324.109 847.422,-334.149 989,-290 1004.73,-285.094 1020.57,-274.607 1030.98,-266.764"/>
<polygon fill="midnightblue" stroke="midnightblue" points="593.787,-313.966 583.501,-316.506 593.126,-320.935 593.787,-313.966"/>
</g>
<!-- Node4&#45;&gt;Node2 -->
<g id="edge4" class="edge"><title>Node4&#45;&gt;Node2</title>
<path fill="none" stroke="midnightblue" d="M167.219,-235.44C183.112,-248.762 207.418,-266.783 232,-276 340.367,-316.633 481.9,-316.76 536.323,-315.039"/>
<polygon fill="midnightblue" stroke="midnightblue" points="169.163,-232.494 159.306,-228.608 164.588,-237.792 169.163,-232.494"/>
</g>
<!-- Node5 -->
<g id="node5" class="node"><title>Node5</title>
<g id="a_node5"><a xlink:href="lcd_8c.html#ab99e48ab8689dcb1205c4c7c97bd9956" target="_top" xlink:title="lcd_contrast">
<polygon fill="white" stroke="black" points="242.5,-247.5 242.5,-266.5 312.5,-266.5 312.5,-247.5 242.5,-247.5"/>
<text text-anchor="middle" x="277.5" y="-254.5" font-family="Helvetica,sans-Serif" font-size="10.00">lcd_contrast</text>
</a>
</g>
</g>
<!-- Node4&#45;&gt;Node5 -->
<g id="edge5" class="edge"><title>Node4&#45;&gt;Node5</title>
<path fill="none" stroke="midnightblue" d="M191.059,-231.535C208.404,-236.705 228.181,-242.599 244.337,-247.414"/>
<polygon fill="midnightblue" stroke="midnightblue" points="191.757,-228.091 181.174,-228.589 189.757,-234.8 191.757,-228.091"/>
</g>
<!-- Node7 -->
<g id="node7" class="node"><title>Node7</title>
<g id="a_node7"><a xlink:href="lcd_8c.html#a2a4df97ebc5b396233aa31765228ef42" target="_top" xlink:title="lcd_set_courser">
<polygon fill="white" stroke="black" points="234.5,-171.5 234.5,-190.5 320.5,-190.5 320.5,-171.5 234.5,-171.5"/>
<text text-anchor="middle" x="277.5" y="-178.5" font-family="Helvetica,sans-Serif" font-size="10.00">lcd_set_courser</text>
</a>
</g>
</g>
<!-- Node4&#45;&gt;Node7 -->
<g id="edge7" class="edge"><title>Node4&#45;&gt;Node7</title>
<path fill="none" stroke="midnightblue" d="M191.059,-206.465C208.404,-201.295 228.181,-195.401 244.337,-190.586"/>
<polygon fill="midnightblue" stroke="midnightblue" points="189.757,-203.2 181.174,-209.411 191.757,-209.909 189.757,-203.2"/>
</g>
<!-- Node16 -->
<g id="node16" class="node"><title>Node16</title>
<g id="a_node16"><a xlink:href="lcd_8c.html#ac5d817278ad99ea7420d6240c7e6cba6" target="_top" xlink:title="lcd_generatechar">
<polygon fill="white" stroke="black" points="232,-209.5 232,-228.5 323,-228.5 323,-209.5 232,-209.5"/>
<text text-anchor="middle" x="277.5" y="-216.5" font-family="Helvetica,sans-Serif" font-size="10.00">lcd_generatechar</text>
</a>
</g>
</g>
<!-- Node4&#45;&gt;Node16 -->
<g id="edge21" class="edge"><title>Node4&#45;&gt;Node16</title>
<path fill="none" stroke="midnightblue" d="M196.777,-219C208.169,-219 220.288,-219 231.548,-219"/>
<polygon fill="midnightblue" stroke="midnightblue" points="196.565,-215.5 186.565,-219 196.565,-222.5 196.565,-215.5"/>
</g>
<!-- Node6 -->
<g id="node6" class="node"><title>Node6</title>
<g id="a_node6"><a xlink:href="radio_8c.html#af40ef5734842d7237918116e2decd3c0" target="_top" xlink:title="radio_contrast">
<polygon fill="white" stroke="black" points="375,-247.5 375,-266.5 453,-266.5 453,-247.5 375,-247.5"/>
<text text-anchor="middle" x="414" y="-254.5" font-family="Helvetica,sans-Serif" font-size="10.00">radio_contrast</text>
</a>
</g>
</g>
<!-- Node5&#45;&gt;Node6 -->
<g id="edge6" class="edge"><title>Node5&#45;&gt;Node6</title>
<path fill="none" stroke="midnightblue" d="M322.948,-257C339.787,-257 358.789,-257 374.983,-257"/>
<polygon fill="midnightblue" stroke="midnightblue" points="322.788,-253.5 312.788,-257 322.788,-260.5 322.788,-253.5"/>
</g>
<!-- Node8 -->
<g id="node8" class="node"><title>Node8</title>
<g id="a_node8"><a xlink:href="lcd_8c.html#acd63fb85d212730fa4fcbcbeeccd231e" target="_top" xlink:title="lcd_create_view">
<polygon fill="white" stroke="black" points="371.5,-171.5 371.5,-190.5 456.5,-190.5 456.5,-171.5 371.5,-171.5"/>
<text text-anchor="middle" x="414" y="-178.5" font-family="Helvetica,sans-Serif" font-size="10.00">lcd_create_view</text>
</a>
</g>
</g>
<!-- Node7&#45;&gt;Node8 -->
<g id="edge8" class="edge"><title>Node7&#45;&gt;Node8</title>
<path fill="none" stroke="midnightblue" d="M330.788,-181C344.26,-181 358.577,-181 371.423,-181"/>
<polygon fill="midnightblue" stroke="midnightblue" points="330.688,-177.5 320.688,-181 330.688,-184.5 330.688,-177.5"/>
</g>
<!-- Node8&#45;&gt;Node2 -->
<g id="edge9" class="edge"><title>Node8&#45;&gt;Node2</title>
<path fill="none" stroke="midnightblue" d="M463.732,-195.68C465.599,-196.999 467.368,-198.435 469,-200 500.099,-229.814 475.117,-258.968 505,-290 513.468,-298.794 525.732,-304.598 536.433,-308.292"/>
<polygon fill="midnightblue" stroke="midnightblue" points="465.427,-192.617 455.022,-190.618 461.909,-198.669 465.427,-192.617"/>
</g>
<!-- Node8&#45;&gt;Node3 -->
<g id="edge10" class="edge"><title>Node8&#45;&gt;Node3</title>
<path fill="none" stroke="midnightblue" d="M461.745,-195.077C464.299,-196.563 466.741,-198.2 469,-200 492.432,-218.675 479.475,-241.308 505,-257 580.876,-303.647 615.432,-276 704.5,-276 704.5,-276 704.5,-276 837,-276 906.676,-276 989.051,-265.089 1024.86,-259.804"/>
<polygon fill="midnightblue" stroke="midnightblue" points="463.241,-191.912 452.73,-190.58 460.116,-198.176 463.241,-191.912"/>
</g>
<!-- Node9 -->
<g id="node9" class="node"><title>Node9</title>
<g id="a_node9"><a xlink:href="menu_2src_2menu_8c.html#a5ca9d2cf65ffedfb30889ee21a6f7f3d" target="_top" xlink:title="menu_display">
<polygon fill="white" stroke="black" points="797.5,-171.5 797.5,-190.5 874.5,-190.5 874.5,-171.5 797.5,-171.5"/>
<text text-anchor="middle" x="836" y="-178.5" font-family="Helvetica,sans-Serif" font-size="10.00">menu_display</text>
</a>
</g>
</g>
<!-- Node8&#45;&gt;Node9 -->
<g id="edge11" class="edge"><title>Node8&#45;&gt;Node9</title>
<path fill="none" stroke="midnightblue" d="M466.837,-181C552.587,-181 721.966,-181 797.321,-181"/>
<polygon fill="midnightblue" stroke="midnightblue" points="466.807,-177.5 456.807,-181 466.807,-184.5 466.807,-177.5"/>
</g>
<!-- Node11 -->
<g id="node11" class="node"><title>Node11</title>
<g id="a_node11"><a xlink:href="menu_2src_2menu_8c.html#a503ed2007daa6f20b2f748eedbcb8494" target="_top" xlink:title="menu_scroll">
<polygon fill="white" stroke="black" points="525.5,-228.5 525.5,-247.5 594.5,-247.5 594.5,-228.5 525.5,-228.5"/>
<text text-anchor="middle" x="560" y="-235.5" font-family="Helvetica,sans-Serif" font-size="10.00">menu_scroll</text>
</a>
</g>
</g>
<!-- Node8&#45;&gt;Node11 -->
<g id="edge14" class="edge"><title>Node8&#45;&gt;Node11</title>
<path fill="none" stroke="midnightblue" d="M454.259,-194.047C459.264,-195.934 464.283,-197.939 469,-200 485.578,-207.244 488.422,-211.756 505,-219 512.741,-222.383 521.294,-225.614 529.268,-228.421"/>
<polygon fill="midnightblue" stroke="midnightblue" points="455.326,-190.711 444.732,-190.579 452.932,-197.289 455.326,-190.711"/>
</g>
<!-- Node14 -->
<g id="node14" class="node"><title>Node14</title>
<g id="a_node14"><a xlink:href="radio_8c.html#a51f5be293265eb7d6106c9181b357f96" target="_top" xlink:title="radio_display_handler">
<polygon fill="white" stroke="black" points="505,-190.5 505,-209.5 615,-209.5 615,-190.5 505,-190.5"/>
<text text-anchor="middle" x="560" y="-197.5" font-family="Helvetica,sans-Serif" font-size="10.00">radio_display_handler</text>
</a>
</g>
</g>
<!-- Node8&#45;&gt;Node14 -->
<g id="edge18" class="edge"><title>Node8&#45;&gt;Node14</title>
<path fill="none" stroke="midnightblue" d="M466.792,-187.834C479.149,-189.464 492.37,-191.209 504.831,-192.853"/>
<polygon fill="midnightblue" stroke="midnightblue" points="467.023,-184.334 456.651,-186.496 466.107,-191.274 467.023,-184.334"/>
</g>
<!-- Node10 -->
<g id="node10" class="node"><title>Node10</title>
<g id="a_node10"><a xlink:href="menu_2src_2menu_8c.html#a8509849c574fb30136ac9ec88081d47c" target="_top" xlink:title="menu_handler">
<polygon fill="white" stroke="black" points="912,-209.5 912,-228.5 989,-228.5 989,-209.5 912,-209.5"/>
<text text-anchor="middle" x="950.5" y="-216.5" font-family="Helvetica,sans-Serif" font-size="10.00">menu_handler</text>
</a>
</g>
</g>
<!-- Node9&#45;&gt;Node10 -->
<g id="edge12" class="edge"><title>Node9&#45;&gt;Node10</title>
<path fill="none" stroke="midnightblue" d="M874.971,-193.826C890.067,-198.925 907.132,-204.689 921.121,-209.414"/>
<polygon fill="midnightblue" stroke="midnightblue" points="875.983,-190.473 865.389,-190.589 873.743,-197.105 875.983,-190.473"/>
</g>
<!-- Node10&#45;&gt;Node3 -->
<g id="edge13" class="edge"><title>Node10&#45;&gt;Node3</title>
<path fill="none" stroke="midnightblue" d="M984.167,-232.567C997.841,-238.245 1013.22,-244.631 1024.82,-249.45"/>
<polygon fill="midnightblue" stroke="midnightblue" points="985.167,-229.192 974.589,-228.589 982.482,-235.657 985.167,-229.192"/>
</g>
<!-- Node12 -->
<g id="node12" class="node"><title>Node12</title>
<g id="a_node12"><a xlink:href="menu_2src_2menu_8c.html#a024aeffbbf4583410c047ad3a6c80946" target="_top" xlink:title="menu_scroll_settings">
<polygon fill="white" stroke="black" points="651,-228.5 651,-247.5 760,-247.5 760,-228.5 651,-228.5"/>
<text text-anchor="middle" x="705.5" y="-235.5" font-family="Helvetica,sans-Serif" font-size="10.00">menu_scroll_settings</text>
</a>
</g>
</g>
<!-- Node11&#45;&gt;Node12 -->
<g id="edge15" class="edge"><title>Node11&#45;&gt;Node12</title>
<path fill="none" stroke="midnightblue" d="M604.853,-238C619.368,-238 635.688,-238 650.854,-238"/>
<polygon fill="midnightblue" stroke="midnightblue" points="604.644,-234.5 594.644,-238 604.644,-241.5 604.644,-234.5"/>
</g>
<!-- Node13 -->
<g id="node13" class="node"><title>Node13</title>
<g id="a_node13"><a xlink:href="menu_2src_2menu_8c.html#a6e158a5dda1d308b5a56ee88538eb0fc" target="_top" xlink:title="menu_function">
<polygon fill="white" stroke="black" points="796,-209.5 796,-228.5 876,-228.5 876,-209.5 796,-209.5"/>
<text text-anchor="middle" x="836" y="-216.5" font-family="Helvetica,sans-Serif" font-size="10.00">menu_function</text>
</a>
</g>
</g>
<!-- Node12&#45;&gt;Node13 -->
<g id="edge16" class="edge"><title>Node12&#45;&gt;Node13</title>
<path fill="none" stroke="midnightblue" d="M770.144,-228.59C778.944,-227.288 787.758,-225.985 795.928,-224.777"/>
<polygon fill="midnightblue" stroke="midnightblue" points="769.631,-225.127 760.251,-230.052 770.655,-232.052 769.631,-225.127"/>
</g>
<!-- Node13&#45;&gt;Node10 -->
<g id="edge17" class="edge"><title>Node13&#45;&gt;Node10</title>
<path fill="none" stroke="midnightblue" d="M886.262,-219C894.783,-219 903.52,-219 911.676,-219"/>
<polygon fill="midnightblue" stroke="midnightblue" points="886.031,-215.5 876.031,-219 886.031,-222.5 886.031,-215.5"/>
</g>
<!-- Node15 -->
<g id="node15" class="node"><title>Node15</title>
<g id="a_node15"><a xlink:href="radio_8c.html#a921f25c9a84ad0ee0715bc7f5720ade4" target="_top" xlink:title="radio_main">
<polygon fill="white" stroke="black" points="673.5,-190.5 673.5,-209.5 737.5,-209.5 737.5,-190.5 673.5,-190.5"/>
<text text-anchor="middle" x="705.5" y="-197.5" font-family="Helvetica,sans-Serif" font-size="10.00">radio_main</text>
</a>
</g>
</g>
<!-- Node14&#45;&gt;Node15 -->
<g id="edge19" class="edge"><title>Node14&#45;&gt;Node15</title>
<path fill="none" stroke="midnightblue" d="M625.534,-200C642.209,-200 659.41,-200 673.484,-200"/>
<polygon fill="midnightblue" stroke="midnightblue" points="625.251,-196.5 615.251,-200 625.251,-203.5 625.251,-196.5"/>
</g>
<!-- Node15&#45;&gt;Node13 -->
<g id="edge20" class="edge"><title>Node15&#45;&gt;Node13</title>
<path fill="none" stroke="midnightblue" d="M747.893,-206.12C763.29,-208.397 780.702,-210.972 795.89,-213.217"/>
<polygon fill="midnightblue" stroke="midnightblue" points="748.011,-202.6 737.606,-204.599 746.987,-209.525 748.011,-202.6"/>
</g>
<!-- Node17 -->
<g id="node17" class="node"><title>Node17</title>
<g id="a_node17"><a xlink:href="lcd_8c.html#a6b9abf6cd27026b67144523ffbef4916" target="_top" xlink:title="lcd_generatebargraph">
<polygon fill="white" stroke="black" points="359,-209.5 359,-228.5 469,-228.5 469,-209.5 359,-209.5"/>
<text text-anchor="middle" x="414" y="-216.5" font-family="Helvetica,sans-Serif" font-size="10.00">lcd_generatebargraph</text>
</a>
</g>
</g>
<!-- Node16&#45;&gt;Node17 -->
<g id="edge22" class="edge"><title>Node16&#45;&gt;Node17</title>
<path fill="none" stroke="midnightblue" d="M333.298,-219C341.643,-219 350.254,-219 358.591,-219"/>
<polygon fill="midnightblue" stroke="midnightblue" points="333.287,-215.5 323.287,-219 333.287,-222.5 333.287,-215.5"/>
</g>
<!-- Node17&#45;&gt;Node2 -->
<g id="edge23" class="edge"><title>Node17&#45;&gt;Node2</title>
<path fill="none" stroke="midnightblue" d="M461.14,-232.901C463.903,-234.436 466.551,-236.131 469,-238 491.347,-255.051 483.352,-272.07 505,-290 514.165,-297.591 526.112,-303.231 536.437,-307.128"/>
<polygon fill="midnightblue" stroke="midnightblue" points="462.558,-229.699 452.029,-228.52 459.525,-236.008 462.558,-229.699"/>
</g>
<!-- Node18&#45;&gt;Node3 -->
<g id="edge25" class="edge"><title>Node18&#45;&gt;Node3</title>
<path fill="none" stroke="midnightblue" d="M968.2,-178.775C974.72,-185.363 982.239,-193.008 989,-200 1004.92,-216.464 1023.2,-235.867 1033.89,-247.261"/>
<polygon fill="midnightblue" stroke="midnightblue" points="970.639,-176.264 961.111,-171.63 965.67,-181.194 970.639,-176.264"/>
</g>
<!-- Node19&#45;&gt;Node3 -->
<g id="edge27" class="edge"><title>Node19&#45;&gt;Node3</title>
<path fill="none" stroke="midnightblue" d="M752.081,-82.4878C813.233,-80.3206 921.892,-85.7515 989,-143 1022.49,-171.568 1036.68,-225.553 1041.23,-247.431"/>
<polygon fill="midnightblue" stroke="midnightblue" points="751.799,-78.9967 741.962,-82.9317 752.106,-85.99 751.799,-78.9967"/>
</g>
</g>
</svg>
