<?xml version="1.0" encoding="UTF-8" standalone="no"?>
<!DOCTYPE svg PUBLIC "-//W3C//DTD SVG 1.1//EN"
 "http://www.w3.org/Graphics/SVG/1.1/DTD/svg11.dtd">
<!-- Generated by graphviz version 2.38.0 (20140413.2041)
 -->
<!-- Title: driver/tpa2016d2.h Pages: 1 -->
<svg width="469pt" height="330pt"
 viewBox="0.00 0.00 469.00 330.00" xmlns="http://www.w3.org/2000/svg" xmlns:xlink="http://www.w3.org/1999/xlink">
<g id="graph0" class="graph" transform="scale(1 1) rotate(0) translate(4 326)">
<title>driver/tpa2016d2.h</title>
<polygon fill="white" stroke="none" points="-4,4 -4,-326 465,-326 465,4 -4,4"/>
<!-- Node1 -->
<g id="node1" class="node"><title>Node1</title>
<polygon fill="#bfbfbf" stroke="black" points="99.5,-302.5 99.5,-321.5 194.5,-321.5 194.5,-302.5 99.5,-302.5"/>
<text text-anchor="middle" x="147" y="-309.5" font-family="Helvetica,sans-Serif" font-size="10.00">driver/tpa2016d2.h</text>
</g>
<!-- Node2 -->
<g id="node2" class="node"><title>Node2</title>
<polygon fill="white" stroke="#bfbfbf" points="28.5,-123.5 28.5,-142.5 87.5,-142.5 87.5,-123.5 28.5,-123.5"/>
<text text-anchor="middle" x="58" y="-130.5" font-family="Helvetica,sans-Serif" font-size="10.00">msp430.h</text>
</g>
<!-- Node1&#45;&gt;Node2 -->
<g id="edge1" class="edge"><title>Node1&#45;&gt;Node2</title>
<path fill="none" stroke="midnightblue" d="M142.707,-302.463C128.996,-275.195 86.0493,-189.783 67.1178,-152.133"/>
<polygon fill="midnightblue" stroke="midnightblue" points="70.0786,-150.23 62.4592,-142.868 63.8246,-153.375 70.0786,-150.23"/>
</g>
<!-- Node3 -->
<g id="node3" class="node"><title>Node3</title>
<polygon fill="white" stroke="#bfbfbf" points="207.5,-0.5 207.5,-19.5 256.5,-19.5 256.5,-0.5 207.5,-0.5"/>
<text text-anchor="middle" x="232" y="-7.5" font-family="Helvetica,sans-Serif" font-size="10.00">stdint.h</text>
</g>
<!-- Node1&#45;&gt;Node3 -->
<g id="edge2" class="edge"><title>Node1&#45;&gt;Node3</title>
<path fill="none" stroke="midnightblue" d="M119.695,-302.475C77.1836,-287.304 0,-251.316 0,-190 0,-190 0,-190 0,-132 0,-44.2163 132.194,-20.014 197.008,-13.4233"/>
<polygon fill="midnightblue" stroke="midnightblue" points="197.539,-16.8892 207.172,-12.4784 196.891,-9.91922 197.539,-16.8892"/>
</g>
<!-- Node4 -->
<g id="node4" class="node"><title>Node4</title>
<g id="a_node4"><a xlink:href="i2c_8h.html" target="_top" xlink:title="I2C implemtation for MSP430G2553, interrupt based. &#160;&#160;This implemtation based on examples from Texas I...">
<polygon fill="white" stroke="black" points="175.5,-241 175.5,-260 238.5,-260 238.5,-241 175.5,-241"/>
<text text-anchor="middle" x="207" y="-248" font-family="Helvetica,sans-Serif" font-size="10.00">driver/i2c.h</text>
</a>
</g>
</g>
<!-- Node1&#45;&gt;Node4 -->
<g id="edge3" class="edge"><title>Node1&#45;&gt;Node4</title>
<path fill="none" stroke="midnightblue" d="M155.597,-302.475C164.864,-293.285 179.817,-278.456 191.212,-267.156"/>
<polygon fill="midnightblue" stroke="midnightblue" points="193.783,-269.536 198.419,-260.009 188.854,-264.565 193.783,-269.536"/>
</g>
<!-- Node7 -->
<g id="node7" class="node"><title>Node7</title>
<g id="a_node7"><a xlink:href="timer_8h.html" target="_top" xlink:title="driver/timer.h">
<polygon fill="white" stroke="black" points="141,-179.5 141,-198.5 213,-198.5 213,-179.5 141,-179.5"/>
<text text-anchor="middle" x="177" y="-186.5" font-family="Helvetica,sans-Serif" font-size="10.00">driver/timer.h</text>
</a>
</g>
</g>
<!-- Node1&#45;&gt;Node7 -->
<g id="edge15" class="edge"><title>Node1&#45;&gt;Node7</title>
<path fill="none" stroke="midnightblue" d="M149.158,-302.298C154.001,-282.763 165.827,-235.065 172.402,-208.547"/>
<polygon fill="midnightblue" stroke="midnightblue" points="175.853,-209.172 174.862,-198.623 169.058,-207.487 175.853,-209.172"/>
</g>
<!-- Node10 -->
<g id="node10" class="node"><title>Node10</title>
<g id="a_node10"><a xlink:href="settings_2radio__pin__mapping_8h.html" target="_top" xlink:title="settings/radio_pin\l_mapping.h">
<polygon fill="white" stroke="black" points="256.5,-235.5 256.5,-265.5 349.5,-265.5 349.5,-235.5 256.5,-235.5"/>
<text text-anchor="start" x="264.5" y="-253.5" font-family="Helvetica,sans-Serif" font-size="10.00">settings/radio_pin</text>
<text text-anchor="middle" x="303" y="-242.5" font-family="Helvetica,sans-Serif" font-size="10.00">_mapping.h</text>
</a>
</g>
</g>
<!-- Node1&#45;&gt;Node10 -->
<g id="edge14" class="edge"><title>Node1&#45;&gt;Node10</title>
<path fill="none" stroke="midnightblue" d="M169.351,-302.475C192.059,-293.814 227.896,-280.145 256.747,-269.141"/>
<polygon fill="midnightblue" stroke="midnightblue" points="258.138,-272.357 266.234,-265.523 255.643,-265.817 258.138,-272.357"/>
</g>
<!-- Node4&#45;&gt;Node2 -->
<g id="edge5" class="edge"><title>Node4&#45;&gt;Node2</title>
<path fill="none" stroke="midnightblue" d="M193.083,-240.887C177.741,-231.22 152.514,-214.812 132,-199 111.431,-183.146 89.2226,-163.226 74.5595,-149.644"/>
<polygon fill="midnightblue" stroke="midnightblue" points="76.9456,-147.083 67.2478,-142.817 72.1682,-152.2 76.9456,-147.083"/>
</g>
<!-- Node4&#45;&gt;Node3 -->
<g id="edge4" class="edge"><title>Node4&#45;&gt;Node3</title>
<path fill="none" stroke="midnightblue" d="M214.934,-240.974C230.171,-223.948 263.07,-183.852 275,-143 279.777,-126.642 288.539,-92.0934 274,-56 269.401,-44.5819 260.437,-34.3284 251.968,-26.5032"/>
<polygon fill="midnightblue" stroke="midnightblue" points="254.022,-23.6533 244.158,-19.786 249.457,-28.9604 254.022,-23.6533"/>
</g>
<!-- Node5 -->
<g id="node5" class="node"><title>Node5</title>
<polygon fill="white" stroke="#bfbfbf" points="413,-179.5 413,-198.5 461,-198.5 461,-179.5 413,-179.5"/>
<text text-anchor="middle" x="437" y="-186.5" font-family="Helvetica,sans-Serif" font-size="10.00">stdlib.h</text>
</g>
<!-- Node4&#45;&gt;Node5 -->
<g id="edge6" class="edge"><title>Node4&#45;&gt;Node5</title>
<path fill="none" stroke="midnightblue" d="M229.265,-240.883C234.998,-238.815 241.19,-236.712 247,-235 312.718,-215.633 332.848,-216.32 403.104,-199.128"/>
<polygon fill="midnightblue" stroke="midnightblue" points="404.018,-202.507 412.879,-196.7 402.331,-195.714 404.018,-202.507"/>
</g>
<!-- Node6 -->
<g id="node6" class="node"><title>Node6</title>
<polygon fill="white" stroke="#bfbfbf" points="343,-179.5 343,-198.5 395,-198.5 395,-179.5 343,-179.5"/>
<text text-anchor="middle" x="369" y="-186.5" font-family="Helvetica,sans-Serif" font-size="10.00">stdarg.h</text>
</g>
<!-- Node4&#45;&gt;Node6 -->
<g id="edge7" class="edge"><title>Node4&#45;&gt;Node6</title>
<path fill="none" stroke="midnightblue" d="M230.211,-240.975C257.999,-230.769 304.723,-213.608 336.194,-202.049"/>
<polygon fill="midnightblue" stroke="midnightblue" points="337.652,-205.242 345.832,-198.509 335.239,-198.671 337.652,-205.242"/>
</g>
<!-- Node4&#45;&gt;Node7 -->
<g id="edge8" class="edge"><title>Node4&#45;&gt;Node7</title>
<path fill="none" stroke="midnightblue" d="M202.702,-240.975C198.335,-232.315 191.445,-218.649 185.897,-207.645"/>
<polygon fill="midnightblue" stroke="midnightblue" points="188.918,-205.863 181.29,-198.509 182.667,-209.014 188.918,-205.863"/>
</g>
<!-- Node7&#45;&gt;Node2 -->
<g id="edge9" class="edge"><title>Node7&#45;&gt;Node2</title>
<path fill="none" stroke="midnightblue" d="M158.144,-179.444C138.734,-170.636 108.27,-156.812 86.0355,-146.722"/>
<polygon fill="midnightblue" stroke="midnightblue" points="87.3203,-143.462 76.7677,-142.516 84.4277,-149.836 87.3203,-143.462"/>
</g>
<!-- Node7&#45;&gt;Node3 -->
<g id="edge10" class="edge"><title>Node7&#45;&gt;Node3</title>
<path fill="none" stroke="midnightblue" d="M207.247,-179.488C225.125,-172.726 246.3,-161.295 257,-143 278.404,-106.402 256.807,-55.2241 242.484,-28.6244"/>
<polygon fill="midnightblue" stroke="midnightblue" points="245.419,-26.7034 237.455,-19.7149 239.322,-30.1439 245.419,-26.7034"/>
</g>
<!-- Node8 -->
<g id="node8" class="node"><title>Node8</title>
<g id="a_node8"><a xlink:href="radio__configuration_8h.html" target="_top" xlink:title="settings/radio_configuration.h">
<polygon fill="white" stroke="black" points="105.5,-123.5 105.5,-142.5 248.5,-142.5 248.5,-123.5 105.5,-123.5"/>
<text text-anchor="middle" x="177" y="-130.5" font-family="Helvetica,sans-Serif" font-size="10.00">settings/radio_configuration.h</text>
</a>
</g>
</g>
<!-- Node7&#45;&gt;Node8 -->
<g id="edge11" class="edge"><title>Node7&#45;&gt;Node8</title>
<path fill="none" stroke="midnightblue" d="M177,-179.083C177,-172.006 177,-161.861 177,-152.986"/>
<polygon fill="midnightblue" stroke="midnightblue" points="180.5,-152.751 177,-142.751 173.5,-152.751 180.5,-152.751"/>
</g>
<!-- Node9 -->
<g id="node9" class="node"><title>Node9</title>
<g id="a_node9"><a xlink:href="si4735__cmd__prop_8h.html" target="_top" xlink:title="driver/include/si4735\l_cmd_prop.h">
<polygon fill="white" stroke="black" points="135,-56.5 135,-86.5 239,-86.5 239,-56.5 135,-56.5"/>
<text text-anchor="start" x="143" y="-74.5" font-family="Helvetica,sans-Serif" font-size="10.00">driver/include/si4735</text>
<text text-anchor="middle" x="187" y="-63.5" font-family="Helvetica,sans-Serif" font-size="10.00">_cmd_prop.h</text>
</a>
</g>
</g>
<!-- Node8&#45;&gt;Node9 -->
<g id="edge12" class="edge"><title>Node8&#45;&gt;Node9</title>
<path fill="none" stroke="midnightblue" d="M178.433,-123.475C179.623,-116.396 181.375,-105.97 182.985,-96.3896"/>
<polygon fill="midnightblue" stroke="midnightblue" points="186.437,-96.9648 184.643,-86.523 179.534,-95.8045 186.437,-96.9648"/>
</g>
<!-- Node9&#45;&gt;Node3 -->
<g id="edge13" class="edge"><title>Node9&#45;&gt;Node3</title>
<path fill="none" stroke="midnightblue" d="M197.664,-56.3993C204.136,-47.8424 212.434,-36.8708 219.251,-27.857"/>
<polygon fill="midnightblue" stroke="midnightblue" points="222.211,-29.7449 225.452,-19.6578 216.628,-25.5223 222.211,-29.7449"/>
</g>
</g>
</svg>
