<?xml version="1.0" encoding="UTF-8" standalone="no"?>
<!DOCTYPE svg PUBLIC "-//W3C//DTD SVG 1.1//EN"
 "http://www.w3.org/Graphics/SVG/1.1/DTD/svg11.dtd">
<!-- Generated by graphviz version 2.38.0 (20140413.2041)
 -->
<!-- Title: tpa2016d2_init Pages: 1 -->
<svg width="590pt" height="104pt"
 viewBox="0.00 0.00 590.00 104.00" xmlns="http://www.w3.org/2000/svg" xmlns:xlink="http://www.w3.org/1999/xlink">
<g id="graph0" class="graph" transform="scale(1 1) rotate(0) translate(4 100)">
<title>tpa2016d2_init</title>
<polygon fill="white" stroke="none" points="-4,4 -4,-100 586,-100 586,4 -4,4"/>
<!-- Node1 -->
<g id="node1" class="node"><title>Node1</title>
<polygon fill="#bfbfbf" stroke="black" points="0,-38.5 0,-57.5 80,-57.5 80,-38.5 0,-38.5"/>
<text text-anchor="middle" x="40" y="-45.5" font-family="Helvetica,sans-Serif" font-size="10.00">tpa2016d2_init</text>
</g>
<!-- Node2 -->
<g id="node2" class="node"><title>Node2</title>
<g id="a_node2"><a xlink:href="timer_8c.html#a276d5cb665b9f8b2c79e53e2f2c5b4f0" target="_top" xlink:title="_delay_ms">
<polygon fill="white" stroke="black" points="291,-76.5 291,-95.5 355,-95.5 355,-76.5 291,-76.5"/>
<text text-anchor="middle" x="323" y="-83.5" font-family="Helvetica,sans-Serif" font-size="10.00">_delay_ms</text>
</a>
</g>
</g>
<!-- Node1&#45;&gt;Node2 -->
<g id="edge1" class="edge"><title>Node1&#45;&gt;Node2</title>
<path fill="none" stroke="midnightblue" d="M80.2278,-55.8472C91.7279,-58.0055 104.344,-60.2353 116,-62 172.941,-70.621 239.144,-77.838 280.808,-82.0402"/>
<polygon fill="midnightblue" stroke="midnightblue" points="280.553,-85.532 290.851,-83.0426 281.248,-78.5666 280.553,-85.532"/>
</g>
<!-- Node4 -->
<g id="node4" class="node"><title>Node4</title>
<g id="a_node4"><a xlink:href="i2c_8h.html#a6691e5911f539e1e8178c6e983e8079a" target="_top" xlink:title="Transmits I2C commands with a variable length to a I2C slave. ">
<polygon fill="white" stroke="black" points="287,-38.5 287,-57.5 359,-57.5 359,-38.5 287,-38.5"/>
<text text-anchor="middle" x="323" y="-45.5" font-family="Helvetica,sans-Serif" font-size="10.00">i2c_write_var</text>
</a>
</g>
</g>
<!-- Node1&#45;&gt;Node4 -->
<g id="edge3" class="edge"><title>Node1&#45;&gt;Node4</title>
<path fill="none" stroke="midnightblue" d="M80.0718,-48C131.641,-48 222.244,-48 276.736,-48"/>
<polygon fill="midnightblue" stroke="midnightblue" points="276.802,-51.5001 286.802,-48 276.802,-44.5001 276.802,-51.5001"/>
</g>
<!-- Node6 -->
<g id="node6" class="node"><title>Node6</title>
<g id="a_node6"><a xlink:href="tpa2016d2_8c.html#a721d219e9bfdf0b5b266ff3f952772fd" target="_top" xlink:title="tpa2016d2_equalizer_mode">
<polygon fill="white" stroke="black" points="116,-0.5 116,-19.5 251,-19.5 251,-0.5 116,-0.5"/>
<text text-anchor="middle" x="183.5" y="-7.5" font-family="Helvetica,sans-Serif" font-size="10.00">tpa2016d2_equalizer_mode</text>
</a>
</g>
</g>
<!-- Node1&#45;&gt;Node6 -->
<g id="edge6" class="edge"><title>Node1&#45;&gt;Node6</title>
<path fill="none" stroke="midnightblue" d="M76.7064,-38.411C94.9727,-33.5056 117.408,-27.4804 136.911,-22.2429"/>
<polygon fill="midnightblue" stroke="midnightblue" points="138.055,-25.5599 146.805,-19.5859 136.239,-18.7994 138.055,-25.5599"/>
</g>
<!-- Node3 -->
<g id="node3" class="node"><title>Node3</title>
<g id="a_node3"><a xlink:href="timer_8c.html#a3c56af3315c2461dec5ced585a5f84db" target="_top" xlink:title="_delay_ten_us">
<polygon fill="white" stroke="black" points="502,-57.5 502,-76.5 582,-76.5 582,-57.5 502,-57.5"/>
<text text-anchor="middle" x="542" y="-64.5" font-family="Helvetica,sans-Serif" font-size="10.00">_delay_ten_us</text>
</a>
</g>
</g>
<!-- Node2&#45;&gt;Node3 -->
<g id="edge2" class="edge"><title>Node2&#45;&gt;Node3</title>
<path fill="none" stroke="midnightblue" d="M355.091,-83.2778C390.818,-80.1495 449.912,-74.9754 491.879,-71.3009"/>
<polygon fill="midnightblue" stroke="midnightblue" points="492.231,-74.7836 501.887,-70.4246 491.62,-67.8103 492.231,-74.7836"/>
</g>
<!-- Node5 -->
<g id="node5" class="node"><title>Node5</title>
<g id="a_node5"><a xlink:href="i2c_8c.html#ae0625b97d3437bcaca4ac4b96dd01978" target="_top" xlink:title="Transmits I2C command array to a I2C slave. ">
<polygon fill="white" stroke="black" points="395,-38.5 395,-57.5 466,-57.5 466,-38.5 395,-38.5"/>
<text text-anchor="middle" x="430.5" y="-45.5" font-family="Helvetica,sans-Serif" font-size="10.00">i2c_write_arr</text>
</a>
</g>
</g>
<!-- Node4&#45;&gt;Node5 -->
<g id="edge4" class="edge"><title>Node4&#45;&gt;Node5</title>
<path fill="none" stroke="midnightblue" d="M359.13,-48C367.312,-48 376.133,-48 384.671,-48"/>
<polygon fill="midnightblue" stroke="midnightblue" points="384.882,-51.5001 394.882,-48 384.882,-44.5001 384.882,-51.5001"/>
</g>
<!-- Node5&#45;&gt;Node3 -->
<g id="edge5" class="edge"><title>Node5&#45;&gt;Node3</title>
<path fill="none" stroke="midnightblue" d="M466.146,-54.0117C474.253,-55.4183 483.042,-56.9433 491.651,-58.4371"/>
<polygon fill="midnightblue" stroke="midnightblue" points="491.172,-61.9062 501.623,-60.1674 492.368,-55.0092 491.172,-61.9062"/>
</g>
<!-- Node6&#45;&gt;Node4 -->
<g id="edge7" class="edge"><title>Node6&#45;&gt;Node4</title>
<path fill="none" stroke="midnightblue" d="M219.197,-19.589C236.866,-24.4719 258.549,-30.4643 277.439,-35.685"/>
<polygon fill="midnightblue" stroke="midnightblue" points="276.743,-39.1238 287.314,-38.4141 278.608,-32.3767 276.743,-39.1238"/>
</g>
</g>
</svg>
